<svg xmlns="http://www.w3.org/2000/svg" width="800" height="600"><defs><linearGradient id="a" x1="0%" x2="100%" y1="0%" y2="0%"><stop offset="0%" style="stop-color:#1e40af;stop-opacity:1"/><stop offset="100%" style="stop-color:#3b82f6;stop-opacity:1"/></linearGradient><linearGradient id="b" x1="0%" x2="0%" y1="0%" y2="100%"><stop offset="0%" style="stop-color:#f8fafc;stop-opacity:1"/><stop offset="100%" style="stop-color:#e2e8f0;stop-opacity:1"/></linearGradient></defs><path fill="#fff" d="M0 0h800v600H0z"/><path fill="url(#a)" d="M0 0h800v60H0z"/><text x="400" y="35" fill="#fff" font-family="Arial, sans-serif" font-size="22" font-weight="bold" text-anchor="middle">Leverandørreskontro Eksempel - Elektro Nord AS</text><rect width="700" height="40" x="50" y="80" fill="#eff6ff" stroke="#3b82f6" rx="5"/><text x="400" y="105" fill="#1e40af" font-family="Arial, sans-serif" font-size="16" font-weight="bold" text-anchor="middle">Leverandør: Elektro Nord AS - Org.nr: 123 456 789</text><path fill="url(#b)" stroke="#64748b" stroke-width="2" d="M50 140h700v40H50z"/><path stroke="#64748b" d="M120 140v40M250 140v40M350 140v40M450 140v40M550 140v40M650 140v40"/><text x="85" y="165" fill="#374151" font-family="Arial, sans-serif" font-size="12" font-weight="bold" text-anchor="middle">Dato</text><text x="185" y="165" fill="#374151" font-family="Arial, sans-serif" font-size="12" font-weight="bold" text-anchor="middle">Beskrivelse</text><text x="300" y="165" fill="#374151" font-family="Arial, sans-serif" font-size="12" font-weight="bold" text-anchor="middle">Fakturanr</text><text x="400" y="165" fill="#374151" font-family="Arial, sans-serif" font-size="12" font-weight="bold" text-anchor="middle">Debet</text><text x="500" y="165" fill="#374151" font-family="Arial, sans-serif" font-size="12" font-weight="bold" text-anchor="middle">Kredit</text><text x="600" y="165" fill="#374151" font-family="Arial, sans-serif" font-size="12" font-weight="bold" text-anchor="middle">Saldo</text><text x="700" y="165" fill="#374151" font-family="Arial, sans-serif" font-size="12" font-weight="bold" text-anchor="middle">Status</text><path fill="#fff" stroke="#cbd5e1" d="M50 180h700v30H50z"/><path stroke="#cbd5e1" d="M120 180v30M250 180v30M350 180v30M450 180v30M550 180v30M650 180v30"/><text x="85" y="200" fill="#374151" font-family="Arial, sans-serif" font-size="11" text-anchor="middle">01.01</text><text x="185" y="200" fill="#374151" font-family="Arial, sans-serif" font-size="11" text-anchor="middle">Åpningssaldo</text><text x="300" y="200" fill="#6b7280" font-family="Arial, sans-serif" font-size="11" text-anchor="middle">-</text><text x="400" y="200" fill="#6b7280" font-family="Arial, sans-serif" font-size="11" text-anchor="middle">-</text><text x="500" y="200" fill="#6b7280" font-family="Arial, sans-serif" font-size="11" text-anchor="middle">-</text><text x="600" y="200" fill="#dc2626" font-family="Arial, sans-serif" font-size="11" font-weight="bold" text-anchor="middle">15 000</text><circle cx="700" cy="195" r="6" fill="#f59e0b"/><path fill="#f9fafb" stroke="#cbd5e1" d="M50 210h700v30H50z"/><path stroke="#cbd5e1" d="M120 210v30M250 210v30M350 210v30M450 210v30M550 210v30M650 210v30"/><text x="85" y="230" fill="#374151" font-family="Arial, sans-serif" font-size="11" text-anchor="middle">08.01</text><text x="185" y="230" fill="#374151" font-family="Arial, sans-serif" font-size="11" text-anchor="middle">Faktura materialer</text><text x="300" y="230" fill="#374151" font-family="Arial, sans-serif" font-size="11" text-anchor="middle">EN-2024-001</text><text x="400" y="230" fill="#6b7280" font-family="Arial, sans-serif" font-size="11" text-anchor="middle">-</text><text x="500" y="230" fill="#dc2626" font-family="Arial, sans-serif" font-size="11" font-weight="bold" text-anchor="middle">35 000</text><text x="600" y="230" fill="#dc2626" font-family="Arial, sans-serif" font-size="11" font-weight="bold" text-anchor="middle">50 000</text><circle cx="700" cy="225" r="6" fill="#ef4444"/><path fill="#fff" stroke="#cbd5e1" d="M50 240h700v30H50z"/><path stroke="#cbd5e1" d="M120 240v30M250 240v30M350 240v30M450 240v30M550 240v30M650 240v30"/><text x="85" y="260" fill="#374151" font-family="Arial, sans-serif" font-size="11" text-anchor="middle">15.01</text><text x="185" y="260" fill="#374151" font-family="Arial, sans-serif" font-size="11" text-anchor="middle">Utbetaling</text><text x="300" y="260" fill="#6b7280" font-family="Arial, sans-serif" font-size="11" text-anchor="middle">-</text><text x="400" y="260" fill="#10b981" font-family="Arial, sans-serif" font-size="11" font-weight="bold" text-anchor="middle">15 000</text><text x="500" y="260" fill="#6b7280" font-family="Arial, sans-serif" font-size="11" text-anchor="middle">-</text><text x="600" y="260" fill="#dc2626" font-family="Arial, sans-serif" font-size="11" font-weight="bold" text-anchor="middle">35 000</text><circle cx="700" cy="255" r="6" fill="#10b981"/><path fill="#f9fafb" stroke="#cbd5e1" d="M50 270h700v30H50z"/><path stroke="#cbd5e1" d="M120 270v30M250 270v30M350 270v30M450 270v30M550 270v30M650 270v30"/><text x="85" y="290" fill="#374151" font-family="Arial, sans-serif" font-size="11" text-anchor="middle">22.01</text><text x="185" y="290" fill="#374151" font-family="Arial, sans-serif" font-size="11" text-anchor="middle">Faktura utstyr</text><text x="300" y="290" fill="#374151" font-family="Arial, sans-serif" font-size="11" text-anchor="middle">EN-2024-002</text><text x="400" y="290" fill="#6b7280" font-family="Arial, sans-serif" font-size="11" text-anchor="middle">-</text><text x="500" y="290" fill="#dc2626" font-family="Arial, sans-serif" font-size="11" font-weight="bold" text-anchor="middle">65 000</text><text x="600" y="290" fill="#dc2626" font-family="Arial, sans-serif" font-size="11" font-weight="bold" text-anchor="middle">100 000</text><circle cx="700" cy="285" r="6" fill="#ef4444"/><path fill="#fff" stroke="#cbd5e1" d="M50 300h700v30H50z"/><path stroke="#cbd5e1" d="M120 300v30M250 300v30M350 300v30M450 300v30M550 300v30M650 300v30"/><text x="85" y="320" fill="#374151" font-family="Arial, sans-serif" font-size="11" text-anchor="middle">05.02</text><text x="185" y="320" fill="#374151" font-family="Arial, sans-serif" font-size="11" text-anchor="middle">Utbetaling</text><text x="300" y="320" fill="#6b7280" font-family="Arial, sans-serif" font-size="11" text-anchor="middle">-</text><text x="400" y="320" fill="#10b981" font-family="Arial, sans-serif" font-size="11" font-weight="bold" text-anchor="middle">35 000</text><text x="500" y="320" fill="#6b7280" font-family="Arial, sans-serif" font-size="11" text-anchor="middle">-</text><text x="600" y="320" fill="#dc2626" font-family="Arial, sans-serif" font-size="11" font-weight="bold" text-anchor="middle">65 000</text><circle cx="700" cy="315" r="6" fill="#10b981"/><path fill="#f9fafb" stroke="#cbd5e1" d="M50 330h700v30H50z"/><path stroke="#cbd5e1" d="M120 330v30M250 330v30M350 330v30M450 330v30M550 330v30M650 330v30"/><text x="85" y="350" fill="#374151" font-family="Arial, sans-serif" font-size="11" text-anchor="middle">12.02</text><text x="185" y="350" fill="#374151" font-family="Arial, sans-serif" font-size="11" text-anchor="middle">Kreditnota retur</text><text x="300" y="350" fill="#374151" font-family="Arial, sans-serif" font-size="11" text-anchor="middle">KN-EN-001</text><text x="400" y="350" fill="#3b82f6" font-family="Arial, sans-serif" font-size="11" font-weight="bold" text-anchor="middle">3 000</text><text x="500" y="350" fill="#6b7280" font-family="Arial, sans-serif" font-size="11" text-anchor="middle">-</text><text x="600" y="350" fill="#dc2626" font-family="Arial, sans-serif" font-size="11" font-weight="bold" text-anchor="middle">62 000</text><circle cx="700" cy="345" r="6" fill="#3b82f6"/><path fill="#fff" stroke="#cbd5e1" d="M50 360h700v30H50z"/><path stroke="#cbd5e1" d="M120 360v30M250 360v30M350 360v30M450 360v30M550 360v30M650 360v30"/><text x="85" y="380" fill="#374151" font-family="Arial, sans-serif" font-size="11" text-anchor="middle">28.02</text><text x="185" y="380" fill="#374151" font-family="Arial, sans-serif" font-size="11" text-anchor="middle">Faktura service</text><text x="300" y="380" fill="#374151" font-family="Arial, sans-serif" font-size="11" text-anchor="middle">EN-2024-003</text><text x="400" y="380" fill="#6b7280" font-family="Arial, sans-serif" font-size="11" text-anchor="middle">-</text><text x="500" y="380" fill="#dc2626" font-family="Arial, sans-serif" font-size="11" font-weight="bold" text-anchor="middle">25 000</text><text x="600" y="380" fill="#dc2626" font-family="Arial, sans-serif" font-size="11" font-weight="bold" text-anchor="middle">87 000</text><circle cx="700" cy="375" r="6" fill="#ef4444"/><path fill="#f9fafb" stroke="#cbd5e1" d="M50 390h700v30H50z"/><path stroke="#cbd5e1" d="M120 390v30M250 390v30M350 390v30M450 390v30M550 390v30M650 390v30"/><text x="85" y="410" fill="#374151" font-family="Arial, sans-serif" font-size="11" text-anchor="middle">15.03</text><text x="185" y="410" fill="#374151" font-family="Arial, sans-serif" font-size="11" text-anchor="middle">Utbetaling</text><text x="300" y="410" fill="#6b7280" font-family="Arial, sans-serif" font-size="11" text-anchor="middle">-</text><text x="400" y="410" fill="#10b981" font-family="Arial, sans-serif" font-size="11" font-weight="bold" text-anchor="middle">62 000</text><text x="500" y="410" fill="#6b7280" font-family="Arial, sans-serif" font-size="11" text-anchor="middle">-</text><text x="600" y="410" fill="#dc2626" font-family="Arial, sans-serif" font-size="11" font-weight="bold" text-anchor="middle">25 000</text><circle cx="700" cy="405" r="6" fill="#10b981"/><rect width="700" height="80" x="50" y="450" fill="#f8fafc" stroke="#cbd5e1" rx="5"/><text x="400" y="475" fill="#374151" font-family="Arial, sans-serif" font-size="16" font-weight="bold" text-anchor="middle">Status-forklaring:</text><circle cx="120" cy="495" r="6" fill="#ef4444"/><text x="140" y="500" fill="#374151" font-family="Arial, sans-serif" font-size="12">Ubetalt faktura</text><circle cx="280" cy="495" r="6" fill="#10b981"/><text x="300" y="500" fill="#374151" font-family="Arial, sans-serif" font-size="12">Betalt</text><circle cx="400" cy="495" r="6" fill="#3b82f6"/><text x="420" y="500" fill="#374151" font-family="Arial, sans-serif" font-size="12">Kreditnota</text><circle cx="550" cy="495" r="6" fill="#f59e0b"/><text x="570" y="500" fill="#374151" font-family="Arial, sans-serif" font-size="12">Åpningssaldo</text><text x="400" y="520" fill="#374151" font-family="Arial, sans-serif" font-size="14" font-weight="bold" text-anchor="middle">Analyse: Gjennomsnittlig betalingstid 12-15 dager | Utestående saldo: 25 000 kr</text><rect width="700" height="40" x="50" y="540" fill="#ecfdf5" stroke="#10b981" rx="5"/><text x="400" y="565" fill="#059669" font-family="Arial, sans-serif" font-size="14" font-weight="bold" text-anchor="middle">Leverandørforhold: Punktlig betaling | Lav risiko | Anbefalt kredittramme: 120 000 kr</text></svg>