<svg xmlns="http://www.w3.org/2000/svg" width="800" height="600"><defs><linearGradient id="a" x1="0%" x2="100%" y1="0%" y2="0%"><stop offset="0%" style="stop-color:#1e40af;stop-opacity:1"/><stop offset="100%" style="stop-color:#3b82f6;stop-opacity:1"/></linearGradient><linearGradient id="b" x1="0%" x2="0%" y1="0%" y2="100%"><stop offset="0%" style="stop-color:#f8fafc;stop-opacity:1"/><stop offset="100%" style="stop-color:#e2e8f0;stop-opacity:1"/></linearGradient></defs><path fill="#fff" d="M0 0h800v600H0z"/><path fill="url(#a)" d="M0 0h800v60H0z"/><text x="400" y="35" fill="#fff" font-family="Arial, sans-serif" font-size="24" font-weight="bold" text-anchor="middle">Leverandørreskontro Oversikt</text><rect width="200" height="150" x="300" y="200" fill="url(#b)" stroke="#3b82f6" stroke-width="3" rx="10"/><text x="400" y="230" fill="#1e40af" font-family="Arial, sans-serif" font-size="18" font-weight="bold" text-anchor="middle">LEVERANDØR-</text><text x="400" y="250" fill="#1e40af" font-family="Arial, sans-serif" font-size="18" font-weight="bold" text-anchor="middle">RESKONTRO</text><rect width="60" height="40" x="370" y="270" fill="#fbbf24" stroke="#f59e0b" stroke-width="2" rx="3"/><path stroke="#92400e" d="M380 280h40M380 290h40M380 300h40"/><rect width="180" height="80" x="50" y="100" fill="#eff6ff" stroke="#3b82f6" stroke-width="2" rx="8"/><text x="140" y="125" fill="#1e40af" font-family="Arial, sans-serif" font-size="14" font-weight="bold" text-anchor="middle">Leverandør-</text><text x="140" y="140" fill="#1e40af" font-family="Arial, sans-serif" font-size="14" font-weight="bold" text-anchor="middle">identifikasjon</text><text x="140" y="160" fill="#374151" font-family="Arial, sans-serif" font-size="11" text-anchor="middle">• Navn &amp; adresse</text><text x="140" y="172" fill="#374151" font-family="Arial, sans-serif" font-size="11" text-anchor="middle">• Org.nummer</text><path stroke="#64748b" stroke-width="2" marker-end="url(#c)" d="m230 140 60 60"/><rect width="180" height="80" x="570" y="100" fill="#f0fdf4" stroke="#10b981" stroke-width="2" rx="8"/><text x="660" y="125" fill="#059669" font-family="Arial, sans-serif" font-size="14" font-weight="bold" text-anchor="middle">Faktura-</text><text x="660" y="140" fill="#059669" font-family="Arial, sans-serif" font-size="14" font-weight="bold" text-anchor="middle">informasjon</text><text x="660" y="160" fill="#374151" font-family="Arial, sans-serif" font-size="11" text-anchor="middle">• Beløp &amp; datoer</text><text x="660" y="172" fill="#374151" font-family="Arial, sans-serif" font-size="11" text-anchor="middle">• Forfallsdatoer</text><path stroke="#64748b" stroke-width="2" marker-end="url(#c)" d="m570 140-60 60"/><rect width="180" height="80" x="50" y="400" fill="#fef3c7" stroke="#f59e0b" stroke-width="2" rx="8"/><text x="140" y="425" fill="#92400e" font-family="Arial, sans-serif" font-size="14" font-weight="bold" text-anchor="middle">Betalings-</text><text x="140" y="440" fill="#92400e" font-family="Arial, sans-serif" font-size="14" font-weight="bold" text-anchor="middle">registrering</text><text x="140" y="460" fill="#374151" font-family="Arial, sans-serif" font-size="11" text-anchor="middle">• Utbetalinger</text><text x="140" y="472" fill="#374151" font-family="Arial, sans-serif" font-size="11" text-anchor="middle">• Dato &amp; beløp</text><path stroke="#64748b" stroke-width="2" marker-end="url(#c)" d="m230 440 60-90"/><rect width="180" height="80" x="570" y="400" fill="#fce7f3" stroke="#ec4899" stroke-width="2" rx="8"/><text x="660" y="425" fill="#be185d" font-family="Arial, sans-serif" font-size="14" font-weight="bold" text-anchor="middle">Utestående</text><text x="660" y="440" fill="#be185d" font-family="Arial, sans-serif" font-size="14" font-weight="bold" text-anchor="middle">saldo</text><text x="660" y="460" fill="#374151" font-family="Arial, sans-serif" font-size="11" text-anchor="middle">• Aktuell gjeld</text><text x="660" y="472" fill="#374151" font-family="Arial, sans-serif" font-size="11" text-anchor="middle">• Til leverandør</text><path stroke="#64748b" stroke-width="2" marker-end="url(#c)" d="m570 440-60-90"/><rect width="200" height="60" x="300" y="80" fill="#f3e8ff" stroke="#8b5cf6" stroke-width="2" rx="8"/><text x="400" y="105" fill="#7c3aed" font-family="Arial, sans-serif" font-size="14" font-weight="bold" text-anchor="middle">Kredittgrense</text><text x="400" y="125" fill="#374151" font-family="Arial, sans-serif" font-size="11" text-anchor="middle">Maksimalt kredittbeløp</text><path stroke="#64748b" stroke-width="2" marker-end="url(#c)" d="M400 140v50"/><rect width="200" height="60" x="300" y="420" fill="#ecfdf5" stroke="#22c55e" stroke-width="2" rx="8"/><text x="400" y="445" fill="#16a34a" font-family="Arial, sans-serif" font-size="14" font-weight="bold" text-anchor="middle">Betalingshistorikk</text><text x="400" y="465" fill="#374151" font-family="Arial, sans-serif" font-size="11" text-anchor="middle">Historisk oversikt</text><path stroke="#64748b" stroke-width="2" marker-end="url(#c)" d="M400 420v-60"/><rect width="150" height="50" x="100" y="250" fill="#fef2f2" stroke="#ef4444" rx="5"/><text x="175" y="270" fill="#dc2626" font-family="Arial, sans-serif" font-size="12" font-weight="bold" text-anchor="middle">Betalingsbetingelser</text><text x="175" y="285" fill="#374151" font-family="Arial, sans-serif" font-size="10" text-anchor="middle">Avtalt betalingsfrist</text><rect width="150" height="50" x="550" y="250" fill="#f0f9ff" stroke="#0ea5e9" rx="5"/><text x="625" y="270" fill="#0284c7" font-family="Arial, sans-serif" font-size="12" font-weight="bold" text-anchor="middle">Kontaktpersoner</text><text x="625" y="285" fill="#374151" font-family="Arial, sans-serif" font-size="10" text-anchor="middle">Relevante kontakter</text><path stroke="#64748b" marker-end="url(#d)" d="M250 275h40"/><path stroke="#64748b" marker-end="url(#d)" d="M550 275h-40"/><text x="400" y="540" fill="#4b5563" font-family="Arial, sans-serif" font-size="16" font-weight="bold" text-anchor="middle">Komplett oversikt over leverandørforhold</text><text x="400" y="565" fill="#6b7280" font-family="Arial, sans-serif" font-size="14" text-anchor="middle">Alle komponenter samles i leverandørreskontro for effektiv oppfølging</text><defs><marker id="c" markerHeight="7" markerWidth="10" orient="auto" refX="9" refY="3.5"><path fill="#64748b" d="m0 0 10 3.5L0 7z"/></marker><marker id="d" markerHeight="5" markerWidth="8" orient="auto" refX="7" refY="2.5"><path fill="#64748b" d="m0 0 8 2.5L0 5z"/></marker></defs></svg>