<svg xmlns="http://www.w3.org/2000/svg" width="800" height="500"><defs><linearGradient id="a" x1="0%" x2="100%" y1="0%" y2="0%"><stop offset="0%" style="stop-color:#1e40af;stop-opacity:1"/><stop offset="100%" style="stop-color:#3b82f6;stop-opacity:1"/></linearGradient><linearGradient id="b" x1="0%" x2="0%" y1="0%" y2="100%"><stop offset="0%" style="stop-color:#eff6ff;stop-opacity:1"/><stop offset="100%" style="stop-color:#dbeafe;stop-opacity:1"/></linearGradient><linearGradient id="c" x1="0%" x2="0%" y1="0%" y2="100%"><stop offset="0%" style="stop-color:#f0fdf4;stop-opacity:1"/><stop offset="100%" style="stop-color:#dcfce7;stop-opacity:1"/></linearGradient></defs><path fill="#fff" d="M0 0h800v500H0z"/><path fill="url(#a)" d="M0 0h800v60H0z"/><text x="400" y="35" fill="#fff" font-family="Arial, sans-serif" font-size="22" font-weight="bold" text-anchor="middle">Leverandørreskontro vs Hovedbok</text><rect width="320" height="380" x="50" y="80" fill="url(#b)" stroke="#3b82f6" stroke-width="2" rx="10"/><text x="210" y="110" fill="#1e40af" font-family="Arial, sans-serif" font-size="18" font-weight="bold" text-anchor="middle">LEVERANDØRRESKONTRO</text><rect width="60" height="40" x="180" y="130" fill="#fbbf24" stroke="#f59e0b" stroke-width="2" rx="3"/><path stroke="#92400e" d="M190 140h40M190 150h40M190 160h40"/><rect width="280" height="240" x="70" y="190" fill="#fff" stroke="#cbd5e1" rx="5"/><text x="210" y="215" fill="#1e40af" font-family="Arial, sans-serif" font-size="14" font-weight="bold" text-anchor="middle">Detaljnivå:</text><text x="210" y="235" fill="#374151" font-family="Arial, sans-serif" font-size="12" text-anchor="middle">Individuell leverandør</text><text x="210" y="260" fill="#1e40af" font-family="Arial, sans-serif" font-size="14" font-weight="bold" text-anchor="middle">Formål:</text><text x="210" y="280" fill="#374151" font-family="Arial, sans-serif" font-size="12" text-anchor="middle">Leverandørspesifikk oppfølging</text><text x="210" y="305" fill="#1e40af" font-family="Arial, sans-serif" font-size="14" font-weight="bold" text-anchor="middle">Informasjon:</text><text x="210" y="325" fill="#374151" font-family="Arial, sans-serif" font-size="12" text-anchor="middle">Detaljerte transaksjoner</text><text x="210" y="350" fill="#1e40af" font-family="Arial, sans-serif" font-size="14" font-weight="bold" text-anchor="middle">Bruksområde:</text><text x="210" y="370" fill="#374151" font-family="Arial, sans-serif" font-size="12" text-anchor="middle">Betalingsoppfølging</text><text x="210" y="385" fill="#374151" font-family="Arial, sans-serif" font-size="12" text-anchor="middle">Innkjøp</text><text x="210" y="410" fill="#1e40af" font-family="Arial, sans-serif" font-size="14" font-weight="bold" text-anchor="middle">Oppdatering:</text><text x="210" y="430" fill="#374151" font-family="Arial, sans-serif" font-size="12" text-anchor="middle">Daglig/kontinuerlig</text><rect width="320" height="380" x="430" y="80" fill="url(#c)" stroke="#10b981" stroke-width="2" rx="10"/><text x="590" y="110" fill="#059669" font-family="Arial, sans-serif" font-size="18" font-weight="bold" text-anchor="middle">HOVEDBOK</text><rect width="60" height="40" x="560" y="130" fill="#34d399" stroke="#10b981" stroke-width="2" rx="3"/><path stroke="#065f46" d="M570 140h40M570 150h40M570 160h40"/><rect width="280" height="240" x="450" y="190" fill="#fff" stroke="#cbd5e1" rx="5"/><text x="590" y="215" fill="#059669" font-family="Arial, sans-serif" font-size="14" font-weight="bold" text-anchor="middle">Detaljnivå:</text><text x="590" y="235" fill="#374151" font-family="Arial, sans-serif" font-size="12" text-anchor="middle">Samlede kontoer</text><text x="590" y="260" fill="#059669" font-family="Arial, sans-serif" font-size="14" font-weight="bold" text-anchor="middle">Formål:</text><text x="590" y="280" fill="#374151" font-family="Arial, sans-serif" font-size="12" text-anchor="middle">Overordnet regnskapsføring</text><text x="590" y="305" fill="#059669" font-family="Arial, sans-serif" font-size="14" font-weight="bold" text-anchor="middle">Informasjon:</text><text x="590" y="325" fill="#374151" font-family="Arial, sans-serif" font-size="12" text-anchor="middle">Sammendrag og totaler</text><text x="590" y="350" fill="#059669" font-family="Arial, sans-serif" font-size="14" font-weight="bold" text-anchor="middle">Bruksområde:</text><text x="590" y="370" fill="#374151" font-family="Arial, sans-serif" font-size="12" text-anchor="middle">Årsregnskap</text><text x="590" y="385" fill="#374151" font-family="Arial, sans-serif" font-size="12" text-anchor="middle">Rapportering</text><text x="590" y="410" fill="#059669" font-family="Arial, sans-serif" font-size="14" font-weight="bold" text-anchor="middle">Oppdatering:</text><text x="590" y="430" fill="#374151" font-family="Arial, sans-serif" font-size="12" text-anchor="middle">Periodisk</text><circle cx="400" cy="250" r="25" fill="#ef4444" stroke="#dc2626" stroke-width="2"/><text x="400" y="258" fill="#fff" font-family="Arial, sans-serif" font-size="16" font-weight="bold" text-anchor="middle">VS</text><path stroke="#64748b" stroke-width="2" marker-end="url(#d)" d="M370 250h5"/><path stroke="#64748b" stroke-width="2" marker-end="url(#e)" d="M430 250h-5"/><text x="400" y="485" fill="#4b5563" font-family="Arial, sans-serif" font-size="14" font-weight="bold" text-anchor="middle">Leverandørreskontro er underreskontro til hovedbok</text><defs><marker id="d" markerHeight="7" markerWidth="10" orient="auto" refX="9" refY="3.5"><path fill="#64748b" d="m0 0 10 3.5L0 7z"/></marker><marker id="e" markerHeight="7" markerWidth="10" orient="auto" refX="1" refY="3.5"><path fill="#64748b" d="M10 0 0 3.5 10 7z"/></marker></defs></svg>