<svg xmlns="http://www.w3.org/2000/svg" width="800" height="600" viewBox="0 0 800 600"><defs><linearGradient id="a" x1="0%" x2="100%" y1="0%" y2="100%"><stop offset="0%" style="stop-color:#f8fafc;stop-opacity:1"/><stop offset="100%" style="stop-color:#e2e8f0;stop-opacity:1"/></linearGradient><linearGradient id="b" x1="0%" x2="100%" y1="0%" y2="100%"><stop offset="0%" style="stop-color:#3b82f6;stop-opacity:1"/><stop offset="100%" style="stop-color:#1e40af;stop-opacity:1"/></linearGradient><linearGradient id="c" x1="0%" x2="100%" y1="0%" y2="100%"><stop offset="0%" style="stop-color:#10b981;stop-opacity:1"/><stop offset="100%" style="stop-color:#059669;stop-opacity:1"/></linearGradient></defs><path fill="url(#a)" d="M0 0h800v600H0z"/><text x="400" y="40" fill="#1e293b" font-family="Arial, sans-serif" font-size="32" font-weight="bold" text-anchor="middle">Aksjeselskap (AS)</text><text x="400" y="70" fill="#64748b" font-family="Arial, sans-serif" font-size="18" text-anchor="middle">Selskapsform med begrenset ansvar</text><rect width="200" height="250" x="300" y="150" fill="url(#b)" stroke="#1e40af" stroke-width="3" rx="12"/><rect width="160" height="210" x="320" y="170" fill="#fff" opacity=".9" rx="8"/><rect width="140" height="40" x="330" y="180" fill="#1e40af" rx="4"/><text x="400" y="200" fill="#fff" font-family="Arial, sans-serif" font-size="14" font-weight="bold" text-anchor="middle">SELSKAP AS</text><text x="400" y="215" fill="#fff" font-family="Arial, sans-serif" font-size="10" text-anchor="middle">Org.nr: 123 456 789</text><rect width="30" height="30" x="340" y="240" fill="#e2e8f0" stroke="#94a3b8" rx="2"/><rect width="30" height="30" x="380" y="240" fill="#e2e8f0" stroke="#94a3b8" rx="2"/><rect width="30" height="30" x="420" y="240" fill="#e2e8f0" stroke="#94a3b8" rx="2"/><rect width="30" height="30" x="340" y="280" fill="#e2e8f0" stroke="#94a3b8" rx="2"/><rect width="30" height="30" x="380" y="280" fill="#e2e8f0" stroke="#94a3b8" rx="2"/><rect width="30" height="30" x="420" y="280" fill="#e2e8f0" stroke="#94a3b8" rx="2"/><rect width="30" height="30" x="340" y="320" fill="#e2e8f0" stroke="#94a3b8" rx="2"/><rect width="30" height="30" x="380" y="320" fill="#e2e8f2" stroke="#94a3b8" rx="2"/><rect width="30" height="30" x="420" y="320" fill="#e2e8f0" stroke="#94a3b8" rx="2"/><rect width="30" height="40" x="385" y="350" fill="#64748b" rx="2"/><circle cx="408" cy="370" r="2" fill="#f1f5f9"/><circle cx="120" cy="200" r="70" fill="#10b981" stroke="#10b981" stroke-width="2" opacity=".1"/><text x="120" y="190" fill="#059669" font-family="Arial, sans-serif" font-size="12" font-weight="bold" text-anchor="middle">Begrenset</text><text x="120" y="205" fill="#059669" font-family="Arial, sans-serif" font-size="12" font-weight="bold" text-anchor="middle">Ansvar</text><text x="120" y="225" fill="#047857" font-family="Arial, sans-serif" font-size="10" text-anchor="middle">Eiernes risiko</text><text x="120" y="240" fill="#047857" font-family="Arial, sans-serif" font-size="10" text-anchor="middle">er begrenset</text><circle cx="680" cy="200" r="70" fill="#f59e0b" stroke="#f59e0b" stroke-width="2" opacity=".1"/><text x="680" y="190" fill="#d97706" font-family="Arial, sans-serif" font-size="12" font-weight="bold" text-anchor="middle">Aksjekapital</text><text x="680" y="210" fill="#b45309" font-family="Arial, sans-serif" font-size="10" text-anchor="middle">Min. 30 000 kr</text><text x="680" y="225" fill="#b45309" font-family="Arial, sans-serif" font-size="10" text-anchor="middle">Delt i aksjer</text><circle cx="120" cy="400" r="70" fill="#8b5cf6" stroke="#8b5cf6" stroke-width="2" opacity=".1"/><text x="120" y="390" fill="#7c3aed" font-family="Arial, sans-serif" font-size="12" font-weight="bold" text-anchor="middle">Eget</text><text x="120" y="405" fill="#7c3aed" font-family="Arial, sans-serif" font-size="12" font-weight="bold" text-anchor="middle">Rettssubjekt</text><text x="120" y="425" fill="#6d28d9" font-family="Arial, sans-serif" font-size="10" text-anchor="middle">Selskapet kan</text><text x="120" y="440" fill="#6d28d9" font-family="Arial, sans-serif" font-size="10" text-anchor="middle">inngå kontrakter</text><circle cx="680" cy="400" r="70" fill="#ef4444" stroke="#ef4444" stroke-width="2" opacity=".1"/><text x="680" y="390" fill="#dc2626" font-family="Arial, sans-serif" font-size="12" font-weight="bold" text-anchor="middle">Organisering</text><text x="680" y="410" fill="#b91c1c" font-family="Arial, sans-serif" font-size="10" text-anchor="middle">Generalforsamling</text><text x="680" y="425" fill="#b91c1c" font-family="Arial, sans-serif" font-size="10" text-anchor="middle">Styre</text><text x="680" y="440" fill="#b91c1c" font-family="Arial, sans-serif" font-size="10" text-anchor="middle">Daglig leder</text><path stroke="#64748b" stroke-width="2" d="m190 200 110 20M610 200l-110 20M190 400l110-50M610 400l-110-50" opacity=".4"/><text x="400" y="480" fill="#1e293b" font-family="Arial, sans-serif" font-size="16" font-weight="bold" text-anchor="middle">Eierskap gjennom aksjer</text><rect width="60" height="40" x="280" y="500" fill="url(#c)" stroke="#059669" rx="4"/><text x="310" y="515" fill="#fff" font-family="Arial, sans-serif" font-size="8" font-weight="bold" text-anchor="middle">AKSJE</text><text x="310" y="525" fill="#fff" font-family="Arial, sans-serif" font-size="7" text-anchor="middle">25%</text><text x="310" y="535" fill="#fff" font-family="Arial, sans-serif" font-size="7" text-anchor="middle">eierandel</text><rect width="60" height="40" x="360" y="500" fill="url(#c)" stroke="#059669" rx="4"/><text x="390" y="515" fill="#fff" font-family="Arial, sans-serif" font-size="8" font-weight="bold" text-anchor="middle">AKSJE</text><text x="390" y="525" fill="#fff" font-family="Arial, sans-serif" font-size="7" text-anchor="middle">25%</text><text x="390" y="535" fill="#fff" font-family="Arial, sans-serif" font-size="7" text-anchor="middle">eierandel</text><rect width="60" height="40" x="440" y="500" fill="url(#c)" stroke="#059669" rx="4"/><text x="470" y="515" fill="#fff" font-family="Arial, sans-serif" font-size="8" font-weight="bold" text-anchor="middle">AKSJE</text><text x="470" y="525" fill="#fff" font-family="Arial, sans-serif" font-size="7" text-anchor="middle">50%</text><text x="470" y="535" fill="#fff" font-family="Arial, sans-serif" font-size="7" text-anchor="middle">eierandel</text><text x="400" y="570" fill="#64748b" font-family="Arial, sans-serif" font-size="14" text-anchor="middle">Den mest vanlige selskapsformen for større bedrifter</text></svg>