<svg xmlns="http://www.w3.org/2000/svg" width="800" height="600" viewBox="0 0 800 600"><path fill="#f8f9fa" d="M0 0h800v600H0z"/><text x="400" y="30" fill="#2c3e50" font-family="Arial, sans-serif" font-size="22" font-weight="bold" text-anchor="middle">
    Digital Bokføring Arbeidsflyt
  </text><ellipse cx="400" cy="100" fill="#3498db" opacity=".3" rx="200" ry="40"/><text x="400" y="105" fill="#2c3e50" font-family="Arial, sans-serif" font-size="14" font-weight="bold" text-anchor="middle">
    Sky-basert Bokføringssystem
  </text><rect width="120" height="60" x="50" y="180" fill="#27ae60" stroke="#229954" stroke-width="2" rx="8"/><text x="110" y="205" fill="#fff" font-family="Arial, sans-serif" font-size="12" font-weight="bold" text-anchor="middle">
    Bank API
  </text><text x="110" y="220" fill="#fff" font-family="Arial, sans-serif" font-size="10" text-anchor="middle">
    Automatisk import
  </text><rect width="120" height="60" x="200" y="180" fill="#f39c12" stroke="#e67e22" stroke-width="2" rx="8"/><text x="260" y="205" fill="#fff" font-family="Arial, sans-serif" font-size="12" font-weight="bold" text-anchor="middle">
    OCR Scanning
  </text><text x="260" y="220" fill="#fff" font-family="Arial, sans-serif" font-size="10" text-anchor="middle">
    Fakturagjenkjenning
  </text><rect width="120" height="60" x="350" y="180" fill="#9b59b6" stroke="#8e44ad" stroke-width="2" rx="8"/><text x="410" y="205" fill="#fff" font-family="Arial, sans-serif" font-size="12" font-weight="bold" text-anchor="middle">
    Manuell Input
  </text><text x="410" y="220" fill="#fff" font-family="Arial, sans-serif" font-size="10" text-anchor="middle">
    Direkte registrering
  </text><rect width="120" height="60" x="500" y="180" fill="#e74c3c" stroke="#c0392b" stroke-width="2" rx="8"/><text x="560" y="205" fill="#fff" font-family="Arial, sans-serif" font-size="12" font-weight="bold" text-anchor="middle">
    API Integrasjoner
  </text><text x="560" y="220" fill="#fff" font-family="Arial, sans-serif" font-size="10" text-anchor="middle">
    Tredjepartssystemer
  </text><path fill="none" stroke="#2c3e50" stroke-width="2" d="m110 250 240 50-10-10m10 10-10 10M260 250l110 50-10-10m10 10-10 10M410 250v50l-10-10m10 10 10-10M560 250l-110 50 10-10m-10 10 10 10"/><rect width="200" height="80" x="300" y="320" fill="#34495e" stroke="#2c3e50" stroke-width="3" rx="10"/><text x="400" y="345" fill="#fff" font-family="Arial, sans-serif" font-size="14" font-weight="bold" text-anchor="middle">
    Automatisk Behandling
  </text><text x="400" y="365" fill="#fff" font-family="Arial, sans-serif" font-size="11" text-anchor="middle">
    • Kategorisering med AI
  </text><text x="400" y="380" fill="#fff" font-family="Arial, sans-serif" font-size="11" text-anchor="middle">
    • Validering og kontroll
  </text><text x="400" y="395" fill="#fff" font-family="Arial, sans-serif" font-size="11" text-anchor="middle">
    • Automatisk kontoføring
  </text><rect width="120" height="60" x="50" y="450" fill="#16a085" stroke="#138d75" stroke-width="2" rx="8"/><text x="110" y="475" fill="#fff" font-family="Arial, sans-serif" font-size="12" font-weight="bold" text-anchor="middle">
    Sanntids
  </text><text x="110" y="490" fill="#fff" font-family="Arial, sans-serif" font-size="12" font-weight="bold" text-anchor="middle">
    Dashboard
  </text><rect width="120" height="60" x="200" y="450" fill="#d35400" stroke="#c0392b" stroke-width="2" rx="8"/><text x="260" y="475" fill="#fff" font-family="Arial, sans-serif" font-size="12" font-weight="bold" text-anchor="middle">
    Automatiske
  </text><text x="260" y="490" fill="#fff" font-family="Arial, sans-serif" font-size="12" font-weight="bold" text-anchor="middle">
    Rapporter
  </text><rect width="120" height="60" x="350" y="450" fill="#8e44ad" stroke="#7d3c98" stroke-width="2" rx="8"/><text x="410" y="475" fill="#fff" font-family="Arial, sans-serif" font-size="12" font-weight="bold" text-anchor="middle">
    Offentlig
  </text><text x="410" y="490" fill="#fff" font-family="Arial, sans-serif" font-size="12" font-weight="bold" text-anchor="middle">
    Rapportering
  </text><rect width="120" height="60" x="500" y="450" fill="#7f8c8d" stroke="#6c7b7d" stroke-width="2" rx="8"/><text x="560" y="475" fill="#fff" font-family="Arial, sans-serif" font-size="12" font-weight="bold" text-anchor="middle">
    Backup og
  </text><text x="560" y="490" fill="#fff" font-family="Arial, sans-serif" font-size="12" font-weight="bold" text-anchor="middle">
    Sikkerhet
  </text><path fill="none" stroke="#2c3e50" stroke-width="2" d="m350 410-240 30 10-10m-10 10 10 10M370 410l-110 30 10-10m-10 10 10 10M400 410l10 30-10-10m10 10 10-10M450 410l110 30-10-10m10 10-10 10"/><rect width="600" height="50" x="100" y="540" fill="#ecf0f1" stroke="#bdc3c7" stroke-width="2" rx="8"/><text x="400" y="560" fill="#2c3e50" font-family="Arial, sans-serif" font-size="14" font-weight="bold" text-anchor="middle">
    Fordeler med Digital Bokføring
  </text><text x="200" y="580" fill="#2c3e50" font-family="Arial, sans-serif" font-size="11">
    • Redusert manuelt arbeid
  </text><text x="350" y="580" fill="#2c3e50" font-family="Arial, sans-serif" font-size="11">
    • Færre feil
  </text><text x="450" y="580" fill="#2c3e50" font-family="Arial, sans-serif" font-size="11">
    • Sanntidsrapportering
  </text><text x="600" y="580" fill="#2c3e50" font-family="Arial, sans-serif" font-size="11">
    • Bedre compliance
  </text></svg>