<svg xmlns="http://www.w3.org/2000/svg" width="700" height="500" viewBox="0 0 700 500"><path fill="#f8f9fa" d="M0 0h700v500H0z"/><text x="350" y="30" fill="#2c3e50" font-family="Arial, sans-serif" font-size="20" font-weight="bold" text-anchor="middle">
    MVA Bokføring Syklus
  </text><circle cx="350" cy="250" r="80" fill="#3498db" stroke="#2980b9" stroke-width="3"/><text x="350" y="240" fill="#fff" font-family="Arial, sans-serif" font-size="14" font-weight="bold" text-anchor="middle">
    MVA
  </text><text x="350" y="255" fill="#fff" font-family="Arial, sans-serif" font-size="14" font-weight="bold" text-anchor="middle">
    OPPGJØR
  </text><text x="350" y="275" fill="#fff" font-family="Arial, sans-serif" font-size="10" text-anchor="middle">
    Hver 2. måned
  </text><rect width="140" height="70" x="100" y="80" fill="#27ae60" stroke="#229954" stroke-width="2" rx="8"/><text x="170" y="105" fill="#fff" font-family="Arial, sans-serif" font-size="12" font-weight="bold" text-anchor="middle">
    1. Inngående MVA
  </text><text x="170" y="125" fill="#fff" font-family="Arial, sans-serif" font-size="10" text-anchor="middle">
    MVA på kjøp
  </text><text x="170" y="140" fill="#fff" font-family="Arial, sans-serif" font-size="10" text-anchor="middle">
    Fradragsberettiget
  </text><path fill="none" stroke="#27ae60" stroke-width="3" d="m240 130 50 70-5-10m5 10-10-5"/><rect width="140" height="70" x="460" y="80" fill="#e74c3c" stroke="#c0392b" stroke-width="2" rx="8"/><text x="530" y="105" fill="#fff" font-family="Arial, sans-serif" font-size="12" font-weight="bold" text-anchor="middle">
    2. Utgående MVA
  </text><text x="530" y="125" fill="#fff" font-family="Arial, sans-serif" font-size="10" text-anchor="middle">
    MVA på salg
  </text><text x="530" y="140" fill="#fff" font-family="Arial, sans-serif" font-size="10" text-anchor="middle">
    Skyldig staten
  </text><path fill="none" stroke="#e74c3c" stroke-width="3" d="m460 130-50 70 5-10m-5 10 10-5"/><rect width="140" height="70" x="460" y="350" fill="#f39c12" stroke="#e67e22" stroke-width="2" rx="8"/><text x="530" y="375" fill="#fff" font-family="Arial, sans-serif" font-size="12" font-weight="bold" text-anchor="middle">
    3. Beregning
  </text><text x="530" y="395" fill="#fff" font-family="Arial, sans-serif" font-size="10" text-anchor="middle">
    Utgående - Inngående
  </text><text x="530" y="410" fill="#fff" font-family="Arial, sans-serif" font-size="10" text-anchor="middle">
    = Skyldig/Tilgode
  </text><path fill="none" stroke="#f39c12" stroke-width="3" d="m410 300 50 70-5-10m5 10-10-5"/><rect width="140" height="70" x="100" y="350" fill="#9b59b6" stroke="#8e44ad" stroke-width="2" rx="8"/><text x="170" y="375" fill="#fff" font-family="Arial, sans-serif" font-size="12" font-weight="bold" text-anchor="middle">
    4. Rapportering
  </text><text x="170" y="395" fill="#fff" font-family="Arial, sans-serif" font-size="10" text-anchor="middle">
    MVA-melding
  </text><text x="170" y="410" fill="#fff" font-family="Arial, sans-serif" font-size="10" text-anchor="middle">
    til Skatteetaten
  </text><path fill="none" stroke="#9b59b6" stroke-width="3" d="m290 300-50 70 5-10m-5 10 10-5"/><rect width="600" height="40" x="50" y="450" fill="#ecf0f1" stroke="#bdc3c7" stroke-width="2" rx="8"/><text x="350" y="470" fill="#2c3e50" font-family="Arial, sans-serif" font-size="12" font-weight="bold" text-anchor="middle">
    Norske MVA-satser: 25% (generell) | 15% (næringsmidler) | 0% (fritatt)
  </text><rect width="200" height="140" x="250" y="180" fill="#fff" stroke="#bdc3c7" stroke-width="2" rx="8"/><text x="350" y="200" fill="#2c3e50" font-family="Arial, sans-serif" font-size="12" font-weight="bold" text-anchor="middle">
    Eksempel Beregning
  </text><text x="260" y="220" fill="#2c3e50" font-family="Arial, sans-serif" font-size="10">
    Utgående MVA (salg): 50.000 kr
  </text><text x="260" y="235" fill="#2c3e50" font-family="Arial, sans-serif" font-size="10">
    Inngående MVA (kjøp): 20.000 kr
  </text><path stroke="#2c3e50" d="M260 245h180"/><text x="260" y="260" fill="#e74c3c" font-family="Arial, sans-serif" font-size="10" font-weight="bold">
    Skyldig MVA: 30.000 kr
  </text><text x="260" y="280" fill="#7f8c8d" font-family="Arial, sans-serif" font-size="9">
    Bokføring:
  </text><text x="260" y="295" fill="#7f8c8d" font-family="Arial, sans-serif" font-size="9">
    Dr. Utgående MVA 50.000
  </text><text x="260" y="307" fill="#7f8c8d" font-family="Arial, sans-serif" font-size="9">
    Kr. Inngående MVA 20.000
  </text><text x="260" y="319" fill="#7f8c8d" font-family="Arial, sans-serif" font-size="9">
    Kr. Skyldig MVA 30.000
  </text></svg>