<svg xmlns="http://www.w3.org/2000/svg" width="800" height="500"><defs><linearGradient id="a" x1="0%" x2="100%" y1="0%" y2="100%"><stop offset="0%" style="stop-color:#f8f9fa;stop-opacity:1"/><stop offset="100%" style="stop-color:#e9ecef;stop-opacity:1"/></linearGradient><linearGradient id="b" x1="0%" x2="100%" y1="0%" y2="100%"><stop offset="0%" style="stop-color:#007bff;stop-opacity:1"/><stop offset="100%" style="stop-color:#0056b3;stop-opacity:1"/></linearGradient></defs><path fill="url(#a)" d="M0 0h800v500H0z"/><text x="400" y="40" fill="#2c3e50" font-family="Arial, sans-serif" font-size="24" font-weight="bold" text-anchor="middle">
    CSV-fil Struktur og Oppbygning
  </text><rect width="700" height="350" x="50" y="80" fill="#fff" stroke="#dee2e6" stroke-width="2" rx="10"/><rect width="680" height="40" x="60" y="90" fill="url(#b)" rx="5"/><text x="70" y="115" fill="#fff" font-family="Arial, sans-serif" font-size="16" font-weight="bold">
    📄 regnskapsdata.csv
  </text><path fill="#e9ecef" stroke="#dee2e6" d="M70 140h660v30H70z"/><path stroke="#dee2e6" d="M170 140v30M320 140v30M420 140v30M520 140v30M620 140v30"/><text x="120" y="160" fill="#495057" font-family="Arial, sans-serif" font-size="12" font-weight="bold" text-anchor="middle">Dato</text><text x="245" y="160" fill="#495057" font-family="Arial, sans-serif" font-size="12" font-weight="bold" text-anchor="middle">Beskrivelse</text><text x="370" y="160" fill="#495057" font-family="Arial, sans-serif" font-size="12" font-weight="bold" text-anchor="middle">Debet</text><text x="470" y="160" fill="#495057" font-family="Arial, sans-serif" font-size="12" font-weight="bold" text-anchor="middle">Kredit</text><text x="570" y="160" fill="#495057" font-family="Arial, sans-serif" font-size="12" font-weight="bold" text-anchor="middle">Konto</text><text x="675" y="160" fill="#495057" font-family="Arial, sans-serif" font-size="12" font-weight="bold" text-anchor="middle">MVA</text><path fill="#f8f9fa" stroke="#dee2e6" d="M70 170h660v25H70z"/><path stroke="#dee2e6" d="M170 170v25M320 170v25M420 170v25M520 170v25M620 170v25"/><text x="120" y="187" fill="#495057" font-family="Courier New, monospace" font-size="10" text-anchor="middle">2024-01-15</text><text x="245" y="187" fill="#495057" font-family="Courier New, monospace" font-size="10" text-anchor="middle">Salg av varer</text><text x="370" y="187" fill="#495057" font-family="Courier New, monospace" font-size="10" text-anchor="middle">15000</text><text x="470" y="187" fill="#495057" font-family="Courier New, monospace" font-size="10" text-anchor="middle">0</text><text x="570" y="187" fill="#495057" font-family="Courier New, monospace" font-size="10" text-anchor="middle">3000</text><text x="675" y="187" fill="#495057" font-family="Courier New, monospace" font-size="10" text-anchor="middle">25</text><path fill="#fff" stroke="#dee2e6" d="M70 195h660v25H70z"/><path stroke="#dee2e6" d="M170 195v25M320 195v25M420 195v25M520 195v25M620 195v25"/><text x="120" y="212" fill="#495057" font-family="Courier New, monospace" font-size="10" text-anchor="middle">2024-01-15</text><text x="245" y="212" fill="#495057" font-family="Courier New, monospace" font-size="10" text-anchor="middle">Merverdiavgift</text><text x="370" y="212" fill="#495057" font-family="Courier New, monospace" font-size="10" text-anchor="middle">3750</text><text x="470" y="212" fill="#495057" font-family="Courier New, monospace" font-size="10" text-anchor="middle">0</text><text x="570" y="212" fill="#495057" font-family="Courier New, monospace" font-size="10" text-anchor="middle">2700</text><text x="675" y="212" fill="#495057" font-family="Courier New, monospace" font-size="10" text-anchor="middle">0</text><path fill="#f8f9fa" stroke="#dee2e6" d="M70 220h660v25H70z"/><path stroke="#dee2e6" d="M170 220v25M320 220v25M420 220v25M520 220v25M620 220v25"/><text x="120" y="237" fill="#495057" font-family="Courier New, monospace" font-size="10" text-anchor="middle">2024-01-15</text><text x="245" y="237" fill="#495057" font-family="Courier New, monospace" font-size="10" text-anchor="middle">Kundefordring</text><text x="370" y="237" fill="#495057" font-family="Courier New, monospace" font-size="10" text-anchor="middle">0</text><text x="470" y="237" fill="#495057" font-family="Courier New, monospace" font-size="10" text-anchor="middle">18750</text><text x="570" y="237" fill="#495057" font-family="Courier New, monospace" font-size="10" text-anchor="middle">1500</text><text x="675" y="237" fill="#495057" font-family="Courier New, monospace" font-size="10" text-anchor="middle">0</text><path stroke="#6c757d" stroke-dasharray="5,5" stroke-width="2" d="M70 260h660"/><text x="400" y="275" fill="#6c757d" font-family="Arial, sans-serif" font-size="12" text-anchor="middle">... flere rader ...</text><path fill="none" stroke="#dc3545" stroke-width="2" marker-end="url(#c)" d="m400 130 100-40"/><text x="520" y="85" fill="#dc3545" font-family="Arial, sans-serif" font-size="12" font-weight="bold">Kolonneoverskrifter</text><text x="520" y="100" fill="#6c757d" font-family="Arial, sans-serif" font-size="10">(Header-rad)</text><path fill="none" stroke="#28a745" stroke-width="2" marker-end="url(#d)" d="M170 300 70 340"/><text x="50" y="355" fill="#28a745" font-family="Arial, sans-serif" font-size="12" font-weight="bold">Skilletegn</text><text x="50" y="370" fill="#6c757d" font-family="Arial, sans-serif" font-size="10">(Komma eller semikolon)</text><path fill="none" stroke="#007bff" stroke-width="2" marker-end="url(#e)" d="m600 300 100 40"/><text x="650" y="355" fill="#007bff" font-family="Arial, sans-serif" font-size="12" font-weight="bold">Regnskapsdata</text><text x="650" y="370" fill="#6c757d" font-family="Arial, sans-serif" font-size="10">(Strukturerte verdier)</text><rect width="700" height="40" x="50" y="450" fill="#e9ecef" rx="5"/><text x="60" y="470" fill="#495057" font-family="Arial, sans-serif" font-size="14" font-weight="bold">Nøkkelegenskaper:</text><text x="200" y="470" fill="#495057" font-family="Arial, sans-serif" font-size="12">• Tekstbasert format</text><text x="350" y="470" fill="#495057" font-family="Arial, sans-serif" font-size="12">• Universell kompatibilitet</text><text x="520" y="470" fill="#495057" font-family="Arial, sans-serif" font-size="12">• Strukturerte data</text><defs><marker id="c" markerHeight="7" markerWidth="10" orient="auto" refX="9" refY="3.5"><path fill="#dc3545" d="m0 0 10 3.5L0 7z"/></marker><marker id="d" markerHeight="7" markerWidth="10" orient="auto" refX="9" refY="3.5"><path fill="#28a745" d="m0 0 10 3.5L0 7z"/></marker><marker id="e" markerHeight="7" markerWidth="10" orient="auto" refX="9" refY="3.5"><path fill="#007bff" d="m0 0 10 3.5L0 7z"/></marker></defs></svg>