<svg xmlns="http://www.w3.org/2000/svg" viewBox="0 0 800 600"><path fill="#f8f9fa" d="M0 0h800v600H0z"/><text x="400" y="30" fill="#2c3e50" font-family="Arial, sans-serif" font-size="22" font-weight="bold" text-anchor="middle">
    Bransjespesifikke Selvfinansieringsstrategier
  </text><rect width="220" height="250" x="50" y="60" fill="#e8f4f8" stroke="#3498db" stroke-width="2" rx="10"/><text x="160" y="85" fill="#2c3e50" font-family="Arial, sans-serif" font-size="16" font-weight="bold" text-anchor="middle">
    Kapitalintensive Bransjer
  </text><text x="160" y="105" fill="#7f8c8d" font-family="Arial, sans-serif" font-size="12" text-anchor="middle">
    (Produksjon, Industri)
  </text><rect width="190" height="60" x="65" y="120" fill="#fff" stroke="#bdc3c7" rx="5"/><text x="160" y="135" fill="#e74c3c" font-family="Arial, sans-serif" font-size="12" font-weight="bold" text-anchor="middle">
    Utfordringer:
  </text><text x="75" y="150" fill="#2c3e50" font-family="Arial, sans-serif" font-size="10">
    • Høye anleggsinvesteringer
  </text><text x="75" y="162" fill="#2c3e50" font-family="Arial, sans-serif" font-size="10">
    • Lange avskrivningsperioder
  </text><text x="75" y="174" fill="#2c3e50" font-family="Arial, sans-serif" font-size="10">
    • Store vedlikeholdsbehov
  </text><rect width="190" height="105" x="65" y="190" fill="#fff" stroke="#bdc3c7" rx="5"/><text x="160" y="205" fill="#27ae60" font-family="Arial, sans-serif" font-size="12" font-weight="bold" text-anchor="middle">
    Strategier:
  </text><text x="75" y="220" fill="#2c3e50" font-family="Arial, sans-serif" font-size="10">
    • Aggressiv avskrivningspolitikk
  </text><text x="75" y="232" fill="#2c3e50" font-family="Arial, sans-serif" font-size="10">
    • Vedlikeholdsavsetninger
  </text><text x="75" y="244" fill="#2c3e50" font-family="Arial, sans-serif" font-size="10">
    • Kapasitetsutnyttelse
  </text><text x="75" y="256" fill="#2c3e50" font-family="Arial, sans-serif" font-size="10">
    • Systematisk oppsparring
  </text><text x="75" y="268" fill="#2c3e50" font-family="Arial, sans-serif" font-size="10">
    • Fokus på operasjonell effektivitet
  </text><text x="75" y="280" fill="#2c3e50" font-family="Arial, sans-serif" font-size="10">
    • Langsiktig planlegging
  </text><rect width="220" height="250" x="290" y="60" fill="#f0f8e8" stroke="#27ae60" stroke-width="2" rx="10"/><text x="400" y="85" fill="#2c3e50" font-family="Arial, sans-serif" font-size="16" font-weight="bold" text-anchor="middle">
    Servicebransjer
  </text><text x="400" y="105" fill="#7f8c8d" font-family="Arial, sans-serif" font-size="12" text-anchor="middle">
    (Rådgivning, IT, Konsulenter)
  </text><rect width="190" height="60" x="305" y="120" fill="#fff" stroke="#bdc3c7" rx="5"/><text x="400" y="135" fill="#e67e22" font-family="Arial, sans-serif" font-size="12" font-weight="bold" text-anchor="middle">
    Karakteristika:
  </text><text x="315" y="150" fill="#2c3e50" font-family="Arial, sans-serif" font-size="10">
    • Lav kapitalintensitet
  </text><text x="315" y="162" fill="#2c3e50" font-family="Arial, sans-serif" font-size="10">
    • Høy personalkostnadsandel
  </text><text x="315" y="174" fill="#2c3e50" font-family="Arial, sans-serif" font-size="10">
    • Immaterielle eiendeler
  </text><rect width="190" height="105" x="305" y="190" fill="#fff" stroke="#bdc3c7" rx="5"/><text x="400" y="205" fill="#27ae60" font-family="Arial, sans-serif" font-size="12" font-weight="bold" text-anchor="middle">
    Strategier:
  </text><text x="315" y="220" fill="#2c3e50" font-family="Arial, sans-serif" font-size="10">
    • Høy utbyttepolitikk
  </text><text x="315" y="232" fill="#2c3e50" font-family="Arial, sans-serif" font-size="10">
    • Menneskelege investeringer
  </text><text x="315" y="244" fill="#2c3e50" font-family="Arial, sans-serif" font-size="10">
    • Kompetanseutvikling
  </text><text x="315" y="256" fill="#2c3e50" font-family="Arial, sans-serif" font-size="10">
    • Teknologiinvesteringer
  </text><text x="315" y="268" fill="#2c3e50" font-family="Arial, sans-serif" font-size="10">
    • Fleksibel kapitalstruktur
  </text><text x="315" y="280" fill="#2c3e50" font-family="Arial, sans-serif" font-size="10">
    • Rask tilpasning til marked
  </text><rect width="220" height="250" x="530" y="60" fill="#fdf2e9" stroke="#e67e22" stroke-width="2" rx="10"/><text x="640" y="85" fill="#2c3e50" font-family="Arial, sans-serif" font-size="16" font-weight="bold" text-anchor="middle">
    Vekstbedrifter
  </text><text x="640" y="105" fill="#7f8c8d" font-family="Arial, sans-serif" font-size="12" text-anchor="middle">
    (Oppstart, Scale-up)
  </text><path fill="#e67e22" stroke="#d35400" d="M545 120h50v30h-50z"/><text x="570" y="140" fill="#fff" font-family="Arial, sans-serif" font-size="10" font-weight="bold" text-anchor="middle">
    Fase
  </text><path fill="#e67e22" stroke="#d35400" d="M595 120h80v30h-80z"/><text x="635" y="140" fill="#fff" font-family="Arial, sans-serif" font-size="10" font-weight="bold" text-anchor="middle">
    Fokus
  </text><path fill="#e67e22" stroke="#d35400" d="M675 120h60v30h-60z"/><text x="705" y="140" fill="#fff" font-family="Arial, sans-serif" font-size="10" font-weight="bold" text-anchor="middle">
    Prioritet
  </text><path fill="#fff" stroke="#bdc3c7" d="M545 150h50v40h-50z"/><text x="570" y="170" fill="#2c3e50" font-family="Arial, sans-serif" font-size="9" text-anchor="middle">
    Oppstart
  </text><path fill="#fff" stroke="#bdc3c7" d="M595 150h80v40h-80z"/><text x="635" y="165" fill="#2c3e50" font-family="Arial, sans-serif" font-size="9" text-anchor="middle">
    Minimum
  </text><text x="635" y="178" fill="#2c3e50" font-family="Arial, sans-serif" font-size="9" text-anchor="middle">
    overskudd
  </text><path fill="#fff" stroke="#bdc3c7" d="M675 150h60v40h-60z"/><text x="705" y="165" fill="#2c3e50" font-family="Arial, sans-serif" font-size="9" text-anchor="middle">
    Overlevel
  </text><text x="705" y="178" fill="#2c3e50" font-family="Arial, sans-serif" font-size="9" text-anchor="middle">
    og vekst
  </text><path fill="#fff" stroke="#bdc3c7" d="M545 190h50v40h-50z"/><text x="570" y="210" fill="#2c3e50" font-family="Arial, sans-serif" font-size="9" text-anchor="middle">
    Vekst
  </text><path fill="#fff" stroke="#bdc3c7" d="M595 190h80v40h-80z"/><text x="635" y="205" fill="#2c3e50" font-family="Arial, sans-serif" font-size="9" text-anchor="middle">
    Reinvestering
  </text><text x="635" y="218" fill="#2c3e50" font-family="Arial, sans-serif" font-size="9" text-anchor="middle">
    av alt
  </text><path fill="#fff" stroke="#bdc3c7" d="M675 190h60v40h-60z"/><text x="705" y="205" fill="#2c3e50" font-family="Arial, sans-serif" font-size="9" text-anchor="middle">
    Markeds-
  </text><text x="705" y="218" fill="#2c3e50" font-family="Arial, sans-serif" font-size="9" text-anchor="middle">
    posisjon
  </text><path fill="#fff" stroke="#bdc3c7" d="M545 230h50v40h-50z"/><text x="570" y="250" fill="#2c3e50" font-family="Arial, sans-serif" font-size="9" text-anchor="middle">
    Modning
  </text><path fill="#fff" stroke="#bdc3c7" d="M595 230h80v40h-80z"/><text x="635" y="245" fill="#2c3e50" font-family="Arial, sans-serif" font-size="9" text-anchor="middle">
    Balansert
  </text><text x="635" y="258" fill="#2c3e50" font-family="Arial, sans-serif" font-size="9" text-anchor="middle">
    tilnærming
  </text><path fill="#fff" stroke="#bdc3c7" d="M675 230h60v40h-60z"/><text x="705" y="245" fill="#2c3e50" font-family="Arial, sans-serif" font-size="9" text-anchor="middle">
    Bærekraftig
  </text><text x="705" y="258" fill="#2c3e50" font-family="Arial, sans-serif" font-size="9" text-anchor="middle">
    lønnsomhet
  </text><rect width="700" height="200" x="50" y="340" fill="#f8f9fa" stroke="#95a5a6" stroke-width="2" rx="10"/><text x="400" y="365" fill="#2c3e50" font-family="Arial, sans-serif" font-size="18" font-weight="bold" text-anchor="middle">
    Sammenligning av Selvfinansieringsstrategier
  </text><path fill="#34495e" stroke="#2c3e50" d="M80 380h120v25H80z"/><text x="140" y="398" fill="#fff" font-family="Arial, sans-serif" font-size="11" font-weight="bold" text-anchor="middle">
    Faktor
  </text><path fill="#3498db" stroke="#2980b9" d="M200 380h150v25H200z"/><text x="275" y="398" fill="#fff" font-family="Arial, sans-serif" font-size="11" font-weight="bold" text-anchor="middle">
    Kapitalintensiv
  </text><path fill="#27ae60" stroke="#229954" d="M350 380h150v25H350z"/><text x="425" y="398" fill="#fff" font-family="Arial, sans-serif" font-size="11" font-weight="bold" text-anchor="middle">
    Service
  </text><path fill="#e67e22" stroke="#d35400" d="M500 380h150v25H500z"/><text x="575" y="398" fill="#fff" font-family="Arial, sans-serif" font-size="11" font-weight="bold" text-anchor="middle">
    Vekst
  </text><path fill="#fff" stroke="#bdc3c7" d="M80 405h120v25H80z"/><text x="140" y="423" fill="#2c3e50" font-family="Arial, sans-serif" font-size="10" text-anchor="middle">
    Kapitalintensitet
  </text><path fill="#fff" stroke="#bdc3c7" d="M200 405h150v25H200z"/><text x="275" y="423" fill="#2c3e50" font-family="Arial, sans-serif" font-size="10" text-anchor="middle">
    Høy
  </text><path fill="#fff" stroke="#bdc3c7" d="M350 405h150v25H350z"/><text x="425" y="423" fill="#2c3e50" font-family="Arial, sans-serif" font-size="10" text-anchor="middle">
    Lav
  </text><path fill="#fff" stroke="#bdc3c7" d="M500 405h150v25H500z"/><text x="575" y="423" fill="#2c3e50" font-family="Arial, sans-serif" font-size="10" text-anchor="middle">
    Variabel
  </text><path fill="#fff" stroke="#bdc3c7" d="M80 430h120v25H80z"/><text x="140" y="448" fill="#2c3e50" font-family="Arial, sans-serif" font-size="10" text-anchor="middle">
    Utbyttepolitikk
  </text><path fill="#fff" stroke="#bdc3c7" d="M200 430h150v25H200z"/><text x="275" y="448" fill="#2c3e50" font-family="Arial, sans-serif" font-size="10" text-anchor="middle">
    Lav/Moderat
  </text><path fill="#fff" stroke="#bdc3c7" d="M350 430h150v25H350z"/><text x="425" y="448" fill="#2c3e50" font-family="Arial, sans-serif" font-size="10" text-anchor="middle">
    Høy
  </text><path fill="#fff" stroke="#bdc3c7" d="M500 430h150v25H500z"/><text x="575" y="448" fill="#2c3e50" font-family="Arial, sans-serif" font-size="10" text-anchor="middle">
    Minimal/Null
  </text><path fill="#fff" stroke="#bdc3c7" d="M80 455h120v25H80z"/><text x="140" y="473" fill="#2c3e50" font-family="Arial, sans-serif" font-size="10" text-anchor="middle">
    Investeringsfokus
  </text><path fill="#fff" stroke="#bdc3c7" d="M200 455h150v25H200z"/><text x="275" y="473" fill="#2c3e50" font-family="Arial, sans-serif" font-size="10" text-anchor="middle">
    Anleggsmidler
  </text><path fill="#fff" stroke="#bdc3c7" d="M350 455h150v25H350z"/><text x="425" y="473" fill="#2c3e50" font-family="Arial, sans-serif" font-size="10" text-anchor="middle">
    Kompetanse/IT
  </text><path fill="#fff" stroke="#bdc3c7" d="M500 455h150v25H500z"/><text x="575" y="473" fill="#2c3e50" font-family="Arial, sans-serif" font-size="10" text-anchor="middle">
    Vekst/Utvikling
  </text><path fill="#fff" stroke="#bdc3c7" d="M80 480h120v25H80z"/><text x="140" y="498" fill="#2c3e50" font-family="Arial, sans-serif" font-size="10" text-anchor="middle">
    Planleggingshorisont
  </text><path fill="#fff" stroke="#bdc3c7" d="M200 480h150v25H200z"/><text x="275" y="498" fill="#2c3e50" font-family="Arial, sans-serif" font-size="10" text-anchor="middle">
    Langsiktig (5-10 år)
  </text><path fill="#fff" stroke="#bdc3c7" d="M350 480h150v25H350z"/><text x="425" y="498" fill="#2c3e50" font-family="Arial, sans-serif" font-size="10" text-anchor="middle">
    Kort/Mellomlang
  </text><path fill="#fff" stroke="#bdc3c7" d="M500 480h150v25H500z"/><text x="575" y="498" fill="#2c3e50" font-family="Arial, sans-serif" font-size="10" text-anchor="middle">
    Fleksibel
  </text><rect width="570" height="30" x="80" y="520" fill="#d5dbdb" stroke="#95a5a6" rx="5"/><text x="365" y="540" fill="#2c3e50" font-family="Arial, sans-serif" font-size="12" font-weight="bold" text-anchor="middle">
    Nøkkel: Tilpass selvfinansieringsstrategi til bransjens karakteristika og livssyklusfase
  </text></svg>