<svg xmlns="http://www.w3.org/2000/svg" width="800" height="600" viewBox="0 0 800 600"><defs><linearGradient id="a" x1="0%" x2="100%" y1="0%" y2="100%"><stop offset="0%" style="stop-color:#f8fafc;stop-opacity:1"/><stop offset="100%" style="stop-color:#e2e8f0;stop-opacity:1"/></linearGradient><linearGradient id="b" x1="0%" x2="100%" y1="0%" y2="100%"><stop offset="0%" style="stop-color:#3b82f6;stop-opacity:1"/><stop offset="100%" style="stop-color:#1d4ed8;stop-opacity:1"/></linearGradient></defs><path fill="url(#a)" d="M0 0h800v600H0z"/><text x="400" y="50" fill="#1e293b" font-family="Arial, sans-serif" font-size="28" font-weight="bold" text-anchor="middle">
    Selvfinansiering
  </text><path fill="url(#b)" stroke="#1e40af" stroke-width="2" d="M0 40h100v80H0z" transform="translate(350 120)"/><path fill="#dbeafe" d="M360 170h15v15h-15zM380 170h15v15h-15zM405 170h15v15h-15zM425 170h15v15h-15zM360 190h15v15h-15zM380 190h15v15h-15zM405 190h15v15h-15zM425 190h15v15h-15zM360 210h15v15h-15zM380 210h15v15h-15zM405 210h15v15h-15zM425 210h15v15h-15z"/><path fill="#059669" stroke="#047857" stroke-width="2" d="M400 160h-50l50-30 50 30z"/><text x="50" y="140" fill="#1e293b" font-family="Arial, sans-serif" font-size="14" font-weight="bold" text-anchor="middle" transform="translate(350 120)">
      Bedrift
    </text><g transform="translate(50 250)"><text x="100" fill="#059669" font-family="Arial, sans-serif" font-size="18" font-weight="bold" text-anchor="middle">
      Interne Finansieringskilder
    </text><rect width="160" height="40" x="20" y="20" fill="#dcfce7" stroke="#16a34a" stroke-width="2" rx="5"/><text x="100" y="35" fill="#15803d" font-family="Arial, sans-serif" font-size="12" font-weight="bold" text-anchor="middle">
      Tilbakeholdt Overskudd
    </text><text x="100" y="50" fill="#15803d" font-family="Arial, sans-serif" font-size="10" text-anchor="middle">
      Årsresultat - Utbytte
    </text><rect width="160" height="40" x="20" y="80" fill="#dcfce7" stroke="#16a34a" stroke-width="2" rx="5"/><text x="100" y="95" fill="#15803d" font-family="Arial, sans-serif" font-size="12" font-weight="bold" text-anchor="middle">
      Avskrivninger
    </text><text x="100" y="110" fill="#15803d" font-family="Arial, sans-serif" font-size="10" text-anchor="middle">
      Kontantfri kostnader
    </text><rect width="160" height="40" x="20" y="140" fill="#dcfce7" stroke="#16a34a" stroke-width="2" rx="5"/><text x="100" y="155" fill="#15803d" font-family="Arial, sans-serif" font-size="12" font-weight="bold" text-anchor="middle">
      Arbeidskapitaloptimalisering
    </text><text x="100" y="170" fill="#15803d" font-family="Arial, sans-serif" font-size="10" text-anchor="middle">
      Frigjorte midler
    </text></g><g transform="translate(550 250)"><text x="100" fill="#dc2626" font-family="Arial, sans-serif" font-size="18" font-weight="bold" text-anchor="middle">
      Eksterne Alternativer
    </text><rect width="160" height="40" x="20" y="20" fill="#fef2f2" stroke="#dc2626" stroke-width="2" rx="5"/><text x="100" y="35" fill="#dc2626" font-family="Arial, sans-serif" font-size="12" font-weight="bold" text-anchor="middle">
      Banklån
    </text><text x="100" y="50" fill="#dc2626" font-family="Arial, sans-serif" font-size="10" text-anchor="middle">
      Renter og avdrag
    </text><rect width="160" height="40" x="20" y="80" fill="#fef2f2" stroke="#dc2626" stroke-width="2" rx="5"/><text x="100" y="95" fill="#dc2626" font-family="Arial, sans-serif" font-size="12" font-weight="bold" text-anchor="middle">
      Ny Egenkapital
    </text><text x="100" y="110" fill="#dc2626" font-family="Arial, sans-serif" font-size="10" text-anchor="middle">
      Utvanning av eierskap
    </text><rect width="160" height="40" x="20" y="140" fill="#fef2f2" stroke="#dc2626" stroke-width="2" rx="5"/><text x="100" y="155" fill="#dc2626" font-family="Arial, sans-serif" font-size="12" font-weight="bold" text-anchor="middle">
      Annen Finansiering
    </text><text x="100" y="170" fill="#dc2626" font-family="Arial, sans-serif" font-size="10" text-anchor="middle">
      Ulike betingelser
    </text></g><defs><marker id="c" markerHeight="10" markerUnits="strokeWidth" markerWidth="10" orient="auto" refX="9" refY="3"><path fill="#16a34a" d="M0 0v6l9-3z"/></marker><marker id="d" markerHeight="10" markerUnits="strokeWidth" markerWidth="10" orient="auto" refX="9" refY="3"><path fill="#dc2626" d="M0 0v6l9-3z"/></marker></defs><path fill="none" stroke="#16a34a" stroke-width="3" marker-end="url(#c)" d="M230 350q60-30 120-70"/><path fill="none" stroke="#dc2626" stroke-width="3" marker-end="url(#d)" d="M570 350q-60-30-120-70"/><text x="200" fill="#1e293b" font-family="Arial, sans-serif" font-size="16" font-weight="bold" text-anchor="middle" transform="translate(200 480)">
      Fordeler ved Selvfinansiering
    </text><g transform="translate(200 505)"><circle cx="15" cy="15" r="8" fill="#10b981"/><text x="12" y="19" fill="#fff" font-family="Arial, sans-serif" font-size="12" font-weight="bold" text-anchor="middle">✓</text><text x="35" y="19" fill="#1e293b" font-family="Arial, sans-serif" font-size="12">
        Finansiell uavhengighet
      </text></g><g transform="translate(350 505)"><circle cx="15" cy="15" r="8" fill="#10b981"/><text x="12" y="19" fill="#fff" font-family="Arial, sans-serif" font-size="12" font-weight="bold" text-anchor="middle">✓</text><text x="35" y="19" fill="#1e293b" font-family="Arial, sans-serif" font-size="12">
        Ingen rentekostnader
      </text></g><g transform="translate(200 530)"><circle cx="15" cy="15" r="8" fill="#10b981"/><text x="12" y="19" fill="#fff" font-family="Arial, sans-serif" font-size="12" font-weight="bold" text-anchor="middle">✓</text><text x="35" y="19" fill="#1e293b" font-family="Arial, sans-serif" font-size="12">
        Beholder full kontroll
      </text></g><g transform="translate(350 530)"><circle cx="15" cy="15" r="8" fill="#10b981"/><text x="12" y="19" fill="#fff" font-family="Arial, sans-serif" font-size="12" font-weight="bold" text-anchor="middle">✓</text><text x="35" y="19" fill="#1e293b" font-family="Arial, sans-serif" font-size="12">
        Økt finansiell stabilitet
      </text></g></svg>