<svg xmlns="http://www.w3.org/2000/svg" viewBox="0 0 800 600"><path fill="#f8f9fa" d="M0 0h800v600H0z"/><text x="400" y="30" fill="#2c3e50" font-family="Arial, sans-serif" font-size="24" font-weight="bold" text-anchor="middle">
    Regnskapsmessig Behandling av Selvfinansiering
  </text><rect width="300" height="200" x="50" y="70" fill="#e8f4f8" stroke="#3498db" stroke-width="2" rx="10"/><text x="200" y="95" fill="#2c3e50" font-family="Arial, sans-serif" font-size="16" font-weight="bold" text-anchor="middle">
    Årsavslutningsprosess
  </text><rect width="260" height="40" x="70" y="110" fill="#fff" stroke="#bdc3c7" rx="5"/><text x="85" y="125" fill="#2c3e50" font-family="Arial, sans-serif" font-size="11">
    1. Resultatdisponering:
  </text><text x="85" y="140" fill="#7f8c8d" font-family="Arial, sans-serif" font-size="10">
    Debet: Årsresultat / Kredit: Fri egenkapital
  </text><rect width="260" height="40" x="70" y="160" fill="#fff" stroke="#bdc3c7" rx="5"/><text x="85" y="175" fill="#2c3e50" font-family="Arial, sans-serif" font-size="11">
    2. Utbyttevedtak:
  </text><text x="85" y="190" fill="#7f8c8d" font-family="Arial, sans-serif" font-size="10">
    Debet: Fri egenkapital / Kredit: Foreslått utbytte
  </text><rect width="260" height="40" x="70" y="210" fill="#fff" stroke="#bdc3c7" rx="5"/><text x="85" y="225" fill="#2c3e50" font-family="Arial, sans-serif" font-size="11">
    3. Tilbakeholdt overskudd:
  </text><text x="85" y="240" fill="#7f8c8d" font-family="Arial, sans-serif" font-size="10">
    Årsresultat - Foreslått utbytte
  </text><rect width="300" height="200" x="450" y="70" fill="#f0f8e8" stroke="#27ae60" stroke-width="2" rx="10"/><text x="600" y="95" fill="#2c3e50" font-family="Arial, sans-serif" font-size="16" font-weight="bold" text-anchor="middle">
    Balansepresentasjon
  </text><rect width="260" height="35" x="470" y="110" fill="#fff" stroke="#bdc3c7" rx="5"/><text x="485" y="130" fill="#2c3e50" font-family="Arial, sans-serif" font-size="11">
    Aksjekapital (Innbetalt kapital)
  </text><rect width="260" height="35" x="470" y="155" fill="#fff" stroke="#bdc3c7" rx="5"/><text x="485" y="175" fill="#2c3e50" font-family="Arial, sans-serif" font-size="11">
    Overkursfond (Kapital over pålydende)
  </text><rect width="260" height="35" x="470" y="200" fill="#fff" stroke="#bdc3c7" rx="5"/><text x="485" y="220" fill="#2c3e50" font-family="Arial, sans-serif" font-size="11">
    Annen egenkapital (Tilbakeholdt overskudd)
  </text><rect width="700" height="250" x="50" y="300" fill="#fdf2e9" stroke="#e67e22" stroke-width="2" rx="10"/><text x="400" y="325" fill="#2c3e50" font-family="Arial, sans-serif" font-size="16" font-weight="bold" text-anchor="middle">
    Kontantstrømoppstilling - Selvfinansieringseffekt
  </text><path fill="#e67e22" stroke="#d35400" d="M80 340h200v30H80z"/><text x="180" y="360" fill="#fff" font-family="Arial, sans-serif" font-size="12" font-weight="bold" text-anchor="middle">
    Kontantstrømkategori
  </text><path fill="#e67e22" stroke="#d35400" d="M280 340h240v30H280z"/><text x="400" y="360" fill="#fff" font-family="Arial, sans-serif" font-size="12" font-weight="bold" text-anchor="middle">
    Selvfinansieringselement
  </text><path fill="#e67e22" stroke="#d35400" d="M520 340h150v30H520z"/><text x="595" y="360" fill="#fff" font-family="Arial, sans-serif" font-size="12" font-weight="bold" text-anchor="middle">
    Effekt
  </text><path fill="#fff" stroke="#bdc3c7" d="M80 370h200v30H80z"/><text x="180" y="390" fill="#2c3e50" font-family="Arial, sans-serif" font-size="11" text-anchor="middle">
    Drift
  </text><path fill="#fff" stroke="#bdc3c7" d="M280 370h240v30H280z"/><text x="400" y="390" fill="#2c3e50" font-family="Arial, sans-serif" font-size="11" text-anchor="middle">
    Årsresultat + Avskrivninger
  </text><path fill="#d5f4e6" stroke="#27ae60" d="M520 370h150v30H520z"/><text x="595" y="390" fill="#27ae60" font-family="Arial, sans-serif" font-size="11" text-anchor="middle">
    Positiv
  </text><path fill="#fff" stroke="#bdc3c7" d="M80 400h200v30H80z"/><text x="180" y="420" fill="#2c3e50" font-family="Arial, sans-serif" font-size="11" text-anchor="middle">
    Investering
  </text><path fill="#fff" stroke="#bdc3c7" d="M280 400h240v30H280z"/><text x="400" y="420" fill="#2c3e50" font-family="Arial, sans-serif" font-size="11" text-anchor="middle">
    Reinvestering av avskrivninger
  </text><path fill="#f8e6e6" stroke="#e74c3c" d="M520 400h150v30H520z"/><text x="595" y="420" fill="#e74c3c" font-family="Arial, sans-serif" font-size="11" text-anchor="middle">
    Negativ
  </text><path fill="#fff" stroke="#bdc3c7" d="M80 430h200v30H80z"/><text x="180" y="450" fill="#2c3e50" font-family="Arial, sans-serif" font-size="11" text-anchor="middle">
    Finansiering
  </text><path fill="#fff" stroke="#bdc3c7" d="M280 430h240v30H280z"/><text x="400" y="450" fill="#2c3e50" font-family="Arial, sans-serif" font-size="11" text-anchor="middle">
    Utbytteutbetaling
  </text><path fill="#f8e6e6" stroke="#e74c3c" d="M520 430h150v30H520z"/><text x="595" y="450" fill="#e74c3c" font-family="Arial, sans-serif" font-size="11" text-anchor="middle">
    Negativ
  </text><rect width="590" height="50" x="80" y="480" fill="#e8f4f8" stroke="#3498db" stroke-width="2" rx="10"/><text x="375" y="500" fill="#2c3e50" font-family="Arial, sans-serif" font-size="14" font-weight="bold" text-anchor="middle">
    Netto selvfinansieringseffekt = Drifts-KS + Avskrivninger - Utbytte - Reinvesteringer
  </text><text x="375" y="520" fill="#7f8c8d" font-family="Arial, sans-serif" font-size="12" text-anchor="middle">
    (Positiv verdi = Styrket finansiell posisjon)
  </text><path fill="none" stroke="#95a5a6" stroke-width="2" marker-end="url(#a)" d="M200 280v15"/><path fill="none" stroke="#95a5a6" stroke-width="2" marker-end="url(#a)" d="M600 280v15"/><defs><marker id="a" markerHeight="7" markerWidth="10" orient="auto" refX="9" refY="3.5"><path fill="#95a5a6" d="m0 0 10 3.5L0 7z"/></marker></defs></svg>