<svg xmlns="http://www.w3.org/2000/svg" width="800" height="500" viewBox="0 0 800 500"><path fill="#f8f9fa" d="M0 0h800v500H0z"/><text x="400" y="40" fill="#2c3e50" font-family="Arial, sans-serif" font-size="28" font-weight="bold" text-anchor="middle">Minimumskrav til Kjørebok</text><g transform="translate(350 80)"><rect width="100" height="120" fill="#e74c3c" rx="8"/><path fill="#fff" d="M8 8h84v104H8z"/><text x="50" y="30" fill="#2c3e50" font-family="Arial, sans-serif" font-size="12" font-weight="bold" text-anchor="middle">KJØREBOK</text></g><g transform="translate(50 120)"><circle cx="20" cy="20" r="18" fill="#3498db"/><text x="20" y="26" fill="#fff" font-family="Arial, sans-serif" font-size="14" font-weight="bold" text-anchor="middle">1</text><rect width="120" height="30" x="50" y="5" fill="#ecf0f1" stroke="#bdc3c7" rx="5"/><text x="110" y="25" fill="#2c3e50" font-family="Arial, sans-serif" font-size="14" font-weight="bold" text-anchor="middle">Dato for kjøretur</text><g transform="translate(180 8)"><rect width="24" height="24" fill="#34495e" rx="2"/><path fill="#fff" d="M2 6h20v16H2z"/><path stroke="#34495e" stroke-width="2" d="M6 2v6M18 2v6"/><path stroke="#34495e" d="M4 12h4M10 12h4M16 12h4"/></g></g><g transform="translate(50 180)"><circle cx="20" cy="20" r="18" fill="#2ecc71"/><text x="20" y="26" fill="#fff" font-family="Arial, sans-serif" font-size="14" font-weight="bold" text-anchor="middle">2</text><rect width="150" height="30" x="50" y="5" fill="#ecf0f1" stroke="#bdc3c7" rx="5"/><text x="125" y="25" fill="#2c3e50" font-family="Arial, sans-serif" font-size="14" font-weight="bold" text-anchor="middle">Kilometerstand start/slutt</text><g transform="translate(210 8)"><circle cx="12" cy="12" r="12" fill="#34495e"/><circle cx="12" cy="12" r="8" fill="#fff"/><text x="12" y="16" fill="#2c3e50" font-family="Arial, sans-serif" font-size="8" text-anchor="middle">KM</text></g></g><g transform="translate(50 240)"><circle cx="20" cy="20" r="18" fill="#f39c12"/><text x="20" y="26" fill="#fff" font-family="Arial, sans-serif" font-size="14" font-weight="bold" text-anchor="middle">3</text><rect width="140" height="30" x="50" y="5" fill="#ecf0f1" stroke="#bdc3c7" rx="5"/><text x="120" y="25" fill="#2c3e50" font-family="Arial, sans-serif" font-size="14" font-weight="bold" text-anchor="middle">Formål med reisen</text><g transform="translate(200 8)"><rect width="24" height="24" fill="#34495e" rx="2"/><path fill="#fff" d="M3 3h18v18H3z"/><path stroke="#34495e" d="M6 8h12M6 12h12M6 16h9"/></g></g><g transform="translate(450 120)"><circle cx="20" cy="20" r="18" fill="#9b59b6"/><text x="20" y="26" fill="#fff" font-family="Arial, sans-serif" font-size="14" font-weight="bold" text-anchor="middle">4</text><rect width="140" height="30" x="50" y="5" fill="#ecf0f1" stroke="#bdc3c7" rx="5"/><text x="120" y="25" fill="#2c3e50" font-family="Arial, sans-serif" font-size="14" font-weight="bold" text-anchor="middle">Destinasjon/møtested</text><g transform="translate(200 8)"><circle cx="12" cy="18" r="10" fill="#e74c3c"/><circle cx="12" cy="15" r="4" fill="#fff"/><path fill="#e74c3c" d="m12 24-4-6h8z"/></g></g><g transform="translate(450 180)"><circle cx="20" cy="20" r="18" fill="#e67e22"/><text x="20" y="26" fill="#fff" font-family="Arial, sans-serif" font-size="14" font-weight="bold" text-anchor="middle">5</text><rect width="140" height="30" x="50" y="5" fill="#ecf0f1" stroke="#bdc3c7" rx="5"/><text x="120" y="25" fill="#2c3e50" font-family="Arial, sans-serif" font-size="14" font-weight="bold" text-anchor="middle">Totalt antall kilometer</text><path stroke="#34495e" stroke-width="2" d="M202 20h20"/><path fill="#34495e" d="m218 16 4 4-4 4z"/><text x="12" y="8" fill="#34495e" font-family="Arial, sans-serif" font-size="8" text-anchor="middle" transform="translate(200 8)">km</text></g><g transform="translate(450 240)"><rect width="280" height="80" fill="#ecf0f1" stroke="#e74c3c" stroke-width="2" rx="8"/><text x="140" y="20" fill="#e74c3c" font-family="Arial, sans-serif" font-size="14" font-weight="bold" text-anchor="middle">LOVKRAV</text><text x="140" y="40" fill="#2c3e50" font-family="Arial, sans-serif" font-size="12" text-anchor="middle">Skatteloven § 6-2</text><text x="140" y="55" fill="#2c3e50" font-family="Arial, sans-serif" font-size="12" text-anchor="middle">Skatteforvaltningsforskriften § 8-2-1</text><text x="140" y="70" fill="#7f8c8d" font-family="Arial, sans-serif" font-size="10" text-anchor="middle">Dokumentasjon av forretningsbruk</text></g><g fill="none" stroke="#95a5a6" stroke-dasharray="5,5" stroke-width="2"><path d="M190 135q110 0 160 15M220 195q80 0 130-25M210 255q90 0 140-65M470 135q-40 0-20 15M470 195q-40 0-20-25"/></g><g transform="translate(50 380)"><rect width="700" height="80" fill="#d5dbdb" stroke="#95a5a6" rx="8"/><text x="350" y="25" fill="#2c3e50" font-family="Arial, sans-serif" font-size="16" font-weight="bold" text-anchor="middle">Viktig å huske:</text><text x="350" y="45" fill="#34495e" font-family="Arial, sans-serif" font-size="14" text-anchor="middle">Alle opplysninger må registreres for hver enkelt kjøretur</text><text x="350" y="65" fill="#34495e" font-family="Arial, sans-serif" font-size="14" text-anchor="middle">Manglende dokumentasjon kan føre til tap av skattefradrag</text></g></svg>