<svg xmlns="http://www.w3.org/2000/svg" width="800" height="500" viewBox="0 0 800 500"><path fill="#f8f9fa" d="M0 0h800v500H0z"/><text x="400" y="40" fill="#2c3e50" font-family="Arial, sans-serif" font-size="28" font-weight="bold" text-anchor="middle">Kjørebok Integrasjon med Regnskapssystem</text><g transform="translate(50 80)"><rect width="150" height="100" fill="#3498db" rx="10"/><text x="75" y="25" fill="#fff" font-family="Arial, sans-serif" font-size="14" font-weight="bold" text-anchor="middle">Digital Kjørebok</text><g transform="translate(60 35)"><rect width="30" height="45" fill="#fff" rx="5"/><rect width="24" height="35" x="3" y="5" fill="#ecf0f1" rx="3"/><rect width="18" height="4" x="6" y="10" fill="#3498db" rx="1"/><rect width="18" height="3" x="6" y="17" fill="#2ecc71" rx="1"/><rect width="18" height="3" x="6" y="23" fill="#e74c3c" rx="1"/><rect width="18" height="3" x="6" y="29" fill="#f39c12" rx="1"/></g></g><g transform="translate(50 200)"><rect width="150" height="80" fill="#ecf0f1" stroke="#95a5a6" rx="8"/><text x="75" y="20" fill="#2c3e50" font-family="Arial, sans-serif" font-size="12" font-weight="bold" text-anchor="middle">GPS Data</text><text x="10" y="35" fill="#2c3e50" font-family="Arial, sans-serif" font-size="10">• Start/stopp koordinater</text><text x="10" y="50" fill="#2c3e50" font-family="Arial, sans-serif" font-size="10">• Distanse &amp; tid</text><text x="10" y="65" fill="#2c3e50" font-family="Arial, sans-serif" font-size="10">• Automatisk kategorisering</text></g><g fill="#34495e"><path d="m220 130 30-10v5h20v10h-20v5z"/><text x="25" y="35" font-family="Arial, sans-serif" font-size="10" text-anchor="middle" transform="translate(220 120)">API</text></g><g transform="translate(290 80)"><rect width="220" height="200" fill="#f8f9fa" stroke="#34495e" stroke-width="2" rx="10"/><text x="110" y="25" fill="#34495e" font-family="Arial, sans-serif" font-size="16" font-weight="bold" text-anchor="middle">Integrasjonsmotor</text><g transform="translate(20 40)"><rect width="180" height="40" fill="#e8f4fd" stroke="#3498db" rx="5"/><text x="90" y="15" fill="#3498db" font-family="Arial, sans-serif" font-size="12" font-weight="bold" text-anchor="middle">Databehandling</text><text x="10" y="30" fill="#2c3e50" font-family="Arial, sans-serif" font-size="10">Validering • Kategorisering • Beregning</text></g><g transform="translate(20 90)"><rect width="180" height="40" fill="#fff3cd" stroke="#f39c12" rx="5"/><text x="90" y="15" fill="#f39c12" font-family="Arial, sans-serif" font-size="12" font-weight="bold" text-anchor="middle">Forretningsregler</text><text x="10" y="30" fill="#2c3e50" font-family="Arial, sans-serif" font-size="10">Skatteberegning • Fradragsregler • MVA</text></g><g transform="translate(20 140)"><rect width="180" height="40" fill="#d4edda" stroke="#27ae60" rx="5"/><text x="90" y="15" fill="#27ae60" font-family="Arial, sans-serif" font-size="12" font-weight="bold" text-anchor="middle">Bilagsgenerering</text><text x="10" y="30" fill="#2c3e50" font-family="Arial, sans-serif" font-size="10">Automatiske journalposter • Bilagsnummer</text></g></g><g fill="#34495e"><path d="m530 130 30-10v5h20v10h-20v5z"/><text x="25" y="35" font-family="Arial, sans-serif" font-size="10" text-anchor="middle" transform="translate(530 120)">Sync</text></g><g transform="translate(600 80)"><rect width="150" height="100" fill="#27ae60" rx="10"/><text x="75" y="25" fill="#fff" font-family="Arial, sans-serif" font-size="14" font-weight="bold" text-anchor="middle">Regnskapssystem</text><g transform="translate(55 35)"><rect width="40" height="25" y="15" fill="#fff" rx="2"/><path fill="#ecf0f1" d="M2 17h36v18H2z"/><path fill="#fff" d="M15 42h10v3H15zM10 45h20v2H10z"/><path stroke="#27ae60" d="M5 22h30M5 26h30M5 30h25"/></g></g><g transform="translate(600 200)"><rect width="150" height="80" fill="#ecf0f1" stroke="#95a5a6" rx="8"/><text x="75" y="20" fill="#2c3e50" font-family="Arial, sans-serif" font-size="12" font-weight="bold" text-anchor="middle">Hovedbokkontoer</text><text x="10" y="35" fill="#2c3e50" font-family="Arial, sans-serif" font-size="10">• Bilkostnader (konto 6340)</text><text x="10" y="50" fill="#2c3e50" font-family="Arial, sans-serif" font-size="10">• Privat bruk (konto 1920)</text><text x="10" y="65" fill="#2c3e50" font-family="Arial, sans-serif" font-size="10">• MVA fradragsberettiget</text></g><g transform="translate(50 320)"><rect width="700" height="140" fill="#fff3cd" stroke="#f39c12" stroke-width="2" rx="10"/><text x="350" y="25" fill="#f39c12" font-family="Arial, sans-serif" font-size="18" font-weight="bold" text-anchor="middle">Fordeler med Integrasjon</text><g transform="translate(30 45)"><circle cx="8" cy="8" r="4" fill="#27ae60"/><text x="20" y="12" fill="#2c3e50" font-family="Arial, sans-serif" font-size="13">Automatisk journalføring av bilkostnader</text></g><g transform="translate(30 70)"><circle cx="8" cy="8" r="4" fill="#27ae60"/><text x="20" y="12" fill="#2c3e50" font-family="Arial, sans-serif" font-size="13">Redusert manuelt arbeid og feilrisiko</text></g><g transform="translate(30 95)"><circle cx="8" cy="8" r="4" fill="#27ae60"/><text x="20" y="12" fill="#2c3e50" font-family="Arial, sans-serif" font-size="13">Konsistent regnskapsføring</text></g><g transform="translate(30 120)"><circle cx="8" cy="8" r="4" fill="#27ae60"/><text x="20" y="12" fill="#2c3e50" font-family="Arial, sans-serif" font-size="13">Bedre sporbarhet og revisjonsspor</text></g><g transform="translate(370 45)"><circle cx="8" cy="8" r="4" fill="#3498db"/><text x="20" y="12" fill="#2c3e50" font-family="Arial, sans-serif" font-size="13">Real-time oppdatering av regnskapet</text></g><g transform="translate(370 70)"><circle cx="8" cy="8" r="4" fill="#3498db"/><text x="20" y="12" fill="#2c3e50" font-family="Arial, sans-serif" font-size="13">Automatisk MVA-behandling</text></g><g transform="translate(370 95)"><circle cx="8" cy="8" r="4" fill="#3498db"/><text x="20" y="12" fill="#2c3e50" font-family="Arial, sans-serif" font-size="13">Integrert rapportering for skatteformål</text></g><g transform="translate(370 120)"><circle cx="8" cy="8" r="4" fill="#3498db"/><text x="20" y="12" fill="#2c3e50" font-family="Arial, sans-serif" font-size="13">Sømløs dataflyt fra kjøring til regnskap</text></g></g><g fill="none" stroke="#95a5a6" stroke-dasharray="3,3" stroke-width="2"><path d="M125 190v-60M675 190v-60"/></g></svg>