<svg xmlns="http://www.w3.org/2000/svg" width="800" height="500"><defs><linearGradient id="a" x1="0%" x2="100%" y1="0%" y2="100%"><stop offset="0%" style="stop-color:#f8f9fa;stop-opacity:1"/><stop offset="100%" style="stop-color:#e9ecef;stop-opacity:1"/></linearGradient></defs><path fill="url(#a)" d="M0 0h800v500H0z"/><text x="400" y="40" fill="#333" font-family="Arial, sans-serif" font-size="24" font-weight="bold" text-anchor="middle">
    Forsinkelsesrenter Over Tid
  </text><rect width="600" height="300" x="100" y="80" fill="#fff" stroke="#dee2e6" stroke-width="2" rx="5"/><path stroke="#6c757d" stroke-width="2" d="M120 100v260M120 360h560"/><text x="110" y="105" fill="#666" font-family="Arial, sans-serif" font-size="10" text-anchor="end">15%</text><text x="110" y="140" fill="#666" font-family="Arial, sans-serif" font-size="10" text-anchor="end">12%</text><text x="110" y="175" fill="#666" font-family="Arial, sans-serif" font-size="10" text-anchor="end">10%</text><text x="110" y="210" fill="#666" font-family="Arial, sans-serif" font-size="10" text-anchor="end">8%</text><text x="110" y="245" fill="#666" font-family="Arial, sans-serif" font-size="10" text-anchor="end">6%</text><text x="110" y="280" fill="#666" font-family="Arial, sans-serif" font-size="10" text-anchor="end">4%</text><text x="110" y="315" fill="#666" font-family="Arial, sans-serif" font-size="10" text-anchor="end">2%</text><text x="110" y="350" fill="#666" font-family="Arial, sans-serif" font-size="10" text-anchor="end">0%</text><text x="150" y="375" fill="#666" font-family="Arial, sans-serif" font-size="10" text-anchor="middle">2020</text><text x="250" y="375" fill="#666" font-family="Arial, sans-serif" font-size="10" text-anchor="middle">2021</text><text x="350" y="375" fill="#666" font-family="Arial, sans-serif" font-size="10" text-anchor="middle">2022</text><text x="450" y="375" fill="#666" font-family="Arial, sans-serif" font-size="10" text-anchor="middle">2023</text><text x="550" y="375" fill="#666" font-family="Arial, sans-serif" font-size="10" text-anchor="middle">2024</text><text x="650" y="375" fill="#666" font-family="Arial, sans-serif" font-size="10" text-anchor="middle">2025</text><path stroke="#e9ecef" d="M120 140h560M120 175h560M120 210h560M120 245h560M120 280h560M120 315h560M150 100v260M250 100v260M350 100v260M450 100v260M550 100v260M650 100v260"/><path fill="none" stroke="#dc3545" stroke-width="4" d="m150 315 100-35 100-35 100-70 100-35 100 35"/><circle cx="150" cy="315" r="6" fill="#dc3545" stroke="#fff" stroke-width="2"/><circle cx="250" cy="280" r="6" fill="#dc3545" stroke="#fff" stroke-width="2"/><circle cx="350" cy="245" r="6" fill="#dc3545" stroke="#fff" stroke-width="2"/><circle cx="450" cy="175" r="6" fill="#dc3545" stroke="#fff" stroke-width="2"/><circle cx="550" cy="140" r="6" fill="#dc3545" stroke="#fff" stroke-width="2"/><circle cx="650" cy="175" r="6" fill="#dc3545" stroke="#fff" stroke-width="2"/><text x="150" y="305" fill="#dc3545" font-family="Arial, sans-serif" font-size="10" font-weight="bold" text-anchor="middle">3.0%</text><text x="250" y="270" fill="#dc3545" font-family="Arial, sans-serif" font-size="10" font-weight="bold" text-anchor="middle">4.5%</text><text x="350" y="235" fill="#dc3545" font-family="Arial, sans-serif" font-size="10" font-weight="bold" text-anchor="middle">6.0%</text><text x="450" y="165" fill="#dc3545" font-family="Arial, sans-serif" font-size="10" font-weight="bold" text-anchor="middle">9.5%</text><text x="550" y="130" fill="#dc3545" font-family="Arial, sans-serif" font-size="10" font-weight="bold" text-anchor="middle">11.25%</text><text x="650" y="165" fill="#dc3545" font-family="Arial, sans-serif" font-size="10" font-weight="bold" text-anchor="middle">9.0%</text><text x="400" y="410" fill="#333" font-family="Arial, sans-serif" font-size="14" font-weight="bold" text-anchor="middle">År</text><text x="50" y="230" fill="#333" font-family="Arial, sans-serif" font-size="14" font-weight="bold" text-anchor="middle" transform="rotate(-90 50 230)">Forsinkelsesrente (%)</text><rect width="200" height="60" x="50" y="420" fill="#fff3cd" stroke="#856404" rx="5"/><text x="150" y="440" fill="#856404" font-family="Arial, sans-serif" font-size="12" font-weight="bold" text-anchor="middle">BEREGNINGSEKSEMPEL</text><text x="150" y="455" fill="#333" font-family="Arial, sans-serif" font-size="10" text-anchor="middle">Gjeld: 10 000 kr</text><text x="150" y="470" fill="#333" font-family="Arial, sans-serif" font-size="10" text-anchor="middle">60 dager × 11,25% = 185 kr</text><rect width="200" height="60" x="270" y="420" fill="#e3f2fd" stroke="#1976d2" rx="5"/><text x="370" y="440" fill="#1976d2" font-family="Arial, sans-serif" font-size="12" font-weight="bold" text-anchor="middle">LOVGRUNNLAG</text><text x="370" y="455" fill="#333" font-family="Arial, sans-serif" font-size="10" text-anchor="middle">Forsinkelsesrenteloven</text><text x="370" y="470" fill="#333" font-family="Arial, sans-serif" font-size="10" text-anchor="middle">Justeres 1. januar og 1. juli</text><rect width="200" height="60" x="490" y="420" fill="#d4edda" stroke="#28a745" rx="5"/><text x="590" y="440" fill="#28a745" font-family="Arial, sans-serif" font-size="12" font-weight="bold" text-anchor="middle">REGNSKAPSFØRING</text><text x="590" y="455" fill="#333" font-family="Arial, sans-serif" font-size="10" text-anchor="middle">Konto 8050 - Renteinntekter</text><text x="590" y="470" fill="#333" font-family="Arial, sans-serif" font-size="10" text-anchor="middle">Påløper fra forfallsdato</text><rect width="60" height="80" x="720" y="120" fill="#fff" stroke="#dee2e6" rx="5"/><text x="750" y="140" fill="#333" font-family="Arial, sans-serif" font-size="12" font-weight="bold" text-anchor="middle">TREND</text><path fill="#dc3545" d="m740 150 10 10 10-10z"/><path stroke="#dc3545" stroke-width="2" d="M750 160v15"/><text x="750" y="185" fill="#dc3545" font-family="Arial, sans-serif" font-size="9" text-anchor="middle">Økning</text><rect width="80" height="40" x="520" y="110" fill="#dc3545" stroke="#c82333" stroke-width="2" rx="5"/><text x="560" y="125" fill="#fff" font-family="Arial, sans-serif" font-size="10" font-weight="bold" text-anchor="middle">GJELDENDE</text><text x="560" y="140" fill="#fff" font-family="Arial, sans-serif" font-size="12" font-weight="bold" text-anchor="middle">11,25%</text><text x="400" y="60" fill="#666" font-family="Arial, sans-serif" font-size="12" text-anchor="middle">
    Historisk utvikling av forsinkelsesrenter i Norge
  </text><circle cx="350" cy="245" r="15" fill="none" stroke="#ffc107" stroke-width="2"/><text x="350" y="220" fill="#856404" font-family="Arial, sans-serif" font-size="9" text-anchor="middle">COVID-19</text><text x="350" y="232" fill="#856404" font-family="Arial, sans-serif" font-size="9" text-anchor="middle">Lav rente</text><circle cx="450" cy="175" r="15" fill="none" stroke="#ffc107" stroke-width="2"/><text x="450" y="150" fill="#856404" font-family="Arial, sans-serif" font-size="9" text-anchor="middle">Inflasjon</text><text x="450" y="162" fill="#856404" font-family="Arial, sans-serif" font-size="9" text-anchor="middle">øker</text><path fill="#fff" stroke="#dee2e6" d="M120 390h200v20H120z"/><path stroke="#dc3545" stroke-width="3" d="M130 400h20"/><text x="160" y="405" fill="#333" font-family="Arial, sans-serif" font-size="10">Forsinkelsesrente (%)</text></svg>