<svg xmlns="http://www.w3.org/2000/svg" width="800" height="400"><defs><linearGradient id="a" x1="0%" x2="100%" y1="0%" y2="100%"><stop offset="0%" style="stop-color:#f8f9fa;stop-opacity:1"/><stop offset="100%" style="stop-color:#e9ecef;stop-opacity:1"/></linearGradient><linearGradient id="b" x1="0%" x2="100%" y1="0%" y2="0%"><stop offset="0%" style="stop-color:#06c;stop-opacity:1"/><stop offset="100%" style="stop-color:#049;stop-opacity:1"/></linearGradient></defs><path fill="url(#a)" d="M0 0h800v400H0z"/><path fill="url(#b)" d="M0 0h800v80H0z"/><text x="400" y="45" fill="#fff" font-family="Arial, sans-serif" font-size="28" font-weight="bold" text-anchor="middle">
    Hva er Betalingspåmminelse?
  </text><rect width="700" height="280" x="50" y="100" fill="#fff" stroke="#dee2e6" stroke-width="2" rx="10"/><rect width="120" height="160" x="80" y="130" fill="#f8f9fa" stroke="#6c757d" stroke-width="2" rx="5"/><rect width="100" height="8" x="90" y="140" fill="#dc3545" rx="2"/><rect width="80" height="6" x="90" y="155" fill="#6c757d" rx="1"/><rect width="90" height="6" x="90" y="168" fill="#6c757d" rx="1"/><rect width="70" height="6" x="90" y="181" fill="#6c757d" rx="1"/><path fill="#ffc107" stroke="#ff8c00" stroke-width="2" d="m150 220 20 30h-40z"/><text x="150" y="242" fill="#333" font-family="Arial, sans-serif" font-size="16" font-weight="bold" text-anchor="middle">!</text><path stroke="#06c" stroke-width="4" marker-end="url(#c)" d="M220 210h60"/><defs><marker id="c" markerHeight="7" markerWidth="10" orient="auto" refX="9" refY="3.5"><path fill="#06c" d="m0 0 10 3.5L0 7z"/></marker></defs><circle cx="320" cy="160" r="25" fill="#28a745" stroke="#1e7e34" stroke-width="2"/><text x="320" y="167" fill="#fff" font-family="Arial, sans-serif" font-size="14" font-weight="bold" text-anchor="middle">1</text><text x="320" y="195" fill="#333" font-family="Arial, sans-serif" font-size="12" text-anchor="middle">Første</text><text x="320" y="208" fill="#333" font-family="Arial, sans-serif" font-size="12" text-anchor="middle">påminnelse</text><circle cx="420" cy="160" r="25" fill="#ffc107" stroke="#ff8c00" stroke-width="2"/><text x="420" y="167" fill="#fff" font-family="Arial, sans-serif" font-size="14" font-weight="bold" text-anchor="middle">2</text><text x="420" y="195" fill="#333" font-family="Arial, sans-serif" font-size="12" text-anchor="middle">Andre</text><text x="420" y="208" fill="#333" font-family="Arial, sans-serif" font-size="12" text-anchor="middle">påminnelse</text><circle cx="520" cy="160" r="25" fill="#dc3545" stroke="#c82333" stroke-width="2"/><text x="520" y="167" fill="#fff" font-family="Arial, sans-serif" font-size="14" font-weight="bold" text-anchor="middle">3</text><text x="520" y="195" fill="#333" font-family="Arial, sans-serif" font-size="12" text-anchor="middle">Inkasso</text><text x="520" y="208" fill="#333" font-family="Arial, sans-serif" font-size="12" text-anchor="middle">varsel</text><path stroke="#6c757d" stroke-width="2" marker-end="url(#d)" d="M345 160h50"/><path stroke="#6c757d" stroke-width="2" marker-end="url(#d)" d="M445 160h50"/><defs><marker id="d" markerHeight="6" markerWidth="8" orient="auto" refX="7" refY="3"><path fill="#6c757d" d="m0 0 8 3-8 3z"/></marker></defs><circle cx="620" cy="200" r="40" fill="#28a745" stroke="#1e7e34" stroke-width="3"/><text x="620" y="210" fill="#fff" font-family="Arial, sans-serif" font-size="24" font-weight="bold" text-anchor="middle">kr</text><rect width="150" height="50" x="80" y="320" fill="#e3f2fd" stroke="#1976d2" rx="5"/><text x="155" y="335" fill="#1976d2" font-family="Arial, sans-serif" font-size="10" font-weight="bold" text-anchor="middle">JURIDISK GYLDIG</text><text x="155" y="350" fill="#333" font-family="Arial, sans-serif" font-size="9" text-anchor="middle">14 dagers frist</text><text x="155" y="362" fill="#333" font-family="Arial, sans-serif" font-size="9" text-anchor="middle">Rimelige gebyrer</text><rect width="150" height="50" x="250" y="320" fill="#fff3cd" stroke="#856404" rx="5"/><text x="325" y="335" fill="#856404" font-family="Arial, sans-serif" font-size="10" font-weight="bold" text-anchor="middle">PURREGEBYRER</text><text x="325" y="350" fill="#333" font-family="Arial, sans-serif" font-size="9" text-anchor="middle">Maks 200-500 kr</text><text x="325" y="362" fill="#333" font-family="Arial, sans-serif" font-size="9" text-anchor="middle">Per påminnelse</text><rect width="150" height="50" x="420" y="320" fill="#f8d7da" stroke="#721c24" rx="5"/><text x="495" y="335" fill="#721c24" font-family="Arial, sans-serif" font-size="10" font-weight="bold" text-anchor="middle">FORSINKELSESRENTER</text><text x="495" y="350" fill="#333" font-family="Arial, sans-serif" font-size="9" text-anchor="middle">Fra forfallsdato</text><text x="495" y="362" fill="#333" font-family="Arial, sans-serif" font-size="9" text-anchor="middle">Lovregulert sats</text><rect width="150" height="50" x="590" y="320" fill="#d1ecf1" stroke="#0c5460" rx="5"/><text x="665" y="335" fill="#0c5460" font-family="Arial, sans-serif" font-size="10" font-weight="bold" text-anchor="middle">REGNSKAPSFØRING</text><text x="665" y="350" fill="#333" font-family="Arial, sans-serif" font-size="9" text-anchor="middle">Andre driftsinntekter</text><text x="665" y="362" fill="#333" font-family="Arial, sans-serif" font-size="9" text-anchor="middle">Konto 3900</text></svg>