<svg xmlns="http://www.w3.org/2000/svg" width="800" height="600"><defs><style>.subtitle{font-family:Arial,sans-serif;font-size:14px;font-weight:700;fill:#34495e}.days,.level-title,.small-text,.text{font-family:Arial,sans-serif;font-size:11px;fill:#2c3e50}.days,.level-title,.small-text{font-size:10px}.days,.level-title{font-size:13px;font-weight:700;fill:#fff}.days{font-size:12px}.level1{fill:#27ae60}.level2{fill:#f39c12}.level3{fill:#e67e22}.level4{fill:#e74c3c}</style></defs><path fill="#f8f9fa" d="M0 0h800v600H0z"/><text x="400" y="30" style="font-family:Arial,sans-serif;font-size:18px;font-weight:700;fill:#2c3e50" text-anchor="middle">Kredittoppfølging Prosess</text><text x="400" y="50" class="subtitle" text-anchor="middle">4-nivå oppfølgingsstrategi</text><path stroke="#34495e" stroke-width="3" marker-end="url(#arrowhead)" d="M100 100h600"/><defs><marker id="arrowhead" markerHeight="7" markerWidth="10" orient="auto" refX="9" refY="3.5"><path fill="#34495e" d="m0 0 10 3.5L0 7z"/></marker></defs><text x="400" y="90" class="text" font-weight="bold" text-anchor="middle">Tid etter forfall</text><g transform="translate(80 120)"><rect width="140" height="200" class="level1" rx="10"/><text x="70" y="25" class="level-title" text-anchor="middle">NIVÅ 1</text><text x="70" y="45" class="days" text-anchor="middle">1-7 dager</text><g transform="translate(70 70)"><rect width="30" height="16" x="-15" y="-8" fill="#fff" rx="2"/><path fill="none" stroke="#27ae60" stroke-width="2" d="M-15-8 0 2 15-8"/><circle cx="12" cy="-12" r="3" fill="#fff"/><text x="12" y="-9" fill="#27ae60" class="small-text" text-anchor="middle">😊</text></g><text x="70" y="110" class="level-title" text-anchor="middle">Vennlig påminnelse</text><text x="10" y="135" fill="#fff" class="small-text">• Automatisk e-post/SMS</text><text x="10" y="150" fill="#fff" class="small-text">• Høflig tone</text><text x="10" y="165" fill="#fff" class="small-text">• Mulighet for kontakt</text><text x="10" y="180" fill="#fff" class="small-text">• Ingen gebyr</text></g><g transform="translate(240 120)"><rect width="140" height="200" class="level2" rx="10"/><text x="70" y="25" class="level-title" text-anchor="middle">NIVÅ 2</text><text x="70" y="45" class="days" text-anchor="middle">8-21 dager</text><g transform="translate(70 70)"><rect width="24" height="20" x="-12" y="-10" fill="#fff" rx="1"/><path stroke="#f39c12" d="M-8-6H8M-8-2H8M-8 2H8M-8 6H4"/><text x="15" y="-5" fill="#fff" class="small-text">⚠️</text></g><text x="70" y="110" class="level-title" text-anchor="middle">Formell purring</text><text x="10" y="135" fill="#fff" class="small-text">• Skriftlig purring</text><text x="10" y="150" fill="#fff" class="small-text">• Purregebyr</text><text x="10" y="165" fill="#fff" class="small-text">• Klar betalingsfrist</text><text x="10" y="180" fill="#fff" class="small-text">• Konsekvenser nevnt</text></g><g transform="translate(400 120)"><rect width="140" height="200" class="level3" rx="10"/><text x="70" y="25" class="level-title" text-anchor="middle">NIVÅ 3</text><text x="70" y="45" class="days" text-anchor="middle">22-45 dager</text><g transform="translate(70 70)"><rect width="24" height="20" x="-12" y="-10" fill="#fff" rx="1"/><path fill="#e67e22" d="M-2-6h4L1 2h-2z"/><circle cy="4" r="1" fill="#e67e22"/><text x="15" y="-5" fill="#fff" class="small-text">🚨</text></g><text x="70" y="110" class="level-title" text-anchor="middle">Siste varsel</text><text x="10" y="135" fill="#fff" class="small-text">• Strengere tone</text><text x="10" y="150" fill="#fff" class="small-text">• Trussel om inkasso</text><text x="10" y="165" fill="#fff" class="small-text">• Høyere purregebyr</text><text x="10" y="180" fill="#fff" class="small-text">• Siste sjanse</text></g><g transform="translate(560 120)"><rect width="140" height="200" class="level4" rx="10"/><text x="70" y="25" class="level-title" text-anchor="middle">NIVÅ 4</text><text x="70" y="45" class="days" text-anchor="middle">Over 45 dager</text><g transform="translate(70 70)"><rect width="16" height="16" x="-8" y="-8" fill="#fff" rx="1"/><path fill="#e74c3c" d="M-6-6H6v3H-6zM-4-2h8v1h-8zM-4 0h8v1h-8zM-4 2h8v1h-8z"/><text x="15" y="-5" fill="#fff" class="small-text">⚖️</text></g><text x="70" y="110" class="level-title" text-anchor="middle">Inkasso</text><text x="10" y="135" fill="#fff" class="small-text">• Inkassoselskap</text><text x="10" y="150" fill="#fff" class="small-text">• Juridiske skritt</text><text x="10" y="165" fill="#fff" class="small-text">• Kredittvurdering</text><text x="10" y="180" fill="#fff" class="small-text">• Høye kostnader</text></g><g fill="none" stroke="#34495e" stroke-width="2"><path marker-end="url(#arrowhead)" d="M220 220h20"/><path marker-end="url(#arrowhead)" d="M380 220h20"/><path marker-end="url(#arrowhead)" d="M540 220h20"/></g><rect width="700" height="200" x="50" y="350" fill="#fff" stroke="#bdc3c7" rx="10"/><text x="400" y="375" class="subtitle" text-anchor="middle">Nøkkeltall og Målsettinger</text><g transform="translate(80 390)"><text class="text" font-weight="bold">Suksessrater per nivå:</text><rect width="150" height="20" y="10" class="level1" rx="3"/><text x="75" y="25" fill="#fff" class="small-text" text-anchor="middle">Nivå 1: 60-70%</text><rect width="120" height="20" y="35" class="level2" rx="3"/><text x="60" y="50" fill="#fff" class="small-text" text-anchor="middle">Nivå 2: 20-25%</text><rect width="80" height="20" y="60" class="level3" rx="3"/><text x="40" y="75" fill="#fff" class="small-text" text-anchor="middle">Nivå 3: 10-15%</text><rect width="40" height="20" y="85" class="level4" rx="3"/><text x="20" y="100" fill="#fff" class="small-text" text-anchor="middle">Nivå 4: 5%</text></g><text class="text" font-weight="bold" transform="translate(400 390)">Beste praksis:</text><text y="20" class="small-text" transform="translate(400 390)">✓ Konsistent oppfølging på alle nivåer</text><text y="35" class="small-text" transform="translate(400 390)">✓ Dokumenter all kommunikasjon</text><text y="50" class="small-text" transform="translate(400 390)">✓ Tilpass tone til situasjon</text><text y="65" class="small-text" transform="translate(400 390)">✓ Vurder kundeforhold før eskalering</text><text y="80" class="small-text" transform="translate(400 390)">✓ Automatiser der det er mulig</text><text y="95" class="small-text" transform="translate(400 390)">✓ Følg inkassoloven nøye</text><rect width="700" height="60" x="50" y="470" fill="#f8f9fa" stroke="#bdc3c7" rx="5"/><text x="400" y="490" class="text" font-weight="bold" text-anchor="middle">Kostnadspåvirkning:</text><text x="400" y="510" class="small-text" text-anchor="middle">Tidlig oppfølging (Nivå 1-2) koster betydelig mindre enn inkasso (Nivå 4)</text><text x="400" y="525" class="small-text" text-anchor="middle">og bevarer kundeforholdet bedre</text></svg>