<svg xmlns="http://www.w3.org/2000/svg" width="800" height="600"><defs><style>.subtitle{font-size:14px;font-weight:700;fill:#34495e}.amount,.header,.subtitle,.text{font-family:Arial,sans-serif}.text{font-size:12px;fill:#2c3e50}.amount,.header{font-size:11px}.header{font-weight:700;fill:#fff}.amount{fill:#2c3e50;text-anchor:end}.positive{fill:#27ae60}.negative{fill:#e74c3c}.balance{fill:#3498db;font-weight:700}</style></defs><path fill="#f8f9fa" d="M0 0h800v600H0z"/><text x="400" y="30" style="font-family:Arial,sans-serif;font-size:18px;font-weight:700;fill:#2c3e50" text-anchor="middle">Kundereskontro Eksempel</text><text x="400" y="50" class="subtitle" text-anchor="middle">Byggmester Hansen AS - 3 måneder</text><path fill="#34495e" d="M50 80h700v30H50z"/><text x="70" y="100" class="header">Dato</text><text x="150" y="100" class="header">Beskrivelse</text><text x="350" y="100" class="header">Fakturanr</text><text x="450" y="100" class="header">Debet</text><text x="550" y="100" class="header">Kredit</text><text x="650" y="100" class="header">Saldo</text><path fill="#ecf0f1" stroke="#bdc3c7" stroke-width=".5" d="M50 110h700v25H50z"/><text x="70" y="127" class="text">01.01</text><text x="150" y="127" class="text">Åpningssaldo</text><text x="350" y="127" class="text">-</text><text x="440" y="127" class="text">-</text><text x="540" y="127" class="text">-</text><text x="640" y="127" class="amount balance">25 000</text><path fill="#fff" stroke="#bdc3c7" stroke-width=".5" d="M50 135h700v25H50z"/><text x="70" y="152" class="text">05.01</text><text x="150" y="152" class="text">Faktura materialer</text><text x="350" y="152" class="text">2024-001</text><text x="440" y="152" class="amount negative">45 000</text><text x="540" y="152" class="text">-</text><text x="640" y="152" class="amount balance">70 000</text><path fill="#ecf0f1" stroke="#bdc3c7" stroke-width=".5" d="M50 160h700v25H50z"/><text x="70" y="177" class="text">15.01</text><text x="150" y="177" class="text">Innbetaling</text><text x="350" y="177" class="text">-</text><text x="440" y="177" class="text">-</text><text x="540" y="177" class="amount positive">25 000</text><text x="640" y="177" class="amount balance">45 000</text><path fill="#fff" stroke="#bdc3c7" stroke-width=".5" d="M50 185h700v25H50z"/><text x="70" y="202" class="text">20.01</text><text x="150" y="202" class="text">Faktura arbeid</text><text x="350" y="202" class="text">2024-002</text><text x="440" y="202" class="amount negative">80 000</text><text x="540" y="202" class="text">-</text><text x="640" y="202" class="amount balance">125 000</text><path fill="#ecf0f1" stroke="#bdc3c7" stroke-width=".5" d="M50 210h700v25H50z"/><text x="70" y="227" class="text">02.02</text><text x="150" y="227" class="text">Innbetaling</text><text x="350" y="227" class="text">-</text><text x="440" y="227" class="text">-</text><text x="540" y="227" class="amount positive">45 000</text><text x="640" y="227" class="amount balance">80 000</text><path fill="#fff" stroke="#bdc3c7" stroke-width=".5" d="M50 235h700v25H50z"/><text x="70" y="252" class="text">10.02</text><text x="150" y="252" class="text">Kreditnota retur</text><text x="350" y="252" class="text">KN-001</text><text x="440" y="252" class="text">-</text><text x="540" y="252" class="amount positive">5 000</text><text x="640" y="252" class="amount balance">75 000</text><path fill="#ecf0f1" stroke="#bdc3c7" stroke-width=".5" d="M50 260h700v25H50z"/><text x="70" y="277" class="text">25.02</text><text x="150" y="277" class="text">Faktura tilleggsarbeid</text><text x="350" y="277" class="text">2024-003</text><text x="440" y="277" class="amount negative">35 000</text><text x="540" y="277" class="text">-</text><text x="640" y="277" class="amount balance">110 000</text><path fill="#fff" stroke="#bdc3c7" stroke-width=".5" d="M50 285h700v25H50z"/><text x="70" y="302" class="text">15.03</text><text x="150" y="302" class="text">Innbetaling</text><text x="350" y="302" class="text">-</text><text x="440" y="302" class="text">-</text><text x="540" y="302" class="amount positive">80 000</text><text x="640" y="302" class="amount balance">30 000</text><text x="50" y="350" class="subtitle">Analyse av kundeforholdet:</text><rect width="160" height="80" x="50" y="370" fill="#e8f5e8" stroke="#27ae60" stroke-width="2" rx="5"/><text x="60" y="390" class="text" font-weight="bold">Betalingstid:</text><text x="60" y="405" class="text">15-20 dager</text><text x="60" y="420" class="text">Regelmessig</text><text x="60" y="435" class="text">men noe forsinket</text><rect width="160" height="80" x="230" y="370" fill="#e8f4fd" stroke="#3498db" stroke-width="2" rx="5"/><text x="240" y="390" class="text" font-weight="bold">Kredittrisiko:</text><text x="240" y="405" class="text">LAV</text><text x="240" y="420" class="text">Basert på</text><text x="240" y="435" class="text">betalingshistorikk</text><rect width="160" height="80" x="410" y="370" fill="#fff2e8" stroke="#f39c12" stroke-width="2" rx="5"/><text x="420" y="390" class="text" font-weight="bold">Kredittgrense:</text><text x="420" y="405" fill="#f39c12" class="text" font-weight="bold">150 000 kr</text><text x="420" y="420" class="text">Anbefalt basert</text><text x="420" y="435" class="text">på historikk</text><rect width="700" height="80" x="50" y="480" fill="#f8f9fa" stroke="#bdc3c7" rx="5"/><text x="60" y="500" class="text" font-weight="bold">Forklaring:</text><text x="60" y="520" class="text">• Debet (rødt): Øker kundens gjeld til bedriften (fakturaer)</text><text x="60" y="535" class="text">• Kredit (grønt): Reduserer kundens gjeld (innbetalinger, kreditnotaer)</text><text x="60" y="550" class="text">• Saldo (blått): Kundens totale utestående gjeld til bedriften</text></svg>