<svg xmlns="http://www.w3.org/2000/svg" width="700" height="500"><defs><linearGradient id="a" x1="0%" x2="100%" y1="0%" y2="100%"><stop offset="0%" style="stop-color:#1e40af;stop-opacity:1"/><stop offset="100%" style="stop-color:#3b82f6;stop-opacity:1"/></linearGradient></defs><path fill="#f8fafc" d="M0 0h700v500H0z"/><path fill="url(#a)" d="M0 0h700v60H0z"/><text x="350" y="35" fill="#fff" font-family="Arial, sans-serif" font-size="20" font-weight="bold" text-anchor="middle">
    Hovedkomponenter i Kundereskontro
  </text><rect width="200" height="80" x="250" y="100" fill="#fff" stroke="#1e40af" stroke-width="3" rx="10"/><text x="350" y="130" fill="#1e40af" font-family="Arial, sans-serif" font-size="16" font-weight="bold" text-anchor="middle">
    KUNDERESKONTRO
  </text><text x="350" y="150" fill="#475569" font-family="Arial, sans-serif" font-size="12" text-anchor="middle">
    Individuell kundekonto
  </text><text x="350" y="170" fill="#475569" font-family="Arial, sans-serif" font-size="12" text-anchor="middle">
    Detaljerte transaksjoner
  </text><rect width="150" height="60" x="50" y="80" fill="#e0f2fe" stroke="#0284c7" stroke-width="2" rx="8"/><text x="125" y="100" fill="#0284c7" font-family="Arial, sans-serif" font-size="12" font-weight="bold" text-anchor="middle">
    Kundeidentifikasjon
  </text><text x="125" y="115" fill="#0369a1" font-family="Arial, sans-serif" font-size="10" text-anchor="middle">
    • Navn &amp; adresse
  </text><text x="125" y="130" fill="#0369a1" font-family="Arial, sans-serif" font-size="10" text-anchor="middle">
    • Org.nummer
  </text><rect width="150" height="60" x="500" y="80" fill="#f0fdf4" stroke="#16a34a" stroke-width="2" rx="8"/><text x="575" y="100" fill="#16a34a" font-family="Arial, sans-serif" font-size="12" font-weight="bold" text-anchor="middle">
    Fakturainformasjon
  </text><text x="575" y="115" fill="#15803d" font-family="Arial, sans-serif" font-size="10" text-anchor="middle">
    • Fakturanummer
  </text><text x="575" y="130" fill="#15803d" font-family="Arial, sans-serif" font-size="10" text-anchor="middle">
    • Beløp &amp; forfall
  </text><rect width="150" height="60" x="50" y="220" fill="#fef3c7" stroke="#d97706" stroke-width="2" rx="8"/><text x="125" y="240" fill="#d97706" font-family="Arial, sans-serif" font-size="12" font-weight="bold" text-anchor="middle">
    Betalingsregistrering
  </text><text x="125" y="255" fill="#b45309" font-family="Arial, sans-serif" font-size="10" text-anchor="middle">
    • Innbetalinger
  </text><text x="125" y="270" fill="#b45309" font-family="Arial, sans-serif" font-size="10" text-anchor="middle">
    • Dato &amp; beløp
  </text><rect width="150" height="60" x="500" y="220" fill="#fce7f3" stroke="#ec4899" stroke-width="2" rx="8"/><text x="575" y="240" fill="#ec4899" font-family="Arial, sans-serif" font-size="12" font-weight="bold" text-anchor="middle">
    Utestående saldo
  </text><text x="575" y="255" fill="#be185d" font-family="Arial, sans-serif" font-size="10" text-anchor="middle">
    • Aktuell gjeld
  </text><text x="575" y="270" fill="#be185d" font-family="Arial, sans-serif" font-size="10" text-anchor="middle">
    • Sanntidsoppdatering
  </text><rect width="150" height="60" x="150" y="320" fill="#f3e8ff" stroke="#9333ea" stroke-width="2" rx="8"/><text x="225" y="340" fill="#9333ea" font-family="Arial, sans-serif" font-size="12" font-weight="bold" text-anchor="middle">
    Kredittgrense
  </text><text x="225" y="355" fill="#7c3aed" font-family="Arial, sans-serif" font-size="10" text-anchor="middle">
    • Maksimalt kreditt
  </text><text x="225" y="370" fill="#7c3aed" font-family="Arial, sans-serif" font-size="10" text-anchor="middle">
    • Risikostyring
  </text><rect width="150" height="60" x="400" y="320" fill="#ecfdf5" stroke="#10b981" stroke-width="2" rx="8"/><text x="475" y="340" fill="#10b981" font-family="Arial, sans-serif" font-size="12" font-weight="bold" text-anchor="middle">
    Betalingshistorikk
  </text><text x="475" y="355" fill="#059669" font-family="Arial, sans-serif" font-size="10" text-anchor="middle">
    • Historiske data
  </text><text x="475" y="370" fill="#059669" font-family="Arial, sans-serif" font-size="10" text-anchor="middle">
    • Betalingsmønstre
  </text><rect width="150" height="60" x="275" y="420" fill="#fef2f2" stroke="#ef4444" stroke-width="2" rx="8"/><text x="350" y="440" fill="#ef4444" font-family="Arial, sans-serif" font-size="12" font-weight="bold" text-anchor="middle">
    Purringer &amp; inkasso
  </text><text x="350" y="455" fill="#dc2626" font-family="Arial, sans-serif" font-size="10" text-anchor="middle">
    • Oppfølgingsaktiviteter
  </text><text x="350" y="470" fill="#dc2626" font-family="Arial, sans-serif" font-size="10" text-anchor="middle">
    • Inkassostatus
  </text><path stroke="#64748b" stroke-width="2" d="m200 110 50 20M500 110l-50 20M200 250l50-90M500 250l-50-90M300 350l30-170M400 350l-30-170M350 420V180"/></svg>