<svg xmlns="http://www.w3.org/2000/svg" width="800" height="500" viewBox="0 0 800 500"><defs><linearGradient id="b" x1="0%" x2="100%" y1="0%" y2="100%"><stop offset="0%" style="stop-color:#22c55e;stop-opacity:1"/><stop offset="100%" style="stop-color:#16a34a;stop-opacity:1"/></linearGradient><linearGradient id="c" x1="0%" x2="100%" y1="0%" y2="100%"><stop offset="0%" style="stop-color:#ef4444;stop-opacity:1"/><stop offset="100%" style="stop-color:#dc2626;stop-opacity:1"/></linearGradient><linearGradient id="a" x1="0%" x2="100%" y1="0%" y2="100%"><stop offset="0%" style="stop-color:#f8fafc;stop-opacity:1"/><stop offset="100%" style="stop-color:#e2e8f0;stop-opacity:1"/></linearGradient></defs><path fill="url(#a)" d="M0 0h800v500H0z"/><text x="400" y="30" fill="#1e293b" font-family="Arial, sans-serif" font-size="24" font-weight="bold" text-anchor="middle">Regnskapsføring av Varekjøp</text><g transform="translate(50 70)"><rect width="300" height="180" fill="#fff" stroke="#e2e8f0" stroke-width="2" rx="10"/><text x="150" y="25" fill="#1e293b" font-family="Arial, sans-serif" font-size="16" font-weight="bold" text-anchor="middle">1. Ved Mottak av Varer</text><path fill="url(#b)" stroke="url(#b)" stroke-width="2" d="M0 0h120v120H0z" opacity=".1" transform="translate(20 40)"/><text x="60" y="20" fill="#16a34a" font-family="Arial, sans-serif" font-size="12" font-weight="bold" text-anchor="middle" transform="translate(20 40)">DEBET</text><text x="60" y="35" fill="#1e293b" font-family="Arial, sans-serif" font-size="11" text-anchor="middle" transform="translate(20 40)">Varelager</text><text x="60" y="50" fill="#64748b" font-family="Arial, sans-serif" font-size="10" text-anchor="middle" transform="translate(20 40)">(Omløpsmidler)</text><path fill="#fff" stroke="#16a34a" d="M30 100h100v25H30z"/><text x="60" y="75" fill="#1e293b" font-family="Arial, sans-serif" font-size="10" text-anchor="middle" transform="translate(20 40)">kr 100,000</text><text x="60" y="100" fill="#64748b" font-family="Arial, sans-serif" font-size="9" text-anchor="middle" transform="translate(20 40)">Øker: Aktivum</text><path fill="url(#c)" stroke="url(#c)" stroke-width="2" d="M0 0h120v120H0z" opacity=".1" transform="translate(160 40)"/><text x="60" y="20" fill="#dc2626" font-family="Arial, sans-serif" font-size="12" font-weight="bold" text-anchor="middle" transform="translate(160 40)">KREDIT</text><text x="60" y="35" fill="#1e293b" font-family="Arial, sans-serif" font-size="11" text-anchor="middle" transform="translate(160 40)">Leverandørgjeld</text><text x="60" y="50" fill="#64748b" font-family="Arial, sans-serif" font-size="10" text-anchor="middle" transform="translate(160 40)">(Kortsiktig gjeld)</text><path fill="#fff" stroke="#dc2626" d="M170 100h100v25H170z"/><text x="60" y="75" fill="#1e293b" font-family="Arial, sans-serif" font-size="10" text-anchor="middle" transform="translate(160 40)">kr 100,000</text><text x="60" y="100" fill="#64748b" font-family="Arial, sans-serif" font-size="9" text-anchor="middle" transform="translate(160 40)">Øker: Gjeld</text></g><g transform="translate(450 70)"><rect width="300" height="180" fill="#fff" stroke="#e2e8f0" stroke-width="2" rx="10"/><text x="150" y="25" fill="#1e293b" font-family="Arial, sans-serif" font-size="16" font-weight="bold" text-anchor="middle">2. Ved Salg av Varer</text><path fill="url(#b)" stroke="url(#b)" stroke-width="2" d="M0 0h120v120H0z" opacity=".1" transform="translate(20 40)"/><text x="60" y="20" fill="#16a34a" font-family="Arial, sans-serif" font-size="12" font-weight="bold" text-anchor="middle" transform="translate(20 40)">DEBET</text><text x="60" y="35" fill="#1e293b" font-family="Arial, sans-serif" font-size="11" text-anchor="middle" transform="translate(20 40)">Vareforbruk</text><text x="60" y="50" fill="#64748b" font-family="Arial, sans-serif" font-size="10" text-anchor="middle" transform="translate(20 40)">(Driftskostnad)</text><path fill="#fff" stroke="#16a34a" d="M30 100h100v25H30z"/><text x="60" y="75" fill="#1e293b" font-family="Arial, sans-serif" font-size="10" text-anchor="middle" transform="translate(20 40)">kr 100,000</text><text x="60" y="100" fill="#64748b" font-family="Arial, sans-serif" font-size="9" text-anchor="middle" transform="translate(20 40)">Øker: Kostnad</text><path fill="url(#c)" stroke="url(#c)" stroke-width="2" d="M0 0h120v120H0z" opacity=".1" transform="translate(160 40)"/><text x="60" y="20" fill="#dc2626" font-family="Arial, sans-serif" font-size="12" font-weight="bold" text-anchor="middle" transform="translate(160 40)">KREDIT</text><text x="60" y="35" fill="#1e293b" font-family="Arial, sans-serif" font-size="11" text-anchor="middle" transform="translate(160 40)">Varelager</text><text x="60" y="50" fill="#64748b" font-family="Arial, sans-serif" font-size="10" text-anchor="middle" transform="translate(160 40)">(Omløpsmidler)</text><path fill="#fff" stroke="#dc2626" d="M170 100h100v25H170z"/><text x="60" y="75" fill="#1e293b" font-family="Arial, sans-serif" font-size="10" text-anchor="middle" transform="translate(160 40)">kr 100,000</text><text x="60" y="100" fill="#64748b" font-family="Arial, sans-serif" font-size="9" text-anchor="middle" transform="translate(160 40)">Minker: Aktivum</text></g><path fill="none" stroke="#3b82f6" stroke-width="4" marker-end="url(#d)" d="M360 160h80"/><text x="400" y="150" fill="#3b82f6" font-family="Arial, sans-serif" font-size="12" font-weight="bold" text-anchor="middle">Matching-prinsippet</text><g transform="translate(100 280)"><rect width="600" height="180" fill="#fff" stroke="#e2e8f0" stroke-width="2" rx="10"/><text x="300" y="25" fill="#1e293b" font-family="Arial, sans-serif" font-size="16" font-weight="bold" text-anchor="middle">Tidslinje og Regnskapseffekt</text><path stroke="#64748b" stroke-width="2" d="M50 60h500"/><g transform="translate(50 40)"><circle cy="20" r="8" fill="#3b82f6"/><text y="45" fill="#1e293b" font-family="Arial, sans-serif" font-size="10" font-weight="bold" text-anchor="middle">Bestilling</text><text y="60" fill="#64748b" font-family="Arial, sans-serif" font-size="9" text-anchor="middle">Ingen regnskapseffekt</text></g><g transform="translate(200 40)"><circle cy="20" r="8" fill="#22c55e"/><text y="45" fill="#1e293b" font-family="Arial, sans-serif" font-size="10" font-weight="bold" text-anchor="middle">Varemottak</text><text y="60" fill="#64748b" font-family="Arial, sans-serif" font-size="9" text-anchor="middle">Aktivering som lager</text><text y="75" fill="#64748b" font-family="Arial, sans-serif" font-size="9" text-anchor="middle">Leverandørgjeld</text></g><g transform="translate(350 40)"><circle cy="20" r="8" fill="#f59e0b"/><text y="45" fill="#1e293b" font-family="Arial, sans-serif" font-size="10" font-weight="bold" text-anchor="middle">Fakturamottak</text><text y="60" fill="#64748b" font-family="Arial, sans-serif" font-size="9" text-anchor="middle">Attestering og kontroll</text><text y="75" fill="#64748b" font-family="Arial, sans-serif" font-size="9" text-anchor="middle">MVA-registrering</text></g><g transform="translate(500 40)"><circle cy="20" r="8" fill="#ef4444"/><text y="45" fill="#1e293b" font-family="Arial, sans-serif" font-size="10" font-weight="bold" text-anchor="middle">Varesalg</text><text y="60" fill="#64748b" font-family="Arial, sans-serif" font-size="9" text-anchor="middle">Kostnadsføring</text><text y="75" fill="#64748b" font-family="Arial, sans-serif" font-size="9" text-anchor="middle">Lagerreduksjon</text></g><g transform="translate(50 100)"><rect width="500" height="60" fill="#f1f5f9" rx="5"/><text x="250" y="20" fill="#1e293b" font-family="Arial, sans-serif" font-size="12" font-weight="bold" text-anchor="middle">Viktige Prinsipper:</text><text x="80" y="38" fill="#64748b" font-family="Arial, sans-serif" font-size="10" text-anchor="left">• Matching-prinsippet: Kostnad følger inntekt</text><text x="80" y="50" fill="#64748b" font-family="Arial, sans-serif" font-size="10" text-anchor="left">• Periodisering: Registreres når økonomisk hendelse inntreffer</text><text x="320" y="38" fill="#64748b" font-family="Arial, sans-serif" font-size="10" text-anchor="left">• Forsiktighet: Konservativ verdsettelse</text><text x="320" y="50" fill="#64748b" font-family="Arial, sans-serif" font-size="10" text-anchor="left">• Sammenlignbarhet: Konsistent behandling</text></g></g><defs><marker id="d" markerHeight="7" markerWidth="10" orient="auto" refX="9" refY="3.5"><path fill="#3b82f6" d="m0 0 10 3.5L0 7z"/></marker></defs></svg>