<svg xmlns="http://www.w3.org/2000/svg" width="800" height="500"><defs><marker id="arrowhead" markerHeight="7" markerWidth="10" orient="auto" refX="9" refY="3.5"><path fill="#6c757d" d="m0 0 10 3.5L0 7z"/></marker><style>.subtitle{font-family:Arial,sans-serif;font-size:16px;font-weight:700;fill:#34495e}.small-text,.text{font-family:Arial,sans-serif;font-size:13px;fill:#2c3e50}.small-text{font-size:11px;fill:#7f8c8d}.arrow,.center-box{fill:#f8f9fa;stroke:#6c757d;stroke-width:2}.arrow{fill:none;marker-end:url(#arrowhead)}</style></defs><path fill="#fff" d="M0 0h800v500H0z"/><text x="400" y="30" style="font-family:Arial,sans-serif;font-size:22px;font-weight:700;fill:#2c3e50" text-anchor="middle">Organisasjonsformens Påvirkning på Regnskap og Skatt</text><rect width="200" height="80" x="300" y="60" class="center-box" rx="10"/><text x="400" y="85" class="subtitle" text-anchor="middle">ORGANISASJONSFORM</text><text x="400" y="105" class="text" text-anchor="middle">Juridisk &amp; Økonomisk</text><text x="400" y="125" class="text" text-anchor="middle">Struktur</text><rect width="200" height="120" x="50" y="180" rx="10" style="fill:#e8f5e8;stroke:#28a745;stroke-width:2"/><text x="150" y="205" class="subtitle" text-anchor="middle">Regnskapskrav</text><text x="60" y="230" class="text">• Bokføringsplikt</text><text x="60" y="250" class="text">• Regnskapsstandard</text><text x="60" y="270" class="text">• Revisjonsplikt</text><text x="60" y="290" class="text">• Årsregnskap</text><rect width="200" height="120" x="300" y="180" rx="10" style="fill:#fff3cd;stroke:#ffc107;stroke-width:2"/><text x="400" y="205" class="subtitle" text-anchor="middle">Skattemessig</text><text x="400" y="225" class="subtitle" text-anchor="middle">Behandling</text><text x="310" y="250" class="text">• Personbeskatning</text><text x="310" y="270" class="text">• Selskapsskatt</text><text x="310" y="290" class="text">• Dobbeltbeskatning</text><rect width="200" height="120" x="550" y="180" rx="10" style="fill:#d1ecf1;stroke:#17a2b8;stroke-width:2"/><text x="650" y="205" class="subtitle" text-anchor="middle">Rapportering</text><text x="560" y="230" class="text">• MVA-melding</text><text x="560" y="250" class="text">• Årsoppgave</text><text x="560" y="270" class="text">• Næringsoppgave</text><text x="560" y="290" class="text">• A-melding</text><path d="m350 140-200 40" class="arrow"/><path d="M400 140v40" class="arrow"/><path d="m450 140 200 40" class="arrow"/><rect width="700" height="140" x="50" y="330" class="center-box" rx="10"/><text x="400" y="355" class="subtitle" text-anchor="middle">Eksempler på Påvirkning</text><text x="70" y="380" class="text" font-weight="bold">Enkeltpersonforetak:</text><text x="70" y="400" class="small-text">• Forenklet regnskap (RSFF) • Personbeskatning 0-47,4% • Ingen revisjon</text><text x="70" y="425" class="text" font-weight="bold">Aksjeselskap:</text><text x="70" y="445" class="small-text">• Fullstendig regnskap (NRS/IFRS) • Selskapsskatt 22% • Revisjon hvis stort</text><text x="450" y="380" class="text" font-weight="bold">Påvirkningsfaktorer:</text><text x="450" y="400" class="small-text">• Størrelse (omsetning, ansatte)</text><text x="450" y="415" class="small-text">• Eierstruktur (personlig vs. selskap)</text><text x="450" y="430" class="small-text">• Virksomhetstype (handel, tjenester)</text><text x="450" y="445" class="small-text">• Internasjonale forhold</text></svg>