<svg xmlns="http://www.w3.org/2000/svg" width="800" height="400" viewBox="0 0 800 400"><path fill="#f8f9fa" d="M0 0h800v400H0z"/><text x="400" y="50" fill="#2c3e50" font-family="Arial, sans-serif" font-size="32" font-weight="bold" text-anchor="middle">
    Betalingsoppfordring
  </text><text x="400" y="80" fill="#7f8c8d" font-family="Arial, sans-serif" font-size="18" text-anchor="middle">
    Prosessen for innkreving av utestående fordringer
  </text><g transform="translate(150 120)"><rect width="80" height="100" fill="#3498db" stroke="#2980b9" stroke-width="2" rx="5"/><path fill="#fff" d="M10 15h60v3H10zM10 25h45v2H10zM10 35h50v2H10zM10 45h35v2H10z"/><text x="40" y="75" fill="#fff" font-family="Arial, sans-serif" font-size="12" font-weight="bold" text-anchor="middle">FAKTURA</text><text x="40" y="90" fill="#fff" font-family="Arial, sans-serif" font-size="10" text-anchor="middle">Forfalt</text></g><path fill="none" stroke="#e74c3c" stroke-width="3" d="M250 170h40l-5-5m5 5-5 5"/><text x="20" fill="#e74c3c" font-family="Arial, sans-serif" font-size="12" font-weight="bold" text-anchor="middle" transform="translate(250 160)">1</text><g transform="translate(320 120)"><circle cx="40" cy="50" r="45" fill="#f39c12" stroke="#e67e22" stroke-width="2"/><text x="40" y="40" fill="#fff" font-family="Arial, sans-serif" font-size="24" text-anchor="middle">!</text><text x="40" y="65" fill="#fff" font-family="Arial, sans-serif" font-size="10" font-weight="bold" text-anchor="middle">PÅMINNELSE</text></g><path fill="none" stroke="#e74c3c" stroke-width="3" d="M410 170h40l-5-5m5 5-5 5"/><text x="20" fill="#e74c3c" font-family="Arial, sans-serif" font-size="12" font-weight="bold" text-anchor="middle" transform="translate(410 160)">2</text><g transform="translate(480 120)"><rect width="80" height="100" fill="#e74c3c" stroke="#c0392b" stroke-width="2" rx="5"/><path fill="#fff" d="M10 15h60v3H10zM10 25h45v2H10zM10 35h50v2H10z"/><text x="40" y="65" fill="#fff" font-family="Arial, sans-serif" font-size="11" font-weight="bold" text-anchor="middle">PURRING</text><text x="40" y="80" fill="#fff" font-family="Arial, sans-serif" font-size="9" text-anchor="middle">+ Gebyr</text><text x="40" y="92" fill="#fff" font-family="Arial, sans-serif" font-size="9" text-anchor="middle">+ Renter</text></g><path fill="none" stroke="#e74c3c" stroke-width="3" d="M580 170h40l-5-5m5 5-5 5"/><text x="20" fill="#e74c3c" font-family="Arial, sans-serif" font-size="12" font-weight="bold" text-anchor="middle" transform="translate(580 160)">3</text><g transform="translate(650 120)"><rect width="80" height="100" fill="#8e44ad" stroke="#7d3c98" stroke-width="2" rx="5"/><text x="40" y="35" fill="#fff" font-family="Arial, sans-serif" font-size="11" font-weight="bold" text-anchor="middle">INKASSO</text><text x="40" y="55" fill="#fff" font-family="Arial, sans-serif" font-size="20" text-anchor="middle">⚖</text><text x="40" y="80" fill="#fff" font-family="Arial, sans-serif" font-size="9" text-anchor="middle">Rettslige</text><text x="40" y="92" fill="#fff" font-family="Arial, sans-serif" font-size="9" text-anchor="middle">skritt</text></g><path stroke="#bdc3c7" stroke-width="2" d="M100 280h600"/><circle cx="190" cy="280" r="5" fill="#3498db"/><text x="190" y="300" fill="#2c3e50" font-family="Arial, sans-serif" font-size="12" text-anchor="middle">0-7 dager</text><circle cx="360" cy="280" r="5" fill="#f39c12"/><text x="360" y="300" fill="#2c3e50" font-family="Arial, sans-serif" font-size="12" text-anchor="middle">14-30 dager</text><circle cx="520" cy="280" r="5" fill="#e74c3c"/><text x="520" y="300" fill="#2c3e50" font-family="Arial, sans-serif" font-size="12" text-anchor="middle">30-60 dager</text><circle cx="690" cy="280" r="5" fill="#8e44ad"/><text x="690" y="300" fill="#2c3e50" font-family="Arial, sans-serif" font-size="12" text-anchor="middle">60+ dager</text><text x="400" y="340" fill="#2c3e50" font-family="Arial, sans-serif" font-size="16" font-weight="bold" text-anchor="middle">
    Tidslinje for Betalingsoppfordring
  </text><text x="400" y="365" fill="#7f8c8d" font-family="Arial, sans-serif" font-size="14" text-anchor="middle">
    Fra vennlig påminnelse til rettslige skritt
  </text></svg>