<svg xmlns="http://www.w3.org/2000/svg" width="800" height="600" viewBox="0 0 800 600"><path fill="#f8f9fa" d="M0 0h800v600H0z"/><text x="400" y="40" fill="#2c3e50" font-family="Arial, sans-serif" font-size="24" font-weight="bold" text-anchor="middle">
    Inkassoprosessen
  </text><g transform="translate(50 80)"><rect width="150" height="100" fill="#e74c3c" stroke="#c0392b" stroke-width="2" rx="10"/><text x="75" y="25" fill="#fff" font-family="Arial, sans-serif" font-size="12" font-weight="bold" text-anchor="middle">STEG 1</text><text x="75" y="45" fill="#fff" font-family="Arial, sans-serif" font-size="11" text-anchor="middle">Overføring til</text><text x="75" y="60" fill="#fff" font-family="Arial, sans-serif" font-size="11" text-anchor="middle">Inkassoselskap</text><rect width="30" height="20" x="60" y="70" fill="#fff" rx="2"/><path fill="#e74c3c" d="m75 70 10 5-10 5"/><text x="75" y="120" fill="#2c3e50" font-family="Arial, sans-serif" font-size="9" text-anchor="middle">Inkassogebyr:</text><text x="75" y="135" fill="#2c3e50" font-family="Arial, sans-serif" font-size="9" font-weight="bold" text-anchor="middle">180-2.300 kr</text></g><path fill="none" stroke="#34495e" stroke-width="3" d="M220 130h50l-5-5m5 5-5 5"/><text x="25" fill="#34495e" font-family="Arial, sans-serif" font-size="10" text-anchor="middle" transform="translate(220 120)">14 dager</text><g transform="translate(290 80)"><rect width="150" height="100" fill="#f39c12" stroke="#e67e22" stroke-width="2" rx="10"/><text x="75" y="25" fill="#fff" font-family="Arial, sans-serif" font-size="12" font-weight="bold" text-anchor="middle">STEG 2</text><text x="75" y="45" fill="#fff" font-family="Arial, sans-serif" font-size="11" text-anchor="middle">Inkassovarsel</text><text x="75" y="60" fill="#fff" font-family="Arial, sans-serif" font-size="11" text-anchor="middle">sendes</text><path fill="#fff" d="m75 70 10 15H65z"/><text x="75" y="82" fill="#f39c12" font-family="Arial, sans-serif" font-size="10" font-weight="bold" text-anchor="middle">!</text><text x="75" y="120" fill="#2c3e50" font-family="Arial, sans-serif" font-size="9" text-anchor="middle">Ny frist:</text><text x="75" y="135" fill="#2c3e50" font-family="Arial, sans-serif" font-size="9" font-weight="bold" text-anchor="middle">14 dager</text></g><path fill="#3498db" stroke="#2980b9" stroke-width="2" d="m575 80 75 50-75 50-75-50z"/><text x="75" y="45" fill="#fff" font-family="Arial, sans-serif" font-size="11" font-weight="bold" text-anchor="middle" transform="translate(500 80)">Betalt?</text><text x="75" y="60" fill="#fff" font-family="Arial, sans-serif" font-size="10" text-anchor="middle" transform="translate(500 80)">Innen frist</text><g transform="translate(680 80)"><rect width="100" height="100" fill="#27ae60" stroke="#229954" stroke-width="2" rx="10"/><text x="50" y="30" fill="#fff" font-family="Arial, sans-serif" font-size="12" font-weight="bold" text-anchor="middle">AVSLUTTET</text><text x="50" y="50" fill="#fff" font-family="Arial, sans-serif" font-size="10" text-anchor="middle">Sak lukket</text><text x="50" y="75" fill="#fff" font-family="Arial, sans-serif" font-size="20" text-anchor="middle">✓</text></g><path fill="none" stroke="#27ae60" stroke-width="3" d="M650 130h20l-5-5m5 5-5 5"/><text x="10" fill="#27ae60" font-family="Arial, sans-serif" font-size="9" text-anchor="middle" transform="translate(650 120)">JA</text><path fill="none" stroke="#e74c3c" stroke-width="3" d="M575 200v30l-5-5m5 5 5-5"/><text x="10" y="15" fill="#e74c3c" font-family="Arial, sans-serif" font-size="9" transform="translate(575 200)">NEI</text><g transform="translate(500 250)"><rect width="150" height="100" fill="#8e44ad" stroke="#7d3c98" stroke-width="2" rx="10"/><text x="75" y="25" fill="#fff" font-family="Arial, sans-serif" font-size="12" font-weight="bold" text-anchor="middle">STEG 3</text><text x="75" y="45" fill="#fff" font-family="Arial, sans-serif" font-size="11" text-anchor="middle">Rettslige</text><text x="75" y="60" fill="#fff" font-family="Arial, sans-serif" font-size="11" text-anchor="middle">Skritt</text><text x="75" y="80" fill="#fff" font-family="Arial, sans-serif" font-size="16" text-anchor="middle">⚖</text><text x="75" y="120" fill="#2c3e50" font-family="Arial, sans-serif" font-size="9" text-anchor="middle">Saksomkostninger</text><text x="75" y="135" fill="#2c3e50" font-family="Arial, sans-serif" font-size="9" font-weight="bold" text-anchor="middle">Varierer</text></g><text fill="#2c3e50" font-family="Arial, sans-serif" font-size="16" font-weight="bold" transform="translate(50 400)">Rettslige Alternativer:</text><g transform="translate(50 430)"><rect width="180" height="80" fill="#3498db" fill-opacity=".1" stroke="#3498db" rx="5"/><text x="10" y="20" fill="#2c3e50" font-family="Arial, sans-serif" font-size="12" font-weight="bold">Forliksrådet</text><text x="10" y="35" fill="#2c3e50" font-family="Arial, sans-serif" font-size="10">• Krav under 125.000 kr</text><text x="10" y="50" fill="#2c3e50" font-family="Arial, sans-serif" font-size="10">• Lavere kostnader</text><text x="10" y="65" fill="#2c3e50" font-family="Arial, sans-serif" font-size="10">• Raskere behandling</text></g><g transform="translate(250 430)"><rect width="180" height="80" fill="#e74c3c" fill-opacity=".1" stroke="#e74c3c" rx="5"/><text x="10" y="20" fill="#2c3e50" font-family="Arial, sans-serif" font-size="12" font-weight="bold">Tingrett</text><text x="10" y="35" fill="#2c3e50" font-family="Arial, sans-serif" font-size="10">• Større krav</text><text x="10" y="50" fill="#2c3e50" font-family="Arial, sans-serif" font-size="10">• Høyere kostnader</text><text x="10" y="65" fill="#2c3e50" font-family="Arial, sans-serif" font-size="10">• Lengre behandlingstid</text></g><g transform="translate(450 430)"><rect width="180" height="80" fill="#8e44ad" fill-opacity=".1" stroke="#8e44ad" rx="5"/><text x="10" y="20" fill="#2c3e50" font-family="Arial, sans-serif" font-size="12" font-weight="bold">Namsmannen</text><text x="10" y="35" fill="#2c3e50" font-family="Arial, sans-serif" font-size="10">• Tvangsfullbyrdelse</text><text x="10" y="50" fill="#2c3e50" font-family="Arial, sans-serif" font-size="10">• Utlegg i formue</text><text x="10" y="65" fill="#2c3e50" font-family="Arial, sans-serif" font-size="10">• Lønnsutlegg</text></g><text fill="#2c3e50" font-family="Arial, sans-serif" font-size="14" font-weight="bold" transform="translate(600 400)">Kostnadsutvikling:</text><path fill="#3498db" d="M600 420h30v40h-30z"/><text x="15" y="70" fill="#2c3e50" font-family="Arial, sans-serif" font-size="8" text-anchor="middle" transform="translate(600 400)">Hovedstol</text><path fill="#f39c12" d="M640 415h30v45h-30z"/><text x="55" y="70" fill="#2c3e50" font-family="Arial, sans-serif" font-size="8" text-anchor="middle" transform="translate(600 400)">+ Purring</text><path fill="#e74c3c" d="M680 410h30v50h-30z"/><text x="95" y="70" fill="#2c3e50" font-family="Arial, sans-serif" font-size="8" text-anchor="middle" transform="translate(600 400)">+ Inkasso</text><path fill="#8e44ad" d="M720 405h30v55h-30z"/><text x="135" y="70" fill="#2c3e50" font-family="Arial, sans-serif" font-size="8" text-anchor="middle" transform="translate(600 400)">+ Rettsak</text><path fill="none" stroke="#e74c3c" stroke-width="2" d="m760 430 20-20-5 5m5-5-5-5"/><text x="185" y="15" fill="#e74c3c" font-family="Arial, sans-serif" font-size="10" font-weight="bold" transform="translate(600 400)">Økende</text><text x="185" y="28" fill="#e74c3c" font-family="Arial, sans-serif" font-size="10" font-weight="bold" transform="translate(600 400)">kostnad</text><g transform="translate(100 520)"><text x="300" fill="#2c3e50" font-family="Arial, sans-serif" font-size="14" font-weight="bold" text-anchor="middle">Typisk Tidslinje</text><path stroke="#bdc3c7" stroke-width="2" d="M0 20h600"/><circle cy="20" r="4" fill="#e74c3c"/><text y="40" fill="#2c3e50" font-family="Arial, sans-serif" font-size="10" text-anchor="middle">Overføring</text><circle cx="150" cy="20" r="4" fill="#f39c12"/><text x="150" y="40" fill="#2c3e50" font-family="Arial, sans-serif" font-size="10" text-anchor="middle">Inkassovarsel</text><circle cx="300" cy="20" r="4" fill="#8e44ad"/><text x="300" y="40" fill="#2c3e50" font-family="Arial, sans-serif" font-size="10" text-anchor="middle">Rettslige skritt</text><circle cx="450" cy="20" r="4" fill="#34495e"/><text x="450" y="40" fill="#2c3e50" font-family="Arial, sans-serif" font-size="10" text-anchor="middle">Dom/Utlegg</text><circle cx="600" cy="20" r="4" fill="#27ae60"/><text x="600" y="40" fill="#2c3e50" font-family="Arial, sans-serif" font-size="10" text-anchor="middle">Innbetaling</text><text x="75" y="60" fill="#7f8c8d" font-family="Arial, sans-serif" font-size="9" text-anchor="middle">2-4 uker</text><text x="225" y="60" fill="#7f8c8d" font-family="Arial, sans-serif" font-size="9" text-anchor="middle">2-4 uker</text><text x="375" y="60" fill="#7f8c8d" font-family="Arial, sans-serif" font-size="9" text-anchor="middle">3-12 mnd</text><text x="525" y="60" fill="#7f8c8d" font-family="Arial, sans-serif" font-size="9" text-anchor="middle">Varierer</text></g></svg>