<svg xmlns="http://www.w3.org/2000/svg" width="800" height="500" viewBox="0 0 800 500"><path fill="#f8f9fa" d="M0 0h800v500H0z"/><text x="400" y="40" fill="#2c3e50" font-family="Arial, sans-serif" font-size="24" font-weight="bold" text-anchor="middle">
    AVSKRIVNINGSPROSESSEN
  </text><text x="400" y="65" fill="#7f8c8d" font-family="Arial, sans-serif" font-size="14" text-anchor="middle">
    Fordeling av anskaffelseskost over anleggsmiddelets brukstid
  </text><path stroke="#34495e" stroke-width="3" marker-end="url(#a)" d="M100 400h600"/><text x="720" y="405" fill="#34495e" font-family="Arial, sans-serif" font-size="12">Tid</text><path stroke="#34495e" stroke-width="3" marker-end="url(#a)" d="M100 400V100"/><text x="85" y="90" fill="#34495e" font-family="Arial, sans-serif" font-size="12">Verdi</text><rect width="80" height="280" x="120" y="120" fill="#3498db" rx="5"/><text x="160" y="110" fill="#2c3e50" font-family="Arial, sans-serif" font-size="12" font-weight="bold" text-anchor="middle">
    ANSKAFFELSES-
  </text><text x="160" y="125" fill="#2c3e50" font-family="Arial, sans-serif" font-size="12" font-weight="bold" text-anchor="middle">
    KOST
  </text><text x="160" y="270" fill="#fff" font-family="Arial, sans-serif" font-size="14" font-weight="bold" text-anchor="middle">
    500.000 kr
  </text><text x="160" y="420" fill="#34495e" font-family="Arial, sans-serif" font-size="10" text-anchor="middle">År 0</text><text x="260" y="420" fill="#34495e" font-family="Arial, sans-serif" font-size="10" text-anchor="middle">År 1</text><text x="360" y="420" fill="#34495e" font-family="Arial, sans-serif" font-size="10" text-anchor="middle">År 2</text><text x="460" y="420" fill="#34495e" font-family="Arial, sans-serif" font-size="10" text-anchor="middle">År 3</text><text x="560" y="420" fill="#34495e" font-family="Arial, sans-serif" font-size="10" text-anchor="middle">År 4</text><text x="660" y="420" fill="#34495e" font-family="Arial, sans-serif" font-size="10" text-anchor="middle">År 5</text><rect width="80" height="224" x="220" y="176" fill="#27ae60" rx="5"/><text x="260" y="165" fill="#2c3e50" font-family="Arial, sans-serif" font-size="10" font-weight="bold" text-anchor="middle">
    Bokført verdi
  </text><text x="260" y="290" fill="#fff" font-family="Arial, sans-serif" font-size="12" font-weight="bold" text-anchor="middle">
    400.000
  </text><rect width="80" height="56" x="220" y="120" fill="#e74c3c" rx="5"/><text x="260" y="145" fill="#fff" font-family="Arial, sans-serif" font-size="10" font-weight="bold" text-anchor="middle">
    Avskrivning
  </text><text x="260" y="155" fill="#fff" font-family="Arial, sans-serif" font-size="10" font-weight="bold" text-anchor="middle">
    100.000
  </text><rect width="80" height="168" x="320" y="232" fill="#27ae60" rx="5"/><text x="360" y="340" fill="#fff" font-family="Arial, sans-serif" font-size="12" font-weight="bold" text-anchor="middle">
    300.000
  </text><rect width="80" height="56" x="320" y="176" fill="#e74c3c" rx="5"/><text x="360" y="200" fill="#fff" font-family="Arial, sans-serif" font-size="10" font-weight="bold" text-anchor="middle">
    Avskrivning
  </text><text x="360" y="210" fill="#fff" font-family="Arial, sans-serif" font-size="10" font-weight="bold" text-anchor="middle">
    100.000
  </text><rect width="80" height="112" x="420" y="288" fill="#27ae60" rx="5"/><text x="460" y="350" fill="#fff" font-family="Arial, sans-serif" font-size="12" font-weight="bold" text-anchor="middle">
    200.000
  </text><rect width="80" height="56" x="420" y="232" fill="#e74c3c" rx="5"/><text x="460" y="256" fill="#fff" font-family="Arial, sans-serif" font-size="10" font-weight="bold" text-anchor="middle">
    Avskrivning
  </text><text x="460" y="266" fill="#fff" font-family="Arial, sans-serif" font-size="10" font-weight="bold" text-anchor="middle">
    100.000
  </text><rect width="80" height="56" x="520" y="344" fill="#27ae60" rx="5"/><text x="560" y="375" fill="#fff" font-family="Arial, sans-serif" font-size="12" font-weight="bold" text-anchor="middle">
    100.000
  </text><rect width="80" height="56" x="520" y="288" fill="#e74c3c" rx="5"/><text x="560" y="312" fill="#fff" font-family="Arial, sans-serif" font-size="10" font-weight="bold" text-anchor="middle">
    Avskrivning
  </text><text x="560" y="322" fill="#fff" font-family="Arial, sans-serif" font-size="10" font-weight="bold" text-anchor="middle">
    100.000
  </text><rect width="80" height="56" x="620" y="344" fill="#f39c12" rx="5"/><text x="660" y="365" fill="#fff" font-family="Arial, sans-serif" font-size="10" font-weight="bold" text-anchor="middle">
    Restverdi
  </text><text x="660" y="380" fill="#fff" font-family="Arial, sans-serif" font-size="12" font-weight="bold" text-anchor="middle">
    100.000
  </text><rect width="80" height="56" x="620" y="288" fill="#e74c3c" rx="5"/><text x="660" y="312" fill="#fff" font-family="Arial, sans-serif" font-size="10" font-weight="bold" text-anchor="middle">
    Avskrivning
  </text><text x="660" y="322" fill="#fff" font-family="Arial, sans-serif" font-size="10" font-weight="bold" text-anchor="middle">
    100.000
  </text><rect width="700" height="40" x="50" y="450" fill="#ecf0f1" stroke="#bdc3c7" rx="5"/><path fill="#3498db" d="M70 460h15v15H70z"/><text x="95" y="472" fill="#2c3e50" font-family="Arial, sans-serif" font-size="11">Anskaffelseskost</text><path fill="#27ae60" d="M200 460h15v15h-15z"/><text x="225" y="472" fill="#2c3e50" font-family="Arial, sans-serif" font-size="11">Bokført verdi</text><path fill="#e74c3c" d="M320 460h15v15h-15z"/><text x="345" y="472" fill="#2c3e50" font-family="Arial, sans-serif" font-size="11">Årlig avskrivning</text><path fill="#f39c12" d="M460 460h15v15h-15z"/><text x="485" y="472" fill="#2c3e50" font-family="Arial, sans-serif" font-size="11">Restverdi</text><text x="600" y="472" fill="#2c3e50" font-family="Arial, sans-serif" font-size="11" font-weight="bold">
    Årlig avskrivning = (500.000 - 100.000) ÷ 4 = 100.000 kr
  </text><defs><marker id="a" markerHeight="7" markerWidth="10" orient="auto" refX="9" refY="3.5"><path fill="#34495e" d="m0 0 10 3.5L0 7z"/></marker></defs></svg>