<svg xmlns="http://www.w3.org/2000/svg" width="800" height="600" viewBox="0 0 800 600"><path fill="#f8f9fa" d="M0 0h800v600H0z"/><text x="400" y="50" fill="#2c3e50" font-family="Arial, sans-serif" font-size="32" font-weight="bold" text-anchor="middle">
    HVA ER ANLEGGSMIDLER?
  </text><text x="400" y="80" fill="#7f8c8d" font-family="Arial, sans-serif" font-size="18" text-anchor="middle">
    Faste eiendeler som holdes i mer enn ett år
  </text><rect width="220" height="180" x="50" y="120" fill="#3498db" rx="10"/><text x="160" y="150" fill="#fff" font-family="Arial, sans-serif" font-size="18" font-weight="bold" text-anchor="middle">
    MATERIELLE
  </text><text x="160" y="175" fill="#fff" font-family="Arial, sans-serif" font-size="18" font-weight="bold" text-anchor="middle">
    ANLEGGSMIDLER
  </text><rect width="80" height="60" x="120" y="190" fill="#fff" rx="5"/><path fill="#3498db" d="M130 200h15v15h-15zM155 200h15v15h-15zM180 200h15v15h-15zM130 225h15v15h-15zM155 225h15v15h-15zM180 225h15v15h-15z"/><text x="160" y="270" fill="#fff" font-family="Arial, sans-serif" font-size="12" text-anchor="middle">
    Bygninger, maskiner,
  </text><text x="160" y="285" fill="#fff" font-family="Arial, sans-serif" font-size="12" text-anchor="middle">
    utstyr, transportmidler
  </text><rect width="220" height="180" x="290" y="120" fill="#e74c3c" rx="10"/><text x="400" y="150" fill="#fff" font-family="Arial, sans-serif" font-size="18" font-weight="bold" text-anchor="middle">
    IMMATERIELLE
  </text><text x="400" y="175" fill="#fff" font-family="Arial, sans-serif" font-size="18" font-weight="bold" text-anchor="middle">
    ANLEGGSMIDLER
  </text><circle cx="400" cy="220" r="30" fill="#fff"/><text x="400" y="230" fill="#e74c3c" font-family="Arial, sans-serif" font-size="24" text-anchor="middle">💡</text><text x="400" y="270" fill="#fff" font-family="Arial, sans-serif" font-size="12" text-anchor="middle">
    Patenter, goodwill,
  </text><text x="400" y="285" fill="#fff" font-family="Arial, sans-serif" font-size="12" text-anchor="middle">
    programvare, varemerker
  </text><rect width="220" height="180" x="530" y="120" fill="#27ae60" rx="10"/><text x="640" y="150" fill="#fff" font-family="Arial, sans-serif" font-size="18" font-weight="bold" text-anchor="middle">
    FINANSIELLE
  </text><text x="640" y="175" fill="#fff" font-family="Arial, sans-serif" font-size="18" font-weight="bold" text-anchor="middle">
    ANLEGGSMIDLER
  </text><circle cx="640" cy="220" r="30" fill="#fff"/><text x="640" y="230" fill="#27ae60" font-family="Arial, sans-serif" font-size="20" text-anchor="middle">$</text><text x="640" y="270" fill="#fff" font-family="Arial, sans-serif" font-size="12" text-anchor="middle">
    Aksjer, obligasjoner,
  </text><text x="640" y="285" fill="#fff" font-family="Arial, sans-serif" font-size="12" text-anchor="middle">
    langsiktige lån
  </text><rect width="600" height="200" x="100" y="340" fill="#ecf0f1" stroke="#bdc3c7" stroke-width="2" rx="10"/><text x="400" y="370" fill="#2c3e50" font-family="Arial, sans-serif" font-size="20" font-weight="bold" text-anchor="middle">
    KJENNETEGN VED ANLEGGSMIDLER
  </text><circle cx="150" cy="400" r="5" fill="#3498db"/><text x="170" y="405" fill="#2c3e50" font-family="Arial, sans-serif" font-size="14">
    Holdes i mer enn ett år
  </text><circle cx="450" cy="400" r="5" fill="#3498db"/><text x="470" y="405" fill="#2c3e50" font-family="Arial, sans-serif" font-size="14">
    Brukes i bedriftens drift
  </text><circle cx="150" cy="430" r="5" fill="#e74c3c"/><text x="170" y="435" fill="#2c3e50" font-family="Arial, sans-serif" font-size="14">
    Avskrives over tid (unntatt tomter)
  </text><circle cx="450" cy="430" r="5" fill="#e74c3c"/><text x="470" y="435" fill="#2c3e50" font-family="Arial, sans-serif" font-size="14">
    Begrenset likviditet
  </text><circle cx="150" cy="460" r="5" fill="#27ae60"/><text x="170" y="465" fill="#2c3e50" font-family="Arial, sans-serif" font-size="14">
    Betydelige investeringer
  </text><circle cx="450" cy="460" r="5" fill="#27ae60"/><text x="470" y="465" fill="#2c3e50" font-family="Arial, sans-serif" font-size="14">
    Bidrar til inntektsgenerering
  </text><path stroke="#34495e" stroke-width="3" marker-end="url(#a)" d="M150 500h500"/><text x="400" y="520" fill="#34495e" font-family="Arial, sans-serif" font-size="14" font-weight="bold" text-anchor="middle">
    LANGSIKTIG PERSPEKTIV (&gt; 1 ÅR)
  </text><defs><marker id="a" markerHeight="7" markerWidth="10" orient="auto" refX="9" refY="3.5"><path fill="#34495e" d="m0 0 10 3.5L0 7z"/></marker></defs><text x="400" y="570" fill="#7f8c8d" font-family="Arial, sans-serif" font-size="12" text-anchor="middle">
    Anleggsmidler utgjør grunnlaget for bedriftens langsiktige drift og verdiskaping
  </text></svg>