<svg xmlns="http://www.w3.org/2000/svg" width="800" height="500"><defs><linearGradient id="a" x1="0%" x2="0%" y1="0%" y2="100%"><stop offset="0%" style="stop-color:#3b82f6;stop-opacity:1"/><stop offset="100%" style="stop-color:#1d4ed8;stop-opacity:1"/></linearGradient><linearGradient id="b" x1="0%" x2="0%" y1="0%" y2="100%"><stop offset="0%" style="stop-color:#10b981;stop-opacity:1"/><stop offset="100%" style="stop-color:#059669;stop-opacity:1"/></linearGradient><linearGradient id="c" x1="0%" x2="0%" y1="0%" y2="100%"><stop offset="0%" style="stop-color:#8b5cf6;stop-opacity:1"/><stop offset="100%" style="stop-color:#7c3aed;stop-opacity:1"/></linearGradient><linearGradient id="d" x1="0%" x2="0%" y1="0%" y2="100%"><stop offset="0%" style="stop-color:#f59e0b;stop-opacity:1"/><stop offset="100%" style="stop-color:#d97706;stop-opacity:1"/></linearGradient></defs><path fill="#fff" d="M0 0h800v500H0z"/><text x="400" y="30" fill="#1f2937" font-family="Arial, sans-serif" font-size="24" font-weight="bold" text-anchor="middle">PSD2 Hovedkomponenter</text><text x="400" y="50" fill="#6b7280" font-family="Arial, sans-serif" font-size="14" text-anchor="middle">Sentrale elementer og deres sammenheng</text><circle cx="400" cy="250" r="60" fill="url(#a)" stroke="#1e40af" stroke-width="3"/><text x="400" y="245" fill="#fff" font-family="Arial, sans-serif" font-size="16" font-weight="bold" text-anchor="middle">PSD2</text><text x="400" y="260" fill="#fff" font-family="Arial, sans-serif" font-size="12" text-anchor="middle">Payment Services</text><text x="400" y="275" fill="#fff" font-family="Arial, sans-serif" font-size="12" text-anchor="middle">Directive 2</text><rect width="180" height="100" x="80" y="120" fill="url(#b)" stroke="#065f46" stroke-width="2" rx="10"/><text x="170" y="145" fill="#fff" font-family="Arial, sans-serif" font-size="16" font-weight="bold" text-anchor="middle">Åpen Bankvirksomhet</text><text x="170" y="165" fill="#fff" font-family="Arial, sans-serif" font-size="12" text-anchor="middle">Open Banking</text><rect width="45" height="20" x="90" y="175" fill="rgba(255,255,255,0.3)" rx="3"/><text x="112" y="188" fill="#fff" font-family="Arial, sans-serif" font-size="9" font-weight="bold" text-anchor="middle">AIS</text><rect width="45" height="20" x="140" y="175" fill="rgba(255,255,255,0.3)" rx="3"/><text x="162" y="188" fill="#fff" font-family="Arial, sans-serif" font-size="9" font-weight="bold" text-anchor="middle">PIS</text><rect width="45" height="20" x="190" y="175" fill="rgba(255,255,255,0.3)" rx="3"/><text x="212" y="188" fill="#fff" font-family="Arial, sans-serif" font-size="9" font-weight="bold" text-anchor="middle">CAF</text><text x="170" y="210" fill="#fff" font-family="Arial, sans-serif" font-size="10" text-anchor="middle">API-tilgang til bankdata</text><rect width="180" height="100" x="540" y="120" fill="url(#c)" stroke="#5b21b6" stroke-width="2" rx="10"/><text x="630" y="145" fill="#fff" font-family="Arial, sans-serif" font-size="16" font-weight="bold" text-anchor="middle">Sterk Autentisering</text><text x="630" y="165" fill="#fff" font-family="Arial, sans-serif" font-size="12" text-anchor="middle">SCA - Strong Customer Authentication</text><circle cx="580" cy="185" r="12" fill="rgba(255,255,255,0.3)"/><text x="580" y="190" fill="#fff" font-family="Arial, sans-serif" font-size="8" font-weight="bold" text-anchor="middle">PIN</text><circle cx="630" cy="185" r="12" fill="rgba(255,255,255,0.3)"/><text x="630" y="190" fill="#fff" font-family="Arial, sans-serif" font-size="8" font-weight="bold" text-anchor="middle">📱</text><circle cx="680" cy="185" r="12" fill="rgba(255,255,255,0.3)"/><text x="680" y="190" fill="#fff" font-family="Arial, sans-serif" font-size="8" font-weight="bold" text-anchor="middle">👆</text><text x="630" y="210" fill="#fff" font-family="Arial, sans-serif" font-size="10" text-anchor="middle">To-faktor autentisering</text><rect width="180" height="100" x="80" y="320" fill="url(#d)" stroke="#92400e" stroke-width="2" rx="10"/><text x="170" y="345" fill="#fff" font-family="Arial, sans-serif" font-size="16" font-weight="bold" text-anchor="middle">Forbrukerbeskyttelse</text><text x="170" y="365" fill="#fff" font-family="Arial, sans-serif" font-size="12" text-anchor="middle">Consumer Protection</text><rect width="35" height="15" x="90" y="375" fill="rgba(255,255,255,0.3)" rx="2"/><text x="107" y="385" fill="#fff" font-family="Arial, sans-serif" font-size="8" font-weight="bold" text-anchor="middle">Refund</text><rect width="35" height="15" x="130" y="375" fill="rgba(255,255,255,0.3)" rx="2"/><text x="147" y="385" fill="#fff" font-family="Arial, sans-serif" font-size="8" font-weight="bold" text-anchor="middle">Liability</text><rect width="35" height="15" x="170" y="375" fill="rgba(255,255,255,0.3)" rx="2"/><text x="187" y="385" fill="#fff" font-family="Arial, sans-serif" font-size="8" font-weight="bold" text-anchor="middle">Rights</text><text x="170" y="410" fill="#fff" font-family="Arial, sans-serif" font-size="10" text-anchor="middle">Rettigheter og ansvar</text><rect width="180" height="100" x="540" y="320" fill="#dc2626" stroke="#991b1b" stroke-width="2" rx="10"/><text x="630" y="345" fill="#fff" font-family="Arial, sans-serif" font-size="16" font-weight="bold" text-anchor="middle">Regulatorisk Rammeverk</text><text x="630" y="365" fill="#fff" font-family="Arial, sans-serif" font-size="12" text-anchor="middle">Regulatory Framework</text><rect width="50" height="15" x="550" y="375" fill="rgba(255,255,255,0.3)" rx="2"/><text x="575" y="385" fill="#fff" font-family="Arial, sans-serif" font-size="8" font-weight="bold" text-anchor="middle">Licensing</text><rect width="50" height="15" x="605" y="375" fill="rgba(255,255,255,0.3)" rx="2"/><text x="630" y="385" fill="#fff" font-family="Arial, sans-serif" font-size="8" font-weight="bold" text-anchor="middle">Supervision</text><rect width="50" height="15" x="660" y="375" fill="rgba(255,255,255,0.3)" rx="2"/><text x="685" y="385" fill="#fff" font-family="Arial, sans-serif" font-size="8" font-weight="bold" text-anchor="middle">Sanctions</text><text x="630" y="410" fill="#fff" font-family="Arial, sans-serif" font-size="10" text-anchor="middle">Tilsyn og sanksjoner</text><path fill="none" stroke="#10b981" stroke-width="3" marker-end="url(#e)" d="M260 170q70 0 80 80"/><path fill="none" stroke="#8b5cf6" stroke-width="3" marker-end="url(#f)" d="M540 170q-70 0-80 80"/><path fill="none" stroke="#f59e0b" stroke-width="3" marker-end="url(#g)" d="M260 370q70 0 80-120"/><path fill="none" stroke="#dc2626" stroke-width="3" marker-end="url(#h)" d="M540 370q-70 0-80-120"/><text x="400" y="460" fill="#374151" font-family="Arial, sans-serif" font-size="14" font-weight="bold" text-anchor="middle">Påvirkning på Regnskap og Betalingsprosesser</text><defs><marker id="e" markerHeight="7" markerWidth="10" orient="auto" refX="9" refY="3.5"><path fill="#10b981" d="m0 0 10 3.5L0 7z"/></marker><marker id="f" markerHeight="7" markerWidth="10" orient="auto" refX="9" refY="3.5"><path fill="#8b5cf6" d="m0 0 10 3.5L0 7z"/></marker><marker id="g" markerHeight="7" markerWidth="10" orient="auto" refX="9" refY="3.5"><path fill="#f59e0b" d="m0 0 10 3.5L0 7z"/></marker><marker id="h" markerHeight="7" markerWidth="10" orient="auto" refX="9" refY="3.5"><path fill="#dc2626" d="m0 0 10 3.5L0 7z"/></marker></defs></svg>