<svg xmlns="http://www.w3.org/2000/svg" width="800" height="400"><defs><linearGradient id="a" x1="0%" x2="100%" y1="0%" y2="100%"><stop offset="0%" style="stop-color:#f8f9fa;stop-opacity:1"/><stop offset="100%" style="stop-color:#e9ecef;stop-opacity:1"/></linearGradient><linearGradient id="b" x1="0%" x2="100%" y1="0%" y2="100%"><stop offset="0%" style="stop-color:#4dabf7;stop-opacity:1"/><stop offset="100%" style="stop-color:#1c7ed6;stop-opacity:1"/></linearGradient><linearGradient id="c" x1="0%" x2="100%" y1="0%" y2="100%"><stop offset="0%" style="stop-color:#51cf66;stop-opacity:1"/><stop offset="100%" style="stop-color:#37b24d;stop-opacity:1"/></linearGradient></defs><path fill="url(#a)" d="M0 0h800v400H0z"/><text x="400" y="40" fill="#212529" font-family="Arial, sans-serif" font-size="28" font-weight="bold" text-anchor="middle">
    Balansebasert Verdivurdering
  </text><g transform="translate(400 100)"><rect width="120" height="20" x="-60" y="80" fill="#6c757d" rx="10"/><path fill="#6c757d" d="M-5 60H5v40H-5z"/><rect width="240" height="8" x="-120" y="55" fill="#495057" rx="4"/><ellipse cx="-80" cy="45" fill="url(#b)" rx="40" ry="8"/><rect width="80" height="16" x="-120" y="37" fill="url(#b)" rx="8"/><path stroke="#495057" stroke-width="2" d="M-80 55V37"/><ellipse cx="80" cy="45" fill="url(#c)" rx="40" ry="8"/><rect width="80" height="16" x="40" y="37" fill="url(#c)" rx="8"/><path stroke="#495057" stroke-width="2" d="M80 55V37"/><text x="-80" y="30" fill="#212529" font-family="Arial, sans-serif" font-size="12" font-weight="bold" text-anchor="middle">
      Historisk Kost
    </text><text x="80" y="30" fill="#212529" font-family="Arial, sans-serif" font-size="12" font-weight="bold" text-anchor="middle">
      Virkelig Verdi
    </text></g><g transform="translate(100 220)"><rect width="140" height="80" fill="#fff" stroke="#dee2e6" stroke-width="2" rx="8"/><text x="70" y="25" fill="#495057" font-family="Arial, sans-serif" font-size="14" font-weight="bold" text-anchor="middle">
      Eiendeler
    </text><text x="70" y="45" fill="#6c757d" font-family="Arial, sans-serif" font-size="11" text-anchor="middle">
      • Anleggsmidler
    </text><text x="70" y="60" fill="#6c757d" font-family="Arial, sans-serif" font-size="11" text-anchor="middle">
      • Omløpsmidler
    </text></g><g transform="translate(280 220)"><rect width="140" height="80" fill="#e3f2fd" stroke="#1976d2" stroke-width="2" rx="8"/><text x="70" y="25" fill="#1565c0" font-family="Arial, sans-serif" font-size="14" font-weight="bold" text-anchor="middle">
      Verdivurdering
    </text><text x="70" y="45" fill="#1976d2" font-family="Arial, sans-serif" font-size="11" text-anchor="middle">
      • Metodevalg
    </text><text x="70" y="60" fill="#1976d2" font-family="Arial, sans-serif" font-size="11" text-anchor="middle">
      • Dokumentasjon
    </text></g><g transform="translate(460 220)"><rect width="140" height="80" fill="#fff" stroke="#dee2e6" stroke-width="2" rx="8"/><text x="70" y="25" fill="#495057" font-family="Arial, sans-serif" font-size="14" font-weight="bold" text-anchor="middle">
      Gjeld
    </text><text x="70" y="45" fill="#6c757d" font-family="Arial, sans-serif" font-size="11" text-anchor="middle">
      • Kortsiktig gjeld
    </text><text x="70" y="60" fill="#6c757d" font-family="Arial, sans-serif" font-size="11" text-anchor="middle">
      • Langsiktig gjeld
    </text></g><defs><marker id="d" markerHeight="7" markerWidth="10" orient="auto" refX="9" refY="3.5"><path fill="#495057" d="m0 0 10 3.5L0 7z"/></marker></defs><path stroke="#495057" stroke-width="2" marker-end="url(#d)" d="M240 260h40"/><path stroke="#495057" stroke-width="2" marker-end="url(#d)" d="M420 260h40"/><text x="400" y="350" fill="#495057" font-family="Arial, sans-serif" font-size="16" font-weight="bold" text-anchor="middle">
    Systematisk vurdering for rettvisende finansiell rapportering
  </text><text x="400" y="375" fill="#6c757d" font-family="Arial, sans-serif" font-size="12" text-anchor="middle">
    Balanserer objektivitet med relevans for beslutningstagning
  </text></svg>