<svg xmlns="http://www.w3.org/2000/svg" width="800" height="500" font-family="Arial, sans-serif"><title>Verdivurdering av Lager</title><rect width="780" height="480" x="10" y="10" fill="#fff" stroke="#ccc" stroke-width="2" rx="15"/><text x="400" y="50" fill="#1a202c" font-size="24" font-weight="bold" text-anchor="middle">Verdivurdering av Lager</text><rect width="400" height="60" x="200" y="80" fill="#e6fffa" stroke="#38b2ac" stroke-width="3" rx="10"/><text x="400" y="105" fill="#1a202c" font-size="16" font-weight="bold" text-anchor="middle">Grunnprinsipp:</text><text x="400" y="125" fill="#1a202c" font-size="14" text-anchor="middle">Laveste av anskaffelseskost og virkelig verdi</text><rect width="300" height="250" x="50" y="180" fill="#fef5e7" stroke="#dd6b20" stroke-width="2" rx="10"/><text x="200" y="210" fill="#1a202c" font-size="18" font-weight="bold" text-anchor="middle">Anskaffelseskost</text><rect width="120" height="80" x="70" y="230" fill="#fffaf0" stroke="#d69e2e" rx="5"/><text x="130" y="250" fill="#1a202c" font-size="12" font-weight="bold" text-anchor="middle">FIFO</text><text x="130" y="265" fill="#2d3748" font-size="11" text-anchor="middle">Først inn,</text><text x="130" y="280" fill="#2d3748" font-size="11" text-anchor="middle">først ut</text><text x="80" y="300" fill="#2d3748" font-size="9">Eldste varer</text><text x="80" y="310" fill="#2d3748" font-size="9">ut først</text><rect width="120" height="80" x="210" y="230" fill="#f0fff4" stroke="#38a169" rx="5"/><text x="270" y="250" fill="#1a202c" font-size="12" font-weight="bold" text-anchor="middle">Gjennomsnitt</text><text x="270" y="265" fill="#2d3748" font-size="11" text-anchor="middle">Vektet</text><text x="270" y="280" fill="#2d3748" font-size="11" text-anchor="middle">gjennomsnitt</text><text x="220" y="300" fill="#2d3748" font-size="9">Alle innkjøp</text><text x="220" y="310" fill="#2d3748" font-size="9">vektes sammen</text><text x="70" y="340" fill="#dd6b20" font-size="12" font-weight="bold">Inkluderer:</text><text x="70" y="360" fill="#2d3748" font-size="11">• Innkjøpspris</text><text x="70" y="375" fill="#2d3748" font-size="11">• Direkte kostnader</text><text x="70" y="390" fill="#2d3748" font-size="11">• Transportkostnader</text><text x="70" y="405" fill="#2d3748" font-size="11">• Toll og avgifter</text><rect width="300" height="250" x="450" y="180" fill="#faf5ff" stroke="#805ad5" stroke-width="2" rx="10"/><text x="600" y="210" fill="#1a202c" font-size="18" font-weight="bold" text-anchor="middle">Virkelig Verdi</text><rect width="120" height="80" x="470" y="230" fill="#e6fffa" stroke="#38b2ac" rx="5"/><text x="530" y="250" fill="#1a202c" font-size="12" font-weight="bold" text-anchor="middle">Markedsverdi</text><text x="530" y="265" fill="#2d3748" font-size="11" text-anchor="middle">Aktuell</text><text x="530" y="280" fill="#2d3748" font-size="11" text-anchor="middle">markedspris</text><text x="480" y="300" fill="#2d3748" font-size="9">Dagens</text><text x="480" y="310" fill="#2d3748" font-size="9">innkjøpspris</text><rect width="120" height="80" x="610" y="230" fill="#fed7d7" stroke="#e53e3e" rx="5"/><text x="670" y="245" fill="#1a202c" font-size="12" font-weight="bold" text-anchor="middle">Netto</text><text x="670" y="260" fill="#1a202c" font-size="12" font-weight="bold" text-anchor="middle">Realisasjons-</text><text x="670" y="275" fill="#1a202c" font-size="12" font-weight="bold" text-anchor="middle">verdi</text><text x="620" y="295" fill="#2d3748" font-size="9">Salgspris minus</text><text x="620" y="305" fill="#2d3748" font-size="9">salgskostnader</text><text x="470" y="340" fill="#805ad5" font-size="12" font-weight="bold">Vurderingsfaktorer:</text><text x="470" y="360" fill="#2d3748" font-size="11">• Sesongvariasjoner</text><text x="470" y="375" fill="#2d3748" font-size="11">• Teknisk foreldelse</text><text x="470" y="390" fill="#2d3748" font-size="11">• Skade/kvalitetsfall</text><text x="470" y="405" fill="#2d3748" font-size="11">• Holdbarhet</text><path fill="#4a5568" d="m370 300 30-10v20z"/><path stroke="#4a5568" stroke-width="2" d="M350 300h50"/><text x="375" y="285" fill="#4a5568" font-size="10" text-anchor="middle">VS</text><path fill="#4a5568" d="m430 300 30-10v20z"/><path stroke="#4a5568" stroke-width="2" d="M400 300h50"/><text x="400" y="460" fill="#4a5568" font-size="12" text-anchor="middle">Velg laveste verdi for korrekt regnskapsføring</text></svg>