<svg xmlns="http://www.w3.org/2000/svg" width="800" height="600" font-family="Arial, sans-serif"><title>Teknologi for Lagerstyring</title><rect width="780" height="580" x="10" y="10" fill="#fff" stroke="#ccc" stroke-width="2" rx="15"/><text x="400" y="50" fill="#1a202c" font-size="24" font-weight="bold" text-anchor="middle">Teknologi for Lagerstyring</text><rect width="200" height="100" x="300" y="250" fill="#e6fffa" stroke="#38b2ac" stroke-width="3" rx="15"/><text x="400" y="285" fill="#1a202c" font-size="16" font-weight="bold" text-anchor="middle">ERP-SYSTEM</text><text x="400" y="305" fill="#2d3748" font-size="12" text-anchor="middle">Sentralt lagerstyringssystem</text><text x="400" y="325" fill="#2d3748" font-size="12" text-anchor="middle">med regnskapsintegrasjon</text><rect width="180" height="120" x="50" y="100" fill="#fef5e7" stroke="#dd6b20" stroke-width="2" rx="10"/><text x="140" y="130" fill="#1a202c" font-size="14" font-weight="bold" text-anchor="middle">Strekkode &amp; RFID</text><text x="70" y="155" fill="#2d3748" font-size="11">• Automatisk registrering</text><text x="70" y="170" fill="#2d3748" font-size="11">• Sanntidsoppdatering</text><text x="70" y="185" fill="#2d3748" font-size="11">• Redusert feilrisiko</text><text x="70" y="200" fill="#2d3748" font-size="11">• Trådløs sporing (RFID)</text><path stroke="#4a5568" stroke-width="2" d="m230 160 70 120"/><path fill="#4a5568" d="m295 275 10 10h-10z"/><rect width="180" height="120" x="570" y="100" fill="#faf5ff" stroke="#805ad5" stroke-width="2" rx="10"/><text x="660" y="125" fill="#1a202c" font-size="14" font-weight="bold" text-anchor="middle">AI &amp; Maskinlæring</text><text x="660" y="145" fill="#2d3748" font-size="12" text-anchor="middle">Kunstig Intelligens</text><text x="590" y="165" fill="#2d3748" font-size="11">• Prediktiv analyse</text><text x="590" y="180" fill="#2d3748" font-size="11">• Avviksdeteksjon</text><text x="590" y="195" fill="#2d3748" font-size="11">• Optimalisering</text><text x="590" y="210" fill="#2d3748" font-size="11">• Kvalitetskontroll</text><path stroke="#4a5568" stroke-width="2" d="m570 160-70 120"/><path fill="#4a5568" d="m505 275-10 10h10z"/><rect width="180" height="120" x="50" y="400" fill="#f0fff4" stroke="#38a169" stroke-width="2" rx="10"/><text x="140" y="430" fill="#1a202c" font-size="14" font-weight="bold" text-anchor="middle">IoT-sensorer</text><text x="140" y="450" fill="#2d3748" font-size="12" text-anchor="middle">Internet of Things</text><text x="70" y="470" fill="#2d3748" font-size="11">• Temperaturovervåking</text><text x="70" y="485" fill="#2d3748" font-size="11">• Fuktighetscontroll</text><text x="70" y="500" fill="#2d3748" font-size="11">• Bevegelsesdeteksjon</text><text x="70" y="515" fill="#2d3748" font-size="11">• Sanntidsalarmer</text><path stroke="#4a5568" stroke-width="2" d="m230 460 70-130"/><path fill="#4a5568" d="m295 335 10-10h-10z"/><rect width="180" height="120" x="570" y="400" fill="#fffaf0" stroke="#d69e2e" stroke-width="2" rx="10"/><text x="660" y="430" fill="#1a202c" font-size="14" font-weight="bold" text-anchor="middle">Blockchain</text><text x="660" y="450" fill="#2d3748" font-size="12" text-anchor="middle">Distribuert hovedbok</text><text x="590" y="470" fill="#2d3748" font-size="11">• Sporbarhet</text><text x="590" y="485" fill="#2d3748" font-size="11">• Transparens</text><text x="590" y="500" fill="#2d3748" font-size="11">• Sikkerhet</text><text x="590" y="515" fill="#2d3748" font-size="11">• Uforanderlighet</text><path stroke="#4a5568" stroke-width="2" d="m570 460-70-130"/><path fill="#4a5568" d="m505 335-10-10h10z"/><rect width="200" height="80" x="300" y="400" fill="#fed7d7" stroke="#e53e3e" stroke-width="2" rx="10"/><text x="400" y="425" fill="#1a202c" font-size="14" font-weight="bold" text-anchor="middle">Mobile Applikasjoner</text><text x="320" y="450" fill="#2d3748" font-size="11">• Mobilscanning</text><text x="320" y="465" fill="#2d3748" font-size="11">• Sanntidsrapporter</text><text x="450" y="450" fill="#2d3748" font-size="11">• Offline-funksjonalitet</text><text x="450" y="465" fill="#2d3748" font-size="11">• Brukergrensesnitt</text><path stroke="#4a5568" stroke-width="2" d="M400 400v-50"/><path fill="#4a5568" d="m395 355 10-10h-10z"/><rect width="300" height="120" x="250" y="80" fill="#edf2f7" stroke="#4a5568" stroke-dasharray="5,5" stroke-width="2" rx="10"/><text x="400" y="105" fill="#1a202c" font-size="16" font-weight="bold" text-anchor="middle">Fordeler med Teknologiintegrasjon</text><text x="270" y="130" fill="#2d3748" font-size="12">• Redusert behov for manuelle korreksjon</text><text x="270" y="150" fill="#2d3748" font-size="12">• Økt nøyaktighet i lagerføring</text><text x="270" y="170" fill="#2d3748" font-size="12">• Automatisk regnskapsintegrasjon</text><text x="270" y="190" fill="#2d3748" font-size="12">• Sanntidsrapportering og -analyse</text><text x="400" y="560" fill="#4a5568" font-size="12" text-anchor="middle">Moderne teknologi minimerer lagerkorreksjon og øker effektiviteten</text></svg>