<svg xmlns="http://www.w3.org/2000/svg" width="800" height="600"><defs><linearGradient id="a" x1="0%" x2="100%" y1="0%" y2="100%"><stop offset="0%" style="stop-color:#f8f9fa;stop-opacity:1"/><stop offset="100%" style="stop-color:#e9ecef;stop-opacity:1"/></linearGradient><linearGradient id="d" x1="0%" x2="100%" y1="0%" y2="100%"><stop offset="0%" style="stop-color:#6f42c1;stop-opacity:1"/><stop offset="100%" style="stop-color:#5a32a3;stop-opacity:1"/></linearGradient><radialGradient id="b" cx="50%" cy="50%" r="50%"><stop offset="0%" style="stop-color:#e83e8c;stop-opacity:.8"/><stop offset="100%" style="stop-color:#d91a72;stop-opacity:1"/></radialGradient></defs><path fill="url(#a)" stroke="#dee2e6" stroke-width="2" d="M0 0h800v600H0z"/><text x="400" y="40" fill="#333" font-family="Arial, sans-serif" font-size="26" font-weight="bold" text-anchor="middle">
    Fremtidens Internregnskap
  </text><g transform="translate(400 150)"><circle r="80" fill="url(#b)" stroke="#d91a72" stroke-width="4"/><text y="-15" fill="#fff" font-family="Arial, sans-serif" font-size="16" font-weight="bold" text-anchor="middle">
      AI-drevet
    </text><text y="5" fill="#fff" font-family="Arial, sans-serif" font-size="16" font-weight="bold" text-anchor="middle">
      Internregnskap
    </text><text y="25" fill="#fff" font-family="Arial, sans-serif" font-size="12" text-anchor="middle">
      Intelligent Automatisering
    </text><g fill="#fff" stroke="#fff"><circle cx="-30" cy="-30" r="3"/><circle cx="30" cy="-30" r="3"/><circle cx="-30" cy="30" r="3"/><circle cx="30" cy="30" r="3"/><circle cy="-50" r="3"/><circle cy="50" r="3"/><circle cx="-50" r="3"/><circle cx="50" r="3"/><path d="M-30-30h60M-30 30h60M-30-30v60M30-30v60"/></g></g><g transform="translate(100 80)"><rect width="140" height="80" fill="#17a2b8" stroke="#138496" stroke-width="2" rx="10"/><text x="70" y="25" fill="#fff" font-family="Arial, sans-serif" font-size="14" font-weight="bold" text-anchor="middle">
      Prediktiv
    </text><text x="70" y="45" fill="#fff" font-family="Arial, sans-serif" font-size="14" font-weight="bold" text-anchor="middle">
      Analyse
    </text><text x="70" y="65" fill="#fff" font-family="Arial, sans-serif" font-size="11" text-anchor="middle">
      Fremtidsscenarioer
    </text><rect width="140" height="80" x="560" fill="#fd7e14" stroke="#e8590c" stroke-width="2" rx="10"/><text x="630" y="25" fill="#fff" font-family="Arial, sans-serif" font-size="14" font-weight="bold" text-anchor="middle">
      Quantum
    </text><text x="630" y="45" fill="#fff" font-family="Arial, sans-serif" font-size="14" font-weight="bold" text-anchor="middle">
      Computing
    </text><text x="630" y="65" fill="#fff" font-family="Arial, sans-serif" font-size="11" text-anchor="middle">
      Komplekse beregninger
    </text></g><g transform="translate(50 200)"><rect width="120" height="70" fill="#28a745" stroke="#1e7e34" stroke-width="2" rx="8"/><text x="60" y="25" fill="#fff" font-family="Arial, sans-serif" font-size="12" font-weight="bold" text-anchor="middle">
      Blockchain
    </text><text x="60" y="40" fill="#fff" font-family="Arial, sans-serif" font-size="12" font-weight="bold" text-anchor="middle">
      Regnskap
    </text><text x="60" y="55" fill="#fff" font-family="Arial, sans-serif" font-size="10" text-anchor="middle">
      Transparent sporbarhet
    </text><rect width="120" height="70" y="90" fill="#ffc107" stroke="#e0a800" stroke-width="2" rx="8"/><text x="60" y="115" font-family="Arial, sans-serif" font-size="12" font-weight="bold" text-anchor="middle">
      IoT Integration
    </text><text x="60" y="135" font-family="Arial, sans-serif" font-size="10" text-anchor="middle">
      Sanntids sensorer
    </text><text x="60" y="150" font-family="Arial, sans-serif" font-size="10" text-anchor="middle">
      Automatisk datainnhenting
    </text></g><g transform="translate(630 200)"><rect width="120" height="70" fill="#dc3545" stroke="#c82333" stroke-width="2" rx="8"/><text x="60" y="25" fill="#fff" font-family="Arial, sans-serif" font-size="12" font-weight="bold" text-anchor="middle">
      Natural Language
    </text><text x="60" y="40" fill="#fff" font-family="Arial, sans-serif" font-size="12" font-weight="bold" text-anchor="middle">
      Processing
    </text><text x="60" y="55" fill="#fff" font-family="Arial, sans-serif" font-size="10" text-anchor="middle">
      Stemmebasert analyse
    </text><rect width="120" height="70" y="90" fill="#6f42c1" stroke="#5a32a3" stroke-width="2" rx="8"/><text x="60" y="115" fill="#fff" font-family="Arial, sans-serif" font-size="12" font-weight="bold" text-anchor="middle">
      Augmented
    </text><text x="60" y="130" fill="#fff" font-family="Arial, sans-serif" font-size="12" font-weight="bold" text-anchor="middle">
      Reality
    </text><text x="60" y="150" fill="#fff" font-family="Arial, sans-serif" font-size="10" text-anchor="middle">
      Visuell dataanalyse
    </text></g><g transform="translate(200 320)"><rect width="400" height="200" fill="#fff" stroke="#6f42c1" stroke-width="3" rx="15"/><text x="200" y="30" fill="#6f42c1" font-family="Arial, sans-serif" font-size="20" font-weight="bold" text-anchor="middle">
      Fremtidens Muligheter
    </text><g transform="translate(20 50)"><rect width="170" height="60" fill="#e3f2fd" stroke="#06c" rx="8"/><text x="85" y="20" fill="#06c" font-family="Arial, sans-serif" font-size="12" font-weight="bold" text-anchor="middle">
        Automatisk Avviksdeteksjon
      </text><text x="10" y="35" fill="#333" font-family="Arial, sans-serif" font-size="10">• AI identifiserer anomalier</text><text x="10" y="50" fill="#333" font-family="Arial, sans-serif" font-size="10">• Proaktive varsler og tiltak</text><rect width="170" height="60" x="190" fill="#fff3cd" stroke="#ffc107" rx="8"/><text x="275" y="20" fill="#e0a800" font-family="Arial, sans-serif" font-size="12" font-weight="bold" text-anchor="middle">
        Selvlærende Budsjetter
      </text><text x="200" y="35" fill="#333" font-family="Arial, sans-serif" font-size="10">• Dynamisk justering</text><text x="200" y="50" fill="#333" font-family="Arial, sans-serif" font-size="10">• Maskinlæring fra historikk</text><rect width="170" height="60" y="80" fill="#d4edda" stroke="#28a745" rx="8"/><text x="85" y="100" fill="#28a745" font-family="Arial, sans-serif" font-size="12" font-weight="bold" text-anchor="middle">
        Sanntids Lønnsomhet
      </text><text x="10" y="115" fill="#333" font-family="Arial, sans-serif" font-size="10">• Øyeblikkelig produktanalyse</text><text x="10" y="130" fill="#333" font-family="Arial, sans-serif" font-size="10">• Kontinuerlig optimalisering</text><rect width="170" height="60" x="190" y="80" fill="#f8d7da" stroke="#dc3545" rx="8"/><text x="275" y="100" fill="#dc3545" font-family="Arial, sans-serif" font-size="12" font-weight="bold" text-anchor="middle">
        Intelligent Rapportering
      </text><text x="200" y="115" fill="#333" font-family="Arial, sans-serif" font-size="10">• Personaliserte innsikter</text><text x="200" y="130" fill="#333" font-family="Arial, sans-serif" font-size="10">• Automatisk narrativ</text></g></g><g fill="none" stroke="#6c757d" stroke-width="2" marker-end="url(#c)"><path d="M350 120H170"/><path d="M450 120h180"/><path d="m340 180-170 55"/><path d="M340 200 170 325"/><path d="m460 180 170 55"/><path d="m460 200 170 125"/><path d="M400 230v90"/></g><g transform="translate(50 550)"><rect width="700" height="40" fill="url(#d)" stroke="#5a32a3" stroke-width="2" rx="20"/><text x="350" y="25" fill="#fff" font-family="Arial, sans-serif" font-size="16" font-weight="bold" text-anchor="middle">
      2025-2035: Den Intelligente Regnskapsrevolusjonen
    </text></g><g fill="#28a745" transform="translate(20 20)"><circle r="8"/><text x="15" y="5" font-family="Arial, sans-serif" font-size="12" font-weight="bold">
      Innovasjon
    </text></g><g fill="#e83e8c" transform="translate(680 20)"><circle r="8"/><text x="-50" y="5" font-family="Arial, sans-serif" font-size="12" font-weight="bold">
      Fremtid
    </text></g><defs><marker id="c" markerHeight="7" markerWidth="10" orient="auto" refX="9" refY="3.5"><path fill="#6c757d" d="m0 0 10 3.5L0 7z"/></marker></defs></svg>