<svg xmlns="http://www.w3.org/2000/svg" width="800" height="400"><defs><linearGradient id="a" x1="0%" x2="100%" y1="0%" y2="100%"><stop offset="0%" style="stop-color:#f8f9fa;stop-opacity:1"/><stop offset="100%" style="stop-color:#e9ecef;stop-opacity:1"/></linearGradient><linearGradient id="b" x1="0%" x2="100%" y1="0%" y2="0%"><stop offset="0%" style="stop-color:#06c;stop-opacity:1"/><stop offset="100%" style="stop-color:#049;stop-opacity:1"/></linearGradient></defs><path fill="url(#a)" d="M0 0h800v400H0z"/><path fill="url(#b)" d="M0 0h800v80H0z"/><text x="400" y="50" fill="#fff" font-family="Arial, sans-serif" font-size="36" font-weight="bold" text-anchor="middle">
    Hva er opplysningsplikt?
  </text><g transform="translate(100 120)"><rect width="80" height="100" fill="#fff" stroke="#06c" stroke-width="2" rx="5"/><rect width="60" height="8" x="10" y="10" fill="#06c" rx="2"/><rect width="45" height="6" x="10" y="25" fill="#666" rx="1"/><rect width="50" height="6" x="10" y="35" fill="#666" rx="1"/><rect width="40" height="6" x="10" y="45" fill="#666" rx="1"/><text x="40" y="125" fill="#06c" font-family="Arial, sans-serif" font-size="14" font-weight="bold" text-anchor="middle">
      A-melding
    </text></g><g transform="translate(250 120)"><rect width="80" height="100" fill="#fff" stroke="#0a4" stroke-width="2" rx="5"/><rect width="60" height="8" x="10" y="10" fill="#0a4" rx="2"/><rect width="45" height="6" x="10" y="25" fill="#666" rx="1"/><rect width="50" height="6" x="10" y="35" fill="#666" rx="1"/><rect width="40" height="6" x="10" y="45" fill="#666" rx="1"/><text x="40" y="125" fill="#0a4" font-family="Arial, sans-serif" font-size="14" font-weight="bold" text-anchor="middle">
      MVA-melding
    </text></g><g transform="translate(400 120)"><rect width="80" height="100" fill="#fff" stroke="#c60" stroke-width="2" rx="5"/><rect width="60" height="8" x="10" y="10" fill="#c60" rx="2"/><rect width="45" height="6" x="10" y="25" fill="#666" rx="1"/><rect width="50" height="6" x="10" y="35" fill="#666" rx="1"/><rect width="40" height="6" x="10" y="45" fill="#666" rx="1"/><text x="40" y="125" fill="#c60" font-family="Arial, sans-serif" font-size="14" font-weight="bold" text-anchor="middle">
      Næringsoppgave
    </text></g><g transform="translate(550 120)"><rect width="80" height="100" fill="#fff" stroke="#90c" stroke-width="2" rx="5"/><rect width="60" height="8" x="10" y="10" fill="#90c" rx="2"/><rect width="45" height="6" x="10" y="25" fill="#666" rx="1"/><rect width="50" height="6" x="10" y="35" fill="#666" rx="1"/><rect width="40" height="6" x="10" y="45" fill="#666" rx="1"/><text x="40" y="125" fill="#90c" font-family="Arial, sans-serif" font-size="14" font-weight="bold" text-anchor="middle">
      Årsregnskap
    </text></g><g fill="none" stroke="#333" stroke-width="2" marker-end="url(#c)"><defs><marker id="c" markerHeight="7" markerWidth="10" orient="auto" refX="9" refY="3.5"><path fill="#333" d="m0 0 10 3.5L0 7z"/></marker></defs><path d="M180 180q120 80 200 100"/><path d="M330 180q20 50 50 100"/><path d="m480 180-60 100"/><path d="M630 180q-110 80-190 100"/></g><g transform="translate(350 280)"><rect width="100" height="60" fill="#4a5568" rx="5"/><rect width="15" height="15" x="10" y="10" fill="#fff" rx="2"/><rect width="15" height="15" x="30" y="10" fill="#fff" rx="2"/><rect width="15" height="15" x="50" y="10" fill="#fff" rx="2"/><rect width="15" height="15" x="70" y="10" fill="#fff" rx="2"/><rect width="15" height="15" x="10" y="30" fill="#fff" rx="2"/><rect width="15" height="15" x="30" y="30" fill="#fff" rx="2"/><rect width="15" height="15" x="50" y="30" fill="#fff" rx="2"/><rect width="15" height="15" x="70" y="30" fill="#fff" rx="2"/><text x="50" y="75" fill="#4a5568" font-family="Arial, sans-serif" font-size="12" font-weight="bold" text-anchor="middle">
      Myndigheter
    </text></g><text x="400" y="370" fill="#4a5568" font-family="Arial, sans-serif" font-size="16" text-anchor="middle">
    Lovpålagt rapportering av økonomisk informasjon til offentlige myndigheter
  </text></svg>