<svg xmlns="http://www.w3.org/2000/svg" width="800" height="500"><defs><linearGradient id="a" x1="0%" x2="100%" y1="0%" y2="100%"><stop offset="0%" style="stop-color:#f8f9fa;stop-opacity:1"/><stop offset="100%" style="stop-color:#e9ecef;stop-opacity:1"/></linearGradient><linearGradient id="b" x1="0%" x2="0%" y1="0%" y2="100%"><stop offset="0%" style="stop-color:#3498db;stop-opacity:1"/><stop offset="100%" style="stop-color:#2980b9;stop-opacity:1"/></linearGradient><linearGradient id="c" x1="0%" x2="0%" y1="0%" y2="100%"><stop offset="0%" style="stop-color:#e74c3c;stop-opacity:1"/><stop offset="100%" style="stop-color:#c0392b;stop-opacity:1"/></linearGradient><linearGradient id="d" x1="0%" x2="0%" y1="0%" y2="100%"><stop offset="0%" style="stop-color:#27ae60;stop-opacity:1"/><stop offset="100%" style="stop-color:#229954;stop-opacity:1"/></linearGradient></defs><path fill="url(#a)" d="M0 0h800v500H0z"/><text x="400" y="40" fill="#2c3e50" font-family="Arial, sans-serif" font-size="24" font-weight="bold" text-anchor="middle">
    Oversikt over Depositumtyper
  </text><circle cx="400" cy="250" r="60" fill="#f39c12" stroke="#e67e22" stroke-width="3"/><text x="400" y="240" fill="#fff" font-family="Arial, sans-serif" font-size="16" font-weight="bold" text-anchor="middle">
    DEPOSITUM
  </text><text x="400" y="255" fill="#fff" font-family="Arial, sans-serif" font-size="12" text-anchor="middle">
    Sikkerhet &amp;
  </text><text x="400" y="270" fill="#fff" font-family="Arial, sans-serif" font-size="12" text-anchor="middle">
    Garanti
  </text><path stroke="#95a5a6" stroke-width="2" d="m360 210-160-90"/><rect width="300" height="100" x="50" y="70" fill="url(#b)" stroke="#2980b9" stroke-width="2" rx="10"/><path fill="#fff" d="m80 90 20-20 20 20zM85 90h30v25H85z"/><path fill="#3498db" d="M92 100h8v15h-8zM105 95h6v6h-6z"/><text x="140" y="90" fill="#fff" font-family="Arial, sans-serif" font-size="16" font-weight="bold">
      Husleiedepositum
    </text><text x="140" y="110" fill="#fff" font-family="Arial, sans-serif" font-size="11">
      • Maks 6 mnd husleie (bolig)
    </text><text x="140" y="125" fill="#fff" font-family="Arial, sans-serif" font-size="11">
      • Renteplikt til markedsrente
    </text><text x="140" y="140" fill="#fff" font-family="Arial, sans-serif" font-size="11">
      • Egen bankkonto
    </text><text x="140" y="155" fill="#fff" font-family="Arial, sans-serif" font-size="11">
      • Tilbakebetaling innen 2 mnd
    </text><path stroke="#95a5a6" stroke-width="2" d="m440 210 160-90"/><rect width="300" height="100" x="450" y="70" fill="url(#c)" stroke="#c0392b" stroke-width="2" rx="10"/><rect width="25" height="30" x="470" y="85" fill="#fff" rx="2"/><path stroke="#e74c3c" d="M475 95h15M475 100h15M475 105h10"/><text x="510" y="90" fill="#fff" font-family="Arial, sans-serif" font-size="16" font-weight="bold">
      Kontraktsdepositum
    </text><text x="510" y="110" fill="#fff" font-family="Arial, sans-serif" font-size="11">
      • Byggekontrakter
    </text><text x="510" y="125" fill="#fff" font-family="Arial, sans-serif" font-size="11">
      • Leveransekontrakter
    </text><text x="510" y="140" fill="#fff" font-family="Arial, sans-serif" font-size="11">
      • Servicekontrakter
    </text><text x="510" y="155" fill="#fff" font-family="Arial, sans-serif" font-size="11">
      • Leasingkontrakter
    </text><path stroke="#95a5a6" stroke-width="2" d="M400 310v70"/><rect width="300" height="100" x="250" y="380" fill="url(#d)" stroke="#229954" stroke-width="2" rx="10"/><path fill="#fff" d="M270 395h30v20h-30zM275 385h20v10h-20z"/><path fill="#27ae60" d="M278 400h3v10h-3zM285 400h3v10h-3zM292 400h3v10h-3z"/><text x="320" y="405" fill="#fff" font-family="Arial, sans-serif" font-size="16" font-weight="bold">
      Bankinnskudd som Depositum
    </text><text x="320" y="425" fill="#fff" font-family="Arial, sans-serif" font-size="11">
      • Kredittsikkerhet for lån
    </text><text x="320" y="440" fill="#fff" font-family="Arial, sans-serif" font-size="11">
      • Bankgaranti mot depositum
    </text><text x="320" y="455" fill="#fff" font-family="Arial, sans-serif" font-size="11">
      • Sikkerhet ved valutatransaksjoner
    </text><text x="320" y="470" fill="#fff" font-family="Arial, sans-serif" font-size="11">
      • Variabel rentebetingelser
    </text><rect width="150" height="120" x="20" y="200" fill="#fff" stroke="#bdc3c7" rx="8"/><text x="95" y="220" fill="#2c3e50" font-family="Arial, sans-serif" font-size="12" font-weight="bold" text-anchor="middle">
      Juridisk Regulering
    </text><text x="30" y="240" fill="#34495e" font-family="Arial, sans-serif" font-size="9">
      • Husleieloven
    </text><text x="30" y="255" fill="#34495e" font-family="Arial, sans-serif" font-size="9">
      • Avtaleloven
    </text><text x="30" y="270" fill="#34495e" font-family="Arial, sans-serif" font-size="9">
      • Finansavtaleloven
    </text><text x="30" y="285" fill="#34495e" font-family="Arial, sans-serif" font-size="9">
      • Forbrukerkjøpsloven
    </text><text x="30" y="300" fill="#34495e" font-family="Arial, sans-serif" font-size="9">
      • Kontraktsrett
    </text><rect width="150" height="120" x="630" y="200" fill="#fff" stroke="#bdc3c7" rx="8"/><text x="705" y="220" fill="#2c3e50" font-family="Arial, sans-serif" font-size="12" font-weight="bold" text-anchor="middle">
      Regnskapsføring
    </text><text x="640" y="240" fill="#34495e" font-family="Arial, sans-serif" font-size="9">
      Innskyter:
    </text><text x="640" y="255" fill="#27ae60" font-family="Arial, sans-serif" font-size="9">
      • Eiendel i balansen
    </text><text x="640" y="270" fill="#27ae60" font-family="Arial, sans-serif" font-size="9">
      • Renteinntekter
    </text><text x="640" y="290" fill="#34495e" font-family="Arial, sans-serif" font-size="9">
      Mottaker:
    </text><text x="640" y="305" fill="#e74c3c" font-family="Arial, sans-serif" font-size="9">
      • Gjeld i balansen
    </text></svg>