<svg xmlns="http://www.w3.org/2000/svg" width="800" height="500"><defs><linearGradient id="a" x1="0%" x2="100%" y1="0%" y2="100%"><stop offset="0%" style="stop-color:#f8f9fa;stop-opacity:1"/><stop offset="100%" style="stop-color:#e9ecef;stop-opacity:1"/></linearGradient><filter id="b" width="140%" height="140%" x="-20%" y="-20%"><feDropShadow dx="2" dy="2" flood-color="#00000020" stdDeviation="3"/></filter></defs><path fill="url(#a)" stroke="#dee2e6" stroke-width="2" d="M0 0h800v500H0z"/><text x="400" y="30" fill="#212529" font-family="Arial, sans-serif" font-size="24" font-weight="bold" text-anchor="middle">Kontroll og Sanksjoner ved MVA-plikt</text><rect width="340" height="180" x="50" y="60" fill="#fff" stroke="#17a2b8" stroke-width="2" filter="url(#b)" rx="10"/><text x="220" y="85" fill="#17a2b8" font-family="Arial, sans-serif" font-size="16" font-weight="bold" text-anchor="middle">Skatteetatens Kontrollmyndighet</text><circle cx="80" cy="115" r="8" fill="#17a2b8"/><text x="100" y="120" fill="#0c5460" font-family="Arial, sans-serif" font-size="12">Skrivebordskontroll</text><text x="100" y="135" fill="#6c757d" font-family="Arial, sans-serif" font-size="10">Basert på innsendte oppgaver</text><circle cx="80" cy="155" r="8" fill="#17a2b8"/><text x="100" y="160" fill="#0c5460" font-family="Arial, sans-serif" font-size="12">Stedlig kontroll</text><text x="100" y="175" fill="#6c757d" font-family="Arial, sans-serif" font-size="10">Besøk på virksomhetens lokaler</text><circle cx="80" cy="195" r="8" fill="#17a2b8"/><text x="100" y="200" fill="#0c5460" font-family="Arial, sans-serif" font-size="12">Regnskapsrevisjon</text><text x="100" y="215" fill="#6c757d" font-family="Arial, sans-serif" font-size="10">Gjennomgang av alle bilag</text><rect width="340" height="180" x="410" y="60" fill="#fff" stroke="#ffc107" stroke-width="2" filter="url(#b)" rx="10"/><text x="580" y="85" fill="#856404" font-family="Arial, sans-serif" font-size="16" font-weight="bold" text-anchor="middle">Vanlige Feil og Mangler</text><circle cx="440" cy="115" r="8" fill="#ffc107"/><text x="460" y="120" fill="#856404" font-family="Arial, sans-serif" font-size="12">Feil MVA-sats på varer/tjenester</text><circle cx="440" cy="135" r="8" fill="#ffc107"/><text x="460" y="140" fill="#856404" font-family="Arial, sans-serif" font-size="12">Feil fradragsberegning</text><circle cx="440" cy="155" r="8" fill="#ffc107"/><text x="460" y="160" fill="#856404" font-family="Arial, sans-serif" font-size="12">Manglende registrering</text><circle cx="440" cy="175" r="8" fill="#ffc107"/><text x="460" y="180" fill="#856404" font-family="Arial, sans-serif" font-size="12">For sen levering av oppgaver</text><circle cx="440" cy="195" r="8" fill="#ffc107"/><text x="460" y="200" fill="#856404" font-family="Arial, sans-serif" font-size="12">Mangelfulle bilag</text><circle cx="440" cy="215" r="8" fill="#ffc107"/><text x="460" y="220" fill="#856404" font-family="Arial, sans-serif" font-size="12">Uriktige opplysninger</text><rect width="700" height="220" x="50" y="260" fill="#fff" stroke="#dc3545" stroke-width="2" filter="url(#b)" rx="10"/><text x="400" y="285" fill="#dc3545" font-family="Arial, sans-serif" font-size="16" font-weight="bold" text-anchor="middle">Sanksjoner ved Overtredelser</text><path fill="#f8d7da" stroke="#dc3545" d="M70 300h200v30H70z"/><text x="170" y="320" fill="#721c24" font-family="Arial, sans-serif" font-size="12" font-weight="bold" text-anchor="middle">Type Overtredelse</text><path fill="#f8d7da" stroke="#dc3545" d="M270 300h150v30H270z"/><text x="345" y="320" fill="#721c24" font-family="Arial, sans-serif" font-size="12" font-weight="bold" text-anchor="middle">Sanksjon</text><path fill="#f8d7da" stroke="#dc3545" d="M420 300h150v30H420z"/><text x="495" y="320" fill="#721c24" font-family="Arial, sans-serif" font-size="12" font-weight="bold" text-anchor="middle">Størrelse</text><path fill="#f8d7da" stroke="#dc3545" d="M570 300h160v30H570z"/><text x="650" y="320" fill="#721c24" font-family="Arial, sans-serif" font-size="12" font-weight="bold" text-anchor="middle">Merknad</text><path fill="#fff" stroke="#dc3545" d="M70 330h200v25H70z"/><text x="170" y="347" fill="#6c757d" font-family="Arial, sans-serif" font-size="10" text-anchor="middle">For sen levering</text><path fill="#fff" stroke="#dc3545" d="M270 330h150v25H270z"/><text x="345" y="347" fill="#6c757d" font-family="Arial, sans-serif" font-size="10" text-anchor="middle">Forsinkelsesgebyr</text><path fill="#fff" stroke="#dc3545" d="M420 330h150v25H420z"/><text x="495" y="347" fill="#6c757d" font-family="Arial, sans-serif" font-size="10" text-anchor="middle">1% per måned</text><path fill="#fff" stroke="#dc3545" d="M570 330h160v25H570z"/><text x="650" y="347" fill="#6c757d" font-family="Arial, sans-serif" font-size="9" text-anchor="middle">Min. 200 kr</text><path fill="#fff" stroke="#dc3545" d="M70 355h200v25H70z"/><text x="170" y="372" fill="#6c757d" font-family="Arial, sans-serif" font-size="10" text-anchor="middle">Uriktige opplysninger</text><path fill="#fff" stroke="#dc3545" d="M270 355h150v25H270z"/><text x="345" y="372" fill="#6c757d" font-family="Arial, sans-serif" font-size="10" text-anchor="middle">Tilleggsavgift</text><path fill="#fff" stroke="#dc3545" d="M420 355h150v25H420z"/><text x="495" y="372" fill="#6c757d" font-family="Arial, sans-serif" font-size="10" text-anchor="middle">20% av beløpet</text><path fill="#fff" stroke="#dc3545" d="M570 355h160v25H570z"/><text x="650" y="372" fill="#6c757d" font-family="Arial, sans-serif" font-size="9" text-anchor="middle">Uaktsom</text><path fill="#fff" stroke="#dc3545" d="M70 380h200v25H70z"/><text x="170" y="397" fill="#6c757d" font-family="Arial, sans-serif" font-size="10" text-anchor="middle">Grov uaktsomhet</text><path fill="#fff" stroke="#dc3545" d="M270 380h150v25H270z"/><text x="345" y="397" fill="#6c757d" font-family="Arial, sans-serif" font-size="10" text-anchor="middle">Tilleggsavgift</text><path fill="#fff" stroke="#dc3545" d="M420 380h150v25H420z"/><text x="495" y="397" fill="#6c757d" font-family="Arial, sans-serif" font-size="10" text-anchor="middle">40% av beløpet</text><path fill="#fff" stroke="#dc3545" d="M570 380h160v25H570z"/><text x="650" y="397" fill="#6c757d" font-family="Arial, sans-serif" font-size="9" text-anchor="middle">Alvorlig feil</text><path fill="#fff" stroke="#dc3545" d="M70 405h200v25H70z"/><text x="170" y="422" fill="#6c757d" font-family="Arial, sans-serif" font-size="10" text-anchor="middle">Forsett</text><path fill="#fff" stroke="#dc3545" d="M270 405h150v25H270z"/><text x="345" y="422" fill="#6c757d" font-family="Arial, sans-serif" font-size="10" text-anchor="middle">Tilleggsavgift</text><path fill="#fff" stroke="#dc3545" d="M420 405h150v25H420z"/><text x="495" y="422" fill="#6c757d" font-family="Arial, sans-serif" font-size="10" text-anchor="middle">60% av beløpet</text><path fill="#fff" stroke="#dc3545" d="M570 405h160v25H570z"/><text x="650" y="422" fill="#6c757d" font-family="Arial, sans-serif" font-size="9" text-anchor="middle">Bevisst feil</text><path fill="#fff" stroke="#dc3545" d="M70 430h200v25H70z"/><text x="170" y="447" fill="#6c757d" font-family="Arial, sans-serif" font-size="10" text-anchor="middle">Manglende registrering</text><path fill="#fff" stroke="#dc3545" d="M270 430h150v25H270z"/><text x="345" y="447" fill="#6c757d" font-family="Arial, sans-serif" font-size="10" text-anchor="middle">Tvangsregistrering</text><path fill="#fff" stroke="#dc3545" d="M420 430h150v25H420z"/><text x="495" y="447" fill="#6c757d" font-family="Arial, sans-serif" font-size="10" text-anchor="middle">+ tilleggsavgift</text><path fill="#fff" stroke="#dc3545" d="M570 430h160v25H570z"/><text x="650" y="447" fill="#6c757d" font-family="Arial, sans-serif" font-size="9" text-anchor="middle">Tvungen</text><path fill="#dc3545" d="M70 465h660v10H70z"/><text x="400" y="473" fill="#fff" font-family="Arial, sans-serif" font-size="10" font-weight="bold" text-anchor="middle">VIKTIG: Tilleggssanksjoner kan inkludere renter, inndragning og straff ved grove overtredelser</text></svg>