<svg xmlns="http://www.w3.org/2000/svg" width="800" height="500"><defs><linearGradient id="a" x1="0%" x2="100%" y1="0%" y2="100%"><stop offset="0%" style="stop-color:#f8f9fa;stop-opacity:1"/><stop offset="100%" style="stop-color:#e9ecef;stop-opacity:1"/></linearGradient></defs><path fill="url(#a)" stroke="#dee2e6" stroke-width="2" d="M0 0h800v500H0z"/><text x="400" y="30" fill="#212529" font-family="Arial, sans-serif" font-size="20" font-weight="bold" text-anchor="middle">
    Prosess for utarbeidelse av likviditetsbudsjett
  </text><rect width="200" height="100" x="50" y="80" fill="#007bff" stroke="#0056b3" stroke-width="2" rx="10"/><text x="150" y="110" fill="#fff" font-family="Arial, sans-serif" font-size="14" font-weight="bold" text-anchor="middle">
    TRINN 1
  </text><text x="150" y="130" fill="#fff" font-family="Arial, sans-serif" font-size="12" font-weight="bold" text-anchor="middle">
    DATAINNSAMLING
  </text><text x="150" y="150" fill="#fff" font-family="Arial, sans-serif" font-size="10" text-anchor="middle">
    Historiske data
  </text><text x="150" y="165" fill="#fff" font-family="Arial, sans-serif" font-size="10" text-anchor="middle">
    Salgshistorikk &amp; mønstre
  </text><path stroke="#6c757d" stroke-width="3" marker-end="url(#b)" d="M260 130h30"/><rect width="200" height="100" x="300" y="80" fill="#28a745" stroke="#1e7e34" stroke-width="2" rx="10"/><text x="400" y="110" fill="#fff" font-family="Arial, sans-serif" font-size="14" font-weight="bold" text-anchor="middle">
    TRINN 2
  </text><text x="400" y="130" fill="#fff" font-family="Arial, sans-serif" font-size="12" font-weight="bold" text-anchor="middle">
    PROGNOSEUTVIKLING
  </text><text x="400" y="150" fill="#fff" font-family="Arial, sans-serif" font-size="10" text-anchor="middle">
    Fremtidige prognoser
  </text><text x="400" y="165" fill="#fff" font-family="Arial, sans-serif" font-size="10" text-anchor="middle">
    Markedsanalyse
  </text><path stroke="#6c757d" stroke-width="3" marker-end="url(#b)" d="M510 130h30"/><rect width="200" height="100" x="550" y="80" fill="#dc3545" stroke="#c82333" stroke-width="2" rx="10"/><text x="650" y="110" fill="#fff" font-family="Arial, sans-serif" font-size="14" font-weight="bold" text-anchor="middle">
    TRINN 3
  </text><text x="650" y="130" fill="#fff" font-family="Arial, sans-serif" font-size="12" font-weight="bold" text-anchor="middle">
    BUDSJETTSTRUKTUR
  </text><text x="650" y="150" fill="#fff" font-family="Arial, sans-serif" font-size="10" text-anchor="middle">
    Tidshorisont
  </text><text x="650" y="165" fill="#fff" font-family="Arial, sans-serif" font-size="10" text-anchor="middle">
    Detaljnivå
  </text><rect width="200" height="120" x="50" y="220" fill="#fff" stroke="#007bff" stroke-width="2" rx="8"/><text x="150" y="245" fill="#007bff" font-family="Arial, sans-serif" font-size="12" font-weight="bold" text-anchor="middle">
    DATAKILDER
  </text><g transform="translate(70 260)"><circle cx="8" cy="8" r="4" fill="#007bff"/><text x="20" y="12" fill="#212529" font-family="Arial, sans-serif" font-size="10">Kundefordringer</text><circle cx="8" cy="25" r="4" fill="#007bff"/><text x="20" y="29" fill="#212529" font-family="Arial, sans-serif" font-size="10">Leverandørgjeld</text><circle cx="8" cy="42" r="4" fill="#007bff"/><text x="20" y="46" fill="#212529" font-family="Arial, sans-serif" font-size="10">Lønnsdata</text><circle cx="8" cy="59" r="4" fill="#007bff"/><text x="20" y="63" fill="#212529" font-family="Arial, sans-serif" font-size="10">Banktransaksjoner</text><circle cx="8" cy="76" r="4" fill="#007bff"/><text x="20" y="80" fill="#212529" font-family="Arial, sans-serif" font-size="10">Budsjetter</text></g><rect width="200" height="120" x="300" y="220" fill="#fff" stroke="#28a745" stroke-width="2" rx="8"/><text x="400" y="245" fill="#28a745" font-family="Arial, sans-serif" font-size="12" font-weight="bold" text-anchor="middle">
    PROGNOSEELEMENTER
  </text><g transform="translate(320 260)"><circle cx="8" cy="8" r="4" fill="#28a745"/><text x="20" y="12" fill="#212529" font-family="Arial, sans-serif" font-size="10">Salgsprognoser</text><circle cx="8" cy="25" r="4" fill="#28a745"/><text x="20" y="29" fill="#212529" font-family="Arial, sans-serif" font-size="10">Innbetalingsmønster</text><circle cx="8" cy="42" r="4" fill="#28a745"/><text x="20" y="46" fill="#212529" font-family="Arial, sans-serif" font-size="10">Kostnadsutvkling</text><circle cx="8" cy="59" r="4" fill="#28a745"/><text x="20" y="63" fill="#212529" font-family="Arial, sans-serif" font-size="10">Investeringsplaner</text><circle cx="8" cy="76" r="4" fill="#28a745"/><text x="20" y="80" fill="#212529" font-family="Arial, sans-serif" font-size="10">Sesongvariasjoner</text></g><rect width="200" height="120" x="550" y="220" fill="#fff" stroke="#dc3545" stroke-width="2" rx="8"/><text x="650" y="245" fill="#dc3545" font-family="Arial, sans-serif" font-size="12" font-weight="bold" text-anchor="middle">
    TIDSHORISONTER
  </text><g transform="translate(570 260)"><rect width="80" height="20" fill="#ffc107" rx="3"/><text x="40" y="14" fill="#212529" font-family="Arial, sans-serif" font-size="9" font-weight="bold" text-anchor="middle">
      Kortsiktig
    </text><text x="90" y="14" fill="#212529" font-family="Arial, sans-serif" font-size="8">4-13 uker</text><rect width="80" height="20" y="25" fill="#17a2b8" rx="3"/><text x="40" y="39" fill="#fff" font-family="Arial, sans-serif" font-size="9" font-weight="bold" text-anchor="middle">
      Mellomlang
    </text><text x="90" y="39" fill="#212529" font-family="Arial, sans-serif" font-size="8">12 måneder</text><rect width="80" height="20" y="50" fill="#6f42c1" rx="3"/><text x="40" y="64" fill="#fff" font-family="Arial, sans-serif" font-size="9" font-weight="bold" text-anchor="middle">
      Langsiktig
    </text><text x="90" y="64" fill="#212529" font-family="Arial, sans-serif" font-size="8">2-3 år</text></g><rect width="300" height="80" x="250" y="380" fill="#6f42c1" stroke="#5a32a3" stroke-width="2" rx="10"/><text x="400" y="410" fill="#fff" font-family="Arial, sans-serif" font-size="16" font-weight="bold" text-anchor="middle">
    FERDIG LIKVIDITETSBUDSJETT
  </text><text x="400" y="430" fill="#fff" font-family="Arial, sans-serif" font-size="12" text-anchor="middle">
    Detaljert kontantstrømprognose
  </text><text x="400" y="445" fill="#fff" font-family="Arial, sans-serif" font-size="12" text-anchor="middle">
    Klar for implementering og oppfølging
  </text><path fill="none" stroke="#6c757d" stroke-width="2" marker-end="url(#b)" d="M150 340q50 20 100 80"/><path stroke="#6c757d" stroke-width="2" marker-end="url(#b)" d="M400 340v40"/><path fill="none" stroke="#6c757d" stroke-width="2" marker-end="url(#b)" d="M650 340q-50 20-100 80"/><defs><marker id="b" markerHeight="7" markerWidth="10" orient="auto" refX="9" refY="3.5"><path fill="#6c757d" d="m0 0 10 3.5L0 7z"/></marker></defs></svg>