<svg xmlns="http://www.w3.org/2000/svg" width="800" height="600"><defs><linearGradient id="a" x1="0%" x2="100%" y1="0%" y2="0%"><stop offset="0%" style="stop-color:#007bff;stop-opacity:1"/><stop offset="100%" style="stop-color:#0056b3;stop-opacity:1"/></linearGradient><linearGradient id="b" x1="0%" x2="100%" y1="0%" y2="0%"><stop offset="0%" style="stop-color:#28a745;stop-opacity:1"/><stop offset="100%" style="stop-color:#1e7e34;stop-opacity:1"/></linearGradient></defs><path fill="#f8f9fa" stroke="#dee2e6" stroke-width="2" d="M0 0h800v600H0z"/><text x="400" y="30" fill="#495057" font-family="Arial, sans-serif" font-size="24" font-weight="bold" text-anchor="middle">
    Praktiske Amortiseringseksempler
  </text><rect width="700" height="220" x="50" y="60" fill="url(#a)" rx="15"/><text x="400" y="85" fill="#fff" font-family="Arial, sans-serif" font-size="18" font-weight="bold" text-anchor="middle">
    Eksempel 1: IT-Selskap - Programvarelisens
  </text><rect width="660" height="160" x="70" y="100" fill="#fff" rx="10"/><rect width="180" height="120" x="90" y="115" fill="#e3f2fd" stroke="#2196f3" rx="5"/><text x="180" y="135" fill="#1976d2" font-family="Arial, sans-serif" font-size="12" font-weight="bold" text-anchor="middle">
    Situasjon:
  </text><text x="100" y="150" fill="#495057" font-family="Arial, sans-serif" font-size="10">
    • Programvarelisens: 1 200 000 kr
  </text><text x="100" y="165" fill="#495057" font-family="Arial, sans-serif" font-size="10">
    • Levetid: 4 år
  </text><text x="100" y="180" fill="#495057" font-family="Arial, sans-serif" font-size="10">
    • Metode: Lineær amortisering
  </text><text x="100" y="195" fill="#495057" font-family="Arial, sans-serif" font-size="10">
    • Restverdi: 0 kr
  </text><text x="180" y="215" fill="#1976d2" font-family="Arial, sans-serif" font-size="11" font-weight="bold" text-anchor="middle">
    Beregning:
  </text><text x="180" y="230" fill="#495057" font-family="Arial, sans-serif" font-size="10" text-anchor="middle">
    1 200 000 ÷ 4 = 300 000 kr/år
  </text><rect width="420" height="120" x="290" y="115" fill="#f8f9fa" stroke="#dee2e6" rx="5"/><text x="500" y="135" fill="#495057" font-family="Arial, sans-serif" font-size="12" font-weight="bold" text-anchor="middle">
    Amortiseringsplan:
  </text><path fill="#007bff" stroke="#0056b3" d="M300 145h60v20h-60z"/><text x="330" y="157" fill="#fff" font-family="Arial, sans-serif" font-size="9" font-weight="bold" text-anchor="middle">År</text><path fill="#007bff" stroke="#0056b3" d="M360 145h100v20H360z"/><text x="410" y="157" fill="#fff" font-family="Arial, sans-serif" font-size="9" font-weight="bold" text-anchor="middle">Åpningsbalanse</text><path fill="#007bff" stroke="#0056b3" d="M460 145h100v20H460z"/><text x="510" y="157" fill="#fff" font-family="Arial, sans-serif" font-size="9" font-weight="bold" text-anchor="middle">Amortisering</text><path fill="#007bff" stroke="#0056b3" d="M560 145h100v20H560z"/><text x="610" y="157" fill="#fff" font-family="Arial, sans-serif" font-size="9" font-weight="bold" text-anchor="middle">Sluttbalanse</text><path fill="#fff" stroke="#dee2e6" d="M300 165h60v15h-60z"/><text x="330" y="175" fill="#495057" font-family="Arial, sans-serif" font-size="9" text-anchor="middle">1</text><path fill="#fff" stroke="#dee2e6" d="M360 165h100v15H360z"/><text x="410" y="175" fill="#495057" font-family="Arial, sans-serif" font-size="9" text-anchor="middle">1 200 000</text><path fill="#fff" stroke="#dee2e6" d="M460 165h100v15H460z"/><text x="510" y="175" fill="#495057" font-family="Arial, sans-serif" font-size="9" text-anchor="middle">300 000</text><path fill="#fff" stroke="#dee2e6" d="M560 165h100v15H560z"/><text x="610" y="175" fill="#495057" font-family="Arial, sans-serif" font-size="9" text-anchor="middle">900 000</text><path fill="#f8f9fa" stroke="#dee2e6" d="M300 180h60v15h-60z"/><text x="330" y="190" fill="#495057" font-family="Arial, sans-serif" font-size="9" text-anchor="middle">2</text><path fill="#f8f9fa" stroke="#dee2e6" d="M360 180h100v15H360z"/><text x="410" y="190" fill="#495057" font-family="Arial, sans-serif" font-size="9" text-anchor="middle">900 000</text><path fill="#f8f9fa" stroke="#dee2e6" d="M460 180h100v15H460z"/><text x="510" y="190" fill="#495057" font-family="Arial, sans-serif" font-size="9" text-anchor="middle">300 000</text><path fill="#f8f9fa" stroke="#dee2e6" d="M560 180h100v15H560z"/><text x="610" y="190" fill="#495057" font-family="Arial, sans-serif" font-size="9" text-anchor="middle">600 000</text><path fill="#fff" stroke="#dee2e6" d="M300 195h60v15h-60z"/><text x="330" y="205" fill="#495057" font-family="Arial, sans-serif" font-size="9" text-anchor="middle">3</text><path fill="#fff" stroke="#dee2e6" d="M360 195h100v15H360z"/><text x="410" y="205" fill="#495057" font-family="Arial, sans-serif" font-size="9" text-anchor="middle">600 000</text><path fill="#fff" stroke="#dee2e6" d="M460 195h100v15H460z"/><text x="510" y="205" fill="#495057" font-family="Arial, sans-serif" font-size="9" text-anchor="middle">300 000</text><path fill="#fff" stroke="#dee2e6" d="M560 195h100v15H560z"/><text x="610" y="205" fill="#495057" font-family="Arial, sans-serif" font-size="9" text-anchor="middle">300 000</text><path fill="#f8f9fa" stroke="#dee2e6" d="M300 210h60v15h-60z"/><text x="330" y="220" fill="#495057" font-family="Arial, sans-serif" font-size="9" text-anchor="middle">4</text><path fill="#f8f9fa" stroke="#dee2e6" d="M360 210h100v15H360z"/><text x="410" y="220" fill="#495057" font-family="Arial, sans-serif" font-size="9" text-anchor="middle">300 000</text><path fill="#f8f9fa" stroke="#dee2e6" d="M460 210h100v15H460z"/><text x="510" y="220" fill="#495057" font-family="Arial, sans-serif" font-size="9" text-anchor="middle">300 000</text><path fill="#f8f9fa" stroke="#dee2e6" d="M560 210h100v15H560z"/><text x="610" y="220" fill="#495057" font-family="Arial, sans-serif" font-size="9" text-anchor="middle">0</text><rect width="700" height="180" x="50" y="300" fill="url(#b)" rx="15"/><text x="400" y="325" fill="#fff" font-family="Arial, sans-serif" font-size="18" font-weight="bold" text-anchor="middle">
    Eksempel 2: Farmasøytisk Selskap - Patent
  </text><rect width="660" height="120" x="70" y="340" fill="#fff" rx="10"/><rect width="200" height="90" x="90" y="355" fill="#e8f5e8" stroke="#4caf50" rx="5"/><text x="190" y="375" fill="#2e7d32" font-family="Arial, sans-serif" font-size="12" font-weight="bold" text-anchor="middle">
    Situasjon:
  </text><text x="100" y="390" fill="#495057" font-family="Arial, sans-serif" font-size="10">
    • Patent verdi: 2 000 000 kr
  </text><text x="100" y="405" fill="#495057" font-family="Arial, sans-serif" font-size="10">
    • Gjenværende levetid: 8 år
  </text><text x="100" y="420" fill="#495057" font-family="Arial, sans-serif" font-size="10">
    • Metode: Lineær amortisering
  </text><text x="100" y="435" fill="#495057" font-family="Arial, sans-serif" font-size="10">
    • Restverdi: 0 kr
  </text><rect width="180" height="90" x="310" y="355" fill="#fff3cd" stroke="#ffc107" rx="5"/><text x="400" y="375" fill="#856404" font-family="Arial, sans-serif" font-size="12" font-weight="bold" text-anchor="middle">
    Beregning:
  </text><text x="400" y="390" fill="#495057" font-family="Arial, sans-serif" font-size="10" text-anchor="middle">
    2 000 000 ÷ 8 = 250 000 kr/år
  </text><text x="400" y="405" fill="#495057" font-family="Arial, sans-serif" font-size="10" text-anchor="middle">
    Månedlig: 20 833 kr
  </text><text x="400" y="425" fill="#856404" font-family="Arial, sans-serif" font-size="11" font-weight="bold" text-anchor="middle">
    Påvirkning:
  </text><text x="400" y="440" fill="#495057" font-family="Arial, sans-serif" font-size="10" text-anchor="middle">
    Reduserer årlig resultat med 250k
  </text><rect width="200" height="90" x="510" y="355" fill="#f0f8ff" stroke="#007bff" rx="5"/><text x="610" y="375" fill="#0056b3" font-family="Arial, sans-serif" font-size="12" font-weight="bold" text-anchor="middle">
    Bokført verdi over tid:
  </text><path stroke="#dee2e6" d="M530 420h160M530 385v35"/><path fill="none" stroke="#28a745" stroke-width="2" d="m530 385 160 35"/><text x="525" y="390" fill="#6c757d" font-family="Arial, sans-serif" font-size="8" text-anchor="end">2M</text><text x="525" y="425" fill="#6c757d" font-family="Arial, sans-serif" font-size="8" text-anchor="end">0</text><text x="530" y="435" fill="#6c757d" font-family="Arial, sans-serif" font-size="8" text-anchor="middle">År 0</text><text x="690" y="435" fill="#6c757d" font-family="Arial, sans-serif" font-size="8" text-anchor="middle">År 8</text><rect width="700" height="80" x="50" y="500" fill="#fff" stroke="#dee2e6" stroke-width="2" rx="10"/><text x="400" y="525" fill="#495057" font-family="Arial, sans-serif" font-size="16" font-weight="bold" text-anchor="middle">
    Sammendrag av Eksemplene
  </text><text x="200" y="545" fill="#007bff" font-family="Arial, sans-serif" font-size="12" font-weight="bold" text-anchor="middle">
    IT-Selskap:
  </text><text x="200" y="560" fill="#6c757d" font-family="Arial, sans-serif" font-size="10" text-anchor="middle">
    Kort levetid (4 år)
  </text><text x="200" y="572" fill="#6c757d" font-family="Arial, sans-serif" font-size="10" text-anchor="middle">
    Høy årlig amortisering
  </text><text x="600" y="545" fill="#28a745" font-family="Arial, sans-serif" font-size="12" font-weight="bold" text-anchor="middle">
    Farmasøytisk Selskap:
  </text><text x="600" y="560" fill="#6c757d" font-family="Arial, sans-serif" font-size="10" text-anchor="middle">
    Lang levetid (8 år)
  </text><text x="600" y="572" fill="#6c757d" font-family="Arial, sans-serif" font-size="10" text-anchor="middle">
    Lavere årlig amortisering
  </text></svg>