<svg xmlns="http://www.w3.org/2000/svg" width="600" height="400" viewBox="0 0 600 400"><path fill="#f8f9fa" d="M0 0h600v400H0z"/><text x="300" y="30" fill="#2c3e50" font-family="Arial, sans-serif" font-size="20" font-weight="bold" text-anchor="middle">
    Organisasjonsstruktur for Avvikshåndtering
  </text><rect width="100" height="50" x="250" y="60" fill="#2c3e50" rx="5"/><text x="300" y="80" fill="#fff" font-family="Arial, sans-serif" font-size="11" font-weight="bold" text-anchor="middle">
    STYRE/LEDELSE
  </text><text x="300" y="95" fill="#fff" font-family="Arial, sans-serif" font-size="9" text-anchor="middle">
    Overordnet ansvar
  </text><rect width="100" height="50" x="250" y="140" fill="#34495e" rx="5"/><text x="300" y="160" fill="#fff" font-family="Arial, sans-serif" font-size="11" font-weight="bold" text-anchor="middle">
    ØKONOMISJEF
  </text><text x="300" y="175" fill="#fff" font-family="Arial, sans-serif" font-size="9" text-anchor="middle">
    Strategisk ledelse
  </text><rect width="120" height="50" x="100" y="220" fill="#3498db" rx="5"/><text x="160" y="240" fill="#fff" font-family="Arial, sans-serif" font-size="11" font-weight="bold" text-anchor="middle">
    REGNSKAPSSJEF
  </text><text x="160" y="255" fill="#fff" font-family="Arial, sans-serif" font-size="9" text-anchor="middle">
    Operativ ledelse
  </text><rect width="120" height="50" x="380" y="220" fill="#e74c3c" rx="5"/><text x="440" y="240" fill="#fff" font-family="Arial, sans-serif" font-size="11" font-weight="bold" text-anchor="middle">
    CONTROLLER
  </text><text x="440" y="255" fill="#fff" font-family="Arial, sans-serif" font-size="9" text-anchor="middle">
    Analyse og kontroll
  </text><rect width="100" height="50" x="50" y="300" fill="#27ae60" rx="5"/><text x="100" y="320" fill="#fff" font-family="Arial, sans-serif" font-size="10" font-weight="bold" text-anchor="middle">
    REGNSKAPS-
  </text><text x="100" y="330" fill="#fff" font-family="Arial, sans-serif" font-size="10" font-weight="bold" text-anchor="middle">
    FØRER
  </text><text x="100" y="340" fill="#fff" font-family="Arial, sans-serif" font-size="8" text-anchor="middle">
    Daglig drift
  </text><rect width="100" height="50" x="170" y="300" fill="#27ae60" rx="5"/><text x="220" y="325" fill="#fff" font-family="Arial, sans-serif" font-size="10" font-weight="bold" text-anchor="middle">
    ASSISTENT
  </text><text x="220" y="340" fill="#fff" font-family="Arial, sans-serif" font-size="8" text-anchor="middle">
    Rutineoppgaver
  </text><rect width="100" height="50" x="330" y="300" fill="#f39c12" rx="5"/><text x="380" y="320" fill="#fff" font-family="Arial, sans-serif" font-size="10" font-weight="bold" text-anchor="middle">
    SENIOR
  </text><text x="380" y="330" fill="#fff" font-family="Arial, sans-serif" font-size="10" font-weight="bold" text-anchor="middle">
    ANALYTIKER
  </text><text x="380" y="340" fill="#fff" font-family="Arial, sans-serif" font-size="8" text-anchor="middle">
    Dybdeanalyse
  </text><rect width="100" height="50" x="450" y="300" fill="#f39c12" rx="5"/><text x="500" y="320" fill="#fff" font-family="Arial, sans-serif" font-size="10" font-weight="bold" text-anchor="middle">
    KVALITETS-
  </text><text x="500" y="330" fill="#fff" font-family="Arial, sans-serif" font-size="10" font-weight="bold" text-anchor="middle">
    ANSVARLIG
  </text><text x="500" y="340" fill="#fff" font-family="Arial, sans-serif" font-size="8" text-anchor="middle">
    Prosessutvikling
  </text><path stroke="#2c3e50" stroke-width="2" d="M300 110v30M300 190l-140 30M300 190l140 30M160 270l-60 30M160 270l60 30M440 270l-60 30M440 270l60 30"/><rect width="500" height="25" x="50" y="370" fill="#ecf0f1" stroke="#bdc3c7" rx="5"/><text x="70" y="385" fill="#2c3e50" font-family="Arial, sans-serif" font-size="10" font-weight="bold">
    Ansvarsområder:
  </text><text x="170" y="385" fill="#2c3e50" font-family="Arial, sans-serif" font-size="10">
    Kritiske avvik → Økonomisjef
  </text><text x="320" y="385" fill="#2c3e50" font-family="Arial, sans-serif" font-size="10">
    Rutineavvik → Regnskapsfører
  </text><text x="470" y="385" fill="#2c3e50" font-family="Arial, sans-serif" font-size="10">
    Analyse → Controller
  </text></svg>