<svg xmlns="http://www.w3.org/2000/svg" width="800" height="600"><defs><linearGradient id="a" x1="0%" x2="100%" y1="0%" y2="0%"><stop offset="0%" style="stop-color:#2c3e50;stop-opacity:1"/><stop offset="100%" style="stop-color:#34495e;stop-opacity:1"/></linearGradient></defs><path fill="#f8f9fa" stroke="#dee2e6" stroke-width="2" d="M0 0h800v600H0z"/><path fill="url(#a)" d="M0 0h800v60H0z"/><text x="400" y="35" fill="#fff" font-family="Arial, sans-serif" font-size="24" font-weight="bold" text-anchor="middle">Fradrag i Ulike Selskapsformer</text><rect width="220" height="180" x="50" y="100" fill="#e74c3c" stroke="#c0392b" stroke-width="2" rx="10"/><rect width="220" height="50" x="50" y="100" fill="#c0392b" rx="10"/><text x="160" y="130" fill="#fff" font-family="Arial, sans-serif" font-size="16" font-weight="bold" text-anchor="middle">Enkeltpersonforetak</text><text x="160" y="170" fill="#2c3e50" font-family="Arial, sans-serif" font-size="14" font-weight="bold" text-anchor="middle">Fradragsregler:</text><text x="160" y="190" fill="#2c3e50" font-family="Arial, sans-serif" font-size="12" text-anchor="middle">• Alle legitime forretningskostnader</text><text x="160" y="205" fill="#2c3e50" font-family="Arial, sans-serif" font-size="12" text-anchor="middle">• Direkte fradrag for eier</text><text x="160" y="220" fill="#2c3e50" font-family="Arial, sans-serif" font-size="12" text-anchor="middle">• Ikke fradrag for privat forbruk</text><text x="160" y="245" fill="#c0392b" font-family="Arial, sans-serif" font-size="12" font-weight="bold" text-anchor="middle">Særlige forhold:</text><text x="160" y="260" fill="#2c3e50" font-family="Arial, sans-serif" font-size="11" text-anchor="middle">Blanding privat/næring må skilles</text><rect width="220" height="180" x="290" y="100" fill="#27ae60" stroke="#229954" stroke-width="2" rx="10"/><rect width="220" height="50" x="290" y="100" fill="#229954" rx="10"/><text x="400" y="130" fill="#fff" font-family="Arial, sans-serif" font-size="16" font-weight="bold" text-anchor="middle">Aksjeselskap (AS)</text><text x="400" y="170" fill="#2c3e50" font-family="Arial, sans-serif" font-size="14" font-weight="bold" text-anchor="middle">Fradragsregler:</text><text x="400" y="190" fill="#2c3e50" font-family="Arial, sans-serif" font-size="12" text-anchor="middle">• Strengere regler</text><text x="400" y="205" fill="#2c3e50" font-family="Arial, sans-serif" font-size="12" text-anchor="middle">• Skille selskap/aksjonær</text><text x="400" y="220" fill="#2c3e50" font-family="Arial, sans-serif" font-size="12" text-anchor="middle">• Naturalytelser beskattes</text><text x="400" y="245" fill="#229954" font-family="Arial, sans-serif" font-size="12" font-weight="bold" text-anchor="middle">Særlige forhold:</text><text x="400" y="260" fill="#2c3e50" font-family="Arial, sans-serif" font-size="11" text-anchor="middle">Aksjonærlån og fordeler</text><rect width="220" height="180" x="530" y="100" fill="#3498db" stroke="#2980b9" stroke-width="2" rx="10"/><rect width="220" height="50" x="530" y="100" fill="#2980b9" rx="10"/><text x="640" y="125" fill="#fff" font-family="Arial, sans-serif" font-size="16" font-weight="bold" text-anchor="middle">Ansvarlig Selskap</text><text x="640" y="140" fill="#fff" font-family="Arial, sans-serif" font-size="14" font-weight="bold" text-anchor="middle">(ANS)</text><text x="640" y="170" fill="#2c3e50" font-family="Arial, sans-serif" font-size="14" font-weight="bold" text-anchor="middle">Fradragsregler:</text><text x="640" y="190" fill="#2c3e50" font-family="Arial, sans-serif" font-size="12" text-anchor="middle">• Fordeles mellom deltakere</text><text x="640" y="205" fill="#2c3e50" font-family="Arial, sans-serif" font-size="12" text-anchor="middle">• Basert på eierandel</text><text x="640" y="220" fill="#2c3e50" font-family="Arial, sans-serif" font-size="12" text-anchor="middle">• Gjennomslagsprinsipp</text><text x="640" y="245" fill="#2980b9" font-family="Arial, sans-serif" font-size="12" font-weight="bold" text-anchor="middle">Særlige forhold:</text><text x="640" y="260" fill="#2c3e50" font-family="Arial, sans-serif" font-size="11" text-anchor="middle">Delt ansvar og fordeling</text><rect width="700" height="240" x="50" y="320" fill="#ecf0f1" stroke="#bdc3c7" rx="5"/><text x="400" y="345" fill="#2c3e50" font-family="Arial, sans-serif" font-size="16" font-weight="bold" text-anchor="middle">Sammenligning av Fradragsregler</text><path fill="#34495e" d="M70 360h150v30H70z"/><text x="145" y="380" fill="#fff" font-family="Arial, sans-serif" font-size="12" font-weight="bold" text-anchor="middle">Aspekt</text><path fill="#e74c3c" d="M220 360h150v30H220z"/><text x="295" y="380" fill="#fff" font-family="Arial, sans-serif" font-size="12" font-weight="bold" text-anchor="middle">ENK</text><path fill="#27ae60" d="M370 360h150v30H370z"/><text x="445" y="380" fill="#fff" font-family="Arial, sans-serif" font-size="12" font-weight="bold" text-anchor="middle">AS</text><path fill="#3498db" d="M520 360h150v30H520z"/><text x="595" y="380" fill="#fff" font-family="Arial, sans-serif" font-size="12" font-weight="bold" text-anchor="middle">ANS</text><path fill="#95a5a6" d="M70 390h150v25H70z"/><text x="145" y="407" fill="#fff" font-family="Arial, sans-serif" font-size="11" font-weight="bold" text-anchor="middle">Kompleksitet</text><path fill="#fff" stroke="#e74c3c" d="M220 390h150v25H220z"/><text x="295" y="407" fill="#2c3e50" font-family="Arial, sans-serif" font-size="10" text-anchor="middle">Enkel</text><path fill="#fff" stroke="#27ae60" d="M370 390h150v25H370z"/><text x="445" y="407" fill="#2c3e50" font-family="Arial, sans-serif" font-size="10" text-anchor="middle">Kompleks</text><path fill="#fff" stroke="#3498db" d="M520 390h150v25H520z"/><text x="595" y="407" fill="#2c3e50" font-family="Arial, sans-serif" font-size="10" text-anchor="middle">Middels</text><path fill="#95a5a6" d="M70 415h150v25H70z"/><text x="145" y="432" fill="#fff" font-family="Arial, sans-serif" font-size="11" font-weight="bold" text-anchor="middle">Dokumentasjon</text><path fill="#fff" stroke="#e74c3c" d="M220 415h150v25H220z"/><text x="295" y="432" fill="#2c3e50" font-family="Arial, sans-serif" font-size="10" text-anchor="middle">Standard</text><path fill="#fff" stroke="#27ae60" d="M370 415h150v25H370z"/><text x="445" y="432" fill="#2c3e50" font-family="Arial, sans-serif" font-size="10" text-anchor="middle">Streng</text><path fill="#fff" stroke="#3498db" d="M520 415h150v25H520z"/><text x="595" y="432" fill="#2c3e50" font-family="Arial, sans-serif" font-size="10" text-anchor="middle">Standard</text><path fill="#95a5a6" d="M70 440h150v25H70z"/><text x="145" y="457" fill="#fff" font-family="Arial, sans-serif" font-size="11" font-weight="bold" text-anchor="middle">Privat/Næring</text><path fill="#fff" stroke="#e74c3c" d="M220 440h150v25H220z"/><text x="295" y="457" fill="#2c3e50" font-family="Arial, sans-serif" font-size="10" text-anchor="middle">Må skilles</text><path fill="#fff" stroke="#27ae60" d="M370 440h150v25H370z"/><text x="445" y="457" fill="#2c3e50" font-family="Arial, sans-serif" font-size="10" text-anchor="middle">Automatisk skilt</text><path fill="#fff" stroke="#3498db" d="M520 440h150v25H520z"/><text x="595" y="457" fill="#2c3e50" font-family="Arial, sans-serif" font-size="10" text-anchor="middle">Må skilles</text><path fill="#95a5a6" d="M70 465h150v25H70z"/><text x="145" y="482" fill="#fff" font-family="Arial, sans-serif" font-size="11" font-weight="bold" text-anchor="middle">Skatteeffekt</text><path fill="#fff" stroke="#e74c3c" d="M220 465h150v25H220z"/><text x="295" y="482" fill="#2c3e50" font-family="Arial, sans-serif" font-size="10" text-anchor="middle">Direkte</text><path fill="#fff" stroke="#27ae60" d="M370 465h150v25H370z"/><text x="445" y="482" fill="#2c3e50" font-family="Arial, sans-serif" font-size="10" text-anchor="middle">Selskapsnivå</text><path fill="#fff" stroke="#3498db" d="M520 465h150v25H520z"/><text x="595" y="482" fill="#2c3e50" font-family="Arial, sans-serif" font-size="10" text-anchor="middle">Gjennom deltaker</text><rect width="600" height="40" x="70" y="510" fill="#fff3cd" stroke="#ffc107" rx="5"/><text x="370" y="525" fill="#856404" font-family="Arial, sans-serif" font-size="12" font-weight="bold" text-anchor="middle">Viktig å velge riktig selskapsform</text><text x="370" y="540" fill="#856404" font-family="Arial, sans-serif" font-size="11" text-anchor="middle">Fradragsreglene varierer betydelig mellom selskapsformene</text></svg>