<svg xmlns="http://www.w3.org/2000/svg" width="600" height="400"><title>Altinn Autorisasjonsmodell</title><path fill="#f8f9fa" d="M0 0h600v400H0z"/><text x="300" y="30" fill="#2c3e50" font-size="20" font-weight="bold" text-anchor="middle">Altinn Autorisasjonsmodell</text><rect width="100" height="60" x="250" y="150" fill="#3498db" stroke="#2980b9" stroke-width="3" rx="8"/><text x="300" y="175" fill="#fff" font-size="14" font-weight="bold" text-anchor="middle">Virksomhet</text><text x="300" y="190" fill="#fff" font-size="10" text-anchor="middle">Org.nr: 123456789</text><circle cx="300" cy="80" r="30" fill="#e74c3c" stroke="#c0392b" stroke-width="2"/><text x="300" y="75" fill="#fff" font-size="10" font-weight="bold" text-anchor="middle">Hoved-</text><text x="300" y="88" fill="#fff" font-size="10" font-weight="bold" text-anchor="middle">administrator</text><path stroke="#e74c3c" stroke-width="2" d="M300 110v40"/><rect width="120" height="50" x="80" y="250" fill="#27ae60" stroke="#229954" stroke-width="2" rx="5"/><text x="140" y="270" fill="#fff" font-size="12" font-weight="bold" text-anchor="middle">Roller</text><text x="140" y="285" fill="#fff" font-size="9" text-anchor="middle">Regnskapsmedarbeider</text><text x="140" y="295" fill="#fff" font-size="9" text-anchor="middle">Lønnsleder</text><rect width="120" height="50" x="400" y="250" fill="#9b59b6" stroke="#8e44ad" stroke-width="2" rx="5"/><text x="460" y="270" fill="#fff" font-size="12" font-weight="bold" text-anchor="middle">Enkeltrettigheter</text><text x="460" y="285" fill="#fff" font-size="9" text-anchor="middle">MVA-melding</text><text x="460" y="295" fill="#fff" font-size="9" text-anchor="middle">Skattemelding</text><circle cx="140" cy="340" r="20" fill="#f39c12" stroke="#e67e22" stroke-width="2"/><text x="140" y="345" fill="#fff" font-size="9" font-weight="bold" text-anchor="middle">Bruker A</text><circle cx="460" cy="340" r="20" fill="#f39c12" stroke="#e67e22" stroke-width="2"/><text x="460" y="345" fill="#fff" font-size="9" font-weight="bold" text-anchor="middle">Bruker B</text><path stroke="#34495e" stroke-width="2" d="m250 180-50 70M350 180l50 70"/><path stroke="#27ae60" stroke-width="2" d="M140 300v20"/><path stroke="#9b59b6" stroke-width="2" d="M460 300v20"/><rect width="150" height="80" x="20" y="50" fill="#ecf0f1" stroke="#bdc3c7" rx="5"/><text x="95" y="70" fill="#2c3e50" font-size="12" font-weight="bold" text-anchor="middle">Tilgangsnivåer</text><circle cx="35" cy="85" r="8" fill="#e74c3c"/><text x="50" y="90" fill="#2c3e50" font-size="9">Full tilgang</text><circle cx="35" cy="105" r="8" fill="#27ae60"/><text x="50" y="110" fill="#2c3e50" font-size="9">Rollebasert</text><circle cx="35" cy="120" r="8" fill="#9b59b6"/><text x="50" y="125" fill="#2c3e50" font-size="9">Begrenset</text><text x="300" y="380" fill="#2c3e50" font-size="11" font-weight="bold" text-anchor="middle">Sikker tilgangsstyring med sporbarhet og kontroll</text></svg>