<svg xmlns="http://www.w3.org/2000/svg" width="700" height="450"><title>Altinn 3 Arkitektur</title><path fill="#f8f9fa" d="M0 0h700v450H0z"/><text x="350" y="30" fill="#2c3e50" font-size="20" font-weight="bold" text-anchor="middle">Altinn 3 Arkitektur</text><rect width="600" height="60" x="50" y="80" fill="#3498db" stroke="#2980b9" stroke-width="2" rx="8"/><text x="350" y="105" fill="#fff" font-size="14" font-weight="bold" text-anchor="middle">Frontend - React-basert Brukergrensesnitt</text><text x="350" y="125" fill="#fff" font-size="11" text-anchor="middle">Responsivt design • Moderne UX • Mobiloptimalisert</text><rect width="200" height="50" x="250" y="170" fill="#e74c3c" stroke="#c0392b" stroke-width="2" rx="8"/><text x="350" y="190" fill="#fff" font-size="14" font-weight="bold" text-anchor="middle">API Gateway</text><text x="350" y="205" fill="#fff" font-size="11" text-anchor="middle">Sentral inngangsport</text><rect width="140" height="80" x="50" y="250" fill="#27ae60" stroke="#229954" stroke-width="2" rx="5"/><text x="120" y="275" fill="#fff" font-size="12" font-weight="bold" text-anchor="middle">Forms Service</text><text x="120" y="290" fill="#fff" font-size="9" text-anchor="middle">Skjemahåndtering</text><text x="120" y="305" fill="#fff" font-size="9" text-anchor="middle">Validering</text><text x="120" y="320" fill="#fff" font-size="9" text-anchor="middle">Innsending</text><rect width="140" height="80" x="210" y="250" fill="#9b59b6" stroke="#8e44ad" stroke-width="2" rx="5"/><text x="280" y="275" fill="#fff" font-size="12" font-weight="bold" text-anchor="middle">Auth Service</text><text x="280" y="290" fill="#fff" font-size="9" text-anchor="middle">Autentisering</text><text x="280" y="305" fill="#fff" font-size="9" text-anchor="middle">Autorisasjon</text><text x="280" y="320" fill="#fff" font-size="9" text-anchor="middle">Tilgangskontroll</text><rect width="140" height="80" x="370" y="250" fill="#f39c12" stroke="#e67e22" stroke-width="2" rx="5"/><text x="440" y="275" fill="#fff" font-size="12" font-weight="bold" text-anchor="middle">Message Service</text><text x="440" y="290" fill="#fff" font-size="9" text-anchor="middle">Digital post</text><text x="440" y="305" fill="#fff" font-size="9" text-anchor="middle">Notifikasjoner</text><text x="440" y="320" fill="#fff" font-size="9" text-anchor="middle">Meldingshåndtering</text><rect width="120" height="80" x="530" y="250" fill="#34495e" stroke="#2c3e50" stroke-width="2" rx="5"/><text x="590" y="275" fill="#fff" font-size="12" font-weight="bold" text-anchor="middle">Profile Service</text><text x="590" y="290" fill="#fff" font-size="9" text-anchor="middle">Brukerdata</text><text x="590" y="305" fill="#fff" font-size="9" text-anchor="middle">Virksomhetsinfo</text><text x="590" y="320" fill="#fff" font-size="9" text-anchor="middle">Metadata</text><rect width="400" height="50" x="150" y="360" fill="#95a5a6" stroke="#7f8c8d" stroke-width="2" rx="8"/><text x="350" y="380" fill="#fff" font-size="14" font-weight="bold" text-anchor="middle">Database Layer</text><text x="350" y="395" fill="#fff" font-size="11" text-anchor="middle">Sikker lagring • Backup • Skalerbarhet</text><path stroke="#34495e" stroke-width="2" d="M350 140v30M300 220l-180 30M350 220l-70 30M400 220l40 30M400 220l190 30M120 330l130 30M280 330l20 30M440 330l-40 30M590 330l-140 30"/><text x="350" y="435" fill="#2c3e50" font-size="12" font-weight="bold" text-anchor="middle">Skybasert infrastruktur med høy tilgjengelighet og skalerbarhet</text></svg>