<svg width="600" height="400" xmlns="http://www.w3.org/2000/svg">
  <title>Hva er Altinn?</title>
  
  <!-- Background -->
  <rect width="600" height="400" fill="#f8f9fa"/>
  
  <!-- Main title -->
  <text x="300" y="60" text-anchor="middle" font-size="32" font-weight="bold" fill="#2c3e50">Hva er Altinn?</text>
  
  <!-- Subtitle -->
  <text x="300" y="90" text-anchor="middle" font-size="16" fill="#7f8c8d">Norges Digitale Portal</text>
  
  <!-- Central circle representing Altinn -->
  <circle cx="300" cy="200" r="80" fill="#3498db" stroke="#2980b9" stroke-width="3"/>
  <text x="300" y="195" text-anchor="middle" font-size="20" font-weight="bold" fill="white">ALTINN</text>
  <text x="300" y="215" text-anchor="middle" font-size="12" fill="white">Digital Hub</text>
  
  <!-- Connected entities around Altinn -->
  <!-- Businesses -->
  <rect x="80" y="120" width="80" height="50" rx="5" fill="#e74c3c" stroke="#c0392b" stroke-width="2"/>
  <text x="120" y="140" text-anchor="middle" font-size="12" font-weight="bold" fill="white">Bedrifter</text>
  <text x="120" y="155" text-anchor="middle" font-size="10" fill="white">Næringsliv</text>
  
  <!-- Citizens -->
  <rect x="440" y="120" width="80" height="50" rx="5" fill="#27ae60" stroke="#229954" stroke-width="2"/>
  <text x="480" y="140" text-anchor="middle" font-size="12" font-weight="bold" fill="white">Borgere</text>
  <text x="480" y="155" text-anchor="middle" font-size="10" fill="white">Privatpersoner</text>
  
  <!-- Government agencies -->
  <rect x="80" y="280" width="80" height="50" rx="5" fill="#9b59b6" stroke="#8e44ad" stroke-width="2"/>
  <text x="120" y="300" text-anchor="middle" font-size="12" font-weight="bold" fill="white">Skatteetaten</text>
  <text x="120" y="315" text-anchor="middle" font-size="10" fill="white">Offentlige etater</text>
  
  <!-- NAV -->
  <rect x="440" y="280" width="80" height="50" rx="5" fill="#f39c12" stroke="#e67e22" stroke-width="2"/>
  <text x="480" y="300" text-anchor="middle" font-size="12" font-weight="bold" fill="white">NAV</text>
  <text x="480" y="315" text-anchor="middle" font-size="10" fill="white">Arbeids- og velferd</text>
  
  <!-- Connection lines -->
  <line x1="160" y1="145" x2="220" y2="180" stroke="#34495e" stroke-width="2"/>
  <line x1="440" y1="145" x2="380" y2="180" stroke="#34495e" stroke-width="2"/>
  <line x1="160" y1="305" x2="220" y2="270" stroke="#34495e" stroke-width="2"/>
  <line x1="440" y1="305" x2="380" y2="270" stroke="#34495e" stroke-width="2"/>
  
  <!-- Key services at bottom -->
  <text x="300" y="360" text-anchor="middle" font-size="14" font-weight="bold" fill="#2c3e50">Hovedtjenester:</text>
  <text x="150" y="380" text-anchor="middle" font-size="11" fill="#7f8c8d">MVA-melding</text>
  <text x="250" y="380" text-anchor="middle" font-size="11" fill="#7f8c8d">Skattemelding</text>
  <text x="350" y="380" text-anchor="middle" font-size="11" fill="#7f8c8d">A-melding</text>
  <text x="450" y="380" text-anchor="middle" font-size="11" fill="#7f8c8d">Digital post</text>
</svg>