<svg xmlns="http://www.w3.org/2000/svg" width="800" height="500"><defs><radialGradient id="a" cx="50%" cy="50%" r="50%"><stop offset="0%" style="stop-color:#3b82f6;stop-opacity:.8"/><stop offset="100%" style="stop-color:#1d4ed8;stop-opacity:.9"/></radialGradient></defs><path fill="#fff" d="M0 0h800v500H0z"/><text x="400" y="30" fill="#1f2937" font-family="Arial, sans-serif" font-size="24" font-weight="bold" text-anchor="middle">Fordeler ved Produksjonslønn for Bedriften</text><circle cx="400" cy="200" r="80" fill="url(#a)"/><text x="400" y="195" fill="#fff" font-family="Arial, sans-serif" font-size="14" font-weight="bold" text-anchor="middle">PRODUKSJONS-</text><text x="400" y="210" fill="#fff" font-family="Arial, sans-serif" font-size="14" font-weight="bold" text-anchor="middle">LØNN</text><g transform="translate(150 80)"><rect width="140" height="60" fill="#dcfce7" stroke="#16a34a" stroke-width="2" rx="8"/><text x="70" y="20" fill="#15803d" font-family="Arial, sans-serif" font-size="12" font-weight="bold" text-anchor="middle">ØKT PRODUKTIVITET</text><text x="70" y="35" fill="#15803d" font-family="Arial, sans-serif" font-size="10" text-anchor="middle">15-30% økning</text><text x="70" y="50" fill="#15803d" font-family="Arial, sans-serif" font-size="10" text-anchor="middle">Direkte insentiv</text><path stroke="#16a34a" stroke-width="3" marker-end="url(#b)" d="m100 60 220 90"/></g><g transform="translate(510 80)"><rect width="140" height="60" fill="#dbeafe" stroke="#3b82f6" stroke-width="2" rx="8"/><text x="70" y="20" fill="#1e40af" font-family="Arial, sans-serif" font-size="12" font-weight="bold" text-anchor="middle">KOSTNADSKONTROLL</text><text x="70" y="35" fill="#1e40af" font-family="Arial, sans-serif" font-size="10" text-anchor="middle">Variabel kostnad</text><text x="70" y="50" fill="#1e40af" font-family="Arial, sans-serif" font-size="10" text-anchor="middle">Følger produksjon</text><path stroke="#3b82f6" stroke-width="3" marker-end="url(#c)" d="m540 60-80 90"/></g><g transform="translate(80 280)"><rect width="140" height="60" fill="#fef3c7" stroke="#f59e0b" stroke-width="2" rx="8"/><text x="70" y="20" fill="#92400e" font-family="Arial, sans-serif" font-size="12" font-weight="bold" text-anchor="middle">KVALITETSFOKUS</text><text x="70" y="35" fill="#92400e" font-family="Arial, sans-serif" font-size="10" text-anchor="middle">Bonus for kvalitet</text><text x="70" y="50" fill="#92400e" font-family="Arial, sans-serif" font-size="10" text-anchor="middle">Redusert svinn</text><path stroke="#f59e0b" stroke-width="3" marker-end="url(#d)" d="m150 280 190-40"/></g><g transform="translate(580 280)"><rect width="140" height="60" fill="#fce7f3" stroke="#ec4899" stroke-width="2" rx="8"/><text x="70" y="20" fill="#be185d" font-family="Arial, sans-serif" font-size="12" font-weight="bold" text-anchor="middle">FLEKSIBILITET</text><text x="70" y="35" fill="#be185d" font-family="Arial, sans-serif" font-size="10" text-anchor="middle">Tilpasser marked</text><text x="70" y="50" fill="#be185d" font-family="Arial, sans-serif" font-size="10" text-anchor="middle">Skalerbar kostnad</text><path stroke="#ec4899" stroke-width="3" marker-end="url(#e)" d="m620 280-160-40"/></g><g transform="translate(330 350)"><rect width="140" height="60" fill="#f3e8ff" stroke="#8b5cf6" stroke-width="2" rx="8"/><text x="70" y="20" fill="#7c3aed" font-family="Arial, sans-serif" font-size="12" font-weight="bold" text-anchor="middle">SELVREGULERING</text><text x="70" y="35" fill="#7c3aed" font-family="Arial, sans-serif" font-size="10" text-anchor="middle">Mindre overvåking</text><text x="70" y="50" fill="#7c3aed" font-family="Arial, sans-serif" font-size="10" text-anchor="middle">Egenoptimalisering</text><path stroke="#8b5cf6" stroke-width="3" marker-end="url(#f)" d="M400 350v-70"/></g><rect width="700" height="60" x="50" y="420" fill="#f1f5f9" stroke="#64748b" stroke-width="2" rx="10"/><text x="400" y="440" fill="#334155" font-family="Arial, sans-serif" font-size="14" font-weight="bold" text-anchor="middle">Typiske Resultater ved Implementering</text><g transform="translate(80 450)"><rect width="15" height="15" fill="#10b981" rx="2"/><text x="25" y="12" fill="#374151" font-family="Arial, sans-serif" font-size="11">20-35% økning i produktivitet første år</text></g><g transform="translate(280 450)"><rect width="15" height="15" fill="#3b82f6" rx="2"/><text x="25" y="12" fill="#374151" font-family="Arial, sans-serif" font-size="11">10-15% reduksjon i enhetskoste</text></g><g transform="translate(480 450)"><rect width="15" height="15" fill="#f59e0b" rx="2"/><text x="25" y="12" fill="#374151" font-family="Arial, sans-serif" font-size="11">25-40% bedre leveringspresisjon</text></g><defs><marker id="b" markerHeight="7" markerWidth="10" orient="auto" refX="10" refY="3.5"><path fill="#16a34a" d="m0 0 10 3.5L0 7z"/></marker><marker id="c" markerHeight="7" markerWidth="10" orient="auto" refX="10" refY="3.5"><path fill="#3b82f6" d="m0 0 10 3.5L0 7z"/></marker><marker id="d" markerHeight="7" markerWidth="10" orient="auto" refX="10" refY="3.5"><path fill="#f59e0b" d="m0 0 10 3.5L0 7z"/></marker><marker id="e" markerHeight="7" markerWidth="10" orient="auto" refX="10" refY="3.5"><path fill="#ec4899" d="m0 0 10 3.5L0 7z"/></marker><marker id="f" markerHeight="7" markerWidth="10" orient="auto" refX="10" refY="3.5"><path fill="#8b5cf6" d="m0 0 10 3.5L0 7z"/></marker></defs></svg>