<svg xmlns="http://www.w3.org/2000/svg" width="800" height="500"><defs><linearGradient id="a" x1="0%" x2="100%" y1="0%" y2="0%"><stop offset="0%" style="stop-color:#0ea5e9;stop-opacity:1"/><stop offset="100%" style="stop-color:#0284c7;stop-opacity:1"/></linearGradient></defs><path fill="#fff" d="M0 0h800v500H0z"/><path fill="url(#a)" d="M0 0h800v50H0z"/><text x="400" y="32" fill="#fff" font-family="Arial, sans-serif" font-size="20" font-weight="bold" text-anchor="middle">Digitale Verktøy for Produksjonslønn</text><circle cx="400" cy="220" r="60" fill="#0ea5e9"/><text x="400" y="215" fill="#fff" font-family="Arial, sans-serif" font-size="12" font-weight="bold" text-anchor="middle">DIGITAL</text><text x="400" y="230" fill="#fff" font-family="Arial, sans-serif" font-size="12" font-weight="bold" text-anchor="middle">LØSNING</text><g transform="translate(120 100)"><rect width="120" height="80" fill="#dbeafe" stroke="#3b82f6" stroke-width="2" rx="8"/><text x="60" y="25" fill="#1e40af" font-family="Arial, sans-serif" font-size="12" font-weight="bold" text-anchor="middle">ERP-SYSTEM</text><text x="15" y="45" fill="#1e40af" font-family="Arial, sans-serif" font-size="9">• Integrert lønn</text><text x="15" y="55" fill="#1e40af" font-family="Arial, sans-serif" font-size="9">• Automatisk beregning</text><text x="15" y="65" fill="#1e40af" font-family="Arial, sans-serif" font-size="9">• Rapportgenerering</text><path stroke="#3b82f6" stroke-width="3" d="m120 140 220 60"/></g><g transform="translate(560 100)"><rect width="120" height="80" fill="#dcfce7" stroke="#16a34a" stroke-width="2" rx="8"/><text x="60" y="20" fill="#15803d" font-family="Arial, sans-serif" font-size="12" font-weight="bold" text-anchor="middle">PRODUKSJONS-</text><text x="60" y="32" fill="#15803d" font-family="Arial, sans-serif" font-size="12" font-weight="bold" text-anchor="middle">SPORING</text><text x="15" y="50" fill="#15803d" font-family="Arial, sans-serif" font-size="9">• IoT sensorer</text><text x="15" y="60" fill="#15803d" font-family="Arial, sans-serif" font-size="9">• Sanntidsdata</text><text x="15" y="70" fill="#15803d" font-family="Arial, sans-serif" font-size="9">• Automatisk telling</text><path stroke="#16a34a" stroke-width="3" d="m560 140-100 60"/></g><g transform="translate(120 300)"><rect width="120" height="80" fill="#fef3c7" stroke="#f59e0b" stroke-width="2" rx="8"/><text x="60" y="20" fill="#92400e" font-family="Arial, sans-serif" font-size="12" font-weight="bold" text-anchor="middle">KVALITETS-</text><text x="60" y="32" fill="#92400e" font-family="Arial, sans-serif" font-size="12" font-weight="bold" text-anchor="middle">SYSTEM</text><text x="15" y="50" fill="#92400e" font-family="Arial, sans-serif" font-size="9">• Feilregistrering</text><text x="15" y="60" fill="#92400e" font-family="Arial, sans-serif" font-size="9">• Kvalitetsindeks</text><text x="15" y="70" fill="#92400e" font-family="Arial, sans-serif" font-size="9">• Bonusberegning</text><path stroke="#f59e0b" stroke-width="3" d="m240 340 100-100"/></g><g transform="translate(560 300)"><rect width="120" height="80" fill="#fce7f3" stroke="#ec4899" stroke-width="2" rx="8"/><text x="60" y="25" fill="#be185d" font-family="Arial, sans-serif" font-size="12" font-weight="bold" text-anchor="middle">MOBIL APP</text><text x="15" y="45" fill="#be185d" font-family="Arial, sans-serif" font-size="9">• Timeregistrering</text><text x="15" y="55" fill="#be185d" font-family="Arial, sans-serif" font-size="9">• Produksjonsrapport</text><text x="15" y="65" fill="#be185d" font-family="Arial, sans-serif" font-size="9">• Sanntidsstatus</text><path stroke="#ec4899" stroke-width="3" d="M560 340 460 240"/></g><g transform="translate(340 380)"><rect width="120" height="80" fill="#f3e8ff" stroke="#8b5cf6" stroke-width="2" rx="8"/><text x="60" y="20" fill="#7c3aed" font-family="Arial, sans-serif" font-size="12" font-weight="bold" text-anchor="middle">BUSINESS</text><text x="60" y="32" fill="#7c3aed" font-family="Arial, sans-serif" font-size="12" font-weight="bold" text-anchor="middle">INTELLIGENCE</text><text x="15" y="50" fill="#7c3aed" font-family="Arial, sans-serif" font-size="9">• Analysedashboard</text><text x="15" y="60" fill="#7c3aed" font-family="Arial, sans-serif" font-size="9">• Trendanalyse</text><text x="15" y="70" fill="#7c3aed" font-family="Arial, sans-serif" font-size="9">• Prediktiv analyse</text><path stroke="#8b5cf6" stroke-width="3" d="M400 380V280"/></g><rect width="300" height="80" x="50" y="400" fill="#f8fafc" stroke="#64748b" stroke-width="2" rx="8"/><text x="200" y="420" fill="#1f2937" font-family="Arial, sans-serif" font-size="14" font-weight="bold" text-anchor="middle">Tradisjonell vs Digital</text><text x="70" y="440" fill="#374151" font-family="Arial, sans-serif" font-size="11" font-weight="bold">Tradisjonell:</text><text x="70" y="452" fill="#374151" font-family="Arial, sans-serif" font-size="10">• Manuell registrering</text><text x="70" y="462" fill="#374151" font-family="Arial, sans-serif" font-size="10">• Feilpotensial høyt</text><text x="70" y="472" fill="#374151" font-family="Arial, sans-serif" font-size="10">• Tidkrevende</text><text x="200" y="440" fill="#374151" font-family="Arial, sans-serif" font-size="11" font-weight="bold">Digital:</text><text x="200" y="452" fill="#374151" font-family="Arial, sans-serif" font-size="10">• Automatisk registrering</text><text x="200" y="462" fill="#374151" font-family="Arial, sans-serif" font-size="10">• Redusert feilrate</text><text x="200" y="472" fill="#374151" font-family="Arial, sans-serif" font-size="10">• Sanntidsdata</text><rect width="300" height="80" x="450" y="400" fill="#f0fdf4" stroke="#16a34a" stroke-width="2" rx="8"/><text x="600" y="420" fill="#15803d" font-family="Arial, sans-serif" font-size="14" font-weight="bold" text-anchor="middle">Implementeringsgevinster</text><g transform="translate(470 430)"><rect width="12" height="12" fill="#10b981" rx="2"/><text x="20" y="10" fill="#15803d" font-family="Arial, sans-serif" font-size="10">70% reduksjon i administrasjonstid</text></g><g transform="translate(470 445)"><rect width="12" height="12" fill="#10b981" rx="2"/><text x="20" y="10" fill="#15803d" font-family="Arial, sans-serif" font-size="10">90% færre feil i lønnsberegning</text></g><g transform="translate(470 460)"><rect width="12" height="12" fill="#10b981" rx="2"/><text x="20" y="10" fill="#15803d" font-family="Arial, sans-serif" font-size="10">Sanntids innsikt i produksjonsdata</text></g></svg>