<svg xmlns="http://www.w3.org/2000/svg" width="800" height="500"><defs><linearGradient id="a" x1="0%" x2="100%" y1="0%" y2="0%"><stop offset="0%" style="stop-color:#1e40af;stop-opacity:1"/><stop offset="100%" style="stop-color:#3b82f6;stop-opacity:1"/></linearGradient></defs><path fill="#fff" d="M0 0h800v500H0z"/><path fill="url(#a)" d="M0 0h800v50H0z"/><text x="400" y="32" fill="#fff" font-family="Arial, sans-serif" font-size="20" font-weight="bold" text-anchor="middle">Produksjonsmåling for Lønnberegning</text><text x="50" y="80" fill="#1f2937" font-family="Arial, sans-serif" font-size="18" font-weight="bold">Måleprosess for Produksjonslønn</text><rect width="140" height="100" x="50" y="100" fill="#dbeafe" stroke="#3b82f6" stroke-width="2" rx="8"/><text x="120" y="125" fill="#1e40af" font-family="Arial, sans-serif" font-size="14" font-weight="bold" text-anchor="middle">1. DATAINNSAMLING</text><g transform="translate(65 140)"><rect width="15" height="12" fill="#3b82f6" rx="2"/><text x="20" y="10" fill="#1e40af" font-family="Arial, sans-serif" font-size="9">Produksjonssystemer</text></g><g transform="translate(65 155)"><rect width="15" height="12" fill="#3b82f6" rx="2"/><text x="20" y="10" fill="#1e40af" font-family="Arial, sans-serif" font-size="9">Sensorer &amp; IoT</text></g><g transform="translate(65 170)"><rect width="15" height="12" fill="#3b82f6" rx="2"/><text x="20" y="10" fill="#1e40af" font-family="Arial, sans-serif" font-size="9">Manuell registrering</text></g><g transform="translate(65 185)"><rect width="15" height="12" fill="#3b82f6" rx="2"/><text x="20" y="10" fill="#1e40af" font-family="Arial, sans-serif" font-size="9">Kvalitetskontroll</text></g><path stroke="#6b7280" stroke-width="3" marker-end="url(#b)" d="M190 150h30"/><rect width="140" height="100" x="230" y="100" fill="#dcfce7" stroke="#16a34a" stroke-width="2" rx="8"/><text x="300" y="125" fill="#15803d" font-family="Arial, sans-serif" font-size="14" font-weight="bold" text-anchor="middle">2. VALIDERING</text><g transform="translate(245 140)"><rect width="15" height="12" fill="#16a34a" rx="2"/><text x="20" y="10" fill="#15803d" font-family="Arial, sans-serif" font-size="9">Datakonsistens</text></g><g transform="translate(245 155)"><rect width="15" height="12" fill="#16a34a" rx="2"/><text x="20" y="10" fill="#15803d" font-family="Arial, sans-serif" font-size="9">Kvalitetssjekk</text></g><g transform="translate(245 170)"><rect width="15" height="12" fill="#16a34a" rx="2"/><text x="20" y="10" fill="#15803d" font-family="Arial, sans-serif" font-size="9">Avviksdeteksjon</text></g><g transform="translate(245 185)"><rect width="15" height="12" fill="#16a34a" rx="2"/><text x="20" y="10" fill="#15803d" font-family="Arial, sans-serif" font-size="9">Kryss-referanse</text></g><path stroke="#6b7280" stroke-width="3" marker-end="url(#b)" d="M370 150h30"/><rect width="140" height="100" x="410" y="100" fill="#fef3c7" stroke="#f59e0b" stroke-width="2" rx="8"/><text x="480" y="125" fill="#92400e" font-family="Arial, sans-serif" font-size="14" font-weight="bold" text-anchor="middle">3. BEREGNING</text><g transform="translate(425 140)"><rect width="15" height="12" fill="#f59e0b" rx="2"/><text x="20" y="10" fill="#92400e" font-family="Arial, sans-serif" font-size="9">Produksjonsvolum</text></g><g transform="translate(425 155)"><rect width="15" height="12" fill="#f59e0b" rx="2"/><text x="20" y="10" fill="#92400e" font-family="Arial, sans-serif" font-size="9">Kvalitetsindeks</text></g><g transform="translate(425 170)"><rect width="15" height="12" fill="#f59e0b" rx="2"/><text x="20" y="10" fill="#92400e" font-family="Arial, sans-serif" font-size="9">Effektivitetsbonus</text></g><g transform="translate(425 185)"><rect width="15" height="12" fill="#f59e0b" rx="2"/><text x="20" y="10" fill="#92400e" font-family="Arial, sans-serif" font-size="9">Total lønn</text></g><path stroke="#6b7280" stroke-width="3" marker-end="url(#b)" d="M550 150h30"/><rect width="140" height="100" x="590" y="100" fill="#fce7f3" stroke="#ec4899" stroke-width="2" rx="8"/><text x="660" y="125" fill="#be185d" font-family="Arial, sans-serif" font-size="14" font-weight="bold" text-anchor="middle">4. DOKUMENTASJON</text><g transform="translate(605 140)"><rect width="15" height="12" fill="#ec4899" rx="2"/><text x="20" y="10" fill="#be185d" font-family="Arial, sans-serif" font-size="9">Lønnsslipp</text></g><g transform="translate(605 155)"><rect width="15" height="12" fill="#ec4899" rx="2"/><text x="20" y="10" fill="#be185d" font-family="Arial, sans-serif" font-size="9">Produksjonsrapport</text></g><g transform="translate(605 170)"><rect width="15" height="12" fill="#ec4899" rx="2"/><text x="20" y="10" fill="#be185d" font-family="Arial, sans-serif" font-size="9">Arkivering</text></g><g transform="translate(605 185)"><rect width="15" height="12" fill="#ec4899" rx="2"/><text x="20" y="10" fill="#be185d" font-family="Arial, sans-serif" font-size="9">Rapporter</text></g><text x="50" y="240" fill="#1f2937" font-family="Arial, sans-serif" font-size="18" font-weight="bold">Målekategorier og Metoder</text><rect width="340" height="120" x="50" y="260" fill="#f1f5f9" stroke="#64748b" stroke-width="2" rx="8"/><text x="220" y="285" fill="#334155" font-family="Arial, sans-serif" font-size="14" font-weight="bold" text-anchor="middle">KVANTITATIVE MÅL</text><g transform="translate(70 300)"><circle cx="5" cy="5" r="3" fill="#3b82f6"/><text x="15" y="9" fill="#374151" font-family="Arial, sans-serif" font-size="11" font-weight="bold">Produksjonsmengde:</text><text x="130" y="9" fill="#374151" font-family="Arial, sans-serif" font-size="11">Antall enheter, kg, meter, m²</text></g><g transform="translate(70 320)"><circle cx="5" cy="5" r="3" fill="#10b981"/><text x="15" y="9" fill="#374151" font-family="Arial, sans-serif" font-size="11" font-weight="bold">Tid og effektivitet:</text><text x="130" y="9" fill="#374151" font-family="Arial, sans-serif" font-size="11">Enheter per time, hastighet</text></g><g transform="translate(70 340)"><circle cx="5" cy="5" r="3" fill="#f59e0b"/><text x="15" y="9" fill="#374151" font-family="Arial, sans-serif" font-size="11" font-weight="bold">Verdi og omsetning:</text><text x="130" y="9" fill="#374151" font-family="Arial, sans-serif" font-size="11">Salgsverdi, fortjeneste</text></g><g transform="translate(70 360)"><circle cx="5" cy="5" r="3" fill="#ec4899"/><text x="15" y="9" fill="#374151" font-family="Arial, sans-serif" font-size="11" font-weight="bold">Oppgaver fullført:</text><text x="130" y="9" fill="#374151" font-family="Arial, sans-serif" font-size="11">Prosjekter, serviceoppgaver</text></g><rect width="340" height="120" x="410" y="260" fill="#f1f5f9" stroke="#64748b" stroke-width="2" rx="8"/><text x="580" y="285" fill="#334155" font-family="Arial, sans-serif" font-size="14" font-weight="bold" text-anchor="middle">KVALITATIVE MÅL</text><g transform="translate(430 300)"><rect width="12" height="12" fill="#dc2626" rx="2"/><text x="20" y="10" fill="#374151" font-family="Arial, sans-serif" font-size="11" font-weight="bold">Kvalitetsindeks:</text><text x="120" y="10" fill="#374151" font-family="Arial, sans-serif" font-size="11">Feilrate, omarbeid, reklamasjoner</text></g><g transform="translate(430 320)"><rect width="12" height="12" fill="#16a34a" rx="2"/><text x="20" y="10" fill="#374151" font-family="Arial, sans-serif" font-size="11" font-weight="bold">Kundetilfredshet:</text><text x="120" y="10" fill="#374151" font-family="Arial, sans-serif" font-size="11">Vurderinger, klager, ros</text></g><g transform="translate(430 340)"><rect width="12" height="12" fill="#8b5cf6" rx="2"/><text x="20" y="10" fill="#374151" font-family="Arial, sans-serif" font-size="11" font-weight="bold">HMS-indikatorer:</text><text x="120" y="10" fill="#374151" font-family="Arial, sans-serif" font-size="11">Sikkerhet, ulykker, oppfølging</text></g><g transform="translate(430 360)"><rect width="12" height="12" fill="#f59e0b" rx="2"/><text x="20" y="10" fill="#374151" font-family="Arial, sans-serif" font-size="11" font-weight="bold">Innovasjon:</text><text x="120" y="10" fill="#374151" font-family="Arial, sans-serif" font-size="11">Forbedringsforslag, nye ideer</text></g><rect width="700" height="80" x="50" y="400" fill="#fefce8" stroke="#eab308" stroke-width="2" rx="10"/><text x="400" y="425" fill="#a16207" font-family="Arial, sans-serif" font-size="16" font-weight="bold" text-anchor="middle">Viktige Hensyn ved Produksjonsmåling</text><g transform="translate(80 440)"><rect width="15" height="15" fill="#eab308" rx="3"/><text x="25" y="12" fill="#374151" font-family="Arial, sans-serif" font-size="11">Målingene må være rettferdige og gjennomsiktige for alle ansatte</text></g><g transform="translate(80 460)"><rect width="15" height="15" fill="#eab308" rx="3"/><text x="25" y="12" fill="#374151" font-family="Arial, sans-serif" font-size="11">Balansere kvantitet og kvalitet for å unngå negativt fokus</text></g><g transform="translate(450 440)"><rect width="15" height="15" fill="#eab308" rx="3"/><text x="25" y="12" fill="#374151" font-family="Arial, sans-serif" font-size="11">Regelmessig kalibrering og vedlikehold av målesystemer</text></g><g transform="translate(450 460)"><rect width="15" height="15" fill="#eab308" rx="3"/><text x="25" y="12" fill="#374151" font-family="Arial, sans-serif" font-size="11">Dokumentere alle måleprosedyrer og avvikshåndtering</text></g><defs><marker id="b" markerHeight="7" markerWidth="10" orient="auto" refX="10" refY="3.5"><path fill="#6b7280" d="m0 0 10 3.5L0 7z"/></marker></defs></svg>