<svg xmlns="http://www.w3.org/2000/svg" width="800" height="600" viewBox="0 0 800 600"><path fill="#f8f9fa" d="M0 0h800v600H0z"/><text x="400" y="30" fill="#2c3e50" font-family="Arial, sans-serif" font-size="24" font-weight="bold" text-anchor="middle">
    AI-basert Fakturagjenkjenning
  </text><rect width="300" height="400" x="50" y="80" fill="#fff" stroke="#34495e" stroke-width="3" rx="10"/><path fill="#ecf0f1" stroke="#bdc3c7" d="M70 100h260v40H70z"/><text x="200" y="125" fill="#2c3e50" font-family="Arial, sans-serif" font-size="16" font-weight="bold" text-anchor="middle">FAKTURA</text><path fill="#e8f5e8" stroke="#27ae60" stroke-dasharray="5,5" stroke-width="2" d="M70 150h120v60H70z"/><text x="130" y="170" fill="#27ae60" font-family="Arial, sans-serif" font-size="10" text-anchor="middle">Leverandør AS</text><text x="130" y="185" fill="#27ae60" font-family="Arial, sans-serif" font-size="10" text-anchor="middle">Org.nr: 123456789</text><text x="130" y="200" fill="#27ae60" font-family="Arial, sans-serif" font-size="10" text-anchor="middle">Adresse 123</text><path fill="#e8f4fd" stroke="#3498db" stroke-dasharray="5,5" stroke-width="2" d="M210 150h120v60H210z"/><text x="270" y="170" fill="#3498db" font-family="Arial, sans-serif" font-size="10" text-anchor="middle">Faktura: 2024-001</text><text x="270" y="185" fill="#3498db" font-family="Arial, sans-serif" font-size="10" text-anchor="middle">Dato: 15.01.2024</text><text x="270" y="200" fill="#3498db" font-family="Arial, sans-serif" font-size="10" text-anchor="middle">Forfall: 14.02.2024</text><path fill="#fef9e7" stroke="#f39c12" stroke-dasharray="5,5" stroke-width="2" d="M70 230h260v120H70z"/><text x="200" y="250" fill="#f39c12" font-family="Arial, sans-serif" font-size="10" text-anchor="middle">Produktbeskrivelse</text><path stroke="#f39c12" d="M80 260h240"/><text x="90" y="275" fill="#f39c12" font-family="Arial, sans-serif" font-size="9">Konsulenttime</text><text x="250" y="275" fill="#f39c12" font-family="Arial, sans-serif" font-size="9">10 timer</text><text x="300" y="275" fill="#f39c12" font-family="Arial, sans-serif" font-size="9">1000 kr</text><text x="90" y="295" fill="#f39c12" font-family="Arial, sans-serif" font-size="9">Reisekostnad</text><text x="250" y="295" fill="#f39c12" font-family="Arial, sans-serif" font-size="9">1 stk</text><text x="300" y="295" fill="#f39c12" font-family="Arial, sans-serif" font-size="9">500 kr</text><path stroke="#f39c12" d="M80 310h240"/><text x="200" y="330" fill="#f39c12" font-family="Arial, sans-serif" font-size="10" font-weight="bold" text-anchor="middle">Netto: 1500 kr</text><path fill="#fdedec" stroke="#e74c3c" stroke-dasharray="5,5" stroke-width="2" d="M70 370h260v80H70z"/><text x="200" y="390" fill="#e74c3c" font-family="Arial, sans-serif" font-size="10" text-anchor="middle">MVA 25%: 375 kr</text><text x="200" y="410" fill="#e74c3c" font-family="Arial, sans-serif" font-size="12" font-weight="bold" text-anchor="middle">TOTALT: 1875 kr</text><text x="200" y="430" fill="#e74c3c" font-family="Arial, sans-serif" font-size="10" text-anchor="middle">Konto: 1234.56.78901</text><circle cx="500" cy="300" r="80" fill="#9b59b6" stroke="#8e44ad" stroke-width="3"/><text x="500" y="280" fill="#fff" font-family="Arial, sans-serif" font-size="16" font-weight="bold" text-anchor="middle">AI</text><text x="500" y="300" fill="#fff" font-family="Arial, sans-serif" font-size="14" text-anchor="middle">HJERNE</text><text x="500" y="320" fill="#fff" font-family="Arial, sans-serif" font-size="12" text-anchor="middle">Maskinlæring</text><circle cx="450" cy="250" r="8" fill="#e8daef"/><circle cx="550" cy="250" r="8" fill="#e8daef"/><circle cx="450" cy="350" r="8" fill="#e8daef"/><circle cx="550" cy="350" r="8" fill="#e8daef"/><path stroke="#e8daef" stroke-width="2" d="m450 250 50 50M550 250l-50 50M450 350l50-50M550 350l-50-50"/><path fill="none" stroke="#27ae60" stroke-width="3" marker-end="url(#a)" d="M370 180q50 0 80 40"/><path fill="none" stroke="#3498db" stroke-width="3" marker-end="url(#b)" d="M370 180q50 0 150 40"/><path fill="none" stroke="#f39c12" stroke-width="3" marker-end="url(#c)" d="M370 290q50 0 80 30"/><path fill="none" stroke="#e74c3c" stroke-width="3" marker-end="url(#d)" d="M370 410q50 0 150-50"/><rect width="160" height="360" x="620" y="120" fill="#fff" stroke="#34495e" stroke-width="2" rx="10"/><text x="700" y="145" fill="#2c3e50" font-family="Arial, sans-serif" font-size="14" font-weight="bold" text-anchor="middle">STRUKTURERTE DATA</text><text x="630" y="170" fill="#27ae60" font-family="Courier, monospace" font-size="10">{</text><text x="640" y="185" fill="#27ae60" font-family="Courier, monospace" font-size="9">&quot;leverandor&quot;: {</text><text x="650" y="200" fill="#27ae60" font-family="Courier, monospace" font-size="8">&quot;navn&quot;: &quot;Leverandør AS&quot;,</text><text x="650" y="215" fill="#27ae60" font-family="Courier, monospace" font-size="8">&quot;orgnr&quot;: &quot;123456789&quot;</text><text x="640" y="230" fill="#27ae60" font-family="Courier, monospace" font-size="9">},</text><text x="640" y="250" fill="#3498db" font-family="Courier, monospace" font-size="9">&quot;faktura&quot;: {</text><text x="650" y="265" fill="#3498db" font-family="Courier, monospace" font-size="8">&quot;nummer&quot;: &quot;2024-001&quot;,</text><text x="650" y="280" fill="#3498db" font-family="Courier, monospace" font-size="8">&quot;dato&quot;: &quot;2024-01-15&quot;,</text><text x="650" y="295" fill="#3498db" font-family="Courier, monospace" font-size="8">&quot;forfall&quot;: &quot;2024-02-14&quot;</text><text x="640" y="310" fill="#3498db" font-family="Courier, monospace" font-size="9">},</text><text x="640" y="330" fill="#f39c12" font-family="Courier, monospace" font-size="9">&quot;linjer&quot;: [...],</text><text x="640" y="350" fill="#e74c3c" font-family="Courier, monospace" font-size="9">&quot;totaler&quot;: {</text><text x="650" y="365" fill="#e74c3c" font-family="Courier, monospace" font-size="8">&quot;netto&quot;: 1500,</text><text x="650" y="380" fill="#e74c3c" font-family="Courier, monospace" font-size="8">&quot;mva&quot;: 375,</text><text x="650" y="395" fill="#e74c3c" font-family="Courier, monospace" font-size="8">&quot;total&quot;: 1875</text><text x="640" y="410" fill="#e74c3c" font-family="Courier, monospace" font-size="9">},</text><text x="640" y="430" fill="#9b59b6" font-family="Courier, monospace" font-size="9">&quot;kontering&quot;: {</text><text x="650" y="445" fill="#9b59b6" font-family="Courier, monospace" font-size="8">&quot;konto&quot;: &quot;4000&quot;,</text><text x="650" y="460" fill="#9b59b6" font-family="Courier, monospace" font-size="8">&quot;koststed&quot;: &quot;100&quot;</text><text x="640" y="475" fill="#9b59b6" font-family="Courier, monospace" font-size="9">}</text><text x="630" y="490" fill="#2c3e50" font-family="Courier, monospace" font-size="10">}</text><path fill="none" stroke="#9b59b6" stroke-width="4" marker-end="url(#e)" d="M580 300h30"/><text x="400" y="520" fill="#2c3e50" font-family="Arial, sans-serif" font-size="16" font-weight="bold" text-anchor="middle">
    Kontinuerlig Læring
  </text><rect width="400" height="40" x="200" y="540" fill="#ecf0f1" stroke="#bdc3c7" rx="5"/><rect width="320" height="40" x="200" y="540" fill="#2ecc71" rx="5"/><text x="400" y="565" fill="#fff" font-family="Arial, sans-serif" font-size="14" font-weight="bold" text-anchor="middle">
    Nøyaktighet: 97% (forbedres kontinuerlig)
  </text><defs><marker id="a" markerHeight="6" markerWidth="8" orient="auto" refX="7" refY="3"><path fill="#27ae60" d="m0 0 8 3-8 3z"/></marker><marker id="b" markerHeight="6" markerWidth="8" orient="auto" refX="7" refY="3"><path fill="#3498db" d="m0 0 8 3-8 3z"/></marker><marker id="c" markerHeight="6" markerWidth="8" orient="auto" refX="7" refY="3"><path fill="#f39c12" d="m0 0 8 3-8 3z"/></marker><marker id="d" markerHeight="6" markerWidth="8" orient="auto" refX="7" refY="3"><path fill="#e74c3c" d="m0 0 8 3-8 3z"/></marker><marker id="e" markerHeight="7" markerWidth="10" orient="auto" refX="9" refY="3.5"><path fill="#9b59b6" d="m0 0 10 3.5L0 7z"/></marker></defs></svg>