<svg xmlns="http://www.w3.org/2000/svg" width="900" height="600" viewBox="0 0 900 600"><path fill="#f8f9fa" d="M0 0h900v600H0z"/><text x="450" y="30" fill="#2c3e50" font-family="Arial, sans-serif" font-size="24" font-weight="bold" text-anchor="middle">
    Fakturatolk ERP-integrasjon
  </text><rect width="200" height="400" x="50" y="80" fill="#3498db" stroke="#2980b9" stroke-width="3" rx="15"/><text x="150" y="110" fill="#fff" font-family="Arial, sans-serif" font-size="18" font-weight="bold" text-anchor="middle">
    FAKTURATOLK
  </text><text x="150" y="130" fill="#fff" font-family="Arial, sans-serif" font-size="14" text-anchor="middle">
    SYSTEM
  </text><rect width="160" height="40" x="70" y="160" fill="#2980b9" rx="5"/><text x="150" y="185" fill="#fff" font-family="Arial, sans-serif" font-size="12" text-anchor="middle">OCR Motor</text><rect width="160" height="40" x="70" y="220" fill="#2980b9" rx="5"/><text x="150" y="245" fill="#fff" font-family="Arial, sans-serif" font-size="12" text-anchor="middle">AI Gjenkjenning</text><rect width="160" height="40" x="70" y="280" fill="#2980b9" rx="5"/><text x="150" y="305" fill="#fff" font-family="Arial, sans-serif" font-size="12" text-anchor="middle">Datavalidering</text><rect width="160" height="40" x="70" y="340" fill="#2980b9" rx="5"/><text x="150" y="365" fill="#fff" font-family="Arial, sans-serif" font-size="12" text-anchor="middle">API Gateway</text><rect width="160" height="40" x="70" y="400" fill="#2980b9" rx="5"/><text x="150" y="425" fill="#fff" font-family="Arial, sans-serif" font-size="12" text-anchor="middle">Integrasjonsmotor</text><rect width="300" height="200" x="300" y="200" fill="#ecf0f1" stroke="#bdc3c7" stroke-width="2" rx="10"/><text x="450" y="225" fill="#2c3e50" font-family="Arial, sans-serif" font-size="16" font-weight="bold" text-anchor="middle">
    INTEGRASJONSLAG
  </text><rect width="120" height="60" x="320" y="250" fill="#f39c12" stroke="#e67e22" stroke-width="2" rx="5"/><text x="380" y="270" fill="#fff" font-family="Arial, sans-serif" font-size="12" font-weight="bold" text-anchor="middle">DATA</text><text x="380" y="285" fill="#fff" font-family="Arial, sans-serif" font-size="12" font-weight="bold" text-anchor="middle">MAPPING</text><text x="380" y="300" fill="#fff" font-family="Arial, sans-serif" font-size="10" text-anchor="middle">Feltkonvertering</text><rect width="120" height="60" x="460" y="250" fill="#e74c3c" stroke="#c0392b" stroke-width="2" rx="5"/><text x="520" y="270" fill="#fff" font-family="Arial, sans-serif" font-size="12" font-weight="bold" text-anchor="middle">FORRETNINGS</text><text x="520" y="285" fill="#fff" font-family="Arial, sans-serif" font-size="12" font-weight="bold" text-anchor="middle">REGLER</text><text x="520" y="300" fill="#fff" font-family="Arial, sans-serif" font-size="10" text-anchor="middle">Automatisk kontering</text><rect width="120" height="60" x="320" y="330" fill="#27ae60" stroke="#229954" stroke-width="2" rx="5"/><text x="380" y="350" fill="#fff" font-family="Arial, sans-serif" font-size="12" font-weight="bold" text-anchor="middle">ARBEIDS</text><text x="380" y="365" fill="#fff" font-family="Arial, sans-serif" font-size="12" font-weight="bold" text-anchor="middle">FLYT</text><text x="380" y="380" fill="#fff" font-family="Arial, sans-serif" font-size="10" text-anchor="middle">Godkjenning</text><rect width="120" height="60" x="460" y="330" fill="#9b59b6" stroke="#8e44ad" stroke-width="2" rx="5"/><text x="520" y="350" fill="#fff" font-family="Arial, sans-serif" font-size="12" font-weight="bold" text-anchor="middle">FEIL</text><text x="520" y="365" fill="#fff" font-family="Arial, sans-serif" font-size="12" font-weight="bold" text-anchor="middle">HÅNDTERING</text><text x="520" y="380" fill="#fff" font-family="Arial, sans-serif" font-size="10" text-anchor="middle">Unntak &amp; logging</text><rect width="200" height="400" x="650" y="80" fill="#27ae60" stroke="#229954" stroke-width="3" rx="15"/><text x="750" y="110" fill="#fff" font-family="Arial, sans-serif" font-size="18" font-weight="bold" text-anchor="middle">
    ERP SYSTEM
  </text><rect width="160" height="35" x="670" y="140" fill="#229954" rx="5"/><text x="750" y="162" fill="#fff" font-family="Arial, sans-serif" font-size="12" text-anchor="middle">Reskontro</text><rect width="160" height="35" x="670" y="185" fill="#229954" rx="5"/><text x="750" y="207" fill="#fff" font-family="Arial, sans-serif" font-size="12" text-anchor="middle">Hovedbok</text><rect width="160" height="35" x="670" y="230" fill="#229954" rx="5"/><text x="750" y="252" fill="#fff" font-family="Arial, sans-serif" font-size="12" text-anchor="middle">Budsjett</text><rect width="160" height="35" x="670" y="275" fill="#229954" rx="5"/><text x="750" y="297" fill="#fff" font-family="Arial, sans-serif" font-size="12" text-anchor="middle">Rapportering</text><rect width="160" height="35" x="670" y="320" fill="#229954" rx="5"/><text x="750" y="342" fill="#fff" font-family="Arial, sans-serif" font-size="12" text-anchor="middle">Prosjekt</text><rect width="160" height="35" x="670" y="365" fill="#229954" rx="5"/><text x="750" y="387" fill="#fff" font-family="Arial, sans-serif" font-size="12" text-anchor="middle">Kostnadssted</text><rect width="160" height="35" x="670" y="410" fill="#229954" rx="5"/><text x="750" y="432" fill="#fff" font-family="Arial, sans-serif" font-size="12" text-anchor="middle">Arkiv</text><path fill="none" stroke="#34495e" stroke-width="4" marker-end="url(#a)" d="M270 300h20"/><path fill="none" stroke="#34495e" stroke-width="4" marker-end="url(#a)" d="M610 300h20"/><text x="280" y="290" fill="#34495e" font-family="Arial, sans-serif" font-size="10" text-anchor="middle">JSON/XML</text><text x="620" y="290" fill="#34495e" font-family="Arial, sans-serif" font-size="10" text-anchor="middle">API Calls</text><rect width="700" height="60" x="100" y="520" fill="#fff" stroke="#bdc3c7" stroke-width="2" rx="10"/><text x="450" y="545" fill="#2c3e50" font-family="Arial, sans-serif" font-size="16" font-weight="bold" text-anchor="middle">
    Integrasjonsfordeler
  </text><text x="200" y="565" fill="#27ae60" font-family="Arial, sans-serif" font-size="12" text-anchor="middle">
    • Automatisk dataflyt
  </text><text x="350" y="565" fill="#3498db" font-family="Arial, sans-serif" font-size="12" text-anchor="middle">
    • Redusert manuelt arbeid
  </text><text x="520" y="565" fill="#e74c3c" font-family="Arial, sans-serif" font-size="12" text-anchor="middle">
    • Økt nøyaktighet
  </text><text x="700" y="565" fill="#9b59b6" font-family="Arial, sans-serif" font-size="12" text-anchor="middle">
    • Sanntids oppdatering
  </text><text x="450" y="70" fill="#7f8c8d" font-family="Arial, sans-serif" font-size="14" font-weight="bold" text-anchor="middle">
    REST API • SOAP • Database • File Transfer
  </text><defs><marker id="a" markerHeight="7" markerWidth="10" orient="auto" refX="9" refY="3.5"><path fill="#34495e" d="m0 0 10 3.5L0 7z"/></marker></defs></svg>