<svg xmlns="http://www.w3.org/2000/svg" width="800" height="400" viewBox="0 0 800 400"><path fill="#f8f9fa" d="M0 0h800v400H0z"/><text x="400" y="40" fill="#2c3e50" font-family="Arial, sans-serif" font-size="28" font-weight="bold" text-anchor="middle">
    Fakturatolk - Automatisk Fakturabehandling
  </text><rect width="200" height="280" x="50" y="80" fill="#fff" stroke="#ddd" stroke-width="2" rx="5"/><text x="150" y="110" fill="#2c3e50" font-family="Arial, sans-serif" font-size="16" font-weight="bold" text-anchor="middle">FAKTURA</text><path stroke="#ddd" d="M70 130h160M70 150h130M70 170h110M70 190h150M70 210h90M70 230h120M70 250h140"/><path fill="none" stroke="#3498db" stroke-width="4" marker-end="url(#a)" d="M280 220h60"/><rect width="180" height="120" x="360" y="160" fill="#3498db" stroke="#2980b9" stroke-width="2" rx="10"/><text x="450" y="190" fill="#fff" font-family="Arial, sans-serif" font-size="16" font-weight="bold" text-anchor="middle">OCR + AI</text><text x="450" y="210" fill="#fff" font-family="Arial, sans-serif" font-size="14" text-anchor="middle">Tekstgjenkjenning</text><text x="450" y="230" fill="#fff" font-family="Arial, sans-serif" font-size="14" text-anchor="middle">Intelligent tolking</text><text x="450" y="250" fill="#fff" font-family="Arial, sans-serif" font-size="14" text-anchor="middle">Automatisk kontering</text><path fill="none" stroke="#27ae60" stroke-width="4" marker-end="url(#b)" d="M560 220h60"/><rect width="120" height="280" x="640" y="80" fill="#ecf0f1" stroke="#bdc3c7" stroke-width="2" rx="5"/><text x="700" y="110" fill="#2c3e50" font-family="Arial, sans-serif" font-size="14" font-weight="bold" text-anchor="middle">ERP-SYSTEM</text><rect width="80" height="30" x="660" y="130" fill="#27ae60" rx="5"/><text x="700" y="150" fill="#fff" font-family="Arial, sans-serif" font-size="12" text-anchor="middle">Automatisk</text><rect width="80" height="30" x="660" y="170" fill="#27ae60" rx="5"/><text x="700" y="190" fill="#fff" font-family="Arial, sans-serif" font-size="12" text-anchor="middle">Kontering</text><rect width="80" height="30" x="660" y="210" fill="#27ae60" rx="5"/><text x="700" y="230" fill="#fff" font-family="Arial, sans-serif" font-size="12" text-anchor="middle">Godkjenning</text><rect width="80" height="30" x="660" y="250" fill="#27ae60" rx="5"/><text x="700" y="270" fill="#fff" font-family="Arial, sans-serif" font-size="12" text-anchor="middle">Arkivering</text><text x="400" y="340" fill="#2c3e50" font-family="Arial, sans-serif" font-size="16" font-weight="bold" text-anchor="middle">
    80-90% tidsbesparelse • Reduserte feil • Forbedret kontroll
  </text><defs><marker id="a" markerHeight="7" markerWidth="10" orient="auto" refX="9" refY="3.5"><path fill="#3498db" d="m0 0 10 3.5L0 7z"/></marker><marker id="b" markerHeight="7" markerWidth="10" orient="auto" refX="9" refY="3.5"><path fill="#27ae60" d="m0 0 10 3.5L0 7z"/></marker></defs></svg>