<svg xmlns="http://www.w3.org/2000/svg" width="700" height="600" viewBox="0 0 700 600"><path fill="#f8f9fa" d="M0 0h700v600H0z"/><text x="350" y="30" fill="#2c3e50" font-family="Arial, sans-serif" font-size="20" font-weight="bold" text-anchor="middle">
    Praktiske Eksempler på Avstemminger
  </text><rect width="600" height="240" x="50" y="60" fill="#fff" stroke="#2c3e50" stroke-width="2" rx="10"/><text x="350" y="85" fill="#2c3e50" font-family="Arial, sans-serif" font-size="16" font-weight="bold" text-anchor="middle">
    Eksempel 1: Bankavstemminger
  </text><rect width="250" height="180" x="70" y="100" fill="#3498db" stroke="#3498db" stroke-width="2" opacity=".1" rx="5"/><text x="195" y="125" fill="#2c3e50" font-family="Arial, sans-serif" font-size="14" font-weight="bold" text-anchor="middle">
    KASSABOK
  </text><text x="195" y="145" fill="#2c3e50" font-family="Arial, sans-serif" font-size="12" text-anchor="middle">
    Saldo: 150 000 kr
  </text><text x="80" y="170" fill="#2c3e50" font-family="Arial, sans-serif" font-size="11">
    Justeringer:
  </text><text x="80" y="190" fill="#2c3e50" font-family="Arial, sans-serif" font-size="10">
    - Bankgebyr ikke registrert: -500 kr
  </text><text x="80" y="205" fill="#2c3e50" font-family="Arial, sans-serif" font-size="10">
    + Rente kreditert av bank: +500 kr
  </text><rect width="230" height="20" x="80" y="220" fill="#27ae60" opacity=".8" rx="3"/><text x="195" y="233" fill="#fff" font-family="Arial, sans-serif" font-size="11" font-weight="bold" text-anchor="middle">
    Justert kassabok-saldo: 150 000 kr
  </text><rect width="230" height="20" x="80" y="250" fill="#e74c3c" opacity=".8" rx="3"/><text x="195" y="263" fill="#fff" font-family="Arial, sans-serif" font-size="11" font-weight="bold" text-anchor="middle">
    Avvik: 6 000 kr (krever undersøkelse)
  </text><rect width="250" height="180" x="380" y="100" fill="#e67e22" stroke="#e67e22" stroke-width="2" opacity=".1" rx="5"/><text x="505" y="125" fill="#2c3e50" font-family="Arial, sans-serif" font-size="14" font-weight="bold" text-anchor="middle">
    BANKUTSKRIFT
  </text><text x="505" y="145" fill="#2c3e50" font-family="Arial, sans-serif" font-size="12" text-anchor="middle">
    Saldo: 145 000 kr
  </text><text x="390" y="170" fill="#2c3e50" font-family="Arial, sans-serif" font-size="11">
    Justeringer:
  </text><text x="390" y="190" fill="#2c3e50" font-family="Arial, sans-serif" font-size="10">
    + Innskudd i transitt: +2 000 kr
  </text><text x="390" y="205" fill="#2c3e50" font-family="Arial, sans-serif" font-size="10">
    - Utestående sjekker: -3 000 kr
  </text><rect width="230" height="20" x="390" y="220" fill="#27ae60" opacity=".8" rx="3"/><text x="505" y="233" fill="#fff" font-family="Arial, sans-serif" font-size="11" font-weight="bold" text-anchor="middle">
    Justert bank-saldo: 144 000 kr
  </text><path fill="none" stroke="#2c3e50" stroke-width="3" marker-end="url(#a)" d="M330 190h40"/><text x="350" y="185" fill="#2c3e50" font-family="Arial, sans-serif" font-size="10" font-weight="bold" text-anchor="middle">
    AVSTEM
  </text><rect width="600" height="240" x="50" y="320" fill="#fff" stroke="#2c3e50" stroke-width="2" rx="10"/><text x="350" y="345" fill="#2c3e50" font-family="Arial, sans-serif" font-size="16" font-weight="bold" text-anchor="middle">
    Eksempel 2: Kundefordringer Avstemming
  </text><rect width="560" height="140" x="70" y="365" fill="#9b59b6" stroke="#9b59b6" stroke-width="2" opacity=".1" rx="5"/><text x="350" y="385" fill="#2c3e50" font-family="Arial, sans-serif" font-size="14" font-weight="bold" text-anchor="middle">
    Aldersanalyse per 31. desember
  </text><rect width="120" height="25" x="90" y="400" fill="#9b59b6" opacity=".8" rx="3"/><text x="150" y="417" fill="#fff" font-family="Arial, sans-serif" font-size="11" font-weight="bold" text-anchor="middle">
    Aldersgruppe
  </text><rect width="100" height="25" x="220" y="400" fill="#9b59b6" opacity=".8" rx="3"/><text x="270" y="417" fill="#fff" font-family="Arial, sans-serif" font-size="11" font-weight="bold" text-anchor="middle">
    Beløp
  </text><rect width="100" height="25" x="330" y="400" fill="#9b59b6" opacity=".8" rx="3"/><text x="380" y="417" fill="#fff" font-family="Arial, sans-serif" font-size="11" font-weight="bold" text-anchor="middle">
    Tapsavsetning %
  </text><rect width="100" height="25" x="440" y="400" fill="#9b59b6" opacity=".8" rx="3"/><text x="490" y="417" fill="#fff" font-family="Arial, sans-serif" font-size="11" font-weight="bold" text-anchor="middle">
    Avsetning
  </text><rect width="70" height="25" x="550" y="400" fill="#9b59b6" opacity=".8" rx="3"/><text x="585" y="417" fill="#fff" font-family="Arial, sans-serif" font-size="11" font-weight="bold" text-anchor="middle">
    Status
  </text><rect width="120" height="20" x="90" y="430" fill="#27ae60" opacity=".2" rx="2"/><text x="150" y="443" fill="#2c3e50" font-family="Arial, sans-serif" font-size="10" text-anchor="middle">
    0-30 dager
  </text><rect width="100" height="20" x="220" y="430" fill="#27ae60" opacity=".2" rx="2"/><text x="270" y="443" fill="#2c3e50" font-family="Arial, sans-serif" font-size="10" text-anchor="middle">
    500 000 kr
  </text><rect width="100" height="20" x="330" y="430" fill="#27ae60" opacity=".2" rx="2"/><text x="380" y="443" fill="#2c3e50" font-family="Arial, sans-serif" font-size="10" text-anchor="middle">
    0%
  </text><rect width="100" height="20" x="440" y="430" fill="#27ae60" opacity=".2" rx="2"/><text x="490" y="443" fill="#2c3e50" font-family="Arial, sans-serif" font-size="10" text-anchor="middle">
    0 kr
  </text><circle cx="585" cy="440" r="6" fill="#27ae60"/><rect width="120" height="20" x="90" y="455" fill="#f39c12" opacity=".2" rx="2"/><text x="150" y="468" fill="#2c3e50" font-family="Arial, sans-serif" font-size="10" text-anchor="middle">
    31-60 dager
  </text><rect width="100" height="20" x="220" y="455" fill="#f39c12" opacity=".2" rx="2"/><text x="270" y="468" fill="#2c3e50" font-family="Arial, sans-serif" font-size="10" text-anchor="middle">
    200 000 kr
  </text><rect width="100" height="20" x="330" y="455" fill="#f39c12" opacity=".2" rx="2"/><text x="380" y="468" fill="#2c3e50" font-family="Arial, sans-serif" font-size="10" text-anchor="middle">
    2%
  </text><rect width="100" height="20" x="440" y="455" fill="#f39c12" opacity=".2" rx="2"/><text x="490" y="468" fill="#2c3e50" font-family="Arial, sans-serif" font-size="10" text-anchor="middle">
    4 000 kr
  </text><circle cx="585" cy="465" r="6" fill="#f39c12"/><rect width="120" height="20" x="90" y="480" fill="#e74c3c" opacity=".2" rx="2"/><text x="150" y="493" fill="#2c3e50" font-family="Arial, sans-serif" font-size="10" text-anchor="middle">
    Over 90 dager
  </text><rect width="100" height="20" x="220" y="480" fill="#e74c3c" opacity=".2" rx="2"/><text x="270" y="493" fill="#2c3e50" font-family="Arial, sans-serif" font-size="10" text-anchor="middle">
    50 000 kr
  </text><rect width="100" height="20" x="330" y="480" fill="#e74c3c" opacity=".2" rx="2"/><text x="380" y="493" fill="#2c3e50" font-family="Arial, sans-serif" font-size="10" text-anchor="middle">
    20%
  </text><rect width="100" height="20" x="440" y="480" fill="#e74c3c" opacity=".2" rx="2"/><text x="490" y="493" fill="#2c3e50" font-family="Arial, sans-serif" font-size="10" text-anchor="middle">
    10 000 kr
  </text><circle cx="585" cy="490" r="6" fill="#e74c3c"/><rect width="530" height="25" x="90" y="510" fill="#2c3e50" opacity=".8" rx="3"/><text x="150" y="527" fill="#fff" font-family="Arial, sans-serif" font-size="11" font-weight="bold" text-anchor="middle">
    TOTALT
  </text><text x="270" y="527" fill="#fff" font-family="Arial, sans-serif" font-size="11" font-weight="bold" text-anchor="middle">
    750 000 kr
  </text><text x="490" y="527" fill="#fff" font-family="Arial, sans-serif" font-size="11" font-weight="bold" text-anchor="middle">
    14 000 kr
  </text><text x="70" y="580" fill="#2c3e50" font-family="Arial, sans-serif" font-size="12" font-weight="bold">
    Nøkkelinnsikter:
  </text><text x="200" y="580" fill="#2c3e50" font-family="Arial, sans-serif" font-size="11">
    • 67% av fordringer er under 30 dager (lav risiko)
  </text><text x="450" y="580" fill="#2c3e50" font-family="Arial, sans-serif" font-size="11">
    • 7% over 90 dager krever oppfølging
  </text><defs><marker id="a" markerHeight="6" markerWidth="8" orient="auto" refX="7" refY="3"><path fill="#2c3e50" d="m0 0 8 3-8 3z"/></marker></defs></svg>