<svg xmlns="http://www.w3.org/2000/svg" width="900" height="500" viewBox="0 0 900 500"><path fill="#f8f9fa" d="M0 0h900v500H0z"/><text x="450" y="40" fill="#2c5aa0" font-family="Arial, sans-serif" font-size="24" font-weight="bold" text-anchor="middle">CSRD Implementeringstidslinje</text><path stroke="#2c5aa0" stroke-width="4" d="M100 100h700"/><circle cx="200" cy="100" r="8" fill="#dc3545"/><path stroke="#dc3545" stroke-width="2" d="M200 100v40"/><rect width="160" height="80" x="120" y="150" fill="#dc3545" opacity=".1" rx="5"/><text x="200" y="170" fill="#dc3545" font-family="Arial, sans-serif" font-size="16" font-weight="bold" text-anchor="middle">2025</text><text x="200" y="190" fill="#333" font-family="Arial, sans-serif" font-size="12" text-anchor="middle">Store børsnoterte</text><text x="200" y="205" fill="#333" font-family="Arial, sans-serif" font-size="12" text-anchor="middle">selskaper</text><text x="200" y="220" fill="#333" font-family="Arial, sans-serif" font-size="11" text-anchor="middle">(for 2024-data)</text><circle cx="350" cy="100" r="8" fill="#fd7e14"/><path stroke="#fd7e14" stroke-width="2" d="M350 100v40"/><rect width="160" height="80" x="270" y="150" fill="#fd7e14" opacity=".1" rx="5"/><text x="350" y="170" fill="#fd7e14" font-family="Arial, sans-serif" font-size="16" font-weight="bold" text-anchor="middle">2026</text><text x="350" y="190" fill="#333" font-family="Arial, sans-serif" font-size="12" text-anchor="middle">Store ikke-børsnoterte</text><text x="350" y="205" fill="#333" font-family="Arial, sans-serif" font-size="12" text-anchor="middle">selskaper</text><text x="350" y="220" fill="#333" font-family="Arial, sans-serif" font-size="11" text-anchor="middle">(for 2025-data)</text><circle cx="500" cy="100" r="8" fill="#ffc107"/><path stroke="#ffc107" stroke-width="2" d="M500 100v40"/><rect width="160" height="80" x="420" y="150" fill="#ffc107" opacity=".1" rx="5"/><text x="500" y="170" fill="#ffc107" font-family="Arial, sans-serif" font-size="16" font-weight="bold" text-anchor="middle">2027</text><text x="500" y="190" fill="#333" font-family="Arial, sans-serif" font-size="12" text-anchor="middle">Små/mellomstore</text><text x="500" y="205" fill="#333" font-family="Arial, sans-serif" font-size="12" text-anchor="middle">børsnoterte</text><text x="500" y="220" fill="#333" font-family="Arial, sans-serif" font-size="11" text-anchor="middle">(for 2026-data)</text><circle cx="650" cy="100" r="8" fill="#28a745"/><path stroke="#28a745" stroke-width="2" d="M650 100v40"/><rect width="160" height="80" x="570" y="150" fill="#28a745" opacity=".1" rx="5"/><text x="650" y="170" fill="#28a745" font-family="Arial, sans-serif" font-size="16" font-weight="bold" text-anchor="middle">2029</text><text x="650" y="190" fill="#333" font-family="Arial, sans-serif" font-size="12" text-anchor="middle">Tredjelandsbedrifter</text><text x="650" y="205" fill="#333" font-family="Arial, sans-serif" font-size="12" text-anchor="middle">EU-omsetning &gt;€150m</text><text x="650" y="220" fill="#333" font-family="Arial, sans-serif" font-size="11" text-anchor="middle">(for 2028-data)</text><rect width="700" height="180" x="100" y="280" fill="#fff" stroke="#dee2e6" rx="10"/><text x="450" y="310" fill="#2c5aa0" font-family="Arial, sans-serif" font-size="18" font-weight="bold" text-anchor="middle">Norske Kriterier for CSRD</text><text x="130" y="340" fill="#333" font-family="Arial, sans-serif" font-size="14" font-weight="bold">Bedriften må oppfylle minst 2 av 3 kriterier i 2 påfølgende år:</text><circle cx="150" cy="365" r="4" fill="#2c5aa0"/><text x="170" y="370" fill="#333" font-family="Arial, sans-serif" font-size="13">Ansatte: 250 eller flere</text><circle cx="150" cy="385" r="4" fill="#2c5aa0"/><text x="170" y="390" fill="#333" font-family="Arial, sans-serif" font-size="13">Omsetning: Over 400 millioner NOK (ca. €40m)</text><circle cx="150" cy="405" r="4" fill="#2c5aa0"/><text x="170" y="410" fill="#333" font-family="Arial, sans-serif" font-size="13">Balansesum: Over 200 millioner NOK (ca. €20m)</text><text x="450" y="440" fill="#6c757d" font-family="Arial, sans-serif" font-size="12" font-style="italic" text-anchor="middle">Rapportering gjelder for foregående års data</text></svg>