<svg xmlns="http://www.w3.org/2000/svg" width="900" height="600" viewBox="0 0 900 600"><path fill="#f8f9fa" d="M0 0h900v600H0z"/><text x="450" y="40" fill="#2c5aa0" font-family="Arial, sans-serif" font-size="24" font-weight="bold" text-anchor="middle">ESG-områder i CSRD Rapportering</text><rect width="250" height="450" x="50" y="80" fill="#28a745" opacity=".1" rx="15"/><rect width="230" height="50" x="60" y="90" fill="#28a745" rx="10"/><text x="175" y="115" fill="#fff" font-family="Arial, sans-serif" font-size="20" font-weight="bold" text-anchor="middle">E - Environmental</text><text x="175" y="130" fill="#fff" font-family="Arial, sans-serif" font-size="14" text-anchor="middle">Miljø</text><rect width="210" height="30" x="70" y="160" fill="#28a745" opacity=".2" rx="5"/><text x="80" y="180" fill="#1e7e34" font-family="Arial, sans-serif" font-size="13" font-weight="bold">Klimaendringer</text><text x="80" y="195" fill="#333" font-family="Arial, sans-serif" font-size="11">Utslipp, klimarisiko, tiltak</text><rect width="210" height="30" x="70" y="210" fill="#28a745" opacity=".2" rx="5"/><text x="80" y="230" fill="#1e7e34" font-family="Arial, sans-serif" font-size="13" font-weight="bold">Forurensning</text><text x="80" y="245" fill="#333" font-family="Arial, sans-serif" font-size="11">Luft, vann, jord</text><rect width="210" height="30" x="70" y="260" fill="#28a745" opacity=".2" rx="5"/><text x="80" y="280" fill="#1e7e34" font-family="Arial, sans-serif" font-size="13" font-weight="bold">Vann og marine ressurser</text><text x="80" y="295" fill="#333" font-family="Arial, sans-serif" font-size="11">Forbruk, vannkvalitet</text><rect width="210" height="30" x="70" y="310" fill="#28a745" opacity=".2" rx="5"/><text x="80" y="330" fill="#1e7e34" font-family="Arial, sans-serif" font-size="13" font-weight="bold">Biodiversitet</text><text x="80" y="345" fill="#333" font-family="Arial, sans-serif" font-size="11">Påvirkning på økosystemer</text><rect width="210" height="30" x="70" y="360" fill="#28a745" opacity=".2" rx="5"/><text x="80" y="380" fill="#1e7e34" font-family="Arial, sans-serif" font-size="13" font-weight="bold">Sirkulær økonomi</text><text x="80" y="395" fill="#333" font-family="Arial, sans-serif" font-size="11">Avfall, ressursbruk</text><rect width="250" height="450" x="325" y="80" fill="#007bff" opacity=".1" rx="15"/><rect width="230" height="50" x="335" y="90" fill="#007bff" rx="10"/><text x="450" y="115" fill="#fff" font-family="Arial, sans-serif" font-size="20" font-weight="bold" text-anchor="middle">S - Social</text><text x="450" y="130" fill="#fff" font-family="Arial, sans-serif" font-size="14" text-anchor="middle">Sosiale forhold</text><rect width="210" height="30" x="345" y="160" fill="#007bff" opacity=".2" rx="5"/><text x="355" y="180" fill="#0056b3" font-family="Arial, sans-serif" font-size="13" font-weight="bold">Egen arbeidsstyrke</text><text x="355" y="195" fill="#333" font-family="Arial, sans-serif" font-size="11">Arbeidsforhold, mangfold</text><rect width="210" height="30" x="345" y="210" fill="#007bff" opacity=".2" rx="5"/><text x="355" y="230" fill="#0056b3" font-family="Arial, sans-serif" font-size="13" font-weight="bold">Verdikjede</text><text x="355" y="245" fill="#333" font-family="Arial, sans-serif" font-size="11">Leverandørers forhold</text><rect width="210" height="30" x="345" y="260" fill="#007bff" opacity=".2" rx="5"/><text x="355" y="280" fill="#0056b3" font-family="Arial, sans-serif" font-size="13" font-weight="bold">Berørte samfunn</text><text x="355" y="295" fill="#333" font-family="Arial, sans-serif" font-size="11">Lokalsamfunn, urfolk</text><rect width="210" height="30" x="345" y="310" fill="#007bff" opacity=".2" rx="5"/><text x="355" y="330" fill="#0056b3" font-family="Arial, sans-serif" font-size="13" font-weight="bold">Forbrukere</text><text x="355" y="345" fill="#333" font-family="Arial, sans-serif" font-size="11">Produktsikkerhet</text><rect width="250" height="450" x="600" y="80" fill="#ffc107" opacity=".1" rx="15"/><rect width="230" height="50" x="610" y="90" fill="#ffc107" rx="10"/><text x="725" y="115" fill="#fff" font-family="Arial, sans-serif" font-size="20" font-weight="bold" text-anchor="middle">G - Governance</text><text x="725" y="130" fill="#fff" font-family="Arial, sans-serif" font-size="14" text-anchor="middle">Selskapsstyring</text><rect width="210" height="30" x="620" y="160" fill="#ffc107" opacity=".2" rx="5"/><text x="630" y="180" fill="#856404" font-family="Arial, sans-serif" font-size="13" font-weight="bold">Forretningsetikk</text><text x="630" y="195" fill="#333" font-family="Arial, sans-serif" font-size="11">Korrupsjon, bestikkelser</text><rect width="210" height="30" x="620" y="210" fill="#ffc107" opacity=".2" rx="5"/><text x="630" y="230" fill="#856404" font-family="Arial, sans-serif" font-size="13" font-weight="bold">Politisk påvirkning</text><text x="630" y="245" fill="#333" font-family="Arial, sans-serif" font-size="11">Lobbying, bidrag</text><rect width="210" height="30" x="620" y="260" fill="#ffc107" opacity=".2" rx="5"/><text x="630" y="280" fill="#856404" font-family="Arial, sans-serif" font-size="13" font-weight="bold">Interessentrelasjoner</text><text x="630" y="295" fill="#333" font-family="Arial, sans-serif" font-size="11">Dialog, klageordninger</text><rect width="600" height="80" x="150" y="450" fill="#fff" stroke="#dee2e6" stroke-width="2" rx="10"/><text x="450" y="475" fill="#2c5aa0" font-family="Arial, sans-serif" font-size="16" font-weight="bold" text-anchor="middle">Dobbel Vesentlighet (Double Materiality)</text><rect width="270" height="35" x="170" y="485" fill="#e3f2fd" rx="5"/><text x="305" y="500" fill="#1976d2" font-family="Arial, sans-serif" font-size="12" font-weight="bold" text-anchor="middle">Finansiell vesentlighet</text><text x="305" y="515" fill="#333" font-family="Arial, sans-serif" font-size="10" text-anchor="middle">Påvirkning på bedriftens økonomi</text><rect width="270" height="35" x="460" y="485" fill="#fff3e0" rx="5"/><text x="595" y="500" fill="#f57c00" font-family="Arial, sans-serif" font-size="12" font-weight="bold" text-anchor="middle">Påvirkningsvesentlighet</text><text x="595" y="515" fill="#333" font-family="Arial, sans-serif" font-size="10" text-anchor="middle">Bedriftens påvirkning på samfunn/miljø</text><path fill="none" stroke="#6c757d" stroke-width="2" marker-end="url(#a)" d="M300 300q150 50 300 0"/><defs><marker id="a" markerHeight="7" markerWidth="10" orient="auto" refX="9" refY="3.5"><path fill="#6c757d" d="m0 0 10 3.5L0 7z"/></marker></defs></svg>