<svg width="900" height="600" viewBox="0 0 900 600" xmlns="http://www.w3.org/2000/svg">

  <rect width="900" height="600" fill="#f8f9fa"/>
  

  <text x="450" y="40" text-anchor="middle" fill="#2c5aa0" font-family="Arial, sans-serif" font-size="24" font-weight="bold">ESG-områder i CSRD Rapportering</text>
  

  <rect x="50" y="80" width="250" height="450" fill="#28a745" opacity="0.1" rx="15"/>
  <rect x="60" y="90" width="230" height="50" fill="#28a745" rx="10"/>
  <text x="175" y="115" text-anchor="middle" fill="white" font-family="Arial, sans-serif" font-size="20" font-weight="bold">E - Environmental</text>
  <text x="175" y="130" text-anchor="middle" fill="white" font-family="Arial, sans-serif" font-size="14">Miljø</text>
  

  <rect x="70" y="160" width="210" height="30" fill="#28a745" opacity="0.2" rx="5"/>
  <text x="80" y="180" fill="#1e7e34" font-family="Arial, sans-serif" font-size="13" font-weight="bold">Klimaendringer</text>
  <text x="80" y="195" fill="#333" font-family="Arial, sans-serif" font-size="11">Utslipp, klimarisiko, tiltak</text>
  
  <rect x="70" y="210" width="210" height="30" fill="#28a745" opacity="0.2" rx="5"/>
  <text x="80" y="230" fill="#1e7e34" font-family="Arial, sans-serif" font-size="13" font-weight="bold">Forurensning</text>
  <text x="80" y="245" fill="#333" font-family="Arial, sans-serif" font-size="11">Luft, vann, jord</text>
  
  <rect x="70" y="260" width="210" height="30" fill="#28a745" opacity="0.2" rx="5"/>
  <text x="80" y="280" fill="#1e7e34" font-family="Arial, sans-serif" font-size="13" font-weight="bold">Vann og marine ressurser</text>
  <text x="80" y="295" fill="#333" font-family="Arial, sans-serif" font-size="11">Forbruk, vannkvalitet</text>
  
  <rect x="70" y="310" width="210" height="30" fill="#28a745" opacity="0.2" rx="5"/>
  <text x="80" y="330" fill="#1e7e34" font-family="Arial, sans-serif" font-size="13" font-weight="bold">Biodiversitet</text>
  <text x="80" y="345" fill="#333" font-family="Arial, sans-serif" font-size="11">Påvirkning på økosystemer</text>
  
  <rect x="70" y="360" width="210" height="30" fill="#28a745" opacity="0.2" rx="5"/>
  <text x="80" y="380" fill="#1e7e34" font-family="Arial, sans-serif" font-size="13" font-weight="bold">Sirkulær økonomi</text>
  <text x="80" y="395" fill="#333" font-family="Arial, sans-serif" font-size="11">Avfall, ressursbruk</text>
  

  <rect x="325" y="80" width="250" height="450" fill="#007bff" opacity="0.1" rx="15"/>
  <rect x="335" y="90" width="230" height="50" fill="#007bff" rx="10"/>
  <text x="450" y="115" text-anchor="middle" fill="white" font-family="Arial, sans-serif" font-size="20" font-weight="bold">S - Social</text>
  <text x="450" y="130" text-anchor="middle" fill="white" font-family="Arial, sans-serif" font-size="14">Sosiale forhold</text>
  

  <rect x="345" y="160" width="210" height="30" fill="#007bff" opacity="0.2" rx="5"/>
  <text x="355" y="180" fill="#0056b3" font-family="Arial, sans-serif" font-size="13" font-weight="bold">Egen arbeidsstyrke</text>
  <text x="355" y="195" fill="#333" font-family="Arial, sans-serif" font-size="11">Arbeidsforhold, mangfold</text>
  
  <rect x="345" y="210" width="210" height="30" fill="#007bff" opacity="0.2" rx="5"/>
  <text x="355" y="230" fill="#0056b3" font-family="Arial, sans-serif" font-size="13" font-weight="bold">Verdikjede</text>
  <text x="355" y="245" fill="#333" font-family="Arial, sans-serif" font-size="11">Leverandørers forhold</text>
  
  <rect x="345" y="260" width="210" height="30" fill="#007bff" opacity="0.2" rx="5"/>
  <text x="355" y="280" fill="#0056b3" font-family="Arial, sans-serif" font-size="13" font-weight="bold">Berørte samfunn</text>
  <text x="355" y="295" fill="#333" font-family="Arial, sans-serif" font-size="11">Lokalsamfunn, urfolk</text>
  
  <rect x="345" y="310" width="210" height="30" fill="#007bff" opacity="0.2" rx="5"/>
  <text x="355" y="330" fill="#0056b3" font-family="Arial, sans-serif" font-size="13" font-weight="bold">Forbrukere</text>
  <text x="355" y="345" fill="#333" font-family="Arial, sans-serif" font-size="11">Produktsikkerhet</text>
  

  <rect x="600" y="80" width="250" height="450" fill="#ffc107" opacity="0.1" rx="15"/>
  <rect x="610" y="90" width="230" height="50" fill="#ffc107" rx="10"/>
  <text x="725" y="115" text-anchor="middle" fill="white" font-family="Arial, sans-serif" font-size="20" font-weight="bold">G - Governance</text>
  <text x="725" y="130" text-anchor="middle" fill="white" font-family="Arial, sans-serif" font-size="14">Selskapsstyring</text>
  

  <rect x="620" y="160" width="210" height="30" fill="#ffc107" opacity="0.2" rx="5"/>
  <text x="630" y="180" fill="#856404" font-family="Arial, sans-serif" font-size="13" font-weight="bold">Forretningsetikk</text>
  <text x="630" y="195" fill="#333" font-family="Arial, sans-serif" font-size="11">Korrupsjon, bestikkelser</text>
  
  <rect x="620" y="210" width="210" height="30" fill="#ffc107" opacity="0.2" rx="5"/>
  <text x="630" y="230" fill="#856404" font-family="Arial, sans-serif" font-size="13" font-weight="bold">Politisk påvirkning</text>
  <text x="630" y="245" fill="#333" font-family="Arial, sans-serif" font-size="11">Lobbying, bidrag</text>
  
  <rect x="620" y="260" width="210" height="30" fill="#ffc107" opacity="0.2" rx="5"/>
  <text x="630" y="280" fill="#856404" font-family="Arial, sans-serif" font-size="13" font-weight="bold">Interessentrelasjoner</text>
  <text x="630" y="295" fill="#333" font-family="Arial, sans-serif" font-size="11">Dialog, klageordninger</text>
  

  <rect x="150" y="450" width="600" height="80" fill="white" stroke="#dee2e6" stroke-width="2" rx="10"/>
  <text x="450" y="475" text-anchor="middle" fill="#2c5aa0" font-family="Arial, sans-serif" font-size="16" font-weight="bold">Dobbel Vesentlighet (Double Materiality)</text>
  
  <rect x="170" y="485" width="270" height="35" fill="#e3f2fd" rx="5"/>
  <text x="305" y="500" text-anchor="middle" fill="#1976d2" font-family="Arial, sans-serif" font-size="12" font-weight="bold">Finansiell vesentlighet</text>
  <text x="305" y="515" text-anchor="middle" fill="#333" font-family="Arial, sans-serif" font-size="10">Påvirkning på bedriftens økonomi</text>
  
  <rect x="460" y="485" width="270" height="35" fill="#fff3e0" rx="5"/>
  <text x="595" y="500" text-anchor="middle" fill="#f57c00" font-family="Arial, sans-serif" font-size="12" font-weight="bold">Påvirkningsvesentlighet</text>
  <text x="595" y="515" text-anchor="middle" fill="#333" font-family="Arial, sans-serif" font-size="10">Bedriftens påvirkning på samfunn/miljø</text>
  

  <path d="M 300 300 Q 450 350 600 300" stroke="#6c757d" stroke-width="2" fill="none" marker-end="url(#arrowhead)"/>
  

  <defs>
    <marker id="arrowhead" markerWidth="10" markerHeight="7" refX="9" refY="3.5" orient="auto">
      <polygon points="0 0, 10 3.5, 0 7" fill="#6c757d"/>
    </marker>
  </defs>
</svg>