<svg xmlns="http://www.w3.org/2000/svg" width="700" height="500" viewBox="0 0 700 500"><path fill="#f8f9fa" d="M0 0h700v500H0z"/><text x="350" y="30" fill="#2c3e50" font-family="Arial, sans-serif" font-size="20" font-weight="bold" text-anchor="middle">
    Fremtidens Helligdagshåndtering
  </text><rect width="600" height="380" x="50" y="60" fill="#fff" stroke="#3498db" stroke-width="2" rx="10"/><rect width="250" height="120" x="80" y="90" fill="#9b59b6" rx="5"/><text x="205" y="115" fill="#fff" font-family="Arial, sans-serif" font-size="14" font-weight="bold" text-anchor="middle">
    AI og Maskinlæring
  </text><circle cx="130" cy="150" r="20" fill="#fff"/><circle cx="125" cy="145" r="3" fill="#9b59b6"/><circle cx="135" cy="145" r="3" fill="#9b59b6"/><path fill="none" stroke="#9b59b6" stroke-width="2" d="M120 155q10 10 20 0"/><text x="170" y="140" fill="#fff" font-family="Arial, sans-serif" font-size="10">
    • Prediktiv analyse av kostnader
  </text><text x="170" y="155" fill="#fff" font-family="Arial, sans-serif" font-size="10">
    • Automatisk regelverksoppdatering
  </text><text x="170" y="170" fill="#fff" font-family="Arial, sans-serif" font-size="10">
    • Intelligent feildeteksjon
  </text><text x="170" y="185" fill="#fff" font-family="Arial, sans-serif" font-size="10">
    • Optimalisert ressursplanlegging
  </text><rect width="250" height="120" x="370" y="90" fill="#e67e22" rx="5"/><text x="495" y="115" fill="#fff" font-family="Arial, sans-serif" font-size="14" font-weight="bold" text-anchor="middle">
    Blockchain og Sikkerhet
  </text><rect width="15" height="15" x="410" y="135" fill="#fff" rx="2"/><rect width="15" height="15" x="430" y="135" fill="#fff" rx="2"/><rect width="15" height="15" x="450" y="135" fill="#fff" rx="2"/><path stroke="#fff" stroke-width="2" d="M425 142h5M445 142h5"/><text x="480" y="140" fill="#fff" font-family="Arial, sans-serif" font-size="10">
    • Uforanderlig lønnshistorikk
  </text><text x="480" y="155" fill="#fff" font-family="Arial, sans-serif" font-size="10">
    • Transparent rapportering
  </text><text x="480" y="170" fill="#fff" font-family="Arial, sans-serif" font-size="10">
    • Redusert svindel
  </text><text x="480" y="185" fill="#fff" font-family="Arial, sans-serif" font-size="10">
    • Automatiserte smart contracts
  </text><rect width="250" height="120" x="80" y="230" fill="#1abc9c" rx="5"/><text x="205" y="255" fill="#fff" font-family="Arial, sans-serif" font-size="14" font-weight="bold" text-anchor="middle">
    Fleksible Arbeidsordninger
  </text><rect width="30" height="20" x="110" y="275" fill="#fff" rx="2"/><rect width="20" height="10" x="115" y="280" fill="#1abc9c" rx="1"/><circle cx="125" cy="285" r="2" fill="#fff"/><text x="160" y="280" fill="#fff" font-family="Arial, sans-serif" font-size="10">
    • Hjemmekontor og hybridarbeid
  </text><text x="160" y="295" fill="#fff" font-family="Arial, sans-serif" font-size="10">
    • Fleksible arbeidstider
  </text><text x="160" y="310" fill="#fff" font-family="Arial, sans-serif" font-size="10">
    • Globale team og tidssoner
  </text><text x="160" y="325" fill="#fff" font-family="Arial, sans-serif" font-size="10">
    • Nye definisjoner av &quot;arbeidsdag&quot;
  </text><rect width="250" height="120" x="370" y="230" fill="#e74c3c" rx="5"/><text x="495" y="255" fill="#fff" font-family="Arial, sans-serif" font-size="14" font-weight="bold" text-anchor="middle">
    Sanntids Integrasjon
  </text><ellipse cx="420" cy="285" fill="#fff" rx="15" ry="8"/><ellipse cx="435" cy="280" fill="#fff" rx="12" ry="6"/><ellipse cx="445" cy="290" fill="#fff" rx="10" ry="5"/><text x="470" y="280" fill="#fff" font-family="Arial, sans-serif" font-size="10">
    • Øyeblikkelig rapportering
  </text><text x="470" y="295" fill="#fff" font-family="Arial, sans-serif" font-size="10">
    • API-baserte integrasjoner
  </text><text x="470" y="310" fill="#fff" font-family="Arial, sans-serif" font-size="10">
    • Automatisk compliance-sjekk
  </text><text x="470" y="325" fill="#fff" font-family="Arial, sans-serif" font-size="10">
    • Kontinuerlig datavalidering
  </text><rect width="540" height="50" x="80" y="370" fill="#34495e" rx="5"/><text x="350" y="390" fill="#fff" font-family="Arial, sans-serif" font-size="12" font-weight="bold" text-anchor="middle">
    Implementeringstidslinje
  </text><circle cx="130" cy="405" r="5" fill="#f39c12"/><text x="130" y="425" fill="#fff" font-family="Arial, sans-serif" font-size="8" text-anchor="middle">2024-2025</text><circle cx="250" cy="405" r="5" fill="#e67e22"/><text x="250" y="425" fill="#fff" font-family="Arial, sans-serif" font-size="8" text-anchor="middle">2026-2027</text><circle cx="370" cy="405" r="5" fill="#e74c3c"/><text x="370" y="425" fill="#fff" font-family="Arial, sans-serif" font-size="8" text-anchor="middle">2028-2030</text><circle cx="490" cy="405" r="5" fill="#9b59b6"/><text x="490" y="425" fill="#fff" font-family="Arial, sans-serif" font-size="8" text-anchor="middle">2030+</text><path stroke="#bdc3c7" stroke-width="2" d="M130 405h360"/><rect width="600" height="30" x="50" y="460" fill="#27ae60" rx="5"/><text x="350" y="480" fill="#fff" font-family="Arial, sans-serif" font-size="12" font-weight="bold" text-anchor="middle">
    Fremtiden: Intelligent, automatisert og sømløs helligdagshåndtering
  </text></svg>