<svg xmlns="http://www.w3.org/2000/svg" width="800" height="400" viewBox="0 0 800 400"><path fill="#f8f9fa" d="M0 0h800v400H0z"/><path fill="#2c3e50" d="M0 0h800v80H0z"/><text x="400" y="45" fill="#fff" font-family="Arial, sans-serif" font-size="28" font-weight="bold" text-anchor="middle">
    Helligdager (regnskap, bedriftseiere)
  </text><rect width="120" height="100" x="100" y="120" fill="#3498db" rx="10"/><rect width="100" height="80" x="110" y="130" fill="#fff" rx="5"/><path fill="#e74c3c" d="M120 140h80v8h-80zM120 155h80v8h-80zM120 170h80v8h-80zM120 185h80v8h-80z"/><circle cx="320" cy="170" r="30" fill="#f39c12"/><text x="320" y="178" fill="#fff" font-family="Arial, sans-serif" font-size="24" font-weight="bold" text-anchor="middle">kr</text><circle cx="280" cy="190" r="20" fill="#e67e22"/><text x="280" y="196" fill="#fff" font-family="Arial, sans-serif" font-size="16" font-weight="bold" text-anchor="middle">kr</text><path fill="#fff" stroke="#34495e" stroke-width="2" d="M450 120h100v120H450z"/><path fill="#bdc3c7" d="M460 135h80v4h-80zM460 150h60v4h-60zM460 165h70v4h-70zM460 180h50v4h-50zM460 195h80v4h-80zM460 210h65v4h-65z"/><rect width="80" height="100" x="600" y="120" fill="#2c3e50" rx="5"/><path fill="#ecf0f1" d="M610 130h60v20h-60z"/><circle cx="625" cy="165" r="8" fill="#95a5a6"/><circle cx="645" cy="165" r="8" fill="#95a5a6"/><circle cx="665" cy="165" r="8" fill="#95a5a6"/><circle cx="625" cy="185" r="8" fill="#95a5a6"/><circle cx="645" cy="185" r="8" fill="#95a5a6"/><circle cx="665" cy="185" r="8" fill="#95a5a6"/><circle cx="625" cy="205" r="8" fill="#95a5a6"/><circle cx="645" cy="205" r="8" fill="#95a5a6"/><circle cx="665" cy="205" r="8" fill="#27ae60"/><path fill="none" stroke="#7f8c8d" stroke-width="3" marker-end="url(#a)" d="M240 170h30"/><path fill="none" stroke="#7f8c8d" stroke-width="3" marker-end="url(#a)" d="M370 170h60"/><path fill="none" stroke="#7f8c8d" stroke-width="3" marker-end="url(#a)" d="M570 170h10"/><defs><marker id="a" markerHeight="7" markerWidth="10" orient="auto" refX="9" refY="3.5"><path fill="#7f8c8d" d="m0 0 10 3.5L0 7z"/></marker></defs><text x="160" y="270" fill="#2c3e50" font-family="Arial, sans-serif" font-size="14" font-weight="bold" text-anchor="middle">
    Helligdager
  </text><text x="320" y="270" fill="#2c3e50" font-family="Arial, sans-serif" font-size="14" font-weight="bold" text-anchor="middle">
    Lønnsplikt
  </text><text x="500" y="270" fill="#2c3e50" font-family="Arial, sans-serif" font-size="14" font-weight="bold" text-anchor="middle">
    Regnskapsføring
  </text><text x="640" y="270" fill="#2c3e50" font-family="Arial, sans-serif" font-size="14" font-weight="bold" text-anchor="middle">
    Beregning
  </text><rect width="700" height="60" x="50" y="320" fill="#ecf0f1" rx="10"/><text x="400" y="340" fill="#2c3e50" font-family="Arial, sans-serif" font-size="16" font-weight="bold" text-anchor="middle">
    Nøkkelelementer: Feriepenger • A-melding • Arbeidsgiveravgift • Internkontroll
  </text><text x="400" y="365" fill="#7f8c8d" font-family="Arial, sans-serif" font-size="14" text-anchor="middle">
    Komplett guide til regnskapsmessig behandling av helligdager for norske bedriftseiere
  </text></svg>