<svg xmlns="http://www.w3.org/2000/svg" width="900" height="600"><defs><linearGradient id="a" x1="0%" x2="100%" y1="0%" y2="100%"><stop offset="0%" style="stop-color:#f8fafc;stop-opacity:1"/><stop offset="100%" style="stop-color:#e2e8f0;stop-opacity:1"/></linearGradient><linearGradient id="b" x1="0%" x2="100%" y1="0%" y2="0%"><stop offset="0%" style="stop-color:#1e40af;stop-opacity:1"/><stop offset="100%" style="stop-color:#3b82f6;stop-opacity:1"/></linearGradient></defs><path fill="url(#a)" d="M0 0h900v600H0z"/><rect width="800" height="50" x="50" y="20" fill="url(#b)" rx="8"/><text x="450" y="55" fill="#fff" font-family="Arial, sans-serif" font-size="22" font-weight="bold" text-anchor="middle">
    Sammenligning av Amortiseringsmetoder
  </text><rect width="700" height="350" x="100" y="100" fill="#fff" stroke="#cbd5e1" stroke-width="2" rx="8"/><path stroke="#374151" stroke-width="2" d="M150 120v300"/><text x="140" y="125" fill="#374151" font-family="Arial, sans-serif" font-size="12" text-anchor="end">500k</text><text x="140" y="170" fill="#374151" font-family="Arial, sans-serif" font-size="12" text-anchor="end">400k</text><text x="140" y="215" fill="#374151" font-family="Arial, sans-serif" font-size="12" text-anchor="end">300k</text><text x="140" y="260" fill="#374151" font-family="Arial, sans-serif" font-size="12" text-anchor="end">200k</text><text x="140" y="305" fill="#374151" font-family="Arial, sans-serif" font-size="12" text-anchor="end">100k</text><text x="140" y="350" fill="#374151" font-family="Arial, sans-serif" font-size="12" text-anchor="end">50k</text><text x="140" y="415" fill="#374151" font-family="Arial, sans-serif" font-size="12" text-anchor="end">0</text><path stroke="#374151" stroke-width="2" d="M150 420h600"/><text x="200" y="440" fill="#374151" font-family="Arial, sans-serif" font-size="12" text-anchor="middle">År 1</text><text x="300" y="440" fill="#374151" font-family="Arial, sans-serif" font-size="12" text-anchor="middle">År 2</text><text x="400" y="440" fill="#374151" font-family="Arial, sans-serif" font-size="12" text-anchor="middle">År 3</text><text x="500" y="440" fill="#374151" font-family="Arial, sans-serif" font-size="12" text-anchor="middle">År 4</text><text x="600" y="440" fill="#374151" font-family="Arial, sans-serif" font-size="12" text-anchor="middle">År 5</text><path stroke="#e5e7eb" d="M150 170h600M150 215h600M150 260h600M150 305h600M150 350h600"/><path fill="none" stroke="#10b981" stroke-width="4" d="M200 320h400"/><path fill="none" stroke="#f59e0b" stroke-width="4" d="m200 170 100 45 100 45 100 45 100 45"/><path fill="none" stroke="#8b5cf6" stroke-width="4" d="m200 260 100 45 100-90 100 135 100-90"/><circle cx="200" cy="320" r="4" fill="#10b981"/><circle cx="300" cy="320" r="4" fill="#10b981"/><circle cx="400" cy="320" r="4" fill="#10b981"/><circle cx="500" cy="320" r="4" fill="#10b981"/><circle cx="600" cy="320" r="4" fill="#10b981"/><circle cx="200" cy="170" r="4" fill="#f59e0b"/><circle cx="300" cy="215" r="4" fill="#f59e0b"/><circle cx="400" cy="260" r="4" fill="#f59e0b"/><circle cx="500" cy="305" r="4" fill="#f59e0b"/><circle cx="600" cy="350" r="4" fill="#f59e0b"/><circle cx="200" cy="260" r="4" fill="#8b5cf6"/><circle cx="300" cy="305" r="4" fill="#8b5cf6"/><circle cx="400" cy="215" r="4" fill="#8b5cf6"/><circle cx="500" cy="350" r="4" fill="#8b5cf6"/><circle cx="600" cy="260" r="4" fill="#8b5cf6"/><rect width="660" height="100" x="120" y="480" fill="#fff" stroke="#cbd5e1" stroke-width="2" rx="8"/><path stroke="#10b981" stroke-width="4" d="M150 510h30"/><circle cx="165" cy="510" r="4" fill="#10b981"/><text x="190" y="515" fill="#374151" font-family="Arial, sans-serif" font-size="12" font-weight="bold">
    Lineær metode
  </text><text x="190" y="530" fill="#6b7280" font-family="Arial, sans-serif" font-size="11">
    Lik amortisering hvert år (100k kr/år)
  </text><path stroke="#f59e0b" stroke-width="4" d="M350 510h30"/><circle cx="365" cy="510" r="4" fill="#f59e0b"/><text x="390" y="515" fill="#374151" font-family="Arial, sans-serif" font-size="12" font-weight="bold">
    Degressiv metode
  </text><text x="390" y="530" fill="#6b7280" font-family="Arial, sans-serif" font-size="11">
    Høyere amortisering tidlig (250k, 200k, 150k, 100k, 50k)
  </text><path stroke="#8b5cf6" stroke-width="4" d="M580 510h30"/><circle cx="595" cy="510" r="4" fill="#8b5cf6"/><text x="620" y="515" fill="#374151" font-family="Arial, sans-serif" font-size="12" font-weight="bold">
    Produksjonsbasert
  </text><text x="620" y="530" fill="#6b7280" font-family="Arial, sans-serif" font-size="11">
    Basert på faktisk bruk (variabel)
  </text><text x="80" y="270" fill="#374151" font-family="Arial, sans-serif" font-size="12" font-weight="bold" text-anchor="middle" transform="rotate(-90 80 270)">
    Amortiseringsbeløp (kr)
  </text><text x="450" y="470" fill="#374151" font-family="Arial, sans-serif" font-size="12" font-weight="bold" text-anchor="middle">
    Tid (år)
  </text><text x="450" y="560" fill="#6b7280" font-family="Arial, sans-serif" font-size="11" text-anchor="middle">
    Eksempel basert på immateriell rettighet med anskaffelseskost 500 000 kr over 5 år
  </text></svg>