<svg xmlns="http://www.w3.org/2000/svg" width="800" height="500"><defs><linearGradient id="a" x1="0%" x2="100%" y1="0%" y2="100%"><stop offset="0%" style="stop-color:#f8fafc;stop-opacity:1"/><stop offset="100%" style="stop-color:#e2e8f0;stop-opacity:1"/></linearGradient><linearGradient id="b" x1="0%" x2="100%" y1="0%" y2="0%"><stop offset="0%" style="stop-color:#1e40af;stop-opacity:1"/><stop offset="100%" style="stop-color:#3b82f6;stop-opacity:1"/></linearGradient></defs><path fill="url(#a)" d="M0 0h800v500H0z"/><rect width="700" height="50" x="50" y="20" fill="url(#b)" rx="8"/><text x="400" y="55" fill="#fff" font-family="Arial, sans-serif" font-size="22" font-weight="bold" text-anchor="middle">
    Komponenter i Anskaffelseskost
  </text><rect width="400" height="80" x="200" y="100" fill="#fff" stroke="#3b82f6" stroke-width="3" rx="10"/><text x="400" y="130" fill="#1e40af" font-family="Arial, sans-serif" font-size="18" font-weight="bold" text-anchor="middle">
    Anskaffelseskost =
  </text><text x="400" y="155" fill="#1e40af" font-family="Arial, sans-serif" font-size="16" text-anchor="middle">
    Kjøpspris + Direkte kostnader + Utviklingskostnader
  </text><rect width="180" height="120" x="80" y="220" fill="#10b981" stroke="#059669" stroke-width="2" rx="8"/><text x="170" y="250" fill="#fff" font-family="Arial, sans-serif" font-size="16" font-weight="bold" text-anchor="middle">
    Kjøpspris
  </text><text x="170" y="275" fill="#fff" font-family="Arial, sans-serif" font-size="12" text-anchor="middle">
    • Kontraktspris
  </text><text x="170" y="295" fill="#fff" font-family="Arial, sans-serif" font-size="12" text-anchor="middle">
    • Lisensavgifter
  </text><text x="170" y="315" fill="#fff" font-family="Arial, sans-serif" font-size="12" text-anchor="middle">
    • Oppkjøpspris
  </text><rect width="180" height="120" x="310" y="220" fill="#f59e0b" stroke="#d97706" stroke-width="2" rx="8"/><text x="400" y="250" fill="#fff" font-family="Arial, sans-serif" font-size="16" font-weight="bold" text-anchor="middle">
    Direkte Kostnader
  </text><text x="400" y="275" fill="#fff" font-family="Arial, sans-serif" font-size="12" text-anchor="middle">
    • Juridiske honorarer
  </text><text x="400" y="295" fill="#fff" font-family="Arial, sans-serif" font-size="12" text-anchor="middle">
    • Registreringsgebyrer
  </text><text x="400" y="315" fill="#fff" font-family="Arial, sans-serif" font-size="12" text-anchor="middle">
    • Konsulenthonorar
  </text><rect width="180" height="120" x="540" y="220" fill="#8b5cf6" stroke="#7c3aed" stroke-width="2" rx="8"/><text x="630" y="250" fill="#fff" font-family="Arial, sans-serif" font-size="16" font-weight="bold" text-anchor="middle">
    Utviklingskostnader
  </text><text x="630" y="275" fill="#fff" font-family="Arial, sans-serif" font-size="12" text-anchor="middle">
    • Interne lønnskostnader
  </text><text x="630" y="295" fill="#fff" font-family="Arial, sans-serif" font-size="12" text-anchor="middle">
    • Materialkostnader
  </text><text x="630" y="315" fill="#fff" font-family="Arial, sans-serif" font-size="12" text-anchor="middle">
    • Testingskostnader
  </text><path fill="#64748b" d="m170 200 5 10h-10z"/><path stroke="#64748b" stroke-width="2" d="M170 200v20"/><path fill="#64748b" d="m400 200 5 10h-10z"/><path stroke="#64748b" stroke-width="2" d="M400 200v20"/><path fill="#64748b" d="m630 200 5 10h-10z"/><path stroke="#64748b" stroke-width="2" d="M630 200v20"/><rect width="500" height="100" x="150" y="370" fill="#fff" stroke="#cbd5e1" stroke-width="2" rx="8"/><text x="400" y="395" fill="#374151" font-family="Arial, sans-serif" font-size="14" font-weight="bold" text-anchor="middle">
    Eksempel: Patent
  </text><text x="400" y="415" fill="#6b7280" font-family="Arial, sans-serif" font-size="12" text-anchor="middle">
    Kjøpspris: 800 000 kr + Juridiske honorarer: 50 000 kr + Registrering: 10 000 kr
  </text><text x="400" y="435" fill="#1e40af" font-family="Arial, sans-serif" font-size="14" font-weight="bold" text-anchor="middle">
    Total anskaffelseskost: 860 000 kr
  </text><text x="400" y="455" fill="#6b7280" font-family="Arial, sans-serif" font-size="11" text-anchor="middle">
    (Kun kostnader som kan henføres direkte til eiendelen)
  </text></svg>