<svg xmlns="http://www.w3.org/2000/svg" width="800" height="120"><text x="400" y="20" fill="#333" font-family="Arial, sans-serif" font-size="16" text-anchor="middle">Periodisering av forsikringspremie over 12 måneder</text><path stroke="#333" stroke-width="2" d="M50 60h700"/><path fill="#333" d="m745 55 10 5-10 5z"/><g fill="#333" font-family="Arial, sans-serif" font-size="10" text-anchor="middle"><path stroke="#333" d="M50 60v5"/><text x="50" y="80">Jan</text><path stroke="#333" d="M113.64 60v5"/><text x="113.64" y="80">Feb</text><path stroke="#333" d="M177.27 60v5"/><text x="177.27" y="80">Mar</text><path stroke="#333" d="M240.91 60v5"/><text x="240.91" y="80">Apr</text><path stroke="#333" d="M304.55 60v5"/><text x="304.55" y="80">May</text><path stroke="#333" d="M368.18 60v5"/><text x="368.18" y="80">Jun</text><path stroke="#333" d="M431.82 60v5"/><text x="431.82" y="80">Jul</text><path stroke="#333" d="M495.45 60v5"/><text x="495.45" y="80">Aug</text><path stroke="#333" d="M559.09 60v5"/><text x="559.09" y="80">Sep</text><path stroke="#333" d="M622.73 60v5"/><text x="622.73" y="80">Oct</text><path stroke="#333" d="M686.36 60v5"/><text x="686.36" y="80">Nov</text><path stroke="#333" d="M750 60v5"/><text x="750" y="80">Dec</text></g></svg>