<svg xmlns="http://www.w3.org/2000/svg" width="1200" height="630" viewBox="0 0 1200 630"><defs><linearGradient id="a" x1="0%" x2="100%" y1="0%" y2="100%"><stop offset="0%" style="stop-color:#f8fafc"/><stop offset="100%" style="stop-color:#e2e8f0"/></linearGradient><linearGradient id="b" x1="0%" x2="100%" y1="0%" y2="0%"><stop offset="0%" style="stop-color:#1e40af"/><stop offset="100%" style="stop-color:#3b82f6"/></linearGradient></defs><path fill="url(#a)" d="M0 0h1200v630H0z"/><text x="600" y="150" fill="#1e293b" font-family="Arial, sans-serif" font-size="64" font-weight="bold" text-anchor="middle">Saldobalanse</text><text x="600" y="210" fill="#475569" font-family="Arial, sans-serif" font-size="36" text-anchor="middle">i Regnskap</text><rect width="800" height="280" x="200" y="280" fill="#fff" stroke="#cbd5e1" stroke-width="3" rx="12"/><rect width="800" height="50" x="200" y="280" fill="url(#b)" rx="12 12 0 0"/><path stroke="#fff" stroke-width="2" d="M450 280v50M700 280v50"/><text x="325" y="310" fill="#fff" font-family="Arial, sans-serif" font-size="20" font-weight="bold" text-anchor="middle">Kontonavn</text><text x="575" y="310" fill="#fff" font-family="Arial, sans-serif" font-size="20" font-weight="bold" text-anchor="middle">Debet</text><text x="825" y="310" fill="#fff" font-family="Arial, sans-serif" font-size="20" font-weight="bold" text-anchor="middle">Kredit</text><path stroke="#e5e7eb" d="M200 380h800M200 430h800M200 480h800M450 330v230M700 330v230"/><text x="220" y="360" fill="#374151" font-family="Arial, sans-serif" font-size="16">Kundefordringer</text><text x="680" y="360" fill="#059669" font-family="Arial, sans-serif" font-size="16" font-weight="bold" text-anchor="end">250.000</text><text x="220" y="410" fill="#374151" font-family="Arial, sans-serif" font-size="16">Bankinnskudd</text><text x="680" y="410" fill="#059669" font-family="Arial, sans-serif" font-size="16" font-weight="bold" text-anchor="end">180.000</text><text x="220" y="460" fill="#374151" font-family="Arial, sans-serif" font-size="16">Leverandørgjeld</text><text x="980" y="460" fill="#dc2626" font-family="Arial, sans-serif" font-size="16" font-weight="bold" text-anchor="end">125.000</text><text x="220" y="510" fill="#374151" font-family="Arial, sans-serif" font-size="16">Aksjekapital</text><text x="980" y="510" fill="#dc2626" font-family="Arial, sans-serif" font-size="16" font-weight="bold" text-anchor="end">500.000</text><path fill="#f8fafc" stroke="#cbd5e1" d="M200 530h800v30H200z"/><text x="220" y="550" fill="#1f2937" font-family="Arial, sans-serif" font-size="16" font-weight="bold">TOTAL</text><text x="680" y="550" fill="#1f2937" font-family="Arial, sans-serif" font-size="16" font-weight="bold" text-anchor="end">430.000</text><text x="980" y="550" fill="#1f2937" font-family="Arial, sans-serif" font-size="16" font-weight="bold" text-anchor="end">625.000</text><circle cx="100" cy="450" r="60" fill="#dcfce7" stroke="#16a34a" stroke-width="3"/><text x="100" y="430" fill="#15803d" font-family="Arial, sans-serif" font-size="32" font-weight="bold" text-anchor="middle">✓</text><text x="100" y="475" fill="#15803d" font-family="Arial, sans-serif" font-size="12" font-weight="bold" text-anchor="middle">BALANSE</text></svg>