<svg xmlns="http://www.w3.org/2000/svg" width="800" height="600" viewBox="0 0 800 600"><defs><linearGradient id="a" x1="0%" x2="100%" y1="0%" y2="0%"><stop offset="0%" style="stop-color:#059669"/><stop offset="100%" style="stop-color:#10b981"/></linearGradient><linearGradient id="b" x1="0%" x2="100%" y1="0%" y2="0%"><stop offset="0%" style="stop-color:#dc2626"/><stop offset="100%" style="stop-color:#ef4444"/></linearGradient></defs><path fill="#f8fafc" d="M0 0h800v600H0z"/><text x="400" y="40" fill="#1e293b" font-family="Arial, sans-serif" font-size="24" font-weight="bold" text-anchor="middle">Kontotyper og Normale Saldoer</text><rect width="320" height="480" x="50" y="80" fill="#fff" stroke="#059669" stroke-width="3" rx="12"/><rect width="320" height="50" x="50" y="80" fill="url(#a)" rx="12 12 0 0"/><text x="210" y="110" fill="#fff" font-family="Arial, sans-serif" font-size="20" font-weight="bold" text-anchor="middle">DEBET (Normal Saldo)</text><rect width="280" height="100" x="70" y="150" fill="#f0fdf4" stroke="#059669" rx="6"/><text x="210" y="175" fill="#15803d" font-family="Arial, sans-serif" font-size="16" font-weight="bold" text-anchor="middle">AKTIVA</text><text x="80" y="195" fill="#374151" font-family="Arial, sans-serif" font-size="12">• Anleggsmidler</text><text x="80" y="210" fill="#374151" font-family="Arial, sans-serif" font-size="12">• Varelager</text><text x="80" y="225" fill="#374151" font-family="Arial, sans-serif" font-size="12">• Kundefordringer</text><text x="80" y="240" fill="#374151" font-family="Arial, sans-serif" font-size="12">• Kontanter og bank</text><rect width="280" height="100" x="70" y="270" fill="#f0fdf4" stroke="#059669" rx="6"/><text x="210" y="295" fill="#15803d" font-family="Arial, sans-serif" font-size="16" font-weight="bold" text-anchor="middle">KOSTNADER</text><text x="80" y="315" fill="#374151" font-family="Arial, sans-serif" font-size="12">• Varekostnad</text><text x="80" y="330" fill="#374151" font-family="Arial, sans-serif" font-size="12">• Lønnskostnader</text><text x="80" y="345" fill="#374151" font-family="Arial, sans-serif" font-size="12">• Husleie</text><text x="80" y="360" fill="#374151" font-family="Arial, sans-serif" font-size="12">• Rentekostnader</text><rect width="280" height="80" x="70" y="390" fill="#ecfdf5" stroke="#16a34a" rx="6"/><text x="210" y="415" fill="#15803d" font-family="Arial, sans-serif" font-size="14" font-weight="bold" text-anchor="middle">ØKER MED:</text><text x="80" y="435" fill="#374151" font-family="Arial, sans-serif" font-size="12">+ Debet-bokføringer</text><text x="210" y="455" fill="#dc2626" font-family="Arial, sans-serif" font-size="14" font-weight="bold" text-anchor="middle">REDUSERES MED:</text><text x="80" y="470" fill="#374151" font-family="Arial, sans-serif" font-size="12">- Kredit-bokføringer</text><rect width="320" height="480" x="430" y="80" fill="#fff" stroke="#dc2626" stroke-width="3" rx="12"/><rect width="320" height="50" x="430" y="80" fill="url(#b)" rx="12 12 0 0"/><text x="590" y="110" fill="#fff" font-family="Arial, sans-serif" font-size="20" font-weight="bold" text-anchor="middle">KREDIT (Normal Saldo)</text><rect width="280" height="100" x="450" y="150" fill="#fef2f2" stroke="#dc2626" rx="6"/><text x="590" y="175" fill="#dc2626" font-family="Arial, sans-serif" font-size="16" font-weight="bold" text-anchor="middle">PASSIVA</text><text x="460" y="195" fill="#374151" font-family="Arial, sans-serif" font-size="12">• Leverandørgjeld</text><text x="460" y="210" fill="#374151" font-family="Arial, sans-serif" font-size="12">• Banklån</text><text x="460" y="225" fill="#374151" font-family="Arial, sans-serif" font-size="12">• Aksjekapital</text><text x="460" y="240" fill="#374151" font-family="Arial, sans-serif" font-size="12">• Opptjent egenkapital</text><rect width="280" height="100" x="450" y="270" fill="#fef2f2" stroke="#dc2626" rx="6"/><text x="590" y="295" fill="#dc2626" font-family="Arial, sans-serif" font-size="16" font-weight="bold" text-anchor="middle">INNTEKTER</text><text x="460" y="315" fill="#374151" font-family="Arial, sans-serif" font-size="12">• Salgsinntekter</text><text x="460" y="330" fill="#374151" font-family="Arial, sans-serif" font-size="12">• Renteinntekter</text><text x="460" y="345" fill="#374151" font-family="Arial, sans-serif" font-size="12">• Andre inntekter</text><text x="460" y="360" fill="#374151" font-family="Arial, sans-serif" font-size="12">• Utbytte</text><rect width="280" height="80" x="450" y="390" fill="#fef2f2" stroke="#dc2626" rx="6"/><text x="590" y="415" fill="#dc2626" font-family="Arial, sans-serif" font-size="14" font-weight="bold" text-anchor="middle">ØKER MED:</text><text x="460" y="435" fill="#374151" font-family="Arial, sans-serif" font-size="12">+ Kredit-bokføringer</text><text x="590" y="455" fill="#059669" font-family="Arial, sans-serif" font-size="14" font-weight="bold" text-anchor="middle">REDUSERES MED:</text><text x="460" y="470" fill="#374151" font-family="Arial, sans-serif" font-size="12">- Debet-bokføringer</text><circle cx="400" cy="320" r="30" fill="#fff" stroke="#6b7280" stroke-width="2"/><text x="400" y="330" fill="#1f2937" font-family="Arial, sans-serif" font-size="20" font-weight="bold" text-anchor="middle">=</text><rect width="600" height="25" x="100" y="570" fill="#fffbeb" stroke="#f59e0b" rx="4"/><text x="400" y="587" fill="#92400e" font-family="Arial, sans-serif" font-size="12" font-weight="bold" text-anchor="middle">Grunnprinsipp: Alle transaksjoner påvirker minst to kontoer (Dobbelt bokføring)</text></svg>