<svg xmlns="http://www.w3.org/2000/svg" width="800" height="500" viewBox="0 0 800 500"><defs><linearGradient id="a" x1="0%" x2="100%" y1="0%" y2="0%"><stop offset="0%" style="stop-color:#1e40af"/><stop offset="100%" style="stop-color:#3b82f6"/></linearGradient></defs><path fill="#f8fafc" d="M0 0h800v500H0z"/><text x="400" y="40" fill="#1e293b" font-family="Arial, sans-serif" font-size="24" font-weight="bold" text-anchor="middle">Saldobalansens Grunnstruktur</text><rect width="600" height="350" x="100" y="80" fill="#fff" stroke="#cbd5e1" stroke-width="2" rx="8"/><rect width="600" height="40" x="100" y="80" fill="url(#a)" rx="8 8 0 0"/><path stroke="#fff" d="M250 80v40M400 80v40M550 80v40"/><text x="175" y="105" fill="#fff" font-family="Arial, sans-serif" font-size="14" font-weight="bold" text-anchor="middle">Kontonummer</text><text x="325" y="105" fill="#fff" font-family="Arial, sans-serif" font-size="14" font-weight="bold" text-anchor="middle">Kontonavn</text><text x="475" y="105" fill="#fff" font-family="Arial, sans-serif" font-size="14" font-weight="bold" text-anchor="middle">Debet</text><text x="625" y="105" fill="#fff" font-family="Arial, sans-serif" font-size="14" font-weight="bold" text-anchor="middle">Kredit</text><path stroke="#e5e7eb" d="M250 120v310M400 120v310M550 120v310M100 150h600M100 180h600M100 210h600M100 240h600M100 270h600M100 300h600M100 330h600M100 360h600"/><text x="175" y="140" fill="#374151" font-family="Arial, sans-serif" font-size="11" text-anchor="middle">1500</text><text x="260" y="140" fill="#374151" font-family="Arial, sans-serif" font-size="11">Kundefordringer</text><text x="540" y="140" fill="#059669" font-family="Arial, sans-serif" font-size="11" font-weight="bold" text-anchor="end">250.000</text><text x="175" y="170" fill="#374151" font-family="Arial, sans-serif" font-size="11" text-anchor="middle">1910</text><text x="260" y="170" fill="#374151" font-family="Arial, sans-serif" font-size="11">Bankinnskudd</text><text x="540" y="170" fill="#059669" font-family="Arial, sans-serif" font-size="11" font-weight="bold" text-anchor="end">180.000</text><text x="175" y="200" fill="#374151" font-family="Arial, sans-serif" font-size="11" text-anchor="middle">2400</text><text x="260" y="200" fill="#374151" font-family="Arial, sans-serif" font-size="11">Leverandørgjeld</text><text x="690" y="200" fill="#dc2626" font-family="Arial, sans-serif" font-size="11" font-weight="bold" text-anchor="end">125.000</text><text x="175" y="230" fill="#374151" font-family="Arial, sans-serif" font-size="11" text-anchor="middle">2700</text><text x="260" y="230" fill="#374151" font-family="Arial, sans-serif" font-size="11">Skyldig lønn</text><text x="690" y="230" fill="#dc2626" font-family="Arial, sans-serif" font-size="11" font-weight="bold" text-anchor="end">85.000</text><text x="175" y="260" fill="#374151" font-family="Arial, sans-serif" font-size="11" text-anchor="middle">3000</text><text x="260" y="260" fill="#374151" font-family="Arial, sans-serif" font-size="11">Aksjekapital</text><text x="690" y="260" fill="#dc2626" font-family="Arial, sans-serif" font-size="11" font-weight="bold" text-anchor="end">500.000</text><text x="175" y="290" fill="#374151" font-family="Arial, sans-serif" font-size="11" text-anchor="middle">3900</text><text x="260" y="290" fill="#374151" font-family="Arial, sans-serif" font-size="11">Salgsinntekter</text><text x="690" y="290" fill="#dc2626" font-family="Arial, sans-serif" font-size="11" font-weight="bold" text-anchor="end">800.000</text><text x="175" y="320" fill="#374151" font-family="Arial, sans-serif" font-size="11" text-anchor="middle">4005</text><text x="260" y="320" fill="#374151" font-family="Arial, sans-serif" font-size="11">Varekostnad</text><text x="540" y="320" fill="#059669" font-family="Arial, sans-serif" font-size="11" font-weight="bold" text-anchor="end">300.000</text><text x="175" y="350" fill="#374151" font-family="Arial, sans-serif" font-size="11" text-anchor="middle">5000</text><text x="260" y="350" fill="#374151" font-family="Arial, sans-serif" font-size="11">Lønnskostnader</text><text x="540" y="350" fill="#059669" font-family="Arial, sans-serif" font-size="11" font-weight="bold" text-anchor="end">200.000</text><path fill="#f1f5f9" stroke="#cbd5e1" d="M100 390h600v25H100z"/><text x="260" y="407" fill="#1f2937" font-family="Arial, sans-serif" font-size="12" font-weight="bold">TOTAL</text><text x="540" y="407" fill="#1f2937" font-family="Arial, sans-serif" font-size="12" font-weight="bold" text-anchor="end">930.000</text><text x="690" y="407" fill="#1f2937" font-family="Arial, sans-serif" font-size="12" font-weight="bold" text-anchor="end">1.510.000</text><rect width="500" height="30" x="150" y="450" fill="#dcfce7" stroke="#16a34a" rx="4"/><text x="400" y="470" fill="#15803d" font-family="Arial, sans-serif" font-size="14" font-weight="bold" text-anchor="middle">Kontroll: Debet (930.000) + Kredit (1.510.000) må balansere</text></svg>