<svg xmlns="http://www.w3.org/2000/svg" width="600" height="450" viewBox="0 0 600 450"><defs><linearGradient id="a" x1="0%" x2="100%" y1="0%" y2="0%"><stop offset="0%" style="stop-color:#7c2d12;stop-opacity:1"/><stop offset="100%" style="stop-color:#ea580c;stop-opacity:1"/></linearGradient></defs><path fill="#fff" d="M0 0h600v450H0z"/><path fill="url(#a)" d="M0 0h600v50H0z"/><text x="300" y="30" fill="#fff" font-family="Arial, sans-serif" font-size="18" font-weight="bold" text-anchor="middle">Bransjespecifikke Lagerutfordringer</text><rect width="170" height="140" x="30" y="70" fill="#fef3c7" stroke="#f59e0b" stroke-width="2" rx="8"/><text x="115" y="95" fill="#92400e" font-family="Arial, sans-serif" font-size="14" font-weight="bold" text-anchor="middle">DETALJHANDEL</text><rect width="30" height="20" x="100" y="105" fill="none" stroke="#f59e0b" stroke-width="2" rx="3"/><circle cx="108" cy="130" r="3" fill="#f59e0b"/><circle cx="122" cy="130" r="3" fill="#f59e0b"/><path fill="none" stroke="#f59e0b" stroke-width="2" d="M95 110h5l5 5"/><text x="40" y="145" fill="#92400e" font-family="Arial, sans-serif" font-size="11" font-weight="bold">Utfordringer:</text><text x="40" y="160" fill="#374151" font-family="Arial, sans-serif" font-size="9">• Høy volum, lav margin</text><text x="40" y="172" fill="#374151" font-family="Arial, sans-serif" font-size="9">• Sesongvariasjoner</text><text x="40" y="184" fill="#374151" font-family="Arial, sans-serif" font-size="9">• Kompleks sortimentsstyring</text><text x="40" y="196" fill="#374151" font-family="Arial, sans-serif" font-size="9">• Hurtig lageromsetning</text><rect width="170" height="140" x="215" y="70" fill="#dcfce7" stroke="#16a34a" stroke-width="2" rx="8"/><text x="300" y="95" fill="#15803d" font-family="Arial, sans-serif" font-size="14" font-weight="bold" text-anchor="middle">PRODUKSJON</text><rect width="40" height="20" x="280" y="105" fill="#16a34a" rx="2"/><rect width="8" height="8" x="285" y="110" fill="#fff" rx="1"/><rect width="8" height="8" x="297" y="110" fill="#fff" rx="1"/><rect width="8" height="8" x="309" y="110" fill="#fff" rx="1"/><path fill="#15803d" d="m280 105 20-15 20 15z"/><text x="225" y="145" fill="#15803d" font-family="Arial, sans-serif" font-size="11" font-weight="bold">Spesifikke krav:</text><text x="225" y="160" fill="#374151" font-family="Arial, sans-serif" font-size="9">• Råvarer, VUA, ferdigvarer</text><text x="225" y="172" fill="#374151" font-family="Arial, sans-serif" font-size="9">• Kompleks kostnadssporing</text><text x="225" y="184" fill="#374151" font-family="Arial, sans-serif" font-size="9">• Just-in-Time utfordringer</text><text x="225" y="196" fill="#374151" font-family="Arial, sans-serif" font-size="9">• Kvalitetskontroll</text><rect width="170" height="140" x="400" y="70" fill="#fef2f2" stroke="#ef4444" stroke-width="2" rx="8"/><text x="485" y="95" fill="#dc2626" font-family="Arial, sans-serif" font-size="14" font-weight="bold" text-anchor="middle">LEGEMIDDEL</text><rect width="20" height="25" x="475" y="105" fill="#ef4444" rx="3"/><rect width="16" height="3" x="477" y="107" fill="#fff" rx="1"/><circle cx="485" cy="115" r="2" fill="#fff"/><circle cx="485" cy="120" r="2" fill="#fff"/><circle cx="485" cy="125" r="2" fill="#fff"/><text x="410" y="145" fill="#dc2626" font-family="Arial, sans-serif" font-size="11" font-weight="bold">Regulatoriske krav:</text><text x="410" y="160" fill="#374151" font-family="Arial, sans-serif" font-size="9">• GMP-standarder</text><text x="410" y="172" fill="#374151" font-family="Arial, sans-serif" font-size="9">• Batch-sporing (FEFO)</text><text x="410" y="184" fill="#374151" font-family="Arial, sans-serif" font-size="9">• Temperaturkontroll</text><text x="410" y="196" fill="#374151" font-family="Arial, sans-serif" font-size="9">• Tilbaketrakkingsrutiner</text><rect width="170" height="140" x="30" y="230" fill="#e0e7ff" stroke="#6366f1" stroke-width="2" rx="8"/><text x="115" y="255" fill="#4338ca" font-family="Arial, sans-serif" font-size="14" font-weight="bold" text-anchor="middle">E-HANDEL</text><rect width="30" height="20" x="100" y="265" fill="#6366f1" rx="3"/><rect width="20" height="10" x="105" y="270" fill="#fff" rx="1"/><circle cx="115" cy="290" r="3" fill="#6366f1"/><text x="40" y="305" fill="#4338ca" font-family="Arial, sans-serif" font-size="11" font-weight="bold">Omnikanalutfordringer:</text><text x="40" y="320" fill="#374151" font-family="Arial, sans-serif" font-size="9">• Sentralisert lageroversikt</text><text x="40" y="332" fill="#374151" font-family="Arial, sans-serif" font-size="9">• Flere oppfyllelseskanaler</text><text x="40" y="344" fill="#374151" font-family="Arial, sans-serif" font-size="9">• Kompleks returhåndtering</text><text x="40" y="356" fill="#374151" font-family="Arial, sans-serif" font-size="9">• Sanntids tilgjengelighet</text><rect width="170" height="140" x="215" y="230" fill="#fce7f3" stroke="#ec4899" stroke-width="2" rx="8"/><text x="300" y="255" fill="#be185d" font-family="Arial, sans-serif" font-size="14" font-weight="bold" text-anchor="middle">MOTE/SESONG</text><path fill="none" stroke="#ec4899" stroke-width="2" d="M285 265h30v30h-30z"/><path fill="none" stroke="#ec4899" stroke-width="2" d="M290 270q10-5 20 0"/><path stroke="#ec4899" stroke-width="2" d="M290 285h20M295 290h10"/><text x="225" y="315" fill="#be185d" font-family="Arial, sans-serif" font-size="11" font-weight="bold">Sesongutfordringer:</text><text x="225" y="330" fill="#374151" font-family="Arial, sans-serif" font-size="9">• Kort produktlivssyklus</text><text x="225" y="342" fill="#374151" font-family="Arial, sans-serif" font-size="9">• Høy risiko for verdifall</text><text x="225" y="354" fill="#374151" font-family="Arial, sans-serif" font-size="9">• Kompleks prognostisering</text><text x="225" y="366" fill="#374151" font-family="Arial, sans-serif" font-size="9">• Clearance-strategier</text><rect width="170" height="140" x="400" y="230" fill="#f3e8ff" stroke="#a855f7" stroke-width="2" rx="8"/><text x="485" y="255" fill="#7c3aed" font-family="Arial, sans-serif" font-size="14" font-weight="bold" text-anchor="middle">TEKNOLOGI</text><rect width="30" height="20" x="470" y="265" fill="#a855f7" rx="3"/><rect width="20" height="10" x="475" y="270" fill="#fff" rx="1"/><circle cx="480" cy="275" r="1" fill="#a855f7"/><circle cx="485" cy="275" r="1" fill="#a855f7"/><circle cx="490" cy="275" r="1" fill="#a855f7"/><text x="410" y="305" fill="#7c3aed" font-family="Arial, sans-serif" font-size="11" font-weight="bold">Teknologiutfordringer:</text><text x="410" y="320" fill="#374151" font-family="Arial, sans-serif" font-size="9">• Rask teknologisk foreldelse</text><text x="410" y="332" fill="#374151" font-family="Arial, sans-serif" font-size="9">• Korte produktlivssykler</text><text x="410" y="344" fill="#374151" font-family="Arial, sans-serif" font-size="9">• Garantikostnader</text><text x="410" y="356" fill="#374151" font-family="Arial, sans-serif" font-size="9">• Lifecycle-kostnadsstyring</text><rect width="500" height="50" x="50" y="390" fill="#f0f9ff" stroke="#0ea5e9" stroke-width="2" rx="8"/><text x="300" y="410" fill="#0c4a6e" font-family="Arial, sans-serif" font-size="14" font-weight="bold" text-anchor="middle">FELLES STRATEGIER FOR ALLE BRANSJER</text><text x="70" y="428" fill="#0c4a6e" font-family="Arial, sans-serif" font-size="11">• Digitalisering og automatisering</text><text x="250" y="428" fill="#0c4a6e" font-family="Arial, sans-serif" font-size="11">• Dataanalyse og AI</text><text x="400" y="428" fill="#0c4a6e" font-family="Arial, sans-serif" font-size="11">• Bærekraftige løsninger</text><path stroke="#0ea5e9" stroke-dasharray="3,3" d="m115 215 135 180M300 375v20M485 375l-135 20"/></svg>