<svg xmlns="http://www.w3.org/2000/svg" width="600" height="400" viewBox="0 0 600 400"><defs><linearGradient id="a" x1="0%" x2="100%" y1="0%" y2="0%"><stop offset="0%" style="stop-color:#7c2d12;stop-opacity:1"/><stop offset="100%" style="stop-color:#dc2626;stop-opacity:1"/></linearGradient></defs><path fill="#fff" d="M0 0h600v400H0z"/><path fill="url(#a)" d="M0 0h600v50H0z"/><text x="300" y="30" fill="#fff" font-family="Arial, sans-serif" font-size="18" font-weight="bold" text-anchor="middle">Internkontroll og Risikostyring for Varelager</text><rect width="170" height="120" x="30" y="70" fill="#fef2f2" stroke="#ef4444" stroke-width="2" rx="8"/><text x="115" y="95" fill="#dc2626" font-family="Arial, sans-serif" font-size="14" font-weight="bold" text-anchor="middle">FYSISK SIKKERHET</text><rect width="20" height="12" x="95" y="105" fill="#ef4444" rx="2"/><circle cx="105" cy="111" r="4" fill="#fff"/><circle cx="105" cy="111" r="2" fill="#ef4444"/><path fill="#374151" d="M100 120h10v3h-10z"/><text x="40" y="135" fill="#dc2626" font-family="Arial, sans-serif" font-size="11" font-weight="bold">Sikringstiltak:</text><text x="40" y="150" fill="#374151" font-family="Arial, sans-serif" font-size="9">• Adgangskontroll med kort/koder</text><text x="40" y="163" fill="#374151" font-family="Arial, sans-serif" font-size="9">• Overvåkningskameraer</text><text x="40" y="176" fill="#374151" font-family="Arial, sans-serif" font-size="9">• Alarmsystemer og sensorer</text><rect width="170" height="120" x="215" y="70" fill="#f0fdf4" stroke="#22c55e" stroke-width="2" rx="8"/><text x="300" y="95" fill="#15803d" font-family="Arial, sans-serif" font-size="14" font-weight="bold" text-anchor="middle">TILGANGSKONTROLL</text><rect width="30" height="20" x="285" y="105" fill="#22c55e" rx="3"/><rect width="20" height="3" x="290" y="110" fill="#fff" rx="1"/><rect width="15" height="2" x="290" y="115" fill="#fff" rx="1"/><rect width="10" height="2" x="290" y="118" fill="#fff" rx="1"/><circle cx="294" cy="110" r="2" fill="#fff"/><text x="225" y="135" fill="#15803d" font-family="Arial, sans-serif" font-size="11" font-weight="bold">Autorisasjonsnivåer:</text><text x="225" y="150" fill="#374151" font-family="Arial, sans-serif" font-size="9">• Rollebasert tilgang</text><text x="225" y="163" fill="#374151" font-family="Arial, sans-serif" font-size="9">• Tofaktorgodkjenning</text><text x="225" y="176" fill="#374151" font-family="Arial, sans-serif" font-size="9">• Regelmessig gjennomgang</text><rect width="170" height="120" x="400" y="70" fill="#dbeafe" stroke="#3b82f6" stroke-width="2" rx="8"/><text x="485" y="95" fill="#1e40af" font-family="Arial, sans-serif" font-size="14" font-weight="bold" text-anchor="middle">LAGEROPPTELLING</text><rect width="40" height="30" x="465" y="105" fill="#fff" stroke="#3b82f6" rx="2"/><path fill="none" stroke="#22c55e" stroke-width="2" d="m470 115 4 4 6-6M470 122l4 4 6-6"/><path fill="none" stroke="#f59e0b" stroke-width="2" d="m470 129 4 4 6-6"/><text x="410" y="145" fill="#1e40af" font-family="Arial, sans-serif" font-size="11" font-weight="bold">Tellingsprosedyrer:</text><text x="410" y="160" fill="#374151" font-family="Arial, sans-serif" font-size="9">• Cycle counting (kontinuerlig)</text><text x="410" y="173" fill="#374151" font-family="Arial, sans-serif" font-size="9">• Årlig hovedinventur</text><text x="410" y="186" fill="#374151" font-family="Arial, sans-serif" font-size="9">• Avviksbehandling</text><rect width="170" height="120" x="30" y="210" fill="#fef3c7" stroke="#f59e0b" stroke-width="2" rx="8"/><text x="115" y="235" fill="#92400e" font-family="Arial, sans-serif" font-size="14" font-weight="bold" text-anchor="middle">KVALITETSSIKRING</text><circle cx="115" cy="250" r="15" fill="#f59e0b"/><text x="115" y="257" fill="#fff" font-family="Arial, sans-serif" font-size="12" font-weight="bold" text-anchor="middle">Q</text><text x="40" y="280" fill="#92400e" font-family="Arial, sans-serif" font-size="11" font-weight="bold">Kontrollrutiner:</text><text x="40" y="295" fill="#374151" font-family="Arial, sans-serif" font-size="9">• Mottakskontroll</text><text x="40" y="308" fill="#374151" font-family="Arial, sans-serif" font-size="9">• Kvalitetsinspeksjon</text><text x="40" y="321" fill="#374151" font-family="Arial, sans-serif" font-size="9">• Dokumentasjon av avvik</text><rect width="170" height="120" x="215" y="210" fill="#f3e8ff" stroke="#a855f7" stroke-width="2" rx="8"/><text x="300" y="235" fill="#7c3aed" font-family="Arial, sans-serif" font-size="14" font-weight="bold" text-anchor="middle">RISIKOSTYRING</text><path fill="#fff" stroke="#a855f7" d="M280 245h40v30h-40z"/><path fill="#ef4444" d="M280 245h20v15h-20z"/><path fill="#f59e0b" d="M300 245h20v15h-20zM280 260h20v15h-20z"/><path fill="#22c55e" d="M300 260h20v15h-20z"/><text x="225" y="290" fill="#7c3aed" font-family="Arial, sans-serif" font-size="11" font-weight="bold">Risikoområder:</text><text x="225" y="305" fill="#374151" font-family="Arial, sans-serif" font-size="9">• Tyveri og svinn</text><text x="225" y="318" fill="#374151" font-family="Arial, sans-serif" font-size="9">• Brann og skade</text><text x="225" y="331" fill="#374151" font-family="Arial, sans-serif" font-size="9">• Systemfeil</text><rect width="170" height="120" x="400" y="210" fill="#ecfdf5" stroke="#10b981" stroke-width="2" rx="8"/><text x="485" y="235" fill="#047857" font-family="Arial, sans-serif" font-size="14" font-weight="bold" text-anchor="middle">DOKUMENTASJON</text><path fill="#fff" stroke="#10b981" d="M470 245h30v25h-30z"/><path fill="#fff" stroke="#10b981" d="M472 243h30v25h-30z"/><path fill="#fff" stroke="#10b981" d="M474 241h30v25h-30z"/><path fill="#10b981" d="M478 250h20v2h-20zM478 255h15v2h-15zM478 260h18v2h-18z"/><text x="410" y="280" fill="#047857" font-family="Arial, sans-serif" font-size="11" font-weight="bold">Dokumentasjonskrav:</text><text x="410" y="295" fill="#374151" font-family="Arial, sans-serif" font-size="9">• Avviksrapporter</text><text x="410" y="308" fill="#374151" font-family="Arial, sans-serif" font-size="9">• Tellingsresultater</text><text x="410" y="321" fill="#374151" font-family="Arial, sans-serif" font-size="9">• Kontrolllogger</text><rect width="300" height="40" x="150" y="350" fill="#f8fafc" stroke="#64748b" stroke-width="2" rx="8"/><text x="300" y="370" fill="#475569" font-family="Arial, sans-serif" font-size="14" font-weight="bold" text-anchor="middle">INTEGRERT KONTROLLRAMMEVERK</text><text x="300" y="385" fill="#6b7280" font-family="Arial, sans-serif" font-size="10" text-anchor="middle">Kontinuerlig overvåkning • Regelmessig evaluering • Forbedring av prosesser</text><path stroke="#64748b" stroke-dasharray="3,3" d="m115 195 135 160M300 195v160M485 195 350 355M115 335l135 40M300 335v40M485 335l-135 40"/></svg>