<svg xmlns="http://www.w3.org/2000/svg" width="600" height="400" viewBox="0 0 600 400"><defs><linearGradient id="a" x1="0%" x2="100%" y1="0%" y2="0%"><stop offset="0%" style="stop-color:#0f766e;stop-opacity:1"/><stop offset="100%" style="stop-color:#14b8a6;stop-opacity:1"/></linearGradient></defs><path fill="#fff" d="M0 0h600v400H0z"/><path fill="url(#a)" d="M0 0h600v50H0z"/><text x="300" y="30" fill="#fff" font-family="Arial, sans-serif" font-size="18" font-weight="bold" text-anchor="middle">Kvalitetssikring i Lageroperasjoner</text><rect width="130" height="100" x="30" y="80" fill="#ecfdf5" stroke="#10b981" stroke-width="2" rx="8"/><text x="95" y="105" fill="#047857" font-family="Arial, sans-serif" font-size="12" font-weight="bold" text-anchor="middle">MOTTAKSKONTROLL</text><rect width="50" height="35" x="70" y="115" fill="#fff" stroke="#10b981" rx="3"/><circle cx="80" cy="125" r="2" fill="#22c55e"/><text x="85" y="128" fill="#374151" font-family="Arial, sans-serif" font-size="8">Kvantitet</text><circle cx="80" cy="135" r="2" fill="#22c55e"/><text x="85" y="138" fill="#374151" font-family="Arial, sans-serif" font-size="8">Kvalitet</text><circle cx="80" cy="145" r="2" fill="#f59e0b"/><text x="85" y="148" fill="#374151" font-family="Arial, sans-serif" font-size="8">Dokument</text><text x="40" y="165" fill="#047857" font-family="Arial, sans-serif" font-size="10" font-weight="bold">Kontrollpunkter:</text><text x="40" y="177" fill="#374151" font-family="Arial, sans-serif" font-size="8">• Visuell inspeksjon</text><text x="40" y="187" fill="#374151" font-family="Arial, sans-serif" font-size="8">• Dimensjonskontroll</text><text x="40" y="197" fill="#374151" font-family="Arial, sans-serif" font-size="8">• Dokumentverifikasjon</text><path fill="none" stroke="#374151" stroke-width="2" marker-end="url(#b)" d="M165 130h20"/><rect width="130" height="100" x="190" y="80" fill="#fef3c7" stroke="#f59e0b" stroke-width="2" rx="8"/><text x="255" y="105" fill="#92400e" font-family="Arial, sans-serif" font-size="12" font-weight="bold" text-anchor="middle">STIKKPRØVEKONTROLL</text><path fill="#f59e0b" stroke="#d97706" d="M230 115h12v12h-12zM245 115h12v12h-12zM260 115h12v12h-12zM230 130h12v12h-12zM260 130h12v12h-12z"/><text x="200" y="155" fill="#92400e" font-family="Arial, sans-serif" font-size="10" font-weight="bold">Stikkprøveplan:</text><text x="200" y="167" fill="#374151" font-family="Arial, sans-serif" font-size="8">• AQL-standard</text><text x="200" y="177" fill="#374151" font-family="Arial, sans-serif" font-size="8">• Statistisk sampling</text><text x="200" y="187" fill="#374151" font-family="Arial, sans-serif" font-size="8">• Risikobasert utvelgelse</text><path fill="none" stroke="#374151" stroke-width="2" marker-end="url(#b)" d="M325 130h20"/><rect width="130" height="100" x="350" y="80" fill="#dbeafe" stroke="#3b82f6" stroke-width="2" rx="8"/><text x="415" y="105" fill="#1e40af" font-family="Arial, sans-serif" font-size="12" font-weight="bold" text-anchor="middle">TESTING/ANALYSE</text><rect width="40" height="25" x="395" y="115" fill="#3b82f6" rx="3"/><path fill="#fff" d="M400 120h30v3h-30zM400 125h25v3h-25zM400 130h20v3h-20z"/><circle cx="425" cy="125" r="3" fill="#22c55e"/><text x="360" y="155" fill="#1e40af" font-family="Arial, sans-serif" font-size="10" font-weight="bold">Testmetoder:</text><text x="360" y="167" fill="#374151" font-family="Arial, sans-serif" font-size="8">• Funksjonstesting</text><text x="360" y="177" fill="#374151" font-family="Arial, sans-serif" font-size="8">• Materialanalyse</text><text x="360" y="187" fill="#374151" font-family="Arial, sans-serif" font-size="8">• Sertifikatverifikasjon</text><path fill="none" stroke="#374151" stroke-width="2" marker-end="url(#b)" d="M485 130h20"/><rect width="60" height="100" x="510" y="80" fill="#f3e8ff" stroke="#a855f7" stroke-width="2" rx="8"/><text x="540" y="105" fill="#7c3aed" font-family="Arial, sans-serif" font-size="12" font-weight="bold" text-anchor="middle">BESLUTNING</text><path fill="#a855f7" d="m540 120-15 15 15 15 15-15z"/><text x="540" y="138" fill="#fff" font-family="Arial, sans-serif" font-size="8" text-anchor="middle">OK?</text><text x="518" y="165" fill="#7c3aed" font-family="Arial, sans-serif" font-size="9" font-weight="bold">Alternativer:</text><text x="518" y="177" fill="#374151" font-family="Arial, sans-serif" font-size="8">• Godkjenn</text><text x="518" y="187" fill="#374151" font-family="Arial, sans-serif" font-size="8">• Avvis/Retur</text><path fill="none" stroke="#22c55e" stroke-width="2" marker-end="url(#c)" d="M540 185v20"/><rect width="120" height="60" x="480" y="210" fill="#dcfce7" stroke="#16a34a" stroke-width="2" rx="8"/><text x="540" y="235" fill="#15803d" font-family="Arial, sans-serif" font-size="12" font-weight="bold" text-anchor="middle">GODKJENT LAGER</text><rect width="15" height="15" x="500" y="245" fill="#16a34a" rx="2"/><rect width="15" height="15" x="520" y="245" fill="#16a34a" rx="2"/><rect width="15" height="15" x="540" y="245" fill="#16a34a" rx="2"/><rect width="15" height="15" x="560" y="245" fill="#16a34a" rx="2"/><path fill="none" stroke="#ef4444" stroke-width="2" marker-end="url(#d)" d="M525 135h-45v30"/><rect width="120" height="60" x="400" y="210" fill="#fef2f2" stroke="#ef4444" stroke-width="2" rx="8"/><text x="460" y="235" fill="#dc2626" font-family="Arial, sans-serif" font-size="12" font-weight="bold" text-anchor="middle">AVVIKSHÅNDTERING</text><text x="410" y="250" fill="#dc2626" font-family="Arial, sans-serif" font-size="9" font-weight="bold">Tiltak:</text><text x="410" y="262" fill="#374151" font-family="Arial, sans-serif" font-size="8">• Leverandørvarsel</text><text x="410" y="272" fill="#374151" font-family="Arial, sans-serif" font-size="8">• Returprosess</text><rect width="120" height="60" x="280" y="210" fill="#f0f9ff" stroke="#0ea5e9" stroke-width="2" rx="8"/><text x="340" y="235" fill="#0c4a6e" font-family="Arial, sans-serif" font-size="12" font-weight="bold" text-anchor="middle">DOKUMENTASJON</text><path fill="#fff" stroke="#0ea5e9" d="M325 245h30v20h-30z"/><path fill="#0ea5e9" d="M330 250h20v2h-20zM330 255h15v2h-15zM330 260h18v2h-18z"/><rect width="120" height="60" x="30" y="300" fill="#fefce8" stroke="#eab308" stroke-width="2" rx="8"/><text x="90" y="325" fill="#a16207" font-family="Arial, sans-serif" font-size="12" font-weight="bold" text-anchor="middle">KONTINUERLIG</text><text x="90" y="340" fill="#a16207" font-family="Arial, sans-serif" font-size="12" font-weight="bold" text-anchor="middle">FORBEDRING</text><circle cx="90" cy="350" r="8" fill="none" stroke="#eab308" stroke-width="2"/><path stroke="#eab308" stroke-width="2" marker-end="url(#e)" d="M85 345h10"/><rect width="120" height="60" x="160" y="300" fill="#e0e7ff" stroke="#6366f1" stroke-width="2" rx="8"/><text x="220" y="325" fill="#4338ca" font-family="Arial, sans-serif" font-size="12" font-weight="bold" text-anchor="middle">LEVERANDØR</text><text x="220" y="340" fill="#4338ca" font-family="Arial, sans-serif" font-size="12" font-weight="bold" text-anchor="middle">TILBAKEMELDING</text><path fill="none" stroke="#6366f1" stroke-width="2" d="M220 355v20M210 375h20M215 370l5 5 5-5"/><path stroke="#64748b" stroke-dasharray="3,3" d="m460 275-120 30M340 275v30M340 275l-120 30M155 240l-65 65"/><defs><marker id="b" markerHeight="6" markerWidth="8" orient="auto" refX="8" refY="3"><path fill="#374151" d="m0 0 8 3-8 3z"/></marker><marker id="c" markerHeight="6" markerWidth="8" orient="auto" refX="8" refY="3"><path fill="#22c55e" d="m0 0 8 3-8 3z"/></marker><marker id="d" markerHeight="6" markerWidth="8" orient="auto" refX="8" refY="3"><path fill="#ef4444" d="m0 0 8 3-8 3z"/></marker><marker id="e" markerHeight="6" markerWidth="8" orient="auto" refX="8" refY="3"><path fill="#eab308" d="m0 0 8 3-8 3z"/></marker></defs></svg>