<svg width="550" height="400" viewBox="0 0 550 400" xmlns="http://www.w3.org/2000/svg">
  <defs>
    <linearGradient id="processGrad" x1="0%" y1="0%" x2="100%" y2="0%">
      <stop offset="0%" style="stop-color:#1e40af;stop-opacity:1" />
      <stop offset="100%" style="stop-color:#3b82f6;stop-opacity:1" />
    </linearGradient>
  </defs>
  

  <rect width="550" height="400" fill="#ffffff"/>
  

  <rect x="0" y="0" width="550" height="50" fill="url(#processGrad)"/>
  <text x="275" y="30" text-anchor="middle" fill="white" font-family="Arial, sans-serif" font-size="18" font-weight="bold">Prosess for Lagerendringer og Justeringer</text>
  

  <rect x="30" y="80" width="120" height="100" fill="#fef3c7" stroke="#f59e0b" stroke-width="2" rx="8"/>
  <text x="90" y="105" text-anchor="middle" fill="#92400e" font-family="Arial, sans-serif" font-size="12" font-weight="bold">1. OPPDAGELSE</text>
  
  <circle cx="70" cy="125" r="8" fill="#f59e0b"/>
  <text x="85" y="130" fill="#374151" font-family="Arial, sans-serif" font-size="9">Lagertelling</text>
  
  <circle cx="70" cy="145" r="8" fill="#f59e0b"/>
  <text x="85" y="150" fill="#374151" font-family="Arial, sans-serif" font-size="9">Systemavvik</text>
  
  <circle cx="70" cy="165" r="8" fill="#f59e0b"/>
  <text x="85" y="170" fill="#374151" font-family="Arial, sans-serif" font-size="9">Skademelding</text>
  

  <path d="M155 130 L175 130" stroke="#374151" stroke-width="2" fill="none" marker-end="url(#arrow)"/>
  

  <rect x="180" y="80" width="120" height="100" fill="#dbeafe" stroke="#3b82f6" stroke-width="2" rx="8"/>
  <text x="240" y="105" text-anchor="middle" fill="#1e40af" font-family="Arial, sans-serif" font-size="12" font-weight="bold">2. UNDERSØKELSE</text>
  
  <text x="190" y="125" fill="#374151" font-family="Arial, sans-serif" font-size="9">• Årsaksanalyse</text>
  <text x="190" y="140" fill="#374151" font-family="Arial, sans-serif" font-size="9">• Dokumentasjon</text>
  <text x="190" y="155" fill="#374151" font-family="Arial, sans-serif" font-size="9">• Verifiksjon</text>
  <text x="190" y="170" fill="#374151" font-family="Arial, sans-serif" font-size="9">• Ansvarsvurdering</text>
  

  <path d="M305 130 L325 130" stroke="#374151" stroke-width="2" fill="none" marker-end="url(#arrow)"/>
  

  <rect x="330" y="80" width="120" height="100" fill="#dcfce7" stroke="#16a34a" stroke-width="2" rx="8"/>
  <text x="390" y="105" text-anchor="middle" fill="#15803d" font-family="Arial, sans-serif" font-size="12" font-weight="bold">3. DOKUMENTASJON</text>
  
  <text x="340" y="125" fill="#374151" font-family="Arial, sans-serif" font-size="9">• Avviksrapport</text>
  <text x="340" y="140" fill="#374151" font-family="Arial, sans-serif" font-size="9">• Fotografier</text>
  <text x="340" y="155" fill="#374151" font-family="Arial, sans-serif" font-size="9">• Vitnemål</text>
  <text x="340" y="170" fill="#374151" font-family="Arial, sans-serif" font-size="9">• Godkjenning</text>
  

  <path d="M390 185 L390 205" stroke="#374151" stroke-width="2" fill="none" marker-end="url(#arrow)"/>
  

  <rect x="330" y="210" width="120" height="100" fill="#fef2f2" stroke="#ef4444" stroke-width="2" rx="8"/>
  <text x="390" y="235" text-anchor="middle" fill="#dc2626" font-family="Arial, sans-serif" font-size="12" font-weight="bold">4. REGNSKAPSFØRING</text>
  
  <text x="340" y="255" fill="#374151" font-family="Arial, sans-serif" font-size="9">• Bilagsregistrering</text>
  <text x="340" y="270" fill="#374151" font-family="Arial, sans-serif" font-size="9">• Systemoppdatering</text>
  <text x="340" y="285" fill="#374151" font-family="Arial, sans-serif" font-size="9">• Lagerverdi justert</text>
  <text x="340" y="300" fill="#374151" font-family="Arial, sans-serif" font-size="9">• Rapportering</text>
  

  <path d="M325 260 L305 260" stroke="#374151" stroke-width="2" fill="none" marker-end="url(#arrow)"/>
  

  <rect x="180" y="210" width="120" height="100" fill="#f3e8ff" stroke="#a855f7" stroke-width="2" rx="8"/>
  <text x="240" y="235" text-anchor="middle" fill="#7c3aed" font-family="Arial, sans-serif" font-size="12" font-weight="bold">5. OPPFØLGING</text>
  
  <text x="190" y="255" fill="#374151" font-family="Arial, sans-serif" font-size="9">• Prosessforbedring</text>
  <text x="190" y="270" fill="#374151" font-family="Arial, sans-serif" font-size="9">• Preventive tiltak</text>
  <text x="190" y="285" fill="#374151" font-family="Arial, sans-serif" font-size="9">• Opplæring</text>
  <text x="190" y="300" fill="#374151" font-family="Arial, sans-serif" font-size="9">• Trendanalyse</text>
  

  <path d="M175 260 L155 260" stroke="#374151" stroke-width="2" fill="none" marker-end="url(#arrow)"/>
  

  <rect x="30" y="210" width="120" height="100" fill="#ecfdf5" stroke="#10b981" stroke-width="2" rx="8"/>
  <text x="90" y="235" text-anchor="middle" fill="#047857" font-family="Arial, sans-serif" font-size="12" font-weight="bold">6. FOREBYGGING</text>
  
  <text x="40" y="255" fill="#374151" font-family="Arial, sans-serif" font-size="9">• Kontrollrutiner</text>
  <text x="40" y="270" fill="#374151" font-family="Arial, sans-serif" font-size="9">• Systemforbedring</text>
  <text x="40" y="285" fill="#374151" font-family="Arial, sans-serif" font-size="9">• Kompetanseheving</text>
  <text x="40" y="300" fill="#374151" font-family="Arial, sans-serif" font-size="9">• Teknologi</text>
  

  <rect x="200" y="330" width="150" height="50" fill="#f8fafc" stroke="#64748b" stroke-width="2" rx="6"/>
  <text x="275" y="350" text-anchor="middle" fill="#475569" font-family="Arial, sans-serif" font-size="12" font-weight="bold">SENTRAL DOKUMENTASJON</text>
  <text x="275" y="365" text-anchor="middle" fill="#6b7280" font-family="Arial, sans-serif" font-size="10">Avvikslogg • Trendanalyse • KPI</text>
  

  <path d="M90 315 L230 335" stroke="#64748b" stroke-width="1" stroke-dasharray="3,3" fill="none"/>
  <path d="M240 315 L265 335" stroke="#64748b" stroke-width="1" stroke-dasharray="3,3" fill="none"/>
  <path d="M390 315 L310 335" stroke="#64748b" stroke-width="1" stroke-dasharray="3,3" fill="none"/>
  

  <defs>
    <marker id="arrow" markerWidth="8" markerHeight="6" refX="8" refY="3" orient="auto">
      <polygon points="0 0, 8 3, 0 6" fill="#374151"/>
    </marker>
  </defs>
</svg>