<svg xmlns="http://www.w3.org/2000/svg" width="800" height="650"><defs><style>.header,.subheader{font-family:Arial,sans-serif;font-size:16px;font-weight:700;fill:#34495e}.subheader{font-size:14px}.text{font-size:12px;fill:#34495e}.feature,.price,.text{font-family:Arial,sans-serif}.price{font-size:12px;font-weight:700;fill:#e74c3c}.feature{font-size:11px;fill:#27ae60}</style></defs><path fill="#fff" d="M0 0h800v650H0z"/><text x="400" y="30" style="font-family:Arial,sans-serif;font-size:20px;font-weight:700;fill:#2c3e50" text-anchor="middle">Digitale Verktøy for Q-ratio Analyse</text><text x="400" y="55" class="text" text-anchor="middle">Moderne plattformer og teknologier for automatisert verdivurdering</text><rect width="340" height="160" x="50" y="80" rx="10" style="fill:#fadbd8;stroke:#e74c3c;stroke-width:2"/><text x="220" y="105" class="header" text-anchor="middle">Enterprise Data Plattformer</text><rect width="140" height="100" x="70" y="120" fill="#fff" stroke="#e74c3c" rx="5"/><text x="140" y="140" class="subheader" text-anchor="middle">Bloomberg Terminal</text><text x="80" y="160" class="feature">✓ Real-time Q-ratio data</text><text x="80" y="175" class="feature">✓ Historical comparisons</text><text x="80" y="190" class="feature">✓ Sector analysis</text><text x="80" y="205" class="feature">✓ API integration</text><text x="140" y="220" class="price" text-anchor="middle">$2,000+/måned</text><rect width="140" height="100" x="230" y="120" fill="#fff" stroke="#e74c3c" rx="5"/><text x="300" y="140" class="subheader" text-anchor="middle">FactSet</text><text x="240" y="160" class="feature">✓ Advanced analytics</text><text x="240" y="175" class="feature">✓ Custom screening</text><text x="240" y="190" class="feature">✓ Portfolio tools</text><text x="240" y="205" class="feature">✓ Risk management</text><text x="300" y="220" class="price" text-anchor="middle">$1,500+/måned</text><rect width="340" height="160" x="410" y="80" rx="10" style="fill:#e8f4f8;stroke:#3498db;stroke-width:2"/><text x="580" y="105" class="header" text-anchor="middle">Mid-tier Løsninger</text><rect width="140" height="100" x="430" y="120" fill="#fff" stroke="#3498db" rx="5"/><text x="500" y="140" class="subheader" text-anchor="middle">Refinitiv Eikon</text><text x="440" y="160" class="feature">✓ Market screening</text><text x="440" y="175" class="feature">✓ Fundamental data</text><text x="440" y="190" class="feature">✓ Excel integration</text><text x="440" y="205" class="feature">✓ Charting tools</text><text x="500" y="220" class="price" text-anchor="middle">$500-800/måned</text><rect width="140" height="100" x="590" y="120" fill="#fff" stroke="#3498db" rx="5"/><text x="660" y="140" class="subheader" text-anchor="middle">S&amp;P Capital IQ</text><text x="600" y="160" class="feature">✓ Company analysis</text><text x="600" y="175" class="feature">✓ Comparable analysis</text><text x="600" y="190" class="feature">✓ M&amp;A data</text><text x="600" y="205" class="feature">✓ Credit analysis</text><text x="660" y="220" class="price" text-anchor="middle">$400-600/måned</text><rect width="700" height="140" x="50" y="260" rx="10" style="fill:#d5f4e6;stroke:#27ae60;stroke-width:2"/><text x="400" y="285" class="header" text-anchor="middle">Gratis og Lavkost Alternativer</text><rect width="120" height="80" x="80" y="300" fill="#fff" stroke="#27ae60" rx="5"/><text x="140" y="320" class="subheader" text-anchor="middle">Yahoo Finance</text><text x="90" y="340" class="feature">✓ Basic ratios</text><text x="90" y="355" class="feature">✓ Historical data</text><text x="90" y="370" class="feature">✓ API access</text><text x="140" y="385" class="price" text-anchor="middle">Gratis</text><rect width="120" height="80" x="220" y="300" fill="#fff" stroke="#27ae60" rx="5"/><text x="280" y="320" class="subheader" text-anchor="middle">Google Finance</text><text x="230" y="340" class="feature">✓ Market overview</text><text x="230" y="355" class="feature">✓ Basic screening</text><text x="230" y="370" class="feature">✓ Portfolio tracking</text><text x="280" y="385" class="price" text-anchor="middle">Gratis</text><rect width="120" height="80" x="360" y="300" fill="#fff" stroke="#27ae60" rx="5"/><text x="420" y="320" class="subheader" text-anchor="middle">FRED (St. Louis Fed)</text><text x="370" y="340" class="feature">✓ Aggregate Q-ratio</text><text x="370" y="355" class="feature">✓ Economic data</text><text x="370" y="370" class="feature">✓ Research data</text><text x="420" y="385" class="price" text-anchor="middle">Gratis</text><rect width="120" height="80" x="500" y="300" fill="#fff" stroke="#27ae60" rx="5"/><text x="560" y="320" class="subheader" text-anchor="middle">Morningstar</text><text x="510" y="340" class="feature">✓ Fund analysis</text><text x="510" y="355" class="feature">✓ Stock research</text><text x="510" y="370" class="feature">✓ Limited free data</text><text x="560" y="385" class="price" text-anchor="middle">Freemium</text><rect width="120" height="80" x="640" y="300" fill="#fff" stroke="#27ae60" rx="5"/><text x="700" y="320" class="subheader" text-anchor="middle">TradingView</text><text x="650" y="340" class="feature">✓ Charting tools</text><text x="650" y="355" class="feature">✓ Technical analysis</text><text x="650" y="370" class="feature">✓ Community features</text><text x="700" y="385" class="price" text-anchor="middle">$15-60/måned</text><rect width="700" height="140" x="50" y="420" rx="10" style="fill:#fef9e7;stroke:#f39c12;stroke-width:2"/><text x="400" y="445" class="header" text-anchor="middle">Moderne Teknologi Integrasjon</text><rect width="150" height="80" x="80" y="460" fill="#fff" stroke="#f39c12" rx="5"/><text x="155" y="480" class="subheader" text-anchor="middle">AI/ML Platforms</text><text x="90" y="500" class="text">• Automated screening</text><text x="90" y="515" class="text">• Pattern recognition</text><text x="90" y="530" class="text">• Predictive models</text><rect width="150" height="80" x="250" y="460" fill="#fff" stroke="#f39c12" rx="5"/><text x="325" y="480" class="subheader" text-anchor="middle">Cloud Computing</text><text x="260" y="500" class="text">• Scalable processing</text><text x="260" y="515" class="text">• Real-time updates</text><text x="260" y="530" class="text">• Global accessibility</text><rect width="150" height="80" x="420" y="460" fill="#fff" stroke="#f39c12" rx="5"/><text x="495" y="480" class="subheader" text-anchor="middle">API Integration</text><text x="430" y="500" class="text">• Custom applications</text><text x="430" y="515" class="text">• Automated workflows</text><text x="430" y="530" class="text">• Third-party connectors</text><rect width="150" height="80" x="590" y="460" fill="#fff" stroke="#f39c12" rx="5"/><text x="665" y="480" class="subheader" text-anchor="middle">RegTech</text><text x="600" y="500" class="text">• Compliance monitoring</text><text x="600" y="515" class="text">• Risk management</text><text x="600" y="530" class="text">• Regulatory reporting</text><rect width="700" height="60" x="50" y="580" fill="#f8f9fa" stroke="#6c757d" rx="8"/><text x="400" y="605" class="header" text-anchor="middle">Implementeringsguide for Q-ratio Verktøy</text><text x="100" y="625" class="text">1. Start med gratis verktøy for grunnleggende analyse</text><text x="450" y="625" class="text">2. Oppgrader til premium når volum øker</text><text x="100" y="640" class="text">3. Integrer med eksisterende systemer via API</text><text x="450" y="640" class="text">4. Automatiser rutineoppgaver og rapportering</text></svg>