<svg xmlns="http://www.w3.org/2000/svg" width="800" height="600"><defs><linearGradient id="a" x1="0%" x2="100%" y1="0%" y2="100%"><stop offset="0%" style="stop-color:#f8fafe;stop-opacity:1"/><stop offset="100%" style="stop-color:#e8f2ff;stop-opacity:1"/></linearGradient><filter id="b" width="140%" height="140%" x="-20%" y="-20%"><feDropShadow dx="2" dy="2" flood-opacity=".3" stdDeviation="3"/></filter></defs><path fill="url(#a)" d="M0 0h800v600H0z"/><text x="400" y="35" fill="#1f2937" font-family="Arial, sans-serif" font-size="24" font-weight="bold" text-anchor="middle">Internasjonale Standarder for Proformafaktura</text><circle cx="400" cy="200" r="60" fill="#fff" stroke="#3b82f6" stroke-width="3" filter="url(#b)"/><ellipse cx="400" cy="200" fill="none" stroke="#3b82f6" rx="60" ry="30"/><ellipse cx="400" cy="200" fill="none" stroke="#3b82f6" rx="60" ry="45"/><path stroke="#3b82f6" d="M340 200h120M400 140v120"/><path fill="#10b981" d="M380 180q10-5 20 0 10-5 20 0-5 10-20 5-15 5-20-5M385 210q10-5 20 0-5 10-20 0M410 220q10-5 15 0-5 10-15 0"/><text x="400" y="207" fill="#1e40af" font-family="Arial, sans-serif" font-size="12" font-weight="bold" text-anchor="middle">GLOBAL</text><rect width="140" height="80" x="150" y="80" fill="#dbeafe" stroke="#3b82f6" stroke-width="2" filter="url(#b)" rx="8"/><text x="220" y="105" fill="#1e40af" font-family="Arial, sans-serif" font-size="14" font-weight="bold" text-anchor="middle">WTO</text><text x="220" y="120" fill="#1e40af" font-family="Arial, sans-serif" font-size="11" text-anchor="middle">Verdens Handelsorganisasjon</text><text x="160" y="140" fill="#3b82f6" font-family="Arial, sans-serif" font-size="10">• Handelsfasilitering</text><text x="160" y="155" fill="#3b82f6" font-family="Arial, sans-serif" font-size="10">• Standardisering</text><rect width="140" height="80" x="510" y="80" fill="#dcfce7" stroke="#10b981" stroke-width="2" filter="url(#b)" rx="8"/><text x="580" y="105" fill="#065f46" font-family="Arial, sans-serif" font-size="14" font-weight="bold" text-anchor="middle">UNCITRAL</text><text x="580" y="120" fill="#065f46" font-family="Arial, sans-serif" font-size="11" text-anchor="middle">FN Handelsrett</text><text x="520" y="140" fill="#10b981" font-family="Arial, sans-serif" font-size="10">• Juridisk rammeverk</text><text x="520" y="155" fill="#10b981" font-family="Arial, sans-serif" font-size="10">• Elektronisk handel</text><rect width="140" height="80" x="80" y="250" fill="#fef3c7" stroke="#f59e0b" stroke-width="2" filter="url(#b)" rx="8"/><text x="150" y="275" fill="#92400e" font-family="Arial, sans-serif" font-size="14" font-weight="bold" text-anchor="middle">ICC</text><text x="150" y="290" fill="#92400e" font-family="Arial, sans-serif" font-size="11" text-anchor="middle">Internasjonalt Handelskammer</text><text x="90" y="310" fill="#f59e0b" font-family="Arial, sans-serif" font-size="10">• Incoterms</text><text x="90" y="325" fill="#f59e0b" font-family="Arial, sans-serif" font-size="10">• UCP 600 regler</text><rect width="140" height="80" x="580" y="250" fill="#f3e8ff" stroke="#8b5cf6" stroke-width="2" filter="url(#b)" rx="8"/><text x="650" y="275" fill="#5b21b6" font-family="Arial, sans-serif" font-size="14" font-weight="bold" text-anchor="middle">UN/CEFACT</text><text x="650" y="290" fill="#5b21b6" font-family="Arial, sans-serif" font-size="11" text-anchor="middle">FN Handelsfasilitering</text><text x="590" y="310" fill="#8b5cf6" font-family="Arial, sans-serif" font-size="10">• EDI standarder</text><text x="590" y="325" fill="#8b5cf6" font-family="Arial, sans-serif" font-size="10">• Dokumentstandard</text><rect width="140" height="80" x="150" y="380" fill="#fecaca" stroke="#ef4444" stroke-width="2" filter="url(#b)" rx="8"/><text x="220" y="405" fill="#991b1b" font-family="Arial, sans-serif" font-size="14" font-weight="bold" text-anchor="middle">ISO</text><text x="220" y="420" fill="#991b1b" font-family="Arial, sans-serif" font-size="11" text-anchor="middle">Internasjonale Standarder</text><text x="160" y="440" fill="#ef4444" font-family="Arial, sans-serif" font-size="10">• ISO 20022</text><text x="160" y="455" fill="#ef4444" font-family="Arial, sans-serif" font-size="10">• Meldingsformater</text><rect width="140" height="80" x="510" y="380" fill="#e0f2fe" stroke="#0891b2" stroke-width="2" filter="url(#b)" rx="8"/><text x="580" y="405" fill="#164e63" font-family="Arial, sans-serif" font-size="14" font-weight="bold" text-anchor="middle">SWIFT</text><text x="580" y="420" fill="#164e63" font-family="Arial, sans-serif" font-size="11" text-anchor="middle">Finansnettverket</text><text x="520" y="440" fill="#0891b2" font-family="Arial, sans-serif" font-size="10">• MT serier</text><text x="520" y="455" fill="#0891b2" font-family="Arial, sans-serif" font-size="10">• Meldingsstandarder</text><path stroke="#6b7280" stroke-dasharray="3,3" stroke-width="2" d="m340 170-50-50M460 170l50-50M340 200l-120 90M460 200l120 90M340 230l-50 190M460 230l50 190"/><rect width="300" height="70" x="250" y="520" fill="#fff" stroke="#374151" stroke-width="2" filter="url(#b)" rx="8"/><text x="400" y="540" fill="#1f2937" font-family="Arial, sans-serif" font-size="14" font-weight="bold" text-anchor="middle">Viktige Standarder for Proformafaktura</text><text x="260" y="560" fill="#374151" font-family="Arial, sans-serif" font-size="11">• UCP 600: Ensartede regler for remburs</text><text x="260" y="575" fill="#374151" font-family="Arial, sans-serif" font-size="11">• Incoterms 2020: Internasjonale leveringsbetingelser</text><rect width="180" height="80" x="50" y="490" fill="#f0f9ff" stroke="#0ea5e9" rx="6"/><text x="140" y="510" fill="#0c4a6e" font-family="Arial, sans-serif" font-size="12" font-weight="bold" text-anchor="middle">Fordeler</text><text x="60" y="530" fill="#0ea5e9" font-family="Arial, sans-serif" font-size="10">• Reduserte handelshindringer</text><text x="60" y="545" fill="#0ea5e9" font-family="Arial, sans-serif" font-size="10">• Økt transparens</text><text x="60" y="560" fill="#0ea5e9" font-family="Arial, sans-serif" font-size="10">• Enklere grensepassering</text><rect width="180" height="80" x="570" y="490" fill="#f0fdf4" stroke="#22c55e" rx="6"/><text x="660" y="510" fill="#14532d" font-family="Arial, sans-serif" font-size="12" font-weight="bold" text-anchor="middle">Implementering</text><text x="580" y="530" fill="#22c55e" font-family="Arial, sans-serif" font-size="10">• Harmoniserte formater</text><text x="580" y="545" fill="#22c55e" font-family="Arial, sans-serif" font-size="10">• Digitale løsninger</text><text x="580" y="560" fill="#22c55e" font-family="Arial, sans-serif" font-size="10">• Automatiserte systemer</text></svg>