<svg xmlns="http://www.w3.org/2000/svg" width="800" height="600"><defs><linearGradient id="a" x1="0%" x2="100%" y1="0%" y2="100%"><stop offset="0%" style="stop-color:#f8fafe;stop-opacity:1"/><stop offset="100%" style="stop-color:#e8f2ff;stop-opacity:1"/></linearGradient><marker id="c" markerHeight="7" markerWidth="10" orient="auto" refX="10" refY="3.5"><path fill="#6366f1" d="m0 0 10 3.5L0 7z"/></marker><filter id="b" width="140%" height="140%" x="-20%" y="-20%"><feDropShadow dx="2" dy="2" flood-opacity=".3" stdDeviation="3"/></filter></defs><path fill="url(#a)" d="M0 0h800v600H0z"/><text x="400" y="35" fill="#1f2937" font-family="Arial, sans-serif" font-size="24" font-weight="bold" text-anchor="middle">Oppfølging av Proformafakturaer</text><rect width="120" height="80" x="50" y="80" fill="#dbeafe" stroke="#3b82f6" stroke-width="2" filter="url(#b)" rx="8"/><text x="110" y="105" fill="#1e40af" font-family="Arial, sans-serif" font-size="12" font-weight="bold" text-anchor="middle">UTSTEDELSE</text><text x="110" y="125" fill="#3b82f6" font-family="Arial, sans-serif" font-size="10" text-anchor="middle">• Send til kunde</text><text x="110" y="140" fill="#3b82f6" font-family="Arial, sans-serif" font-size="10" text-anchor="middle">• Registrer i CRM</text><text x="110" y="155" fill="#3b82f6" font-family="Arial, sans-serif" font-size="10" text-anchor="middle">• Sett oppfølgingsdato</text><rect width="120" height="80" x="220" y="80" fill="#dcfce7" stroke="#10b981" stroke-width="2" filter="url(#b)" rx="8"/><text x="280" y="105" fill="#065f46" font-family="Arial, sans-serif" font-size="12" font-weight="bold" text-anchor="middle">OPPFØLGING</text><text x="280" y="125" fill="#10b981" font-family="Arial, sans-serif" font-size="10" text-anchor="middle">• Kunde respons</text><text x="280" y="140" fill="#10b981" font-family="Arial, sans-serif" font-size="10" text-anchor="middle">• Spørsmål &amp; klargjøring</text><text x="280" y="155" fill="#10b981" font-family="Arial, sans-serif" font-size="10" text-anchor="middle">• Forhandlinger</text><rect width="120" height="80" x="390" y="80" fill="#fef3c7" stroke="#f59e0b" stroke-width="2" filter="url(#b)" rx="8"/><text x="450" y="105" fill="#92400e" font-family="Arial, sans-serif" font-size="12" font-weight="bold" text-anchor="middle">REVISJON</text><text x="450" y="125" fill="#f59e0b" font-family="Arial, sans-serif" font-size="10" text-anchor="middle">• Prisendringer</text><text x="450" y="140" fill="#f59e0b" font-family="Arial, sans-serif" font-size="10" text-anchor="middle">• Spesifikasjoner</text><text x="450" y="155" fill="#f59e0b" font-family="Arial, sans-serif" font-size="10" text-anchor="middle">• Ny versjon</text><rect width="120" height="80" x="560" y="80" fill="#f3e8ff" stroke="#8b5cf6" stroke-width="2" filter="url(#b)" rx="8"/><text x="620" y="105" fill="#5b21b6" font-family="Arial, sans-serif" font-size="12" font-weight="bold" text-anchor="middle">KONVERTERING</text><text x="620" y="125" fill="#8b5cf6" font-family="Arial, sans-serif" font-size="10" text-anchor="middle">• Ordre bekreftet</text><text x="620" y="140" fill="#8b5cf6" font-family="Arial, sans-serif" font-size="10" text-anchor="middle">• Faktura utstedt</text><text x="620" y="155" fill="#8b5cf6" font-family="Arial, sans-serif" font-size="10" text-anchor="middle">• Leveringsplan</text><path fill="none" stroke="#6366f1" stroke-width="3" marker-end="url(#c)" d="M170 120h50"/><path fill="none" stroke="#6366f1" stroke-width="3" marker-end="url(#c)" d="M340 120h50"/><path fill="none" stroke="#6366f1" stroke-width="3" marker-end="url(#c)" d="M510 120h50"/><rect width="600" height="200" x="100" y="200" fill="#fff" stroke="#e5e7eb" stroke-width="2" filter="url(#b)" rx="12"/><text x="400" y="225" fill="#1f2937" font-family="Arial, sans-serif" font-size="18" font-weight="bold" text-anchor="middle">Oppfølgingsdashboard</text><rect width="250" height="140" x="120" y="240" fill="#f8fafc" stroke="#cbd5e1" rx="6"/><text x="245" y="260" fill="#334155" font-family="Arial, sans-serif" font-size="14" font-weight="bold" text-anchor="middle">Status Oversikt</text><rect width="150" height="15" x="130" y="275" fill="#e2e8f0" rx="3"/><rect width="90" height="15" x="130" y="275" fill="#3b82f6" rx="3"/><text x="290" y="287" fill="#475569" font-family="Arial, sans-serif" font-size="10">Ventende svar (60%)</text><rect width="150" height="15" x="130" y="300" fill="#e2e8f0" rx="3"/><rect width="45" height="15" x="130" y="300" fill="#10b981" rx="3"/><text x="290" y="312" fill="#475569" font-family="Arial, sans-serif" font-size="10">Under forhandling (30%)</text><rect width="150" height="15" x="130" y="325" fill="#e2e8f0" rx="3"/><rect width="15" height="15" x="130" y="325" fill="#8b5cf6" rx="3"/><text x="290" y="337" fill="#475569" font-family="Arial, sans-serif" font-size="10">Konvertert (10%)</text><rect width="150" height="15" x="130" y="350" fill="#e2e8f0" rx="3"/><rect width="75" height="15" x="130" y="350" fill="#ef4444" rx="3"/><text x="290" y="362" fill="#475569" font-family="Arial, sans-serif" font-size="10">Utløpt/Avvist (50%)</text><rect width="280" height="140" x="390" y="240" fill="#f8fafc" stroke="#cbd5e1" rx="6"/><text x="530" y="260" fill="#334155" font-family="Arial, sans-serif" font-size="14" font-weight="bold" text-anchor="middle">Handlingsområder</text><circle cx="410" cy="280" r="5" fill="#ef4444"/><text x="425" y="285" fill="#374151" font-family="Arial, sans-serif" font-size="11">15 proformafakturaer krever oppfølging</text><circle cx="410" cy="300" r="5" fill="#f59e0b"/><text x="425" y="305" fill="#374151" font-family="Arial, sans-serif" font-size="11">8 utløper i løpet av 7 dager</text><circle cx="410" cy="320" r="5" fill="#10b981"/><text x="425" y="325" fill="#374151" font-family="Arial, sans-serif" font-size="11">5 positive signaler for konvertering</text><circle cx="410" cy="340" r="5" fill="#3b82f6"/><text x="425" y="345" fill="#374151" font-family="Arial, sans-serif" font-size="11">3 nye forespørsler om prisrevisjon</text><circle cx="410" cy="360" r="5" fill="#8b5cf6"/><text x="425" y="365" fill="#374151" font-family="Arial, sans-serif" font-size="11">2 klare for ordre bekreftelse</text><rect width="600" height="120" x="100" y="430" fill="#fff" stroke="#e5e7eb" stroke-width="2" filter="url(#b)" rx="12"/><text x="400" y="455" fill="#1f2937" font-family="Arial, sans-serif" font-size="18" font-weight="bold" text-anchor="middle">Nøkkeltall og KPI</text><rect width="140" height="60" x="120" y="470" fill="#eff6ff" stroke="#3b82f6" rx="6"/><text x="190" y="490" fill="#1e40af" font-family="Arial, sans-serif" font-size="12" font-weight="bold" text-anchor="middle">Konverteringsrate</text><text x="190" y="510" fill="#3b82f6" font-family="Arial, sans-serif" font-size="20" font-weight="bold" text-anchor="middle">23%</text><text x="190" y="525" fill="#3b82f6" font-family="Arial, sans-serif" font-size="10" text-anchor="middle">↑ 3% fra forrige måned</text><rect width="140" height="60" x="280" y="470" fill="#f0fdf4" stroke="#10b981" rx="6"/><text x="350" y="490" fill="#065f46" font-family="Arial, sans-serif" font-size="12" font-weight="bold" text-anchor="middle">Gjennomsnittlig verdi</text><text x="350" y="510" fill="#10b981" font-family="Arial, sans-serif" font-size="18" font-weight="bold" text-anchor="middle">NOK 145K</text><text x="350" y="525" fill="#10b981" font-family="Arial, sans-serif" font-size="10" text-anchor="middle">↑ 12% fra forrige måned</text><rect width="140" height="60" x="440" y="470" fill="#fffbeb" stroke="#f59e0b" rx="6"/><text x="510" y="490" fill="#92400e" font-family="Arial, sans-serif" font-size="12" font-weight="bold" text-anchor="middle">Responstid</text><text x="510" y="510" fill="#f59e0b" font-family="Arial, sans-serif" font-size="20" font-weight="bold" text-anchor="middle">3.2 dager</text><text x="510" y="525" fill="#f59e0b" font-family="Arial, sans-serif" font-size="10" text-anchor="middle">↓ 0.8 dager forbedring</text><rect width="140" height="60" x="600" y="470" fill="#fdf2f8" stroke="#ec4899" rx="6"/><text x="670" y="490" fill="#9d174d" font-family="Arial, sans-serif" font-size="12" font-weight="bold" text-anchor="middle">Aktive tilbud</text><text x="670" y="510" fill="#ec4899" font-family="Arial, sans-serif" font-size="20" font-weight="bold" text-anchor="middle">47</text><text x="670" y="525" fill="#ec4899" font-family="Arial, sans-serif" font-size="10" text-anchor="middle">↑ 8 nye denne uken</text><text x="400" y="580" fill="#6b7280" font-family="Arial, sans-serif" font-size="12" text-anchor="middle">Systematisk oppfølging øker konverteringsraten og forbedrer kundeopplevelsen</text></svg>