<svg xmlns="http://www.w3.org/2000/svg" width="800" height="500"><defs><linearGradient id="a" x1="0%" x2="100%" y1="0%" y2="100%"><stop offset="0%" style="stop-color:#f8fafe;stop-opacity:1"/><stop offset="100%" style="stop-color:#e8f2ff;stop-opacity:1"/></linearGradient><linearGradient id="b" x1="0%" x2="100%" y1="0%" y2="100%"><stop offset="0%" style="stop-color:#fef3c7;stop-opacity:1"/><stop offset="100%" style="stop-color:#fde68a;stop-opacity:1"/></linearGradient><linearGradient id="c" x1="0%" x2="100%" y1="0%" y2="100%"><stop offset="0%" style="stop-color:#dcfce7;stop-opacity:1"/><stop offset="100%" style="stop-color:#bbf7d0;stop-opacity:1"/></linearGradient></defs><path fill="url(#a)" d="M0 0h800v500H0z"/><text x="400" y="40" fill="#1f2937" font-family="Arial, sans-serif" font-size="24" font-weight="bold" text-anchor="middle">Proformafaktura vs Vanlig Faktura</text><rect width="320" height="350" x="50" y="80" fill="url(#b)" stroke="#f59e0b" stroke-width="2" rx="12"/><text x="210" y="110" fill="#92400e" font-family="Arial, sans-serif" font-size="18" font-weight="bold" text-anchor="middle">PROFORMAFAKTURA</text><rect width="260" height="180" x="80" y="130" fill="#fff" stroke="#f59e0b" rx="6"/><rect width="240" height="25" x="90" y="140" fill="#fef3c7" rx="3"/><text x="210" y="157" fill="#92400e" font-family="Arial, sans-serif" font-size="12" font-weight="bold" text-anchor="middle">PROFORMA INVOICE</text><path stroke="#f3f4f6" d="M90 180h230M90 195h190M90 210h210M90 225h160"/><path fill="#fffbeb" stroke="#f3f4f6" d="M90 240h240v60H90z"/><path stroke="#f3f4f6" d="M90 255h240M90 270h240M90 285h240"/><text x="210" y="340" fill="#92400e" font-family="Arial, sans-serif" font-size="14" font-weight="bold" text-anchor="middle">Karakteristika:</text><text x="80" y="365" fill="#b45309" font-family="Arial, sans-serif" font-size="11">• Ikke juridisk bindende</text><text x="80" y="380" fill="#b45309" font-family="Arial, sans-serif" font-size="11">• Ingen betalingskrav</text><text x="80" y="395" fill="#b45309" font-family="Arial, sans-serif" font-size="11">• Brukes til planlegging</text><text x="80" y="410" fill="#b45309" font-family="Arial, sans-serif" font-size="11">• Tollformål</text><rect width="320" height="350" x="430" y="80" fill="url(#c)" stroke="#10b981" stroke-width="2" rx="12"/><text x="590" y="110" fill="#065f46" font-family="Arial, sans-serif" font-size="18" font-weight="bold" text-anchor="middle">VANLIG FAKTURA</text><rect width="260" height="180" x="460" y="130" fill="#fff" stroke="#10b981" rx="6"/><rect width="240" height="25" x="470" y="140" fill="#dcfce7" rx="3"/><text x="590" y="157" fill="#065f46" font-family="Arial, sans-serif" font-size="12" font-weight="bold" text-anchor="middle">FAKTURA</text><path stroke="#f3f4f6" d="M470 180h230M470 195h190M470 210h210M470 225h160"/><path fill="#f0fdf4" stroke="#f3f4f6" d="M470 240h240v60H470z"/><path stroke="#f3f4f6" d="M470 255h240M470 270h240M470 285h240"/><rect width="80" height="15" x="580" y="280" fill="#ef4444" rx="3"/><text x="620" y="291" fill="#fff" font-family="Arial, sans-serif" font-size="9" font-weight="bold" text-anchor="middle">BETALINGSKRAV</text><text x="590" y="340" fill="#065f46" font-family="Arial, sans-serif" font-size="14" font-weight="bold" text-anchor="middle">Karakteristika:</text><text x="460" y="365" fill="#047857" font-family="Arial, sans-serif" font-size="11">• Juridisk bindende</text><text x="460" y="380" fill="#047857" font-family="Arial, sans-serif" font-size="11">• Krever betaling</text><text x="460" y="395" fill="#047857" font-family="Arial, sans-serif" font-size="11">• Bokføres som salg</text><text x="460" y="410" fill="#047857" font-family="Arial, sans-serif" font-size="11">• MVA påløper</text><circle cx="400" cy="255" r="30" fill="#fff" stroke="#6366f1" stroke-width="3"/><text x="400" y="265" fill="#6366f1" font-family="Arial, sans-serif" font-size="18" font-weight="bold" text-anchor="middle">VS</text><text x="400" y="470" fill="#6b7280" font-family="Arial, sans-serif" font-size="12" text-anchor="middle">Proformafaktura = Foreløpig tilbud • Vanlig faktura = Bindende betalingskrav</text></svg>