<svg xmlns="http://www.w3.org/2000/svg" width="800" height="600"><defs><linearGradient id="a" x1="0%" x2="100%" y1="0%" y2="100%"><stop offset="0%" style="stop-color:#f8fafe;stop-opacity:1"/><stop offset="100%" style="stop-color:#e8f2ff;stop-opacity:1"/></linearGradient><filter id="b" width="140%" height="140%" x="-20%" y="-20%"><feDropShadow dx="2" dy="2" flood-opacity=".3" stdDeviation="3"/></filter></defs><path fill="url(#a)" d="M0 0h800v600H0z"/><text x="400" y="35" fill="#1f2937" font-family="Arial, sans-serif" font-size="24" font-weight="bold" text-anchor="middle">Risikohåndtering ved Proformafakturaer</text><circle cx="400" cy="180" r="70" fill="#fff" stroke="#ef4444" stroke-width="3" filter="url(#b)"/><path fill="#fef2f2" stroke="#ef4444" stroke-width="2" d="M400 120q30 20 30 60t-30 60q-30-20-30-60t30-60"/><text x="400" y="175" fill="#dc2626" font-family="Arial, sans-serif" font-size="12" font-weight="bold" text-anchor="middle">RISIKO</text><text x="400" y="190" fill="#dc2626" font-family="Arial, sans-serif" font-size="12" font-weight="bold" text-anchor="middle">HÅNDTERING</text><rect width="160" height="90" x="120" y="70" fill="#fef3c7" stroke="#f59e0b" stroke-width="2" filter="url(#b)" rx="8"/><text x="200" y="95" fill="#92400e" font-family="Arial, sans-serif" font-size="14" font-weight="bold" text-anchor="middle">JURIDISK RISIKO</text><text x="130" y="115" fill="#f59e0b" font-family="Arial, sans-serif" font-size="10">• Misforståelser om binding</text><text x="130" y="130" fill="#f59e0b" font-family="Arial, sans-serif" font-size="10">• Feilaktige priser/vilkår</text><text x="130" y="145" fill="#f59e0b" font-family="Arial, sans-serif" font-size="10">• Manglende disclaimere</text><rect width="160" height="90" x="520" y="70" fill="#dcfce7" stroke="#10b981" stroke-width="2" filter="url(#b)" rx="8"/><text x="600" y="95" fill="#065f46" font-family="Arial, sans-serif" font-size="14" font-weight="bold" text-anchor="middle">FINANSIELL RISIKO</text><text x="530" y="115" fill="#10b981" font-family="Arial, sans-serif" font-size="10">• Valutasvingninger</text><text x="530" y="130" fill="#10b981" font-family="Arial, sans-serif" font-size="10">• Prisvolatilitet</text><text x="530" y="145" fill="#10b981" font-family="Arial, sans-serif" font-size="10">• Kredittrisiko</text><rect width="160" height="90" x="50" y="210" fill="#dbeafe" stroke="#3b82f6" stroke-width="2" filter="url(#b)" rx="8"/><text x="130" y="235" fill="#1e40af" font-family="Arial, sans-serif" font-size="14" font-weight="bold" text-anchor="middle">OPERASJONELL</text><text x="130" y="250" fill="#1e40af" font-family="Arial, sans-serif" font-size="14" font-weight="bold" text-anchor="middle">RISIKO</text><text x="60" y="270" fill="#3b82f6" font-family="Arial, sans-serif" font-size="10">• Leveringsforsinkelser</text><text x="60" y="285" fill="#3b82f6" font-family="Arial, sans-serif" font-size="10">• Kapasitetsproblemer</text><text x="60" y="300" fill="#3b82f6" font-family="Arial, sans-serif" font-size="10">• Kvalitetsavvik</text><rect width="160" height="90" x="590" y="210" fill="#f3e8ff" stroke="#8b5cf6" stroke-width="2" filter="url(#b)" rx="8"/><text x="670" y="235" fill="#5b21b6" font-family="Arial, sans-serif" font-size="14" font-weight="bold" text-anchor="middle">COMPLIANCE</text><text x="670" y="250" fill="#5b21b6" font-family="Arial, sans-serif" font-size="14" font-weight="bold" text-anchor="middle">RISIKO</text><text x="600" y="270" fill="#8b5cf6" font-family="Arial, sans-serif" font-size="10">• Tollregelverk</text><text x="600" y="285" fill="#8b5cf6" font-family="Arial, sans-serif" font-size="10">• Eksportkontroll</text><text x="600" y="300" fill="#8b5cf6" font-family="Arial, sans-serif" font-size="10">• Sanksjoner</text><rect width="160" height="90" x="120" y="350" fill="#fecaca" stroke="#ef4444" stroke-width="2" filter="url(#b)" rx="8"/><text x="200" y="375" fill="#991b1b" font-family="Arial, sans-serif" font-size="14" font-weight="bold" text-anchor="middle">TEKNOLOGI</text><text x="200" y="390" fill="#991b1b" font-family="Arial, sans-serif" font-size="14" font-weight="bold" text-anchor="middle">RISIKO</text><text x="130" y="410" fill="#ef4444" font-family="Arial, sans-serif" font-size="10">• Systemfeil</text><text x="130" y="425" fill="#ef4444" font-family="Arial, sans-serif" font-size="10">• Cybersikkerhet</text><text x="130" y="440" fill="#ef4444" font-family="Arial, sans-serif" font-size="10">• Dataintegritetsbrudd</text><rect width="160" height="90" x="520" y="350" fill="#e0f2fe" stroke="#0891b2" stroke-width="2" filter="url(#b)" rx="8"/><text x="600" y="375" fill="#164e63" font-family="Arial, sans-serif" font-size="14" font-weight="bold" text-anchor="middle">MARKEDSRISIKO</text><text x="530" y="400" fill="#0891b2" font-family="Arial, sans-serif" font-size="10">• Konkurransepress</text><text x="530" y="415" fill="#0891b2" font-family="Arial, sans-serif" font-size="10">• Endrede betingelser</text><text x="530" y="430" fill="#0891b2" font-family="Arial, sans-serif" font-size="10">• Kundeinsolvens</text><rect width="300" height="100" x="250" y="480" fill="#fff" stroke="#374151" stroke-width="2" filter="url(#b)" rx="8"/><text x="400" y="505" fill="#1f2937" font-family="Arial, sans-serif" font-size="16" font-weight="bold" text-anchor="middle">Risikoreduserende Tiltak</text><text x="260" y="525" fill="#374151" font-family="Arial, sans-serif" font-size="11">1. Tydelige disclaimere og forbehold i alle dokumenter</text><text x="260" y="540" fill="#374151" font-family="Arial, sans-serif" font-size="11">2. Regelmessig oppdatering av priser og betingelser</text><text x="260" y="555" fill="#374151" font-family="Arial, sans-serif" font-size="11">3. Grundig kundevurdering og kredittsjekk</text><text x="260" y="570" fill="#374151" font-family="Arial, sans-serif" font-size="11">4. Forsikringsdekning for relevant eksponering</text><path stroke="#6b7280" stroke-dasharray="3,3" stroke-width="2" d="m280 115 60 35M520 115l-60 35M210 255l120-75M590 255l-120-75M280 395l60-185M520 395l-60-185"/><rect width="150" height="100" x="50" y="480" fill="#f8fafc" stroke="#cbd5e1" rx="6"/><text x="125" y="500" fill="#334155" font-family="Arial, sans-serif" font-size="12" font-weight="bold" text-anchor="middle">Risikomatrise</text><path fill="#ef4444" d="M60 510h15v15H60z"/><text x="85" y="522" fill="#374151" font-family="Arial, sans-serif" font-size="10">Høy risiko</text><path fill="#f59e0b" d="M60 530h15v15H60z"/><text x="85" y="542" fill="#374151" font-family="Arial, sans-serif" font-size="10">Middels risiko</text><path fill="#10b981" d="M60 550h15v15H60z"/><text x="85" y="562" fill="#374151" font-family="Arial, sans-serif" font-size="10">Lav risiko</text><rect width="150" height="100" x="600" y="480" fill="#f8fafc" stroke="#cbd5e1" rx="6"/><text x="675" y="500" fill="#334155" font-family="Arial, sans-serif" font-size="12" font-weight="bold" text-anchor="middle">Beste Praksis</text><text x="610" y="520" fill="#374151" font-family="Arial, sans-serif" font-size="10">✓ Standardiserte maler</text><text x="610" y="535" fill="#374151" font-family="Arial, sans-serif" font-size="10">✓ Godkjenningsrutiner</text><text x="610" y="550" fill="#374151" font-family="Arial, sans-serif" font-size="10">✓ Kontinuerlig oppfølging</text><text x="610" y="565" fill="#374151" font-family="Arial, sans-serif" font-size="10">✓ Dokumentasjons-spor</text></svg>