<svg xmlns="http://www.w3.org/2000/svg" width="700" height="500"><defs><linearGradient id="a" x1="0%" x2="100%" y1="0%" y2="100%"><stop offset="0%" style="stop-color:#f8fafe;stop-opacity:1"/><stop offset="100%" style="stop-color:#e8f2ff;stop-opacity:1"/></linearGradient><linearGradient id="b" x1="0%" x2="100%" y1="0%" y2="100%"><stop offset="0%" style="stop-color:#2563eb;stop-opacity:1"/><stop offset="100%" style="stop-color:#1d4ed8;stop-opacity:1"/></linearGradient></defs><path fill="url(#a)" d="M0 0h700v500H0z"/><text x="350" y="30" fill="#1f2937" font-family="Arial, sans-serif" font-size="20" font-weight="bold" text-anchor="middle">Varespecifikasjon i Proformafaktura</text><rect width="600" height="400" x="50" y="60" fill="#fff" stroke="#e5e7eb" stroke-width="2" rx="12"/><rect width="580" height="40" x="60" y="70" fill="url(#b)" rx="6"/><text x="350" y="95" fill="#fff" font-family="Arial, sans-serif" font-size="16" font-weight="bold" text-anchor="middle">PROFORMA INVOICE - VARESPECIFIKASJON</text><path fill="#f1f5f9" stroke="#e2e8f0" d="M70 120h560v30H70z"/><text x="90" y="140" fill="#334155" font-family="Arial, sans-serif" font-size="11" font-weight="bold">Varebeskrivelse</text><text x="250" y="140" fill="#334155" font-family="Arial, sans-serif" font-size="11" font-weight="bold">HS-kode</text><text x="330" y="140" fill="#334155" font-family="Arial, sans-serif" font-size="11" font-weight="bold">Antall</text><text x="390" y="140" fill="#334155" font-family="Arial, sans-serif" font-size="11" font-weight="bold">Enhet</text><text x="450" y="140" fill="#334155" font-family="Arial, sans-serif" font-size="11" font-weight="bold">Enhetspris</text><text x="540" y="140" fill="#334155" font-family="Arial, sans-serif" font-size="11" font-weight="bold">Total</text><path stroke="#e2e8f0" d="M240 120v230M320 120v230M380 120v230M440 120v230M520 120v230"/><path fill="#fff" stroke="#e2e8f0" d="M70 150h560v25H70z"/><text x="80" y="167" fill="#475569" font-family="Arial, sans-serif" font-size="10">Industrielle pumper, Type XL-2000</text><text x="250" y="167" fill="#475569" font-family="Arial, sans-serif" font-size="10">8413.70.35</text><text x="335" y="167" fill="#475569" font-family="Arial, sans-serif" font-size="10">10</text><text x="390" y="167" fill="#475569" font-family="Arial, sans-serif" font-size="10">stk</text><text x="460" y="167" fill="#475569" font-family="Arial, sans-serif" font-size="10">25,000</text><text x="540" y="167" fill="#475569" font-family="Arial, sans-serif" font-size="10">250,000</text><path fill="#f8fafc" stroke="#e2e8f0" d="M70 175h560v25H70z"/><text x="80" y="192" fill="#475569" font-family="Arial, sans-serif" font-size="10">Reservedeler og filter</text><text x="250" y="192" fill="#475569" font-family="Arial, sans-serif" font-size="10">8413.91.00</text><text x="335" y="192" fill="#475569" font-family="Arial, sans-serif" font-size="10">1</text><text x="390" y="192" fill="#475569" font-family="Arial, sans-serif" font-size="10">sett</text><text x="460" y="192" fill="#475569" font-family="Arial, sans-serif" font-size="10">15,000</text><text x="540" y="192" fill="#475569" font-family="Arial, sans-serif" font-size="10">15,000</text><path fill="#fff" stroke="#e2e8f0" d="M70 200h560v25H70z"/><text x="80" y="217" fill="#475569" font-family="Arial, sans-serif" font-size="10">Installasjonsmateriell</text><text x="250" y="217" fill="#475569" font-family="Arial, sans-serif" font-size="10">7307.99.30</text><text x="335" y="217" fill="#475569" font-family="Arial, sans-serif" font-size="10">200</text><text x="390" y="217" fill="#475569" font-family="Arial, sans-serif" font-size="10">kg</text><text x="460" y="217" fill="#475569" font-family="Arial, sans-serif" font-size="10">50</text><text x="540" y="217" fill="#475569" font-family="Arial, sans-serif" font-size="10">10,000</text><path fill="#f1f5f9" stroke="#e2e8f0" d="M70 240h560v80H70z"/><text x="80" y="260" fill="#334155" font-family="Arial, sans-serif" font-size="12" font-weight="bold">Detaljerte spesifikasjoner:</text><text x="80" y="280" fill="#475569" font-family="Arial, sans-serif" font-size="10">• Pumper: Rustfritt stål 316L, kapasitet 500 l/min, trykk 10 bar</text><text x="80" y="295" fill="#475569" font-family="Arial, sans-serif" font-size="10">• Opprinnelsesland: Norge</text><text x="80" y="310" fill="#475569" font-family="Arial, sans-serif" font-size="10">• Sertifiseringer: CE-merking, ISO 9001, ATEX Zone 1</text><path fill="#fff" stroke="#e2e8f0" d="M70 330h280v80H70z"/><text x="80" y="350" fill="#334155" font-family="Arial, sans-serif" font-size="12" font-weight="bold">Leveringsinformasjon:</text><text x="80" y="370" fill="#475569" font-family="Arial, sans-serif" font-size="10">Leveringsbetingelser: CIF Hamburg</text><text x="80" y="385" fill="#475569" font-family="Arial, sans-serif" font-size="10">Leveringstid: 8-12 uker</text><text x="80" y="400" fill="#475569" font-family="Arial, sans-serif" font-size="10">Pakking: Eksportemballasje</text><path fill="#fff" stroke="#e2e8f0" d="M360 330h270v80H360z"/><text x="370" y="350" fill="#334155" font-family="Arial, sans-serif" font-size="12" font-weight="bold">Betalingsinformasjon:</text><text x="370" y="370" fill="#475569" font-family="Arial, sans-serif" font-size="10">Valuta: NOK</text><text x="370" y="385" fill="#475569" font-family="Arial, sans-serif" font-size="10">Betalingsbetingelser: Remburs</text><text x="370" y="400" fill="#475569" font-family="Arial, sans-serif" font-size="10">Gyldig til: 30 dager</text><rect width="180" height="15" x="450" y="225" fill="#2563eb" rx="3"/><text x="540" y="236" fill="#fff" font-family="Arial, sans-serif" font-size="11" font-weight="bold" text-anchor="middle">Total: NOK 275,000</text><path fill="#fef3c7" stroke="#f59e0b" d="M70 420h560v30H70z"/><text x="80" y="440" fill="#92400e" font-family="Arial, sans-serif" font-size="10" font-weight="bold">VIKTIG: Dette er ikke en faktura. Dokumentet er kun til informasjon og tollformål.</text><text x="350" y="480" fill="#6b7280" font-family="Arial, sans-serif" font-size="11" text-anchor="middle">Komplett varespecifikasjon sikrer korrekt tollbehandling og transparens</text></svg>