<svg xmlns="http://www.w3.org/2000/svg" width="800" height="600" viewBox="0 0 800 600"><path fill="#f8fafc" d="M0 0h800v600H0z"/><text x="400" y="40" fill="#1e293b" font-family="Arial, sans-serif" font-size="24" font-weight="bold" text-anchor="middle">
    Total Lønnskostnad - Samlet Oversikt
  </text><rect width="700" height="480" x="50" y="80" fill="#f1f5f9" stroke="#94a3b8" stroke-width="2" rx="10"/><rect width="200" height="50" x="300" y="110" fill="#dbeafe" stroke="#3b82f6" stroke-width="2" rx="5"/><text x="400" y="135" fill="#1e40af" font-family="Arial, sans-serif" font-size="16" font-weight="bold" text-anchor="middle">
    Brutto månedslønn
  </text><text x="400" y="150" fill="#3730a3" font-family="Arial, sans-serif" font-size="14" text-anchor="middle">
    50.000 kr
  </text><rect width="280" height="200" x="80" y="200" fill="#fee2e2" stroke="#ef4444" rx="8"/><text x="220" y="225" fill="#dc2626" font-family="Arial, sans-serif" font-size="16" font-weight="bold" text-anchor="middle">
    Tilleggskostnader Arbeidsgiver
  </text><rect width="240" height="35" x="100" y="245" fill="#fecaca" rx="3"/><text x="120" y="265" fill="#991b1b" font-family="Arial, sans-serif" font-size="12">Arbeidsgiveravgift (Sone I):</text><text x="320" y="265" fill="#991b1b" font-family="Arial, sans-serif" font-size="12" font-weight="bold" text-anchor="end">7.050 kr</text><rect width="240" height="35" x="100" y="285" fill="#fecaca" rx="3"/><text x="120" y="305" fill="#991b1b" font-family="Arial, sans-serif" font-size="12">Obligatorisk tjenestepensjon:</text><text x="320" y="305" fill="#991b1b" font-family="Arial, sans-serif" font-size="12" font-weight="bold" text-anchor="end">1.000 kr</text><rect width="240" height="35" x="100" y="325" fill="#fecaca" rx="3"/><text x="120" y="345" fill="#991b1b" font-family="Arial, sans-serif" font-size="12">Andre personalkostnader:</text><text x="320" y="345" fill="#991b1b" font-family="Arial, sans-serif" font-size="12" font-weight="bold" text-anchor="end">500 kr</text><rect width="240" height="25" x="100" y="365" fill="#dc2626" rx="3"/><text x="120" y="380" fill="#fff" font-family="Arial, sans-serif" font-size="12" font-weight="bold">Total kostnad arbeidsgiver:</text><text x="320" y="380" fill="#fff" font-family="Arial, sans-serif" font-size="12" font-weight="bold" text-anchor="end">58.550 kr</text><rect width="280" height="200" x="440" y="200" fill="#dcfce7" stroke="#22c55e" rx="8"/><text x="580" y="225" fill="#166534" font-family="Arial, sans-serif" font-size="16" font-weight="bold" text-anchor="middle">
    Trekk fra Ansatt
  </text><rect width="240" height="35" x="460" y="245" fill="#bbf7d0" rx="3"/><text x="480" y="265" fill="#14532d" font-family="Arial, sans-serif" font-size="12">Trygdeavgift (11,4%):</text><text x="680" y="265" fill="#14532d" font-family="Arial, sans-serif" font-size="12" font-weight="bold" text-anchor="end">5.700 kr</text><rect width="240" height="35" x="460" y="285" fill="#bbf7d0" rx="3"/><text x="480" y="305" fill="#14532d" font-family="Arial, sans-serif" font-size="12">Skattetrekk (ca. 25%):</text><text x="680" y="305" fill="#14532d" font-family="Arial, sans-serif" font-size="12" font-weight="bold" text-anchor="end">12.500 kr</text><rect width="240" height="35" x="460" y="325" fill="#bbf7d0" rx="3"/><text x="480" y="345" fill="#14532d" font-family="Arial, sans-serif" font-size="12">Pensjon egen andel (1%):</text><text x="680" y="345" fill="#14532d" font-family="Arial, sans-serif" font-size="12" font-weight="bold" text-anchor="end">500 kr</text><rect width="240" height="25" x="460" y="365" fill="#166534" rx="3"/><text x="480" y="380" fill="#fff" font-family="Arial, sans-serif" font-size="12" font-weight="bold">Netto til ansatt:</text><text x="680" y="380" fill="#fff" font-family="Arial, sans-serif" font-size="12" font-weight="bold" text-anchor="end">31.300 kr</text><rect width="600" height="100" x="100" y="440" fill="#fef3c7" stroke="#f59e0b" stroke-width="2" rx="8"/><text x="400" y="465" fill="#92400e" font-family="Arial, sans-serif" font-size="18" font-weight="bold" text-anchor="middle">
    Sammendrag
  </text><text x="120" y="490" fill="#92400e" font-family="Arial, sans-serif" font-size="14">
    • Total kostnad for arbeidsgiver: 58.550 kr/måned (701.600 kr/år)
  </text><text x="120" y="510" fill="#92400e" font-family="Arial, sans-serif" font-size="14">
    • Utbetaling til ansatt: 31.300 kr/måned (375.600 kr/år)
  </text><text x="120" y="530" fill="#92400e" font-family="Arial, sans-serif" font-size="14">
    • Total trygdeavgift til staten: 12.750 kr/måned (153.000 kr/år)
  </text><path fill="#64748b" d="M390 180h20l-10 15z"/><path stroke="#64748b" stroke-width="2" d="M220 180v15"/><path fill="#64748b" d="M215 195h10l-5 10z"/><path stroke="#64748b" stroke-width="2" d="M580 180v15"/><path fill="#64748b" d="M575 195h10l-5 10z"/><path stroke="#64748b" stroke-dasharray="5,5" stroke-width="2" d="M400 180v255"/><path fill="#64748b" d="M395 435h10l-5 10z"/></svg>