<svg xmlns="http://www.w3.org/2000/svg" width="800" height="400" viewBox="0 0 800 400"><path fill="#f8f9fa" d="M0 0h800v400H0z"/><text x="400" y="30" fill="#2c3e50" font-family="Arial, sans-serif" font-size="24" font-weight="bold" text-anchor="middle">
    Finansielle Eiendeler - Struktur
  </text><text x="400" y="55" fill="#7f8c8d" font-family="Arial, sans-serif" font-size="16" text-anchor="middle">
    Krav på andre parter og investeringer
  </text><rect width="220" height="120" x="50" y="80" fill="#e8f8f5" stroke="#1abc9c" stroke-width="3" rx="10"/><text x="160" y="105" fill="#1abc9c" font-family="Arial, sans-serif" font-size="16" font-weight="bold" text-anchor="middle">
    Kontanter og Bankinnskudd
  </text><rect width="30" height="20" x="80" y="120" fill="#27ae60" rx="3"/><text x="95" y="133" fill="#fff" font-family="Arial, sans-serif" font-size="10" text-anchor="middle">Kr</text><text x="95" y="155" fill="#2c3e50" font-family="Arial, sans-serif" font-size="9" text-anchor="middle">Kontanter</text><rect width="40" height="30" x="130" y="115" fill="#2980b9" rx="3"/><path fill="#3498db" d="M135 120h8v8h-8zM147 120h8v8h-8zM159 120h8v8h-8z"/><path fill="#ecf0f1" d="M135 132h30v3h-30z"/><text x="150" y="155" fill="#2c3e50" font-family="Arial, sans-serif" font-size="9" text-anchor="middle">Bank</text><circle cx="210" cy="130" r="15" fill="#f39c12"/><text x="210" y="135" fill="#fff" font-family="Arial, sans-serif" font-size="12" text-anchor="middle">%</text><text x="210" y="155" fill="#2c3e50" font-family="Arial, sans-serif" font-size="9" text-anchor="middle">Sparing</text><rect width="220" height="120" x="290" y="80" fill="#fef9e7" stroke="#f1c40f" stroke-width="3" rx="10"/><text x="400" y="105" fill="#f39c12" font-family="Arial, sans-serif" font-size="16" font-weight="bold" text-anchor="middle">
    Fordringer
  </text><circle cx="330" cy="130" r="12" fill="#e67e22"/><circle cx="330" cy="125" r="4" fill="#fff"/><path fill="none" stroke="#fff" stroke-width="2" d="M322 135q8 5 16 0"/><text x="330" y="155" fill="#2c3e50" font-family="Arial, sans-serif" font-size="9" text-anchor="middle">Kunder</text><rect width="25" height="20" x="370" y="120" fill="#8e44ad" rx="3"/><text x="382" y="133" fill="#fff" font-family="Arial, sans-serif" font-size="8" text-anchor="middle">Lån</text><text x="382" y="155" fill="#2c3e50" font-family="Arial, sans-serif" font-size="9" text-anchor="middle">Utlån</text><rect width="25" height="20" x="420" y="120" fill="#9b59b6" rx="3"/><text x="432" y="133" fill="#fff" font-family="Arial, sans-serif" font-size="8" text-anchor="middle">And</text><text x="432" y="155" fill="#2c3e50" font-family="Arial, sans-serif" font-size="9" text-anchor="middle">Andre</text><rect width="220" height="120" x="530" y="80" fill="#f4f1ff" stroke="#9b59b6" stroke-width="3" rx="10"/><text x="640" y="105" fill="#9b59b6" font-family="Arial, sans-serif" font-size="16" font-weight="bold" text-anchor="middle">
    Verdipapirer og Investeringer
  </text><rect width="20" height="25" x="560" y="120" fill="#e74c3c" rx="2"/><path fill="#c0392b" d="m570 115 5 5h-10z"/><text x="570" y="155" fill="#2c3e50" font-family="Arial, sans-serif" font-size="9" text-anchor="middle">Aksjer</text><rect width="25" height="20" x="600" y="120" fill="#34495e" rx="3"/><text x="612" y="133" fill="#fff" font-family="Arial, sans-serif" font-size="8" text-anchor="middle">Obl</text><text x="612" y="155" fill="#2c3e50" font-family="Arial, sans-serif" font-size="9" text-anchor="middle">Obligasjoner</text><circle cx="680" cy="130" r="12" fill="#16a085"/><text x="680" y="135" fill="#fff" font-family="Arial, sans-serif" font-size="8" text-anchor="middle">F</text><text x="680" y="155" fill="#2c3e50" font-family="Arial, sans-serif" font-size="9" text-anchor="middle">Fond</text><rect width="700" height="140" x="50" y="230" fill="#fff" stroke="#bdc3c7" stroke-width="2" rx="10"/><text x="400" y="255" fill="#2c3e50" font-family="Arial, sans-serif" font-size="18" font-weight="bold" text-anchor="middle">
    Kjennetegn ved Finansielle Eiendeler
  </text><circle cx="80" cy="280" r="4" fill="#1abc9c"/><text x="100" y="285" fill="#2c3e50" font-family="Arial, sans-serif" font-size="11">
    Høy likviditet - lett å konvertere til kontanter
  </text><circle cx="80" cy="305" r="4" fill="#f39c12"/><text x="100" y="310" fill="#2c3e50" font-family="Arial, sans-serif" font-size="11">
    Representerer krav på andre parter
  </text><circle cx="80" cy="330" r="4" fill="#9b59b6"/><text x="100" y="335" fill="#2c3e50" font-family="Arial, sans-serif" font-size="11">
    Kan gi avkastning gjennom renter eller utbytte
  </text><circle cx="420" cy="280" r="4" fill="#e74c3c"/><text x="440" y="285" fill="#2c3e50" font-family="Arial, sans-serif" font-size="11">
    Utsatt for kredittrisiko og markedsrisiko
  </text><circle cx="420" cy="305" r="4" fill="#27ae60"/><text x="440" y="310" fill="#2c3e50" font-family="Arial, sans-serif" font-size="11">
    Verdsettes til virkelig verdi eller amortisert kost
  </text><circle cx="420" cy="330" r="4" fill="#34495e"/><text x="440" y="335" fill="#2c3e50" font-family="Arial, sans-serif" font-size="11">
    Krever løpende overvåking av verdiendringer
  </text><rect width="600" height="15" x="100" y="350" fill="#ecf0f1" rx="5"/><text x="400" y="360" fill="#7f8c8d" font-family="Arial, sans-serif" font-size="11" text-anchor="middle">
    Høyere potensial avkastning medfører vanligvis høyere risiko
  </text></svg>