<svg xmlns="http://www.w3.org/2000/svg" width="800" height="400" viewBox="0 0 800 400"><path fill="#f8f9fa" d="M0 0h800v400H0z"/><text x="400" y="30" fill="#2c3e50" font-family="Arial, sans-serif" font-size="24" font-weight="bold" text-anchor="middle">
    Innregningskriterier for Eiendeler
  </text><text x="400" y="55" fill="#7f8c8d" font-family="Arial, sans-serif" font-size="16" text-anchor="middle">
    Tre hovedkriterier må oppfylles
  </text><rect width="220" height="120" x="50" y="80" fill="#e8f5e8" stroke="#27ae60" stroke-width="3" rx="10"/><text x="160" y="105" fill="#27ae60" font-family="Arial, sans-serif" font-size="16" font-weight="bold" text-anchor="middle">
    1. Sannsynlighet
  </text><circle cx="160" cy="130" r="20" fill="#fff" stroke="#27ae60" stroke-width="2"/><text x="160" y="137" fill="#27ae60" font-family="Arial, sans-serif" font-size="16" text-anchor="middle">%</text><text x="160" y="165" fill="#2c3e50" font-family="Arial, sans-serif" font-size="11" text-anchor="middle">
    Fremtidige økonomiske
  </text><text x="160" y="180" fill="#2c3e50" font-family="Arial, sans-serif" font-size="11" text-anchor="middle">
    fordeler vil sannsynlig
  </text><text x="160" y="195" fill="#2c3e50" font-family="Arial, sans-serif" font-size="11" text-anchor="middle">
    tilflyte bedriften
  </text><rect width="220" height="120" x="290" y="80" fill="#e8f4fd" stroke="#3498db" stroke-width="3" rx="10"/><text x="400" y="105" fill="#3498db" font-family="Arial, sans-serif" font-size="16" font-weight="bold" text-anchor="middle">
    2. Pålitelig Måling
  </text><rect width="40" height="30" x="380" y="120" fill="#fff" stroke="#3498db" stroke-width="2" rx="5"/><text x="400" y="138" fill="#3498db" font-family="Arial, sans-serif" font-size="12" text-anchor="middle">Kr</text><text x="400" y="165" fill="#2c3e50" font-family="Arial, sans-serif" font-size="11" text-anchor="middle">
    Eiendelens kost eller
  </text><text x="400" y="180" fill="#2c3e50" font-family="Arial, sans-serif" font-size="11" text-anchor="middle">
    verdi kan måles
  </text><text x="400" y="195" fill="#2c3e50" font-family="Arial, sans-serif" font-size="11" text-anchor="middle">
    pålitelig
  </text><rect width="220" height="120" x="530" y="80" fill="#fef9e7" stroke="#f39c12" stroke-width="3" rx="10"/><text x="640" y="105" fill="#f39c12" font-family="Arial, sans-serif" font-size="16" font-weight="bold" text-anchor="middle">
    3. Kontroll
  </text><rect width="40" height="30" x="620" y="120" fill="#fff" stroke="#f39c12" stroke-width="2" rx="5"/><circle cx="630" cy="135" r="3" fill="#f39c12"/><circle cx="640" cy="135" r="3" fill="#f39c12"/><circle cx="650" cy="135" r="3" fill="#f39c12"/><text x="640" y="165" fill="#2c3e50" font-family="Arial, sans-serif" font-size="11" text-anchor="middle">
    Bedriften kontrollerer
  </text><text x="640" y="180" fill="#2c3e50" font-family="Arial, sans-serif" font-size="11" text-anchor="middle">
    eiendelen som følge av
  </text><text x="640" y="195" fill="#2c3e50" font-family="Arial, sans-serif" font-size="11" text-anchor="middle">
    tidligere hendelser
  </text><rect width="500" height="120" x="150" y="230" fill="#fff" stroke="#bdc3c7" stroke-width="2" rx="10"/><text x="400" y="255" fill="#2c3e50" font-family="Arial, sans-serif" font-size="18" font-weight="bold" text-anchor="middle">
    Beslutningsflyt
  </text><rect width="120" height="30" x="170" y="270" fill="#e8f5e8" stroke="#27ae60" rx="5"/><text x="230" y="288" fill="#2c3e50" font-family="Arial, sans-serif" font-size="11" text-anchor="middle">
    Alle 3 kriterier oppfylt?
  </text><path fill="#7f8c8d" d="m300 285 20-5v10z"/><path stroke="#7f8c8d" stroke-width="2" d="M290 285h30"/><rect width="100" height="30" x="330" y="270" fill="#d5f4e6" stroke="#27ae60" rx="5"/><text x="380" y="288" fill="#2c3e50" font-family="Arial, sans-serif" font-size="11" text-anchor="middle">
    ✓ Innregnes som eiendel
  </text><rect width="100" height="30" x="330" y="310" fill="#fadbd8" stroke="#e74c3c" rx="5"/><text x="380" y="328" fill="#2c3e50" font-family="Arial, sans-serif" font-size="11" text-anchor="middle">
    ✗ Innregnes ikke
  </text><rect width="180" height="70" x="450" y="270" fill="#f8f9fa" stroke="#dee2e6" rx="5"/><text x="540" y="285" fill="#2c3e50" font-family="Arial, sans-serif" font-size="12" font-weight="bold" text-anchor="middle">
    Eksempler
  </text><text x="460" y="300" fill="#27ae60" font-family="Arial, sans-serif" font-size="10">✓ Kjøpt maskin (levert)</text><text x="460" y="315" fill="#27ae60" font-family="Arial, sans-serif" font-size="10">✓ Finansiell leasing</text><text x="460" y="330" fill="#e74c3c" font-family="Arial, sans-serif" font-size="10">✗ Bestilt, ikke levert</text><rect width="600" height="20" x="100" y="370" fill="#ecf0f1" stroke="#bdc3c7" rx="5"/><text x="400" y="383" fill="#7f8c8d" font-family="Arial, sans-serif" font-size="12" text-anchor="middle">
    Alle tre kriterier må være oppfylt samtidig for innregning
  </text></svg>