<svg xmlns="http://www.w3.org/2000/svg" width="800" height="400"><defs><linearGradient id="a" x1="0%" x2="100%" y1="0%" y2="100%"><stop offset="0%" style="stop-color:#f8f9fa;stop-opacity:1"/><stop offset="100%" style="stop-color:#e9ecef;stop-opacity:1"/></linearGradient><linearGradient id="b" x1="0%" x2="0%" y1="0%" y2="100%"><stop offset="0%" style="stop-color:#28a745;stop-opacity:.8"/><stop offset="100%" style="stop-color:#28a745;stop-opacity:.3"/></linearGradient></defs><path fill="url(#a)" stroke="#dee2e6" stroke-width="2" d="M0 0h800v400H0z"/><text x="400" y="30" fill="#212529" font-family="Arial, sans-serif" font-size="24" font-weight="bold" text-anchor="middle">
    Nullpunktsomsetning (Break-Even Omsetning)
  </text><path fill="#fff" stroke="#dee2e6" d="M100 60h600v280H100z"/><g stroke="#e9ecef"><path d="M100 100h600M100 140h600M100 180h600M100 220h600M100 260h600M100 300h600M200 60v280M300 60v280M400 60v280M500 60v280M600 60v280"/></g><path stroke="#495057" stroke-width="2" d="M100 340h600M100 60v280"/><path stroke="#dc3545" stroke-dasharray="5,5" stroke-width="3" d="M100 260h600"/><text x="710" y="265" fill="#dc3545" font-family="Arial, sans-serif" font-size="12">Faste kostnader</text><path stroke="#fd7e14" stroke-width="3" d="m100 260 600-160"/><text x="710" y="105" fill="#fd7e14" font-family="Arial, sans-serif" font-size="12">Totale kostnader</text><path stroke="#28a745" stroke-width="3" d="M100 340 700 60"/><text x="710" y="65" fill="#28a745" font-family="Arial, sans-serif" font-size="12">Inntekter</text><circle cx="400" cy="180" r="8" fill="#6f42c1" stroke="#fff" stroke-width="2"/><text x="400" y="200" fill="#6f42c1" font-family="Arial, sans-serif" font-size="14" font-weight="bold" text-anchor="middle">
    Nullpunktsomsetning
  </text><path stroke="#6f42c1" stroke-dasharray="3,3" stroke-width="2" d="M400 180v160"/><path fill="url(#b)" d="M400 180 700 60v40z" opacity=".3"/><text x="550" y="130" fill="#28a745" font-family="Arial, sans-serif" font-size="12" font-weight="bold">OVERSKUDD</text><path fill="#dc3545" d="m100 340 300-160v160z" opacity=".1"/><text x="250" y="280" fill="#dc3545" font-family="Arial, sans-serif" font-size="12" font-weight="bold">UNDERSKUDD</text><text x="400" y="365" fill="#495057" font-family="Arial, sans-serif" font-size="14" text-anchor="middle">
    Omsetning (kr)
  </text><text x="50" y="200" fill="#495057" font-family="Arial, sans-serif" font-size="14" text-anchor="middle" transform="rotate(-90 50 200)">
    Kostnader/Inntekter (kr)
  </text><text x="100" y="355" fill="#6c757d" font-family="Arial, sans-serif" font-size="10" text-anchor="middle">0</text><text x="200" y="355" fill="#6c757d" font-family="Arial, sans-serif" font-size="10" text-anchor="middle">250k</text><text x="300" y="355" fill="#6c757d" font-family="Arial, sans-serif" font-size="10" text-anchor="middle">500k</text><text x="400" y="355" fill="#6c757d" font-family="Arial, sans-serif" font-size="10" text-anchor="middle">750k</text><text x="500" y="355" fill="#6c757d" font-family="Arial, sans-serif" font-size="10" text-anchor="middle">1M</text><text x="600" y="355" fill="#6c757d" font-family="Arial, sans-serif" font-size="10" text-anchor="middle">1.25M</text><text x="700" y="355" fill="#6c757d" font-family="Arial, sans-serif" font-size="10" text-anchor="middle">1.5M</text></svg>