<svg viewBox="0 0 800 600" xmlns="http://www.w3.org/2000/svg">
  <!-- Background -->
  <rect width="800" height="600" fill="#f8f9fa"/>
  
  <!-- Title -->
  <text x="400" y="30" text-anchor="middle" font-family="Arial, sans-serif" font-size="24" font-weight="bold" fill="#2c3e50">
    Bransjespesifikke Skatteforhold
  </text>
  
  <!-- Technology Sector -->
  <g transform="translate(50, 80)">
    <rect x="0" y="0" width="220" height="140" fill="#e3f2fd" stroke="#1976d2" stroke-width="2" rx="10"/>
    <text x="110" y="25" text-anchor="middle" font-family="Arial, sans-serif" font-size="16" font-weight="bold" fill="#1976d2">
      Teknologi &amp; Software
    </text>
    
    <!-- Tech icon -->
    <circle cx="40" cy="60" r="15" fill="#1976d2"/>
    <rect x="35" y="55" width="10" height="10" fill="white"/>
    
    <text x="70" y="60" font-family="Arial, sans-serif" font-size="12" fill="#333">
      • Immaterielle eiendeler
    </text>
    <text x="70" y="80" font-family="Arial, sans-serif" font-size="12" fill="#333">
      • Cloud-tjenester
    </text>
    <text x="70" y="100" font-family="Arial, sans-serif" font-size="12" fill="#333">
      • Digital skatt (OECD Pilar 1)
    </text>
    <text x="70" y="120" font-family="Arial, sans-serif" font-size="12" fill="#333">
      • IP-verdsettelse
    </text>
  </g>
  
  <!-- Real Estate Sector -->
  <g transform="translate(290, 80)">
    <rect x="0" y="0" width="220" height="140" fill="#e8f5e8" stroke="#388e3c" stroke-width="2" rx="10"/>
    <text x="110" y="25" text-anchor="middle" font-family="Arial, sans-serif" font-size="16" font-weight="bold" fill="#388e3c">
      Eiendom &amp; Utvikling
    </text>
    
    <!-- Building icon -->
    <rect x="30" y="45" width="20" height="25" fill="#388e3c"/>
    <rect x="32" y="47" width="4" height="4" fill="white"/>
    <rect x="38" y="47" width="4" height="4" fill="white"/>
    <rect x="44" y="47" width="4" height="4" fill="white"/>
    <rect x="32" y="53" width="4" height="4" fill="white"/>
    <rect x="38" y="53" width="4" height="4" fill="white"/>
    <rect x="44" y="53" width="4" height="4" fill="white"/>
    
    <text x="70" y="60" font-family="Arial, sans-serif" font-size="12" fill="#333">
      • Prosjektavregning
    </text>
    <text x="70" y="80" font-family="Arial, sans-serif" font-size="12" fill="#333">
      • Work-in-progress
    </text>
    <text x="70" y="100" font-family="Arial, sans-serif" font-size="12" fill="#333">
      • MVA-forhold (25% nybygg)
    </text>
    <text x="70" y="120" font-family="Arial, sans-serif" font-size="12" fill="#333">
      • RISK-beskatning
    </text>
  </g>
  
  <!-- Oil & Gas Sector -->
  <g transform="translate(530, 80)">
    <rect x="0" y="0" width="220" height="140" fill="#fff3e0" stroke="#f57c00" stroke-width="2" rx="10"/>
    <text x="110" y="25" text-anchor="middle" font-family="Arial, sans-serif" font-size="16" font-weight="bold" fill="#f57c00">
      Olje &amp; Gass
    </text>
    
    <!-- Oil rig icon -->
    <circle cx="40" cy="60" r="8" fill="#f57c00"/>
    <rect x="38" y="45" width="4" height="30" fill="#f57c00"/>
    <polygon points="30,45 40,35 50,45" fill="#f57c00"/>
    
    <text x="70" y="60" font-family="Arial, sans-serif" font-size="12" fill="#333">
      • Petroleumsskatt (78%)
    </text>
    <text x="70" y="80" font-family="Arial, sans-serif" font-size="12" fill="#333">
      • Ring-fence regler
    </text>
    <text x="70" y="100" font-family="Arial, sans-serif" font-size="12" fill="#333">
      • Uplift (24% tillegg)
    </text>
    <text x="70" y="120" font-family="Arial, sans-serif" font-size="12" fill="#333">
      • Friløsning/oppløsning
    </text>
  </g>
  
  <!-- Financial Services -->
  <g transform="translate(50, 250)">
    <rect x="0" y="0" width="220" height="140" fill="#f3e5f5" stroke="#7b1fa2" stroke-width="2" rx="10"/>
    <text x="110" y="25" text-anchor="middle" font-family="Arial, sans-serif" font-size="16" font-weight="bold" fill="#7b1fa2">
      Finansielle Tjenester
    </text>
    
    <!-- Bank icon -->
    <rect x="30" y="45" width="25" height="15" fill="#7b1fa2"/>
    <rect x="32" y="47" width="3" height="3" fill="white"/>
    <rect x="37" y="47" width="3" height="3" fill="white"/>
    <rect x="42" y="47" width="3" height="3" fill="white"/>
    <rect x="47" y="47" width="3" height="3" fill="white"/>
    <rect x="25" y="60" width="35" height="3" fill="#7b1fa2"/>
    
    <text x="70" y="60" font-family="Arial, sans-serif" font-size="12" fill="#333">
      • Tapsavsetninger på utlån
    </text>
    <text x="70" y="80" font-family="Arial, sans-serif" font-size="12" fill="#333">
      • Aktuarmessige avsetninger
    </text>
    <text x="70" y="100" font-family="Arial, sans-serif" font-size="12" fill="#333">
      • Sikringsbokføring
    </text>
    <text x="70" y="120" font-family="Arial, sans-serif" font-size="12" fill="#333">
      • Basel-regler
    </text>
  </g>
  
  <!-- Manufacturing -->
  <g transform="translate(290, 250)">
    <rect x="0" y="0" width="220" height="140" fill="#ffebee" stroke="#d32f2f" stroke-width="2" rx="10"/>
    <text x="110" y="25" text-anchor="middle" font-family="Arial, sans-serif" font-size="16" font-weight="bold" fill="#d32f2f">
      Produksjon &amp; Industri
    </text>
    
    <!-- Factory icon -->
    <rect x="30" y="50" width="15" height="20" fill="#d32f2f"/>
    <rect x="47" y="45" width="15" height="25" fill="#d32f2f"/>
    <rect x="32" y="52" width="3" height="3" fill="white"/>
    <rect x="37" y="52" width="3" height="3" fill="white"/>
    <rect x="49" y="47" width="3" height="3" fill="white"/>
    <rect x="54" y="47" width="3" height="3" fill="white"/>
    
    <text x="70" y="60" font-family="Arial, sans-serif" font-size="12" fill="#333">
      • Varelagerverdier
    </text>
    <text x="70" y="80" font-family="Arial, sans-serif" font-size="12" fill="#333">
      • Saldoavskrivning
    </text>
    <text x="70" y="100" font-family="Arial, sans-serif" font-size="12" fill="#333">
      • Forskudd fra kunder
    </text>
    <text x="70" y="120" font-family="Arial, sans-serif" font-size="12" fill="#333">
      • Miljøavgifter
    </text>
  </g>
  
  <!-- Retail & Commerce -->
  <g transform="translate(530, 250)">
    <rect x="0" y="0" width="220" height="140" fill="#e1f5fe" stroke="#0288d1" stroke-width="2" rx="10"/>
    <text x="110" y="25" text-anchor="middle" font-family="Arial, sans-serif" font-size="16" font-weight="bold" fill="#0288d1">
      Handel &amp; Detaljhandel
    </text>
    
    <!-- Store icon -->
    <rect x="30" y="45" width="25" height="20" fill="#0288d1"/>
    <polygon points="30,45 42.5,35 55,45" fill="#0288d1"/>
    <rect x="35" y="50" width="6" height="10" fill="white"/>
    <rect x="44" y="50" width="6" height="10" fill="white"/>
    
    <text x="70" y="60" font-family="Arial, sans-serif" font-size="12" fill="#333">
      • Sesongvariasjoner
    </text>
    <text x="70" y="80" font-family="Arial, sans-serif" font-size="12" fill="#333">
      • Kundefordringer
    </text>
    <text x="70" y="100" font-family="Arial, sans-serif" font-size="12" fill="#333">
      • Returvarer
    </text>
    <text x="70" y="120" font-family="Arial, sans-serif" font-size="12" fill="#333">
      • Bonusprogrammer
    </text>
  </g>
  
  <!-- Common Challenges -->
  <g transform="translate(50, 420)">
    <rect x="0" y="0" width="700" height="120" fill="#fafafa" stroke="#666" stroke-width="1" rx="10"/>
    <text x="350" y="25" text-anchor="middle" font-family="Arial, sans-serif" font-size="16" font-weight="bold" fill="#333">
      Felles Utfordringer på Tvers av Bransjer
    </text>
    
    <!-- Challenge items -->
    <g transform="translate(50, 40)">
      <circle cx="10" cy="10" r="4" fill="#ff9800"/>
      <text x="25" y="15" font-family="Arial, sans-serif" font-size="12" fill="#333">
        Transfer pricing og internasjonale transaksjoner
      </text>
    </g>
    
    <g transform="translate(50, 65)">
      <circle cx="10" cy="10" r="4" fill="#ff9800"/>
      <text x="25" y="15" font-family="Arial, sans-serif" font-size="12" fill="#333">
        Midlertidige vs. permanente skatteforskjeller
      </text>
    </g>
    
    <g transform="translate(400, 40)">
      <circle cx="10" cy="10" r="4" fill="#ff9800"/>
      <text x="25" y="15" font-family="Arial, sans-serif" font-size="12" fill="#333">
        Dokumentasjon av skatteposisjoner
      </text>
    </g>
    
    <g transform="translate(400, 65)">
      <circle cx="10" cy="10" r="4" fill="#ff9800"/>
      <text x="25" y="15" font-family="Arial, sans-serif" font-size="12" fill="#333">
        Compliance med nye regelverk (BEPS, digital skatt)
      </text>
    </g>
  </g>
  
  <!-- Footer note -->
  <text x="400" y="580" text-anchor="middle" font-family="Arial, sans-serif" font-size="12" fill="#666">
    Hver bransje har unike skattemessige utfordringer som krever spesialisert kunnskap og tilnærming
  </text>
</svg>