<svg width="800" height="400" xmlns="http://www.w3.org/2000/svg">
  <defs>
    <linearGradient id="bgGradient" x1="0%" y1="0%" x2="100%" y2="100%">
      <stop offset="0%" style="stop-color:#f8f9fa;stop-opacity:1" />
      <stop offset="100%" style="stop-color:#e9ecef;stop-opacity:1" />
    </linearGradient>
    <linearGradient id="headerGradient" x1="0%" y1="0%" x2="100%" y2="0%">
      <stop offset="0%" style="stop-color:#0066cc;stop-opacity:1" />
      <stop offset="100%" style="stop-color:#004499;stop-opacity:1" />
    </linearGradient>
  </defs>
  
  <!-- Background -->
  <rect width="800" height="400" fill="url(#bgGradient)" stroke="#dee2e6" stroke-width="2"/>
  
  <!-- Header -->
  <rect x="0" y="0" width="800" height="80" fill="url(#headerGradient)"/>
  
  <!-- Main Title -->
  <text x="400" y="45" font-family="Arial, sans-serif" font-size="32" font-weight="bold" text-anchor="middle" fill="white">
    Hva er MVA-registeret?
  </text>
  
  <!-- Registry Icon -->
  <rect x="100" y="120" width="120" height="160" fill="#ffffff" stroke="#0066cc" stroke-width="3" rx="10"/>
  <rect x="110" y="140" width="100" height="8" fill="#0066cc" rx="4"/>
  <rect x="110" y="160" width="80" height="6" fill="#6c757d" rx="3"/>
  <rect x="110" y="175" width="90" height="6" fill="#6c757d" rx="3"/>
  <rect x="110" y="190" width="70" height="6" fill="#6c757d" rx="3"/>
  <rect x="110" y="205" width="85" height="6" fill="#6c757d" rx="3"/>
  <rect x="110" y="220" width="75" height="6" fill="#6c757d" rx="3"/>
  <rect x="110" y="235" width="95" height="6" fill="#6c757d" rx="3"/>
  <rect x="110" y="250" width="65" height="6" fill="#6c757d" rx="3"/>
  
  <!-- Arrow -->
  <path d="M 240 200 L 280 200" stroke="#0066cc" stroke-width="4" fill="none" marker-end="url(#arrowhead)"/>
  <defs>
    <marker id="arrowhead" markerWidth="10" markerHeight="7" refX="9" refY="3.5" orient="auto">
      <polygon points="0 0, 10 3.5, 0 7" fill="#0066cc"/>
    </marker>
  </defs>
  
  <!-- Business Icons -->
  <g transform="translate(300, 140)">
    <!-- AS Icon -->
    <rect x="0" y="0" width="80" height="50" fill="#28a745" stroke="#1e7e34" stroke-width="2" rx="5"/>
    <text x="40" y="30" font-family="Arial, sans-serif" font-size="14" font-weight="bold" text-anchor="middle" fill="white">AS</text>
    
    <!-- ENK Icon -->
    <rect x="100" y="0" width="80" height="50" fill="#ffc107" stroke="#e0a800" stroke-width="2" rx="5"/>
    <text x="140" y="30" font-family="Arial, sans-serif" font-size="14" font-weight="bold" text-anchor="middle" fill="#212529">ENK</text>
    
    <!-- ANS Icon -->
    <rect x="200" y="0" width="80" height="50" fill="#17a2b8" stroke="#138496" stroke-width="2" rx="5"/>
    <text x="240" y="30" font-family="Arial, sans-serif" font-size="14" font-weight="bold" text-anchor="middle" fill="white">ANS</text>
  </g>
  
  <!-- Key Information Boxes -->
  <g transform="translate(50, 320)">
    <rect x="0" y="0" width="160" height="60" fill="#e3f2fd" stroke="#1976d2" stroke-width="2" rx="8"/>
    <text x="80" y="20" font-family="Arial, sans-serif" font-size="12" font-weight="bold" text-anchor="middle" fill="#1976d2">Registreringsplikt</text>
    <text x="80" y="35" font-family="Arial, sans-serif" font-size="10" text-anchor="middle" fill="#424242">Over 50 000 kr</text>
    <text x="80" y="48" font-family="Arial, sans-serif" font-size="10" text-anchor="middle" fill="#424242">omsetning</text>
  </g>
  
  <g transform="translate(230, 320)">
    <rect x="0" y="0" width="160" height="60" fill="#f3e5f5" stroke="#7b1fa2" stroke-width="2" rx="8"/>
    <text x="80" y="20" font-family="Arial, sans-serif" font-size="12" font-weight="bold" text-anchor="middle" fill="#7b1fa2">MVA-terminer</text>
    <text x="80" y="35" font-family="Arial, sans-serif" font-size="10" text-anchor="middle" fill="#424242">Månedlig/</text>
    <text x="80" y="48" font-family="Arial, sans-serif" font-size="10" text-anchor="middle" fill="#424242">Tomnedlig/Årlig</text>
  </g>
  
  <g transform="translate(410, 320)">
    <rect x="0" y="0" width="160" height="60" fill="#e8f5e8" stroke="#388e3c" stroke-width="2" rx="8"/>
    <text x="80" y="20" font-family="Arial, sans-serif" font-size="12" font-weight="bold" text-anchor="middle" fill="#388e3c">Fradragsrett</text>
    <text x="80" y="35" font-family="Arial, sans-serif" font-size="10" text-anchor="middle" fill="#424242">Inngående MVA</text>
    <text x="80" y="48" font-family="Arial, sans-serif" font-size="10" text-anchor="middle" fill="#424242">på innkjøp</text>
  </g>
  
  <g transform="translate(590, 320)">
    <rect x="0" y="0" width="160" height="60" fill="#fff3e0" stroke="#f57c00" stroke-width="2" rx="8"/>
    <text x="80" y="20" font-family="Arial, sans-serif" font-size="12" font-weight="bold" text-anchor="middle" fill="#f57c00">Sanksjoner</text>
    <text x="80" y="35" font-family="Arial, sans-serif" font-size="10" text-anchor="middle" fill="#424242">Ved manglende</text>
    <text x="80" y="48" font-family="Arial, sans-serif" font-size="10" text-anchor="middle" fill="#424242">registrering</text>
  </g>
</svg>