<svg viewBox="0 0 800 600" xmlns="http://www.w3.org/2000/svg">
  <defs>
    <linearGradient id="techGradient" x1="0%" y1="0%" x2="100%" y2="100%">
      <stop offset="0%" style="stop-color:#667eea;stop-opacity:1" />
      <stop offset="100%" style="stop-color:#764ba2;stop-opacity:1" />
    </linearGradient>
    <linearGradient id="workGradient" x1="0%" y1="0%" x2="100%" y2="100%">
      <stop offset="0%" style="stop-color:#f093fb;stop-opacity:1" />
      <stop offset="100%" style="stop-color:#f5576c;stop-opacity:1" />
    </linearGradient>
    <linearGradient id="regGradient" x1="0%" y1="0%" x2="100%" y2="100%">
      <stop offset="0%" style="stop-color:#4facfe;stop-opacity:1" />
      <stop offset="100%" style="stop-color:#00f2fe;stop-opacity:1" />
    </linearGradient>
  </defs>
  
  <!-- Background -->
  <rect width="800" height="600" fill="#f8fafc"/>
  
  <!-- Title -->
  <text x="400" y="30" text-anchor="middle" font-family="Arial, sans-serif" font-size="24" font-weight="bold" fill="#1e293b">
    Fremtidens Personalkostnad Trender
  </text>
  
  <!-- Timeline arrow -->
  <line x1="50" y1="550" x2="750" y2="550" stroke="#64748b" stroke-width="3" marker-end="url(#arrowhead)"/>
  <text x="400" y="570" text-anchor="middle" font-family="Arial, sans-serif" font-size="14" fill="#64748b">Tid</text>
  
  <!-- Arrow marker -->
  <defs>
    <marker id="arrowhead" markerWidth="10" markerHeight="7" refX="9" refY="3.5" orient="auto">
      <polygon points="0 0, 10 3.5, 0 7" fill="#64748b"/>
    </marker>
  </defs>
  
  <!-- Trend 1: Teknologisk Utvikling -->
  <g>
    <rect x="50" y="80" width="200" height="120" rx="10" fill="url(#techGradient)" opacity="0.9"/>
    <text x="150" y="110" text-anchor="middle" font-family="Arial, sans-serif" font-size="16" font-weight="bold" fill="white">
      Teknologisk Utvikling
    </text>
    
    <!-- AI icon -->
    <circle cx="100" cy="135" r="15" fill="white" opacity="0.8"/>
    <text x="100" y="140" text-anchor="middle" font-family="Arial, sans-serif" font-size="12" font-weight="bold" fill="#667eea">AI</text>
    
    <!-- Digital HR icon -->
    <rect x="130" y="125" width="20" height="20" rx="3" fill="white" opacity="0.8"/>
    <text x="140" y="137" text-anchor="middle" font-family="Arial, sans-serif" font-size="8" fill="#667eea">HR</text>
    
    <!-- Data analytics icon -->
    <polygon points="170,145 180,125 190,140 200,120" fill="none" stroke="white" stroke-width="2" opacity="0.8"/>
    
    <text x="80" y="165" font-family="Arial, sans-serif" font-size="12" fill="white">• Kunstig intelligens</text>
    <text x="80" y="180" font-family="Arial, sans-serif" font-size="12" fill="white">• Digital HR</text>
    <text x="80" y="195" font-family="Arial, sans-serif" font-size="12" fill="white">• Dataanalyse</text>
  </g>
  
  <!-- Trend 2: Arbeidsliv i Endring -->
  <g>
    <rect x="300" y="80" width="200" height="120" rx="10" fill="url(#workGradient)" opacity="0.9"/>
    <text x="400" y="110" text-anchor="middle" font-family="Arial, sans-serif" font-size="16" font-weight="bold" fill="white">
      Arbeidsliv i Endring
    </text>
    
    <!-- Flexible work icon -->
    <rect x="330" y="125" width="25" height="15" rx="3" fill="white" opacity="0.8"/>
    <rect x="340" y="120" width="25" height="15" rx="3" fill="white" opacity="0.6"/>
    
    <!-- Skills icon -->
    <circle cx="400" cy="135" r="12" fill="white" opacity="0.8"/>
    <text x="400" y="140" text-anchor="middle" font-family="Arial, sans-serif" font-size="10" fill="#f5576c">⚡</text>
    
    <!-- Generation icon -->
    <circle cx="450" cy="130" r="8" fill="white" opacity="0.8"/>
    <circle cx="460" cy="140" r="8" fill="white" opacity="0.6"/>
    
    <text x="330" y="165" font-family="Arial, sans-serif" font-size="12" fill="white">• Fleksibelt arbeid</text>
    <text x="330" y="180" font-family="Arial, sans-serif" font-size="12" fill="white">• Kompetanseskiftet</text>
    <text x="330" y="195" font-family="Arial, sans-serif" font-size="12" fill="white">• Generasjonsskiftet</text>
  </g>
  
  <!-- Trend 3: Regulatoriske Endringer -->
  <g>
    <rect x="550" y="80" width="200" height="120" rx="10" fill="url(#regGradient)" opacity="0.9"/>
    <text x="650" y="110" text-anchor="middle" font-family="Arial, sans-serif" font-size="16" font-weight="bold" fill="white">
      Regulatoriske Endringer
    </text>
    
    <!-- EU flag icon -->
    <rect x="580" y="125" width="20" height="15" rx="2" fill="white" opacity="0.8"/>
    <text x="590" y="137" text-anchor="middle" font-family="Arial, sans-serif" font-size="10" fill="#4facfe">EU</text>
    
    <!-- Tax icon -->
    <rect x="620" y="125" width="15" height="20" rx="2" fill="white" opacity="0.8"/>
    <text x="627" y="137" text-anchor="middle" font-family="Arial, sans-serif" font-size="10" fill="#4facfe">$</text>
    
    <!-- Environment icon -->
    <circle cx="670" cy="135" r="12" fill="white" opacity="0.8"/>
    <text x="670" y="140" text-anchor="middle" font-family="Arial, sans-serif" font-size="10" fill="#4facfe">🌱</text>
    
    <text x="580" y="165" font-family="Arial, sans-serif" font-size="12" fill="white">• EU-direktiver</text>
    <text x="580" y="180" font-family="Arial, sans-serif" font-size="12" fill="white">• Skatteendringer</text>
    <text x="580" y="195" font-family="Arial, sans-serif" font-size="12" fill="white">• Miljøhensyn</text>
  </g>
  
  <!-- Impact arrows and effects -->
  <g>
    <!-- Arrow from tech to cost reduction -->
    <path d="M 150 210 Q 200 250 250 280" fill="none" stroke="#667eea" stroke-width="2" marker-end="url(#arrowhead)"/>
    <text x="180" y="250" font-family="Arial, sans-serif" font-size="12" fill="#667eea">Automatisering</text>
    <text x="180" y="265" font-family="Arial, sans-serif" font-size="12" fill="#667eea">reduserer kostnader</text>
    
    <!-- Arrow from work changes to cost structure -->
    <path d="M 400 210 Q 400 250 400 280" fill="none" stroke="#f5576c" stroke-width="2" marker-end="url(#arrowhead)"/>
    <text x="320" y="250" font-family="Arial, sans-serif" font-size="12" fill="#f5576c">Nye kostnadsstrukturer</text>
    <text x="320" y="265" font-family="Arial, sans-serif" font-size="12" fill="#f5576c">og arbeidsmodeller</text>
    
    <!-- Arrow from regulations to compliance costs -->
    <path d="M 650 210 Q 600 250 550 280" fill="none" stroke="#4facfe" stroke-width="2" marker-end="url(#arrowhead)"/>
    <text x="520" y="250" font-family="Arial, sans-serif" font-size="12" fill="#4facfe">Økte compliance-</text>
    <text x="520" y="265" font-family="Arial, sans-serif" font-size="12" fill="#4facfe">kostnader</text>
  </g>
  
  <!-- Future impact box -->
  <rect x="200" y="300" width="400" height="120" rx="10" fill="#1e293b" opacity="0.9"/>
  <text x="400" y="330" text-anchor="middle" font-family="Arial, sans-serif" font-size="18" font-weight="bold" fill="white">
    Påvirkning på Personalkostnader
  </text>
  
  <!-- Impact points -->
  <g>
    <circle cx="230" cy="360" r="4" fill="#10b981"/>
    <text x="250" y="365" font-family="Arial, sans-serif" font-size="14" fill="white">Økt automatisering reduserer rutinekostnader</text>
    
    <circle cx="230" cy="385" r="4" fill="#f59e0b"/>
    <text x="250" y="390" font-family="Arial, sans-serif" font-size="14" fill="white">Hybride arbeidsmodeller endrer kostnadsstruktur</text>
    
    <circle cx="230" cy="410" r="4" fill="#ef4444"/>
    <text x="250" y="415" font-family="Arial, sans-serif" font-size="14" fill="white">Nye reguleringer øker compliance-kostnader</text>
  </g>
  
  <!-- Future timeline indicators -->
  <g>
    <line x1="150" y1="530" x2="150" y2="550" stroke="#64748b" stroke-width="2"/>
    <text x="150" y="525" text-anchor="middle" font-family="Arial, sans-serif" font-size="12" fill="#64748b">2025</text>
    
    <line x1="400" y1="530" x2="400" y2="550" stroke="#64748b" stroke-width="2"/>
    <text x="400" y="525" text-anchor="middle" font-family="Arial, sans-serif" font-size="12" fill="#64748b">2030</text>
    
    <line x1="650" y1="530" x2="650" y2="550" stroke="#64748b" stroke-width="2"/>
    <text x="650" y="525" text-anchor="middle" font-family="Arial, sans-serif" font-size="12" fill="#64748b">2035+</text>
  </g>
  
  <!-- Trend curves -->
  <g>
    <!-- Technology adoption curve -->
    <path d="M 100 500 Q 300 480 500 450 Q 600 440 700 430" fill="none" stroke="#667eea" stroke-width="3" opacity="0.7"/>
    <text x="500" y="445" font-family="Arial, sans-serif" font-size="12" fill="#667eea">Teknologiutvikling</text>
    
    <!-- Work change curve -->
    <path d="M 100 490 Q 250 470 400 460 Q 550 450 700 440" fill="none" stroke="#f5576c" stroke-width="3" opacity="0.7"/>
    <text x="300" y="465" font-family="Arial, sans-serif" font-size="12" fill="#f5576c">Arbeidslivsendring</text>
    
    <!-- Regulation curve -->
    <path d="M 100 480 Q 200 460 300 450 Q 500 440 700 450" fill="none" stroke="#4facfe" stroke-width="3" opacity="0.7"/>
    <text x="400" y="445" font-family="Arial, sans-serif" font-size="12" fill="#4facfe">Regulatorisk endring</text>
  </g>
</svg>