<svg xmlns="http://www.w3.org/2000/svg" width="400" height="200" viewBox="0 0 400 200"><defs><linearGradient id="b" x1="0%" x2="100%" y1="0%" y2="0%"><stop offset="0%" style="stop-color:#4a90e2;stop-opacity:1"/><stop offset="100%" style="stop-color:#357abd;stop-opacity:1"/></linearGradient><linearGradient id="a" x1="0%" x2="0%" y1="0%" y2="100%"><stop offset="0%" style="stop-color:#f8f9fa;stop-opacity:1"/><stop offset="100%" style="stop-color:#e9ecef;stop-opacity:1"/></linearGradient></defs><path fill="url(#a)" stroke="#dee2e6" d="M0 0h400v200H0z"/><path fill="url(#b)" d="M0 0h400v50H0z"/><text x="20" y="30" fill="#fff" font-family="Arial, sans-serif" font-size="18" font-weight="bold">1040</text><text x="80" y="30" fill="#fff" font-family="Arial, sans-serif" font-size="18" font-weight="bold">LISENSER</text><g transform="translate(320 10)"><circle cx="15" cy="15" r="12" fill="#fff" opacity=".9"/><path fill="none" stroke="#4a90e2" stroke-width="2" d="M10 10h10v10H10Z"/><path stroke="#4a90e2" stroke-width="1.5" d="M12 13h6M12 16h6"/></g><rect width="360" height="110" x="20" y="70" fill="#fff" stroke="#dee2e6" rx="5"/><text x="30" y="95" fill="#333" font-family="Arial, sans-serif" font-size="14" font-weight="bold">Lisenstyper:</text><rect width="80" height="20" x="30" y="105" fill="#e3f2fd" stroke="#1976d2" rx="3"/><text x="35" y="118" fill="#1976d2" font-family="Arial, sans-serif" font-size="10">Teknologi</text><rect width="80" height="20" x="120" y="105" fill="#f3e5f5" stroke="#7b1fa2" rx="3"/><text x="125" y="118" fill="#7b1fa2" font-family="Arial, sans-serif" font-size="10">Programvare</text><rect width="80" height="20" x="210" y="105" fill="#e8f5e8" stroke="#388e3c" rx="3"/><text x="215" y="118" fill="#388e3c" font-family="Arial, sans-serif" font-size="10">Varemerker</text><rect width="80" height="20" x="300" y="105" fill="#fff3e0" stroke="#f57c00" rx="3"/><text x="305" y="118" fill="#f57c00" font-family="Arial, sans-serif" font-size="10">Franchise</text><text x="30" y="145" fill="#333" font-family="Arial, sans-serif" font-size="12" font-weight="bold">Hovedkjennetegn:</text><circle cx="35" cy="155" r="2" fill="#666"/><text x="45" y="159" fill="#666" font-family="Arial, sans-serif" font-size="10">Rettigheter til ekstern IP</text><circle cx="35" cy="167" r="2" fill="#666"/><text x="45" y="171" fill="#666" font-family="Arial, sans-serif" font-size="10">Aktiveres som anleggsmidler</text><circle cx="200" cy="155" r="2" fill="#666"/><text x="210" y="159" fill="#666" font-family="Arial, sans-serif" font-size="10">Amortiseres over levetid</text><circle cx="200" cy="167" r="2" fill="#666"/><text x="210" y="171" fill="#666" font-family="Arial, sans-serif" font-size="10">Kontraktsbegrenset varighet</text></svg>