<svg width="500" height="300" viewBox="0 0 500 300" xmlns="http://www.w3.org/2000/svg">
  <defs>
    <linearGradient id="chartGradient" x1="0%" y1="0%" x2="0%" y2="100%">
      <stop offset="0%" style="stop-color:#4a90e2;stop-opacity:0.8" />
      <stop offset="100%" style="stop-color:#357abd;stop-opacity:0.9" />
    </linearGradient>
    <filter id="shadow">
      <feDropShadow dx="1" dy="1" stdDeviation="1" flood-color="#000" flood-opacity="0.3"/>
    </filter>
  </defs>
  

  <rect width="500" height="300" fill="#f8f9fa" stroke="#dee2e6" stroke-width="1"/>
  

  <text x="250" y="25" font-family="Arial, sans-serif" font-size="16" font-weight="bold" text-anchor="middle" fill="#333">Amortisering av Lisenser over Tid</text>
  

  <rect x="80" y="50" width="350" height="180" fill="white" stroke="#ccc" stroke-width="1"/>
  

  <g stroke="#e0e0e0" stroke-width="0.5">
    <line x1="80" y1="80" x2="430" y2="80"/>
    <line x1="80" y1="110" x2="430" y2="110"/>
    <line x1="80" y1="140" x2="430" y2="140"/>
    <line x1="80" y1="170" x2="430" y2="170"/>
    <line x1="80" y1="200" x2="430" y2="200"/>
    
    <line x1="110" y1="50" x2="110" y2="230"/>
    <line x1="180" y1="50" x2="180" y2="230"/>
    <line x1="250" y1="50" x2="250" y2="230"/>
    <line x1="320" y1="50" x2="320" y2="230"/>
    <line x1="390" y1="50" x2="390" y2="230"/>
  </g>
  

  <line x1="80" y1="230" x2="430" y2="230" stroke="#333" stroke-width="2"/>
  <line x1="80" y1="50" x2="80" y2="230" stroke="#333" stroke-width="2"/>
  

  <text x="75" y="235" font-family="Arial, sans-serif" font-size="10" text-anchor="end" fill="#666">0</text>
  <text x="75" y="205" font-family="Arial, sans-serif" font-size="10" text-anchor="end" fill="#666">500k</text>
  <text x="75" y="175" font-family="Arial, sans-serif" font-size="10" text-anchor="end" fill="#666">1M</text>
  <text x="75" y="145" font-family="Arial, sans-serif" font-size="10" text-anchor="end" fill="#666">1.5M</text>
  <text x="75" y="115" font-family="Arial, sans-serif" font-size="10" text-anchor="end" fill="#666">2M</text>
  <text x="75" y="85" font-family="Arial, sans-serif" font-size="10" text-anchor="end" fill="#666">2.5M</text>
  <text x="75" y="55" font-family="Arial, sans-serif" font-size="10" text-anchor="end" fill="#666">3M</text>
  

  <text x="110" y="245" font-family="Arial, sans-serif" font-size="10" text-anchor="middle" fill="#666">År 1</text>
  <text x="180" y="245" font-family="Arial, sans-serif" font-size="10" text-anchor="middle" fill="#666">År 2</text>
  <text x="250" y="245" font-family="Arial, sans-serif" font-size="10" text-anchor="middle" fill="#666">År 3</text>
  <text x="320" y="245" font-family="Arial, sans-serif" font-size="10" text-anchor="middle" fill="#666">År 4</text>
  <text x="390" y="245" font-family="Arial, sans-serif" font-size="10" text-anchor="middle" fill="#666">År 5</text>
  

  <rect x="95" y="80" width="30" height="150" fill="url(#chartGradient)" stroke="#357abd" stroke-width="1" filter="url(#shadow)"/>
  <rect x="165" y="110" width="30" height="120" fill="url(#chartGradient)" stroke="#357abd" stroke-width="1" filter="url(#shadow)"/>
  <rect x="235" y="140" width="30" height="90" fill="url(#chartGradient)" stroke="#357abd" stroke-width="1" filter="url(#shadow)"/>
  <rect x="305" y="170" width="30" height="60" fill="url(#chartGradient)" stroke="#357abd" stroke-width="1" filter="url(#shadow)"/>
  <rect x="375" y="200" width="30" height="30" fill="url(#chartGradient)" stroke="#357abd" stroke-width="1" filter="url(#shadow)"/>
  

  <rect x="95" y="200" width="30" height="30" fill="#dc3545" opacity="0.8" stroke="#c82333" stroke-width="1"/>
  <rect x="165" y="200" width="30" height="30" fill="#dc3545" opacity="0.8" stroke="#c82333" stroke-width="1"/>
  <rect x="235" y="200" width="30" height="30" fill="#dc3545" opacity="0.8" stroke="#c82333" stroke-width="1"/>
  <rect x="305" y="200" width="30" height="30" fill="#dc3545" opacity="0.8" stroke="#c82333" stroke-width="1"/>
  <rect x="375" y="200" width="30" height="30" fill="#dc3545" opacity="0.8" stroke="#c82333" stroke-width="1"/>
  

  <text x="110" y="75" font-family="Arial, sans-serif" font-size="9" text-anchor="middle" fill="#333">2.5M</text>
  <text x="180" y="105" font-family="Arial, sans-serif" font-size="9" text-anchor="middle" fill="#333">2.0M</text>
  <text x="250" y="135" font-family="Arial, sans-serif" font-size="9" text-anchor="middle" fill="#333">1.5M</text>
  <text x="320" y="165" font-family="Arial, sans-serif" font-size="9" text-anchor="middle" fill="#333">1.0M</text>
  <text x="390" y="195" font-family="Arial, sans-serif" font-size="9" text-anchor="middle" fill="#333">0.5M</text>
  

  <text x="110" y="220" font-family="Arial, sans-serif" font-size="8" text-anchor="middle" fill="white">500k</text>
  <text x="180" y="220" font-family="Arial, sans-serif" font-size="8" text-anchor="middle" fill="white">500k</text>
  <text x="250" y="220" font-family="Arial, sans-serif" font-size="8" text-anchor="middle" fill="white">500k</text>
  <text x="320" y="220" font-family="Arial, sans-serif" font-size="8" text-anchor="middle" fill="white">500k</text>
  <text x="390" y="220" font-family="Arial, sans-serif" font-size="8" text-anchor="middle" fill="white">500k</text>
  

  <rect x="450" y="80" width="15" height="15" fill="url(#chartGradient)" stroke="#357abd" stroke-width="1"/>
  <text x="470" y="92" font-family="Arial, sans-serif" font-size="10" fill="#333">Balanseført verdi</text>
  
  <rect x="450" y="100" width="15" height="15" fill="#dc3545" opacity="0.8" stroke="#c82333" stroke-width="1"/>
  <text x="470" y="112" font-family="Arial, sans-serif" font-size="10" fill="#333">Amortisering</text>
  

  <rect x="450" y="130" width="40" height="80" fill="white" stroke="#ccc" stroke-width="1" rx="3"/>
  <text x="470" y="145" font-family="Arial, sans-serif" font-size="9" font-weight="bold" text-anchor="middle" fill="#333">Eksempel:</text>
  <text x="452" y="158" font-family="Arial, sans-serif" font-size="8" fill="#666">Anskaffelse:</text>
  <text x="452" y="170" font-family="Arial, sans-serif" font-size="8" fill="#666">2.5M NOK</text>
  <text x="452" y="182" font-family="Arial, sans-serif" font-size="8" fill="#666">Periode:</text>
  <text x="452" y="194" font-family="Arial, sans-serif" font-size="8" fill="#666">5 år</text>
  <text x="452" y="206" font-family="Arial, sans-serif" font-size="8" fill="#666">Årlig:</text>
  <text x="452" y="218" font-family="Arial, sans-serif" font-size="8" fill="#666">500k NOK</text>
  

  <text x="255" y="275" font-family="Arial, sans-serif" font-size="12" text-anchor="middle" fill="#333">År</text>
  <text x="25" y="140" font-family="Arial, sans-serif" font-size="12" text-anchor="middle" fill="#333" transform="rotate(-90 25 140)">NOK</text>
</svg>