<svg xmlns="http://www.w3.org/2000/svg" width="500" height="300" viewBox="0 0 500 300"><defs><linearGradient id="a" x1="0%" x2="100%" y1="0%" y2="0%"><stop offset="0%" style="stop-color:#4a90e2;stop-opacity:1"/><stop offset="100%" style="stop-color:#357abd;stop-opacity:1"/></linearGradient><filter id="b"><feDropShadow dx="2" dy="2" flood-color="#000" flood-opacity=".2" stdDeviation="2"/></filter></defs><path fill="#f8f9fa" stroke="#dee2e6" d="M0 0h500v300H0z"/><text x="250" y="25" fill="#333" font-family="Arial, sans-serif" font-size="16" font-weight="bold" text-anchor="middle">Prosess for Lisensevaluering og Aktivering</text><rect width="100" height="60" x="20" y="50" fill="url(#a)" filter="url(#b)" rx="5"/><text x="70" y="70" fill="#fff" font-family="Arial, sans-serif" font-size="11" font-weight="bold" text-anchor="middle">IDENTIFISERING</text><text x="70" y="85" fill="#fff" font-family="Arial, sans-serif" font-size="9" text-anchor="middle">Kartlegg</text><text x="70" y="97" fill="#fff" font-family="Arial, sans-serif" font-size="9" text-anchor="middle">lisensbehovet</text><path stroke="#666" stroke-width="2" marker-end="url(#c)" d="M130 80h20"/><rect width="100" height="60" x="160" y="50" fill="url(#a)" filter="url(#b)" rx="5"/><text x="210" y="70" fill="#fff" font-family="Arial, sans-serif" font-size="11" font-weight="bold" text-anchor="middle">EVALUERING</text><text x="210" y="85" fill="#fff" font-family="Arial, sans-serif" font-size="9" text-anchor="middle">Vurder teknisk</text><text x="210" y="97" fill="#fff" font-family="Arial, sans-serif" font-size="9" text-anchor="middle">&amp; kommersielt</text><path stroke="#666" stroke-width="2" marker-end="url(#c)" d="M270 80h20"/><rect width="100" height="60" x="300" y="50" fill="url(#a)" filter="url(#b)" rx="5"/><text x="350" y="70" fill="#fff" font-family="Arial, sans-serif" font-size="11" font-weight="bold" text-anchor="middle">FORHANDLING</text><text x="350" y="85" fill="#fff" font-family="Arial, sans-serif" font-size="9" text-anchor="middle">Avtalevilkår</text><text x="350" y="97" fill="#fff" font-family="Arial, sans-serif" font-size="9" text-anchor="middle">&amp; prising</text><path stroke="#666" stroke-width="2" marker-end="url(#c)" d="M350 120v20"/><path fill="#ffc107" stroke="#f57c00" stroke-width="2" d="m350 150 25 25-25 25-25-25z"/><text x="350" y="172" fill="#333" font-family="Arial, sans-serif" font-size="9" text-anchor="middle">Aktiver-</text><text x="350" y="183" fill="#333" font-family="Arial, sans-serif" font-size="9" text-anchor="middle">barhet?</text><path stroke="#28a745" stroke-width="2" marker-end="url(#c)" d="M375 175h45"/><text x="390" y="170" fill="#28a745" font-family="Arial, sans-serif" font-size="9">Ja</text><rect width="60" height="60" x="430" y="145" fill="#28a745" filter="url(#b)" rx="5"/><text x="460" y="165" fill="#fff" font-family="Arial, sans-serif" font-size="10" font-weight="bold" text-anchor="middle">AKTIVER</text><text x="460" y="178" fill="#fff" font-family="Arial, sans-serif" font-size="8" text-anchor="middle">Konto 1040</text><text x="460" y="190" fill="#fff" font-family="Arial, sans-serif" font-size="8" text-anchor="middle">Lisenser</text><path stroke="#dc3545" stroke-width="2" marker-end="url(#c)" d="M325 175h-45"/><text x="310" y="170" fill="#dc3545" font-family="Arial, sans-serif" font-size="9">Nei</text><rect width="60" height="60" x="220" y="145" fill="#dc3545" filter="url(#b)" rx="5"/><text x="250" y="165" fill="#fff" font-family="Arial, sans-serif" font-size="10" font-weight="bold" text-anchor="middle">KOSTNAD</text><text x="250" y="178" fill="#fff" font-family="Arial, sans-serif" font-size="8" text-anchor="middle">Konto 6000</text><text x="250" y="190" fill="#fff" font-family="Arial, sans-serif" font-size="8" text-anchor="middle">Drift</text><rect width="130" height="55" x="50" y="230" fill="#fff" stroke="#4a90e2" rx="3"/><text x="115" y="245" fill="#333" font-family="Arial, sans-serif" font-size="10" font-weight="bold" text-anchor="middle">Aktiveringskriterier:</text><text x="55" y="258" fill="#666" font-family="Arial, sans-serif" font-size="8">• Kontrollerbar ressurs</text><text x="55" y="270" fill="#666" font-family="Arial, sans-serif" font-size="8">• Fremtidige fordeler</text><text x="55" y="282" fill="#666" font-family="Arial, sans-serif" font-size="8">• Pålitelig måling</text><rect width="130" height="55" x="200" y="230" fill="#fff" stroke="#28a745" rx="3"/><text x="265" y="245" fill="#333" font-family="Arial, sans-serif" font-size="10" font-weight="bold" text-anchor="middle">Aktiverbare kostnader:</text><text x="205" y="258" fill="#666" font-family="Arial, sans-serif" font-size="8">• Lisensavgifter</text><text x="205" y="270" fill="#666" font-family="Arial, sans-serif" font-size="8">• Juridiske kostnader</text><text x="205" y="282" fill="#666" font-family="Arial, sans-serif" font-size="8">• Implementering</text><rect width="130" height="55" x="350" y="230" fill="#fff" stroke="#ffc107" rx="3"/><text x="415" y="245" fill="#333" font-family="Arial, sans-serif" font-size="10" font-weight="bold" text-anchor="middle">Vurderingsfaktorer:</text><text x="355" y="258" fill="#666" font-family="Arial, sans-serif" font-size="8">• Teknisk egnethet</text><text x="355" y="270" fill="#666" font-family="Arial, sans-serif" font-size="8">• Kommersiell verdi</text><text x="355" y="282" fill="#666" font-family="Arial, sans-serif" font-size="8">• Strategisk betydning</text><defs><marker id="c" markerHeight="7" markerWidth="10" orient="auto" refX="9" refY="3.5"><path fill="#666" d="m0 0 10 3.5L0 7z"/></marker></defs></svg>