<svg width="800" height="600" viewBox="0 0 800 600" xmlns="http://www.w3.org/2000/svg">

  <rect width="800" height="600" fill="#f8f9fa"/>
  

  <text x="400" y="30" text-anchor="middle" font-size="20" font-weight="bold" fill="#212529">Innhold i Pakkeseddel</text>
  

  <rect x="50" y="60" width="700" height="520" fill="white" stroke="#dee2e6" stroke-width="2" rx="8"/>
  

  <rect x="50" y="60" width="700" height="80" fill="#007bff" rx="8 8 0 0"/>
  <text x="400" y="90" text-anchor="middle" font-size="24" font-weight="bold" fill="white">PAKKESEDDEL</text>
  <text x="400" y="115" text-anchor="middle" font-size="14" fill="white">Leveringsdokument</text>
  

  <rect x="70" y="160" width="320" height="120" fill="#e3f2fd" stroke="#1976d2" stroke-width="1" rx="4"/>
  <text x="80" y="180" font-size="14" font-weight="bold" fill="#1976d2">Leverandørinformasjon:</text>
  <text x="80" y="200" font-size="12" fill="#495057">• Firmanavn</text>
  <text x="80" y="215" font-size="12" fill="#495057">• Adresse</text>
  <text x="80" y="230" font-size="12" fill="#495057">• Organisasjonsnummer</text>
  <text x="80" y="245" font-size="12" fill="#495057">• Kontaktinformasjon</text>
  <text x="80" y="260" font-size="12" fill="#495057">• Logo</text>
  

  <rect x="410" y="160" width="320" height="120" fill="#e8f5e8" stroke="#388e3c" stroke-width="1" rx="4"/>
  <text x="420" y="180" font-size="14" font-weight="bold" fill="#388e3c">Mottakerinformasjon:</text>
  <text x="420" y="200" font-size="12" fill="#495057">• Kundenavn</text>
  <text x="420" y="215" font-size="12" fill="#495057">• Leveringsadresse</text>
  <text x="420" y="230" font-size="12" fill="#495057">• Kundenummer</text>
  <text x="420" y="245" font-size="12" fill="#495057">• Kontaktperson</text>
  <text x="420" y="260" font-size="12" fill="#495057">• Telefon/E-post</text>
  

  <rect x="70" y="300" width="320" height="100" fill="#fff3e0" stroke="#f57c00" stroke-width="1" rx="4"/>
  <text x="80" y="320" font-size="14" font-weight="bold" fill="#f57c00">Ordreinformasjon:</text>
  <text x="80" y="340" font-size="12" fill="#495057">• Ordrenummer</text>
  <text x="80" y="355" font-size="12" fill="#495057">• Ordredato</text>
  <text x="80" y="370" font-size="12" fill="#495057">• Kundens referanse</text>
  <text x="80" y="385" font-size="12" fill="#495057">• Leveringsmetode</text>
  

  <rect x="410" y="300" width="320" height="100" fill="#fce4ec" stroke="#c2185b" stroke-width="1" rx="4"/>
  <text x="420" y="320" font-size="14" font-weight="bold" fill="#c2185b">Datoinformasjon:</text>
  <text x="420" y="340" font-size="12" fill="#495057">• Pakkedato</text>
  <text x="420" y="355" font-size="12" fill="#495057">• Sendt dato</text>
  <text x="420" y="370" font-size="12" fill="#495057">• Forventet leveringsdato</text>
  <text x="420" y="385" font-size="12" fill="#495057">• Sporingsnummer</text>
  

  <rect x="70" y="420" width="660" height="30" fill="#6c757d"/>
  <text x="80" y="440" font-size="12" font-weight="bold" fill="white">Varenr.</text>
  <text x="150" y="440" font-size="12" font-weight="bold" fill="white">Beskrivelse</text>
  <text x="400" y="440" font-size="12" font-weight="bold" fill="white">Antall</text>
  <text x="500" y="440" font-size="12" font-weight="bold" fill="white">Enhet</text>
  <text x="580" y="440" font-size="12" font-weight="bold" fill="white">Serienr./Batch</text>
  

  <rect x="70" y="450" width="660" height="25" fill="#f8f9fa" stroke="#dee2e6" stroke-width="1"/>
  <text x="80" y="467" font-size="11" fill="#495057">PRD001</text>
  <text x="150" y="467" font-size="11" fill="#495057">Produkt A - Blå</text>
  <text x="420" y="467" font-size="11" fill="#495057">5</text>
  <text x="500" y="467" font-size="11" fill="#495057">stk</text>
  <text x="580" y="467" font-size="11" fill="#495057">SN123456</text>
  
  <rect x="70" y="475" width="660" height="25" fill="white" stroke="#dee2e6" stroke-width="1"/>
  <text x="80" y="492" font-size="11" fill="#495057">PRD002</text>
  <text x="150" y="492" font-size="11" fill="#495057">Produkt B - Rød</text>
  <text x="420" y="492" font-size="11" fill="#495057">3</text>
  <text x="500" y="492" font-size="11" fill="#495057">stk</text>
  <text x="580" y="492" font-size="11" fill="#495057">SN789012</text>
  
  <rect x="70" y="500" width="660" height="25" fill="#f8f9fa" stroke="#dee2e6" stroke-width="1"/>
  <text x="80" y="517" font-size="11" fill="#495057">PRD003</text>
  <text x="150" y="517" font-size="11" fill="#495057">Tilbehør Set</text>
  <text x="420" y="517" font-size="11" fill="#495057">1</text>
  <text x="500" y="517" font-size="11" fill="#495057">pk</text>
  <text x="580" y="517" font-size="11" fill="#495057">-</text>
  

  <text x="80" y="550" font-size="11" fill="#6c757d">Totalt antall kolli: 2</text>
  <text x="400" y="550" font-size="11" fill="#6c757d">Spesielle instruksjoner: Håndteres forsiktig</text>
  <text x="80" y="565" font-size="11" fill="#6c757d">Pakket av: John Doe</text>
  <text x="400" y="565" font-size="11" fill="#6c757d">Transportør: PostNord</text>
</svg>