<svg xmlns="http://www.w3.org/2000/svg" width="800" height="600" viewBox="0 0 800 600"><path fill="#f8f9fa" d="M0 0h800v600H0z"/><text x="400" y="30" fill="#212529" font-size="20" font-weight="bold" text-anchor="middle">Innhold i Pakkeseddel</text><rect width="700" height="520" x="50" y="60" fill="#fff" stroke="#dee2e6" stroke-width="2" rx="8"/><rect width="700" height="80" x="50" y="60" fill="#007bff" rx="8 8 0 0"/><text x="400" y="90" fill="#fff" font-size="24" font-weight="bold" text-anchor="middle">PAKKESEDDEL</text><text x="400" y="115" fill="#fff" font-size="14" text-anchor="middle">Leveringsdokument</text><rect width="320" height="120" x="70" y="160" fill="#e3f2fd" stroke="#1976d2" rx="4"/><text x="80" y="180" fill="#1976d2" font-size="14" font-weight="bold">Leverandørinformasjon:</text><text x="80" y="200" fill="#495057" font-size="12">• Firmanavn</text><text x="80" y="215" fill="#495057" font-size="12">• Adresse</text><text x="80" y="230" fill="#495057" font-size="12">• Organisasjonsnummer</text><text x="80" y="245" fill="#495057" font-size="12">• Kontaktinformasjon</text><text x="80" y="260" fill="#495057" font-size="12">• Logo</text><rect width="320" height="120" x="410" y="160" fill="#e8f5e8" stroke="#388e3c" rx="4"/><text x="420" y="180" fill="#388e3c" font-size="14" font-weight="bold">Mottakerinformasjon:</text><text x="420" y="200" fill="#495057" font-size="12">• Kundenavn</text><text x="420" y="215" fill="#495057" font-size="12">• Leveringsadresse</text><text x="420" y="230" fill="#495057" font-size="12">• Kundenummer</text><text x="420" y="245" fill="#495057" font-size="12">• Kontaktperson</text><text x="420" y="260" fill="#495057" font-size="12">• Telefon/E-post</text><rect width="320" height="100" x="70" y="300" fill="#fff3e0" stroke="#f57c00" rx="4"/><text x="80" y="320" fill="#f57c00" font-size="14" font-weight="bold">Ordreinformasjon:</text><text x="80" y="340" fill="#495057" font-size="12">• Ordrenummer</text><text x="80" y="355" fill="#495057" font-size="12">• Ordredato</text><text x="80" y="370" fill="#495057" font-size="12">• Kundens referanse</text><text x="80" y="385" fill="#495057" font-size="12">• Leveringsmetode</text><rect width="320" height="100" x="410" y="300" fill="#fce4ec" stroke="#c2185b" rx="4"/><text x="420" y="320" fill="#c2185b" font-size="14" font-weight="bold">Datoinformasjon:</text><text x="420" y="340" fill="#495057" font-size="12">• Pakkedato</text><text x="420" y="355" fill="#495057" font-size="12">• Sendt dato</text><text x="420" y="370" fill="#495057" font-size="12">• Forventet leveringsdato</text><text x="420" y="385" fill="#495057" font-size="12">• Sporingsnummer</text><path fill="#6c757d" d="M70 420h660v30H70z"/><text x="80" y="440" fill="#fff" font-size="12" font-weight="bold">Varenr.</text><text x="150" y="440" fill="#fff" font-size="12" font-weight="bold">Beskrivelse</text><text x="400" y="440" fill="#fff" font-size="12" font-weight="bold">Antall</text><text x="500" y="440" fill="#fff" font-size="12" font-weight="bold">Enhet</text><text x="580" y="440" fill="#fff" font-size="12" font-weight="bold">Serienr./Batch</text><path fill="#f8f9fa" stroke="#dee2e6" d="M70 450h660v25H70z"/><text x="80" y="467" fill="#495057" font-size="11">PRD001</text><text x="150" y="467" fill="#495057" font-size="11">Produkt A - Blå</text><text x="420" y="467" fill="#495057" font-size="11">5</text><text x="500" y="467" fill="#495057" font-size="11">stk</text><text x="580" y="467" fill="#495057" font-size="11">SN123456</text><path fill="#fff" stroke="#dee2e6" d="M70 475h660v25H70z"/><text x="80" y="492" fill="#495057" font-size="11">PRD002</text><text x="150" y="492" fill="#495057" font-size="11">Produkt B - Rød</text><text x="420" y="492" fill="#495057" font-size="11">3</text><text x="500" y="492" fill="#495057" font-size="11">stk</text><text x="580" y="492" fill="#495057" font-size="11">SN789012</text><path fill="#f8f9fa" stroke="#dee2e6" d="M70 500h660v25H70z"/><text x="80" y="517" fill="#495057" font-size="11">PRD003</text><text x="150" y="517" fill="#495057" font-size="11">Tilbehør Set</text><text x="420" y="517" fill="#495057" font-size="11">1</text><text x="500" y="517" fill="#495057" font-size="11">pk</text><text x="580" y="517" fill="#495057" font-size="11">-</text><text x="80" y="550" fill="#6c757d" font-size="11">Totalt antall kolli: 2</text><text x="400" y="550" fill="#6c757d" font-size="11">Spesielle instruksjoner: Håndteres forsiktig</text><text x="80" y="565" fill="#6c757d" font-size="11">Pakket av: John Doe</text><text x="400" y="565" fill="#6c757d" font-size="11">Transportør: PostNord</text></svg>