<svg xmlns="http://www.w3.org/2000/svg" width="800" height="500" viewBox="0 0 800 500"><path fill="#f8f9fa" d="M0 0h800v500H0z"/><text x="400" y="40" fill="#2c3e50" font-family="Arial, sans-serif" font-size="24" font-weight="bold" text-anchor="middle">Historisk Utvikling av Giro-systemet</text><path stroke="#34495e" stroke-width="3" d="M100 100h600"/><circle cx="150" cy="100" r="8" fill="#e74c3c"/><path stroke="#34495e" stroke-width="2" d="M150 100v50"/><rect width="100" height="60" x="100" y="150" fill="#ecf0f1" stroke="#bdc3c7" rx="5"/><text x="150" y="170" fill="#2c3e50" font-family="Arial, sans-serif" font-size="12" font-weight="bold" text-anchor="middle">1609</text><text x="150" y="185" fill="#2c3e50" font-family="Arial, sans-serif" font-size="10" text-anchor="middle">Amsterdam</text><text x="150" y="200" fill="#2c3e50" font-family="Arial, sans-serif" font-size="10" text-anchor="middle">Wisselbank</text><circle cx="250" cy="100" r="8" fill="#f39c12"/><path stroke="#34495e" stroke-width="2" d="M250 100v150"/><rect width="100" height="60" x="200" y="250" fill="#ecf0f1" stroke="#bdc3c7" rx="5"/><text x="250" y="270" fill="#2c3e50" font-family="Arial, sans-serif" font-size="12" font-weight="bold" text-anchor="middle">1883</text><text x="250" y="285" fill="#2c3e50" font-family="Arial, sans-serif" font-size="10" text-anchor="middle">Østerrike</text><text x="250" y="300" fill="#2c3e50" font-family="Arial, sans-serif" font-size="10" text-anchor="middle">Postgiro</text><circle cx="400" cy="100" r="8" fill="#3498db"/><path stroke="#34495e" stroke-width="2" d="M400 100v50"/><rect width="100" height="60" x="350" y="150" fill="#ecf0f1" stroke="#bdc3c7" rx="5"/><text x="400" y="170" fill="#2c3e50" font-family="Arial, sans-serif" font-size="12" font-weight="bold" text-anchor="middle">1961</text><text x="400" y="185" fill="#2c3e50" font-family="Arial, sans-serif" font-size="10" text-anchor="middle">Norge</text><text x="400" y="200" fill="#2c3e50" font-family="Arial, sans-serif" font-size="10" text-anchor="middle">Postgirot</text><circle cx="500" cy="100" r="8" fill="#9b59b6"/><path stroke="#34495e" stroke-width="2" d="M500 100v150"/><rect width="100" height="60" x="450" y="250" fill="#ecf0f1" stroke="#bdc3c7" rx="5"/><text x="500" y="270" fill="#2c3e50" font-family="Arial, sans-serif" font-size="12" font-weight="bold" text-anchor="middle">1980-tallet</text><text x="500" y="285" fill="#2c3e50" font-family="Arial, sans-serif" font-size="10" text-anchor="middle">Elektronisk</text><text x="500" y="300" fill="#2c3e50" font-family="Arial, sans-serif" font-size="10" text-anchor="middle">Behandling</text><circle cx="600" cy="100" r="8" fill="#27ae60"/><path stroke="#34495e" stroke-width="2" d="M600 100v50"/><rect width="100" height="60" x="550" y="150" fill="#ecf0f1" stroke="#bdc3c7" rx="5"/><text x="600" y="170" fill="#2c3e50" font-family="Arial, sans-serif" font-size="12" font-weight="bold" text-anchor="middle">1990-tallet</text><text x="600" y="185" fill="#2c3e50" font-family="Arial, sans-serif" font-size="10" text-anchor="middle">BankGiro &amp;</text><text x="600" y="200" fill="#2c3e50" font-family="Arial, sans-serif" font-size="10" text-anchor="middle">AvtaleGiro</text><defs><marker id="a" markerHeight="7" markerWidth="10" orient="auto" refX="9" refY="3.5"><path fill="#34495e" d="m0 0 10 3.5L0 7z"/></marker></defs><rect width="150" height="80" x="50" y="350" fill="#e8f4fd" stroke="#3498db" stroke-width="2" rx="5"/><text x="125" y="370" fill="#2c3e50" font-family="Arial, sans-serif" font-size="12" font-weight="bold" text-anchor="middle">Tidlige Innovasjoner</text><text x="125" y="385" fill="#2c3e50" font-family="Arial, sans-serif" font-size="10" text-anchor="middle">• Manuell behandling</text><text x="125" y="400" fill="#2c3e50" font-family="Arial, sans-serif" font-size="10" text-anchor="middle">• Papirbasert</text><text x="125" y="415" fill="#2c3e50" font-family="Arial, sans-serif" font-size="10" text-anchor="middle">• Sentral clearing</text><rect width="150" height="80" x="250" y="350" fill="#fdf2e9" stroke="#f39c12" stroke-width="2" rx="5"/><text x="325" y="370" fill="#2c3e50" font-family="Arial, sans-serif" font-size="12" font-weight="bold" text-anchor="middle">Nasjonale Systemer</text><text x="325" y="385" fill="#2c3e50" font-family="Arial, sans-serif" font-size="10" text-anchor="middle">• Standardisering</text><text x="325" y="400" fill="#2c3e50" font-family="Arial, sans-serif" font-size="10" text-anchor="middle">• Masseprosessering</text><text x="325" y="415" fill="#2c3e50" font-family="Arial, sans-serif" font-size="10" text-anchor="middle">• Kostnadseffektivitet</text><rect width="150" height="80" x="450" y="350" fill="#e8f8f5" stroke="#27ae60" stroke-width="2" rx="5"/><text x="525" y="370" fill="#2c3e50" font-family="Arial, sans-serif" font-size="12" font-weight="bold" text-anchor="middle">Digital Revolusjon</text><text x="525" y="385" fill="#2c3e50" font-family="Arial, sans-serif" font-size="10" text-anchor="middle">• Automatisering</text><text x="525" y="400" fill="#2c3e50" font-family="Arial, sans-serif" font-size="10" text-anchor="middle">• Sanntidsbehandling</text><text x="525" y="415" fill="#2c3e50" font-family="Arial, sans-serif" font-size="10" text-anchor="middle">• Mobilintegrasjon</text><rect width="150" height="80" x="600" y="350" fill="#fdf2f8" stroke="#9b59b6" stroke-width="2" rx="5"/><text x="675" y="370" fill="#2c3e50" font-family="Arial, sans-serif" font-size="12" font-weight="bold" text-anchor="middle">Fremtiden</text><text x="675" y="385" fill="#2c3e50" font-family="Arial, sans-serif" font-size="10" text-anchor="middle">• AI &amp; Maskinlæring</text><text x="675" y="400" fill="#2c3e50" font-family="Arial, sans-serif" font-size="10" text-anchor="middle">• Blockchain</text><text x="675" y="415" fill="#2c3e50" font-family="Arial, sans-serif" font-size="10" text-anchor="middle">• Kryptovaluta</text><path stroke="#34495e" stroke-width="2" marker-end="url(#a)" d="M200 390h40"/><path stroke="#34495e" stroke-width="2" marker-end="url(#a)" d="M400 390h40"/><path stroke="#34495e" stroke-width="2" marker-end="url(#a)" d="M600 390h40"/></svg>