<svg xmlns="http://www.w3.org/2000/svg" width="800" height="600" viewBox="0 0 800 600"><path fill="#f8f9fa" d="M0 0h800v600H0z"/><text x="400" y="40" fill="#2c3e50" font-family="Arial, sans-serif" font-size="24" font-weight="bold" text-anchor="middle">Fordeler med Giro-systemet</text><circle cx="400" cy="300" r="80" fill="#3498db" stroke="#2980b9" stroke-width="4"/><text x="400" y="295" fill="#fff" font-family="Arial, sans-serif" font-size="16" font-weight="bold" text-anchor="middle">GIRO</text><text x="400" y="315" fill="#fff" font-family="Arial, sans-serif" font-size="14" text-anchor="middle">SYSTEM</text><rect width="250" height="150" x="50" y="80" fill="#e8f4fd" stroke="#3498db" stroke-width="3" rx="10"/><text x="175" y="110" fill="#2c3e50" font-family="Arial, sans-serif" font-size="18" font-weight="bold" text-anchor="middle">Privatpersoner</text><circle cx="80" cy="140" r="5" fill="#27ae60"/><text x="95" y="145" fill="#2c3e50" font-family="Arial, sans-serif" font-size="12">Enkelhet i betaling</text><circle cx="80" cy="160" r="5" fill="#27ae60"/><text x="95" y="165" fill="#2c3e50" font-family="Arial, sans-serif" font-size="12">Økt sikkerhet</text><circle cx="80" cy="180" r="5" fill="#27ae60"/><text x="95" y="185" fill="#2c3e50" font-family="Arial, sans-serif" font-size="12">Komplett sporbarhet</text><circle cx="80" cy="200" r="5" fill="#27ae60"/><text x="95" y="205" fill="#2c3e50" font-family="Arial, sans-serif" font-size="12">Automatiseringsmuligheter</text><rect width="250" height="150" x="500" y="80" fill="#e8f8f5" stroke="#27ae60" stroke-width="3" rx="10"/><text x="625" y="110" fill="#2c3e50" font-family="Arial, sans-serif" font-size="18" font-weight="bold" text-anchor="middle">Bedrifter</text><circle cx="530" cy="140" r="5" fill="#3498db"/><text x="545" y="145" fill="#2c3e50" font-family="Arial, sans-serif" font-size="12">Forbedret arbeidskapital</text><circle cx="530" cy="160" r="5" fill="#3498db"/><text x="545" y="165" fill="#2c3e50" font-family="Arial, sans-serif" font-size="12">Reduserte kostnader</text><circle cx="530" cy="180" r="5" fill="#3498db"/><text x="545" y="185" fill="#2c3e50" font-family="Arial, sans-serif" font-size="12">Bedre kontroll</text><circle cx="530" cy="200" r="5" fill="#3498db"/><text x="545" y="205" fill="#2c3e50" font-family="Arial, sans-serif" font-size="12">Automatisk bokføring</text><rect width="250" height="120" x="50" y="450" fill="#fdf2e9" stroke="#f39c12" stroke-width="3" rx="10"/><text x="175" y="480" fill="#2c3e50" font-family="Arial, sans-serif" font-size="18" font-weight="bold" text-anchor="middle">Samfunnet</text><circle cx="80" cy="510" r="5" fill="#9b59b6"/><text x="95" y="515" fill="#2c3e50" font-family="Arial, sans-serif" font-size="12">Økt effektivitet</text><circle cx="80" cy="530" r="5" fill="#9b59b6"/><text x="95" y="535" fill="#2c3e50" font-family="Arial, sans-serif" font-size="12">Bedre transparens</text><circle cx="80" cy="550" r="5" fill="#9b59b6"/><text x="95" y="555" fill="#2c3e50" font-family="Arial, sans-serif" font-size="12">Finansiell inkludering</text><rect width="250" height="120" x="500" y="450" fill="#fdf2f8" stroke="#9b59b6" stroke-width="3" rx="10"/><text x="625" y="480" fill="#2c3e50" font-family="Arial, sans-serif" font-size="18" font-weight="bold" text-anchor="middle">Regnskapsførere</text><circle cx="530" cy="510" r="5" fill="#e74c3c"/><text x="545" y="515" fill="#2c3e50" font-family="Arial, sans-serif" font-size="12">Automatiserte prosesser</text><circle cx="530" cy="530" r="5" fill="#e74c3c"/><text x="545" y="535" fill="#2c3e50" font-family="Arial, sans-serif" font-size="12">Bedre datakvalitet</text><circle cx="530" cy="550" r="5" fill="#e74c3c"/><text x="545" y="555" fill="#2c3e50" font-family="Arial, sans-serif" font-size="12">Effektiv avstemming</text><defs><marker id="a" markerHeight="7" markerWidth="10" orient="auto" refX="9" refY="3.5"><path fill="#34495e" d="m0 0 10 3.5L0 7z"/></marker></defs><path stroke="#3498db" stroke-width="3" marker-end="url(#a)" d="m300 155 40 95"/><path stroke="#27ae60" stroke-width="3" marker-end="url(#a)" d="m500 155-40 95"/><path stroke="#f39c12" stroke-width="3" marker-end="url(#a)" d="m300 510 40-160"/><path stroke="#9b59b6" stroke-width="3" marker-end="url(#a)" d="m500 510-40-160"/><rect width="160" height="80" x="320" y="400" fill="#fff" stroke="#bdc3c7" stroke-width="2" rx="5"/><text x="400" y="420" fill="#2c3e50" font-family="Arial, sans-serif" font-size="14" font-weight="bold" text-anchor="middle">Nøkkeltall</text><text x="400" y="440" fill="#2c3e50" font-family="Arial, sans-serif" font-size="12" text-anchor="middle">4+ mill. brukere</text><text x="400" y="455" fill="#2c3e50" font-family="Arial, sans-serif" font-size="12" text-anchor="middle">Milliarder i volum</text><text x="400" y="470" fill="#2c3e50" font-family="Arial, sans-serif" font-size="12" text-anchor="middle">99.9% oppetid</text><rect width="120" height="60" x="150" y="280" fill="#d4edda" stroke="#28a745" stroke-width="2" rx="5"/><text x="210" y="300" fill="#155724" font-family="Arial, sans-serif" font-size="12" font-weight="bold" text-anchor="middle">Kostnadsbesparelser</text><text x="210" y="315" fill="#155724" font-family="Arial, sans-serif" font-size="11" text-anchor="middle">Reduserte</text><text x="210" y="330" fill="#155724" font-family="Arial, sans-serif" font-size="11" text-anchor="middle">transaksjonskostnader</text><rect width="120" height="60" x="530" y="280" fill="#cce5ff" stroke="#007bff" stroke-width="2" rx="5"/><text x="590" y="300" fill="#004085" font-family="Arial, sans-serif" font-size="12" font-weight="bold" text-anchor="middle">Tidsbesparelser</text><text x="590" y="315" fill="#004085" font-family="Arial, sans-serif" font-size="11" text-anchor="middle">Automatiserte</text><text x="590" y="330" fill="#004085" font-family="Arial, sans-serif" font-size="11" text-anchor="middle">prosesser</text><circle cx="400" cy="520" r="30" fill="#28a745" stroke="#1e7e34" stroke-width="2"/><text x="400" y="515" fill="#fff" font-family="Arial, sans-serif" font-size="10" font-weight="bold" text-anchor="middle">MILJØ</text><text x="400" y="530" fill="#fff" font-family="Arial, sans-serif" font-size="9" text-anchor="middle">Mindre papir</text><path fill="#ffc107" stroke="#e0a800" stroke-width="2" d="m400 60 10 20h20l-14 12 6 20-22-12-22 12 6-20-14-12h20z"/><text x="400" y="75" fill="#856404" font-family="Arial, sans-serif" font-size="8" font-weight="bold" text-anchor="middle">INNOVASJON</text></svg>