<svg xmlns="http://www.w3.org/2000/svg" width="800" height="600" viewBox="0 0 800 600"><path fill="#f8f9fa" d="M0 0h800v600H0z"/><text x="400" y="40" fill="#2c3e50" font-family="Arial, sans-serif" font-size="24" font-weight="bold" text-anchor="middle">Typer Giro-systemer</text><rect width="300" height="200" x="50" y="80" fill="#e8f4fd" stroke="#3498db" stroke-width="3" rx="10"/><text x="200" y="110" fill="#2c3e50" font-family="Arial, sans-serif" font-size="18" font-weight="bold" text-anchor="middle">BankGiro</text><rect width="60" height="40" x="80" y="130" fill="#3498db" stroke="#2980b9" stroke-width="2" rx="5"/><text x="110" y="150" fill="#fff" font-family="Arial, sans-serif" font-size="10" font-weight="bold" text-anchor="middle">BANK</text><text x="110" y="162" fill="#fff" font-family="Arial, sans-serif" font-size="8" text-anchor="middle">GIRO</text><text x="160" y="140" fill="#2c3e50" font-family="Arial, sans-serif" font-size="12">• Manuell betaling</text><text x="160" y="155" fill="#2c3e50" font-family="Arial, sans-serif" font-size="12">• OCR-nummer</text><text x="160" y="170" fill="#2c3e50" font-family="Arial, sans-serif" font-size="12">• Enkeltbetalinger</text><text x="160" y="185" fill="#2c3e50" font-family="Arial, sans-serif" font-size="12">• Varierende regninger</text><rect width="50" height="30" x="80" y="210" fill="#ecf0f1" stroke="#bdc3c7" rx="3"/><text x="105" y="230" fill="#2c3e50" font-family="Arial, sans-serif" font-size="10" text-anchor="middle">Kunde</text><path stroke="#34495e" stroke-width="2" d="M130 225h30"/><path fill="#34495e" d="m155 220 10 5-10 5z"/><rect width="50" height="30" x="170" y="210" fill="#ecf0f1" stroke="#bdc3c7" rx="3"/><text x="195" y="230" fill="#2c3e50" font-family="Arial, sans-serif" font-size="10" text-anchor="middle">Bank</text><path stroke="#34495e" stroke-width="2" d="M220 225h30"/><path fill="#34495e" d="m245 220 10 5-10 5z"/><rect width="60" height="30" x="260" y="210" fill="#ecf0f1" stroke="#bdc3c7" rx="3"/><text x="290" y="230" fill="#2c3e50" font-family="Arial, sans-serif" font-size="10" text-anchor="middle">Mottaker</text><rect width="300" height="200" x="450" y="80" fill="#e8f8f5" stroke="#27ae60" stroke-width="3" rx="10"/><text x="600" y="110" fill="#2c3e50" font-family="Arial, sans-serif" font-size="18" font-weight="bold" text-anchor="middle">AvtaleGiro</text><rect width="60" height="40" x="480" y="130" fill="#27ae60" stroke="#229954" stroke-width="2" rx="5"/><text x="510" y="150" fill="#fff" font-family="Arial, sans-serif" font-size="10" font-weight="bold" text-anchor="middle">AVTALE</text><text x="510" y="162" fill="#fff" font-family="Arial, sans-serif" font-size="8" text-anchor="middle">GIRO</text><text x="560" y="140" fill="#2c3e50" font-family="Arial, sans-serif" font-size="12">• Automatisk trekk</text><text x="560" y="155" fill="#2c3e50" font-family="Arial, sans-serif" font-size="12">• Forhåndsdefinert</text><text x="560" y="170" fill="#2c3e50" font-family="Arial, sans-serif" font-size="12">• Regelmessige betalinger</text><text x="560" y="185" fill="#2c3e50" font-family="Arial, sans-serif" font-size="12">• Kunde kan stoppe</text><rect width="50" height="30" x="480" y="210" fill="#ecf0f1" stroke="#bdc3c7" rx="3"/><text x="505" y="230" fill="#2c3e50" font-family="Arial, sans-serif" font-size="10" text-anchor="middle">Avtale</text><path stroke="#34495e" stroke-width="2" d="M530 225h30"/><path fill="#34495e" d="m555 220 10 5-10 5z"/><rect width="50" height="30" x="570" y="210" fill="#ecf0f1" stroke="#bdc3c7" rx="3"/><text x="595" y="230" fill="#2c3e50" font-family="Arial, sans-serif" font-size="10" text-anchor="middle">Auto</text><path stroke="#34495e" stroke-width="2" d="M620 225h30"/><path fill="#34495e" d="m645 220 10 5-10 5z"/><rect width="60" height="30" x="660" y="210" fill="#ecf0f1" stroke="#bdc3c7" rx="3"/><text x="690" y="230" fill="#2c3e50" font-family="Arial, sans-serif" font-size="10" text-anchor="middle">Betaling</text><rect width="300" height="200" x="50" y="320" fill="#fdf2f8" stroke="#9b59b6" stroke-width="3" rx="10"/><text x="200" y="350" fill="#2c3e50" font-family="Arial, sans-serif" font-size="18" font-weight="bold" text-anchor="middle">Elektronisk Giro</text><rect width="60" height="40" x="80" y="370" fill="#9b59b6" stroke="#8e44ad" stroke-width="2" rx="5"/><text x="110" y="390" fill="#fff" font-family="Arial, sans-serif" font-size="10" font-weight="bold" text-anchor="middle">e-GIRO</text><text x="110" y="402" fill="#fff" font-family="Arial, sans-serif" font-size="8" text-anchor="middle">DIGITAL</text><text x="160" y="380" fill="#2c3e50" font-family="Arial, sans-serif" font-size="12">• Digital behandling</text><text x="160" y="395" fill="#2c3e50" font-family="Arial, sans-serif" font-size="12">• Sanntidsbehandling</text><text x="160" y="410" fill="#2c3e50" font-family="Arial, sans-serif" font-size="12">• API-integrasjon</text><text x="160" y="425" fill="#2c3e50" font-family="Arial, sans-serif" font-size="12">• Mobiloptimalisert</text><rect width="50" height="30" x="80" y="450" fill="#ecf0f1" stroke="#bdc3c7" rx="3"/><text x="105" y="470" fill="#2c3e50" font-family="Arial, sans-serif" font-size="10" text-anchor="middle">Digital</text><path stroke="#34495e" stroke-width="2" d="M130 465h30"/><path fill="#34495e" d="m155 460 10 5-10 5z"/><rect width="50" height="30" x="170" y="450" fill="#ecf0f1" stroke="#bdc3c7" rx="3"/><text x="195" y="470" fill="#2c3e50" font-family="Arial, sans-serif" font-size="10" text-anchor="middle">API</text><path stroke="#34495e" stroke-width="2" d="M220 465h30"/><path fill="#34495e" d="m245 460 10 5-10 5z"/><rect width="60" height="30" x="260" y="450" fill="#ecf0f1" stroke="#bdc3c7" rx="3"/><text x="290" y="470" fill="#2c3e50" font-family="Arial, sans-serif" font-size="10" text-anchor="middle">Sanntid</text><rect width="300" height="200" x="450" y="320" fill="#fdf2e9" stroke="#f39c12" stroke-width="3" rx="10"/><text x="600" y="350" fill="#2c3e50" font-family="Arial, sans-serif" font-size="18" font-weight="bold" text-anchor="middle">Internasjonale Giro</text><rect width="60" height="40" x="480" y="370" fill="#f39c12" stroke="#e67e22" stroke-width="2" rx="5"/><text x="510" y="390" fill="#fff" font-family="Arial, sans-serif" font-size="10" font-weight="bold" text-anchor="middle">INTL</text><text x="510" y="402" fill="#fff" font-family="Arial, sans-serif" font-size="8" text-anchor="middle">GIRO</text><text x="560" y="380" fill="#2c3e50" font-family="Arial, sans-serif" font-size="12">• SEPA-betalinger</text><text x="560" y="395" fill="#2c3e50" font-family="Arial, sans-serif" font-size="12">• SWIFT-nettverk</text><text x="560" y="410" fill="#2c3e50" font-family="Arial, sans-serif" font-size="12">• Correspondent banking</text><text x="560" y="425" fill="#2c3e50" font-family="Arial, sans-serif" font-size="12">• Valutakonvertering</text><rect width="50" height="30" x="480" y="450" fill="#ecf0f1" stroke="#bdc3c7" rx="3"/><text x="505" y="470" fill="#2c3e50" font-family="Arial, sans-serif" font-size="10" text-anchor="middle">Norge</text><path stroke="#34495e" stroke-width="2" d="M530 465h30"/><path fill="#34495e" d="m555 460 10 5-10 5z"/><rect width="50" height="30" x="570" y="450" fill="#ecf0f1" stroke="#bdc3c7" rx="3"/><text x="595" y="470" fill="#2c3e50" font-family="Arial, sans-serif" font-size="10" text-anchor="middle">SWIFT</text><path stroke="#34495e" stroke-width="2" d="M620 465h30"/><path fill="#34495e" d="m645 460 10 5-10 5z"/><rect width="60" height="30" x="660" y="450" fill="#ecf0f1" stroke="#bdc3c7" rx="3"/><text x="690" y="470" fill="#2c3e50" font-family="Arial, sans-serif" font-size="10" text-anchor="middle">Europa</text><text x="400" y="570" fill="#7f8c8d" font-family="Arial, sans-serif" font-size="14" text-anchor="middle">Hver giro-type har sine spesifikke bruksområder og fordeler</text></svg>