<svg xmlns="http://www.w3.org/2000/svg" width="800" height="400" viewBox="0 0 800 400"><path fill="#f8f9fa" d="M0 0h800v400H0z"/><text x="400" y="50" fill="#2c3e50" font-family="Arial, sans-serif" font-size="32" font-weight="bold" text-anchor="middle">Giro-systemet</text><circle cx="400" cy="200" r="80" fill="#3498db" stroke="#2980b9" stroke-width="3"/><text x="400" y="205" fill="#fff" font-family="Arial, sans-serif" font-size="18" font-weight="bold" text-anchor="middle">GIRO</text><rect width="80" height="50" x="150" y="120" fill="#e74c3c" stroke="#c0392b" stroke-width="2" rx="5"/><text x="190" y="140" fill="#fff" font-family="Arial, sans-serif" font-size="12" font-weight="bold" text-anchor="middle">Bank A</text><text x="190" y="155" fill="#fff" font-family="Arial, sans-serif" font-size="10" text-anchor="middle">Avsender</text><rect width="80" height="50" x="570" y="120" fill="#27ae60" stroke="#229954" stroke-width="2" rx="5"/><text x="610" y="140" fill="#fff" font-family="Arial, sans-serif" font-size="12" font-weight="bold" text-anchor="middle">Bank B</text><text x="610" y="155" fill="#fff" font-family="Arial, sans-serif" font-size="10" text-anchor="middle">Mottaker</text><rect width="80" height="50" x="150" y="280" fill="#9b59b6" stroke="#8e44ad" stroke-width="2" rx="5"/><text x="190" y="300" fill="#fff" font-family="Arial, sans-serif" font-size="12" font-weight="bold" text-anchor="middle">Bank C</text><text x="190" y="315" fill="#fff" font-family="Arial, sans-serif" font-size="10" text-anchor="middle">Clearing</text><rect width="80" height="50" x="570" y="280" fill="#f39c12" stroke="#e67e22" stroke-width="2" rx="5"/><text x="610" y="300" fill="#fff" font-family="Arial, sans-serif" font-size="12" font-weight="bold" text-anchor="middle">Bank D</text><text x="610" y="315" fill="#fff" font-family="Arial, sans-serif" font-size="10" text-anchor="middle">Settlement</text><defs><marker id="a" markerHeight="7" markerWidth="10" orient="auto" refX="9" refY="3.5"><path fill="#34495e" d="m0 0 10 3.5L0 7z"/></marker></defs><path stroke="#34495e" stroke-width="2" marker-end="url(#a)" d="m230 145 90 35"/><path stroke="#34495e" stroke-width="2" marker-end="url(#a)" d="m570 145-90 35"/><path stroke="#34495e" stroke-width="2" marker-end="url(#a)" d="m230 305 90-85"/><path stroke="#34495e" stroke-width="2" marker-end="url(#a)" d="m570 305-90-85"/><text x="280" y="165" fill="#27ae60" font-family="Arial, sans-serif" font-size="16">€</text><text x="520" y="165" fill="#27ae60" font-family="Arial, sans-serif" font-size="16">€</text><text x="280" y="240" fill="#27ae60" font-family="Arial, sans-serif" font-size="16">€</text><text x="520" y="240" fill="#27ae60" font-family="Arial, sans-serif" font-size="16">€</text><text x="400" y="360" fill="#7f8c8d" font-family="Arial, sans-serif" font-size="14" text-anchor="middle">Sentralisert betalingssystem for sikre og effektive pengeoverføringer</text></svg>