<svg xmlns="http://www.w3.org/2000/svg" width="500" height="300"><defs><linearGradient id="a" x1="0%" x2="0%" y1="0%" y2="100%"><stop offset="0%" style="stop-color:#28a745;stop-opacity:.8"/><stop offset="100%" style="stop-color:#28a745;stop-opacity:.4"/></linearGradient><linearGradient id="b" x1="0%" x2="0%" y1="0%" y2="100%"><stop offset="0%" style="stop-color:#ffc107;stop-opacity:.8"/><stop offset="100%" style="stop-color:#ffc107;stop-opacity:.4"/></linearGradient></defs><path fill="#f8f9fa" stroke="#dee2e6" d="M0 0h500v300H0z"/><text x="250" y="30" fill="#212529" font-family="Arial, sans-serif" font-size="18" font-weight="bold" text-anchor="middle">
    Grunnrente Konsept
  </text><path stroke="#495057" stroke-width="2" d="M50 50v200"/><text x="25" y="150" fill="#495057" font-family="Arial, sans-serif" font-size="12" text-anchor="middle" transform="rotate(-90 25 150)">
    Avkastning
  </text><path stroke="#495057" stroke-width="2" d="M50 250h400"/><text x="250" y="275" fill="#495057" font-family="Arial, sans-serif" font-size="12" text-anchor="middle">
    Ressurskvalitet / Tilgjengelighet
  </text><path stroke="#6c757d" stroke-dasharray="5,5" stroke-width="2" d="M50 200h400"/><text x="460" y="205" fill="#6c757d" font-family="Arial, sans-serif" font-size="11">
    Normal avkastning
  </text><path fill="url(#a)" d="M80 190h60v60H80z"/><text x="110" y="270" fill="#495057" font-family="Arial, sans-serif" font-size="10" text-anchor="middle">
    Lav kvalitet
  </text><text x="110" y="180" fill="#28a745" font-family="Arial, sans-serif" font-size="10" text-anchor="middle">
    Kun normal avkastning
  </text><path fill="url(#a)" d="M170 170h60v80h-60z"/><path fill="url(#b)" d="M170 150h60v20h-60z"/><text x="200" y="270" fill="#495057" font-family="Arial, sans-serif" font-size="10" text-anchor="middle">
    Middels kvalitet
  </text><text x="200" y="140" fill="#ffc107" font-family="Arial, sans-serif" font-size="10" text-anchor="middle">
    Liten grunnrente
  </text><path fill="url(#a)" d="M260 120h60v130h-60z"/><path fill="url(#b)" d="M260 80h60v40h-60z"/><text x="290" y="270" fill="#495057" font-family="Arial, sans-serif" font-size="10" text-anchor="middle">
    Høy kvalitet
  </text><text x="290" y="70" fill="#ffc107" font-family="Arial, sans-serif" font-size="10" text-anchor="middle">
    Stor grunnrente
  </text><path fill="url(#a)" d="M350 100h60v150h-60z"/><path fill="url(#b)" d="M350 60h60v40h-60z"/><text x="380" y="270" fill="#495057" font-family="Arial, sans-serif" font-size="10" text-anchor="middle">
    Premium kvalitet
  </text><text x="380" y="50" fill="#ffc107" font-family="Arial, sans-serif" font-size="10" text-anchor="middle">
    Høy grunnrente
  </text><path fill="url(#a)" d="M60 60h15v15H60z"/><text x="80" y="72" fill="#495057" font-family="Arial, sans-serif" font-size="11">
    Normal avkastning (kapital + risiko)
  </text><path fill="url(#b)" d="M60 80h15v15H60z"/><text x="80" y="92" fill="#495057" font-family="Arial, sans-serif" font-size="11">
    Grunnrente (ekstraordinær avkastning)
  </text></svg>