<svg xmlns="http://www.w3.org/2000/svg" width="800" height="500" viewBox="0 0 800 500"><path fill="#f8f9fa" d="M0 0h800v500H0z"/><text x="400" y="30" fill="#2c3e50" font-family="Arial, sans-serif" font-size="24" font-weight="bold" text-anchor="middle">
    Crowdlending Risikohåndtering
  </text><g transform="translate(50 70)"><text x="150" y="20" fill="#dc3545" font-family="Arial, sans-serif" font-size="18" font-weight="bold" text-anchor="middle">
      Risikotyper
    </text><rect width="260" height="60" x="20" y="40" fill="#f8d7da" stroke="#dc3545" stroke-width="2" rx="8"/><text x="30" y="60" fill="#721c24" font-family="Arial, sans-serif" font-size="14" font-weight="bold">
      1. Kredittrisiko
    </text><text x="30" y="75" fill="#721c24" font-family="Arial, sans-serif" font-size="11">
      • Mislighold av lån
    </text><text x="30" y="90" fill="#721c24" font-family="Arial, sans-serif" font-size="11">
      • Konkurs hos låntaker
    </text><rect width="260" height="60" x="20" y="110" fill="#fff3cd" stroke="#ffc107" stroke-width="2" rx="8"/><text x="30" y="130" fill="#856404" font-family="Arial, sans-serif" font-size="14" font-weight="bold">
      2. Plattformrisiko
    </text><text x="30" y="145" fill="#856404" font-family="Arial, sans-serif" font-size="11">
      • Plattformens konkurs
    </text><text x="30" y="160" fill="#856404" font-family="Arial, sans-serif" font-size="11">
      • Tekniske problemer
    </text><rect width="260" height="60" x="20" y="180" fill="#d1ecf1" stroke="#17a2b8" stroke-width="2" rx="8"/><text x="30" y="200" fill="#0c5460" font-family="Arial, sans-serif" font-size="14" font-weight="bold">
      3. Likviditetsrisiko
    </text><text x="30" y="215" fill="#0c5460" font-family="Arial, sans-serif" font-size="11">
      • Vanskeligheter med å selge lån
    </text><text x="30" y="230" fill="#0c5460" font-family="Arial, sans-serif" font-size="11">
      • Begrenset sekundærmarked
    </text><rect width="260" height="60" x="20" y="250" fill="#e2e3e5" stroke="#6c757d" stroke-width="2" rx="8"/><text x="30" y="270" fill="#495057" font-family="Arial, sans-serif" font-size="14" font-weight="bold">
      4. Regulatorisk risiko
    </text><text x="30" y="285" fill="#495057" font-family="Arial, sans-serif" font-size="11">
      • Endringer i lovgivning
    </text><text x="30" y="300" fill="#495057" font-family="Arial, sans-serif" font-size="11">
      • Nye skattebestemmelser
    </text></g><g transform="translate(400 70)"><text x="150" y="20" fill="#28a745" font-family="Arial, sans-serif" font-size="18" font-weight="bold" text-anchor="middle">
      Risikovurderingsprosess
    </text><rect width="200" height="40" x="50" y="40" fill="#d4edda" stroke="#28a745" stroke-width="2" rx="20"/><text x="150" y="65" fill="#155724" font-family="Arial, sans-serif" font-size="12" font-weight="bold" text-anchor="middle">
      1. Identifisering
    </text><path stroke="#28a745" stroke-width="2" marker-end="url(#a)" d="M150 80v15"/><rect width="200" height="40" x="50" y="100" fill="#d4edda" stroke="#28a745" stroke-width="2" rx="20"/><text x="150" y="125" fill="#155724" font-family="Arial, sans-serif" font-size="12" font-weight="bold" text-anchor="middle">
      2. Måling og Vurdering
    </text><path stroke="#28a745" stroke-width="2" marker-end="url(#a)" d="M150 140v15"/><rect width="200" height="40" x="50" y="160" fill="#d4edda" stroke="#28a745" stroke-width="2" rx="20"/><text x="150" y="185" fill="#155724" font-family="Arial, sans-serif" font-size="12" font-weight="bold" text-anchor="middle">
      3. Tapsavsetning
    </text><path stroke="#28a745" stroke-width="2" marker-end="url(#a)" d="M150 200v15"/><rect width="200" height="40" x="50" y="220" fill="#d4edda" stroke="#28a745" stroke-width="2" rx="20"/><text x="150" y="245" fill="#155724" font-family="Arial, sans-serif" font-size="12" font-weight="bold" text-anchor="middle">
      4. Overvåking og Rapportering
    </text><g fill="#6c757d" font-family="Arial, sans-serif"><text x="10" y="15" font-size="10" transform="translate(280 40)">
        Faktorer:
      </text><text x="10" y="30" font-size="9" transform="translate(280 40)">
        • Kreditthistorikk
      </text><text x="10" y="42" font-size="9" transform="translate(280 40)">
        • Bransje
      </text><text x="10" y="54" font-size="9" transform="translate(280 40)">
        • Finansiell stilling
      </text></g><g fill="#6c757d" font-family="Arial, sans-serif"><text x="10" y="15" font-size="10" transform="translate(280 100)">
        Metoder:
      </text><text x="10" y="30" font-size="9" transform="translate(280 100)">
        • Historiske data
      </text><text x="10" y="42" font-size="9" transform="translate(280 100)">
        • Stress-testing
      </text><text x="10" y="54" font-size="9" transform="translate(280 100)">
        • Peer-sammenligning
      </text></g><g fill="#6c757d" font-family="Arial, sans-serif"><text x="10" y="15" font-size="10" transform="translate(280 160)">
        Beregning:
      </text><text x="10" y="30" font-size="9" transform="translate(280 160)">
        • Individuell vurdering
      </text><text x="10" y="42" font-size="9" transform="translate(280 160)">
        • Porteføljebasis
      </text><text x="10" y="54" font-size="9" transform="translate(280 160)">
        • Forventet tap
      </text></g><g fill="#6c757d" font-family="Arial, sans-serif"><text x="10" y="15" font-size="10" transform="translate(280 220)">
        Rapportering:
      </text><text x="10" y="30" font-size="9" transform="translate(280 220)">
        • Månedlig review
      </text><text x="10" y="42" font-size="9" transform="translate(280 220)">
        • Kvartalsrapporter
      </text><text x="10" y="54" font-size="9" transform="translate(280 220)">
        • Årsregnskap
      </text></g></g><g transform="translate(100 350)"><rect width="600" height="120" fill="#f8f9fa" stroke="#dee2e6" stroke-width="2" rx="10"/><text x="300" y="25" fill="#495057" font-family="Arial, sans-serif" font-size="16" font-weight="bold" text-anchor="middle">
      Tapsavsetning - Praktisk Eksempel
    </text><text y="15" fill="#495057" font-family="Arial, sans-serif" font-size="12" font-weight="bold" transform="translate(50 40)">
        Portefølje: 10.000.000 kr
      </text><g transform="translate(50 75)"><rect width="120" height="50" fill="#d4edda" stroke="#28a745" rx="5"/><text x="60" y="15" fill="#155724" font-family="Arial, sans-serif" font-size="11" font-weight="bold" text-anchor="middle">
          Lav risiko
        </text><text x="60" y="30" fill="#155724" font-family="Arial, sans-serif" font-size="10" text-anchor="middle">
          7.000.000 kr
        </text><text x="60" y="42" fill="#155724" font-family="Arial, sans-serif" font-size="9" text-anchor="middle">
          1% tapsrate
        </text></g><g transform="translate(190 75)"><rect width="120" height="50" fill="#fff3cd" stroke="#ffc107" rx="5"/><text x="60" y="15" fill="#856404" font-family="Arial, sans-serif" font-size="11" font-weight="bold" text-anchor="middle">
          Middels risiko
        </text><text x="60" y="30" fill="#856404" font-family="Arial, sans-serif" font-size="10" text-anchor="middle">
          2.500.000 kr
        </text><text x="60" y="42" fill="#856404" font-family="Arial, sans-serif" font-size="9" text-anchor="middle">
          5% tapsrate
        </text></g><g transform="translate(330 75)"><rect width="120" height="50" fill="#f8d7da" stroke="#dc3545" rx="5"/><text x="60" y="15" fill="#721c24" font-family="Arial, sans-serif" font-size="11" font-weight="bold" text-anchor="middle">
          Høy risiko
        </text><text x="60" y="30" fill="#721c24" font-family="Arial, sans-serif" font-size="10" text-anchor="middle">
          500.000 kr
        </text><text x="60" y="42" fill="#721c24" font-family="Arial, sans-serif" font-size="9" text-anchor="middle">
          15% tapsrate
        </text></g><g transform="translate(450 40)"><rect width="130" height="65" fill="#e2e3e5" stroke="#6c757d" stroke-width="2" rx="5"/><text x="65" y="20" fill="#495057" font-family="Arial, sans-serif" font-size="12" font-weight="bold" text-anchor="middle">
        Total Avsetning:
      </text><text x="65" y="35" fill="#495057" font-family="Arial, sans-serif" font-size="11" text-anchor="middle">
        70.000 + 125.000 + 75.000
      </text><text x="65" y="50" fill="#dc3545" font-family="Arial, sans-serif" font-size="14" font-weight="bold" text-anchor="middle">
        = 270.000 kr
      </text><text x="65" y="62" fill="#6c757d" font-family="Arial, sans-serif" font-size="9" text-anchor="middle">
        (2,7% av portefølje)
      </text></g></g><defs><marker id="a" markerHeight="8" markerUnits="strokeWidth" markerWidth="8" orient="auto" refX="4" refY="7"><path fill="#28a745" d="M0 0h8L4 7z"/></marker></defs></svg>