<svg xmlns="http://www.w3.org/2000/svg" width="800" height="400" viewBox="0 0 800 400"><path fill="#f8f9fa" d="M0 0h800v400H0z"/><text x="400" y="40" fill="#2c3e50" font-family="Arial, sans-serif" font-size="28" font-weight="bold" text-anchor="middle">
    Crowdlending i Regnskap
  </text><text x="400" y="70" fill="#7f8c8d" font-family="Arial, sans-serif" font-size="16" text-anchor="middle">
    Peer-to-Peer Utlån og Regnskapsmessige Aspekter
  </text><g transform="translate(50 120)"><text x="100" y="20" fill="#27ae60" font-family="Arial, sans-serif" font-size="18" font-weight="bold" text-anchor="middle">
      Utlånere/Investorer
    </text><circle cx="50" cy="60" r="25" fill="#3498db" stroke="#2980b9" stroke-width="2"/><text x="50" y="67" fill="#fff" font-family="Arial, sans-serif" font-size="12" text-anchor="middle">INV 1</text><circle cx="150" cy="60" r="25" fill="#3498db" stroke="#2980b9" stroke-width="2"/><text x="150" y="67" fill="#fff" font-family="Arial, sans-serif" font-size="12" text-anchor="middle">INV 2</text><circle cx="100" cy="120" r="25" fill="#3498db" stroke="#2980b9" stroke-width="2"/><text x="100" y="127" fill="#fff" font-family="Arial, sans-serif" font-size="12" text-anchor="middle">INV 3</text><rect width="160" height="80" x="20" y="160" fill="#ecf0f1" stroke="#bdc3c7" rx="5"/><text x="100" y="180" fill="#2c3e50" font-family="Arial, sans-serif" font-size="12" font-weight="bold" text-anchor="middle">
      Regnskapsføring:
    </text><text x="100" y="200" fill="#34495e" font-family="Arial, sans-serif" font-size="10" text-anchor="middle">
      • Fordringer
    </text><text x="100" y="215" fill="#34495e" font-family="Arial, sans-serif" font-size="10" text-anchor="middle">
      • Renteinntekter
    </text><text x="100" y="230" fill="#34495e" font-family="Arial, sans-serif" font-size="10" text-anchor="middle">
      • Tapsavsetninger
    </text></g><g transform="translate(350 120)"><rect width="100" height="60" y="40" fill="#e74c3c" stroke="#c0392b" stroke-width="2" rx="10"/><text x="50" y="60" fill="#fff" font-family="Arial, sans-serif" font-size="12" font-weight="bold" text-anchor="middle">
      Crowdlending
    </text><text x="50" y="80" fill="#fff" font-family="Arial, sans-serif" font-size="12" font-weight="bold" text-anchor="middle">
      Plattform
    </text><text x="50" y="130" fill="#2c3e50" font-family="Arial, sans-serif" font-size="10" text-anchor="middle">
      • Risikovurdering
    </text><text x="50" y="145" fill="#2c3e50" font-family="Arial, sans-serif" font-size="10" text-anchor="middle">
      • Dokumentasjon
    </text><text x="50" y="160" fill="#2c3e50" font-family="Arial, sans-serif" font-size="10" text-anchor="middle">
      • Rapportering
    </text></g><g transform="translate(550 120)"><text x="100" y="20" fill="#e67e22" font-family="Arial, sans-serif" font-size="18" font-weight="bold" text-anchor="middle">
      Låntakere
    </text><rect width="60" height="40" x="30" y="40" fill="#f39c12" stroke="#e67e22" stroke-width="2" rx="5"/><text x="60" y="65" fill="#fff" font-family="Arial, sans-serif" font-size="12" text-anchor="middle">Bedrift A</text><rect width="60" height="40" x="110" y="40" fill="#f39c12" stroke="#e67e22" stroke-width="2" rx="5"/><text x="140" y="65" fill="#fff" font-family="Arial, sans-serif" font-size="12" text-anchor="middle">Bedrift B</text><rect width="60" height="40" x="70" y="100" fill="#f39c12" stroke="#e67e22" stroke-width="2" rx="5"/><text x="100" y="125" fill="#fff" font-family="Arial, sans-serif" font-size="12" text-anchor="middle">Bedrift C</text><rect width="160" height="80" x="20" y="160" fill="#ecf0f1" stroke="#bdc3c7" rx="5"/><text x="100" y="180" fill="#2c3e50" font-family="Arial, sans-serif" font-size="12" font-weight="bold" text-anchor="middle">
      Regnskapsføring:
    </text><text x="100" y="200" fill="#34495e" font-family="Arial, sans-serif" font-size="10" text-anchor="middle">
      • Langsiktig gjeld
    </text><text x="100" y="215" fill="#34495e" font-family="Arial, sans-serif" font-size="10" text-anchor="middle">
      • Rentekostnader
    </text><text x="100" y="230" fill="#34495e" font-family="Arial, sans-serif" font-size="10" text-anchor="middle">
      • Avdragsbetalinger
    </text></g><path fill="none" stroke="#27ae60" stroke-width="3" marker-end="url(#a)" d="M200 180q75-20 150 0"/><text x="275" y="155" fill="#27ae60" font-family="Arial, sans-serif" font-size="10" text-anchor="middle">Kapital</text><path fill="none" stroke="#e67e22" stroke-width="3" marker-end="url(#b)" d="M450 180q75-20 100 0"/><text x="500" y="155" fill="#e67e22" font-family="Arial, sans-serif" font-size="10" text-anchor="middle">Lån</text><path fill="none" stroke="#9b59b6" stroke-width="3" marker-end="url(#c)" d="M550 200q-25 20-100 0"/><text x="500" y="235" fill="#9b59b6" font-family="Arial, sans-serif" font-size="10" text-anchor="middle">Avdrag + Renter</text><path fill="none" stroke="#9b59b6" stroke-width="3" marker-end="url(#c)" d="M350 200q-75 20-150 0"/><text x="275" y="235" fill="#9b59b6" font-family="Arial, sans-serif" font-size="10" text-anchor="middle">Renter</text><rect width="300" height="60" x="250" y="320" fill="#34495e" stroke="#2c3e50" stroke-width="2" rx="10"/><text x="400" y="340" fill="#fff" font-family="Arial, sans-serif" font-size="14" font-weight="bold" text-anchor="middle">
    Regulatoriske Krav
  </text><text x="400" y="360" fill="#ecf0f1" font-family="Arial, sans-serif" font-size="11" text-anchor="middle">
    • Finanstilsynets regulering • Bokføringsplikt • Skattemessige konsekvenser
  </text><defs><marker id="a" markerHeight="10" markerUnits="strokeWidth" markerWidth="10" orient="auto" refX="9" refY="3"><path fill="#27ae60" d="M0 0v6l9-3z"/></marker><marker id="b" markerHeight="10" markerUnits="strokeWidth" markerWidth="10" orient="auto" refX="9" refY="3"><path fill="#e67e22" d="M0 0v6l9-3z"/></marker><marker id="c" markerHeight="10" markerUnits="strokeWidth" markerWidth="10" orient="auto" refX="9" refY="3"><path fill="#9b59b6" d="M0 0v6l9-3z"/></marker></defs></svg>