<svg width="800" height="650" xmlns="http://www.w3.org/2000/svg">
  <defs>
    <linearGradient id="digitalGrad" x1="0%" y1="0%" x2="100%" y2="0%">
      <stop offset="0%" style="stop-color:#1E88E5;stop-opacity:1" />
      <stop offset="100%" style="stop-color:#1565C0;stop-opacity:1" />
    </linearGradient>
    <linearGradient id="cloudGrad" x1="0%" y1="0%" x2="0%" y2="100%">
      <stop offset="0%" style="stop-color:#E3F2FD;stop-opacity:1" />
      <stop offset="100%" style="stop-color:#BBDEFB;stop-opacity:1" />
    </linearGradient>
  </defs>
  

  <rect width="800" height="650" fill="#F1F3F4"/>
  

  <rect x="0" y="0" width="800" height="60" fill="url(#digitalGrad)"/>
  <text x="400" y="38" font-family="Arial, sans-serif" font-size="24" font-weight="bold" fill="white" text-anchor="middle">DIGITALE PENSJONSRAPPORTERINGSSYSTEMER</text>
  

  <g transform="translate(300, 100)">
    <ellipse cx="100" cy="40" rx="120" ry="35" fill="url(#cloudGrad)" stroke="#42A5F5" stroke-width="2"/>
    <ellipse cx="80" cy="35" rx="40" ry="15" fill="white" stroke="#42A5F5" stroke-width="1"/>
    <ellipse cx="120" cy="35" rx="50" ry="18" fill="white" stroke="#42A5F5" stroke-width="1"/>
    <ellipse cx="100" cy="50" rx="45" ry="20" fill="white" stroke="#42A5F5" stroke-width="1"/>
    <text x="100" y="45" font-family="Arial, sans-serif" font-size="14" font-weight="bold" fill="#1565C0" text-anchor="middle">CLOUD PLATFORM</text>
  </g>
  

  <g transform="translate(50, 200)">
    <text x="100" y="0" font-family="Arial, sans-serif" font-size="16" font-weight="bold" fill="#333" text-anchor="middle">DATAKILDER</text>
    

    <g transform="translate(0, 20)">
      <rect x="0" y="0" width="80" height="60" fill="#E8F5E8" stroke="#4CAF50" stroke-width="2" rx="6"/>
      <text x="40" y="20" font-family="Arial, sans-serif" font-size="11" font-weight="bold" fill="#2E7D32" text-anchor="middle">HR-SYSTEM</text>
      <text x="40" y="35" font-family="Arial, sans-serif" font-size="9" fill="#333" text-anchor="middle">Ansattdata</text>
      <text x="40" y="48" font-family="Arial, sans-serif" font-size="9" fill="#333" text-anchor="middle">Lønnsdata</text>
    </g>
    

    <g transform="translate(0, 100)">
      <rect x="0" y="0" width="80" height="60" fill="#FFF3E0" stroke="#FF9800" stroke-width="2" rx="6"/>
      <text x="40" y="20" font-family="Arial, sans-serif" font-size="11" font-weight="bold" fill="#F57C00" text-anchor="middle">PENSJON</text>
      <text x="40" y="35" font-family="Arial, sans-serif" font-size="9" fill="#333" text-anchor="middle">Pensjonsmidler</text>
      <text x="40" y="48" font-family="Arial, sans-serif" font-size="9" fill="#333" text-anchor="middle">Avkastning</text>
    </g>
    

    <g transform="translate(0, 180)">
      <rect x="0" y="0" width="80" height="60" fill="#F3E5F5" stroke="#9C27B0" stroke-width="2" rx="6"/>
      <text x="40" y="20" font-family="Arial, sans-serif" font-size="11" font-weight="bold" fill="#7B1FA2" text-anchor="middle">AKTUAR</text>
      <text x="40" y="35" font-family="Arial, sans-serif" font-size="9" fill="#333" text-anchor="middle">Beregninger</text>
      <text x="40" y="48" font-family="Arial, sans-serif" font-size="9" fill="#333" text-anchor="middle">Forutsetninger</text>
    </g>
    

    <g transform="translate(120, 20)">
      <rect x="0" y="0" width="80" height="60" fill="#FFEBEE" stroke="#E91E63" stroke-width="2" rx="6"/>
      <text x="40" y="20" font-family="Arial, sans-serif" font-size="11" font-weight="bold" fill="#C2185B" text-anchor="middle">MARKED</text>
      <text x="40" y="35" font-family="Arial, sans-serif" font-size="9" fill="#333" text-anchor="middle">Renter</text>
      <text x="40" y="48" font-family="Arial, sans-serif" font-size="9" fill="#333" text-anchor="middle">Indekser</text>
    </g>
    

    <g transform="translate(120, 100)">
      <rect x="0" y="0" width="80" height="60" fill="#E1F5FE" stroke="#03A9F4" stroke-width="2" rx="6"/>
      <text x="40" y="20" font-family="Arial, sans-serif" font-size="11" font-weight="bold" fill="#0277BD" text-anchor="middle">LOVVERK</text>
      <text x="40" y="35" font-family="Arial, sans-serif" font-size="9" fill="#333" text-anchor="middle">G-verdi</text>
      <text x="40" y="48" font-family="Arial, sans-serif" font-size="9" fill="#333" text-anchor="middle">Standarder</text>
    </g>
  </g>
  

  <g transform="translate(320, 220)">
    <rect x="0" y="0" width="160" height="200" fill="#E8EAF6" stroke="#3F51B5" stroke-width="3" rx="10"/>
    <text x="80" y="25" font-family="Arial, sans-serif" font-size="14" font-weight="bold" fill="#303F9F" text-anchor="middle">PROCESSING ENGINE</text>
    

    <g transform="translate(20, 40)">
      <rect x="0" y="0" width="120" height="30" fill="#E3F2FD" stroke="#2196F3" stroke-width="1" rx="4"/>
      <text x="60" y="20" font-family="Arial, sans-serif" font-size="11" font-weight="bold" fill="#1976D2" text-anchor="middle">AI/ML ALGORITMER</text>
    </g>
    

    <g transform="translate(20, 80)">
      <rect x="0" y="0" width="120" height="30" fill="#E8F5E8" stroke="#4CAF50" stroke-width="1" rx="4"/>
      <text x="60" y="20" font-family="Arial, sans-serif" font-size="11" font-weight="bold" fill="#2E7D32" text-anchor="middle">VALIDERING</text>
    </g>
    

    <g transform="translate(20, 120)">
      <rect x="0" y="0" width="120" height="30" fill="#FFF3E0" stroke="#FF9800" stroke-width="1" rx="4"/>
      <text x="60" y="20" font-family="Arial, sans-serif" font-size="11" font-weight="bold" fill="#F57C00" text-anchor="middle">BEREGNINGER</text>
    </g>
    

    <g transform="translate(20, 160)">
      <rect x="0" y="0" width="120" height="30" fill="#F3E5F5" stroke="#9C27B0" stroke-width="1" rx="4"/>
      <text x="60" y="20" font-family="Arial, sans-serif" font-size="11" font-weight="bold" fill="#7B1FA2" text-anchor="middle">RAPPORTGENERERING</text>
    </g>
  </g>
  

  <g transform="translate(550, 200)">
    <text x="100" y="0" font-family="Arial, sans-serif" font-size="16" font-weight="bold" fill="#333" text-anchor="middle">OUTPUT</text>
    

    <g transform="translate(20, 20)">
      <rect x="0" y="0" width="80" height="60" fill="#E3F2FD" stroke="#2196F3" stroke-width="2" rx="6"/>
      <text x="40" y="15" font-family="Arial, sans-serif" font-size="10" font-weight="bold" fill="#1976D2" text-anchor="middle">FINANSIELLE</text>
      <text x="40" y="28" font-family="Arial, sans-serif" font-size="10" font-weight="bold" fill="#1976D2" text-anchor="middle">RAPPORTER</text>
      <text x="40" y="45" font-family="Arial, sans-serif" font-size="9" fill="#333" text-anchor="middle">Balanse</text>
      <text x="40" y="55" font-family="Arial, sans-serif" font-size="9" fill="#333" text-anchor="middle">Resultat</text>
    </g>
    

    <g transform="translate(120, 20)">
      <rect x="0" y="0" width="80" height="60" fill="#FFF3E0" stroke="#FF9800" stroke-width="2" rx="6"/>
      <text x="40" y="15" font-family="Arial, sans-serif" font-size="10" font-weight="bold" fill="#F57C00" text-anchor="middle">MYNDIG-</text>
      <text x="40" y="28" font-family="Arial, sans-serif" font-size="10" font-weight="bold" fill="#F57C00" text-anchor="middle">HETSRAPP.</text>
      <text x="40" y="45" font-family="Arial, sans-serif" font-size="9" fill="#333" text-anchor="middle">Årsregnskap</text>
      <text x="40" y="55" font-family="Arial, sans-serif" font-size="9" fill="#333" text-anchor="middle">Skattemelding</text>
    </g>
    

    <g transform="translate(20, 100)">
      <rect x="0" y="0" width="80" height="60" fill="#E8F5E8" stroke="#4CAF50" stroke-width="2" rx="6"/>
      <text x="40" y="15" font-family="Arial, sans-serif" font-size="10" font-weight="bold" fill="#2E7D32" text-anchor="middle">LEDELSE</text>
      <text x="40" y="28" font-family="Arial, sans-serif" font-size="10" font-weight="bold" fill="#2E7D32" text-anchor="middle">DASHBOARD</text>
      <text x="40" y="45" font-family="Arial, sans-serif" font-size="9" fill="#333" text-anchor="middle">KPI</text>
      <text x="40" y="55" font-family="Arial, sans-serif" font-size="9" fill="#333" text-anchor="middle">Analyser</text>
    </g>
    

    <g transform="translate(120, 100)">
      <rect x="0" y="0" width="80" height="60" fill="#F3E5F5" stroke="#9C27B0" stroke-width="2" rx="6"/>
      <text x="40" y="15" font-family="Arial, sans-serif" font-size="10" font-weight="bold" fill="#7B1FA2" text-anchor="middle">AUDIT</text>
      <text x="40" y="28" font-family="Arial, sans-serif" font-size="10" font-weight="bold" fill="#7B1FA2" text-anchor="middle">TRAIL</text>
      <text x="40" y="45" font-family="Arial, sans-serif" font-size="9" fill="#333" text-anchor="middle">Sporbarhet</text>
      <text x="40" y="55" font-family="Arial, sans-serif" font-size="9" fill="#333" text-anchor="middle">Kontroller</text>
    </g>
    

    <g transform="translate(70, 180)">
      <rect x="0" y="0" width="80" height="60" fill="#FFEBEE" stroke="#E91E63" stroke-width="2" rx="6"/>
      <text x="40" y="15" font-family="Arial, sans-serif" font-size="10" font-weight="bold" fill="#C2185B" text-anchor="middle">INTERESSE-</text>
      <text x="40" y="28" font-family="Arial, sans-serif" font-size="10" font-weight="bold" fill="#C2185B" text-anchor="middle">NTER</text>
      <text x="40" y="45" font-family="Arial, sans-serif" font-size="9" fill="#333" text-anchor="middle">Ansatte</text>
      <text x="40" y="55" font-family="Arial, sans-serif" font-size="9" fill="#333" text-anchor="middle">Investorer</text>
    </g>
  </g>
  

  <path d="M 250 250 L 310 300" stroke="#666" stroke-width="2" fill="none" marker-end="url(#arrowhead)"/>
  <path d="M 250 330 L 310 320" stroke="#666" stroke-width="2" fill="none" marker-end="url(#arrowhead)"/>
  <path d="M 250 410 L 310 340" stroke="#666" stroke-width="2" fill="none" marker-end="url(#arrowhead)"/>
  
  <path d="M 490 300 L 540 250" stroke="#666" stroke-width="2" fill="none" marker-end="url(#arrowhead)"/>
  <path d="M 490 320 L 540 330" stroke="#666" stroke-width="2" fill="none" marker-end="url(#arrowhead)"/>
  <path d="M 490 340 L 540 410" stroke="#666" stroke-width="2" fill="none" marker-end="url(#arrowhead)"/>
  

  <defs>
    <marker id="arrowhead" markerWidth="8" markerHeight="6" refX="8" refY="3" orient="auto">
      <polygon points="0 0, 8 3, 0 6" fill="#666"/>
    </marker>
  </defs>
  

  <g transform="translate(50, 500)">
    <rect x="0" y="0" width="700" height="120" fill="#F8F9FA" stroke="#E0E0E0" stroke-width="1" rx="8"/>
    <text x="350" y="25" font-family="Arial, sans-serif" font-size="16" font-weight="bold" fill="#333" text-anchor="middle">TEKNOLOGIFORDELER</text>
    

    <g transform="translate(30, 45)">
      <rect x="0" y="0" width="120" height="25" fill="#E8F5E8" stroke="#4CAF50" stroke-width="1" rx="3"/>
      <text x="60" y="17" font-family="Arial, sans-serif" font-size="10" font-weight="bold" fill="#2E7D32" text-anchor="middle">AUTOMATISERING</text>
    </g>
    
    <g transform="translate(170, 45)">
      <rect x="0" y="0" width="120" height="25" fill="#E3F2FD" stroke="#2196F3" stroke-width="1" rx="3"/>
      <text x="60" y="17" font-family="Arial, sans-serif" font-size="10" font-weight="bold" fill="#1976D2" text-anchor="middle">SANNTIDSDATA</text>
    </g>
    
    <g transform="translate(310, 45)">
      <rect x="0" y="0" width="120" height="25" fill="#FFF3E0" stroke="#FF9800" stroke-width="1" rx="3"/>
      <text x="60" y="17" font-family="Arial, sans-serif" font-size="10" font-weight="bold" fill="#F57C00" text-anchor="middle">KVALITETSKONTROLL</text>
    </g>
    
    <g transform="translate(450, 45)">
      <rect x="0" y="0" width="120" height="25" fill="#F3E5F5" stroke="#9C27B0" stroke-width="1" rx="3"/>
      <text x="60" y="17" font-family="Arial, sans-serif" font-size="10" font-weight="bold" fill="#7B1FA2" text-anchor="middle">SKALERBARHET</text>
    </g>
    

    <g transform="translate(100, 80)">
      <rect x="0" y="0" width="120" height="25" fill="#FFEBEE" stroke="#E91E63" stroke-width="1" rx="3"/>
      <text x="60" y="17" font-family="Arial, sans-serif" font-size="10" font-weight="bold" fill="#C2185B" text-anchor="middle">KOSTNADSREDUKSJON</text>
    </g>
    
    <g transform="translate(240, 80)">
      <rect x="0" y="0" width="120" height="25" fill="#E1F5FE" stroke="#03A9F4" stroke-width="1" rx="3"/>
      <text x="60" y="17" font-family="Arial, sans-serif" font-size="10" font-weight="bold" fill="#0277BD" text-anchor="middle">COMPLIANCE</text>
    </g>
    
    <g transform="translate(380, 80)">
      <rect x="0" y="0" width="120" height="25" fill="#E8F5E8" stroke="#4CAF50" stroke-width="1" rx="3"/>
      <text x="60" y="17" font-family="Arial, sans-serif" font-size="10" font-weight="bold" fill="#2E7D32" text-anchor="middle">RISIKOSTYRING</text>
    </g>
  </g>
</svg>