<svg xmlns="http://www.w3.org/2000/svg" width="800" height="650"><defs><linearGradient id="a" x1="0%" x2="100%" y1="0%" y2="0%"><stop offset="0%" style="stop-color:#1e88e5;stop-opacity:1"/><stop offset="100%" style="stop-color:#1565c0;stop-opacity:1"/></linearGradient><linearGradient id="b" x1="0%" x2="0%" y1="0%" y2="100%"><stop offset="0%" style="stop-color:#e3f2fd;stop-opacity:1"/><stop offset="100%" style="stop-color:#bbdefb;stop-opacity:1"/></linearGradient></defs><path fill="#f1f3f4" d="M0 0h800v650H0z"/><path fill="url(#a)" d="M0 0h800v60H0z"/><text x="400" y="38" fill="#fff" font-family="Arial, sans-serif" font-size="24" font-weight="bold" text-anchor="middle">DIGITALE PENSJONSRAPPORTERINGSSYSTEMER</text><g transform="translate(300 100)"><ellipse cx="100" cy="40" fill="url(#b)" stroke="#42a5f5" stroke-width="2" rx="120" ry="35"/><ellipse cx="80" cy="35" fill="#fff" stroke="#42a5f5" rx="40" ry="15"/><ellipse cx="120" cy="35" fill="#fff" stroke="#42a5f5" rx="50" ry="18"/><ellipse cx="100" cy="50" fill="#fff" stroke="#42a5f5" rx="45" ry="20"/><text x="100" y="45" fill="#1565c0" font-family="Arial, sans-serif" font-size="14" font-weight="bold" text-anchor="middle">CLOUD PLATFORM</text></g><text x="100" fill="#333" font-family="Arial, sans-serif" font-size="16" font-weight="bold" text-anchor="middle" transform="translate(50 200)">DATAKILDER</text><g transform="translate(50 220)"><rect width="80" height="60" fill="#e8f5e8" stroke="#4caf50" stroke-width="2" rx="6"/><text x="40" y="20" fill="#2e7d32" font-family="Arial, sans-serif" font-size="11" font-weight="bold" text-anchor="middle">HR-SYSTEM</text><text x="40" y="35" fill="#333" font-family="Arial, sans-serif" font-size="9" text-anchor="middle">Ansattdata</text><text x="40" y="48" fill="#333" font-family="Arial, sans-serif" font-size="9" text-anchor="middle">Lønnsdata</text></g><g transform="translate(50 300)"><rect width="80" height="60" fill="#fff3e0" stroke="#ff9800" stroke-width="2" rx="6"/><text x="40" y="20" fill="#f57c00" font-family="Arial, sans-serif" font-size="11" font-weight="bold" text-anchor="middle">PENSJON</text><text x="40" y="35" fill="#333" font-family="Arial, sans-serif" font-size="9" text-anchor="middle">Pensjonsmidler</text><text x="40" y="48" fill="#333" font-family="Arial, sans-serif" font-size="9" text-anchor="middle">Avkastning</text></g><g transform="translate(50 380)"><rect width="80" height="60" fill="#f3e5f5" stroke="#9c27b0" stroke-width="2" rx="6"/><text x="40" y="20" fill="#7b1fa2" font-family="Arial, sans-serif" font-size="11" font-weight="bold" text-anchor="middle">AKTUAR</text><text x="40" y="35" fill="#333" font-family="Arial, sans-serif" font-size="9" text-anchor="middle">Beregninger</text><text x="40" y="48" fill="#333" font-family="Arial, sans-serif" font-size="9" text-anchor="middle">Forutsetninger</text></g><g transform="translate(170 220)"><rect width="80" height="60" fill="#ffebee" stroke="#e91e63" stroke-width="2" rx="6"/><text x="40" y="20" fill="#c2185b" font-family="Arial, sans-serif" font-size="11" font-weight="bold" text-anchor="middle">MARKED</text><text x="40" y="35" fill="#333" font-family="Arial, sans-serif" font-size="9" text-anchor="middle">Renter</text><text x="40" y="48" fill="#333" font-family="Arial, sans-serif" font-size="9" text-anchor="middle">Indekser</text></g><g transform="translate(170 300)"><rect width="80" height="60" fill="#e1f5fe" stroke="#03a9f4" stroke-width="2" rx="6"/><text x="40" y="20" fill="#0277bd" font-family="Arial, sans-serif" font-size="11" font-weight="bold" text-anchor="middle">LOVVERK</text><text x="40" y="35" fill="#333" font-family="Arial, sans-serif" font-size="9" text-anchor="middle">G-verdi</text><text x="40" y="48" fill="#333" font-family="Arial, sans-serif" font-size="9" text-anchor="middle">Standarder</text></g><g transform="translate(320 220)"><rect width="160" height="200" fill="#e8eaf6" stroke="#3f51b5" stroke-width="3" rx="10"/><text x="80" y="25" fill="#303f9f" font-family="Arial, sans-serif" font-size="14" font-weight="bold" text-anchor="middle">PROCESSING ENGINE</text><g transform="translate(20 40)"><rect width="120" height="30" fill="#e3f2fd" stroke="#2196f3" rx="4"/><text x="60" y="20" fill="#1976d2" font-family="Arial, sans-serif" font-size="11" font-weight="bold" text-anchor="middle">AI/ML ALGORITMER</text></g><g transform="translate(20 80)"><rect width="120" height="30" fill="#e8f5e8" stroke="#4caf50" rx="4"/><text x="60" y="20" fill="#2e7d32" font-family="Arial, sans-serif" font-size="11" font-weight="bold" text-anchor="middle">VALIDERING</text></g><g transform="translate(20 120)"><rect width="120" height="30" fill="#fff3e0" stroke="#ff9800" rx="4"/><text x="60" y="20" fill="#f57c00" font-family="Arial, sans-serif" font-size="11" font-weight="bold" text-anchor="middle">BEREGNINGER</text></g><g transform="translate(20 160)"><rect width="120" height="30" fill="#f3e5f5" stroke="#9c27b0" rx="4"/><text x="60" y="20" fill="#7b1fa2" font-family="Arial, sans-serif" font-size="11" font-weight="bold" text-anchor="middle">RAPPORTGENERERING</text></g></g><text x="100" fill="#333" font-family="Arial, sans-serif" font-size="16" font-weight="bold" text-anchor="middle" transform="translate(550 200)">OUTPUT</text><g transform="translate(570 220)"><rect width="80" height="60" fill="#e3f2fd" stroke="#2196f3" stroke-width="2" rx="6"/><text x="40" y="15" fill="#1976d2" font-family="Arial, sans-serif" font-size="10" font-weight="bold" text-anchor="middle">FINANSIELLE</text><text x="40" y="28" fill="#1976d2" font-family="Arial, sans-serif" font-size="10" font-weight="bold" text-anchor="middle">RAPPORTER</text><text x="40" y="45" fill="#333" font-family="Arial, sans-serif" font-size="9" text-anchor="middle">Balanse</text><text x="40" y="55" fill="#333" font-family="Arial, sans-serif" font-size="9" text-anchor="middle">Resultat</text></g><g transform="translate(670 220)"><rect width="80" height="60" fill="#fff3e0" stroke="#ff9800" stroke-width="2" rx="6"/><text x="40" y="15" fill="#f57c00" font-family="Arial, sans-serif" font-size="10" font-weight="bold" text-anchor="middle">MYNDIG-</text><text x="40" y="28" fill="#f57c00" font-family="Arial, sans-serif" font-size="10" font-weight="bold" text-anchor="middle">HETSRAPP.</text><text x="40" y="45" fill="#333" font-family="Arial, sans-serif" font-size="9" text-anchor="middle">Årsregnskap</text><text x="40" y="55" fill="#333" font-family="Arial, sans-serif" font-size="9" text-anchor="middle">Skattemelding</text></g><g transform="translate(570 300)"><rect width="80" height="60" fill="#e8f5e8" stroke="#4caf50" stroke-width="2" rx="6"/><text x="40" y="15" fill="#2e7d32" font-family="Arial, sans-serif" font-size="10" font-weight="bold" text-anchor="middle">LEDELSE</text><text x="40" y="28" fill="#2e7d32" font-family="Arial, sans-serif" font-size="10" font-weight="bold" text-anchor="middle">DASHBOARD</text><text x="40" y="45" fill="#333" font-family="Arial, sans-serif" font-size="9" text-anchor="middle">KPI</text><text x="40" y="55" fill="#333" font-family="Arial, sans-serif" font-size="9" text-anchor="middle">Analyser</text></g><g transform="translate(670 300)"><rect width="80" height="60" fill="#f3e5f5" stroke="#9c27b0" stroke-width="2" rx="6"/><text x="40" y="15" fill="#7b1fa2" font-family="Arial, sans-serif" font-size="10" font-weight="bold" text-anchor="middle">AUDIT</text><text x="40" y="28" fill="#7b1fa2" font-family="Arial, sans-serif" font-size="10" font-weight="bold" text-anchor="middle">TRAIL</text><text x="40" y="45" fill="#333" font-family="Arial, sans-serif" font-size="9" text-anchor="middle">Sporbarhet</text><text x="40" y="55" fill="#333" font-family="Arial, sans-serif" font-size="9" text-anchor="middle">Kontroller</text></g><g transform="translate(620 380)"><rect width="80" height="60" fill="#ffebee" stroke="#e91e63" stroke-width="2" rx="6"/><text x="40" y="15" fill="#c2185b" font-family="Arial, sans-serif" font-size="10" font-weight="bold" text-anchor="middle">INTERESSE-</text><text x="40" y="28" fill="#c2185b" font-family="Arial, sans-serif" font-size="10" font-weight="bold" text-anchor="middle">NTER</text><text x="40" y="45" fill="#333" font-family="Arial, sans-serif" font-size="9" text-anchor="middle">Ansatte</text><text x="40" y="55" fill="#333" font-family="Arial, sans-serif" font-size="9" text-anchor="middle">Investorer</text></g><path fill="none" stroke="#666" stroke-width="2" marker-end="url(#c)" d="m250 250 60 50"/><path fill="none" stroke="#666" stroke-width="2" marker-end="url(#c)" d="m250 330 60-10"/><path fill="none" stroke="#666" stroke-width="2" marker-end="url(#c)" d="m250 410 60-70"/><path fill="none" stroke="#666" stroke-width="2" marker-end="url(#c)" d="m490 300 50-50"/><path fill="none" stroke="#666" stroke-width="2" marker-end="url(#c)" d="m490 320 50 10"/><path fill="none" stroke="#666" stroke-width="2" marker-end="url(#c)" d="m490 340 50 70"/><defs><marker id="c" markerHeight="6" markerWidth="8" orient="auto" refX="8" refY="3"><path fill="#666" d="m0 0 8 3-8 3z"/></marker></defs><g transform="translate(50 500)"><rect width="700" height="120" fill="#f8f9fa" stroke="#e0e0e0" rx="8"/><text x="350" y="25" fill="#333" font-family="Arial, sans-serif" font-size="16" font-weight="bold" text-anchor="middle">TEKNOLOGIFORDELER</text><g transform="translate(30 45)"><rect width="120" height="25" fill="#e8f5e8" stroke="#4caf50" rx="3"/><text x="60" y="17" fill="#2e7d32" font-family="Arial, sans-serif" font-size="10" font-weight="bold" text-anchor="middle">AUTOMATISERING</text></g><g transform="translate(170 45)"><rect width="120" height="25" fill="#e3f2fd" stroke="#2196f3" rx="3"/><text x="60" y="17" fill="#1976d2" font-family="Arial, sans-serif" font-size="10" font-weight="bold" text-anchor="middle">SANNTIDSDATA</text></g><g transform="translate(310 45)"><rect width="120" height="25" fill="#fff3e0" stroke="#ff9800" rx="3"/><text x="60" y="17" fill="#f57c00" font-family="Arial, sans-serif" font-size="10" font-weight="bold" text-anchor="middle">KVALITETSKONTROLL</text></g><g transform="translate(450 45)"><rect width="120" height="25" fill="#f3e5f5" stroke="#9c27b0" rx="3"/><text x="60" y="17" fill="#7b1fa2" font-family="Arial, sans-serif" font-size="10" font-weight="bold" text-anchor="middle">SKALERBARHET</text></g><g transform="translate(100 80)"><rect width="120" height="25" fill="#ffebee" stroke="#e91e63" rx="3"/><text x="60" y="17" fill="#c2185b" font-family="Arial, sans-serif" font-size="10" font-weight="bold" text-anchor="middle">KOSTNADSREDUKSJON</text></g><g transform="translate(240 80)"><rect width="120" height="25" fill="#e1f5fe" stroke="#03a9f4" rx="3"/><text x="60" y="17" fill="#0277bd" font-family="Arial, sans-serif" font-size="10" font-weight="bold" text-anchor="middle">COMPLIANCE</text></g><g transform="translate(380 80)"><rect width="120" height="25" fill="#e8f5e8" stroke="#4caf50" rx="3"/><text x="60" y="17" fill="#2e7d32" font-family="Arial, sans-serif" font-size="10" font-weight="bold" text-anchor="middle">RISIKOSTYRING</text></g></g></svg>