<svg width="800" height="700" xmlns="http://www.w3.org/2000/svg">
  <defs>
    <linearGradient id="headerGrad" x1="0%" y1="0%" x2="100%" y2="0%">
      <stop offset="0%" style="stop-color:#1565C0;stop-opacity:1" />
      <stop offset="100%" style="stop-color:#0D47A1;stop-opacity:1" />
    </linearGradient>
    <radialGradient id="centralGrad" cx="50%" cy="50%" r="50%">
      <stop offset="0%" style="stop-color:#E3F2FD;stop-opacity:1" />
      <stop offset="100%" style="stop-color:#BBDEFB;stop-opacity:1" />
    </radialGradient>
  </defs>
  

  <rect width="800" height="700" fill="#F8F9FA"/>
  

  <rect x="0" y="0" width="800" height="60" fill="url(#headerGrad)"/>
  <text x="400" y="38" font-family="Arial, sans-serif" font-size="24" font-weight="bold" fill="white" text-anchor="middle">INTERNKONTROLL FOR PENSJONSRAPPORTERING</text>
  

  <circle cx="400" cy="350" r="100" fill="url(#centralGrad)" stroke="#1976D2" stroke-width="3"/>
  <text x="400" y="340" font-family="Arial, sans-serif" font-size="16" font-weight="bold" fill="#1565C0" text-anchor="middle">INTERNKONTROLL</text>
  <text x="400" y="360" font-family="Arial, sans-serif" font-size="14" font-weight="bold" fill="#1565C0" text-anchor="middle">PENSJON</text>
  

  <g transform="translate(80, 120)">
    <rect x="0" y="0" width="200" height="120" fill="#E8F5E8" stroke="#4CAF50" stroke-width="2" rx="8"/>
    <text x="100" y="20" font-family="Arial, sans-serif" font-size="14" font-weight="bold" fill="#2E7D32" text-anchor="middle">KONTROLLMILJØ</text>
    <text x="10" y="45" font-family="Arial, sans-serif" font-size="11" fill="#333">• Ansvarsfordeling</text>
    <text x="10" y="60" font-family="Arial, sans-serif" font-size="11" fill="#333">• Kompetansekrav</text>
    <text x="10" y="75" font-family="Arial, sans-serif" font-size="11" fill="#333">• Etiske retningslinjer</text>
    <text x="10" y="90" font-family="Arial, sans-serif" font-size="11" fill="#333">• Organisasjonsstruktur</text>
    <text x="10" y="105" font-family="Arial, sans-serif" font-size="11" fill="#333">• Ledelsens holdning</text>
  </g>
  

  <g transform="translate(520, 120)">
    <rect x="0" y="0" width="200" height="120" fill="#FFEBEE" stroke="#E91E63" stroke-width="2" rx="8"/>
    <text x="100" y="20" font-family="Arial, sans-serif" font-size="14" font-weight="bold" fill="#C2185B" text-anchor="middle">RISIKOVURDERING</text>
    <text x="10" y="45" font-family="Arial, sans-serif" font-size="11" fill="#333">• Aktuarmessig risiko</text>
    <text x="10" y="60" font-family="Arial, sans-serif" font-size="11" fill="#333">• Markedsrisiko</text>
    <text x="10" y="75" font-family="Arial, sans-serif" font-size="11" fill="#333">• Regulatorisk risiko</text>
    <text x="10" y="90" font-family="Arial, sans-serif" font-size="11" fill="#333">• Operasjonell risiko</text>
    <text x="10" y="105" font-family="Arial, sans-serif" font-size="11" fill="#333">• Systemrisiko</text>
  </g>
  

  <g transform="translate(80, 480)">
    <rect x="0" y="0" width="200" height="140" fill="#FFF3E0" stroke="#FF9800" stroke-width="2" rx="8"/>
    <text x="100" y="20" font-family="Arial, sans-serif" font-size="14" font-weight="bold" fill="#F57C00" text-anchor="middle">KONTROLLAKTIVITETER</text>
    <text x="10" y="45" font-family="Arial, sans-serif" font-size="11" fill="#333">• Månedlig avstemming</text>
    <text x="10" y="60" font-family="Arial, sans-serif" font-size="11" fill="#333">• Kvartalsgjennomgang</text>
    <text x="10" y="75" font-family="Arial, sans-serif" font-size="11" fill="#333">• Årlig aktuarvurdering</text>
    <text x="10" y="90" font-family="Arial, sans-serif" font-size="11" fill="#333">• Uavhengig kontroll</text>
    <text x="10" y="105" font-family="Arial, sans-serif" font-size="11" fill="#333">• Godkjenningsrutiner</text>
    <text x="10" y="120" font-family="Arial, sans-serif" font-size="11" fill="#333">• Dokumentasjonskrav</text>
  </g>
  

  <g transform="translate(520, 480)">
    <rect x="0" y="0" width="200" height="140" fill="#F3E5F5" stroke="#9C27B0" stroke-width="2" rx="8"/>
    <text x="100" y="20" font-family="Arial, sans-serif" font-size="14" font-weight="bold" fill="#7B1FA2" text-anchor="middle">OVERVÅKING</text>
    <text x="10" y="45" font-family="Arial, sans-serif" font-size="11" fill="#333">• Løpende oppfølging</text>
    <text x="10" y="60" font-family="Arial, sans-serif" font-size="11" fill="#333">• Revisjonsaktiviteter</text>
    <text x="10" y="75" font-family="Arial, sans-serif" font-size="11" fill="#333">• KPI-overvåking</text>
    <text x="10" y="90" font-family="Arial, sans-serif" font-size="11" fill="#333">• Benchmarking</text>
    <text x="10" y="105" font-family="Arial, sans-serif" font-size="11" fill="#333">• Rapportering til ledelse</text>
    <text x="10" y="120" font-family="Arial, sans-serif" font-size="11" fill="#333">• Forbedringer</text>
  </g>
  

  <g transform="translate(300, 280)">
    <rect x="0" y="0" width="200" height="80" fill="#E1F5FE" stroke="#0288D1" stroke-width="2" rx="8"/>
    <text x="100" y="20" font-family="Arial, sans-serif" font-size="14" font-weight="bold" fill="#0277BD" text-anchor="middle">INFORMASJON &amp;</text>
    <text x="100" y="35" font-family="Arial, sans-serif" font-size="14" font-weight="bold" fill="#0277BD" text-anchor="middle">KOMMUNIKASJON</text>
    <text x="10" y="55" font-family="Arial, sans-serif" font-size="11" fill="#333">• Rapporteringsrutiner</text>
    <text x="10" y="70" font-family="Arial, sans-serif" font-size="11" fill="#333">• Kommunikasjonsflyt</text>
  </g>
  

  <path d="M 220 180 L 330 300" stroke="#666" stroke-width="2" fill="none" marker-end="url(#arrowhead)"/>
  <path d="M 580 180 L 470 300" stroke="#666" stroke-width="2" fill="none" marker-end="url(#arrowhead)"/>
  <path d="M 220 520 L 330 400" stroke="#666" stroke-width="2" fill="none" marker-end="url(#arrowhead)"/>
  <path d="M 580 520 L 470 400" stroke="#666" stroke-width="2" fill="none" marker-end="url(#arrowhead)"/>
  <path d="M 400 280 L 400 250" stroke="#666" stroke-width="2" fill="none" marker-end="url(#arrowhead)"/>
  

  <defs>
    <marker id="arrowhead" markerWidth="8" markerHeight="6" refX="8" refY="3" orient="auto">
      <polygon points="0 0, 8 3, 0 6" fill="#666"/>
    </marker>
  </defs>
  

  <g transform="translate(50, 260)">
    <rect x="0" y="0" width="180" height="200" fill="#F5F5F5" stroke="#9E9E9E" stroke-width="1" rx="5"/>
    <text x="90" y="20" font-family="Arial, sans-serif" font-size="12" font-weight="bold" fill="#424242" text-anchor="middle">NØKKELKONTROLLER</text>
    
    <g transform="translate(10, 35)">
      <rect x="0" y="0" width="12" height="12" fill="#4CAF50" rx="2"/>
      <text x="18" y="10" font-family="Arial, sans-serif" font-size="9" fill="#333">Aktuarberegninger</text>
    </g>
    
    <g transform="translate(10, 55)">
      <rect x="0" y="0" width="12" height="12" fill="#4CAF50" rx="2"/>
      <text x="18" y="10" font-family="Arial, sans-serif" font-size="9" fill="#333">Forutsetningscontroll</text>
    </g>
    
    <g transform="translate(10, 75)">
      <rect x="0" y="0" width="12" height="12" fill="#4CAF50" rx="2"/>
      <text x="18" y="10" font-family="Arial, sans-serif" font-size="9" fill="#333">Pensjonsmidler verdsetting</text>
    </g>
    
    <g transform="translate(10, 95)">
      <rect x="0" y="0" width="12" height="12" fill="#4CAF50" rx="2"/>
      <text x="18" y="10" font-family="Arial, sans-serif" font-size="9" fill="#333">Premiebetalinger</text>
    </g>
    
    <g transform="translate(10, 115)">
      <rect x="0" y="0" width="12" height="12" fill="#4CAF50" rx="2"/>
      <text x="18" y="10" font-family="Arial, sans-serif" font-size="9" fill="#333">Regnskapsføring</text>
    </g>
    
    <g transform="translate(10, 135)">
      <rect x="0" y="0" width="12" height="12" fill="#4CAF50" rx="2"/>
      <text x="18" y="10" font-family="Arial, sans-serif" font-size="9" fill="#333">Noteopplysninger</text>
    </g>
    
    <g transform="translate(10, 155)">
      <rect x="0" y="0" width="12" height="12" fill="#4CAF50" rx="2"/>
      <text x="18" y="10" font-family="Arial, sans-serif" font-size="9" fill="#333">Compliance sjekk</text>
    </g>
    
    <g transform="translate(10, 175)">
      <rect x="0" y="0" width="12" height="12" fill="#4CAF50" rx="2"/>
      <text x="18" y="10" font-family="Arial, sans-serif" font-size="9" fill="#333">Revisjonsberetning</text>
    </g>
  </g>
  

  <g transform="translate(570, 260)">
    <rect x="0" y="0" width="180" height="200" fill="#F5F5F5" stroke="#9E9E9E" stroke-width="1" rx="5"/>
    <text x="90" y="20" font-family="Arial, sans-serif" font-size="12" font-weight="bold" fill="#424242" text-anchor="middle">KONTROLLFREKVENS</text>
    
    <g transform="translate(10, 40)">
      <rect x="0" y="0" width="160" height="25" fill="#E8F5E8" stroke="#4CAF50" stroke-width="1" rx="3"/>
      <text x="80" y="18" font-family="Arial, sans-serif" font-size="10" font-weight="bold" fill="#2E7D32" text-anchor="middle">DAGLIG</text>
    </g>
    <text x="15" y="78" font-family="Arial, sans-serif" font-size="9" fill="#333">• Transaksjonsregistrering</text>
    
    <g transform="translate(10, 90)">
      <rect x="0" y="0" width="160" height="25" fill="#FFF3E0" stroke="#FF9800" stroke-width="1" rx="3"/>
      <text x="80" y="18" font-family="Arial, sans-serif" font-size="10" font-weight="bold" fill="#F57C00" text-anchor="middle">MÅNEDLIG</text>
    </g>
    <text x="15" y="128" font-family="Arial, sans-serif" font-size="9" fill="#333">• Avstemming og kontroll</text>
    
    <g transform="translate(10, 140)">
      <rect x="0" y="0" width="160" height="25" fill="#E3F2FD" stroke="#2196F3" stroke-width="1" rx="3"/>
      <text x="80" y="18" font-family="Arial, sans-serif" font-size="10" font-weight="bold" fill="#1976D2" text-anchor="middle">KVARTALSVIS</text>
    </g>
    <text x="15" y="178" font-family="Arial, sans-serif" font-size="9" fill="#333">• Omfattende gjennomgang</text>
    
    <g transform="translate(10, 190)">
      <rect x="0" y="0" width="160" height="25" fill="#F3E5F5" stroke="#9C27B0" stroke-width="1" rx="3"/>
      <text x="80" y="18" font-family="Arial, sans-serif" font-size="10" font-weight="bold" fill="#7B1FA2" text-anchor="middle">ÅRLIG</text>
    </g>
  </g>
  

  <g transform="translate(250, 650)">
    <rect x="0" y="0" width="300" height="30" fill="#FFECB3" stroke="#FF8F00" stroke-width="1" rx="5"/>
    <text x="150" y="20" font-family="Arial, sans-serif" font-size="12" font-weight="bold" fill="#E65100" text-anchor="middle">Systematisk tilnærming sikrer pålitelig pensjonsrapportering</text>
  </g>
</svg>