<svg xmlns="http://www.w3.org/2000/svg" width="800" height="600"><defs><linearGradient id="a" x1="0%" x2="100%" y1="0%" y2="0%"><stop offset="0%" style="stop-color:#2e86ab;stop-opacity:1"/><stop offset="100%" style="stop-color:#a23b72;stop-opacity:1"/></linearGradient><linearGradient id="c" x1="0%" x2="0%" y1="0%" y2="100%"><stop offset="0%" style="stop-color:#f18f01;stop-opacity:.8"/><stop offset="100%" style="stop-color:#c73e1d;stop-opacity:.8"/></linearGradient></defs><path fill="#f8f9fa" d="M0 0h800v600H0z"/><path fill="url(#a)" d="M0 0h800v80H0z"/><text x="400" y="45" fill="#fff" font-family="Arial, sans-serif" font-size="28" font-weight="bold" text-anchor="middle">PENSJONSRAPPORTERING</text><g transform="translate(50 120)"><rect width="180" height="120" fill="#e3f2fd" stroke="#1976d2" stroke-width="2" rx="8"/><text x="90" y="25" fill="#1976d2" font-family="Arial, sans-serif" font-size="16" font-weight="bold" text-anchor="middle">DATAINNSAMLING</text><text x="10" y="50" fill="#333" font-family="Arial, sans-serif" font-size="12">• Ansattdata</text><text x="10" y="70" fill="#333" font-family="Arial, sans-serif" font-size="12">• Pensjonsmidler</text><text x="10" y="90" fill="#333" font-family="Arial, sans-serif" font-size="12">• Aktuarrapporter</text><text x="10" y="110" fill="#333" font-family="Arial, sans-serif" font-size="12">• Ordningsbestemmelser</text></g><g transform="translate(310 120)"><rect width="180" height="120" fill="#fff3e0" stroke="#f57c00" stroke-width="2" rx="8"/><text x="90" y="25" fill="#f57c00" font-family="Arial, sans-serif" font-size="16" font-weight="bold" text-anchor="middle">REGNSKAPSFØRING</text><text x="10" y="50" fill="#333" font-family="Arial, sans-serif" font-size="12">• Pensjonskostnader</text><text x="10" y="70" fill="#333" font-family="Arial, sans-serif" font-size="12">• Pensjonsforpliktelser</text><text x="10" y="90" fill="#333" font-family="Arial, sans-serif" font-size="12">• Periodisering</text><text x="10" y="110" fill="#333" font-family="Arial, sans-serif" font-size="12">• Avstemming</text></g><g transform="translate(570 120)"><rect width="180" height="120" fill="#f3e5f5" stroke="#7b1fa2" stroke-width="2" rx="8"/><text x="90" y="25" fill="#7b1fa2" font-family="Arial, sans-serif" font-size="16" font-weight="bold" text-anchor="middle">RAPPORTERING</text><text x="10" y="50" fill="#333" font-family="Arial, sans-serif" font-size="12">• Balanse</text><text x="10" y="70" fill="#333" font-family="Arial, sans-serif" font-size="12">• Resultatregnskap</text><text x="10" y="90" fill="#333" font-family="Arial, sans-serif" font-size="12">• Noter</text><text x="10" y="110" fill="#333" font-family="Arial, sans-serif" font-size="12">• Årsrapport</text></g><path fill="none" stroke="#666" stroke-width="3" marker-end="url(#b)" d="M240 180h60"/><path fill="none" stroke="#666" stroke-width="3" marker-end="url(#b)" d="M500 180h60"/><defs><marker id="b" markerHeight="7" markerWidth="10" orient="auto" refX="10" refY="3.5"><path fill="#666" d="m0 0 10 3.5L0 7z"/></marker></defs><g transform="translate(100 300)"><rect width="600" height="80" fill="url(#c)" rx="10"/><text x="300" y="30" fill="#fff" font-family="Arial, sans-serif" font-size="18" font-weight="bold" text-anchor="middle">LOVKRAV &amp; STANDARDER</text><text x="150" y="55" fill="#fff" font-family="Arial, sans-serif" font-size="14" text-anchor="middle">Regnskapsloven</text><text x="300" y="55" fill="#fff" font-family="Arial, sans-serif" font-size="14" text-anchor="middle">NRS Standarder</text><text x="450" y="55" fill="#fff" font-family="Arial, sans-serif" font-size="14" text-anchor="middle">IFRS</text></g><text y="20" fill="#2e86ab" font-family="Arial, sans-serif" font-size="16" font-weight="bold" transform="translate(50 420)">NØKKELPRINSIPPER:</text><g transform="translate(50 460)"><circle cx="8" cy="8" r="4" fill="#f18f01"/><text x="20" y="12" fill="#333" font-family="Arial, sans-serif" font-size="12">Transparens og fullstendig rapportering</text></g><g transform="translate(50 480)"><circle cx="8" cy="8" r="4" fill="#f18f01"/><text x="20" y="12" fill="#333" font-family="Arial, sans-serif" font-size="12">Aktuarmessige beregninger for ytelsesordninger</text></g><g transform="translate(50 500)"><circle cx="8" cy="8" r="4" fill="#f18f01"/><text x="20" y="12" fill="#333" font-family="Arial, sans-serif" font-size="12">Periodisk vurdering og oppdatering</text></g><g transform="translate(50 520)"><circle cx="8" cy="8" r="4" fill="#f18f01"/><text x="20" y="12" fill="#333" font-family="Arial, sans-serif" font-size="12">Internkontroll og kvalitetssikring</text></g><g transform="translate(450 420)"><rect width="140" height="40" fill="#e8f5e8" stroke="#4caf50" rx="5"/><text x="70" y="15" fill="#2e7d32" font-family="Arial, sans-serif" font-size="12" font-weight="bold" text-anchor="middle">INNSKUDDSPENSJON</text><text x="70" y="30" fill="#2e7d32" font-family="Arial, sans-serif" font-size="10" text-anchor="middle">Enkel rapportering</text><rect width="140" height="40" y="50" fill="#ffe8e8" stroke="#f44336" rx="5"/><text x="70" y="65" fill="#c62828" font-family="Arial, sans-serif" font-size="12" font-weight="bold" text-anchor="middle">YTELSESPENSJON</text><text x="70" y="80" fill="#c62828" font-family="Arial, sans-serif" font-size="10" text-anchor="middle">Kompleks rapportering</text></g></svg>