<svg xmlns="http://www.w3.org/2000/svg" width="800" height="700"><defs><linearGradient id="a" x1="0%" x2="100%" y1="0%" y2="0%"><stop offset="0%" style="stop-color:#1565c0;stop-opacity:1"/><stop offset="100%" style="stop-color:#0d47a1;stop-opacity:1"/></linearGradient></defs><path fill="#fafafa" d="M0 0h800v700H0z"/><path fill="url(#a)" d="M0 0h800v60H0z"/><text x="400" y="38" fill="#fff" font-family="Arial, sans-serif" font-size="24" font-weight="bold" text-anchor="middle">REGNSKAPSKRAV - PENSJONSRAPPORTERING</text><g transform="translate(50 100)"><rect width="700" height="120" fill="#e3f2fd" stroke="#1976d2" stroke-width="2" rx="8"/><text x="350" y="25" fill="#1976d2" font-family="Arial, sans-serif" font-size="18" font-weight="bold" text-anchor="middle">REGNSKAPSLOVEN</text><g transform="translate(20 45)"><rect width="200" height="60" fill="#fff" stroke="#90caf9" rx="4"/><text x="100" y="18" fill="#1976d2" font-family="Arial, sans-serif" font-size="12" font-weight="bold" text-anchor="middle">§ 6-2 Pensjon</text><text x="10" y="35" fill="#333" font-family="Arial, sans-serif" font-size="10">Regnskapsføring av</text><text x="10" y="48" fill="#333" font-family="Arial, sans-serif" font-size="10">pensjonkostnader</text></g><g transform="translate(240 45)"><rect width="200" height="60" fill="#fff" stroke="#90caf9" rx="4"/><text x="100" y="18" fill="#1976d2" font-family="Arial, sans-serif" font-size="12" font-weight="bold" text-anchor="middle">§ 7-1 Notekrav</text><text x="10" y="35" fill="#333" font-family="Arial, sans-serif" font-size="10">Opplysninger om</text><text x="10" y="48" fill="#333" font-family="Arial, sans-serif" font-size="10">pensjonsordninger</text></g><g transform="translate(460 45)"><rect width="200" height="60" fill="#fff" stroke="#90caf9" rx="4"/><text x="100" y="18" fill="#1976d2" font-family="Arial, sans-serif" font-size="12" font-weight="bold" text-anchor="middle">§ 4-1 Innregning</text><text x="10" y="35" fill="#333" font-family="Arial, sans-serif" font-size="10">Balanseføring av</text><text x="10" y="48" fill="#333" font-family="Arial, sans-serif" font-size="10">pensjonsforpliktelser</text></g></g><g transform="translate(50 250)"><rect width="700" height="140" fill="#fff3e0" stroke="#f57c00" stroke-width="2" rx="8"/><text x="350" y="25" fill="#f57c00" font-family="Arial, sans-serif" font-size="18" font-weight="bold" text-anchor="middle">NORSKE REGNSKAPSSTANDARDER (NRS)</text><g transform="translate(20 45)"><rect width="150" height="80" fill="#fff" stroke="#ffb74d" rx="4"/><text x="75" y="18" fill="#f57c00" font-family="Arial, sans-serif" font-size="12" font-weight="bold" text-anchor="middle">NRS 6</text><text x="75" y="35" fill="#f57c00" font-family="Arial, sans-serif" font-size="11" font-weight="bold" text-anchor="middle">Pensjonskostnader</text><text x="10" y="52" fill="#333" font-family="Arial, sans-serif" font-size="9">• Innskuddspensjon</text><text x="10" y="65" fill="#333" font-family="Arial, sans-serif" font-size="9">• Ytelsespensjon</text></g><g transform="translate(190 45)"><rect width="150" height="80" fill="#fff" stroke="#ffb74d" rx="4"/><text x="75" y="18" fill="#f57c00" font-family="Arial, sans-serif" font-size="12" font-weight="bold" text-anchor="middle">NRS 13</text><text x="75" y="35" fill="#f57c00" font-family="Arial, sans-serif" font-size="11" font-weight="bold" text-anchor="middle">Presentasjon</text><text x="10" y="52" fill="#333" font-family="Arial, sans-serif" font-size="9">• Balanseoppstilling</text><text x="10" y="65" fill="#333" font-family="Arial, sans-serif" font-size="9">• Resultatregnskap</text></g><g transform="translate(360 45)"><rect width="150" height="80" fill="#fff" stroke="#ffb74d" rx="4"/><text x="75" y="18" fill="#f57c00" font-family="Arial, sans-serif" font-size="12" font-weight="bold" text-anchor="middle">NRS 7</text><text x="75" y="35" fill="#f57c00" font-family="Arial, sans-serif" font-size="11" font-weight="bold" text-anchor="middle">Noteopplysninger</text><text x="10" y="52" fill="#333" font-family="Arial, sans-serif" font-size="9">• Obligatoriske noter</text><text x="10" y="65" fill="#333" font-family="Arial, sans-serif" font-size="9">• Tilleggsopplysninger</text></g><g transform="translate(530 45)"><rect width="150" height="80" fill="#fff" stroke="#ffb74d" rx="4"/><text x="75" y="18" fill="#f57c00" font-family="Arial, sans-serif" font-size="12" font-weight="bold" text-anchor="middle">NRS 18</text><text x="75" y="35" fill="#f57c00" font-family="Arial, sans-serif" font-size="11" font-weight="bold" text-anchor="middle">Estimater</text><text x="10" y="52" fill="#333" font-family="Arial, sans-serif" font-size="9">• Aktuarberegninger</text><text x="10" y="65" fill="#333" font-family="Arial, sans-serif" font-size="9">• Forutsetninger</text></g></g><g transform="translate(50 420)"><rect width="700" height="200" fill="#f3e5f5" stroke="#7b1fa2" stroke-width="2" rx="8"/><text x="350" y="25" fill="#7b1fa2" font-family="Arial, sans-serif" font-size="18" font-weight="bold" text-anchor="middle">RAPPORTERINGSKRAV</text><g font-family="Arial, sans-serif"><text y="15" fill="#7b1fa2" font-size="14" font-weight="bold" transform="translate(20 45)">BALANSE</text><text y="35" fill="#333" font-size="11" transform="translate(20 45)">• Netto pensjonsforpliktelse</text><text y="50" fill="#333" font-size="11" transform="translate(20 45)">• Pensjonsmidler</text><text y="65" fill="#333" font-size="11" transform="translate(20 45)">• Skyldig pensjonspremie</text><text y="95" fill="#7b1fa2" font-size="14" font-weight="bold" transform="translate(20 45)">RESULTAT</text><text y="115" fill="#333" font-size="11" transform="translate(20 45)">• Pensjonskostnader</text><text y="130" fill="#333" font-size="11" transform="translate(20 45)">• Administrasjonskostnader</text><text y="145" fill="#333" font-size="11" transform="translate(20 45)">• Finansposter</text></g><g font-family="Arial, sans-serif"><text y="15" fill="#7b1fa2" font-size="14" font-weight="bold" transform="translate(250 45)">NOTER</text><text y="35" fill="#333" font-size="11" transform="translate(250 45)">• Beskrivelse av ordninger</text><text y="50" fill="#333" font-size="11" transform="translate(250 45)">• Aktuarmessige forutsetninger</text><text y="65" fill="#333" font-size="11" transform="translate(250 45)">• Bevegelser i året</text><text y="80" fill="#333" font-size="11" transform="translate(250 45)">• Følsomhetsanalyser</text><text y="110" fill="#7b1fa2" font-size="14" font-weight="bold" transform="translate(250 45)">KONTROLL</text><text y="130" fill="#333" font-size="11" transform="translate(250 45)">• Internkontrollsystemer</text><text y="145" fill="#333" font-size="11" transform="translate(250 45)">• Kvalitetssikring</text></g><g font-family="Arial, sans-serif"><text y="15" fill="#7b1fa2" font-size="14" font-weight="bold" transform="translate(480 45)">ÅRSRAPPORT</text><text y="35" fill="#333" font-size="11" transform="translate(480 45)">• Ledelsens beretning</text><text y="50" fill="#333" font-size="11" transform="translate(480 45)">• Regnskapsprinsipper</text><text y="65" fill="#333" font-size="11" transform="translate(480 45)">• Fremtidsutsikter</text><text y="95" fill="#7b1fa2" font-size="14" font-weight="bold" transform="translate(480 45)">FRISTER</text><text y="115" fill="#333" font-size="11" transform="translate(480 45)">• Månedlig avstemming</text><text y="130" fill="#333" font-size="11" transform="translate(480 45)">• Kvartalsrapporter</text><text y="145" fill="#333" font-size="11" transform="translate(480 45)">• Årsregnskap</text></g></g><g transform="translate(50 650)"><rect width="700" height="30" fill="#ffecb3" stroke="#ff8f00" rx="4"/><text x="350" y="20" fill="#e65100" font-family="Arial, sans-serif" font-size="12" font-weight="bold" text-anchor="middle">Alle krav må følges for å sikre regelverksetterlevelse og transparent rapportering</text></g></svg>