<svg xmlns="http://www.w3.org/2000/svg" width="800" height="400"><defs><linearGradient id="a" x1="0%" x2="100%" y1="0%" y2="0%"><stop offset="0%" style="stop-color:#2563eb;stop-opacity:1"/><stop offset="100%" style="stop-color:#1d4ed8;stop-opacity:1"/></linearGradient><linearGradient id="b" x1="0%" x2="0%" y1="0%" y2="100%"><stop offset="0%" style="stop-color:#f8fafc;stop-opacity:1"/><stop offset="100%" style="stop-color:#e2e8f0;stop-opacity:1"/></linearGradient></defs><path fill="#fff" d="M0 0h800v400H0z"/><path fill="url(#a)" d="M0 0h800v80H0z"/><text x="400" y="45" fill="#fff" font-family="Arial, sans-serif" font-size="28" font-weight="bold" text-anchor="middle">Hva er en Lagerrapport?</text><rect width="700" height="280" x="50" y="100" fill="url(#b)" stroke="#cbd5e1" stroke-width="2" rx="10"/><rect width="120" height="150" x="80" y="130" fill="#fff" stroke="#64748b" stroke-width="2" rx="5"/><rect width="100" height="8" x="90" y="140" fill="#2563eb" rx="2"/><rect width="80" height="6" x="90" y="155" fill="#64748b" rx="1"/><rect width="90" height="6" x="90" y="168" fill="#64748b" rx="1"/><rect width="70" height="6" x="90" y="181" fill="#64748b" rx="1"/><path fill="#f1f5f9" stroke="#cbd5e1" d="M90 200h100v60H90z"/><path stroke="#cbd5e1" d="M90 215h100M90 230h100M90 245h100M130 200v60M160 200v60"/><path fill="#f8fafc" stroke="#64748b" stroke-width="2" d="M250 150h100v80H250z"/><path fill="#64748b" d="m250 150 50-30 50 30z"/><path fill="#2563eb" d="M270 170h15v40h-15zM295 170h15v40h-15zM320 170h15v40h-15z"/><path fill="none" stroke="#2563eb" stroke-width="3" marker-end="url(#c)" d="M370 190h50"/><defs><marker id="c" markerHeight="7" markerWidth="10" orient="auto" refX="9" refY="3.5"><path fill="#2563eb" d="m0 0 10 3.5L0 7z"/></marker></defs><rect width="80" height="50" x="440" y="160" fill="#fff" stroke="#64748b" stroke-width="2" rx="3"/><path fill="#1e293b" d="M450 170h60v30h-60z"/><rect width="50" height="4" x="455" y="175" fill="#22c55e" rx="1"/><rect width="35" height="4" x="455" y="185" fill="#3b82f6" rx="1"/><rect width="40" height="4" x="455" y="195" fill="#f59e0b" rx="1"/><text x="580" y="140" fill="#1e293b" font-family="Arial, sans-serif" font-size="16" font-weight="bold">Nøkkelfunksjoner:</text><text x="580" y="165" fill="#475569" font-family="Arial, sans-serif" font-size="14">• Lagerbeholdning</text><text x="580" y="185" fill="#475569" font-family="Arial, sans-serif" font-size="14">• Verdivurdering</text><text x="580" y="205" fill="#475569" font-family="Arial, sans-serif" font-size="14">• Regnskapsføring</text><text x="580" y="225" fill="#475569" font-family="Arial, sans-serif" font-size="14">• Lagerstyring</text><text x="580" y="245" fill="#475569" font-family="Arial, sans-serif" font-size="14">• Analyse &amp; KPIer</text><text x="400" y="320" fill="#64748b" font-family="Arial, sans-serif" font-size="14" text-anchor="middle">Systematisk dokumentasjon av lagerbeholdning for regnskapsføring og lagerstyring</text><text x="400" y="340" fill="#94a3b8" font-family="Arial, sans-serif" font-size="12" text-anchor="middle">Kritisk verktøy for verdivurdering, kostnadskontroll og operasjonell effektivitet</text></svg>