<svg xmlns="http://www.w3.org/2000/svg" width="800" height="600"><defs><linearGradient id="a" x1="0%" x2="100%" y1="0%" y2="0%"><stop offset="0%" style="stop-color:#8b5cf6;stop-opacity:1"/><stop offset="100%" style="stop-color:#7c3aed;stop-opacity:1"/></linearGradient><linearGradient id="b" x1="0%" x2="100%" y1="0%" y2="0%"><stop offset="0%" style="stop-color:#06b6d4;stop-opacity:1"/><stop offset="100%" style="stop-color:#0891b2;stop-opacity:1"/></linearGradient><linearGradient id="c" x1="0%" x2="100%" y1="0%" y2="0%"><stop offset="0%" style="stop-color:#f59e0b;stop-opacity:1"/><stop offset="100%" style="stop-color:#d97706;stop-opacity:1"/></linearGradient></defs><path fill="#fff" d="M0 0h800v600H0z"/><text x="400" y="30" fill="#1e293b" font-family="Arial, sans-serif" font-size="24" font-weight="bold" text-anchor="middle">Typer Lagerrapporter</text><rect width="220" height="180" x="50" y="80" fill="url(#a)" rx="15"/><text x="160" y="110" fill="#fff" font-family="Arial, sans-serif" font-size="18" font-weight="bold" text-anchor="middle">PERIODISK</text><text x="160" y="130" fill="#fff" font-family="Arial, sans-serif" font-size="16" font-weight="bold" text-anchor="middle">LAGERRAPPORT</text><rect width="60" height="50" x="130" y="150" fill="#fff" rx="5"/><rect width="60" height="15" x="130" y="150" fill="#64748b" rx="5 5 0 0"/><path stroke="#64748b" stroke-width="2" d="M145 140v25M175 140v25"/><path fill="#8b5cf6" d="M140 175h8v8h-8zM155 175h8v8h-8zM170 175h8v8h-8zM140 185h8v8h-8z"/><text x="160" y="225" fill="#fff" font-family="Arial, sans-serif" font-size="12" text-anchor="middle">• Månedlig/Kvartalsvis</text><text x="160" y="245" fill="#fff" font-family="Arial, sans-serif" font-size="12" text-anchor="middle">• Fysisk telling</text><rect width="220" height="180" x="290" y="80" fill="url(#b)" rx="15"/><text x="400" y="110" fill="#fff" font-family="Arial, sans-serif" font-size="18" font-weight="bold" text-anchor="middle">KONTINUERLIG</text><text x="400" y="130" fill="#fff" font-family="Arial, sans-serif" font-size="16" font-weight="bold" text-anchor="middle">LAGERRAPPORT</text><circle cx="400" cy="170" r="25" fill="#fff"/><circle cx="400" cy="170" r="20" fill="none" stroke="#06b6d4" stroke-width="3"/><path fill="none" stroke="#06b6d4" stroke-width="3" d="M400 155v15l10 10"/><circle cx="415" cy="155" r="3" fill="#22c55e"/><circle cx="385" cy="185" r="3" fill="#22c55e"/><circle cx="415" cy="185" r="3" fill="#22c55e"/><text x="400" y="225" fill="#fff" font-family="Arial, sans-serif" font-size="12" text-anchor="middle">• Sanntidsoppdatering</text><text x="400" y="245" fill="#fff" font-family="Arial, sans-serif" font-size="12" text-anchor="middle">• ERP-integrert</text><rect width="220" height="180" x="530" y="80" fill="url(#c)" rx="15"/><text x="640" y="110" fill="#fff" font-family="Arial, sans-serif" font-size="18" font-weight="bold" text-anchor="middle">ABC-ANALYSE</text><text x="640" y="130" fill="#fff" font-family="Arial, sans-serif" font-size="16" font-weight="bold" text-anchor="middle">LAGERRAPPORT</text><rect width="80" height="50" x="600" y="150" fill="#fff" rx="5"/><path fill="#dc2626" d="M605 155h15v40h-15z"/><path fill="#f59e0b" d="M625 165h15v30h-15z"/><path fill="#22c55e" d="M645 175h15v20h-15z"/><path fill="#64748b" d="M665 185h15v10h-15z"/><text x="612" y="210" fill="#1e293b" font-family="Arial, sans-serif" font-size="8" text-anchor="middle">A</text><text x="632" y="210" fill="#1e293b" font-family="Arial, sans-serif" font-size="8" text-anchor="middle">B</text><text x="652" y="210" fill="#1e293b" font-family="Arial, sans-serif" font-size="8" text-anchor="middle">C</text><text x="640" y="225" fill="#fff" font-family="Arial, sans-serif" font-size="12" text-anchor="middle">• Verdikategorisering</text><text x="640" y="245" fill="#fff" font-family="Arial, sans-serif" font-size="12" text-anchor="middle">• Prioritering</text><rect width="600" height="250" x="100" y="300" fill="#f8fafc" stroke="#cbd5e1" stroke-width="2" rx="10"/><text x="400" y="330" fill="#1e293b" font-family="Arial, sans-serif" font-size="18" font-weight="bold" text-anchor="middle">Sammenligning av Lagerrapporttyper</text><path fill="#64748b" d="M120 350h140v40H120z"/><path fill="#8b5cf6" d="M260 350h140v40H260z"/><path fill="#06b6d4" d="M400 350h140v40H400z"/><path fill="#f59e0b" d="M540 350h140v40H540z"/><text x="190" y="375" fill="#fff" font-family="Arial, sans-serif" font-size="12" font-weight="bold" text-anchor="middle">Aspekt</text><text x="330" y="375" fill="#fff" font-family="Arial, sans-serif" font-size="12" font-weight="bold" text-anchor="middle">Periodisk</text><text x="470" y="375" fill="#fff" font-family="Arial, sans-serif" font-size="12" font-weight="bold" text-anchor="middle">Kontinuerlig</text><text x="610" y="375" fill="#fff" font-family="Arial, sans-serif" font-size="12" font-weight="bold" text-anchor="middle">ABC-Analyse</text><path fill="#fff" stroke="#cbd5e1" d="M120 390h560v30H120z"/><text x="190" y="410" fill="#1e293b" font-family="Arial, sans-serif" font-size="11" text-anchor="middle">Oppdateringsfrekvens</text><text x="330" y="410" fill="#1e293b" font-family="Arial, sans-serif" font-size="11" text-anchor="middle">Månedlig/Årlig</text><text x="470" y="410" fill="#1e293b" font-family="Arial, sans-serif" font-size="11" text-anchor="middle">Sanntid</text><text x="610" y="410" fill="#1e293b" font-family="Arial, sans-serif" font-size="11" text-anchor="middle">Etter behov</text><path fill="#f1f5f9" stroke="#cbd5e1" d="M120 420h560v30H120z"/><text x="190" y="440" fill="#1e293b" font-family="Arial, sans-serif" font-size="11" text-anchor="middle">Nøyaktighet</text><text x="330" y="440" fill="#1e293b" font-family="Arial, sans-serif" font-size="11" text-anchor="middle">Middels</text><text x="470" y="440" fill="#1e293b" font-family="Arial, sans-serif" font-size="11" text-anchor="middle">Høy</text><text x="610" y="440" fill="#1e293b" font-family="Arial, sans-serif" font-size="11" text-anchor="middle">Høy</text><path fill="#fff" stroke="#cbd5e1" d="M120 450h560v30H120z"/><text x="190" y="470" fill="#1e293b" font-family="Arial, sans-serif" font-size="11" text-anchor="middle">Kostnad</text><text x="330" y="470" fill="#1e293b" font-family="Arial, sans-serif" font-size="11" text-anchor="middle">Lav</text><text x="470" y="470" fill="#1e293b" font-family="Arial, sans-serif" font-size="11" text-anchor="middle">Høy</text><text x="610" y="470" fill="#1e293b" font-family="Arial, sans-serif" font-size="11" text-anchor="middle">Middels</text><path fill="#f1f5f9" stroke="#cbd5e1" d="M120 480h560v30H120z"/><text x="190" y="500" fill="#1e293b" font-family="Arial, sans-serif" font-size="11" text-anchor="middle">Egnet for</text><text x="330" y="500" fill="#1e293b" font-family="Arial, sans-serif" font-size="11" text-anchor="middle">Små bedrifter</text><text x="470" y="500" fill="#1e293b" font-family="Arial, sans-serif" font-size="11" text-anchor="middle">Store bedrifter</text><text x="610" y="500" fill="#1e293b" font-family="Arial, sans-serif" font-size="11" text-anchor="middle">Alle størrelser</text><path fill="#fff" stroke="#cbd5e1" d="M120 510h560v30H120z"/><text x="190" y="530" fill="#1e293b" font-family="Arial, sans-serif" font-size="11" text-anchor="middle">Teknologikrav</text><text x="330" y="530" fill="#1e293b" font-family="Arial, sans-serif" font-size="11" text-anchor="middle">Minimale</text><text x="470" y="530" fill="#1e293b" font-family="Arial, sans-serif" font-size="11" text-anchor="middle">ERP-system</text><text x="610" y="530" fill="#1e293b" font-family="Arial, sans-serif" font-size="11" text-anchor="middle">Analyseverktøy</text><text x="400" y="580" fill="#64748b" font-family="Arial, sans-serif" font-size="12" text-anchor="middle">Valg av lagerrapporttype avhenger av bedriftens størrelse, kompleksitet og ressurser</text></svg>