<svg xmlns="http://www.w3.org/2000/svg" width="800" height="600"><defs><linearGradient id="a" x1="0%" x2="100%" y1="0%" y2="100%"><stop offset="0%" style="stop-color:#3f51b5;stop-opacity:1"/><stop offset="100%" style="stop-color:#5c6bc0;stop-opacity:1"/></linearGradient><linearGradient id="c" x1="0%" x2="100%" y1="0%" y2="0%"><stop offset="0%" style="stop-color:#4caf50;stop-opacity:1"/><stop offset="100%" style="stop-color:#66bb6a;stop-opacity:1"/></linearGradient><linearGradient id="b" x1="0%" x2="100%" y1="0%" y2="0%"><stop offset="0%" style="stop-color:#f44336;stop-opacity:1"/><stop offset="100%" style="stop-color:#ef5350;stop-opacity:1"/></linearGradient></defs><path fill="#f8f9fa" d="M0 0h800v600H0z"/><text x="400" y="30" fill="#333" font-family="Arial, sans-serif" font-size="24" font-weight="bold" text-anchor="middle">
    Arbeidskapital og Kontantstrøm
  </text><rect width="700" height="120" x="50" y="70" fill="url(#a)" rx="15"/><text x="400" y="100" fill="#fff" font-family="Arial, sans-serif" font-size="20" font-weight="bold" text-anchor="middle">
    ARBEIDSKAPITAL KOMPONENTER
  </text><rect width="180" height="50" x="80" y="120" fill="rgba(255,255,255,0.2)" rx="8"/><text x="170" y="140" fill="#fff" font-family="Arial, sans-serif" font-size="14" font-weight="bold" text-anchor="middle">
    Kundefordringer
  </text><text x="170" y="155" fill="#fff" font-family="Arial, sans-serif" font-size="11" text-anchor="middle">
    Penger kunder skylder
  </text><rect width="180" height="50" x="290" y="120" fill="rgba(255,255,255,0.2)" rx="8"/><text x="380" y="140" fill="#fff" font-family="Arial, sans-serif" font-size="14" font-weight="bold" text-anchor="middle">
    Varelager
  </text><text x="380" y="155" fill="#fff" font-family="Arial, sans-serif" font-size="11" text-anchor="middle">
    Kapital bundet i lager
  </text><rect width="180" height="50" x="500" y="120" fill="rgba(255,255,255,0.2)" rx="8"/><text x="590" y="140" fill="#fff" font-family="Arial, sans-serif" font-size="14" font-weight="bold" text-anchor="middle">
    Leverandørgjeld
  </text><text x="590" y="155" fill="#fff" font-family="Arial, sans-serif" font-size="11" text-anchor="middle">
    Penger vi skylder
  </text><text x="400" y="230" fill="#333" font-family="Arial, sans-serif" font-size="18" font-weight="bold" text-anchor="middle">
    Sammenheng mellom Arbeidskapitalendring og Kontantstrøm
  </text><rect width="700" height="30" x="50" y="250" fill="#e0e0e0" rx="5"/><text x="70" y="270" fill="#333" font-family="Arial, sans-serif" font-size="13" font-weight="bold">
    Arbeidskapitalendring
  </text><text x="350" y="270" fill="#333" font-family="Arial, sans-serif" font-size="13" font-weight="bold">
    Effekt på Kontantstrøm
  </text><text x="550" y="270" fill="#333" font-family="Arial, sans-serif" font-size="13" font-weight="bold">
    Forklaring
  </text><rect width="700" height="35" x="50" y="280" fill="#ffebee" rx="3"/><text x="70" y="300" fill="#333" font-family="Arial, sans-serif" font-size="12">
    ↑ Økning i kundefordringer
  </text><rect width="80" height="25" x="330" y="285" fill="url(#b)" rx="3"/><text x="370" y="300" fill="#fff" font-family="Arial, sans-serif" font-size="11" font-weight="bold" text-anchor="middle">
    NEGATIV
  </text><text x="560" y="300" fill="#333" font-family="Arial, sans-serif" font-size="11">
    Mer penger bundet opp i fordringer
  </text><rect width="700" height="35" x="50" y="315" fill="#e8f5e8" rx="3"/><text x="70" y="335" fill="#333" font-family="Arial, sans-serif" font-size="12">
    ↓ Reduksjon i kundefordringer
  </text><rect width="80" height="25" x="330" y="320" fill="url(#c)" rx="3"/><text x="370" y="335" fill="#fff" font-family="Arial, sans-serif" font-size="11" font-weight="bold" text-anchor="middle">
    POSITIV
  </text><text x="560" y="335" fill="#333" font-family="Arial, sans-serif" font-size="11">
    Innkreving av fordringer gir kontanter
  </text><rect width="700" height="35" x="50" y="350" fill="#ffebee" rx="3"/><text x="70" y="370" fill="#333" font-family="Arial, sans-serif" font-size="12">
    ↑ Økning i varelager
  </text><rect width="80" height="25" x="330" y="355" fill="url(#b)" rx="3"/><text x="370" y="370" fill="#fff" font-family="Arial, sans-serif" font-size="11" font-weight="bold" text-anchor="middle">
    NEGATIV
  </text><text x="560" y="370" fill="#333" font-family="Arial, sans-serif" font-size="11">
    Mer kapital bundet i lager
  </text><rect width="700" height="35" x="50" y="385" fill="#e8f5e8" rx="3"/><text x="70" y="405" fill="#333" font-family="Arial, sans-serif" font-size="12">
    ↓ Reduksjon i varelager
  </text><rect width="80" height="25" x="330" y="390" fill="url(#c)" rx="3"/><text x="370" y="405" fill="#fff" font-family="Arial, sans-serif" font-size="11" font-weight="bold" text-anchor="middle">
    POSITIV
  </text><text x="560" y="405" fill="#333" font-family="Arial, sans-serif" font-size="11">
    Salg av lager uten erstatningskjøp
  </text><rect width="700" height="35" x="50" y="420" fill="#e8f5e8" rx="3"/><text x="70" y="440" fill="#333" font-family="Arial, sans-serif" font-size="12">
    ↑ Økning i leverandørgjeld
  </text><rect width="80" height="25" x="330" y="425" fill="url(#c)" rx="3"/><text x="370" y="440" fill="#fff" font-family="Arial, sans-serif" font-size="11" font-weight="bold" text-anchor="middle">
    POSITIV
  </text><text x="560" y="440" fill="#333" font-family="Arial, sans-serif" font-size="11">
    Utsetter kontantutbetaling
  </text><rect width="700" height="35" x="50" y="455" fill="#ffebee" rx="3"/><text x="70" y="475" fill="#333" font-family="Arial, sans-serif" font-size="12">
    ↓ Reduksjon i leverandørgjeld
  </text><rect width="80" height="25" x="330" y="460" fill="url(#b)" rx="3"/><text x="370" y="475" fill="#fff" font-family="Arial, sans-serif" font-size="11" font-weight="bold" text-anchor="middle">
    NEGATIV
  </text><text x="560" y="475" fill="#333" font-family="Arial, sans-serif" font-size="11">
    Betaling av gjeld reduserer kontanter
  </text><rect width="700" height="70" x="50" y="510" fill="#fff3e0" stroke="#ff9800" stroke-width="2" rx="10"/><text x="400" y="535" fill="#e65100" font-family="Arial, sans-serif" font-size="16" font-weight="bold" text-anchor="middle">
    Optimalisering av Arbeidskapital for Bedre Kontantstrøm
  </text><text x="70" y="555" fill="#333" font-family="Arial, sans-serif" font-size="12">
    • <tspan font-weight="bold">Kundefordringer:</tspan> Effektive kredittvurderinger, automatisert fakturering, factoring
  </text><text x="70" y="570" fill="#333" font-family="Arial, sans-serif" font-size="12">
    • <tspan font-weight="bold">Varelager:</tspan> Just-in-time lagerstyring, bedre etterspørselsprognoser, reduserte produktvarianter
  </text><path fill="none" stroke="#3f51b5" stroke-width="2" marker-end="url(#d)" d="M170 190v60"/><path fill="none" stroke="#3f51b5" stroke-width="2" marker-end="url(#d)" d="M380 190v60"/><path fill="none" stroke="#3f51b5" stroke-width="2" marker-end="url(#d)" d="M590 190v60"/><defs><marker id="d" markerHeight="7" markerWidth="10" orient="auto" refX="9" refY="3.5"><path fill="#3f51b5" d="m0 0 10 3.5L0 7z"/></marker></defs></svg>