<svg xmlns="http://www.w3.org/2000/svg" width="800" height="600"><path fill="#f8f9fa" d="M0 0h800v600H0z"/><text x="400" y="40" fill="#2c3e50" font-family="Arial, sans-serif" font-size="26" font-weight="bold" text-anchor="middle">Rapporteringsstruktur for Dekningsgrader</text><g transform="translate(50 80)"><rect width="320" height="220" fill="#3498db" stroke="#3498db" stroke-width="2" opacity=".1" rx="10"/><text x="160" y="25" fill="#2c3e50" font-family="Arial, sans-serif" font-size="20" font-weight="bold" text-anchor="middle">Interne Rapporter</text><rect width="280" height="40" x="20" y="50" fill="#3498db" opacity=".2" rx="5"/><text x="30" y="65" fill="#2c3e50" font-family="Arial, sans-serif" font-size="14" font-weight="bold">Månedlige Rapporter</text><text x="30" y="80" fill="#34495e" font-family="Arial, sans-serif" font-size="12">• Likviditetsovervåking • Rentedekningsgrad</text><rect width="280" height="40" x="20" y="100" fill="#3498db" opacity=".2" rx="5"/><text x="30" y="115" fill="#2c3e50" font-family="Arial, sans-serif" font-size="14" font-weight="bold">Kvartalsvise Rapporter</text><text x="30" y="130" fill="#34495e" font-family="Arial, sans-serif" font-size="12">• Trendanalyse • Sammenligning med budsjett</text><rect width="280" height="40" x="20" y="150" fill="#3498db" opacity=".2" rx="5"/><text x="30" y="165" fill="#2c3e50" font-family="Arial, sans-serif" font-size="14" font-weight="bold">Årlige Rapporter</text><text x="30" y="180" fill="#34495e" font-family="Arial, sans-serif" font-size="12">• Strategisk analyse • Langsiktige trender</text><text x="160" y="210" fill="#7f8c8d" font-family="Arial, sans-serif" font-size="12" font-style="italic" text-anchor="middle">Målgruppe: Ledelse og styret</text></g><g transform="translate(430 80)"><rect width="320" height="220" fill="#27ae60" stroke="#27ae60" stroke-width="2" opacity=".1" rx="10"/><text x="160" y="25" fill="#2c3e50" font-family="Arial, sans-serif" font-size="20" font-weight="bold" text-anchor="middle">Eksterne Rapporter</text><rect width="280" height="40" x="20" y="50" fill="#27ae60" opacity=".2" rx="5"/><text x="30" y="65" fill="#2c3e50" font-family="Arial, sans-serif" font-size="14" font-weight="bold">Kredittrapporter</text><text x="30" y="80" fill="#34495e" font-family="Arial, sans-serif" font-size="12">• Bankrapporter • Lånesøknader</text><rect width="280" height="40" x="20" y="100" fill="#27ae60" opacity=".2" rx="5"/><text x="30" y="115" fill="#2c3e50" font-family="Arial, sans-serif" font-size="14" font-weight="bold">Årsrapporter</text><text x="30" y="130" fill="#34495e" font-family="Arial, sans-serif" font-size="12">• Nøkkeltallsanalyse • Risikofaktorer</text><rect width="280" height="40" x="20" y="150" fill="#27ae60" opacity=".2" rx="5"/><text x="30" y="165" fill="#2c3e50" font-family="Arial, sans-serif" font-size="14" font-weight="bold">Investorrapporter</text><text x="30" y="180" fill="#34495e" font-family="Arial, sans-serif" font-size="12">• Presentasjoner • Kvartalsrapporter</text><text x="160" y="210" fill="#7f8c8d" font-family="Arial, sans-serif" font-size="12" font-style="italic" text-anchor="middle">Målgruppe: Banker, investorer, myndigheter</text></g><g transform="translate(100 340)"><rect width="600" height="180" fill="#ecf0f1" stroke="#bdc3c7" stroke-width="2" rx="10"/><text x="300" y="25" fill="#2c3e50" font-family="Arial, sans-serif" font-size="18" font-weight="bold" text-anchor="middle">Nøkkeltall Dashboard</text><g transform="translate(20 40)"><rect width="130" height="60" fill="#3498db" stroke="#3498db" opacity=".2" rx="5"/><text x="65" y="20" fill="#2c3e50" font-family="Arial, sans-serif" font-size="12" font-weight="bold" text-anchor="middle">Rentedekningsgrad</text><text x="65" y="35" fill="#3498db" font-family="Arial, sans-serif" font-size="20" font-weight="bold" text-anchor="middle">4.2</text><text x="65" y="50" fill="#27ae60" font-family="Arial, sans-serif" font-size="10" text-anchor="middle">↗ +0.3 fra i fjor</text><rect width="130" height="60" x="150" fill="#27ae60" stroke="#27ae60" opacity=".2" rx="5"/><text x="215" y="20" fill="#2c3e50" font-family="Arial, sans-serif" font-size="12" font-weight="bold" text-anchor="middle">Egenkapitaldekning</text><text x="215" y="35" fill="#27ae60" font-family="Arial, sans-serif" font-size="20" font-weight="bold" text-anchor="middle">32%</text><text x="215" y="50" fill="#27ae60" font-family="Arial, sans-serif" font-size="10" text-anchor="middle">↗ +2% fra i fjor</text><rect width="130" height="60" x="300" fill="#e74c3c" stroke="#e74c3c" opacity=".2" rx="5"/><text x="365" y="20" fill="#2c3e50" font-family="Arial, sans-serif" font-size="12" font-weight="bold" text-anchor="middle">Likviditetsgrad 1</text><text x="365" y="35" fill="#e74c3c" font-family="Arial, sans-serif" font-size="20" font-weight="bold" text-anchor="middle">1.8</text><text x="365" y="50" fill="#e74c3c" font-family="Arial, sans-serif" font-size="10" text-anchor="middle">↘ -0.2 fra i fjor</text><rect width="130" height="60" x="450" fill="#f39c12" stroke="#f39c12" opacity=".2" rx="5"/><text x="515" y="20" fill="#2c3e50" font-family="Arial, sans-serif" font-size="12" font-weight="bold" text-anchor="middle">Likviditetsgrad 2</text><text x="515" y="35" fill="#f39c12" font-family="Arial, sans-serif" font-size="20" font-weight="bold" text-anchor="middle">1.1</text><text x="515" y="50" fill="#27ae60" font-family="Arial, sans-serif" font-size="10" text-anchor="middle">↗ +0.1 fra i fjor</text></g><path fill="#fff" stroke="#bdc3c7" d="M20 110h560v50H20z"/><text x="280" y="15" fill="#2c3e50" font-family="Arial, sans-serif" font-size="12" font-weight="bold" text-anchor="middle" transform="translate(20 110)">5-års Trendutvikling</text><path fill="none" stroke="#3498db" stroke-width="2" d="m40 145 100-5 100-5 100 3 100-6 100-2"/><text x="20" y="45" fill="#7f8c8d" font-family="Arial, sans-serif" font-size="10" transform="translate(20 110)">2019</text><text x="520" y="45" fill="#7f8c8d" font-family="Arial, sans-serif" font-size="10" transform="translate(20 110)">2024</text></g><g transform="translate(50 550)"><text fill="#2c3e50" font-family="Arial, sans-serif" font-size="14" font-weight="bold">Rapporteringsfrekvens:</text><circle cx="150" cy="-5" r="8" fill="#e74c3c"/><text x="170" fill="#2c3e50" font-family="Arial, sans-serif" font-size="12">Kritisk (daglig)</text><circle cx="280" cy="-5" r="8" fill="#f39c12"/><text x="300" fill="#2c3e50" font-family="Arial, sans-serif" font-size="12">Viktig (ukentlig)</text><circle cx="420" cy="-5" r="8" fill="#27ae60"/><text x="440" fill="#2c3e50" font-family="Arial, sans-serif" font-size="12">Standard (månedlig)</text><circle cx="570" cy="-5" r="8" fill="#3498db"/><text x="590" fill="#2c3e50" font-family="Arial, sans-serif" font-size="12">Strategisk (kvartalsvis)</text></g></svg>