<svg xmlns="http://www.w3.org/2000/svg" width="700" height="500"><defs><linearGradient id="a" x1="0%" x2="0%" y1="0%" y2="100%"><stop offset="0%" style="stop-color:#f8fafc;stop-opacity:1"/><stop offset="100%" style="stop-color:#e2e8f0;stop-opacity:1"/></linearGradient><filter id="b" width="140%" height="140%" x="-20%" y="-20%"><feDropShadow dx="3" dy="3" flood-color="#00000020" stdDeviation="3"/></filter></defs><path fill="url(#a)" stroke="#cbd5e1" stroke-width="2" d="M0 0h700v500H0z"/><text x="350" y="40" fill="#1e293b" font-family="Arial, sans-serif" font-size="24" font-weight="bold" text-anchor="middle">
    Internkontrollens Tre Hovedmål
  </text><circle cx="350" cy="250" r="80" fill="#2563eb" stroke="#1d4ed8" stroke-width="3" filter="url(#b)"/><text x="350" y="240" fill="#fff" font-family="Arial, sans-serif" font-size="16" font-weight="bold" text-anchor="middle">
    INTERN-
  </text><text x="350" y="260" fill="#fff" font-family="Arial, sans-serif" font-size="16" font-weight="bold" text-anchor="middle">
    KONTROLL
  </text><g transform="translate(250 80)"><circle cx="100" cy="50" r="60" fill="#10b981" stroke="#059669" stroke-width="3" filter="url(#b)"/><text x="100" y="40" fill="#fff" font-family="Arial, sans-serif" font-size="12" font-weight="bold" text-anchor="middle">
      OPERASJONELL
    </text><text x="100" y="55" fill="#fff" font-family="Arial, sans-serif" font-size="12" font-weight="bold" text-anchor="middle">
      EFFEKTIVITET
    </text><g transform="translate(85 65)"><circle cx="15" cy="10" r="8" fill="#fff"/><path fill="none" stroke="#10b981" stroke-linecap="round" stroke-width="2" d="m10 10 3 3 7-7"/></g><rect width="160" height="60" x="20" y="120" fill="#fff" stroke="#10b981" stroke-width="2" filter="url(#b)" rx="5"/><text x="100" y="140" fill="#1e293b" font-family="Arial, sans-serif" font-size="11" text-anchor="middle">
      Sikre effektiv bruk av
    </text><text x="100" y="155" fill="#1e293b" font-family="Arial, sans-serif" font-size="11" text-anchor="middle">
      ressurser og oppnåelse
    </text><text x="100" y="170" fill="#1e293b" font-family="Arial, sans-serif" font-size="11" text-anchor="middle">
      av operasjonelle mål
    </text></g><g transform="translate(80 320)"><circle cx="100" cy="50" r="60" fill="#dc2626" stroke="#b91c1c" stroke-width="3" filter="url(#b)"/><text x="100" y="40" fill="#fff" font-family="Arial, sans-serif" font-size="12" font-weight="bold" text-anchor="middle">
      PÅLITELIG
    </text><text x="100" y="55" fill="#fff" font-family="Arial, sans-serif" font-size="12" font-weight="bold" text-anchor="middle">
      RAPPORTERING
    </text><g transform="translate(85 65)"><rect width="14" height="18" x="8" y="5" fill="#fff" rx="1"/><path stroke="#dc2626" d="M10 9h10M10 13h10M10 17h8"/></g><rect width="160" height="60" x="20" y="120" fill="#fff" stroke="#dc2626" stroke-width="2" filter="url(#b)" rx="5"/><text x="100" y="140" fill="#1e293b" font-family="Arial, sans-serif" font-size="11" text-anchor="middle">
      Garantere nøyaktig og
    </text><text x="100" y="155" fill="#1e293b" font-family="Arial, sans-serif" font-size="11" text-anchor="middle">
      pålitelig finansiell
    </text><text x="100" y="170" fill="#1e293b" font-family="Arial, sans-serif" font-size="11" text-anchor="middle">
      informasjon
    </text></g><g transform="translate(420 320)"><circle cx="100" cy="50" r="60" fill="#7c3aed" stroke="#6d28d9" stroke-width="3" filter="url(#b)"/><text x="100" y="40" fill="#fff" font-family="Arial, sans-serif" font-size="12" font-weight="bold" text-anchor="middle">
      OVERHOLDELSE
    </text><text x="100" y="55" fill="#fff" font-family="Arial, sans-serif" font-size="12" font-weight="bold" text-anchor="middle">
      AV LOVER
    </text><g transform="translate(85 65)"><rect width="10" height="15" x="10" y="5" fill="#fff" rx="1"/><path fill="#7c3aed" d="M11 7h8v2h-8zM11 10h8v2h-8zM11 13h8v2h-8zM11 16h8v2h-8z"/></g><rect width="160" height="60" x="20" y="120" fill="#fff" stroke="#7c3aed" stroke-width="2" filter="url(#b)" rx="5"/><text x="100" y="140" fill="#1e293b" font-family="Arial, sans-serif" font-size="11" text-anchor="middle">
      Sikre overholdelse av
    </text><text x="100" y="155" fill="#1e293b" font-family="Arial, sans-serif" font-size="11" text-anchor="middle">
      juridiske krav og
    </text><text x="100" y="170" fill="#1e293b" font-family="Arial, sans-serif" font-size="11" text-anchor="middle">
      forskrifter
    </text></g><path stroke="#64748b" stroke-width="2" d="M350 170v-30M290 210l-40-30M410 210l40-30M290 290l-40 30M410 290l40 30"/><text x="350" y="470" fill="#64748b" font-family="Arial, sans-serif" font-size="12" text-anchor="middle">
    Alle tre målene må oppnås samtidig for effektiv internkontroll
  </text></svg>