<svg viewBox="0 0 800 600" xmlns="http://www.w3.org/2000/svg">
  <defs>
    <linearGradient id="headerGrad" x1="0%" y1="0%" x2="100%" y2="0%">
      <stop offset="0%" style="stop-color:#1e40af;stop-opacity:1" />
      <stop offset="100%" style="stop-color:#60a5fa;stop-opacity:1" />
    </linearGradient>
    <linearGradient id="futureGrad" x1="0%" y1="0%" x2="100%" y2="0%">
      <stop offset="0%" style="stop-color:#e0e7ff;stop-opacity:1" />
      <stop offset="100%" style="stop-color:#c7d2fe;stop-opacity:1" />
    </linearGradient>
  </defs>
  

  <rect width="800" height="600" fill="#f8fafc"/>
  

  <rect x="0" y="0" width="800" height="80" fill="url(#headerGrad)"/>
  <text x="400" y="50" text-anchor="middle" fill="white" font-size="24" font-weight="bold">FREMTIDENS TABELLTREKK-SYSTEM</text>
  

  <rect x="50" y="100" width="700" height="120" fill="url(#futureGrad)" stroke="#3b82f6" stroke-width="2" rx="10"/>
  <text x="400" y="125" text-anchor="middle" font-size="16" font-weight="bold" fill="#1e40af">UTVIKLINGSPLAN 2024-2035</text>
  

  <rect x="80" y="145" width="150" height="60" fill="#dbeafe" stroke="#3b82f6" stroke-width="1" rx="5"/>
  <text x="155" y="165" text-anchor="middle" font-size="11" font-weight="bold" fill="#1e40af">FASE 1: 2024-2026</text>
  <text x="90" y="180" font-size="9" fill="#374151">• Digital trekkart</text>
  <text x="90" y="192" font-size="9" fill="#374151">• API-integrasjon</text>
  <text x="90" y="204" font-size="9" fill="#374151">• Real-time validering</text>
  

  <rect x="250" y="145" width="150" height="60" fill="#c7d2fe" stroke="#6366f1" stroke-width="1" rx="5"/>
  <text x="325" y="165" text-anchor="middle" font-size="11" font-weight="bold" fill="#4338ca">FASE 2: 2027-2030</text>
  <text x="260" y="180" font-size="9" fill="#374151">• AI-optimalisering</text>
  <text x="260" y="192" font-size="9" fill="#374151">• Prediktiv beregning</text>
  <text x="260" y="204" font-size="9" fill="#374151">• Auto-justering</text>
  

  <rect x="420" y="145" width="150" height="60" fill="#a5b4fc" stroke="#7c3aed" stroke-width="1" rx="5"/>
  <text x="495" y="165" text-anchor="middle" font-size="11" font-weight="bold" fill="#581c87">FASE 3: 2031-2035</text>
  <text x="430" y="180" font-size="9" fill="#374151">• Quantum computing</text>
  <text x="430" y="192" font-size="9" fill="#374151">• Blockchain-sikring</text>
  <text x="430" y="204" font-size="9" fill="#374151">• Zero-touch admin</text>
  

  <rect x="590" y="145" width="130" height="60" fill="#8b5cf6" stroke="#7c3aed" stroke-width="1" rx="5"/>
  <text x="655" y="165" text-anchor="middle" font-size="11" font-weight="bold" fill="white">VISJON: 2035+</text>
  <text x="600" y="180" font-size="9" fill="white">• Fullt autonomt</text>
  <text x="600" y="192" font-size="9" fill="white">• Null etterskudd</text>
  <text x="600" y="204" font-size="9" fill="white">• Prediktiv økonomi</text>
  

  <rect x="50" y="240" width="340" height="200" fill="#fef2f2" stroke="#dc2626" stroke-width="2" rx="10"/>
  <rect x="60" y="250" width="320" height="30" fill="#dc2626" rx="5"/>
  <text x="220" y="270" text-anchor="middle" fill="white" font-size="14" font-weight="bold">DAGENS SYSTEM</text>
  
  <text x="70" y="295" font-size="11" font-weight="bold" fill="#7f1d1d">Begrensninger:</text>
  <text x="70" y="315" font-size="10" fill="#374151">• Månedlig beregning</text>
  <text x="70" y="330" font-size="10" fill="#374151">• Faste tabeller</text>
  <text x="70" y="345" font-size="10" fill="#374151">• Reaktiv justering</text>
  <text x="70" y="360" font-size="10" fill="#374151">• Manuell administrasjon</text>
  
  <text x="70" y="380" font-size="11" font-weight="bold" fill="#7f1d1d">Resultater:</text>
  <text x="70" y="395" font-size="10" fill="#dc2626">• 30% får etterskuddsskatt</text>
  <text x="70" y="410" font-size="10" fill="#dc2626">• Gjennomsnitt ±Kr 15.000 avvik</text>
  <text x="70" y="425" font-size="10" fill="#dc2626">• Høye administrasjonskostnader</text>
  
  <rect x="410" y="240" width="340" height="200" fill="#f0fdf4" stroke="#16a34a" stroke-width="2" rx="10"/>
  <rect x="420" y="250" width="320" height="30" fill="#16a34a" rx="5"/>
  <text x="580" y="270" text-anchor="middle" fill="white" font-size="14" font-weight="bold">FREMTIDENS SYSTEM</text>
  
  <text x="430" y="295" font-size="11" font-weight="bold" fill="#14532d">Muligheter:</text>
  <text x="430" y="315" font-size="10" fill="#374151">• Sanntids-beregning</text>
  <text x="430" y="330" font-size="10" fill="#374151">• Dynamiske algoritmer</text>
  <text x="430" y="345" font-size="10" fill="#374151">• Proaktiv optimalisering</text>
  <text x="430" y="360" font-size="10" fill="#374151">• Full automatisering</text>
  
  <text x="430" y="380" font-size="11" font-weight="bold" fill="#14532d">Resultater:</text>
  <text x="430" y="395" font-size="10" fill="#16a34a">• &lt;5% får etterskuddsskatt</text>
  <text x="430" y="410" font-size="10" fill="#16a34a">• Gjennomsnitt ±Kr 500 avvik</text>
  <text x="430" y="425" font-size="10" fill="#16a34a">• 90% lavere driftskostnader</text>
  

  <rect x="50" y="460" width="700" height="120" fill="#f8fafc" stroke="#64748b" stroke-width="2" rx="10"/>
  <text x="400" y="485" text-anchor="middle" font-size="16" font-weight="bold" fill="#334155">TEKNOLOGISKE DRIVERE</text>
  

  <rect x="80" y="500" width="130" height="60" fill="#fef3c7" stroke="#f59e0b" stroke-width="1" rx="5"/>
  <text x="145" y="520" text-anchor="middle" font-size="11" font-weight="bold" fill="#92400e">AI/ML</text>
  <text x="90" y="535" font-size="9" fill="#374151">• Deep learning</text>
  <text x="90" y="547" font-size="9" fill="#374151">• Prediktiv analyse</text>
  <text x="90" y="559" font-size="9" fill="#f59e0b" font-weight="bold">• Kontinuerlig læring</text>
  

  <rect x="230" y="500" width="130" height="60" fill="#ecfdf5" stroke="#16a34a" stroke-width="1" rx="5"/>
  <text x="295" y="520" text-anchor="middle" font-size="11" font-weight="bold" fill="#166534">BLOCKCHAIN</text>
  <text x="240" y="535" font-size="9" fill="#374151">• Transparent logging</text>
  <text x="240" y="547" font-size="9" fill="#374151">• Smart contracts</text>
  <text x="240" y="559" font-size="9" fill="#16a34a" font-weight="bold">• Automatisk compliance</text>
  

  <rect x="380" y="500" width="130" height="60" fill="#f0f9ff" stroke="#0284c7" stroke-width="1" rx="5"/>
  <text x="445" y="520" text-anchor="middle" font-size="11" font-weight="bold" fill="#0c4a6e">QUANTUM</text>
  <text x="390" y="535" font-size="9" fill="#374151">• Komplekse beregninger</text>
  <text x="390" y="547" font-size="9" fill="#374151">• Kryptografi</text>
  <text x="390" y="559" font-size="9" fill="#0284c7" font-weight="bold">• Sanntids-optimering</text>
  

  <rect x="530" y="500" width="130" height="60" fill="#fef7ff" stroke="#a855f7" stroke-width="1" rx="5"/>
  <text x="595" y="520" text-anchor="middle" font-size="11" font-weight="bold" fill="#7c3aed">IoT/5G</text>
  <text x="540" y="535" font-size="9" fill="#374151">• Sanntids-data</text>
  <text x="540" y="547" font-size="9" fill="#374151">• Seamless integration</text>
  <text x="540" y="559" font-size="9" fill="#a855f7" font-weight="bold">• Edge computing</text>
  

  <rect x="50" y="590" width="700" height="30" fill="#dbeafe" stroke="#3b82f6" stroke-width="1" rx="5"/>
  <text x="70" y="605" font-size="11" font-weight="bold" fill="#1e40af">2035 Målsetting:</text>
  <text x="180" y="605" font-size="10" fill="#374151">100% automatisering • 99.9% nøyaktighet • Kr 0 etterskudd • 24/7 optimalisering</text>
</svg>