<svg xmlns="http://www.w3.org/2000/svg" viewBox="0 0 800 600"><defs><linearGradient id="a" x1="0%" x2="100%" y1="0%" y2="0%"><stop offset="0%" style="stop-color:#0f766e;stop-opacity:1"/><stop offset="100%" style="stop-color:#14b8a6;stop-opacity:1"/></linearGradient></defs><path fill="#f8fafc" d="M0 0h800v600H0z"/><path fill="url(#a)" d="M0 0h800v80H0z"/><text x="400" y="50" fill="#fff" font-size="24" font-weight="bold" text-anchor="middle">A-ORDNINGEN OG TABELLTREKK INTEGRERING</text><rect width="700" height="320" x="50" y="100" fill="#f0fdfa" stroke="#14b8a6" stroke-width="2" rx="10"/><text x="400" y="125" fill="#134e4a" font-size="16" font-weight="bold" text-anchor="middle">DATAFLYT A-ORDNINGEN</text><rect width="150" height="80" x="80" y="150" fill="#e6fffa" stroke="#14b8a6" stroke-width="2" rx="8"/><text x="155" y="175" fill="#134e4a" font-size="12" font-weight="bold" text-anchor="middle">LØNNSSYSTEM</text><text x="155" y="195" fill="#047857" font-size="10" text-anchor="middle">• Tabelltrekk beregning</text><text x="155" y="210" fill="#047857" font-size="10" text-anchor="middle">• Arbeidsgiveravgift</text><text x="155" y="225" fill="#047857" font-size="10" text-anchor="middle">• A-melding generering</text><rect width="150" height="80" x="280" y="150" fill="#ccfbf1" stroke="#14b8a6" stroke-width="2" rx="8"/><text x="355" y="175" fill="#134e4a" font-size="12" font-weight="bold" text-anchor="middle">A-MELDING</text><text x="355" y="195" fill="#047857" font-size="10" text-anchor="middle">• XML-format</text><text x="355" y="210" fill="#047857" font-size="10" text-anchor="middle">• Månedlig rapportering</text><text x="355" y="225" fill="#047857" font-size="10" text-anchor="middle">• Validering og kontroll</text><rect width="150" height="80" x="480" y="150" fill="#99f6e4" stroke="#14b8a6" stroke-width="2" rx="8"/><text x="555" y="175" fill="#134e4a" font-size="12" font-weight="bold" text-anchor="middle">ALTINN PORTAL</text><text x="555" y="195" fill="#047857" font-size="10" text-anchor="middle">• Mottak og validering</text><text x="555" y="210" fill="#047857" font-size="10" text-anchor="middle">• Kvitteringer</text><text x="555" y="225" fill="#047857" font-size="10" text-anchor="middle">• Feilmeldinger</text><path fill="#14b8a6" d="M235 190h35l-5-5 5 5-5 5zM435 190h35l-5-5 5 5-5 5z"/><rect width="550" height="140" x="80" y="260" fill="#fff" stroke="#a7f3d0" rx="5"/><text x="355" y="280" fill="#134e4a" font-size="14" font-weight="bold" text-anchor="middle">A-MELDING INNHOLD</text><rect width="160" height="90" x="100" y="295" fill="#f0fdf4" stroke="#16a34a" rx="5"/><text x="180" y="315" fill="#166534" font-size="11" font-weight="bold" text-anchor="middle">ARBEIDSTAKER</text><text x="110" y="330" fill="#374151" font-size="9">• Personnummer</text><text x="110" y="345" fill="#374151" font-size="9">• Periode (måned/år)</text><text x="110" y="360" fill="#374151" font-size="9">• Arbeidsforhold-ID</text><text x="110" y="375" fill="#374151" font-size="9">• Stillingsandel</text><rect width="160" height="90" x="280" y="295" fill="#fef3c7" stroke="#f59e0b" rx="5"/><text x="360" y="315" fill="#92400e" font-size="11" font-weight="bold" text-anchor="middle">INNTEKTSDATA</text><text x="290" y="330" fill="#374151" font-size="9">• Bruttolønn</text><text x="290" y="345" fill="#374151" font-size="9">• Naturalytelser</text><text x="290" y="360" fill="#374151" font-size="9">• Feriepenger</text><text x="290" y="375" fill="#374151" font-size="9">• Trekkgrunnlag</text><rect width="160" height="90" x="460" y="295" fill="#fef2f2" stroke="#dc2626" rx="5"/><text x="540" y="315" fill="#7f1d1d" font-size="11" font-weight="bold" text-anchor="middle">TREKKDATA</text><text x="470" y="330" fill="#374151" font-size="9">• Skattetrekk</text><text x="470" y="345" fill="#374151" font-size="9">• Trygdeavgift</text><text x="470" y="360" fill="#374151" font-size="9">• Arbeidsgiveravgift</text><text x="470" y="375" fill="#374151" font-size="9">• Pensjonspremie</text><rect width="340" height="140" x="50" y="440" fill="#f8fafc" stroke="#64748b" stroke-width="2" rx="10"/><text x="220" y="465" fill="#334155" font-size="14" font-weight="bold" text-anchor="middle">API INTEGRASJON</text><rect width="300" height="80" x="70" y="480" fill="#1f2937" rx="5"/><text x="80" y="495" fill="#10b981" font-family="monospace" font-size="9">POST /api/amelding</text><text x="80" y="510" fill="#e5e7eb" font-family="monospace" font-size="9">{</text><text x="80" y="525" fill="#e5e7eb" font-family="monospace" font-size="9">  &quot;organisasjonsnummer&quot;: &quot;123456789&quot;,</text><text x="80" y="540" fill="#e5e7eb" font-family="monospace" font-size="9">  &quot;periode&quot;: &quot;2024-03&quot;,</text><text x="80" y="555" fill="#e5e7eb" font-family="monospace" font-size="9">  &quot;skattetrekk&quot;: 16000</text><text x="80" y="570" fill="#e5e7eb" font-family="monospace" font-size="9">}</text><rect width="340" height="140" x="410" y="440" fill="#fffbeb" stroke="#f59e0b" stroke-width="2" rx="10"/><text x="580" y="465" fill="#92400e" font-size="14" font-weight="bold" text-anchor="middle">VALIDERING OG KONTROLL</text><text x="430" y="485" fill="#92400e" font-size="11" font-weight="bold">Automatiske kontroller:</text><text x="430" y="500" fill="#374151" font-size="10">✓ Organisasjonsnummer gyldig</text><text x="430" y="515" fill="#374151" font-size="10">✓ Personnummer validert</text><text x="430" y="530" fill="#374151" font-size="10">✓ Trekkbeløp innenfor grenser</text><text x="430" y="545" fill="#374151" font-size="10">✓ Konsistens med forrige periode</text><text x="430" y="565" fill="#dc2626" font-size="11" font-weight="bold">Ved feil:</text><text x="430" y="580" fill="#dc2626" font-size="10">→ Avvisning med feilkoder</text></svg>