<svg xmlns="http://www.w3.org/2000/svg" viewBox="0 0 800 600"><defs><linearGradient id="a" x1="0%" x2="100%" y1="0%" y2="0%"><stop offset="0%" style="stop-color:#1e40af;stop-opacity:1"/><stop offset="100%" style="stop-color:#60a5fa;stop-opacity:1"/></linearGradient><linearGradient id="b" x1="0%" x2="100%" y1="0%" y2="0%"><stop offset="0%" style="stop-color:#e0e7ff;stop-opacity:1"/><stop offset="100%" style="stop-color:#c7d2fe;stop-opacity:1"/></linearGradient></defs><path fill="#f8fafc" d="M0 0h800v600H0z"/><path fill="url(#a)" d="M0 0h800v80H0z"/><text x="400" y="50" fill="#fff" font-size="24" font-weight="bold" text-anchor="middle">FREMTIDENS TABELLTREKK-SYSTEM</text><rect width="700" height="120" x="50" y="100" fill="url(#b)" stroke="#3b82f6" stroke-width="2" rx="10"/><text x="400" y="125" fill="#1e40af" font-size="16" font-weight="bold" text-anchor="middle">UTVIKLINGSPLAN 2024-2035</text><rect width="150" height="60" x="80" y="145" fill="#dbeafe" stroke="#3b82f6" rx="5"/><text x="155" y="165" fill="#1e40af" font-size="11" font-weight="bold" text-anchor="middle">FASE 1: 2024-2026</text><text x="90" y="180" fill="#374151" font-size="9">• Digital trekkart</text><text x="90" y="192" fill="#374151" font-size="9">• API-integrasjon</text><text x="90" y="204" fill="#374151" font-size="9">• Real-time validering</text><rect width="150" height="60" x="250" y="145" fill="#c7d2fe" stroke="#6366f1" rx="5"/><text x="325" y="165" fill="#4338ca" font-size="11" font-weight="bold" text-anchor="middle">FASE 2: 2027-2030</text><text x="260" y="180" fill="#374151" font-size="9">• AI-optimalisering</text><text x="260" y="192" fill="#374151" font-size="9">• Prediktiv beregning</text><text x="260" y="204" fill="#374151" font-size="9">• Auto-justering</text><rect width="150" height="60" x="420" y="145" fill="#a5b4fc" stroke="#7c3aed" rx="5"/><text x="495" y="165" fill="#581c87" font-size="11" font-weight="bold" text-anchor="middle">FASE 3: 2031-2035</text><text x="430" y="180" fill="#374151" font-size="9">• Quantum computing</text><text x="430" y="192" fill="#374151" font-size="9">• Blockchain-sikring</text><text x="430" y="204" fill="#374151" font-size="9">• Zero-touch admin</text><rect width="130" height="60" x="590" y="145" fill="#8b5cf6" stroke="#7c3aed" rx="5"/><text x="655" y="165" fill="#fff" font-size="11" font-weight="bold" text-anchor="middle">VISJON: 2035+</text><text x="600" y="180" fill="#fff" font-size="9">• Fullt autonomt</text><text x="600" y="192" fill="#fff" font-size="9">• Null etterskudd</text><text x="600" y="204" fill="#fff" font-size="9">• Prediktiv økonomi</text><rect width="340" height="200" x="50" y="240" fill="#fef2f2" stroke="#dc2626" stroke-width="2" rx="10"/><rect width="320" height="30" x="60" y="250" fill="#dc2626" rx="5"/><text x="220" y="270" fill="#fff" font-size="14" font-weight="bold" text-anchor="middle">DAGENS SYSTEM</text><text x="70" y="295" fill="#7f1d1d" font-size="11" font-weight="bold">Begrensninger:</text><text x="70" y="315" fill="#374151" font-size="10">• Månedlig beregning</text><text x="70" y="330" fill="#374151" font-size="10">• Faste tabeller</text><text x="70" y="345" fill="#374151" font-size="10">• Reaktiv justering</text><text x="70" y="360" fill="#374151" font-size="10">• Manuell administrasjon</text><text x="70" y="380" fill="#7f1d1d" font-size="11" font-weight="bold">Resultater:</text><text x="70" y="395" fill="#dc2626" font-size="10">• 30% får etterskuddsskatt</text><text x="70" y="410" fill="#dc2626" font-size="10">• Gjennomsnitt ±Kr 15.000 avvik</text><text x="70" y="425" fill="#dc2626" font-size="10">• Høye administrasjonskostnader</text><rect width="340" height="200" x="410" y="240" fill="#f0fdf4" stroke="#16a34a" stroke-width="2" rx="10"/><rect width="320" height="30" x="420" y="250" fill="#16a34a" rx="5"/><text x="580" y="270" fill="#fff" font-size="14" font-weight="bold" text-anchor="middle">FREMTIDENS SYSTEM</text><text x="430" y="295" fill="#14532d" font-size="11" font-weight="bold">Muligheter:</text><text x="430" y="315" fill="#374151" font-size="10">• Sanntids-beregning</text><text x="430" y="330" fill="#374151" font-size="10">• Dynamiske algoritmer</text><text x="430" y="345" fill="#374151" font-size="10">• Proaktiv optimalisering</text><text x="430" y="360" fill="#374151" font-size="10">• Full automatisering</text><text x="430" y="380" fill="#14532d" font-size="11" font-weight="bold">Resultater:</text><text x="430" y="395" fill="#16a34a" font-size="10">• &lt;5% får etterskuddsskatt</text><text x="430" y="410" fill="#16a34a" font-size="10">• Gjennomsnitt ±Kr 500 avvik</text><text x="430" y="425" fill="#16a34a" font-size="10">• 90% lavere driftskostnader</text><rect width="700" height="120" x="50" y="460" fill="#f8fafc" stroke="#64748b" stroke-width="2" rx="10"/><text x="400" y="485" fill="#334155" font-size="16" font-weight="bold" text-anchor="middle">TEKNOLOGISKE DRIVERE</text><rect width="130" height="60" x="80" y="500" fill="#fef3c7" stroke="#f59e0b" rx="5"/><text x="145" y="520" fill="#92400e" font-size="11" font-weight="bold" text-anchor="middle">AI/ML</text><text x="90" y="535" fill="#374151" font-size="9">• Deep learning</text><text x="90" y="547" fill="#374151" font-size="9">• Prediktiv analyse</text><text x="90" y="559" fill="#f59e0b" font-size="9" font-weight="bold">• Kontinuerlig læring</text><rect width="130" height="60" x="230" y="500" fill="#ecfdf5" stroke="#16a34a" rx="5"/><text x="295" y="520" fill="#166534" font-size="11" font-weight="bold" text-anchor="middle">BLOCKCHAIN</text><text x="240" y="535" fill="#374151" font-size="9">• Transparent logging</text><text x="240" y="547" fill="#374151" font-size="9">• Smart contracts</text><text x="240" y="559" fill="#16a34a" font-size="9" font-weight="bold">• Automatisk compliance</text><rect width="130" height="60" x="380" y="500" fill="#f0f9ff" stroke="#0284c7" rx="5"/><text x="445" y="520" fill="#0c4a6e" font-size="11" font-weight="bold" text-anchor="middle">QUANTUM</text><text x="390" y="535" fill="#374151" font-size="9">• Komplekse beregninger</text><text x="390" y="547" fill="#374151" font-size="9">• Kryptografi</text><text x="390" y="559" fill="#0284c7" font-size="9" font-weight="bold">• Sanntids-optimering</text><rect width="130" height="60" x="530" y="500" fill="#fef7ff" stroke="#a855f7" rx="5"/><text x="595" y="520" fill="#7c3aed" font-size="11" font-weight="bold" text-anchor="middle">IoT/5G</text><text x="540" y="535" fill="#374151" font-size="9">• Sanntids-data</text><text x="540" y="547" fill="#374151" font-size="9">• Seamless integration</text><text x="540" y="559" fill="#a855f7" font-size="9" font-weight="bold">• Edge computing</text><rect width="700" height="30" x="50" y="590" fill="#dbeafe" stroke="#3b82f6" rx="5"/><text x="70" y="605" fill="#1e40af" font-size="11" font-weight="bold">2035 Målsetting:</text><text x="180" y="605" fill="#374151" font-size="10">100% automatisering • 99.9% nøyaktighet • Kr 0 etterskudd • 24/7 optimalisering</text></svg>