<svg viewBox="0 0 800 600" xmlns="http://www.w3.org/2000/svg">
  <defs>
    <linearGradient id="headerGrad" x1="0%" y1="0%" x2="100%" y2="0%">
      <stop offset="0%" style="stop-color:#0f766e;stop-opacity:1" />
      <stop offset="100%" style="stop-color:#14b8a6;stop-opacity:1" />
    </linearGradient>
  </defs>
  

  <rect width="800" height="600" fill="#f8fafc"/>
  

  <rect x="0" y="0" width="800" height="80" fill="url(#headerGrad)"/>
  <text x="400" y="50" text-anchor="middle" fill="white" font-size="24" font-weight="bold">A-ORDNINGEN OG TABELLTREKK INTEGRERING</text>
  

  <rect x="50" y="100" width="700" height="320" fill="#f0fdfa" stroke="#14b8a6" stroke-width="2" rx="10"/>
  <text x="400" y="125" text-anchor="middle" font-size="16" font-weight="bold" fill="#134e4a">DATAFLYT A-ORDNINGEN</text>
  

  <rect x="80" y="150" width="150" height="80" fill="#e6fffa" stroke="#14b8a6" stroke-width="2" rx="8"/>
  <text x="155" y="175" text-anchor="middle" font-size="12" font-weight="bold" fill="#134e4a">LØNNSSYSTEM</text>
  <text x="155" y="195" text-anchor="middle" font-size="10" fill="#047857">• Tabelltrekk beregning</text>
  <text x="155" y="210" text-anchor="middle" font-size="10" fill="#047857">• Arbeidsgiveravgift</text>
  <text x="155" y="225" text-anchor="middle" font-size="10" fill="#047857">• A-melding generering</text>
  

  <rect x="280" y="150" width="150" height="80" fill="#ccfbf1" stroke="#14b8a6" stroke-width="2" rx="8"/>
  <text x="355" y="175" text-anchor="middle" font-size="12" font-weight="bold" fill="#134e4a">A-MELDING</text>
  <text x="355" y="195" text-anchor="middle" font-size="10" fill="#047857">• XML-format</text>
  <text x="355" y="210" text-anchor="middle" font-size="10" fill="#047857">• Månedlig rapportering</text>
  <text x="355" y="225" text-anchor="middle" font-size="10" fill="#047857">• Validering og kontroll</text>
  

  <rect x="480" y="150" width="150" height="80" fill="#99f6e4" stroke="#14b8a6" stroke-width="2" rx="8"/>
  <text x="555" y="175" text-anchor="middle" font-size="12" font-weight="bold" fill="#134e4a">ALTINN PORTAL</text>
  <text x="555" y="195" text-anchor="middle" font-size="10" fill="#047857">• Mottak og validering</text>
  <text x="555" y="210" text-anchor="middle" font-size="10" fill="#047857">• Kvitteringer</text>
  <text x="555" y="225" text-anchor="middle" font-size="10" fill="#047857">• Feilmeldinger</text>
  

  <polygon points="235,190 270,190 265,185 270,190 265,195" fill="#14b8a6"/>
  <polygon points="435,190 470,190 465,185 470,190 465,195" fill="#14b8a6"/>
  

  <rect x="80" y="260" width="550" height="140" fill="white" stroke="#a7f3d0" stroke-width="1" rx="5"/>
  <text x="355" y="280" text-anchor="middle" font-size="14" font-weight="bold" fill="#134e4a">A-MELDING INNHOLD</text>
  

  <rect x="100" y="295" width="160" height="90" fill="#f0fdf4" stroke="#16a34a" stroke-width="1" rx="5"/>
  <text x="180" y="315" text-anchor="middle" font-size="11" font-weight="bold" fill="#166534">ARBEIDSTAKER</text>
  <text x="110" y="330" font-size="9" fill="#374151">• Personnummer</text>
  <text x="110" y="345" font-size="9" fill="#374151">• Periode (måned/år)</text>
  <text x="110" y="360" font-size="9" fill="#374151">• Arbeidsforhold-ID</text>
  <text x="110" y="375" font-size="9" fill="#374151">• Stillingsandel</text>
  

  <rect x="280" y="295" width="160" height="90" fill="#fef3c7" stroke="#f59e0b" stroke-width="1" rx="5"/>
  <text x="360" y="315" text-anchor="middle" font-size="11" font-weight="bold" fill="#92400e">INNTEKTSDATA</text>
  <text x="290" y="330" font-size="9" fill="#374151">• Bruttolønn</text>
  <text x="290" y="345" font-size="9" fill="#374151">• Naturalytelser</text>
  <text x="290" y="360" font-size="9" fill="#374151">• Feriepenger</text>
  <text x="290" y="375" font-size="9" fill="#374151">• Trekkgrunnlag</text>
  

  <rect x="460" y="295" width="160" height="90" fill="#fef2f2" stroke="#dc2626" stroke-width="1" rx="5"/>
  <text x="540" y="315" text-anchor="middle" font-size="11" font-weight="bold" fill="#7f1d1d">TREKKDATA</text>
  <text x="470" y="330" font-size="9" fill="#374151">• Skattetrekk</text>
  <text x="470" y="345" font-size="9" fill="#374151">• Trygdeavgift</text>
  <text x="470" y="360" font-size="9" fill="#374151">• Arbeidsgiveravgift</text>
  <text x="470" y="375" font-size="9" fill="#374151">• Pensjonspremie</text>
  

  <rect x="50" y="440" width="340" height="140" fill="#f8fafc" stroke="#64748b" stroke-width="2" rx="10"/>
  <text x="220" y="465" text-anchor="middle" font-size="14" font-weight="bold" fill="#334155">API INTEGRASJON</text>
  
  <rect x="70" y="480" width="300" height="80" fill="#1f2937" rx="5"/>
  <text x="80" y="495" font-size="9" fill="#10b981" font-family="monospace">POST /api/amelding</text>
  <text x="80" y="510" font-size="9" fill="#e5e7eb" font-family="monospace">{</text>
  <text x="80" y="525" font-size="9" fill="#e5e7eb" font-family="monospace">  "organisasjonsnummer": "123456789",</text>
  <text x="80" y="540" font-size="9" fill="#e5e7eb" font-family="monospace">  "periode": "2024-03",</text>
  <text x="80" y="555" font-size="9" fill="#e5e7eb" font-family="monospace">  "skattetrekk": 16000</text>
  <text x="80" y="570" font-size="9" fill="#e5e7eb" font-family="monospace">}</text>
  

  <rect x="410" y="440" width="340" height="140" fill="#fffbeb" stroke="#f59e0b" stroke-width="2" rx="10"/>
  <text x="580" y="465" text-anchor="middle" font-size="14" font-weight="bold" fill="#92400e">VALIDERING OG KONTROLL</text>
  
  <text x="430" y="485" font-size="11" font-weight="bold" fill="#92400e">Automatiske kontroller:</text>
  <text x="430" y="500" font-size="10" fill="#374151">✓ Organisasjonsnummer gyldig</text>
  <text x="430" y="515" font-size="10" fill="#374151">✓ Personnummer validert</text>
  <text x="430" y="530" font-size="10" fill="#374151">✓ Trekkbeløp innenfor grenser</text>
  <text x="430" y="545" font-size="10" fill="#374151">✓ Konsistens med forrige periode</text>
  
  <text x="430" y="565" font-size="11" font-weight="bold" fill="#dc2626">Ved feil:</text>
  <text x="430" y="580" font-size="10" fill="#dc2626">→ Avvisning med feilkoder</text>
</svg>