<svg xmlns="http://www.w3.org/2000/svg" width="800" height="600"><defs><linearGradient id="a" x1="0%" x2="100%" y1="0%" y2="100%"><stop offset="0%" style="stop-color:#fafafa;stop-opacity:1"/><stop offset="100%" style="stop-color:#e8f5e8;stop-opacity:1"/></linearGradient><linearGradient id="b" x1="0%" x2="100%" y1="0%" y2="0%"><stop offset="0%" style="stop-color:#1b5e20;stop-opacity:1"/><stop offset="100%" style="stop-color:#4caf50;stop-opacity:1"/></linearGradient><linearGradient id="c" x1="0%" x2="100%" y1="0%" y2="0%"><stop offset="0%" style="stop-color:#e65100;stop-opacity:1"/><stop offset="100%" style="stop-color:#ff9800;stop-opacity:1"/></linearGradient><linearGradient id="d" x1="0%" x2="100%" y1="0%" y2="0%"><stop offset="0%" style="stop-color:#1565c0;stop-opacity:1"/><stop offset="100%" style="stop-color:#2196f3;stop-opacity:1"/></linearGradient><linearGradient id="e" x1="0%" x2="100%" y1="0%" y2="0%"><stop offset="0%" style="stop-color:#7b1fa2;stop-opacity:1"/><stop offset="100%" style="stop-color:#9c27b0;stop-opacity:1"/></linearGradient></defs><path fill="url(#a)" d="M0 0h800v600H0z"/><text x="400" y="30" fill="#2e7d32" font-family="Arial, sans-serif" font-size="24" font-weight="bold" text-anchor="middle">
    Implementeringsprosess for EU-taksonomi
  </text><g transform="translate(100 80)"><rect width="250" height="120" fill="url(#b)" rx="15"/><text x="125" y="25" fill="#fff" font-family="Arial, sans-serif" font-size="18" font-weight="bold" text-anchor="middle">
      1. Kartlegging av Aktiviteter
    </text><rect width="40" height="30" x="20" y="40" fill="#c8e6c9" rx="5"/><path fill="#1b5e20" d="M25 45h30v3H25zM25 52h25v3H25zM25 59h20v3H25z"/><circle cx="22" cy="46" r="2" fill="#4caf50"/><circle cx="22" cy="53" r="2" fill="#4caf50"/><circle cx="22" cy="60" r="2" fill="#4caf50"/><text x="80" y="50" fill="#fff" font-family="Arial, sans-serif" font-size="11">
      • Identifiser alle økonomiske aktiviteter
    </text><text x="80" y="65" fill="#fff" font-family="Arial, sans-serif" font-size="11">
      • Sammenlign med taksonomilisten
    </text><text x="80" y="80" fill="#fff" font-family="Arial, sans-serif" font-size="11">
      • Vurder direkte og indirekte påvirkning
    </text><text x="80" y="95" fill="#fff" font-family="Arial, sans-serif" font-size="11">
      • Dokumenter prosessen
    </text></g><g fill="#2e7d32"><path d="m380 140 30-5v10z"/><path stroke="#2e7d32" stroke-width="3" d="M350 140h30"/></g><g transform="translate(450 80)"><rect width="250" height="120" fill="url(#c)" rx="15"/><text x="125" y="25" fill="#fff" font-family="Arial, sans-serif" font-size="18" font-weight="bold" text-anchor="middle">
      2. Vurdering av Tilpasning
    </text><path fill="#ffe0b2" d="M20 45h40v5H20z"/><path fill="#ffe0b2" d="M38 40h4v15h-4z"/><circle cx="25" cy="42" r="8" fill="#ffe0b2"/><circle cx="55" cy="42" r="8" fill="#ffe0b2"/><text x="25" y="47" fill="#e65100" font-family="Arial, sans-serif" font-size="8" text-anchor="middle">
      ✓
    </text><text x="55" y="47" fill="#e65100" font-family="Arial, sans-serif" font-size="8" text-anchor="middle">
      ✗
    </text><text x="80" y="50" fill="#fff" font-family="Arial, sans-serif" font-size="11">
      • Evaluer tekniske kriterier
    </text><text x="80" y="65" fill="#fff" font-family="Arial, sans-serif" font-size="11">
      • Gjennomfør DNSH-vurdering
    </text><text x="80" y="80" fill="#fff" font-family="Arial, sans-serif" font-size="11">
      • Kontroller minimumssikring
    </text><text x="80" y="95" fill="#fff" font-family="Arial, sans-serif" font-size="11">
      • Klassifiser aktiviteter
    </text></g><g fill="#2e7d32"><path d="m380 280 30-5v10z"/><path stroke="#2e7d32" stroke-width="3" d="M350 280h30"/></g><g transform="translate(450 220)"><rect width="250" height="120" fill="url(#d)" rx="15"/><text x="125" y="25" fill="#fff" font-family="Arial, sans-serif" font-size="18" font-weight="bold" text-anchor="middle">
      3. Datainnsamling og Måling
    </text><rect width="35" height="25" x="20" y="40" fill="#bbdefb" rx="3"/><path fill="#1565c0" d="M22 42h31v3H22zM22 47h31v3H22zM22 52h31v3H22zM22 57h31v3H22z"/><text x="80" y="50" fill="#fff" font-family="Arial, sans-serif" font-size="11">
      • Samle finansielle data (omsetning, CapEx, OpEx)
    </text><text x="80" y="65" fill="#fff" font-family="Arial, sans-serif" font-size="11">
      • Registrer miljødata og bevis
    </text><text x="80" y="80" fill="#fff" font-family="Arial, sans-serif" font-size="11">
      • Etabler kvalitetssikringssystemer
    </text><text x="80" y="95" fill="#fff" font-family="Arial, sans-serif" font-size="11">
      • Sikre sporbarhet og dokumentasjon
    </text></g><g fill="#2e7d32"><path d="m380 420 30-5v10z"/><path stroke="#2e7d32" stroke-width="3" d="M350 420h30"/></g><g transform="translate(450 360)"><rect width="250" height="120" fill="url(#e)" rx="15"/><text x="125" y="25" fill="#fff" font-family="Arial, sans-serif" font-size="18" font-weight="bold" text-anchor="middle">
      4. Rapportering og Kommunikasjon
    </text><rect width="30" height="35" x="20" y="40" fill="#e1bee7" rx="3"/><path fill="#7b1fa2" d="M25 45h20v2H25zM25 50h15v2H25zM25 55h18v2H25zM25 60h12v2H25zM25 65h16v2H25z"/><text x="70" y="50" fill="#fff" font-family="Arial, sans-serif" font-size="11">
      • Beregn nøkkeltall og andeler
    </text><text x="70" y="65" fill="#fff" font-family="Arial, sans-serif" font-size="11">
      • Utarbeid kvalitativ informasjon
    </text><text x="70" y="80" fill="#fff" font-family="Arial, sans-serif" font-size="11">
      • Kommuniser til interessenter
    </text><text x="70" y="95" fill="#fff" font-family="Arial, sans-serif" font-size="11">
      • Planlegg fremtidige forbedringer
    </text></g><g fill="#2e7d32" opacity=".7"><path fill="none" stroke="#2e7d32" stroke-width="2" d="M100 420q-50-70 0-140"/><path d="m95 285 10-5v10z"/><text x="60" y="350" font-family="Arial, sans-serif" font-size="10" text-anchor="middle">
      Kontinuerlig
    </text><text x="60" y="365" font-family="Arial, sans-serif" font-size="10" text-anchor="middle">
      forbedring
    </text></g><rect width="700" height="80" x="50" y="500" fill="#fff" stroke="#4caf50" stroke-width="2" rx="10"/><text x="400" y="520" fill="#2e7d32" font-family="Arial, sans-serif" font-size="16" font-weight="bold" text-anchor="middle">
    Kritiske Suksessfaktorer
  </text><g transform="translate(80 530)"><circle r="4" fill="#4caf50"/><text x="15" y="5" fill="#2e7d32" font-family="Arial, sans-serif" font-size="12">
      Tverrfaglig team med kompetanse innen regnskap, bærekraft og jus
    </text></g><g transform="translate(80 550)"><circle r="4" fill="#4caf50"/><text x="15" y="5" fill="#2e7d32" font-family="Arial, sans-serif" font-size="12">
      Robuste data- og rapporteringssystemer som kan håndtere komplekse krav
    </text></g><g transform="translate(420 530)"><circle r="4" fill="#4caf50"/><text x="15" y="5" fill="#2e7d32" font-family="Arial, sans-serif" font-size="12">
      Tidlig oppstart og systematisk tilnærming til implementering
    </text></g><g transform="translate(420 550)"><circle r="4" fill="#4caf50"/><text x="15" y="5" fill="#2e7d32" font-family="Arial, sans-serif" font-size="12">
      Regelmessig oppdatering på regelverksendringer og beste praksis
    </text></g><g transform="translate(50 220)"><rect width="180" height="120" fill="#f1f8e9" stroke="#4caf50" stroke-width="2" rx="8"/><text x="90" y="20" fill="#2e7d32" font-family="Arial, sans-serif" font-size="12" font-weight="bold" text-anchor="middle">
      Vanlige Utfordringer
    </text><text x="10" y="40" fill="#2e7d32" font-family="Arial, sans-serif" font-size="10">
      • Komplekse tekniske kriterier
    </text><text x="10" y="55" fill="#2e7d32" font-family="Arial, sans-serif" font-size="10">
      • Mangel på historiske data
    </text><text x="10" y="70" fill="#2e7d32" font-family="Arial, sans-serif" font-size="10">
      • Tolkningsspørsmål
    </text><text x="10" y="85" fill="#2e7d32" font-family="Arial, sans-serif" font-size="10">
      • Ressurskrevende prosess
    </text><text x="10" y="100" fill="#2e7d32" font-family="Arial, sans-serif" font-size="10">
      • Endringer i regelverk
    </text></g><g transform="translate(50 360)"><rect width="180" height="120" fill="#e3f2fd" stroke="#2196f3" stroke-width="2" rx="8"/><text x="90" y="20" fill="#1565c0" font-family="Arial, sans-serif" font-size="12" font-weight="bold" text-anchor="middle">
      Beste Praksis
    </text><text x="10" y="40" fill="#1565c0" font-family="Arial, sans-serif" font-size="10">
      • Start med pilot-aktiviteter
    </text><text x="10" y="55" fill="#1565c0" font-family="Arial, sans-serif" font-size="10">
      • Involver alle relevante avdelinger
    </text><text x="10" y="70" fill="#1565c0" font-family="Arial, sans-serif" font-size="10">
      • Automatiser datainnsamling
    </text><text x="10" y="85" fill="#1565c0" font-family="Arial, sans-serif" font-size="10">
      • Søk ekstern rådgivning
    </text><text x="10" y="100" fill="#1565c0" font-family="Arial, sans-serif" font-size="10">
      • Lær av andre bedrifter
    </text></g></svg>