<svg xmlns="http://www.w3.org/2000/svg" width="800" height="400"><defs><linearGradient id="a" x1="0%" x2="100%" y1="0%" y2="100%"><stop offset="0%" style="stop-color:#e8f5e8;stop-opacity:1"/><stop offset="100%" style="stop-color:#d4f1d4;stop-opacity:1"/></linearGradient><linearGradient id="b" x1="0%" x2="100%" y1="0%" y2="0%"><stop offset="0%" style="stop-color:#2e7d32;stop-opacity:1"/><stop offset="100%" style="stop-color:#4caf50;stop-opacity:1"/></linearGradient></defs><path fill="url(#a)" d="M0 0h800v400H0z"/><path fill="url(#b)" d="M0 0h800v80H0z"/><text x="400" y="35" fill="#fff" font-family="Arial, sans-serif" font-size="28" font-weight="bold" text-anchor="middle">
    EU-taksonomien
  </text><text x="400" y="60" fill="#fff" font-family="Arial, sans-serif" font-size="16" text-anchor="middle">
    Klassifiseringssystem for Bærekraftige Aktiviteter
  </text><circle cx="120" cy="150" r="60" fill="#039" stroke="#fc0" stroke-width="3"/><g fill="#fc0"><circle cx="120" cy="120" r="4"/><circle cx="140" cy="125" r="4"/><circle cx="145" cy="145" r="4"/><circle cx="140" cy="165" r="4"/><circle cx="120" cy="170" r="4"/><circle cx="100" cy="165" r="4"/><circle cx="95" cy="145" r="4"/><circle cx="100" cy="125" r="4"/><circle cx="110" cy="110" r="4"/><circle cx="130" cy="110" r="4"/><circle cx="150" cy="130" r="4"/><circle cx="150" cy="160" r="4"/></g><g fill="none" stroke="#2e7d32" stroke-width="2"><path d="M250 120h100M350 120v-20M350 120v20M350 120v40M350 100h100M350 140h100M350 160h100"/></g><rect width="120" height="30" x="450" y="85" fill="#4caf50" rx="5"/><text x="510" y="105" fill="#fff" font-family="Arial, sans-serif" font-size="12" font-weight="bold" text-anchor="middle">
    Klimamål
  </text><rect width="120" height="30" x="450" y="125" fill="#66bb6a" rx="5"/><text x="510" y="145" fill="#fff" font-family="Arial, sans-serif" font-size="12" font-weight="bold" text-anchor="middle">
    Miljømål
  </text><rect width="120" height="30" x="450" y="165" fill="#81c784" rx="5"/><text x="510" y="185" fill="#fff" font-family="Arial, sans-serif" font-size="12" font-weight="bold" text-anchor="middle">
    Sosiale mål
  </text><g transform="translate(250 250)"><circle r="40" fill="#e8f5e8" stroke="#2e7d32" stroke-width="2"/><text y="-10" fill="#2e7d32" font-family="Arial, sans-serif" font-size="12" font-weight="bold" text-anchor="middle">
      Vesentlig
    </text><text y="5" fill="#2e7d32" font-family="Arial, sans-serif" font-size="12" font-weight="bold" text-anchor="middle">
      Bidrag
    </text></g><g transform="translate(400 250)"><circle r="40" fill="#e8f5e8" stroke="#2e7d32" stroke-width="2"/><text y="-10" fill="#2e7d32" font-family="Arial, sans-serif" font-size="12" font-weight="bold" text-anchor="middle">
      Ikke
    </text><text y="5" fill="#2e7d32" font-family="Arial, sans-serif" font-size="12" font-weight="bold" text-anchor="middle">
      Skade
    </text></g><g transform="translate(550 250)"><circle r="40" fill="#e8f5e8" stroke="#2e7d32" stroke-width="2"/><text y="-10" fill="#2e7d32" font-family="Arial, sans-serif" font-size="12" font-weight="bold" text-anchor="middle">
      Minimum
    </text><text y="5" fill="#2e7d32" font-family="Arial, sans-serif" font-size="12" font-weight="bold" text-anchor="middle">
      Sikring
    </text></g><g fill="#2e7d32"><path d="m320 250 20-5v10zM470 250l20-5v10z"/></g><text x="400" y="350" fill="#2e7d32" font-family="Arial, sans-serif" font-size="14" text-anchor="middle">
    Tre kriterier for taksonomitilpassede aktiviteter
  </text></svg>