<svg xmlns="http://www.w3.org/2000/svg" width="800" height="500"><defs><linearGradient id="a" x1="0%" x2="100%" y1="0%" y2="100%"><stop offset="0%" style="stop-color:#f8f9fa;stop-opacity:1"/><stop offset="100%" style="stop-color:#e9ecef;stop-opacity:1"/></linearGradient><linearGradient id="b" x1="0%" x2="100%" y1="0%" y2="0%"><stop offset="0%" style="stop-color:#17a2b8;stop-opacity:1"/><stop offset="100%" style="stop-color:#138496;stop-opacity:1"/></linearGradient></defs><path fill="url(#a)" stroke="#dee2e6" stroke-width="2" d="M0 0h800v500H0z"/><path fill="url(#b)" d="M0 0h800v50H0z"/><text x="400" y="30" fill="#fff" font-family="Arial, sans-serif" font-size="20" font-weight="bold" text-anchor="middle">
    Budsjettplanlegging for Lønnskostnader
  </text><g transform="translate(50 70)"><text x="350" y="30" fill="#495057" font-family="Arial, sans-serif" font-size="16" font-weight="bold" text-anchor="middle">
      Budsjettsammenligning: 2024 vs 2025
    </text><rect width="60" height="200" x="100" y="60" fill="#28a745" stroke="#1e7e34" stroke-width="2" rx="3"/><text x="130" y="50" fill="#495057" font-family="Arial, sans-serif" font-size="12" font-weight="bold" text-anchor="middle">
      2024
    </text><text x="130" y="280" fill="#495057" font-family="Arial, sans-serif" font-size="11" text-anchor="middle">
      7.2M kr
    </text><rect width="60" height="220" x="200" y="50" fill="#dc3545" stroke="#c82333" stroke-width="2" rx="3"/><text x="230" y="40" fill="#495057" font-family="Arial, sans-serif" font-size="12" font-weight="bold" text-anchor="middle">
      2025
    </text><text x="230" y="285" fill="#495057" font-family="Arial, sans-serif" font-size="11" text-anchor="middle">
      7.7M kr
    </text><path fill="#dc3545" d="m280 150 20-10v5h20v10h-20v5z"/><text x="340" y="155" fill="#dc3545" font-family="Arial, sans-serif" font-size="12" font-weight="bold">
      +6.9% økning
    </text><rect width="280" height="200" x="450" y="60" fill="#f8f9fa" stroke="#dee2e6" rx="5"/><text x="590" y="85" fill="#495057" font-family="Arial, sans-serif" font-size="14" font-weight="bold" text-anchor="middle">
      Budsjettfaktorer 2025
    </text><text x="470" y="110" fill="#495057" font-family="Arial, sans-serif" font-size="12">
      • Lønnsøkning: 3.5% (tariffoppgjør)
    </text><text x="470" y="130" fill="#495057" font-family="Arial, sans-serif" font-size="12">
      • Nye ansettelser: 2 personer
    </text><text x="470" y="150" fill="#495057" font-family="Arial, sans-serif" font-size="12">
      • Økt arbeidsgiveravgift: 0.2%
    </text><text x="470" y="170" fill="#495057" font-family="Arial, sans-serif" font-size="12">
      • Pensjonskostnad økning: 0.5%
    </text><text x="470" y="190" fill="#495057" font-family="Arial, sans-serif" font-size="12">
      • Kompetanseutvikling: +50.000 kr
    </text><text x="470" y="210" fill="#495057" font-family="Arial, sans-serif" font-size="12">
      • Rekrutteringskostnader: +30.000 kr
    </text><text x="470" y="230" fill="#495057" font-family="Arial, sans-serif" font-size="12">
      • Inflasjonsjustering: 2.1%
    </text><text x="350" y="330" fill="#495057" font-family="Arial, sans-serif" font-size="14" font-weight="bold" text-anchor="middle">
      Månedlig Lønnskostnad 2025 (tusen kr)
    </text><g transform="translate(50 350)"><rect width="25" height="60" x="20" fill="#06c" rx="2"/><text x="32" y="75" fill="#495057" font-family="Arial, sans-serif" font-size="10" text-anchor="middle">Jan</text><text x="32" y="87" fill="#495057" font-family="Arial, sans-serif" font-size="9" text-anchor="middle">640</text><rect width="25" height="55" x="60" y="5" fill="#06c" rx="2"/><text x="72" y="75" fill="#495057" font-family="Arial, sans-serif" font-size="10" text-anchor="middle">Feb</text><text x="72" y="87" fill="#495057" font-family="Arial, sans-serif" font-size="9" text-anchor="middle">620</text><rect width="25" height="60" x="100" fill="#06c" rx="2"/><text x="112" y="75" fill="#495057" font-family="Arial, sans-serif" font-size="10" text-anchor="middle">Mar</text><text x="112" y="87" fill="#495057" font-family="Arial, sans-serif" font-size="9" text-anchor="middle">640</text><rect width="25" height="60" x="140" fill="#06c" rx="2"/><text x="152" y="75" fill="#495057" font-family="Arial, sans-serif" font-size="10" text-anchor="middle">Apr</text><text x="152" y="87" fill="#495057" font-family="Arial, sans-serif" font-size="9" text-anchor="middle">640</text><rect width="25" height="50" x="180" y="10" fill="#06c" rx="2"/><text x="192" y="75" fill="#495057" font-family="Arial, sans-serif" font-size="10" text-anchor="middle">Mai</text><text x="192" y="87" fill="#495057" font-family="Arial, sans-serif" font-size="9" text-anchor="middle">600</text><rect width="25" height="70" x="220" y="-10" fill="#28a745" rx="2"/><text x="232" y="75" fill="#495057" font-family="Arial, sans-serif" font-size="10" text-anchor="middle">Jun</text><text x="232" y="87" fill="#495057" font-family="Arial, sans-serif" font-size="9" text-anchor="middle">680</text><rect width="25" height="75" x="260" y="-15" fill="#ffc107" rx="2"/><text x="272" y="75" fill="#495057" font-family="Arial, sans-serif" font-size="10" text-anchor="middle">Jul</text><text x="272" y="87" fill="#495057" font-family="Arial, sans-serif" font-size="9" text-anchor="middle">700</text><rect width="25" height="55" x="300" y="5" fill="#06c" rx="2"/><text x="312" y="75" fill="#495057" font-family="Arial, sans-serif" font-size="10" text-anchor="middle">Aug</text><text x="312" y="87" fill="#495057" font-family="Arial, sans-serif" font-size="9" text-anchor="middle">620</text><rect width="25" height="60" x="340" fill="#06c" rx="2"/><text x="352" y="75" fill="#495057" font-family="Arial, sans-serif" font-size="10" text-anchor="middle">Sep</text><text x="352" y="87" fill="#495057" font-family="Arial, sans-serif" font-size="9" text-anchor="middle">640</text><rect width="25" height="60" x="380" fill="#06c" rx="2"/><text x="392" y="75" fill="#495057" font-family="Arial, sans-serif" font-size="10" text-anchor="middle">Okt</text><text x="392" y="87" fill="#495057" font-family="Arial, sans-serif" font-size="9" text-anchor="middle">640</text><rect width="25" height="60" x="420" fill="#06c" rx="2"/><text x="432" y="75" fill="#495057" font-family="Arial, sans-serif" font-size="10" text-anchor="middle">Nov</text><text x="432" y="87" fill="#495057" font-family="Arial, sans-serif" font-size="9" text-anchor="middle">640</text><rect width="25" height="80" x="460" y="-20" fill="#dc3545" rx="2"/><text x="472" y="75" fill="#495057" font-family="Arial, sans-serif" font-size="10" text-anchor="middle">Des</text><text x="472" y="87" fill="#495057" font-family="Arial, sans-serif" font-size="9" text-anchor="middle">720</text><path fill="#06c" d="M520 10h15v15h-15z"/><text x="545" y="22" fill="#495057" font-family="Arial, sans-serif" font-size="11">Normal måned</text><path fill="#28a745" d="M520 30h15v15h-15z"/><text x="545" y="42" fill="#495057" font-family="Arial, sans-serif" font-size="11">Feriepenger</text><path fill="#ffc107" d="M520 50h15v15h-15z"/><text x="545" y="62" fill="#495057" font-family="Arial, sans-serif" font-size="11">Ferieperiode</text><path fill="#dc3545" d="M620 10h15v15h-15z"/><text x="645" y="22" fill="#495057" font-family="Arial, sans-serif" font-size="11">13. månedslønn</text></g></g></svg>