<svg xmlns="http://www.w3.org/2000/svg" width="800" height="400"><defs><linearGradient id="a" x1="0%" x2="100%" y1="0%" y2="100%"><stop offset="0%" style="stop-color:#f8f9fa;stop-opacity:1"/><stop offset="100%" style="stop-color:#e9ecef;stop-opacity:1"/></linearGradient><linearGradient id="b" x1="0%" x2="100%" y1="0%" y2="0%"><stop offset="0%" style="stop-color:#06c;stop-opacity:1"/><stop offset="100%" style="stop-color:#049;stop-opacity:1"/></linearGradient></defs><path fill="url(#a)" stroke="#dee2e6" stroke-width="2" d="M0 0h800v400H0z"/><path fill="url(#b)" d="M0 0h800v60H0z"/><text x="400" y="35" fill="#fff" font-family="Arial, sans-serif" font-size="24" font-weight="bold" text-anchor="middle">
    Lønnskostnad - Totale Kostnader for Arbeidsgiver
  </text><g transform="translate(50 80)"><circle cx="350" cy="160" r="80" fill="#06c" stroke="#049" stroke-width="3"/><text x="350" y="155" fill="#fff" font-family="Arial, sans-serif" font-size="14" font-weight="bold" text-anchor="middle">
      TOTAL
    </text><text x="350" y="175" fill="#fff" font-family="Arial, sans-serif" font-size="12" text-anchor="middle">
      LØNNSKOSTNAD
    </text><rect width="120" height="60" x="50" y="50" fill="#28a745" stroke="#1e7e34" stroke-width="2" rx="5"/><text x="110" y="75" fill="#fff" font-family="Arial, sans-serif" font-size="12" font-weight="bold" text-anchor="middle">
      Bruttolønn
    </text><text x="110" y="90" fill="#fff" font-family="Arial, sans-serif" font-size="10" text-anchor="middle">
      50.000 kr
    </text><rect width="120" height="60" x="530" y="50" fill="#dc3545" stroke="#c82333" stroke-width="2" rx="5"/><text x="590" y="70" fill="#fff" font-family="Arial, sans-serif" font-size="11" font-weight="bold" text-anchor="middle">
      Arbeidsgiver-
    </text><text x="590" y="82" fill="#fff" font-family="Arial, sans-serif" font-size="11" font-weight="bold" text-anchor="middle">
      avgift
    </text><text x="590" y="95" fill="#fff" font-family="Arial, sans-serif" font-size="10" text-anchor="middle">
      7.050 kr
    </text><rect width="120" height="60" x="50" y="250" fill="#ffc107" stroke="#e0a800" stroke-width="2" rx="5"/><text x="110" y="275" font-family="Arial, sans-serif" font-size="12" font-weight="bold" text-anchor="middle">
      Pensjon
    </text><text x="110" y="290" font-family="Arial, sans-serif" font-size="10" text-anchor="middle">
      1.000 kr
    </text><rect width="120" height="60" x="530" y="250" fill="#6f42c1" stroke="#5a32a3" stroke-width="2" rx="5"/><text x="590" y="275" fill="#fff" font-family="Arial, sans-serif" font-size="12" font-weight="bold" text-anchor="middle">
      Forsikringer
    </text><text x="590" y="290" fill="#fff" font-family="Arial, sans-serif" font-size="10" text-anchor="middle">
      300 kr
    </text><rect width="120" height="50" x="200" y="20" fill="#17a2b8" stroke="#138496" stroke-width="2" rx="5"/><text x="260" y="40" fill="#fff" font-family="Arial, sans-serif" font-size="11" font-weight="bold" text-anchor="middle">
      Feriepenger
    </text><text x="260" y="55" fill="#fff" font-family="Arial, sans-serif" font-size="10" text-anchor="middle">
      500 kr
    </text><rect width="120" height="50" x="380" y="20" fill="#6c757d" stroke="#5a6268" stroke-width="2" rx="5"/><text x="440" y="40" fill="#fff" font-family="Arial, sans-serif" font-size="11" font-weight="bold" text-anchor="middle">
      Andre kostnader
    </text><text x="440" y="55" fill="#fff" font-family="Arial, sans-serif" font-size="10" text-anchor="middle">
      200 kr
    </text><path stroke="#333" stroke-width="2" marker-end="url(#c)" d="m170 80 110 60"/><path stroke="#333" stroke-width="2" marker-end="url(#c)" d="m530 80-110 60"/><path stroke="#333" stroke-width="2" marker-end="url(#c)" d="m170 280 110-60"/><path stroke="#333" stroke-width="2" marker-end="url(#c)" d="m530 280-110-60"/><path stroke="#333" stroke-width="2" marker-end="url(#c)" d="m320 45 10 45"/><path stroke="#333" stroke-width="2" marker-end="url(#c)" d="m380 45-10 45"/></g><defs><marker id="c" markerHeight="7" markerWidth="10" orient="auto" refX="9" refY="3.5"><path fill="#333" d="m0 0 10 3.5L0 7z"/></marker></defs><rect width="300" height="40" x="250" y="350" fill="#06c" stroke="#049" stroke-width="2" rx="5"/><text x="400" y="375" fill="#fff" font-family="Arial, sans-serif" font-size="16" font-weight="bold" text-anchor="middle">
    Total månedlig lønnskostnad: 59.050 kr
  </text></svg>