<svg xmlns="http://www.w3.org/2000/svg" width="800" height="500"><defs><linearGradient id="a" x1="0%" x2="100%" y1="0%" y2="0%"><stop offset="0%" style="stop-color:#06c;stop-opacity:1"/><stop offset="100%" style="stop-color:#049;stop-opacity:1"/></linearGradient><filter id="b" width="140%" height="140%" x="-20%" y="-20%"><feDropShadow dx="2" dy="2" flood-color="#000" flood-opacity=".3" stdDeviation="3"/></filter></defs><path fill="#f8f9fa" stroke="#dee2e6" stroke-width="2" d="M0 0h800v500H0z"/><path fill="url(#a)" d="M0 0h800v60H0z"/><text x="400" y="40" fill="#fff" font-family="Arial, sans-serif" font-size="24" font-weight="bold" text-anchor="middle">
    Forskuddsbetaling Prosess
  </text><rect width="150" height="80" x="50" y="100" fill="#fff" stroke="#06c" stroke-width="2" filter="url(#b)" rx="10"/><text x="125" y="125" fill="#06c" font-family="Arial, sans-serif" font-size="14" font-weight="bold" text-anchor="middle">
    1. Avtale
  </text><text x="125" y="145" fill="#333" font-family="Arial, sans-serif" font-size="12" text-anchor="middle">
    Kontrakt med
  </text><text x="125" y="160" fill="#333" font-family="Arial, sans-serif" font-size="12" text-anchor="middle">
    forskuddsklausul
  </text><path fill="#666" stroke="#666" d="M210 140h40l-10-10 10 10-10 10z"/><rect width="150" height="80" x="270" y="100" fill="#fff" stroke="#28a745" stroke-width="2" filter="url(#b)" rx="10"/><text x="345" y="125" fill="#28a745" font-family="Arial, sans-serif" font-size="14" font-weight="bold" text-anchor="middle">
    2. Forskudd
  </text><text x="345" y="145" fill="#333" font-family="Arial, sans-serif" font-size="12" text-anchor="middle">
    Kjøper betaler
  </text><text x="345" y="160" fill="#333" font-family="Arial, sans-serif" font-size="12" text-anchor="middle">
    på forhånd
  </text><path fill="#666" stroke="#666" d="M430 140h40l-10-10 10 10-10 10z"/><rect width="150" height="80" x="490" y="100" fill="#fff" stroke="#ffc107" stroke-width="2" filter="url(#b)" rx="10"/><text x="565" y="125" fill="#ffc107" font-family="Arial, sans-serif" font-size="14" font-weight="bold" text-anchor="middle">
    3. Produksjon
  </text><text x="565" y="145" fill="#333" font-family="Arial, sans-serif" font-size="12" text-anchor="middle">
    Selger utfører
  </text><text x="565" y="160" fill="#333" font-family="Arial, sans-serif" font-size="12" text-anchor="middle">
    arbeid/produksjon
  </text><path fill="#666" stroke="#666" d="M565 190v40l-10-10 10 10 10-10z"/><rect width="150" height="80" x="490" y="250" fill="#fff" stroke="#dc3545" stroke-width="2" filter="url(#b)" rx="10"/><text x="565" y="275" fill="#dc3545" font-family="Arial, sans-serif" font-size="14" font-weight="bold" text-anchor="middle">
    4. Levering
  </text><text x="565" y="295" fill="#333" font-family="Arial, sans-serif" font-size="12" text-anchor="middle">
    Vare/tjeneste
  </text><text x="565" y="310" fill="#333" font-family="Arial, sans-serif" font-size="12" text-anchor="middle">
    leveres til kjøper
  </text><path fill="#666" stroke="#666" d="M480 290h-40l10-10-10 10 10 10z"/><rect width="150" height="80" x="270" y="250" fill="#fff" stroke="#6f42c1" stroke-width="2" filter="url(#b)" rx="10"/><text x="345" y="275" fill="#6f42c1" font-family="Arial, sans-serif" font-size="14" font-weight="bold" text-anchor="middle">
    5. Fullføring
  </text><text x="345" y="295" fill="#333" font-family="Arial, sans-serif" font-size="12" text-anchor="middle">
    Transaksjon
  </text><text x="345" y="310" fill="#333" font-family="Arial, sans-serif" font-size="12" text-anchor="middle">
    fullført
  </text><rect width="300" height="100" x="50" y="370" fill="#e8f4fd" stroke="#06c" rx="5"/><text x="200" y="395" fill="#06c" font-family="Arial, sans-serif" font-size="16" font-weight="bold" text-anchor="middle">
    Kjøper (Kunde)
  </text><text x="70" y="415" fill="#333" font-family="Arial, sans-serif" font-size="12">
    • Betaler forskudd før levering
  </text><text x="70" y="430" fill="#333" font-family="Arial, sans-serif" font-size="12">
    • Bærer leveringsrisiko
  </text><text x="70" y="445" fill="#333" font-family="Arial, sans-serif" font-size="12">
    • Kan få rabatt for forskuddsbetaling
  </text><text x="70" y="460" fill="#333" font-family="Arial, sans-serif" font-size="12">
    • Sikrer tilgang til vare/tjeneste
  </text><rect width="300" height="100" x="450" y="370" fill="#f8f9fa" stroke="#28a745" rx="5"/><text x="600" y="395" fill="#28a745" font-family="Arial, sans-serif" font-size="16" font-weight="bold" text-anchor="middle">
    Selger (Leverandør)
  </text><text x="470" y="415" fill="#333" font-family="Arial, sans-serif" font-size="12">
    • Mottar betaling før levering
  </text><text x="470" y="430" fill="#333" font-family="Arial, sans-serif" font-size="12">
    • Forbedrer kontantstrøm
  </text><text x="470" y="445" fill="#333" font-family="Arial, sans-serif" font-size="12">
    • Reduserer kredittrisiko
  </text><text x="470" y="460" fill="#333" font-family="Arial, sans-serif" font-size="12">
    • Har leveringsforpliktelse
  </text></svg>