<svg xmlns="http://www.w3.org/2000/svg" width="800" height="700"><defs><linearGradient id="a" x1="0%" x2="100%" y1="0%" y2="100%"><stop offset="0%" style="stop-color:#f8f9fa;stop-opacity:1"/><stop offset="100%" style="stop-color:#e9ecef;stop-opacity:1"/></linearGradient><linearGradient id="b" x1="0%" x2="100%" y1="0%" y2="0%"><stop offset="0%" style="stop-color:#06c;stop-opacity:1"/><stop offset="100%" style="stop-color:#049;stop-opacity:1"/></linearGradient><linearGradient id="e" x1="0%" x2="100%" y1="0%" y2="0%"><stop offset="0%" style="stop-color:#28a745;stop-opacity:1"/><stop offset="100%" style="stop-color:#20c997;stop-opacity:1"/></linearGradient><linearGradient id="d" x1="0%" x2="100%" y1="0%" y2="0%"><stop offset="0%" style="stop-color:#ffc107;stop-opacity:1"/><stop offset="100%" style="stop-color:#fd7e14;stop-opacity:1"/></linearGradient></defs><path fill="url(#a)" stroke="#dee2e6" stroke-width="2" d="M0 0h800v700H0z"/><text x="400" y="30" fill="#333" font-family="Arial, sans-serif" font-size="24" font-weight="bold" text-anchor="middle">
    Kreditorhåndtering Prosess
  </text><rect width="300" height="100" x="50" y="70" fill="#fff" stroke="#06c" stroke-width="2" rx="8"/><rect width="300" height="30" x="50" y="70" fill="url(#b)" rx="8 8 0 0"/><text x="200" y="90" fill="#fff" font-family="Arial, sans-serif" font-size="14" font-weight="bold" text-anchor="middle">
    1. Bestilling
  </text><text x="60" y="115" fill="#333" font-family="Arial, sans-serif" font-size="11">
    • Autorisert innkjøpsordre
  </text><text x="60" y="130" fill="#333" font-family="Arial, sans-serif" font-size="11">
    • Godkjent av ansvarlig person
  </text><text x="60" y="145" fill="#333" font-family="Arial, sans-serif" font-size="11">
    • Registrert i system
  </text><text x="60" y="160" fill="#333" font-family="Arial, sans-serif" font-size="11">
    • Sendt til leverandør
  </text><path fill="none" stroke="#06c" stroke-width="3" marker-end="url(#c)" d="M370 120h60"/><rect width="300" height="100" x="450" y="70" fill="#fff" stroke="#06c" stroke-width="2" rx="8"/><rect width="300" height="30" x="450" y="70" fill="url(#b)" rx="8 8 0 0"/><text x="600" y="90" fill="#fff" font-family="Arial, sans-serif" font-size="14" font-weight="bold" text-anchor="middle">
    2. Levering
  </text><text x="460" y="115" fill="#333" font-family="Arial, sans-serif" font-size="11">
    • Mottak av varer/tjenester
  </text><text x="460" y="130" fill="#333" font-family="Arial, sans-serif" font-size="11">
    • Kvalitetskontroll
  </text><text x="460" y="145" fill="#333" font-family="Arial, sans-serif" font-size="11">
    • Leveringsbevis signert
  </text><text x="460" y="160" fill="#333" font-family="Arial, sans-serif" font-size="11">
    • Registrering i lager
  </text><path fill="none" stroke="#06c" stroke-width="3" marker-end="url(#c)" d="M600 190v30"/><rect width="300" height="100" x="450" y="240" fill="#fff" stroke="#06c" stroke-width="2" rx="8"/><rect width="300" height="30" x="450" y="240" fill="url(#b)" rx="8 8 0 0"/><text x="600" y="260" fill="#fff" font-family="Arial, sans-serif" font-size="14" font-weight="bold" text-anchor="middle">
    3. Fakturamottak
  </text><text x="460" y="285" fill="#333" font-family="Arial, sans-serif" font-size="11">
    • Mottak av faktura
  </text><text x="460" y="300" fill="#333" font-family="Arial, sans-serif" font-size="11">
    • Registrering i system
  </text><text x="460" y="315" fill="#333" font-family="Arial, sans-serif" font-size="11">
    • Tildeling til ansvarlig
  </text><text x="460" y="330" fill="#333" font-family="Arial, sans-serif" font-size="11">
    • Forfallsdato notert
  </text><path fill="none" stroke="#06c" stroke-width="3" marker-end="url(#c)" d="M430 290h-60"/><rect width="300" height="100" x="50" y="240" fill="#fff" stroke="#ffc107" stroke-width="2" rx="8"/><rect width="300" height="30" x="50" y="240" fill="url(#d)" rx="8 8 0 0"/><text x="200" y="260" fill="#fff" font-family="Arial, sans-serif" font-size="14" font-weight="bold" text-anchor="middle">
    4. Trefaktor-kontroll
  </text><text x="60" y="285" fill="#333" font-family="Arial, sans-serif" font-size="11">
    • Sammenlign bestilling
  </text><text x="60" y="300" fill="#333" font-family="Arial, sans-serif" font-size="11">
    • Sammenlign leveringsbevis
  </text><text x="60" y="315" fill="#333" font-family="Arial, sans-serif" font-size="11">
    • Sammenlign faktura
  </text><text x="60" y="330" fill="#333" font-family="Arial, sans-serif" font-size="11">
    • Identifiser avvik
  </text><path fill="none" stroke="#06c" stroke-width="3" marker-end="url(#c)" d="M200 360v30"/><rect width="300" height="100" x="50" y="410" fill="#fff" stroke="#28a745" stroke-width="2" rx="8"/><rect width="300" height="30" x="50" y="410" fill="url(#e)" rx="8 8 0 0"/><text x="200" y="430" fill="#fff" font-family="Arial, sans-serif" font-size="14" font-weight="bold" text-anchor="middle">
    5. Godkjenning
  </text><text x="60" y="455" fill="#333" font-family="Arial, sans-serif" font-size="11">
    • Faglig godkjenning
  </text><text x="60" y="470" fill="#333" font-family="Arial, sans-serif" font-size="11">
    • Økonomisk godkjenning
  </text><text x="60" y="485" fill="#333" font-family="Arial, sans-serif" font-size="11">
    • Autorisasjon innen fullmakt
  </text><text x="60" y="500" fill="#333" font-family="Arial, sans-serif" font-size="11">
    • Registrering av leverandørgjeld
  </text><path fill="none" stroke="#06c" stroke-width="3" marker-end="url(#c)" d="M370 460h60"/><rect width="300" height="100" x="450" y="410" fill="#fff" stroke="#28a745" stroke-width="2" rx="8"/><rect width="300" height="30" x="450" y="410" fill="url(#e)" rx="8 8 0 0"/><text x="600" y="430" fill="#fff" font-family="Arial, sans-serif" font-size="14" font-weight="bold" text-anchor="middle">
    6. Betalingsplanlegging
  </text><text x="460" y="455" fill="#333" font-family="Arial, sans-serif" font-size="11">
    • Forfallskalender oppdatert
  </text><text x="460" y="470" fill="#333" font-family="Arial, sans-serif" font-size="11">
    • Kontantrabatt vurdert
  </text><text x="460" y="485" fill="#333" font-family="Arial, sans-serif" font-size="11">
    • Likviditet planlagt
  </text><text x="460" y="500" fill="#333" font-family="Arial, sans-serif" font-size="11">
    • Betalingsprioritet satt
  </text><path fill="none" stroke="#06c" stroke-width="3" marker-end="url(#c)" d="M600 530v30"/><rect width="300" height="100" x="450" y="580" fill="#fff" stroke="#dc3545" stroke-width="2" rx="8"/><rect width="300" height="30" x="450" y="580" fill="#dc3545" rx="8 8 0 0"/><text x="600" y="600" fill="#fff" font-family="Arial, sans-serif" font-size="14" font-weight="bold" text-anchor="middle">
    7. Betaling
  </text><text x="460" y="625" fill="#333" font-family="Arial, sans-serif" font-size="11">
    • Betalingsfil generert
  </text><text x="460" y="640" fill="#333" font-family="Arial, sans-serif" font-size="11">
    • Bankoverføring utført
  </text><text x="460" y="655" fill="#333" font-family="Arial, sans-serif" font-size="11">
    • Leverandørgjeld redusert
  </text><text x="460" y="670" fill="#333" font-family="Arial, sans-serif" font-size="11">
    • Betalingsbekreftelse arkivert
  </text><path fill="none" stroke="#06c" stroke-width="3" marker-end="url(#c)" d="M430 630h-60"/><rect width="300" height="100" x="50" y="580" fill="#fff" stroke="#6f42c1" stroke-width="2" rx="8"/><rect width="300" height="30" x="50" y="580" fill="#6f42c1" rx="8 8 0 0"/><text x="200" y="600" fill="#fff" font-family="Arial, sans-serif" font-size="14" font-weight="bold" text-anchor="middle">
    8. Avstemming
  </text><text x="60" y="625" fill="#333" font-family="Arial, sans-serif" font-size="11">
    • Bankavstemming
  </text><text x="60" y="640" fill="#333" font-family="Arial, sans-serif" font-size="11">
    • Leverandøravstemming
  </text><text x="60" y="655" fill="#333" font-family="Arial, sans-serif" font-size="11">
    • Avviksoppfølging
  </text><text x="60" y="670" fill="#333" font-family="Arial, sans-serif" font-size="11">
    • Dokumentasjon
  </text><circle cx="200" cy="370" r="15" fill="#ffc107" stroke="#fd7e14" stroke-width="2"/><text x="200" y="375" fill="#fff" font-family="Arial, sans-serif" font-size="10" font-weight="bold" text-anchor="middle">
    K1
  </text><circle cx="600" cy="370" r="15" fill="#ffc107" stroke="#fd7e14" stroke-width="2"/><text x="600" y="375" fill="#fff" font-family="Arial, sans-serif" font-size="10" font-weight="bold" text-anchor="middle">
    K2
  </text><circle cx="200" cy="540" r="15" fill="#ffc107" stroke="#fd7e14" stroke-width="2"/><text x="200" y="545" fill="#fff" font-family="Arial, sans-serif" font-size="10" font-weight="bold" text-anchor="middle">
    K3
  </text><text x="50" y="30" fill="#666" font-family="Arial, sans-serif" font-size="12">
    K1-K3: Kontrollpunkter for internkontroll
  </text><defs><marker id="c" markerHeight="7" markerWidth="10" orient="auto" refX="9" refY="3.5"><path fill="#06c" d="m0 0 10 3.5L0 7z"/></marker></defs></svg>