<svg width="800" height="700" viewBox="0 0 800 700" xmlns="http://www.w3.org/2000/svg">
  <!-- Background -->
  <rect width="800" height="700" fill="#f8f9fa"/>
  
  <!-- Title -->
  <text x="400" y="30" text-anchor="middle" font-size="20" font-weight="bold" fill="#212529">Beste Praksis for Pakkesedler</text>
  
  <!-- Design section -->
  <rect x="50" y="60" width="700" height="150" fill="#e3f2fd" stroke="#1976d2" stroke-width="2" rx="8"/>
  <text x="400" y="85" text-anchor="middle" font-size="16" font-weight="bold" fill="#1976d2">Design og Layout</text>
  
  <rect x="80" y="100" width="160" height="90" fill="white" stroke="#1976d2" stroke-width="1" rx="4"/>
  <text x="160" y="120" text-anchor="middle" font-size="12" font-weight="bold" fill="#1976d2">Oversiktlighet</text>
  <text x="90" y="140" font-size="10" fill="#495057">• Klar struktur</text>
  <text x="90" y="155" font-size="10" fill="#495057">• Logisk gruppering</text>
  <text x="90" y="170" font-size="10" fill="#495057">• Tilstrekkelig mellomrom</text>
  <text x="90" y="185" font-size="10" fill="#495057">• Hierarkisk oppbygging</text>
  
  <rect x="260" y="100" width="160" height="90" fill="white" stroke="#1976d2" stroke-width="1" rx="4"/>
  <text x="340" y="120" text-anchor="middle" font-size="12" font-weight="bold" fill="#1976d2">Lesbarhet</text>
  <text x="270" y="140" font-size="10" fill="#495057">• Tydelige fonter</text>
  <text x="270" y="155" font-size="10" fill="#495057">• Tilstrekkelig størrelse</text>
  <text x="270" y="170" font-size="10" fill="#495057">• God kontrast</text>
  <text x="270" y="185" font-size="10" fill="#495057">• Ren bakgrunn</text>
  
  <rect x="440" y="100" width="160" height="90" fill="white" stroke="#1976d2" stroke-width="1" rx="4"/>
  <text x="520" y="120" text-anchor="middle" font-size="12" font-weight="bold" fill="#1976d2">Profesjonalitet</text>
  <text x="450" y="140" font-size="10" fill="#495057">• Firmalogo</text>
  <text x="450" y="155" font-size="10" fill="#495057">• Konsistent design</text>
  <text x="450" y="170" font-size="10" fill="#495057">• Kvalitetspapir</text>
  <text x="450" y="185" font-size="10" fill="#495057">• Merkevarefarger</text>
  
  <rect x="620" y="100" width="120" height="90" fill="white" stroke="#1976d2" stroke-width="1" rx="4"/>
  <text x="680" y="120" text-anchor="middle" font-size="12" font-weight="bold" fill="#1976d2">Konsistens</text>
  <text x="630" y="140" font-size="10" fill="#495057">• Fast format</text>
  <text x="630" y="155" font-size="10" fill="#495057">• Samme layout</text>
  <text x="630" y="170" font-size="10" fill="#495057">• Standardisert</text>
  <text x="630" y="185" font-size="10" fill="#495057">• Gjenkjennelig</text>
  
  <!-- Quality control section -->
  <rect x="50" y="230" width="700" height="150" fill="#e8f5e8" stroke="#388e3c" stroke-width="2" rx="8"/>
  <text x="400" y="255" text-anchor="middle" font-size="16" font-weight="bold" fill="#388e3c">Kvalitetskontroll</text>
  
  <rect x="80" y="270" width="160" height="90" fill="white" stroke="#388e3c" stroke-width="1" rx="4"/>
  <text x="160" y="290" text-anchor="middle" font-size="12" font-weight="bold" fill="#388e3c">Dobbeltsjekk</text>
  <text x="90" y="310" font-size="10" fill="#495057">• Varelinjer mot ordre</text>
  <text x="90" y="325" font-size="10" fill="#495057">• Antall og enheter</text>
  <text x="90" y="340" font-size="10" fill="#495057">• Produktnumre</text>
  <text x="90" y="355" font-size="10" fill="#495057">• Spesifikasjoner</text>
  
  <rect x="260" y="270" width="160" height="90" fill="white" stroke="#388e3c" stroke-width="1" rx="4"/>
  <text x="340" y="290" text-anchor="middle" font-size="12" font-weight="bold" fill="#388e3c">Verifikasjon</text>
  <text x="270" y="310" font-size="10" fill="#495057">• Mottakeradresse</text>
  <text x="270" y="325" font-size="10" fill="#495057">• Kontaktinformasjon</text>
  <text x="270" y="340" font-size="10" fill="#495057">• Leveringsinstrukser</text>
  <text x="270" y="355" font-size="10" fill="#495057">• Spesielle krav</text>
  
  <rect x="440" y="270" width="160" height="90" fill="white" stroke="#388e3c" stroke-width="1" rx="4"/>
  <text x="520" y="290" text-anchor="middle" font-size="12" font-weight="bold" fill="#388e3c">Komplettering</text>
  <text x="450" y="310" font-size="10" fill="#495057">• Alle felt utfylt</text>
  <text x="450" y="325" font-size="10" fill="#495057">• Ingen blanke felt</text>
  <text x="450" y="340" font-size="10" fill="#495057">• Korrekte datoer</text>
  <text x="450" y="355" font-size="10" fill="#495057">• Signatur/stempel</text>
  
  <rect x="620" y="270" width="120" height="90" fill="white" stroke="#388e3c" stroke-width="1" rx="4"/>
  <text x="680" y="290" text-anchor="middle" font-size="12" font-weight="bold" fill="#388e3c">Testing</text>
  <text x="630" y="310" font-size="10" fill="#495057">• System-test</text>
  <text x="630" y="325" font-size="10" fill="#495057">• Integrasjoner</text>
  <text x="630" y="340" font-size="10" fill="#495057">• Backup-rutiner</text>
  <text x="630" y="355" font-size="10" fill="#495057">• Feilhåndtering</text>
  
  <!-- Archiving section -->
  <rect x="50" y="400" width="700" height="150" fill="#fff3e0" stroke="#f57c00" stroke-width="2" rx="8"/>
  <text x="400" y="425" text-anchor="middle" font-size="16" font-weight="bold" fill="#f57c00">Arkivering og Oppbevaring</text>
  
  <rect x="80" y="440" width="160" height="90" fill="white" stroke="#f57c00" stroke-width="1" rx="4"/>
  <text x="160" y="460" text-anchor="middle" font-size="12" font-weight="bold" fill="#f57c00">Digitalisering</text>
  <text x="90" y="480" font-size="10" fill="#495057">• Skann papirdokumenter</text>
  <text x="90" y="495" font-size="10" fill="#495057">• OCR-gjenkjenning</text>
  <text x="90" y="510" font-size="10" fill="#495057">• PDF-format</text>
  <text x="90" y="525" font-size="10" fill="#495057">• Søkbare filer</text>
  
  <rect x="260" y="440" width="160" height="90" fill="white" stroke="#f57c00" stroke-width="1" rx="4"/>
  <text x="340" y="460" text-anchor="middle" font-size="12" font-weight="bold" fill="#f57c00">Organisering</text>
  <text x="270" y="480" font-size="10" fill="#495057">• Dato/kunde-struktur</text>
  <text x="270" y="495" font-size="10" fill="#495057">• Konsistent navning</text>
  <text x="270" y="510" font-size="10" fill="#495057">• Mappehierarki</text>
  <text x="270" y="525" font-size="10" fill="#495057">• Metadata-tagging</text>
  
  <rect x="440" y="440" width="160" height="90" fill="white" stroke="#f57c00" stroke-width="1" rx="4"/>
  <text x="520" y="460" text-anchor="middle" font-size="12" font-weight="bold" fill="#f57c00">Sikring</text>
  <text x="450" y="480" font-size="10" fill="#495057">• Automatisk backup</text>
  <text x="450" y="495" font-size="10" fill="#495057">• Cloud-lagring</text>
  <text x="450" y="510" font-size="10" fill="#495057">• Versjonskontroll</text>
  <text x="450" y="525" font-size="10" fill="#495057">• Tilgangskontroll</text>
  
  <rect x="620" y="440" width="120" height="90" fill="white" stroke="#f57c00" stroke-width="1" rx="4"/>
  <text x="680" y="460" text-anchor="middle" font-size="12" font-weight="bold" fill="#f57c00">Lovkrav</text>
  <text x="630" y="480" font-size="10" fill="#495057">• 5 års oppbevaring</text>
  <text x="630" y="495" font-size="10" fill="#495057">• Tilgjengelig form</text>
  <text x="630" y="510" font-size="10" fill="#495057">• Sporbar historikk</text>
  <text x="630" y="525" font-size="10" fill="#495057">• Revisortilgang</text>
  
  <!-- Implementation checklist -->
  <rect x="50" y="570" width="700" height="110" fill="#f8f9fa" stroke="#6c757d" stroke-width="2" rx="8"/>
  <text x="400" y="595" text-anchor="middle" font-size="16" font-weight="bold" fill="#6c757d">Implementeringssjekkliste</text>
  
  <rect x="70" y="610" width="300" height="60" fill="white" stroke="#6c757d" stroke-width="1" rx="4"/>
  <text x="80" y="630" font-size="11" fill="#495057">☐ Design standardmal for pakkeseddel</text>
  <text x="80" y="645" font-size="11" fill="#495057">☐ Etabler kvalitetskontrollrutiner</text>
  <text x="80" y="660" font-size="11" fill="#495057">☐ Implementer arkiveringssystem</text>
  
  <rect x="430" y="610" width="300" height="60" fill="white" stroke="#6c757d" stroke-width="1" rx="4"/>
  <text x="440" y="630" font-size="11" fill="#495057">☐ Opplær personalet i prosedyrer</text>
  <text x="440" y="645" font-size="11" fill="#495057">☐ Test integrasjoner og backup</text>
  <text x="440" y="660" font-size="11" fill="#495057">☐ Etabler oppfølgingsrutiner</text>
</svg>