<svg xmlns="http://www.w3.org/2000/svg" width="800" height="400" viewBox="0 0 800 400"><defs><linearGradient id="a" x1="0%" x2="100%" y1="0%" y2="100%"><stop offset="0%" style="stop-color:#3b82f6;stop-opacity:1"/><stop offset="100%" style="stop-color:#1e40af;stop-opacity:1"/></linearGradient><linearGradient id="b" x1="0%" x2="100%" y1="0%" y2="100%"><stop offset="0%" style="stop-color:#10b981;stop-opacity:1"/><stop offset="100%" style="stop-color:#047857;stop-opacity:1"/></linearGradient></defs><path fill="#f8fafc" d="M0 0h800v400H0z"/><text x="400" y="40" fill="#1e293b" font-family="Arial, sans-serif" font-size="28" font-weight="bold" text-anchor="middle">
    Hva er Stiftelse?
  </text><rect width="200" height="180" x="300" y="120" fill="url(#a)" rx="10"/><path fill="#fff" d="M310 130h180v20H310z" opacity=".9"/><text x="400" y="145" fill="#1e293b" font-family="Arial, sans-serif" font-size="14" font-weight="bold" text-anchor="middle">
    STIFTELSE
  </text><path fill="#e2e8f0" stroke="#64748b" stroke-width="2" d="M320 170h35v110h-35zM365 170h35v110h-35zM410 170h35v110h-35zM455 170h35v110h-35z"/><text x="337" y="190" fill="#475569" font-family="Arial, sans-serif" font-size="9" font-weight="bold" text-anchor="middle">
    Juridisk
  </text><text x="337" y="202" fill="#475569" font-family="Arial, sans-serif" font-size="9" text-anchor="middle">
    Struktur
  </text><text x="382" y="190" fill="#475569" font-family="Arial, sans-serif" font-size="9" font-weight="bold" text-anchor="middle">
    Form책l
  </text><text x="382" y="202" fill="#475569" font-family="Arial, sans-serif" font-size="9" text-anchor="middle">
    Binding
  </text><text x="427" y="190" fill="#475569" font-family="Arial, sans-serif" font-size="9" font-weight="bold" text-anchor="middle">
    Kapital
  </text><text x="427" y="202" fill="#475569" font-family="Arial, sans-serif" font-size="9" text-anchor="middle">
    Forvaltning
  </text><text x="472" y="190" fill="#475569" font-family="Arial, sans-serif" font-size="9" font-weight="bold" text-anchor="middle">
    Styre &amp;
  </text><text x="472" y="202" fill="#475569" font-family="Arial, sans-serif" font-size="9" text-anchor="middle">
    Kontroll
  </text><rect width="140" height="60" x="50" y="320" fill="url(#b)" rx="8"/><text x="120" y="340" fill="#fff" font-family="Arial, sans-serif" font-size="12" font-weight="bold" text-anchor="middle">
    Ingen Eiere
  </text><text x="120" y="355" fill="#fff" font-family="Arial, sans-serif" font-size="10" text-anchor="middle">
    Selveiende juridisk
  </text><text x="120" y="368" fill="#fff" font-family="Arial, sans-serif" font-size="10" text-anchor="middle">
    person
  </text><rect width="140" height="60" x="210" y="320" fill="url(#b)" rx="8"/><text x="280" y="340" fill="#fff" font-family="Arial, sans-serif" font-size="12" font-weight="bold" text-anchor="middle">
    Form책lsbinding
  </text><text x="280" y="355" fill="#fff" font-family="Arial, sans-serif" font-size="10" text-anchor="middle">
    Midler kun til
  </text><text x="280" y="368" fill="#fff" font-family="Arial, sans-serif" font-size="10" text-anchor="middle">
    vedtektenes form책l
  </text><rect width="140" height="60" x="450" y="320" fill="url(#b)" rx="8"/><text x="520" y="340" fill="#fff" font-family="Arial, sans-serif" font-size="12" font-weight="bold" text-anchor="middle">
    Minimumskapital
  </text><text x="520" y="355" fill="#fff" font-family="Arial, sans-serif" font-size="10" text-anchor="middle">
    Minimum NOK
  </text><text x="520" y="368" fill="#fff" font-family="Arial, sans-serif" font-size="10" text-anchor="middle">
    100.000
  </text><rect width="140" height="60" x="610" y="320" fill="url(#b)" rx="8"/><text x="680" y="340" fill="#fff" font-family="Arial, sans-serif" font-size="12" font-weight="bold" text-anchor="middle">
    Regulering
  </text><text x="680" y="355" fill="#fff" font-family="Arial, sans-serif" font-size="10" text-anchor="middle">
    Stiftelsesloven &amp;
  </text><text x="680" y="368" fill="#fff" font-family="Arial, sans-serif" font-size="10" text-anchor="middle">
    regnskapsloven
  </text><path stroke="#64748b" stroke-width="2" marker-end="url(#c)" d="m120 310 230-20"/><path stroke="#64748b" stroke-width="2" marker-end="url(#c)" d="m280 310 100-20"/><path stroke="#64748b" stroke-width="2" marker-end="url(#c)" d="m520 310-100-20"/><path stroke="#64748b" stroke-width="2" marker-end="url(#c)" d="m680 310-230-20"/><defs><marker id="c" markerHeight="7" markerWidth="10" orient="auto" refX="10" refY="3.5"><path fill="#64748b" d="m0 0 10 3.5L0 7z"/></marker></defs><text x="400" y="70" fill="#64748b" font-family="Arial, sans-serif" font-size="16" text-anchor="middle">
    Juridisk selvstendig organisasjonsform for allmennyttige form책l
  </text></svg>