<svg xmlns="http://www.w3.org/2000/svg" width="800" height="600" viewBox="0 0 800 600"><path fill="#f8fafc" d="M0 0h800v600H0z"/><text x="400" y="40" fill="#1e293b" font-family="Arial, sans-serif" font-size="24" font-weight="bold" text-anchor="middle">
    Risikoanalyse for Stiftelser
  </text><rect width="450" height="300" x="50" y="80" fill="#fff" stroke="#64748b" stroke-width="2" rx="8"/><text x="275" y="105" fill="#1f2937" font-family="Arial, sans-serif" font-size="16" font-weight="bold" text-anchor="middle">
    Risikomatrise
  </text><text x="30" y="200" fill="#374151" font-family="Arial, sans-serif" font-size="12" font-weight="bold" text-anchor="middle" transform="rotate(-90 30 200)">
    SANNSYNLIGHET
  </text><text x="275" y="395" fill="#374151" font-family="Arial, sans-serif" font-size="12" font-weight="bold" text-anchor="middle">
    KONSEKVENS
  </text><path fill="#fff" stroke="#d1d5db" d="M80 130h360v240H80z"/><path stroke="#d1d5db" d="M200 130v240M320 130v240M80 210h360M80 290h360"/><path fill="#dcfce7" d="M80 130h120v80H80z" opacity=".7"/><path fill="#fef3c7" d="M200 130h120v80H200z" opacity=".7"/><path fill="#fee2e2" d="M320 130h120v80H320z" opacity=".7"/><path fill="#fef3c7" d="M80 210h120v80H80z" opacity=".7"/><path fill="#fee2e2" d="M200 210h120v80H200zM320 210h120v80H320zM80 290h120v80H80zM200 290h120v80H200zM320 290h120v80H320z" opacity=".7"/><text x="140" y="175" fill="#059669" font-family="Arial, sans-serif" font-size="10" font-weight="bold" text-anchor="middle">LAV</text><text x="260" y="175" fill="#d97706" font-family="Arial, sans-serif" font-size="10" font-weight="bold" text-anchor="middle">MIDDELS</text><text x="380" y="175" fill="#dc2626" font-family="Arial, sans-serif" font-size="10" font-weight="bold" text-anchor="middle">HØY</text><text x="65" y="175" fill="#374151" font-family="Arial, sans-serif" font-size="9" text-anchor="middle">Høy</text><text x="65" y="255" fill="#374151" font-family="Arial, sans-serif" font-size="9" text-anchor="middle">Middels</text><text x="65" y="335" fill="#374151" font-family="Arial, sans-serif" font-size="9" text-anchor="middle">Lav</text><text x="140" y="385" fill="#374151" font-family="Arial, sans-serif" font-size="9" text-anchor="middle">Lav</text><text x="260" y="385" fill="#374151" font-family="Arial, sans-serif" font-size="9" text-anchor="middle">Middels</text><text x="380" y="385" fill="#374151" font-family="Arial, sans-serif" font-size="9" text-anchor="middle">Høy</text><circle cx="150" cy="320" r="5" fill="#dc2626"/><text x="160" y="325" fill="#374151" font-family="Arial, sans-serif" font-size="8">Finansielle feil</text><circle cx="280" cy="240" r="5" fill="#dc2626"/><text x="290" y="245" fill="#374151" font-family="Arial, sans-serif" font-size="8">Formålsmisbruk</text><circle cx="350" cy="180" r="5" fill="#dc2626"/><text x="360" y="185" fill="#374151" font-family="Arial, sans-serif" font-size="8">Tap av skattefritak</text><circle cx="180" cy="280" r="5" fill="#f59e0b"/><text x="190" y="285" fill="#374151" font-family="Arial, sans-serif" font-size="8">Likviditetsproblemer</text><circle cx="250" cy="200" r="5" fill="#f59e0b"/><text x="260" y="205" fill="#374151" font-family="Arial, sans-serif" font-size="8">Interessekonflikter</text><rect width="240" height="480" x="530" y="80" fill="#fff" stroke="#64748b" stroke-width="2" rx="8"/><text x="650" y="105" fill="#1f2937" font-family="Arial, sans-serif" font-size="16" font-weight="bold" text-anchor="middle">
    Risikoområder
  </text><rect width="200" height="80" x="550" y="120" fill="#fee2e2" stroke="#ef4444" rx="4"/><text x="650" y="140" fill="#991b1b" font-family="Arial, sans-serif" font-size="12" font-weight="bold" text-anchor="middle">
    Finansielle Risikoer
  </text><text x="560" y="155" fill="#991b1b" font-family="Arial, sans-serif" font-size="10">• Regnskapsfeil og misrepresentasjon</text><text x="560" y="168" fill="#991b1b" font-family="Arial, sans-serif" font-size="10">• Manglende likviditetsstyring</text><text x="560" y="181" fill="#991b1b" font-family="Arial, sans-serif" font-size="10">• Investeringsrisiko og tap</text><text x="560" y="194" fill="#991b1b" font-family="Arial, sans-serif" font-size="10">• Svindel og misbruk av midler</text><rect width="200" height="80" x="550" y="210" fill="#fef3c7" stroke="#f59e0b" rx="4"/><text x="650" y="230" fill="#92400e" font-family="Arial, sans-serif" font-size="12" font-weight="bold" text-anchor="middle">
    Compliance-risikoer
  </text><text x="560" y="245" fill="#92400e" font-family="Arial, sans-serif" font-size="10">• Brudd på allmennyttighetskrav</text><text x="560" y="258" fill="#92400e" font-family="Arial, sans-serif" font-size="10">• Manglende formålsbrukt av midler</text><text x="560" y="271" fill="#92400e" font-family="Arial, sans-serif" font-size="10">• Interessekonflikter i styret</text><text x="560" y="284" fill="#92400e" font-family="Arial, sans-serif" font-size="10">• Brudd på vedtekter og regelverk</text><rect width="200" height="80" x="550" y="300" fill="#f0fdf4" stroke="#10b981" rx="4"/><text x="650" y="320" fill="#14532d" font-family="Arial, sans-serif" font-size="12" font-weight="bold" text-anchor="middle">
    Operasjonelle Risikoer
  </text><text x="560" y="335" fill="#14532d" font-family="Arial, sans-serif" font-size="10">• Nøkkelpersonavhengighet</text><text x="560" y="348" fill="#14532d" font-family="Arial, sans-serif" font-size="10">• Manglende kompetanse</text><text x="560" y="361" fill="#14532d" font-family="Arial, sans-serif" font-size="10">• IT-sikkerhet og databrudd</text><text x="560" y="374" fill="#14532d" font-family="Arial, sans-serif" font-size="10">• Omdømmerisiko og medieoppslag</text><rect width="200" height="80" x="550" y="390" fill="#ede9fe" stroke="#8b5cf6" rx="4"/><text x="650" y="410" fill="#5b21b6" font-family="Arial, sans-serif" font-size="12" font-weight="bold" text-anchor="middle">
    Strategiske Risikoer
  </text><text x="560" y="425" fill="#5b21b6" font-family="Arial, sans-serif" font-size="10">• Endrede markedsforhold</text><text x="560" y="438" fill="#5b21b6" font-family="Arial, sans-serif" font-size="10">• Redusert donorengasjement</text><text x="560" y="451" fill="#5b21b6" font-family="Arial, sans-serif" font-size="10">• Konkurranse om midler</text><text x="560" y="464" fill="#5b21b6" font-family="Arial, sans-serif" font-size="10">• Regulatoriske endringer</text><rect width="350" height="120" x="100" y="420" fill="#fff" stroke="#64748b" stroke-width="2" rx="8"/><text x="275" y="445" fill="#1f2937" font-family="Arial, sans-serif" font-size="14" font-weight="bold" text-anchor="middle">
    Risikostyringsprinsipper
  </text><rect width="100" height="70" x="120" y="460" fill="#f0f9ff" stroke="#0ea5e9" rx="4"/><text x="170" y="480" fill="#0c4a6e" font-family="Arial, sans-serif" font-size="11" font-weight="bold" text-anchor="middle">
    Identifisering
  </text><text x="170" y="495" fill="#0c4a6e" font-family="Arial, sans-serif" font-size="9" text-anchor="middle">
    Systematisk kartlegging
  </text><text x="170" y="507" fill="#0c4a6e" font-family="Arial, sans-serif" font-size="9" text-anchor="middle">
    av risikoområder
  </text><text x="170" y="519" fill="#0c4a6e" font-family="Arial, sans-serif" font-size="9" text-anchor="middle">
    og sårbarheter
  </text><rect width="100" height="70" x="230" y="460" fill="#f0fdf4" stroke="#16a34a" rx="4"/><text x="280" y="480" fill="#14532d" font-family="Arial, sans-serif" font-size="11" font-weight="bold" text-anchor="middle">
    Vurdering
  </text><text x="280" y="495" fill="#14532d" font-family="Arial, sans-serif" font-size="9" text-anchor="middle">
    Analyse av sannsynlighet
  </text><text x="280" y="507" fill="#14532d" font-family="Arial, sans-serif" font-size="9" text-anchor="middle">
    og konsekvens for
  </text><text x="280" y="519" fill="#14532d" font-family="Arial, sans-serif" font-size="9" text-anchor="middle">
    prioritering
  </text><rect width="100" height="70" x="340" y="460" fill="#fef3c7" stroke="#d97706" rx="4"/><text x="390" y="480" fill="#92400e" font-family="Arial, sans-serif" font-size="11" font-weight="bold" text-anchor="middle">
    Håndtering
  </text><text x="390" y="495" fill="#92400e" font-family="Arial, sans-serif" font-size="9" text-anchor="middle">
    Implementering av
  </text><text x="390" y="507" fill="#92400e" font-family="Arial, sans-serif" font-size="9" text-anchor="middle">
    kontrolltiltak og
  </text><text x="390" y="519" fill="#92400e" font-family="Arial, sans-serif" font-size="9" text-anchor="middle">
    overvåking
  </text><rect width="600" height="25" x="100" y="560" fill="#eff6ff" stroke="#3b82f6" rx="4"/><text x="400" y="578" fill="#1e40af" font-family="Arial, sans-serif" font-size="11" font-weight="bold" text-anchor="middle">
    Effektiv risikostyring krever systematisk tilnærming og kontinuerlig oppfølging
  </text></svg>