<svg xmlns="http://www.w3.org/2000/svg" width="800" height="600" viewBox="0 0 800 600"><defs><linearGradient id="a" x1="0%" x2="100%" y1="0%" y2="0%"><stop offset="0%" style="stop-color:#7c3aed;stop-opacity:1"/><stop offset="100%" style="stop-color:#5b21b6;stop-opacity:1"/></linearGradient><linearGradient id="b" x1="0%" x2="100%" y1="0%" y2="0%"><stop offset="0%" style="stop-color:#3b82f6;stop-opacity:1"/><stop offset="100%" style="stop-color:#1d4ed8;stop-opacity:1"/></linearGradient></defs><path fill="#f8fafc" d="M0 0h800v600H0z"/><text x="400" y="30" fill="#1f2937" font-family="Arial, sans-serif" font-size="20" font-weight="bold" text-anchor="middle">Sammenheng mellom Andre Rettigheter og Tilknyttede Kontoer</text><g transform="translate(325 250)"><rect width="150" height="80" fill="url(#a)" stroke="#5b21b6" stroke-width="3" rx="10"/><text x="75" y="30" fill="#fff" font-family="Arial, sans-serif" font-size="14" font-weight="bold" text-anchor="middle">KONTO 1060</text><text x="75" y="50" fill="#fff" font-family="Arial, sans-serif" font-size="12" text-anchor="middle">Andre rettigheter</text><text x="75" y="65" fill="#fff" font-family="Arial, sans-serif" font-size="10" text-anchor="middle">Immaterielle eiendeler</text></g><g transform="translate(50 80)"><rect width="130" height="70" fill="url(#b)" stroke="#1d4ed8" stroke-width="2" rx="8"/><text x="65" y="25" fill="#fff" font-family="Arial, sans-serif" font-size="12" font-weight="bold" text-anchor="middle">KONTO 1000</text><text x="65" y="40" fill="#fff" font-family="Arial, sans-serif" font-size="10" text-anchor="middle">Forskning og</text><text x="65" y="55" fill="#fff" font-family="Arial, sans-serif" font-size="10" text-anchor="middle">utvikling</text></g><g transform="translate(220 80)"><rect width="130" height="70" fill="url(#b)" stroke="#1d4ed8" stroke-width="2" rx="8"/><text x="65" y="25" fill="#fff" font-family="Arial, sans-serif" font-size="12" font-weight="bold" text-anchor="middle">KONTO 1020</text><text x="65" y="40" fill="#fff" font-family="Arial, sans-serif" font-size="10" text-anchor="middle">Konsesjoner</text><text x="65" y="55" fill="#fff" font-family="Arial, sans-serif" font-size="10" text-anchor="middle">Offentlige tillatelser</text></g><g transform="translate(390 80)"><rect width="130" height="70" fill="url(#b)" stroke="#1d4ed8" stroke-width="2" rx="8"/><text x="65" y="25" fill="#fff" font-family="Arial, sans-serif" font-size="12" font-weight="bold" text-anchor="middle">KONTO 1030</text><text x="65" y="40" fill="#fff" font-family="Arial, sans-serif" font-size="10" text-anchor="middle">Patenter</text><text x="65" y="55" fill="#fff" font-family="Arial, sans-serif" font-size="10" text-anchor="middle">Tekniske oppfinnelser</text></g><g transform="translate(560 80)"><rect width="130" height="70" fill="url(#b)" stroke="#1d4ed8" stroke-width="2" rx="8"/><text x="65" y="25" fill="#fff" font-family="Arial, sans-serif" font-size="12" font-weight="bold" text-anchor="middle">KONTO 1040</text><text x="65" y="40" fill="#fff" font-family="Arial, sans-serif" font-size="10" text-anchor="middle">Lisenser</text><text x="65" y="55" fill="#fff" font-family="Arial, sans-serif" font-size="10" text-anchor="middle">Bruksrettigheter</text></g><g transform="translate(50 420)"><rect width="130" height="70" fill="url(#b)" stroke="#1d4ed8" stroke-width="2" rx="8"/><text x="65" y="25" fill="#fff" font-family="Arial, sans-serif" font-size="12" font-weight="bold" text-anchor="middle">KONTO 1050</text><text x="65" y="40" fill="#fff" font-family="Arial, sans-serif" font-size="10" text-anchor="middle">Varemerker</text><text x="65" y="55" fill="#fff" font-family="Arial, sans-serif" font-size="10" text-anchor="middle">Merkevarerettigheter</text></g><g transform="translate(220 420)"><rect width="130" height="70" fill="url(#b)" stroke="#1d4ed8" stroke-width="2" rx="8"/><text x="65" y="25" fill="#fff" font-family="Arial, sans-serif" font-size="12" font-weight="bold" text-anchor="middle">KONTO 1070</text><text x="65" y="40" fill="#fff" font-family="Arial, sans-serif" font-size="10" text-anchor="middle">Goodwill</text><text x="65" y="55" fill="#fff" font-family="Arial, sans-serif" font-size="10" text-anchor="middle">Merverdier</text></g><g transform="translate(500 380)"><rect width="140" height="50" fill="#fef3c7" stroke="#d97706" stroke-width="2" rx="8"/><text x="70" y="25" fill="#92400e" font-family="Arial, sans-serif" font-size="12" font-weight="bold" text-anchor="middle">KONTO 6031</text><text x="70" y="40" fill="#92400e" font-family="Arial, sans-serif" font-size="10" text-anchor="middle">Amortisering</text></g><g transform="translate(500 450)"><rect width="140" height="50" fill="#fee2e2" stroke="#dc2626" stroke-width="2" rx="8"/><text x="70" y="25" fill="#dc2626" font-family="Arial, sans-serif" font-size="12" font-weight="bold" text-anchor="middle">KONTO 6032</text><text x="70" y="40" fill="#dc2626" font-family="Arial, sans-serif" font-size="10" text-anchor="middle">Nedskrivning</text></g><g fill="none" stroke="#64748b" stroke-width="2"><path d="M350 250 150 150M375 250l-90-100M400 250l55-100M425 250l200-100M350 330l-200 90M375 330l-90 90M475 280l25 120M475 300l25 170"/></g><text x="200" y="200" fill="#64748b" font-family="Arial, sans-serif" font-size="10" transform="rotate(-35 200 200)">Liknende rettigheter</text><text x="500" y="200" fill="#64748b" font-family="Arial, sans-serif" font-size="10" transform="rotate(35 500 200)">Liknende rettigheter</text><text x="200" y="380" fill="#64748b" font-family="Arial, sans-serif" font-size="10" transform="rotate(35 200 380)">Liknende rettigheter</text><text x="490" y="340" fill="#64748b" font-family="Arial, sans-serif" font-size="10" transform="rotate(10 490 340)">Amortisering</text><text x="490" y="380" fill="#64748b" font-family="Arial, sans-serif" font-size="10" transform="rotate(-10 490 380)">Nedskrivning</text><g fill="#374151" font-family="Arial, sans-serif"><text font-size="12" font-weight="bold" transform="translate(50 520)">Nøkkelforskjeller:</text><text y="20" font-size="10" transform="translate(50 520)">
      <tspan x="0" dy="0">• Konto 1060 brukes for rettigheter som ikke passer i andre spesifikke kontoer</tspan>
      <tspan x="0" dy="12">• Bredere spekter av rettighetstyper enn andre kontoer</tspan>
      <tspan x="0" dy="12">• Samme aktiverings- og amortiseringsprinsipper som andre immaterielle eiendeler</tspan>
    </text></g><text fill="#374151" font-family="Arial, sans-serif" font-size="10" transform="translate(400 520)">
      <tspan x="0" dy="0">Eksempler på 1060-rettigheter:</tspan>
      <tspan x="0" dy="12">• Opphavsrettigheter</tspan>
      <tspan x="0" dy="12">• Kundekontrakter</tspan>
      <tspan x="0" dy="12">• Franchiserettigheter</tspan>
    </text></svg>