<svg xmlns="http://www.w3.org/2000/svg" width="800" height="600"><defs><linearGradient id="a" x1="0%" x2="100%" y1="0%" y2="0%"><stop offset="0%" style="stop-color:#7b1fa2;stop-opacity:1"/><stop offset="100%" style="stop-color:#6a1b9a;stop-opacity:1"/></linearGradient><filter id="b" width="140%" height="140%" x="-20%" y="-20%"><feDropShadow dx="2" dy="2" flood-color="#000" flood-opacity=".2" stdDeviation="2"/></filter></defs><path fill="#f8f9fa" stroke="#dee2e6" d="M0 0h800v600H0z"/><path fill="url(#a)" d="M0 0h800v60H0z"/><text x="400" y="35" fill="#fff" font-family="Arial, sans-serif" font-size="22" font-weight="bold" text-anchor="middle">
    Bransjespecifikke Regnskapsregler
  </text><rect width="340" height="220" x="50" y="90" fill="#e8f5e8" stroke="#388e3c" stroke-width="2" filter="url(#b)" rx="8"/><text x="220" y="115" fill="#388e3c" font-family="Arial, sans-serif" font-size="16" font-weight="bold" text-anchor="middle">
    Handel &amp; Varehandel
  </text><circle cx="80" cy="150" r="8" fill="#4caf50"/><text x="100" y="155" fill="#2e7d32" font-family="Arial, sans-serif" font-size="12">
    Lagerbeholdning - Verdivurdering
  </text><circle cx="80" cy="175" r="8" fill="#4caf50"/><text x="100" y="180" fill="#2e7d32" font-family="Arial, sans-serif" font-size="12">
    Varekostnad - FIFO/LIFO metoder
  </text><circle cx="80" cy="200" r="8" fill="#4caf50"/><text x="100" y="205" fill="#2e7d32" font-family="Arial, sans-serif" font-size="12">
    Kundefordringer - Tapsavsetninger
  </text><circle cx="80" cy="225" r="8" fill="#4caf50"/><text x="100" y="230" fill="#2e7d32" font-family="Arial, sans-serif" font-size="12">
    Leverandørgjeld - Kredittvilkår
  </text><circle cx="80" cy="250" r="8" fill="#4caf50"/><text x="100" y="255" fill="#2e7d32" font-family="Arial, sans-serif" font-size="12">
    Sesongvariasjoner i salg
  </text><circle cx="80" cy="275" r="8" fill="#4caf50"/><text x="100" y="280" fill="#2e7d32" font-family="Arial, sans-serif" font-size="12">
    Rabatter og bonusordninger
  </text><rect width="340" height="220" x="410" y="90" fill="#e3f2fd" stroke="#1976d2" stroke-width="2" filter="url(#b)" rx="8"/><text x="580" y="115" fill="#1976d2" font-family="Arial, sans-serif" font-size="16" font-weight="bold" text-anchor="middle">
    Tjenesteyting
  </text><circle cx="440" cy="150" r="8" fill="#2196f3"/><text x="460" y="155" fill="#1565c0" font-family="Arial, sans-serif" font-size="12">
    Tidsregistrering - Timebasert fakturering
  </text><circle cx="440" cy="175" r="8" fill="#2196f3"/><text x="460" y="180" fill="#1565c0" font-family="Arial, sans-serif" font-size="12">
    Prosjektregnskap - Separate kontoer
  </text><circle cx="440" cy="200" r="8" fill="#2196f3"/><text x="460" y="205" fill="#1565c0" font-family="Arial, sans-serif" font-size="12">
    Honorar - Periodisering av inntekt
  </text><circle cx="440" cy="225" r="8" fill="#2196f3"/><text x="460" y="230" fill="#1565c0" font-family="Arial, sans-serif" font-size="12">
    Forskuddsbetalinger fra kunder
  </text><circle cx="440" cy="250" r="8" fill="#2196f3"/><text x="460" y="255" fill="#1565c0" font-family="Arial, sans-serif" font-size="12">
    Immaterielle rettigheter
  </text><circle cx="440" cy="275" r="8" fill="#2196f3"/><text x="460" y="280" fill="#1565c0" font-family="Arial, sans-serif" font-size="12">
    Kvalitetssikring og garantier
  </text><rect width="340" height="220" x="50" y="330" fill="#fff3e0" stroke="#f57c00" stroke-width="2" filter="url(#b)" rx="8"/><text x="220" y="355" fill="#f57c00" font-family="Arial, sans-serif" font-size="16" font-weight="bold" text-anchor="middle">
    Industri &amp; Produksjon
  </text><circle cx="80" cy="390" r="8" fill="#ff9800"/><text x="100" y="395" fill="#ef6c00" font-family="Arial, sans-serif" font-size="12">
    Produksjonsregnskap - Kostnadskalkyle
  </text><circle cx="80" cy="415" r="8" fill="#ff9800"/><text x="100" y="420" fill="#ef6c00" font-family="Arial, sans-serif" font-size="12">
    Anleggsmidler - Maskiner og utstyr
  </text><circle cx="80" cy="440" r="8" fill="#ff9800"/><text x="100" y="445" fill="#ef6c00" font-family="Arial, sans-serif" font-size="12">
    Avskrivning - Lineær og degressiv
  </text><circle cx="80" cy="465" r="8" fill="#ff9800"/><text x="100" y="470" fill="#ef6c00" font-family="Arial, sans-serif" font-size="12">
    Råvarer og halvfabrikata
  </text><circle cx="80" cy="490" r="8" fill="#ff9800"/><text x="100" y="495" fill="#ef6c00" font-family="Arial, sans-serif" font-size="12">
    Kvalitetskontroll og svinn
  </text><circle cx="80" cy="515" r="8" fill="#ff9800"/><text x="100" y="520" fill="#ef6c00" font-family="Arial, sans-serif" font-size="12">
    Miljøkostnader og -avgifter
  </text><rect width="340" height="220" x="410" y="330" fill="#f3e5f5" stroke="#9c27b0" stroke-width="2" filter="url(#b)" rx="8"/><text x="580" y="355" fill="#9c27b0" font-family="Arial, sans-serif" font-size="16" font-weight="bold" text-anchor="middle">
    Primærnæringer
  </text><circle cx="440" cy="390" r="8" fill="#ba68c8"/><text x="460" y="395" fill="#7b1fa2" font-family="Arial, sans-serif" font-size="12">
    Jordbruksfradrag - Spesielle regler
  </text><circle cx="440" cy="415" r="8" fill="#ba68c8"/><text x="460" y="420" fill="#7b1fa2" font-family="Arial, sans-serif" font-size="12">
    Biologiske eiendeler - Levende dyr
  </text><circle cx="440" cy="440" r="8" fill="#ba68c8"/><text x="460" y="445" fill="#7b1fa2" font-family="Arial, sans-serif" font-size="12">
    Sesongvariasjoner - Høsting/fiske
  </text><circle cx="440" cy="465" r="8" fill="#ba68c8"/><text x="460" y="470" fill="#7b1fa2" font-family="Arial, sans-serif" font-size="12">
    Subsidier og tilskudd fra staten
  </text><circle cx="440" cy="490" r="8" fill="#ba68c8"/><text x="460" y="495" fill="#7b1fa2" font-family="Arial, sans-serif" font-size="12">
    Værrelaterte tap og forsikring
  </text><circle cx="440" cy="515" r="8" fill="#ba68c8"/><text x="460" y="520" fill="#7b1fa2" font-family="Arial, sans-serif" font-size="12">
    Kvotehandel og miljøsertifikater
  </text><text x="400" y="580" fill="#666" font-family="Arial, sans-serif" font-size="12" font-style="italic" text-anchor="middle">
    Hver næring har unike regnskapsutfordringer som krever spesialisert kunnskap
  </text></svg>