<svg width="800" height="600" xmlns="http://www.w3.org/2000/svg">
  <defs>
    <linearGradient id="headerGrad" x1="0%" y1="0%" x2="100%" y2="0%">
      <stop offset="0%" style="stop-color:#7b1fa2;stop-opacity:1" />
      <stop offset="100%" style="stop-color:#6a1b9a;stop-opacity:1" />
    </linearGradient>
    <filter id="shadow" x="-20%" y="-20%" width="140%" height="140%">
      <feDropShadow dx="2" dy="2" stdDeviation="2" flood-color="#000" flood-opacity="0.2"/>
    </filter>
  </defs>
  

  <rect width="800" height="600" fill="#f8f9fa" stroke="#dee2e6" stroke-width="1"/>
  

  <rect x="0" y="0" width="800" height="60" fill="url(#headerGrad)"/>
  <text x="400" y="35" font-family="Arial, sans-serif" font-size="22" font-weight="bold" text-anchor="middle" fill="white">
    Bransjespecifikke Regnskapsregler
  </text>
  

  <rect x="50" y="90" width="340" height="220" fill="#e8f5e8" stroke="#388e3c" stroke-width="2" rx="8" filter="url(#shadow)"/>
  <text x="220" y="115" font-family="Arial, sans-serif" font-size="16" font-weight="bold" text-anchor="middle" fill="#388e3c">
    Handel &amp; Varehandel
  </text>
  

  <circle cx="80" cy="150" r="8" fill="#4caf50"/>
  <text x="100" y="155" font-family="Arial, sans-serif" font-size="12" fill="#2e7d32">
    Lagerbeholdning - Verdivurdering
  </text>
  
  <circle cx="80" cy="175" r="8" fill="#4caf50"/>
  <text x="100" y="180" font-family="Arial, sans-serif" font-size="12" fill="#2e7d32">
    Varekostnad - FIFO/LIFO metoder
  </text>
  
  <circle cx="80" cy="200" r="8" fill="#4caf50"/>
  <text x="100" y="205" font-family="Arial, sans-serif" font-size="12" fill="#2e7d32">
    Kundefordringer - Tapsavsetninger
  </text>
  
  <circle cx="80" cy="225" r="8" fill="#4caf50"/>
  <text x="100" y="230" font-family="Arial, sans-serif" font-size="12" fill="#2e7d32">
    Leverandørgjeld - Kredittvilkår
  </text>
  
  <circle cx="80" cy="250" r="8" fill="#4caf50"/>
  <text x="100" y="255" font-family="Arial, sans-serif" font-size="12" fill="#2e7d32">
    Sesongvariasjoner i salg
  </text>
  
  <circle cx="80" cy="275" r="8" fill="#4caf50"/>
  <text x="100" y="280" font-family="Arial, sans-serif" font-size="12" fill="#2e7d32">
    Rabatter og bonusordninger
  </text>
  

  <rect x="410" y="90" width="340" height="220" fill="#e3f2fd" stroke="#1976d2" stroke-width="2" rx="8" filter="url(#shadow)"/>
  <text x="580" y="115" font-family="Arial, sans-serif" font-size="16" font-weight="bold" text-anchor="middle" fill="#1976d2">
    Tjenesteyting
  </text>
  

  <circle cx="440" cy="150" r="8" fill="#2196f3"/>
  <text x="460" y="155" font-family="Arial, sans-serif" font-size="12" fill="#1565c0">
    Tidsregistrering - Timebasert fakturering
  </text>
  
  <circle cx="440" cy="175" r="8" fill="#2196f3"/>
  <text x="460" y="180" font-family="Arial, sans-serif" font-size="12" fill="#1565c0">
    Prosjektregnskap - Separate kontoer
  </text>
  
  <circle cx="440" cy="200" r="8" fill="#2196f3"/>
  <text x="460" y="205" font-family="Arial, sans-serif" font-size="12" fill="#1565c0">
    Honorar - Periodisering av inntekt
  </text>
  
  <circle cx="440" cy="225" r="8" fill="#2196f3"/>
  <text x="460" y="230" font-family="Arial, sans-serif" font-size="12" fill="#1565c0">
    Forskuddsbetalinger fra kunder
  </text>
  
  <circle cx="440" cy="250" r="8" fill="#2196f3"/>
  <text x="460" y="255" font-family="Arial, sans-serif" font-size="12" fill="#1565c0">
    Immaterielle rettigheter
  </text>
  
  <circle cx="440" cy="275" r="8" fill="#2196f3"/>
  <text x="460" y="280" font-family="Arial, sans-serif" font-size="12" fill="#1565c0">
    Kvalitetssikring og garantier
  </text>
  

  <rect x="50" y="330" width="340" height="220" fill="#fff3e0" stroke="#f57c00" stroke-width="2" rx="8" filter="url(#shadow)"/>
  <text x="220" y="355" font-family="Arial, sans-serif" font-size="16" font-weight="bold" text-anchor="middle" fill="#f57c00">
    Industri &amp; Produksjon
  </text>
  

  <circle cx="80" cy="390" r="8" fill="#ff9800"/>
  <text x="100" y="395" font-family="Arial, sans-serif" font-size="12" fill="#ef6c00">
    Produksjonsregnskap - Kostnadskalkyle
  </text>
  
  <circle cx="80" cy="415" r="8" fill="#ff9800"/>
  <text x="100" y="420" font-family="Arial, sans-serif" font-size="12" fill="#ef6c00">
    Anleggsmidler - Maskiner og utstyr
  </text>
  
  <circle cx="80" cy="440" r="8" fill="#ff9800"/>
  <text x="100" y="445" font-family="Arial, sans-serif" font-size="12" fill="#ef6c00">
    Avskrivning - Lineær og degressiv
  </text>
  
  <circle cx="80" cy="465" r="8" fill="#ff9800"/>
  <text x="100" y="470" font-family="Arial, sans-serif" font-size="12" fill="#ef6c00">
    Råvarer og halvfabrikata
  </text>
  
  <circle cx="80" cy="490" r="8" fill="#ff9800"/>
  <text x="100" y="495" font-family="Arial, sans-serif" font-size="12" fill="#ef6c00">
    Kvalitetskontroll og svinn
  </text>
  
  <circle cx="80" cy="515" r="8" fill="#ff9800"/>
  <text x="100" y="520" font-family="Arial, sans-serif" font-size="12" fill="#ef6c00">
    Miljøkostnader og -avgifter
  </text>
  

  <rect x="410" y="330" width="340" height="220" fill="#f3e5f5" stroke="#9c27b0" stroke-width="2" rx="8" filter="url(#shadow)"/>
  <text x="580" y="355" font-family="Arial, sans-serif" font-size="16" font-weight="bold" text-anchor="middle" fill="#9c27b0">
    Primærnæringer
  </text>
  

  <circle cx="440" cy="390" r="8" fill="#ba68c8"/>
  <text x="460" y="395" font-family="Arial, sans-serif" font-size="12" fill="#7b1fa2">
    Jordbruksfradrag - Spesielle regler
  </text>
  
  <circle cx="440" cy="415" r="8" fill="#ba68c8"/>
  <text x="460" y="420" font-family="Arial, sans-serif" font-size="12" fill="#7b1fa2">
    Biologiske eiendeler - Levende dyr
  </text>
  
  <circle cx="440" cy="440" r="8" fill="#ba68c8"/>
  <text x="460" y="445" font-family="Arial, sans-serif" font-size="12" fill="#7b1fa2">
    Sesongvariasjoner - Høsting/fiske
  </text>
  
  <circle cx="440" cy="465" r="8" fill="#ba68c8"/>
  <text x="460" y="470" font-family="Arial, sans-serif" font-size="12" fill="#7b1fa2">
    Subsidier og tilskudd fra staten
  </text>
  
  <circle cx="440" cy="490" r="8" fill="#ba68c8"/>
  <text x="460" y="495" font-family="Arial, sans-serif" font-size="12" fill="#7b1fa2">
    Værrelaterte tap og forsikring
  </text>
  
  <circle cx="440" cy="515" r="8" fill="#ba68c8"/>
  <text x="460" y="520" font-family="Arial, sans-serif" font-size="12" fill="#7b1fa2">
    Kvotehandel og miljøsertifikater
  </text>
  

  <text x="400" y="580" font-family="Arial, sans-serif" font-size="12" font-style="italic" text-anchor="middle" fill="#666">
    Hver næring har unike regnskapsutfordringer som krever spesialisert kunnskap
  </text>
</svg>