<svg xmlns="http://www.w3.org/2000/svg" width="600" height="400"><defs><linearGradient id="a" x1="0%" x2="100%" y1="0%" y2="100%"><stop offset="0%" style="stop-color:#f8f9fa;stop-opacity:1"/><stop offset="100%" style="stop-color:#e9ecef;stop-opacity:1"/></linearGradient><linearGradient id="b" x1="0%" x2="100%" y1="0%" y2="0%"><stop offset="0%" style="stop-color:#06c;stop-opacity:1"/><stop offset="100%" style="stop-color:#049;stop-opacity:1"/></linearGradient></defs><rect width="600" height="400" fill="url(#a)" stroke="#dee2e6" stroke-width="2" rx="10"/><rect width="600" height="60" fill="url(#b)" rx="10"/><text x="300" y="35" fill="#fff" font-family="Arial, sans-serif" font-size="18" font-weight="bold" text-anchor="middle">
    Bokføringsplikt for Foreninger
  </text><g transform="translate(250 80)"><rect width="100" height="40" fill="#e9ecef" stroke="#6c757d" stroke-width="2" rx="5"/><text x="50" y="25" fill="#333" font-family="Arial, sans-serif" font-size="12" font-weight="bold" text-anchor="middle">
      Forening
    </text></g><path stroke="#6c757d" stroke-width="2" marker-end="url(#c)" d="M300 120v20"/><g transform="translate(50 150)"><rect width="150" height="60" fill="#fff3cd" stroke="#ffc107" stroke-width="2" rx="5"/><text x="75" y="25" fill="#333" font-family="Arial, sans-serif" font-size="12" font-weight="bold" text-anchor="middle">
      Omsetning over
    </text><text x="75" y="40" fill="#333" font-family="Arial, sans-serif" font-size="12" font-weight="bold" text-anchor="middle">
      5 mill. kr?
    </text></g><g transform="translate(225 150)"><rect width="150" height="60" fill="#fff3cd" stroke="#ffc107" stroke-width="2" rx="5"/><text x="75" y="25" fill="#333" font-family="Arial, sans-serif" font-size="12" font-weight="bold" text-anchor="middle">
      Driver
    </text><text x="75" y="40" fill="#333" font-family="Arial, sans-serif" font-size="12" font-weight="bold" text-anchor="middle">
      næringsvirksomhet?
    </text></g><g transform="translate(400 150)"><rect width="150" height="60" fill="#fff3cd" stroke="#ffc107" stroke-width="2" rx="5"/><text x="75" y="25" fill="#333" font-family="Arial, sans-serif" font-size="12" font-weight="bold" text-anchor="middle">
      Betydelige offentlige
    </text><text x="75" y="40" fill="#333" font-family="Arial, sans-serif" font-size="12" font-weight="bold" text-anchor="middle">
      tilskudd?
    </text></g><path stroke="#6c757d" stroke-width="2" d="m300 140-175 10M300 140v10M300 140l175 10"/><path stroke="#28a745" stroke-width="3" d="M125 210v40M300 210v40M475 210v40"/><text x="135" y="230" fill="#28a745" font-family="Arial, sans-serif" font-size="10" font-weight="bold">JA</text><text x="310" y="230" fill="#28a745" font-family="Arial, sans-serif" font-size="10" font-weight="bold">JA</text><text x="485" y="230" fill="#28a745" font-family="Arial, sans-serif" font-size="10" font-weight="bold">JA</text><g transform="translate(200 260)"><rect width="200" height="50" fill="#d4edda" stroke="#28a745" stroke-width="2" rx="5"/><text x="100" y="25" fill="#155724" font-family="Arial, sans-serif" font-size="14" font-weight="bold" text-anchor="middle">
      HAR BOKFØRINGSPLIKT
    </text><text x="100" y="40" fill="#155724" font-family="Arial, sans-serif" font-size="10" text-anchor="middle">
      Må følge bokføringsloven
    </text></g><g transform="translate(200 330)"><rect width="200" height="50" fill="#f8d7da" stroke="#dc3545" stroke-width="2" rx="5"/><text x="100" y="25" fill="#721c24" font-family="Arial, sans-serif" font-size="14" font-weight="bold" text-anchor="middle">
      INGEN BOKFØRINGSPLIKT
    </text><text x="100" y="40" fill="#721c24" font-family="Arial, sans-serif" font-size="10" text-anchor="middle">
      Men kan ha regnskapsplikt
    </text></g><path stroke="#dc3545" stroke-width="2" d="M300 310v20"/><text x="310" y="325" fill="#dc3545" font-family="Arial, sans-serif" font-size="10" font-weight="bold">NEI til alle</text><defs><marker id="c" markerHeight="7" markerWidth="10" orient="auto" refX="9" refY="3.5"><path fill="#6c757d" d="m0 0 10 3.5L0 7z"/></marker></defs></svg>