<svg xmlns="http://www.w3.org/2000/svg" width="800" height="400"><defs><linearGradient id="a" x1="0%" x2="100%" y1="0%" y2="0%"><stop offset="0%" style="stop-color:#2563eb;stop-opacity:1"/><stop offset="100%" style="stop-color:#1d4ed8;stop-opacity:1"/></linearGradient><linearGradient id="b" x1="0%" x2="0%" y1="0%" y2="100%"><stop offset="0%" style="stop-color:#f8fafc;stop-opacity:1"/><stop offset="100%" style="stop-color:#e2e8f0;stop-opacity:1"/></linearGradient></defs><path fill="#fff" d="M0 0h800v400H0z"/><path fill="url(#a)" d="M0 0h800v80H0z"/><text x="400" y="45" fill="#fff" font-family="Arial, sans-serif" font-size="28" font-weight="bold" text-anchor="middle">Inngående Balanse</text><path stroke="#64748b" stroke-width="3" d="M100 150h600"/><circle cx="200" cy="150" r="8" fill="#ef4444"/><text x="200" y="135" font-family="Arial, sans-serif" font-size="14" font-weight="bold" text-anchor="middle">År N-1</text><text x="200" y="175" font-family="Arial, sans-serif" font-size="12" text-anchor="middle">Forrige år</text><circle cx="400" cy="150" r="8" fill="#22c55e"/><text x="400" y="135" font-family="Arial, sans-serif" font-size="14" font-weight="bold" text-anchor="middle">1. Januar</text><text x="400" y="175" font-family="Arial, sans-serif" font-size="12" text-anchor="middle">Periodeskifte</text><circle cx="600" cy="150" r="8" fill="#3b82f6"/><text x="600" y="135" font-family="Arial, sans-serif" font-size="14" font-weight="bold" text-anchor="middle">År N</text><text x="600" y="175" font-family="Arial, sans-serif" font-size="12" text-anchor="middle">Nytt år</text><rect width="160" height="120" x="120" y="200" fill="url(#b)" stroke="#64748b" stroke-width="2" rx="8"/><text x="200" y="225" font-family="Arial, sans-serif" font-size="16" font-weight="bold" text-anchor="middle">Utgående Balanse</text><text x="200" y="245" font-family="Arial, sans-serif" font-size="14" text-anchor="middle">31. Desember</text><text x="200" y="265" font-family="Arial, sans-serif" font-size="12" text-anchor="middle">Aktiva: 5.000.000</text><text x="200" y="280" font-family="Arial, sans-serif" font-size="12" text-anchor="middle">Passiva: 5.000.000</text><text x="200" y="305" fill="#ef4444" font-family="Arial, sans-serif" font-size="12" text-anchor="middle">Avslutning av år N-1</text><path fill="none" stroke="#22c55e" stroke-width="4" marker-end="url(#c)" d="M290 260h60"/><defs><marker id="c" markerHeight="7" markerWidth="10" orient="auto" refX="9" refY="3.5"><path fill="#22c55e" d="m0 0 10 3.5L0 7z"/></marker></defs><rect width="160" height="120" x="520" y="200" fill="url(#b)" stroke="#64748b" stroke-width="2" rx="8"/><text x="600" y="225" font-family="Arial, sans-serif" font-size="16" font-weight="bold" text-anchor="middle">Inngående Balanse</text><text x="600" y="245" font-family="Arial, sans-serif" font-size="14" text-anchor="middle">1. Januar</text><text x="600" y="265" font-family="Arial, sans-serif" font-size="12" text-anchor="middle">Aktiva: 5.000.000</text><text x="600" y="280" font-family="Arial, sans-serif" font-size="12" text-anchor="middle">Passiva: 5.000.000</text><text x="600" y="305" fill="#3b82f6" font-family="Arial, sans-serif" font-size="12" text-anchor="middle">Start av år N</text><text x="400" y="260" fill="#22c55e" font-family="Arial, sans-serif" font-size="24" font-weight="bold" text-anchor="middle">=</text><text x="400" y="370" fill="#64748b" font-family="Arial, sans-serif" font-size="14" text-anchor="middle">Inngående balanse er identisk med utgående balanse fra forrige periode</text></svg>