<svg xmlns="http://www.w3.org/2000/svg" viewBox="0 0 1000 700"><path fill="#f8f9fa" d="M0 0h1000v700H0z"/><text x="500" y="30" fill="#2c3e50" font-family="Arial, sans-serif" font-size="24" font-weight="bold" text-anchor="middle">
    Internasjonale Tilbudsperspektiver
  </text><g fill="none" stroke="#bdc3c7" stroke-width="2"><path d="M150 200q50-20 100 0l50-20q50 10 100 0l50 20q50-20 100 0l50-20q50 10 100 0l50 20q50-20 100 0M200 300q50-20 100 0l50-20q50 10 100 0l50 20q50-20 100 0l50-20q50 10 100 0M300 400q50-20 100 0l50-20q50 10 100 0l50 20q50-20 100 0"/></g><g transform="translate(50 80)"><rect width="260" height="140" fill="#e8f4f8" stroke="#3498db" stroke-width="2" rx="10"/><text x="130" y="20" fill="#2c3e50" font-family="Arial, sans-serif" font-size="16" font-weight="bold" text-anchor="middle">
      NORDAMERIKA
    </text><text x="10" y="40" fill="#34495e" font-family="Arial, sans-serif" font-size="12">
      Karakteristika:
    </text><text x="10" y="55" fill="#34495e" font-family="Arial, sans-serif" font-size="11">
      • Direkte og konkurransefokusert
    </text><text x="10" y="68" fill="#34495e" font-family="Arial, sans-serif" font-size="11">
      • Korte beslutningstider
    </text><text x="10" y="81" fill="#34495e" font-family="Arial, sans-serif" font-size="11">
      • Juridisk orientert kontrakter
    </text><text x="10" y="94" fill="#34495e" font-family="Arial, sans-serif" font-size="11">
      • Høy grad av standardisering
    </text><text x="10" y="115" fill="#27ae60" font-family="Arial, sans-serif" font-size="12" font-weight="bold">
      Fokus: Effektivitet
    </text></g><g transform="translate(370 80)"><rect width="260" height="140" fill="#f8e8e8" stroke="#e74c3c" stroke-width="2" rx="10"/><text x="130" y="20" fill="#2c3e50" font-family="Arial, sans-serif" font-size="16" font-weight="bold" text-anchor="middle">
      EUROPA
    </text><text x="10" y="40" fill="#34495e" font-family="Arial, sans-serif" font-size="12">
      Karakteristika:
    </text><text x="10" y="55" fill="#34495e" font-family="Arial, sans-serif" font-size="11">
      • Regulatorisk kompleksitet
    </text><text x="10" y="68" fill="#34495e" font-family="Arial, sans-serif" font-size="11">
      • Sterke arbeidstakerrettigheter
    </text><text x="10" y="81" fill="#34495e" font-family="Arial, sans-serif" font-size="11">
      • Konsensusbaserte prosesser
    </text><text x="10" y="94" fill="#34495e" font-family="Arial, sans-serif" font-size="11">
      • Miljøkrav og bærekraft
    </text><text x="10" y="115" fill="#27ae60" font-family="Arial, sans-serif" font-size="12" font-weight="bold">
      Fokus: Compliance
    </text></g><g transform="translate(690 80)"><rect width="260" height="140" fill="#fff3e0" stroke="#ff9800" stroke-width="2" rx="10"/><text x="130" y="20" fill="#2c3e50" font-family="Arial, sans-serif" font-size="16" font-weight="bold" text-anchor="middle">
      ASIA-STILLEHAVET
    </text><text x="10" y="40" fill="#34495e" font-family="Arial, sans-serif" font-size="12">
      Karakteristika:
    </text><text x="10" y="55" fill="#34495e" font-family="Arial, sans-serif" font-size="11">
      • Relasjonsbyggende tilnærming
    </text><text x="10" y="68" fill="#34495e" font-family="Arial, sans-serif" font-size="11">
      • Hierarkiske beslutninger
    </text><text x="10" y="81" fill="#34495e" font-family="Arial, sans-serif" font-size="11">
      • Personlige møter viktig
    </text><text x="10" y="94" fill="#34495e" font-family="Arial, sans-serif" font-size="11">
      • Guanxi og nettverk
    </text><text x="10" y="115" fill="#27ae60" font-family="Arial, sans-serif" font-size="12" font-weight="bold">
      Fokus: Relasjoner
    </text></g><g transform="translate(50 280)"><rect width="400" height="180" fill="#f4f1ff" stroke="#9b59b6" stroke-width="2" rx="10"/><text x="200" y="20" fill="#2c3e50" font-family="Arial, sans-serif" font-size="16" font-weight="bold" text-anchor="middle">
      VALUTARISIKO OG SIKRING
    </text><circle cx="70" cy="50" r="20" fill="#3498db" opacity=".7"/><text x="70" y="56" fill="#fff" font-family="Arial, sans-serif" font-size="14" font-weight="bold" text-anchor="middle">$</text><circle cx="150" cy="50" r="20" fill="#e74c3c" opacity=".7"/><text x="150" y="56" fill="#fff" font-family="Arial, sans-serif" font-size="14" font-weight="bold" text-anchor="middle">€</text><circle cx="230" cy="50" r="20" fill="#f39c12" opacity=".7"/><text x="230" y="56" fill="#fff" font-family="Arial, sans-serif" font-size="14" font-weight="bold" text-anchor="middle">¥</text><circle cx="310" cy="50" r="20" fill="#27ae60" opacity=".7"/><text x="310" y="56" fill="#fff" font-family="Arial, sans-serif" font-size="14" font-weight="bold" text-anchor="middle">£</text><path fill="none" stroke="#e74c3c" stroke-width="2" marker-end="url(#a)" d="M100 70q50 20 100 0"/><path fill="none" stroke="#e74c3c" stroke-width="2" marker-end="url(#a)" d="M180 70q50 20 100 0"/><text x="10" y="100" fill="#34495e" font-family="Arial, sans-serif" font-size="12" font-weight="bold">
      Valutaeksponering:
    </text><text x="10" y="115" fill="#34495e" font-family="Arial, sans-serif" font-size="11">
      • Transaksjonsrisiko
    </text><text x="10" y="128" fill="#34495e" font-family="Arial, sans-serif" font-size="11">
      • Translationsrisiko
    </text><text x="10" y="141" fill="#34495e" font-family="Arial, sans-serif" font-size="11">
      • Økonomisk risiko
    </text><text x="210" y="100" fill="#34495e" font-family="Arial, sans-serif" font-size="12" font-weight="bold">
      Sikringsstrategier:
    </text><text x="210" y="115" fill="#34495e" font-family="Arial, sans-serif" font-size="11">
      • Valutaterminer
    </text><text x="210" y="128" fill="#34495e" font-family="Arial, sans-serif" font-size="11">
      • Opsjoner
    </text><text x="210" y="141" fill="#34495e" font-family="Arial, sans-serif" font-size="11">
      • Naturlig sikring
    </text><text x="210" y="154" fill="#34495e" font-family="Arial, sans-serif" font-size="11">
      • Prisindeksering
    </text></g><g transform="translate(500 280)"><rect width="450" height="180" fill="#f0f8f0" stroke="#27ae60" stroke-width="2" rx="10"/><text x="225" y="20" fill="#2c3e50" font-family="Arial, sans-serif" font-size="16" font-weight="bold" text-anchor="middle">
      REGULATORISKE FORSKJELLER
    </text><path fill="#34495e" d="M10 30h80v25H10zM90 30h120v25H90zM210 30h120v25H210zM330 30h110v25H330z"/><text x="50" y="47" fill="#fff" font-family="Arial, sans-serif" font-size="10" font-weight="bold" text-anchor="middle">Region</text><text x="150" y="47" fill="#fff" font-family="Arial, sans-serif" font-size="10" font-weight="bold" text-anchor="middle">Hovedfokus</text><text x="270" y="47" fill="#fff" font-family="Arial, sans-serif" font-size="10" font-weight="bold" text-anchor="middle">Typiske Krav</text><text x="385" y="47" fill="#fff" font-family="Arial, sans-serif" font-size="10" font-weight="bold" text-anchor="middle">Spesielle Hensyn</text><path fill="#e8f4f8" d="M10 55h80v25H10zM90 55h120v25H90zM210 55h120v25H210zM330 55h110v25H330z"/><text x="50" y="72" fill="#2c3e50" font-family="Arial, sans-serif" font-size="9" text-anchor="middle">EU</text><text x="150" y="72" fill="#2c3e50" font-family="Arial, sans-serif" font-size="9" text-anchor="middle">Åpenhet</text><text x="270" y="72" fill="#2c3e50" font-family="Arial, sans-serif" font-size="9" text-anchor="middle">GDPR, Anskaffelser</text><text x="385" y="72" fill="#2c3e50" font-family="Arial, sans-serif" font-size="9" text-anchor="middle">Digital Single Market</text><path fill="#f8e8e8" d="M10 80h80v25H10zM90 80h120v25H90zM210 80h120v25H210zM330 80h110v25H330z"/><text x="50" y="97" fill="#2c3e50" font-family="Arial, sans-serif" font-size="9" text-anchor="middle">USA</text><text x="150" y="97" fill="#2c3e50" font-family="Arial, sans-serif" font-size="9" text-anchor="middle">Innovasjon</text><text x="270" y="97" fill="#2c3e50" font-family="Arial, sans-serif" font-size="9" text-anchor="middle">SEC, Antitrust</text><text x="385" y="97" fill="#2c3e50" font-family="Arial, sans-serif" font-size="9" text-anchor="middle">Buy American Act</text><path fill="#fff3e0" d="M10 105h80v25H10zM90 105h120v25H90zM210 105h120v25H210zM330 105h110v25H330z"/><text x="50" y="122" fill="#2c3e50" font-family="Arial, sans-serif" font-size="9" text-anchor="middle">Asia</text><text x="150" y="122" fill="#2c3e50" font-family="Arial, sans-serif" font-size="9" text-anchor="middle">Relasjoner</text><text x="270" y="122" fill="#2c3e50" font-family="Arial, sans-serif" font-size="9" text-anchor="middle">Lokalt innhold</text><text x="385" y="122" fill="#2c3e50" font-family="Arial, sans-serif" font-size="9" text-anchor="middle">Guanxi nettverk</text><path fill="#f4f1ff" d="M10 130h80v25H10zM90 130h120v25H90zM210 130h120v25H210zM330 130h110v25H330z"/><text x="50" y="147" fill="#2c3e50" font-family="Arial, sans-serif" font-size="9" text-anchor="middle">Midt-Østen</text><text x="150" y="147" fill="#2c3e50" font-family="Arial, sans-serif" font-size="9" text-anchor="middle">Sikkerhet</text><text x="270" y="147" fill="#2c3e50" font-family="Arial, sans-serif" font-size="9" text-anchor="middle">Islamsk finans</text><text x="385" y="147" fill="#2c3e50" font-family="Arial, sans-serif" font-size="9" text-anchor="middle">Geopolitisk risiko</text><g fill="none" stroke="#bdc3c7"><path d="M10 30h430M10 55h430M10 80h430M10 105h430M10 130h430M10 155h430M90 30v125M210 30v125M330 30v125"/></g></g><g transform="translate(50 510)"><rect width="900" height="120" fill="#f8f9fa" stroke="#6c757d" stroke-width="2" rx="10"/><text x="450" y="20" fill="#2c3e50" font-family="Arial, sans-serif" font-size="16" font-weight="bold" text-anchor="middle">
      NØKKELFAKTORER FOR INTERNASJONALE TILBUD
    </text><g transform="translate(20 30)"><rect width="200" height="70" fill="#e8f5e8" stroke="#27ae60" rx="5"/><text x="100" y="15" fill="#27ae60" font-family="Arial, sans-serif" font-size="12" font-weight="bold" text-anchor="middle">
        Kulturell Tilpasning
      </text><text x="10" y="30" fill="#34495e" font-family="Arial, sans-serif" font-size="10">• Respekt for lokale normer</text><text x="10" y="43" fill="#34495e" font-family="Arial, sans-serif" font-size="10">• Språklig tilpasning</text><text x="10" y="56" fill="#34495e" font-family="Arial, sans-serif" font-size="10">• Relasjonsbygging</text></g><g transform="translate(240 30)"><rect width="200" height="70" fill="#e8f4f8" stroke="#3498db" rx="5"/><text x="100" y="15" fill="#3498db" font-family="Arial, sans-serif" font-size="12" font-weight="bold" text-anchor="middle">
        Risikostyring
      </text><text x="10" y="30" fill="#34495e" font-family="Arial, sans-serif" font-size="10">• Valutasikring</text><text x="10" y="43" fill="#34495e" font-family="Arial, sans-serif" font-size="10">• Politisk risiko</text><text x="10" y="56" fill="#34495e" font-family="Arial, sans-serif" font-size="10">• Kontraktsikring</text></g><g transform="translate(460 30)"><rect width="200" height="70" fill="#fff3e0" stroke="#ff9800" rx="5"/><text x="100" y="15" fill="#ff9800" font-family="Arial, sans-serif" font-size="12" font-weight="bold" text-anchor="middle">
        Regulatorisk Etterlevelse
      </text><text x="10" y="30" fill="#34495e" font-family="Arial, sans-serif" font-size="10">• Lokale krav</text><text x="10" y="43" fill="#34495e" font-family="Arial, sans-serif" font-size="10">• Dokumentasjon</text><text x="10" y="56" fill="#34495e" font-family="Arial, sans-serif" font-size="10">• Compliance</text></g><g transform="translate(680 30)"><rect width="200" height="70" fill="#f8e8e8" stroke="#e74c3c" rx="5"/><text x="100" y="15" fill="#e74c3c" font-family="Arial, sans-serif" font-size="12" font-weight="bold" text-anchor="middle">
        Strategisk Partnering
      </text><text x="10" y="30" fill="#34495e" font-family="Arial, sans-serif" font-size="10">• Lokale partnere</text><text x="10" y="43" fill="#34495e" font-family="Arial, sans-serif" font-size="10">• Joint ventures</text><text x="10" y="56" fill="#34495e" font-family="Arial, sans-serif" font-size="10">• Nettverk</text></g></g><text x="500" y="680" fill="#7f8c8d" font-family="Arial, sans-serif" font-size="12" font-style="italic" text-anchor="middle">
    Internasjonale tilbud krever dyptgående forståelse av lokale markedsbetingelser og kulturelle forskjeller
  </text><defs><marker id="a" markerHeight="7" markerWidth="10" orient="auto" refX="9" refY="3.5"><path fill="#e74c3c" d="m0 0 10 3.5L0 7z"/></marker></defs></svg>