<svg xmlns="http://www.w3.org/2000/svg" width="1000" height="800" viewBox="0 0 1000 800"><path fill="#f8f9fa" d="M0 0h1000v800H0z"/><text x="500" y="40" fill="#2c3e50" font-family="Arial, sans-serif" font-size="24" font-weight="bold" text-anchor="middle">Tilbuds KPI Dashboard</text><rect width="200" height="120" x="50" y="70" fill="#27ae60" stroke="#229954" stroke-width="2" rx="10"/><text x="150" y="100" fill="#fff" font-family="Arial, sans-serif" font-size="14" font-weight="bold" text-anchor="middle">VINNRATE</text><text x="150" y="130" fill="#fff" font-family="Arial, sans-serif" font-size="36" font-weight="bold" text-anchor="middle">24%</text><text x="150" y="150" fill="#fff" font-family="Arial, sans-serif" font-size="12" text-anchor="middle">↑ 3% vs. forrige kvartal</text><text x="150" y="170" fill="#d5f4e6" font-family="Arial, sans-serif" font-size="10" text-anchor="middle">Mål: 30%</text><rect width="200" height="120" x="270" y="70" fill="#3498db" stroke="#2980b9" stroke-width="2" rx="10"/><text x="370" y="100" fill="#fff" font-family="Arial, sans-serif" font-size="14" font-weight="bold" text-anchor="middle">GJENNOMSNITTLIG</text><text x="370" y="115" fill="#fff" font-family="Arial, sans-serif" font-size="14" font-weight="bold" text-anchor="middle">TILBUDSVERDI</text><text x="370" y="145" fill="#fff" font-family="Arial, sans-serif" font-size="28" font-weight="bold" text-anchor="middle">2.5M</text><text x="370" y="165" fill="#fff" font-family="Arial, sans-serif" font-size="12" text-anchor="middle">↑ 12% vs. forrige måned</text><text x="370" y="180" fill="#ebf3fd" font-family="Arial, sans-serif" font-size="10" text-anchor="middle">NOK per tilbud</text><rect width="200" height="120" x="490" y="70" fill="#f39c12" stroke="#e67e22" stroke-width="2" rx="10"/><text x="590" y="100" fill="#fff" font-family="Arial, sans-serif" font-size="14" font-weight="bold" text-anchor="middle">PIPELINE VERDI</text><text x="590" y="130" fill="#fff" font-family="Arial, sans-serif" font-size="32" font-weight="bold" text-anchor="middle">47M</text><text x="590" y="150" fill="#fff" font-family="Arial, sans-serif" font-size="12" text-anchor="middle">↑ 8% vs. forrige måned</text><text x="590" y="170" fill="#fef5e7" font-family="Arial, sans-serif" font-size="10" text-anchor="middle">19 aktive tilbud</text><rect width="200" height="120" x="710" y="70" fill="#e74c3c" stroke="#c0392b" stroke-width="2" rx="10"/><text x="810" y="100" fill="#fff" font-family="Arial, sans-serif" font-size="14" font-weight="bold" text-anchor="middle">TILBUDSTID</text><text x="810" y="130" fill="#fff" font-family="Arial, sans-serif" font-size="32" font-weight="bold" text-anchor="middle">3.2</text><text x="810" y="150" fill="#fff" font-family="Arial, sans-serif" font-size="12" text-anchor="middle">↓ 0.8 uker</text><text x="810" y="170" fill="#fadbd8" font-family="Arial, sans-serif" font-size="10" text-anchor="middle">Gjennomsnitt i uker</text><rect width="200" height="120" x="50" y="210" fill="#9b59b6" stroke="#8e44ad" stroke-width="2" rx="10"/><text x="150" y="240" fill="#fff" font-family="Arial, sans-serif" font-size="14" font-weight="bold" text-anchor="middle">KOSTNAD PER</text><text x="150" y="255" fill="#fff" font-family="Arial, sans-serif" font-size="14" font-weight="bold" text-anchor="middle">TILBUD</text><text x="150" y="285" fill="#fff" font-family="Arial, sans-serif" font-size="28" font-weight="bold" text-anchor="middle">75K</text><text x="150" y="305" fill="#fff" font-family="Arial, sans-serif" font-size="12" text-anchor="middle">↓ 15K vs. Q1</text><text x="150" y="320" fill="#e8daef" font-family="Arial, sans-serif" font-size="10" text-anchor="middle">3% av tilbudsverdi</text><rect width="200" height="120" x="270" y="210" fill="#1abc9c" stroke="#16a085" stroke-width="2" rx="10"/><text x="370" y="240" fill="#fff" font-family="Arial, sans-serif" font-size="14" font-weight="bold" text-anchor="middle">GJENNOMSNITTLIG</text><text x="370" y="255" fill="#fff" font-family="Arial, sans-serif" font-size="14" font-weight="bold" text-anchor="middle">MARGIN</text><text x="370" y="285" fill="#fff" font-family="Arial, sans-serif" font-size="32" font-weight="bold" text-anchor="middle">18%</text><text x="370" y="305" fill="#fff" font-family="Arial, sans-serif" font-size="12" text-anchor="middle">↑ 2% vs. målsetting</text><text x="370" y="320" fill="#d1f2eb" font-family="Arial, sans-serif" font-size="10" text-anchor="middle">På vunnede tilbud</text><rect width="200" height="120" x="490" y="210" fill="#f1c40f" stroke="#f39c12" stroke-width="2" rx="10"/><text x="590" y="240" fill="#fff" font-family="Arial, sans-serif" font-size="14" font-weight="bold" text-anchor="middle">KONVERTERINGSRATE</text><text x="590" y="270" fill="#fff" font-family="Arial, sans-serif" font-size="32" font-weight="bold" text-anchor="middle">42%</text><text x="590" y="290" fill="#fff" font-family="Arial, sans-serif" font-size="12" text-anchor="middle">Fra forespørsel til tilbud</text><text x="590" y="310" fill="#fcf3cf" font-family="Arial, sans-serif" font-size="10" text-anchor="middle">87 av 207 forespørsler</text><rect width="200" height="120" x="710" y="210" fill="#34495e" stroke="#2c3e50" stroke-width="2" rx="10"/><text x="810" y="240" fill="#fff" font-family="Arial, sans-serif" font-size="14" font-weight="bold" text-anchor="middle">ROI TILBUD</text><text x="810" y="270" fill="#fff" font-family="Arial, sans-serif" font-size="32" font-weight="bold" text-anchor="middle">320%</text><text x="810" y="290" fill="#fff" font-family="Arial, sans-serif" font-size="12" text-anchor="middle">Avkastning på investering</text><text x="810" y="310" fill="#d5d8dc" font-family="Arial, sans-serif" font-size="10" text-anchor="middle">Inntekt vs. tilbudskostnad</text><text x="50" y="370" fill="#2c3e50" font-family="Arial, sans-serif" font-size="18" font-weight="bold">Trend Analyser</text><rect width="280" height="180" x="50" y="390" fill="#fff" stroke="#bdc3c7" stroke-width="2" rx="5"/><text x="190" y="415" fill="#2c3e50" font-family="Arial, sans-serif" font-size="14" font-weight="bold" text-anchor="middle">Vinnrate Trend (12 måneder)</text><path stroke="#34495e" d="M80 540h230M80 440v100"/><text x="75" y="445" fill="#7f8c8d" font-family="Arial, sans-serif" font-size="10" text-anchor="end">30%</text><text x="75" y="470" fill="#7f8c8d" font-family="Arial, sans-serif" font-size="10" text-anchor="end">25%</text><text x="75" y="495" fill="#7f8c8d" font-family="Arial, sans-serif" font-size="10" text-anchor="end">20%</text><text x="75" y="520" fill="#7f8c8d" font-family="Arial, sans-serif" font-size="10" text-anchor="end">15%</text><text x="75" y="545" fill="#7f8c8d" font-family="Arial, sans-serif" font-size="10" text-anchor="end">10%</text><path fill="none" stroke="#27ae60" stroke-width="3" d="m90 520 20-5 20-5 20-5 20-5 20-15 20-15 20-10 20-5 20-5 20-2 20-3"/><circle cx="90" cy="520" r="3" fill="#27ae60"/><circle cx="130" cy="510" r="3" fill="#27ae60"/><circle cx="170" cy="500" r="3" fill="#27ae60"/><circle cx="210" cy="470" r="3" fill="#27ae60"/><circle cx="250" cy="455" r="3" fill="#27ae60"/><circle cx="290" cy="448" r="3" fill="#27ae60"/><text x="90" y="555" fill="#7f8c8d" font-family="Arial, sans-serif" font-size="9" text-anchor="middle">Jan</text><text x="150" y="555" fill="#7f8c8d" font-family="Arial, sans-serif" font-size="9" text-anchor="middle">Apr</text><text x="210" y="555" fill="#7f8c8d" font-family="Arial, sans-serif" font-size="9" text-anchor="middle">Jul</text><text x="270" y="555" fill="#7f8c8d" font-family="Arial, sans-serif" font-size="9" text-anchor="middle">Okt</text><rect width="280" height="180" x="350" y="390" fill="#fff" stroke="#bdc3c7" stroke-width="2" rx="5"/><text x="490" y="415" fill="#2c3e50" font-family="Arial, sans-serif" font-size="14" font-weight="bold" text-anchor="middle">Pipeline Fordeling</text><circle cx="490" cy="485" r="60" fill="#3498db" stroke="#fff" stroke-width="2"/><path fill="#e74c3c" d="M490 425a60 60 0 0 1 40 35l-40 25Z"/><path fill="#f39c12" d="M530 460a60 60 0 0 1-10 60l-30-35Z"/><path fill="#27ae60" d="M520 520a60 60 0 0 1-60 0l30-35Z"/><path fill="#9b59b6" d="M460 520a60 60 0 0 1-10-60l40 25Z"/><path fill="#3498db" d="M450 460a60 60 0 1 1 40-35v60ZM570 430h12v12h-12z"/><text x="590" y="441" fill="#2c3e50" font-family="Arial, sans-serif" font-size="11">Kvalifisert (35%)</text><path fill="#e74c3c" d="M570 450h12v12h-12z"/><text x="590" y="461" fill="#2c3e50" font-family="Arial, sans-serif" font-size="11">Forhandling (20%)</text><path fill="#f39c12" d="M570 470h12v12h-12z"/><text x="590" y="481" fill="#2c3e50" font-family="Arial, sans-serif" font-size="11">Evaluering (15%)</text><path fill="#27ae60" d="M570 490h12v12h-12z"/><text x="590" y="501" fill="#2c3e50" font-family="Arial, sans-serif" font-size="11">Beslutning (18%)</text><path fill="#9b59b6" d="M570 510h12v12h-12z"/><text x="590" y="521" fill="#2c3e50" font-family="Arial, sans-serif" font-size="11">Kontrakt (12%)</text><rect width="300" height="180" x="650" y="390" fill="#fff" stroke="#bdc3c7" stroke-width="2" rx="5"/><text x="800" y="415" fill="#2c3e50" font-family="Arial, sans-serif" font-size="14" font-weight="bold" text-anchor="middle">Ytelse per Sektor</text><text x="670" y="440" fill="#2c3e50" font-family="Arial, sans-serif" font-size="11">Offentlig</text><path fill="#3498db" d="M720 430h80v15h-80z"/><text x="810" y="442" fill="#2c3e50" font-family="Arial, sans-serif" font-size="10">32%</text><text x="670" y="465" fill="#2c3e50" font-family="Arial, sans-serif" font-size="11">Privat</text><path fill="#27ae60" d="M720 455h60v15h-60z"/><text x="790" y="467" fill="#2c3e50" font-family="Arial, sans-serif" font-size="10">24%</text><text x="670" y="490" fill="#2c3e50" font-family="Arial, sans-serif" font-size="11">Industri</text><path fill="#f39c12" d="M720 480h45v15h-45z"/><text x="775" y="492" fill="#2c3e50" font-family="Arial, sans-serif" font-size="10">18%</text><text x="670" y="515" fill="#2c3e50" font-family="Arial, sans-serif" font-size="11">IT/Tech</text><path fill="#e74c3c" d="M720 505h100v15H720z"/><text x="830" y="517" fill="#2c3e50" font-family="Arial, sans-serif" font-size="10">40%</text><text x="670" y="540" fill="#2c3e50" font-family="Arial, sans-serif" font-size="11">Konsulent</text><path fill="#9b59b6" d="M720 530h70v15h-70z"/><text x="800" y="542" fill="#2c3e50" font-family="Arial, sans-serif" font-size="10">28%</text><text x="50" y="600" fill="#2c3e50" font-family="Arial, sans-serif" font-size="18" font-weight="bold">Handlingsplaner basert på KPIer</text><rect width="280" height="80" x="50" y="620" fill="#fdf2e9" stroke="#e67e22" stroke-width="2" rx="5"/><text x="190" y="645" fill="#d35400" font-family="Arial, sans-serif" font-size="14" font-weight="bold" text-anchor="middle">HØY PRIORITET</text><text x="70" y="665" fill="#2c3e50" font-family="Arial, sans-serif" font-size="11">• Øk vinnrate til 30% (nå 24%)</text><text x="70" y="680" fill="#2c3e50" font-family="Arial, sans-serif" font-size="11">• Reduser tilbudstid til 2.5 uker</text><text x="70" y="695" fill="#2c3e50" font-family="Arial, sans-serif" font-size="11">• Forbedre kvalifiseringsprosessen</text><rect width="280" height="80" x="350" y="620" fill="#eaf2f8" stroke="#3498db" stroke-width="2" rx="5"/><text x="490" y="645" fill="#2980b9" font-family="Arial, sans-serif" font-size="14" font-weight="bold" text-anchor="middle">MEDIUM PRIORITET</text><text x="370" y="665" fill="#2c3e50" font-family="Arial, sans-serif" font-size="11">• Standardisér tilbudsmaler</text><text x="370" y="680" fill="#2c3e50" font-family="Arial, sans-serif" font-size="11">• Implementer CPQ-system</text><text x="370" y="695" fill="#2c3e50" font-family="Arial, sans-serif" font-size="11">• Øk fokus på høymargin segmenter</text><rect width="300" height="80" x="650" y="620" fill="#eafaf1" stroke="#27ae60" stroke-width="2" rx="5"/><text x="800" y="645" fill="#229954" font-family="Arial, sans-serif" font-size="14" font-weight="bold" text-anchor="middle">OPPFØLGING</text><text x="670" y="665" fill="#2c3e50" font-family="Arial, sans-serif" font-size="11">• Månedlig review av pipeline kvalitet</text><text x="670" y="680" fill="#2c3e50" font-family="Arial, sans-serif" font-size="11">• Kvartalsvis konkurranseanalyse</text><text x="670" y="695" fill="#2c3e50" font-family="Arial, sans-serif" font-size="11">• Kontinuerlig forbedring av prosesser</text><text x="50" y="740" fill="#7f8c8d" font-family="Arial, sans-serif" font-size="12">Datagrunnlag: Siste 12 måneder | Oppdatert: {dato} | Neste review: {dato}</text><text x="50" y="760" fill="#7f8c8d" font-family="Arial, sans-serif" font-size="12">Kilde: CRM-system, ERP, og manuelle registreringer | Ansvarlig: Salgsledelse</text></svg>