<svg xmlns="http://www.w3.org/2000/svg" width="800" height="500"><path fill="#f8f9fa" d="M0 0h800v500H0z"/><text x="400" y="30" fill="#2c3e50" font-family="Arial, sans-serif" font-size="24" font-weight="bold" text-anchor="middle">
    Fremtidens Formuesverdivurdering med Teknologi
  </text><text x="200" y="70" fill="#7f8c8d" font-family="Arial, sans-serif" font-size="16" font-weight="bold" text-anchor="middle">
    TRADISJONELL METODE
  </text><text x="600" y="70" fill="#3498db" font-family="Arial, sans-serif" font-size="16" font-weight="bold" text-anchor="middle">
    DIGITAL METODE
  </text><rect width="300" height="180" x="50" y="90" fill="#f8f9fa" stroke="#7f8c8d" stroke-width="2" rx="8"/><rect width="40" height="30" x="70" y="110" fill="#ecf0f1" stroke="#95a5a6" rx="3"/><text x="90" y="130" fill="#2c3e50" font-family="Arial, sans-serif" font-size="10" text-anchor="middle">Papir</text><circle cx="150" cy="125" r="15" fill="#e74c3c"/><text x="150" y="130" fill="#fff" font-family="Arial, sans-serif" font-size="10" font-weight="bold" text-anchor="middle">👤</text><rect width="40" height="30" x="190" y="110" fill="#f39c12" stroke="#e67e22" rx="3"/><text x="210" y="130" fill="#fff" font-family="Arial, sans-serif" font-size="10" text-anchor="middle">Kalk</text><text x="70" y="160" fill="#2c3e50" font-family="Arial, sans-serif" font-size="11">• Manuell datainnsamling</text><text x="70" y="175" fill="#2c3e50" font-family="Arial, sans-serif" font-size="11">• Tidkrevende prosesser</text><text x="70" y="190" fill="#2c3e50" font-family="Arial, sans-serif" font-size="11">• Risiko for feil</text><text x="70" y="205" fill="#2c3e50" font-family="Arial, sans-serif" font-size="11">• Begrenset oppdatering</text><text x="70" y="220" fill="#2c3e50" font-family="Arial, sans-serif" font-size="11">• Subjektive vurderinger</text><rect width="260" height="20" x="70" y="240" fill="#e74c3c" rx="3"/><text x="200" y="255" fill="#fff" font-family="Arial, sans-serif" font-size="11" font-weight="bold" text-anchor="middle">
    Langsom og feilutsatt
  </text><rect width="300" height="180" x="450" y="90" fill="#ebf3fd" stroke="#3498db" stroke-width="2" rx="8"/><rect width="30" height="20" x="470" y="110" fill="#3498db" rx="2"/><rect width="20" height="10" x="475" y="115" fill="#fff" rx="1"/><circle cx="530" cy="125" r="15" fill="#2ecc71"/><text x="530" y="130" fill="#fff" font-family="Arial, sans-serif" font-size="8" text-anchor="middle">AI</text><rect width="30" height="20" x="570" y="110" fill="#9b59b6" rx="2"/><circle cx="585" cy="120" r="3" fill="#fff"/><circle cx="585" cy="120" r="6" fill="none" stroke="#fff"/><rect width="30" height="20" x="620" y="110" fill="#f39c12" rx="2"/><path stroke="#fff" stroke-width="2" d="M630 115h10m-5 5v5"/><text x="470" y="160" fill="#2c3e50" font-family="Arial, sans-serif" font-size="11">• Automatisert datainnhenting</text><text x="470" y="175" fill="#2c3e50" font-family="Arial, sans-serif" font-size="11">• Sanntidsoppdatering</text><text x="470" y="190" fill="#2c3e50" font-family="Arial, sans-serif" font-size="11">• AI-basert analyse</text><text x="470" y="205" fill="#2c3e50" font-family="Arial, sans-serif" font-size="11">• Prediktive modeller</text><text x="470" y="220" fill="#2c3e50" font-family="Arial, sans-serif" font-size="11">• Objektive algoritmer</text><rect width="260" height="20" x="470" y="240" fill="#27ae60" rx="3"/><text x="600" y="255" fill="#fff" font-family="Arial, sans-serif" font-size="11" font-weight="bold" text-anchor="middle">
    Rask og nøyaktig
  </text><path stroke="#3498db" stroke-width="4" marker-end="url(#a)" d="M350 180h100"/><text x="400" y="175" fill="#3498db" font-family="Arial, sans-serif" font-size="12" font-weight="bold" text-anchor="middle">
    DIGITALISERING
  </text><defs><marker id="a" markerHeight="8" markerWidth="12" orient="auto" refX="11" refY="4"><path fill="#3498db" d="m0 0 12 4L0 8z"/></marker></defs><rect width="700" height="170" x="50" y="300" fill="#fff" stroke="#dee2e6" rx="8"/><text x="400" y="325" fill="#2c3e50" font-family="Arial, sans-serif" font-size="18" font-weight="bold" text-anchor="middle">
    Teknologiske Innovasjoner
  </text><rect width="150" height="110" x="70" y="340" fill="#f8f9fa" stroke="#6c757d" rx="5"/><text x="145" y="360" fill="#6c757d" font-family="Arial, sans-serif" font-size="12" font-weight="bold" text-anchor="middle">
    BLOCKCHAIN
  </text><path fill="#6c757d" d="M135 370h8v8h-8zM145 370h8v8h-8zM155 370h8v8h-8z"/><path stroke="#6c757d" d="M143 374h2m8 0h2"/><text x="80" y="395" fill="#2c3e50" font-family="Arial, sans-serif" font-size="10">• Sikker lagring</text><text x="80" y="410" fill="#2c3e50" font-family="Arial, sans-serif" font-size="10">• Transparent historikk</text><text x="80" y="425" fill="#2c3e50" font-family="Arial, sans-serif" font-size="10">• Kryptovaluta-verdier</text><text x="80" y="440" fill="#2c3e50" font-family="Arial, sans-serif" font-size="10">• Smart contracts</text><rect width="150" height="110" x="240" y="340" fill="#e8f5e8" stroke="#28a745" rx="5"/><text x="315" y="360" fill="#28a745" font-family="Arial, sans-serif" font-size="12" font-weight="bold" text-anchor="middle">
    AI / MACHINE LEARNING
  </text><circle cx="315" cy="380" r="8" fill="#28a745"/><circle cx="310" cy="377" r="1" fill="#fff"/><circle cx="320" cy="377" r="1" fill="#fff"/><path fill="none" stroke="#fff" d="M310 383q5 2 10 0"/><text x="250" y="395" fill="#2c3e50" font-family="Arial, sans-serif" font-size="10">• Automatisk verdivurdering</text><text x="250" y="410" fill="#2c3e50" font-family="Arial, sans-serif" font-size="10">• Mønstergjenkjenning</text><text x="250" y="425" fill="#2c3e50" font-family="Arial, sans-serif" font-size="10">• Prediktive modeller</text><text x="250" y="440" fill="#2c3e50" font-family="Arial, sans-serif" font-size="10">• Risikoevaluering</text><rect width="150" height="110" x="410" y="340" fill="#fff3cd" stroke="#ffc107" rx="5"/><text x="485" y="360" fill="#856404" font-family="Arial, sans-serif" font-size="12" font-weight="bold" text-anchor="middle">
    INTERNET OF THINGS
  </text><circle cx="485" cy="380" r="3" fill="#ffc107"/><circle cx="475" cy="375" r="2" fill="#ffc107"/><circle cx="495" cy="375" r="2" fill="#ffc107"/><circle cx="480" cy="385" r="2" fill="#ffc107"/><circle cx="490" cy="385" r="2" fill="#ffc107"/><path stroke="#ffc107" d="m485 377-10-2m10 2 10-2m-10 8-5 2m5-2 5 2"/><text x="420" y="395" fill="#2c3e50" font-family="Arial, sans-serif" font-size="10">• Sanntidsdata</text><text x="420" y="410" fill="#2c3e50" font-family="Arial, sans-serif" font-size="10">• Tilstandsovervåking</text><text x="420" y="425" fill="#2c3e50" font-family="Arial, sans-serif" font-size="10">• Automatisk rapportering</text><text x="420" y="440" fill="#2c3e50" font-family="Arial, sans-serif" font-size="10">• Vedlikeholdsprediksjon</text><rect width="150" height="110" x="580" y="340" fill="#d1ecf1" stroke="#17a2b8" rx="5"/><text x="655" y="360" fill="#0c5460" font-family="Arial, sans-serif" font-size="12" font-weight="bold" text-anchor="middle">
    BIG DATA ANALYTICS
  </text><rect width="20" height="15" x="645" y="370" fill="none" stroke="#17a2b8" rx="2"/><path fill="#17a2b8" d="M648 373h3v9h-3zM652 375h3v7h-3zM656 377h3v5h-3zM660 379h3v3h-3z"/><text x="590" y="395" fill="#2c3e50" font-family="Arial, sans-serif" font-size="10">• Markedsanalyse</text><text x="590" y="410" fill="#2c3e50" font-family="Arial, sans-serif" font-size="10">• Trendidentifikasjon</text><text x="590" y="425" fill="#2c3e50" font-family="Arial, sans-serif" font-size="10">• Komparativ analyse</text><text x="590" y="440" fill="#2c3e50" font-family="Arial, sans-serif" font-size="10">• Scenariomodellering</text><text x="400" y="485" fill="#7f8c8d" font-family="Arial, sans-serif" font-size="11" text-anchor="middle">
    Teknologi gjør formuesverdivurdering mer nøyaktig, rask og tilgjengelig
  </text></svg>