<svg xmlns="http://www.w3.org/2000/svg" width="900" height="500"><defs><linearGradient id="a" x1="0%" x2="100%" y1="0%" y2="0%"><stop offset="0%" style="stop-color:#007bff;stop-opacity:1"/><stop offset="100%" style="stop-color:#28a745;stop-opacity:1"/></linearGradient></defs><path fill="#f8f9fa" stroke="#dee2e6" stroke-width="2" d="M0 0h900v500H0z"/><text x="450" y="40" fill="#2c3e50" font-family="Arial, sans-serif" font-size="24" font-weight="bold" text-anchor="middle">IFRS Historisk Utvikling</text><path stroke="url(#a)" stroke-width="4" d="M100 250h700"/><circle cx="150" cy="250" r="8" fill="#007bff"/><path stroke="#007bff" stroke-width="2" d="M150 250v-70"/><rect width="140" height="60" x="80" y="120" fill="#fff" stroke="#007bff" rx="5"/><text x="150" y="140" fill="#007bff" font-family="Arial, sans-serif" font-size="14" font-weight="bold" text-anchor="middle">1973</text><text x="150" y="155" fill="#2c3e50" font-family="Arial, sans-serif" font-size="12" text-anchor="middle">IASC etableres</text><text x="150" y="170" fill="#2c3e50" font-family="Arial, sans-serif" font-size="12" text-anchor="middle">IAS utvikles</text><circle cx="280" cy="250" r="8" fill="#17a2b8"/><path stroke="#17a2b8" stroke-width="2" d="M280 250v70"/><rect width="140" height="60" x="210" y="330" fill="#fff" stroke="#17a2b8" rx="5"/><text x="280" y="350" fill="#17a2b8" font-family="Arial, sans-serif" font-size="14" font-weight="bold" text-anchor="middle">2001</text><text x="280" y="365" fill="#2c3e50" font-family="Arial, sans-serif" font-size="12" text-anchor="middle">IASB overtar</text><text x="280" y="380" fill="#2c3e50" font-family="Arial, sans-serif" font-size="12" text-anchor="middle">IFRS starter</text><circle cx="410" cy="250" r="8" fill="#ffc107"/><path stroke="#ffc107" stroke-width="2" d="M410 250v-70"/><rect width="140" height="60" x="340" y="120" fill="#fff" stroke="#ffc107" rx="5"/><text x="410" y="140" fill="#ffc107" font-family="Arial, sans-serif" font-size="14" font-weight="bold" text-anchor="middle">2005</text><text x="410" y="155" fill="#2c3e50" font-family="Arial, sans-serif" font-size="12" text-anchor="middle">EU krever IFRS</text><text x="410" y="170" fill="#2c3e50" font-family="Arial, sans-serif" font-size="12" text-anchor="middle">børsnoterte</text><circle cx="540" cy="250" r="8" fill="#dc3545"/><path stroke="#dc3545" stroke-width="2" d="M540 250v70"/><rect width="140" height="60" x="470" y="330" fill="#fff" stroke="#dc3545" rx="5"/><text x="540" y="350" fill="#dc3545" font-family="Arial, sans-serif" font-size="14" font-weight="bold" text-anchor="middle">2010</text><text x="540" y="365" fill="#2c3e50" font-family="Arial, sans-serif" font-size="12" text-anchor="middle">Konvergens</text><text x="540" y="380" fill="#2c3e50" font-family="Arial, sans-serif" font-size="12" text-anchor="middle">US GAAP</text><circle cx="670" cy="250" r="8" fill="#6f42c1"/><path stroke="#6f42c1" stroke-width="2" d="M670 250v-70"/><rect width="140" height="60" x="600" y="120" fill="#fff" stroke="#6f42c1" rx="5"/><text x="670" y="140" fill="#6f42c1" font-family="Arial, sans-serif" font-size="14" font-weight="bold" text-anchor="middle">2018</text><text x="670" y="155" fill="#2c3e50" font-family="Arial, sans-serif" font-size="12" text-anchor="middle">IFRS 16</text><text x="670" y="170" fill="#2c3e50" font-family="Arial, sans-serif" font-size="12" text-anchor="middle">Leasing</text><circle cx="750" cy="250" r="8" fill="#28a745"/><path stroke="#28a745" stroke-width="2" d="M750 250v70"/><rect width="140" height="60" x="680" y="330" fill="#fff" stroke="#28a745" rx="5"/><text x="750" y="350" fill="#28a745" font-family="Arial, sans-serif" font-size="14" font-weight="bold" text-anchor="middle">2023</text><text x="750" y="365" fill="#2c3e50" font-family="Arial, sans-serif" font-size="12" text-anchor="middle">IFRS 17</text><text x="750" y="380" fill="#2c3e50" font-family="Arial, sans-serif" font-size="12" text-anchor="middle">Forsikring</text><text x="450" y="460" fill="#6c757d" font-family="Arial, sans-serif" font-size="14" text-anchor="middle">50 år med utvikling av internasjonale regnskapsstandarder</text></svg>