<svg xmlns="http://www.w3.org/2000/svg" width="800" height="600"><defs><linearGradient id="a" x1="0%" x2="100%" y1="0%" y2="0%"><stop offset="0%" style="stop-color:#dc3545;stop-opacity:1"/><stop offset="100%" style="stop-color:#fff;stop-opacity:1"/></linearGradient><linearGradient id="c" x1="0%" x2="100%" y1="0%" y2="0%"><stop offset="0%" style="stop-color:#28a745;stop-opacity:1"/><stop offset="100%" style="stop-color:#20c997;stop-opacity:1"/></linearGradient><linearGradient id="d" x1="0%" x2="100%" y1="0%" y2="0%"><stop offset="0%" style="stop-color:#007bff;stop-opacity:1"/><stop offset="100%" style="stop-color:#17a2b8;stop-opacity:1"/></linearGradient><filter id="b" width="120%" height="120%" x="-10%" y="-10%"><feDropShadow dx="3" dy="3" flood-color="#000" flood-opacity=".2" stdDeviation="3"/></filter></defs><path fill="#f8f9fa" stroke="#dee2e6" stroke-width="2" d="M0 0h800v600H0z"/><text x="400" y="40" fill="#2c3e50" font-family="Arial, sans-serif" font-size="24" font-weight="bold" text-anchor="middle">IFRS Anvendelse i Norge</text><rect width="200" height="40" x="300" y="60" fill="url(#a)" filter="url(#b)" rx="5"/><path fill="#003d82" d="M330 60h10v40h-10z"/><path fill="#003d82" d="M300 75h200v10H300z"/><rect width="250" height="200" x="100" y="140" fill="url(#c)" filter="url(#b)" rx="15"/><text x="225" y="170" fill="#fff" font-family="Arial, sans-serif" font-size="18" font-weight="bold" text-anchor="middle">OBLIGATORISK IFRS</text><circle cx="225" cy="200" r="20" fill="#fff" opacity=".3"/><text x="225" y="210" fill="#fff" font-family="Arial, sans-serif" font-size="24" font-weight="bold" text-anchor="middle">!</text><text x="120" y="240" fill="#fff" font-family="Arial, sans-serif" font-size="14" font-weight="bold">Børsnoterte selskaper:</text><text x="130" y="260" fill="#fff" font-family="Arial, sans-serif" font-size="12">• Konsernregnskap</text><text x="130" y="275" fill="#fff" font-family="Arial, sans-serif" font-size="12">• Oslo Børs</text><text x="130" y="290" fill="#fff" font-family="Arial, sans-serif" font-size="12">• Euronext Growth</text><text x="120" y="315" fill="#fff" font-family="Arial, sans-serif" font-size="14" font-weight="bold">Andre krav:</text><text x="130" y="330" fill="#fff" font-family="Arial, sans-serif" font-size="12">• EU-regulerte markeder</text><rect width="250" height="200" x="450" y="140" fill="url(#d)" filter="url(#b)" rx="15"/><text x="575" y="170" fill="#fff" font-family="Arial, sans-serif" font-size="18" font-weight="bold" text-anchor="middle">FRIVILLIG IFRS</text><circle cx="575" cy="200" r="20" fill="#fff" opacity=".3"/><text x="575" y="210" fill="#fff" font-family="Arial, sans-serif" font-size="24" font-weight="bold" text-anchor="middle">?</text><text x="470" y="240" fill="#fff" font-family="Arial, sans-serif" font-size="14" font-weight="bold">Selskaper som velger:</text><text x="480" y="260" fill="#fff" font-family="Arial, sans-serif" font-size="12">• Internasjonale ambisjoner</text><text x="480" y="275" fill="#fff" font-family="Arial, sans-serif" font-size="12">• Utenlandske eiere</text><text x="480" y="290" fill="#fff" font-family="Arial, sans-serif" font-size="12">• Sammenlignbarhet</text><text x="470" y="315" fill="#fff" font-family="Arial, sans-serif" font-size="14" font-weight="bold">Datterselskaper:</text><text x="480" y="330" fill="#fff" font-family="Arial, sans-serif" font-size="12">• Utenlandske IFRS-konsern</text><rect width="500" height="120" x="150" y="380" fill="#fff" stroke="#6c757d" stroke-width="2" filter="url(#b)" rx="10"/><text x="400" y="405" fill="#2c3e50" font-family="Arial, sans-serif" font-size="16" font-weight="bold" text-anchor="middle">Implementeringsprosess i Norge</text><circle cx="200" cy="440" r="15" fill="#007bff"/><text x="200" y="447" fill="#fff" font-family="Arial, sans-serif" font-size="12" font-weight="bold" text-anchor="middle">1</text><text x="200" y="470" fill="#2c3e50" font-family="Arial, sans-serif" font-size="11" text-anchor="middle">Vurdering</text><circle cx="300" cy="440" r="15" fill="#28a745"/><text x="300" y="447" fill="#fff" font-family="Arial, sans-serif" font-size="12" font-weight="bold" text-anchor="middle">2</text><text x="300" y="470" fill="#2c3e50" font-family="Arial, sans-serif" font-size="11" text-anchor="middle">Planlegging</text><circle cx="400" cy="440" r="15" fill="#ffc107"/><text x="400" y="447" fill="#2c3e50" font-family="Arial, sans-serif" font-size="12" font-weight="bold" text-anchor="middle">3</text><text x="400" y="470" fill="#2c3e50" font-family="Arial, sans-serif" font-size="11" text-anchor="middle">Implementering</text><circle cx="500" cy="440" r="15" fill="#dc3545"/><text x="500" y="447" fill="#fff" font-family="Arial, sans-serif" font-size="12" font-weight="bold" text-anchor="middle">4</text><text x="500" y="470" fill="#2c3e50" font-family="Arial, sans-serif" font-size="11" text-anchor="middle">Rapportering</text><circle cx="600" cy="440" r="15" fill="#6f42c1"/><text x="600" y="447" fill="#fff" font-family="Arial, sans-serif" font-size="12" font-weight="bold" text-anchor="middle">5</text><text x="600" y="470" fill="#2c3e50" font-family="Arial, sans-serif" font-size="11" text-anchor="middle">Oppfølging</text><path fill="#6c757d" d="m220 440 15-5v10zM320 440l15-5v10zM420 440l15-5v10zM520 440l15-5v10z"/><rect width="400" height="60" x="200" y="520" fill="#e9ecef" stroke="#6c757d" rx="5"/><text x="400" y="540" fill="#2c3e50" font-family="Arial, sans-serif" font-size="14" font-weight="bold" text-anchor="middle">IFRS i Norge - Statistikk</text><text x="400" y="560" fill="#6c757d" font-family="Arial, sans-serif" font-size="12" text-anchor="middle">Ca. 200+ børsnoterte selskaper bruker IFRS konsernregnskap</text><text x="400" y="575" fill="#6c757d" font-family="Arial, sans-serif" font-size="12" text-anchor="middle">Økende antall ikke-børsnoterte selskaper velger IFRS frivillig</text></svg>