<svg xmlns="http://www.w3.org/2000/svg" width="800" height="600"><defs><linearGradient id="a" x1="0%" x2="100%" y1="0%" y2="0%"><stop offset="0%" style="stop-color:#6f42c1;stop-opacity:1"/><stop offset="100%" style="stop-color:#5a32a3;stop-opacity:1"/></linearGradient><filter id="b" width="110%" height="110%" x="-5%" y="-5%"><feDropShadow dx="2" dy="2" flood-color="#000" flood-opacity=".2" stdDeviation="2"/></filter></defs><path fill="#f8f9fa" d="M0 0h800v600H0z"/><path fill="url(#a)" d="M0 0h800v70H0z"/><text x="400" y="45" fill="#fff" font-family="Arial, sans-serif" font-size="24" font-weight="bold" text-anchor="middle">
    Bransjespesifikke Nettofortjenestemarginer
  </text><path stroke="#495057" stroke-width="2" d="M80 100v400M80 500h600"/><text x="-10" y="405" fill="#495057" font-family="Arial, sans-serif" font-size="12" text-anchor="end" transform="translate(80 100)">0%</text><text x="-10" y="325" fill="#495057" font-family="Arial, sans-serif" font-size="12" text-anchor="end" transform="translate(80 100)">5%</text><text x="-10" y="245" fill="#495057" font-family="Arial, sans-serif" font-size="12" text-anchor="end" transform="translate(80 100)">10%</text><text x="-10" y="165" fill="#495057" font-family="Arial, sans-serif" font-size="12" text-anchor="end" transform="translate(80 100)">15%</text><text x="-10" y="85" fill="#495057" font-family="Arial, sans-serif" font-size="12" text-anchor="end" transform="translate(80 100)">20%</text><text x="-10" y="5" fill="#495057" font-family="Arial, sans-serif" font-size="12" text-anchor="end" transform="translate(80 100)">25%</text><path stroke="#dee2e6" stroke-dasharray="5,5" d="M80 420h600M80 340h600M80 260h600M80 180h600"/><path fill="#28a745" d="M20 80h50v320H20z" filter="url(#b)" transform="translate(80 100)"/><text x="45" y="70" fill="#28a745" font-family="Arial, sans-serif" font-size="12" font-weight="bold" text-anchor="middle" transform="translate(80 100)">20%</text><text x="45" y="420" fill="#495057" font-family="Arial, sans-serif" font-size="10" text-anchor="middle" transform="translate(80 100)">Software/</text><text x="45" y="435" fill="#495057" font-family="Arial, sans-serif" font-size="10" text-anchor="middle" transform="translate(80 100)">SaaS</text><path fill="#20c997" d="M90 0h50v400H90z" filter="url(#b)" transform="translate(80 100)"/><text x="115" y="-10" fill="#20c997" font-family="Arial, sans-serif" font-size="12" font-weight="bold" text-anchor="middle" transform="translate(80 100)">25%</text><text x="115" y="420" fill="#495057" font-family="Arial, sans-serif" font-size="10" text-anchor="middle" transform="translate(80 100)">Farmasi</text><path fill="#17a2b8" d="M160 128h50v272h-50z" filter="url(#b)" transform="translate(80 100)"/><text x="185" y="118" fill="#17a2b8" font-family="Arial, sans-serif" font-size="12" font-weight="bold" text-anchor="middle" transform="translate(80 100)">17%</text><text x="185" y="420" fill="#495057" font-family="Arial, sans-serif" font-size="10" text-anchor="middle" transform="translate(80 100)">Finansielle</text><text x="185" y="435" fill="#495057" font-family="Arial, sans-serif" font-size="10" text-anchor="middle" transform="translate(80 100)">tjenester</text><path fill="#6f42c1" d="M230 208h50v192h-50z" filter="url(#b)" transform="translate(80 100)"/><text x="255" y="198" fill="#6f42c1" font-family="Arial, sans-serif" font-size="12" font-weight="bold" text-anchor="middle" transform="translate(80 100)">12%</text><text x="255" y="420" fill="#495057" font-family="Arial, sans-serif" font-size="10" text-anchor="middle" transform="translate(80 100)">Luksusvarer</text><path fill="#fd7e14" d="M300 304h50v96h-50z" filter="url(#b)" transform="translate(80 100)"/><text x="325" y="294" fill="#fd7e14" font-family="Arial, sans-serif" font-size="12" font-weight="bold" text-anchor="middle" transform="translate(80 100)">6%</text><text x="325" y="420" fill="#495057" font-family="Arial, sans-serif" font-size="10" text-anchor="middle" transform="translate(80 100)">Energi</text><path fill="#e83e8c" d="M370 336h50v64h-50z" filter="url(#b)" transform="translate(80 100)"/><text x="395" y="326" fill="#e83e8c" font-family="Arial, sans-serif" font-size="12" font-weight="bold" text-anchor="middle" transform="translate(80 100)">4%</text><text x="395" y="420" fill="#495057" font-family="Arial, sans-serif" font-size="10" text-anchor="middle" transform="translate(80 100)">Transport</text><path fill="#6c757d" d="M440 352h50v48h-50z" filter="url(#b)" transform="translate(80 100)"/><text x="465" y="342" fill="#6c757d" font-family="Arial, sans-serif" font-size="12" font-weight="bold" text-anchor="middle" transform="translate(80 100)">3%</text><text x="465" y="420" fill="#495057" font-family="Arial, sans-serif" font-size="10" text-anchor="middle" transform="translate(80 100)">Bygg og</text><text x="465" y="435" fill="#495057" font-family="Arial, sans-serif" font-size="10" text-anchor="middle" transform="translate(80 100)">anlegg</text><path fill="#dc3545" d="M510 368h50v32h-50z" filter="url(#b)" transform="translate(80 100)"/><text x="535" y="358" fill="#dc3545" font-family="Arial, sans-serif" font-size="12" font-weight="bold" text-anchor="middle" transform="translate(80 100)">2%</text><text x="535" y="420" fill="#495057" font-family="Arial, sans-serif" font-size="10" text-anchor="middle" transform="translate(80 100)">Dagligvare</text><g transform="translate(50 520)"><rect width="700" height="70" fill="#fff" stroke="#dee2e6" stroke-width="2" rx="8"/><text x="350" y="20" fill="#495057" font-family="Arial, sans-serif" font-size="14" font-weight="bold" text-anchor="middle">
      Nøkkelinnsikter om Bransjemarginer
    </text><text x="20" y="40" fill="#495057" font-family="Arial, sans-serif" font-size="11">
      <tspan fill="#28a745" font-weight="bold">Høymargin-bransjer:</tspan> Software og farmasi drar nytte av skalerbarhet og patentbeskyttelse
    </text><text x="20" y="55" fill="#495057" font-family="Arial, sans-serif" font-size="11">
      <tspan fill="#dc3545" font-weight="bold">Lavmargin-bransjer:</tspan> Dagligvare og transport konkurrerer primært på pris og volum
    </text><text x="400" y="40" fill="#495057" font-family="Arial, sans-serif" font-size="11">
      <tspan fill="#17a2b8" font-weight="bold">Finansielle tjenester:</tspan> Regulert marked med stabile marginer
    </text><text x="400" y="55" fill="#495057" font-family="Arial, sans-serif" font-size="11">
      <tspan fill="#6f42c1" font-weight="bold">Luksusvarer:</tspan> Merkevarepremiering gir høyere marginer
    </text></g></svg>