<svg width="800" height="600" xmlns="http://www.w3.org/2000/svg">
  <defs>
    <linearGradient id="bgGradient" x1="0%" y1="0%" x2="100%" y2="100%">
      <stop offset="0%" style="stop-color:#e8f5e8;stop-opacity:1" />
      <stop offset="100%" style="stop-color:#c8e6c9;stop-opacity:1" />
    </linearGradient>
    <linearGradient id="animalCardGradient" x1="0%" y1="0%" x2="100%" y2="100%">
      <stop offset="0%" style="stop-color:#fff3e0;stop-opacity:1" />
      <stop offset="100%" style="stop-color:#ffe0b2;stop-opacity:1" />
    </linearGradient>
    <linearGradient id="cropCardGradient" x1="0%" y1="0%" x2="100%" y2="100%">
      <stop offset="0%" style="stop-color:#f1f8e9;stop-opacity:1" />
      <stop offset="100%" style="stop-color:#dcedc8;stop-opacity:1" />
    </linearGradient>
  </defs>
  

  <rect width="800" height="600" fill="url(#bgGradient)"/>
  

  <text x="400" y="40" text-anchor="middle" font-family="Arial, sans-serif" font-size="24" font-weight="bold" fill="#2e7d32">
    Biologiske Eiendeler i Landbrukskontoplan
  </text>
  

  <text x="50" y="80" font-family="Arial, sans-serif" font-size="18" font-weight="bold" fill="#e65100">
    Husdyr (Konto 1100-1140)
  </text>
  

  <g transform="translate(50, 100)">
    <rect x="0" y="0" width="160" height="120" fill="url(#animalCardGradient)" stroke="#ff9800" stroke-width="2" rx="8"/>
    

    <g transform="translate(20, 20)">
      <ellipse cx="30" cy="45" rx="35" ry="20" fill="#f5f5f5" stroke="#e0e0e0" stroke-width="2"/>
      <circle cx="15" cy="35" r="12" fill="#f5f5f5" stroke="#e0e0e0" stroke-width="2"/>
      <rect x="10" y="60" width="6" height="20" fill="#8d6e63"/>
      <rect x="20" y="60" width="6" height="20" fill="#8d6e63"/>
      <rect x="40" y="60" width="6" height="20" fill="#8d6e63"/>
      <rect x="50" y="60" width="6" height="20" fill="#8d6e63"/>
      <circle cx="20" cy="40" r="4" fill="#424242"/>
      <circle cx="35" cy="45" r="5" fill="#424242"/>
      <circle cx="50" cy="38" r="4" fill="#424242"/>
    </g>
    
    <text x="80" y="95" text-anchor="middle" font-family="Arial, sans-serif" font-size="14" font-weight="bold" fill="#e65100">
      Storfe
    </text>
    <text x="80" y="110" text-anchor="middle" font-family="Arial, sans-serif" font-size="10" fill="#666">
      Konto 1100-1102
    </text>
  </g>
  

  <g transform="translate(230, 100)">
    <rect x="0" y="0" width="160" height="120" fill="url(#animalCardGradient)" stroke="#ff9800" stroke-width="2" rx="8"/>
    

    <g transform="translate(20, 25)">
      <ellipse cx="30" cy="40" rx="30" ry="18" fill="#ffb3ba" stroke="#ff8a95" stroke-width="2"/>
      <circle cx="15" cy="32" r="10" fill="#ffb3ba" stroke="#ff8a95" stroke-width="2"/>
      <rect x="12" y="55" width="5" height="15" fill="#8d6e63"/>
      <rect x="20" y="55" width="5" height="15" fill="#8d6e63"/>
      <rect x="35" y="55" width="5" height="15" fill="#8d6e63"/>
      <rect x="43" y="55" width="5" height="15" fill="#8d6e63"/>
      <circle cx="12" cy="30" r="2" fill="#424242"/>
      <circle cx="18" cy="30" r="2" fill="#424242"/>
      <path d="M10,35 Q15,38 20,35" fill="none" stroke="#424242" stroke-width="2"/>
    </g>
    
    <text x="80" y="95" text-anchor="middle" font-family="Arial, sans-serif" font-size="14" font-weight="bold" fill="#e65100">
      Svin
    </text>
    <text x="80" y="110" text-anchor="middle" font-family="Arial, sans-serif" font-size="10" fill="#666">
      Konto 1110
    </text>
  </g>
  

  <g transform="translate(410, 100)">
    <rect x="0" y="0" width="160" height="120" fill="url(#animalCardGradient)" stroke="#ff9800" stroke-width="2" rx="8"/>
    

    <g transform="translate(20, 25)">
      <ellipse cx="30" cy="40" rx="28" ry="16" fill="#f5f5f5" stroke="#e0e0e0" stroke-width="2"/>
      <circle cx="15" cy="32" r="8" fill="#424242" stroke="#212121" stroke-width="2"/>
      <rect x="15" y="52" width="4" height="12" fill="#424242"/>
      <rect x="22" y="52" width="4" height="12" fill="#424242"/>
      <rect x="35" y="52" width="4" height="12" fill="#424242"/>
      <rect x="42" y="52" width="4" height="12" fill="#424242"/>
      <circle cx="12" cy="30" r="1.5" fill="white"/>
      <circle cx="18" cy="30" r="1.5" fill="white"/>

      <circle cx="25" cy="35" r="3" fill="#f5f5f5" opacity="0.7"/>
      <circle cx="35" cy="38" r="4" fill="#f5f5f5" opacity="0.7"/>
      <circle cx="45" cy="35" r="3" fill="#f5f5f5" opacity="0.7"/>
    </g>
    
    <text x="80" y="95" text-anchor="middle" font-family="Arial, sans-serif" font-size="14" font-weight="bold" fill="#e65100">
      Sau &amp; Geit
    </text>
    <text x="80" y="110" text-anchor="middle" font-family="Arial, sans-serif" font-size="10" fill="#666">
      Konto 1120
    </text>
  </g>
  

  <g transform="translate(590, 100)">
    <rect x="0" y="0" width="160" height="120" fill="url(#animalCardGradient)" stroke="#ff9800" stroke-width="2" rx="8"/>
    

    <g transform="translate(30, 30)">
      <ellipse cx="25" cy="35" rx="20" ry="15" fill="#fff8e1" stroke="#ffcc02" stroke-width="2"/>
      <circle cx="15" cy="25" r="8" fill="#fff8e1" stroke="#ffcc02" stroke-width="2"/>
      <polygon points="8,25 5,23 8,21" fill="#ff9800"/>
      <circle cx="12" cy="23" r="1.5" fill="#424242"/>
      <rect x="20" y="45" width="3" height="10" fill="#ff9800"/>
      <rect x="27" y="45" width="3" height="10" fill="#ff9800"/>
      <path d="M35,30 Q40,25 45,30 Q40,35 35,30" fill="#f44336"/>
    </g>
    
    <text x="80" y="95" text-anchor="middle" font-family="Arial, sans-serif" font-size="14" font-weight="bold" fill="#e65100">
      Fjørfe
    </text>
    <text x="80" y="110" text-anchor="middle" font-family="Arial, sans-serif" font-size="10" fill="#666">
      Konto 1130
    </text>
  </g>
  

  <text x="50" y="280" font-family="Arial, sans-serif" font-size="18" font-weight="bold" fill="#2e7d32">
    Avlinger og Lagre (Konto 1200-1240)
  </text>
  

  <g transform="translate(50, 300)">
    <rect x="0" y="0" width="160" height="120" fill="url(#cropCardGradient)" stroke="#4caf50" stroke-width="2" rx="8"/>
    

    <g transform="translate(30, 20)">
      <line x1="15" y1="70" x2="15" y2="25" stroke="#8bc34a" stroke-width="4"/>
      <line x1="25" y1="70" x2="25" y2="20" stroke="#8bc34a" stroke-width="4"/>
      <line x1="35" y1="70" x2="35" y2="30" stroke="#8bc34a" stroke-width="4"/>
      <line x1="45" y1="70" x2="45" y2="22" stroke="#8bc34a" stroke-width="4"/>
      <ellipse cx="15" cy="23" rx="4" ry="10" fill="#ffc107"/>
      <ellipse cx="25" cy="18" rx="4" ry="10" fill="#ffc107"/>
      <ellipse cx="35" cy="28" rx="4" ry="10" fill="#ffc107"/>
      <ellipse cx="45" cy="20" rx="4" ry="10" fill="#ffc107"/>
    </g>
    
    <text x="80" y="95" text-anchor="middle" font-family="Arial, sans-serif" font-size="14" font-weight="bold" fill="#2e7d32">
      Korn
    </text>
    <text x="80" y="110" text-anchor="middle" font-family="Arial, sans-serif" font-size="10" fill="#666">
      Konto 1200
    </text>
  </g>
  

  <g transform="translate(230, 300)">
    <rect x="0" y="0" width="160" height="120" fill="url(#cropCardGradient)" stroke="#4caf50" stroke-width="2" rx="8"/>
    

    <g transform="translate(25, 25)">
      <ellipse cx="25" cy="35" rx="15" ry="10" fill="#8d6e63"/>
      <ellipse cx="45" cy="40" rx="12" ry="8" fill="#8d6e63"/>
      <ellipse cx="35" cy="55" rx="10" ry="7" fill="#8d6e63"/>
      <ellipse cx="55" cy="50" rx="8" ry="6" fill="#8d6e63"/>
      <circle cx="22" cy="32" r="1" fill="#5d4037"/>
      <circle cx="28" cy="38" r="1" fill="#5d4037"/>
      <circle cx="42" cy="37" r="1" fill="#5d4037"/>
      <circle cx="48" cy="43" r="1" fill="#5d4037"/>
    </g>
    
    <text x="80" y="95" text-anchor="middle" font-family="Arial, sans-serif" font-size="14" font-weight="bold" fill="#2e7d32">
      Poteter
    </text>
    <text x="80" y="110" text-anchor="middle" font-family="Arial, sans-serif" font-size="10" fill="#666">
      Konto 1220
    </text>
  </g>
  

  <g transform="translate(410, 300)">
    <rect x="0" y="0" width="160" height="120" fill="url(#cropCardGradient)" stroke="#4caf50" stroke-width="2" rx="8"/>
    

    <g transform="translate(25, 25)">
      <circle cx="20" cy="35" r="8" fill="#f44336"/>
      <circle cx="40" cy="30" r="6" fill="#ff9800"/>
      <ellipse cx="55" cy="40" rx="8" ry="12" fill="#4caf50"/>
      <path d="M15,25 Q20,20 25,25" fill="none" stroke="#4caf50" stroke-width="2"/>
      <path d="M35,22 Q40,18 45,22" fill="none" stroke="#4caf50" stroke-width="2"/>
      <path d="M50,28 Q55,23 60,28" fill="none" stroke="#4caf50" stroke-width="2"/>
    </g>
    
    <text x="80" y="95" text-anchor="middle" font-family="Arial, sans-serif" font-size="14" font-weight="bold" fill="#2e7d32">
      Grønnsaker
    </text>
    <text x="80" y="110" text-anchor="middle" font-family="Arial, sans-serif" font-size="10" fill="#666">
      Konto 1230
    </text>
  </g>
  

  <g transform="translate(590, 300)">
    <rect x="0" y="0" width="160" height="120" fill="url(#cropCardGradient)" stroke="#4caf50" stroke-width="2" rx="8"/>
    

    <g transform="translate(25, 25)">
      <circle cx="25" cy="35" r="10" fill="#f44336"/>
      <circle cx="45" cy="30" r="8" fill="#4caf50"/>
      <circle cx="35" cy="50" r="6" fill="#9c27b0"/>
      <circle cx="55" cy="45" r="5" fill="#2196f3"/>
      <path d="M25,25 Q30,20 35,25" fill="none" stroke="#4caf50" stroke-width="2"/>
      <path d="M45,20 Q50,15 55,20" fill="none" stroke="#4caf50" stroke-width="2"/>
    </g>
    
    <text x="80" y="95" text-anchor="middle" font-family="Arial, sans-serif" font-size="14" font-weight="bold" fill="#2e7d32">
      Frukt &amp; Bær
    </text>
    <text x="80" y="110" text-anchor="middle" font-family="Arial, sans-serif" font-size="10" fill="#666">
      Konto 1240
    </text>
  </g>
  

  <g transform="translate(50, 450)">
    <rect x="0" y="0" width="700" height="120" fill="#fff3e0" stroke="#ff9800" stroke-width="2" rx="10"/>
    
    <text x="20" y="30" font-family="Arial, sans-serif" font-size="16" font-weight="bold" fill="#e65100">
      Verdivurdering av Biologiske Eiendeler
    </text>
    
    <text x="20" y="55" font-family="Arial, sans-serif" font-size="14" fill="#333">
      • Husdyr: Anskaffelseskost eller virkelig verdi (markedsverdi)
    </text>
    <text x="20" y="75" font-family="Arial, sans-serif" font-size="14" fill="#333">
      • Avlinger: Laveste av kostpris og netto salgspris
    </text>
    <text x="20" y="95" font-family="Arial, sans-serif" font-size="14" fill="#333">
      • Voksende avlinger: Kostnader aktiveres til høsting er fullført
    </text>
    
    <text x="380" y="55" font-family="Arial, sans-serif" font-size="14" fill="#333">
      • Regelmessig vurdering av verdier
    </text>
    <text x="380" y="75" font-family="Arial, sans-serif" font-size="14" fill="#333">
      • Dokumentasjon av verdiendringer
    </text>
    <text x="380" y="95" font-family="Arial, sans-serif" font-size="14" fill="#333">
      • Spesielle regler for biologisk transformasjon
    </text>
  </g>
</svg>