<svg xmlns="http://www.w3.org/2000/svg" width="800" height="600"><defs><linearGradient id="a" x1="0%" x2="100%" y1="0%" y2="100%"><stop offset="0%" style="stop-color:#f8d7da;stop-opacity:1"/><stop offset="100%" style="stop-color:#f5c6cb;stop-opacity:1"/></linearGradient><linearGradient id="b" x1="0%" x2="100%" y1="0%" y2="100%"><stop offset="0%" style="stop-color:#d4edda;stop-opacity:1"/><stop offset="100%" style="stop-color:#c3e6cb;stop-opacity:1"/></linearGradient><linearGradient id="c" x1="0%" x2="100%" y1="0%" y2="100%"><stop offset="0%" style="stop-color:#cce5ff;stop-opacity:1"/><stop offset="100%" style="stop-color:#b3d9ff;stop-opacity:1"/></linearGradient><linearGradient id="d" x1="0%" x2="100%" y1="0%" y2="100%"><stop offset="0%" style="stop-color:#fff3cd;stop-opacity:1"/><stop offset="100%" style="stop-color:#ffeaa7;stop-opacity:1"/></linearGradient><marker id="e" markerHeight="10" markerUnits="strokeWidth" markerWidth="10" orient="auto" refX="9" refY="3"><path fill="#1976d2" d="M0 0v6l9-3z"/></marker></defs><path fill="#f8f9fa" d="M0 0h800v600H0z"/><text x="400" y="30" fill="#1976d2" font-family="Arial, sans-serif" font-size="24" font-weight="bold" text-anchor="middle">
    Regnskapsmessig Behandling av Anskaffelser
  </text><rect width="220" height="150" x="50" y="70" fill="url(#a)" stroke="#dc3545" stroke-width="3" rx="15"/><text x="160" y="95" fill="#721c24" font-family="Arial, sans-serif" font-size="16" font-weight="bold" text-anchor="middle">
    Driftskostnader
  </text><circle cx="160" cy="125" r="20" fill="#dc3545" opacity=".3"/><path stroke="#dc3545" stroke-width="3" d="m150 115 20 20m0-20-20 20"/><text x="160" y="140" fill="#dc3545" font-family="Arial, sans-serif" font-size="10" text-anchor="middle">Kr</text><text x="160" y="165" fill="#721c24" font-family="Arial, sans-serif" font-size="11" font-weight="bold" text-anchor="middle">
    Eksempler:
  </text><text x="70" y="185" fill="#721c24" font-family="Arial, sans-serif" font-size="10">
    • Kontormateriell
  </text><text x="70" y="200" fill="#721c24" font-family="Arial, sans-serif" font-size="10">
    • Renholdstjenester
  </text><text x="70" y="215" fill="#721c24" font-family="Arial, sans-serif" font-size="10">
    • Kostnadsføres umiddelbart
  </text><rect width="220" height="150" x="290" y="70" fill="url(#b)" stroke="#28a745" stroke-width="3" rx="15"/><text x="400" y="95" fill="#155724" font-family="Arial, sans-serif" font-size="16" font-weight="bold" text-anchor="middle">
    Anleggsmidler
  </text><circle cx="400" cy="125" r="20" fill="#28a745" opacity=".3"/><path fill="none" stroke="#28a745" stroke-width="3" d="M385 110h30v30h-30z"/><path stroke="#28a745" stroke-width="2" d="M390 120h20m-20 5h20m-20 5h20"/><text x="400" y="165" fill="#155724" font-family="Arial, sans-serif" font-size="11" font-weight="bold" text-anchor="middle">
    Eksempler:
  </text><text x="310" y="185" fill="#155724" font-family="Arial, sans-serif" font-size="10">
    • Maskiner &gt; kr 15 000
  </text><text x="310" y="200" fill="#155724" font-family="Arial, sans-serif" font-size="10">
    • IT-utstyr, biler
  </text><text x="310" y="215" fill="#155724" font-family="Arial, sans-serif" font-size="10">
    • Avskrives over brukstid
  </text><rect width="220" height="150" x="530" y="70" fill="url(#c)" stroke="#007bff" stroke-width="3" rx="15"/><text x="640" y="95" fill="#004085" font-family="Arial, sans-serif" font-size="16" font-weight="bold" text-anchor="middle">
    Varelager
  </text><circle cx="640" cy="125" r="20" fill="#007bff" opacity=".3"/><path fill="none" stroke="#007bff" stroke-width="3" d="M625 110h30v30h-30z"/><circle cx="635" cy="120" r="3" fill="#007bff"/><circle cx="645" cy="120" r="3" fill="#007bff"/><circle cx="635" cy="130" r="3" fill="#007bff"/><circle cx="645" cy="130" r="3" fill="#007bff"/><text x="640" y="165" fill="#004085" font-family="Arial, sans-serif" font-size="11" font-weight="bold" text-anchor="middle">
    Eksempler:
  </text><text x="550" y="185" fill="#004085" font-family="Arial, sans-serif" font-size="10">
    • Varer for videresalg
  </text><text x="550" y="200" fill="#004085" font-family="Arial, sans-serif" font-size="10">
    • Laveste av kost/NRV
  </text><text x="550" y="215" fill="#004085" font-family="Arial, sans-serif" font-size="10">
    • Krever lagerføring
  </text><rect width="700" height="280" x="50" y="250" fill="url(#d)" stroke="#ffc107" stroke-width="3" rx="15"/><text x="400" y="275" fill="#856404" font-family="Arial, sans-serif" font-size="18" font-weight="bold" text-anchor="middle">
    Fakturabehandlingsprosess
  </text><rect width="120" height="60" x="80" y="300" fill="#fff" stroke="#856404" stroke-width="2" rx="8"/><text x="140" y="320" fill="#856404" font-family="Arial, sans-serif" font-size="12" font-weight="bold" text-anchor="middle">
    1. Mottak
  </text><text x="140" y="335" fill="#856404" font-family="Arial, sans-serif" font-size="10" text-anchor="middle">
    Registrering av
  </text><text x="140" y="350" fill="#856404" font-family="Arial, sans-serif" font-size="10" text-anchor="middle">
    faktura
  </text><path stroke="#1976d2" stroke-width="2" marker-end="url(#e)" d="M200 330h30"/><rect width="120" height="60" x="240" y="300" fill="#fff" stroke="#856404" stroke-width="2" rx="8"/><text x="300" y="320" fill="#856404" font-family="Arial, sans-serif" font-size="12" font-weight="bold" text-anchor="middle">
    2. Kontroll
  </text><text x="300" y="335" fill="#856404" font-family="Arial, sans-serif" font-size="10" text-anchor="middle">
    Mot bestilling
  </text><text x="300" y="350" fill="#856404" font-family="Arial, sans-serif" font-size="10" text-anchor="middle">
    og leveranse
  </text><path stroke="#1976d2" stroke-width="2" marker-end="url(#e)" d="M360 330h30"/><rect width="120" height="60" x="400" y="300" fill="#fff" stroke="#856404" stroke-width="2" rx="8"/><text x="460" y="320" fill="#856404" font-family="Arial, sans-serif" font-size="12" font-weight="bold" text-anchor="middle">
    3. Godkjenning
  </text><text x="460" y="335" fill="#856404" font-family="Arial, sans-serif" font-size="10" text-anchor="middle">
    Autorisert
  </text><text x="460" y="350" fill="#856404" font-family="Arial, sans-serif" font-size="10" text-anchor="middle">
    person
  </text><path stroke="#1976d2" stroke-width="2" marker-end="url(#e)" d="M520 330h30"/><rect width="120" height="60" x="560" y="300" fill="#fff" stroke="#856404" stroke-width="2" rx="8"/><text x="620" y="320" fill="#856404" font-family="Arial, sans-serif" font-size="12" font-weight="bold" text-anchor="middle">
    4. Bokføring
  </text><text x="620" y="335" fill="#856404" font-family="Arial, sans-serif" font-size="10" text-anchor="middle">
    Riktig periode
  </text><text x="620" y="350" fill="#856404" font-family="Arial, sans-serif" font-size="10" text-anchor="middle">
    og konto
  </text><path stroke="#1976d2" stroke-width="2" marker-end="url(#e)" d="M620 360v30"/><rect width="120" height="60" x="560" y="400" fill="#fff" stroke="#856404" stroke-width="2" rx="8"/><text x="620" y="420" fill="#856404" font-family="Arial, sans-serif" font-size="12" font-weight="bold" text-anchor="middle">
    5. Betaling
  </text><text x="620" y="435" fill="#856404" font-family="Arial, sans-serif" font-size="10" text-anchor="middle">
    Innen
  </text><text x="620" y="450" fill="#856404" font-family="Arial, sans-serif" font-size="10" text-anchor="middle">
    forfallsdato
  </text><rect width="450" height="120" x="80" y="380" fill="#fff" stroke="#856404" stroke-width="2" rx="8"/><text x="305" y="400" fill="#856404" font-family="Arial, sans-serif" font-size="14" font-weight="bold" text-anchor="middle">
    Periodiseringsprinsipper
  </text><text x="120" y="425" fill="#856404" font-family="Arial, sans-serif" font-size="12" font-weight="bold">
    Påløpte kostnader:
  </text><text x="120" y="440" fill="#856404" font-family="Arial, sans-serif" font-size="10">
    Tjenester mottatt men ikke fakturert
  </text><text x="120" y="460" fill="#856404" font-family="Arial, sans-serif" font-size="12" font-weight="bold">
    Forskuddsbetalte kostnader:
  </text><text x="120" y="475" fill="#856404" font-family="Arial, sans-serif" font-size="10">
    Betalt for fremtidige tjenester
  </text><text x="320" y="425" fill="#856404" font-family="Arial, sans-serif" font-size="12" font-weight="bold">
    Leverandørgjeld:
  </text><text x="320" y="440" fill="#856404" font-family="Arial, sans-serif" font-size="10">
    Fakturerte men ikke betalte kjøp
  </text><text x="320" y="460" fill="#856404" font-family="Arial, sans-serif" font-size="12" font-weight="bold">
    Riktig periode:
  </text><text x="320" y="475" fill="#856404" font-family="Arial, sans-serif" font-size="10">
    Kostnader bokføres når påløpt
  </text><path fill="#e9ecef" d="M0 550h800v50H0z"/><text x="400" y="570" fill="#495057" font-family="Arial, sans-serif" font-size="12" font-weight="bold" text-anchor="middle">
    Korrekt regnskapsbehandling sikrer nøyaktig finansiell rapportering
  </text><text x="400" y="585" fill="#6c757d" font-family="Arial, sans-serif" font-size="11" text-anchor="middle">
    og overholdelse av regnskapslovgivning
  </text></svg>