<svg xmlns="http://www.w3.org/2000/svg" width="800" height="500" viewBox="0 0 800 500"><path fill="#f8f9fa" d="M0 0h800v500H0z"/><text x="400" y="30" fill="#2c3e50" font-family="Arial, sans-serif" font-size="22" font-weight="bold" text-anchor="middle">
    Kunstig Intelligens i Elektronisk Fakturering
  </text><circle cx="400" cy="200" r="80" fill="#9b59b6" stroke="#8e44ad" stroke-width="4"/><text x="400" y="190" fill="#fff" font-family="Arial, sans-serif" font-size="16" font-weight="bold" text-anchor="middle">
    AI
  </text><text x="400" y="210" fill="#fff" font-family="Arial, sans-serif" font-size="14" font-weight="bold" text-anchor="middle">
    MOTOR
  </text><text x="400" y="225" fill="#fff" font-family="Arial, sans-serif" font-size="10" text-anchor="middle">
    Maskinlæring
  </text><circle cx="370" cy="180" r="8" fill="#fff" opacity=".7"/><circle cx="430" cy="180" r="8" fill="#fff" opacity=".7"/><circle cx="370" cy="220" r="8" fill="#fff" opacity=".7"/><circle cx="430" cy="220" r="8" fill="#fff" opacity=".7"/><circle cx="400" cy="160" r="6" fill="#fff" opacity=".7"/><circle cx="400" cy="240" r="6" fill="#fff" opacity=".7"/><path stroke="#fff" d="M370 180h60M370 220h60M370 180v40M430 180v40" opacity=".5"/><rect width="160" height="80" x="80" y="80" fill="#3498db" stroke="#2980b9" stroke-width="3" rx="10"/><text x="160" y="105" fill="#fff" font-family="Arial, sans-serif" font-size="14" font-weight="bold" text-anchor="middle">
    Intelligent
  </text><text x="160" y="125" fill="#fff" font-family="Arial, sans-serif" font-size="14" font-weight="bold" text-anchor="middle">
    Kontokoding
  </text><text x="160" y="145" fill="#fff" font-family="Arial, sans-serif" font-size="10" text-anchor="middle">
    Automatisk kategorisering
  </text><rect width="160" height="80" x="560" y="80" fill="#e74c3c" stroke="#c0392b" stroke-width="3" rx="10"/><text x="640" y="105" fill="#fff" font-family="Arial, sans-serif" font-size="14" font-weight="bold" text-anchor="middle">
    Automatisk
  </text><text x="640" y="125" fill="#fff" font-family="Arial, sans-serif" font-size="14" font-weight="bold" text-anchor="middle">
    Attestering
  </text><text x="640" y="145" fill="#fff" font-family="Arial, sans-serif" font-size="10" text-anchor="middle">
    Regelbasert validering
  </text><rect width="160" height="80" x="80" y="320" fill="#27ae60" stroke="#229954" stroke-width="3" rx="10"/><text x="160" y="345" fill="#fff" font-family="Arial, sans-serif" font-size="14" font-weight="bold" text-anchor="middle">
    Prediktiv
  </text><text x="160" y="365" fill="#fff" font-family="Arial, sans-serif" font-size="14" font-weight="bold" text-anchor="middle">
    Analyse
  </text><text x="160" y="385" fill="#fff" font-family="Arial, sans-serif" font-size="10" text-anchor="middle">
    Betalingsevne og risiko
  </text><rect width="160" height="80" x="560" y="320" fill="#f39c12" stroke="#e67e22" stroke-width="3" rx="10"/><text x="640" y="345" fill="#fff" font-family="Arial, sans-serif" font-size="14" font-weight="bold" text-anchor="middle">
    Anomali-
  </text><text x="640" y="365" fill="#fff" font-family="Arial, sans-serif" font-size="14" font-weight="bold" text-anchor="middle">
    deteksjon
  </text><text x="640" y="385" fill="#fff" font-family="Arial, sans-serif" font-size="10" text-anchor="middle">
    Feil og svindel
  </text><rect width="160" height="60" x="320" y="50" fill="#34495e" stroke="#2c3e50" stroke-width="3" rx="10"/><text x="400" y="75" fill="#fff" font-family="Arial, sans-serif" font-size="14" font-weight="bold" text-anchor="middle">
    Automatisk Matching
  </text><text x="400" y="95" fill="#fff" font-family="Arial, sans-serif" font-size="10" text-anchor="middle">
    Bestillinger og leveranser
  </text><path stroke="#7f8c8d" stroke-width="3" d="m320 160-80-40M480 160l80-40M320 240l-80 120M480 240l80 120M400 120v-10"/><rect width="300" height="50" x="250" y="430" fill="#2c3e50" stroke="#34495e" stroke-width="2" rx="8"/><text x="400" y="450" fill="#fff" font-family="Arial, sans-serif" font-size="14" font-weight="bold" text-anchor="middle">
    AI-FORDELER
  </text><text x="400" y="470" fill="#fff" font-family="Arial, sans-serif" font-size="12" text-anchor="middle">
    90% reduksjon i behandlingstid • 95% nøyaktighet • 24/7 drift
  </text><circle cx="300" cy="200" r="15" fill="#ecf0f1" stroke="#bdc3c7" stroke-width="2"/><text x="300" y="206" fill="#2c3e50" font-family="Arial, sans-serif" font-size="10" font-weight="bold" text-anchor="middle">
    DATA
  </text><circle cx="500" cy="200" r="15" fill="#ecf0f1" stroke="#bdc3c7" stroke-width="2"/><text x="500" y="206" fill="#2c3e50" font-family="Arial, sans-serif" font-size="10" font-weight="bold" text-anchor="middle">
    ML
  </text><path fill="none" stroke="#9b59b6" stroke-width="3" marker-end="url(#a)" d="M315 200h70"/><path fill="none" stroke="#9b59b6" stroke-width="3" marker-end="url(#a)" d="M485 200h-70"/><defs><marker id="a" markerHeight="7" markerWidth="10" orient="auto" refX="9" refY="3.5"><path fill="#9b59b6" d="m0 0 10 3.5L0 7z"/></marker></defs><text x="50" y="470" fill="#2c3e50" font-family="Arial, sans-serif" font-size="10" font-weight="bold">
    Teknologier:
  </text><text x="50" y="485" fill="#7f8c8d" font-family="Arial, sans-serif" font-size="9">
    • Natural Language Processing (NLP)
  </text><text x="250" y="485" fill="#7f8c8d" font-family="Arial, sans-serif" font-size="9">
    • Computer Vision
  </text><text x="400" y="485" fill="#7f8c8d" font-family="Arial, sans-serif" font-size="9">
    • Deep Learning
  </text><text x="550" y="485" fill="#7f8c8d" font-family="Arial, sans-serif" font-size="9">
    • Pattern Recognition
  </text></svg>