<svg xmlns="http://www.w3.org/2000/svg" width="800" height="400" viewBox="0 0 800 400"><path fill="#f8f9fa" d="M0 0h800v400H0z"/><text x="400" y="30" fill="#2c3e50" font-family="Arial, sans-serif" font-size="24" font-weight="bold" text-anchor="middle">
    Elektronisk Fakturering
  </text><circle cx="400" cy="200" r="80" fill="#3498db" stroke="#2980b9" stroke-width="3"/><text x="400" y="195" fill="#fff" font-family="Arial, sans-serif" font-size="14" font-weight="bold" text-anchor="middle">
    Elektronisk
  </text><text x="400" y="210" fill="#fff" font-family="Arial, sans-serif" font-size="14" font-weight="bold" text-anchor="middle">
    Fakturering
  </text><circle cx="200" cy="120" r="50" fill="#e74c3c" stroke="#c0392b" stroke-width="2"/><text x="200" y="125" fill="#fff" font-family="Arial, sans-serif" font-size="12" font-weight="bold" text-anchor="middle">
    eFaktura
  </text><path stroke="#7f8c8d" stroke-width="2" d="m240 150 110 30"/><circle cx="600" cy="120" r="50" fill="#27ae60" stroke="#229954" stroke-width="2"/><text x="600" y="125" fill="#fff" font-family="Arial, sans-serif" font-size="12" font-weight="bold" text-anchor="middle">
    EHF
  </text><path stroke="#7f8c8d" stroke-width="2" d="m560 150-110 30"/><circle cx="200" cy="280" r="50" fill="#ff6b35" stroke="#e55a2b" stroke-width="2"/><text x="200" y="275" fill="#fff" font-family="Arial, sans-serif" font-size="11" font-weight="bold" text-anchor="middle">
    Vipps
  </text><text x="200" y="290" fill="#fff" font-family="Arial, sans-serif" font-size="11" font-weight="bold" text-anchor="middle">
    eFaktura
  </text><path stroke="#7f8c8d" stroke-width="2" d="m240 250 110-30"/><circle cx="600" cy="280" r="50" fill="#9b59b6" stroke="#8e44ad" stroke-width="2"/><text x="600" y="275" fill="#fff" font-family="Arial, sans-serif" font-size="11" font-weight="bold" text-anchor="middle">
    PDF
  </text><text x="600" y="290" fill="#fff" font-family="Arial, sans-serif" font-size="11" font-weight="bold" text-anchor="middle">
    Fakturaer
  </text><path stroke="#7f8c8d" stroke-width="2" d="m560 250-110-30"/><rect width="160" height="60" x="320" y="320" fill="#f39c12" stroke="#e67e22" stroke-width="2" rx="10"/><text x="400" y="340" fill="#fff" font-family="Arial, sans-serif" font-size="12" font-weight="bold" text-anchor="middle">
    PEPPOL
  </text><text x="400" y="355" fill="#fff" font-family="Arial, sans-serif" font-size="12" font-weight="bold" text-anchor="middle">
    Nettverk
  </text><text x="400" y="370" fill="#fff" font-family="Arial, sans-serif" font-size="10" text-anchor="middle">
    Infrastruktur
  </text><path stroke="#7f8c8d" stroke-width="2" d="M400 280v40"/><rect width="120" height="40" x="50" y="50" fill="#ecf0f1" stroke="#bdc3c7" rx="5"/><text x="110" y="65" fill="#2c3e50" font-family="Arial, sans-serif" font-size="10" font-weight="bold" text-anchor="middle">
    Kostnadsbesparelser
  </text><text x="110" y="80" fill="#7f8c8d" font-family="Arial, sans-serif" font-size="9" text-anchor="middle">
    80-90% reduksjon
  </text><rect width="120" height="40" x="630" y="50" fill="#ecf0f1" stroke="#bdc3c7" rx="5"/><text x="690" y="65" fill="#2c3e50" font-family="Arial, sans-serif" font-size="10" font-weight="bold" text-anchor="middle">
    Automatisering
  </text><text x="690" y="80" fill="#7f8c8d" font-family="Arial, sans-serif" font-size="9" text-anchor="middle">
    Effektive prosesser
  </text><rect width="120" height="40" x="50" y="350" fill="#ecf0f1" stroke="#bdc3c7" rx="5"/><text x="110" y="365" fill="#2c3e50" font-family="Arial, sans-serif" font-size="10" font-weight="bold" text-anchor="middle">
    Miljøvennlig
  </text><text x="110" y="380" fill="#7f8c8d" font-family="Arial, sans-serif" font-size="9" text-anchor="middle">
    Papirfri løsning
  </text><rect width="120" height="40" x="630" y="350" fill="#ecf0f1" stroke="#bdc3c7" rx="5"/><text x="690" y="365" fill="#2c3e50" font-family="Arial, sans-serif" font-size="10" font-weight="bold" text-anchor="middle">
    Juridisk gyldig
  </text><text x="690" y="380" fill="#7f8c8d" font-family="Arial, sans-serif" font-size="9" text-anchor="middle">
    Samme status som papir
  </text></svg>