<svg xmlns="http://www.w3.org/2000/svg" width="800" height="500" viewBox="0 0 800 500"><path fill="#f8f9fa" d="M0 0h800v500H0z"/><text x="400" y="30" fill="#2c3e50" font-family="Arial, sans-serif" font-size="22" font-weight="bold" text-anchor="middle">
    Offentlig Sektor - Obligatorisk Elektronisk Fakturering
  </text><path fill="#34495e" stroke="#2c3e50" stroke-width="3" d="M350 60h100v80H350z"/><path fill="#e74c3c" stroke="#c0392b" stroke-width="2" d="m340 60 60-20 60 20z"/><path fill="#ecf0f1" d="M365 80h15v25h-15zM385 80h15v25h-15zM405 80h15v25h-15zM425 80h15v25h-15zM365 110h15v25h-15zM385 110h15v25h-15zM405 110h15v25h-15zM425 110h15v25h-15z"/><text x="400" y="160" fill="#2c3e50" font-family="Arial, sans-serif" font-size="14" font-weight="bold" text-anchor="middle">
    Offentlig Sektor
  </text><rect width="300" height="150" x="50" y="200" fill="#e74c3c" stroke="#c0392b" stroke-width="3" rx="10"/><text x="200" y="225" fill="#fff" font-family="Arial, sans-serif" font-size="16" font-weight="bold" text-anchor="middle">
    OBLIGATORISKE KRAV
  </text><text x="200" y="245" fill="#fff" font-family="Arial, sans-serif" font-size="14" text-anchor="middle">
    Fra 2019
  </text><text x="70" y="270" fill="#fff" font-family="Arial, sans-serif" font-size="12">
    ✓ Alle fakturaer over 100 000 kr
  </text><text x="70" y="290" fill="#fff" font-family="Arial, sans-serif" font-size="12">
    ✓ EHF-format påkrevd
  </text><text x="70" y="310" fill="#fff" font-family="Arial, sans-serif" font-size="12">
    ✓ PEPPOL-registrering obligatorisk
  </text><text x="70" y="330" fill="#fff" font-family="Arial, sans-serif" font-size="12">
    ✓ Validering mot offentlige regler
  </text><rect width="300" height="150" x="450" y="200" fill="#f39c12" stroke="#e67e22" stroke-width="3" rx="10"/><text x="600" y="225" fill="#fff" font-family="Arial, sans-serif" font-size="16" font-weight="bold" text-anchor="middle">
    KONSEKVENSER
  </text><text x="600" y="245" fill="#fff" font-family="Arial, sans-serif" font-size="14" text-anchor="middle">
    Ved manglende etterlevelse
  </text><text x="470" y="270" fill="#fff" font-family="Arial, sans-serif" font-size="12">
    ⚠ Forsinket betaling
  </text><text x="470" y="290" fill="#fff" font-family="Arial, sans-serif" font-size="12">
    ⚠ Ekstra behandlingsgebyrer
  </text><text x="470" y="310" fill="#fff" font-family="Arial, sans-serif" font-size="12">
    ⚠ Utelukkelse fra anbudsrunder
  </text><text x="470" y="330" fill="#fff" font-family="Arial, sans-serif" font-size="12">
    ⚠ Kontraktbrudd
  </text><rect width="400" height="100" x="200" y="380" fill="#27ae60" stroke="#229954" stroke-width="3" rx="10"/><text x="400" y="405" fill="#fff" font-family="Arial, sans-serif" font-size="16" font-weight="bold" text-anchor="middle">
    IMPLEMENTERINGSSTØTTE
  </text><text x="400" y="425" fill="#fff" font-family="Arial, sans-serif" font-size="14" text-anchor="middle">
    Fra Digdir og offentlige myndigheter
  </text><text x="220" y="445" fill="#fff" font-family="Arial, sans-serif" font-size="11">
    • Veiledning og dokumentasjon
  </text><text x="220" y="460" fill="#fff" font-family="Arial, sans-serif" font-size="11">
    • Testmiljøer for validering
  </text><text x="420" y="445" fill="#fff" font-family="Arial, sans-serif" font-size="11">
    • Opplæring og kurs
  </text><text x="420" y="460" fill="#fff" font-family="Arial, sans-serif" font-size="11">
    • Teknisk support
  </text><path fill="none" stroke="#7f8c8d" stroke-width="3" marker-end="url(#a)" d="m400 170-200 30"/><path fill="none" stroke="#7f8c8d" stroke-width="3" marker-end="url(#a)" d="m400 170 200 30"/><path fill="none" stroke="#7f8c8d" stroke-width="3" marker-end="url(#a)" d="M400 170v210"/><defs><marker id="a" markerHeight="7" markerWidth="10" orient="auto" refX="9" refY="3.5"><path fill="#7f8c8d" d="m0 0 10 3.5L0 7z"/></marker></defs><circle cx="100" cy="100" r="40" fill="#3498db" stroke="#2980b9" stroke-width="3"/><text x="100" y="95" fill="#fff" font-family="Arial, sans-serif" font-size="14" font-weight="bold" text-anchor="middle">
    100%
  </text><text x="100" y="110" fill="#fff" font-family="Arial, sans-serif" font-size="10" text-anchor="middle">
    Obligatorisk
  </text><text x="100" y="155" fill="#2c3e50" font-family="Arial, sans-serif" font-size="10" text-anchor="middle">
    Alle leverandører
  </text><circle cx="700" cy="100" r="40" fill="#9b59b6" stroke="#8e44ad" stroke-width="3"/><text x="700" y="90" fill="#fff" font-family="Arial, sans-serif" font-size="12" font-weight="bold" text-anchor="middle">
    100k+
  </text><text x="700" y="105" fill="#fff" font-family="Arial, sans-serif" font-size="10" text-anchor="middle">
    kroner
  </text><text x="700" y="120" fill="#fff" font-family="Arial, sans-serif" font-size="10" text-anchor="middle">
    grense
  </text><text x="700" y="155" fill="#2c3e50" font-family="Arial, sans-serif" font-size="10" text-anchor="middle">
    Minimumsbeløp
  </text></svg>