<svg xmlns="http://www.w3.org/2000/svg" width="800" height="600"><defs><linearGradient id="a" x1="0%" x2="100%" y1="0%" y2="0%"><stop offset="0%" style="stop-color:#4caf50;stop-opacity:1"/><stop offset="100%" style="stop-color:#2e7d32;stop-opacity:1"/></linearGradient><linearGradient id="b" x1="0%" x2="100%" y1="0%" y2="0%"><stop offset="0%" style="stop-color:#ff9800;stop-opacity:1"/><stop offset="100%" style="stop-color:#f57c00;stop-opacity:1"/></linearGradient><linearGradient id="c" x1="0%" x2="100%" y1="0%" y2="0%"><stop offset="0%" style="stop-color:#f44336;stop-opacity:1"/><stop offset="100%" style="stop-color:#c62828;stop-opacity:1"/></linearGradient></defs><path fill="#f8f9fa" d="M0 0h800v600H0z"/><text x="400" y="30" fill="#333" font-family="Arial, sans-serif" font-size="24" font-weight="bold" text-anchor="middle">
    Bransjemarginer Sammenligning
  </text><text x="400" y="55" fill="#666" font-family="Arial, sans-serif" font-size="14" text-anchor="middle">
    Typiske bruttofortjenestemarginer per bransje
  </text><path stroke="#333" stroke-width="2" d="M80 100v420M80 520h670"/><text x="70" y="525" fill="#666" font-family="Arial, sans-serif" font-size="12" text-anchor="end">0%</text><text x="70" y="440" fill="#666" font-family="Arial, sans-serif" font-size="12" text-anchor="end">20%</text><text x="70" y="355" fill="#666" font-family="Arial, sans-serif" font-size="12" text-anchor="end">40%</text><text x="70" y="270" fill="#666" font-family="Arial, sans-serif" font-size="12" text-anchor="end">60%</text><text x="70" y="185" fill="#666" font-family="Arial, sans-serif" font-size="12" text-anchor="end">80%</text><text x="70" y="105" fill="#666" font-family="Arial, sans-serif" font-size="12" text-anchor="end">100%</text><path stroke="#e0e0e0" d="M80 435h670M80 350h670M80 265h670M80 180h670"/><rect width="60" height="340" x="100" y="180" fill="url(#a)" rx="3"/><text x="130" y="175" fill="#333" font-family="Arial, sans-serif" font-size="12" font-weight="bold" text-anchor="middle">80%</text><text x="130" y="540" fill="#333" font-family="Arial, sans-serif" font-size="10" text-anchor="middle">Software/</text><text x="130" y="555" fill="#333" font-family="Arial, sans-serif" font-size="10" text-anchor="middle">SaaS</text><rect width="60" height="298" x="180" y="222" fill="url(#a)" rx="3"/><text x="210" y="217" fill="#333" font-family="Arial, sans-serif" font-size="12" font-weight="bold" text-anchor="middle">70%</text><text x="210" y="540" fill="#333" font-family="Arial, sans-serif" font-size="10" text-anchor="middle">Farmasi</text><rect width="60" height="277" x="260" y="243" fill="url(#a)" rx="3"/><text x="290" y="238" fill="#333" font-family="Arial, sans-serif" font-size="12" font-weight="bold" text-anchor="middle">65%</text><text x="290" y="540" fill="#333" font-family="Arial, sans-serif" font-size="10" text-anchor="middle">Restaurant</text><rect width="60" height="255" x="340" y="265" fill="url(#a)" rx="3"/><text x="370" y="260" fill="#333" font-family="Arial, sans-serif" font-size="12" font-weight="bold" text-anchor="middle">60%</text><text x="370" y="540" fill="#333" font-family="Arial, sans-serif" font-size="10" text-anchor="middle">Luksus-</text><text x="370" y="555" fill="#333" font-family="Arial, sans-serif" font-size="10" text-anchor="middle">varer</text><rect width="60" height="213" x="420" y="307" fill="url(#b)" rx="3"/><text x="450" y="302" fill="#333" font-family="Arial, sans-serif" font-size="12" font-weight="bold" text-anchor="middle">50%</text><text x="450" y="540" fill="#333" font-family="Arial, sans-serif" font-size="10" text-anchor="middle">Detaljhandel</text><text x="450" y="555" fill="#333" font-family="Arial, sans-serif" font-size="10" text-anchor="middle">(klær)</text><rect width="60" height="106" x="500" y="414" fill="url(#b)" rx="3"/><text x="530" y="409" fill="#333" font-family="Arial, sans-serif" font-size="12" font-weight="bold" text-anchor="middle">25%</text><text x="530" y="540" fill="#333" font-family="Arial, sans-serif" font-size="10" text-anchor="middle">Dagligvare</text><rect width="60" height="64" x="580" y="456" fill="url(#c)" rx="3"/><text x="610" y="451" fill="#333" font-family="Arial, sans-serif" font-size="12" font-weight="bold" text-anchor="middle">15%</text><text x="610" y="540" fill="#333" font-family="Arial, sans-serif" font-size="10" text-anchor="middle">Bilhandel</text><rect width="150" height="120" x="580" y="100" fill="#fff" stroke="#ccc" rx="5"/><text x="655" y="120" fill="#333" font-family="Arial, sans-serif" font-size="14" font-weight="bold" text-anchor="middle">
    Marginkategorier
  </text><rect width="15" height="15" x="590" y="135" fill="url(#a)" rx="2"/><text x="615" y="147" fill="#333" font-family="Arial, sans-serif" font-size="12">Høy (&gt;50%)</text><rect width="15" height="15" x="590" y="160" fill="url(#b)" rx="2"/><text x="615" y="172" fill="#333" font-family="Arial, sans-serif" font-size="12">Middels (20-50%)</text><rect width="15" height="15" x="590" y="185" fill="url(#c)" rx="2"/><text x="615" y="197" fill="#333" font-family="Arial, sans-serif" font-size="12">Lav (&lt;20%)</text><text x="25" y="310" fill="#333" font-family="Arial, sans-serif" font-size="14" font-weight="bold" text-anchor="middle" transform="rotate(-90 25 310)">
    Bruttofortjenestemargin (%)
  </text><text x="415" y="590" fill="#333" font-family="Arial, sans-serif" font-size="14" font-weight="bold" text-anchor="middle">
    Bransjer
  </text></svg>