<svg xmlns="http://www.w3.org/2000/svg" width="900" height="700"><path fill="#f8f9fa" d="M0 0h900v700H0z"/><text x="450" y="40" fill="#2c3e50" font-family="Arial, sans-serif" font-size="22" font-weight="bold" text-anchor="middle">Kompleks Konsernstruktur Eksempel</text><rect width="150" height="60" x="375" y="70" fill="#2c3e50" stroke="#34495e" stroke-width="2" rx="8"/><text x="450" y="95" fill="#fff" font-family="Arial, sans-serif" font-size="12" font-weight="bold" text-anchor="middle">INVEST HOLDING AS</text><text x="450" y="110" fill="#fff" font-family="Arial, sans-serif" font-size="10" text-anchor="middle">(Ultimate Parent)</text><text x="450" y="125" fill="#fff" font-family="Arial, sans-serif" font-size="10" text-anchor="middle">100% eier</text><path stroke="#34495e" stroke-width="2" d="M450 130v30M300 160h300M300 160v20M450 160v20M600 160v20"/><rect width="150" height="60" x="225" y="180" fill="#3498db" stroke="#2980b9" stroke-width="2" rx="8"/><text x="300" y="205" fill="#fff" font-family="Arial, sans-serif" font-size="12" font-weight="bold" text-anchor="middle">NORGE HOLDING AS</text><text x="300" y="220" fill="#fff" font-family="Arial, sans-serif" font-size="10" text-anchor="middle">Norske virksomheter</text><text x="300" y="235" fill="#fff" font-family="Arial, sans-serif" font-size="10" text-anchor="middle">100% eierandel</text><rect width="150" height="60" x="375" y="180" fill="#3498db" stroke="#2980b9" stroke-width="2" rx="8"/><text x="450" y="205" fill="#fff" font-family="Arial, sans-serif" font-size="12" font-weight="bold" text-anchor="middle">TECH HOLDING AS</text><text x="450" y="220" fill="#fff" font-family="Arial, sans-serif" font-size="10" text-anchor="middle">Teknologiselskaper</text><text x="450" y="235" fill="#fff" font-family="Arial, sans-serif" font-size="10" text-anchor="middle">100% eierandel</text><rect width="150" height="60" x="525" y="180" fill="#3498db" stroke="#2980b9" stroke-width="2" rx="8"/><text x="600" y="205" fill="#fff" font-family="Arial, sans-serif" font-size="12" font-weight="bold" text-anchor="middle">EIENDOM HOLDING AS</text><text x="600" y="220" fill="#fff" font-family="Arial, sans-serif" font-size="10" text-anchor="middle">Eiendomsvirksomhet</text><text x="600" y="235" fill="#fff" font-family="Arial, sans-serif" font-size="10" text-anchor="middle">80% eierandel</text><path stroke="#34495e" stroke-width="2" d="M300 240v30M200 270h200M200 270v20M300 270v20M400 270v20"/><rect width="150" height="50" x="125" y="290" fill="#27ae60" stroke="#229954" rx="6"/><text x="200" y="310" fill="#fff" font-family="Arial, sans-serif" font-size="11" font-weight="bold" text-anchor="middle">PRODUKSJON AS</text><text x="200" y="325" fill="#fff" font-family="Arial, sans-serif" font-size="9" text-anchor="middle">Industriell produksjon</text><text x="200" y="335" fill="#fff" font-family="Arial, sans-serif" font-size="9" text-anchor="middle">90% eierandel</text><rect width="150" height="50" x="225" y="290" fill="#27ae60" stroke="#229954" rx="6"/><text x="300" y="310" fill="#fff" font-family="Arial, sans-serif" font-size="11" font-weight="bold" text-anchor="middle">HANDEL AS</text><text x="300" y="325" fill="#fff" font-family="Arial, sans-serif" font-size="9" text-anchor="middle">Detaljhandel</text><text x="300" y="335" fill="#fff" font-family="Arial, sans-serif" font-size="9" text-anchor="middle">100% eierandel</text><rect width="150" height="50" x="325" y="290" fill="#27ae60" stroke="#229954" rx="6"/><text x="400" y="310" fill="#fff" font-family="Arial, sans-serif" font-size="11" font-weight="bold" text-anchor="middle">SERVICE AS</text><text x="400" y="325" fill="#fff" font-family="Arial, sans-serif" font-size="9" text-anchor="middle">Tjenester</text><text x="400" y="335" fill="#fff" font-family="Arial, sans-serif" font-size="9" text-anchor="middle">75% eierandel</text><path stroke="#34495e" stroke-width="2" d="M450 240v30M400 370h100M400 370v20M450 270v100M500 370v20"/><rect width="150" height="50" x="325" y="390" fill="#e67e22" stroke="#d35400" rx="6"/><text x="400" y="410" fill="#fff" font-family="Arial, sans-serif" font-size="11" font-weight="bold" text-anchor="middle">SOFTWARE AS</text><text x="400" y="425" fill="#fff" font-family="Arial, sans-serif" font-size="9" text-anchor="middle">Programvareutvikling</text><text x="400" y="435" fill="#fff" font-family="Arial, sans-serif" font-size="9" text-anchor="middle">100% eierandel</text><rect width="150" height="50" x="425" y="390" fill="#e67e22" stroke="#d35400" rx="6"/><text x="500" y="410" fill="#fff" font-family="Arial, sans-serif" font-size="11" font-weight="bold" text-anchor="middle">DIGITAL AS</text><text x="500" y="425" fill="#fff" font-family="Arial, sans-serif" font-size="9" text-anchor="middle">Digitale tjenester</text><text x="500" y="435" fill="#fff" font-family="Arial, sans-serif" font-size="9" text-anchor="middle">60% eierandel</text><path stroke="#34495e" stroke-width="2" d="M600 240v30M550 270h100M550 270v20M650 270v20"/><rect width="150" height="50" x="475" y="290" fill="#9b59b6" stroke="#8e44ad" rx="6"/><text x="550" y="310" fill="#fff" font-family="Arial, sans-serif" font-size="11" font-weight="bold" text-anchor="middle">UTLEIE AS</text><text x="550" y="325" fill="#fff" font-family="Arial, sans-serif" font-size="9" text-anchor="middle">Eiendomsutleie</text><text x="550" y="335" fill="#fff" font-family="Arial, sans-serif" font-size="9" text-anchor="middle">100% eierandel</text><rect width="150" height="50" x="575" y="290" fill="#9b59b6" stroke="#8e44ad" rx="6"/><text x="650" y="310" fill="#fff" font-family="Arial, sans-serif" font-size="11" font-weight="bold" text-anchor="middle">UTVIKLING AS</text><text x="650" y="325" fill="#fff" font-family="Arial, sans-serif" font-size="9" text-anchor="middle">Eiendomsutvikling</text><text x="650" y="335" fill="#fff" font-family="Arial, sans-serif" font-size="9" text-anchor="middle">70% eierandel</text><path stroke="#34495e" stroke-width="2" d="M400 440v30"/><rect width="150" height="40" x="325" y="470" fill="#f39c12" stroke="#e67e22" rx="5"/><text x="400" y="485" fill="#fff" font-family="Arial, sans-serif" font-size="10" font-weight="bold" text-anchor="middle">STARTUP AS</text><text x="400" y="500" fill="#fff" font-family="Arial, sans-serif" font-size="8" text-anchor="middle">Nytt teknologiselskap (51%)</text><circle cx="500" cy="415" r="12" fill="#e74c3c"/><text x="500" y="420" fill="#fff" font-family="Arial, sans-serif" font-size="8" font-weight="bold" text-anchor="middle">MIN</text><circle cx="400" cy="315" r="12" fill="#e74c3c"/><text x="400" y="320" fill="#fff" font-family="Arial, sans-serif" font-size="8" font-weight="bold" text-anchor="middle">MIN</text><circle cx="200" cy="315" r="12" fill="#e74c3c"/><text x="200" y="320" fill="#fff" font-family="Arial, sans-serif" font-size="8" font-weight="bold" text-anchor="middle">MIN</text><rect width="800" height="150" x="50" y="530" fill="#fff" stroke="#bdc3c7" stroke-width="2" rx="10"/><text x="450" y="555" fill="#2c3e50" font-family="Arial, sans-serif" font-size="16" font-weight="bold" text-anchor="middle">KONSERNSTRUKTUR ANALYSE</text><rect width="240" height="90" x="70" y="570" fill="#ecf0f1" stroke="#bdc3c7" rx="5"/><text x="190" y="590" fill="#2c3e50" font-family="Arial, sans-serif" font-size="12" font-weight="bold" text-anchor="middle">KONSOLIDERINGSKRAV</text><text x="80" y="605" fill="#2c3e50" font-family="Arial, sans-serif" font-size="10">• Alle datterselskaper konsolideres</text><text x="80" y="620" fill="#2c3e50" font-family="Arial, sans-serif" font-size="10">• Minoritetsinteresser vises separat</text><text x="80" y="635" fill="#2c3e50" font-family="Arial, sans-serif" font-size="10">• Eliminering av interne transaksjoner</text><text x="80" y="650" fill="#2c3e50" font-family="Arial, sans-serif" font-size="10">• Konsernregnskap på alle nivåer</text><rect width="240" height="90" x="330" y="570" fill="#ecf0f1" stroke="#bdc3c7" rx="5"/><text x="450" y="590" fill="#2c3e50" font-family="Arial, sans-serif" font-size="12" font-weight="bold" text-anchor="middle">SKATTEMESSIGE FORHOLD</text><text x="340" y="605" fill="#2c3e50" font-family="Arial, sans-serif" font-size="10">• Konsernbidrag mellom norske selskaper</text><text x="340" y="620" fill="#2c3e50" font-family="Arial, sans-serif" font-size="10">• Fritaksmetoden for utbytte</text><text x="340" y="635" fill="#2c3e50" font-family="Arial, sans-serif" font-size="10">• Skattefrie gevinster ved salg</text><text x="340" y="650" fill="#2c3e50" font-family="Arial, sans-serif" font-size="10">• Optimalisering av konsernstruktur</text><rect width="240" height="90" x="590" y="570" fill="#ecf0f1" stroke="#bdc3c7" rx="5"/><text x="710" y="590" fill="#2c3e50" font-family="Arial, sans-serif" font-size="12" font-weight="bold" text-anchor="middle">STYRING &amp; KONTROLL</text><text x="600" y="605" fill="#2c3e50" font-family="Arial, sans-serif" font-size="10">• Sentralisert strategisk ledelse</text><text x="600" y="620" fill="#2c3e50" font-family="Arial, sans-serif" font-size="10">• Desentralisert operasjonell drift</text><text x="600" y="635" fill="#2c3e50" font-family="Arial, sans-serif" font-size="10">• Risikostyring på konsernnivå</text><text x="600" y="650" fill="#2c3e50" font-family="Arial, sans-serif" font-size="10">• Kapitalallokering og finansiering</text></svg>