<svg xmlns="http://www.w3.org/2000/svg" width="800" height="600" font-family="Arial, sans-serif"><title>Kontingent Typer</title><rect width="780" height="580" x="10" y="10" fill="#fff" stroke="#ccc" stroke-width="2" rx="15"/><text x="400" y="50" fill="#2c3e50" font-size="24" font-weight="bold" text-anchor="middle">Typer Kontingent</text><circle cx="400" cy="200" r="60" fill="#34495e" stroke="#2c3e50" stroke-width="3"/><text x="400" y="195" fill="#fff" font-size="14" font-weight="bold" text-anchor="middle">KONTINGENT</text><text x="400" y="210" fill="#fff" font-size="12" text-anchor="middle">TYPER</text><rect width="180" height="120" x="80" y="120" fill="#3498db" stroke="#2980b9" stroke-width="2" rx="10"/><text x="170" y="145" fill="#fff" font-size="16" font-weight="bold" text-anchor="middle">Medlemskontingent</text><text x="170" y="170" fill="#fff" font-size="12" text-anchor="middle">• Foreninger</text><text x="170" y="185" fill="#fff" font-size="12" text-anchor="middle">• Fagforeninger</text><text x="170" y="200" fill="#fff" font-size="12" text-anchor="middle">• Idrettslag</text><text x="170" y="215" fill="#fff" font-size="12" text-anchor="middle">• Bransjeorganisasjoner</text><path stroke="#34495e" stroke-width="2" d="M260 180h80"/><rect width="180" height="120" x="540" y="120" fill="#e74c3c" stroke="#c0392b" stroke-width="2" rx="10"/><text x="630" y="145" fill="#fff" font-size="16" font-weight="bold" text-anchor="middle">Abonnementskontingent</text><text x="630" y="170" fill="#fff" font-size="12" text-anchor="middle">• Programvare</text><text x="630" y="185" fill="#fff" font-size="12" text-anchor="middle">• Digitale tjenester</text><text x="630" y="200" fill="#fff" font-size="12" text-anchor="middle">• Publikasjoner</text><text x="630" y="215" fill="#fff" font-size="12" text-anchor="middle">• Konsulentnettverk</text><path stroke="#34495e" stroke-width="2" d="M540 180h-80"/><rect width="180" height="120" x="310" y="320" fill="#27ae60" stroke="#229954" stroke-width="2" rx="10"/><text x="400" y="345" fill="#fff" font-size="16" font-weight="bold" text-anchor="middle">Forsikringskontingent</text><text x="400" y="370" fill="#fff" font-size="12" text-anchor="middle">• Gjensidige selskap</text><text x="400" y="385" fill="#fff" font-size="12" text-anchor="middle">• Medlemseierskap</text><text x="400" y="400" fill="#fff" font-size="12" text-anchor="middle">• Forsikringsdekning</text><text x="400" y="415" fill="#fff" font-size="12" text-anchor="middle">• Rettigheter &amp; plikter</text><path stroke="#34495e" stroke-width="2" d="M400 320v-60"/><text x="100" y="480" fill="#2c3e50" font-size="18" font-weight="bold">Sammenligning av egenskaper:</text><path fill="#ecf0f1" stroke="#bdc3c7" d="M80 500h120v30H80z"/><text x="140" y="520" fill="#2c3e50" font-size="12" font-weight="bold" text-anchor="middle">Type</text><path fill="#ecf0f1" stroke="#bdc3c7" d="M200 500h100v30H200z"/><text x="250" y="520" fill="#2c3e50" font-size="12" font-weight="bold" text-anchor="middle">MVA-plikt</text><path fill="#ecf0f1" stroke="#bdc3c7" d="M300 500h120v30H300z"/><text x="360" y="520" fill="#2c3e50" font-size="12" font-weight="bold" text-anchor="middle">Fradragsrett</text><path fill="#ecf0f1" stroke="#bdc3c7" d="M420 500h120v30H420z"/><text x="480" y="520" fill="#2c3e50" font-size="12" font-weight="bold" text-anchor="middle">Periodisering</text><path fill="#ecf0f1" stroke="#bdc3c7" d="M540 500h120v30H540z"/><text x="600" y="520" fill="#2c3e50" font-size="12" font-weight="bold" text-anchor="middle">Regelmessighet</text><path fill="#e8f4fd" stroke="#bdc3c7" d="M80 530h120v25H80z"/><text x="140" y="547" fill="#2c3e50" font-size="11" text-anchor="middle">Medlemskap</text><path fill="#e8f4fd" stroke="#bdc3c7" d="M200 530h100v25H200z"/><text x="250" y="547" fill="#2c3e50" font-size="11" text-anchor="middle">Ofte fritatt</text><path fill="#e8f4fd" stroke="#bdc3c7" d="M300 530h120v25H300z"/><text x="360" y="547" fill="#2c3e50" font-size="11" text-anchor="middle">Ja (bedrift)</text><path fill="#e8f4fd" stroke="#bdc3c7" d="M420 530h120v25H420z"/><text x="480" y="547" fill="#2c3e50" font-size="11" text-anchor="middle">Nødvendig</text><path fill="#e8f4fd" stroke="#bdc3c7" d="M540 530h120v25H540z"/><text x="600" y="547" fill="#2c3e50" font-size="11" text-anchor="middle">Årlig/månedlig</text><path fill="#fdf2f2" stroke="#bdc3c7" d="M80 555h120v25H80z"/><text x="140" y="572" fill="#2c3e50" font-size="11" text-anchor="middle">Abonnement</text><path fill="#fdf2f2" stroke="#bdc3c7" d="M200 555h100v25H200z"/><text x="250" y="572" fill="#2c3e50" font-size="11" text-anchor="middle">MVA-pliktig</text><path fill="#fdf2f2" stroke="#bdc3c7" d="M300 555h120v25H300z"/><text x="360" y="572" fill="#2c3e50" font-size="11" text-anchor="middle">Ja (bedrift)</text><path fill="#fdf2f2" stroke="#bdc3c7" d="M420 555h120v25H420z"/><text x="480" y="572" fill="#2c3e50" font-size="11" text-anchor="middle">Viktig</text><path fill="#fdf2f2" stroke="#bdc3c7" d="M540 555h120v25H540z"/><text x="600" y="572" fill="#2c3e50" font-size="11" text-anchor="middle">Månedlig</text></svg>