<svg xmlns="http://www.w3.org/2000/svg" width="700" height="500"><defs><linearGradient id="a" x1="0%" x2="100%" y1="0%" y2="100%"><stop offset="0%" style="stop-color:#f8f9fa;stop-opacity:1"/><stop offset="100%" style="stop-color:#e9ecef;stop-opacity:1"/></linearGradient><linearGradient id="b" x1="0%" x2="100%" y1="0%" y2="0%"><stop offset="0%" style="stop-color:#06c;stop-opacity:1"/><stop offset="100%" style="stop-color:#049;stop-opacity:1"/></linearGradient></defs><path fill="url(#a)" stroke="#dee2e6" stroke-width="2" d="M0 0h700v500H0z"/><path fill="url(#b)" d="M0 0h700v70H0z"/><text x="350" y="40" fill="#fff" font-family="Arial, sans-serif" font-size="28" font-weight="bold" text-anchor="middle">
    MVA-satser i Norge
  </text><rect width="280" height="160" x="50" y="90" fill="#fff" stroke="#d32f2f" stroke-width="3" rx="10"/><rect width="280" height="50" x="50" y="90" fill="#d32f2f" rx="10"/><path fill="#fff" d="M50 140h280v110H50z"/><text x="190" y="120" fill="#fff" font-family="Arial, sans-serif" font-size="24" font-weight="bold" text-anchor="middle">
    25% - Ordinær sats
  </text><text x="70" y="170" fill="#333" font-family="Arial, sans-serif" font-size="14" font-weight="bold">
    Gjelder for:
  </text><text x="70" y="190" fill="#666" font-family="Arial, sans-serif" font-size="12">
    • Klær og sko
  </text><text x="70" y="205" fill="#666" font-family="Arial, sans-serif" font-size="12">
    • Elektronikk og hvitevarer
  </text><text x="70" y="220" fill="#666" font-family="Arial, sans-serif" font-size="12">
    • Møbler og innredning
  </text><text x="70" y="235" fill="#666" font-family="Arial, sans-serif" font-size="12">
    • Restauranttjenester
  </text><rect width="280" height="160" x="370" y="90" fill="#fff" stroke="#f57c00" stroke-width="3" rx="10"/><rect width="280" height="50" x="370" y="90" fill="#f57c00" rx="10"/><path fill="#fff" d="M370 140h280v110H370z"/><text x="510" y="120" fill="#fff" font-family="Arial, sans-serif" font-size="24" font-weight="bold" text-anchor="middle">
    15% - Redusert sats
  </text><text x="390" y="170" fill="#333" font-family="Arial, sans-serif" font-size="14" font-weight="bold">
    Gjelder for:
  </text><text x="390" y="190" fill="#666" font-family="Arial, sans-serif" font-size="12">
    • Næringsmidler (mat og drikke)
  </text><text x="390" y="205" fill="#666" font-family="Arial, sans-serif" font-size="12">
    • Overnatting (hotell, pensjonat)
  </text><text x="390" y="220" fill="#666" font-family="Arial, sans-serif" font-size="12">
    • Persontransport
  </text><text x="390" y="235" fill="#666" font-family="Arial, sans-serif" font-size="12">
    • Kino og kulturarrangementer
  </text><rect width="280" height="160" x="50" y="270" fill="#fff" stroke="#4caf50" stroke-width="3" rx="10"/><rect width="280" height="50" x="50" y="270" fill="#4caf50" rx="10"/><path fill="#fff" d="M50 320h280v110H50z"/><text x="190" y="300" fill="#fff" font-family="Arial, sans-serif" font-size="24" font-weight="bold" text-anchor="middle">
    12% - Lav sats
  </text><text x="70" y="350" fill="#333" font-family="Arial, sans-serif" font-size="14" font-weight="bold">
    Gjelder for:
  </text><text x="70" y="370" fill="#666" font-family="Arial, sans-serif" font-size="12">
    • Aviser og tidsskrifter
  </text><text x="70" y="385" fill="#666" font-family="Arial, sans-serif" font-size="12">
    • Bøker
  </text><text x="70" y="400" fill="#666" font-family="Arial, sans-serif" font-size="12">
    • Kringkasting (TV- og radiolisenser)
  </text><text x="70" y="415" fill="#666" font-family="Arial, sans-serif" font-size="12">
    • Kulturelle publikasjoner
  </text><rect width="280" height="160" x="370" y="270" fill="#fff" stroke="#1976d2" stroke-width="3" rx="10"/><rect width="280" height="50" x="370" y="270" fill="#1976d2" rx="10"/><path fill="#fff" d="M370 320h280v110H370z"/><text x="510" y="300" fill="#fff" font-family="Arial, sans-serif" font-size="24" font-weight="bold" text-anchor="middle">
    0% - Nullsats
  </text><text x="390" y="350" fill="#333" font-family="Arial, sans-serif" font-size="14" font-weight="bold">
    Gjelder for:
  </text><text x="390" y="370" fill="#666" font-family="Arial, sans-serif" font-size="12">
    • Eksport av varer og tjenester
  </text><text x="390" y="385" fill="#666" font-family="Arial, sans-serif" font-size="12">
    • Skipsfart i utenriksfart
  </text><text x="390" y="400" fill="#666" font-family="Arial, sans-serif" font-size="12">
    • Luftfart i utenriksfart
  </text><text x="390" y="415" fill="#666" font-family="Arial, sans-serif" font-size="12">
    • Internasjonale tjenester
  </text><text y="15" fill="#333" font-family="Arial, sans-serif" font-size="14" font-weight="bold" transform="translate(50 450)">
      Sammenligning:
    </text><path fill="#d32f2f" d="M150 450h100v20H150z"/><text x="105" y="15" fill="#fff" font-family="Arial, sans-serif" font-size="12" font-weight="bold" transform="translate(50 450)">25%</text><path fill="#f57c00" d="M270 450h60v20h-60z"/><text x="225" y="15" fill="#fff" font-family="Arial, sans-serif" font-size="12" font-weight="bold" transform="translate(50 450)">15%</text><path fill="#4caf50" d="M350 450h48v20h-48z"/><text x="305" y="15" fill="#fff" font-family="Arial, sans-serif" font-size="12" font-weight="bold" transform="translate(50 450)">12%</text><path fill="#1976d2" d="M418 450h20v20h-20z"/><text x="395" y="15" fill="#1976d2" font-family="Arial, sans-serif" font-size="12" font-weight="bold" transform="translate(50 450)">0%</text><text x="450" y="15" fill="#666" font-family="Arial, sans-serif" font-size="11" font-style="italic" transform="translate(50 450)">
      (Visuell sammenligning av satsene)
    </text></svg>