<svg viewBox="0 0 800 600" xmlns="http://www.w3.org/2000/svg">
  <defs>
    <linearGradient id="headerGrad" x1="0%" y1="0%" x2="100%" y2="0%">
      <stop offset="0%" style="stop-color:#1e40af;stop-opacity:1" />
      <stop offset="100%" style="stop-color:#1e3a8a;stop-opacity:1" />
    </linearGradient>
    <linearGradient id="euGrad" x1="0%" y1="0%" x2="0%" y2="100%">
      <stop offset="0%" style="stop-color:#dbeafe;stop-opacity:1" />
      <stop offset="100%" style="stop-color:#bfdbfe;stop-opacity:1" />
    </linearGradient>
    <linearGradient id="cooperationGrad" x1="0%" y1="0%" x2="0%" y2="100%">
      <stop offset="0%" style="stop-color:#ecfdf5;stop-opacity:1" />
      <stop offset="100%" style="stop-color:#d1fae5;stop-opacity:1" />
    </linearGradient>
    <linearGradient id="systemGrad" x1="0%" y1="0%" x2="0%" y2="100%">
      <stop offset="0%" style="stop-color:#fef3c7;stop-opacity:1" />
      <stop offset="100%" style="stop-color:#fde68a;stop-opacity:1" />
    </linearGradient>
  </defs>
  

  <rect width="800" height="600" fill="#eff6ff"/>
  

  <rect x="50" y="20" width="700" height="50" rx="8" fill="url(#headerGrad)"/>
  <text x="400" y="50" text-anchor="middle" fill="white" font-family="Arial, sans-serif" font-size="22" font-weight="bold">Internasjonale MVA-forhold</text>
  

  <circle cx="400" cy="90" r="25" fill="#1e40af" stroke="#1e3a8a" stroke-width="2"/>
  <ellipse cx="400" cy="90" rx="20" ry="25" fill="none" stroke="white" stroke-width="2"/>
  <ellipse cx="400" cy="90" rx="25" ry="15" fill="none" stroke="white" stroke-width="2"/>
  <line x1="375" y1="90" x2="425" y2="90" stroke="white" stroke-width="2"/>
  

  <rect x="50" y="130" width="700" height="120" rx="10" fill="white" stroke="#64748b" stroke-width="2"/>
  <text x="400" y="155" text-anchor="middle" fill="#1e293b" font-family="Arial, sans-serif" font-size="18" font-weight="bold">EU/EØS MVA-samarbeid</text>
  

  <rect x="80" y="170" width="60" height="40" fill="#003399" rx="4"/>
  <circle cx="95" cy="180" r="2" fill="#ffcc00"/>
  <circle cx="105" cy="175" r="2" fill="#ffcc00"/>
  <circle cx="115" cy="180" r="2" fill="#ffcc00"/>
  <circle cx="125" cy="185" r="2" fill="#ffcc00"/>
  <circle cx="125" cy="195" r="2" fill="#ffcc00"/>
  <circle cx="115" cy="200" r="2" fill="#ffcc00"/>
  <circle cx="105" cy="205" r="2" fill="#ffcc00"/>
  <circle cx="95" cy="200" r="2" fill="#ffcc00"/>
  <circle cx="85" cy="195" r="2" fill="#ffcc00"/>
  <circle cx="85" cy="185" r="2" fill="#ffcc00"/>
  <circle cx="105" cy="190" r="2" fill="#ffcc00"/>
  <circle cx="115" cy="190" r="2" fill="#ffcc00"/>
  

  <rect x="160" y="170" width="160" height="70" rx="8" fill="url(#euGrad)" stroke="#3b82f6" stroke-width="1"/>
  <text x="240" y="190" text-anchor="middle" fill="#1e40af" font-family="Arial, sans-serif" font-size="12" font-weight="bold">FELLES REGLER</text>
  <text x="170" y="210" fill="#1d4ed8" font-family="Arial, sans-serif" font-size="10">• Grenseoverskridende handel</text>
  <text x="170" y="225" fill="#1d4ed8" font-family="Arial, sans-serif" font-size="10">• Harmoniserte prosedyrer</text>
  
  <rect x="340" y="170" width="160" height="70" rx="8" fill="url(#cooperationGrad)" stroke="#10b981" stroke-width="1"/>
  <text x="420" y="190" text-anchor="middle" fill="#065f46" font-family="Arial, sans-serif" font-size="12" font-weight="bold">ADMINISTRATIVT</text>
  <text x="420" y="205" text-anchor="middle" fill="#065f46" font-family="Arial, sans-serif" font-size="12" font-weight="bold">SAMARBEID</text>
  <text x="350" y="225" fill="#047857" font-family="Arial, sans-serif" font-size="10">• Kontroll • Informasjonsutveksling</text>
  
  <rect x="520" y="170" width="160" height="70" rx="8" fill="url(#systemGrad)" stroke="#f59e0b" stroke-width="1"/>
  <text x="600" y="190" text-anchor="middle" fill="#92400e" font-family="Arial, sans-serif" font-size="12" font-weight="bold">VIES-SYSTEMET</text>
  <text x="530" y="210" fill="#a16207" font-family="Arial, sans-serif" font-size="10">• Validering av MVA-numre</text>
  <text x="530" y="225" fill="#a16207" font-family="Arial, sans-serif" font-size="10">• Sanntidssjekk</text>
  

  <rect x="50" y="270" width="340" height="150" rx="10" fill="url(#systemGrad)" stroke="#f59e0b" stroke-width="2"/>
  <text x="220" y="295" text-anchor="middle" fill="#92400e" font-family="Arial, sans-serif" font-size="16" font-weight="bold">VOEC-REGISTERET</text>
  <text x="220" y="315" text-anchor="middle" fill="#a16207" font-family="Arial, sans-serif" font-size="12">(VAT on E-Commerce)</text>
  
  <text x="70" y="340" fill="#92400e" font-family="Arial, sans-serif" font-size="12" font-weight="bold">Elektronisk handel:</text>
  <text x="75" y="355" fill="#a16207" font-family="Arial, sans-serif" font-size="11">• Registreringsplikt for utenlandske selskaper</text>
  <text x="75" y="370" fill="#a16207" font-family="Arial, sans-serif" font-size="11">• Forenklede prosedyrer for MVA-oppgjør</text>
  <text x="75" y="385" fill="#a16207" font-family="Arial, sans-serif" font-size="11">• Terskelverdier for registrering</text>
  <text x="75" y="400" fill="#a16207" font-family="Arial, sans-serif" font-size="11">• Sentral registrering i ett EU-land</text>
  

  <rect x="320" y="340" width="25" height="20" rx="2" fill="#f59e0b" stroke="#d97706" stroke-width="1"/>
  <circle cx="325" cy="370" r="3" fill="#f59e0b"/>
  <circle cx="340" cy="370" r="3" fill="#f59e0b"/>
  <path d="M315 340 L320 340 L325 350 L345 350" stroke="#f59e0b" stroke-width="2" fill="none"/>
  

  <rect x="410" y="270" width="340" height="150" rx="10" fill="url(#cooperationGrad)" stroke="#10b981" stroke-width="2"/>
  <text x="580" y="295" text-anchor="middle" fill="#065f46" font-family="Arial, sans-serif" font-size="16" font-weight="bold">TRANSFER PRICING og MVA</text>
  
  <text x="430" y="320" fill="#065f46" font-family="Arial, sans-serif" font-size="12" font-weight="bold">Internprising i konsern:</text>
  <text x="435" y="335" fill="#047857" font-family="Arial, sans-serif" font-size="11">• Armlengdeprinsippet må følges</text>
  <text x="435" y="350" fill="#047857" font-family="Arial, sans-serif" font-size="11">• Dokumentasjonskrav</text>
  <text x="435" y="365" fill="#047857" font-family="Arial, sans-serif" font-size="11">• Internasjonale transaksjoner</text>
  <text x="435" y="380" fill="#047857" font-family="Arial, sans-serif" font-size="11">• Koordinering skatte- og MVA-regler</text>
  

  <rect x="680" y="340" width="30" height="40" rx="2" fill="#10b981" stroke="#059669" stroke-width="1"/>
  <rect x="685" y="345" width="8" height="8" rx="1" fill="white"/>
  <rect x="697" y="345" width="8" height="8" rx="1" fill="white"/>
  <rect x="685" y="357" width="8" height="8" rx="1" fill="white"/>
  <rect x="697" y="357" width="8" height="8" rx="1" fill="white"/>
  <rect x="690" y="385" width="10" height="8" rx="1" fill="#047857"/>
  

  <rect x="50" y="440" width="700" height="120" rx="10" fill="white" stroke="#64748b" stroke-width="2"/>
  <text x="400" y="465" text-anchor="middle" fill="#1e293b" font-family="Arial, sans-serif" font-size="16" font-weight="bold">Internasjonalt Samarbeid - Informasjonsflyt</text>
  

  <rect x="80" y="480" width="120" height="60" rx="5" fill="#dbeafe" stroke="#3b82f6" stroke-width="1"/>
  <text x="140" y="500" text-anchor="middle" fill="#1e40af" font-family="Arial, sans-serif" font-size="12" font-weight="bold">NORGE</text>
  <text x="140" y="515" text-anchor="middle" fill="#1d4ed8" font-family="Arial, sans-serif" font-size="10">Skatteetaten</text>
  <text x="140" y="530" text-anchor="middle" fill="#1d4ed8" font-family="Arial, sans-serif" font-size="10">MVA-kontroll</text>
  

  <path d="M210 510 L250 510 L245 505 M250 510 L245 515" stroke="#64748b" stroke-width="2" fill="none" stroke-linecap="round"/>
  <text x="230" y="505" text-anchor="middle" fill="#64748b" font-family="Arial, sans-serif" font-size="9">Info</text>
  
  <rect x="260" y="480" width="120" height="60" rx="5" fill="#ecfdf5" stroke="#10b981" stroke-width="1"/>
  <text x="320" y="500" text-anchor="middle" fill="#065f46" font-family="Arial, sans-serif" font-size="12" font-weight="bold">EU/EØS</text>
  <text x="320" y="515" text-anchor="middle" fill="#047857" font-family="Arial, sans-serif" font-size="10">Medlemsland</text>
  <text x="320" y="530" text-anchor="middle" fill="#047857" font-family="Arial, sans-serif" font-size="10">Skattemyndigheter</text>
  

  <path d="M390 510 L430 510 L425 505 M430 510 L425 515" stroke="#64748b" stroke-width="2" fill="none" stroke-linecap="round"/>
  <text x="410" y="505" text-anchor="middle" fill="#64748b" font-family="Arial, sans-serif" font-size="9">Validering</text>
  
  <rect x="440" y="480" width="120" height="60" rx="5" fill="#fef3c7" stroke="#f59e0b" stroke-width="1"/>
  <text x="500" y="500" text-anchor="middle" fill="#92400e" font-family="Arial, sans-serif" font-size="12" font-weight="bold">VIES</text>
  <text x="500" y="515" text-anchor="middle" fill="#a16207" font-family="Arial, sans-serif" font-size="10">Database</text>
  <text x="500" y="530" text-anchor="middle" fill="#a16207" font-family="Arial, sans-serif" font-size="10">MVA-numre</text>
  

  <path d="M570 510 L610 510 L605 505 M610 510 L605 515" stroke="#64748b" stroke-width="2" fill="none" stroke-linecap="round"/>
  <text x="590" y="505" text-anchor="middle" fill="#64748b" font-family="Arial, sans-serif" font-size="9">Kontroll</text>
  
  <rect x="620" y="480" width="120" height="60" rx="5" fill="#fecaca" stroke="#ef4444" stroke-width="1"/>
  <text x="680" y="500" text-anchor="middle" fill="#991b1b" font-family="Arial, sans-serif" font-size="12" font-weight="bold">TREDJELAND</text>
  <text x="680" y="515" text-anchor="middle" fill="#b91c1c" font-family="Arial, sans-serif" font-size="10">Utenfor EU/EØS</text>
  <text x="680" y="530" text-anchor="middle" fill="#b91c1c" font-family="Arial, sans-serif" font-size="10">Særlige regler</text>
  

  <rect x="50" y="580" width="700" height="15" rx="8" fill="#f0f9ff" stroke="#0284c7" stroke-width="1"/>
  <text x="400" y="592" text-anchor="middle" fill="#0c4a6e" font-family="Arial, sans-serif" font-size="12" font-weight="bold">🌍 Internasjonalt samarbeid sikrer rettferdig MVA-behandling på tvers av landegrenser</text>
  

  <line x1="220" y1="250" x2="220" y2="270" stroke="#94a3b8" stroke-width="2" stroke-dasharray="5,5"/>
  <line x1="580" y1="250" x2="580" y2="270" stroke="#94a3b8" stroke-width="2" stroke-dasharray="5,5"/>
  <line x1="400" y1="420" x2="400" y2="440" stroke="#94a3b8" stroke-width="2" stroke-dasharray="5,5"/>
</svg>