<svg xmlns="http://www.w3.org/2000/svg" viewBox="0 0 800 600"><defs><linearGradient id="a" x1="0%" x2="100%" y1="0%" y2="0%"><stop offset="0%" style="stop-color:#2563eb;stop-opacity:1"/><stop offset="100%" style="stop-color:#1d4ed8;stop-opacity:1"/></linearGradient><linearGradient id="b" x1="0%" x2="0%" y1="0%" y2="100%"><stop offset="0%" style="stop-color:#f8fafc;stop-opacity:1"/><stop offset="100%" style="stop-color:#e2e8f0;stop-opacity:1"/></linearGradient></defs><path fill="#f1f5f9" d="M0 0h800v600H0z"/><rect width="700" height="60" x="50" y="30" fill="url(#a)" rx="8"/><text x="400" y="65" fill="#fff" font-family="Arial, sans-serif" font-size="24" font-weight="bold" text-anchor="middle">MVA-melding Struktur</text><rect width="600" height="450" x="100" y="120" fill="#fff" stroke="#cbd5e1" stroke-width="2" rx="12"/><rect width="540" height="80" x="130" y="150" fill="url(#b)" stroke="#94a3b8" rx="6"/><text x="150" y="175" fill="#1e293b" font-family="Arial, sans-serif" font-size="16" font-weight="bold">1. Utgående MVA</text><text x="150" y="195" fill="#475569" font-family="Arial, sans-serif" font-size="12">MVA på salg til kunder</text><rect width="120" height="25" x="500" y="165" fill="#dbeafe" stroke="#3b82f6" rx="4"/><text x="560" y="182" fill="#1e40af" font-family="Arial, sans-serif" font-size="12" font-weight="bold" text-anchor="middle">+ 125 000 kr</text><rect width="540" height="80" x="130" y="250" fill="url(#b)" stroke="#94a3b8" rx="6"/><text x="150" y="275" fill="#1e293b" font-family="Arial, sans-serif" font-size="16" font-weight="bold">2. Inngående MVA</text><text x="150" y="295" fill="#475569" font-family="Arial, sans-serif" font-size="12">MVA på innkjøp (fradragsberettiget)</text><rect width="120" height="25" x="500" y="265" fill="#fef3c7" stroke="#f59e0b" rx="4"/><text x="560" y="282" fill="#92400e" font-family="Arial, sans-serif" font-size="12" font-weight="bold" text-anchor="middle">- 75 000 kr</text><path stroke="#64748b" stroke-width="2" d="M150 350h500"/><rect width="540" height="80" x="130" y="370" fill="#dcfce7" stroke="#16a34a" stroke-width="2" rx="6"/><text x="150" y="395" fill="#166534" font-family="Arial, sans-serif" font-size="16" font-weight="bold">3. MVA til betaling</text><text x="150" y="415" fill="#15803d" font-family="Arial, sans-serif" font-size="12">Differanse mellom utgående og inngående MVA</text><rect width="120" height="25" x="500" y="385" fill="#bbf7d0" stroke="#16a34a" rx="4"/><text x="560" y="402" fill="#166534" font-family="Arial, sans-serif" font-size="12" font-weight="bold" text-anchor="middle">50 000 kr</text><rect width="540" height="80" x="130" y="470" fill="url(#b)" stroke="#94a3b8" rx="6"/><text x="150" y="495" fill="#1e293b" font-family="Arial, sans-serif" font-size="16" font-weight="bold">4. Spesifikasjoner</text><text x="150" y="515" fill="#475569" font-family="Arial, sans-serif" font-size="12">Omsetning per MVA-sats:</text><text x="170" y="535" fill="#475569" font-family="Arial, sans-serif" font-size="11">• 25% sats: 400 000 kr • 15% sats: 100 000 kr • 0% sats: 50 000 kr</text><rect width="30" height="35" x="620" y="140" fill="#3b82f6" stroke="#1d4ed8" rx="3"/><rect width="20" height="3" x="625" y="145" fill="#fff" rx="1"/><rect width="20" height="3" x="625" y="150" fill="#fff" rx="1"/><circle cx="628" cy="158" r="2" fill="#fff"/><circle cx="635" cy="158" r="2" fill="#fff"/><circle cx="642" cy="158" r="2" fill="#fff"/><circle cx="628" cy="165" r="2" fill="#fff"/><circle cx="635" cy="165" r="2" fill="#fff"/><circle cx="642" cy="165" r="2" fill="#fff"/></svg>