<svg xmlns="http://www.w3.org/2000/svg" width="800" height="600"><defs><linearGradient id="a" x1="0%" x2="100%" y1="0%" y2="100%"><stop offset="0%" style="stop-color:#f8f9fa;stop-opacity:1"/><stop offset="100%" style="stop-color:#e9ecef;stop-opacity:1"/></linearGradient><linearGradient id="b" x1="0%" x2="100%" y1="0%" y2="0%"><stop offset="0%" style="stop-color:#28a745;stop-opacity:1"/><stop offset="100%" style="stop-color:#1e7e34;stop-opacity:1"/></linearGradient><linearGradient id="c" x1="0%" x2="100%" y1="0%" y2="0%"><stop offset="0%" style="stop-color:#06c;stop-opacity:1"/><stop offset="100%" style="stop-color:#049;stop-opacity:1"/></linearGradient></defs><path fill="url(#a)" stroke="#dee2e6" stroke-width="2" d="M0 0h800v600H0z"/><text x="400" y="40" fill="#495057" font-family="Arial, sans-serif" font-size="24" font-weight="bold" text-anchor="middle">
    Egeninkasso vs. Profesjonell Inkasso
  </text><circle cx="400" cy="300" r="40" fill="#dc3545" stroke="#c82333" stroke-width="3"/><text x="400" y="310" fill="#fff" font-family="Arial, sans-serif" font-size="24" font-weight="bold" text-anchor="middle">
    VS
  </text><g transform="translate(50 100)"><rect width="280" height="50" fill="url(#b)" rx="10"/><text x="140" y="32" fill="#fff" font-family="Arial, sans-serif" font-size="18" font-weight="bold" text-anchor="middle">
      Egeninkasso
    </text><rect width="280" height="400" y="50" fill="#fff" stroke="#28a745" stroke-width="2" rx="10"/><path fill="#6c757d" stroke="#495057" stroke-width="2" d="M110 110h60v30h-60z"/><path fill="#adb5bd" stroke="#495057" stroke-width="2" d="M120 100h40v40h-40z"/><path fill="#dee2e6" stroke="#495057" stroke-width="2" d="M130 90h20v50h-20z"/><path fill="#28a745" d="M133 95h4v4h-4zM139 95h4v4h-4zM145 95h4v4h-4zM133 102h4v4h-4zM139 102h4v4h-4zM145 102h4v4h-4z"/><text x="20" y="180" fill="#28a745" font-family="Arial, sans-serif" font-size="14" font-weight="bold">
      Fordeler:
    </text><text x="30" y="200" fill="#495057" font-family="Arial, sans-serif" font-size="12">
      ✓ Lavere direkte kostnader
    </text><text x="30" y="220" fill="#495057" font-family="Arial, sans-serif" font-size="12">
      ✓ Full kontroll over prosessen
    </text><text x="30" y="240" fill="#495057" font-family="Arial, sans-serif" font-size="12">
      ✓ Bevarer kundeforhold
    </text><text x="30" y="260" fill="#495057" font-family="Arial, sans-serif" font-size="12">
      ✓ Fleksibel tilnærming
    </text><text x="20" y="300" fill="#dc3545" font-family="Arial, sans-serif" font-size="14" font-weight="bold">
      Ulemper:
    </text><text x="30" y="320" fill="#495057" font-family="Arial, sans-serif" font-size="12">
      ✗ Krever intern kompetanse
    </text><text x="30" y="340" fill="#495057" font-family="Arial, sans-serif" font-size="12">
      ✗ Betydelig tidsbruk
    </text><text x="30" y="360" fill="#495057" font-family="Arial, sans-serif" font-size="12">
      ✗ Juridisk ansvar
    </text><text x="30" y="380" fill="#495057" font-family="Arial, sans-serif" font-size="12">
      ✗ Variabel suksessrate
    </text><rect width="240" height="30" x="20" y="400" fill="#d4edda" stroke="#28a745" rx="5"/><text x="140" y="420" fill="#155724" font-family="Arial, sans-serif" font-size="12" font-weight="bold" text-anchor="middle">
      Kostnad: Lav til Moderat
    </text></g><g transform="translate(470 100)"><rect width="280" height="50" fill="url(#c)" rx="10"/><text x="140" y="32" fill="#fff" font-family="Arial, sans-serif" font-size="18" font-weight="bold" text-anchor="middle">
      Profesjonell Inkasso
    </text><rect width="280" height="400" y="50" fill="#fff" stroke="#06c" stroke-width="2" rx="10"/><g transform="translate(110 80)"><path fill="#6c757d" stroke="#495057" stroke-width="2" d="M0 30h60v30H0z"/><path fill="#adb5bd" stroke="#495057" stroke-width="2" d="M10 20h40v40H10z"/><path fill="#dee2e6" stroke="#495057" stroke-width="2" d="M20 10h20v50H20z"/><circle cx="30" cy="25" r="8" fill="#06c" stroke="#049" stroke-width="2"/><text x="30" y="29" fill="#fff" font-family="Arial, sans-serif" font-size="8" font-weight="bold" text-anchor="middle">
        PRO
      </text></g><text x="20" y="180" fill="#28a745" font-family="Arial, sans-serif" font-size="14" font-weight="bold">
      Fordeler:
    </text><text x="30" y="200" fill="#495057" font-family="Arial, sans-serif" font-size="12">
      ✓ Høy juridisk kompetanse
    </text><text x="30" y="220" fill="#495057" font-family="Arial, sans-serif" font-size="12">
      ✓ Minimal tidsbruk for bedriften
    </text><text x="30" y="240" fill="#495057" font-family="Arial, sans-serif" font-size="12">
      ✓ Høyere suksessrate
    </text><text x="30" y="260" fill="#495057" font-family="Arial, sans-serif" font-size="12">
      ✓ Profesjonelle systemer
    </text><text x="20" y="300" fill="#dc3545" font-family="Arial, sans-serif" font-size="14" font-weight="bold">
      Ulemper:
    </text><text x="30" y="320" fill="#495057" font-family="Arial, sans-serif" font-size="12">
      ✗ Høyere kostnader
    </text><text x="30" y="340" fill="#495057" font-family="Arial, sans-serif" font-size="12">
      ✗ Begrenset kontroll
    </text><text x="30" y="360" fill="#495057" font-family="Arial, sans-serif" font-size="12">
      ✗ Kan skade kundeforhold
    </text><text x="30" y="380" fill="#495057" font-family="Arial, sans-serif" font-size="12">
      ✗ Mindre fleksibilitet
    </text><rect width="240" height="30" x="20" y="400" fill="#cce5ff" stroke="#06c" rx="5"/><text x="140" y="420" fill="#004085" font-family="Arial, sans-serif" font-size="12" font-weight="bold" text-anchor="middle">
      Kostnad: Moderat til Høy
    </text></g><g transform="translate(100 520)"><rect width="600" height="60" fill="#fff" stroke="#6c757d" stroke-width="2" rx="10"/><text x="150" y="25" fill="#495057" font-family="Arial, sans-serif" font-size="14" font-weight="bold" text-anchor="middle">
      Kontroll
    </text><rect width="60" height="8" x="120" y="30" fill="#28a745" rx="4"/><text x="150" y="50" fill="#495057" font-family="Arial, sans-serif" font-size="10" text-anchor="middle">
      Høy
    </text><text x="300" y="25" fill="#495057" font-family="Arial, sans-serif" font-size="14" font-weight="bold" text-anchor="middle">
      Tidsbruk
    </text><rect width="60" height="8" x="270" y="30" fill="#dc3545" rx="4"/><text x="300" y="50" fill="#495057" font-family="Arial, sans-serif" font-size="10" text-anchor="middle">
      Høy
    </text><text x="450" y="25" fill="#495057" font-family="Arial, sans-serif" font-size="14" font-weight="bold" text-anchor="middle">
      Ekspertise
    </text><rect width="30" height="8" x="420" y="30" fill="#ffc107" rx="4"/><text x="450" y="50" fill="#495057" font-family="Arial, sans-serif" font-size="10" text-anchor="middle">
      Variabel
    </text></g><text x="400" y="590" fill="#495057" font-family="Arial, sans-serif" font-size="12" font-style="italic" text-anchor="middle">
    Valg avhenger av bedriftens ressurser, kompetanse og inkassovolum
  </text></svg>