<svg xmlns="http://www.w3.org/2000/svg" width="800" height="500"><defs><linearGradient id="a" x1="0%" x2="100%" y1="0%" y2="100%"><stop offset="0%" style="stop-color:#f8f9fa;stop-opacity:1"/><stop offset="100%" style="stop-color:#e9ecef;stop-opacity:1"/></linearGradient><linearGradient id="b" x1="0%" x2="100%" y1="0%" y2="0%"><stop offset="0%" style="stop-color:#dc3545;stop-opacity:1"/><stop offset="100%" style="stop-color:#c82333;stop-opacity:1"/></linearGradient></defs><path fill="url(#a)" stroke="#dee2e6" stroke-width="2" d="M0 0h800v500H0z"/><text x="400" y="40" fill="#495057" font-family="Arial, sans-serif" font-size="24" font-weight="bold" text-anchor="middle">
    Juridiske Rammer for Egeninkasso
  </text><g transform="translate(350 70)"><rect width="100" height="80" fill="url(#b)" stroke="#721c24" stroke-width="2" rx="5"/><rect width="80" height="60" x="10" y="10" fill="#f8f9fa" stroke="#721c24" rx="3"/><text x="50" y="35" fill="#721c24" font-family="Arial, sans-serif" font-size="12" font-weight="bold" text-anchor="middle">
      INKASSO-
    </text><text x="50" y="50" fill="#721c24" font-family="Arial, sans-serif" font-size="12" font-weight="bold" text-anchor="middle">
      LOVEN
    </text></g><g transform="translate(50 200)"><rect width="140" height="120" fill="#fff" stroke="#06c" stroke-width="2" rx="10"/><rect width="140" height="30" fill="#06c" rx="10"/><path fill="#06c" d="M0 15h140v15H0z"/><text x="70" y="20" fill="#fff" font-family="Arial, sans-serif" font-size="12" font-weight="bold" text-anchor="middle">
      Skriftlig Varsel
    </text><rect width="40" height="50" x="50" y="45" fill="#f8f9fa" stroke="#06c" rx="3"/><path stroke="#666" d="M60 55h20M60 65h20M60 75h15"/><text x="70" y="110" fill="#495057" font-family="Arial, sans-serif" font-size="10" text-anchor="middle">
      Alle krav må sendes skriftlig
    </text></g><g transform="translate(220 200)"><rect width="140" height="120" fill="#fff" stroke="#28a745" stroke-width="2" rx="10"/><rect width="140" height="30" fill="#28a745" rx="10"/><path fill="#28a745" d="M0 15h140v15H0z"/><text x="70" y="20" fill="#fff" font-family="Arial, sans-serif" font-size="12" font-weight="bold" text-anchor="middle">
      Korrekt Beregning
    </text><rect width="40" height="50" x="50" y="45" fill="#495057" stroke="#28a745" rx="3"/><path fill="#28a745" d="M55 50h30v15H55z"/><circle cx="60" cy="70" r="3" fill="#28a745"/><circle cx="70" cy="70" r="3" fill="#28a745"/><circle cx="80" cy="70" r="3" fill="#28a745"/><circle cx="60" cy="80" r="3" fill="#28a745"/><circle cx="70" cy="80" r="3" fill="#28a745"/><circle cx="80" cy="80" r="3" fill="#28a745"/><text x="70" y="110" fill="#495057" font-family="Arial, sans-serif" font-size="10" text-anchor="middle">
      Hovedstol, renter og gebyrer
    </text></g><g transform="translate(390 200)"><rect width="140" height="120" fill="#fff" stroke="#ffc107" stroke-width="2" rx="10"/><rect width="140" height="30" fill="#ffc107" rx="10"/><path fill="#ffc107" d="M0 15h140v15H0z"/><text x="70" y="20" fill="#495057" font-family="Arial, sans-serif" font-size="12" font-weight="bold" text-anchor="middle">
      Informasjonsplikt
    </text><circle cx="70" cy="70" r="20" fill="#ffc107" stroke="#e0a800" stroke-width="2"/><text x="70" y="77" fill="#fff" font-family="Arial, sans-serif" font-size="20" font-weight="bold" text-anchor="middle">
      i
    </text><text x="70" y="110" fill="#495057" font-family="Arial, sans-serif" font-size="10" text-anchor="middle">
      Skyldner må informeres om rettigheter
    </text></g><g transform="translate(560 200)"><rect width="140" height="120" fill="#fff" stroke="#6f42c1" stroke-width="2" rx="10"/><rect width="140" height="30" fill="#6f42c1" rx="10"/><path fill="#6f42c1" d="M0 15h140v15H0z"/><text x="70" y="20" fill="#fff" font-family="Arial, sans-serif" font-size="12" font-weight="bold" text-anchor="middle">
      Dokumentasjon
    </text><rect width="50" height="40" x="45" y="45" fill="#f8f9fa" stroke="#6f42c1" stroke-width="2" rx="3"/><path fill="#6f42c1" d="M50 50h40v5H50zM50 60h40v5H50zM50 70h40v5H50z"/><text x="70" y="105" fill="#495057" font-family="Arial, sans-serif" font-size="10" text-anchor="middle">
      All kommunikasjon må
    </text><text x="70" y="115" fill="#495057" font-family="Arial, sans-serif" font-size="10" text-anchor="middle">
      dokumenteres og arkiveres
    </text></g><g transform="translate(200 360)"><rect width="400" height="100" fill="#fff" stroke="#17a2b8" stroke-width="2" rx="10"/><rect width="400" height="30" fill="#17a2b8" rx="10"/><path fill="#17a2b8" d="M0 15h400v15H0z"/><text x="200" y="20" fill="#fff" font-family="Arial, sans-serif" font-size="14" font-weight="bold" text-anchor="middle">
      Respektfull og Saklig Kommunikasjon
    </text><g transform="translate(100 45)"><ellipse cx="50" cy="25" fill="#17a2b8" stroke="#138496" stroke-width="2" rx="40" ry="20"/><path fill="#17a2b8" stroke="#138496" stroke-width="2" d="M30 35 20 45l15-5z"/><text x="50" y="30" fill="#fff" font-family="Arial, sans-serif" font-size="12" text-anchor="middle">
        Saklig tone
      </text><circle cx="200" cy="15" r="10" fill="#ffc107" stroke="#e0a800" stroke-width="2"/><rect width="20" height="25" x="190" y="25" fill="#17a2b8" stroke="#138496" stroke-width="2" rx="3"/></g><text x="200" y="85" fill="#495057" font-family="Arial, sans-serif" font-size="11" text-anchor="middle">
      Kommunikasjonen må være profesjonell og respektfull overfor skyldner
    </text></g><text x="400" y="480" fill="#dc3545" font-family="Arial, sans-serif" font-size="12" font-weight="bold" text-anchor="middle">
    ⚠️ Brudd på disse kravene kan føre til bøter og erstatningsansvar
  </text></svg>