<svg xmlns="http://www.w3.org/2000/svg" width="800" height="500"><path fill="#f8f9fa" d="M0 0h800v500H0z"/><text x="400" y="30" fill="#2c3e50" font-family="Arial, sans-serif" font-size="20" font-weight="bold" text-anchor="middle">
    Egenkapitaloppstilling - Endringer i Formue
  </text><rect width="600" height="350" x="100" y="60" fill="#fff" stroke="#bdc3c7" stroke-width="2" rx="8"/><path fill="#34495e" d="M120 80h560v30H120z"/><text x="400" y="100" fill="#fff" font-family="Arial, sans-serif" font-size="16" font-weight="bold" text-anchor="middle">
    Egenkapitaloppstilling for 2024
  </text><path fill="#ecf0f1" stroke="#bdc3c7" d="M120 110h280v25H120z"/><text x="260" y="127" fill="#2c3e50" font-family="Arial, sans-serif" font-size="12" font-weight="bold" text-anchor="middle">
    Beskrivelse
  </text><path fill="#ecf0f1" stroke="#bdc3c7" d="M400 110h140v25H400z"/><text x="470" y="127" fill="#2c3e50" font-family="Arial, sans-serif" font-size="12" font-weight="bold" text-anchor="middle">
    Beløp (NOK)
  </text><path fill="#ecf0f1" stroke="#bdc3c7" d="M540 110h140v25H540z"/><text x="610" y="127" fill="#2c3e50" font-family="Arial, sans-serif" font-size="12" font-weight="bold" text-anchor="middle">
    Akkumulert
  </text><path fill="#e8f5e8" stroke="#bdc3c7" d="M120 135h280v25H120z"/><text x="130" y="152" fill="#2c3e50" font-family="Arial, sans-serif" font-size="12" font-weight="bold">
    Inngående egenkapital 01.01.2024
  </text><path fill="#e8f5e8" stroke="#bdc3c7" d="M400 135h140v25H400z"/><text x="470" y="152" fill="#2c3e50" font-family="Arial, sans-serif" font-size="12" text-anchor="middle">
    -
  </text><path fill="#e8f5e8" stroke="#bdc3c7" d="M540 135h140v25H540z"/><text x="610" y="152" fill="#27ae60" font-family="Arial, sans-serif" font-size="12" font-weight="bold" text-anchor="middle">
    1.500.000
  </text><path fill="#fff" stroke="#bdc3c7" d="M120 160h280v25H120z"/><text x="130" y="177" fill="#2c3e50" font-family="Arial, sans-serif" font-size="12">
    + Årets resultat (nettoinntekt)
  </text><path fill="#fff" stroke="#bdc3c7" d="M400 160h140v25H400z"/><text x="470" y="177" fill="#27ae60" font-family="Arial, sans-serif" font-size="12" font-weight="bold" text-anchor="middle">
    +350.000
  </text><path fill="#fff" stroke="#bdc3c7" d="M540 160h140v25H540z"/><text x="610" y="177" fill="#2c3e50" font-family="Arial, sans-serif" font-size="12" text-anchor="middle">
    1.850.000
  </text><path fill="#f8f9fa" stroke="#bdc3c7" d="M120 185h280v25H120z"/><text x="130" y="202" fill="#2c3e50" font-family="Arial, sans-serif" font-size="12">
    + Kapitalinnskudd fra eiere
  </text><path fill="#f8f9fa" stroke="#bdc3c7" d="M400 185h140v25H400z"/><text x="470" y="202" fill="#3498db" font-family="Arial, sans-serif" font-size="12" font-weight="bold" text-anchor="middle">
    +200.000
  </text><path fill="#f8f9fa" stroke="#bdc3c7" d="M540 185h140v25H540z"/><text x="610" y="202" fill="#2c3e50" font-family="Arial, sans-serif" font-size="12" text-anchor="middle">
    2.050.000
  </text><path fill="#fff" stroke="#bdc3c7" d="M120 210h280v25H120z"/><text x="130" y="227" fill="#2c3e50" font-family="Arial, sans-serif" font-size="12">
    - Utbetalt utbytte til eiere
  </text><path fill="#fff" stroke="#bdc3c7" d="M400 210h140v25H400z"/><text x="470" y="227" fill="#e74c3c" font-family="Arial, sans-serif" font-size="12" font-weight="bold" text-anchor="middle">
    -100.000
  </text><path fill="#fff" stroke="#bdc3c7" d="M540 210h140v25H540z"/><text x="610" y="227" fill="#2c3e50" font-family="Arial, sans-serif" font-size="12" text-anchor="middle">
    1.950.000
  </text><path fill="#f8f9fa" stroke="#bdc3c7" d="M120 235h280v25H120z"/><text x="130" y="252" fill="#2c3e50" font-family="Arial, sans-serif" font-size="12">
    + Revaluering av eiendeler
  </text><path fill="#f8f9fa" stroke="#bdc3c7" d="M400 235h140v25H400z"/><text x="470" y="252" fill="#f39c12" font-family="Arial, sans-serif" font-size="12" font-weight="bold" text-anchor="middle">
    +50.000
  </text><path fill="#f8f9fa" stroke="#bdc3c7" d="M540 235h140v25H540z"/><text x="610" y="252" fill="#2c3e50" font-family="Arial, sans-serif" font-size="12" text-anchor="middle">
    2.000.000
  </text><path fill="#9b59b6" stroke="#bdc3c7" d="M120 260h280v30H120z"/><text x="130" y="280" fill="#fff" font-family="Arial, sans-serif" font-size="12" font-weight="bold">
    Utgående egenkapital 31.12.2024
  </text><path fill="#9b59b6" stroke="#bdc3c7" d="M400 260h140v30H400z"/><text x="470" y="280" fill="#fff" font-family="Arial, sans-serif" font-size="12" font-weight="bold" text-anchor="middle">
    +500.000
  </text><path fill="#9b59b6" stroke="#bdc3c7" d="M540 260h140v30H540z"/><text x="610" y="280" fill="#fff" font-family="Arial, sans-serif" font-size="14" font-weight="bold" text-anchor="middle">
    2.000.000
  </text><rect width="560" height="80" x="120" y="320" fill="#f8f9fa" stroke="#bdc3c7" rx="5"/><text x="400" y="340" fill="#2c3e50" font-family="Arial, sans-serif" font-size="14" font-weight="bold" text-anchor="middle">
    Formueendring i 2024
  </text><rect width="80" height="30" x="140" y="350" fill="#e8f5e8" stroke="#27ae60" stroke-width="2" rx="5"/><text x="180" y="370" fill="#27ae60" font-family="Arial, sans-serif" font-size="11" font-weight="bold" text-anchor="middle">
    Start: 1.5M
  </text><path stroke="#2c3e50" stroke-width="2" marker-end="url(#a)" d="M230 365h30"/><text x="245" y="360" fill="#27ae60" font-family="Arial, sans-serif" font-size="9" text-anchor="middle">
    +350k
  </text><rect width="80" height="30" x="270" y="350" fill="#e3f2fd" stroke="#3498db" stroke-width="2" rx="5"/><text x="310" y="370" fill="#3498db" font-family="Arial, sans-serif" font-size="11" font-weight="bold" text-anchor="middle">
    1.85M
  </text><path stroke="#2c3e50" stroke-width="2" marker-end="url(#a)" d="M360 365h30"/><text x="375" y="360" fill="#3498db" font-family="Arial, sans-serif" font-size="9" text-anchor="middle">
    +200k
  </text><rect width="80" height="30" x="400" y="350" fill="#fff3e0" stroke="#ff9800" stroke-width="2" rx="5"/><text x="440" y="370" fill="#ff9800" font-family="Arial, sans-serif" font-size="11" font-weight="bold" text-anchor="middle">
    2.05M
  </text><path stroke="#2c3e50" stroke-width="2" marker-end="url(#a)" d="M490 365h30"/><text x="505" y="360" fill="#e74c3c" font-family="Arial, sans-serif" font-size="9" text-anchor="middle">
    -50k
  </text><rect width="80" height="30" x="530" y="350" fill="#f3e5f5" stroke="#9c27b0" stroke-width="2" rx="5"/><text x="570" y="370" fill="#9c27b0" font-family="Arial, sans-serif" font-size="11" font-weight="bold" text-anchor="middle">
    Slutt: 2.0M
  </text><defs><marker id="a" markerHeight="7" markerWidth="10" orient="auto" refX="9" refY="3.5"><path fill="#2c3e50" d="m0 0 10 3.5L0 7z"/></marker></defs><rect width="400" height="50" x="200" y="430" fill="#9c27b0" stroke="#7b1fa2" stroke-width="2" rx="8"/><text x="400" y="450" fill="#fff" font-family="Arial, sans-serif" font-size="14" font-weight="bold" text-anchor="middle">
    NETTO FORMUEØKNING: 500.000 kr (33.3%)
  </text><text x="400" y="470" fill="#fff" font-family="Arial, sans-serif" font-size="12" text-anchor="middle">
    Sterk vekst i egenkapital gjennom driftsresultat og kapitalinnskudd
  </text></svg>