<svg xmlns="http://www.w3.org/2000/svg" width="800" height="600"><path fill="#f8f9fa" d="M0 0h800v600H0z"/><text x="400" y="30" fill="#2c3e50" font-family="Arial, sans-serif" font-size="20" font-weight="bold" text-anchor="middle">
    Detaljert Formueberegning
  </text><rect width="700" height="200" x="50" y="60" fill="#e8f5e8" stroke="#27ae60" stroke-width="2" rx="8"/><text x="400" y="85" fill="#27ae60" font-family="Arial, sans-serif" font-size="18" font-weight="bold" text-anchor="middle">
    STEG 1: BEREGN TOTALE EIENDELER
  </text><path fill="#27ae60" d="M80 100h300v25H80z"/><text x="230" y="118" fill="#fff" font-family="Arial, sans-serif" font-size="14" font-weight="bold" text-anchor="middle">
    ANLEGGSMIDLER
  </text><path fill="#fff" stroke="#27ae60" d="M80 125h200v20H80z"/><text x="90" y="138" fill="#2c3e50" font-family="Arial, sans-serif" font-size="12">Bygninger</text><path fill="#fff" stroke="#27ae60" d="M280 125h100v20H280z"/><text x="330" y="138" fill="#2c3e50" font-family="Arial, sans-serif" font-size="12" text-anchor="middle">2.500.000</text><path fill="#fff" stroke="#27ae60" d="M80 145h200v20H80z"/><text x="90" y="158" fill="#2c3e50" font-family="Arial, sans-serif" font-size="12">Maskiner og utstyr</text><path fill="#fff" stroke="#27ae60" d="M280 145h100v20H280z"/><text x="330" y="158" fill="#2c3e50" font-family="Arial, sans-serif" font-size="12" text-anchor="middle">800.000</text><path fill="#fff" stroke="#27ae60" d="M80 165h200v20H80z"/><text x="90" y="178" fill="#2c3e50" font-family="Arial, sans-serif" font-size="12">Finansielle investeringer</text><path fill="#fff" stroke="#27ae60" d="M280 165h100v20H280z"/><text x="330" y="178" fill="#2c3e50" font-family="Arial, sans-serif" font-size="12" text-anchor="middle">300.000</text><path fill="#2196f3" d="M420 100h300v25H420z"/><text x="570" y="118" fill="#fff" font-family="Arial, sans-serif" font-size="14" font-weight="bold" text-anchor="middle">
    OMLØPSMIDLER
  </text><path fill="#fff" stroke="#2196f3" d="M420 125h200v20H420z"/><text x="430" y="138" fill="#2c3e50" font-family="Arial, sans-serif" font-size="12">Bankinnskudd</text><path fill="#fff" stroke="#2196f3" d="M620 125h100v20H620z"/><text x="670" y="138" fill="#2c3e50" font-family="Arial, sans-serif" font-size="12" text-anchor="middle">450.000</text><path fill="#fff" stroke="#2196f3" d="M420 145h200v20H420z"/><text x="430" y="158" fill="#2c3e50" font-family="Arial, sans-serif" font-size="12">Kundefordringer</text><path fill="#fff" stroke="#2196f3" d="M620 145h100v20H620z"/><text x="670" y="158" fill="#2c3e50" font-family="Arial, sans-serif" font-size="12" text-anchor="middle">320.000</text><path fill="#fff" stroke="#2196f3" d="M420 165h200v20H420z"/><text x="430" y="178" fill="#2c3e50" font-family="Arial, sans-serif" font-size="12">Varelager</text><path fill="#fff" stroke="#2196f3" d="M620 165h100v20H620z"/><text x="670" y="178" fill="#2c3e50" font-family="Arial, sans-serif" font-size="12" text-anchor="middle">180.000</text><path fill="#34495e" d="M250 210h300v30H250z"/><text x="400" y="230" fill="#fff" font-family="Arial, sans-serif" font-size="16" font-weight="bold" text-anchor="middle">
    SUM EIENDELER: 4.550.000 kr
  </text><rect width="700" height="200" x="50" y="280" fill="#ffebee" stroke="#f44336" stroke-width="2" rx="8"/><text x="400" y="305" fill="#f44336" font-family="Arial, sans-serif" font-size="18" font-weight="bold" text-anchor="middle">
    STEG 2: BEREGN TOTAL GJELD
  </text><path fill="#f44336" d="M80 320h300v25H80z"/><text x="230" y="338" fill="#fff" font-family="Arial, sans-serif" font-size="14" font-weight="bold" text-anchor="middle">
    LANGSIKTIG GJELD
  </text><path fill="#fff" stroke="#f44336" d="M80 345h200v20H80z"/><text x="90" y="358" fill="#2c3e50" font-family="Arial, sans-serif" font-size="12">Byggelån</text><path fill="#fff" stroke="#f44336" d="M280 345h100v20H280z"/><text x="330" y="358" fill="#2c3e50" font-family="Arial, sans-serif" font-size="12" text-anchor="middle">1.800.000</text><path fill="#fff" stroke="#f44336" d="M80 365h200v20H80z"/><text x="90" y="378" fill="#2c3e50" font-family="Arial, sans-serif" font-size="12">Utstyrslån</text><path fill="#fff" stroke="#f44336" d="M280 365h100v20H280z"/><text x="330" y="378" fill="#2c3e50" font-family="Arial, sans-serif" font-size="12" text-anchor="middle">400.000</text><path fill="#ff9800" d="M420 320h300v25H420z"/><text x="570" y="338" fill="#fff" font-family="Arial, sans-serif" font-size="14" font-weight="bold" text-anchor="middle">
    KORTSIKTIG GJELD
  </text><path fill="#fff" stroke="#ff9800" d="M420 345h200v20H420z"/><text x="430" y="358" fill="#2c3e50" font-family="Arial, sans-serif" font-size="12">Leverandørgjeld</text><path fill="#fff" stroke="#ff9800" d="M620 345h100v20H620z"/><text x="670" y="358" fill="#2c3e50" font-family="Arial, sans-serif" font-size="12" text-anchor="middle">150.000</text><path fill="#fff" stroke="#ff9800" d="M420 365h200v20H420z"/><text x="430" y="378" fill="#2c3e50" font-family="Arial, sans-serif" font-size="12">Skattegjeld</text><path fill="#fff" stroke="#ff9800" d="M620 365h100v20H620z"/><text x="670" y="378" fill="#2c3e50" font-family="Arial, sans-serif" font-size="12" text-anchor="middle">80.000</text><path fill="#fff" stroke="#ff9800" d="M420 385h200v20H420z"/><text x="430" y="398" fill="#2c3e50" font-family="Arial, sans-serif" font-size="12">Kassekreditt</text><path fill="#fff" stroke="#ff9800" d="M620 385h100v20H620z"/><text x="670" y="398" fill="#2c3e50" font-family="Arial, sans-serif" font-size="12" text-anchor="middle">120.000</text><path fill="#34495e" d="M250 430h300v30H250z"/><text x="400" y="450" fill="#fff" font-family="Arial, sans-serif" font-size="16" font-weight="bold" text-anchor="middle">
    SUM GJELD: 2.550.000 kr
  </text><rect width="500" height="80" x="150" y="500" fill="#9c27b0" stroke="#7b1fa2" stroke-width="2" rx="8"/><text x="400" y="525" fill="#fff" font-family="Arial, sans-serif" font-size="18" font-weight="bold" text-anchor="middle">
    STEG 3: BEREGN NETTOFORMUE
  </text><text x="400" y="550" fill="#fff" font-family="Arial, sans-serif" font-size="16" text-anchor="middle">
    4.550.000 kr - 2.550.000 kr = 2.000.000 kr
  </text><text x="400" y="570" fill="#fff" font-family="Arial, sans-serif" font-size="14" font-weight="bold" text-anchor="middle">
    NETTOFORMUE: 2.000.000 kr
  </text></svg>