<svg width="800" height="500" xmlns="http://www.w3.org/2000/svg">

  <rect width="800" height="500" fill="#f8f9fa"/>
  

  <text x="400" y="30" text-anchor="middle" font-family="Arial, sans-serif" font-size="20" font-weight="bold" fill="#2c3e50">
    Komponenter av Formue
  </text>
  

  <rect x="50" y="60" width="340" height="180" fill="#e8f5e8" stroke="#27ae60" stroke-width="2" rx="8"/>
  <text x="220" y="85" text-anchor="middle" font-family="Arial, sans-serif" font-size="16" font-weight="bold" fill="#27ae60">
    ANLEGGSMIDLER
  </text>
  

  <circle cx="80" cy="115" r="8" fill="#27ae60"/>
  <text x="100" y="120" font-family="Arial, sans-serif" font-size="12" fill="#2c3e50">
    Eiendom og bygninger
  </text>
  
  <circle cx="80" cy="140" r="8" fill="#27ae60"/>
  <text x="100" y="145" font-family="Arial, sans-serif" font-size="12" fill="#2c3e50">
    Maskiner og utstyr
  </text>
  
  <circle cx="80" cy="165" r="8" fill="#27ae60"/>
  <text x="100" y="170" font-family="Arial, sans-serif" font-size="12" fill="#2c3e50">
    Finansielle investeringer
  </text>
  
  <circle cx="80" cy="190" r="8" fill="#27ae60"/>
  <text x="100" y="195" font-family="Arial, sans-serif" font-size="12" fill="#2c3e50">
    Immaterielle eiendeler
  </text>
  
  <circle cx="80" cy="215" r="8" fill="#27ae60"/>
  <text x="100" y="220" font-family="Arial, sans-serif" font-size="12" fill="#2c3e50">
    Langsiktige fordringer
  </text>
  

  <rect x="410" y="60" width="340" height="180" fill="#e3f2fd" stroke="#2196f3" stroke-width="2" rx="8"/>
  <text x="580" y="85" text-anchor="middle" font-family="Arial, sans-serif" font-size="16" font-weight="bold" fill="#2196f3">
    OMLØPSMIDLER
  </text>
  

  <circle cx="440" cy="115" r="8" fill="#2196f3"/>
  <text x="460" y="120" font-family="Arial, sans-serif" font-size="12" fill="#2c3e50">
    Bankinnskudd og kontanter
  </text>
  
  <circle cx="440" cy="140" r="8" fill="#2196f3"/>
  <text x="460" y="145" font-family="Arial, sans-serif" font-size="12" fill="#2c3e50">
    Kundefordringer (debitorer)
  </text>
  
  <circle cx="440" cy="165" r="8" fill="#2196f3"/>
  <text x="460" y="170" font-family="Arial, sans-serif" font-size="12" fill="#2c3e50">
    Varelager og råvarer
  </text>
  
  <circle cx="440" cy="190" r="8" fill="#2196f3"/>
  <text x="460" y="195" font-family="Arial, sans-serif" font-size="12" fill="#2c3e50">
    Kortsiktige investeringer
  </text>
  
  <circle cx="440" cy="215" r="8" fill="#2196f3"/>
  <text x="460" y="220" font-family="Arial, sans-serif" font-size="12" fill="#2c3e50">
    Forskuddsbetalte kostnader
  </text>
  

  <rect x="50" y="270" width="340" height="180" fill="#ffebee" stroke="#f44336" stroke-width="2" rx="8"/>
  <text x="220" y="295" text-anchor="middle" font-family="Arial, sans-serif" font-size="16" font-weight="bold" fill="#f44336">
    LANGSIKTIG GJELD
  </text>
  

  <circle cx="80" cy="325" r="8" fill="#f44336"/>
  <text x="100" y="330" font-family="Arial, sans-serif" font-size="12" fill="#2c3e50">
    Boliglån og eiendomslån
  </text>
  
  <circle cx="80" cy="350" r="8" fill="#f44336"/>
  <text x="100" y="355" font-family="Arial, sans-serif" font-size="12" fill="#2c3e50">
    Bedriftslån for investeringer
  </text>
  
  <circle cx="80" cy="375" r="8" fill="#f44336"/>
  <text x="100" y="380" font-family="Arial, sans-serif" font-size="12" fill="#2c3e50">
    Obligasjoner utstedt
  </text>
  
  <circle cx="80" cy="400" r="8" fill="#f44336"/>
  <text x="100" y="405" font-family="Arial, sans-serif" font-size="12" fill="#2c3e50">
    Pensjonsforpliktelser
  </text>
  
  <circle cx="80" cy="425" r="8" fill="#f44336"/>
  <text x="100" y="430" font-family="Arial, sans-serif" font-size="12" fill="#2c3e50">
    Utsatt skatt
  </text>
  

  <rect x="410" y="270" width="340" height="180" fill="#fff3e0" stroke="#ff9800" stroke-width="2" rx="8"/>
  <text x="580" y="295" text-anchor="middle" font-family="Arial, sans-serif" font-size="16" font-weight="bold" fill="#ff9800">
    KORTSIKTIG GJELD
  </text>
  

  <circle cx="440" cy="325" r="8" fill="#ff9800"/>
  <text x="460" y="330" font-family="Arial, sans-serif" font-size="12" fill="#2c3e50">
    Leverandørgjeld (kreditorer)
  </text>
  
  <circle cx="440" cy="350" r="8" fill="#ff9800"/>
  <text x="460" y="355" font-family="Arial, sans-serif" font-size="12" fill="#2c3e50">
    Skattegjeld og avgifter
  </text>
  
  <circle cx="440" cy="375" r="8" fill="#ff9800"/>
  <text x="460" y="380" font-family="Arial, sans-serif" font-size="12" fill="#2c3e50">
    Kortsiktige lån og kassekreditt
  </text>
  
  <circle cx="440" cy="400" r="8" fill="#ff9800"/>
  <text x="460" y="405" font-family="Arial, sans-serif" font-size="12" fill="#2c3e50">
    Påløpte kostnader
  </text>
  
  <circle cx="440" cy="425" r="8" fill="#ff9800"/>
  <text x="460" y="430" font-family="Arial, sans-serif" font-size="12" fill="#2c3e50">
    Forskuddsmottatte inntekter
  </text>
  

  <rect x="200" y="470" width="400" height="25" fill="#9c27b0" rx="5"/>
  <text x="400" y="487" text-anchor="middle" font-family="Arial, sans-serif" font-size="14" font-weight="bold" fill="#ffffff">
    NETTOFORMUE = (Anleggsmidler + Omløpsmidler) - (Langsiktig gjeld + Kortsiktig gjeld)
  </text>
</svg>