<svg xmlns="http://www.w3.org/2000/svg" width="800" height="400"><path fill="#f8f9fa" d="M0 0h800v400H0z"/><text x="400" y="40" fill="#2c3e50" font-family="Arial, sans-serif" font-size="24" font-weight="bold" text-anchor="middle">
    Formue = Eiendeler - Gjeld
  </text><rect width="300" height="280" x="50" y="80" fill="#e8f5e8" stroke="#27ae60" stroke-width="2" rx="10"/><text x="200" y="110" fill="#27ae60" font-family="Arial, sans-serif" font-size="18" font-weight="bold" text-anchor="middle">
    EIENDELER
  </text><rect width="260" height="40" x="70" y="130" fill="#fff" stroke="#27ae60" rx="5"/><text x="200" y="155" fill="#2c3e50" font-family="Arial, sans-serif" font-size="14" text-anchor="middle">
    Eiendom: 2.500.000 kr
  </text><rect width="260" height="40" x="70" y="180" fill="#fff" stroke="#27ae60" rx="5"/><text x="200" y="205" fill="#2c3e50" font-family="Arial, sans-serif" font-size="14" text-anchor="middle">
    Bankinnskudd: 450.000 kr
  </text><rect width="260" height="40" x="70" y="230" fill="#fff" stroke="#27ae60" rx="5"/><text x="200" y="255" fill="#2c3e50" font-family="Arial, sans-serif" font-size="14" text-anchor="middle">
    Investeringer: 300.000 kr
  </text><rect width="260" height="40" x="70" y="280" fill="#fff" stroke="#27ae60" rx="5"/><text x="200" y="305" fill="#2c3e50" font-family="Arial, sans-serif" font-size="14" text-anchor="middle">
    Utstyr: 800.000 kr
  </text><path fill="#27ae60" d="M70 330h260v20H70z"/><text x="200" y="345" fill="#fff" font-family="Arial, sans-serif" font-size="14" font-weight="bold" text-anchor="middle">
    Sum: 4.050.000 kr
  </text><text x="400" y="230" fill="#e74c3c" font-family="Arial, sans-serif" font-size="36" font-weight="bold" text-anchor="middle">
    -
  </text><rect width="300" height="280" x="450" y="80" fill="#fdf2f2" stroke="#e74c3c" stroke-width="2" rx="10"/><text x="600" y="110" fill="#e74c3c" font-family="Arial, sans-serif" font-size="18" font-weight="bold" text-anchor="middle">
    GJELD
  </text><rect width="260" height="40" x="470" y="130" fill="#fff" stroke="#e74c3c" rx="5"/><text x="600" y="155" fill="#2c3e50" font-family="Arial, sans-serif" font-size="14" text-anchor="middle">
    Boliglån: 1.800.000 kr
  </text><rect width="260" height="40" x="470" y="180" fill="#fff" stroke="#e74c3c" rx="5"/><text x="600" y="205" fill="#2c3e50" font-family="Arial, sans-serif" font-size="14" text-anchor="middle">
    Utstyrslån: 400.000 kr
  </text><rect width="260" height="40" x="470" y="230" fill="#fff" stroke="#e74c3c" rx="5"/><text x="600" y="255" fill="#2c3e50" font-family="Arial, sans-serif" font-size="14" text-anchor="middle">
    Leverandørgjeld: 150.000 kr
  </text><rect width="260" height="40" x="470" y="280" fill="#fff" stroke="#e74c3c" rx="5"/><text x="600" y="305" fill="#2c3e50" font-family="Arial, sans-serif" font-size="14" text-anchor="middle">
    Kassekreditt: 200.000 kr
  </text><path fill="#e74c3c" d="M470 330h260v20H470z"/><text x="600" y="345" fill="#fff" font-family="Arial, sans-serif" font-size="14" font-weight="bold" text-anchor="middle">
    Sum: 2.550.000 kr
  </text><path stroke="#3498db" stroke-width="3" marker-end="url(#a)" d="M400 370v20"/><defs><marker id="a" markerHeight="7" markerWidth="10" orient="auto" refX="9" refY="3.5"><path fill="#3498db" d="m0 0 10 3.5L0 7z"/></marker></defs><rect width="300" height="30" x="250" y="390" fill="#3498db" rx="5"/><text x="400" y="410" fill="#fff" font-family="Arial, sans-serif" font-size="16" font-weight="bold" text-anchor="middle">
    NETTOFORMUE: 1.500.000 kr
  </text></svg>