<svg xmlns="http://www.w3.org/2000/svg" width="800" height="600"><defs><linearGradient id="a" x1="0%" x2="100%" y1="0%" y2="100%"><stop offset="0%" style="stop-color:#059669;stop-opacity:1"/><stop offset="100%" style="stop-color:#047857;stop-opacity:1"/></linearGradient><linearGradient id="b" x1="0%" x2="100%" y1="0%" y2="100%"><stop offset="0%" style="stop-color:#3b82f6;stop-opacity:1"/><stop offset="100%" style="stop-color:#1d4ed8;stop-opacity:1"/></linearGradient><linearGradient id="c" x1="0%" x2="100%" y1="0%" y2="100%"><stop offset="0%" style="stop-color:#f59e0b;stop-opacity:1"/><stop offset="100%" style="stop-color:#d97706;stop-opacity:1"/></linearGradient><linearGradient id="d" x1="0%" x2="100%" y1="0%" y2="100%"><stop offset="0%" style="stop-color:#8b5cf6;stop-opacity:1"/><stop offset="100%" style="stop-color:#7c3aed;stop-opacity:1"/></linearGradient></defs><path fill="#f9fafb" d="M0 0h800v600H0z"/><text x="400" y="30" fill="#1f2937" font-family="Arial, sans-serif" font-size="24" font-weight="bold" text-anchor="middle">Balanced Scorecard</text><text x="400" y="50" fill="#6b7280" font-family="Arial, sans-serif" font-size="14" text-anchor="middle">Fire perspektiver for helhetlig prestasjonsmåling</text><circle cx="400" cy="300" r="80" fill="#fff" stroke="#1f2937" stroke-width="3"/><text x="400" y="290" fill="#1f2937" font-family="Arial, sans-serif" font-size="14" font-weight="bold" text-anchor="middle">VISJON &amp;</text><text x="400" y="308" fill="#1f2937" font-family="Arial, sans-serif" font-size="14" font-weight="bold" text-anchor="middle">STRATEGI</text><rect width="240" height="120" x="280" y="80" fill="url(#a)" opacity=".9" rx="15"/><text x="400" y="110" fill="#fff" font-family="Arial, sans-serif" font-size="18" font-weight="bold" text-anchor="middle">FINANSIELT PERSPEKTIV</text><text x="400" y="130" fill="#fff" font-family="Arial, sans-serif" font-size="12" text-anchor="middle">&quot;Hvordan ser vi ut overfor aksjonærene?&quot;</text><rect width="90" height="25" x="300" y="145" fill="#fff" opacity=".9" rx="5"/><text x="345" y="160" fill="#047857" font-family="Arial, sans-serif" font-size="10" font-weight="bold" text-anchor="middle">Omsetningsvekst</text><rect width="90" height="25" x="405" y="145" fill="#fff" opacity=".9" rx="5"/><text x="450" y="160" fill="#047857" font-family="Arial, sans-serif" font-size="10" font-weight="bold" text-anchor="middle">EBITDA-margin</text><rect width="90" height="25" x="300" y="175" fill="#fff" opacity=".9" rx="5"/><text x="345" y="190" fill="#047857" font-family="Arial, sans-serif" font-size="10" font-weight="bold" text-anchor="middle">ROI</text><rect width="90" height="25" x="405" y="175" fill="#fff" opacity=".9" rx="5"/><text x="450" y="190" fill="#047857" font-family="Arial, sans-serif" font-size="10" font-weight="bold" text-anchor="middle">Kontantstrøm</text><rect width="180" height="180" x="580" y="210" fill="url(#b)" opacity=".9" rx="15"/><text x="670" y="240" fill="#fff" font-family="Arial, sans-serif" font-size="16" font-weight="bold" text-anchor="middle">KUNDE-</text><text x="670" y="258" fill="#fff" font-family="Arial, sans-serif" font-size="16" font-weight="bold" text-anchor="middle">PERSPEKTIV</text><text x="670" y="278" fill="#fff" font-family="Arial, sans-serif" font-size="11" text-anchor="middle">&quot;Hvordan skal kundene</text><text x="670" y="290" fill="#fff" font-family="Arial, sans-serif" font-size="11" text-anchor="middle">oppfatte oss?&quot;</text><rect width="140" height="20" x="600" y="305" fill="#fff" opacity=".9" rx="4"/><text x="670" y="318" fill="#1d4ed8" font-family="Arial, sans-serif" font-size="9" font-weight="bold" text-anchor="middle">Kundetilfredshet</text><rect width="140" height="20" x="600" y="330" fill="#fff" opacity=".9" rx="4"/><text x="670" y="343" fill="#1d4ed8" font-family="Arial, sans-serif" font-size="9" font-weight="bold" text-anchor="middle">Kundebevaring</text><rect width="140" height="20" x="600" y="355" fill="#fff" opacity=".9" rx="4"/><text x="670" y="368" fill="#1d4ed8" font-family="Arial, sans-serif" font-size="9" font-weight="bold" text-anchor="middle">Markedsandel</text><rect width="240" height="120" x="280" y="420" fill="url(#c)" opacity=".9" rx="15"/><text x="400" y="450" fill="#fff" font-family="Arial, sans-serif" font-size="18" font-weight="bold" text-anchor="middle">INTERNPROSESS</text><text x="400" y="470" fill="#fff" font-family="Arial, sans-serif" font-size="12" text-anchor="middle">&quot;Hvilke prosesser må vi mestre?&quot;</text><rect width="90" height="25" x="300" y="485" fill="#fff" opacity=".9" rx="5"/><text x="345" y="500" fill="#d97706" font-family="Arial, sans-serif" font-size="10" font-weight="bold" text-anchor="middle">Leveringspresisjon</text><rect width="90" height="25" x="405" y="485" fill="#fff" opacity=".9" rx="5"/><text x="450" y="500" fill="#d97706" font-family="Arial, sans-serif" font-size="10" font-weight="bold" text-anchor="middle">Kvalitetsnivå</text><rect width="90" height="25" x="300" y="515" fill="#fff" opacity=".9" rx="5"/><text x="345" y="530" fill="#d97706" font-family="Arial, sans-serif" font-size="10" font-weight="bold" text-anchor="middle">Prosesseffektivitet</text><rect width="90" height="25" x="405" y="515" fill="#fff" opacity=".9" rx="5"/><text x="450" y="530" fill="#d97706" font-family="Arial, sans-serif" font-size="10" font-weight="bold" text-anchor="middle">Innovasjonsrate</text><rect width="180" height="180" x="40" y="210" fill="url(#d)" opacity=".9" rx="15"/><text x="130" y="240" fill="#fff" font-family="Arial, sans-serif" font-size="16" font-weight="bold" text-anchor="middle">LÆRING &amp;</text><text x="130" y="258" fill="#fff" font-family="Arial, sans-serif" font-size="16" font-weight="bold" text-anchor="middle">VEKST</text><text x="130" y="278" fill="#fff" font-family="Arial, sans-serif" font-size="11" text-anchor="middle">&quot;Hvordan skal vi opprettholde</text><text x="130" y="290" fill="#fff" font-family="Arial, sans-serif" font-size="11" text-anchor="middle">evnen til forbedring?&quot;</text><rect width="140" height="20" x="60" y="305" fill="#fff" opacity=".9" rx="4"/><text x="130" y="318" fill="#7c3aed" font-family="Arial, sans-serif" font-size="9" font-weight="bold" text-anchor="middle">Ansatttilfredshet</text><rect width="140" height="20" x="60" y="330" fill="#fff" opacity=".9" rx="4"/><text x="130" y="343" fill="#7c3aed" font-family="Arial, sans-serif" font-size="9" font-weight="bold" text-anchor="middle">Kompetanseutvikling</text><rect width="140" height="20" x="60" y="355" fill="#fff" opacity=".9" rx="4"/><text x="130" y="368" fill="#7c3aed" font-family="Arial, sans-serif" font-size="9" font-weight="bold" text-anchor="middle">IT-kapabilitet</text><path fill="none" stroke="#374151" stroke-width="3" marker-end="url(#e)" d="M400 220v20"/><path fill="none" stroke="#374151" stroke-width="3" marker-end="url(#e)" d="M520 300"/><path fill="none" stroke="#374151" stroke-width="3" marker-end="url(#e)" d="M400 380v20"/><path fill="none" stroke="#374151" stroke-width="3" marker-end="url(#e)" d="M280 300h-20"/><defs><marker id="e" markerHeight="7" markerWidth="10" orient="auto" refX="9" refY="3.5"><path fill="#374151" d="m0 0 10 3.5L0 7z"/></marker></defs><text x="400" y="575" fill="#374151" font-family="Arial, sans-serif" font-size="14" font-weight="bold" text-anchor="middle">Årsak-Virkning Sammenhenger</text><rect width="180" height="100" x="50" y="80" fill="#fff" stroke="#e5e7eb" stroke-width="2" rx="10"/><text x="140" y="105" fill="#1f2937" font-family="Arial, sans-serif" font-size="12" font-weight="bold" text-anchor="middle">Implementering</text><text x="60" y="125" fill="#374151" font-family="Arial, sans-serif" font-size="10">1. Definer strategi</text><text x="60" y="140" fill="#374151" font-family="Arial, sans-serif" font-size="10">2. Identifiser KPI-er</text><text x="60" y="155" fill="#374151" font-family="Arial, sans-serif" font-size="10">3. Sett mål og tiltak</text><text x="60" y="170" fill="#374151" font-family="Arial, sans-serif" font-size="10">4. Overvåk og juster</text><rect width="180" height="100" x="570" y="80" fill="#fff" stroke="#e5e7eb" stroke-width="2" rx="10"/><text x="660" y="105" fill="#1f2937" font-family="Arial, sans-serif" font-size="12" font-weight="bold" text-anchor="middle">Fordeler</text><text x="580" y="125" fill="#374151" font-family="Arial, sans-serif" font-size="10">• Helhetlig perspektiv</text><text x="580" y="140" fill="#374151" font-family="Arial, sans-serif" font-size="10">• Strategisk fokus</text><text x="580" y="155" fill="#374151" font-family="Arial, sans-serif" font-size="10">• Balansert måling</text><text x="580" y="170" fill="#374151" font-family="Arial, sans-serif" font-size="10">• Kontinuerlig forbedring</text></svg>