<svg xmlns="http://www.w3.org/2000/svg" width="800" height="500"><defs><linearGradient id="a" x1="0%" x2="100%" y1="0%" y2="100%"><stop offset="0%" style="stop-color:#3b82f6;stop-opacity:1"/><stop offset="100%" style="stop-color:#1d4ed8;stop-opacity:1"/></linearGradient><linearGradient id="c" x1="0%" x2="100%" y1="0%" y2="100%"><stop offset="0%" style="stop-color:#06b6d4;stop-opacity:1"/><stop offset="100%" style="stop-color:#0891b2;stop-opacity:1"/></linearGradient><linearGradient id="d" x1="0%" x2="100%" y1="0%" y2="100%"><stop offset="0%" style="stop-color:#8b5cf6;stop-opacity:1"/><stop offset="100%" style="stop-color:#7c3aed;stop-opacity:1"/></linearGradient><linearGradient id="b" x1="0%" x2="100%" y1="0%" y2="100%"><stop offset="0%" style="stop-color:#10b981;stop-opacity:1"/><stop offset="100%" style="stop-color:#059669;stop-opacity:1"/></linearGradient></defs><path fill="#f9fafb" d="M0 0h800v500H0z"/><text x="400" y="30" fill="#1f2937" font-family="Arial, sans-serif" font-size="24" font-weight="bold" text-anchor="middle">Digitale Styringsverktøy</text><text x="400" y="50" fill="#6b7280" font-family="Arial, sans-serif" font-size="14" text-anchor="middle">Moderne teknologi for effektiv virksomhetsstyring</text><rect width="160" height="160" x="50" y="80" fill="url(#a)" opacity=".9" rx="12"/><text x="130" y="110" fill="#fff" font-family="Arial, sans-serif" font-size="16" font-weight="bold" text-anchor="middle">ERP</text><text x="130" y="130" fill="#fff" font-family="Arial, sans-serif" font-size="16" font-weight="bold" text-anchor="middle">SYSTEMER</text><text x="130" y="150" fill="#fff" font-family="Arial, sans-serif" font-size="11" text-anchor="middle">Enterprise Resource Planning</text><rect width="120" height="15" x="70" y="165" fill="#fff" opacity=".9" rx="3"/><text x="130" y="175" fill="#1d4ed8" font-family="Arial, sans-serif" font-size="9" font-weight="bold" text-anchor="middle">Integrert finansstyring</text><rect width="120" height="15" x="70" y="185" fill="#fff" opacity=".9" rx="3"/><text x="130" y="195" fill="#1d4ed8" font-family="Arial, sans-serif" font-size="9" font-weight="bold" text-anchor="middle">Sanntidsrapportering</text><rect width="120" height="15" x="70" y="205" fill="#fff" opacity=".9" rx="3"/><text x="130" y="215" fill="#1d4ed8" font-family="Arial, sans-serif" font-size="9" font-weight="bold" text-anchor="middle">Prosessautomatisering</text><rect width="160" height="160" x="230" y="80" fill="url(#b)" opacity=".9" rx="12"/><text x="310" y="110" fill="#fff" font-family="Arial, sans-serif" font-size="16" font-weight="bold" text-anchor="middle">BUSINESS</text><text x="310" y="130" fill="#fff" font-family="Arial, sans-serif" font-size="16" font-weight="bold" text-anchor="middle">INTELLIGENCE</text><text x="310" y="150" fill="#fff" font-family="Arial, sans-serif" font-size="11" text-anchor="middle">Data Analytics &amp; Visualisering</text><rect width="120" height="15" x="250" y="165" fill="#fff" opacity=".9" rx="3"/><text x="310" y="175" fill="#059669" font-family="Arial, sans-serif" font-size="9" font-weight="bold" text-anchor="middle">Interaktive dashboards</text><rect width="120" height="15" x="250" y="185" fill="#fff" opacity=".9" rx="3"/><text x="310" y="195" fill="#059669" font-family="Arial, sans-serif" font-size="9" font-weight="bold" text-anchor="middle">Ad-hoc rapporter</text><rect width="120" height="15" x="250" y="205" fill="#fff" opacity=".9" rx="3"/><text x="310" y="215" fill="#059669" font-family="Arial, sans-serif" font-size="9" font-weight="bold" text-anchor="middle">Prediktiv analyse</text><rect width="160" height="160" x="410" y="80" fill="url(#c)" opacity=".9" rx="12"/><text x="490" y="110" fill="#fff" font-family="Arial, sans-serif" font-size="16" font-weight="bold" text-anchor="middle">CLOUD</text><text x="490" y="130" fill="#fff" font-family="Arial, sans-serif" font-size="16" font-weight="bold" text-anchor="middle">LØSNINGER</text><text x="490" y="150" fill="#fff" font-family="Arial, sans-serif" font-size="11" text-anchor="middle">Skalérbare sky-tjenester</text><rect width="120" height="15" x="430" y="165" fill="#fff" opacity=".9" rx="3"/><text x="490" y="175" fill="#0891b2" font-family="Arial, sans-serif" font-size="9" font-weight="bold" text-anchor="middle">Tilgang overalt</text><rect width="120" height="15" x="430" y="185" fill="#fff" opacity=".9" rx="3"/><text x="490" y="195" fill="#0891b2" font-family="Arial, sans-serif" font-size="9" font-weight="bold" text-anchor="middle">Automatiske sikkerhetskopier</text><rect width="120" height="15" x="430" y="205" fill="#fff" opacity=".9" rx="3"/><text x="490" y="215" fill="#0891b2" font-family="Arial, sans-serif" font-size="9" font-weight="bold" text-anchor="middle">Fleksibel skalering</text><rect width="160" height="160" x="590" y="80" fill="url(#d)" opacity=".9" rx="12"/><text x="670" y="110" fill="#fff" font-family="Arial, sans-serif" font-size="16" font-weight="bold" text-anchor="middle">AI &amp; MACHINE</text><text x="670" y="130" fill="#fff" font-family="Arial, sans-serif" font-size="16" font-weight="bold" text-anchor="middle">LEARNING</text><text x="670" y="150" fill="#fff" font-family="Arial, sans-serif" font-size="11" text-anchor="middle">Intelligent automatisering</text><rect width="120" height="15" x="610" y="165" fill="#fff" opacity=".9" rx="3"/><text x="670" y="175" fill="#7c3aed" font-family="Arial, sans-serif" font-size="9" font-weight="bold" text-anchor="middle">Anomali-deteksjon</text><rect width="120" height="15" x="610" y="185" fill="#fff" opacity=".9" rx="3"/><text x="670" y="195" fill="#7c3aed" font-family="Arial, sans-serif" font-size="9" font-weight="bold" text-anchor="middle">Automatisk prognose</text><rect width="120" height="15" x="610" y="205" fill="#fff" opacity=".9" rx="3"/><text x="670" y="215" fill="#7c3aed" font-family="Arial, sans-serif" font-size="9" font-weight="bold" text-anchor="middle">Naturlig språk</text><rect width="700" height="60" x="50" y="260" fill="#fff" stroke="#d1d5db" stroke-width="2" rx="10"/><text x="400" y="285" fill="#1f2937" font-family="Arial, sans-serif" font-size="16" font-weight="bold" text-anchor="middle">INTEGRASJONSPLATTFORM</text><text x="400" y="305" fill="#6b7280" font-family="Arial, sans-serif" font-size="12" text-anchor="middle">API-er, webservices og datautveksling mellom systemer</text><path stroke="#374151" stroke-width="2" d="M130 240v20M310 240v20M490 240v20M670 240v20"/><text x="400" y="350" fill="#1f2937" font-family="Arial, sans-serif" font-size="18" font-weight="bold" text-anchor="middle">Hovedfordeler med Digitale Styringsverktøy</text><rect width="140" height="80" x="50" y="370" fill="#f3f4f6" stroke="#9ca3af" rx="8"/><text x="120" y="390" fill="#1f2937" font-family="Arial, sans-serif" font-size="12" font-weight="bold" text-anchor="middle">Sanntidsdata</text><text x="120" y="410" fill="#6b7280" font-family="Arial, sans-serif" font-size="10" text-anchor="middle">Øyeblikkelig tilgang</text><text x="120" y="425" fill="#6b7280" font-family="Arial, sans-serif" font-size="10" text-anchor="middle">til oppdatert</text><text x="120" y="440" fill="#6b7280" font-family="Arial, sans-serif" font-size="10" text-anchor="middle">informasjon</text><rect width="140" height="80" x="210" y="370" fill="#f3f4f6" stroke="#9ca3af" rx="8"/><text x="280" y="390" fill="#1f2937" font-family="Arial, sans-serif" font-size="12" font-weight="bold" text-anchor="middle">Automatisering</text><text x="280" y="410" fill="#6b7280" font-family="Arial, sans-serif" font-size="10" text-anchor="middle">Redusert manuelt</text><text x="280" y="425" fill="#6b7280" font-family="Arial, sans-serif" font-size="10" text-anchor="middle">arbeid og</text><text x="280" y="440" fill="#6b7280" font-family="Arial, sans-serif" font-size="10" text-anchor="middle">feilrisiko</text><rect width="140" height="80" x="370" y="370" fill="#f3f4f6" stroke="#9ca3af" rx="8"/><text x="440" y="390" fill="#1f2937" font-family="Arial, sans-serif" font-size="12" font-weight="bold" text-anchor="middle">Skalérbarhet</text><text x="440" y="410" fill="#6b7280" font-family="Arial, sans-serif" font-size="10" text-anchor="middle">Vokser med</text><text x="440" y="425" fill="#6b7280" font-family="Arial, sans-serif" font-size="10" text-anchor="middle">virksomheten</text><text x="440" y="440" fill="#6b7280" font-family="Arial, sans-serif" font-size="10" text-anchor="middle">uten store kostnader</text><rect width="140" height="80" x="530" y="370" fill="#f3f4f6" stroke="#9ca3af" rx="8"/><text x="600" y="390" fill="#1f2937" font-family="Arial, sans-serif" font-size="12" font-weight="bold" text-anchor="middle">Mobilitet</text><text x="600" y="410" fill="#6b7280" font-family="Arial, sans-serif" font-size="10" text-anchor="middle">Tilgang fra</text><text x="600" y="425" fill="#6b7280" font-family="Arial, sans-serif" font-size="10" text-anchor="middle">enhver enhet,</text><text x="600" y="440" fill="#6b7280" font-family="Arial, sans-serif" font-size="10" text-anchor="middle">hvor som helst</text><g transform="translate(90 90)"><rect width="16" height="12" fill="#fff" opacity=".8" rx="2"/><path fill="#1d4ed8" d="M2 2h4v8H2zM7 2h4v8H7zM12 2h2v8h-2z"/></g><g transform="translate(270 90)"><circle cx="8" cy="8" r="6" fill="#fff" opacity=".8"/><path fill="#059669" d="m3 8 5-5 5 5-5 5Z"/></g><path fill="#fff" d="M454 100c-2 0-2-2 0-2 0-2 2-2 4-2s4 0 4 2c2 0 2 2 0 2Z" opacity=".8"/><g transform="translate(630 90)"><circle cx="8" cy="6" r="2" fill="#fff" opacity=".8"/><circle cx="4" cy="10" r="1" fill="#fff" opacity=".8"/><circle cx="12" cy="10" r="1" fill="#fff" opacity=".8"/><path stroke="#fff" d="M6 8h4M8 6v6" opacity=".8"/></g><text x="400" y="480" fill="#374151" font-family="Arial, sans-serif" font-size="12" font-weight="bold" text-anchor="middle">Digitale verktøy revolusjonerer hvordan virksomheter styres og drives</text></svg>