<svg xmlns="http://www.w3.org/2000/svg" width="800" height="400"><defs><linearGradient id="a" x1="0%" x2="100%" y1="0%" y2="100%"><stop offset="0%" style="stop-color:#2563eb;stop-opacity:1"/><stop offset="100%" style="stop-color:#1d4ed8;stop-opacity:1"/></linearGradient><linearGradient id="b" x1="0%" x2="100%" y1="0%" y2="100%"><stop offset="0%" style="stop-color:#f3f4f6;stop-opacity:1"/><stop offset="100%" style="stop-color:#e5e7eb;stop-opacity:1"/></linearGradient></defs><path fill="#fff" d="M0 0h800v400H0z"/><path fill="url(#a)" d="M0 0h800v80H0z"/><text x="400" y="35" fill="#fff" font-family="Arial, sans-serif" font-size="24" font-weight="bold" text-anchor="middle">Styringsverktøy</text><text x="400" y="55" fill="#fff" font-family="Arial, sans-serif" font-size="14" text-anchor="middle">Økonomiske styringsverktøy for moderne virksomhetsledelse</text><circle cx="400" cy="200" r="60" fill="url(#b)" stroke="#2563eb" stroke-width="3"/><text x="400" y="195" fill="#1f2937" font-family="Arial, sans-serif" font-size="12" font-weight="bold" text-anchor="middle">STYRINGS-</text><text x="400" y="210" fill="#1f2937" font-family="Arial, sans-serif" font-size="12" font-weight="bold" text-anchor="middle">VERKTØY</text><rect width="120" height="60" x="100" y="120" fill="url(#b)" stroke="#059669" stroke-width="2" rx="8"/><text x="160" y="140" fill="#1f2937" font-family="Arial, sans-serif" font-size="11" font-weight="bold" text-anchor="middle">Budsjett &amp;</text><text x="160" y="155" fill="#1f2937" font-family="Arial, sans-serif" font-size="11" font-weight="bold" text-anchor="middle">Prognoser</text><text x="160" y="170" fill="#6b7280" font-family="Arial, sans-serif" font-size="9" text-anchor="middle">Planlegging</text><rect width="120" height="60" x="580" y="120" fill="url(#b)" stroke="#dc2626" stroke-width="2" rx="8"/><text x="640" y="140" fill="#1f2937" font-family="Arial, sans-serif" font-size="11" font-weight="bold" text-anchor="middle">KPI &amp;</text><text x="640" y="155" fill="#1f2937" font-family="Arial, sans-serif" font-size="11" font-weight="bold" text-anchor="middle">Nøkkeltall</text><text x="640" y="170" fill="#6b7280" font-family="Arial, sans-serif" font-size="9" text-anchor="middle">Måling</text><rect width="120" height="60" x="100" y="260" fill="url(#b)" stroke="#7c3aed" stroke-width="2" rx="8"/><text x="160" y="280" fill="#1f2937" font-family="Arial, sans-serif" font-size="11" font-weight="bold" text-anchor="middle">Avviks-</text><text x="160" y="295" fill="#1f2937" font-family="Arial, sans-serif" font-size="11" font-weight="bold" text-anchor="middle">analyse</text><text x="160" y="310" fill="#6b7280" font-family="Arial, sans-serif" font-size="9" text-anchor="middle">Kontroll</text><rect width="120" height="60" x="580" y="260" fill="url(#b)" stroke="#ea580c" stroke-width="2" rx="8"/><text x="640" y="280" fill="#1f2937" font-family="Arial, sans-serif" font-size="11" font-weight="bold" text-anchor="middle">BI &amp; ERP</text><text x="640" y="295" fill="#1f2937" font-family="Arial, sans-serif" font-size="11" font-weight="bold" text-anchor="middle">Systemer</text><text x="640" y="310" fill="#6b7280" font-family="Arial, sans-serif" font-size="9" text-anchor="middle">Teknologi</text><path stroke="#6b7280" stroke-dasharray="4,4" stroke-width="2" d="m220 150 125 30M580 150l-125 30M220 290l125-70M580 290l-125-70"/><text x="400" y="350" fill="#374151" font-family="Arial, sans-serif" font-size="14" font-weight="bold" text-anchor="middle">Bedre beslutninger • Økt kontroll • Forbedret prestasjoner</text><g fill="#059669"><path d="M140 140h3v15h-3zM145 135h3v20h-3zM150 142h3v13h-3zM155 138h3v17h-3z"/></g><g transform="translate(620 132)"><circle cx="10" cy="10" r="8" fill="none" stroke="#dc2626" stroke-width="1.5"/><circle cx="10" cy="10" r="5" fill="none" stroke="#dc2626" stroke-width="1.5"/><circle cx="10" cy="10" r="2" fill="#dc2626"/></g><g transform="translate(140 270)"><path fill="none" stroke="#7c3aed" stroke-width="2" d="m5 15 5-5 5 2 5-7"/><circle cx="5" cy="15" r="1.5" fill="#7c3aed"/><circle cx="10" cy="10" r="1.5" fill="#7c3aed"/><circle cx="15" cy="12" r="1.5" fill="#7c3aed"/><circle cx="20" cy="5" r="1.5" fill="#7c3aed"/></g><g transform="translate(620 272)"><rect width="16" height="10" x="2" y="8" fill="none" stroke="#ea580c" stroke-width="1.5" rx="1"/><path fill="#ea580c" d="M8 18h4v2H8z"/><path stroke="#ea580c" stroke-width="1.5" d="M6 20h8"/></g></svg>