<svg xmlns="http://www.w3.org/2000/svg" width="800" height="600"><defs><linearGradient id="a" x1="0%" x2="100%" y1="0%" y2="100%"><stop offset="0%" style="stop-color:#3b82f6;stop-opacity:1"/><stop offset="100%" style="stop-color:#1d4ed8;stop-opacity:1"/></linearGradient><linearGradient id="b" x1="0%" x2="100%" y1="0%" y2="100%"><stop offset="0%" style="stop-color:#10b981;stop-opacity:1"/><stop offset="100%" style="stop-color:#059669;stop-opacity:1"/></linearGradient><linearGradient id="c" x1="0%" x2="100%" y1="0%" y2="100%"><stop offset="0%" style="stop-color:#f59e0b;stop-opacity:1"/><stop offset="100%" style="stop-color:#d97706;stop-opacity:1"/></linearGradient><linearGradient id="d" x1="0%" x2="100%" y1="0%" y2="100%"><stop offset="0%" style="stop-color:#8b5cf6;stop-opacity:1"/><stop offset="100%" style="stop-color:#7c3aed;stop-opacity:1"/></linearGradient><linearGradient id="e" x1="0%" x2="100%" y1="0%" y2="100%"><stop offset="0%" style="stop-color:#ef4444;stop-opacity:1"/><stop offset="100%" style="stop-color:#dc2626;stop-opacity:1"/></linearGradient></defs><path fill="#f9fafb" d="M0 0h800v600H0z"/><text x="400" y="30" fill="#1f2937" font-family="Arial, sans-serif" font-size="24" font-weight="bold" text-anchor="middle">Implementeringsprosess for Styringsverktøy</text><text x="400" y="50" fill="#6b7280" font-family="Arial, sans-serif" font-size="14" text-anchor="middle">5-fase metodikk for vellykket innføring</text><path stroke="#374151" stroke-width="4" d="M100 100h600"/><circle cx="150" cy="100" r="25" fill="url(#a)"/><text x="150" y="108" fill="#fff" font-family="Arial, sans-serif" font-size="16" font-weight="bold" text-anchor="middle">1</text><rect width="150" height="140" x="75" y="140" fill="url(#a)" opacity=".9" rx="10"/><text x="150" y="165" fill="#fff" font-family="Arial, sans-serif" font-size="14" font-weight="bold" text-anchor="middle">PLANLEGGING</text><text x="150" y="185" fill="#fff" font-family="Arial, sans-serif" font-size="12" text-anchor="middle">2-4 uker</text><rect width="130" height="15" x="85" y="200" fill="#fff" opacity=".9" rx="3"/><text x="150" y="210" fill="#1d4ed8" font-family="Arial, sans-serif" font-size="9" text-anchor="middle">Behovsanalyse</text><rect width="130" height="15" x="85" y="220" fill="#fff" opacity=".9" rx="3"/><text x="150" y="230" fill="#1d4ed8" font-family="Arial, sans-serif" font-size="9" text-anchor="middle">Målsetting</text><rect width="130" height="15" x="85" y="240" fill="#fff" opacity=".9" rx="3"/><text x="150" y="250" fill="#1d4ed8" font-family="Arial, sans-serif" font-size="9" text-anchor="middle">Ressursallokering</text><rect width="130" height="15" x="85" y="260" fill="#fff" opacity=".9" rx="3"/><text x="150" y="270" fill="#1d4ed8" font-family="Arial, sans-serif" font-size="9" text-anchor="middle">Tidsplan</text><circle cx="250" cy="100" r="25" fill="url(#b)"/><text x="250" y="108" fill="#fff" font-family="Arial, sans-serif" font-size="16" font-weight="bold" text-anchor="middle">2</text><rect width="150" height="140" x="175" y="300" fill="url(#b)" opacity=".9" rx="10"/><text x="250" y="325" fill="#fff" font-family="Arial, sans-serif" font-size="14" font-weight="bold" text-anchor="middle">DESIGN</text><text x="250" y="345" fill="#fff" font-family="Arial, sans-serif" font-size="12" text-anchor="middle">3-6 uker</text><rect width="130" height="15" x="185" y="360" fill="#fff" opacity=".9" rx="3"/><text x="250" y="370" fill="#059669" font-family="Arial, sans-serif" font-size="9" text-anchor="middle">Systemarkitektur</text><rect width="130" height="15" x="185" y="380" fill="#fff" opacity=".9" rx="3"/><text x="250" y="390" fill="#059669" font-family="Arial, sans-serif" font-size="9" text-anchor="middle">Datamodellering</text><rect width="130" height="15" x="185" y="400" fill="#fff" opacity=".9" rx="3"/><text x="250" y="410" fill="#059669" font-family="Arial, sans-serif" font-size="9" text-anchor="middle">Brukergrensesnitt</text><rect width="130" height="15" x="185" y="420" fill="#fff" opacity=".9" rx="3"/><text x="250" y="430" fill="#059669" font-family="Arial, sans-serif" font-size="9" text-anchor="middle">Integrasjonsplan</text><circle cx="400" cy="100" r="25" fill="url(#c)"/><text x="400" y="108" fill="#fff" font-family="Arial, sans-serif" font-size="16" font-weight="bold" text-anchor="middle">3</text><rect width="150" height="140" x="325" y="140" fill="url(#c)" opacity=".9" rx="10"/><text x="400" y="165" fill="#fff" font-family="Arial, sans-serif" font-size="14" font-weight="bold" text-anchor="middle">IMPLEMENTERING</text><text x="400" y="185" fill="#fff" font-family="Arial, sans-serif" font-size="12" text-anchor="middle">6-12 uker</text><rect width="130" height="15" x="335" y="200" fill="#fff" opacity=".9" rx="3"/><text x="400" y="210" fill="#d97706" font-family="Arial, sans-serif" font-size="9" text-anchor="middle">Systemkonfigurasjon</text><rect width="130" height="15" x="335" y="220" fill="#fff" opacity=".9" rx="3"/><text x="400" y="230" fill="#d97706" font-family="Arial, sans-serif" font-size="9" text-anchor="middle">Datamigrering</text><rect width="130" height="15" x="335" y="240" fill="#fff" opacity=".9" rx="3"/><text x="400" y="250" fill="#d97706" font-family="Arial, sans-serif" font-size="9" text-anchor="middle">Testing</text><rect width="130" height="15" x="335" y="260" fill="#fff" opacity=".9" rx="3"/><text x="400" y="270" fill="#d97706" font-family="Arial, sans-serif" font-size="9" text-anchor="middle">Brukeropplæring</text><circle cx="550" cy="100" r="25" fill="url(#d)"/><text x="550" y="108" fill="#fff" font-family="Arial, sans-serif" font-size="16" font-weight="bold" text-anchor="middle">4</text><rect width="150" height="140" x="475" y="300" fill="url(#d)" opacity=".9" rx="10"/><text x="550" y="325" fill="#fff" font-family="Arial, sans-serif" font-size="14" font-weight="bold" text-anchor="middle">UTRULLING</text><text x="550" y="345" fill="#fff" font-family="Arial, sans-serif" font-size="12" text-anchor="middle">2-4 uker</text><rect width="130" height="15" x="485" y="360" fill="#fff" opacity=".9" rx="3"/><text x="550" y="370" fill="#7c3aed" font-family="Arial, sans-serif" font-size="9" text-anchor="middle">Produksjonssetting</text><rect width="130" height="15" x="485" y="380" fill="#fff" opacity=".9" rx="3"/><text x="550" y="390" fill="#7c3aed" font-family="Arial, sans-serif" font-size="9" text-anchor="middle">Overvåking</text><rect width="130" height="15" x="485" y="400" fill="#fff" opacity=".9" rx="3"/><text x="550" y="410" fill="#7c3aed" font-family="Arial, sans-serif" font-size="9" text-anchor="middle">Brukerstøtte</text><rect width="130" height="15" x="485" y="420" fill="#fff" opacity=".9" rx="3"/><text x="550" y="430" fill="#7c3aed" font-family="Arial, sans-serif" font-size="9" text-anchor="middle">Justeringer</text><circle cx="650" cy="100" r="25" fill="url(#e)"/><text x="650" y="108" fill="#fff" font-family="Arial, sans-serif" font-size="16" font-weight="bold" text-anchor="middle">5</text><rect width="150" height="140" x="575" y="140" fill="url(#e)" opacity=".9" rx="10"/><text x="650" y="165" fill="#fff" font-family="Arial, sans-serif" font-size="14" font-weight="bold" text-anchor="middle">OPTIMALISERING</text><text x="650" y="185" fill="#fff" font-family="Arial, sans-serif" font-size="12" text-anchor="middle">Kontinuerlig</text><rect width="130" height="15" x="585" y="200" fill="#fff" opacity=".9" rx="3"/><text x="650" y="210" fill="#dc2626" font-family="Arial, sans-serif" font-size="9" text-anchor="middle">Ytelsesanalyse</text><rect width="130" height="15" x="585" y="220" fill="#fff" opacity=".9" rx="3"/><text x="650" y="230" fill="#dc2626" font-family="Arial, sans-serif" font-size="9" text-anchor="middle">Prosessforbedring</text><rect width="130" height="15" x="585" y="240" fill="#fff" opacity=".9" rx="3"/><text x="650" y="250" fill="#dc2626" font-family="Arial, sans-serif" font-size="9" text-anchor="middle">Funksjonsutvidelser</text><rect width="130" height="15" x="585" y="260" fill="#fff" opacity=".9" rx="3"/><text x="650" y="270" fill="#dc2626" font-family="Arial, sans-serif" font-size="9" text-anchor="middle">ROI-evaluering</text><path fill="none" stroke="#374151" stroke-width="3" marker-end="url(#f)" d="M175 100h50"/><path fill="none" stroke="#374151" stroke-width="3" marker-end="url(#f)" d="M275 100h100"/><path fill="none" stroke="#374151" stroke-width="3" marker-end="url(#f)" d="M425 100h100"/><path fill="none" stroke="#374151" stroke-width="3" marker-end="url(#f)" d="M575 100h50"/><defs><marker id="f" markerHeight="7" markerWidth="10" orient="auto" refX="9" refY="3.5"><path fill="#374151" d="m0 0 10 3.5L0 7z"/></marker></defs><text x="400" y="480" fill="#1f2937" font-family="Arial, sans-serif" font-size="18" font-weight="bold" text-anchor="middle">Kritiske Suksessfaktorer</text><rect width="140" height="60" x="50" y="500" fill="#dcfce7" stroke="#16a34a" stroke-width="2" rx="8"/><text x="120" y="520" fill="#166534" font-family="Arial, sans-serif" font-size="12" font-weight="bold" text-anchor="middle">Ledelsesforankring</text><text x="120" y="535" fill="#15803d" font-family="Arial, sans-serif" font-size="10" text-anchor="middle">Tydelig støtte fra</text><text x="120" y="550" fill="#15803d" font-family="Arial, sans-serif" font-size="10" text-anchor="middle">toppledelsen</text><rect width="140" height="60" x="210" y="500" fill="#fef3c7" stroke="#f59e0b" stroke-width="2" rx="8"/><text x="280" y="520" fill="#92400e" font-family="Arial, sans-serif" font-size="12" font-weight="bold" text-anchor="middle">Brukermedvirkning</text><text x="280" y="535" fill="#b45309" font-family="Arial, sans-serif" font-size="10" text-anchor="middle">Involver slutt-</text><text x="280" y="550" fill="#b45309" font-family="Arial, sans-serif" font-size="10" text-anchor="middle">brukerne tidlig</text><rect width="140" height="60" x="370" y="500" fill="#dbeafe" stroke="#3b82f6" stroke-width="2" rx="8"/><text x="440" y="520" fill="#1e40af" font-family="Arial, sans-serif" font-size="12" font-weight="bold" text-anchor="middle">Kompetanseutvikling</text><text x="440" y="535" fill="#1d4ed8" font-family="Arial, sans-serif" font-size="10" text-anchor="middle">Systematisk opplæring</text><text x="440" y="550" fill="#1d4ed8" font-family="Arial, sans-serif" font-size="10" text-anchor="middle">og støtte</text><rect width="140" height="60" x="530" y="500" fill="#f3e8ff" stroke="#8b5cf6" stroke-width="2" rx="8"/><text x="600" y="520" fill="#6b21a8" font-family="Arial, sans-serif" font-size="12" font-weight="bold" text-anchor="middle">Datakvalitet</text><text x="600" y="535" fill="#7c3aed" font-family="Arial, sans-serif" font-size="10" text-anchor="middle">Ren og konsistent</text><text x="600" y="550" fill="#7c3aed" font-family="Arial, sans-serif" font-size="10" text-anchor="middle">datakilde</text><circle cx="30" cy="530" r="8" fill="#ef4444"/><text x="30" y="535" fill="#fff" font-family="Arial, sans-serif" font-size="12" font-weight="bold" text-anchor="middle">!</text><text x="400" y="580" fill="#374151" font-family="Arial, sans-serif" font-size="14" font-weight="bold" text-anchor="middle">Total prosjekttid: 13-26 uker (avhengig av kompleksitet)</text></svg>