<svg xmlns="http://www.w3.org/2000/svg" width="800" height="600"><defs><linearGradient id="a" x1="0%" x2="100%" y1="0%" y2="100%"><stop offset="0%" style="stop-color:#1f2937;stop-opacity:1"/><stop offset="100%" style="stop-color:#374151;stop-opacity:1"/></linearGradient><linearGradient id="b" x1="0%" x2="100%" y1="0%" y2="100%"><stop offset="0%" style="stop-color:#10b981;stop-opacity:1"/><stop offset="100%" style="stop-color:#059669;stop-opacity:1"/></linearGradient><linearGradient id="e" x1="0%" x2="100%" y1="0%" y2="100%"><stop offset="0%" style="stop-color:#ef4444;stop-opacity:1"/><stop offset="100%" style="stop-color:#dc2626;stop-opacity:1"/></linearGradient><linearGradient id="c" x1="0%" x2="100%" y1="0%" y2="100%"><stop offset="0%" style="stop-color:#3b82f6;stop-opacity:1"/><stop offset="100%" style="stop-color:#1d4ed8;stop-opacity:1"/></linearGradient><linearGradient id="d" x1="0%" x2="100%" y1="0%" y2="100%"><stop offset="0%" style="stop-color:#f59e0b;stop-opacity:1"/><stop offset="100%" style="stop-color:#d97706;stop-opacity:1"/></linearGradient></defs><path fill="url(#a)" d="M0 0h800v600H0z"/><path fill="#111827" d="M0 0h800v60H0z"/><text x="30" y="35" fill="#fff" font-family="Arial, sans-serif" font-size="20" font-weight="bold">Økonomisk Styrings-Dashboard</text><text x="600" y="25" fill="#9ca3af" font-family="Arial, sans-serif" font-size="12">Sist oppdatert:</text><text x="600" y="40" fill="#fff" font-family="Arial, sans-serif" font-size="12">13.07.2025 14:32</text><text x="700" y="35" fill="#10b981" font-family="Arial, sans-serif" font-size="14" font-weight="bold">● LIVE</text><rect width="180" height="120" x="30" y="80" fill="url(#b)" opacity=".9" rx="8"/><text x="120" y="105" fill="#fff" font-family="Arial, sans-serif" font-size="14" font-weight="bold" text-anchor="middle">OMSETNING</text><text x="120" y="130" fill="#fff" font-family="Arial, sans-serif" font-size="24" font-weight="bold" text-anchor="middle">15.2M</text><text x="120" y="150" fill="#fff" font-family="Arial, sans-serif" font-size="12" text-anchor="middle">NOK (YTD)</text><text x="50" y="175" fill="#fff" font-family="Arial, sans-serif" font-size="11">↗ +12.5% vs budget</text><text x="50" y="190" fill="#d1fae5" font-family="Arial, sans-serif" font-size="10">Target: 13.5M</text><rect width="180" height="120" x="230" y="80" fill="url(#c)" opacity=".9" rx="8"/><text x="320" y="105" fill="#fff" font-family="Arial, sans-serif" font-size="14" font-weight="bold" text-anchor="middle">BRUTTOMARGIN</text><text x="320" y="130" fill="#fff" font-family="Arial, sans-serif" font-size="24" font-weight="bold" text-anchor="middle">23.8%</text><text x="320" y="150" fill="#fff" font-family="Arial, sans-serif" font-size="12" text-anchor="middle">Siste 12 mnd</text><text x="250" y="175" fill="#fff" font-family="Arial, sans-serif" font-size="11">↗ +1.2pp vs i fjor</text><text x="250" y="190" fill="#dbeafe" font-family="Arial, sans-serif" font-size="10">Target: 22.0%</text><rect width="180" height="120" x="430" y="80" fill="url(#d)" opacity=".9" rx="8"/><text x="520" y="105" fill="#fff" font-family="Arial, sans-serif" font-size="14" font-weight="bold" text-anchor="middle">KONTANTSTRØM</text><text x="520" y="130" fill="#fff" font-family="Arial, sans-serif" font-size="24" font-weight="bold" text-anchor="middle">2.1M</text><text x="520" y="150" fill="#fff" font-family="Arial, sans-serif" font-size="12" text-anchor="middle">NOK (Q2)</text><text x="450" y="175" fill="#fff" font-family="Arial, sans-serif" font-size="11">↘ -8.3% vs Q1</text><text x="450" y="190" fill="#fed7aa" font-family="Arial, sans-serif" font-size="10">Target: 2.5M</text><rect width="140" height="120" x="630" y="80" fill="url(#e)" opacity=".9" rx="8"/><text x="700" y="105" fill="#fff" font-family="Arial, sans-serif" font-size="14" font-weight="bold" text-anchor="middle">ARBEIDS-</text><text x="700" y="120" fill="#fff" font-family="Arial, sans-serif" font-size="14" font-weight="bold" text-anchor="middle">KAPITAL</text><text x="700" y="145" fill="#fff" font-family="Arial, sans-serif" font-size="20" font-weight="bold" text-anchor="middle">-1.2M</text><text x="700" y="165" fill="#fff" font-family="Arial, sans-serif" font-size="12" text-anchor="middle">NOK</text><text x="650" y="185" fill="#fff" font-family="Arial, sans-serif" font-size="11">⚠ Kritisk nivå</text><text x="30" y="240" fill="#fff" font-family="Arial, sans-serif" font-size="16" font-weight="bold">Trendanalyse</text><rect width="360" height="180" x="30" y="260" fill="#fff" opacity=".95" rx="8"/><text x="210" y="280" fill="#1f2937" font-family="Arial, sans-serif" font-size="14" font-weight="bold" text-anchor="middle">Månedlig Omsetning (NOK Mill.)</text><g stroke="#e5e7eb"><path d="M60 300h300M60 320h300M60 340h300M60 360h300M60 380h300M60 400h300M60 420h300"/></g><path fill="none" stroke="#10b981" stroke-width="3" d="m80 380 30-5 30-5 30-5 30-15 30-5 30-5 30-5 30-5 30-5"/><path fill="none" stroke="#6b7280" stroke-dasharray="5,5" stroke-width="2" d="m80 385 30-3 30-3 30-3 30-3 30-3 30-3 30-3 30-3 30-3"/><text x="80" y="435" fill="#6b7280" font-family="Arial, sans-serif" font-size="10" text-anchor="middle">Jan</text><text x="140" y="435" fill="#6b7280" font-family="Arial, sans-serif" font-size="10" text-anchor="middle">Mar</text><text x="200" y="435" fill="#6b7280" font-family="Arial, sans-serif" font-size="10" text-anchor="middle">Mai</text><text x="260" y="435" fill="#6b7280" font-family="Arial, sans-serif" font-size="10" text-anchor="middle">Jul</text><text x="320" y="435" fill="#6b7280" font-family="Arial, sans-serif" font-size="10" text-anchor="middle">Sep</text><text x="45" y="405" fill="#6b7280" font-family="Arial, sans-serif" font-size="10" text-anchor="end">0</text><text x="45" y="365" fill="#6b7280" font-family="Arial, sans-serif" font-size="10" text-anchor="end">1</text><text x="45" y="325" fill="#6b7280" font-family="Arial, sans-serif" font-size="10" text-anchor="end">2</text><path fill="#10b981" d="M280 290h12v3h-12z"/><text x="297" y="295" fill="#1f2937" font-family="Arial, sans-serif" font-size="10">Faktisk</text><path stroke="#6b7280" stroke-dasharray="3,3" stroke-width="2" d="M340 292h12"/><text x="357" y="295" fill="#1f2937" font-family="Arial, sans-serif" font-size="10">Budsjett</text><rect width="360" height="180" x="410" y="260" fill="#fff" opacity=".95" rx="8"/><text x="590" y="280" fill="#1f2937" font-family="Arial, sans-serif" font-size="14" font-weight="bold" text-anchor="middle">Avdelingsresultater (% av budsjett)</text><path fill="#10b981" d="M440 300h80v15h-80z"/><text x="435" y="312" fill="#1f2937" font-family="Arial, sans-serif" font-size="11" text-anchor="end">Salg</text><text x="525" y="312" fill="#1f2937" font-family="Arial, sans-serif" font-size="11">112%</text><path fill="#3b82f6" d="M440 325h75v15h-75z"/><text x="435" y="337" fill="#1f2937" font-family="Arial, sans-serif" font-size="11" text-anchor="end">Produksjon</text><text x="520" y="337" fill="#1f2937" font-family="Arial, sans-serif" font-size="11">105%</text><path fill="#f59e0b" d="M440 350h60v15h-60z"/><text x="435" y="362" fill="#1f2937" font-family="Arial, sans-serif" font-size="11" text-anchor="end">Admin</text><text x="505" y="362" fill="#1f2937" font-family="Arial, sans-serif" font-size="11">98%</text><path fill="#ef4444" d="M440 375h45v15h-45z"/><text x="435" y="387" fill="#1f2937" font-family="Arial, sans-serif" font-size="11" text-anchor="end">IT</text><text x="490" y="387" fill="#1f2937" font-family="Arial, sans-serif" font-size="11">87%</text><path fill="#8b5cf6" d="M440 400h70v15h-70z"/><text x="435" y="412" fill="#1f2937" font-family="Arial, sans-serif" font-size="11" text-anchor="end">Marked</text><text x="515" y="412" fill="#1f2937" font-family="Arial, sans-serif" font-size="11">103%</text><text x="30" y="480" fill="#fff" font-family="Arial, sans-serif" font-size="16" font-weight="bold">Nøkkelindikatorer</text><rect width="110" height="60" x="30" y="500" fill="#374151" rx="6"/><text x="85" y="520" fill="#9ca3af" font-family="Arial, sans-serif" font-size="11" text-anchor="middle">Debitor dager</text><text x="85" y="540" fill="#fff" font-family="Arial, sans-serif" font-size="18" font-weight="bold" text-anchor="middle">28</text><text x="85" y="555" fill="#10b981" font-family="Arial, sans-serif" font-size="10" text-anchor="middle">↓ -3 vs mål</text><rect width="110" height="60" x="150" y="500" fill="#374151" rx="6"/><text x="205" y="520" fill="#9ca3af" font-family="Arial, sans-serif" font-size="11" text-anchor="middle">Lager omløp</text><text x="205" y="540" fill="#fff" font-family="Arial, sans-serif" font-size="18" font-weight="bold" text-anchor="middle">8.2x</text><text x="205" y="555" fill="#10b981" font-family="Arial, sans-serif" font-size="10" text-anchor="middle">↑ +0.8 vs i fjor</text><rect width="110" height="60" x="270" y="500" fill="#374151" rx="6"/><text x="325" y="520" fill="#9ca3af" font-family="Arial, sans-serif" font-size="11" text-anchor="middle">ROI</text><text x="325" y="540" fill="#fff" font-family="Arial, sans-serif" font-size="18" font-weight="bold" text-anchor="middle">14.8%</text><text x="325" y="555" fill="#f59e0b" font-family="Arial, sans-serif" font-size="10" text-anchor="middle">↔ På mål</text><rect width="110" height="60" x="390" y="500" fill="#374151" rx="6"/><text x="445" y="520" fill="#9ca3af" font-family="Arial, sans-serif" font-size="11" text-anchor="middle">Ansatt prod.</text><text x="445" y="540" fill="#fff" font-family="Arial, sans-serif" font-size="18" font-weight="bold" text-anchor="middle">2.1M</text><text x="445" y="555" fill="#10b981" font-family="Arial, sans-serif" font-size="10" text-anchor="middle">↑ +15% vs i fjor</text><rect width="110" height="60" x="510" y="500" fill="#374151" rx="6"/><text x="565" y="520" fill="#9ca3af" font-family="Arial, sans-serif" font-size="11" text-anchor="middle">Egenkapital %</text><text x="565" y="540" fill="#fff" font-family="Arial, sans-serif" font-size="18" font-weight="bold" text-anchor="middle">42.5%</text><text x="565" y="555" fill="#10b981" font-family="Arial, sans-serif" font-size="10" text-anchor="middle">↑ Sterk posisjon</text><rect width="140" height="60" x="630" y="500" fill="#374151" rx="6"/><text x="700" y="520" fill="#9ca3af" font-family="Arial, sans-serif" font-size="11" text-anchor="middle">Kvalitetsscore</text><text x="700" y="540" fill="#fff" font-family="Arial, sans-serif" font-size="18" font-weight="bold" text-anchor="middle">94.2%</text><text x="700" y="555" fill="#ef4444" font-family="Arial, sans-serif" font-size="10" text-anchor="middle">↓ -1.8% vs mål</text><circle cx="750" cy="85" r="6" fill="#10b981"/><circle cx="750" cy="105" r="6" fill="#f59e0b"/><circle cx="750" cy="125" r="6" fill="#ef4444"/><text x="760" y="90" fill="#fff" font-family="Arial, sans-serif" font-size="10">På mål</text><text x="760" y="110" fill="#fff" font-family="Arial, sans-serif" font-size="10">Advarsel</text><text x="760" y="130" fill="#fff" font-family="Arial, sans-serif" font-size="10">Kritisk</text></svg>