<svg xmlns="http://www.w3.org/2000/svg" width="800" height="500"><defs><linearGradient id="a" x1="0%" x2="100%" y1="0%" y2="100%"><stop offset="0%" style="stop-color:#3b82f6;stop-opacity:1"/><stop offset="100%" style="stop-color:#1d4ed8;stop-opacity:1"/></linearGradient><linearGradient id="b" x1="0%" x2="100%" y1="0%" y2="100%"><stop offset="0%" style="stop-color:#10b981;stop-opacity:1"/><stop offset="100%" style="stop-color:#059669;stop-opacity:1"/></linearGradient><linearGradient id="c" x1="0%" x2="100%" y1="0%" y2="100%"><stop offset="0%" style="stop-color:#8b5cf6;stop-opacity:1"/><stop offset="100%" style="stop-color:#7c3aed;stop-opacity:1"/></linearGradient></defs><path fill="#f9fafb" d="M0 0h800v500H0z"/><text x="400" y="30" fill="#1f2937" font-family="Arial, sans-serif" font-size="24" font-weight="bold" text-anchor="middle">Styringsverktøy Oversikt</text><text x="400" y="50" fill="#6b7280" font-family="Arial, sans-serif" font-size="14" text-anchor="middle">Kategorier og anvendelsesområder</text><rect width="700" height="80" x="50" y="80" fill="url(#a)" stroke="#3b82f6" stroke-width="2" opacity=".1" rx="10"/><text x="70" y="105" fill="#1e40af" font-family="Arial, sans-serif" font-size="16" font-weight="bold">STRATEGISK NIVÅ</text><text x="70" y="125" fill="#1f2937" font-family="Arial, sans-serif" font-size="12">Langsiktig planlegging og retning (1-5 år)</text><rect width="150" height="20" x="100" y="135" fill="#3b82f6" opacity=".8" rx="10"/><text x="175" y="148" fill="#fff" font-family="Arial, sans-serif" font-size="10" font-weight="bold" text-anchor="middle">Balanced Scorecard</text><rect width="120" height="20" x="270" y="135" fill="#3b82f6" opacity=".8" rx="10"/><text x="330" y="148" fill="#fff" font-family="Arial, sans-serif" font-size="10" font-weight="bold" text-anchor="middle">Benchmarking</text><rect width="140" height="20" x="410" y="135" fill="#3b82f6" opacity=".8" rx="10"/><text x="480" y="148" fill="#fff" font-family="Arial, sans-serif" font-size="10" font-weight="bold" text-anchor="middle">Strategisk analyse</text><rect width="130" height="20" x="570" y="135" fill="#3b82f6" opacity=".8" rx="10"/><text x="635" y="148" fill="#fff" font-family="Arial, sans-serif" font-size="10" font-weight="bold" text-anchor="middle">Investeringsanalyse</text><rect width="700" height="80" x="50" y="180" fill="url(#b)" stroke="#10b981" stroke-width="2" opacity=".1" rx="10"/><text x="70" y="205" fill="#047857" font-family="Arial, sans-serif" font-size="16" font-weight="bold">TAKTISK NIVÅ</text><text x="70" y="225" fill="#1f2937" font-family="Arial, sans-serif" font-size="12">Mellomlang sikt operasjonelle beslutninger (3-12 måneder)</text><rect width="120" height="20" x="100" y="235" fill="#10b981" opacity=".8" rx="10"/><text x="160" y="248" fill="#fff" font-family="Arial, sans-serif" font-size="10" font-weight="bold" text-anchor="middle">Budsjettering</text><rect width="110" height="20" x="240" y="235" fill="#10b981" opacity=".8" rx="10"/><text x="295" y="248" fill="#fff" font-family="Arial, sans-serif" font-size="10" font-weight="bold" text-anchor="middle">Prognosering</text><rect width="120" height="20" x="370" y="235" fill="#10b981" opacity=".8" rx="10"/><text x="430" y="248" fill="#fff" font-family="Arial, sans-serif" font-size="10" font-weight="bold" text-anchor="middle">Kostnadsanalyse</text><rect width="130" height="20" x="510" y="235" fill="#10b981" opacity=".8" rx="10"/><text x="575" y="248" fill="#fff" font-family="Arial, sans-serif" font-size="10" font-weight="bold" text-anchor="middle">Prosjektstyring</text><rect width="700" height="80" x="50" y="280" fill="url(#c)" stroke="#8b5cf6" stroke-width="2" opacity=".1" rx="10"/><text x="70" y="305" fill="#7c2d12" font-family="Arial, sans-serif" font-size="16" font-weight="bold">OPERATIVT NIVÅ</text><text x="70" y="325" fill="#1f2937" font-family="Arial, sans-serif" font-size="12">Daglig styring og kontroll (daglig til månedlig)</text><rect width="110" height="20" x="100" y="335" fill="#8b5cf6" opacity=".8" rx="10"/><text x="155" y="348" fill="#fff" font-family="Arial, sans-serif" font-size="10" font-weight="bold" text-anchor="middle">Avviksanalyse</text><rect width="100" height="20" x="230" y="335" fill="#8b5cf6" opacity=".8" rx="10"/><text x="280" y="348" fill="#fff" font-family="Arial, sans-serif" font-size="10" font-weight="bold" text-anchor="middle">KPI-måling</text><rect width="120" height="20" x="350" y="335" fill="#8b5cf6" opacity=".8" rx="10"/><text x="410" y="348" fill="#fff" font-family="Arial, sans-serif" font-size="10" font-weight="bold" text-anchor="middle">Daglig rapportering</text><rect width="130" height="20" x="490" y="335" fill="#8b5cf6" opacity=".8" rx="10"/><text x="555" y="348" fill="#fff" font-family="Arial, sans-serif" font-size="10" font-weight="bold" text-anchor="middle">Kvalitetskontroll</text><rect width="100" height="20" x="640" y="335" fill="#8b5cf6" opacity=".8" rx="10"/><text x="690" y="348" fill="#fff" font-family="Arial, sans-serif" font-size="10" font-weight="bold" text-anchor="middle">Lagerstyring</text><rect width="700" height="80" x="50" y="380" fill="#f3f4f6" stroke="#9ca3af" stroke-width="2" rx="10"/><text x="70" y="405" fill="#374151" font-family="Arial, sans-serif" font-size="16" font-weight="bold">STØTTENDE TEKNOLOGI</text><text x="70" y="425" fill="#6b7280" font-family="Arial, sans-serif" font-size="12">Digitale verktøy og systemer</text><rect width="100" height="20" x="100" y="435" fill="#6b7280" opacity=".8" rx="10"/><text x="150" y="448" fill="#fff" font-family="Arial, sans-serif" font-size="10" font-weight="bold" text-anchor="middle">ERP-systemer</text><rect width="120" height="20" x="220" y="435" fill="#6b7280" opacity=".8" rx="10"/><text x="280" y="448" fill="#fff" font-family="Arial, sans-serif" font-size="10" font-weight="bold" text-anchor="middle">BI-dashboards</text><rect width="130" height="20" x="360" y="435" fill="#6b7280" opacity=".8" rx="10"/><text x="425" y="448" fill="#fff" font-family="Arial, sans-serif" font-size="10" font-weight="bold" text-anchor="middle">Prediktiv analyse</text><rect width="110" height="20" x="510" y="435" fill="#6b7280" opacity=".8" rx="10"/><text x="565" y="448" fill="#fff" font-family="Arial, sans-serif" font-size="10" font-weight="bold" text-anchor="middle">Cloud-løsninger</text><rect width="100" height="20" x="640" y="435" fill="#6b7280" opacity=".8" rx="10"/><text x="690" y="448" fill="#fff" font-family="Arial, sans-serif" font-size="10" font-weight="bold" text-anchor="middle">AI/ML-verktøy</text><path fill="none" stroke="#1f2937" stroke-width="3" marker-end="url(#d)" d="M30 120v240"/><defs><marker id="d" markerHeight="7" markerWidth="10" orient="auto" refX="9" refY="3.5"><path fill="#1f2937" d="m0 0 10 3.5L0 7z"/></marker></defs><text x="30" y="115" fill="#1f2937" font-family="Arial, sans-serif" font-size="10" font-weight="bold" text-anchor="middle">Lang</text><text x="30" y="195" fill="#1f2937" font-family="Arial, sans-serif" font-size="10" font-weight="bold" text-anchor="middle">Middels</text><text x="30" y="295" fill="#1f2937" font-family="Arial, sans-serif" font-size="10" font-weight="bold" text-anchor="middle">Kort</text><text x="30" y="375" fill="#1f2937" font-family="Arial, sans-serif" font-size="10" font-weight="bold" text-anchor="middle">sikt</text><text x="400" y="485" fill="#374151" font-family="Arial, sans-serif" font-size="12" font-weight="bold" text-anchor="middle">Integrerte verktøy gir helhetlig virksomhetsstyring</text></svg>