<svg xmlns="http://www.w3.org/2000/svg" width="400" height="300"><defs><linearGradient id="a" x1="0%" x2="100%" y1="0%" y2="100%"><stop offset="0%" style="stop-color:#f8fafc;stop-opacity:1"/><stop offset="100%" style="stop-color:#e2e8f0;stop-opacity:1"/></linearGradient><linearGradient id="b" x1="0%" x2="100%" y1="0%" y2="0%"><stop offset="0%" style="stop-color:#3b82f6;stop-opacity:1"/><stop offset="100%" style="stop-color:#1d4ed8;stop-opacity:1"/></linearGradient></defs><path fill="url(#a)" stroke="#cbd5e1" stroke-width="2" d="M0 0h400v300H0z"/><path fill="url(#b)" d="M0 0h400v50H0z"/><text x="200" y="30" fill="#fff" font-family="Arial, sans-serif" font-size="18" font-weight="bold" text-anchor="middle">Personalkostnad</text><circle cx="120" cy="150" r="60" fill="#dbeafe" stroke="#3b82f6" stroke-width="3"/><text x="120" y="145" fill="#1e40af" font-family="Arial, sans-serif" font-size="12" font-weight="bold" text-anchor="middle">TOTAL</text><text x="120" y="160" fill="#1e40af" font-family="Arial, sans-serif" font-size="12" font-weight="bold" text-anchor="middle">KOSTNAD</text><rect width="150" height="20" x="220" y="70" fill="#fef3c7" stroke="#f59e0b" rx="3"/><text x="225" y="84" fill="#92400e" font-family="Arial, sans-serif" font-size="11">Grunnlønn</text><rect width="130" height="20" x="220" y="95" fill="#d1fae5" stroke="#10b981" rx="3"/><text x="225" y="109" fill="#065f46" font-family="Arial, sans-serif" font-size="11">Feriepenger</text><rect width="140" height="20" x="220" y="120" fill="#fde2e8" stroke="#ef4444" rx="3"/><text x="225" y="134" fill="#991b1b" font-family="Arial, sans-serif" font-size="11">Arbeidsgiveravgift</text><rect width="120" height="20" x="220" y="145" fill="#e0e7ff" stroke="#6366f1" rx="3"/><text x="225" y="159" fill="#3730a3" font-family="Arial, sans-serif" font-size="11">Pensjon</text><rect width="110" height="20" x="220" y="170" fill="#f3e8ff" stroke="#8b5cf6" rx="3"/><text x="225" y="184" fill="#581c87" font-family="Arial, sans-serif" font-size="11">Forsikring</text><rect width="100" height="20" x="220" y="195" fill="#fed7e2" stroke="#ec4899" rx="3"/><text x="225" y="209" fill="#9d174d" font-family="Arial, sans-serif" font-size="11">Andre ytelser</text><path fill="none" stroke="#64748b" stroke-width="2" marker-end="url(#c)" d="M190 80q-30 30-40 60"/><path fill="none" stroke="#64748b" stroke-width="2" d="M190 105q-30 15-40 35M190 130l-40 10M190 155q-20 0-40-5M190 180q-20-5-40-20M190 205q-30-20-40-35"/><defs><marker id="c" markerHeight="7" markerWidth="10" orient="auto" refX="9" refY="3.5"><path fill="#64748b" d="m0 0 10 3.5L0 7z"/></marker></defs><rect width="360" height="40" x="20" y="240" fill="#f1f5f9" stroke="#cbd5e1" rx="5"/><text x="200" y="255" fill="#475569" font-family="Arial, sans-serif" font-size="10" font-weight="bold" text-anchor="middle">Personalkostnad = Lønn + Sosiale kostnader + Ytelser</text><text x="200" y="270" fill="#64748b" font-family="Arial, sans-serif" font-size="9" text-anchor="middle">Ofte 30-50% høyere enn grunnlønn</text></svg>