<svg xmlns="http://www.w3.org/2000/svg" width="500" height="400"><defs><linearGradient id="a" x1="0%" x2="100%" y1="0%" y2="100%"><stop offset="0%" style="stop-color:#f8fafc;stop-opacity:1"/><stop offset="100%" style="stop-color:#e2e8f0;stop-opacity:1"/></linearGradient></defs><path fill="url(#a)" stroke="#cbd5e1" stroke-width="2" d="M0 0h500v400H0z"/><text x="250" y="25" fill="#1e293b" font-family="Arial, sans-serif" font-size="16" font-weight="bold" text-anchor="middle">Personalkostnad - Komponenter</text><circle cx="250" cy="200" r="45" fill="#3b82f6" stroke="#1d4ed8" stroke-width="3"/><text x="250" y="195" fill="#fff" font-family="Arial, sans-serif" font-size="11" font-weight="bold" text-anchor="middle">PERSONAL-</text><text x="250" y="210" fill="#fff" font-family="Arial, sans-serif" font-size="11" font-weight="bold" text-anchor="middle">KOSTNAD</text><rect width="100" height="50" x="50" y="60" fill="#fef3c7" stroke="#f59e0b" stroke-width="2" rx="5"/><text x="100" y="80" fill="#92400e" font-family="Arial, sans-serif" font-size="11" font-weight="bold" text-anchor="middle">Grunnlønn</text><text x="100" y="95" fill="#92400e" font-family="Arial, sans-serif" font-size="9" text-anchor="middle">Fast månedslønn</text><text x="100" y="105" fill="#92400e" font-family="Arial, sans-serif" font-size="9" text-anchor="middle">Timelønn, overtid</text><rect width="100" height="50" x="350" y="60" fill="#d1fae5" stroke="#10b981" stroke-width="2" rx="5"/><text x="400" y="80" fill="#065f46" font-family="Arial, sans-serif" font-size="11" font-weight="bold" text-anchor="middle">Feriepenger</text><text x="400" y="95" fill="#065f46" font-family="Arial, sans-serif" font-size="9" text-anchor="middle">12% av grunnlag</text><text x="400" y="105" fill="#065f46" font-family="Arial, sans-serif" font-size="9" text-anchor="middle">Periodisering</text><rect width="100" height="50" x="50" y="320" fill="#fde2e8" stroke="#ef4444" stroke-width="2" rx="5"/><text x="100" y="340" fill="#991b1b" font-family="Arial, sans-serif" font-size="11" font-weight="bold" text-anchor="middle">Arbeidsgiver-</text><text x="100" y="350" fill="#991b1b" font-family="Arial, sans-serif" font-size="11" font-weight="bold" text-anchor="middle">avgift</text><text x="100" y="365" fill="#991b1b" font-family="Arial, sans-serif" font-size="9" text-anchor="middle">0-14,1% av lønn</text><rect width="100" height="50" x="350" y="320" fill="#e0e7ff" stroke="#6366f1" stroke-width="2" rx="5"/><text x="400" y="340" fill="#3730a3" font-family="Arial, sans-serif" font-size="11" font-weight="bold" text-anchor="middle">Pensjon</text><text x="400" y="355" fill="#3730a3" font-family="Arial, sans-serif" font-size="9" text-anchor="middle">Innskudd/ytelse</text><text x="400" y="365" fill="#3730a3" font-family="Arial, sans-serif" font-size="9" text-anchor="middle">2-7% av lønn</text><rect width="100" height="50" x="30" y="175" fill="#f3e8ff" stroke="#8b5cf6" stroke-width="2" rx="5"/><text x="80" y="195" fill="#581c87" font-family="Arial, sans-serif" font-size="11" font-weight="bold" text-anchor="middle">Forsikring</text><text x="80" y="210" fill="#581c87" font-family="Arial, sans-serif" font-size="9" text-anchor="middle">Yrkessskade</text><text x="80" y="220" fill="#581c87" font-family="Arial, sans-serif" font-size="9" text-anchor="middle">Gruppelivs</text><rect width="100" height="50" x="370" y="175" fill="#fed7e2" stroke="#ec4899" stroke-width="2" rx="5"/><text x="420" y="195" fill="#9d174d" font-family="Arial, sans-serif" font-size="11" font-weight="bold" text-anchor="middle">Andre ytelser</text><text x="420" y="210" fill="#9d174d" font-family="Arial, sans-serif" font-size="9" text-anchor="middle">Firmabil</text><text x="420" y="220" fill="#9d174d" font-family="Arial, sans-serif" font-size="9" text-anchor="middle">Telefon, kantine</text><path fill="none" stroke="#64748b" stroke-width="2" marker-end="url(#b)" d="M150 85q50 55 55 85"/><path fill="none" stroke="#64748b" stroke-width="2" d="M350 85q-50 55-55 85M150 345q50-65 55-115M350 345q-50-65-55-115M130 200h75M370 200h-75"/><defs><marker id="b" markerHeight="6" markerWidth="8" orient="auto" refX="7" refY="3"><path fill="#64748b" d="m0 0 8 3-8 3z"/></marker></defs><text x="250" y="385" fill="#475569" font-family="Arial, sans-serif" font-size="12" font-weight="bold" text-anchor="middle">Total personalkostnad: Typisk 130-150% av grunnlønn</text></svg>