<svg xmlns="http://www.w3.org/2000/svg" viewBox="0 0 800 600"><defs><linearGradient id="a" x1="0%" x2="100%" y1="0%" y2="0%"><stop offset="0%" style="stop-color:#2e8b57;stop-opacity:1"/><stop offset="100%" style="stop-color:#3cb371;stop-opacity:1"/></linearGradient><linearGradient id="b" x1="0%" x2="0%" y1="0%" y2="100%"><stop offset="0%" style="stop-color:#f8f9fa;stop-opacity:1"/><stop offset="100%" style="stop-color:#e9ecef;stop-opacity:1"/></linearGradient><filter id="c"><feDropShadow dx="2" dy="2" flood-color="#000" flood-opacity=".3" stdDeviation="3"/></filter></defs><path fill="#f5f5f5" d="M0 0h800v600H0z"/><path fill="url(#a)" d="M0 0h800v60H0z"/><text x="400" y="35" fill="#fff" font-family="Arial, sans-serif" font-size="22" font-weight="bold" text-anchor="middle">
    Personalkostnad Nøkkeltall Dashboard
  </text><text x="50" y="90" fill="#333" font-family="Arial, sans-serif" font-size="18" font-weight="bold">
    Produktivitetsmål
  </text><rect width="220" height="130" x="50" y="100" fill="url(#b)" filter="url(#c)" rx="8"/><text x="160" y="125" fill="#2e8b57" font-family="Arial, sans-serif" font-size="14" font-weight="bold" text-anchor="middle">
    Omsetning per ansatt
  </text><text x="160" y="155" fill="#1a472a" font-family="Arial, sans-serif" font-size="32" font-weight="bold" text-anchor="middle">
    2,4M
  </text><text x="160" y="175" fill="#666" font-family="Arial, sans-serif" font-size="12" text-anchor="middle">
    NOK årlig
  </text><path fill="#28a745" d="m140 185 10 10h30l-10-10z"/><text x="160" y="205" fill="#28a745" font-family="Arial, sans-serif" font-size="12" text-anchor="middle">
    ↑ 8% fra i fjor
  </text><text x="160" y="220" fill="#888" font-family="Arial, sans-serif" font-size="10" text-anchor="middle">
    Måler effektivitet
  </text><rect width="220" height="130" x="290" y="100" fill="url(#b)" filter="url(#c)" rx="8"/><text x="400" y="125" fill="#2e8b57" font-family="Arial, sans-serif" font-size="14" font-weight="bold" text-anchor="middle">
    Resultat per ansatt
  </text><text x="400" y="155" fill="#1a472a" font-family="Arial, sans-serif" font-size="32" font-weight="bold" text-anchor="middle">
    180K
  </text><text x="400" y="175" fill="#666" font-family="Arial, sans-serif" font-size="12" text-anchor="middle">
    NOK årlig
  </text><path fill="#28a745" d="m380 185 10 10h30l-10-10z"/><text x="400" y="205" fill="#28a745" font-family="Arial, sans-serif" font-size="12" text-anchor="middle">
    ↑ 12% fra i fjor
  </text><text x="400" y="220" fill="#888" font-family="Arial, sans-serif" font-size="10" text-anchor="middle">
    Profitabilitet per arbeider
  </text><rect width="220" height="130" x="530" y="100" fill="url(#b)" filter="url(#c)" rx="8"/><text x="640" y="125" fill="#2e8b57" font-family="Arial, sans-serif" font-size="14" font-weight="bold" text-anchor="middle">
    Personalkostnad andel
  </text><text x="640" y="155" fill="#1a472a" font-family="Arial, sans-serif" font-size="32" font-weight="bold" text-anchor="middle">
    62%
  </text><text x="640" y="175" fill="#666" font-family="Arial, sans-serif" font-size="12" text-anchor="middle">
    av omsetning
  </text><path fill="#dc3545" d="m625 185 10 10h20l-10-10z"/><text x="640" y="205" fill="#dc3545" font-family="Arial, sans-serif" font-size="12" text-anchor="middle">
    ↓ 3% fra i fjor
  </text><text x="640" y="220" fill="#888" font-family="Arial, sans-serif" font-size="10" text-anchor="middle">
    Kostnadseffektivitet
  </text><text x="50" y="270" fill="#333" font-family="Arial, sans-serif" font-size="18" font-weight="bold">
    Kvalitetsmål
  </text><rect width="220" height="130" x="50" y="280" fill="url(#b)" filter="url(#c)" rx="8"/><text x="160" y="305" fill="#2e8b57" font-family="Arial, sans-serif" font-size="14" font-weight="bold" text-anchor="middle">
    Turnover rate
  </text><text x="160" y="335" fill="#1a472a" font-family="Arial, sans-serif" font-size="32" font-weight="bold" text-anchor="middle">
    8,2%
  </text><text x="160" y="355" fill="#666" font-family="Arial, sans-serif" font-size="12" text-anchor="middle">
    årlig
  </text><path fill="#28a745" d="m140 365 10 10h30l-10-10z"/><text x="160" y="385" fill="#28a745" font-family="Arial, sans-serif" font-size="12" text-anchor="middle">
    ↓ 1,5% fra i fjor
  </text><text x="160" y="400" fill="#888" font-family="Arial, sans-serif" font-size="10" text-anchor="middle">
    Andel ansatte som slutter
  </text><rect width="220" height="130" x="290" y="280" fill="url(#b)" filter="url(#c)" rx="8"/><text x="400" y="305" fill="#2e8b57" font-family="Arial, sans-serif" font-size="14" font-weight="bold" text-anchor="middle">
    Sykefravær
  </text><text x="400" y="335" fill="#1a472a" font-family="Arial, sans-serif" font-size="32" font-weight="bold" text-anchor="middle">
    4,1%
  </text><text x="400" y="355" fill="#666" font-family="Arial, sans-serif" font-size="12" text-anchor="middle">
    av arbeidstid
  </text><path fill="#ffc107" d="m385 365 10 10h20l-10-10z"/><text x="400" y="385" fill="#856404" font-family="Arial, sans-serif" font-size="12" text-anchor="middle">
    ↑ 0,3% fra i fjor
  </text><text x="400" y="400" fill="#888" font-family="Arial, sans-serif" font-size="10" text-anchor="middle">
    Prosentvis fravær grunnet sykdom
  </text><rect width="220" height="130" x="530" y="280" fill="url(#b)" filter="url(#c)" rx="8"/><text x="640" y="305" fill="#2e8b57" font-family="Arial, sans-serif" font-size="14" font-weight="bold" text-anchor="middle">
    Overtidsandel
  </text><text x="640" y="335" fill="#1a472a" font-family="Arial, sans-serif" font-size="32" font-weight="bold" text-anchor="middle">
    6,8%
  </text><text x="640" y="355" fill="#666" font-family="Arial, sans-serif" font-size="12" text-anchor="middle">
    av total arbeidstid
  </text><path fill="#dc3545" d="m625 365 10 10h20l-10-10z"/><text x="640" y="385" fill="#dc3545" font-family="Arial, sans-serif" font-size="12" text-anchor="middle">
    ↑ 1,2% fra i fjor
  </text><text x="640" y="400" fill="#888" font-family="Arial, sans-serif" font-size="10" text-anchor="middle">
    Andel overtid av total arbeidstid
  </text><text x="50" y="450" fill="#333" font-family="Arial, sans-serif" font-size="18" font-weight="bold">
    Benchmarking
  </text><rect width="340" height="120" x="50" y="460" fill="url(#b)" filter="url(#c)" rx="8"/><text x="220" y="485" fill="#2e8b57" font-family="Arial, sans-serif" font-size="14" font-weight="bold" text-anchor="middle">
    Bransjesammenligning
  </text><path fill="#3cb371" d="M70 500h60v30H70z"/><text x="100" y="518" fill="#fff" font-family="Arial, sans-serif" font-size="10" text-anchor="middle">Din bedrift</text><text x="100" y="545" fill="#333" font-family="Arial, sans-serif" font-size="9" text-anchor="middle">62%</text><path fill="#87ceeb" d="M140 510h60v20h-60z"/><text x="170" y="525" fill="#333" font-family="Arial, sans-serif" font-size="10" text-anchor="middle">IT-tjenester</text><text x="170" y="545" fill="#333" font-family="Arial, sans-serif" font-size="9" text-anchor="middle">68%</text><path fill="plum" d="M210 515h60v15h-60z"/><text x="240" y="527" fill="#333" font-family="Arial, sans-serif" font-size="10" text-anchor="middle">Konsulent</text><text x="240" y="545" fill="#333" font-family="Arial, sans-serif" font-size="9" text-anchor="middle">75%</text><path fill="khaki" d="M280 520h60v10h-60z"/><text x="310" y="530" fill="#333" font-family="Arial, sans-serif" font-size="10" text-anchor="middle">Industri</text><text x="310" y="545" fill="#333" font-family="Arial, sans-serif" font-size="9" text-anchor="middle">25%</text><text x="220" y="565" fill="#888" font-family="Arial, sans-serif" font-size="10" text-anchor="middle">
    Personalkostnad som % av omsetning
  </text><rect width="340" height="120" x="410" y="460" fill="url(#b)" filter="url(#c)" rx="8"/><text x="580" y="485" fill="#2e8b57" font-family="Arial, sans-serif" font-size="14" font-weight="bold" text-anchor="middle">
    Trendanalyse (5 år)
  </text><path fill="none" stroke="#2e8b57" stroke-width="3" d="m430 540 30-20 30-10 30 15 30-25 30-5 30 10 30-15 30-5 30-5"/><circle cx="430" cy="540" r="3" fill="#2e8b57"/><circle cx="460" cy="520" r="3" fill="#2e8b57"/><circle cx="490" cy="510" r="3" fill="#2e8b57"/><circle cx="520" cy="525" r="3" fill="#2e8b57"/><circle cx="550" cy="500" r="3" fill="#2e8b57"/><circle cx="580" cy="495" r="3" fill="#2e8b57"/><circle cx="610" cy="505" r="3" fill="#2e8b57"/><circle cx="640" cy="490" r="3" fill="#2e8b57"/><circle cx="670" cy="485" r="3" fill="#2e8b57"/><circle cx="700" cy="480" r="3" fill="#2e8b57"/><text x="430" y="560" fill="#666" font-family="Arial, sans-serif" font-size="9" text-anchor="middle">2019</text><text x="520" y="560" fill="#666" font-family="Arial, sans-serif" font-size="9" text-anchor="middle">2021</text><text x="610" y="560" fill="#666" font-family="Arial, sans-serif" font-size="9" text-anchor="middle">2022</text><text x="700" y="560" fill="#666" font-family="Arial, sans-serif" font-size="9" text-anchor="middle">2024</text><text x="580" y="575" fill="#888" font-family="Arial, sans-serif" font-size="10" text-anchor="middle">
    Omsetning per ansatt (mill. NOK)
  </text></svg>