<svg xmlns="http://www.w3.org/2000/svg" width="550" height="400"><defs><linearGradient id="a" x1="0%" x2="100%" y1="0%" y2="100%"><stop offset="0%" style="stop-color:#f8fafc;stop-opacity:1"/><stop offset="100%" style="stop-color:#e2e8f0;stop-opacity:1"/></linearGradient><marker id="b" markerHeight="6" markerWidth="8" orient="auto" refX="7" refY="3"><path fill="#475569" d="m0 0 8 3-8 3z"/></marker></defs><path fill="url(#a)" stroke="#cbd5e1" stroke-width="2" d="M0 0h550v400H0z"/><text x="275" y="25" fill="#1e293b" font-family="Arial, sans-serif" font-size="16" font-weight="bold" text-anchor="middle">Personalkostnad - Regnskapsføringsprosess</text><rect width="120" height="80" x="30" y="60" fill="#dbeafe" stroke="#3b82f6" stroke-width="2" rx="8"/><text x="90" y="80" fill="#1e40af" font-family="Arial, sans-serif" font-size="11" font-weight="bold" text-anchor="middle">1. Lønnskjøring</text><text x="90" y="95" fill="#1d4ed8" font-family="Arial, sans-serif" font-size="9" text-anchor="middle">• Grunnlønn</text><text x="90" y="107" fill="#1d4ed8" font-family="Arial, sans-serif" font-size="9" text-anchor="middle">• Overtid</text><text x="90" y="119" fill="#1d4ed8" font-family="Arial, sans-serif" font-size="9" text-anchor="middle">• Tillegg</text><text x="90" y="131" fill="#1d4ed8" font-family="Arial, sans-serif" font-size="9" text-anchor="middle">• Trekk</text><rect width="120" height="80" x="200" y="60" fill="#fef3c7" stroke="#f59e0b" stroke-width="2" rx="8"/><text x="260" y="80" fill="#92400e" font-family="Arial, sans-serif" font-size="11" font-weight="bold" text-anchor="middle">2. Sosiale kostnader</text><text x="260" y="95" fill="#b45309" font-family="Arial, sans-serif" font-size="9" text-anchor="middle">• Feriepenger</text><text x="260" y="107" fill="#b45309" font-family="Arial, sans-serif" font-size="9" text-anchor="middle">• Arbeidsgiveravgift</text><text x="260" y="119" fill="#b45309" font-family="Arial, sans-serif" font-size="9" text-anchor="middle">• Pensjon</text><text x="260" y="131" fill="#b45309" font-family="Arial, sans-serif" font-size="9" text-anchor="middle">• Forsikring</text><rect width="120" height="80" x="370" y="60" fill="#d1fae5" stroke="#10b981" stroke-width="2" rx="8"/><text x="430" y="80" fill="#065f46" font-family="Arial, sans-serif" font-size="11" font-weight="bold" text-anchor="middle">3. Periodisering</text><text x="430" y="95" fill="#047857" font-family="Arial, sans-serif" font-size="9" text-anchor="middle">• Feriepengeravsetning</text><text x="430" y="107" fill="#047857" font-family="Arial, sans-serif" font-size="9" text-anchor="middle">• Bonusavsetning</text><text x="430" y="119" fill="#047857" font-family="Arial, sans-serif" font-size="9" text-anchor="middle">• Overtidskompensasjon</text><path fill="none" stroke="#475569" stroke-width="2" marker-end="url(#b)" d="M150 100h40"/><path fill="none" stroke="#475569" stroke-width="2" marker-end="url(#b)" d="M320 100h40"/><rect width="490" height="180" x="30" y="170" fill="#f8fafc" stroke="#cbd5e1" stroke-width="2" rx="8"/><text x="275" y="190" fill="#374151" font-family="Arial, sans-serif" font-size="12" font-weight="bold" text-anchor="middle">Regnskapsføringseksempel</text><path fill="#e2e8f0" stroke="#94a3b8" d="M50 200h200v25H50zM250 200h80v25h-80zM330 200h80v25h-80zM410 200h100v25H410z"/><text x="150" y="217" fill="#374151" font-family="Arial, sans-serif" font-size="10" font-weight="bold" text-anchor="middle">Konto</text><text x="290" y="217" fill="#374151" font-family="Arial, sans-serif" font-size="10" font-weight="bold" text-anchor="middle">Debet</text><text x="370" y="217" fill="#374151" font-family="Arial, sans-serif" font-size="10" font-weight="bold" text-anchor="middle">Kredit</text><text x="460" y="217" fill="#374151" font-family="Arial, sans-serif" font-size="10" font-weight="bold" text-anchor="middle">Beskrivelse</text><path fill="#fff" stroke="#94a3b8" d="M50 225h200v20H50zM250 225h80v20h-80zM330 225h80v20h-80zM410 225h100v20H410z"/><text x="60" y="238" fill="#374151" font-family="Arial, sans-serif" font-size="9">Lønnskostnad</text><text x="290" y="238" fill="#374151" font-family="Arial, sans-serif" font-size="9" text-anchor="middle">100 000</text><text x="370" y="238" fill="#374151" font-family="Arial, sans-serif" font-size="9" text-anchor="middle">-</text><text x="420" y="238" fill="#374151" font-family="Arial, sans-serif" font-size="8">Grunnlønn</text><path fill="#f1f5f9" stroke="#94a3b8" d="M50 245h200v20H50zM250 245h80v20h-80zM330 245h80v20h-80zM410 245h100v20H410z"/><text x="60" y="258" fill="#374151" font-family="Arial, sans-serif" font-size="9">Feriepengekostnad</text><text x="290" y="258" fill="#374151" font-family="Arial, sans-serif" font-size="9" text-anchor="middle">12 000</text><text x="370" y="258" fill="#374151" font-family="Arial, sans-serif" font-size="9" text-anchor="middle">-</text><text x="420" y="258" fill="#374151" font-family="Arial, sans-serif" font-size="8">12% av grunnlønn</text><path fill="#fff" stroke="#94a3b8" d="M50 265h200v20H50zM250 265h80v20h-80zM330 265h80v20h-80zM410 265h100v20H410z"/><text x="60" y="278" fill="#374151" font-family="Arial, sans-serif" font-size="9">Arbeidsgiveravgift</text><text x="290" y="278" fill="#374151" font-family="Arial, sans-serif" font-size="9" text-anchor="middle">14 100</text><text x="370" y="278" fill="#374151" font-family="Arial, sans-serif" font-size="9" text-anchor="middle">-</text><text x="420" y="278" fill="#374151" font-family="Arial, sans-serif" font-size="8">14,1% av grunnlag</text><path fill="#f1f5f9" stroke="#94a3b8" d="M50 285h200v20H50zM250 285h80v20h-80zM330 285h80v20h-80zM410 285h100v20H410z"/><text x="60" y="298" fill="#374151" font-family="Arial, sans-serif" font-size="9">Pensjonskostnad</text><text x="290" y="298" fill="#374151" font-family="Arial, sans-serif" font-size="9" text-anchor="middle">4 000</text><text x="370" y="298" fill="#374151" font-family="Arial, sans-serif" font-size="9" text-anchor="middle">-</text><text x="420" y="298" fill="#374151" font-family="Arial, sans-serif" font-size="8">4% av lønn</text><path fill="#fff" stroke="#94a3b8" d="M50 305h200v20H50zM250 305h80v20h-80zM330 305h80v20h-80zM410 305h100v20H410z"/><text x="60" y="318" fill="#374151" font-family="Arial, sans-serif" font-size="9">Skyldig lønn</text><text x="290" y="318" fill="#374151" font-family="Arial, sans-serif" font-size="9" text-anchor="middle">-</text><text x="370" y="318" fill="#374151" font-family="Arial, sans-serif" font-size="9" text-anchor="middle">75 000</text><text x="420" y="318" fill="#374151" font-family="Arial, sans-serif" font-size="8">Nettolønn</text><path fill="#f1f5f9" stroke="#94a3b8" d="M50 325h200v20H50zM250 325h80v20h-80zM330 325h80v20h-80zM410 325h100v20H410z"/><text x="60" y="338" fill="#374151" font-family="Arial, sans-serif" font-size="9">Diverse skyldig</text><text x="290" y="338" fill="#374151" font-family="Arial, sans-serif" font-size="9" text-anchor="middle">-</text><text x="370" y="338" fill="#374151" font-family="Arial, sans-serif" font-size="9" text-anchor="middle">55 100</text><text x="420" y="338" fill="#374151" font-family="Arial, sans-serif" font-size="8">Avgifter &amp; avsetninger</text><path fill="#374151" d="M50 345h460v2H50z"/><text x="275" y="375" fill="#374151" font-family="Arial, sans-serif" font-size="10" font-weight="bold" text-anchor="middle">Total personalkostnad: 130 100 kr (130% av grunnlønn)</text><text x="275" y="390" fill="#64748b" font-family="Arial, sans-serif" font-size="9" text-anchor="middle">Månedlig kostnadsføring sikrer korrekt periodisering</text></svg>