<svg xmlns="http://www.w3.org/2000/svg" viewBox="0 0 800 600"><defs><linearGradient id="c" x1="0%" x2="100%" y1="0%" y2="100%"><stop offset="0%" style="stop-color:#667eea;stop-opacity:1"/><stop offset="100%" style="stop-color:#764ba2;stop-opacity:1"/></linearGradient><linearGradient id="b" x1="0%" x2="100%" y1="0%" y2="100%"><stop offset="0%" style="stop-color:#f093fb;stop-opacity:1"/><stop offset="100%" style="stop-color:#f5576c;stop-opacity:1"/></linearGradient><linearGradient id="d" x1="0%" x2="100%" y1="0%" y2="100%"><stop offset="0%" style="stop-color:#4facfe;stop-opacity:1"/><stop offset="100%" style="stop-color:#00f2fe;stop-opacity:1"/></linearGradient><linearGradient id="a" x1="0%" x2="100%" y1="0%" y2="100%"><stop offset="0%" style="stop-color:#a8edea;stop-opacity:1"/><stop offset="100%" style="stop-color:#fed6e3;stop-opacity:1"/></linearGradient></defs><path fill="#f8fafc" d="M0 0h800v600H0z"/><text x="400" y="30" fill="#2d3748" font-family="Arial, sans-serif" font-size="24" font-weight="bold" text-anchor="middle">
    Fremtidige Trender i Skattemelding
  </text><path stroke="#e2e8f0" stroke-dasharray="5,5" stroke-width="3" d="M100 300h600"/><text x="150" y="320" fill="#718096" font-family="Arial, sans-serif" font-size="12" text-anchor="middle">I dag</text><text x="650" y="320" fill="#718096" font-family="Arial, sans-serif" font-size="12" text-anchor="middle">2030+</text><g transform="translate(50 80)"><rect width="180" height="140" fill="url(#a)" opacity=".9" rx="10"/><text x="90" y="20" fill="#2d3748" font-family="Arial, sans-serif" font-size="14" font-weight="bold" text-anchor="middle">
      Real-time Reporting
    </text><circle cx="45" cy="50" r="15" fill="#38a169"/><text x="45" y="55" fill="#fff" font-family="Arial, sans-serif" font-size="10" text-anchor="middle">API</text><rect width="30" height="20" x="80" y="40" fill="#4299e1" rx="5"/><text x="95" y="53" fill="#fff" font-family="Arial, sans-serif" font-size="8" text-anchor="middle">Valid</text><circle cx="135" cy="50" r="15" fill="#ed8936"/><text x="135" y="55" fill="#fff" font-family="Arial, sans-serif" font-size="8" text-anchor="middle">Auto</text><text x="10" y="80" fill="#4a5568" font-family="Arial, sans-serif" font-size="10">• API-integrasjon</text><text x="10" y="95" fill="#4a5568" font-family="Arial, sans-serif" font-size="10">• Kontinuerlig validering</text><text x="10" y="110" fill="#4a5568" font-family="Arial, sans-serif" font-size="10">• Automatisk innbetaling</text><text x="10" y="125" fill="#4a5568" font-family="Arial, sans-serif" font-size="10">• Redusert compliance-kostnad</text></g><g transform="translate(280 80)"><rect width="180" height="140" fill="url(#b)" opacity=".9" rx="10"/><text x="90" y="20" fill="#2d3748" font-family="Arial, sans-serif" font-size="14" font-weight="bold" text-anchor="middle">
      AI og Maskinlæring
    </text><circle cx="45" cy="50" r="15" fill="#9f7aea"/><circle cx="38" cy="45" r="3" fill="#fff"/><circle cx="52" cy="45" r="3" fill="#fff"/><path fill="none" stroke="#fff" stroke-width="2" d="M38 55q7 10 14 0"/><rect width="30" height="20" x="80" y="40" fill="#48bb78" rx="5"/><text x="95" y="53" fill="#fff" font-family="Arial, sans-serif" font-size="8" text-anchor="middle">Pred</text><rect width="30" height="20" x="120" y="40" fill="#ed64a6" rx="5"/><text x="135" y="53" fill="#fff" font-family="Arial, sans-serif" font-size="8" text-anchor="middle">NLP</text><text x="10" y="80" fill="#4a5568" font-family="Arial, sans-serif" font-size="10">• Prediktiv analyse</text><text x="10" y="95" fill="#4a5568" font-family="Arial, sans-serif" font-size="10">• Risikoanalyse</text><text x="10" y="110" fill="#4a5568" font-family="Arial, sans-serif" font-size="10">• Automatisk klassifisering</text><text x="10" y="125" fill="#4a5568" font-family="Arial, sans-serif" font-size="10">• Kontraktanalyse</text></g><g transform="translate(510 80)"><rect width="180" height="140" fill="url(#c)" opacity=".9" rx="10"/><text x="90" y="20" fill="#2d3748" font-family="Arial, sans-serif" font-size="14" font-weight="bold" text-anchor="middle">
      Blockchain og DeFi
    </text><rect width="15" height="15" x="35" y="40" fill="#667eea" rx="3"/><rect width="15" height="15" x="55" y="40" fill="#667eea" rx="3"/><rect width="15" height="15" x="75" y="40" fill="#667eea" rx="3"/><path stroke="#4a5568" stroke-width="2" d="M50 47h5M70 47h5"/><rect width="30" height="20" x="110" y="40" fill="#38a169" rx="5"/><text x="125" y="53" fill="#fff" font-family="Arial, sans-serif" font-size="8" text-anchor="middle">Smart</text><text x="10" y="80" fill="#4a5568" font-family="Arial, sans-serif" font-size="10">• Uendrelig historikk</text><text x="10" y="95" fill="#4a5568" font-family="Arial, sans-serif" font-size="10">• Real-time deling</text><text x="10" y="110" fill="#4a5568" font-family="Arial, sans-serif" font-size="10">• Smart contracts</text><text x="10" y="125" fill="#4a5568" font-family="Arial, sans-serif" font-size="10">• Kryptovaluta-sporing</text></g><g transform="translate(50 380)"><rect width="180" height="140" fill="url(#d)" opacity=".9" rx="10"/><text x="90" y="20" fill="#2d3748" font-family="Arial, sans-serif" font-size="14" font-weight="bold" text-anchor="middle">
      Bærekraft og ESG
    </text><circle cx="45" cy="50" r="15" fill="#38a169"/><path fill="#68d391" d="M35 45q10-10 20 0-10 10-20 0"/><path fill="#68d391" d="M40 50q5-10 10 0"/><rect width="30" height="20" x="80" y="40" fill="#f56565" rx="5"/><text x="95" y="53" fill="#fff" font-family="Arial, sans-serif" font-size="8" text-anchor="middle">CO₂</text><rect width="30" height="20" x="120" y="40" fill="#48bb78" rx="5"/><text x="135" y="53" fill="#fff" font-family="Arial, sans-serif" font-size="8" text-anchor="middle">Green</text><text x="10" y="80" fill="#4a5568" font-family="Arial, sans-serif" font-size="10">• CO₂-avgifter</text><text x="10" y="95" fill="#4a5568" font-family="Arial, sans-serif" font-size="10">• Grønne fradrag</text><text x="10" y="110" fill="#4a5568" font-family="Arial, sans-serif" font-size="10">• Transparenskrav</text><text x="10" y="125" fill="#4a5568" font-family="Arial, sans-serif" font-size="10">• Public reporting</text></g><g transform="translate(280 380)"><rect width="180" height="140" fill="#e2e8f0" stroke="#cbd5e0" stroke-width="2" rx="10"/><text x="90" y="20" fill="#2d3748" font-family="Arial, sans-serif" font-size="14" font-weight="bold" text-anchor="middle">
      Digital Infrastruktur
    </text><ellipse cx="45" cy="50" fill="#4299e1" rx="20" ry="10"/><circle cx="35" cy="45" r="8" fill="#4299e1"/><circle cx="55" cy="45" r="8" fill="#4299e1"/><rect width="30" height="20" x="80" y="40" fill="#ed8936" rx="5"/><text x="95" y="53" fill="#fff" font-family="Arial, sans-serif" font-size="8" text-anchor="middle">Sec</text><rect width="30" height="20" x="120" y="40" fill="#9f7aea" rx="5"/><text x="135" y="53" fill="#fff" font-family="Arial, sans-serif" font-size="8" text-anchor="middle">Std</text><text x="10" y="80" fill="#4a5568" font-family="Arial, sans-serif" font-size="10">• Systemkostnader</text><text x="10" y="95" fill="#4a5568" font-family="Arial, sans-serif" font-size="10">• Datasikkerhet</text><text x="10" y="110" fill="#4a5568" font-family="Arial, sans-serif" font-size="10">• Internasjonale standarder</text><text x="10" y="125" fill="#4a5568" font-family="Arial, sans-serif" font-size="10">• Interoperabilitet</text></g><g transform="translate(510 380)"><rect width="180" height="140" fill="#fed7d7" stroke="#feb2b2" stroke-width="2" rx="10"/><text x="90" y="20" fill="#2d3748" font-family="Arial, sans-serif" font-size="14" font-weight="bold" text-anchor="middle">
      Implementeringsutfordringer
    </text><path fill="#f56565" d="m45 35 10 20H35z"/><text x="45" y="50" fill="#fff" font-family="Arial, sans-serif" font-size="16" font-weight="bold" text-anchor="middle">!</text><circle cx="95" cy="45" r="10" fill="#ed8936"/><text x="95" y="50" fill="#fff" font-family="Arial, sans-serif" font-size="8" text-anchor="middle">$</text><circle cx="135" cy="45" r="10" fill="#9f7aea"/><text x="135" y="50" fill="#fff" font-family="Arial, sans-serif" font-size="8" text-anchor="middle">T</text><text x="10" y="80" fill="#4a5568" font-family="Arial, sans-serif" font-size="10">• Høye systemkostnader</text><text x="10" y="95" fill="#4a5568" font-family="Arial, sans-serif" font-size="10">• Kompetansebehov</text><text x="10" y="110" fill="#4a5568" font-family="Arial, sans-serif" font-size="10">• Regulatorisk tilpasning</text><text x="10" y="125" fill="#4a5568" font-family="Arial, sans-serif" font-size="10">• Overgangsperioder</text></g><defs><marker id="e" markerHeight="7" markerWidth="10" orient="auto" refX="9" refY="3.5"><path fill="#4299e1" d="m0 0 10 3.5L0 7z"/></marker></defs><path fill="none" stroke="#4299e1" stroke-width="2" marker-end="url(#e)" d="M140 220q60 30 120 0"/><path fill="none" stroke="#4299e1" stroke-width="2" marker-end="url(#e)" d="M370 220q60 30 120 0"/><path fill="none" stroke="#4299e1" stroke-width="2" marker-end="url(#e)" d="M140 380q60-30 120 0"/><path fill="none" stroke="#4299e1" stroke-width="2" marker-end="url(#e)" d="M370 380q60-30 120 0"/><rect width="300" height="50" x="250" y="250" fill="#e6fffa" stroke="#38b2ac" stroke-width="2" rx="10"/><text x="400" y="270" fill="#2d3748" font-family="Arial, sans-serif" font-size="14" font-weight="bold" text-anchor="middle">
    Integrert Skatteforvaltning 2030+
  </text><text x="400" y="290" fill="#4a5568" font-family="Arial, sans-serif" font-size="12" text-anchor="middle">
    Sømløs, automatisert og bærekraftig
  </text></svg>