<svg xmlns="http://www.w3.org/2000/svg" width="800" height="400" viewBox="0 0 800 400"><defs><linearGradient id="a" x1="0%" x2="100%" y1="0%" y2="100%"><stop offset="0%" style="stop-color:#f8fafc;stop-opacity:1"/><stop offset="100%" style="stop-color:#e2e8f0;stop-opacity:1"/></linearGradient><linearGradient id="b" x1="0%" x2="100%" y1="0%" y2="100%"><stop offset="0%" style="stop-color:#fff;stop-opacity:1"/><stop offset="100%" style="stop-color:#f1f5f9;stop-opacity:1"/></linearGradient></defs><path fill="url(#a)" d="M0 0h800v400H0z"/><text x="400" y="40" fill="#1e293b" font-family="Arial, sans-serif" font-size="32" font-weight="bold" text-anchor="middle">
    SKATTEMELDING
  </text><text x="400" y="65" fill="#64748b" font-family="Arial, sans-serif" font-size="16" text-anchor="middle">
    Komplett Guide til Utfylling og Innlevering
  </text><g transform="translate(100 100)"><rect width="120" height="160" fill="url(#b)" stroke="#cbd5e1" stroke-width="2" rx="8"/><path fill="#e2e8f0" stroke="#cbd5e1" d="M120 0v30L90 0z"/><path stroke="#475569" stroke-width="2" d="M15 40h60"/><path stroke="#64748b" d="M15 60h90M15 80h70M15 100h80M15 120h55"/><text x="60" y="180" fill="#475569" font-family="Arial, sans-serif" font-size="14" font-weight="bold" text-anchor="middle">
      RF-1167
    </text></g><g transform="translate(300 120)"><rect width="140" height="100" fill="#1e293b" rx="8"/><path fill="#3b82f6" d="M10 10h120v70H10z"/><rect width="40" height="15" x="50" y="90" fill="#64748b" rx="3"/><rect width="70" height="5" x="35" y="105" fill="#94a3b8" rx="2"/><text x="70" y="35" fill="#fff" font-family="Arial, sans-serif" font-size="12" font-weight="bold" text-anchor="middle">
      ALTINN
    </text><text x="70" y="55" fill="#e2e8f0" font-family="Arial, sans-serif" font-size="10" text-anchor="middle">
      Digital innlevering
    </text><text x="70" y="140" fill="#475569" font-family="Arial, sans-serif" font-size="14" font-weight="bold" text-anchor="middle">
      Digital Portal
    </text></g><g transform="translate(520 100)"><rect width="120" height="140" fill="url(#b)" stroke="#ef4444" stroke-width="2" rx="8"/><rect width="120" height="30" fill="#ef4444" rx="8"/><circle cx="25" cy="15" r="3" fill="#fff"/><circle cx="95" cy="15" r="3" fill="#fff"/><g stroke="#cbd5e1"><path d="M20 50h80M20 70h80M20 90h80M20 110h80M40 35v90M60 35v90M80 35v90"/></g><rect width="18" height="18" x="61" y="71" fill="#fca5a5" rx="2"/><text x="70" y="83" fill="#991b1b" font-family="Arial, sans-serif" font-size="12" font-weight="bold" text-anchor="middle">
      31
    </text><text x="60" y="160" fill="#475569" font-family="Arial, sans-serif" font-size="14" font-weight="bold" text-anchor="middle">
      Frister
    </text><text x="60" y="175" fill="#64748b" font-family="Arial, sans-serif" font-size="12" text-anchor="middle">
      31. mai
    </text></g><g fill="none" stroke="#6366f1" stroke-width="3" marker-end="url(#c)"><defs><marker id="c" markerHeight="7" markerWidth="10" orient="auto" refX="9" refY="3.5"><path fill="#6366f1" d="m0 0 10 3.5L0 7z"/></marker></defs><path d="M220 160h80"/><path d="M440 160h80"/></g><g transform="translate(50 290)"><rect width="700" height="80" fill="url(#b)" stroke="#6366f1" stroke-width="2" rx="12"/><g transform="translate(30 25)"><circle cx="15" cy="15" r="12" fill="#6366f1"/><text x="15" y="20" fill="#fff" font-family="Arial, sans-serif" font-size="12" font-weight="bold" text-anchor="middle">1</text><text x="15" y="45" fill="#475569" font-family="Arial, sans-serif" font-size="12" font-weight="bold" text-anchor="middle">
        Forbered
      </text></g><g transform="translate(180 25)"><circle cx="15" cy="15" r="12" fill="#6366f1"/><text x="15" y="20" fill="#fff" font-family="Arial, sans-serif" font-size="12" font-weight="bold" text-anchor="middle">2</text><text x="15" y="45" fill="#475569" font-family="Arial, sans-serif" font-size="12" font-weight="bold" text-anchor="middle">
        Beregn
      </text></g><g transform="translate(330 25)"><circle cx="15" cy="15" r="12" fill="#6366f1"/><text x="15" y="20" fill="#fff" font-family="Arial, sans-serif" font-size="12" font-weight="bold" text-anchor="middle">3</text><text x="15" y="45" fill="#475569" font-family="Arial, sans-serif" font-size="12" font-weight="bold" text-anchor="middle">
        Kvalitetssikre
      </text></g><g transform="translate(480 25)"><circle cx="15" cy="15" r="12" fill="#6366f1"/><text x="15" y="20" fill="#fff" font-family="Arial, sans-serif" font-size="12" font-weight="bold" text-anchor="middle">4</text><text x="15" y="45" fill="#475569" font-family="Arial, sans-serif" font-size="12" font-weight="bold" text-anchor="middle">
        Lever digitalt
      </text></g><g transform="translate(630 25)"><circle cx="15" cy="15" r="12" fill="#10b981"/><text x="15" y="20" fill="#fff" font-family="Arial, sans-serif" font-size="12" font-weight="bold" text-anchor="middle">✓</text><text x="15" y="45" fill="#475569" font-family="Arial, sans-serif" font-size="12" font-weight="bold" text-anchor="middle">
        Ferdig
      </text></g></g></svg>