<svg xmlns="http://www.w3.org/2000/svg" width="800" height="400"><defs><linearGradient id="a" x1="0%" x2="100%" y1="0%" y2="100%"><stop offset="0%" style="stop-color:#f8f9fa;stop-opacity:1"/><stop offset="100%" style="stop-color:#e9ecef;stop-opacity:1"/></linearGradient></defs><path fill="url(#a)" d="M0 0h800v400H0z"/><text x="400" y="30" fill="#212529" font-family="Arial, sans-serif" font-size="24" font-weight="bold" text-anchor="middle">Kontinuerlig Forbedring av Lagerlokasjonsstyring</text><g transform="translate(400 200)"><circle r="120" fill="#fff" stroke="#495057" stroke-width="3"/><path fill="#007bff" fill-opacity=".7" d="M0 0v-120a120 120 0 0 1 84.85 35.15Z"/><text x="30" y="-70" fill="#fff" font-family="Arial, sans-serif" font-size="14" font-weight="bold" text-anchor="middle">PLAN</text><text x="30" y="-55" fill="#fff" font-family="Arial, sans-serif" font-size="10" text-anchor="middle">Planlegg</text><text x="30" y="-45" fill="#fff" font-family="Arial, sans-serif" font-size="10" text-anchor="middle">forbedringer</text><path fill="#28a745" fill-opacity=".7" d="m0 0 84.85-84.85A120 120 0 0 1 120 0Z"/><text x="70" y="-30" fill="#fff" font-family="Arial, sans-serif" font-size="14" font-weight="bold" text-anchor="middle">DO</text><text x="70" y="-15" fill="#fff" font-family="Arial, sans-serif" font-size="10" text-anchor="middle">Implementer</text><text x="70" y="-5" fill="#fff" font-family="Arial, sans-serif" font-size="10" text-anchor="middle">endringer</text><path fill="#ffc107" fill-opacity=".7" d="M0 0h120a120 120 0 0 1-35.15 84.85Z"/><text x="70" y="40" fill="#fff" font-family="Arial, sans-serif" font-size="14" font-weight="bold" text-anchor="middle">CHECK</text><text x="70" y="55" fill="#fff" font-family="Arial, sans-serif" font-size="10" text-anchor="middle">Evaluer</text><text x="70" y="65" fill="#fff" font-family="Arial, sans-serif" font-size="10" text-anchor="middle">resultater</text><path fill="#dc3545" fill-opacity=".7" d="m0 0 84.85 84.85A120 120 0 0 1 0 120Z"/><text x="30" y="80" fill="#fff" font-family="Arial, sans-serif" font-size="14" font-weight="bold" text-anchor="middle">ACT</text><text x="30" y="95" fill="#fff" font-family="Arial, sans-serif" font-size="10" text-anchor="middle">Standardiser</text><text x="30" y="105" fill="#fff" font-family="Arial, sans-serif" font-size="10" text-anchor="middle">forbedringer</text><circle r="40" fill="#6c757d" fill-opacity=".9"/><text y="-5" fill="#fff" font-family="Arial, sans-serif" font-size="12" font-weight="bold" text-anchor="middle">PDCA</text><text y="10" fill="#fff" font-family="Arial, sans-serif" font-size="10" text-anchor="middle">Syklus</text><defs><marker id="b" markerHeight="6" markerWidth="8" orient="auto" refX="7" refY="3"><path fill="#495057" d="m0 0 8 3-8 3z"/></marker></defs><path fill="none" stroke="#495057" stroke-width="2" marker-end="url(#b)" d="M-60-100a120 120 0 0 1 120 0"/><path fill="none" stroke="#495057" stroke-width="2" marker-end="url(#b)" d="M100-60a120 120 0 0 1 0 120"/><path fill="none" stroke="#495057" stroke-width="2" marker-end="url(#b)" d="M60 100a120 120 0 0 1-120 0"/><path fill="none" stroke="#495057" stroke-width="2" marker-end="url(#b)" d="M-100 60a120 120 0 0 1 0-120"/></g><rect width="200" height="80" x="50" y="60" fill="#fff" stroke="#007bff" stroke-width="2" rx="8"/><text x="150" y="80" fill="#007bff" font-family="Arial, sans-serif" font-size="14" font-weight="bold" text-anchor="middle">1. PLANLEGGING</text><text x="60" y="100" fill="#495057" font-family="Arial, sans-serif" font-size="10">• Analyser nåværende ytelse</text><text x="60" y="115" fill="#495057" font-family="Arial, sans-serif" font-size="10">• Identifiser forbedringsområder</text><text x="60" y="130" fill="#495057" font-family="Arial, sans-serif" font-size="10">• Sett mål og KPI-er</text><rect width="200" height="80" x="550" y="60" fill="#fff" stroke="#28a745" stroke-width="2" rx="8"/><text x="650" y="80" fill="#28a745" font-family="Arial, sans-serif" font-size="14" font-weight="bold" text-anchor="middle">2. IMPLEMENTERING</text><text x="560" y="100" fill="#495057" font-family="Arial, sans-serif" font-size="10">• Gjennomfør pilotprosjekt</text><text x="560" y="115" fill="#495057" font-family="Arial, sans-serif" font-size="10">• Tren personale</text><text x="560" y="130" fill="#495057" font-family="Arial, sans-serif" font-size="10">• Dokumenter endringer</text><rect width="200" height="80" x="550" y="260" fill="#fff" stroke="#ffc107" stroke-width="2" rx="8"/><text x="650" y="280" fill="#f57c00" font-family="Arial, sans-serif" font-size="14" font-weight="bold" text-anchor="middle">3. EVALUERING</text><text x="560" y="300" fill="#495057" font-family="Arial, sans-serif" font-size="10">• Mål ytelse mot KPI-er</text><text x="560" y="315" fill="#495057" font-family="Arial, sans-serif" font-size="10">• Samle tilbakemeldinger</text><text x="560" y="330" fill="#495057" font-family="Arial, sans-serif" font-size="10">• Analyser resultater</text><rect width="200" height="80" x="50" y="260" fill="#fff" stroke="#dc3545" stroke-width="2" rx="8"/><text x="150" y="280" fill="#dc3545" font-family="Arial, sans-serif" font-size="14" font-weight="bold" text-anchor="middle">4. STANDARDISERING</text><text x="60" y="300" fill="#495057" font-family="Arial, sans-serif" font-size="10">• Implementer vellykkede endringer</text><text x="60" y="315" fill="#495057" font-family="Arial, sans-serif" font-size="10">• Oppdater prosedyrer</text><text x="60" y="330" fill="#495057" font-family="Arial, sans-serif" font-size="10">• Planlegg neste syklus</text><defs><marker id="c" markerHeight="7" markerWidth="10" orient="auto" refX="9" refY="3.5"><path fill="#6c757d" d="m0 0 10 3.5L0 7z"/></marker></defs><path fill="none" stroke="#6c757d" stroke-width="2" marker-end="url(#c)" d="M250 100q50-20 100 0"/><path fill="none" stroke="#6c757d" stroke-width="2" marker-end="url(#c)" d="M650 140q20 60 0 120"/><path fill="none" stroke="#6c757d" stroke-width="2" marker-end="url(#c)" d="M550 300q-150 20-300 0"/><path fill="none" stroke="#6c757d" stroke-width="2" marker-end="url(#c)" d="M150 260q-20-60 0-120"/><rect width="700" height="35" x="50" y="360" fill="#fff" fill-opacity=".95" stroke="#dee2e6" rx="5"/><text x="60" y="378" fill="#495057" font-family="Arial, sans-serif" font-size="12" font-weight="bold">Nøkkelindikatorer for suksess:</text><text x="60" y="390" fill="#6c757d" font-family="Arial, sans-serif" font-size="10">Lagernøyaktighet &gt;99% • Plukketid reduksjon 20-30% • Lagertetthet økning 15-25% • Feilrate &lt;0.1% • Kostnadsreduksjon 10-20%</text></svg>