<svg width="800" height="400" xmlns="http://www.w3.org/2000/svg">
  <defs>
    <linearGradient id="bgGradient" x1="0%" y1="0%" x2="100%" y2="100%">
      <stop offset="0%" style="stop-color:#f8f9fa;stop-opacity:1" />
      <stop offset="100%" style="stop-color:#e9ecef;stop-opacity:1" />
    </linearGradient>
    <linearGradient id="futuristicGradient" x1="0%" y1="0%" x2="100%" y2="100%">
      <stop offset="0%" style="stop-color:#667eea;stop-opacity:0.8" />
      <stop offset="100%" style="stop-color:#764ba2;stop-opacity:0.6" />
    </linearGradient>
  </defs>
  

  <rect width="800" height="400" fill="url(#bgGradient)"/>
  

  <text x="400" y="30" text-anchor="middle" font-family="Arial, sans-serif" font-size="24" font-weight="bold" fill="#212529">Fremtidige Trender innen Lagerlokasjonsstyring</text>
  

  <g>
    <rect x="50" y="60" width="220" height="140" fill="white" stroke="#667eea" stroke-width="2" rx="10"/>
    <text x="160" y="85" text-anchor="middle" font-family="Arial, sans-serif" font-size="16" font-weight="bold" fill="#667eea">Kunstig Intelligens</text>
    

    <g transform="translate(160, 130)">
      <circle cx="0" cy="0" r="25" fill="url(#futuristicGradient)" stroke="#667eea" stroke-width="2"/>

      <circle cx="-10" cy="-10" r="3" fill="#fff"/>
      <circle cx="10" cy="-10" r="3" fill="#fff"/>
      <circle cx="-10" cy="10" r="3" fill="#fff"/>
      <circle cx="10" cy="10" r="3" fill="#fff"/>
      <circle cx="0" cy="0" r="3" fill="#fff"/>

      <line x1="-10" y1="-10" x2="0" y2="0" stroke="#fff" stroke-width="1"/>
      <line x1="10" y1="-10" x2="0" y2="0" stroke="#fff" stroke-width="1"/>
      <line x1="-10" y1="10" x2="0" y2="0" stroke="#fff" stroke-width="1"/>
      <line x1="10" y1="10" x2="0" y2="0" stroke="#fff" stroke-width="1"/>
    </g>
    

    <text x="60" y="170" font-family="Arial, sans-serif" font-size="10" fill="#6c757d">• Prediktiv analyse</text>
    <text x="60" y="185" font-family="Arial, sans-serif" font-size="10" fill="#6c757d">• Automatisk optimalisering</text>
    <text x="60" y="200" font-family="Arial, sans-serif" font-size="10" fill="#6c757d">• Intelligent ruteplanning</text>
  </g>
  

  <g>
    <rect x="290" y="60" width="220" height="140" fill="white" stroke="#28a745" stroke-width="2" rx="10"/>
    <text x="400" y="85" text-anchor="middle" font-family="Arial, sans-serif" font-size="16" font-weight="bold" fill="#28a745">Bærekraft</text>
    

    <g transform="translate(400, 130)">
      <path d="M 0,20 Q -20,0 -10,-20 Q 0,-15 10,-20 Q 20,0 0,20 Z" fill="#4caf50" stroke="#2e7d32" stroke-width="2"/>
      <path d="M 0,20 Q 0,0 0,-15" stroke="#2e7d32" stroke-width="2"/>
    </g>
    

    <text x="300" y="170" font-family="Arial, sans-serif" font-size="10" fill="#6c757d">• Energieffektive løsninger</text>
    <text x="300" y="185" font-family="Arial, sans-serif" font-size="10" fill="#6c757d">• Redusert emballasje</text>
    <text x="300" y="200" font-family="Arial, sans-serif" font-size="10" fill="#6c757d">• Sirkulær økonomi</text>
  </g>
  

  <g>
    <rect x="530" y="60" width="220" height="140" fill="white" stroke="#007bff" stroke-width="2" rx="10"/>
    <text x="640" y="85" text-anchor="middle" font-family="Arial, sans-serif" font-size="16" font-weight="bold" fill="#007bff">Digital Transformasjon</text>
    

    <g transform="translate(640, 130)">
      <path d="M -20,5 Q -25,-5 -15,-10 Q -10,-15 0,-10 Q 10,-15 15,-10 Q 25,-5 20,5 Z" fill="#e3f2fd" stroke="#2196f3" stroke-width="2"/>

      <path d="M -10,15 L -10,25 M 0,15 L 0,25 M 10,15 L 10,25" stroke="#2196f3" stroke-width="2"/>
    </g>
    

    <text x="540" y="170" font-family="Arial, sans-serif" font-size="10" fill="#6c757d">• Skybaserte systemer</text>
    <text x="540" y="185" font-family="Arial, sans-serif" font-size="10" fill="#6c757d">• Mobile løsninger</text>
    <text x="540" y="200" font-family="Arial, sans-serif" font-size="10" fill="#6c757d">• Sanntidsdata</text>
  </g>
  

  <g>
    <rect x="50" y="220" width="700" height="140" fill="white" stroke="#6c757d" stroke-width="2" rx="10"/>
    <text x="400" y="245" text-anchor="middle" font-family="Arial, sans-serif" font-size="18" font-weight="bold" fill="#495057">Teknologisk Utviklingsplan</text>
    

    <line x1="100" y1="280" x2="700" y2="280" stroke="#6c757d" stroke-width="3"/>
    


    <circle cx="150" cy="280" r="8" fill="#dc3545"/>
    <text x="150" y="300" text-anchor="middle" font-family="Arial, sans-serif" font-size="12" font-weight="bold" fill="#495057">2024</text>
    <text x="150" y="315" text-anchor="middle" font-family="Arial, sans-serif" font-size="10" fill="#6c757d">IoT Sensorer</text>
    <text x="150" y="330" text-anchor="middle" font-family="Arial, sans-serif" font-size="10" fill="#6c757d">RFID Utvidelse</text>
    

    <circle cx="300" cy="280" r="8" fill="#ffc107"/>
    <text x="300" y="300" text-anchor="middle" font-family="Arial, sans-serif" font-size="12" font-weight="bold" fill="#495057">2026</text>
    <text x="300" y="315" text-anchor="middle" font-family="Arial, sans-serif" font-size="10" fill="#6c757d">AI Optimalisering</text>
    <text x="300" y="330" text-anchor="middle" font-family="Arial, sans-serif" font-size="10" fill="#6c757d">Prediktiv Analyse</text>
    

    <circle cx="450" cy="280" r="8" fill="#007bff"/>
    <text x="450" y="300" text-anchor="middle" font-family="Arial, sans-serif" font-size="12" font-weight="bold" fill="#495057">2028</text>
    <text x="450" y="315" text-anchor="middle" font-family="Arial, sans-serif" font-size="10" fill="#6c757d">Full Automatisering</text>
    <text x="450" y="330" text-anchor="middle" font-family="Arial, sans-serif" font-size="10" fill="#6c757d">Robotikk</text>
    

    <circle cx="600" cy="280" r="8" fill="#28a745"/>
    <text x="600" y="300" text-anchor="middle" font-family="Arial, sans-serif" font-size="12" font-weight="bold" fill="#495057">2030+</text>
    <text x="600" y="315" text-anchor="middle" font-family="Arial, sans-serif" font-size="10" fill="#6c757d">Kvante Computing</text>
    <text x="600" y="330" text-anchor="middle" font-family="Arial, sans-serif" font-size="10" fill="#6c757d">Autonome Systemer</text>
    

    <rect x="70" y="260" width="20" height="8" fill="#dc3545" rx="4"/>
    <text x="95" y="267" font-family="Arial, sans-serif" font-size="8" fill="#495057">Implementert</text>
    
    <rect x="220" y="260" width="20" height="8" fill="#ffc107" rx="4"/>
    <text x="245" y="267" font-family="Arial, sans-serif" font-size="8" fill="#495057">Under utvikling</text>
    
    <rect x="370" y="260" width="20" height="8" fill="#007bff" rx="4"/>
    <text x="395" y="267" font-family="Arial, sans-serif" font-size="8" fill="#495057">Planlagt</text>
    
    <rect x="520" y="260" width="20" height="8" fill="#28a745" rx="4"/>
    <text x="545" y="267" font-family="Arial, sans-serif" font-size="8" fill="#495057">Fremtidig</text>
  </g>
  

  <g>
    <rect x="50" y="370" width="700" height="25" fill="white" fill-opacity="0.95" stroke="#dee2e6" stroke-width="1" rx="5"/>
    <text x="60" y="385" font-family="Arial, sans-serif" font-size="12" font-weight="bold" fill="#495057">Nøkkelinnovasjoner:</text>
    <text x="180" y="385" font-family="Arial, sans-serif" font-size="10" fill="#667eea">Maskinlæring</text>
    <text x="270" y="385" font-family="Arial, sans-serif" font-size="10" fill="#28a745">Grønn teknologi</text>
    <text x="370" y="385" font-family="Arial, sans-serif" font-size="10" fill="#007bff">Edge computing</text>
    <text x="470" y="385" font-family="Arial, sans-serif" font-size="10" fill="#dc3545">Blockchain</text>
    <text x="550" y="385" font-family="Arial, sans-serif" font-size="10" fill="#6f42c1">AR/VR</text>
    <text x="620" y="385" font-family="Arial, sans-serif" font-size="10" fill="#17a2b8">5G/6G</text>
  </g>
  

  <g transform="translate(650, 120)">
    <path d="M 0,0 L 80,0 L 80,40 L 10,40 L 0,30 Z" fill="#fff3cd" stroke="#ffc107" stroke-width="2"/>
    <text x="40" y="15" text-anchor="middle" font-family="Arial, sans-serif" font-size="10" font-weight="bold" fill="#856404">Forventede gevinster:</text>
    <text x="40" y="28" text-anchor="middle" font-family="Arial, sans-serif" font-size="9" fill="#856404">50% kostnadsreduksjon</text>
    <text x="40" y="38" text-anchor="middle" font-family="Arial, sans-serif" font-size="9" fill="#856404">99.9% nøyaktighet</text>
  </g>
</svg>