<svg xmlns="http://www.w3.org/2000/svg" width="800" height="400"><defs><linearGradient id="a" x1="0%" x2="100%" y1="0%" y2="100%"><stop offset="0%" style="stop-color:#f8f9fa;stop-opacity:1"/><stop offset="100%" style="stop-color:#e9ecef;stop-opacity:1"/></linearGradient><linearGradient id="b" x1="0%" x2="100%" y1="0%" y2="100%"><stop offset="0%" style="stop-color:#dc3545;stop-opacity:1"/><stop offset="100%" style="stop-color:#c82333;stop-opacity:1"/></linearGradient></defs><path fill="url(#a)" d="M0 0h800v400H0z"/><rect width="700" height="160" x="50" y="120" fill="#fff" stroke="#dee2e6" stroke-width="2" rx="15"/><g transform="translate(100 50)"><rect width="60" height="80" fill="url(#b)" rx="5"/><path fill="#fff" d="M10 15h40v3H10zM10 25h40v3H10zM10 35h30v3H10z"/><path fill="#ffc107" stroke="#856404" stroke-width="2" d="m30 45 15 25H15z"/><text x="30" y="63" fill="#856404" font-family="Arial, sans-serif" font-size="14" font-weight="bold" text-anchor="middle">!</text></g><text x="400" y="170" fill="#212529" font-family="Arial, sans-serif" font-size="36" font-weight="bold" text-anchor="middle">
    Tap på fordring
  </text><text x="400" y="210" fill="#6c757d" font-family="Arial, sans-serif" font-size="18" text-anchor="middle">
    Regnskapsmessig behandling av fordringer som ikke kan innkreves
  </text><g transform="translate(80 320)"><rect width="160" height="50" fill="#e3f2fd" stroke="#1976d2" rx="8"/><text x="80" y="20" fill="#1976d2" font-family="Arial, sans-serif" font-size="12" font-weight="bold" text-anchor="middle">
      Kredittap
    </text><text x="80" y="35" fill="#1565c0" font-family="Arial, sans-serif" font-size="10" text-anchor="middle">
      Definitivt tap
    </text></g><g transform="translate(280 320)"><rect width="160" height="50" fill="#fff3e0" stroke="#f57c00" rx="8"/><text x="80" y="20" fill="#f57c00" font-family="Arial, sans-serif" font-size="12" font-weight="bold" text-anchor="middle">
      Skattefradrag
    </text><text x="80" y="35" fill="#ef6c00" font-family="Arial, sans-serif" font-size="10" text-anchor="middle">
      Fradragsrett
    </text></g><g transform="translate(480 320)"><rect width="160" height="50" fill="#f3e5f5" stroke="#7b1fa2" rx="8"/><text x="80" y="20" fill="#7b1fa2" font-family="Arial, sans-serif" font-size="12" font-weight="bold" text-anchor="middle">
      Avsetning
    </text><text x="80" y="35" fill="#6a1b9a" font-family="Arial, sans-serif" font-size="10" text-anchor="middle">
      Forventet tap
    </text></g><text x="400" y="390" fill="#868e96" font-family="Arial, sans-serif" font-size="10" text-anchor="middle">
    Komplett guide til behandling av tap på fordring i norsk regnskap
  </text></svg>