<svg xmlns="http://www.w3.org/2000/svg" width="800" height="500" viewBox="0 0 800 500"><defs><linearGradient id="a" x1="0%" x2="100%" y1="0%" y2="100%"><stop offset="0%" style="stop-color:#e74c3c;stop-opacity:1"/><stop offset="100%" style="stop-color:#c0392b;stop-opacity:1"/></linearGradient><linearGradient id="b" x1="0%" x2="100%" y1="0%" y2="100%"><stop offset="0%" style="stop-color:#3498db;stop-opacity:1"/><stop offset="100%" style="stop-color:#2980b9;stop-opacity:1"/></linearGradient><linearGradient id="c" x1="0%" x2="100%" y1="0%" y2="100%"><stop offset="0%" style="stop-color:#27ae60;stop-opacity:1"/><stop offset="100%" style="stop-color:#229954;stop-opacity:1"/></linearGradient><linearGradient id="d" x1="0%" x2="100%" y1="0%" y2="100%"><stop offset="0%" style="stop-color:#f39c12;stop-opacity:1"/><stop offset="100%" style="stop-color:#e67e22;stop-opacity:1"/></linearGradient></defs><path fill="#f8f9fa" d="M0 0h800v500H0z"/><text x="400" y="30" fill="#2c3e50" font-family="Arial, sans-serif" font-size="24" font-weight="bold" text-anchor="middle">Markedsmessige Vilkår for Aksjonærlån</text><rect width="100" height="120" x="350" y="60" fill="#fff" stroke="#2c3e50" stroke-width="3" rx="5"/><text x="400" y="85" fill="#2c3e50" font-family="Arial, sans-serif" font-size="12" font-weight="bold" text-anchor="middle">LÅNEAVTALE</text><path stroke="#2c3e50" d="M360 95h80"/><path stroke="#bdc3c7" d="M360 105h70M360 115h75M360 125h65M360 135h80M360 145h60M360 155h75M360 165h70"/><rect width="280" height="120" x="50" y="200" fill="url(#a)" stroke="#2c3e50" stroke-width="2" rx="10"/><text x="190" y="225" fill="#fff" font-family="Arial, sans-serif" font-size="16" font-weight="bold" text-anchor="middle">Rentesats</text><circle cx="100" cy="260" r="20" fill="#fff" stroke="#2c3e50" stroke-width="2"/><text x="100" y="267" fill="#e74c3c" font-family="Arial, sans-serif" font-size="14" font-weight="bold" text-anchor="middle">%</text><text x="140" y="245" fill="#fff" font-family="Arial, sans-serif" font-size="12">• Normrente som veiledning</text><text x="140" y="260" fill="#fff" font-family="Arial, sans-serif" font-size="12">• Markedsrente for tilsvarende risiko</text><text x="140" y="275" fill="#fff" font-family="Arial, sans-serif" font-size="12">• Risikojustering ved behov</text><text x="140" y="290" fill="#fff" font-family="Arial, sans-serif" font-size="12">• Årlig vurdering og justering</text><rect width="280" height="120" x="470" y="200" fill="url(#b)" stroke="#2c3e50" stroke-width="2" rx="10"/><text x="610" y="225" fill="#fff" font-family="Arial, sans-serif" font-size="16" font-weight="bold" text-anchor="middle">Lånebetingelser</text><circle cx="520" cy="260" r="20" fill="#fff" stroke="#2c3e50" stroke-width="2"/><path fill="#3498db" d="m510 255 5-5h10l5 5-5 10h-10Z"/><text x="560" y="245" fill="#fff" font-family="Arial, sans-serif" font-size="12">• Klare nedbetalingsplaner</text><text x="560" y="260" fill="#fff" font-family="Arial, sans-serif" font-size="12">• Definerte forfallstidspunkter</text><text x="560" y="275" fill="#fff" font-family="Arial, sans-serif" font-size="12">• Oppsigelsesvilkår</text><text x="560" y="290" fill="#fff" font-family="Arial, sans-serif" font-size="12">• Misligholdsbestemmelser</text><rect width="280" height="120" x="50" y="340" fill="url(#c)" stroke="#2c3e50" stroke-width="2" rx="10"/><text x="190" y="365" fill="#fff" font-family="Arial, sans-serif" font-size="16" font-weight="bold" text-anchor="middle">Sikkerhet</text><circle cx="100" cy="400" r="20" fill="#fff" stroke="#2c3e50" stroke-width="2"/><path fill="#27ae60" d="m90 395 10-10 10 10v15H90Z"/><circle cx="100" cy="402" r="3" fill="#fff"/><text x="140" y="385" fill="#fff" font-family="Arial, sans-serif" font-size="12">• Pantesikkerhet i eiendeler</text><text x="140" y="400" fill="#fff" font-family="Arial, sans-serif" font-size="12">• Kausjon fra tredjeparter</text><text x="140" y="415" fill="#fff" font-family="Arial, sans-serif" font-size="12">• Sikkerhet i aksjer/andeler</text><text x="140" y="430" fill="#fff" font-family="Arial, sans-serif" font-size="12">• Vurdering av sikkerhetens verdi</text><rect width="280" height="120" x="470" y="340" fill="url(#d)" stroke="#2c3e50" stroke-width="2" rx="10"/><text x="610" y="365" fill="#fff" font-family="Arial, sans-serif" font-size="16" font-weight="bold" text-anchor="middle">Dokumentasjon</text><rect width="40" height="30" x="500" y="380" fill="#fff" stroke="#2c3e50" stroke-width="2" rx="3"/><path stroke="#f39c12" stroke-width="2" d="M510 390h20"/><path stroke="#f39c12" d="M510 395h15M510 400h20"/><text x="560" y="385" fill="#fff" font-family="Arial, sans-serif" font-size="12">• Skriftlig låneavtale</text><text x="560" y="400" fill="#fff" font-family="Arial, sans-serif" font-size="12">• Korrekt regnskapsføring</text><text x="560" y="415" fill="#fff" font-family="Arial, sans-serif" font-size="12">• Oppfølging og kontroll</text><text x="560" y="430" fill="#fff" font-family="Arial, sans-serif" font-size="12">• Juridisk gjennomgang</text><path fill="none" stroke="#2c3e50" stroke-width="2" marker-end="url(#e)" d="m350 120-100 70"/><path fill="none" stroke="#2c3e50" stroke-width="2" marker-end="url(#e)" d="m450 120 100 70"/><path fill="none" stroke="#2c3e50" stroke-width="2" marker-end="url(#e)" d="M350 160 250 330"/><path fill="none" stroke="#2c3e50" stroke-width="2" marker-end="url(#e)" d="m450 160 100 170"/><defs><marker id="e" markerHeight="6" markerWidth="8" orient="auto" refX="7" refY="3"><path fill="#2c3e50" d="m0 0 8 3-8 3z"/></marker></defs><rect width="700" height="20" x="50" y="475" fill="#e74c3c" stroke="#c0392b" rx="5"/><text x="400" y="488" fill="#fff" font-family="Arial, sans-serif" font-size="12" font-weight="bold" text-anchor="middle">
    ⚠️ Alle vilkår må være markedsmessige for å unngå skattemessige problemer
  </text></svg>