<svg xmlns="http://www.w3.org/2000/svg" width="800" height="600"><defs><linearGradient id="a" x1="0%" x2="100%" y1="0%" y2="0%"><stop offset="0%" style="stop-color:#6366f1;stop-opacity:1"/><stop offset="100%" style="stop-color:#4f46e5;stop-opacity:1"/></linearGradient><linearGradient id="b" x1="0%" x2="0%" y1="0%" y2="100%"><stop offset="0%" style="stop-color:#0ea5e9;stop-opacity:.3"/><stop offset="100%" style="stop-color:#0284c7;stop-opacity:.3"/></linearGradient><linearGradient id="c" x1="0%" x2="0%" y1="0%" y2="100%"><stop offset="0%" style="stop-color:#8b5cf6;stop-opacity:.3"/><stop offset="100%" style="stop-color:#7c3aed;stop-opacity:.3"/></linearGradient><linearGradient id="d" x1="0%" x2="0%" y1="0%" y2="100%"><stop offset="0%" style="stop-color:#10b981;stop-opacity:.3"/><stop offset="100%" style="stop-color:#059669;stop-opacity:.3"/></linearGradient><linearGradient id="e" x1="0%" x2="0%" y1="0%" y2="100%"><stop offset="0%" style="stop-color:#f59e0b;stop-opacity:.3"/><stop offset="100%" style="stop-color:#d97706;stop-opacity:.3"/></linearGradient></defs><path fill="#f8fafc" d="M0 0h800v600H0z"/><path fill="url(#a)" d="M0 0h800v50H0z"/><text x="400" y="30" fill="#fff" font-family="Arial, sans-serif" font-size="22" font-weight="bold" text-anchor="middle">Teknologiske Løsninger for Kundelisteadministrasjon</text><rect width="200" height="120" x="300" y="200" fill="#fff" stroke="#6366f1" stroke-width="3" rx="12"/><text x="400" y="225" fill="#1f2937" font-family="Arial, sans-serif" font-size="16" font-weight="bold" text-anchor="middle">MODERNE</text><text x="400" y="245" fill="#1f2937" font-family="Arial, sans-serif" font-size="16" font-weight="bold" text-anchor="middle">KUNDELISTE</text><text x="400" y="265" fill="#1f2937" font-family="Arial, sans-serif" font-size="16" font-weight="bold" text-anchor="middle">SYSTEM</text><circle cx="380" cy="290" r="8" fill="#6366f1"/><circle cx="400" cy="290" r="8" fill="#0ea5e9"/><circle cx="420" cy="290" r="8" fill="#8b5cf6"/><rect width="200" height="140" x="50" y="80" fill="url(#b)" stroke="#0ea5e9" stroke-width="2" rx="8"/><text x="150" y="105" fill="#0c4a6e" font-family="Arial, sans-serif" font-size="16" font-weight="bold" text-anchor="middle">CLOUD-LØSNINGER</text><ellipse cx="150" cy="130" fill="#0ea5e9" opacity=".7" rx="25" ry="15"/><ellipse cx="135" cy="125" fill="#0ea5e9" opacity=".7" rx="15" ry="10"/><ellipse cx="165" cy="125" fill="#0ea5e9" opacity=".7" rx="15" ry="10"/><circle cx="70" cy="155" r="3" fill="#0ea5e9"/><text x="80" y="160" fill="#374151" font-family="Arial, sans-serif" font-size="11">Skalerbare systemer</text><circle cx="70" cy="175" r="3" fill="#0ea5e9"/><text x="80" y="180" fill="#374151" font-family="Arial, sans-serif" font-size="11">Automatisk backup</text><circle cx="70" cy="195" r="3" fill="#0ea5e9"/><text x="80" y="200" fill="#374151" font-family="Arial, sans-serif" font-size="11">Tilgang overalt</text><rect width="200" height="140" x="550" y="80" fill="url(#c)" stroke="#8b5cf6" stroke-width="2" rx="8"/><text x="650" y="105" fill="#581c87" font-family="Arial, sans-serif" font-size="16" font-weight="bold" text-anchor="middle">AI &amp; MASKINLÆRING</text><circle cx="650" cy="130" r="20" fill="none" stroke="#8b5cf6" stroke-width="2"/><path fill="none" stroke="#8b5cf6" stroke-width="2" d="M635 130q15-15 30 0M635 130q15 15 30 0"/><circle cx="645" cy="125" r="2" fill="#8b5cf6"/><circle cx="655" cy="125" r="2" fill="#8b5cf6"/><circle cx="645" cy="135" r="2" fill="#8b5cf6"/><circle cx="655" cy="135" r="2" fill="#8b5cf6"/><circle cx="570" cy="155" r="3" fill="#8b5cf6"/><text x="580" y="160" fill="#374151" font-family="Arial, sans-serif" font-size="11">Prediktiv analyse</text><circle cx="570" cy="175" r="3" fill="#8b5cf6"/><text x="580" y="180" fill="#374151" font-family="Arial, sans-serif" font-size="11">Auto-segmentering</text><circle cx="570" cy="195" r="3" fill="#8b5cf6"/><text x="580" y="200" fill="#374151" font-family="Arial, sans-serif" font-size="11">Risikovurdering</text><rect width="200" height="140" x="50" y="380" fill="url(#d)" stroke="#10b981" stroke-width="2" rx="8"/><text x="150" y="405" fill="#064e3b" font-family="Arial, sans-serif" font-size="16" font-weight="bold" text-anchor="middle">MOBILE APPER</text><rect width="30" height="50" x="135" y="420" fill="none" stroke="#10b981" stroke-width="2" rx="8"/><path fill="#10b981" d="M140 425h20v30h-20z" opacity=".3"/><circle cx="150" cy="460" r="3" fill="#10b981"/><circle cx="70" cy="455" r="3" fill="#10b981"/><text x="80" y="460" fill="#374151" font-family="Arial, sans-serif" font-size="11">Tilgang på farten</text><circle cx="70" cy="475" r="3" fill="#10b981"/><text x="80" y="480" fill="#374151" font-family="Arial, sans-serif" font-size="11">Sanntidsdata</text><circle cx="70" cy="495" r="3" fill="#10b981"/><text x="80" y="500" fill="#374151" font-family="Arial, sans-serif" font-size="11">Offline-modus</text><rect width="200" height="140" x="550" y="380" fill="url(#e)" stroke="#f59e0b" stroke-width="2" rx="8"/><text x="650" y="405" fill="#92400e" font-family="Arial, sans-serif" font-size="16" font-weight="bold" text-anchor="middle">API-INTEGRASJONER</text><circle cx="630" cy="435" r="8" fill="#f59e0b"/><circle cx="670" cy="435" r="8" fill="#f59e0b"/><path stroke="#f59e0b" stroke-width="3" d="M638 435h24"/><circle cx="650" cy="420" r="6" fill="#f59e0b"/><circle cx="650" cy="450" r="6" fill="#f59e0b"/><path stroke="#f59e0b" stroke-width="2" d="M650 426v18"/><circle cx="570" cy="455" r="3" fill="#f59e0b"/><text x="580" y="460" fill="#374151" font-family="Arial, sans-serif" font-size="11">ERP-systemer</text><circle cx="570" cy="475" r="3" fill="#f59e0b"/><text x="580" y="480" fill="#374151" font-family="Arial, sans-serif" font-size="11">Regnskapssystemer</text><circle cx="570" cy="495" r="3" fill="#f59e0b"/><text x="580" y="500" fill="#374151" font-family="Arial, sans-serif" font-size="11">CRM-plattformer</text><rect width="200" height="100" x="50" y="250" fill="#fef3c7" stroke="#f59e0b" stroke-width="2" rx="8"/><text x="150" y="275" fill="#92400e" font-family="Arial, sans-serif" font-size="16" font-weight="bold" text-anchor="middle">AUTOMATISERING</text><circle cx="150" cy="300" r="12" fill="none" stroke="#f59e0b" stroke-width="2"/><path fill="#f59e0b" d="m150 290 5 5-5 5-5-5zM150 310l5-5-5-5-5 5z"/><path fill="#f59e0b" d="m140 300 5-5 5 5-5 5zM160 300l-5-5-5 5 5 5z"/><circle cx="70" cy="325" r="3" fill="#f59e0b"/><text x="80" y="330" fill="#374151" font-family="Arial, sans-serif" font-size="11">Automatiske oppdateringer</text><rect width="200" height="100" x="550" y="250" fill="#fef2f2" stroke="#dc2626" stroke-width="2" rx="8"/><text x="650" y="275" fill="#991b1b" font-family="Arial, sans-serif" font-size="16" font-weight="bold" text-anchor="middle">SIKKERHET &amp; COMPLIANCE</text><path fill="#dc2626" d="m650 285-10 10v15q0 5 10 5t10-5v-15Z" opacity=".7"/><path fill="none" stroke="#fff" stroke-width="2" d="m645 300 3 3 7-7"/><circle cx="570" cy="325" r="3" fill="#dc2626"/><text x="580" y="330" fill="#374151" font-family="Arial, sans-serif" font-size="11">GDPR-compliance</text><path fill="none" stroke="#0ea5e9" stroke-width="2" marker-end="url(#f)" d="m250 150 70 70"/><path fill="none" stroke="#8b5cf6" stroke-width="2" marker-end="url(#g)" d="m550 150-70 70"/><path fill="none" stroke="#10b981" stroke-width="2" marker-end="url(#h)" d="m250 450 70-130"/><path fill="none" stroke="#f59e0b" stroke-width="2" marker-end="url(#i)" d="m550 450-70-130"/><path fill="none" stroke="#f59e0b" stroke-width="2" marker-end="url(#j)" d="m250 300 50-40"/><path fill="none" stroke="#dc2626" stroke-width="2" marker-end="url(#k)" d="m550 300-50-40"/><defs><marker id="f" markerHeight="6" markerWidth="8" orient="auto" refX="7" refY="3"><path fill="#0ea5e9" d="m0 0 8 3-8 3z"/></marker><marker id="g" markerHeight="6" markerWidth="8" orient="auto" refX="7" refY="3"><path fill="#8b5cf6" d="m0 0 8 3-8 3z"/></marker><marker id="h" markerHeight="6" markerWidth="8" orient="auto" refX="7" refY="3"><path fill="#10b981" d="m0 0 8 3-8 3z"/></marker><marker id="i" markerHeight="6" markerWidth="8" orient="auto" refX="7" refY="3"><path fill="#f59e0b" d="m0 0 8 3-8 3z"/></marker><marker id="j" markerHeight="6" markerWidth="8" orient="auto" refX="7" refY="3"><path fill="#f59e0b" d="m0 0 8 3-8 3z"/></marker><marker id="k" markerHeight="6" markerWidth="8" orient="auto" refX="7" refY="3"><path fill="#dc2626" d="m0 0 8 3-8 3z"/></marker></defs><rect width="700" height="50" x="50" y="540" fill="#f0f9ff" stroke="#3b82f6" stroke-width="2" rx="8"/><text x="400" y="565" fill="#1f2937" font-family="Arial, sans-serif" font-size="16" font-weight="bold" text-anchor="middle">Teknologifordeler: Effektivitet, Nøyaktighet &amp; Skalerbarhet</text><text x="400" y="580" fill="#374151" font-family="Arial, sans-serif" font-size="12" text-anchor="middle">Moderne teknologi transformerer kundelisteadministrasjon fra manuell til intelligent automatisering</text></svg>