<svg width="800" height="600" xmlns="http://www.w3.org/2000/svg">
  <defs>
    <linearGradient id="techGrad" x1="0%" y1="0%" x2="100%" y2="0%">
      <stop offset="0%" style="stop-color:#6366f1;stop-opacity:1" />
      <stop offset="100%" style="stop-color:#4f46e5;stop-opacity:1" />
    </linearGradient>
    <linearGradient id="cloudGrad" x1="0%" y1="0%" x2="0%" y2="100%">
      <stop offset="0%" style="stop-color:#0ea5e9;stop-opacity:0.3" />
      <stop offset="100%" style="stop-color:#0284c7;stop-opacity:0.3" />
    </linearGradient>
    <linearGradient id="aiGrad" x1="0%" y1="0%" x2="0%" y2="100%">
      <stop offset="0%" style="stop-color:#8b5cf6;stop-opacity:0.3" />
      <stop offset="100%" style="stop-color:#7c3aed;stop-opacity:0.3" />
    </linearGradient>
    <linearGradient id="mobileGrad" x1="0%" y1="0%" x2="0%" y2="100%">
      <stop offset="0%" style="stop-color:#10b981;stop-opacity:0.3" />
      <stop offset="100%" style="stop-color:#059669;stop-opacity:0.3" />
    </linearGradient>
    <linearGradient id="apiGrad" x1="0%" y1="0%" x2="0%" y2="100%">
      <stop offset="0%" style="stop-color:#f59e0b;stop-opacity:0.3" />
      <stop offset="100%" style="stop-color:#d97706;stop-opacity:0.3" />
    </linearGradient>
  </defs>
  

  <rect width="800" height="600" fill="#f8fafc"/>
  

  <rect x="0" y="0" width="800" height="50" fill="url(#techGrad)"/>
  <text x="400" y="30" text-anchor="middle" fill="white" font-family="Arial, sans-serif" font-size="22" font-weight="bold">Teknologiske Løsninger for Kundelisteadministrasjon</text>
  

  <rect x="300" y="200" width="200" height="120" fill="white" stroke="#6366f1" stroke-width="3" rx="12"/>
  <text x="400" y="225" text-anchor="middle" fill="#1f2937" font-family="Arial, sans-serif" font-size="16" font-weight="bold">MODERNE</text>
  <text x="400" y="245" text-anchor="middle" fill="#1f2937" font-family="Arial, sans-serif" font-size="16" font-weight="bold">KUNDELISTE</text>
  <text x="400" y="265" text-anchor="middle" fill="#1f2937" font-family="Arial, sans-serif" font-size="16" font-weight="bold">SYSTEM</text>
  

  <circle cx="380" cy="290" r="8" fill="#6366f1"/>
  <circle cx="400" cy="290" r="8" fill="#0ea5e9"/>
  <circle cx="420" cy="290" r="8" fill="#8b5cf6"/>
  

  <rect x="50" y="80" width="200" height="140" fill="url(#cloudGrad)" stroke="#0ea5e9" stroke-width="2" rx="8"/>
  <text x="150" y="105" text-anchor="middle" fill="#0c4a6e" font-family="Arial, sans-serif" font-size="16" font-weight="bold">CLOUD-LØSNINGER</text>
  

  <ellipse cx="150" cy="130" rx="25" ry="15" fill="#0ea5e9" opacity="0.7"/>
  <ellipse cx="135" cy="125" rx="15" ry="10" fill="#0ea5e9" opacity="0.7"/>
  <ellipse cx="165" cy="125" rx="15" ry="10" fill="#0ea5e9" opacity="0.7"/>
  
  <circle cx="70" cy="155" r="3" fill="#0ea5e9"/>
  <text x="80" y="160" fill="#374151" font-family="Arial, sans-serif" font-size="11">Skalerbare systemer</text>
  
  <circle cx="70" cy="175" r="3" fill="#0ea5e9"/>
  <text x="80" y="180" fill="#374151" font-family="Arial, sans-serif" font-size="11">Automatisk backup</text>
  
  <circle cx="70" cy="195" r="3" fill="#0ea5e9"/>
  <text x="80" y="200" fill="#374151" font-family="Arial, sans-serif" font-size="11">Tilgang overalt</text>
  

  <rect x="550" y="80" width="200" height="140" fill="url(#aiGrad)" stroke="#8b5cf6" stroke-width="2" rx="8"/>
  <text x="650" y="105" text-anchor="middle" fill="#581c87" font-family="Arial, sans-serif" font-size="16" font-weight="bold">AI &amp; MASKINLÆRING</text>
  

  <circle cx="650" cy="130" r="20" fill="none" stroke="#8b5cf6" stroke-width="2"/>
  <path d="M 635 130 Q 650 115 665 130" stroke="#8b5cf6" stroke-width="2" fill="none"/>
  <path d="M 635 130 Q 650 145 665 130" stroke="#8b5cf6" stroke-width="2" fill="none"/>
  <circle cx="645" cy="125" r="2" fill="#8b5cf6"/>
  <circle cx="655" cy="125" r="2" fill="#8b5cf6"/>
  <circle cx="645" cy="135" r="2" fill="#8b5cf6"/>
  <circle cx="655" cy="135" r="2" fill="#8b5cf6"/>
  
  <circle cx="570" cy="155" r="3" fill="#8b5cf6"/>
  <text x="580" y="160" fill="#374151" font-family="Arial, sans-serif" font-size="11">Prediktiv analyse</text>
  
  <circle cx="570" cy="175" r="3" fill="#8b5cf6"/>
  <text x="580" y="180" fill="#374151" font-family="Arial, sans-serif" font-size="11">Auto-segmentering</text>
  
  <circle cx="570" cy="195" r="3" fill="#8b5cf6"/>
  <text x="580" y="200" fill="#374151" font-family="Arial, sans-serif" font-size="11">Risikovurdering</text>
  

  <rect x="50" y="380" width="200" height="140" fill="url(#mobileGrad)" stroke="#10b981" stroke-width="2" rx="8"/>
  <text x="150" y="405" text-anchor="middle" fill="#064e3b" font-family="Arial, sans-serif" font-size="16" font-weight="bold">MOBILE APPER</text>
  

  <rect x="135" y="420" width="30" height="50" rx="8" fill="none" stroke="#10b981" stroke-width="2"/>
  <rect x="140" y="425" width="20" height="30" fill="#10b981" opacity="0.3"/>
  <circle cx="150" cy="460" r="3" fill="#10b981"/>
  
  <circle cx="70" cy="455" r="3" fill="#10b981"/>
  <text x="80" y="460" fill="#374151" font-family="Arial, sans-serif" font-size="11">Tilgang på farten</text>
  
  <circle cx="70" cy="475" r="3" fill="#10b981"/>
  <text x="80" y="480" fill="#374151" font-family="Arial, sans-serif" font-size="11">Sanntidsdata</text>
  
  <circle cx="70" cy="495" r="3" fill="#10b981"/>
  <text x="80" y="500" fill="#374151" font-family="Arial, sans-serif" font-size="11">Offline-modus</text>
  

  <rect x="550" y="380" width="200" height="140" fill="url(#apiGrad)" stroke="#f59e0b" stroke-width="2" rx="8"/>
  <text x="650" y="405" text-anchor="middle" fill="#92400e" font-family="Arial, sans-serif" font-size="16" font-weight="bold">API-INTEGRASJONER</text>
  

  <circle cx="630" cy="435" r="8" fill="#f59e0b"/>
  <circle cx="670" cy="435" r="8" fill="#f59e0b"/>
  <path d="M 638 435 L 662 435" stroke="#f59e0b" stroke-width="3"/>
  <circle cx="650" cy="420" r="6" fill="#f59e0b"/>
  <circle cx="650" cy="450" r="6" fill="#f59e0b"/>
  <path d="M 650 426 L 650 444" stroke="#f59e0b" stroke-width="2"/>
  
  <circle cx="570" cy="455" r="3" fill="#f59e0b"/>
  <text x="580" y="460" fill="#374151" font-family="Arial, sans-serif" font-size="11">ERP-systemer</text>
  
  <circle cx="570" cy="475" r="3" fill="#f59e0b"/>
  <text x="580" y="480" fill="#374151" font-family="Arial, sans-serif" font-size="11">Regnskapssystemer</text>
  
  <circle cx="570" cy="495" r="3" fill="#f59e0b"/>
  <text x="580" y="500" fill="#374151" font-family="Arial, sans-serif" font-size="11">CRM-plattformer</text>
  

  <rect x="50" y="250" width="200" height="100" fill="#fef3c7" stroke="#f59e0b" stroke-width="2" rx="8"/>
  <text x="150" y="275" text-anchor="middle" fill="#92400e" font-family="Arial, sans-serif" font-size="16" font-weight="bold">AUTOMATISERING</text>
  

  <circle cx="150" cy="300" r="12" fill="none" stroke="#f59e0b" stroke-width="2"/>
  <polygon points="150,290 155,295 150,300 145,295" fill="#f59e0b"/>
  <polygon points="150,310 155,305 150,300 145,305" fill="#f59e0b"/>
  <polygon points="140,300 145,295 150,300 145,305" fill="#f59e0b"/>
  <polygon points="160,300 155,295 150,300 155,305" fill="#f59e0b"/>
  
  <circle cx="70" cy="325" r="3" fill="#f59e0b"/>
  <text x="80" y="330" fill="#374151" font-family="Arial, sans-serif" font-size="11">Automatiske oppdateringer</text>
  

  <rect x="550" y="250" width="200" height="100" fill="#fef2f2" stroke="#dc2626" stroke-width="2" rx="8"/>
  <text x="650" y="275" text-anchor="middle" fill="#991b1b" font-family="Arial, sans-serif" font-size="16" font-weight="bold">SIKKERHET &amp; COMPLIANCE</text>
  

  <path d="M 650 285 L 640 295 L 640 310 Q 640 315 650 315 Q 660 315 660 310 L 660 295 Z" fill="#dc2626" opacity="0.7"/>
  <path d="M 645 300 L 648 303 L 655 296" stroke="white" stroke-width="2" fill="none"/>
  
  <circle cx="570" cy="325" r="3" fill="#dc2626"/>
  <text x="580" y="330" fill="#374151" font-family="Arial, sans-serif" font-size="11">GDPR-compliance</text>
  


  <path d="M 250 150 L 320 220" stroke="#0ea5e9" stroke-width="2" fill="none" marker-end="url(#blueArrow)"/>
  

  <path d="M 550 150 L 480 220" stroke="#8b5cf6" stroke-width="2" fill="none" marker-end="url(#purpleArrow)"/>
  

  <path d="M 250 450 L 320 320" stroke="#10b981" stroke-width="2" fill="none" marker-end="url(#greenArrow)"/>
  

  <path d="M 550 450 L 480 320" stroke="#f59e0b" stroke-width="2" fill="none" marker-end="url(#orangeArrow)"/>
  

  <path d="M 250 300 L 300 260" stroke="#f59e0b" stroke-width="2" fill="none" marker-end="url(#orangeArrow2)"/>
  

  <path d="M 550 300 L 500 260" stroke="#dc2626" stroke-width="2" fill="none" marker-end="url(#redArrow)"/>
  

  <defs>
    <marker id="blueArrow" markerWidth="8" markerHeight="6" refX="7" refY="3" orient="auto">
      <polygon points="0 0, 8 3, 0 6" fill="#0ea5e9"/>
    </marker>
    <marker id="purpleArrow" markerWidth="8" markerHeight="6" refX="7" refY="3" orient="auto">
      <polygon points="0 0, 8 3, 0 6" fill="#8b5cf6"/>
    </marker>
    <marker id="greenArrow" markerWidth="8" markerHeight="6" refX="7" refY="3" orient="auto">
      <polygon points="0 0, 8 3, 0 6" fill="#10b981"/>
    </marker>
    <marker id="orangeArrow" markerWidth="8" markerHeight="6" refX="7" refY="3" orient="auto">
      <polygon points="0 0, 8 3, 0 6" fill="#f59e0b"/>
    </marker>
    <marker id="orangeArrow2" markerWidth="8" markerHeight="6" refX="7" refY="3" orient="auto">
      <polygon points="0 0, 8 3, 0 6" fill="#f59e0b"/>
    </marker>
    <marker id="redArrow" markerWidth="8" markerHeight="6" refX="7" refY="3" orient="auto">
      <polygon points="0 0, 8 3, 0 6" fill="#dc2626"/>
    </marker>
  </defs>
  

  <rect x="50" y="540" width="700" height="50" fill="#f0f9ff" stroke="#3b82f6" stroke-width="2" rx="8"/>
  <text x="400" y="565" text-anchor="middle" fill="#1f2937" font-family="Arial, sans-serif" font-size="16" font-weight="bold">Teknologifordeler: Effektivitet, Nøyaktighet &amp; Skalerbarhet</text>
  <text x="400" y="580" text-anchor="middle" fill="#374151" font-family="Arial, sans-serif" font-size="12">Moderne teknologi transformerer kundelisteadministrasjon fra manuell til intelligent automatisering</text>
</svg>