<svg xmlns="http://www.w3.org/2000/svg" width="800" height="600"><defs><linearGradient id="a" x1="0%" x2="100%" y1="0%" y2="0%"><stop offset="0%" style="stop-color:#3b82f6;stop-opacity:1"/><stop offset="100%" style="stop-color:#1d4ed8;stop-opacity:1"/></linearGradient><linearGradient id="b" x1="0%" x2="0%" y1="0%" y2="100%"><stop offset="0%" style="stop-color:#10b981;stop-opacity:.2"/><stop offset="100%" style="stop-color:#059669;stop-opacity:.2"/></linearGradient><linearGradient id="c" x1="0%" x2="0%" y1="0%" y2="100%"><stop offset="0%" style="stop-color:#f59e0b;stop-opacity:.2"/><stop offset="100%" style="stop-color:#d97706;stop-opacity:.2"/></linearGradient><linearGradient id="d" x1="0%" x2="0%" y1="0%" y2="100%"><stop offset="0%" style="stop-color:#8b5cf6;stop-opacity:.2"/><stop offset="100%" style="stop-color:#7c3aed;stop-opacity:.2"/></linearGradient></defs><path fill="#f8fafc" d="M0 0h800v600H0z"/><path fill="url(#a)" d="M0 0h800v60H0z"/><text x="400" y="35" fill="#fff" font-family="Arial, sans-serif" font-size="24" font-weight="bold" text-anchor="middle">Innhold i en Kundeliste</text><rect width="200" height="200" x="300" y="200" fill="#fff" stroke="#3b82f6" stroke-width="3" rx="10"/><text x="400" y="225" fill="#1f2937" font-family="Arial, sans-serif" font-size="16" font-weight="bold" text-anchor="middle">KUNDELISTE</text><rect width="160" height="120" x="320" y="240" fill="#f1f5f9" stroke="#cbd5e1" rx="4"/><rect width="140" height="15" x="330" y="250" fill="#3b82f6" rx="2"/><rect width="140" height="12" x="330" y="270" fill="#e2e8f0" rx="1"/><rect width="140" height="12" x="330" y="285" fill="#f8fafc" rx="1"/><rect width="140" height="12" x="330" y="300" fill="#e2e8f0" rx="1"/><rect width="140" height="12" x="330" y="315" fill="#f8fafc" rx="1"/><rect width="140" height="12" x="330" y="330" fill="#e2e8f0" rx="1"/><rect width="140" height="12" x="330" y="345" fill="#f8fafc" rx="1"/><rect width="250" height="180" x="50" y="80" fill="url(#b)" stroke="#10b981" stroke-width="2" rx="8"/><text x="175" y="105" fill="#065f46" font-family="Arial, sans-serif" font-size="16" font-weight="bold" text-anchor="middle">Grunnleggende Opplysninger</text><circle cx="80" cy="130" r="6" fill="#10b981"/><text x="95" y="135" fill="#374151" font-family="Arial, sans-serif" font-size="12" font-weight="bold">Kundenummer</text><circle cx="80" cy="150" r="6" fill="#10b981"/><text x="95" y="155" fill="#374151" font-family="Arial, sans-serif" font-size="12" font-weight="bold">Firmanavn/Personnavn</text><circle cx="80" cy="170" r="6" fill="#10b981"/><text x="95" y="175" fill="#374151" font-family="Arial, sans-serif" font-size="12" font-weight="bold">Organisasjonsnummer</text><circle cx="80" cy="190" r="6" fill="#10b981"/><text x="95" y="195" fill="#374151" font-family="Arial, sans-serif" font-size="12" font-weight="bold">Kontaktinformasjon</text><circle cx="80" cy="210" r="6" fill="#10b981"/><text x="95" y="215" fill="#374151" font-family="Arial, sans-serif" font-size="12" font-weight="bold">Betalingsbetingelser</text><circle cx="80" cy="230" r="6" fill="#10b981"/><text x="95" y="235" fill="#374151" font-family="Arial, sans-serif" font-size="12" font-weight="bold">Registreringsdato</text><rect width="250" height="180" x="500" y="80" fill="url(#c)" stroke="#f59e0b" stroke-width="2" rx="8"/><text x="625" y="105" fill="#92400e" font-family="Arial, sans-serif" font-size="16" font-weight="bold" text-anchor="middle">Økonomiske Opplysninger</text><circle cx="530" cy="130" r="6" fill="#f59e0b"/><text x="545" y="135" fill="#374151" font-family="Arial, sans-serif" font-size="12" font-weight="bold">Kredittgrense</text><circle cx="530" cy="150" r="6" fill="#f59e0b"/><text x="545" y="155" fill="#374151" font-family="Arial, sans-serif" font-size="12" font-weight="bold">Utestående fordringer</text><circle cx="530" cy="170" r="6" fill="#f59e0b"/><text x="545" y="175" fill="#374151" font-family="Arial, sans-serif" font-size="12" font-weight="bold">Betalingshistorikk</text><circle cx="530" cy="190" r="6" fill="#f59e0b"/><text x="545" y="195" fill="#374151" font-family="Arial, sans-serif" font-size="12" font-weight="bold">Total omsetning</text><circle cx="530" cy="210" r="6" fill="#f59e0b"/><text x="545" y="215" fill="#374151" font-family="Arial, sans-serif" font-size="12" font-weight="bold">Siste transaksjon</text><circle cx="530" cy="230" r="6" fill="#f59e0b"/><text x="545" y="235" fill="#374151" font-family="Arial, sans-serif" font-size="12" font-weight="bold">Gjennomsnittlig kjøp</text><rect width="250" height="160" x="50" y="420" fill="url(#d)" stroke="#8b5cf6" stroke-width="2" rx="8"/><text x="175" y="445" fill="#5b21b6" font-family="Arial, sans-serif" font-size="16" font-weight="bold" text-anchor="middle">Segmentering &amp; Kategorisering</text><circle cx="80" cy="470" r="6" fill="#8b5cf6"/><text x="95" y="475" fill="#374151" font-family="Arial, sans-serif" font-size="12" font-weight="bold">Kundekategori</text><circle cx="80" cy="490" r="6" fill="#8b5cf6"/><text x="95" y="495" fill="#374151" font-family="Arial, sans-serif" font-size="12" font-weight="bold">Bransje</text><circle cx="80" cy="510" r="6" fill="#8b5cf6"/><text x="95" y="515" fill="#374151" font-family="Arial, sans-serif" font-size="12" font-weight="bold">Geografisk område</text><circle cx="80" cy="530" r="6" fill="#8b5cf6"/><text x="95" y="535" fill="#374151" font-family="Arial, sans-serif" font-size="12" font-weight="bold">ABC-klassifisering</text><circle cx="80" cy="550" r="6" fill="#8b5cf6"/><text x="95" y="555" fill="#374151" font-family="Arial, sans-serif" font-size="12" font-weight="bold">Risikovurdering</text><rect width="250" height="160" x="500" y="420" fill="#fef3c7" stroke="#f59e0b" stroke-width="2" rx="8"/><text x="625" y="445" fill="#92400e" font-family="Arial, sans-serif" font-size="16" font-weight="bold" text-anchor="middle">Status &amp; Aktivitet</text><circle cx="530" cy="470" r="6" fill="#f59e0b"/><text x="545" y="475" fill="#374151" font-family="Arial, sans-serif" font-size="12" font-weight="bold">Kundestatus</text><circle cx="530" cy="490" r="6" fill="#f59e0b"/><text x="545" y="495" fill="#374151" font-family="Arial, sans-serif" font-size="12" font-weight="bold">Aktivitetsnivå</text><circle cx="530" cy="510" r="6" fill="#f59e0b"/><text x="545" y="515" fill="#374151" font-family="Arial, sans-serif" font-size="12" font-weight="bold">Siste kontakt</text><circle cx="530" cy="530" r="6" fill="#f59e0b"/><text x="545" y="535" fill="#374151" font-family="Arial, sans-serif" font-size="12" font-weight="bold">Kampanjerespons</text><circle cx="530" cy="550" r="6" fill="#f59e0b"/><text x="545" y="555" fill="#374151" font-family="Arial, sans-serif" font-size="12" font-weight="bold">Kundetilfredshet</text><path fill="none" stroke="#10b981" stroke-width="2" marker-end="url(#e)" d="m250 170 70 50"/><path fill="none" stroke="#f59e0b" stroke-width="2" marker-end="url(#f)" d="m550 170-70 50"/><path fill="none" stroke="#8b5cf6" stroke-width="2" marker-end="url(#g)" d="m250 450 70-70"/><path fill="none" stroke="#f59e0b" stroke-width="2" marker-end="url(#h)" d="m550 450-70-70"/><defs><marker id="e" markerHeight="6" markerWidth="8" orient="auto" refX="7" refY="3"><path fill="#10b981" d="m0 0 8 3-8 3z"/></marker><marker id="f" markerHeight="6" markerWidth="8" orient="auto" refX="7" refY="3"><path fill="#f59e0b" d="m0 0 8 3-8 3z"/></marker><marker id="h" markerHeight="6" markerWidth="8" orient="auto" refX="7" refY="3"><path fill="#f59e0b" d="m0 0 8 3-8 3z"/></marker><marker id="g" markerHeight="6" markerWidth="8" orient="auto" refX="7" refY="3"><path fill="#8b5cf6" d="m0 0 8 3-8 3z"/></marker></defs><text x="400" y="375" fill="#1f2937" font-family="Arial, sans-serif" font-size="12" font-weight="bold" text-anchor="middle">Komplett oversikt</text><text x="400" y="390" fill="#1f2937" font-family="Arial, sans-serif" font-size="12" font-weight="bold" text-anchor="middle">over kundebase</text></svg>