<svg xmlns="http://www.w3.org/2000/svg" width="800" height="400"><defs><linearGradient id="a" x1="0%" x2="100%" y1="0%" y2="100%"><stop offset="0%" style="stop-color:#f8f9fa;stop-opacity:1"/><stop offset="100%" style="stop-color:#e9ecef;stop-opacity:1"/></linearGradient><linearGradient id="b" x1="0%" x2="100%" y1="0%" y2="100%"><stop offset="0%" style="stop-color:#007bff;stop-opacity:1"/><stop offset="100%" style="stop-color:#0056b3;stop-opacity:1"/></linearGradient><linearGradient id="d" x1="0%" x2="100%" y1="0%" y2="100%"><stop offset="0%" style="stop-color:#28a745;stop-opacity:1"/><stop offset="100%" style="stop-color:#1e7e34;stop-opacity:1"/></linearGradient></defs><path fill="url(#a)" d="M0 0h800v400H0z"/><text x="400" y="40" fill="#212529" font-family="Arial, sans-serif" font-size="28" font-weight="bold" text-anchor="middle">
    Utkontraktering av Regnskapsoppgaver
  </text><rect width="120" height="80" x="50" y="100" fill="url(#b)" rx="5"/><path fill="#fff" d="M60 110h15v15H60zM80 110h15v15H80zM100 110h15v15h-15zM120 110h15v15h-15zM140 110h15v15h-15zM60 130h15v15H60zM80 130h15v15H80zM100 130h15v15h-15zM120 130h15v15h-15zM140 130h15v15h-15zM60 150h15v15H60zM80 150h15v15H80zM100 150h15v15h-15zM120 150h15v15h-15zM140 150h15v15h-15z" opacity=".8"/><text x="110" y="200" fill="#212529" font-family="Arial, sans-serif" font-size="14" font-weight="bold" text-anchor="middle">
    Deres Bedrift
  </text><path fill="none" stroke="#dc3545" stroke-width="3" marker-end="url(#c)" d="M200 140h80l-10-10m10 10-10 10"/><defs><marker id="c" markerHeight="7" markerWidth="10" orient="auto" refX="9" refY="3.5"><path fill="#dc3545" d="m0 0 10 3.5L0 7z"/></marker></defs><rect width="120" height="80" x="320" y="100" fill="url(#d)" rx="5"/><path fill="#fff" d="M330 110h15v15h-15zM350 110h15v15h-15zM370 110h15v15h-15zM390 110h15v15h-15zM410 110h15v15h-15zM330 130h15v15h-15zM350 130h15v15h-15zM370 130h15v15h-15zM390 130h15v15h-15zM410 130h15v15h-15zM330 150h15v15h-15zM350 150h15v15h-15zM370 150h15v15h-15zM390 150h15v15h-15zM410 150h15v15h-15z" opacity=".8"/><text x="380" y="200" fill="#212529" font-family="Arial, sans-serif" font-size="14" font-weight="bold" text-anchor="middle">
    Regnskapsleverandør
  </text><rect width="120" height="30" x="500" y="80" fill="#ffc107" rx="3"/><text x="560" y="100" fill="#212529" font-family="Arial, sans-serif" font-size="12" text-anchor="middle">
    Bokføring
  </text><rect width="120" height="30" x="500" y="120" fill="#17a2b8" rx="3"/><text x="560" y="140" fill="#fff" font-family="Arial, sans-serif" font-size="12" text-anchor="middle">
    MVA-rapportering
  </text><rect width="120" height="30" x="500" y="160" fill="#6f42c1" rx="3"/><text x="560" y="180" fill="#fff" font-family="Arial, sans-serif" font-size="12" text-anchor="middle">
    Årsregnskap
  </text><rect width="120" height="30" x="500" y="200" fill="#fd7e14" rx="3"/><text x="560" y="220" fill="#fff" font-family="Arial, sans-serif" font-size="12" text-anchor="middle">
    Økonomisk rådgivning
  </text><text x="400" y="280" fill="#212529" font-family="Arial, sans-serif" font-size="18" font-weight="bold" text-anchor="middle">
    Fordeler med Utkontraktering
  </text><rect width="140" height="60" x="50" y="300" fill="#d4edda" stroke="#28a745" stroke-width="2" rx="5"/><text x="120" y="320" fill="#155724" font-family="Arial, sans-serif" font-size="12" font-weight="bold" text-anchor="middle">
    Kostnadsbesparelser
  </text><text x="120" y="335" fill="#155724" font-family="Arial, sans-serif" font-size="10" text-anchor="middle">
    Reduserte lønns- og
  </text><text x="120" y="348" fill="#155724" font-family="Arial, sans-serif" font-size="10" text-anchor="middle">
    infrastrukturkostnader
  </text><rect width="140" height="60" x="210" y="300" fill="#cce5ff" stroke="#007bff" stroke-width="2" rx="5"/><text x="280" y="320" fill="#004085" font-family="Arial, sans-serif" font-size="12" font-weight="bold" text-anchor="middle">
    Ekspertise
  </text><text x="280" y="335" fill="#004085" font-family="Arial, sans-serif" font-size="10" text-anchor="middle">
    Tilgang til spesialisert
  </text><text x="280" y="348" fill="#004085" font-family="Arial, sans-serif" font-size="10" text-anchor="middle">
    fagkompetanse
  </text><rect width="140" height="60" x="370" y="300" fill="#fff3cd" stroke="#ffc107" stroke-width="2" rx="5"/><text x="440" y="320" fill="#856404" font-family="Arial, sans-serif" font-size="12" font-weight="bold" text-anchor="middle">
    Fokus på Kjernevirksomhet
  </text><text x="440" y="335" fill="#856404" font-family="Arial, sans-serif" font-size="10" text-anchor="middle">
    Mer tid til strategiske
  </text><text x="440" y="348" fill="#856404" font-family="Arial, sans-serif" font-size="10" text-anchor="middle">
    aktiviteter
  </text><rect width="140" height="60" x="530" y="300" fill="#f8d7da" stroke="#dc3545" stroke-width="2" rx="5"/><text x="600" y="320" fill="#721c24" font-family="Arial, sans-serif" font-size="12" font-weight="bold" text-anchor="middle">
    Fleksibilitet
  </text><text x="600" y="335" fill="#721c24" font-family="Arial, sans-serif" font-size="10" text-anchor="middle">
    Skalering etter behov
  </text><text x="600" y="348" fill="#721c24" font-family="Arial, sans-serif" font-size="10" text-anchor="middle">
    og aktivitetsnivå
  </text></svg>