<svg xmlns="http://www.w3.org/2000/svg" width="800" height="600" viewBox="0 0 800 600"><defs><linearGradient id="a" x1="0%" x2="0%" y1="0%" y2="100%"><stop offset="0%" style="stop-color:#3b82f6;stop-opacity:1"/><stop offset="100%" style="stop-color:#1d4ed8;stop-opacity:1"/></linearGradient><linearGradient id="b" x1="0%" x2="0%" y1="0%" y2="100%"><stop offset="0%" style="stop-color:#10b981;stop-opacity:1"/><stop offset="100%" style="stop-color:#059669;stop-opacity:1"/></linearGradient><linearGradient id="c" x1="0%" x2="0%" y1="0%" y2="100%"><stop offset="0%" style="stop-color:#f59e0b;stop-opacity:1"/><stop offset="100%" style="stop-color:#d97706;stop-opacity:1"/></linearGradient><linearGradient id="d" x1="0%" x2="0%" y1="0%" y2="100%"><stop offset="0%" style="stop-color:#8b5cf6;stop-opacity:1"/><stop offset="100%" style="stop-color:#7c3aed;stop-opacity:1"/></linearGradient></defs><path fill="#f8fafc" d="M0 0h800v600H0z"/><text x="400" y="40" fill="#1e40af" font-family="Arial, sans-serif" font-size="24" font-weight="bold" text-anchor="middle">
    Endringsprosess for Virksomhetsinformasjon
  </text><rect width="160" height="120" x="50" y="80" fill="url(#a)" rx="10"/><text x="130" y="105" fill="#fff" font-family="Arial, sans-serif" font-size="14" font-weight="bold" text-anchor="middle">
    Steg 1
  </text><text x="130" y="125" fill="#fff" font-family="Arial, sans-serif" font-size="13" font-weight="bold" text-anchor="middle">
    IDENTIFISER
  </text><text x="130" y="140" fill="#fff" font-family="Arial, sans-serif" font-size="13" font-weight="bold" text-anchor="middle">
    ENDRING
  </text><text x="60" y="160" fill="#fff" font-family="Arial, sans-serif" font-size="10">
    • Navn/adresseendring
  </text><text x="60" y="175" fill="#fff" font-family="Arial, sans-serif" font-size="10">
    • Ny daglig leder
  </text><text x="60" y="190" fill="#fff" font-family="Arial, sans-serif" font-size="10">
    • Aktivitetsendring
  </text><path fill="#64748b" d="m220 140 20-10v5h20v10h-20v5z"/><rect width="160" height="120" x="270" y="80" fill="url(#b)" rx="10"/><text x="350" y="105" fill="#fff" font-family="Arial, sans-serif" font-size="14" font-weight="bold" text-anchor="middle">
    Steg 2
  </text><text x="350" y="125" fill="#fff" font-family="Arial, sans-serif" font-size="13" font-weight="bold" text-anchor="middle">
    FORBERED
  </text><text x="350" y="140" fill="#fff" font-family="Arial, sans-serif" font-size="13" font-weight="bold" text-anchor="middle">
    DOKUMENTER
  </text><text x="280" y="160" fill="#fff" font-family="Arial, sans-serif" font-size="10">
    • Styrevedtak
  </text><text x="280" y="175" fill="#fff" font-family="Arial, sans-serif" font-size="10">
    • Signaturrett
  </text><text x="280" y="190" fill="#fff" font-family="Arial, sans-serif" font-size="10">
    • Vedtektsendring
  </text><path fill="#64748b" d="m440 140 20-10v5h20v10h-20v5z"/><rect width="160" height="120" x="490" y="80" fill="url(#c)" rx="10"/><text x="570" y="105" fill="#fff" font-family="Arial, sans-serif" font-size="14" font-weight="bold" text-anchor="middle">
    Steg 3
  </text><text x="570" y="125" fill="#fff" font-family="Arial, sans-serif" font-size="13" font-weight="bold" text-anchor="middle">
    SEND
  </text><text x="570" y="140" fill="#fff" font-family="Arial, sans-serif" font-size="13" font-weight="bold" text-anchor="middle">
    MELDING
  </text><text x="500" y="160" fill="#fff" font-family="Arial, sans-serif" font-size="10">
    • Altinn eller brev
  </text><text x="500" y="175" fill="#fff" font-family="Arial, sans-serif" font-size="10">
    • Innen 1 måneds frist
  </text><text x="500" y="190" fill="#fff" font-family="Arial, sans-serif" font-size="10">
    • Betal gebyr
  </text><path fill="#64748b" d="m570 210-10 20h5v20h10v-20h5z"/><rect width="160" height="120" x="490" y="260" fill="url(#d)" rx="10"/><text x="570" y="285" fill="#fff" font-family="Arial, sans-serif" font-size="14" font-weight="bold" text-anchor="middle">
    Steg 4
  </text><text x="570" y="305" fill="#fff" font-family="Arial, sans-serif" font-size="13" font-weight="bold" text-anchor="middle">
    BEHANDLING
  </text><text x="500" y="325" fill="#fff" font-family="Arial, sans-serif" font-size="10">
    • Brønnøysundregistrene
  </text><text x="500" y="340" fill="#fff" font-family="Arial, sans-serif" font-size="10">
    • 1-5 virkedager
  </text><text x="500" y="355" fill="#fff" font-family="Arial, sans-serif" font-size="10">
    • Oppdatering av registre
  </text><rect width="380" height="160" x="50" y="240" fill="#fff" stroke="#cbd5e1" stroke-width="2" rx="10"/><text x="240" y="265" fill="#1e40af" font-family="Arial, sans-serif" font-size="16" font-weight="bold" text-anchor="middle">
    Vanlige Endringer og Frister
  </text><path fill="#f1f5f9" stroke="#cbd5e1" d="M70 280h150v25H70z"/><text x="145" y="298" fill="#374151" font-family="Arial, sans-serif" font-size="12" font-weight="bold" text-anchor="middle">
    Endring
  </text><path fill="#f1f5f9" stroke="#cbd5e1" d="M220 280h80v25h-80z"/><text x="260" y="298" fill="#374151" font-family="Arial, sans-serif" font-size="12" font-weight="bold" text-anchor="middle">
    Frist
  </text><path fill="#f1f5f9" stroke="#cbd5e1" d="M300 280h110v25H300z"/><text x="355" y="298" fill="#374151" font-family="Arial, sans-serif" font-size="12" font-weight="bold" text-anchor="middle">
    Gebyr (ca.)
  </text><path fill="#fff" stroke="#cbd5e1" d="M70 305h150v20H70z"/><text x="75" y="318" fill="#374151" font-family="Arial, sans-serif" font-size="10">
    Navneendring
  </text><path fill="#fff" stroke="#cbd5e1" d="M220 305h80v20h-80z"/><text x="260" y="318" fill="#374151" font-family="Arial, sans-serif" font-size="10" text-anchor="middle">
    1 måned
  </text><path fill="#fff" stroke="#cbd5e1" d="M300 305h110v20H300z"/><text x="355" y="318" fill="#374151" font-family="Arial, sans-serif" font-size="10" text-anchor="middle">
    kr 340
  </text><path fill="#f8fafc" stroke="#cbd5e1" d="M70 325h150v20H70z"/><text x="75" y="338" fill="#374151" font-family="Arial, sans-serif" font-size="10">
    Adresseendring
  </text><path fill="#f8fafc" stroke="#cbd5e1" d="M220 325h80v20h-80z"/><text x="260" y="338" fill="#374151" font-family="Arial, sans-serif" font-size="10" text-anchor="middle">
    1 måned
  </text><path fill="#f8fafc" stroke="#cbd5e1" d="M300 325h110v20H300z"/><text x="355" y="338" fill="#374151" font-family="Arial, sans-serif" font-size="10" text-anchor="middle">
    kr 210
  </text><path fill="#fff" stroke="#cbd5e1" d="M70 345h150v20H70z"/><text x="75" y="358" fill="#374151" font-family="Arial, sans-serif" font-size="10">
    Daglig leder
  </text><path fill="#fff" stroke="#cbd5e1" d="M220 345h80v20h-80z"/><text x="260" y="358" fill="#374151" font-family="Arial, sans-serif" font-size="10" text-anchor="middle">
    1 måned
  </text><path fill="#fff" stroke="#cbd5e1" d="M300 345h110v20H300z"/><text x="355" y="358" fill="#374151" font-family="Arial, sans-serif" font-size="10" text-anchor="middle">
    kr 210
  </text><path fill="#f8fafc" stroke="#cbd5e1" d="M70 365h150v20H70z"/><text x="75" y="378" fill="#374151" font-family="Arial, sans-serif" font-size="10">
    Aktivitetsendring
  </text><path fill="#f8fafc" stroke="#cbd5e1" d="M220 365h80v20h-80z"/><text x="260" y="378" fill="#374151" font-family="Arial, sans-serif" font-size="10" text-anchor="middle">
    1 måned
  </text><path fill="#f8fafc" stroke="#cbd5e1" d="M300 365h110v20H300z"/><text x="355" y="378" fill="#374151" font-family="Arial, sans-serif" font-size="10" text-anchor="middle">
    kr 160
  </text><rect width="700" height="120" x="50" y="420" fill="#fef3c7" stroke="#f59e0b" stroke-width="2" rx="10"/><text x="400" y="445" fill="#92400e" font-family="Arial, sans-serif" font-size="18" font-weight="bold" text-anchor="middle">
    Konsekvenser ved Manglende Oppdatering
  </text><text x="80" y="470" fill="#92400e" font-family="Arial, sans-serif" font-size="13" font-weight="bold">
    Juridiske konsekvenser:
  </text><text x="80" y="485" fill="#92400e" font-family="Arial, sans-serif" font-size="11">
    • Gebyr for forsinket melding (opp til kr 6.800)
  </text><text x="80" y="500" fill="#92400e" font-family="Arial, sans-serif" font-size="11">
    • Ugyldig forkynning ved feil adresse
  </text><text x="80" y="515" fill="#92400e" font-family="Arial, sans-serif" font-size="11">
    • Problemer med offentlige myndigheter
  </text><text x="420" y="470" fill="#92400e" font-family="Arial, sans-serif" font-size="13" font-weight="bold">
    Praktiske konsekvenser:
  </text><text x="420" y="485" fill="#92400e" font-family="Arial, sans-serif" font-size="11">
    • Feilaktig korrespondanse fra kunder/leverandører
  </text><text x="420" y="500" fill="#92400e" font-family="Arial, sans-serif" font-size="11">
    • Forsinkelser i betalinger og fakturabehandling
  </text><text x="420" y="515" fill="#92400e" font-family="Arial, sans-serif" font-size="11">
    • Utfordringer med bankforbindelser og kreditt
  </text><text x="400" y="570" fill="#1e40af" font-family="Arial, sans-serif" font-size="14" font-weight="bold" text-anchor="middle">
    Tips: Bruk Altinn for raskest behandling - digitale meldinger behandles fortere enn papirmeldinger
  </text></svg>