<svg width="800" height="500" xmlns="http://www.w3.org/2000/svg">
  <!-- Background -->
  <rect width="800" height="500" fill="#f8f9fa"/>
  
  <!-- Title -->
  <text x="400" y="30" text-anchor="middle" font-family="Arial, sans-serif" font-size="24" font-weight="bold" fill="#2c3e50">
    Fremtidens Formuesverdivurdering med Teknologi
  </text>
  
  <!-- Traditional vs Digital -->
  <text x="200" y="70" text-anchor="middle" font-family="Arial, sans-serif" font-size="16" font-weight="bold" fill="#7f8c8d">
    TRADISJONELL METODE
  </text>
  <text x="600" y="70" text-anchor="middle" font-family="Arial, sans-serif" font-size="16" font-weight="bold" fill="#3498db">
    DIGITAL METODE
  </text>
  
  <!-- Traditional side -->
  <rect x="50" y="90" width="300" height="180" fill="#f8f9fa" stroke="#7f8c8d" stroke-width="2" rx="8"/>
  
  <!-- Manual process icons -->
  <rect x="70" y="110" width="40" height="30" fill="#ecf0f1" stroke="#95a5a6" stroke-width="1" rx="3"/>
  <text x="90" y="130" text-anchor="middle" font-family="Arial, sans-serif" font-size="10" fill="#2c3e50">Papir</text>
  
  <circle cx="150" cy="125" r="15" fill="#e74c3c"/>
  <text x="150" y="130" text-anchor="middle" font-family="Arial, sans-serif" font-size="10" font-weight="bold" fill="white">👤</text>
  
  <rect x="190" y="110" width="40" height="30" fill="#f39c12" stroke="#e67e22" stroke-width="1" rx="3"/>
  <text x="210" y="130" text-anchor="middle" font-family="Arial, sans-serif" font-size="10" fill="white">Kalk</text>
  
  <text x="70" y="160" font-family="Arial, sans-serif" font-size="11" fill="#2c3e50">• Manuell datainnsamling</text>
  <text x="70" y="175" font-family="Arial, sans-serif" font-size="11" fill="#2c3e50">• Tidkrevende prosesser</text>
  <text x="70" y="190" font-family="Arial, sans-serif" font-size="11" fill="#2c3e50">• Risiko for feil</text>
  <text x="70" y="205" font-family="Arial, sans-serif" font-size="11" fill="#2c3e50">• Begrenset oppdatering</text>
  <text x="70" y="220" font-family="Arial, sans-serif" font-size="11" fill="#2c3e50">• Subjektive vurderinger</text>
  
  <rect x="70" y="240" width="260" height="20" fill="#e74c3c" rx="3"/>
  <text x="200" y="255" text-anchor="middle" font-family="Arial, sans-serif" font-size="11" font-weight="bold" fill="white">
    Langsom og feilutsatt
  </text>
  
  <!-- Digital side -->
  <rect x="450" y="90" width="300" height="180" fill="#ebf3fd" stroke="#3498db" stroke-width="2" rx="8"/>
  
  <!-- Digital icons -->
  <rect x="470" y="110" width="30" height="20" fill="#3498db" rx="2"/>
  <rect x="475" y="115" width="20" height="10" fill="#ffffff" rx="1"/>
  
  <circle cx="530" cy="125" r="15" fill="#2ecc71"/>
  <text x="530" y="130" text-anchor="middle" font-family="Arial, sans-serif" font-size="8" fill="white">AI</text>
  
  <rect x="570" y="110" width="30" height="20" fill="#9b59b6" rx="2"/>
  <circle cx="585" cy="120" r="3" fill="#ffffff"/>
  <circle cx="585" cy="120" r="6" fill="none" stroke="#ffffff" stroke-width="1"/>
  
  <rect x="620" y="110" width="30" height="20" fill="#f39c12" rx="2"/>
  <path d="M 630 115 L 640 115 M 635 120 L 635 125" stroke="#ffffff" stroke-width="2"/>
  
  <text x="470" y="160" font-family="Arial, sans-serif" font-size="11" fill="#2c3e50">• Automatisert datainnhenting</text>
  <text x="470" y="175" font-family="Arial, sans-serif" font-size="11" fill="#2c3e50">• Sanntidsoppdatering</text>
  <text x="470" y="190" font-family="Arial, sans-serif" font-size="11" fill="#2c3e50">• AI-basert analyse</text>
  <text x="470" y="205" font-family="Arial, sans-serif" font-size="11" fill="#2c3e50">• Prediktive modeller</text>
  <text x="470" y="220" font-family="Arial, sans-serif" font-size="11" fill="#2c3e50">• Objektive algoritmer</text>
  
  <rect x="470" y="240" width="260" height="20" fill="#27ae60" rx="3"/>
  <text x="600" y="255" text-anchor="middle" font-family="Arial, sans-serif" font-size="11" font-weight="bold" fill="white">
    Rask og nøyaktig
  </text>
  
  <!-- Arrow showing transformation -->
  <path d="M 350 180 L 450 180" stroke="#3498db" stroke-width="4" marker-end="url(#arrow)"/>
  <text x="400" y="175" text-anchor="middle" font-family="Arial, sans-serif" font-size="12" font-weight="bold" fill="#3498db">
    DIGITALISERING
  </text>
  
  <!-- Arrow marker -->
  <defs>
    <marker id="arrow" markerWidth="12" markerHeight="8" refX="11" refY="4" orient="auto">
      <polygon points="0 0, 12 4, 0 8" fill="#3498db"/>
    </marker>
  </defs>
  
  <!-- Technology categories -->
  <rect x="50" y="300" width="700" height="170" fill="#ffffff" stroke="#dee2e6" stroke-width="1" rx="8"/>
  <text x="400" y="325" text-anchor="middle" font-family="Arial, sans-serif" font-size="18" font-weight="bold" fill="#2c3e50">
    Teknologiske Innovasjoner
  </text>
  
  <!-- Tech 1: Blockchain -->
  <rect x="70" y="340" width="150" height="110" fill="#f8f9fa" stroke="#6c757d" stroke-width="1" rx="5"/>
  <text x="145" y="360" text-anchor="middle" font-family="Arial, sans-serif" font-size="12" font-weight="bold" fill="#6c757d">
    BLOCKCHAIN
  </text>
  
  <!-- Blockchain icon -->
  <rect x="135" y="370" width="8" height="8" fill="#6c757d"/>
  <rect x="145" y="370" width="8" height="8" fill="#6c757d"/>
  <rect x="155" y="370" width="8" height="8" fill="#6c757d"/>
  <path d="M 143 374 L 145 374 M 153 374 L 155 374" stroke="#6c757d" stroke-width="1"/>
  
  <text x="80" y="395" font-family="Arial, sans-serif" font-size="10" fill="#2c3e50">• Sikker lagring</text>
  <text x="80" y="410" font-family="Arial, sans-serif" font-size="10" fill="#2c3e50">• Transparent historikk</text>
  <text x="80" y="425" font-family="Arial, sans-serif" font-size="10" fill="#2c3e50">• Kryptovaluta-verdier</text>
  <text x="80" y="440" font-family="Arial, sans-serif" font-size="10" fill="#2c3e50">• Smart contracts</text>
  
  <!-- Tech 2: AI/ML -->
  <rect x="240" y="340" width="150" height="110" fill="#e8f5e8" stroke="#28a745" stroke-width="1" rx="5"/>
  <text x="315" y="360" text-anchor="middle" font-family="Arial, sans-serif" font-size="12" font-weight="bold" fill="#28a745">
    AI / MACHINE LEARNING
  </text>
  
  <!-- AI icon -->
  <circle cx="315" cy="380" r="8" fill="#28a745"/>
  <circle cx="310" cy="377" r="1" fill="white"/>
  <circle cx="320" cy="377" r="1" fill="white"/>
  <path d="M 310 383 Q 315 385 320 383" stroke="white" stroke-width="1" fill="none"/>
  
  <text x="250" y="395" font-family="Arial, sans-serif" font-size="10" fill="#2c3e50">• Automatisk verdivurdering</text>
  <text x="250" y="410" font-family="Arial, sans-serif" font-size="10" fill="#2c3e50">• Mønstergjenkjenning</text>
  <text x="250" y="425" font-family="Arial, sans-serif" font-size="10" fill="#2c3e50">• Prediktive modeller</text>
  <text x="250" y="440" font-family="Arial, sans-serif" font-size="10" fill="#2c3e50">• Risikoevaluering</text>
  
  <!-- Tech 3: IoT -->
  <rect x="410" y="340" width="150" height="110" fill="#fff3cd" stroke="#ffc107" stroke-width="1" rx="5"/>
  <text x="485" y="360" text-anchor="middle" font-family="Arial, sans-serif" font-size="12" font-weight="bold" fill="#856404">
    INTERNET OF THINGS
  </text>
  
  <!-- IoT icon -->
  <circle cx="485" cy="380" r="3" fill="#ffc107"/>
  <circle cx="475" cy="375" r="2" fill="#ffc107"/>
  <circle cx="495" cy="375" r="2" fill="#ffc107"/>
  <circle cx="480" cy="385" r="2" fill="#ffc107"/>
  <circle cx="490" cy="385" r="2" fill="#ffc107"/>
  <path d="M 485 377 L 475 375 M 485 377 L 495 375 M 485 383 L 480 385 M 485 383 L 490 385" stroke="#ffc107" stroke-width="1"/>
  
  <text x="420" y="395" font-family="Arial, sans-serif" font-size="10" fill="#2c3e50">• Sanntidsdata</text>
  <text x="420" y="410" font-family="Arial, sans-serif" font-size="10" fill="#2c3e50">• Tilstandsovervåking</text>
  <text x="420" y="425" font-family="Arial, sans-serif" font-size="10" fill="#2c3e50">• Automatisk rapportering</text>
  <text x="420" y="440" font-family="Arial, sans-serif" font-size="10" fill="#2c3e50">• Vedlikeholdsprediksjon</text>
  
  <!-- Tech 4: Big Data -->
  <rect x="580" y="340" width="150" height="110" fill="#d1ecf1" stroke="#17a2b8" stroke-width="1" rx="5"/>
  <text x="655" y="360" text-anchor="middle" font-family="Arial, sans-serif" font-size="12" font-weight="bold" fill="#0c5460">
    BIG DATA ANALYTICS
  </text>
  
  <!-- Big Data icon -->
  <rect x="645" y="370" width="20" height="15" fill="none" stroke="#17a2b8" stroke-width="1" rx="2"/>
  <rect x="648" y="373" width="3" height="9" fill="#17a2b8"/>
  <rect x="652" y="375" width="3" height="7" fill="#17a2b8"/>
  <rect x="656" y="377" width="3" height="5" fill="#17a2b8"/>
  <rect x="660" y="379" width="3" height="3" fill="#17a2b8"/>
  
  <text x="590" y="395" font-family="Arial, sans-serif" font-size="10" fill="#2c3e50">• Markedsanalyse</text>
  <text x="590" y="410" font-family="Arial, sans-serif" font-size="10" fill="#2c3e50">• Trendidentifikasjon</text>
  <text x="590" y="425" font-family="Arial, sans-serif" font-size="10" fill="#2c3e50">• Komparativ analyse</text>
  <text x="590" y="440" font-family="Arial, sans-serif" font-size="10" fill="#2c3e50">• Scenariomodellering</text>
  
  <!-- Bottom note -->
  <text x="400" y="485" text-anchor="middle" font-family="Arial, sans-serif" font-size="11" fill="#7f8c8d">
    Teknologi gjør formuesverdivurdering mer nøyaktig, rask og tilgjengelig
  </text>
</svg>