<svg xmlns="http://www.w3.org/2000/svg" width="800" height="600"><path fill="#f8fafc" d="M0 0h800v600H0z"/><text x="400" y="30" fill="#1e293b" font-family="Arial, sans-serif" font-size="22" font-weight="bold" text-anchor="middle">Digitale QA-verktøy i Regnskap</text><circle cx="400" cy="300" r="80" fill="#3b82f6" stroke="#1e40af" stroke-width="3"/><text x="400" y="290" fill="#fff" font-family="Arial, sans-serif" font-size="16" font-weight="bold" text-anchor="middle">Digital</text><text x="400" y="310" fill="#fff" font-family="Arial, sans-serif" font-size="16" font-weight="bold" text-anchor="middle">QA Hub</text><rect width="160" height="90" x="320" y="80" fill="#dcfce7" stroke="#16a34a" stroke-width="2" rx="10"/><text x="400" y="105" fill="#166534" font-family="Arial, sans-serif" font-size="16" font-weight="bold" text-anchor="middle">Automatiserte</text><text x="400" y="120" fill="#166534" font-family="Arial, sans-serif" font-size="16" font-weight="bold" text-anchor="middle">Kontroller</text><text x="330" y="140" fill="#15803d" font-family="Arial, sans-serif" font-size="11">• Regelbasert validering</text><text x="330" y="152" fill="#15803d" font-family="Arial, sans-serif" font-size="11">• Automatisk avstemming</text><text x="330" y="164" fill="#15803d" font-family="Arial, sans-serif" font-size="11">• Sanntidsovervåking</text><path fill="none" stroke="#16a34a" stroke-width="2" marker-end="url(#a)" d="M400 170v50"/><rect width="160" height="90" x="580" y="120" fill="#dbeafe" stroke="#2563eb" stroke-width="2" rx="10"/><text x="660" y="145" fill="#1d4ed8" font-family="Arial, sans-serif" font-size="16" font-weight="bold" text-anchor="middle">AI &amp; Analytics</text><text x="590" y="165" fill="#1e40af" font-family="Arial, sans-serif" font-size="11">• Anomalidetekning</text><text x="590" y="177" fill="#1e40af" font-family="Arial, sans-serif" font-size="11">• Prediktiv analyse</text><text x="590" y="189" fill="#1e40af" font-family="Arial, sans-serif" font-size="11">• Mønstergjenkjenning</text><text x="590" y="201" fill="#1e40af" font-family="Arial, sans-serif" font-size="11">• Machine Learning</text><path fill="none" stroke="#2563eb" stroke-width="2" marker-end="url(#b)" d="M580 180"/><rect width="160" height="90" x="570" y="350" fill="#fef3c7" stroke="#d97706" stroke-width="2" rx="10"/><text x="650" y="375" fill="#92400e" font-family="Arial, sans-serif" font-size="16" font-weight="bold" text-anchor="middle">Workflow</text><text x="650" y="390" fill="#92400e" font-family="Arial, sans-serif" font-size="16" font-weight="bold" text-anchor="middle">Management</text><text x="580" y="410" fill="#a16207" font-family="Arial, sans-serif" font-size="11">• Godkjenningsflyt</text><text x="580" y="422" fill="#a16207" font-family="Arial, sans-serif" font-size="11">• Automatisk routing</text><text x="580" y="434" fill="#a16207" font-family="Arial, sans-serif" font-size="11">• Status tracking</text><path fill="none" stroke="#d97706" stroke-width="2" marker-end="url(#c)" d="M570 380"/><rect width="160" height="90" x="320" y="470" fill="#f3e8ff" stroke="#7c3aed" stroke-width="2" rx="10"/><text x="400" y="495" fill="#5b21b6" font-family="Arial, sans-serif" font-size="16" font-weight="bold" text-anchor="middle">Rapportering &amp;</text><text x="400" y="510" fill="#5b21b6" font-family="Arial, sans-serif" font-size="16" font-weight="bold" text-anchor="middle">Dashboards</text><text x="330" y="530" fill="#6d28d9" font-family="Arial, sans-serif" font-size="11">• Sanntids KPI-er</text><text x="330" y="542" fill="#6d28d9" font-family="Arial, sans-serif" font-size="11">• Automatisk rapporter</text><text x="330" y="554" fill="#6d28d9" font-family="Arial, sans-serif" font-size="11">• Visuell analyse</text><path fill="none" stroke="#7c3aed" stroke-width="2" marker-end="url(#d)" d="M400 470v-90"/><rect width="160" height="90" x="70" y="350" fill="#fce7f3" stroke="#db2777" stroke-width="2" rx="10"/><text x="150" y="375" fill="#be185d" font-family="Arial, sans-serif" font-size="16" font-weight="bold" text-anchor="middle">Data</text><text x="150" y="390" fill="#be185d" font-family="Arial, sans-serif" font-size="16" font-weight="bold" text-anchor="middle">Integration</text><text x="80" y="410" fill="#c2185b" font-family="Arial, sans-serif" font-size="11">• API-koblinger</text><text x="80" y="422" fill="#c2185b" font-family="Arial, sans-serif" font-size="11">• ERP-integrasjon</text><text x="80" y="434" fill="#c2185b" font-family="Arial, sans-serif" font-size="11">• Datasynkronisering</text><path fill="none" stroke="#db2777" stroke-width="2" marker-end="url(#e)" d="M230 380"/><rect width="160" height="90" x="60" y="120" fill="#e0f2fe" stroke="#0891b2" stroke-width="2" rx="10"/><text x="140" y="145" fill="#0e7490" font-family="Arial, sans-serif" font-size="16" font-weight="bold" text-anchor="middle">Sikkerhet &amp;</text><text x="140" y="160" fill="#0e7490" font-family="Arial, sans-serif" font-size="16" font-weight="bold" text-anchor="middle">Compliance</text><text x="70" y="180" fill="#0891b2" font-family="Arial, sans-serif" font-size="11">• Auditspor</text><text x="70" y="192" fill="#0891b2" font-family="Arial, sans-serif" font-size="11">• Tilgangskontroll</text><text x="70" y="204" fill="#0891b2" font-family="Arial, sans-serif" font-size="11">• Compliance monitoring</text><path fill="none" stroke="#0891b2" stroke-width="2" marker-end="url(#f)" d="M220 180"/><rect width="600" height="25" x="100" y="570" fill="#f1f5f9" stroke="#64748b" rx="5"/><text x="400" y="585" fill="#1e293b" font-family="Arial, sans-serif" font-size="12" font-weight="bold" text-anchor="middle">Teknologistack: Cloud • APIs • Machine Learning • Blockchain • IoT</text><rect width="120" height="30" x="50" y="50" fill="#ecfdf5" stroke="#10b981" rx="5"/><text x="110" y="65" fill="#047857" font-family="Arial, sans-serif" font-size="12" font-weight="bold" text-anchor="middle">Økt Effektivitet</text><text x="110" y="77" fill="#059669" font-family="Arial, sans-serif" font-size="10" text-anchor="middle">Automatisering</text><rect width="120" height="30" x="630" y="50" fill="#fef3c7" stroke="#f59e0b" rx="5"/><text x="690" y="65" fill="#d97706" font-family="Arial, sans-serif" font-size="12" font-weight="bold" text-anchor="middle">Bedre Kvalitet</text><text x="690" y="77" fill="#f59e0b" font-family="Arial, sans-serif" font-size="10" text-anchor="middle">Mindre feil</text><rect width="120" height="30" x="50" y="520" fill="#e0f2fe" stroke="#0284c7" rx="5"/><text x="110" y="535" fill="#0369a1" font-family="Arial, sans-serif" font-size="12" font-weight="bold" text-anchor="middle">Sanntid</text><text x="110" y="547" fill="#0284c7" font-family="Arial, sans-serif" font-size="10" text-anchor="middle">Øyeblikkelig innsikt</text><rect width="120" height="30" x="630" y="520" fill="#fce7f3" stroke="#ec4899" rx="5"/><text x="690" y="535" fill="#be185d" font-family="Arial, sans-serif" font-size="12" font-weight="bold" text-anchor="middle">Skalerbarhet</text><text x="690" y="547" fill="#ec4899" font-family="Arial, sans-serif" font-size="10" text-anchor="middle">Vokser med bedriften</text><defs><marker id="a" markerHeight="7" markerWidth="10" orient="auto" refX="9" refY="3.5"><path fill="#16a34a" d="m0 0 10 3.5L0 7z"/></marker><marker id="b" markerHeight="7" markerWidth="10" orient="auto" refX="9" refY="3.5"><path fill="#2563eb" d="m0 0 10 3.5L0 7z"/></marker><marker id="c" markerHeight="7" markerWidth="10" orient="auto" refX="9" refY="3.5"><path fill="#d97706" d="m0 0 10 3.5L0 7z"/></marker><marker id="d" markerHeight="7" markerWidth="10" orient="auto" refX="9" refY="3.5"><path fill="#7c3aed" d="m0 0 10 3.5L0 7z"/></marker><marker id="e" markerHeight="7" markerWidth="10" orient="auto" refX="9" refY="3.5"><path fill="#db2777" d="m0 0 10 3.5L0 7z"/></marker><marker id="f" markerHeight="7" markerWidth="10" orient="auto" refX="9" refY="3.5"><path fill="#0891b2" d="m0 0 10 3.5L0 7z"/></marker></defs></svg>