<svg width="800" height="500" xmlns="http://www.w3.org/2000/svg">

  <rect width="800" height="500" fill="#f8fafc"/>
  

  <text x="400" y="30" font-family="Arial, sans-serif" font-size="22" font-weight="bold" fill="#1e293b" text-anchor="middle">QA-organisasjon og Ansvarsstruktur</text>
  

  <g>
    <rect x="350" y="60" width="100" height="60" rx="8" fill="#3b82f6" stroke="#1e40af" stroke-width="2"/>
    <text x="400" y="85" font-family="Arial, sans-serif" font-size="14" font-weight="bold" fill="white" text-anchor="middle">Ledelse</text>
    <text x="400" y="105" font-family="Arial, sans-serif" font-size="12" fill="white" text-anchor="middle">QA-strategi</text>
  </g>
  

  <g>
    <rect x="330" y="150" width="140" height="60" rx="8" fill="#16a34a" stroke="#15803d" stroke-width="2"/>
    <text x="400" y="175" font-family="Arial, sans-serif" font-size="14" font-weight="bold" fill="white" text-anchor="middle">QA-ansvarlig</text>
    <text x="400" y="195" font-family="Arial, sans-serif" font-size="12" fill="white" text-anchor="middle">Overordnet ansvar</text>
    

    <path d="M400,120 L400,150" stroke="#64748b" stroke-width="2" fill="none" marker-end="url(#grayArrow)"/>
  </g>
  


  <g>
    <rect x="50" y="250" width="150" height="80" rx="8" fill="#dbeafe" stroke="#2563eb" stroke-width="2"/>
    <text x="125" y="275" font-family="Arial, sans-serif" font-size="14" font-weight="bold" fill="#1d4ed8" text-anchor="middle">Regnskapsansvarlig</text>
    <text x="125" y="295" font-family="Arial, sans-serif" font-size="11" fill="#1e40af" text-anchor="middle">Daglig kvalitetskontroll</text>
    <text x="125" y="310" font-family="Arial, sans-serif" font-size="10" fill="#1e40af" text-anchor="middle">• Autorisasjon</text>
    <text x="125" y="322" font-family="Arial, sans-serif" font-size="10" fill="#1e40af" text-anchor="middle">• Praktisk erfaring</text>
    

    <rect x="60" y="350" width="60" height="30" rx="4" fill="#eff6ff" stroke="#3b82f6" stroke-width="1"/>
    <text x="90" y="365" font-family="Arial, sans-serif" font-size="10" fill="#1e40af" text-anchor="middle">Bilagsfører</text>
    <text x="90" y="375" font-family="Arial, sans-serif" font-size="9" fill="#64748b" text-anchor="middle">Førstekontroll</text>
    
    <rect x="130" y="350" width="60" height="30" rx="4" fill="#eff6ff" stroke="#3b82f6" stroke-width="1"/>
    <text x="160" y="365" font-family="Arial, sans-serif" font-size="10" fill="#1e40af" text-anchor="middle">Senior</text>
    <text x="160" y="375" font-family="Arial, sans-serif" font-size="9" fill="#64748b" text-anchor="middle">Andrekontroll</text>
    

    <path d="M370,210 Q280,230 Q200,250" stroke="#64748b" stroke-width="2" fill="none" marker-end="url(#grayArrow)"/>

    <path d="M125,330 L125,350" stroke="#2563eb" stroke-width="1" fill="none"/>
  </g>
  

  <g>
    <rect x="325" y="250" width="150" height="80" rx="8" fill="#fef3c7" stroke="#d97706" stroke-width="2"/>
    <text x="400" y="275" font-family="Arial, sans-serif" font-size="14" font-weight="bold" fill="#92400e" text-anchor="middle">Kontrollfunksjon</text>
    <text x="400" y="295" font-family="Arial, sans-serif" font-size="11" fill="#a16207" text-anchor="middle">Uavhengig kontroll</text>
    <text x="400" y="310" font-family="Arial, sans-serif" font-size="10" fill="#a16207" text-anchor="middle">• Revisjonsbakgrunn</text>
    <text x="400" y="322" font-family="Arial, sans-serif" font-size="10" fill="#a16207" text-anchor="middle">• Analytiske ferdigheter</text>
    

    <rect x="335" y="350" width="60" height="30" rx="4" fill="#fefbf3" stroke="#f59e0b" stroke-width="1"/>
    <text x="365" y="365" font-family="Arial, sans-serif" font-size="10" fill="#d97706" text-anchor="middle">Kontroller</text>
    <text x="365" y="375" font-family="Arial, sans-serif" font-size="9" fill="#64748b" text-anchor="middle">Testing</text>
    
    <rect x="405" y="350" width="60" height="30" rx="4" fill="#fefbf3" stroke="#f59e0b" stroke-width="1"/>
    <text x="435" y="365" font-family="Arial, sans-serif" font-size="10" fill="#d97706" text-anchor="middle">Analytiker</text>
    <text x="435" y="375" font-family="Arial, sans-serif" font-size="9" fill="#64748b" text-anchor="middle">Analyse</text>
    

    <path d="M400,210 L400,250" stroke="#64748b" stroke-width="2" fill="none" marker-end="url(#grayArrow)"/>

    <path d="M400,330 L400,350" stroke="#d97706" stroke-width="1" fill="none"/>
  </g>
  

  <g>
    <rect x="600" y="250" width="150" height="80" rx="8" fill="#f3e8ff" stroke="#7c3aed" stroke-width="2"/>
    <text x="675" y="275" font-family="Arial, sans-serif" font-size="14" font-weight="bold" fill="#5b21b6" text-anchor="middle">IT-ansvarlig</text>
    <text x="675" y="295" font-family="Arial, sans-serif" font-size="11" fill="#6d28d9" text-anchor="middle">Systemkontroller</text>
    <text x="675" y="310" font-family="Arial, sans-serif" font-size="10" fill="#6d28d9" text-anchor="middle">• IT-kompetanse</text>
    <text x="675" y="322" font-family="Arial, sans-serif" font-size="10" fill="#6d28d9" text-anchor="middle">• Regnskapsforståelse</text>
    

    <rect x="610" y="350" width="60" height="30" rx="4" fill="#faf5ff" stroke="#a855f7" stroke-width="1"/>
    <text x="640" y="365" font-family="Arial, sans-serif" font-size="10" fill="#7c3aed" text-anchor="middle">System-</text>
    <text x="640" y="375" font-family="Arial, sans-serif" font-size="9" fill="#64748b" text-anchor="middle">admin</text>
    
    <rect x="680" y="350" width="60" height="30" rx="4" fill="#faf5ff" stroke="#a855f7" stroke-width="1"/>
    <text x="710" y="365" font-family="Arial, sans-serif" font-size="10" fill="#7c3aed" text-anchor="middle">Data-</text>
    <text x="710" y="375" font-family="Arial, sans-serif" font-size="9" fill="#64748b" text-anchor="middle">analytiker</text>
    

    <path d="M430,210 Q520,230 Q600,250" stroke="#64748b" stroke-width="2" fill="none" marker-end="url(#grayArrow)"/>

    <path d="M675,330 L675,350" stroke="#7c3aed" stroke-width="1" fill="none"/>
  </g>
  

  <g>
    <rect x="50" y="420" width="120" height="50" rx="6" fill="#fce7f3" stroke="#db2777" stroke-width="2"/>
    <text x="110" y="440" font-family="Arial, sans-serif" font-size="12" font-weight="bold" fill="#be185d" text-anchor="middle">Eksterne</text>
    <text x="110" y="453" font-family="Arial, sans-serif" font-size="12" font-weight="bold" fill="#be185d" text-anchor="middle">Ressurser</text>
    <text x="110" y="465" font-family="Arial, sans-serif" font-size="9" fill="#c2185b" text-anchor="middle">Konsulenter • ARS</text>
    

    <path d="M170,445 Q240,400 Q330,290" stroke="#db2777" stroke-width="1" fill="none" stroke-dasharray="3,3"/>
  </g>
  

  <g>
    <rect x="200" y="420" width="400" height="50" rx="6" fill="#e0f2fe" stroke="#0891b2" stroke-width="2"/>
    <text x="400" y="440" font-family="Arial, sans-serif" font-size="14" font-weight="bold" fill="#0e7490" text-anchor="middle">Kommunikasjonskanaler</text>
    <text x="400" y="455" font-family="Arial, sans-serif" font-size="11" fill="#0891b2" text-anchor="middle">Månedlige møter • Kvartalsvise rapporter • Årlige evalueringer</text>
    <text x="400" y="467" font-family="Arial, sans-serif" font-size="10" fill="#0891b2" text-anchor="middle">Digitale plattformer • E-læring • Kompetanseutvikling</text>
  </g>
  

  <g>
    <rect x="630" y="420" width="120" height="50" rx="6" fill="#ecfdf5" stroke="#10b981" stroke-width="2"/>
    <text x="690" y="440" font-family="Arial, sans-serif" font-size="12" font-weight="bold" fill="#047857" text-anchor="middle">Rapportering</text>
    <text x="690" y="453" font-family="Arial, sans-serif" font-size="11" fill="#059669" text-anchor="middle">Til ledelse</text>
    <text x="690" y="465" font-family="Arial, sans-serif" font-size="9" fill="#059669" text-anchor="middle">KPI • Risikoer • Tiltak</text>
    

    <path d="M690,420 Q650,350 Q600,280 Q550,200 Q500,150 Q450,90" stroke="#10b981" stroke-width="1" fill="none" stroke-dasharray="5,5" marker-end="url(#greenArrow)"/>
  </g>
  

  <defs>
    <marker id="grayArrow" markerWidth="8" markerHeight="6" refX="7" refY="3" orient="auto">
      <polygon points="0 0, 8 3, 0 6" fill="#64748b"/>
    </marker>
    <marker id="greenArrow" markerWidth="8" markerHeight="6" refX="7" refY="3" orient="auto">
      <polygon points="0 0, 8 3, 0 6" fill="#10b981"/>
    </marker>
  </defs>
</svg>