<svg xmlns="http://www.w3.org/2000/svg" width="800" height="400" viewBox="0 0 800 400"><path fill="#f8f9fa" d="M0 0h800v400H0z"/><text x="400" y="30" fill="#2c3e50" font-family="Arial, sans-serif" font-size="24" font-weight="bold" text-anchor="middle">Avvikling og endringer av NUF</text><rect width="300" height="120" x="50" y="60" fill="#e74c3c" stroke="#c0392b" stroke-width="2" rx="10"/><text x="200" y="85" fill="#fff" font-family="Arial, sans-serif" font-size="16" font-weight="bold" text-anchor="middle">Når bør NUF avvikles?</text><rect width="260" height="35" x="70" y="100" fill="#ec7063" stroke="#e74c3c" rx="5"/><text x="200" y="115" fill="#fff" font-family="Arial, sans-serif" font-size="11" font-weight="bold" text-anchor="middle">Strategiske årsaker</text><text x="200" y="130" fill="#fff" font-family="Arial, sans-serif" font-size="9" text-anchor="middle">• Permanent etablering ønskes • Økt virksomhet</text><rect width="260" height="35" x="70" y="140" fill="#ec7063" stroke="#e74c3c" rx="5"/><text x="200" y="155" fill="#fff" font-family="Arial, sans-serif" font-size="11" font-weight="bold" text-anchor="middle">Praktiske årsaker</text><text x="200" y="170" fill="#fff" font-family="Arial, sans-serif" font-size="9" text-anchor="middle">• For stor kompleksitet • Kostnader overstiger fordeler</text><rect width="300" height="120" x="450" y="60" fill="#9b59b6" stroke="#8e44ad" stroke-width="2" rx="10"/><text x="600" y="85" fill="#fff" font-family="Arial, sans-serif" font-size="16" font-weight="bold" text-anchor="middle">Avviklingsprosess</text><rect width="260" height="35" x="470" y="100" fill="#bb8fce" stroke="#9b59b6" rx="5"/><text x="600" y="115" fill="#fff" font-family="Arial, sans-serif" font-size="11" font-weight="bold" text-anchor="middle">Forberedelser</text><text x="600" y="130" fill="#fff" font-family="Arial, sans-serif" font-size="9" text-anchor="middle">• Gjennomgang av forpliktelser • Avstemming med myndigheter</text><rect width="260" height="35" x="470" y="140" fill="#bb8fce" stroke="#9b59b6" rx="5"/><text x="600" y="155" fill="#fff" font-family="Arial, sans-serif" font-size="11" font-weight="bold" text-anchor="middle">Formell avvikling</text><text x="600" y="170" fill="#fff" font-family="Arial, sans-serif" font-size="9" text-anchor="middle">• Melding til Brønnøysund • Sluttoppgjør • Sletting</text><rect width="500" height="100" x="150" y="200" fill="#27ae60" stroke="#229954" stroke-width="2" rx="10"/><text x="400" y="225" fill="#fff" font-family="Arial, sans-serif" font-size="16" font-weight="bold" text-anchor="middle">Overgang til norsk selskap</text><rect width="100" height="50" x="170" y="240" fill="#2ecc71" stroke="#27ae60" rx="5"/><text x="220" y="260" fill="#fff" font-family="Arial, sans-serif" font-size="10" font-weight="bold" text-anchor="middle">1. Stiftelse</text><text x="220" y="275" fill="#fff" font-family="Arial, sans-serif" font-size="9" text-anchor="middle">Norsk AS</text><rect width="100" height="50" x="290" y="240" fill="#2ecc71" stroke="#27ae60" rx="5"/><text x="340" y="260" fill="#fff" font-family="Arial, sans-serif" font-size="10" font-weight="bold" text-anchor="middle">2. Overdragelse</text><text x="340" y="275" fill="#fff" font-family="Arial, sans-serif" font-size="9" text-anchor="middle">Virksomhet</text><rect width="100" height="50" x="410" y="240" fill="#2ecc71" stroke="#27ae60" rx="5"/><text x="460" y="260" fill="#fff" font-family="Arial, sans-serif" font-size="10" font-weight="bold" text-anchor="middle">3. Skattemessig</text><text x="460" y="275" fill="#fff" font-family="Arial, sans-serif" font-size="9" text-anchor="middle">Behandling</text><rect width="100" height="50" x="530" y="240" fill="#2ecc71" stroke="#27ae60" rx="5"/><text x="580" y="260" fill="#fff" font-family="Arial, sans-serif" font-size="10" font-weight="bold" text-anchor="middle">4. NUF</text><text x="580" y="275" fill="#fff" font-family="Arial, sans-serif" font-size="9" text-anchor="middle">Avvikling</text><path fill="none" stroke="#34495e" stroke-width="2" marker-end="url(#a)" d="M270 265h20"/><path fill="none" stroke="#34495e" stroke-width="2" marker-end="url(#a)" d="M390 265h20"/><path fill="none" stroke="#34495e" stroke-width="2" marker-end="url(#a)" d="M510 265h20"/><defs><marker id="a" markerHeight="7" markerWidth="10" orient="auto" refX="9" refY="3.5"><path fill="#34495e" d="m0 0 10 3.5L0 7z"/></marker></defs><rect width="300" height="60" x="50" y="320" fill="#f39c12" stroke="#e67e22" rx="5"/><text x="200" y="340" fill="#fff" font-family="Arial, sans-serif" font-size="12" font-weight="bold" text-anchor="middle">Skattemessige konsekvenser</text><text x="200" y="355" fill="#fff" font-family="Arial, sans-serif" font-size="10" text-anchor="middle">• Realisasjon kan utløse skatt</text><text x="200" y="370" fill="#fff" font-family="Arial, sans-serif" font-size="10" text-anchor="middle">• Kontinuitetsregler kan gi skattefrihet</text><rect width="300" height="60" x="450" y="320" fill="#1abc9c" stroke="#16a085" rx="5"/><text x="600" y="340" fill="#fff" font-family="Arial, sans-serif" font-size="12" font-weight="bold" text-anchor="middle">Viktige hensyn</text><text x="600" y="355" fill="#fff" font-family="Arial, sans-serif" font-size="10" text-anchor="middle">• Timing er avgjørende</text><text x="600" y="370" fill="#fff" font-family="Arial, sans-serif" font-size="10" text-anchor="middle">• Profesjonell rådgivning anbefales</text></svg>