<svg xmlns="http://www.w3.org/2000/svg" width="800" height="600" viewBox="0 0 800 600"><defs><linearGradient id="a" x1="0%" x2="100%" y1="0%" y2="0%"><stop offset="0%" style="stop-color:#1565c0;stop-opacity:1"/><stop offset="100%" style="stop-color:#42a5f5;stop-opacity:1"/></linearGradient><linearGradient id="b" x1="0%" x2="100%" y1="0%" y2="0%"><stop offset="0%" style="stop-color:#6a1b9a;stop-opacity:.8"/><stop offset="100%" style="stop-color:#9c27b0;stop-opacity:.8"/></linearGradient></defs><path fill="#f8f9fa" d="M0 0h800v600H0z"/><path fill="url(#a)" d="M0 0h800v60H0z"/><text x="400" y="25" fill="#fff" font-family="Arial, sans-serif" font-size="20" font-weight="bold" text-anchor="middle">DIGITALE VERKTØY FOR ÅRSAVSLUTNING</text><text x="400" y="45" fill="#fff" font-family="Arial, sans-serif" font-size="14" text-anchor="middle">Teknologiske løsninger for moderne regnskapsavslutning</text><g transform="translate(400 150)"><circle r="60" fill="url(#b)" stroke="#6a1b9a" stroke-width="3"/><text y="-10" fill="#fff" font-family="Arial, sans-serif" font-size="14" font-weight="bold" text-anchor="middle">ERP</text><text y="5" fill="#fff" font-family="Arial, sans-serif" font-size="14" font-weight="bold" text-anchor="middle">SYSTEM</text><text y="20" fill="#fff" font-family="Arial, sans-serif" font-size="12" text-anchor="middle">Sentralisert</text></g><g transform="translate(80 80)"><rect width="200" height="100" fill="#e8f5e8" stroke="#4caf50" stroke-width="2" rx="10"/><circle cx="20" cy="20" r="12" fill="#4caf50"/><text x="20" y="26" fill="#fff" font-family="Arial, sans-serif" font-size="12" font-weight="bold" text-anchor="middle">1</text><text x="100" y="18" fill="#2e7d32" font-family="Arial, sans-serif" font-size="14" font-weight="bold" text-anchor="middle">AUTOMATISERTE</text><text x="100" y="33" fill="#2e7d32" font-family="Arial, sans-serif" font-size="14" font-weight="bold" text-anchor="middle">AVSTEMMINGER</text><text x="15" y="55" fill="#333" font-family="Arial, sans-serif" font-size="11">• Bankavstemming API</text><text x="15" y="68" fill="#333" font-family="Arial, sans-serif" font-size="11">• Fakturamatching</text><text x="15" y="81" fill="#333" font-family="Arial, sans-serif" font-size="11">• Automatisk periodisering</text><text x="15" y="94" fill="#333" font-family="Arial, sans-serif" font-size="11">• Valutaoppdatering</text></g><g transform="translate(520 80)"><rect width="200" height="100" fill="#e3f2fd" stroke="#2196f3" stroke-width="2" rx="10"/><circle cx="20" cy="20" r="12" fill="#2196f3"/><text x="20" y="26" fill="#fff" font-family="Arial, sans-serif" font-size="12" font-weight="bold" text-anchor="middle">2</text><text x="100" y="18" fill="#1565c0" font-family="Arial, sans-serif" font-size="14" font-weight="bold" text-anchor="middle">AI &amp; MASKINLÆRING</text><text x="15" y="45" fill="#333" font-family="Arial, sans-serif" font-size="11">• Smart kategorisering</text><text x="15" y="58" fill="#333" font-family="Arial, sans-serif" font-size="11">• Anomali deteksjon</text><text x="15" y="71" fill="#333" font-family="Arial, sans-serif" font-size="11">• Prediktiv analyse</text><text x="15" y="84" fill="#333" font-family="Arial, sans-serif" font-size="11">• Intelligent kontroll</text></g><g transform="translate(80 250)"><rect width="200" height="100" fill="#fff3e0" stroke="#ff9800" stroke-width="2" rx="10"/><circle cx="20" cy="20" r="12" fill="#ff9800"/><text x="20" y="26" fill="#fff" font-family="Arial, sans-serif" font-size="12" font-weight="bold" text-anchor="middle">3</text><text x="100" y="18" fill="#e65100" font-family="Arial, sans-serif" font-size="14" font-weight="bold" text-anchor="middle">DATAINTEGRASJON</text><text x="15" y="45" fill="#333" font-family="Arial, sans-serif" font-size="11">• Real-time dataflyt</text><text x="15" y="58" fill="#333" font-family="Arial, sans-serif" font-size="11">• API kobling</text><text x="15" y="71" fill="#333" font-family="Arial, sans-serif" font-size="11">• Database synkronisering</text><text x="15" y="84" fill="#333" font-family="Arial, sans-serif" font-size="11">• Systemintegrasjon</text></g><g transform="translate(520 250)"><rect width="200" height="100" fill="#f3e5f5" stroke="#9c27b0" stroke-width="2" rx="10"/><circle cx="20" cy="20" r="12" fill="#9c27b0"/><text x="20" y="26" fill="#fff" font-family="Arial, sans-serif" font-size="12" font-weight="bold" text-anchor="middle">4</text><text x="100" y="18" fill="#6a1b9a" font-family="Arial, sans-serif" font-size="14" font-weight="bold" text-anchor="middle">SMART RAPPORTERING</text><text x="15" y="45" fill="#333" font-family="Arial, sans-serif" font-size="11">• Automatisk generering</text><text x="15" y="58" fill="#333" font-family="Arial, sans-serif" font-size="11">• Dynamiske dashboards</text><text x="15" y="71" fill="#333" font-family="Arial, sans-serif" font-size="11">• Real-time nøkkeltall</text><text x="15" y="84" fill="#333" font-family="Arial, sans-serif" font-size="11">• Interaktive analyser</text></g><g transform="translate(80 420)"><rect width="200" height="100" fill="#ffebee" stroke="#f44336" stroke-width="2" rx="10"/><circle cx="20" cy="20" r="12" fill="#f44336"/><text x="20" y="26" fill="#fff" font-family="Arial, sans-serif" font-size="12" font-weight="bold" text-anchor="middle">5</text><text x="100" y="18" fill="#c62828" font-family="Arial, sans-serif" font-size="14" font-weight="bold" text-anchor="middle">BLOCKCHAIN &amp;</text><text x="100" y="33" fill="#c62828" font-family="Arial, sans-serif" font-size="14" font-weight="bold" text-anchor="middle">SIKKERHET</text><text x="15" y="55" fill="#333" font-family="Arial, sans-serif" font-size="11">• Uforanderlig audit trail</text><text x="15" y="68" fill="#333" font-family="Arial, sans-serif" font-size="11">• Smart contracts</text><text x="15" y="81" fill="#333" font-family="Arial, sans-serif" font-size="11">• Økt sikkerhet</text><text x="15" y="94" fill="#333" font-family="Arial, sans-serif" font-size="11">• Sporbarhet</text></g><g transform="translate(520 420)"><rect width="200" height="100" fill="#e0f2f1" stroke="#009688" stroke-width="2" rx="10"/><circle cx="20" cy="20" r="12" fill="#009688"/><text x="20" y="26" fill="#fff" font-family="Arial, sans-serif" font-size="12" font-weight="bold" text-anchor="middle">6</text><text x="100" y="18" fill="#00695c" font-family="Arial, sans-serif" font-size="14" font-weight="bold" text-anchor="middle">CLOUD &amp; MOBILE</text><text x="15" y="45" fill="#333" font-family="Arial, sans-serif" font-size="11">• Skalerbar infrastruktur</text><text x="15" y="58" fill="#333" font-family="Arial, sans-serif" font-size="11">• Mobil tilgang</text><text x="15" y="71" fill="#333" font-family="Arial, sans-serif" font-size="11">• Automatisk backup</text><text x="15" y="84" fill="#333" font-family="Arial, sans-serif" font-size="11">• Global tilgjengelighet</text></g><g fill="none" stroke="#999" stroke-dasharray="3,3" stroke-width="2"><path d="m280 130 60 10M520 130l-60 10M280 300l60-130M520 300l-60-130M280 470l60-280M520 470l-60-280"/></g><g transform="translate(50 540)"><rect width="700" height="50" fill="#fff" stroke="#1565c0" stroke-width="2" rx="8"/><text x="350" y="20" fill="#1565c0" font-family="Arial, sans-serif" font-size="14" font-weight="bold" text-anchor="middle">FORDELER MED DIGITALISERING</text><g fill="#333" font-family="Arial, sans-serif" font-size="11"><text transform="translate(20 25)">✓ 80% reduksjon i manuelt arbeid</text><text x="180" transform="translate(20 25)">✓ 95% færre feil</text><text x="320" transform="translate(20 25)">✓ Real-time oversikt</text><text x="460" transform="translate(20 25)">✓ Forbedret compliance</text><text x="590" transform="translate(20 25)">✓ Raskere avslutning</text></g></g></svg>