<svg xmlns="http://www.w3.org/2000/svg" width="800" height="600" viewBox="0 0 800 600"><defs><linearGradient id="a" x1="0%" x2="100%" y1="0%" y2="0%"><stop offset="0%" style="stop-color:#6a1b9a;stop-opacity:1"/><stop offset="100%" style="stop-color:#9c27b0;stop-opacity:1"/></linearGradient></defs><path fill="#f8f9fa" d="M0 0h800v600H0z"/><path fill="url(#a)" d="M0 0h800v60H0z"/><text x="400" y="25" fill="#fff" font-family="Arial, sans-serif" font-size="20" font-weight="bold" text-anchor="middle">SKATTEMESSIGE JUSTERINGER</text><text x="400" y="45" fill="#fff" font-family="Arial, sans-serif" font-size="14" text-anchor="middle">Fra regnskapsmessig til skattepliktig resultat</text><g transform="translate(50 90)"><rect width="200" height="60" fill="#e8f5e8" stroke="#4caf50" stroke-width="2" rx="8"/><text x="100" y="25" fill="#2e7d32" font-family="Arial, sans-serif" font-size="14" font-weight="bold" text-anchor="middle">REGNSKAPSMESSIG</text><text x="100" y="40" fill="#2e7d32" font-family="Arial, sans-serif" font-size="14" font-weight="bold" text-anchor="middle">RESULTAT</text><text x="100" y="55" fill="#333" font-family="Arial, sans-serif" font-size="12" text-anchor="middle">NOK 1.000.000</text><path stroke="#666" stroke-width="3" marker-end="url(#b)" d="M100 65v20"/><g transform="translate(0 90)"><rect width="700" height="200" fill="#fff" stroke="#ddd" stroke-width="2" rx="10"/><text x="350" y="20" fill="#333" font-family="Arial, sans-serif" font-size="16" font-weight="bold" text-anchor="middle">SKATTEMESSIGE JUSTERINGER</text><g transform="translate(20 40)"><rect width="320" height="140" fill="#ffebee" stroke="#f44336" rx="5"/><text x="160" y="18" fill="#c62828" font-family="Arial, sans-serif" font-size="14" font-weight="bold" text-anchor="middle">IKKE-FRADRAGSBERETTIGEDE KOSTNADER</text><text x="160" y="32" fill="#c62828" font-family="Arial, sans-serif" font-size="12" text-anchor="middle">(TILLEGG)</text><g fill="#333" font-family="Arial, sans-serif" font-size="11"><text transform="translate(10 45)">• Representasjon over grense:</text><text x="220" fill="#f44336" transform="translate(10 45)">+ 50.000</text><text y="15" transform="translate(10 45)">• Bøter og sanksjoner:</text><text x="220" y="15" fill="#f44336" transform="translate(10 45)">+ 25.000</text><text y="30" transform="translate(10 45)">• Private kostnader:</text><text x="220" y="30" fill="#f44336" transform="translate(10 45)">+ 15.000</text><text y="45" transform="translate(10 45)">• Gaver over grense:</text><text x="220" y="45" fill="#f44336" transform="translate(10 45)">+ 10.000</text><text y="70" font-weight="bold" transform="translate(10 45)">Sum tillegg:</text><text x="220" y="70" fill="#f44336" font-weight="bold" transform="translate(10 45)">+ 100.000</text></g></g><g transform="translate(360 40)"><rect width="320" height="140" fill="#e8f5e8" stroke="#4caf50" rx="5"/><text x="160" y="18" fill="#2e7d32" font-family="Arial, sans-serif" font-size="14" font-weight="bold" text-anchor="middle">SKATTEFRIE INNTEKTER</text><text x="160" y="32" fill="#2e7d32" font-family="Arial, sans-serif" font-size="12" text-anchor="middle">(FRADRAG)</text><g fill="#333" font-family="Arial, sans-serif" font-size="11"><text transform="translate(10 45)">• Konsernbidrag mottatt:</text><text x="220" fill="#4caf50" transform="translate(10 45)">- 200.000</text><text y="15" transform="translate(10 45)">• Utbytte fra datterselskap:</text><text x="220" y="15" fill="#4caf50" transform="translate(10 45)">- 50.000</text><text y="30" transform="translate(10 45)">• Skattefrie gevinster:</text><text x="220" y="30" fill="#4caf50" transform="translate(10 45)">- 25.000</text><text y="45" transform="translate(10 45)">• Andre skattefrie poster:</text><text x="220" y="45" fill="#4caf50" transform="translate(10 45)">- 5.000</text><text y="70" font-weight="bold" transform="translate(10 45)">Sum fradrag:</text><text x="220" y="70" fill="#4caf50" font-weight="bold" transform="translate(10 45)">- 280.000</text></g></g></g><path stroke="#666" stroke-width="3" marker-end="url(#b)" d="M100 295v20"/><g transform="translate(0 320)"><rect width="700" height="120" fill="#fff3e0" stroke="#ff9800" stroke-width="2" rx="10"/><text x="350" y="20" fill="#e65100" font-family="Arial, sans-serif" font-size="16" font-weight="bold" text-anchor="middle">TIMING-FORSKJELLER</text><g transform="translate(50 35)"><rect width="280" height="70" fill="#ffe0b2" stroke="#ff9800" rx="3"/><text x="140" y="15" fill="#e65100" font-family="Arial, sans-serif" font-size="12" font-weight="bold" text-anchor="middle">AVSKRIVNINGSFORSKJELLER</text><text x="10" y="30" fill="#333" font-family="Arial, sans-serif" font-size="10">Regnskapsmessig avskrivning: 180.000</text><text x="10" y="42" fill="#333" font-family="Arial, sans-serif" font-size="10">Skattemessig avskrivning: 250.000</text><text x="10" y="54" fill="#ff9800" font-family="Arial, sans-serif" font-size="10" font-weight="bold">Forskjell (fradrag): -70.000</text><rect width="280" height="70" x="300" fill="#ffe0b2" stroke="#ff9800" rx="3"/><text x="440" y="15" fill="#e65100" font-family="Arial, sans-serif" font-size="12" font-weight="bold" text-anchor="middle">ANDRE TIMING-FORSKJELLER</text><text x="310" y="30" fill="#333" font-family="Arial, sans-serif" font-size="10">Nedskrivninger ikke fradragsberettiget: +15.000</text><text x="310" y="42" fill="#333" font-family="Arial, sans-serif" font-size="10">Avsetninger ikke fradragsberettiget: +30.000</text><text x="310" y="54" fill="#ff9800" font-family="Arial, sans-serif" font-size="10" font-weight="bold">Sum timing-forskjell: +45.000</text></g></g><path stroke="#666" stroke-width="3" marker-end="url(#b)" d="M100 445v20"/><g transform="translate(0 470)"><rect width="700" height="80" fill="#f3e5f5" stroke="#9c27b0" stroke-width="3" rx="10"/><text x="350" y="25" fill="#6a1b9a" font-family="Arial, sans-serif" font-size="16" font-weight="bold" text-anchor="middle">SKATTEPLIKTIG INNTEKT</text><g transform="translate(50 35)"><text y="15" fill="#333" font-family="Arial, sans-serif" font-size="12">Regnskapsmessig resultat:</text><text x="200" y="15" fill="#333" font-family="Arial, sans-serif" font-size="12">1.000.000</text><text y="30" fill="#333" font-family="Arial, sans-serif" font-size="12">+ Ikke-fradragsberettigede kostnader:</text><text x="200" y="30" fill="#f44336" font-family="Arial, sans-serif" font-size="12">100.000</text><text x="250" y="15" fill="#333" font-family="Arial, sans-serif" font-size="12">- Skattefrie inntekter:</text><text x="400" y="15" fill="#4caf50" font-family="Arial, sans-serif" font-size="12">280.000</text><text x="250" y="30" fill="#333" font-family="Arial, sans-serif" font-size="12">+/- Timing-forskjeller:</text><text x="400" y="30" fill="#ff9800" font-family="Arial, sans-serif" font-size="12">-25.000</text><rect width="150" height="30" x="450" y="5" fill="#9c27b0" rx="5"/><text x="525" y="18" fill="#fff" font-family="Arial, sans-serif" font-size="12" font-weight="bold" text-anchor="middle">Skattepliktig inntekt:</text><text x="525" y="30" fill="#fff" font-family="Arial, sans-serif" font-size="14" font-weight="bold" text-anchor="middle">795.000</text></g></g></g><g transform="translate(350 100)"><rect width="400" height="180" fill="#e1f5fe" stroke="#2196f3" stroke-width="2" rx="10"/><text x="200" y="20" fill="#1565c0" font-family="Arial, sans-serif" font-size="16" font-weight="bold" text-anchor="middle">UTSATT SKATT BEREGNING</text><g transform="translate(20 30)"><text y="20" fill="#333" font-family="Arial, sans-serif" font-size="12" font-weight="bold">Timing-forskjeller som reverser:</text><text x="10" y="40" fill="#333" font-family="Arial, sans-serif" font-size="11">Avskrivningsforskjell:</text><text x="200" y="40" fill="#333" font-family="Arial, sans-serif" font-size="11">70.000</text><text x="10" y="55" fill="#333" font-family="Arial, sans-serif" font-size="11">Andre timing-forskjeller:</text><text x="200" y="55" fill="#333" font-family="Arial, sans-serif" font-size="11">-45.000</text><path stroke="#ddd" d="M0 65h360"/><text x="10" y="80" fill="#333" font-family="Arial, sans-serif" font-size="11" font-weight="bold">Netto timing-forskjell:</text><text x="200" y="80" fill="#333" font-family="Arial, sans-serif" font-size="11" font-weight="bold">25.000</text><text x="10" y="100" fill="#333" font-family="Arial, sans-serif" font-size="11">Skattesats (22%):</text><text x="200" y="100" fill="#333" font-family="Arial, sans-serif" font-size="11">× 0,22</text><path stroke="#2196f3" stroke-width="2" d="M0 110h360"/><rect width="120" height="25" x="180" y="120" fill="#2196f3" rx="3"/><text x="240" y="135" fill="#fff" font-family="Arial, sans-serif" font-size="12" font-weight="bold" text-anchor="middle">Utsatt skattegjeld:</text><text x="240" y="148" fill="#fff" font-family="Arial, sans-serif" font-size="12" font-weight="bold" text-anchor="middle">5.500</text></g></g><defs><marker id="b" markerHeight="7" markerWidth="10" orient="auto" refX="10" refY="3.5"><path fill="#666" d="m0 0 10 3.5L0 7z"/></marker></defs></svg>