<svg xmlns="http://www.w3.org/2000/svg" width="800" height="500"><path fill="#f8f9fa" d="M0 0h800v500H0z"/><text x="400" y="40" fill="#2c3e50" font-family="Arial, sans-serif" font-size="24" font-weight="bold" text-anchor="middle">
    Skattebehandling av Lett Salær
  </text><rect width="150" height="80" x="50" y="80" fill="#3498db" stroke="#2980b9" stroke-width="2" rx="10"/><text x="125" y="110" fill="#fff" font-family="Arial, sans-serif" font-size="14" font-weight="bold" text-anchor="middle">
    Lett Salær
  </text><text x="125" y="130" fill="#fff" font-family="Arial, sans-serif" font-size="16" font-weight="bold" text-anchor="middle">
    20.000 kr
  </text><text x="125" y="150" fill="#fff" font-family="Arial, sans-serif" font-size="12" text-anchor="middle">
    (maksimalt per år)
  </text><path fill="#2c3e50" d="m210 120 30-10v20z"/><path stroke="#2c3e50" stroke-width="2" d="M200 120h40"/><rect width="150" height="80" x="250" y="80" fill="#e74c3c" stroke="#c0392b" stroke-width="2" rx="10"/><text x="325" y="105" fill="#fff" font-family="Arial, sans-serif" font-size="14" font-weight="bold" text-anchor="middle">
    Skatt
  </text><text x="325" y="125" fill="#fff" font-family="Arial, sans-serif" font-size="16" font-weight="bold" text-anchor="middle">
    20%
  </text><text x="325" y="145" fill="#fff" font-family="Arial, sans-serif" font-size="12" text-anchor="middle">
    = 4.000 kr
  </text><path fill="#2c3e50" d="m410 120 30-10v20z"/><path stroke="#2c3e50" stroke-width="2" d="M400 120h40"/><rect width="150" height="80" x="450" y="80" fill="#27ae60" stroke="#229954" stroke-width="2" rx="10"/><text x="525" y="105" fill="#fff" font-family="Arial, sans-serif" font-size="14" font-weight="bold" text-anchor="middle">
    Netto Utbetalt
  </text><text x="525" y="125" fill="#fff" font-family="Arial, sans-serif" font-size="16" font-weight="bold" text-anchor="middle">
    20.000 kr
  </text><text x="525" y="145" fill="#fff" font-family="Arial, sans-serif" font-size="12" text-anchor="middle">
    (skatt betales senere)
  </text><rect width="700" height="250" x="50" y="200" fill="#fff" stroke="#e9ecef" stroke-width="2" rx="10"/><text x="400" y="230" fill="#2c3e50" font-family="Arial, sans-serif" font-size="20" font-weight="bold" text-anchor="middle">
    Viktige Skattemessige Forhold
  </text><rect width="300" height="180" x="80" y="250" fill="#e8f4fd" stroke="#3498db" rx="5"/><text x="230" y="275" fill="#3498db" font-family="Arial, sans-serif" font-size="16" font-weight="bold" text-anchor="middle">
    For Mottakeren
  </text><circle cx="100" cy="300" r="4" fill="#3498db"/><text x="115" y="305" fill="#2c3e50" font-family="Arial, sans-serif" font-size="13">
    20% skatt på hele beløpet
  </text><circle cx="100" cy="325" r="4" fill="#3498db"/><text x="115" y="330" fill="#2c3e50" font-family="Arial, sans-serif" font-size="13">
    Ingen forskuddstrekk
  </text><circle cx="100" cy="350" r="4" fill="#3498db"/><text x="115" y="355" fill="#2c3e50" font-family="Arial, sans-serif" font-size="13">
    Skatt betales ved selvangivelse
  </text><circle cx="100" cy="375" r="4" fill="#e74c3c"/><text x="115" y="380" fill="#2c3e50" font-family="Arial, sans-serif" font-size="13">
    Ikke pensjonsgivende inntekt
  </text><circle cx="100" cy="400" r="4" fill="#e74c3c"/><text x="115" y="405" fill="#2c3e50" font-family="Arial, sans-serif" font-size="13">
    Ikke grunnlag for feriepenger
  </text><rect width="300" height="180" x="420" y="250" fill="#e8f5e8" stroke="#27ae60" rx="5"/><text x="570" y="275" fill="#27ae60" font-family="Arial, sans-serif" font-size="16" font-weight="bold" text-anchor="middle">
    For Oppdragsgiveren
  </text><circle cx="440" cy="300" r="4" fill="#27ae60"/><text x="455" y="305" fill="#2c3e50" font-family="Arial, sans-serif" font-size="13">
    Ingen arbeidsgiveravgift (0%)
  </text><circle cx="440" cy="325" r="4" fill="#27ae60"/><text x="455" y="330" fill="#2c3e50" font-family="Arial, sans-serif" font-size="13">
    Rapportering til Skatteetaten
  </text><circle cx="440" cy="350" r="4" fill="#27ae60"/><text x="455" y="355" fill="#2c3e50" font-family="Arial, sans-serif" font-size="13">
    Oppbevaring av dokumentasjon
  </text><circle cx="440" cy="375" r="4" fill="#f39c12"/><text x="455" y="380" fill="#2c3e50" font-family="Arial, sans-serif" font-size="13">
    Frist: 31. januar året etter
  </text><circle cx="440" cy="400" r="4" fill="#f39c12"/><text x="455" y="405" fill="#2c3e50" font-family="Arial, sans-serif" font-size="13">
    Dokumentasjon i 5 år
  </text><rect width="600" height="25" x="100" y="460" fill="#fff3cd" stroke="#ffc107" rx="5"/><text x="400" y="477" fill="#856404" font-family="Arial, sans-serif" font-size="12" font-weight="bold" text-anchor="middle">
    Husk: Skatten må betales selv ved levering av selvangivelse
  </text></svg>