<svg xmlns="http://www.w3.org/2000/svg" width="800" height="500"><defs><linearGradient id="a" x1="0%" x2="100%" y1="0%" y2="100%"><stop offset="0%" style="stop-color:#f8f9fa;stop-opacity:1"/><stop offset="100%" style="stop-color:#e9ecef;stop-opacity:1"/></linearGradient><filter id="b" width="140%" height="140%" x="-20%" y="-20%"><feDropShadow dx="2" dy="2" flood-color="#00000020" stdDeviation="3"/></filter></defs><path fill="url(#a)" d="M0 0h800v500H0z"/><text x="400" y="30" fill="#06c" font-family="Arial, sans-serif" font-size="24" font-weight="bold" text-anchor="middle">
    Fakturasalg Prosess
  </text><g transform="translate(50 80)"><rect width="120" height="80" fill="#e3f2fd" stroke="#1976d2" stroke-width="2" filter="url(#b)" rx="10"/><text x="60" y="25" fill="#1976d2" font-family="Arial, sans-serif" font-size="12" font-weight="bold" text-anchor="middle">STEG 1</text><text x="60" y="40" fill="#333" font-family="Arial, sans-serif" font-size="11" text-anchor="middle">Kunde</text><text x="60" y="55" fill="#333" font-family="Arial, sans-serif" font-size="11" text-anchor="middle">legger ordre</text><circle cx="60" cy="100" r="15" fill="#1976d2"/><text x="60" y="105" fill="#fff" font-family="Arial, sans-serif" font-size="10" text-anchor="middle">1</text></g><path fill="none" stroke="#666" stroke-width="2" d="M180 115h40l-5-5m5 5-5 5"/><g transform="translate(230 80)"><rect width="120" height="80" fill="#e8f5e8" stroke="#388e3c" stroke-width="2" filter="url(#b)" rx="10"/><text x="60" y="25" fill="#388e3c" font-family="Arial, sans-serif" font-size="12" font-weight="bold" text-anchor="middle">STEG 2</text><text x="60" y="40" fill="#333" font-family="Arial, sans-serif" font-size="11" text-anchor="middle">Levering av</text><text x="60" y="55" fill="#333" font-family="Arial, sans-serif" font-size="11" text-anchor="middle">varer/tjenester</text><circle cx="60" cy="100" r="15" fill="#388e3c"/><text x="60" y="105" fill="#fff" font-family="Arial, sans-serif" font-size="10" text-anchor="middle">2</text></g><path fill="none" stroke="#666" stroke-width="2" d="M360 115h40l-5-5m5 5-5 5"/><g transform="translate(410 80)"><rect width="120" height="80" fill="#fff3e0" stroke="#f57c00" stroke-width="2" filter="url(#b)" rx="10"/><text x="60" y="25" fill="#f57c00" font-family="Arial, sans-serif" font-size="12" font-weight="bold" text-anchor="middle">STEG 3</text><text x="60" y="40" fill="#333" font-family="Arial, sans-serif" font-size="11" text-anchor="middle">Faktura</text><text x="60" y="55" fill="#333" font-family="Arial, sans-serif" font-size="11" text-anchor="middle">sendes</text><circle cx="60" cy="100" r="15" fill="#f57c00"/><text x="60" y="105" fill="#fff" font-family="Arial, sans-serif" font-size="10" text-anchor="middle">3</text></g><path fill="none" stroke="#666" stroke-width="2" d="M540 115h40l-5-5m5 5-5 5"/><g transform="translate(590 80)"><rect width="120" height="80" fill="#f3e5f5" stroke="#7b1fa2" stroke-width="2" filter="url(#b)" rx="10"/><text x="60" y="25" fill="#7b1fa2" font-family="Arial, sans-serif" font-size="12" font-weight="bold" text-anchor="middle">STEG 4</text><text x="60" y="40" fill="#333" font-family="Arial, sans-serif" font-size="11" text-anchor="middle">Betaling</text><text x="60" y="55" fill="#333" font-family="Arial, sans-serif" font-size="11" text-anchor="middle">mottas</text><circle cx="60" cy="100" r="15" fill="#7b1fa2"/><text x="60" y="105" fill="#fff" font-family="Arial, sans-serif" font-size="10" text-anchor="middle">4</text></g><g transform="translate(50 220)"><text fill="#333" font-family="Arial, sans-serif" font-size="16" font-weight="bold">Tidslinje og Regnskapsføring:</text><path stroke="#ddd" stroke-width="3" d="M0 40h660"/><circle cy="40" r="8" fill="#1976d2"/><text y="60" fill="#333" font-family="Arial, sans-serif" font-size="10" text-anchor="middle">Dag 0</text><text y="75" fill="#666" font-family="Arial, sans-serif" font-size="9" text-anchor="middle">Ordre</text><circle cx="165" cy="40" r="8" fill="#388e3c"/><text x="165" y="60" fill="#333" font-family="Arial, sans-serif" font-size="10" text-anchor="middle">Dag 1</text><text x="165" y="75" fill="#666" font-family="Arial, sans-serif" font-size="9" text-anchor="middle">Levering</text><circle cx="330" cy="40" r="8" fill="#f57c00"/><text x="330" y="60" fill="#333" font-family="Arial, sans-serif" font-size="10" text-anchor="middle">Dag 2</text><text x="330" y="75" fill="#666" font-family="Arial, sans-serif" font-size="9" text-anchor="middle">Fakturering</text><rect width="100" height="40" x="280" y="85" fill="#fff3e0" stroke="#f57c00" rx="5"/><text x="330" y="100" fill="#333" font-family="Arial, sans-serif" font-size="8" text-anchor="middle">Inntekt registreres</text><text x="330" y="110" fill="#333" font-family="Arial, sans-serif" font-size="8" text-anchor="middle">Kundefordring</text><text x="330" y="120" fill="#333" font-family="Arial, sans-serif" font-size="8" text-anchor="middle">oppstår</text><circle cx="660" cy="40" r="8" fill="#7b1fa2"/><text x="660" y="60" fill="#333" font-family="Arial, sans-serif" font-size="10" text-anchor="middle">Dag 32</text><text x="660" y="75" fill="#666" font-family="Arial, sans-serif" font-size="9" text-anchor="middle">Betaling</text><rect width="100" height="40" x="610" y="85" fill="#f3e5f5" stroke="#7b1fa2" rx="5"/><text x="660" y="100" fill="#333" font-family="Arial, sans-serif" font-size="8" text-anchor="middle">Kundefordring</text><text x="660" y="110" fill="#333" font-family="Arial, sans-serif" font-size="8" text-anchor="middle">innfris</text><text x="660" y="120" fill="#333" font-family="Arial, sans-serif" font-size="8" text-anchor="middle">Kontanter inn</text></g><text fill="#333" font-family="Arial, sans-serif" font-size="16" font-weight="bold" transform="translate(50 360)">Viktige Punkter:</text><g transform="translate(50 385)"><circle cx="5" cy="5" r="3" fill="#dc3545"/><text x="15" y="9" fill="#333" font-family="Arial, sans-serif" font-size="12">Kredittrisiko: 30 dager mellom levering og betaling</text></g><g transform="translate(50 405)"><circle cx="5" cy="5" r="3" fill="#ffc107"/><text x="15" y="9" fill="#333" font-family="Arial, sans-serif" font-size="12">Likviditetsutfordring: Penger bundet opp i kundefordringer</text></g><g transform="translate(50 425)"><circle cx="5" cy="5" r="3" fill="#28a745"/><text x="15" y="9" fill="#333" font-family="Arial, sans-serif" font-size="12">Konkurransefortrinn: Fleksible betalingsvilkår tiltrekker kunder</text></g><g transform="translate(450 385)"><circle cx="5" cy="5" r="3" fill="#17a2b8"/><text x="15" y="9" fill="#333" font-family="Arial, sans-serif" font-size="12">Regnskapsføring: Inntekt registreres ved fakturering</text></g><g transform="translate(450 405)"><circle cx="5" cy="5" r="3" fill="#6f42c1"/><text x="15" y="9" fill="#333" font-family="Arial, sans-serif" font-size="12">Oppfølging: Systematisk debitorhåndtering nødvendig</text></g></svg>