<svg width="800" height="400" xmlns="http://www.w3.org/2000/svg">
  <defs>
    <linearGradient id="bgGradient" x1="0%" y1="0%" x2="100%" y2="100%">
      <stop offset="0%" style="stop-color:#f8f9fa;stop-opacity:1" />
      <stop offset="100%" style="stop-color:#e9ecef;stop-opacity:1" />
    </linearGradient>
    <linearGradient id="headerGradient" x1="0%" y1="0%" x2="100%" y2="0%">
      <stop offset="0%" style="stop-color:#0066cc;stop-opacity:1" />
      <stop offset="100%" style="stop-color:#004499;stop-opacity:1" />
    </linearGradient>
  </defs>


  <rect width="800" height="400" fill="url(#bgGradient)"/>


  <rect x="0" y="0" width="800" height="80" fill="url(#headerGradient)"/>


  <text x="400" y="35" text-anchor="middle" font-family="Arial, sans-serif" font-size="28" font-weight="bold" fill="white">
    Hva er Fakturasalg?
  </text>
  <text x="400" y="60" text-anchor="middle" font-family="Arial, sans-serif" font-size="16" fill="white">
    Komplett Guide til Kredittgivning og Debitorhåndtering
  </text>


  <g transform="translate(100, 120)">
    <rect x="0" y="0" width="120" height="150" fill="white" stroke="#0066cc" stroke-width="2" rx="5"/>
    <rect x="10" y="15" width="100" height="8" fill="#0066cc"/>
    <rect x="10" y="35" width="80" height="4" fill="#666"/>
    <rect x="10" y="45" width="60" height="4" fill="#666"/>
    <rect x="10" y="55" width="90" height="4" fill="#666"/>
    <rect x="10" y="75" width="70" height="4" fill="#666"/>
    <rect x="10" y="85" width="50" height="4" fill="#666"/>
    <rect x="10" y="105" width="100" height="6" fill="#28a745"/>
    <text x="60" y="130" text-anchor="middle" font-family="Arial, sans-serif" font-size="12" fill="#0066cc">FAKTURA</text>
  </g>


  <g transform="translate(250, 180)">
    <path d="M 0 0 L 80 0 L 70 -10 M 80 0 L 70 10" stroke="#0066cc" stroke-width="3" fill="none"/>
    <text x="40" y="-15" text-anchor="middle" font-family="Arial, sans-serif" font-size="12" fill="#0066cc">Kredittid</text>
  </g>


  <g transform="translate(360, 120)">
    <circle cx="60" cy="40" r="25" fill="#28a745" stroke="#1e7e34" stroke-width="2"/>
    <circle cx="60" cy="35" r="8" fill="white"/>
    <path d="M 45 55 Q 60 45 75 55 L 75 70 Q 60 80 45 70 Z" fill="white"/>
    <rect x="20" y="80" width="80" height="60" fill="white" stroke="#28a745" stroke-width="2" rx="5"/>
    <text x="60" y="100" text-anchor="middle" font-family="Arial, sans-serif" font-size="10" fill="#28a745">KUNDE</text>
    <text x="60" y="115" text-anchor="middle" font-family="Arial, sans-serif" font-size="8" fill="#666">Mottar varer</text>
    <text x="60" y="125" text-anchor="middle" font-family="Arial, sans-serif" font-size="8" fill="#666">Betaler senere</text>
  </g>


  <g transform="translate(470, 180)">
    <path d="M 0 0 L 80 0 L 70 -10 M 80 0 L 70 10" stroke="#28a745" stroke-width="3" fill="none"/>
    <text x="40" y="-15" text-anchor="middle" font-family="Arial, sans-serif" font-size="12" fill="#28a745">Betaling</text>
  </g>


  <g transform="translate(580, 120)">
    <rect x="0" y="40" width="120" height="80" fill="#ffc107" stroke="#e0a800" stroke-width="2" rx="5"/>
    <rect x="10" y="20" width="100" height="30" fill="#ffc107" stroke="#e0a800" stroke-width="2" rx="3"/>
    <rect x="20" y="0" width="80" height="30" fill="#ffc107" stroke="#e0a800" stroke-width="2" rx="3"/>
    <circle cx="60" cy="80" r="15" fill="white"/>
    <text x="60" y="85" text-anchor="middle" font-family="Arial, sans-serif" font-size="12" fill="#e0a800">kr</text>
    <text x="60" y="110" text-anchor="middle" font-family="Arial, sans-serif" font-size="10" fill="#e0a800">BETALING</text>
  </g>


  <g transform="translate(50, 300)">
    <text x="0" y="0" font-family="Arial, sans-serif" font-size="14" font-weight="bold" fill="#0066cc">Hovedfordeler:</text>
    <text x="0" y="20" font-family="Arial, sans-serif" font-size="12" fill="#666">• Økt salgsvolum</text>
    <text x="0" y="35" font-family="Arial, sans-serif" font-size="12" fill="#666">• Konkurransefortrinn</text>
    <text x="0" y="50" font-family="Arial, sans-serif" font-size="12" fill="#666">• Kundelojalitet</text>
  </g>


  <g transform="translate(400, 300)">
    <text x="0" y="0" font-family="Arial, sans-serif" font-size="14" font-weight="bold" fill="#dc3545">Hovedutfordringer:</text>
    <text x="0" y="20" font-family="Arial, sans-serif" font-size="12" fill="#666">• Likviditetsutfordringer</text>
    <text x="0" y="35" font-family="Arial, sans-serif" font-size="12" fill="#666">• Kredittrisiko</text>
    <text x="0" y="50" font-family="Arial, sans-serif" font-size="12" fill="#666">• Administrative kostnader</text>
  </g>
</svg>
