<svg xmlns="http://www.w3.org/2000/svg" width="800" height="600" viewBox="0 0 800 600"><path fill="#f8f9fa" d="M0 0h800v600H0z"/><text x="400" y="30" fill="#2c3e50" font-family="Arial, sans-serif" font-size="24" font-weight="bold" text-anchor="middle">
    Struktur og Organisering av Arbeidspapirer
  </text><text fill="#2c3e50" font-family="Arial, sans-serif" font-size="18" font-weight="bold" transform="translate(50 70)">Hovedkategorier</text><g transform="translate(50 100)"><rect width="320" height="180" fill="#3498db" stroke="#2980b9" stroke-width="2" rx="10"/><text x="160" y="25" fill="#fff" font-family="Arial, sans-serif" font-size="16" font-weight="bold" text-anchor="middle">PERMANENTE FILER</text><text x="160" y="45" fill="#fff" font-family="Arial, sans-serif" font-size="12" text-anchor="middle">Informasjon relevant over flere år</text><g transform="translate(20 65)"><rect width="120" height="25" fill="#2980b9" stroke="#1f4e79" rx="3"/><text x="60" y="17" fill="#fff" font-family="Arial, sans-serif" font-size="11" font-weight="bold" text-anchor="middle">Selskapsinfo</text></g><g transform="translate(160 65)"><rect width="120" height="25" fill="#2980b9" stroke="#1f4e79" rx="3"/><text x="60" y="17" fill="#fff" font-family="Arial, sans-serif" font-size="11" font-weight="bold" text-anchor="middle">Avtaler</text></g><g transform="translate(20 100)"><rect width="120" height="25" fill="#2980b9" stroke="#1f4e79" rx="3"/><text x="60" y="17" fill="#fff" font-family="Arial, sans-serif" font-size="11" font-weight="bold" text-anchor="middle">Regnskapsrutiner</text></g><g transform="translate(160 100)"><rect width="120" height="25" fill="#2980b9" stroke="#1f4e79" rx="3"/><text x="60" y="17" fill="#fff" font-family="Arial, sans-serif" font-size="11" font-weight="bold" text-anchor="middle">Tidligere revisjoner</text></g><text x="20" y="150" fill="#fff" font-family="Arial, sans-serif" font-size="10">Eksempler:</text><text x="20" y="165" fill="#fff" font-family="Arial, sans-serif" font-size="10">• Vedtekter, organisasjonskart</text><text x="160" y="165" fill="#fff" font-family="Arial, sans-serif" font-size="10">• Leieavtaler, låneavtaler</text></g><g transform="translate(430 100)"><rect width="320" height="180" fill="#e74c3c" stroke="#c0392b" stroke-width="2" rx="10"/><text x="160" y="25" fill="#fff" font-family="Arial, sans-serif" font-size="16" font-weight="bold" text-anchor="middle">LØPENDE FILER</text><text x="160" y="45" fill="#fff" font-family="Arial, sans-serif" font-size="12" text-anchor="middle">Informasjon for inneværende års revisjon</text><g transform="translate(20 65)"><rect width="120" height="25" fill="#c0392b" stroke="#922b21" rx="3"/><text x="60" y="17" fill="#fff" font-family="Arial, sans-serif" font-size="11" font-weight="bold" text-anchor="middle">Planlegging</text></g><g transform="translate(160 65)"><rect width="120" height="25" fill="#c0392b" stroke="#922b21" rx="3"/><text x="60" y="17" fill="#fff" font-family="Arial, sans-serif" font-size="11" font-weight="bold" text-anchor="middle">Utførelse</text></g><g transform="translate(20 100)"><rect width="120" height="25" fill="#c0392b" stroke="#922b21" rx="3"/><text x="60" y="17" fill="#fff" font-family="Arial, sans-serif" font-size="11" font-weight="bold" text-anchor="middle">Gjennomgang</text></g><g transform="translate(160 100)"><rect width="120" height="25" fill="#c0392b" stroke="#922b21" rx="3"/><text x="60" y="17" fill="#fff" font-family="Arial, sans-serif" font-size="11" font-weight="bold" text-anchor="middle">Avslutning</text></g><text x="20" y="150" fill="#fff" font-family="Arial, sans-serif" font-size="10">Eksempler:</text><text x="20" y="165" fill="#fff" font-family="Arial, sans-serif" font-size="10">• Risikovurderinger</text><text x="160" y="165" fill="#fff" font-family="Arial, sans-serif" font-size="10">• Tester, analyser</text></g><text fill="#2c3e50" font-family="Arial, sans-serif" font-size="18" font-weight="bold" transform="translate(50 300)">Organiseringssystemer</text><g transform="translate(50 330)"><rect width="320" height="140" fill="#f39c12" stroke="#e67e22" stroke-width="2" rx="10"/><text x="160" y="25" fill="#fff" font-family="Arial, sans-serif" font-size="16" font-weight="bold" text-anchor="middle">NUMERISK SYSTEM</text><g transform="translate(20 45)"><rect width="60" height="20" fill="#e67e22" stroke="#d35400" rx="3"/><text x="30" y="14" fill="#fff" font-family="Arial, sans-serif" font-size="10" font-weight="bold" text-anchor="middle">100</text><text x="70" y="14" fill="#fff" font-family="Arial, sans-serif" font-size="11">Planlegging</text></g><g transform="translate(20 70)"><rect width="60" height="20" fill="#e67e22" stroke="#d35400" rx="3"/><text x="30" y="14" fill="#fff" font-family="Arial, sans-serif" font-size="10" font-weight="bold" text-anchor="middle">110</text><text x="70" y="14" fill="#fff" font-family="Arial, sans-serif" font-size="11">Risikovurdering</text></g><g transform="translate(20 95)"><rect width="60" height="20" fill="#e67e22" stroke="#d35400" rx="3"/><text x="30" y="14" fill="#fff" font-family="Arial, sans-serif" font-size="10" font-weight="bold" text-anchor="middle">110.1</text><text x="70" y="14" fill="#fff" font-family="Arial, sans-serif" font-size="11">Individuelt papir</text></g><g transform="translate(160 45)"><rect width="60" height="20" fill="#e67e22" stroke="#d35400" rx="3"/><text x="30" y="14" fill="#fff" font-family="Arial, sans-serif" font-size="10" font-weight="bold" text-anchor="middle">200</text><text x="70" y="14" fill="#fff" font-family="Arial, sans-serif" font-size="11">Utførelse</text></g><g transform="translate(160 70)"><rect width="60" height="20" fill="#e67e22" stroke="#d35400" rx="3"/><text x="30" y="14" fill="#fff" font-family="Arial, sans-serif" font-size="10" font-weight="bold" text-anchor="middle">210</text><text x="70" y="14" fill="#fff" font-family="Arial, sans-serif" font-size="11">Kontrolltesting</text></g><g transform="translate(160 95)"><rect width="60" height="20" fill="#e67e22" stroke="#d35400" rx="3"/><text x="30" y="14" fill="#fff" font-family="Arial, sans-serif" font-size="10" font-weight="bold" text-anchor="middle">210.1</text><text x="70" y="14" fill="#fff" font-family="Arial, sans-serif" font-size="11">Spesifikk test</text></g></g><g transform="translate(430 330)"><rect width="320" height="140" fill="#27ae60" stroke="#229954" stroke-width="2" rx="10"/><text x="160" y="25" fill="#fff" font-family="Arial, sans-serif" font-size="16" font-weight="bold" text-anchor="middle">ALFABETISK SYSTEM</text><g transform="translate(20 45)"><rect width="30" height="20" fill="#229954" stroke="#1e8449" rx="3"/><text x="15" y="14" fill="#fff" font-family="Arial, sans-serif" font-size="10" font-weight="bold" text-anchor="middle">A</text><text x="40" y="14" fill="#fff" font-family="Arial, sans-serif" font-size="11">Administrative forhold</text></g><g transform="translate(20 70)"><rect width="30" height="20" fill="#229954" stroke="#1e8449" rx="3"/><text x="15" y="14" fill="#fff" font-family="Arial, sans-serif" font-size="10" font-weight="bold" text-anchor="middle">B</text><text x="40" y="14" fill="#fff" font-family="Arial, sans-serif" font-size="11">Balanseposter</text></g><g transform="translate(20 95)"><rect width="30" height="20" fill="#229954" stroke="#1e8449" rx="3"/><text x="15" y="14" fill="#fff" font-family="Arial, sans-serif" font-size="10" font-weight="bold" text-anchor="middle">R</text><text x="40" y="14" fill="#fff" font-family="Arial, sans-serif" font-size="11">Resultatposter</text></g><g transform="translate(160 45)"><rect width="30" height="20" fill="#229954" stroke="#1e8449" rx="3"/><text x="15" y="14" fill="#fff" font-family="Arial, sans-serif" font-size="10" font-weight="bold" text-anchor="middle">S</text><text x="40" y="14" fill="#fff" font-family="Arial, sans-serif" font-size="11">Sammendrag</text></g><g transform="translate(160 70)"><rect width="30" height="20" fill="#229954" stroke="#1e8449" rx="3"/><text x="15" y="14" fill="#fff" font-family="Arial, sans-serif" font-size="10" font-weight="bold" text-anchor="middle">K</text><text x="40" y="14" fill="#fff" font-family="Arial, sans-serif" font-size="11">Konklusjoner</text></g><g transform="translate(160 95)"><rect width="30" height="20" fill="#229954" stroke="#1e8449" rx="3"/><text x="15" y="14" fill="#fff" font-family="Arial, sans-serif" font-size="10" font-weight="bold" text-anchor="middle">T</text><text x="40" y="14" fill="#fff" font-family="Arial, sans-serif" font-size="11">Tester og prosedyrer</text></g></g><text x="300" fill="#2c3e50" font-family="Arial, sans-serif" font-size="16" font-weight="bold" text-anchor="middle" transform="translate(100 500)">Organisering og Tilgang</text><g transform="translate(100 525)"><rect width="80" height="30" fill="#9b59b6" stroke="#8e44ad" rx="5"/><text x="40" y="20" fill="#fff" font-family="Arial, sans-serif" font-size="11" font-weight="bold" text-anchor="middle">STRUKTUR</text><path stroke="#34495e" stroke-width="2" marker-end="url(#a)" d="M85 15h30"/><rect width="80" height="30" x="120" fill="#34495e" stroke="#2c3e50" rx="5"/><text x="160" y="20" fill="#fff" font-family="Arial, sans-serif" font-size="11" font-weight="bold" text-anchor="middle">INDEKS</text><path stroke="#34495e" stroke-width="2" marker-end="url(#a)" d="M205 15h30"/><rect width="80" height="30" x="240" fill="#16a085" stroke="#138d75" rx="5"/><text x="280" y="20" fill="#fff" font-family="Arial, sans-serif" font-size="11" font-weight="bold" text-anchor="middle">REFERANSE</text><path stroke="#34495e" stroke-width="2" marker-end="url(#a)" d="M325 15h30"/><rect width="80" height="30" x="360" fill="#e67e22" stroke="#d35400" rx="5"/><text x="400" y="20" fill="#fff" font-family="Arial, sans-serif" font-size="11" font-weight="bold" text-anchor="middle">TILGANG</text><path stroke="#34495e" stroke-width="2" marker-end="url(#a)" d="M445 15h30"/><rect width="80" height="30" x="480" fill="#c0392b" stroke="#a93226" rx="5"/><text x="520" y="20" fill="#fff" font-family="Arial, sans-serif" font-size="11" font-weight="bold" text-anchor="middle">EFFEKTIVITET</text></g><text x="650" fill="#2c3e50" font-family="Arial, sans-serif" font-size="14" font-weight="bold" transform="translate(50 480)">Fordeler:</text><g transform="translate(700 500)"><circle cx="5" r="3" fill="#3498db"/><text x="15" y="4" fill="#34495e" font-family="Arial, sans-serif" font-size="12">Rask tilgang</text></g><g transform="translate(700 515)"><circle cx="5" r="3" fill="#e74c3c"/><text x="15" y="4" fill="#34495e" font-family="Arial, sans-serif" font-size="12">Konsistens</text></g><g transform="translate(700 530)"><circle cx="5" r="3" fill="#f39c12"/><text x="15" y="4" fill="#34495e" font-family="Arial, sans-serif" font-size="12">Sporbarhet</text></g><g transform="translate(700 545)"><circle cx="5" r="3" fill="#27ae60"/><text x="15" y="4" fill="#34495e" font-family="Arial, sans-serif" font-size="12">Kvalitetskontroll</text></g><defs><marker id="a" markerHeight="7" markerWidth="10" orient="auto" refX="9" refY="3.5"><path fill="#34495e" d="m0 0 10 3.5L0 7z"/></marker></defs></svg>