<svg xmlns="http://www.w3.org/2000/svg" width="800" height="600"><defs><linearGradient id="a" x1="0%" x2="100%" y1="0%" y2="100%"><stop offset="0%" style="stop-color:#3498db;stop-opacity:1"/><stop offset="100%" style="stop-color:#2980b9;stop-opacity:1"/></linearGradient><linearGradient id="c" x1="0%" x2="100%" y1="0%" y2="100%"><stop offset="0%" style="stop-color:#27ae60;stop-opacity:1"/><stop offset="100%" style="stop-color:#229954;stop-opacity:1"/></linearGradient><linearGradient id="d" x1="0%" x2="100%" y1="0%" y2="100%"><stop offset="0%" style="stop-color:#f39c12;stop-opacity:1"/><stop offset="100%" style="stop-color:#e67e22;stop-opacity:1"/></linearGradient><filter id="b" width="140%" height="140%" x="-20%" y="-20%"><feDropShadow dx="2" dy="2" flood-color="#000" flood-opacity=".2" stdDeviation="3"/></filter></defs><path fill="#f8f9fa" d="M0 0h800v600H0z"/><text x="400" y="30" fill="#2c3e50" font-family="Arial, sans-serif" font-size="20" font-weight="bold" text-anchor="middle">
    Teknologisk Arkitektur for Landbrukets Dataflyt
  </text><rect width="600" height="100" x="100" y="70" fill="url(#a)" stroke="#2980b9" stroke-width="2" filter="url(#b)" rx="15"/><text x="400" y="100" fill="#fff" font-family="Arial, sans-serif" font-size="16" font-weight="bold" text-anchor="middle">
    CLOUD PLATTFORM
  </text><text x="400" y="120" fill="#fff" font-family="Arial, sans-serif" font-size="12" text-anchor="middle">
    Skalerbar databehandling og lagring
  </text><rect width="80" height="25" x="120" y="135" fill="rgba(255,255,255,0.3)" stroke="#fff" rx="5"/><text x="160" y="152" fill="#fff" font-family="Arial, sans-serif" font-size="9" text-anchor="middle">AI/ML Tjenester</text><rect width="80" height="25" x="220" y="135" fill="rgba(255,255,255,0.3)" stroke="#fff" rx="5"/><text x="260" y="152" fill="#fff" font-family="Arial, sans-serif" font-size="9" text-anchor="middle">Data Analytics</text><rect width="80" height="25" x="320" y="135" fill="rgba(255,255,255,0.3)" stroke="#fff" rx="5"/><text x="360" y="152" fill="#fff" font-family="Arial, sans-serif" font-size="9" text-anchor="middle">API Gateway</text><rect width="80" height="25" x="420" y="135" fill="rgba(255,255,255,0.3)" stroke="#fff" rx="5"/><text x="460" y="152" fill="#fff" font-family="Arial, sans-serif" font-size="9" text-anchor="middle">Database</text><rect width="80" height="25" x="520" y="135" fill="rgba(255,255,255,0.3)" stroke="#fff" rx="5"/><text x="560" y="152" fill="#fff" font-family="Arial, sans-serif" font-size="9" text-anchor="middle">Backup &amp; Sikkerhet</text><rect width="500" height="80" x="150" y="220" fill="url(#c)" stroke="#229954" stroke-width="2" filter="url(#b)" rx="12"/><text x="400" y="245" fill="#fff" font-family="Arial, sans-serif" font-size="14" font-weight="bold" text-anchor="middle">
    EDGE COMPUTING
  </text><text x="400" y="265" fill="#fff" font-family="Arial, sans-serif" font-size="11" text-anchor="middle">
    Lokal databehandling og sanntidsrespons
  </text><rect width="90" height="20" x="170" y="275" fill="rgba(255,255,255,0.3)" stroke="#fff" rx="3"/><text x="215" y="288" fill="#fff" font-family="Arial, sans-serif" font-size="8" text-anchor="middle">Lokal Database</text><rect width="90" height="20" x="280" y="275" fill="rgba(255,255,255,0.3)" stroke="#fff" rx="3"/><text x="325" y="288" fill="#fff" font-family="Arial, sans-serif" font-size="8" text-anchor="middle">Datafiltrering</text><rect width="90" height="20" x="390" y="275" fill="rgba(255,255,255,0.3)" stroke="#fff" rx="3"/><text x="435" y="288" fill="#fff" font-family="Arial, sans-serif" font-size="8" text-anchor="middle">Sanntidsanalyse</text><rect width="90" height="20" x="500" y="275" fill="rgba(255,255,255,0.3)" stroke="#fff" rx="3"/><text x="545" y="288" fill="#fff" font-family="Arial, sans-serif" font-size="8" text-anchor="middle">Kommunikasjon</text><rect width="700" height="120" x="50" y="350" fill="url(#d)" stroke="#e67e22" stroke-width="2" filter="url(#b)" rx="10"/><text x="400" y="380" fill="#fff" font-family="Arial, sans-serif" font-size="16" font-weight="bold" text-anchor="middle">
    ENHETER &amp; SENSORER
  </text><text x="400" y="400" fill="#fff" font-family="Arial, sans-serif" font-size="12" text-anchor="middle">
    Datainnsamling fra gården
  </text><rect width="120" height="40" x="70" y="420" fill="rgba(255,255,255,0.3)" stroke="#fff" rx="5"/><text x="130" y="435" fill="#fff" font-family="Arial, sans-serif" font-size="10" font-weight="bold" text-anchor="middle">IoT SENSORER</text><text x="130" y="450" fill="#fff" font-family="Arial, sans-serif" font-size="8" text-anchor="middle">Temperatur, fuktighet</text><rect width="120" height="40" x="210" y="420" fill="rgba(255,255,255,0.3)" stroke="#fff" rx="5"/><text x="270" y="435" fill="#fff" font-family="Arial, sans-serif" font-size="10" font-weight="bold" text-anchor="middle">MASKINER</text><text x="270" y="450" fill="#fff" font-family="Arial, sans-serif" font-size="8" text-anchor="middle">Traktorer, høstere</text><rect width="120" height="40" x="350" y="420" fill="rgba(255,255,255,0.3)" stroke="#fff" rx="5"/><text x="410" y="435" fill="#fff" font-family="Arial, sans-serif" font-size="10" font-weight="bold" text-anchor="middle">DYREOVERVÅKING</text><text x="410" y="450" fill="#fff" font-family="Arial, sans-serif" font-size="8" text-anchor="middle">Melkeroboter, chips</text><rect width="120" height="40" x="490" y="420" fill="rgba(255,255,255,0.3)" stroke="#fff" rx="5"/><text x="550" y="435" fill="#fff" font-family="Arial, sans-serif" font-size="10" font-weight="bold" text-anchor="middle">MOBILE ENHETER</text><text x="550" y="450" fill="#fff" font-family="Arial, sans-serif" font-size="8" text-anchor="middle">Tablets, smartphones</text><rect width="100" height="40" x="630" y="420" fill="rgba(255,255,255,0.3)" stroke="#fff" rx="5"/><text x="680" y="435" fill="#fff" font-family="Arial, sans-serif" font-size="10" font-weight="bold" text-anchor="middle">DRONER</text><text x="680" y="450" fill="#fff" font-family="Arial, sans-serif" font-size="8" text-anchor="middle">Luftovervåking</text><defs><marker id="e" markerHeight="7" markerWidth="10" orient="auto" refX="9" refY="3.5"><path fill="#34495e" d="m0 0 10 3.5L0 7z"/></marker></defs><path stroke="#34495e" stroke-width="3" marker-end="url(#e)" d="M400 170v50"/><path stroke="#34495e" stroke-width="3" marker-end="url(#e)" d="M400 300v50"/><text x="420" y="195" fill="#34495e" font-family="Arial, sans-serif" font-size="10">
    Strukturert data
  </text><text x="420" y="325" fill="#34495e" font-family="Arial, sans-serif" font-size="10">
    Rådata
  </text><rect width="700" height="80" x="50" y="500" fill="#fff" stroke="#bdc3c7" stroke-width="2" rx="8"/><text x="400" y="520" fill="#2c3e50" font-family="Arial, sans-serif" font-size="14" font-weight="bold" text-anchor="middle">
    TEKNOLOGISKE KOMPONENTER
  </text><g font-family="Arial, sans-serif"><text fill="#3498db" font-size="10" font-weight="bold" transform="translate(70 535)">KOMMUNIKASJON:</text><text y="15" fill="#2c3e50" font-size="9" transform="translate(70 535)">• 5G/4G nettverk</text><text y="28" fill="#2c3e50" font-size="9" transform="translate(70 535)">• WiFi &amp; LoRaWAN</text><text y="41" fill="#2c3e50" font-size="9" transform="translate(70 535)">• Satellittforbindelse</text><text x="180" fill="#27ae60" font-size="10" font-weight="bold" transform="translate(70 535)">DATABEHANDLING:</text><text x="180" y="15" fill="#2c3e50" font-size="9" transform="translate(70 535)">• Edge computing</text><text x="180" y="28" fill="#2c3e50" font-size="9" transform="translate(70 535)">• Sanntidsanalyse</text><text x="180" y="41" fill="#2c3e50" font-size="9" transform="translate(70 535)">• Maskinlæring</text><text x="360" fill="#f39c12" font-size="10" font-weight="bold" transform="translate(70 535)">LAGRING:</text><text x="360" y="15" fill="#2c3e50" font-size="9" transform="translate(70 535)">• Cloud database</text><text x="360" y="28" fill="#2c3e50" font-size="9" transform="translate(70 535)">• Lokal cache</text><text x="360" y="41" fill="#2c3e50" font-size="9" transform="translate(70 535)">• Backup systemer</text><text x="540" fill="#e74c3c" font-size="10" font-weight="bold" transform="translate(70 535)">SIKKERHET:</text><text x="540" y="15" fill="#2c3e50" font-size="9" transform="translate(70 535)">• Kryptering</text><text x="540" y="28" fill="#2c3e50" font-size="9" transform="translate(70 535)">• Autentisering</text><text x="540" y="41" fill="#2c3e50" font-size="9" transform="translate(70 535)">• Tilgangskontroll</text></g><circle cx="130" cy="440" r="3" fill="#e74c3c"><animate attributeName="opacity" dur="3s" repeatCount="indefinite" values="1;0.3;1"/></circle><circle cx="270" cy="440" r="3" fill="#e74c3c"><animate attributeName="opacity" begin="0.3s" dur="3s" repeatCount="indefinite" values="1;0.3;1"/></circle><circle cx="410" cy="440" r="3" fill="#e74c3c"><animate attributeName="opacity" begin="0.6s" dur="3s" repeatCount="indefinite" values="1;0.3;1"/></circle><circle cx="550" cy="440" r="3" fill="#e74c3c"><animate attributeName="opacity" begin="0.9s" dur="3s" repeatCount="indefinite" values="1;0.3;1"/></circle><circle cx="680" cy="440" r="3" fill="#e74c3c"><animate attributeName="opacity" begin="1.2s" dur="3s" repeatCount="indefinite" values="1;0.3;1"/></circle><circle cx="400" cy="260" r="3" fill="#27ae60"><animate attributeName="opacity" dur="2s" repeatCount="indefinite" values="1;0.3;1"/></circle><circle cx="400" cy="120" r="3" fill="#3498db"><animate attributeName="opacity" begin="1s" dur="2s" repeatCount="indefinite" values="1;0.3;1"/></circle></svg>