<svg xmlns="http://www.w3.org/2000/svg" width="800" height="600"><defs><linearGradient id="a" x1="0%" x2="100%" y1="0%" y2="100%"><stop offset="0%" style="stop-color:#dc3545;stop-opacity:.8"/><stop offset="100%" style="stop-color:#c82333;stop-opacity:.8"/></linearGradient><linearGradient id="b" x1="0%" x2="100%" y1="0%" y2="100%"><stop offset="0%" style="stop-color:#28a745;stop-opacity:.8"/><stop offset="100%" style="stop-color:#1e7e34;stop-opacity:.8"/></linearGradient><linearGradient id="d" x1="0%" x2="100%" y1="0%" y2="100%"><stop offset="0%" style="stop-color:#007bff;stop-opacity:.8"/><stop offset="100%" style="stop-color:#0056b3;stop-opacity:.8"/></linearGradient></defs><path fill="#f8f9fa" d="M0 0h800v600H0z"/><text x="400" y="40" fill="#212529" font-family="Arial, sans-serif" font-size="24" font-weight="bold" text-anchor="middle">
    Lageropptaksprosess
  </text><g transform="translate(50 80)"><rect width="300" height="200" fill="url(#a)" stroke="#c82333" stroke-width="2" rx="15"/><text x="150" y="30" fill="#fff" font-family="Arial, sans-serif" font-size="18" font-weight="bold" text-anchor="middle">
      Fullstendig Lageropptak
    </text><path fill="none" stroke="#fff" stroke-width="2" d="M50 50h200v100H50z" opacity=".8"/><g stroke="#fff" opacity=".6"><path d="M100 50v100M150 50v100M200 50v100M50 75h200M50 100h200M50 125h200"/></g><g fill="#fff" font-family="Arial, sans-serif" font-size="10" text-anchor="middle"><text x="25" y="18" transform="translate(50 50)">✓</text><text x="75" y="18" transform="translate(50 50)">✓</text><text x="125" y="18" transform="translate(50 50)">✓</text><text x="175" y="18" transform="translate(50 50)">✓</text><text x="25" y="43" transform="translate(50 50)">✓</text><text x="75" y="43" transform="translate(50 50)">✓</text><text x="125" y="43" transform="translate(50 50)">✓</text><text x="175" y="43" transform="translate(50 50)">✓</text><text x="25" y="68" transform="translate(50 50)">✓</text><text x="75" y="68" transform="translate(50 50)">✓</text><text x="125" y="68" transform="translate(50 50)">✓</text><text x="175" y="68" transform="translate(50 50)">✓</text><text x="25" y="93" transform="translate(50 50)">✓</text><text x="75" y="93" transform="translate(50 50)">✓</text><text x="125" y="93" transform="translate(50 50)">✓</text><text x="175" y="93" transform="translate(50 50)">✓</text></g><g fill="#fff" font-family="Arial, sans-serif" font-size="12"><text transform="translate(20 165)">
        • Årlig gjennomføring
      </text><text x="150" transform="translate(20 165)">
        • Stopper all aktivitet
      </text></g></g><g transform="translate(450 80)"><rect width="300" height="200" fill="url(#b)" stroke="#1e7e34" stroke-width="2" rx="15"/><text x="150" y="30" fill="#fff" font-family="Arial, sans-serif" font-size="18" font-weight="bold" text-anchor="middle">
      Syklisk Lageropptak
    </text><path fill="none" stroke="#fff" stroke-width="2" d="M50 50h200v100H50z" opacity=".8"/><g stroke="#fff" opacity=".6"><path d="M100 50v100M150 50v100M200 50v100M50 75h200M50 100h200M50 125h200"/></g><path fill="#ff0" d="M50 50h50v25H50zM150 75h50v25h-50zM100 125h50v25h-50z" opacity=".3"/><g fill="#fff" font-family="Arial, sans-serif" font-size="10" text-anchor="middle"><text x="25" y="18" transform="translate(50 50)">✓</text><text x="125" y="43" transform="translate(50 50)">✓</text><text x="75" y="93" transform="translate(50 50)">✓</text></g><g fill="#fff" font-family="Arial, sans-serif" font-size="12"><text transform="translate(20 165)">
        • Kontinuerlig prosess
      </text><text x="150" transform="translate(20 165)">
        • Minimal forstyrrelse
      </text></g></g><g transform="translate(50 320)"><text x="350" fill="#212529" font-family="Arial, sans-serif" font-size="18" font-weight="bold" text-anchor="middle">
      Lageropptaksprosedyre
    </text><g transform="translate(0 30)"><rect width="140" height="80" fill="#e9ecef" stroke="#dee2e6" stroke-width="2" rx="8"/><text x="70" y="20" fill="#495057" font-family="Arial, sans-serif" font-size="12" font-weight="bold" text-anchor="middle">
        1. PLANLEGGING
      </text><text x="10" y="40" fill="#495057" font-family="Arial, sans-serif" font-size="10">
        • Fastsett dato/tid
      </text><text x="10" y="55" fill="#495057" font-family="Arial, sans-serif" font-size="10">
        • Tren personalet
      </text><text x="10" y="70" fill="#495057" font-family="Arial, sans-serif" font-size="10">
        • Forbered skjemaer
      </text><rect width="140" height="80" x="160" fill="#e9ecef" stroke="#dee2e6" stroke-width="2" rx="8"/><text x="230" y="20" fill="#495057" font-family="Arial, sans-serif" font-size="12" font-weight="bold" text-anchor="middle">
        2. GJENNOMFØRING
      </text><text x="170" y="40" fill="#495057" font-family="Arial, sans-serif" font-size="10">
        • Tell systematisk
      </text><text x="170" y="55" fill="#495057" font-family="Arial, sans-serif" font-size="10">
        • Dobbeltsjekk
      </text><text x="170" y="70" fill="#495057" font-family="Arial, sans-serif" font-size="10">
        • Dokumenter alt
      </text><rect width="140" height="80" x="320" fill="#e9ecef" stroke="#dee2e6" stroke-width="2" rx="8"/><text x="390" y="20" fill="#495057" font-family="Arial, sans-serif" font-size="12" font-weight="bold" text-anchor="middle">
        3. ANALYSE
      </text><text x="330" y="40" fill="#495057" font-family="Arial, sans-serif" font-size="10">
        • Sammenlign data
      </text><text x="330" y="55" fill="#495057" font-family="Arial, sans-serif" font-size="10">
        • Undersøk avvik
      </text><text x="330" y="70" fill="#495057" font-family="Arial, sans-serif" font-size="10">
        • Juster system
      </text><rect width="140" height="80" x="480" fill="#e9ecef" stroke="#dee2e6" stroke-width="2" rx="8"/><text x="550" y="20" fill="#495057" font-family="Arial, sans-serif" font-size="12" font-weight="bold" text-anchor="middle">
        4. OPPFØLGING
      </text><text x="490" y="40" fill="#495057" font-family="Arial, sans-serif" font-size="10">
        • Implementer tiltak
      </text><text x="490" y="55" fill="#495057" font-family="Arial, sans-serif" font-size="10">
        • Forbedre prosesser
      </text><text x="490" y="70" fill="#495057" font-family="Arial, sans-serif" font-size="10">
        • Planlegg neste
      </text></g><defs><marker id="c" markerHeight="6" markerWidth="8" orient="auto" refX="7" refY="3"><path fill="#495057" d="m0 0 8 3-8 3z"/></marker></defs><g fill="none" stroke="#495057" stroke-width="2" marker-end="url(#c)" transform="translate(0 70)"><path d="M140 0h20"/><path d="M300 0h20"/><path d="M460 0h20"/></g></g><g transform="translate(50 480)"><rect width="700" height="100" fill="url(#d)" stroke="#0056b3" stroke-width="2" rx="15"/><text x="350" y="25" fill="#fff" font-family="Arial, sans-serif" font-size="16" font-weight="bold" text-anchor="middle">
      Teknologi for Moderne Lageropptak
    </text><g fill="#fff"><g transform="translate(50 40)"><rect width="120" height="50" opacity=".2" rx="5"/><text x="60" y="15" font-family="Arial, sans-serif" font-size="11" font-weight="bold" text-anchor="middle">
          Strekkodescanning
        </text><text x="60" y="30" font-family="Arial, sans-serif" font-size="9" text-anchor="middle">
          Reduserer feil med 99%
        </text><text x="60" y="45" font-family="Arial, sans-serif" font-size="9" text-anchor="middle">
          Øker hastighet 5x
        </text></g><g transform="translate(200 40)"><rect width="120" height="50" opacity=".2" rx="5"/><text x="60" y="15" font-family="Arial, sans-serif" font-size="11" font-weight="bold" text-anchor="middle">
          RFID-teknologi
        </text><text x="60" y="30" font-family="Arial, sans-serif" font-size="9" text-anchor="middle">
          Automatisk registrering
        </text><text x="60" y="45" font-family="Arial, sans-serif" font-size="9" text-anchor="middle">
          Sanntidsoppdatering
        </text></g><g transform="translate(350 40)"><rect width="120" height="50" opacity=".2" rx="5"/><text x="60" y="15" font-family="Arial, sans-serif" font-size="11" font-weight="bold" text-anchor="middle">
          Mobile Enheter
        </text><text x="60" y="30" font-family="Arial, sans-serif" font-size="9" text-anchor="middle">
          Sanntids datainnsamling
        </text><text x="60" y="45" font-family="Arial, sans-serif" font-size="9" text-anchor="middle">
          Integrert med ERP
        </text></g><g transform="translate(500 40)"><rect width="120" height="50" opacity=".2" rx="5"/><text x="60" y="15" font-family="Arial, sans-serif" font-size="11" font-weight="bold" text-anchor="middle">
          Droner
        </text><text x="60" y="30" font-family="Arial, sans-serif" font-size="9" text-anchor="middle">
          Høye hyller
        </text><text x="60" y="45" font-family="Arial, sans-serif" font-size="9" text-anchor="middle">
          Farlige områder
        </text></g></g></g></svg>