<svg xmlns="http://www.w3.org/2000/svg" width="800" height="600"><defs><linearGradient id="a" x1="0%" x2="100%" y1="0%" y2="100%"><stop offset="0%" style="stop-color:#28a745;stop-opacity:.8"/><stop offset="100%" style="stop-color:#1e7e34;stop-opacity:.8"/></linearGradient><linearGradient id="c" x1="0%" x2="100%" y1="0%" y2="100%"><stop offset="0%" style="stop-color:#dc3545;stop-opacity:.8"/><stop offset="100%" style="stop-color:#c82333;stop-opacity:.8"/></linearGradient><linearGradient id="d" x1="0%" x2="100%" y1="0%" y2="100%"><stop offset="0%" style="stop-color:#007bff;stop-opacity:.8"/><stop offset="100%" style="stop-color:#0056b3;stop-opacity:.8"/></linearGradient></defs><path fill="#f8f9fa" d="M0 0h800v600H0z"/><text x="400" y="40" fill="#212529" font-family="Arial, sans-serif" font-size="24" font-weight="bold" text-anchor="middle">
    Verdivurderingsmetoder for Lagerbeholdning
  </text><g transform="translate(50 80)"><rect width="200" height="150" fill="url(#a)" stroke="#1e7e34" stroke-width="2" rx="10"/><text x="100" y="25" fill="#fff" font-family="Arial, sans-serif" font-size="16" font-weight="bold" text-anchor="middle">
      FIFO-metoden
    </text><text x="100" y="45" fill="#fff" font-family="Arial, sans-serif" font-size="12" text-anchor="middle">
      (First In, First Out)
    </text><path fill="#fff" d="M20 120h40v20H20z" opacity=".9"/><text x="20" y="75" font-family="Arial, sans-serif" font-size="8" text-anchor="middle" transform="translate(20 60)">Jan</text><path fill="#fff" d="M20 100h40v20H20z" opacity=".9"/><text x="20" y="55" font-family="Arial, sans-serif" font-size="8" text-anchor="middle" transform="translate(20 60)">Feb</text><path fill="#fff" d="M20 80h40v20H20z" opacity=".9"/><text x="20" y="35" font-family="Arial, sans-serif" font-size="8" text-anchor="middle" transform="translate(20 60)">Mar</text><path stroke="#fff" stroke-width="2" marker-end="url(#b)" d="M50 70h20" transform="translate(20 60)"/><text x="80" y="75" fill="#fff" font-family="Arial, sans-serif" font-size="10" transform="translate(20 60)">Selges først</text><text x="120" y="75" fill="#fff" font-family="Arial, sans-serif" font-size="9" transform="translate(20 60)">50 kr</text><text x="120" y="55" fill="#fff" font-family="Arial, sans-serif" font-size="9" transform="translate(20 60)">55 kr</text><text x="120" y="35" fill="#fff" font-family="Arial, sans-serif" font-size="9" transform="translate(20 60)">60 kr</text><text x="100" y="140" fill="#fff" font-family="Arial, sans-serif" font-size="10" text-anchor="middle">
      Eldste varer selges først
    </text></g><g transform="translate(300 80)"><rect width="200" height="150" fill="url(#c)" stroke="#c82333" stroke-width="2" rx="10"/><text x="100" y="25" fill="#fff" font-family="Arial, sans-serif" font-size="16" font-weight="bold" text-anchor="middle">
      LIFO-metoden
    </text><text x="100" y="45" fill="#fff" font-family="Arial, sans-serif" font-size="12" text-anchor="middle">
      (Last In, First Out)
    </text><path fill="#fff" d="M20 120h40v20H20z" opacity=".9"/><text x="20" y="75" font-family="Arial, sans-serif" font-size="8" text-anchor="middle" transform="translate(20 60)">Jan</text><path fill="#fff" d="M20 100h40v20H20z" opacity=".9"/><text x="20" y="55" font-family="Arial, sans-serif" font-size="8" text-anchor="middle" transform="translate(20 60)">Feb</text><path fill="#fff" d="M20 80h40v20H20z" opacity=".9"/><text x="20" y="35" font-family="Arial, sans-serif" font-size="8" text-anchor="middle" transform="translate(20 60)">Mar</text><path stroke="#fff" stroke-width="2" marker-end="url(#b)" d="M50 30h20" transform="translate(20 60)"/><text x="80" y="35" fill="#fff" font-family="Arial, sans-serif" font-size="10" transform="translate(20 60)">Selges først</text><text x="120" y="75" fill="#fff" font-family="Arial, sans-serif" font-size="9" transform="translate(20 60)">50 kr</text><text x="120" y="55" fill="#fff" font-family="Arial, sans-serif" font-size="9" transform="translate(20 60)">55 kr</text><text x="120" y="35" fill="#fff" font-family="Arial, sans-serif" font-size="9" transform="translate(20 60)">60 kr</text><text x="100" y="140" fill="#fff" font-family="Arial, sans-serif" font-size="10" text-anchor="middle">
      Nyeste varer selges først
    </text></g><g transform="translate(550 80)"><rect width="200" height="150" fill="url(#d)" stroke="#0056b3" stroke-width="2" rx="10"/><text x="100" y="25" fill="#fff" font-family="Arial, sans-serif" font-size="16" font-weight="bold" text-anchor="middle">
      Vektet Gjennomsnitt
    </text><g fill="#fff"><path d="M20 90h35v15H20zM60 90h35v15H60zM100 90h35v15h-35zM140 90h35v15h-35z" opacity=".9"/><text x="87" y="25" font-family="Arial, sans-serif" font-size="12" text-anchor="middle" transform="translate(20 50)">
        Ø 55,56 kr
      </text><text x="87" y="75" font-family="Arial, sans-serif" font-size="10" text-anchor="middle" transform="translate(20 50)">
        (50+55+60) ÷ 3
      </text></g><text x="100" y="140" fill="#fff" font-family="Arial, sans-serif" font-size="10" text-anchor="middle">
      Gjennomsnittspris for alle varer
    </text></g><text x="350" fill="#212529" font-family="Arial, sans-serif" font-size="18" font-weight="bold" text-anchor="middle" transform="translate(50 280)">
      Sammenligning av Metodene
    </text><path fill="#495057" d="M50 300h700v40H50z"/><text x="100" y="45" fill="#fff" font-family="Arial, sans-serif" font-size="14" font-weight="bold" text-anchor="middle" transform="translate(50 280)">
      Metode
    </text><text x="250" y="45" fill="#fff" font-family="Arial, sans-serif" font-size="14" font-weight="bold" text-anchor="middle" transform="translate(50 280)">
      Kostpris (Inflasjon)
    </text><text x="400" y="45" fill="#fff" font-family="Arial, sans-serif" font-size="14" font-weight="bold" text-anchor="middle" transform="translate(50 280)">
      Lagerverdi
    </text><text x="550" y="45" fill="#fff" font-family="Arial, sans-serif" font-size="14" font-weight="bold" text-anchor="middle" transform="translate(50 280)">
      Skatteeffekt
    </text><path fill="#e9ecef" d="M50 340h700v35H50z"/><text x="100" y="82" fill="#212529" font-family="Arial, sans-serif" font-size="12" text-anchor="middle" transform="translate(50 280)">
      FIFO
    </text><text x="250" y="82" fill="#212529" font-family="Arial, sans-serif" font-size="12" text-anchor="middle" transform="translate(50 280)">
      Lavere (gamle priser)
    </text><text x="400" y="82" fill="#212529" font-family="Arial, sans-serif" font-size="12" text-anchor="middle" transform="translate(50 280)">
      Høyere (nye priser)
    </text><text x="550" y="82" fill="#212529" font-family="Arial, sans-serif" font-size="12" text-anchor="middle" transform="translate(50 280)">
      Høyere skatt
    </text><path fill="#f8f9fa" d="M50 375h700v35H50z"/><text x="100" y="117" fill="#212529" font-family="Arial, sans-serif" font-size="12" text-anchor="middle" transform="translate(50 280)">
      LIFO
    </text><text x="250" y="117" fill="#212529" font-family="Arial, sans-serif" font-size="12" text-anchor="middle" transform="translate(50 280)">
      Høyere (nye priser)
    </text><text x="400" y="117" fill="#212529" font-family="Arial, sans-serif" font-size="12" text-anchor="middle" transform="translate(50 280)">
      Lavere (gamle priser)
    </text><text x="550" y="117" fill="#212529" font-family="Arial, sans-serif" font-size="12" text-anchor="middle" transform="translate(50 280)">
      Lavere skatt
    </text><path fill="#e9ecef" d="M50 410h700v35H50z"/><text x="100" y="152" fill="#212529" font-family="Arial, sans-serif" font-size="12" text-anchor="middle" transform="translate(50 280)">
      Vektet Ø
    </text><text x="250" y="152" fill="#212529" font-family="Arial, sans-serif" font-size="12" text-anchor="middle" transform="translate(50 280)">
      Moderat (gjennomsnitt)
    </text><text x="400" y="152" fill="#212529" font-family="Arial, sans-serif" font-size="12" text-anchor="middle" transform="translate(50 280)">
      Moderat (gjennomsnitt)
    </text><text x="550" y="152" fill="#212529" font-family="Arial, sans-serif" font-size="12" text-anchor="middle" transform="translate(50 280)">
      Moderat skatt
    </text><g transform="translate(50 480)"><rect width="700" height="80" fill="#fff3cd" stroke="#ffeaa7" stroke-width="2" rx="5"/><text x="20" y="25" fill="#856404" font-family="Arial, sans-serif" font-size="14" font-weight="bold">
      Viktig for Norge:
    </text><text x="20" y="45" fill="#856404" font-family="Arial, sans-serif" font-size="12">
      LIFO-metoden er IKKE tillatt under norsk regnskapslovgivning.
    </text><text x="20" y="65" fill="#856404" font-family="Arial, sans-serif" font-size="12">
      Norske bedrifter må bruke FIFO eller vektet gjennomsnitt.
    </text></g><defs><marker id="b" markerHeight="6" markerWidth="8" orient="auto" refX="7" refY="3"><path fill="#fff" d="m0 0 8 3-8 3z"/></marker></defs></svg>