<svg width="800" height="500" viewBox="0 0 800 500" xmlns="http://www.w3.org/2000/svg">

  <rect width="800" height="500" fill="#f8f9fa"/>
  

  <text x="400" y="40" text-anchor="middle" font-family="Arial, sans-serif" font-size="24" font-weight="bold" fill="#2c3e50">
    Klassifisering av Aktiva
  </text>
  

  <rect x="300" y="70" width="200" height="60" fill="#34495e" rx="10"/>
  <text x="400" y="110" text-anchor="middle" font-family="Arial, sans-serif" font-size="20" font-weight="bold" fill="white">
    AKTIVA
  </text>
  

  <line x1="350" y1="130" x2="350" y2="160" stroke="#2c3e50" stroke-width="2"/>
  <line x1="450" y1="130" x2="450" y2="160" stroke="#2c3e50" stroke-width="2"/>
  <line x1="200" y1="160" x2="600" y2="160" stroke="#2c3e50" stroke-width="2"/>
  <line x1="200" y1="160" x2="200" y2="180" stroke="#2c3e50" stroke-width="2"/>
  <line x1="600" y1="160" x2="600" y2="180" stroke="#2c3e50" stroke-width="2"/>
  

  <rect x="100" y="180" width="200" height="60" fill="#3498db" rx="10"/>
  <text x="200" y="205" text-anchor="middle" font-family="Arial, sans-serif" font-size="16" font-weight="bold" fill="white">
    ANLEGGSMIDLER
  </text>
  <text x="200" y="225" text-anchor="middle" font-family="Arial, sans-serif" font-size="12" fill="white">
    Langsiktige eiendeler (&gt; 1 år)
  </text>
  

  <rect x="500" y="180" width="200" height="60" fill="#e74c3c" rx="10"/>
  <text x="600" y="205" text-anchor="middle" font-family="Arial, sans-serif" font-size="16" font-weight="bold" fill="white">
    OMLØPSMIDLER
  </text>
  <text x="600" y="225" text-anchor="middle" font-family="Arial, sans-serif" font-size="12" fill="white">
    Kortsiktige eiendeler (&lt; 1 år)
  </text>
  

  <line x1="120" y1="240" x2="120" y2="270" stroke="#2c3e50" stroke-width="2"/>
  <line x1="200" y1="240" x2="200" y2="270" stroke="#2c3e50" stroke-width="2"/>
  <line x1="280" y1="240" x2="280" y2="270" stroke="#2c3e50" stroke-width="2"/>
  <line x1="50" y1="270" x2="350" y2="270" stroke="#2c3e50" stroke-width="2"/>
  <line x1="50" y1="270" x2="50" y2="290" stroke="#2c3e50" stroke-width="2"/>
  <line x1="200" y1="270" x2="200" y2="290" stroke="#2c3e50" stroke-width="2"/>
  <line x1="350" y1="270" x2="350" y2="290" stroke="#2c3e50" stroke-width="2"/>
  

  <rect x="20" y="290" width="120" height="80" fill="#2980b9" rx="5"/>
  <text x="80" y="310" text-anchor="middle" font-family="Arial, sans-serif" font-size="12" font-weight="bold" fill="white">
    Materielle
  </text>
  <text x="80" y="325" text-anchor="middle" font-family="Arial, sans-serif" font-size="10" fill="white">
    • Bygninger
  </text>
  <text x="80" y="340" text-anchor="middle" font-family="Arial, sans-serif" font-size="10" fill="white">
    • Maskiner
  </text>
  <text x="80" y="355" text-anchor="middle" font-family="Arial, sans-serif" font-size="10" fill="white">
    • Transportmidler
  </text>
  

  <rect x="160" y="290" width="120" height="80" fill="#2980b9" rx="5"/>
  <text x="220" y="310" text-anchor="middle" font-family="Arial, sans-serif" font-size="12" font-weight="bold" fill="white">
    Immaterielle
  </text>
  <text x="220" y="325" text-anchor="middle" font-family="Arial, sans-serif" font-size="10" fill="white">
    • Goodwill
  </text>
  <text x="220" y="340" text-anchor="middle" font-family="Arial, sans-serif" font-size="10" fill="white">
    • Patenter
  </text>
  <text x="220" y="355" text-anchor="middle" font-family="Arial, sans-serif" font-size="10" fill="white">
    • Programvare
  </text>
  

  <rect x="300" y="290" width="120" height="80" fill="#2980b9" rx="5"/>
  <text x="360" y="310" text-anchor="middle" font-family="Arial, sans-serif" font-size="12" font-weight="bold" fill="white">
    Finansielle
  </text>
  <text x="360" y="325" text-anchor="middle" font-family="Arial, sans-serif" font-size="10" fill="white">
    • Aksjer
  </text>
  <text x="360" y="340" text-anchor="middle" font-family="Arial, sans-serif" font-size="10" fill="white">
    • Obligasjoner
  </text>
  <text x="360" y="355" text-anchor="middle" font-family="Arial, sans-serif" font-size="10" fill="white">
    • Lån til andre
  </text>
  

  <line x1="520" y1="240" x2="520" y2="270" stroke="#2c3e50" stroke-width="2"/>
  <line x1="600" y1="240" x2="600" y2="270" stroke="#2c3e50" stroke-width="2"/>
  <line x1="680" y1="240" x2="680" y2="270" stroke="#2c3e50" stroke-width="2"/>
  <line x1="450" y1="270" x2="750" y2="270" stroke="#2c3e50" stroke-width="2"/>
  <line x1="450" y1="270" x2="450" y2="290" stroke="#2c3e50" stroke-width="2"/>
  <line x1="600" y1="270" x2="600" y2="290" stroke="#2c3e50" stroke-width="2"/>
  <line x1="750" y1="270" x2="750" y2="290" stroke="#2c3e50" stroke-width="2"/>
  

  <rect x="420" y="290" width="120" height="80" fill="#c0392b" rx="5"/>
  <text x="480" y="310" text-anchor="middle" font-family="Arial, sans-serif" font-size="12" font-weight="bold" fill="white">
    Varelager
  </text>
  <text x="480" y="325" text-anchor="middle" font-family="Arial, sans-serif" font-size="10" fill="white">
    • Råvarer
  </text>
  <text x="480" y="340" text-anchor="middle" font-family="Arial, sans-serif" font-size="10" fill="white">
    • Under tilvirkning
  </text>
  <text x="480" y="355" text-anchor="middle" font-family="Arial, sans-serif" font-size="10" fill="white">
    • Ferdigvarer
  </text>
  

  <rect x="560" y="290" width="120" height="80" fill="#c0392b" rx="5"/>
  <text x="620" y="310" text-anchor="middle" font-family="Arial, sans-serif" font-size="12" font-weight="bold" fill="white">
    Fordringer
  </text>
  <text x="620" y="325" text-anchor="middle" font-family="Arial, sans-serif" font-size="10" fill="white">
    • Kundefordringer
  </text>
  <text x="620" y="340" text-anchor="middle" font-family="Arial, sans-serif" font-size="10" fill="white">
    • Andre fordringer
  </text>
  <text x="620" y="355" text-anchor="middle" font-family="Arial, sans-serif" font-size="10" fill="white">
    • Skattefordringer
  </text>
  

  <rect x="700" y="290" width="120" height="80" fill="#c0392b" rx="5"/>
  <text x="760" y="305" text-anchor="middle" font-family="Arial, sans-serif" font-size="11" font-weight="bold" fill="white">
    Kontanter &amp;
  </text>
  <text x="760" y="318" text-anchor="middle" font-family="Arial, sans-serif" font-size="11" font-weight="bold" fill="white">
    Investeringer
  </text>
  <text x="760" y="335" text-anchor="middle" font-family="Arial, sans-serif" font-size="10" fill="white">
    • Bankinnskudd
  </text>
  <text x="760" y="350" text-anchor="middle" font-family="Arial, sans-serif" font-size="10" fill="white">
    • Verdipapirer
  </text>
  <text x="760" y="365" text-anchor="middle" font-family="Arial, sans-serif" font-size="10" fill="white">
    • Kontanter
  </text>
  

  <text x="400" y="420" text-anchor="middle" font-family="Arial, sans-serif" font-size="14" fill="#2c3e50">
    Klassifisering basert på hvor lenge bedriften planlegger å beholde eiendelene
  </text>
  

  <rect x="50" y="440" width="15" height="15" fill="#3498db"/>
  <text x="75" y="452" font-family="Arial, sans-serif" font-size="12" fill="#2c3e50">
    Anleggsmidler (langsiktige)
  </text>
  
  <rect x="250" y="440" width="15" height="15" fill="#e74c3c"/>
  <text x="275" y="452" font-family="Arial, sans-serif" font-size="12" fill="#2c3e50">
    Omløpsmidler (kortsiktige)
  </text>
</svg>