<svg xmlns="http://www.w3.org/2000/svg" width="800" height="500" viewBox="0 0 800 500"><path fill="#f8f9fa" d="M0 0h800v500H0z"/><text x="400" y="30" fill="#2c3e50" font-family="Arial, sans-serif" font-size="24" font-weight="bold" text-anchor="middle">AI Bokføringsprosess</text><rect width="700" height="80" x="50" y="60" fill="#e8f4fd" stroke="#3498db" stroke-width="2" rx="10"/><text x="400" y="85" fill="#2c3e50" font-family="Arial, sans-serif" font-size="16" font-weight="bold" text-anchor="middle">Datainput</text><rect width="100" height="30" x="80" y="100" fill="#3498db" stroke="#2980b9" rx="5"/><text x="130" y="120" fill="#fff" font-family="Arial, sans-serif" font-size="11" text-anchor="middle">Fakturaer</text><rect width="100" height="30" x="200" y="100" fill="#3498db" stroke="#2980b9" rx="5"/><text x="250" y="120" fill="#fff" font-family="Arial, sans-serif" font-size="11" text-anchor="middle">Kvitteringer</text><rect width="100" height="30" x="320" y="100" fill="#3498db" stroke="#2980b9" rx="5"/><text x="370" y="120" fill="#fff" font-family="Arial, sans-serif" font-size="11" text-anchor="middle">Banktransaksjoner</text><rect width="100" height="30" x="440" y="100" fill="#3498db" stroke="#2980b9" rx="5"/><text x="490" y="120" fill="#fff" font-family="Arial, sans-serif" font-size="11" text-anchor="middle">E-post</text><rect width="100" height="30" x="560" y="100" fill="#3498db" stroke="#2980b9" rx="5"/><text x="610" y="120" fill="#fff" font-family="Arial, sans-serif" font-size="11" text-anchor="middle">API-data</text><rect width="100" height="30" x="680" y="100" fill="#3498db" stroke="#2980b9" rx="5"/><text x="730" y="120" fill="#fff" font-family="Arial, sans-serif" font-size="11" text-anchor="middle">Skjemaer</text><rect width="700" height="120" x="50" y="170" fill="#fdf2e9" stroke="#e67e22" stroke-width="2" rx="10"/><text x="400" y="195" fill="#2c3e50" font-family="Arial, sans-serif" font-size="16" font-weight="bold" text-anchor="middle">AI-behandling</text><circle cx="150" cy="240" r="35" fill="#e74c3c" stroke="#c0392b" stroke-width="2"/><text x="150" y="235" fill="#fff" font-family="Arial, sans-serif" font-size="11" font-weight="bold" text-anchor="middle">OCR</text><text x="150" y="248" fill="#fff" font-family="Arial, sans-serif" font-size="10" text-anchor="middle">Tekstgjenkjenning</text><circle cx="280" cy="240" r="35" fill="#9b59b6" stroke="#8e44ad" stroke-width="2"/><text x="280" y="235" fill="#fff" font-family="Arial, sans-serif" font-size="11" font-weight="bold" text-anchor="middle">NLP</text><text x="280" y="248" fill="#fff" font-family="Arial, sans-serif" font-size="10" text-anchor="middle">Språkforståelse</text><circle cx="410" cy="240" r="35" fill="#27ae60" stroke="#229954" stroke-width="2"/><text x="410" y="235" fill="#fff" font-family="Arial, sans-serif" font-size="11" font-weight="bold" text-anchor="middle">ML</text><text x="410" y="248" fill="#fff" font-family="Arial, sans-serif" font-size="10" text-anchor="middle">Maskinlæring</text><circle cx="540" cy="240" r="35" fill="#f39c12" stroke="#e67e22" stroke-width="2"/><text x="540" y="235" fill="#fff" font-family="Arial, sans-serif" font-size="11" font-weight="bold" text-anchor="middle">Mønster</text><text x="540" y="248" fill="#fff" font-family="Arial, sans-serif" font-size="10" text-anchor="middle">Gjenkjenning</text><circle cx="670" cy="240" r="35" fill="#34495e" stroke="#2c3e50" stroke-width="2"/><text x="670" y="235" fill="#fff" font-family="Arial, sans-serif" font-size="11" font-weight="bold" text-anchor="middle">Validering</text><text x="670" y="248" fill="#fff" font-family="Arial, sans-serif" font-size="10" text-anchor="middle">&amp; Kontroll</text><rect width="700" height="120" x="50" y="320" fill="#eafaf1" stroke="#27ae60" stroke-width="2" rx="10"/><text x="400" y="345" fill="#2c3e50" font-family="Arial, sans-serif" font-size="16" font-weight="bold" text-anchor="middle">Automatiserte Resultater</text><rect width="120" height="60" x="80" y="365" fill="#ecf0f1" stroke="#bdc3c7" rx="8"/><text x="140" y="385" fill="#2c3e50" font-family="Arial, sans-serif" font-size="12" font-weight="bold" text-anchor="middle">Kategorisering</text><text x="140" y="400" fill="#7f8c8d" font-family="Arial, sans-serif" font-size="10" text-anchor="middle">• Kontokoding</text><text x="140" y="415" fill="#7f8c8d" font-family="Arial, sans-serif" font-size="10" text-anchor="middle">• MVA-koder</text><rect width="120" height="60" x="220" y="365" fill="#ecf0f1" stroke="#bdc3c7" rx="8"/><text x="280" y="385" fill="#2c3e50" font-family="Arial, sans-serif" font-size="12" font-weight="bold" text-anchor="middle">Bilagsposter</text><text x="280" y="400" fill="#7f8c8d" font-family="Arial, sans-serif" font-size="10" text-anchor="middle">• Debet/Kredit</text><text x="280" y="415" fill="#7f8c8d" font-family="Arial, sans-serif" font-size="10" text-anchor="middle">• Balansering</text><rect width="120" height="60" x="360" y="365" fill="#ecf0f1" stroke="#bdc3c7" rx="8"/><text x="420" y="385" fill="#2c3e50" font-family="Arial, sans-serif" font-size="12" font-weight="bold" text-anchor="middle">Matching</text><text x="420" y="400" fill="#7f8c8d" font-family="Arial, sans-serif" font-size="10" text-anchor="middle">• Bankavstemming</text><text x="420" y="415" fill="#7f8c8d" font-family="Arial, sans-serif" font-size="10" text-anchor="middle">• Leverandør</text><rect width="120" height="60" x="500" y="365" fill="#ecf0f1" stroke="#bdc3c7" rx="8"/><text x="560" y="385" fill="#2c3e50" font-family="Arial, sans-serif" font-size="12" font-weight="bold" text-anchor="middle">Rapportering</text><text x="560" y="400" fill="#7f8c8d" font-family="Arial, sans-serif" font-size="10" text-anchor="middle">• Finansrapporter</text><text x="560" y="415" fill="#7f8c8d" font-family="Arial, sans-serif" font-size="10" text-anchor="middle">• Compliance</text><rect width="120" height="60" x="640" y="365" fill="#ecf0f1" stroke="#bdc3c7" rx="8"/><text x="700" y="385" fill="#2c3e50" font-family="Arial, sans-serif" font-size="12" font-weight="bold" text-anchor="middle">Unntak</text><text x="700" y="400" fill="#7f8c8d" font-family="Arial, sans-serif" font-size="10" text-anchor="middle">• Manuell review</text><text x="700" y="415" fill="#7f8c8d" font-family="Arial, sans-serif" font-size="10" text-anchor="middle">• Kvalitetskontroll</text><path stroke="#7f8c8d" stroke-width="3" marker-end="url(#a)" d="M400 140v30"/><path stroke="#7f8c8d" stroke-width="3" marker-end="url(#a)" d="M400 290v30"/><path fill="none" stroke="#e67e22" stroke-width="2" marker-end="url(#b)" d="M720 380q60 0 60-140t-60-140"/><text x="790" y="240" fill="#e67e22" font-family="Arial, sans-serif" font-size="10" text-anchor="middle" transform="rotate(90 790 240)">Læring &amp; Forbedring</text><rect width="200" height="30" x="50" y="460" fill="#27ae60" rx="5"/><text x="150" y="480" fill="#fff" font-family="Arial, sans-serif" font-size="12" font-weight="bold" text-anchor="middle">Nøyaktighet: 95-99%</text><rect width="200" height="30" x="300" y="460" fill="#3498db" rx="5"/><text x="400" y="480" fill="#fff" font-family="Arial, sans-serif" font-size="12" font-weight="bold" text-anchor="middle">Hastighet: Sanntid</text><rect width="200" height="30" x="550" y="460" fill="#e74c3c" rx="5"/><text x="650" y="480" fill="#fff" font-family="Arial, sans-serif" font-size="12" font-weight="bold" text-anchor="middle">Kostnadsreduksjon: 60-80%</text><defs><marker id="a" markerHeight="7" markerWidth="10" orient="auto" refX="9" refY="3.5"><path fill="#7f8c8d" d="m0 0 10 3.5L0 7z"/></marker><marker id="b" markerHeight="7" markerWidth="10" orient="auto" refX="9" refY="3.5"><path fill="#e67e22" d="m0 0 10 3.5L0 7z"/></marker></defs></svg>