<svg xmlns="http://www.w3.org/2000/svg" width="800" height="600" viewBox="0 0 800 600"><path fill="#f8f9fa" d="M0 0h800v600H0z"/><text x="400" y="30" fill="#2c3e50" font-family="Arial, sans-serif" font-size="24" font-weight="bold" text-anchor="middle">Fintech Integrasjonsarkitektur</text><rect width="200" height="100" x="300" y="250" fill="#3498db" stroke="#2980b9" stroke-width="3" rx="15"/><text x="400" y="285" fill="#fff" font-family="Arial, sans-serif" font-size="16" font-weight="bold" text-anchor="middle">ERP/Regnskap</text><text x="400" y="305" fill="#fff" font-family="Arial, sans-serif" font-size="14" text-anchor="middle">Kjernesystem</text><text x="400" y="325" fill="#fff" font-family="Arial, sans-serif" font-size="12" text-anchor="middle">• Hovedbok</text><text x="400" y="340" fill="#fff" font-family="Arial, sans-serif" font-size="12" text-anchor="middle">• Rapporter</text><rect width="150" height="80" x="50" y="100" fill="#27ae60" stroke="#229954" stroke-width="2" rx="10"/><text x="125" y="125" fill="#fff" font-family="Arial, sans-serif" font-size="14" font-weight="bold" text-anchor="middle">Bank API</text><text x="125" y="145" fill="#fff" font-family="Arial, sans-serif" font-size="11" text-anchor="middle">• Transaksjoner</text><text x="125" y="160" fill="#fff" font-family="Arial, sans-serif" font-size="11" text-anchor="middle">• Saldoer</text><text x="125" y="175" fill="#fff" font-family="Arial, sans-serif" font-size="11" text-anchor="middle">• Betalinger</text><rect width="150" height="80" x="600" y="100" fill="#e74c3c" stroke="#c0392b" stroke-width="2" rx="10"/><text x="675" y="125" fill="#fff" font-family="Arial, sans-serif" font-size="14" font-weight="bold" text-anchor="middle">Betalings-</text><text x="675" y="140" fill="#fff" font-family="Arial, sans-serif" font-size="14" font-weight="bold" text-anchor="middle">prosessorer</text><text x="675" y="160" fill="#fff" font-family="Arial, sans-serif" font-size="11" text-anchor="middle">• Stripe</text><text x="675" y="175" fill="#fff" font-family="Arial, sans-serif" font-size="11" text-anchor="middle">• Vipps</text><rect width="150" height="80" x="50" y="400" fill="#9b59b6" stroke="#8e44ad" stroke-width="2" rx="10"/><text x="125" y="425" fill="#fff" font-family="Arial, sans-serif" font-size="14" font-weight="bold" text-anchor="middle">E-handel</text><text x="125" y="445" fill="#fff" font-family="Arial, sans-serif" font-size="11" text-anchor="middle">• Shopify</text><text x="125" y="460" fill="#fff" font-family="Arial, sans-serif" font-size="11" text-anchor="middle">• WooCommerce</text><text x="125" y="475" fill="#fff" font-family="Arial, sans-serif" font-size="11" text-anchor="middle">• Magento</text><rect width="150" height="80" x="600" y="400" fill="#f39c12" stroke="#e67e22" stroke-width="2" rx="10"/><text x="675" y="425" fill="#fff" font-family="Arial, sans-serif" font-size="14" font-weight="bold" text-anchor="middle">CRM</text><text x="675" y="445" fill="#fff" font-family="Arial, sans-serif" font-size="11" text-anchor="middle">• Salesforce</text><text x="675" y="460" fill="#fff" font-family="Arial, sans-serif" font-size="11" text-anchor="middle">• HubSpot</text><text x="675" y="475" fill="#fff" font-family="Arial, sans-serif" font-size="11" text-anchor="middle">• Pipedrive</text><rect width="150" height="80" x="50" y="250" fill="#34495e" stroke="#2c3e50" stroke-width="2" rx="10"/><text x="125" y="275" fill="#fff" font-family="Arial, sans-serif" font-size="14" font-weight="bold" text-anchor="middle">Dokument-</text><text x="125" y="290" fill="#fff" font-family="Arial, sans-serif" font-size="14" font-weight="bold" text-anchor="middle">håndtering</text><text x="125" y="310" fill="#fff" font-family="Arial, sans-serif" font-size="11" text-anchor="middle">• OCR</text><text x="125" y="325" fill="#fff" font-family="Arial, sans-serif" font-size="11" text-anchor="middle">• AI-kategorisering</text><rect width="150" height="80" x="600" y="250" fill="#16a085" stroke="#138d75" stroke-width="2" rx="10"/><text x="675" y="275" fill="#fff" font-family="Arial, sans-serif" font-size="14" font-weight="bold" text-anchor="middle">Business</text><text x="675" y="290" fill="#fff" font-family="Arial, sans-serif" font-size="14" font-weight="bold" text-anchor="middle">Intelligence</text><text x="675" y="310" fill="#fff" font-family="Arial, sans-serif" font-size="11" text-anchor="middle">• Power BI</text><text x="675" y="325" fill="#fff" font-family="Arial, sans-serif" font-size="11" text-anchor="middle">• Tableau</text><ellipse cx="400" cy="200" fill="#e67e22" stroke="#d35400" stroke-width="2" rx="80" ry="30"/><text x="400" y="205" fill="#fff" font-family="Arial, sans-serif" font-size="14" font-weight="bold" text-anchor="middle">API Gateway</text><ellipse cx="400" cy="400" fill="#8e44ad" stroke="#7d3c98" stroke-width="2" rx="80" ry="30"/><text x="400" y="405" fill="#fff" font-family="Arial, sans-serif" font-size="14" font-weight="bold" text-anchor="middle">Data Warehouse</text><path stroke="#7f8c8d" stroke-width="2" d="m200 140 140 45M600 140l-140 45M200 290l120-75M600 290l-120-75"/><path stroke="#2c3e50" stroke-width="3" d="M400 230v20M400 350v20"/><path stroke="#7f8c8d" stroke-width="2" d="m320 415-120 25M480 415l120 25"/><rect width="300" height="60" x="250" y="520" fill="#c0392b" stroke="#a93226" stroke-width="2" rx="10"/><text x="400" y="545" fill="#fff" font-family="Arial, sans-serif" font-size="16" font-weight="bold" text-anchor="middle">Sikkerhetslag</text><text x="400" y="565" fill="#fff" font-family="Arial, sans-serif" font-size="12" text-anchor="middle">OAuth 2.0 • JWT • TLS/SSL • API Keys • Rate Limiting</text><circle cx="275" cy="170" r="8" fill="#e74c3c"/><text x="275" y="175" fill="#fff" font-family="Arial, sans-serif" font-size="8" text-anchor="middle">IN</text><circle cx="525" cy="170" r="8" fill="#27ae60"/><text x="525" y="175" fill="#fff" font-family="Arial, sans-serif" font-size="8" text-anchor="middle">OUT</text><circle cx="275" cy="370" r="8" fill="#f39c12"/><text x="275" y="375" fill="#fff" font-family="Arial, sans-serif" font-size="8" text-anchor="middle">SYNC</text><circle cx="525" cy="370" r="8" fill="#9b59b6"/><text x="525" y="375" fill="#fff" font-family="Arial, sans-serif" font-size="8" text-anchor="middle">ANAL</text><rect width="120" height="40" x="50" y="50" fill="#ecf0f1" stroke="#bdc3c7" rx="5"/><text x="110" y="65" fill="#2c3e50" font-family="Arial, sans-serif" font-size="10" font-weight="bold" text-anchor="middle">Ytelse</text><text x="110" y="80" fill="#7f8c8d" font-family="Arial, sans-serif" font-size="9" text-anchor="middle">99.9% Oppetid</text><text x="110" y="90" fill="#7f8c8d" font-family="Arial, sans-serif" font-size="9" text-anchor="middle">&lt;100ms Respons</text><rect width="120" height="40" x="630" y="50" fill="#ecf0f1" stroke="#bdc3c7" rx="5"/><text x="690" y="65" fill="#2c3e50" font-family="Arial, sans-serif" font-size="10" font-weight="bold" text-anchor="middle">Skalerbarhet</text><text x="690" y="80" fill="#7f8c8d" font-family="Arial, sans-serif" font-size="9" text-anchor="middle">Auto-scaling</text><text x="690" y="90" fill="#7f8c8d" font-family="Arial, sans-serif" font-size="9" text-anchor="middle">Load Balancing</text></svg>