<svg xmlns="http://www.w3.org/2000/svg" width="800" height="700" viewBox="0 0 800 700"><path fill="#f8f9fa" d="M0 0h800v700H0z"/><text x="400" y="40" fill="#2c3e50" font-family="Arial, sans-serif" font-size="28" font-weight="bold" text-anchor="middle">
    Budsjettplanleggingsprosessen
  </text><rect width="700" height="120" x="50" y="80" fill="#3498db" stroke="#2980b9" stroke-width="3" rx="15"/><text x="400" y="110" fill="#fff" font-family="Arial, sans-serif" font-size="20" font-weight="bold" text-anchor="middle">
    FASE 1: STRATEGISK PLANLEGGING
  </text><rect width="150" height="50" x="80" y="130" fill="#2980b9" rx="8"/><text x="155" y="150" fill="#fff" font-family="Arial, sans-serif" font-size="12" font-weight="bold" text-anchor="middle">
    Strategiske mål
  </text><text x="155" y="165" fill="#fff" font-family="Arial, sans-serif" font-size="10" text-anchor="middle">
    Definere målsettinger
  </text><rect width="150" height="50" x="250" y="130" fill="#2980b9" rx="8"/><text x="325" y="150" fill="#fff" font-family="Arial, sans-serif" font-size="12" font-weight="bold" text-anchor="middle">
    Markedsforutsetninger
  </text><text x="325" y="165" fill="#fff" font-family="Arial, sans-serif" font-size="10" text-anchor="middle">
    Analyse av marked
  </text><rect width="150" height="50" x="420" y="130" fill="#2980b9" rx="8"/><text x="495" y="150" fill="#fff" font-family="Arial, sans-serif" font-size="12" font-weight="bold" text-anchor="middle">
    Ressursbehov
  </text><text x="495" y="165" fill="#fff" font-family="Arial, sans-serif" font-size="10" text-anchor="middle">
    Kapasitetsvurdering
  </text><rect width="130" height="50" x="590" y="130" fill="#2980b9" rx="8"/><text x="655" y="150" fill="#fff" font-family="Arial, sans-serif" font-size="12" font-weight="bold" text-anchor="middle">
    Risikofaktorer
  </text><text x="655" y="165" fill="#fff" font-family="Arial, sans-serif" font-size="10" text-anchor="middle">
    Identifisere risiko
  </text><path fill="none" stroke="#34495e" stroke-width="4" marker-end="url(#a)" d="M400 200v30"/><rect width="700" height="180" x="50" y="240" fill="#e74c3c" stroke="#c0392b" stroke-width="3" rx="15"/><text x="400" y="270" fill="#fff" font-family="Arial, sans-serif" font-size="20" font-weight="bold" text-anchor="middle">
    FASE 2: DETALJERT BUDSJETTUTVIKLING
  </text><rect width="140" height="60" x="80" y="290" fill="#c0392b" rx="8"/><text x="150" y="315" fill="#fff" font-family="Arial, sans-serif" font-size="12" font-weight="bold" text-anchor="middle">
    1. Salgsbudsjett
  </text><text x="150" y="330" fill="#fff" font-family="Arial, sans-serif" font-size="9" text-anchor="middle">
    Markedsanalyse og
  </text><text x="150" y="342" fill="#fff" font-family="Arial, sans-serif" font-size="9" text-anchor="middle">
    salgsprognoser
  </text><rect width="140" height="60" x="240" y="290" fill="#c0392b" rx="8"/><text x="310" y="315" fill="#fff" font-family="Arial, sans-serif" font-size="12" font-weight="bold" text-anchor="middle">
    2. Produksjonsbudsjett
  </text><text x="310" y="330" fill="#fff" font-family="Arial, sans-serif" font-size="9" text-anchor="middle">
    Tilpasset salgsvolum
  </text><text x="310" y="342" fill="#fff" font-family="Arial, sans-serif" font-size="9" text-anchor="middle">
    og lagerstrategier
  </text><rect width="140" height="60" x="400" y="290" fill="#c0392b" rx="8"/><text x="470" y="315" fill="#fff" font-family="Arial, sans-serif" font-size="12" font-weight="bold" text-anchor="middle">
    3. Kostnadsbudsjetter
  </text><text x="470" y="330" fill="#fff" font-family="Arial, sans-serif" font-size="9" text-anchor="middle">
    Alle driftskostnader
  </text><text x="470" y="342" fill="#fff" font-family="Arial, sans-serif" font-size="9" text-anchor="middle">
    og investeringer
  </text><rect width="140" height="60" x="560" y="290" fill="#c0392b" rx="8"/><text x="630" y="315" fill="#fff" font-family="Arial, sans-serif" font-size="12" font-weight="bold" text-anchor="middle">
    4. Personalbudsjett
  </text><text x="630" y="330" fill="#fff" font-family="Arial, sans-serif" font-size="9" text-anchor="middle">
    Lønn, overtid og
  </text><text x="630" y="342" fill="#fff" font-family="Arial, sans-serif" font-size="9" text-anchor="middle">
    sosiale kostnader
  </text><path fill="none" stroke="#fff" stroke-width="2" marker-end="url(#b)" d="M220 320h20"/><path fill="none" stroke="#fff" stroke-width="2" marker-end="url(#b)" d="M380 320h20"/><path fill="none" stroke="#fff" stroke-width="2" marker-end="url(#b)" d="M540 320h20"/><path fill="none" stroke="#fff" stroke-dasharray="5,5" stroke-width="2" d="M630 290q50-40 0-80-50 40 0 80"/><text x="680" y="250" fill="#fff" font-family="Arial, sans-serif" font-size="10">
    Iterativ prosess
  </text><path fill="none" stroke="#34495e" stroke-width="4" marker-end="url(#a)" d="M400 420v30"/><rect width="700" height="140" x="50" y="460" fill="#27ae60" stroke="#229954" stroke-width="3" rx="15"/><text x="400" y="490" fill="#fff" font-family="Arial, sans-serif" font-size="20" font-weight="bold" text-anchor="middle">
    FASE 3: KONSOLIDERING OG GODKJENNING
  </text><rect width="180" height="70" x="100" y="510" fill="#229954" rx="8"/><text x="190" y="535" fill="#fff" font-family="Arial, sans-serif" font-size="12" font-weight="bold" text-anchor="middle">
    Budsjettert
  </text><text x="190" y="550" fill="#fff" font-family="Arial, sans-serif" font-size="12" font-weight="bold" text-anchor="middle">
    Resultatregnskap
  </text><text x="190" y="565" fill="#fff" font-family="Arial, sans-serif" font-size="10" text-anchor="middle">
    Sammenstilling av inntekter
  </text><text x="190" y="575" fill="#fff" font-family="Arial, sans-serif" font-size="10" text-anchor="middle">
    og kostnader
  </text><rect width="180" height="70" x="310" y="510" fill="#229954" rx="8"/><text x="400" y="535" fill="#fff" font-family="Arial, sans-serif" font-size="12" font-weight="bold" text-anchor="middle">
    Budsjettert
  </text><text x="400" y="550" fill="#fff" font-family="Arial, sans-serif" font-size="12" font-weight="bold" text-anchor="middle">
    Balanse
  </text><text x="400" y="565" fill="#fff" font-family="Arial, sans-serif" font-size="10" text-anchor="middle">
    Eiendeler, gjeld og
  </text><text x="400" y="575" fill="#fff" font-family="Arial, sans-serif" font-size="10" text-anchor="middle">
    egenkapital
  </text><rect width="180" height="70" x="520" y="510" fill="#229954" rx="8"/><text x="610" y="535" fill="#fff" font-family="Arial, sans-serif" font-size="12" font-weight="bold" text-anchor="middle">
    Budsjettert
  </text><text x="610" y="550" fill="#fff" font-family="Arial, sans-serif" font-size="12" font-weight="bold" text-anchor="middle">
    Kontantstrøm
  </text><text x="610" y="565" fill="#fff" font-family="Arial, sans-serif" font-size="10" text-anchor="middle">
    Inn- og utbetalinger
  </text><text x="610" y="575" fill="#fff" font-family="Arial, sans-serif" font-size="10" text-anchor="middle">
    over perioden
  </text><rect width="400" height="50" x="200" y="620" fill="#f39c12" stroke="#e67e22" stroke-width="3" rx="10"/><text x="400" y="640" fill="#fff" font-family="Arial, sans-serif" font-size="16" font-weight="bold" text-anchor="middle">
    HOVEDBUDSJETT GODKJENT
  </text><text x="400" y="655" fill="#fff" font-family="Arial, sans-serif" font-size="12" text-anchor="middle">
    Klar for implementering og oppfølging
  </text><path fill="none" stroke="#34495e" stroke-width="3" marker-end="url(#a)" d="M400 600v20"/><defs><marker id="a" markerHeight="7" markerWidth="10" orient="auto" refX="9" refY="3.5"><path fill="#34495e" d="m0 0 10 3.5L0 7z"/></marker><marker id="b" markerHeight="6" markerWidth="8" orient="auto" refX="7" refY="3"><path fill="#fff" d="m0 0 8 3-8 3z"/></marker></defs></svg>