<svg xmlns="http://www.w3.org/2000/svg" width="800" height="250" viewBox="0 0 800 250"><defs><linearGradient id="a" x1="0%" x2="100%" y1="0%" y2="100%"><stop offset="0%" style="stop-color:#f8fafc;stop-opacity:1"/><stop offset="100%" style="stop-color:#e2e8f0;stop-opacity:1"/></linearGradient></defs><path fill="url(#a)" d="M0 0h800v250H0z"/><text x="400" y="40" fill="#1e293b" font-family="Arial, sans-serif" font-size="24" font-weight="bold" text-anchor="middle">
    Fristlinje for aksjonærregisteroppgave
  </text><path stroke="#64748b" stroke-width="3" d="M100 120h600"/><circle cx="200" cy="120" r="8" fill="#3b82f6" stroke="#1e40af" stroke-width="2"/><path stroke="#3b82f6" stroke-width="2" d="M200 120V80"/><rect width="100" height="20" x="150" y="60" fill="#3b82f6" rx="4"/><text x="200" y="74" fill="#fff" font-family="Arial, sans-serif" font-size="12" font-weight="bold" text-anchor="middle">
    31. mai
  </text><text x="200" y="145" fill="#3b82f6" font-family="Arial, sans-serif" font-size="10" text-anchor="middle">
    Hovedfrist
  </text><text x="200" y="160" fill="#3b82f6" font-family="Arial, sans-serif" font-size="10" text-anchor="middle">
    Gebyr: 2,000 NOK
  </text><circle cx="400" cy="120" r="8" fill="#f59e0b" stroke="#d97706" stroke-width="2"/><path stroke="#f59e0b" stroke-width="2" d="M400 120V80"/><rect width="100" height="20" x="350" y="60" fill="#f59e0b" rx="4"/><text x="400" y="74" fill="#fff" font-family="Arial, sans-serif" font-size="12" font-weight="bold" text-anchor="middle">
    31. august
  </text><text x="400" y="145" fill="#f59e0b" font-family="Arial, sans-serif" font-size="10" text-anchor="middle">
    Forlenget frist
  </text><text x="400" y="160" fill="#f59e0b" font-family="Arial, sans-serif" font-size="10" text-anchor="middle">
    Gebyr: 5,000 NOK
  </text><circle cx="600" cy="120" r="8" fill="#dc2626" stroke="#b91c1c" stroke-width="2"/><path stroke="#dc2626" stroke-width="2" d="M600 120V80"/><rect width="100" height="20" x="550" y="60" fill="#dc2626" rx="4"/><text x="600" y="74" fill="#fff" font-family="Arial, sans-serif" font-size="12" font-weight="bold" text-anchor="middle">
    31. desember
  </text><text x="600" y="145" fill="#dc2626" font-family="Arial, sans-serif" font-size="10" text-anchor="middle">
    Avsluttende frist
  </text><text x="600" y="160" fill="#dc2626" font-family="Arial, sans-serif" font-size="10" text-anchor="middle">
    Gebyr: 15,000 NOK
  </text><rect width="200" height="30" x="200" y="180" fill="#fef3c7" stroke="#f59e0b" rx="4"/><text x="300" y="200" fill="#92400e" font-family="Arial, sans-serif" font-size="12" font-weight="bold" text-anchor="middle">
    Advarsel: Økende sanksjoner
  </text><rect width="200" height="30" x="400" y="180" fill="#fecaca" stroke="#dc2626" rx="4"/><text x="500" y="200" fill="#991b1b" font-family="Arial, sans-serif" font-size="12" font-weight="bold" text-anchor="middle">
    Fare: Tvangsgebyr &amp; politianmeldelse
  </text><circle cx="100" cy="120" r="6" fill="#22c55e" stroke="#16a34a" stroke-width="2"/><text x="100" y="145" fill="#22c55e" font-family="Arial, sans-serif" font-size="10" text-anchor="middle">
    1. januar
  </text><text x="100" y="160" fill="#22c55e" font-family="Arial, sans-serif" font-size="10" text-anchor="middle">
    Regnskapsår start
  </text></svg>