<svg xmlns="http://www.w3.org/2000/svg" width="800" height="500"><defs><linearGradient id="a" x1="0%" x2="100%" y1="0%" y2="100%"><stop offset="0%" style="stop-color:#f8f9fa;stop-opacity:1"/><stop offset="100%" style="stop-color:#e9ecef;stop-opacity:1"/></linearGradient><linearGradient id="c" x1="0%" x2="0%" y1="0%" y2="100%"><stop offset="0%" style="stop-color:#007bff;stop-opacity:.1"/><stop offset="100%" style="stop-color:#007bff;stop-opacity:.3"/></linearGradient><linearGradient id="b" x1="0%" x2="100%" y1="0%" y2="0%"><stop offset="0%" style="stop-color:#28a745;stop-opacity:.2"/><stop offset="100%" style="stop-color:#17a2b8;stop-opacity:.2"/></linearGradient></defs><path fill="url(#a)" d="M0 0h800v500H0z"/><text x="400" y="40" fill="#2c3e50" font-family="Arial, sans-serif" font-size="24" font-weight="bold" text-anchor="middle">
    Automatisert Fakturabehandling
  </text><text fill="#495057" font-family="Arial, sans-serif" font-size="16" font-weight="bold" transform="translate(50 80)">Inngående Fakturaer</text><g transform="translate(50 100)"><rect width="60" height="80" fill="#fff" stroke="#dee2e6" rx="3"/><rect width="50" height="15" x="5" y="5" fill="#007bff" rx="2"/><path stroke="#dee2e6" d="M5 30h50M5 40h50M5 50h50"/><text x="30" y="115" fill="#6c757d" font-family="Arial, sans-serif" font-size="10" text-anchor="middle">Papir</text></g><g transform="translate(130 100)"><rect width="60" height="80" fill="#f8f9fa" stroke="#28a745" stroke-width="2" rx="3"/><text x="30" y="25" fill="#28a745" font-family="Arial, sans-serif" font-size="12" text-anchor="middle">@</text><text x="30" y="45" fill="#495057" font-family="Arial, sans-serif" font-size="8" text-anchor="middle">PDF</text><text x="30" y="60" fill="#495057" font-family="Arial, sans-serif" font-size="8" text-anchor="middle">Vedlegg</text><text x="30" y="115" fill="#6c757d" font-family="Arial, sans-serif" font-size="10" text-anchor="middle">E-post</text></g><g transform="translate(210 100)"><rect width="60" height="80" fill="#e3f2fd" stroke="#2196f3" stroke-width="2" rx="3"/><circle cx="30" cy="30" r="8" fill="#2196f3"/><text x="30" y="35" fill="#fff" font-family="Arial, sans-serif" font-size="8" text-anchor="middle">e</text><text x="30" y="55" fill="#495057" font-family="Arial, sans-serif" font-size="8" text-anchor="middle">XML/EDI</text><text x="30" y="115" fill="#6c757d" font-family="Arial, sans-serif" font-size="10" text-anchor="middle">eFaktura</text></g><path fill="none" stroke="#6c757d" stroke-width="3" d="M280 140h40M315 135l5 5-5 5"/><g transform="translate(340 80)"><rect width="200" height="120" fill="url(#b)" stroke="#17a2b8" stroke-width="2" rx="10"/><text x="100" y="25" fill="#17a2b8" font-family="Arial, sans-serif" font-size="16" font-weight="bold" text-anchor="middle">
      AI-drevet Behandling
    </text><g font-family="Arial, sans-serif"><text fill="#495057" font-size="12" font-weight="bold" transform="translate(20 35)">OCR &amp; Tolkning:</text><text y="18" fill="#6c757d" font-size="10" transform="translate(20 35)">• Automatisk tekstgjenkjenning</text><text y="32" fill="#6c757d" font-size="10" transform="translate(20 35)">• Intelligent datafangst</text><text y="46" fill="#6c757d" font-size="10" transform="translate(20 35)">• Validering mot regler</text><text y="60" fill="#6c757d" font-size="10" transform="translate(20 35)">• Automatisk kategorisering</text></g><g fill="#17a2b8" transform="translate(150 45)"><circle cx="15" cy="15" r="12" opacity=".3"/><path d="M8 12q7-4 14 0-7 8-14 0"/><circle cx="12" cy="12" r="2"/><circle cx="18" cy="12" r="2"/></g></g><path fill="none" stroke="#6c757d" stroke-width="3" d="M560 140h40M595 135l5 5-5 5"/><g transform="translate(620 80)"><rect width="130" height="120" fill="url(#c)" stroke="#28a745" stroke-width="2" rx="10"/><text x="65" y="25" fill="#28a745" font-family="Arial, sans-serif" font-size="14" font-weight="bold" text-anchor="middle">
      Validering &amp; Ruting
    </text><g fill="#6c757d" font-family="Arial, sans-serif" font-size="10"><text transform="translate(10 35)">✓ Leverandørvalidering</text><text y="15" transform="translate(10 35)">✓ MVA-kontroll</text><text y="30" transform="translate(10 35)">✓ Beløpsvalidering</text><text y="45" transform="translate(10 35)">✓ Automatisk ruting</text><text y="60" transform="translate(10 35)">✓ Godkjenningsflyt</text></g></g><path fill="none" stroke="#6c757d" stroke-width="2" d="M200 220v40M195 255l5 5 5-5M440 220v40M435 255l5 5 5-5M685 220v40M680 255l5 5 5-5"/><g transform="translate(50 280)"><rect width="140" height="80" fill="#fff3cd" stroke="#ffc107" stroke-width="2" rx="8"/><text x="70" y="20" fill="#856404" font-family="Arial, sans-serif" font-size="12" font-weight="bold" text-anchor="middle">
        Godkjenningsflyt
      </text><text x="10" y="40" fill="#6c757d" font-family="Arial, sans-serif" font-size="10">• Automatisk ruting</text><text x="10" y="55" fill="#6c757d" font-family="Arial, sans-serif" font-size="10">• Parallell godkjenning</text><text x="10" y="70" fill="#6c757d" font-family="Arial, sans-serif" font-size="10">• Eskalering ved forsinkelse</text></g><g transform="translate(220 280)"><rect width="140" height="80" fill="#d1ecf1" stroke="#17a2b8" stroke-width="2" rx="8"/><text x="70" y="20" fill="#0c5460" font-family="Arial, sans-serif" font-size="12" font-weight="bold" text-anchor="middle">
        Automatisk Bokføring
      </text><text x="10" y="40" fill="#6c757d" font-family="Arial, sans-serif" font-size="10">• Intelligent kontering</text><text x="10" y="55" fill="#6c757d" font-family="Arial, sans-serif" font-size="10">• MVA-behandling</text><text x="10" y="70" fill="#6c757d" font-family="Arial, sans-serif" font-size="10">• ERP-integrasjon</text></g><g transform="translate(390 280)"><rect width="140" height="80" fill="#d4edda" stroke="#28a745" stroke-width="2" rx="8"/><text x="70" y="20" fill="#155724" font-family="Arial, sans-serif" font-size="12" font-weight="bold" text-anchor="middle">
        Betalingsautomatisering
      </text><text x="10" y="40" fill="#6c757d" font-family="Arial, sans-serif" font-size="10">• Planlagt betaling</text><text x="10" y="55" fill="#6c757d" font-family="Arial, sans-serif" font-size="10">• Kontantstrømoptimalisering</text><text x="10" y="70" fill="#6c757d" font-family="Arial, sans-serif" font-size="10">• Bankavstemming</text></g><g transform="translate(560 280)"><rect width="140" height="80" fill="#f8d7da" stroke="#dc3545" stroke-width="2" rx="8"/><text x="70" y="20" fill="#721c24" font-family="Arial, sans-serif" font-size="12" font-weight="bold" text-anchor="middle">
        Avvikshåndtering
      </text><text x="10" y="40" fill="#6c757d" font-family="Arial, sans-serif" font-size="10">• Automatisk flagging</text><text x="10" y="55" fill="#6c757d" font-family="Arial, sans-serif" font-size="10">• Manuell oppfølging</text><text x="10" y="70" fill="#6c757d" font-family="Arial, sans-serif" font-size="10">• Læring og forbedring</text></g><g transform="translate(50 390)"><rect width="700" height="80" fill="#f8f9fa" stroke="#dee2e6" rx="8"/><text x="350" y="20" fill="#2c3e50" font-family="Arial, sans-serif" font-size="16" font-weight="bold" text-anchor="middle">
      Fordeler med Automatisering
    </text><g font-family="Arial, sans-serif"><text fill="#28a745" font-size="12" font-weight="bold" transform="translate(30 30)">70-90% Tidsbesparelse</text><text y="18" fill="#6c757d" font-size="10" transform="translate(30 30)">Raskere behandling av fakturaer</text><text x="170" fill="#007bff" font-size="12" font-weight="bold" transform="translate(30 30)">Reduserte Feil</text><text x="170" y="18" fill="#6c757d" font-size="10" transform="translate(30 30)">Eliminerer manuelle tastefeil</text><text x="320" fill="#17a2b8" font-size="12" font-weight="bold" transform="translate(30 30)">Bedre Kontroll</text><text x="320" y="18" fill="#6c757d" font-size="10" transform="translate(30 30)">Konsistent regelanvendelse</text><text x="470" fill="#6f42c1" font-size="12" font-weight="bold" transform="translate(30 30)">Skalerbarhet</text><text x="470" y="18" fill="#6c757d" font-size="10" transform="translate(30 30)">Håndterer økende volum</text></g></g><text x="100" fill="#6c757d" font-family="Arial, sans-serif" font-size="10" text-anchor="middle" transform="translate(340 50)">
      OCR • AI • Machine Learning • Workflow
    </text></svg>