<svg xmlns="http://www.w3.org/2000/svg" width="800" height="400"><defs><linearGradient id="a" x1="0%" x2="100%" y1="0%" y2="100%"><stop offset="0%" style="stop-color:#f8f9fa;stop-opacity:1"/><stop offset="100%" style="stop-color:#e9ecef;stop-opacity:1"/></linearGradient><linearGradient id="b" x1="0%" x2="100%" y1="0%" y2="100%"><stop offset="0%" style="stop-color:#4a90e2;stop-opacity:1"/><stop offset="100%" style="stop-color:#357abd;stop-opacity:1"/></linearGradient></defs><path fill="url(#a)" d="M0 0h800v400H0z"/><text x="400" y="50" fill="#2c3e50" font-family="Arial, sans-serif" font-size="32" font-weight="bold" text-anchor="middle">
    Detaljhandel og Regnskap
  </text><path fill="url(#b)" stroke="#2c3e50" stroke-width="2" d="M100 150h200v180H100z"/><path fill="#e74c3c" stroke="#c0392b" stroke-width="2" d="m90 150 120-50 120 50z"/><path fill="#ecf0f1" stroke="#34495e" stroke-width="2" d="M120 180h60v80h-60zM200 180h60v80h-60z"/><path fill="#8b4513" stroke="#654321" stroke-width="2" d="M160 220h40v110h-40z"/><circle cx="190" cy="275" r="3" fill="#f1c40f"/><path fill="#34495e" stroke="#2c3e50" stroke-width="2" d="M450 200h120v80H450z"/><path fill="#2ecc71" stroke="#27ae60" d="M460 190h100v20H460z"/><text x="510" y="205" fill="#fff" font-family="Arial, sans-serif" font-size="12" text-anchor="middle">KASSE</text><text x="480" y="250" fill="#f39c12" font-family="Arial, sans-serif" font-size="24">kr</text><text x="520" y="250" fill="#f39c12" font-family="Arial, sans-serif" font-size="24">€</text><path fill="#3498db" stroke="#2980b9" stroke-width="2" d="M600 180h100v120H600z"/><path stroke="#fff" stroke-width="2" d="M620 200h60"/><path stroke="#fff" d="M620 220h60M620 240h60M620 260h60"/><text x="650" y="195" fill="#fff" font-family="Arial, sans-serif" font-size="10" font-weight="bold" text-anchor="middle">REGNSKAP</text><path fill="none" stroke="#e74c3c" stroke-width="3" marker-end="url(#c)" d="M320 240q60-20 120 0"/><path fill="none" stroke="#e74c3c" stroke-width="3" marker-end="url(#d)" d="M580 240h10"/><defs><marker id="c" markerHeight="7" markerWidth="10" orient="auto" refX="9" refY="3.5"><path fill="#e74c3c" d="m0 0 10 3.5L0 7z"/></marker><marker id="d" markerHeight="7" markerWidth="10" orient="auto" refX="9" refY="3.5"><path fill="#e74c3c" d="m0 0 10 3.5L0 7z"/></marker></defs><text x="200" y="350" fill="#2c3e50" font-family="Arial, sans-serif" font-size="14" font-weight="bold" text-anchor="middle">
    Butikk
  </text><text x="510" y="320" fill="#2c3e50" font-family="Arial, sans-serif" font-size="14" font-weight="bold" text-anchor="middle">
    Salgsregistrering
  </text><text x="650" y="320" fill="#2c3e50" font-family="Arial, sans-serif" font-size="14" font-weight="bold" text-anchor="middle">
    Regnskapsføring
  </text><text x="400" y="380" fill="#7f8c8d" font-family="Arial, sans-serif" font-size="16" text-anchor="middle">
    Fra salg til regnskap - kompleks prosess med mange komponenter
  </text></svg>