<svg xmlns="http://www.w3.org/2000/svg" viewBox="0 0 800 600"><path fill="#f8f9fa" d="M0 0h800v600H0z"/><text x="400" y="30" fill="#2c3e50" font-family="Arial, sans-serif" font-size="24" font-weight="bold" text-anchor="middle">Internasjonal Terminharmonisering</text><circle cx="400" cy="300" r="80" fill="#3498db" stroke="#2980b9" stroke-width="3"/><text x="400" y="295" fill="#fff" font-family="Arial, sans-serif" font-size="14" font-weight="bold" text-anchor="middle">MORSELSKAP</text><text x="400" y="310" fill="#fff" font-family="Arial, sans-serif" font-size="12" text-anchor="middle">Konsern HQ</text><circle cx="200" cy="150" r="60" fill="#e74c3c" stroke="#c0392b" stroke-width="2"/><text x="200" y="145" fill="#fff" font-family="Arial, sans-serif" font-size="12" font-weight="bold" text-anchor="middle">EUROPA</text><text x="200" y="160" fill="#fff" font-family="Arial, sans-serif" font-size="10" text-anchor="middle">Jan-Des</text><circle cx="600" cy="150" r="60" fill="#9b59b6" stroke="#8e44ad" stroke-width="2"/><text x="600" y="145" fill="#fff" font-family="Arial, sans-serif" font-size="12" font-weight="bold" text-anchor="middle">ASIA</text><text x="600" y="160" fill="#fff" font-family="Arial, sans-serif" font-size="10" text-anchor="middle">Apr-Mar</text><circle cx="200" cy="450" r="60" fill="#27ae60" stroke="#229954" stroke-width="2"/><text x="200" y="445" fill="#fff" font-family="Arial, sans-serif" font-size="12" font-weight="bold" text-anchor="middle">AMERIKA</text><text x="200" y="460" fill="#fff" font-family="Arial, sans-serif" font-size="10" text-anchor="middle">Okt-Sep</text><circle cx="600" cy="450" r="60" fill="#f39c12" stroke="#e67e22" stroke-width="2"/><text x="600" y="445" fill="#fff" font-family="Arial, sans-serif" font-size="12" font-weight="bold" text-anchor="middle">AFRIKA</text><text x="600" y="460" fill="#fff" font-family="Arial, sans-serif" font-size="10" text-anchor="middle">Jul-Jun</text><path stroke="#7f8c8d" stroke-dasharray="5,5" stroke-width="2" d="m320 240-80-50M480 240l60-50M320 360l-80 50M480 360l60 50"/><rect width="150" height="60" x="50" y="80" fill="#ecf0f1" stroke="#bdc3c7" rx="5"/><text x="125" y="100" fill="#e74c3c" font-family="Arial, sans-serif" font-size="11" font-weight="bold" text-anchor="middle">UTFORDRING</text><text x="125" y="115" fill="#34495e" font-family="Arial, sans-serif" font-size="10" text-anchor="middle">Ulike</text><text x="125" y="130" fill="#34495e" font-family="Arial, sans-serif" font-size="10" text-anchor="middle">regnskapsår</text><rect width="150" height="60" x="600" y="80" fill="#ecf0f1" stroke="#bdc3c7" rx="5"/><text x="675" y="100" fill="#e74c3c" font-family="Arial, sans-serif" font-size="11" font-weight="bold" text-anchor="middle">UTFORDRING</text><text x="675" y="115" fill="#34495e" font-family="Arial, sans-serif" font-size="10" text-anchor="middle">Valutaomregning</text><text x="675" y="130" fill="#34495e" font-family="Arial, sans-serif" font-size="10" text-anchor="middle">&amp; kurseffekter</text><rect width="150" height="60" x="50" y="460" fill="#ecf0f1" stroke="#bdc3c7" rx="5"/><text x="125" y="480" fill="#e74c3c" font-family="Arial, sans-serif" font-size="11" font-weight="bold" text-anchor="middle">UTFORDRING</text><text x="125" y="495" fill="#34495e" font-family="Arial, sans-serif" font-size="10" text-anchor="middle">Elimineringer</text><text x="125" y="510" fill="#34495e" font-family="Arial, sans-serif" font-size="10" text-anchor="middle">intern omsetning</text><rect width="240" height="100" x="280" y="50" fill="#e8f5e8" stroke="#27ae60" stroke-width="2" rx="10"/><text x="400" y="70" fill="#27ae60" font-family="Arial, sans-serif" font-size="14" font-weight="bold" text-anchor="middle">HARMONISERINGSPROSESS</text><text x="290" y="90" fill="#2c3e50" font-family="Arial, sans-serif" font-size="11">1. Standardisering regnskapsår</text><text x="290" y="105" fill="#2c3e50" font-family="Arial, sans-serif" font-size="11">2. Felles regnskapsprinsiper</text><text x="290" y="120" fill="#2c3e50" font-family="Arial, sans-serif" font-size="11">3. Konsolideringsrutiner</text><text x="290" y="135" fill="#2c3e50" font-family="Arial, sans-serif" font-size="11">4. Kvalitetskontroll</text><defs><marker id="a" markerHeight="7" markerWidth="10" orient="auto" refX="9" refY="3.5"><path fill="#27ae60" d="m0 0 10 3.5L0 7z"/></marker></defs><path fill="none" stroke="#27ae60" stroke-width="2" marker-end="url(#a)" d="M320 150q40-30 80 0"/><path fill="none" stroke="#27ae60" stroke-width="2" marker-end="url(#a)" d="M480 150q-40-30-80 0"/><rect width="700" height="40" x="50" y="550" fill="#ecf0f1" stroke="#bdc3c7" rx="5"/><text x="400" y="570" fill="#2c3e50" font-family="Arial, sans-serif" font-size="12" font-weight="bold" text-anchor="middle">IMPLEMENTERINGS-TIDSLINJE</text><circle cx="150" cy="580" r="3" fill="#3498db"/><text x="150" y="595" fill="#2c3e50" font-family="Arial, sans-serif" font-size="9" text-anchor="middle">Q1: Analyse</text><circle cx="300" cy="580" r="3" fill="#f39c12"/><text x="300" y="595" fill="#2c3e50" font-family="Arial, sans-serif" font-size="9" text-anchor="middle">Q2: Design</text><circle cx="450" cy="580" r="3" fill="#e74c3c"/><text x="450" y="595" fill="#2c3e50" font-family="Arial, sans-serif" font-size="9" text-anchor="middle">Q3: Testing</text><circle cx="600" cy="580" r="3" fill="#27ae60"/><text x="600" y="595" fill="#2c3e50" font-family="Arial, sans-serif" font-size="9" text-anchor="middle">Q4: Go-live</text><rect width="150" height="80" x="600" y="460" fill="#e8f8f5" stroke="#27ae60" rx="5"/><text x="675" y="475" fill="#27ae60" font-family="Arial, sans-serif" font-size="11" font-weight="bold" text-anchor="middle">GEVINSTER</text><text x="675" y="490" fill="#2c3e50" font-family="Arial, sans-serif" font-size="9" text-anchor="middle">• Konsistent rapportering</text><text x="675" y="505" fill="#2c3e50" font-family="Arial, sans-serif" font-size="9" text-anchor="middle">• Bedre sammenligning</text><text x="675" y="520" fill="#2c3e50" font-family="Arial, sans-serif" font-size="9" text-anchor="middle">• Effektiv konsolidering</text><text x="675" y="535" fill="#2c3e50" font-family="Arial, sans-serif" font-size="9" text-anchor="middle">• Compliance-sikkerhet</text><text x="180" y="180" fill="#2c3e50" font-family="Arial, sans-serif" font-size="14">€</text><text x="580" y="180" fill="#2c3e50" font-family="Arial, sans-serif" font-size="14">¥</text><text x="180" y="480" fill="#2c3e50" font-family="Arial, sans-serif" font-size="14">$</text><text x="580" y="480" fill="#2c3e50" font-family="Arial, sans-serif" font-size="14">R</text><rect width="160" height="40" x="320" y="380" fill="#fff3cd" stroke="#f39c12" rx="5"/><text x="400" y="395" fill="#f39c12" font-family="Arial, sans-serif" font-size="10" font-weight="bold" text-anchor="middle">KONSOLIDERING</text><text x="400" y="410" fill="#2c3e50" font-family="Arial, sans-serif" font-size="9" text-anchor="middle">Månedlig rapportering</text></svg>