<svg xmlns="http://www.w3.org/2000/svg" width="800" height="600"><defs><linearGradient id="c" x1="0%" x2="100%" y1="0%" y2="0%"><stop offset="0%" style="stop-color:#dc2626;stop-opacity:1"/><stop offset="100%" style="stop-color:#ef4444;stop-opacity:1"/></linearGradient><linearGradient id="a" x1="0%" x2="100%" y1="0%" y2="0%"><stop offset="0%" style="stop-color:#2563eb;stop-opacity:1"/><stop offset="100%" style="stop-color:#3b82f6;stop-opacity:1"/></linearGradient><linearGradient id="b" x1="0%" x2="100%" y1="0%" y2="0%"><stop offset="0%" style="stop-color:#16a34a;stop-opacity:1"/><stop offset="100%" style="stop-color:#22c55e;stop-opacity:1"/></linearGradient></defs><path fill="#f9fafb" d="M0 0h800v600H0z"/><text x="400" y="35" fill="#1f2937" font-family="Arial, sans-serif" font-size="22" font-weight="bold" text-anchor="middle">Skattemessige Frister og Terminer</text><text x="320" y="20" fill="#374151" font-family="Arial, sans-serif" font-size="16" font-weight="bold" text-anchor="middle" transform="translate(80 70)">2024 Skattekalender</text><path fill="#f3f4f6" stroke="#d1d5db" d="M80 110h640v30H80z"/><text x="53" y="20" fill="#374151" font-family="Arial, sans-serif" font-size="10" font-weight="bold" text-anchor="middle" transform="translate(80 110)">Jan</text><text x="107" y="20" fill="#374151" font-family="Arial, sans-serif" font-size="10" font-weight="bold" text-anchor="middle" transform="translate(80 110)">Feb</text><text x="160" y="20" fill="#374151" font-family="Arial, sans-serif" font-size="10" font-weight="bold" text-anchor="middle" transform="translate(80 110)">Mar</text><text x="213" y="20" fill="#374151" font-family="Arial, sans-serif" font-size="10" font-weight="bold" text-anchor="middle" transform="translate(80 110)">Apr</text><text x="267" y="20" fill="#374151" font-family="Arial, sans-serif" font-size="10" font-weight="bold" text-anchor="middle" transform="translate(80 110)">Mai</text><text x="320" y="20" fill="#374151" font-family="Arial, sans-serif" font-size="10" font-weight="bold" text-anchor="middle" transform="translate(80 110)">Jun</text><text x="373" y="20" fill="#374151" font-family="Arial, sans-serif" font-size="10" font-weight="bold" text-anchor="middle" transform="translate(80 110)">Jul</text><text x="427" y="20" fill="#374151" font-family="Arial, sans-serif" font-size="10" font-weight="bold" text-anchor="middle" transform="translate(80 110)">Aug</text><text x="480" y="20" fill="#374151" font-family="Arial, sans-serif" font-size="10" font-weight="bold" text-anchor="middle" transform="translate(80 110)">Sep</text><text x="533" y="20" fill="#374151" font-family="Arial, sans-serif" font-size="10" font-weight="bold" text-anchor="middle" transform="translate(80 110)">Okt</text><text x="587" y="20" fill="#374151" font-family="Arial, sans-serif" font-size="10" font-weight="bold" text-anchor="middle" transform="translate(80 110)">Nov</text><text x="640" y="20" fill="#374151" font-family="Arial, sans-serif" font-size="10" font-weight="bold" text-anchor="middle" transform="translate(80 110)">Des</text><g transform="translate(80 150)"><text y="15" fill="#2563eb" font-family="Arial, sans-serif" font-size="12" font-weight="bold">Forskuddsskatt (6 terminer)</text><rect width="25" height="20" x="80" y="5" fill="url(#a)" rx="3"/><text x="92" y="18" fill="#fff" font-family="Arial, sans-serif" font-size="8" text-anchor="middle">15</text><rect width="25" height="20" x="187" y="5" fill="url(#a)" rx="3"/><text x="199" y="18" fill="#fff" font-family="Arial, sans-serif" font-size="8" text-anchor="middle">15</text><rect width="25" height="20" x="295" y="5" fill="url(#a)" rx="3"/><text x="307" y="18" fill="#fff" font-family="Arial, sans-serif" font-size="8" text-anchor="middle">15</text><rect width="25" height="20" x="400" y="5" fill="url(#a)" rx="3"/><text x="412" y="18" fill="#fff" font-family="Arial, sans-serif" font-size="8" text-anchor="middle">15</text><rect width="25" height="20" x="507" y="5" fill="url(#a)" rx="3"/><text x="519" y="18" fill="#fff" font-family="Arial, sans-serif" font-size="8" text-anchor="middle">15</text><rect width="25" height="20" x="614" y="5" fill="url(#a)" rx="3"/><text x="626" y="18" fill="#fff" font-family="Arial, sans-serif" font-size="8" text-anchor="middle">15</text></g><g transform="translate(80 190)"><text y="15" fill="#16a34a" font-family="Arial, sans-serif" font-size="12" font-weight="bold">MVA-oppgaver (månedlig)</text><rect width="20" height="20" x="80" y="5" fill="url(#b)" rx="3"/><text x="90" y="18" fill="#fff" font-family="Arial, sans-serif" font-size="8" text-anchor="middle">10</text><rect width="20" height="20" x="134" y="5" fill="url(#b)" rx="3"/><text x="144" y="18" fill="#fff" font-family="Arial, sans-serif" font-size="8" text-anchor="middle">10</text><rect width="20" height="20" x="187" y="5" fill="url(#b)" rx="3"/><text x="197" y="18" fill="#fff" font-family="Arial, sans-serif" font-size="8" text-anchor="middle">10</text><rect width="20" height="20" x="240" y="5" fill="url(#b)" rx="3"/><text x="250" y="18" fill="#fff" font-family="Arial, sans-serif" font-size="8" text-anchor="middle">10</text><rect width="20" height="20" x="294" y="5" fill="url(#b)" rx="3"/><text x="304" y="18" fill="#fff" font-family="Arial, sans-serif" font-size="8" text-anchor="middle">10</text><rect width="20" height="20" x="347" y="5" fill="url(#b)" rx="3"/><text x="357" y="18" fill="#fff" font-family="Arial, sans-serif" font-size="8" text-anchor="middle">10</text><rect width="20" height="20" x="400" y="5" fill="url(#b)" rx="3"/><text x="410" y="18" fill="#fff" font-family="Arial, sans-serif" font-size="8" text-anchor="middle">10</text><rect width="20" height="20" x="454" y="5" fill="url(#b)" rx="3"/><text x="464" y="18" fill="#fff" font-family="Arial, sans-serif" font-size="8" text-anchor="middle">10</text><rect width="20" height="20" x="507" y="5" fill="url(#b)" rx="3"/><text x="517" y="18" fill="#fff" font-family="Arial, sans-serif" font-size="8" text-anchor="middle">10</text><rect width="20" height="20" x="560" y="5" fill="url(#b)" rx="3"/><text x="570" y="18" fill="#fff" font-family="Arial, sans-serif" font-size="8" text-anchor="middle">10</text><rect width="20" height="20" x="614" y="5" fill="url(#b)" rx="3"/><text x="624" y="18" fill="#fff" font-family="Arial, sans-serif" font-size="8" text-anchor="middle">10</text><rect width="20" height="20" x="27" y="25" fill="url(#b)" rx="3"/><text x="37" y="38" fill="#fff" font-family="Arial, sans-serif" font-size="8" text-anchor="middle">10</text></g><g transform="translate(80 250)"><text y="15" fill="#dc2626" font-family="Arial, sans-serif" font-size="12" font-weight="bold">Årlige hovedfrister</text><rect width="50" height="20" x="240" y="5" fill="url(#c)" rx="3"/><text x="265" y="18" fill="#fff" font-family="Arial, sans-serif" font-size="8" text-anchor="middle">31 mai</text><rect width="50" height="20" x="295" y="5" fill="url(#c)" rx="3"/><text x="320" y="18" fill="#fff" font-family="Arial, sans-serif" font-size="8" text-anchor="middle">30 jun</text></g><text x="350" y="20" fill="#374151" font-family="Arial, sans-serif" font-size="16" font-weight="bold" text-anchor="middle" transform="translate(50 300)">Detaljert Oversikt - Viktige Frister</text><g transform="translate(50 340)"><rect width="220" height="120" fill="#f0fdf4" stroke="#16a34a" stroke-width="2" rx="8"/><text x="110" y="25" fill="#16a34a" font-family="Arial, sans-serif" font-size="14" font-weight="bold" text-anchor="middle">MVA-RAPPORTERING</text><g font-family="Arial, sans-serif"><text y="15" fill="#15803d" font-size="11" font-weight="bold" transform="translate(15 35)">Månedlig frist:</text><text y="30" fill="#166534" font-size="10" transform="translate(15 35)">• 10. i påfølgende måned</text><text y="45" fill="#166534" font-size="10" transform="translate(15 35)">• Betaling samme dag</text><text y="60" fill="#166534" font-size="10" transform="translate(15 35)">• A-melding 5. hver måned</text><text y="75" fill="#166534" font-size="10" transform="translate(15 35)">• Forsinkelse = gebyr</text></g></g><g transform="translate(290 340)"><rect width="220" height="120" fill="#eff6ff" stroke="#2563eb" stroke-width="2" rx="8"/><text x="110" y="25" fill="#2563eb" font-family="Arial, sans-serif" font-size="14" font-weight="bold" text-anchor="middle">FORSKUDDSSKATT</text><g font-family="Arial, sans-serif"><text y="15" fill="#1d4ed8" font-size="11" font-weight="bold" transform="translate(15 35)">6 terminer årlig:</text><text y="30" fill="#1e40af" font-size="10" transform="translate(15 35)">• 15. feb, apr, jun, aug, okt, des</text><text y="45" fill="#1e40af" font-size="10" transform="translate(15 35)">• Basert på fjorårets skatt</text><text y="60" fill="#1e40af" font-size="10" transform="translate(15 35)">• Justeres ved endringer</text><text y="75" fill="#1e40af" font-size="10" transform="translate(15 35)">• Oppgjør etter selvangivelse</text></g></g><g transform="translate(530 340)"><rect width="220" height="120" fill="#fef2f2" stroke="#dc2626" stroke-width="2" rx="8"/><text x="110" y="25" fill="#dc2626" font-family="Arial, sans-serif" font-size="14" font-weight="bold" text-anchor="middle">ÅRLIGE FRISTER</text><g font-family="Arial, sans-serif"><text y="15" fill="#dc2626" font-size="11" font-weight="bold" transform="translate(15 35)">Hovedfrister:</text><text y="30" fill="#b91c1c" font-size="10" transform="translate(15 35)">• Skattemelding: 31. mai</text><text y="45" fill="#b91c1c" font-size="10" transform="translate(15 35)">• Årsregnskap: 30. juni</text><text y="60" fill="#b91c1c" font-size="10" transform="translate(15 35)">• Revisjonsberetning: 30. juni</text><text y="75" fill="#b91c1c" font-size="10" transform="translate(15 35)">• Alvorlige konsekvenser</text></g></g><g transform="translate(50 480)"><text x="350" y="20" fill="#374151" font-family="Arial, sans-serif" font-size="14" font-weight="bold" text-anchor="middle">Konsekvenser ved Forsinkelse</text><rect width="700" height="80" y="30" fill="#fff" stroke="#d1d5db" rx="6"/><rect width="700" height="20" y="30" fill="#f9fafb" rx="6 6 0 0"/><text x="120" y="45" fill="#374151" font-family="Arial, sans-serif" font-size="10" font-weight="bold" text-anchor="middle">Frist</text><text x="300" y="45" fill="#374151" font-family="Arial, sans-serif" font-size="10" font-weight="bold" text-anchor="middle">Forsinkelse</text><text x="520" y="45" fill="#374151" font-family="Arial, sans-serif" font-size="10" font-weight="bold" text-anchor="middle">Konsekvens</text><path stroke="#e5e7eb" d="M0 50h700"/><text x="120" y="45" fill="#6b7280" font-family="Arial, sans-serif" font-size="9" text-anchor="middle" transform="translate(0 20)">MVA-oppgave</text><text x="300" y="45" fill="#6b7280" font-family="Arial, sans-serif" font-size="9" text-anchor="middle" transform="translate(0 20)">1+ dager</text><text x="520" y="45" fill="#6b7280" font-family="Arial, sans-serif" font-size="9" text-anchor="middle" transform="translate(0 20)">Overtredelsesgebyr 5.000-500.000 kr</text><path stroke="#e5e7eb" d="M0 70h700"/><text x="120" y="65" fill="#6b7280" font-family="Arial, sans-serif" font-size="9" text-anchor="middle" transform="translate(0 20)">Skattemelding</text><text x="300" y="65" fill="#6b7280" font-family="Arial, sans-serif" font-size="9" text-anchor="middle" transform="translate(0 20)">1+ dager</text><text x="520" y="65" fill="#6b7280" font-family="Arial, sans-serif" font-size="9" text-anchor="middle" transform="translate(0 20)">Forsinkelsesgebyr 500 kr + 5% av restskatt</text><path stroke="#e5e7eb" d="M0 90h700"/><text x="120" y="85" fill="#6b7280" font-family="Arial, sans-serif" font-size="9" text-anchor="middle" transform="translate(0 20)">Årsregnskap</text><text x="300" y="85" fill="#6b7280" font-family="Arial, sans-serif" font-size="9" text-anchor="middle" transform="translate(0 20)">1+ dager</text><text x="520" y="85" fill="#6b7280" font-family="Arial, sans-serif" font-size="9" text-anchor="middle" transform="translate(0 20)">Tvangsmulkt 5.000-50.000 kr</text><g stroke="#e5e7eb"><path d="M200 30v80M400 30v80"/></g></g></svg>