<svg xmlns="http://www.w3.org/2000/svg" width="800" height="600"><path fill="#f8f9fa" d="M0 0h800v600H0z"/><text x="400" y="40" fill="#2c3e50" font-family="Arial, sans-serif" font-size="24" font-weight="bold" text-anchor="middle">Detaljert Beregning av Maskimalt Utbytte</text><rect width="700" height="480" x="50" y="70" fill="#fff" stroke="#e9ecef" stroke-width="2" rx="10"/><rect width="640" height="50" x="80" y="100" fill="#e3f2fd" stroke="#1976d2" stroke-width="2" rx="5"/><text x="120" y="125" fill="#1976d2" font-family="Arial, sans-serif" font-size="14" font-weight="bold">1. Total Egenkapital</text><text x="500" y="125" fill="#666" font-family="Arial, sans-serif" font-size="14">Sum av all egenkapital i selskapet</text><text x="650" y="125" fill="#1976d2" font-family="Arial, sans-serif" font-size="14" font-weight="bold">2 500 000 kr</text><path fill="none" stroke="#666" stroke-width="2" marker-end="url(#a)" d="M400 160v20"/><rect width="640" height="120" x="80" y="190" fill="#ffebee" stroke="#f44336" stroke-width="2" rx="5"/><text x="120" y="215" fill="#d32f2f" font-family="Arial, sans-serif" font-size="14" font-weight="bold">2. Minus: Bundet Egenkapital</text><rect width="280" height="25" x="100" y="230" fill="#ffcdd2" stroke="#d32f2f" rx="3"/><text x="120" y="247" fill="#d32f2f" font-family="Arial, sans-serif" font-size="12">Aksjekapital (minimum 30 000 kr)</text><text x="350" y="247" fill="#d32f2f" font-family="Arial, sans-serif" font-size="12" font-weight="bold">- 100 000 kr</text><rect width="280" height="25" x="100" y="260" fill="#ffcdd2" stroke="#d32f2f" rx="3"/><text x="120" y="277" fill="#d32f2f" font-family="Arial, sans-serif" font-size="12">Overkursfond</text><text x="350" y="277" fill="#d32f2f" font-family="Arial, sans-serif" font-size="12" font-weight="bold">- 200 000 kr</text><rect width="280" height="25" x="400" y="230" fill="#ffcdd2" stroke="#d32f2f" rx="3"/><text x="420" y="247" fill="#d32f2f" font-family="Arial, sans-serif" font-size="12">Lovpålagt reservefond (10%)</text><text x="650" y="247" fill="#d32f2f" font-family="Arial, sans-serif" font-size="12" font-weight="bold">- 10 000 kr</text><rect width="280" height="25" x="400" y="260" fill="#ffcdd2" stroke="#d32f2f" rx="3"/><text x="420" y="277" fill="#d32f2f" font-family="Arial, sans-serif" font-size="12">Annen bundet egenkapital</text><text x="650" y="277" fill="#d32f2f" font-family="Arial, sans-serif" font-size="12" font-weight="bold">- 0 kr</text><path fill="none" stroke="#666" stroke-width="2" marker-end="url(#a)" d="M400 320v20"/><rect width="640" height="50" x="80" y="350" fill="#c8e6c9" stroke="#388e3c" stroke-width="2" rx="5"/><text x="120" y="375" fill="#2e7d32" font-family="Arial, sans-serif" font-size="14" font-weight="bold">3. = Fri Egenkapital</text><text x="500" y="375" fill="#666" font-family="Arial, sans-serif" font-size="14">Tilgjengelig for utbytteutdeling</text><text x="650" y="375" fill="#2e7d32" font-family="Arial, sans-serif" font-size="14" font-weight="bold">2 190 000 kr</text><path fill="none" stroke="#666" stroke-width="2" marker-end="url(#a)" d="M400 410v20"/><rect width="640" height="50" x="80" y="440" fill="#fff3e0" stroke="#ff9800" stroke-width="2" rx="5"/><text x="120" y="465" fill="#f57c00" font-family="Arial, sans-serif" font-size="14" font-weight="bold">4. Minus: Soliditetsbuffer (10%)</text><text x="500" y="465" fill="#666" font-family="Arial, sans-serif" font-size="14">Sikkerhetsmarginal</text><text x="650" y="465" fill="#f57c00" font-family="Arial, sans-serif" font-size="14" font-weight="bold">- 219 000 kr</text><path fill="none" stroke="#666" stroke-width="2" marker-end="url(#a)" d="M400 500v20"/><rect width="640" height="50" x="80" y="530" fill="#e8f5e8" stroke="#4caf50" stroke-width="3" rx="5"/><text x="120" y="555" fill="#2e7d32" font-family="Arial, sans-serif" font-size="16" font-weight="bold">5. = MASKIMALT UTBYTTE</text><text x="650" y="555" fill="#2e7d32" font-family="Arial, sans-serif" font-size="16" font-weight="bold">1 971 000 kr</text><defs><marker id="a" markerHeight="7" markerWidth="10" orient="auto" refX="9" refY="3.5"><path fill="#666" d="m0 0 10 3.5L0 7z"/></marker></defs><rect width="180" height="80" x="520" y="100" fill="#f5f5f5" stroke="#999" rx="5"/><text x="610" y="120" fill="#333" font-family="Arial, sans-serif" font-size="12" font-weight="bold" text-anchor="middle">Viktig!</text><text x="610" y="140" fill="#666" font-family="Arial, sans-serif" font-size="10" text-anchor="middle">Soliditetsbuffer kan</text><text x="610" y="155" fill="#666" font-family="Arial, sans-serif" font-size="10" text-anchor="middle">variere basert på:</text><text x="610" y="170" fill="#666" font-family="Arial, sans-serif" font-size="10" text-anchor="middle">• Bransje • Risiko • Marked</text></svg>