<svg xmlns="http://www.w3.org/2000/svg" width="800" height="600" viewBox="0 0 800 600"><path fill="#f8f9fa" d="M0 0h800v600H0z"/><text x="400" y="40" fill="#2c3e50" font-family="Arial, sans-serif" font-size="24" font-weight="bold" text-anchor="middle">Risikofaktorer ved Utbytteutdeling</text><rect width="700" height="140" x="50" y="80" fill="#fdf2e8" stroke="#e67e22" stroke-width="2" rx="10"/><text x="400" y="105" fill="#2c3e50" font-family="Arial, sans-serif" font-size="18" font-weight="bold" text-anchor="middle">Økonomiske Risikofaktorer</text><rect width="150" height="80" x="70" y="120" fill="#fff5f5" stroke="#e74c3c" rx="5"/><text x="145" y="140" fill="#e74c3c" font-family="Arial, sans-serif" font-size="14" font-weight="bold" text-anchor="middle">Markedsrisiko</text><path fill="none" stroke="#e74c3c" stroke-width="2" d="m120 155 10 10 10-15 10 10 20-15"/><circle cx="130" cy="165" r="2" fill="#e74c3c"/><circle cx="140" cy="150" r="2" fill="#e74c3c"/><circle cx="150" cy="160" r="2" fill="#e74c3c"/><text x="80" y="180" fill="#2c3e50" font-family="Arial, sans-serif" font-size="11">• Konjunktursvingninger</text><text x="80" y="195" fill="#2c3e50" font-family="Arial, sans-serif" font-size="11">• Markedsvolatilitet</text><rect width="150" height="80" x="240" y="120" fill="#f0f8ff" stroke="#3498db" rx="5"/><text x="315" y="140" fill="#3498db" font-family="Arial, sans-serif" font-size="14" font-weight="bold" text-anchor="middle">Likviditetsrisiko</text><path fill="#3498db" d="M315 155q-10 10 0 20 10-10 0-20"/><text x="250" y="180" fill="#2c3e50" font-family="Arial, sans-serif" font-size="11">• Kontantstrømproblemer</text><text x="250" y="195" fill="#2c3e50" font-family="Arial, sans-serif" font-size="11">• Betalingsevne</text><rect width="150" height="80" x="410" y="120" fill="#fff8f0" stroke="#f39c12" rx="5"/><text x="485" y="140" fill="#f39c12" font-family="Arial, sans-serif" font-size="14" font-weight="bold" text-anchor="middle">Kredittrisiko</text><rect width="30" height="20" x="470" y="155" fill="#f39c12" rx="3"/><path fill="#fff" d="M475 160h20v3h-20zM475 165h15v2h-15z"/><text x="420" y="180" fill="#2c3e50" font-family="Arial, sans-serif" font-size="11">• Kundefordringer</text><text x="420" y="195" fill="#2c3e50" font-family="Arial, sans-serif" font-size="11">• Debitorrisiko</text><rect width="150" height="80" x="580" y="120" fill="#f5f0ff" stroke="#9b59b6" rx="5"/><text x="655" y="140" fill="#9b59b6" font-family="Arial, sans-serif" font-size="14" font-weight="bold" text-anchor="middle">Operasjonell Risiko</text><circle cx="655" cy="160" r="12" fill="none" stroke="#9b59b6" stroke-width="2"/><circle cx="655" cy="160" r="6" fill="none" stroke="#9b59b6" stroke-width="2"/><path fill="#9b59b6" d="M651 148h8v4h-8zM651 168h8v4h-8zM643 156h4v8h-4zM663 156h4v8h-4z"/><text x="590" y="180" fill="#2c3e50" font-family="Arial, sans-serif" font-size="11">• Driftsutfordringer</text><text x="590" y="195" fill="#2c3e50" font-family="Arial, sans-serif" font-size="11">• Prosessrisiko</text><rect width="700" height="160" x="50" y="240" fill="#f0f8e8" stroke="#27ae60" stroke-width="2" rx="10"/><text x="400" y="265" fill="#2c3e50" font-family="Arial, sans-serif" font-size="18" font-weight="bold" text-anchor="middle">Forsiktighetsregler</text><path fill="#27ae60" d="m400 280-10 10v20q0 10 10 15 10-5 10-15v-20Z"/><text x="400" y="305" fill="#fff" font-family="Arial, sans-serif" font-size="12" font-weight="bold" text-anchor="middle">✓</text><g font-family="Arial, sans-serif"><text x="70" y="350" fill="#27ae60" font-size="14" font-weight="bold">Forsiktighetsprinsippet tilsier:</text><text x="70" y="370" fill="#2c3e50" font-size="13">✓ Beholde sikkerhetsbuffer utover minimumskravene</text><text x="70" y="385" fill="#2c3e50" font-size="13">✓ Vurdere fremtidige investeringsbehov</text></g><g font-family="Arial, sans-serif"><text x="420" y="350" fill="#27ae60" font-size="14" font-weight="bold">Praktiske tiltak:</text><text x="420" y="370" fill="#2c3e50" font-size="13">✓ Ta hensyn til sesongvariasjoner</text><text x="420" y="385" fill="#2c3e50" font-size="13">✓ Planlegge for uforutsette utgifter</text></g><rect width="700" height="130" x="50" y="420" fill="#fff5f5" stroke="#e74c3c" stroke-width="2" rx="10"/><text x="400" y="445" fill="#2c3e50" font-family="Arial, sans-serif" font-size="18" font-weight="bold" text-anchor="middle">Juridisk Ansvar</text><path fill="#8b4513" d="M380 460h5v25h-5z"/><rect width="15" height="8" x="375" y="460" fill="#8b4513" rx="2"/><circle cx="395" cy="475" r="8" fill="#8b4513"/><g font-family="Arial, sans-serif"><text x="70" y="480" fill="#e74c3c" font-size="14" font-weight="bold">Styremedlemmer kan bli personlig ansvarlige hvis:</text><text x="70" y="500" fill="#2c3e50" font-size="13">• Utbytte deles ut i strid med loven</text><text x="70" y="515" fill="#2c3e50" font-size="13">• Selskapet blir insolvent som følge av utdelingen</text><text x="70" y="530" fill="#2c3e50" font-size="13">• Kreditorers interesser skades</text><text x="420" y="500" fill="#2c3e50" font-size="13">• Reglene for maskimalt utbytte ikke følges</text><text x="420" y="515" fill="#2c3e50" font-size="13">• Utilstrekkelig dokumentasjon av vurderinger</text><text x="420" y="530" fill="#2c3e50" font-size="13">• Manglende aktsomhet i beslutningsprosessen</text></g><rect width="700" height="25" x="50" y="570" fill="#ecf0f1" stroke="#95a5a6" rx="3"/><text x="70" y="585" fill="#2c3e50" font-family="Arial, sans-serif" font-size="12" font-weight="bold">Anbefaling:</text><text x="140" y="585" fill="#2c3e50" font-family="Arial, sans-serif" font-size="12">Gjennomfør grundig risikovurdering før hver utbyttebeslutning og dokumenter alle vurderinger.</text></svg>