<svg xmlns="http://www.w3.org/2000/svg" width="900" height="500" viewBox="0 0 900 500"><path fill="#f8f9fa" d="M0 0h900v500H0z"/><text x="450" y="30" fill="#2c3e50" font-family="Arial, sans-serif" font-size="24" font-weight="bold" text-anchor="middle">BankGiro Tjenester</text><rect width="250" height="350" x="50" y="70" fill="#3498db" stroke="#2980b9" stroke-width="3" rx="15"/><text x="175" y="105" fill="#fff" font-family="Arial, sans-serif" font-size="18" font-weight="bold" text-anchor="middle">Standard BankGiro</text><circle cx="80" cy="140" r="8" fill="#fff"/><text x="100" y="147" fill="#fff" font-family="Arial, sans-serif" font-size="12">Enkeltbetalinger</text><circle cx="80" cy="170" r="8" fill="#fff"/><text x="100" y="177" fill="#fff" font-family="Arial, sans-serif" font-size="12">OCR-nummer per faktura</text><circle cx="80" cy="200" r="8" fill="#fff"/><text x="100" y="207" fill="#fff" font-family="Arial, sans-serif" font-size="12">Manuell betaling</text><circle cx="80" cy="230" r="8" fill="#fff"/><text x="100" y="237" fill="#fff" font-family="Arial, sans-serif" font-size="12">Automatisk avstemming</text><circle cx="80" cy="260" r="8" fill="#fff"/><text x="100" y="267" fill="#fff" font-family="Arial, sans-serif" font-size="12">Grunnleggende rapporter</text><rect width="210" height="60" x="70" y="290" fill="#2980b9" rx="8"/><text x="175" y="315" fill="#fff" font-family="Arial, sans-serif" font-size="14" font-weight="bold" text-anchor="middle">Prising</text><text x="175" y="335" fill="#fff" font-family="Arial, sans-serif" font-size="12" text-anchor="middle">1-3 kr per transaksjon</text><rect width="210" height="50" x="70" y="360" fill="#34495e" rx="8"/><text x="175" y="380" fill="#fff" font-family="Arial, sans-serif" font-size="12" font-weight="bold" text-anchor="middle">Egnet for:</text><text x="175" y="395" fill="#fff" font-family="Arial, sans-serif" font-size="11" text-anchor="middle">Små til mellomstore bedrifter</text><rect width="250" height="350" x="325" y="70" fill="#e74c3c" stroke="#c0392b" stroke-width="3" rx="15"/><text x="450" y="105" fill="#fff" font-family="Arial, sans-serif" font-size="18" font-weight="bold" text-anchor="middle">BankGiro Innkreving</text><circle cx="355" cy="140" r="8" fill="#fff"/><text x="375" y="147" fill="#fff" font-family="Arial, sans-serif" font-size="12">Masseinnkreving</text><circle cx="355" cy="170" r="8" fill="#fff"/><text x="375" y="177" fill="#fff" font-family="Arial, sans-serif" font-size="12">Automatisert prosess</text><circle cx="355" cy="200" r="8" fill="#fff"/><text x="375" y="207" fill="#fff" font-family="Arial, sans-serif" font-size="12">Batch-behandling</text><circle cx="355" cy="230" r="8" fill="#fff"/><text x="375" y="237" fill="#fff" font-family="Arial, sans-serif" font-size="12">Detaljerte rapporter</text><circle cx="355" cy="260" r="8" fill="#fff"/><text x="375" y="267" fill="#fff" font-family="Arial, sans-serif" font-size="12">Høyere volum</text><rect width="210" height="60" x="345" y="290" fill="#c0392b" rx="8"/><text x="450" y="315" fill="#fff" font-family="Arial, sans-serif" font-size="14" font-weight="bold" text-anchor="middle">Prising</text><text x="450" y="335" fill="#fff" font-family="Arial, sans-serif" font-size="12" text-anchor="middle">2-5 kr per transaksjon</text><rect width="210" height="50" x="345" y="360" fill="#34495e" rx="8"/><text x="450" y="380" fill="#fff" font-family="Arial, sans-serif" font-size="12" font-weight="bold" text-anchor="middle">Egnet for:</text><text x="450" y="395" fill="#fff" font-family="Arial, sans-serif" font-size="11" text-anchor="middle">Store bedrifter, mange kunder</text><rect width="250" height="350" x="600" y="70" fill="#27ae60" stroke="#229954" stroke-width="3" rx="15"/><text x="725" y="105" fill="#fff" font-family="Arial, sans-serif" font-size="18" font-weight="bold" text-anchor="middle">BankGiro med Purring</text><circle cx="630" cy="140" r="8" fill="#fff"/><text x="650" y="147" fill="#fff" font-family="Arial, sans-serif" font-size="12">Automatisk purring</text><circle cx="630" cy="170" r="8" fill="#fff"/><text x="650" y="177" fill="#fff" font-family="Arial, sans-serif" font-size="12">Eskalering av gebyr</text><circle cx="630" cy="200" r="8" fill="#fff"/><text x="650" y="207" fill="#fff" font-family="Arial, sans-serif" font-size="12">Juridisk oppfølging</text><circle cx="630" cy="230" r="8" fill="#fff"/><text x="650" y="237" fill="#fff" font-family="Arial, sans-serif" font-size="12">Inkasso-integrasjon</text><circle cx="630" cy="260" r="8" fill="#fff"/><text x="650" y="267" fill="#fff" font-family="Arial, sans-serif" font-size="12">Avanserte rapporter</text><rect width="210" height="60" x="620" y="290" fill="#229954" rx="8"/><text x="725" y="315" fill="#fff" font-family="Arial, sans-serif" font-size="14" font-weight="bold" text-anchor="middle">Prising</text><text x="725" y="335" fill="#fff" font-family="Arial, sans-serif" font-size="12" text-anchor="middle">3-7 kr per transaksjon</text><rect width="210" height="50" x="620" y="360" fill="#34495e" rx="8"/><text x="725" y="380" fill="#fff" font-family="Arial, sans-serif" font-size="12" font-weight="bold" text-anchor="middle">Egnet for:</text><text x="725" y="395" fill="#fff" font-family="Arial, sans-serif" font-size="11" text-anchor="middle">Bedrifter med betalingsproblemer</text><defs><marker id="a" markerHeight="7" markerWidth="10" orient="auto" refX="9" refY="3.5"><path fill="#34495e" d="m0 0 10 3.5L0 7z"/></marker></defs><path stroke="#34495e" stroke-width="2" marker-end="url(#a)" d="M300 245h25"/><text x="312" y="235" fill="#34495e" font-family="Arial, sans-serif" font-size="10" text-anchor="middle">Oppgradering</text><path stroke="#34495e" stroke-width="2" marker-end="url(#a)" d="M575 245h25"/><text x="587" y="235" fill="#34495e" font-family="Arial, sans-serif" font-size="10" text-anchor="middle">Utvidelse</text><rect width="800" height="50" x="50" y="440" fill="#ecf0f1" stroke="#bdc3c7" stroke-width="2" rx="10"/><text x="450" y="460" fill="#2c3e50" font-family="Arial, sans-serif" font-size="14" font-weight="bold" text-anchor="middle">Velg tjeneste basert på volum, kompleksitet og behov for automatisering</text><text x="450" y="480" fill="#34495e" font-family="Arial, sans-serif" font-size="12" text-anchor="middle">Alle tjenester inkluderer automatisk avstemming og OCR-nummer funksjonalitet</text></svg>