<svg xmlns="http://www.w3.org/2000/svg" width="800" height="600"><defs><linearGradient id="a" x1="0%" x2="100%" y1="0%" y2="100%"><stop offset="0%" style="stop-color:#f8f9fa;stop-opacity:1"/><stop offset="100%" style="stop-color:#e9ecef;stop-opacity:1"/></linearGradient><marker id="c" markerHeight="7" markerWidth="10" orient="auto" refX="9" refY="3.5"><path fill="#666" d="m0 0 10 3.5L0 7z"/></marker><filter id="b" width="140%" height="140%" x="-20%" y="-20%"><feDropShadow dx="2" dy="2" flood-color="#00000020" stdDeviation="3"/></filter></defs><path fill="url(#a)" d="M0 0h800v600H0z"/><text x="400" y="40" fill="#333" font-family="Arial, sans-serif" font-size="24" font-weight="bold" text-anchor="middle">
    Kredittgivning og Betalingsbetingelser
  </text><text x="400" y="80" fill="#666" font-family="Arial, sans-serif" font-size="18" font-weight="bold" text-anchor="middle">
    Kredittgivningsprosess
  </text><g transform="translate(50 100)"><rect width="140" height="100" fill="#06c" filter="url(#b)" rx="10"/><rect width="100" height="60" x="20" y="20" fill="#fff" rx="5"/><rect width="80" height="8" x="30" y="30" fill="#06c" rx="2"/><rect width="60" height="8" x="30" y="45" fill="#06c" rx="2"/><rect width="70" height="8" x="30" y="60" fill="#06c" rx="2"/><text x="70" y="110" fill="#333" font-family="Arial, sans-serif" font-size="12" font-weight="bold" text-anchor="middle">
      FINANSANALYSE
    </text><text x="70" y="125" fill="#666" font-family="Arial, sans-serif" font-size="10" text-anchor="middle">
      Egenkapital
    </text><text x="70" y="138" fill="#666" font-family="Arial, sans-serif" font-size="10" text-anchor="middle">
      Omsetning
    </text><text x="70" y="151" fill="#666" font-family="Arial, sans-serif" font-size="10" text-anchor="middle">
      Lønnsomhet
    </text></g><path fill="none" stroke="#666" stroke-width="2" marker-end="url(#c)" d="M190 150h40"/><g transform="translate(250 100)"><rect width="140" height="100" fill="#28a745" filter="url(#b)" rx="10"/><circle cx="70" cy="50" r="25" fill="#fff"/><path fill="none" stroke="#28a745" stroke-width="4" d="m55 45 10 10 20-20"/><text x="70" y="110" fill="#333" font-family="Arial, sans-serif" font-size="12" font-weight="bold" text-anchor="middle">
      BETALINGSHISTORIKK
    </text><text x="70" y="125" fill="#666" font-family="Arial, sans-serif" font-size="10" text-anchor="middle">
      Tidligere
    </text><text x="70" y="138" fill="#666" font-family="Arial, sans-serif" font-size="10" text-anchor="middle">
      betalingsmønster
    </text><text x="70" y="151" fill="#666" font-family="Arial, sans-serif" font-size="10" text-anchor="middle">
      og pålitelighet
    </text></g><path fill="none" stroke="#666" stroke-width="2" marker-end="url(#c)" d="M390 150h40"/><g transform="translate(450 100)"><rect width="140" height="100" fill="#ffc107" filter="url(#b)" rx="10"/><path fill="#fff" d="m70 25 15 25-15 25-15-25z"/><text x="70" y="54" fill="#ffc107" font-family="Arial, sans-serif" font-size="12" font-weight="bold" text-anchor="middle">
      !
    </text><text x="70" y="110" fill="#333" font-family="Arial, sans-serif" font-size="12" font-weight="bold" text-anchor="middle">
      RISIKOVURDERING
    </text><text x="70" y="125" fill="#666" font-family="Arial, sans-serif" font-size="10" text-anchor="middle">
      Bransjerisiko
    </text><text x="70" y="138" fill="#666" font-family="Arial, sans-serif" font-size="10" text-anchor="middle">
      Konjunktur
    </text><text x="70" y="151" fill="#666" font-family="Arial, sans-serif" font-size="10" text-anchor="middle">
      Sikkerhet
    </text></g><path fill="none" stroke="#666" stroke-width="2" marker-end="url(#c)" d="M590 150h40"/><g transform="translate(650 100)"><rect width="140" height="100" fill="#dc3545" filter="url(#b)" rx="10"/><rect width="80" height="40" x="30" y="30" fill="#fff" rx="5"/><text x="70" y="45" fill="#dc3545" font-family="Arial, sans-serif" font-size="10" font-weight="bold" text-anchor="middle">
      KREDITTGRENSE
    </text><text x="70" y="60" fill="#dc3545" font-family="Arial, sans-serif" font-size="14" font-weight="bold" text-anchor="middle">
      500.000
    </text><text x="70" y="110" fill="#333" font-family="Arial, sans-serif" font-size="12" font-weight="bold" text-anchor="middle">
      KREDITTBESLUTNING
    </text><text x="70" y="125" fill="#666" font-family="Arial, sans-serif" font-size="10" text-anchor="middle">
      Fastsett
    </text><text x="70" y="138" fill="#666" font-family="Arial, sans-serif" font-size="10" text-anchor="middle">
      kredittgrense
    </text><text x="70" y="151" fill="#666" font-family="Arial, sans-serif" font-size="10" text-anchor="middle">
      og betingelser
    </text></g><text x="400" y="280" fill="#666" font-family="Arial, sans-serif" font-size="18" font-weight="bold" text-anchor="middle">
    Vanlige Betalingsbetingelser
  </text><g transform="translate(50 300)"><rect width="700" height="250" fill="#fff" stroke="#ddd" filter="url(#b)" rx="10"/><rect width="700" height="40" fill="#f8f9fa" rx="10"/><path fill="#f8f9fa" d="M0 30h700v10H0z"/><path stroke="#ddd" d="M200 0v250M450 0v250"/><text x="100" y="25" fill="#333" font-family="Arial, sans-serif" font-size="14" font-weight="bold" text-anchor="middle">
      Betalingsbetingelse
    </text><text x="325" y="25" fill="#333" font-family="Arial, sans-serif" font-size="14" font-weight="bold" text-anchor="middle">
      Beskrivelse
    </text><text x="575" y="25" fill="#333" font-family="Arial, sans-serif" font-size="14" font-weight="bold" text-anchor="middle">
      Typisk Bruk
    </text><path stroke="#ddd" d="M0 80h700"/><text x="100" y="60" fill="#06c" font-family="Arial, sans-serif" font-size="12" font-weight="bold" text-anchor="middle">
      Netto 30 dager
    </text><text x="325" y="60" fill="#666" font-family="Arial, sans-serif" font-size="11" text-anchor="middle">
      Betaling innen 30 dager fra fakturadato
    </text><text x="575" y="60" fill="#666" font-family="Arial, sans-serif" font-size="11" text-anchor="middle">
      Standard B2B-handel
    </text><path stroke="#ddd" d="M0 120h700"/><text x="100" y="100" fill="#28a745" font-family="Arial, sans-serif" font-size="12" font-weight="bold" text-anchor="middle">
      Netto 14 dager
    </text><text x="325" y="100" fill="#666" font-family="Arial, sans-serif" font-size="11" text-anchor="middle">
      Betaling innen 14 dager
    </text><text x="575" y="100" fill="#666" font-family="Arial, sans-serif" font-size="11" text-anchor="middle">
      Mindre bedrifter, høyere risiko
    </text><path stroke="#ddd" d="M0 160h700"/><text x="100" y="140" fill="#ffc107" font-family="Arial, sans-serif" font-size="12" font-weight="bold" text-anchor="middle">
      2/10 netto 30
    </text><text x="325" y="140" fill="#666" font-family="Arial, sans-serif" font-size="11" text-anchor="middle">
      2% rabatt ved betaling innen 10 dager, ellers 30 dager
    </text><text x="575" y="140" fill="#666" font-family="Arial, sans-serif" font-size="11" text-anchor="middle">
      Incentiv for rask betaling
    </text><path stroke="#ddd" d="M0 200h700"/><text x="100" y="180" fill="#dc3545" font-family="Arial, sans-serif" font-size="12" font-weight="bold" text-anchor="middle">
      Forskudd
    </text><text x="325" y="180" fill="#666" font-family="Arial, sans-serif" font-size="11" text-anchor="middle">
      Betaling før levering
    </text><text x="575" y="180" fill="#666" font-family="Arial, sans-serif" font-size="11" text-anchor="middle">
      Nye kunder, høyrisiko-transaksjoner
    </text><text x="100" y="220" fill="#6f42c1" font-family="Arial, sans-serif" font-size="12" font-weight="bold" text-anchor="middle">
      A-konto betaling
    </text><text x="325" y="220" fill="#666" font-family="Arial, sans-serif" font-size="11" text-anchor="middle">
      Delvis forskuddsbetaling
    </text><text x="575" y="220" fill="#666" font-family="Arial, sans-serif" font-size="11" text-anchor="middle">
      Store prosjekter, løpende tjenester
    </text></g></svg>