<svg width="800" height="500" xmlns="http://www.w3.org/2000/svg">
  <defs>
    <linearGradient id="bgGradient" x1="0%" y1="0%" x2="100%" y2="100%">
      <stop offset="0%" style="stop-color:#f8f9fa;stop-opacity:1" />
      <stop offset="100%" style="stop-color:#e9ecef;stop-opacity:1" />
    </linearGradient>
    <filter id="shadow" x="-20%" y="-20%" width="140%" height="140%">
      <feDropShadow dx="2" dy="2" stdDeviation="3" flood-color="#00000020"/>
    </filter>
    <marker id="arrowhead" markerWidth="8" markerHeight="6" refX="7" refY="3" orient="auto">
      <polygon points="0 0, 8 3, 0 6" fill="#666"/>
    </marker>
  </defs>
  
  <!-- Background -->
  <rect width="800" height="500" fill="url(#bgGradient)"/>
  
  <!-- Title -->
  <text x="400" y="40" font-family="Arial, sans-serif" font-size="24" font-weight="bold" text-anchor="middle" fill="#333">
    Digital Kundehåndtering
  </text>
  
  <!-- CRM System -->
  <g transform="translate(50, 80)">
    <rect x="0" y="0" width="180" height="120" fill="#0066cc" rx="10" filter="url(#shadow)"/>
    <rect x="20" y="20" width="140" height="80" fill="white" rx="5"/>
    <rect x="30" y="30" width="120" height="8" fill="#0066cc" rx="2"/>
    <rect x="30" y="45" width="80" height="8" fill="#0066cc" rx="2"/>
    <rect x="30" y="60" width="100" height="8" fill="#0066cc" rx="2"/>
    <rect x="30" y="75" width="60" height="8" fill="#0066cc" rx="2"/>
    <text x="90" y="125" font-family="Arial, sans-serif" font-size="14" font-weight="bold" text-anchor="middle" fill="#333">
      CRM-SYSTEM
    </text>
    <text x="90" y="140" font-family="Arial, sans-serif" font-size="10" text-anchor="middle" fill="#666">
      Customer Relationship
    </text>
    <text x="90" y="153" font-family="Arial, sans-serif" font-size="10" text-anchor="middle" fill="#666">
      Management
    </text>
  </g>
  
  <!-- Integration Arrows -->
  <path d="M 230 140 L 270 140" stroke="#666" stroke-width="2" fill="none" marker-end="url(#arrowhead)"/>
  <path d="M 270 140 L 230 140" stroke="#666" stroke-width="2" fill="none" marker-end="url(#arrowhead2)"/>
  <defs>
    <marker id="arrowhead2" markerWidth="8" markerHeight="6" refX="7" refY="3" orient="auto">
      <polygon points="0 0, 8 3, 0 6" fill="#666"/>
    </marker>
  </defs>
  
  <!-- Accounting System -->
  <g transform="translate(290, 80)">
    <rect x="0" y="0" width="180" height="120" fill="#28a745" rx="10" filter="url(#shadow)"/>
    <rect x="20" y="20" width="140" height="80" fill="white" rx="5"/>
    <circle cx="90" cy="60" r="25" fill="#28a745"/>
    <text x="90" y="55" font-family="Arial, sans-serif" font-size="12" font-weight="bold" text-anchor="middle" fill="white">
      REGN-
    </text>
    <text x="90" y="68" font-family="Arial, sans-serif" font-size="12" font-weight="bold" text-anchor="middle" fill="white">
      SKAP
    </text>
    <text x="90" y="125" font-family="Arial, sans-serif" font-size="14" font-weight="bold" text-anchor="middle" fill="#333">
      REGNSKAPSSYSTEM
    </text>
    <text x="90" y="140" font-family="Arial, sans-serif" font-size="10" text-anchor="middle" fill="#666">
      Automatisk synkronisering
    </text>
    <text x="90" y="153" font-family="Arial, sans-serif" font-size="10" text-anchor="middle" fill="#666">
      av kundeinformasjon
    </text>
  </g>
  
  <!-- Integration Arrow -->
  <path d="M 470 140 L 510 140" stroke="#666" stroke-width="2" fill="none" marker-end="url(#arrowhead)"/>
  
  <!-- Invoice System -->
  <g transform="translate(530, 80)">
    <rect x="0" y="0" width="180" height="120" fill="#ffc107" rx="10" filter="url(#shadow)"/>
    <rect x="20" y="20" width="140" height="80" fill="white" rx="5"/>
    <rect x="40" y="35" width="100" height="50" fill="#ffc107" rx="3"/>
    <rect x="50" y="45" width="80" height="6" fill="white" rx="2"/>
    <rect x="50" y="55" width="60" height="6" fill="white" rx="2"/>
    <rect x="50" y="65" width="70" height="6" fill="white" rx="2"/>
    <text x="90" y="125" font-family="Arial, sans-serif" font-size="14" font-weight="bold" text-anchor="middle" fill="#333">
      FAKTURERINGSSYSTEM
    </text>
    <text x="90" y="140" font-family="Arial, sans-serif" font-size="10" text-anchor="middle" fill="#666">
      Automatisk generering
    </text>
    <text x="90" y="153" font-family="Arial, sans-serif" font-size="10" text-anchor="middle" fill="#666">
      og utsending
    </text>
  </g>
  
  <!-- Automation Features -->
  <text x="400" y="250" font-family="Arial, sans-serif" font-size="18" font-weight="bold" text-anchor="middle" fill="#666">
    Automatiserte Funksjoner
  </text>
  
  <!-- Automated Invoice Processing -->
  <g transform="translate(50, 270)">
    <rect x="0" y="0" width="160" height="100" fill="#17a2b8" rx="10" filter="url(#shadow)"/>
    <rect x="20" y="20" width="120" height="60" fill="white" rx="5"/>
    <circle cx="80" cy="50" r="20" fill="#17a2b8"/>
    <text x="80" y="45" font-family="Arial, sans-serif" font-size="10" font-weight="bold" text-anchor="middle" fill="white">
      AUTO
    </text>
    <text x="80" y="57" font-family="Arial, sans-serif" font-size="10" font-weight="bold" text-anchor="middle" fill="white">
      FAKTURA
    </text>
    <text x="80" y="95" font-family="Arial, sans-serif" font-size="12" font-weight="bold" text-anchor="middle" fill="#333">
      ELEKTRONISK
    </text>
    <text x="80" y="110" font-family="Arial, sans-serif" font-size="12" font-weight="bold" text-anchor="middle" fill="#333">
      FAKTURERING
    </text>
    <text x="80" y="125" font-family="Arial, sans-serif" font-size="9" text-anchor="middle" fill="#666">
      eFaktura &amp; EHF
    </text>
  </g>
  
  <!-- Automated Reminders -->
  <g transform="translate(230, 270)">
    <rect x="0" y="0" width="160" height="100" fill="#fd7e14" rx="10" filter="url(#shadow)"/>
    <rect x="20" y="20" width="120" height="60" fill="white" rx="5"/>
    <polygon points="80,35 95,50 80,65 65,50" fill="#fd7e14"/>
    <text x="80" y="54" font-family="Arial, sans-serif" font-size="12" font-weight="bold" text-anchor="middle" fill="white">
      !
    </text>
    <text x="80" y="95" font-family="Arial, sans-serif" font-size="12" font-weight="bold" text-anchor="middle" fill="#333">
      AUTOMATISKE
    </text>
    <text x="80" y="110" font-family="Arial, sans-serif" font-size="12" font-weight="bold" text-anchor="middle" fill="#333">
      PÅMINNELSER
    </text>
    <text x="80" y="125" font-family="Arial, sans-serif" font-size="9" text-anchor="middle" fill="#666">
      Purringer ved forfall
    </text>
  </g>
  
  <!-- Payment Integration -->
  <g transform="translate(410, 270)">
    <rect x="0" y="0" width="160" height="100" fill="#28a745" rx="10" filter="url(#shadow)"/>
    <rect x="20" y="20" width="120" height="60" fill="white" rx="5"/>
    <circle cx="80" cy="50" r="20" fill="#28a745"/>
    <text x="80" y="45" font-family="Arial, sans-serif" font-size="12" font-weight="bold" text-anchor="middle" fill="white">
      NOK
    </text>
    <text x="80" y="57" font-family="Arial, sans-serif" font-size="8" text-anchor="middle" fill="white">
      BETALING
    </text>
    <text x="80" y="95" font-family="Arial, sans-serif" font-size="12" font-weight="bold" text-anchor="middle" fill="#333">
      BETALINGS-
    </text>
    <text x="80" y="110" font-family="Arial, sans-serif" font-size="12" font-weight="bold" text-anchor="middle" fill="#333">
      INTEGRASJON
    </text>
    <text x="80" y="125" font-family="Arial, sans-serif" font-size="9" text-anchor="middle" fill="#666">
      Automatisk avstemming
    </text>
  </g>
  
  <!-- AI and Analytics -->
  <g transform="translate(590, 270)">
    <rect x="0" y="0" width="160" height="100" fill="#6f42c1" rx="10" filter="url(#shadow)"/>
    <rect x="20" y="20" width="120" height="60" fill="white" rx="5"/>
    <circle cx="80" cy="50" r="20" fill="#6f42c1"/>
    <text x="80" y="45" font-family="Arial, sans-serif" font-size="12" font-weight="bold" text-anchor="middle" fill="white">
      AI
    </text>
    <text x="80" y="57" font-family="Arial, sans-serif" font-size="8" text-anchor="middle" fill="white">
      ANALYSE
    </text>
    <text x="80" y="95" font-family="Arial, sans-serif" font-size="12" font-weight="bold" text-anchor="middle" fill="#333">
      KUNSTIG
    </text>
    <text x="80" y="110" font-family="Arial, sans-serif" font-size="12" font-weight="bold" text-anchor="middle" fill="#333">
      INTELLIGENS
    </text>
    <text x="80" y="125" font-family="Arial, sans-serif" font-size="9" text-anchor="middle" fill="#666">
      Kredittscoring &amp; prediksjon
    </text>
  </g>
  
  <!-- Benefits Section -->
  <text x="400" y="420" font-family="Arial, sans-serif" font-size="16" font-weight="bold" text-anchor="middle" fill="#666">
    Fordeler med Digital Kundehåndtering
  </text>
  
  <!-- Benefits -->
  <text x="100" y="445" font-family="Arial, sans-serif" font-size="12" text-anchor="start" fill="#333">
    • 80-90% reduksjon i behandlingstid
  </text>
  <text x="100" y="460" font-family="Arial, sans-serif" font-size="12" text-anchor="start" fill="#333">
    • Minimerer menneskelige feil
  </text>
  <text x="100" y="475" font-family="Arial, sans-serif" font-size="12" text-anchor="start" fill="#333">
    • Bedre kundeopplevelse
  </text>
  
  <text x="450" y="445" font-family="Arial, sans-serif" font-size="12" text-anchor="start" fill="#333">
    • Sanntids rapportering og analyse
  </text>
  <text x="450" y="460" font-family="Arial, sans-serif" font-size="12" text-anchor="start" fill="#333">
    • Forbedret kontantstrøm
  </text>
  <text x="450" y="475" font-family="Arial, sans-serif" font-size="12" text-anchor="start" fill="#333">
    • Skalerbar løsning
  </text>
</svg>