<svg xmlns="http://www.w3.org/2000/svg" width="800" height="400"><defs><linearGradient id="a" x1="0%" x2="100%" y1="0%" y2="100%"><stop offset="0%" style="stop-color:#f8f9fa;stop-opacity:1"/><stop offset="100%" style="stop-color:#e9ecef;stop-opacity:1"/></linearGradient><linearGradient id="b" x1="0%" x2="100%" y1="0%" y2="0%"><stop offset="0%" style="stop-color:#06c;stop-opacity:1"/><stop offset="100%" style="stop-color:#049;stop-opacity:1"/></linearGradient></defs><path fill="url(#a)" d="M0 0h800v400H0z"/><path fill="url(#b)" d="M0 0h800v80H0z"/><text x="400" y="50" fill="#fff" font-family="Arial, sans-serif" font-size="32" font-weight="bold" text-anchor="middle">
    Hva er en kunde?
  </text><circle cx="200" cy="180" r="40" fill="#06c" opacity=".8"/><circle cx="200" cy="165" r="15" fill="#fff"/><path fill="#fff" d="M175 195q25-10 50 0v15h-50Z"/><path fill="none" stroke="#666" stroke-width="3" marker-end="url(#c)" d="M260 180h60"/><defs><marker id="c" markerHeight="7" markerWidth="10" orient="auto" refX="9" refY="3.5"><path fill="#666" d="m0 0 10 3.5L0 7z"/></marker></defs><rect width="120" height="80" x="340" y="140" fill="#28a745" opacity=".8" rx="5"/><text x="400" y="165" fill="#fff" font-family="Arial, sans-serif" font-size="14" font-weight="bold" text-anchor="middle">
    REGNSKAP
  </text><text x="400" y="185" fill="#fff" font-family="Arial, sans-serif" font-size="12" text-anchor="middle">
    Inntekter
  </text><text x="400" y="200" fill="#fff" font-family="Arial, sans-serif" font-size="12" text-anchor="middle">
    Debitor
  </text><text x="400" y="215" fill="#fff" font-family="Arial, sans-serif" font-size="12" text-anchor="middle">
    Kontantstrøm
  </text><path fill="none" stroke="#666" stroke-width="3" marker-end="url(#d)" d="M480 180h60"/><defs><marker id="d" markerHeight="7" markerWidth="10" orient="auto" refX="9" refY="3.5"><path fill="#666" d="m0 0 10 3.5L0 7z"/></marker></defs><path fill="none" stroke="#28a745" stroke-width="3" d="m560 200 20-40 20 40 20-60 20 60z"/><circle cx="600" cy="180" r="30" fill="#28a745" opacity=".2"/><text x="600" y="185" fill="#28a745" font-family="Arial, sans-serif" font-size="12" font-weight="bold" text-anchor="middle">
    VEKST
  </text><rect width="700" height="100" x="50" y="280" fill="#fff" stroke="#ddd" opacity=".9" rx="10"/><text x="400" y="305" fill="#333" font-family="Arial, sans-serif" font-size="18" font-weight="bold" text-anchor="middle">
    Kundens rolle i regnskapet
  </text><text x="120" y="330" fill="#666" font-family="Arial, sans-serif" font-size="14">
    • Inntektsgenerering
  </text><text x="120" y="350" fill="#666" font-family="Arial, sans-serif" font-size="14">
    • Debitorhåndtering
  </text><text x="120" y="370" fill="#666" font-family="Arial, sans-serif" font-size="14">
    • Kontantstrømstyring
  </text><text x="450" y="330" fill="#666" font-family="Arial, sans-serif" font-size="14">
    • Kredittrisiko
  </text><text x="450" y="350" fill="#666" font-family="Arial, sans-serif" font-size="14">
    • Kundelønnsomhet
  </text><text x="450" y="370" fill="#666" font-family="Arial, sans-serif" font-size="14">
    • Digitalisering
  </text></svg>