<svg xmlns="http://www.w3.org/2000/svg" width="800" height="500" viewBox="0 0 800 500"><defs><style>.body-text,.header-text,.small-text{font-family:&quot;Segoe UI&quot;,Tahoma,Geneva,Verdana,sans-serif;text-anchor:middle}.header-text{font-size:16px;font-weight:700;fill:#34495e}.body-text,.small-text{font-size:14px;fill:#2c3e50}.small-text{font-size:12px;fill:#7f8c8d}.box-fill{fill:#ecf0f1;stroke:#34495e;stroke-width:2}.highlight-box{fill:#3498db;stroke:#2980b9;stroke-width:2}.success-box,.warning-box{fill:#e74c3c;stroke:#c0392b;stroke-width:2}.success-box{fill:#27ae60;stroke:#2ecc71}.white-text{fill:#fff}</style></defs><path fill="#fff" d="M0 0h800v500H0z"/><text x="400" y="30" style="font-family:&quot;Segoe UI&quot;,Tahoma,Geneva,Verdana,sans-serif;font-size:24px;font-weight:700;fill:#2c3e50;text-anchor:middle">Juridiske Rammer for Ansvarlig Selskap</text><g transform="translate(50 70)"><rect width="200" height="100" class="highlight-box" rx="5"/><text x="100" y="30" class="header-text white-text">Selskapslovgivning</text><text x="100" y="50" class="body-text white-text">Regulerer</text><text x="100" y="70" class="body-text white-text">selskapsformen</text><text x="100" y="85" class="body-text white-text">ANS</text><rect width="200" height="100" x="250" class="success-box" rx="5"/><text x="350" y="30" class="header-text white-text">Bokføringsloven</text><text x="350" y="50" class="body-text white-text">Krav til</text><text x="350" y="70" class="body-text white-text">regnskapsføring</text><text x="350" y="85" class="body-text white-text">og dokumentasjon</text><rect width="200" height="100" x="500" class="box-fill" rx="5"/><text x="600" y="30" class="header-text">Skatteloven</text><text x="600" y="50" class="body-text">Gjennomslagsskatt</text><text x="600" y="70" class="body-text">Beskatning hos</text><text x="600" y="85" class="body-text">deltakerne</text><path stroke="#34495e" stroke-width="2" marker-end="url(#arrowhead)" d="M200 50h40"/><path stroke="#34495e" stroke-width="2" marker-end="url(#arrowhead)" d="M450 50h40"/><g transform="translate(0 140)"><text x="350" class="header-text">Kjennetegn ved ANS</text><rect width="160" height="80" y="20" class="box-fill" rx="5"/><text x="80" y="40" class="body-text">Juridisk person</text><text x="80" y="55" class="small-text">Egen identitet</text><text x="80" y="70" class="small-text">Kan inngå avtaler</text><text x="80" y="85" class="small-text">Eget organisasjonsnr</text><rect width="160" height="80" x="180" y="20" class="warning-box" rx="5"/><text x="260" y="40" class="body-text white-text">Personlig ansvar</text><text x="260" y="55" class="small-text white-text">Ubegrenset</text><text x="260" y="70" class="small-text white-text">Solidarisk</text><text x="260" y="85" class="small-text white-text">Privat formue</text><rect width="160" height="80" x="360" y="20" class="warning-box" rx="5"/><text x="440" y="40" class="body-text white-text">Solidarisk ansvar</text><text x="440" y="55" class="small-text white-text">Hver for seg</text><text x="440" y="70" class="small-text white-text">Alle sammen</text><text x="440" y="85" class="small-text white-text">For hele gjelden</text><rect width="160" height="80" x="540" y="20" class="success-box" rx="5"/><text x="620" y="40" class="body-text white-text">Gjennomslagsskatt</text><text x="620" y="55" class="small-text white-text">Ingen selskapsskatt</text><text x="620" y="70" class="small-text white-text">Beskatning hos</text><text x="620" y="85" class="small-text white-text">deltakerne</text></g><g transform="translate(0 250)"><text x="350" class="header-text">Lovpålagte Krav</text><rect width="140" height="60" x="50" y="20" class="highlight-box" rx="5"/><text x="120" y="40" class="body-text white-text">Selskapsavtale</text><text x="120" y="55" class="small-text white-text">Skriftlig avtale</text><text x="120" y="70" class="small-text white-text">Mellom deltakerne</text><rect width="140" height="60" x="210" y="20" class="box-fill" rx="5"/><text x="280" y="40" class="body-text">Registrering</text><text x="280" y="55" class="small-text">Enhetsregisteret</text><text x="280" y="70" class="small-text">Hvis omsetning &gt; 50k</text><rect width="140" height="60" x="370" y="20" class="success-box" rx="5"/><text x="440" y="40" class="body-text white-text">Regnskapsføring</text><text x="440" y="55" class="small-text white-text">Bokføringspliktig</text><text x="440" y="70" class="small-text white-text">Årsregnskap</text><rect width="140" height="60" x="530" y="20" class="box-fill" rx="5"/><text x="600" y="40" class="body-text">MVA-registrering</text><text x="600" y="55" class="small-text">Ved omsetning</text><text x="600" y="70" class="small-text"> &gt; 50 000 kr</text></g></g><defs><marker id="arrowhead" markerHeight="7" markerWidth="10" orient="auto" refX="9" refY="3.5"><path fill="#34495e" d="m0 0 10 3.5L0 7z"/></marker></defs></svg>