<svg xmlns="http://www.w3.org/2000/svg" width="800" height="500" viewBox="0 0 800 500"><defs><style>.body-text,.header-text,.small-text{font-family:&quot;Segoe UI&quot;,Tahoma,Geneva,Verdana,sans-serif;text-anchor:middle}.header-text{font-size:16px;font-weight:700;fill:#34495e}.body-text,.small-text{font-size:14px;fill:#2c3e50}.small-text{font-size:12px;fill:#7f8c8d}.warning-box{fill:#e74c3c;stroke:#c0392b;stroke-width:2}.info-box,.success-box{fill:#27ae60;stroke:#2ecc71;stroke-width:2}.info-box{fill:#f39c12;stroke:#d68910}.white-text{fill:#fff}</style></defs><path fill="#fff" d="M0 0h800v500H0z"/><text x="400" y="30" style="font-family:&quot;Segoe UI&quot;,Tahoma,Geneva,Verdana,sans-serif;font-size:24px;font-weight:700;fill:#2c3e50;text-anchor:middle">Uttak og Utbytte i Ansvarlig Selskap</text><g transform="translate(50 70)"><text x="350" class="header-text">Typer Uttak fra ANS</text><rect width="170" height="120" y="20" class="success-box" rx="5"/><text x="85" y="40" class="body-text white-text">Lønn</text><text x="85" y="60" class="small-text white-text">Arbeidsgiveravgift</text><text x="85" y="75" class="small-text white-text">Feriepenger</text><text x="85" y="90" class="small-text white-text">Skatt og trekk</text><text x="85" y="105" class="small-text white-text">Pensjon</text><text x="85" y="120" class="small-text white-text">Kostnad for ANS</text><rect width="170" height="120" x="190" y="20" class="info-box" rx="5"/><text x="275" y="40" class="body-text white-text">Kapitaluttak</text><text x="275" y="60" class="small-text white-text">Reduksjon av</text><text x="275" y="75" class="small-text white-text">egenkapital</text><text x="275" y="90" class="small-text white-text">Ingen skatt</text><text x="275" y="105" class="small-text white-text">ved uttak</text><text x="275" y="120" class="small-text white-text">Beskattes senere</text><rect width="170" height="120" x="380" y="20" class="warning-box" rx="5"/><text x="465" y="40" class="body-text white-text">Resultatuttak</text><text x="465" y="60" class="small-text white-text">Andel av</text><text x="465" y="75" class="small-text white-text">årsoverskudd</text><text x="465" y="90" class="small-text white-text">Beskattes som</text><text x="465" y="105" class="small-text white-text">næringsinntekt</text><text x="465" y="120" class="small-text white-text">Gjennomslagsskatt</text><rect width="130" height="120" x="570" y="20" rx="5" style="fill:#ecf0f1;stroke:#34495e;stroke-width:2"/><text x="635" y="40" class="body-text">Forskudd</text><text x="635" y="60" class="small-text">Lån til</text><text x="635" y="75" class="small-text">deltaker</text><text x="635" y="90" class="small-text">Må tilbakebetales</text><text x="635" y="105" class="small-text">Renter på</text><text x="635" y="120" class="small-text">markedsvilkår</text></g><g transform="translate(50 240)"><text x="350" class="header-text">Regnskapsmessig Behandling</text><rect width="340" height="100" y="20" rx="5" style="fill:#3498db;stroke:#2980b9;stroke-width:2"/><text x="170" y="40" class="body-text white-text">Lønnsutbetaling</text><text x="170" y="60" class="small-text white-text">Dr. Lønnskostnad           100 000</text><text x="170" y="75" class="small-text white-text">Dr. Arbeidsgiveravgift      14 100</text><text x="170" y="90" class="small-text white-text">    Kr. Bankinnskudd              82 000</text><text x="170" y="105" class="small-text white-text">    Kr. Skyldige skatter          32 100</text><rect width="340" height="100" x="360" y="20" class="info-box" rx="5"/><text x="530" y="40" class="body-text white-text">Kapitaluttak</text><text x="530" y="60" class="small-text white-text">Dr. Egenkapital - Deltaker    50 000</text><text x="530" y="75" class="small-text white-text">    Kr. Bankinnskudd               50 000</text><text x="530" y="90" class="small-text white-text">(Reduserer deltakers andel)</text><text x="530" y="105" class="small-text white-text">(Ingen umiddelbar skatt)</text></g><g transform="translate(50 370)"><text x="350" class="header-text">Skattemessige Konsekvenser</text><rect width="200" height="100" x="50" y="20" class="success-box" rx="5"/><text x="150" y="40" class="body-text white-text">For Selskapet</text><text x="150" y="60" class="small-text white-text">Lønn er kostnad</text><text x="150" y="75" class="small-text white-text">Kapitaluttak er ikke</text><text x="150" y="90" class="small-text white-text">kostnad</text><text x="150" y="105" class="small-text white-text">Resultat beskattes</text><text x="150" y="120" class="small-text white-text">hos deltakerne</text><rect width="200" height="100" x="270" y="20" class="warning-box" rx="5"/><text x="370" y="40" class="body-text white-text">For Deltakerne</text><text x="370" y="60" class="small-text white-text">Lønn: Personinntekt</text><text x="370" y="75" class="small-text white-text">Resultat: Næringsinntekt</text><text x="370" y="90" class="small-text white-text">Kapitaluttak: Ikke skatt</text><text x="370" y="105" class="small-text white-text">før realisasjon</text><text x="370" y="120" class="small-text white-text">av eierandel</text><rect width="200" height="100" x="490" y="20" class="info-box" rx="5"/><text x="590" y="40" class="body-text white-text">Rapportering</text><text x="590" y="60" class="small-text white-text">Selvangivelse</text><text x="590" y="75" class="small-text white-text">Næringsspesifikasjon</text><text x="590" y="90" class="small-text white-text">A-melding for lønn</text><text x="590" y="105" class="small-text white-text">Terminoppgave</text><text x="590" y="120" class="small-text white-text">MVA-melding</text></g></svg>