<svg xmlns="http://www.w3.org/2000/svg" width="800" height="500"><defs><linearGradient id="a" x1="0%" x2="100%" y1="0%" y2="100%"><stop offset="0%" style="stop-color:#f8f9fa;stop-opacity:1"/><stop offset="100%" style="stop-color:#e9ecef;stop-opacity:1"/></linearGradient><linearGradient id="b" x1="0%" x2="100%" y1="0%" y2="100%"><stop offset="0%" style="stop-color:#e3f2fd;stop-opacity:1"/><stop offset="100%" style="stop-color:#bbdefb;stop-opacity:1"/></linearGradient></defs><path fill="url(#a)" d="M0 0h800v500H0z"/><text x="400" y="30" fill="#333" font-family="Arial, sans-serif" font-size="24" font-weight="bold" text-anchor="middle">
    Finansieringens Rolle i Bedriftsdrift
  </text><circle cx="400" cy="250" r="80" fill="url(#b)" stroke="#1976d2" stroke-width="3"/><text x="400" y="245" fill="#1976d2" font-family="Arial, sans-serif" font-size="16" font-weight="bold" text-anchor="middle">
    BEDRIFT
  </text><text x="400" y="265" fill="#1976d2" font-family="Arial, sans-serif" font-size="14" text-anchor="middle">
    Drift &amp; Vekst
  </text><rect width="150" height="100" x="50" y="80" fill="#fff3e0" stroke="#f57c00" stroke-width="2" rx="8"/><text x="125" y="105" fill="#f57c00" font-family="Arial, sans-serif" font-size="14" font-weight="bold" text-anchor="middle">
    OPPSTART
  </text><text x="125" y="125" fill="#333" font-family="Arial, sans-serif" font-size="12" text-anchor="middle">
    • Etablering
  </text><text x="125" y="140" fill="#333" font-family="Arial, sans-serif" font-size="12" text-anchor="middle">
    • Produktutvikling
  </text><text x="125" y="155" fill="#333" font-family="Arial, sans-serif" font-size="12" text-anchor="middle">
    • Markedsinntog
  </text><rect width="150" height="100" x="50" y="350" fill="#e8f5e8" stroke="#4caf50" stroke-width="2" rx="8"/><text x="125" y="375" fill="#4caf50" font-family="Arial, sans-serif" font-size="14" font-weight="bold" text-anchor="middle">
    DRIFT
  </text><text x="125" y="395" fill="#333" font-family="Arial, sans-serif" font-size="12" text-anchor="middle">
    • Arbeidskapital
  </text><text x="125" y="410" fill="#333" font-family="Arial, sans-serif" font-size="12" text-anchor="middle">
    • Løpende kostnader
  </text><text x="125" y="425" fill="#333" font-family="Arial, sans-serif" font-size="12" text-anchor="middle">
    • Sesongvariasjoner
  </text><rect width="150" height="100" x="600" y="80" fill="#f3e5f5" stroke="#9c27b0" stroke-width="2" rx="8"/><text x="675" y="105" fill="#9c27b0" font-family="Arial, sans-serif" font-size="14" font-weight="bold" text-anchor="middle">
    INVESTERINGER
  </text><text x="675" y="125" fill="#333" font-family="Arial, sans-serif" font-size="12" text-anchor="middle">
    • Anleggsmidler
  </text><text x="675" y="140" fill="#333" font-family="Arial, sans-serif" font-size="12" text-anchor="middle">
    • Teknologi
  </text><text x="675" y="155" fill="#333" font-family="Arial, sans-serif" font-size="12" text-anchor="middle">
    • Infrastruktur
  </text><rect width="150" height="100" x="600" y="350" fill="#fff8e1" stroke="#ffc107" stroke-width="2" rx="8"/><text x="675" y="375" fill="#ffc107" font-family="Arial, sans-serif" font-size="14" font-weight="bold" text-anchor="middle">
    EKSPANSJON
  </text><text x="675" y="395" fill="#333" font-family="Arial, sans-serif" font-size="12" text-anchor="middle">
    • Markedsutvidelse
  </text><text x="675" y="410" fill="#333" font-family="Arial, sans-serif" font-size="12" text-anchor="middle">
    • Nye produkter
  </text><text x="675" y="425" fill="#333" font-family="Arial, sans-serif" font-size="12" text-anchor="middle">
    • Internasjonalisering
  </text><path fill="none" stroke="#f57c00" stroke-width="3" marker-end="url(#c)" d="M200 130q100 50 120 90"/><path fill="none" stroke="#4caf50" stroke-width="3" marker-end="url(#c)" d="M200 400q100-80 120-120"/><path fill="none" stroke="#9c27b0" stroke-width="3" marker-end="url(#c)" d="M600 130q-100 50-120 90"/><path fill="none" stroke="#ffc107" stroke-width="3" marker-end="url(#c)" d="M600 400q-100-80-120-120"/><defs><marker id="c" markerHeight="7" markerWidth="10" orient="auto" refX="9" refY="3.5"><path fill="#666" d="m0 0 10 3.5L0 7z"/></marker></defs><rect width="300" height="30" x="250" y="460" fill="#e1f5fe" stroke="#0277bd" stroke-width="2" rx="15"/><text x="400" y="480" fill="#0277bd" font-family="Arial, sans-serif" font-size="14" font-weight="bold" text-anchor="middle">
    FINANSIERINGSKILDER
  </text><path fill="none" stroke="#0277bd" stroke-width="4" marker-end="url(#d)" d="M400 460V330"/><defs><marker id="d" markerHeight="8" markerWidth="12" orient="auto" refX="11" refY="4"><path fill="#0277bd" d="m0 0 12 4L0 8z"/></marker></defs></svg>