<svg xmlns="http://www.w3.org/2000/svg" width="800" height="500"><path fill="#f8f9fa" d="M0 0h800v500H0z"/><text x="400" y="40" fill="#2c3e50" font-family="Arial, sans-serif" font-size="24" font-weight="bold" text-anchor="middle">Konsernstruktur</text><rect width="200" height="80" x="300" y="80" fill="#3498db" stroke="#2980b9" stroke-width="2" rx="10"/><text x="400" y="110" fill="#fff" font-family="Arial, sans-serif" font-size="16" font-weight="bold" text-anchor="middle">MORSELSKAP</text><text x="400" y="130" fill="#fff" font-family="Arial, sans-serif" font-size="14" text-anchor="middle">Bestemmende innflytelse</text><text x="400" y="145" fill="#fff" font-family="Arial, sans-serif" font-size="12" text-anchor="middle">&gt; 50% eierskap</text><path stroke="#34495e" stroke-width="3" marker-end="url(#a)" d="m350 160-150 60"/><path stroke="#34495e" stroke-width="3" marker-end="url(#a)" d="M400 160v60"/><path stroke="#34495e" stroke-width="3" marker-end="url(#a)" d="m450 160 150 60"/><rect width="160" height="70" x="100" y="240" fill="#e74c3c" stroke="#c0392b" stroke-width="2" rx="8"/><text x="180" y="265" fill="#fff" font-family="Arial, sans-serif" font-size="14" font-weight="bold" text-anchor="middle">DATTERSELSKAP 1</text><text x="180" y="280" fill="#fff" font-family="Arial, sans-serif" font-size="12" text-anchor="middle">Produksjon</text><text x="180" y="295" fill="#fff" font-family="Arial, sans-serif" font-size="11" text-anchor="middle">100% eid</text><rect width="160" height="70" x="320" y="240" fill="#e74c3c" stroke="#c0392b" stroke-width="2" rx="8"/><text x="400" y="265" fill="#fff" font-family="Arial, sans-serif" font-size="14" font-weight="bold" text-anchor="middle">DATTERSELSKAP 2</text><text x="400" y="280" fill="#fff" font-family="Arial, sans-serif" font-size="12" text-anchor="middle">Salg &amp; Markedsføring</text><text x="400" y="295" fill="#fff" font-family="Arial, sans-serif" font-size="11" text-anchor="middle">80% eid</text><rect width="160" height="70" x="540" y="240" fill="#e74c3c" stroke="#c0392b" stroke-width="2" rx="8"/><text x="620" y="265" fill="#fff" font-family="Arial, sans-serif" font-size="14" font-weight="bold" text-anchor="middle">DATTERSELSKAP 3</text><text x="620" y="280" fill="#fff" font-family="Arial, sans-serif" font-size="12" text-anchor="middle">Eiendom</text><text x="620" y="295" fill="#fff" font-family="Arial, sans-serif" font-size="11" text-anchor="middle">75% eid</text><path stroke="#34495e" stroke-width="2" marker-end="url(#a)" d="M400 310v50"/><rect width="160" height="60" x="320" y="380" fill="#f39c12" stroke="#e67e22" stroke-width="2" rx="6"/><text x="400" y="405" fill="#fff" font-family="Arial, sans-serif" font-size="13" font-weight="bold" text-anchor="middle">BARNEBARN-SELSKAP</text><text x="400" y="420" fill="#fff" font-family="Arial, sans-serif" font-size="11" text-anchor="middle">IT-tjenester</text><text x="400" y="432" fill="#fff" font-family="Arial, sans-serif" font-size="10" text-anchor="middle">100% eid av Datterselskap 2</text><rect width="200" height="120" x="50" y="360" fill="#fff" stroke="#bdc3c7" rx="5"/><text x="150" y="380" fill="#2c3e50" font-family="Arial, sans-serif" font-size="14" font-weight="bold" text-anchor="middle">Forklaring:</text><path fill="#3498db" d="M60 390h15v15H60z"/><text x="85" y="402" fill="#2c3e50" font-family="Arial, sans-serif" font-size="12">Morselskap</text><path fill="#e74c3c" d="M60 410h15v15H60z"/><text x="85" y="422" fill="#2c3e50" font-family="Arial, sans-serif" font-size="12">Datterselskap</text><path fill="#f39c12" d="M60 430h15v15H60z"/><text x="85" y="442" fill="#2c3e50" font-family="Arial, sans-serif" font-size="12">Barnebarn-selskap</text><path stroke="#34495e" stroke-width="2" marker-end="url(#a)" d="M60 455h25"/><text x="95" y="460" fill="#2c3e50" font-family="Arial, sans-serif" font-size="12">Eierskap</text><defs><marker id="a" markerHeight="7" markerWidth="10" orient="auto" refX="9" refY="3.5"><path fill="#34495e" d="m0 0 10 3.5L0 7z"/></marker></defs></svg>