<svg width="800" height="600" xmlns="http://www.w3.org/2000/svg">
  <defs>
    <linearGradient id="bgGrad" x1="0%" y1="0%" x2="100%" y2="100%">
      <stop offset="0%" style="stop-color:#f8f9fa;stop-opacity:1" />
      <stop offset="100%" style="stop-color:#e9ecef;stop-opacity:1" />
    </linearGradient>
    <linearGradient id="financialGrad" x1="0%" y1="0%" x2="100%" y2="100%">
      <stop offset="0%" style="stop-color:#28a745;stop-opacity:0.8" />
      <stop offset="100%" style="stop-color:#20c997;stop-opacity:0.8" />
    </linearGradient>
    <linearGradient id="operationalGrad" x1="0%" y1="0%" x2="100%" y2="100%">
      <stop offset="0%" style="stop-color:#007bff;stop-opacity:0.8" />
      <stop offset="100%" style="stop-color:#6610f2;stop-opacity:0.8" />
    </linearGradient>
    <linearGradient id="strategicGrad" x1="0%" y1="0%" x2="100%" y2="100%">
      <stop offset="0%" style="stop-color:#ffc107;stop-opacity:0.8" />
      <stop offset="100%" style="stop-color:#fd7e14;stop-opacity:0.8" />
    </linearGradient>
  </defs>
  

  <rect width="800" height="600" fill="url(#bgGrad)" stroke="#dee2e6" stroke-width="2"/>
  

  <rect x="0" y="0" width="800" height="70" fill="#343a40"/>
  <text x="400" y="45" font-family="Arial, sans-serif" font-size="28" font-weight="bold" text-anchor="middle" fill="white">
    KPI Kategorier
  </text>
  

  <rect x="50" y="100" width="220" height="450" fill="url(#financialGrad)" stroke="#1e7e34" stroke-width="3" rx="15"/>
  <text x="160" y="130" font-family="Arial, sans-serif" font-size="20" font-weight="bold" text-anchor="middle" fill="white">
    FINANSIELLE KPI-er
  </text>
  

  <circle cx="160" cy="170" r="25" fill="white" stroke="#1e7e34" stroke-width="2"/>
  <text x="160" y="180" font-family="Arial, sans-serif" font-size="24" font-weight="bold" text-anchor="middle" fill="#1e7e34">
    ₹
  </text>
  

  <rect x="70" y="210" width="180" height="25" fill="rgba(255,255,255,0.9)" rx="5"/>
  <text x="160" y="227" font-family="Arial, sans-serif" font-size="12" font-weight="bold" text-anchor="middle" fill="#1e7e34">
    Egenkapitalrentabilitet
  </text>
  
  <rect x="70" y="245" width="180" height="25" fill="rgba(255,255,255,0.9)" rx="5"/>
  <text x="160" y="262" font-family="Arial, sans-serif" font-size="12" font-weight="bold" text-anchor="middle" fill="#1e7e34">
    Bruttomargin
  </text>
  
  <rect x="70" y="280" width="180" height="25" fill="rgba(255,255,255,0.9)" rx="5"/>
  <text x="160" y="297" font-family="Arial, sans-serif" font-size="12" font-weight="bold" text-anchor="middle" fill="#1e7e34">
    Arbeidskapital
  </text>
  
  <rect x="70" y="315" width="180" height="25" fill="rgba(255,255,255,0.9)" rx="5"/>
  <text x="160" y="332" font-family="Arial, sans-serif" font-size="12" font-weight="bold" text-anchor="middle" fill="#1e7e34">
    Gjeldsgrad
  </text>
  
  <rect x="70" y="350" width="180" height="25" fill="rgba(255,255,255,0.9)" rx="5"/>
  <text x="160" y="367" font-family="Arial, sans-serif" font-size="12" font-weight="bold" text-anchor="middle" fill="#1e7e34">
    Likviditetsgrad
  </text>
  
  <rect x="70" y="385" width="180" height="25" fill="rgba(255,255,255,0.9)" rx="5"/>
  <text x="160" y="402" font-family="Arial, sans-serif" font-size="12" font-weight="bold" text-anchor="middle" fill="#1e7e34">
    EBITDA-margin
  </text>
  
  <rect x="70" y="420" width="180" height="25" fill="rgba(255,255,255,0.9)" rx="5"/>
  <text x="160" y="437" font-family="Arial, sans-serif" font-size="12" font-weight="bold" text-anchor="middle" fill="#1e7e34">
    Kontantstrøm
  </text>
  
  <rect x="70" y="455" width="180" height="25" fill="rgba(255,255,255,0.9)" rx="5"/>
  <text x="160" y="472" font-family="Arial, sans-serif" font-size="12" font-weight="bold" text-anchor="middle" fill="#1e7e34">
    Aktivaomsetning
  </text>
  
  <rect x="70" y="490" width="180" height="25" fill="rgba(255,255,255,0.9)" rx="5"/>
  <text x="160" y="507" font-family="Arial, sans-serif" font-size="12" font-weight="bold" text-anchor="middle" fill="#1e7e34">
    Debitoromløp
  </text>
  

  <rect x="290" y="100" width="220" height="450" fill="url(#operationalGrad)" stroke="#0056b3" stroke-width="3" rx="15"/>
  <text x="400" y="130" font-family="Arial, sans-serif" font-size="20" font-weight="bold" text-anchor="middle" fill="white">
    OPERASJONELLE KPI-er
  </text>
  

  <circle cx="400" cy="170" r="25" fill="white" stroke="#0056b3" stroke-width="2"/>
  <text x="400" y="180" font-family="Arial, sans-serif" font-size="20" font-weight="bold" text-anchor="middle" fill="#0056b3">
    ⚙
  </text>
  

  <rect x="310" y="210" width="180" height="25" fill="rgba(255,255,255,0.9)" rx="5"/>
  <text x="400" y="227" font-family="Arial, sans-serif" font-size="12" font-weight="bold" text-anchor="middle" fill="#0056b3">
    Kundetilfredshet
  </text>
  
  <rect x="310" y="245" width="180" height="25" fill="rgba(255,255,255,0.9)" rx="5"/>
  <text x="400" y="262" font-family="Arial, sans-serif" font-size="12" font-weight="bold" text-anchor="middle" fill="#0056b3">
    Leveringspresisjon
  </text>
  
  <rect x="310" y="280" width="180" height="25" fill="rgba(255,255,255,0.9)" rx="5"/>
  <text x="400" y="297" font-family="Arial, sans-serif" font-size="12" font-weight="bold" text-anchor="middle" fill="#0056b3">
    Produktivitet per ansatt
  </text>
  
  <rect x="310" y="315" width="180" height="25" fill="rgba(255,255,255,0.9)" rx="5"/>
  <text x="400" y="332" font-family="Arial, sans-serif" font-size="12" font-weight="bold" text-anchor="middle" fill="#0056b3">
    Kvalitetsindekser
  </text>
  
  <rect x="310" y="350" width="180" height="25" fill="rgba(255,255,255,0.9)" rx="5"/>
  <text x="400" y="367" font-family="Arial, sans-serif" font-size="12" font-weight="bold" text-anchor="middle" fill="#0056b3">
    Produksjonseffektivitet
  </text>
  
  <rect x="310" y="385" width="180" height="25" fill="rgba(255,255,255,0.9)" rx="5"/>
  <text x="400" y="402" font-family="Arial, sans-serif" font-size="12" font-weight="bold" text-anchor="middle" fill="#0056b3">
    Kapasitetsutnyttelse
  </text>
  
  <rect x="310" y="420" width="180" height="25" fill="rgba(255,255,255,0.9)" rx="5"/>
  <text x="400" y="437" font-family="Arial, sans-serif" font-size="12" font-weight="bold" text-anchor="middle" fill="#0056b3">
    Feilrate
  </text>
  
  <rect x="310" y="455" width="180" height="25" fill="rgba(255,255,255,0.9)" rx="5"/>
  <text x="400" y="472" font-family="Arial, sans-serif" font-size="12" font-weight="bold" text-anchor="middle" fill="#0056b3">
    Leveringstid
  </text>
  
  <rect x="310" y="490" width="180" height="25" fill="rgba(255,255,255,0.9)" rx="5"/>
  <text x="400" y="507" font-family="Arial, sans-serif" font-size="12" font-weight="bold" text-anchor="middle" fill="#0056b3">
    Ansatturnover
  </text>
  

  <rect x="530" y="100" width="220" height="450" fill="url(#strategicGrad)" stroke="#e0a800" stroke-width="3" rx="15"/>
  <text x="640" y="130" font-family="Arial, sans-serif" font-size="20" font-weight="bold" text-anchor="middle" fill="white">
    STRATEGISKE KPI-er
  </text>
  

  <circle cx="640" cy="170" r="25" fill="white" stroke="#e0a800" stroke-width="2"/>
  <text x="640" y="180" font-family="Arial, sans-serif" font-size="20" font-weight="bold" text-anchor="middle" fill="#e0a800">
    🎯
  </text>
  

  <rect x="550" y="210" width="180" height="25" fill="rgba(255,255,255,0.9)" rx="5"/>
  <text x="640" y="227" font-family="Arial, sans-serif" font-size="12" font-weight="bold" text-anchor="middle" fill="#e0a800">
    Markedsandel
  </text>
  
  <rect x="550" y="245" width="180" height="25" fill="rgba(255,255,255,0.9)" rx="5"/>
  <text x="640" y="262" font-family="Arial, sans-serif" font-size="12" font-weight="bold" text-anchor="middle" fill="#e0a800">
    Kundelojalitet
  </text>
  
  <rect x="550" y="280" width="180" height="25" fill="rgba(255,255,255,0.9)" rx="5"/>
  <text x="640" y="297" font-family="Arial, sans-serif" font-size="12" font-weight="bold" text-anchor="middle" fill="#e0a800">
    Innovasjonsindeks
  </text>
  
  <rect x="550" y="315" width="180" height="25" fill="rgba(255,255,255,0.9)" rx="5"/>
  <text x="640" y="332" font-family="Arial, sans-serif" font-size="12" font-weight="bold" text-anchor="middle" fill="#e0a800">
    Bærekraftsmål
  </text>
  
  <rect x="550" y="350" width="180" height="25" fill="rgba(255,255,255,0.9)" rx="5"/>
  <text x="640" y="367" font-family="Arial, sans-serif" font-size="12" font-weight="bold" text-anchor="middle" fill="#e0a800">
    Merkeverdi
  </text>
  
  <rect x="550" y="385" width="180" height="25" fill="rgba(255,255,255,0.9)" rx="5"/>
  <text x="640" y="402" font-family="Arial, sans-serif" font-size="12" font-weight="bold" text-anchor="middle" fill="#e0a800">
    Kundetilegnelse
  </text>
  
  <rect x="550" y="420" width="180" height="25" fill="rgba(255,255,255,0.9)" rx="5"/>
  <text x="640" y="437" font-family="Arial, sans-serif" font-size="12" font-weight="bold" text-anchor="middle" fill="#e0a800">
    Vekstrate
  </text>
  
  <rect x="550" y="455" width="180" height="25" fill="rgba(255,255,255,0.9)" rx="5"/>
  <text x="640" y="472" font-family="Arial, sans-serif" font-size="12" font-weight="bold" text-anchor="middle" fill="#e0a800">
    ESG-score
  </text>
  
  <rect x="550" y="490" width="180" height="25" fill="rgba(255,255,255,0.9)" rx="5"/>
  <text x="640" y="507" font-family="Arial, sans-serif" font-size="12" font-weight="bold" text-anchor="middle" fill="#e0a800">
    Konkurranseposisjon
  </text>
  

  <text x="400" y="580" font-family="Arial, sans-serif" font-size="16" text-anchor="middle" fill="#495057">
    Tre hovedkategorier av KPI-er som dekker ulike aspekter av bedriftens prestasjon
  </text>
</svg>