<svg xmlns="http://www.w3.org/2000/svg" width="800" height="500"><defs><linearGradient id="a" x1="0%" x2="100%" y1="0%" y2="100%"><stop offset="0%" style="stop-color:#f8f9fa;stop-opacity:1"/><stop offset="100%" style="stop-color:#e9ecef;stop-opacity:1"/></linearGradient></defs><path fill="url(#a)" stroke="#dee2e6" stroke-width="2" d="M0 0h800v500H0z"/><path fill="#343a40" d="M0 0h800v60H0z"/><text x="400" y="35" fill="#fff" font-family="Arial, sans-serif" font-size="24" font-weight="bold" text-anchor="middle">
    KPI Utfordringer og Fallgruver
  </text><rect width="350" height="350" x="50" y="80" fill="#fff" stroke="#dc3545" stroke-width="3" rx="15"/><text x="225" y="110" fill="#dc3545" font-family="Arial, sans-serif" font-size="18" font-weight="bold" text-anchor="middle">
    VANLIGE FALLGRUVER
  </text><rect width="310" height="50" x="70" y="130" fill="#f8d7da" stroke="#dc3545" rx="8"/><circle cx="90" cy="155" r="8" fill="#dc3545"/><text x="90" y="161" fill="#fff" font-family="Arial, sans-serif" font-size="12" font-weight="bold" text-anchor="middle">!</text><text x="110" y="150" fill="#721c24" font-family="Arial, sans-serif" font-size="14" font-weight="bold">For mange KPI-er</text><text x="110" y="165" fill="#495057" font-family="Arial, sans-serif" font-size="12">Fokus blir utvannet og ineffektivt</text><rect width="310" height="50" x="70" y="190" fill="#f8d7da" stroke="#dc3545" rx="8"/><circle cx="90" cy="215" r="8" fill="#dc3545"/><text x="90" y="221" fill="#fff" font-family="Arial, sans-serif" font-size="12" font-weight="bold" text-anchor="middle">!</text><text x="110" y="210" fill="#721c24" font-family="Arial, sans-serif" font-size="14" font-weight="bold">Feil KPI-er</text><text x="110" y="225" fill="#495057" font-family="Arial, sans-serif" font-size="12">Måler aktivitet i stedet for resultater</text><rect width="310" height="50" x="70" y="250" fill="#f8d7da" stroke="#dc3545" rx="8"/><circle cx="90" cy="275" r="8" fill="#dc3545"/><text x="90" y="281" fill="#fff" font-family="Arial, sans-serif" font-size="12" font-weight="bold" text-anchor="middle">!</text><text x="110" y="270" fill="#721c24" font-family="Arial, sans-serif" font-size="14" font-weight="bold">Manglende oppfølging</text><text x="110" y="285" fill="#495057" font-family="Arial, sans-serif" font-size="12">KPI-er blir ikke brukt til beslutninger</text><rect width="310" height="50" x="70" y="310" fill="#f8d7da" stroke="#dc3545" rx="8"/><circle cx="90" cy="335" r="8" fill="#dc3545"/><text x="90" y="341" fill="#fff" font-family="Arial, sans-serif" font-size="12" font-weight="bold" text-anchor="middle">!</text><text x="110" y="330" fill="#721c24" font-family="Arial, sans-serif" font-size="14" font-weight="bold">Statiske mål</text><text x="110" y="345" fill="#495057" font-family="Arial, sans-serif" font-size="12">Justeres ikke etter endrede forhold</text><rect width="310" height="50" x="70" y="370" fill="#f8d7da" stroke="#dc3545" rx="8"/><circle cx="90" cy="395" r="8" fill="#dc3545"/><text x="90" y="401" fill="#fff" font-family="Arial, sans-serif" font-size="12" font-weight="bold" text-anchor="middle">!</text><text x="110" y="390" fill="#721c24" font-family="Arial, sans-serif" font-size="14" font-weight="bold">Silotenkning</text><text x="110" y="405" fill="#495057" font-family="Arial, sans-serif" font-size="12">KPI-er optimaliseres isolert</text><rect width="330" height="350" x="420" y="80" fill="#fff" stroke="#28a745" stroke-width="3" rx="15"/><text x="585" y="110" fill="#28a745" font-family="Arial, sans-serif" font-size="18" font-weight="bold" text-anchor="middle">
    LØSNINGER &amp; BESTE PRAKSIS
  </text><rect width="290" height="50" x="440" y="130" fill="#d4edda" stroke="#28a745" rx="8"/><circle cx="460" cy="155" r="8" fill="#28a745"/><text x="460" y="161" fill="#fff" font-family="Arial, sans-serif" font-size="12" font-weight="bold" text-anchor="middle">✓</text><text x="480" y="150" fill="#155724" font-family="Arial, sans-serif" font-size="14" font-weight="bold">Begrens antallet</text><text x="480" y="165" fill="#495057" font-family="Arial, sans-serif" font-size="12">Maksimalt 5-7 hovedKPI-er per nivå</text><rect width="290" height="50" x="440" y="190" fill="#d4edda" stroke="#28a745" rx="8"/><circle cx="460" cy="215" r="8" fill="#28a745"/><text x="460" y="221" fill="#fff" font-family="Arial, sans-serif" font-size="12" font-weight="bold" text-anchor="middle">✓</text><text x="480" y="210" fill="#155724" font-family="Arial, sans-serif" font-size="14" font-weight="bold">Balansert tilnærming</text><text x="480" y="225" fill="#495057" font-family="Arial, sans-serif" font-size="12">Kombiner finansielle og operasjonelle</text><rect width="290" height="50" x="440" y="250" fill="#d4edda" stroke="#28a745" rx="8"/><circle cx="460" cy="275" r="8" fill="#28a745"/><text x="460" y="281" fill="#fff" font-family="Arial, sans-serif" font-size="12" font-weight="bold" text-anchor="middle">✓</text><text x="480" y="270" fill="#155724" font-family="Arial, sans-serif" font-size="14" font-weight="bold">Regelmessig gjennomgang</text><text x="480" y="285" fill="#495057" font-family="Arial, sans-serif" font-size="12">Vurder relevans og justér ved behov</text><rect width="290" height="50" x="440" y="310" fill="#d4edda" stroke="#28a745" rx="8"/><circle cx="460" cy="335" r="8" fill="#28a745"/><text x="460" y="341" fill="#fff" font-family="Arial, sans-serif" font-size="12" font-weight="bold" text-anchor="middle">✓</text><text x="480" y="330" fill="#155724" font-family="Arial, sans-serif" font-size="14" font-weight="bold">Involver organisasjonen</text><text x="480" y="345" fill="#495057" font-family="Arial, sans-serif" font-size="12">Sikre forståelse og engasjement</text><rect width="290" height="50" x="440" y="370" fill="#d4edda" stroke="#28a745" rx="8"/><circle cx="460" cy="395" r="8" fill="#28a745"/><text x="460" y="401" fill="#fff" font-family="Arial, sans-serif" font-size="12" font-weight="bold" text-anchor="middle">✓</text><text x="480" y="390" fill="#155724" font-family="Arial, sans-serif" font-size="14" font-weight="bold">Koble til insentiver</text><text x="480" y="405" fill="#495057" font-family="Arial, sans-serif" font-size="12">Knytt KPI-er til belønningssystemer</text><path fill="none" stroke="#ffc107" stroke-width="4" marker-end="url(#b)" d="M400 255h20"/><defs><marker id="b" markerHeight="8" markerWidth="12" orient="auto" refX="11" refY="4"><path fill="#ffc107" d="m0 0 12 4L0 8z"/></marker></defs><text x="400" y="470" fill="#6c757d" font-family="Arial, sans-serif" font-size="14" text-anchor="middle">
    Unngå vanlige fallgruver ved å følge beste praksis for KPI-implementering
  </text></svg>