<svg xmlns="http://www.w3.org/2000/svg" width="800" height="600"><defs><linearGradient id="a" x1="0%" x2="100%" y1="0%" y2="100%"><stop offset="0%" style="stop-color:#f8f9fa;stop-opacity:1"/><stop offset="100%" style="stop-color:#e9ecef;stop-opacity:1"/></linearGradient><linearGradient id="b" x1="0%" x2="100%" y1="0%" y2="100%"><stop offset="0%" style="stop-color:#28a745;stop-opacity:.8"/><stop offset="100%" style="stop-color:#20c997;stop-opacity:.8"/></linearGradient><linearGradient id="c" x1="0%" x2="100%" y1="0%" y2="100%"><stop offset="0%" style="stop-color:#007bff;stop-opacity:.8"/><stop offset="100%" style="stop-color:#6610f2;stop-opacity:.8"/></linearGradient><linearGradient id="d" x1="0%" x2="100%" y1="0%" y2="100%"><stop offset="0%" style="stop-color:#ffc107;stop-opacity:.8"/><stop offset="100%" style="stop-color:#fd7e14;stop-opacity:.8"/></linearGradient></defs><path fill="url(#a)" stroke="#dee2e6" stroke-width="2" d="M0 0h800v600H0z"/><path fill="#343a40" d="M0 0h800v70H0z"/><text x="400" y="45" fill="#fff" font-family="Arial, sans-serif" font-size="28" font-weight="bold" text-anchor="middle">
    KPI Kategorier
  </text><rect width="220" height="450" x="50" y="100" fill="url(#b)" stroke="#1e7e34" stroke-width="3" rx="15"/><text x="160" y="130" fill="#fff" font-family="Arial, sans-serif" font-size="20" font-weight="bold" text-anchor="middle">
    FINANSIELLE KPI-er
  </text><circle cx="160" cy="170" r="25" fill="#fff" stroke="#1e7e34" stroke-width="2"/><text x="160" y="180" fill="#1e7e34" font-family="Arial, sans-serif" font-size="24" font-weight="bold" text-anchor="middle">
    ₹
  </text><rect width="180" height="25" x="70" y="210" fill="rgba(255,255,255,0.9)" rx="5"/><text x="160" y="227" fill="#1e7e34" font-family="Arial, sans-serif" font-size="12" font-weight="bold" text-anchor="middle">
    Egenkapitalrentabilitet
  </text><rect width="180" height="25" x="70" y="245" fill="rgba(255,255,255,0.9)" rx="5"/><text x="160" y="262" fill="#1e7e34" font-family="Arial, sans-serif" font-size="12" font-weight="bold" text-anchor="middle">
    Bruttomargin
  </text><rect width="180" height="25" x="70" y="280" fill="rgba(255,255,255,0.9)" rx="5"/><text x="160" y="297" fill="#1e7e34" font-family="Arial, sans-serif" font-size="12" font-weight="bold" text-anchor="middle">
    Arbeidskapital
  </text><rect width="180" height="25" x="70" y="315" fill="rgba(255,255,255,0.9)" rx="5"/><text x="160" y="332" fill="#1e7e34" font-family="Arial, sans-serif" font-size="12" font-weight="bold" text-anchor="middle">
    Gjeldsgrad
  </text><rect width="180" height="25" x="70" y="350" fill="rgba(255,255,255,0.9)" rx="5"/><text x="160" y="367" fill="#1e7e34" font-family="Arial, sans-serif" font-size="12" font-weight="bold" text-anchor="middle">
    Likviditetsgrad
  </text><rect width="180" height="25" x="70" y="385" fill="rgba(255,255,255,0.9)" rx="5"/><text x="160" y="402" fill="#1e7e34" font-family="Arial, sans-serif" font-size="12" font-weight="bold" text-anchor="middle">
    EBITDA-margin
  </text><rect width="180" height="25" x="70" y="420" fill="rgba(255,255,255,0.9)" rx="5"/><text x="160" y="437" fill="#1e7e34" font-family="Arial, sans-serif" font-size="12" font-weight="bold" text-anchor="middle">
    Kontantstrøm
  </text><rect width="180" height="25" x="70" y="455" fill="rgba(255,255,255,0.9)" rx="5"/><text x="160" y="472" fill="#1e7e34" font-family="Arial, sans-serif" font-size="12" font-weight="bold" text-anchor="middle">
    Aktivaomsetning
  </text><rect width="180" height="25" x="70" y="490" fill="rgba(255,255,255,0.9)" rx="5"/><text x="160" y="507" fill="#1e7e34" font-family="Arial, sans-serif" font-size="12" font-weight="bold" text-anchor="middle">
    Debitoromløp
  </text><rect width="220" height="450" x="290" y="100" fill="url(#c)" stroke="#0056b3" stroke-width="3" rx="15"/><text x="400" y="130" fill="#fff" font-family="Arial, sans-serif" font-size="20" font-weight="bold" text-anchor="middle">
    OPERASJONELLE KPI-er
  </text><circle cx="400" cy="170" r="25" fill="#fff" stroke="#0056b3" stroke-width="2"/><text x="400" y="180" fill="#0056b3" font-family="Arial, sans-serif" font-size="20" font-weight="bold" text-anchor="middle">
    ⚙
  </text><rect width="180" height="25" x="310" y="210" fill="rgba(255,255,255,0.9)" rx="5"/><text x="400" y="227" fill="#0056b3" font-family="Arial, sans-serif" font-size="12" font-weight="bold" text-anchor="middle">
    Kundetilfredshet
  </text><rect width="180" height="25" x="310" y="245" fill="rgba(255,255,255,0.9)" rx="5"/><text x="400" y="262" fill="#0056b3" font-family="Arial, sans-serif" font-size="12" font-weight="bold" text-anchor="middle">
    Leveringspresisjon
  </text><rect width="180" height="25" x="310" y="280" fill="rgba(255,255,255,0.9)" rx="5"/><text x="400" y="297" fill="#0056b3" font-family="Arial, sans-serif" font-size="12" font-weight="bold" text-anchor="middle">
    Produktivitet per ansatt
  </text><rect width="180" height="25" x="310" y="315" fill="rgba(255,255,255,0.9)" rx="5"/><text x="400" y="332" fill="#0056b3" font-family="Arial, sans-serif" font-size="12" font-weight="bold" text-anchor="middle">
    Kvalitetsindekser
  </text><rect width="180" height="25" x="310" y="350" fill="rgba(255,255,255,0.9)" rx="5"/><text x="400" y="367" fill="#0056b3" font-family="Arial, sans-serif" font-size="12" font-weight="bold" text-anchor="middle">
    Produksjonseffektivitet
  </text><rect width="180" height="25" x="310" y="385" fill="rgba(255,255,255,0.9)" rx="5"/><text x="400" y="402" fill="#0056b3" font-family="Arial, sans-serif" font-size="12" font-weight="bold" text-anchor="middle">
    Kapasitetsutnyttelse
  </text><rect width="180" height="25" x="310" y="420" fill="rgba(255,255,255,0.9)" rx="5"/><text x="400" y="437" fill="#0056b3" font-family="Arial, sans-serif" font-size="12" font-weight="bold" text-anchor="middle">
    Feilrate
  </text><rect width="180" height="25" x="310" y="455" fill="rgba(255,255,255,0.9)" rx="5"/><text x="400" y="472" fill="#0056b3" font-family="Arial, sans-serif" font-size="12" font-weight="bold" text-anchor="middle">
    Leveringstid
  </text><rect width="180" height="25" x="310" y="490" fill="rgba(255,255,255,0.9)" rx="5"/><text x="400" y="507" fill="#0056b3" font-family="Arial, sans-serif" font-size="12" font-weight="bold" text-anchor="middle">
    Ansatturnover
  </text><rect width="220" height="450" x="530" y="100" fill="url(#d)" stroke="#e0a800" stroke-width="3" rx="15"/><text x="640" y="130" fill="#fff" font-family="Arial, sans-serif" font-size="20" font-weight="bold" text-anchor="middle">
    STRATEGISKE KPI-er
  </text><circle cx="640" cy="170" r="25" fill="#fff" stroke="#e0a800" stroke-width="2"/><text x="640" y="180" fill="#e0a800" font-family="Arial, sans-serif" font-size="20" font-weight="bold" text-anchor="middle">
    🎯
  </text><rect width="180" height="25" x="550" y="210" fill="rgba(255,255,255,0.9)" rx="5"/><text x="640" y="227" fill="#e0a800" font-family="Arial, sans-serif" font-size="12" font-weight="bold" text-anchor="middle">
    Markedsandel
  </text><rect width="180" height="25" x="550" y="245" fill="rgba(255,255,255,0.9)" rx="5"/><text x="640" y="262" fill="#e0a800" font-family="Arial, sans-serif" font-size="12" font-weight="bold" text-anchor="middle">
    Kundelojalitet
  </text><rect width="180" height="25" x="550" y="280" fill="rgba(255,255,255,0.9)" rx="5"/><text x="640" y="297" fill="#e0a800" font-family="Arial, sans-serif" font-size="12" font-weight="bold" text-anchor="middle">
    Innovasjonsindeks
  </text><rect width="180" height="25" x="550" y="315" fill="rgba(255,255,255,0.9)" rx="5"/><text x="640" y="332" fill="#e0a800" font-family="Arial, sans-serif" font-size="12" font-weight="bold" text-anchor="middle">
    Bærekraftsmål
  </text><rect width="180" height="25" x="550" y="350" fill="rgba(255,255,255,0.9)" rx="5"/><text x="640" y="367" fill="#e0a800" font-family="Arial, sans-serif" font-size="12" font-weight="bold" text-anchor="middle">
    Merkeverdi
  </text><rect width="180" height="25" x="550" y="385" fill="rgba(255,255,255,0.9)" rx="5"/><text x="640" y="402" fill="#e0a800" font-family="Arial, sans-serif" font-size="12" font-weight="bold" text-anchor="middle">
    Kundetilegnelse
  </text><rect width="180" height="25" x="550" y="420" fill="rgba(255,255,255,0.9)" rx="5"/><text x="640" y="437" fill="#e0a800" font-family="Arial, sans-serif" font-size="12" font-weight="bold" text-anchor="middle">
    Vekstrate
  </text><rect width="180" height="25" x="550" y="455" fill="rgba(255,255,255,0.9)" rx="5"/><text x="640" y="472" fill="#e0a800" font-family="Arial, sans-serif" font-size="12" font-weight="bold" text-anchor="middle">
    ESG-score
  </text><rect width="180" height="25" x="550" y="490" fill="rgba(255,255,255,0.9)" rx="5"/><text x="640" y="507" fill="#e0a800" font-family="Arial, sans-serif" font-size="12" font-weight="bold" text-anchor="middle">
    Konkurranseposisjon
  </text><text x="400" y="580" fill="#495057" font-family="Arial, sans-serif" font-size="16" text-anchor="middle">
    Tre hovedkategorier av KPI-er som dekker ulike aspekter av bedriftens prestasjon
  </text></svg>