<svg width="800" height="400" xmlns="http://www.w3.org/2000/svg">
  <defs>
    <linearGradient id="bgRapp" x1="0%" y1="0%" x2="100%" y2="100%">
      <stop offset="0%" style="stop-color:#f8f9fa;stop-opacity:1" />
      <stop offset="100%" style="stop-color:#e9ecef;stop-opacity:1" />
    </linearGradient>
  </defs>
  

  <rect width="800" height="400" fill="url(#bgRapp)" stroke="#dee2e6" stroke-width="2"/>
  

  <rect x="0" y="0" width="800" height="50" fill="#343a40"/>
  <text x="400" y="30" font-family="Arial, sans-serif" font-size="20" font-weight="bold" text-anchor="middle" fill="white">
    KPI Dashboard og Rapportering
  </text>
  

  <rect x="50" y="70" width="350" height="250" fill="white" stroke="#6c757d" stroke-width="2" rx="10"/>
  <rect x="50" y="70" width="350" height="40" fill="#007bff" rx="10"/>
  <text x="225" y="95" font-family="Arial, sans-serif" font-size="16" font-weight="bold" text-anchor="middle" fill="white">
    KPI Dashboard
  </text>
  

  <rect x="70" y="130" width="100" height="60" fill="#28a745" stroke="#1e7e34" stroke-width="1" rx="5"/>
  <text x="120" y="150" font-family="Arial, sans-serif" font-size="12" font-weight="bold" text-anchor="middle" fill="white">
    Omsetning
  </text>
  <text x="120" y="170" font-family="Arial, sans-serif" font-size="16" font-weight="bold" text-anchor="middle" fill="white">
    +15.2%
  </text>
  
  <rect x="180" y="130" width="100" height="60" fill="#007bff" stroke="#0056b3" stroke-width="1" rx="5"/>
  <text x="230" y="150" font-family="Arial, sans-serif" font-size="12" font-weight="bold" text-anchor="middle" fill="white">
    Margin
  </text>
  <text x="230" y="170" font-family="Arial, sans-serif" font-size="16" font-weight="bold" text-anchor="middle" fill="white">
    23.8%
  </text>
  
  <rect x="290" y="130" width="100" height="60" fill="#ffc107" stroke="#e0a800" stroke-width="1" rx="5"/>
  <text x="340" y="150" font-family="Arial, sans-serif" font-size="12" font-weight="bold" text-anchor="middle" fill="white">
    Likviditet
  </text>
  <text x="340" y="170" font-family="Arial, sans-serif" font-size="16" font-weight="bold" text-anchor="middle" fill="white">
    1.8
  </text>
  

  <rect x="70" y="210" width="320" height="80" fill="#f8f9fa" stroke="#dee2e6" stroke-width="1" rx="3"/>
  <text x="230" y="230" font-family="Arial, sans-serif" font-size="12" font-weight="bold" text-anchor="middle" fill="#495057">
    Trendanalyse
  </text>
  

  <rect x="90" y="260" width="15" height="20" fill="#28a745"/>
  <rect x="110" y="250" width="15" height="30" fill="#28a745"/>
  <rect x="130" y="245" width="15" height="35" fill="#28a745"/>
  <rect x="150" y="240" width="15" height="40" fill="#28a745"/>
  <rect x="170" y="235" width="15" height="45" fill="#28a745"/>
  <rect x="190" y="230" width="15" height="50" fill="#28a745"/>
  

  <rect x="450" y="70" width="300" height="250" fill="white" stroke="#6c757d" stroke-width="2" rx="10"/>
  <text x="600" y="95" font-family="Arial, sans-serif" font-size="16" font-weight="bold" text-anchor="middle" fill="#495057">
    Rapporteringsfunksjoner
  </text>
  

  <circle cx="470" cy="120" r="5" fill="#28a745"/>
  <text x="485" y="125" font-family="Arial, sans-serif" font-size="12" fill="#495057">Sanntidsdata og oppdateringer</text>
  
  <circle cx="470" cy="145" r="5" fill="#007bff"/>
  <text x="485" y="150" font-family="Arial, sans-serif" font-size="12" fill="#495057">Historisk trendanalyse</text>
  
  <circle cx="470" cy="170" r="5" fill="#ffc107"/>
  <text x="485" y="175" font-family="Arial, sans-serif" font-size="12" fill="#495057">Benchmarking mot mål</text>
  
  <circle cx="470" cy="195" r="5" fill="#dc3545"/>
  <text x="485" y="200" font-family="Arial, sans-serif" font-size="12" fill="#495057">Automatiske varsler ved avvik</text>
  
  <circle cx="470" cy="220" r="5" fill="#6f42c1"/>
  <text x="485" y="225" font-family="Arial, sans-serif" font-size="12" fill="#495057">Drill-down detaljanalyse</text>
  
  <circle cx="470" cy="245" r="5" fill="#20c997"/>
  <text x="485" y="250" font-family="Arial, sans-serif" font-size="12" fill="#495057">Eksport til Excel/PDF</text>
  
  <circle cx="470" cy="270" r="5" fill="#fd7e14"/>
  <text x="485" y="275" font-family="Arial, sans-serif" font-size="12" fill="#495057">Mobilrapportering</text>
  

  <rect x="50" y="340" width="700" height="50" fill="white" stroke="#dee2e6" stroke-width="1" rx="5"/>
  <text x="400" y="360" font-family="Arial, sans-serif" font-size="14" font-weight="bold" text-anchor="middle" fill="#495057">
    Rapporteringsfrekvens
  </text>
  
  <text x="150" y="380" font-family="Arial, sans-serif" font-size="12" font-weight="bold" text-anchor="middle" fill="#28a745">
    Operasjonelle: Daglig/Ukentlig
  </text>
  <text x="400" y="380" font-family="Arial, sans-serif" font-size="12" font-weight="bold" text-anchor="middle" fill="#007bff">
    Finansielle: Månedlig/Kvartalsvis
  </text>
  <text x="650" y="380" font-family="Arial, sans-serif" font-size="12" font-weight="bold" text-anchor="middle" fill="#ffc107">
    Strategiske: Kvartalsvis/Årlig
  </text>
</svg>