<svg xmlns="http://www.w3.org/2000/svg" viewBox="0 0 800 600" width="800" height="600">
  <defs>
    <linearGradient id="digitalGradient" x1="0%" y1="0%" x2="100%" y2="100%">
      <stop offset="0%" style="stop-color:#6366f1;stop-opacity:1" />
      <stop offset="100%" style="stop-color:#4f46e5;stop-opacity:1" />
    </linearGradient>
    <linearGradient id="esgGradient" x1="0%" y1="0%" x2="100%" y2="100%">
      <stop offset="0%" style="stop-color:#059669;stop-opacity:1" />
      <stop offset="100%" style="stop-color:#047857;stop-opacity:1" />
    </linearGradient>
    <linearGradient id="regulatoryGradient" x1="0%" y1="0%" x2="100%" y2="100%">
      <stop offset="0%" style="stop-color:#dc2626;stop-opacity:1" />
      <stop offset="100%" style="stop-color:#b91c1c;stop-opacity:1" />
    </linearGradient>
  </defs>
  

  <rect width="800" height="600" fill="#f8fafc"/>
  

  <text x="400" y="40" text-anchor="middle" font-family="Arial, sans-serif" font-size="24" font-weight="bold" fill="#1e293b">Moderne Styringsutfordringer</text>
  

  <circle cx="400" cy="120" r="50" fill="#fbbf24" stroke="#1e293b" stroke-width="3"/>
  <text x="400" y="115" text-anchor="middle" font-family="Arial, sans-serif" font-size="14" font-weight="bold" fill="#1e293b">Moderne</text>
  <text x="400" y="130" text-anchor="middle" font-family="Arial, sans-serif" font-size="14" font-weight="bold" fill="#1e293b">Styre</text>
  

  <rect x="50" y="200" width="220" height="160" rx="10" fill="url(#digitalGradient)" stroke="#1e293b" stroke-width="2"/>
  <text x="160" y="225" text-anchor="middle" font-family="Arial, sans-serif" font-size="16" font-weight="bold" fill="white">Digitalisering</text>
  
  <circle cx="75" cy="250" r="6" fill="white"/>
  <text x="88" y="255" font-family="Arial, sans-serif" font-size="11" fill="white">Digitale styreportaler</text>
  
  <circle cx="75" cy="270" r="6" fill="white"/>
  <text x="88" y="275" font-family="Arial, sans-serif" font-size="11" fill="white">Virtuelle møter</text>
  
  <circle cx="75" cy="290" r="6" fill="white"/>
  <text x="88" y="295" font-family="Arial, sans-serif" font-size="11" fill="white">Cybersikkerhet</text>
  
  <circle cx="75" cy="310" r="6" fill="white"/>
  <text x="88" y="315" font-family="Arial, sans-serif" font-size="11" fill="white">AI-støttet analyse</text>
  
  <circle cx="75" cy="330" r="6" fill="white"/>
  <text x="88" y="335" font-family="Arial, sans-serif" font-size="11" fill="white">Datavern (GDPR)</text>
  
  <circle cx="75" cy="350" r="6" fill="white"/>
  <text x="88" y="355" font-family="Arial, sans-serif" font-size="11" fill="white">Blockchain-teknologi</text>
  

  <rect x="290" y="200" width="220" height="160" rx="10" fill="url(#esgGradient)" stroke="#1e293b" stroke-width="2"/>
  <text x="400" y="225" text-anchor="middle" font-family="Arial, sans-serif" font-size="16" font-weight="bold" fill="white">Bærekraft &amp; ESG</text>
  
  <circle cx="315" cy="250" r="6" fill="white"/>
  <text x="328" y="255" font-family="Arial, sans-serif" font-size="11" fill="white">Miljørapportering</text>
  
  <circle cx="315" cy="270" r="6" fill="white"/>
  <text x="328" y="275" font-family="Arial, sans-serif" font-size="11" fill="white">Sosiale indikatorer</text>
  
  <circle cx="315" cy="290" r="6" fill="white"/>
  <text x="328" y="295" font-family="Arial, sans-serif" font-size="11" fill="white">Styrings-KPIer</text>
  
  <circle cx="315" cy="310" r="6" fill="white"/>
  <text x="328" y="315" font-family="Arial, sans-serif" font-size="11" fill="white">Stakeholder-fokus</text>
  
  <circle cx="315" cy="330" r="6" fill="white"/>
  <text x="328" y="335" font-family="Arial, sans-serif" font-size="11" fill="white">Bærekraftsrisiko</text>
  
  <circle cx="315" cy="350" r="6" fill="white"/>
  <text x="328" y="355" font-family="Arial, sans-serif" font-size="11" fill="white">Klimarapportering</text>
  

  <rect x="530" y="200" width="220" height="160" rx="10" fill="url(#regulatoryGradient)" stroke="#1e293b" stroke-width="2"/>
  <text x="640" y="225" text-anchor="middle" font-family="Arial, sans-serif" font-size="16" font-weight="bold" fill="white">Regulatoriske Endringer</text>
  
  <circle cx="555" cy="250" r="6" fill="white"/>
  <text x="568" y="255" font-family="Arial, sans-serif" font-size="11" fill="white">IFRS-standarder</text>
  
  <circle cx="555" cy="270" r="6" fill="white"/>
  <text x="568" y="275" font-family="Arial, sans-serif" font-size="11" fill="white">EU-direktiver</text>
  
  <circle cx="555" cy="290" r="6" fill="white"/>
  <text x="568" y="295" font-family="Arial, sans-serif" font-size="11" fill="white">Personvernregler</text>
  
  <circle cx="555" cy="310" r="6" fill="white"/>
  <text x="568" y="315" font-family="Arial, sans-serif" font-size="11" fill="white">Antisvikregler</text>
  
  <circle cx="555" cy="330" r="6" fill="white"/>
  <text x="568" y="335" font-family="Arial, sans-serif" font-size="11" fill="white">Skattetransparens</text>
  
  <circle cx="555" cy="350" r="6" fill="white"/>
  <text x="568" y="355" font-family="Arial, sans-serif" font-size="11" fill="white">Innsynsregler</text>
  

  <path d="M 360 140 L 180 190" stroke="#1e293b" stroke-width="3" marker-end="url(#arrowhead)"/>
  <path d="M 400 170 L 400 190" stroke="#1e293b" stroke-width="3" marker-end="url(#arrowhead)"/>
  <path d="M 440 140 L 620 190" stroke="#1e293b" stroke-width="3" marker-end="url(#arrowhead)"/>
  

  <rect x="100" y="390" width="600" height="180" rx="10" fill="white" stroke="#e2e8f0" stroke-width="2"/>
  <text x="400" y="415" text-anchor="middle" font-family="Arial, sans-serif" font-size="16" font-weight="bold" fill="#1e293b">Påvirkningsgrad og Responsstrategi</text>
  

  <rect x="120" y="435" width="150" height="25" fill="#f1f5f9" stroke="#e2e8f0" stroke-width="1"/>
  <text x="195" y="452" text-anchor="middle" font-family="Arial, sans-serif" font-size="11" font-weight="bold" fill="#1e293b">Utfordring</text>
  
  <rect x="270" y="435" width="100" height="25" fill="#f1f5f9" stroke="#e2e8f0" stroke-width="1"/>
  <text x="320" y="452" text-anchor="middle" font-family="Arial, sans-serif" font-size="11" font-weight="bold" fill="#1e293b">Påvirkning</text>
  
  <rect x="370" y="435" width="120" height="25" fill="#f1f5f9" stroke="#e2e8f0" stroke-width="1"/>
  <text x="430" y="452" text-anchor="middle" font-family="Arial, sans-serif" font-size="11" font-weight="bold" fill="#1e293b">Tidshorizont</text>
  
  <rect x="490" y="435" width="130" height="25" fill="#f1f5f9" stroke="#e2e8f0" stroke-width="1"/>
  <text x="555" y="452" text-anchor="middle" font-family="Arial, sans-serif" font-size="11" font-weight="bold" fill="#1e293b">Responsstrategi</text>
  
  <rect x="620" y="435" width="60" height="25" fill="#f1f5f9" stroke="#e2e8f0" stroke-width="1"/>
  <text x="650" y="452" text-anchor="middle" font-family="Arial, sans-serif" font-size="11" font-weight="bold" fill="#1e293b">Prioritet</text>
  

  <rect x="120" y="460" width="150" height="25" fill="white" stroke="#e2e8f0" stroke-width="1"/>
  <text x="195" y="477" text-anchor="middle" font-family="Arial, sans-serif" font-size="10" fill="#1e293b">Cybersikkerhet</text>
  <rect x="270" y="460" width="100" height="25" fill="white" stroke="#e2e8f0" stroke-width="1"/>
  <text x="320" y="477" text-anchor="middle" font-family="Arial, sans-serif" font-size="10" fill="#dc2626">Høy</text>
  <rect x="370" y="460" width="120" height="25" fill="white" stroke="#e2e8f0" stroke-width="1"/>
  <text x="430" y="477" text-anchor="middle" font-family="Arial, sans-serif" font-size="10" fill="#1e293b">Umiddelbar</text>
  <rect x="490" y="460" width="130" height="25" fill="white" stroke="#e2e8f0" stroke-width="1"/>
  <text x="555" y="477" text-anchor="middle" font-family="Arial, sans-serif" font-size="10" fill="#1e293b">Proaktiv investering</text>
  <rect x="620" y="460" width="60" height="25" fill="white" stroke="#e2e8f0" stroke-width="1"/>
  <text x="650" y="477" text-anchor="middle" font-family="Arial, sans-serif" font-size="12" fill="#dc2626">●●●</text>
  
  <rect x="120" y="485" width="150" height="25" fill="white" stroke="#e2e8f0" stroke-width="1"/>
  <text x="195" y="502" text-anchor="middle" font-family="Arial, sans-serif" font-size="10" fill="#1e293b">ESG-rapportering</text>
  <rect x="270" y="485" width="100" height="25" fill="white" stroke="#e2e8f0" stroke-width="1"/>
  <text x="320" y="502" text-anchor="middle" font-family="Arial, sans-serif" font-size="10" fill="#f59e0b">Moderat</text>
  <rect x="370" y="485" width="120" height="25" fill="white" stroke="#e2e8f0" stroke-width="1"/>
  <text x="430" y="502" text-anchor="middle" font-family="Arial, sans-serif" font-size="10" fill="#1e293b">1-3 år</text>
  <rect x="490" y="485" width="130" height="25" fill="white" stroke="#e2e8f0" stroke-width="1"/>
  <text x="555" y="502" text-anchor="middle" font-family="Arial, sans-serif" font-size="10" fill="#1e293b">Gradvis implementering</text>
  <rect x="620" y="485" width="60" height="25" fill="white" stroke="#e2e8f0" stroke-width="1"/>
  <text x="650" y="502" text-anchor="middle" font-family="Arial, sans-serif" font-size="12" fill="#f59e0b">●●</text>
  
  <rect x="120" y="510" width="150" height="25" fill="white" stroke="#e2e8f0" stroke-width="1"/>
  <text x="195" y="527" text-anchor="middle" font-family="Arial, sans-serif" font-size="10" fill="#1e293b">AI-integrasjon</text>
  <rect x="270" y="510" width="100" height="25" fill="white" stroke="#e2e8f0" stroke-width="1"/>
  <text x="320" y="527" text-anchor="middle" font-family="Arial, sans-serif" font-size="10" fill="#16a34a">Lav-Moderat</text>
  <rect x="370" y="510" width="120" height="25" fill="white" stroke="#e2e8f0" stroke-width="1"/>
  <text x="430" y="527" text-anchor="middle" font-family="Arial, sans-serif" font-size="10" fill="#1e293b">3-5 år</text>
  <rect x="490" y="510" width="130" height="25" fill="white" stroke="#e2e8f0" stroke-width="1"/>
  <text x="555" y="527" text-anchor="middle" font-family="Arial, sans-serif" font-size="10" fill="#1e293b">Pilot og læring</text>
  <rect x="620" y="510" width="60" height="25" fill="white" stroke="#e2e8f0" stroke-width="1"/>
  <text x="650" y="527" text-anchor="middle" font-family="Arial, sans-serif" font-size="12" fill="#16a34a">●</text>
  
  <rect x="120" y="535" width="150" height="25" fill="white" stroke="#e2e8f0" stroke-width="1"/>
  <text x="195" y="552" text-anchor="middle" font-family="Arial, sans-serif" font-size="10" fill="#1e293b">Regulatorisk compliance</text>
  <rect x="270" y="535" width="100" height="25" fill="white" stroke="#e2e8f0" stroke-width="1"/>
  <text x="320" y="552" text-anchor="middle" font-family="Arial, sans-serif" font-size="10" fill="#dc2626">Høy</text>
  <rect x="370" y="535" width="120" height="25" fill="white" stroke="#e2e8f0" stroke-width="1"/>
  <text x="430" y="552" text-anchor="middle" font-family="Arial, sans-serif" font-size="10" fill="#1e293b">Kontinuerlig</text>
  <rect x="490" y="535" width="130" height="25" fill="white" stroke="#e2e8f0" stroke-width="1"/>
  <text x="555" y="552" text-anchor="middle" font-family="Arial, sans-serif" font-size="10" fill="#1e293b">Overvåking og tilpasning</text>
  <rect x="620" y="535" width="60" height="25" fill="white" stroke="#e2e8f0" stroke-width="1"/>
  <text x="650" y="552" text-anchor="middle" font-family="Arial, sans-serif" font-size="12" fill="#dc2626">●●●</text>
  

  <text x="400" y="585" text-anchor="middle" font-family="Arial, sans-serif" font-size="11" fill="#64748b">Prioritet: ● = Lav, ●● = Moderat, ●●● = Høy</text>
  
  <defs>
    <marker id="arrowhead" markerWidth="10" markerHeight="7" 
     refX="0" refY="3.5" orient="auto">
      <polygon points="0 0, 10 3.5, 0 7" fill="#1e293b" />
    </marker>
  </defs>
</svg>