<svg xmlns="http://www.w3.org/2000/svg" viewBox="0 0 800 600" width="800" height="600">
  <defs>
    <linearGradient id="prepGradient" x1="0%" y1="0%" x2="100%" y2="100%">
      <stop offset="0%" style="stop-color:#3b82f6;stop-opacity:1" />
      <stop offset="100%" style="stop-color:#2563eb;stop-opacity:1" />
    </linearGradient>
    <linearGradient id="meetingGradient" x1="0%" y1="0%" x2="100%" y2="100%">
      <stop offset="0%" style="stop-color:#059669;stop-opacity:1" />
      <stop offset="100%" style="stop-color:#047857;stop-opacity:1" />
    </linearGradient>
    <linearGradient id="followGradient" x1="0%" y1="0%" x2="100%" y2="100%">
      <stop offset="0%" style="stop-color:#dc2626;stop-opacity:1" />
      <stop offset="100%" style="stop-color:#b91c1c;stop-opacity:1" />
    </linearGradient>
  </defs>
  

  <rect width="800" height="600" fill="#f8fafc"/>
  

  <text x="400" y="40" text-anchor="middle" font-family="Arial, sans-serif" font-size="24" font-weight="bold" fill="#1e293b">Styremøte Prosess</text>
  

  <rect x="50" y="80" width="200" height="180" rx="10" fill="url(#prepGradient)" stroke="#1e293b" stroke-width="2"/>
  <text x="150" y="110" text-anchor="middle" font-family="Arial, sans-serif" font-size="16" font-weight="bold" fill="white">Forberedelse</text>
  <text x="150" y="130" text-anchor="middle" font-family="Arial, sans-serif" font-size="12" fill="white">(1-2 uker før)</text>
  
  <circle cx="75" cy="155" r="6" fill="white"/>
  <text x="88" y="160" font-family="Arial, sans-serif" font-size="11" fill="white">Saksliste utsendes</text>
  
  <circle cx="75" cy="175" r="6" fill="white"/>
  <text x="88" y="180" font-family="Arial, sans-serif" font-size="11" fill="white">Dokumenter distribueres</text>
  
  <circle cx="75" cy="195" r="6" fill="white"/>
  <text x="88" y="200" font-family="Arial, sans-serif" font-size="11" fill="white">Medlemmer forbereder</text>
  
  <circle cx="75" cy="215" r="6" fill="white"/>
  <text x="88" y="220" font-family="Arial, sans-serif" font-size="11" fill="white">Spørsmål sendes inn</text>
  
  <circle cx="75" cy="235" r="6" fill="white"/>
  <text x="88" y="240" font-family="Arial, sans-serif" font-size="11" fill="white">Møterom bookes</text>
  

  <rect x="300" y="80" width="200" height="180" rx="10" fill="url(#meetingGradient)" stroke="#1e293b" stroke-width="2"/>
  <text x="400" y="110" text-anchor="middle" font-family="Arial, sans-serif" font-size="16" font-weight="bold" fill="white">Møtegjennomføring</text>
  <text x="400" y="130" text-anchor="middle" font-family="Arial, sans-serif" font-size="12" fill="white">(2-4 timer)</text>
  
  <circle cx="325" cy="155" r="6" fill="white"/>
  <text x="338" y="160" font-family="Arial, sans-serif" font-size="11" fill="white">Konstituering</text>
  
  <circle cx="325" cy="175" r="6" fill="white"/>
  <text x="338" y="180" font-family="Arial, sans-serif" font-size="11" fill="white">Gjennomgang saker</text>
  
  <circle cx="325" cy="195" r="6" fill="white"/>
  <text x="338" y="200" font-family="Arial, sans-serif" font-size="11" fill="white">Diskusjon</text>
  
  <circle cx="325" cy="215" r="6" fill="white"/>
  <text x="338" y="220" font-family="Arial, sans-serif" font-size="11" fill="white">Beslutninger</text>
  
  <circle cx="325" cy="235" r="6" fill="white"/>
  <text x="338" y="240" font-family="Arial, sans-serif" font-size="11" fill="white">Protokollføring</text>
  

  <rect x="550" y="80" width="200" height="180" rx="10" fill="url(#followGradient)" stroke="#1e293b" stroke-width="2"/>
  <text x="650" y="110" text-anchor="middle" font-family="Arial, sans-serif" font-size="16" font-weight="bold" fill="white">Oppfølging</text>
  <text x="650" y="130" text-anchor="middle" font-family="Arial, sans-serif" font-size="12" fill="white">(innen 1 uke)</text>
  
  <circle cx="575" cy="155" r="6" fill="white"/>
  <text x="588" y="160" font-family="Arial, sans-serif" font-size="11" fill="white">Protokoll ferdigstilles</text>
  
  <circle cx="575" cy="175" r="6" fill="white"/>
  <text x="588" y="180" font-family="Arial, sans-serif" font-size="11" fill="white">Vedtak kommuniseres</text>
  
  <circle cx="575" cy="195" r="6" fill="white"/>
  <text x="588" y="200" font-family="Arial, sans-serif" font-size="11" fill="white">Handlingsplan lages</text>
  
  <circle cx="575" cy="215" r="6" fill="white"/>
  <text x="588" y="220" font-family="Arial, sans-serif" font-size="11" fill="white">Oppgaver delegeres</text>
  
  <circle cx="575" cy="235" r="6" fill="white"/>
  <text x="588" y="240" font-family="Arial, sans-serif" font-size="11" fill="white">Frister settes</text>
  

  <path d="M 250 170 L 290 170" stroke="#1e293b" stroke-width="3" marker-end="url(#arrowhead)"/>
  <path d="M 500 170 L 540 170" stroke="#1e293b" stroke-width="3" marker-end="url(#arrowhead)"/>
  

  <rect x="100" y="300" width="600" height="120" rx="10" fill="white" stroke="#e2e8f0" stroke-width="2"/>
  <text x="400" y="325" text-anchor="middle" font-family="Arial, sans-serif" font-size="16" font-weight="bold" fill="#1e293b">Møtehyppighet og Krav</text>
  

  <rect x="120" y="340" width="120" height="25" fill="#f1f5f9" stroke="#e2e8f0" stroke-width="1"/>
  <text x="180" y="357" text-anchor="middle" font-family="Arial, sans-serif" font-size="11" font-weight="bold" fill="#1e293b">Selskapstype</text>
  
  <rect x="240" y="340" width="120" height="25" fill="#f1f5f9" stroke="#e2e8f0" stroke-width="1"/>
  <text x="300" y="357" text-anchor="middle" font-family="Arial, sans-serif" font-size="11" font-weight="bold" fill="#1e293b">Minimum møter</text>
  
  <rect x="360" y="340" width="120" height="25" fill="#f1f5f9" stroke="#e2e8f0" stroke-width="1"/>
  <text x="420" y="357" text-anchor="middle" font-family="Arial, sans-serif" font-size="11" font-weight="bold" fill="#1e293b">Anbefalt</text>
  
  <rect x="480" y="340" width="120" height="25" fill="#f1f5f9" stroke="#e2e8f0" stroke-width="1"/>
  <text x="540" y="357" text-anchor="middle" font-family="Arial, sans-serif" font-size="11" font-weight="bold" fill="#1e293b">Beslutningsdyktighet</text>
  
  <rect x="600" y="340" width="80" height="25" fill="#f1f5f9" stroke="#e2e8f0" stroke-width="1"/>
  <text x="640" y="357" text-anchor="middle" font-family="Arial, sans-serif" font-size="11" font-weight="bold" fill="#1e293b">Protokoll</text>
  

  <rect x="120" y="365" width="120" height="20" fill="white" stroke="#e2e8f0" stroke-width="1"/>
  <text x="180" y="378" text-anchor="middle" font-family="Arial, sans-serif" font-size="10" fill="#1e293b">Små AS</text>
  <rect x="240" y="365" width="120" height="20" fill="white" stroke="#e2e8f0" stroke-width="1"/>
  <text x="300" y="378" text-anchor="middle" font-family="Arial, sans-serif" font-size="10" fill="#1e293b">4 per år</text>
  <rect x="360" y="365" width="120" height="20" fill="white" stroke="#e2e8f0" stroke-width="1"/>
  <text x="420" y="378" text-anchor="middle" font-family="Arial, sans-serif" font-size="10" fill="#1e293b">6-8 per år</text>
  <rect x="480" y="365" width="120" height="20" fill="white" stroke="#e2e8f0" stroke-width="1"/>
  <text x="540" y="378" text-anchor="middle" font-family="Arial, sans-serif" font-size="10" fill="#1e293b">Flertall</text>
  <rect x="600" y="365" width="80" height="20" fill="white" stroke="#e2e8f0" stroke-width="1"/>
  <text x="640" y="378" text-anchor="middle" font-family="Arial, sans-serif" font-size="10" fill="#16a34a">Krav</text>
  
  <rect x="120" y="385" width="120" height="20" fill="white" stroke="#e2e8f0" stroke-width="1"/>
  <text x="180" y="398" text-anchor="middle" font-family="Arial, sans-serif" font-size="10" fill="#1e293b">Store AS</text>
  <rect x="240" y="385" width="120" height="20" fill="white" stroke="#e2e8f0" stroke-width="1"/>
  <text x="300" y="398" text-anchor="middle" font-family="Arial, sans-serif" font-size="10" fill="#1e293b">6 per år</text>
  <rect x="360" y="385" width="120" height="20" fill="white" stroke="#e2e8f0" stroke-width="1"/>
  <text x="420" y="398" text-anchor="middle" font-family="Arial, sans-serif" font-size="10" fill="#1e293b">10-12 per år</text>
  <rect x="480" y="385" width="120" height="20" fill="white" stroke="#e2e8f0" stroke-width="1"/>
  <text x="540" y="398" text-anchor="middle" font-family="Arial, sans-serif" font-size="10" fill="#1e293b">Flertall</text>
  <rect x="600" y="385" width="80" height="20" fill="white" stroke="#e2e8f0" stroke-width="1"/>
  <text x="640" y="398" text-anchor="middle" font-family="Arial, sans-serif" font-size="10" fill="#16a34a">Krav</text>
  

  <rect x="150" y="450" width="500" height="120" rx="10" fill="#f0f9ff" stroke="#0ea5e9" stroke-width="2"/>
  <text x="400" y="475" text-anchor="middle" font-family="Arial, sans-serif" font-size="16" font-weight="bold" fill="#1e293b">Møtebehandling - Viktige Prinsipper</text>
  
  <rect x="170" y="490" width="140" height="70" rx="5" fill="white" stroke="#cbd5e1" stroke-width="1"/>
  <text x="240" y="510" text-anchor="middle" font-family="Arial, sans-serif" font-size="12" font-weight="bold" fill="#1e293b">Saksliste</text>
  <text x="240" y="525" text-anchor="middle" font-family="Arial, sans-serif" font-size="10" fill="#1e293b">• Forberedt agenda</text>
  <text x="240" y="538" text-anchor="middle" font-family="Arial, sans-serif" font-size="10" fill="#1e293b">• Relevante dokumenter</text>
  <text x="240" y="551" text-anchor="middle" font-family="Arial, sans-serif" font-size="10" fill="#1e293b">• Tidsestimat</text>
  
  <rect x="330" y="490" width="140" height="70" rx="5" fill="white" stroke="#cbd5e1" stroke-width="1"/>
  <text x="400" y="510" text-anchor="middle" font-family="Arial, sans-serif" font-size="12" font-weight="bold" fill="#1e293b">Protokoll</text>
  <text x="400" y="525" text-anchor="middle" font-family="Arial, sans-serif" font-size="10" fill="#1e293b">• Alle beslutninger</text>
  <text x="400" y="538" text-anchor="middle" font-family="Arial, sans-serif" font-size="10" fill="#1e293b">• Dissenser</text>
  <text x="400" y="551" text-anchor="middle" font-family="Arial, sans-serif" font-size="10" fill="#1e293b">• Handlingsplaner</text>
  
  <rect x="490" y="490" width="140" height="70" rx="5" fill="white" stroke="#cbd5e1" stroke-width="1"/>
  <text x="560" y="510" text-anchor="middle" font-family="Arial, sans-serif" font-size="12" font-weight="bold" fill="#1e293b">Dokumentasjon</text>
  <text x="560" y="525" text-anchor="middle" font-family="Arial, sans-serif" font-size="10" fill="#1e293b">• Lagring av protokoller</text>
  <text x="560" y="538" text-anchor="middle" font-family="Arial, sans-serif" font-size="10" fill="#1e293b">• Styreuttalelser</text>
  <text x="560" y="551" text-anchor="middle" font-family="Arial, sans-serif" font-size="10" fill="#1e293b">• Beslutningsgrunnlag</text>
  
  <defs>
    <marker id="arrowhead" markerWidth="10" markerHeight="7" 
     refX="0" refY="3.5" orient="auto">
      <polygon points="0 0, 10 3.5, 0 7" fill="#1e293b" />
    </marker>
  </defs>
</svg>