<svg xmlns="http://www.w3.org/2000/svg" width="800" height="500"><defs><linearGradient id="a" x1="0%" x2="100%" y1="0%" y2="100%"><stop offset="0%" style="stop-color:#e3f2fd;stop-opacity:1"/><stop offset="100%" style="stop-color:#bbdefb;stop-opacity:1"/></linearGradient><linearGradient id="b" x1="0%" x2="0%" y1="0%" y2="100%"><stop offset="0%" style="stop-color:#fff;stop-opacity:1"/><stop offset="100%" style="stop-color:#f5f5f5;stop-opacity:1"/></linearGradient><marker id="c" markerHeight="10" markerWidth="10" orient="auto" refX="9" refY="3"><path fill="#1976d2" d="M0 0v6l9-3z"/></marker></defs><path fill="url(#a)" stroke="#1976d2" stroke-width="2" d="M0 0h800v500H0z"/><text x="400" y="30" fill="#1976d2" font-family="Arial, sans-serif" font-size="22" font-weight="bold" text-anchor="middle">
    Kvartalsrapport Prosessflyt
  </text><g transform="translate(50 70)"><rect width="180" height="100" fill="url(#b)" stroke="#1976d2" stroke-width="2" rx="8"/><circle cx="90" cy="25" r="15" fill="#1976d2"/><text x="90" y="30" fill="#fff" font-family="Arial, sans-serif" font-size="14" font-weight="bold" text-anchor="middle">1</text><text x="90" y="50" fill="#333" font-family="Arial, sans-serif" font-size="14" font-weight="bold" text-anchor="middle">
      Datainnsamling
    </text><text x="10" y="70" fill="#666" font-family="Arial, sans-serif" font-size="10">• Månedsavslutning</text><text x="10" y="85" fill="#666" font-family="Arial, sans-serif" font-size="10">• Konsolidering</text></g><path stroke="#1976d2" stroke-width="3" marker-end="url(#c)" d="M230 120h40"/><g transform="translate(280 70)"><rect width="180" height="100" fill="url(#b)" stroke="#388e3c" stroke-width="2" rx="8"/><circle cx="90" cy="25" r="15" fill="#388e3c"/><text x="90" y="30" fill="#fff" font-family="Arial, sans-serif" font-size="14" font-weight="bold" text-anchor="middle">2</text><text x="90" y="50" fill="#333" font-family="Arial, sans-serif" font-size="14" font-weight="bold" text-anchor="middle">
      Avstemming
    </text><text x="10" y="70" fill="#666" font-family="Arial, sans-serif" font-size="10">• Kontroll av poster</text><text x="10" y="85" fill="#666" font-family="Arial, sans-serif" font-size="10">• Balanseavstemming</text></g><path stroke="#1976d2" stroke-width="3" marker-end="url(#c)" d="M460 120h40"/><g transform="translate(510 70)"><rect width="180" height="100" fill="url(#b)" stroke="#f57c00" stroke-width="2" rx="8"/><circle cx="90" cy="25" r="15" fill="#f57c00"/><text x="90" y="30" fill="#fff" font-family="Arial, sans-serif" font-size="14" font-weight="bold" text-anchor="middle">3</text><text x="90" y="50" fill="#333" font-family="Arial, sans-serif" font-size="14" font-weight="bold" text-anchor="middle">
      Analyse
    </text><text x="10" y="70" fill="#666" font-family="Arial, sans-serif" font-size="10">• Avviksanalyse</text><text x="10" y="85" fill="#666" font-family="Arial, sans-serif" font-size="10">• Trendvurdering</text></g><path stroke="#1976d2" stroke-width="3" marker-end="url(#c)" d="M600 170v40"/><g transform="translate(510 220)"><rect width="180" height="100" fill="url(#b)" stroke="#c2185b" stroke-width="2" rx="8"/><circle cx="90" cy="25" r="15" fill="#c2185b"/><text x="90" y="30" fill="#fff" font-family="Arial, sans-serif" font-size="14" font-weight="bold" text-anchor="middle">4</text><text x="90" y="50" fill="#333" font-family="Arial, sans-serif" font-size="14" font-weight="bold" text-anchor="middle">
      Rapportutarbeidelse
    </text><text x="10" y="70" fill="#666" font-family="Arial, sans-serif" font-size="10">• Finansielle oppstillinger</text><text x="10" y="85" fill="#666" font-family="Arial, sans-serif" font-size="10">• Kommentarer</text></g><path stroke="#1976d2" stroke-width="3" marker-end="url(#c)" d="M510 270h-40"/><g transform="translate(280 220)"><rect width="180" height="100" fill="url(#b)" stroke="#9c27b0" stroke-width="2" rx="8"/><circle cx="90" cy="25" r="15" fill="#9c27b0"/><text x="90" y="30" fill="#fff" font-family="Arial, sans-serif" font-size="14" font-weight="bold" text-anchor="middle">5</text><text x="90" y="50" fill="#333" font-family="Arial, sans-serif" font-size="14" font-weight="bold" text-anchor="middle">
      Kvalitetssikring
    </text><text x="10" y="70" fill="#666" font-family="Arial, sans-serif" font-size="10">• Internkontroll</text><text x="10" y="85" fill="#666" font-family="Arial, sans-serif" font-size="10">• Godkjenning</text></g><path stroke="#1976d2" stroke-width="3" marker-end="url(#c)" d="M280 270h-40"/><g transform="translate(50 220)"><rect width="180" height="100" fill="url(#b)" stroke="#607d8b" stroke-width="2" rx="8"/><circle cx="90" cy="25" r="15" fill="#607d8b"/><text x="90" y="30" fill="#fff" font-family="Arial, sans-serif" font-size="14" font-weight="bold" text-anchor="middle">6</text><text x="90" y="50" fill="#333" font-family="Arial, sans-serif" font-size="14" font-weight="bold" text-anchor="middle">
      Publisering
    </text><text x="10" y="70" fill="#666" font-family="Arial, sans-serif" font-size="10">• Oslo Børs</text><text x="10" y="85" fill="#666" font-family="Arial, sans-serif" font-size="10">• Interessenter</text></g><g transform="translate(50 350)"><text y="20" fill="#333" font-family="Arial, sans-serif" font-size="16" font-weight="bold">Typisk Tidsramme:</text><rect width="150" height="30" y="40" fill="#e8f5e8" stroke="#4caf50" rx="4"/><text x="75" y="58" fill="#2e7d32" font-family="Arial, sans-serif" font-size="12" text-anchor="middle">Uke 1-2</text><rect width="150" height="30" x="170" y="40" fill="#fff3e0" stroke="#ff9800" rx="4"/><text x="245" y="58" fill="#f57c00" font-family="Arial, sans-serif" font-size="12" text-anchor="middle">Uke 3-4</text><rect width="150" height="30" x="340" y="40" fill="#fce4ec" stroke="#e91e63" rx="4"/><text x="415" y="58" fill="#c2185b" font-family="Arial, sans-serif" font-size="12" text-anchor="middle">Uke 5-6</text><rect width="150" height="30" x="510" y="40" fill="#e3f2fd" stroke="#2196f3" rx="4"/><text x="585" y="58" fill="#1976d2" font-family="Arial, sans-serif" font-size="12" text-anchor="middle">Uke 7-8</text><text y="95" fill="#666" font-family="Arial, sans-serif" font-size="11">
      Datainnsamling → Avstemming → Analyse → Rapportering → Kvalitetssikring → Publisering
    </text></g><g font-family="Arial, sans-serif"><text fill="#333" font-size="14" font-weight="bold" transform="translate(50 420)">Involverte parter:</text><text y="18" fill="#666" font-size="11" transform="translate(50 420)">• Regnskapsavdeling • Økonomisjef • Ledelse • Revisor • Styre</text></g></svg>