<svg width="800" height="600" viewBox="0 0 800 600" xmlns="http://www.w3.org/2000/svg">
  <defs>
    <linearGradient id="headerGradient" x1="0%" y1="0%" x2="100%" y2="0%">
      <stop offset="0%" style="stop-color:#7c3aed;stop-opacity:1" />
      <stop offset="100%" style="stop-color:#6d28d9;stop-opacity:1" />
    </linearGradient>
    <linearGradient id="cardGradient" x1="0%" y1="0%" x2="0%" y2="100%">
      <stop offset="0%" style="stop-color:#faf5ff;stop-opacity:1" />
      <stop offset="100%" style="stop-color:#e9d5ff;stop-opacity:1" />
    </linearGradient>
  </defs>
  
  <!-- Header -->
  <rect x="0" y="0" width="800" height="80" fill="url(#headerGradient)"/>
  <text x="400" y="50" text-anchor="middle" font-family="Arial, sans-serif" font-size="24" font-weight="bold" fill="white">Beste Praksis for Avregning</text>
  
  <!-- Organizational measures -->
  <rect x="50" y="120" width="340" height="220" fill="url(#cardGradient)" rx="10" stroke="#a855f7" stroke-width="2"/>
  <text x="220" y="150" text-anchor="middle" font-family="Arial, sans-serif" font-size="18" font-weight="bold" fill="#581c87">Organisatoriske Tiltak</text>
  
  <circle cx="80" cy="180" r="8" fill="#a855f7"/>
  <text x="100" y="186" font-family="Arial, sans-serif" font-size="14" fill="#581c87">Klare retningslinjer</text>
  
  <circle cx="80" cy="210" r="8" fill="#a855f7"/>
  <text x="100" y="216" font-family="Arial, sans-serif" font-size="14" fill="#581c87">Ansvarsdeling</text>
  
  <circle cx="80" cy="240" r="8" fill="#a855f7"/>
  <text x="100" y="246" font-family="Arial, sans-serif" font-size="14" fill="#581c87">Kompetanseutvikling</text>
  
  <circle cx="80" cy="270" r="8" fill="#a855f7"/>
  <text x="100" y="276" font-family="Arial, sans-serif" font-size="14" fill="#581c87">Regelmessig oppfølging</text>
  
  <circle cx="80" cy="300" r="8" fill="#a855f7"/>
  <text x="100" y="306" font-family="Arial, sans-serif" font-size="14" fill="#581c87">Kvalitetssikring</text>
  
  <!-- Technical measures -->
  <rect x="410" y="120" width="340" height="220" fill="url(#cardGradient)" rx="10" stroke="#a855f7" stroke-width="2"/>
  <text x="580" y="150" text-anchor="middle" font-family="Arial, sans-serif" font-size="18" font-weight="bold" fill="#581c87">Tekniske Tiltak</text>
  
  <circle cx="440" cy="180" r="8" fill="#a855f7"/>
  <text x="460" y="186" font-family="Arial, sans-serif" font-size="14" fill="#581c87">Systemintegrasjon</text>
  
  <circle cx="440" cy="210" r="8" fill="#a855f7"/>
  <text x="460" y="216" font-family="Arial, sans-serif" font-size="14" fill="#581c87">Automatisering</text>
  
  <circle cx="440" cy="240" r="8" fill="#a855f7"/>
  <text x="460" y="246" font-family="Arial, sans-serif" font-size="14" fill="#581c87">Rapporteringsverktøy</text>
  
  <circle cx="440" cy="270" r="8" fill="#a855f7"/>
  <text x="460" y="276" font-family="Arial, sans-serif" font-size="14" fill="#581c87">Backup og sikkerhet</text>
  
  <circle cx="440" cy="300" r="8" fill="#a855f7"/>
  <text x="460" y="306" font-family="Arial, sans-serif" font-size="14" fill="#581c87">Overvåking</text>
  
  <!-- Control measures -->
  <rect x="50" y="360" width="340" height="200" fill="#dcfce7" rx="10" stroke="#16a34a" stroke-width="2"/>
  <text x="220" y="390" text-anchor="middle" font-family="Arial, sans-serif" font-size="18" font-weight="bold" fill="#166534">Kontrollrutiner</text>
  
  <circle cx="80" cy="420" r="8" fill="#16a34a"/>
  <text x="100" y="426" font-family="Arial, sans-serif" font-size="14" fill="#166534">Månedlig avstemming</text>
  
  <circle cx="80" cy="450" r="8" fill="#16a34a"/>
  <text x="100" y="456" font-family="Arial, sans-serif" font-size="14" fill="#166534">Uavhengig kontroll</text>
  
  <circle cx="80" cy="480" r="8" fill="#16a34a"/>
  <text x="100" y="486" font-family="Arial, sans-serif" font-size="14" fill="#166534">Systematisk gjennomgang</text>
  
  <circle cx="80" cy="510" r="8" fill="#16a34a"/>
  <text x="100" y="516" font-family="Arial, sans-serif" font-size="14" fill="#166534">Trendanalyse</text>
  
  <!-- Future trends -->
  <rect x="410" y="360" width="340" height="200" fill="#fef3c7" rx="10" stroke="#f59e0b" stroke-width="2"/>
  <text x="580" y="390" text-anchor="middle" font-family="Arial, sans-serif" font-size="18" font-weight="bold" fill="#92400e">Fremtidige Trender</text>
  
  <circle cx="440" cy="420" r="8" fill="#f59e0b"/>
  <text x="460" y="426" font-family="Arial, sans-serif" font-size="14" fill="#92400e">Kunstig intelligens</text>
  
  <circle cx="440" cy="450" r="8" fill="#f59e0b"/>
  <text x="460" y="456" font-family="Arial, sans-serif" font-size="14" fill="#92400e">Blockchain</text>
  
  <circle cx="440" cy="480" r="8" fill="#f59e0b"/>
  <text x="460" y="486" font-family="Arial, sans-serif" font-size="14" fill="#92400e">Sanntidsrapportering</text>
  
  <circle cx="440" cy="510" r="8" fill="#f59e0b"/>
  <text x="460" y="516" font-family="Arial, sans-serif" font-size="14" fill="#92400e">Prediktiv analyse</text>
</svg>