<svg xmlns="http://www.w3.org/2000/svg" width="800" height="400"><defs><linearGradient id="a" x1="0%" x2="100%" y1="0%" y2="100%"><stop offset="0%" style="stop-color:#f8f9fa;stop-opacity:1"/><stop offset="100%" style="stop-color:#e9ecef;stop-opacity:1"/></linearGradient><linearGradient id="b" x1="0%" x2="100%" y1="0%" y2="0%"><stop offset="0%" style="stop-color:#06c;stop-opacity:1"/><stop offset="100%" style="stop-color:#049;stop-opacity:1"/></linearGradient></defs><path fill="url(#a)" stroke="#dee2e6" stroke-width="2" d="M0 0h800v400H0z"/><path fill="url(#b)" d="M0 0h800v60H0z"/><text x="400" y="35" fill="#fff" font-family="Arial, sans-serif" font-size="24" font-weight="bold" text-anchor="middle">
    Momsregnskap - MVA-regnskapsføring
  </text><g transform="translate(50 80)"><rect width="200" height="280" fill="#e3f2fd" stroke="#1976d2" stroke-width="2" rx="10"/><text x="100" y="25" fill="#1976d2" font-family="Arial, sans-serif" font-size="16" font-weight="bold" text-anchor="middle">
      Registrering
    </text><rect width="160" height="30" x="20" y="40" fill="#fff" stroke="#1976d2" rx="5"/><text x="100" y="58" fill="#333" font-family="Arial, sans-serif" font-size="12" text-anchor="middle">
      Fakturaer &amp; Bilag
    </text><rect width="160" height="30" x="20" y="80" fill="#fff" stroke="#1976d2" rx="5"/><text x="100" y="98" fill="#333" font-family="Arial, sans-serif" font-size="12" text-anchor="middle">
      Utgående MVA
    </text><rect width="160" height="30" x="20" y="120" fill="#fff" stroke="#1976d2" rx="5"/><text x="100" y="138" fill="#333" font-family="Arial, sans-serif" font-size="12" text-anchor="middle">
      Inngående MVA
    </text><rect width="160" height="30" x="20" y="160" fill="#fff" stroke="#1976d2" rx="5"/><text x="100" y="178" fill="#333" font-family="Arial, sans-serif" font-size="12" text-anchor="middle">
      Kontering
    </text><path fill="none" stroke="#666" stroke-width="3" marker-end="url(#c)" d="M210 140h40"/><rect width="200" height="160" x="260" y="60" fill="#fff3e0" stroke="#f57c00" stroke-width="2" rx="10"/><text x="360" y="85" fill="#f57c00" font-family="Arial, sans-serif" font-size="16" font-weight="bold" text-anchor="middle">
      Behandling
    </text><rect width="160" height="25" x="280" y="100" fill="#fff" stroke="#f57c00" rx="3"/><text x="360" y="116" fill="#333" font-family="Arial, sans-serif" font-size="11" text-anchor="middle">
      MVA-beregning
    </text><rect width="160" height="25" x="280" y="135" fill="#fff" stroke="#f57c00" rx="3"/><text x="360" y="151" fill="#333" font-family="Arial, sans-serif" font-size="11" text-anchor="middle">
      Avstemming
    </text><rect width="160" height="25" x="280" y="170" fill="#fff" stroke="#f57c00" rx="3"/><text x="360" y="186" fill="#333" font-family="Arial, sans-serif" font-size="11" text-anchor="middle">
      Kontroll
    </text><path fill="none" stroke="#666" stroke-width="3" marker-end="url(#c)" d="M470 140h40"/><rect width="200" height="280" x="520" fill="#e8f5e8" stroke="#4caf50" stroke-width="2" rx="10"/><text x="620" y="25" fill="#4caf50" font-family="Arial, sans-serif" font-size="16" font-weight="bold" text-anchor="middle">
      Rapportering
    </text><rect width="160" height="30" x="540" y="40" fill="#fff" stroke="#4caf50" rx="5"/><text x="620" y="58" fill="#333" font-family="Arial, sans-serif" font-size="12" text-anchor="middle">
      MVA-oppgave
    </text><rect width="160" height="30" x="540" y="80" fill="#fff" stroke="#4caf50" rx="5"/><text x="620" y="98" fill="#333" font-family="Arial, sans-serif" font-size="12" text-anchor="middle">
      Skatteetaten
    </text><rect width="160" height="30" x="540" y="120" fill="#fff" stroke="#4caf50" rx="5"/><text x="620" y="138" fill="#333" font-family="Arial, sans-serif" font-size="12" text-anchor="middle">
      Betaling
    </text><rect width="160" height="30" x="540" y="160" fill="#fff" stroke="#4caf50" rx="5"/><text x="620" y="178" fill="#333" font-family="Arial, sans-serif" font-size="12" text-anchor="middle">
      Dokumentasjon
    </text><rect width="500" height="40" x="100" y="240" fill="#f5f5f5" stroke="#999" rx="5"/><text x="350" y="255" fill="#666" font-family="Arial, sans-serif" font-size="14" font-weight="bold" text-anchor="middle">
      Hovedkontoer: 2700 (Utgående MVA) | 2701 (Inngående MVA) | 2702 (Oppgjør)
    </text><text x="350" y="270" fill="#666" font-family="Arial, sans-serif" font-size="12" text-anchor="middle">
      Netto MVA = Utgående MVA - Inngående MVA
    </text></g><defs><marker id="c" markerHeight="7" markerWidth="10" orient="auto" refX="9" refY="3.5"><path fill="#666" d="m0 0 10 3.5L0 7z"/></marker></defs></svg>