<svg xmlns="http://www.w3.org/2000/svg" width="800" height="500"><title>Konsekvenser ved brudd på bokføringsplikten</title><path fill="#f8f9fa" d="M0 0h800v500H0z"/><text x="400" y="40" fill="#2c3e50" font-family="Arial, sans-serif" font-size="24" font-weight="bold" text-anchor="middle">Konsekvenser ved Brudd på Bokføringsplikten</text><path fill="#e74c3c" stroke="#c0392b" stroke-width="3" d="m400 80 40 60h-80z"/><text x="400" y="120" fill="#fff" font-family="Arial, sans-serif" font-size="20" font-weight="bold" text-anchor="middle">!</text><text x="400" y="160" fill="#e74c3c" font-family="Arial, sans-serif" font-size="14" font-weight="bold" text-anchor="middle">BRUDD PÅ BOKFØRINGSPLIKT</text><rect width="200" height="120" x="50" y="200" fill="#f39c12" stroke="#e67e22" stroke-width="2" rx="10"/><text x="150" y="225" fill="#fff" font-family="Arial, sans-serif" font-size="14" font-weight="bold" text-anchor="middle">Administrative</text><text x="150" y="245" fill="#fff" font-family="Arial, sans-serif" font-size="14" font-weight="bold" text-anchor="middle">Sanksjoner</text><text x="150" y="270" fill="#fff" font-family="Arial, sans-serif" font-size="11" text-anchor="middle">• Tilleggsskatt (60%)</text><text x="150" y="285" fill="#fff" font-family="Arial, sans-serif" font-size="11" text-anchor="middle">• Forsinkelsesrenter</text><text x="150" y="300" fill="#fff" font-family="Arial, sans-serif" font-size="11" text-anchor="middle">• Gebyr og mulkt</text><rect width="200" height="120" x="300" y="200" fill="#e74c3c" stroke="#c0392b" stroke-width="2" rx="10"/><text x="400" y="225" fill="#fff" font-family="Arial, sans-serif" font-size="14" font-weight="bold" text-anchor="middle">Strafferettslige</text><text x="400" y="245" fill="#fff" font-family="Arial, sans-serif" font-size="14" font-weight="bold" text-anchor="middle">Konsekvenser</text><text x="400" y="270" fill="#fff" font-family="Arial, sans-serif" font-size="11" text-anchor="middle">• Bøter</text><text x="400" y="285" fill="#fff" font-family="Arial, sans-serif" font-size="11" text-anchor="middle">• Fengsel</text><text x="400" y="300" fill="#fff" font-family="Arial, sans-serif" font-size="11" text-anchor="middle">• Næringsforbud</text><rect width="200" height="120" x="550" y="200" fill="#9b59b6" stroke="#8e44ad" stroke-width="2" rx="10"/><text x="650" y="225" fill="#fff" font-family="Arial, sans-serif" font-size="14" font-weight="bold" text-anchor="middle">Sivile</text><text x="650" y="245" fill="#fff" font-family="Arial, sans-serif" font-size="14" font-weight="bold" text-anchor="middle">Konsekvenser</text><text x="650" y="270" fill="#fff" font-family="Arial, sans-serif" font-size="11" text-anchor="middle">• Kreditoransvar</text><text x="650" y="285" fill="#fff" font-family="Arial, sans-serif" font-size="11" text-anchor="middle">• Erstatningskrav</text><text x="650" y="300" fill="#fff" font-family="Arial, sans-serif" font-size="11" text-anchor="middle">• Omdømmeskade</text><path stroke="#34495e" stroke-width="2" marker-end="url(#a)" d="m380 150-230 50"/><path stroke="#34495e" stroke-width="2" marker-end="url(#a)" d="M400 150v50"/><path stroke="#34495e" stroke-width="2" marker-end="url(#a)" d="m420 150 230 50"/><defs><marker id="a" markerHeight="7" markerWidth="10" orient="auto" refX="9" refY="3.5"><path fill="#34495e" d="m0 0 10 3.5L0 7z"/></marker></defs><rect width="400" height="80" x="200" y="380" fill="#ecf0f1" stroke="#bdc3c7" rx="10"/><text x="400" y="405" fill="#2c3e50" font-family="Arial, sans-serif" font-size="14" font-weight="bold" text-anchor="middle">Alvorlighetsgrad</text><rect width="80" height="30" x="220" y="420" fill="#f39c12" rx="5"/><text x="260" y="440" fill="#fff" font-family="Arial, sans-serif" font-size="11" font-weight="bold" text-anchor="middle">Mindre brudd</text><rect width="80" height="30" x="320" y="420" fill="#e74c3c" rx="5"/><text x="360" y="440" fill="#fff" font-family="Arial, sans-serif" font-size="11" font-weight="bold" text-anchor="middle">Alvorlige brudd</text><rect width="80" height="30" x="420" y="420" fill="#8e44ad" rx="5"/><text x="460" y="440" fill="#fff" font-family="Arial, sans-serif" font-size="11" font-weight="bold" text-anchor="middle">Grove brudd</text></svg>