<svg xmlns="http://www.w3.org/2000/svg" width="600" height="400"><defs><linearGradient id="a" x1="0%" x2="100%" y1="0%" y2="100%"><stop offset="0%" style="stop-color:#3498db;stop-opacity:1"/><stop offset="100%" style="stop-color:#2980b9;stop-opacity:1"/></linearGradient><linearGradient id="b" x1="0%" x2="100%" y1="0%" y2="100%"><stop offset="0%" style="stop-color:#e74c3c;stop-opacity:1"/><stop offset="100%" style="stop-color:#c0392b;stop-opacity:1"/></linearGradient><linearGradient id="c" x1="0%" x2="100%" y1="0%" y2="100%"><stop offset="0%" style="stop-color:#27ae60;stop-opacity:1"/><stop offset="100%" style="stop-color:#229954;stop-opacity:1"/></linearGradient></defs><path fill="#f8f9fa" d="M0 0h600v400H0z"/><text x="300" y="30" fill="#2c3e50" font-family="Arial, sans-serif" font-size="22" font-weight="bold" text-anchor="middle">
    Digitale Arkivløsninger
  </text><g transform="translate(50 70)"><rect width="150" height="120" fill="url(#a)" stroke="#2980b9" stroke-width="2" rx="10"/><text x="75" y="20" fill="#fff" font-family="Arial, sans-serif" font-size="14" font-weight="bold" text-anchor="middle">
      Skybaserte tjenester
    </text><ellipse cx="45" cy="45" fill="#fff" opacity=".8" rx="15" ry="10"/><ellipse cx="60" cy="40" fill="#fff" opacity=".8" rx="18" ry="12"/><ellipse cx="75" cy="45" fill="#fff" opacity=".8" rx="15" ry="10"/><path fill="#fff" d="M30 45h60v10H30z" opacity=".8"/><text x="75" y="70" fill="#fff" font-family="Arial, sans-serif" font-size="10" text-anchor="middle">✓ Automatisk backup</text><text x="75" y="85" fill="#fff" font-family="Arial, sans-serif" font-size="10" text-anchor="middle">✓ Skalerbarhet</text><text x="75" y="100" fill="#fff" font-family="Arial, sans-serif" font-size="10" text-anchor="middle">✗ Internettavhengighet</text></g><g transform="translate(225 70)"><rect width="150" height="120" fill="url(#b)" stroke="#c0392b" stroke-width="2" rx="10"/><text x="75" y="20" fill="#fff" font-family="Arial, sans-serif" font-size="14" font-weight="bold" text-anchor="middle">
      Lokale systemer
    </text><rect width="40" height="25" x="55" y="35" fill="#fff" opacity=".8" rx="3"/><path fill="#c0392b" d="M60 40h30v3H60zM60 45h30v3H60zM60 50h30v3H60z"/><circle cx="85" cy="47" r="2" fill="#c0392b"/><text x="75" y="75" fill="#fff" font-family="Arial, sans-serif" font-size="10" text-anchor="middle">✓ Full kontroll</text><text x="75" y="90" fill="#fff" font-family="Arial, sans-serif" font-size="10" text-anchor="middle">✗ Høyere kostnader</text><text x="75" y="105" fill="#fff" font-family="Arial, sans-serif" font-size="10" text-anchor="middle">✗ Eget ansvar</text></g><g transform="translate(400 70)"><rect width="150" height="120" fill="url(#c)" stroke="#229954" stroke-width="2" rx="10"/><text x="75" y="20" fill="#fff" font-family="Arial, sans-serif" font-size="14" font-weight="bold" text-anchor="middle">
      ERP-integrerte
    </text><circle cx="60" cy="45" r="8" fill="#fff" opacity=".8"/><circle cx="90" cy="45" r="8" fill="#fff" opacity=".8"/><path stroke="#fff" stroke-width="3" d="M68 45h14"/><circle cx="75" cy="55" r="6" fill="#fff" opacity=".8"/><path stroke="#fff" stroke-width="2" d="M75 49v4"/><text x="75" y="75" fill="#fff" font-family="Arial, sans-serif" font-size="10" text-anchor="middle">✓ Automatisk arkivering</text><text x="75" y="90" fill="#fff" font-family="Arial, sans-serif" font-size="10" text-anchor="middle">✓ Integrert arbeidsflyt</text><text x="75" y="105" fill="#fff" font-family="Arial, sans-serif" font-size="10" text-anchor="middle">✓ Sporbarhet</text></g><text x="200" y="20" fill="#2c3e50" font-family="Arial, sans-serif" font-size="18" font-weight="bold" text-anchor="middle" transform="translate(100 220)">
      Implementeringsprosess
    </text><g transform="translate(100 260)"><circle cx="20" cy="20" r="15" fill="#3498db"/><text x="20" y="25" fill="#fff" font-family="Arial, sans-serif" font-size="12" font-weight="bold" text-anchor="middle">1</text><text x="45" y="15" fill="#2c3e50" font-family="Arial, sans-serif" font-size="12" font-weight="bold">Planlegging</text><text x="45" y="30" fill="#7f8c8d" font-family="Arial, sans-serif" font-size="10">Behovsanalyse &amp; kravspesifikasjon</text></g><g transform="translate(200 260)"><circle cx="20" cy="20" r="15" fill="#e74c3c"/><text x="20" y="25" fill="#fff" font-family="Arial, sans-serif" font-size="12" font-weight="bold" text-anchor="middle">2</text><text x="45" y="15" fill="#2c3e50" font-family="Arial, sans-serif" font-size="12" font-weight="bold">Implementering</text><text x="45" y="30" fill="#7f8c8d" font-family="Arial, sans-serif" font-size="10">Oppsett &amp; datamigrering</text></g><g transform="translate(300 260)"><circle cx="20" cy="20" r="15" fill="#27ae60"/><text x="20" y="25" fill="#fff" font-family="Arial, sans-serif" font-size="12" font-weight="bold" text-anchor="middle">3</text><text x="45" y="15" fill="#2c3e50" font-family="Arial, sans-serif" font-size="12" font-weight="bold">Drift</text><text x="45" y="30" fill="#7f8c8d" font-family="Arial, sans-serif" font-size="10">Overvåking &amp; vedlikehold</text></g><g transform="translate(400 260)"><circle cx="20" cy="20" r="15" fill="#f39c12"/><text x="20" y="25" fill="#fff" font-family="Arial, sans-serif" font-size="12" font-weight="bold" text-anchor="middle">4</text><text x="45" y="15" fill="#2c3e50" font-family="Arial, sans-serif" font-size="12" font-weight="bold">Compliance</text><text x="45" y="30" fill="#7f8c8d" font-family="Arial, sans-serif" font-size="10">Kontroll &amp; rapportering</text></g><path fill="none" stroke="#bdc3c7" stroke-width="2" marker-end="url(#d)" d="M35 60h60" transform="translate(100 220)"/><path fill="none" stroke="#bdc3c7" stroke-width="2" marker-end="url(#d)" d="M135 60h60" transform="translate(100 220)"/><path fill="none" stroke="#bdc3c7" stroke-width="2" marker-end="url(#d)" d="M235 60h60" transform="translate(100 220)"/><defs><marker id="d" markerHeight="7" markerWidth="10" orient="auto" refX="9" refY="3.5"><path fill="#bdc3c7" d="m0 0 10 3.5L0 7z"/></marker></defs><g fill="#2c3e50" font-family="Arial, sans-serif"><text x="150" y="20" font-size="16" font-weight="bold" text-anchor="middle" transform="translate(150 320)">
      Nøkkelfordeler med digitale løsninger
    </text><g font-size="11" transform="translate(150 320)"><circle cx="10" cy="40" r="4" fill="#27ae60"/><text x="20" y="44">Økt tilgjengelighet og søkbarhet</text><circle cx="160" cy="40" r="4" fill="#27ae60"/><text x="170" y="44">Automatisk backup og sikkerhet</text><circle cx="10" cy="60" r="4" fill="#27ae60"/><text x="20" y="64">Reduserte fysiske lagringskostnader</text><circle cx="160" cy="60" r="4" fill="#27ae60"/><text x="170" y="64">Enklere compliance og kontroll</text></g></g></svg>