<svg xmlns="http://www.w3.org/2000/svg" width="700" height="350"><path fill="#f8f9fa" d="M0 0h700v350H0z"/><text x="350" y="30" fill="#2c3e50" font-family="Arial, sans-serif" font-size="22" font-weight="bold" text-anchor="middle">
    Fremtidige Teknologier i Arkivering
  </text><g transform="translate(50 70)"><rect width="280" height="100" fill="#3498db" stroke="#2980b9" stroke-width="2" rx="10"/><text x="140" y="25" fill="#fff" font-family="Arial, sans-serif" font-size="16" font-weight="bold" text-anchor="middle">
      Kunstig Intelligens &amp; Automatisering
    </text><circle cx="60" cy="60" r="20" fill="#fff" opacity=".8"/><circle cx="55" cy="55" r="3" fill="#2980b9"/><circle cx="65" cy="55" r="3" fill="#2980b9"/><path fill="none" stroke="#2980b9" stroke-width="2" d="M50 65q10 10 20 0"/><text x="100" y="45" fill="#fff" font-family="Arial, sans-serif" font-size="11">• Automatisk klassifisering</text><text x="100" y="60" fill="#fff" font-family="Arial, sans-serif" font-size="11">• Intelligent søk</text><text x="100" y="75" fill="#fff" font-family="Arial, sans-serif" font-size="11">• Anomalideteksjon</text><text x="100" y="90" fill="#fff" font-family="Arial, sans-serif" font-size="11">• Prediktiv analyse</text></g><g transform="translate(370 70)"><rect width="280" height="100" fill="#e74c3c" stroke="#c0392b" stroke-width="2" rx="10"/><text x="140" y="25" fill="#fff" font-family="Arial, sans-serif" font-size="16" font-weight="bold" text-anchor="middle">
      Blockchain &amp; Distribuerte Systemer
    </text><rect width="15" height="15" x="40" y="40" fill="#fff" opacity=".8" rx="2"/><rect width="15" height="15" x="60" y="40" fill="#fff" opacity=".8" rx="2"/><rect width="15" height="15" x="80" y="40" fill="#fff" opacity=".8" rx="2"/><path stroke="#fff" stroke-width="2" d="M55 47h5M75 47h5"/><text x="120" y="45" fill="#fff" font-family="Arial, sans-serif" font-size="11">• Uforanderlighet</text><text x="120" y="60" fill="#fff" font-family="Arial, sans-serif" font-size="11">• Desentralisert lagring</text><text x="120" y="75" fill="#fff" font-family="Arial, sans-serif" font-size="11">• Smart kontrakter</text><text x="120" y="90" fill="#fff" font-family="Arial, sans-serif" font-size="11">• Tidsstempling</text></g><g transform="translate(50 190)"><rect width="280" height="100" fill="#27ae60" stroke="#229954" stroke-width="2" rx="10"/><text x="140" y="25" fill="#fff" font-family="Arial, sans-serif" font-size="16" font-weight="bold" text-anchor="middle">
      Skyteknologi &amp; Edge Computing
    </text><ellipse cx="50" cy="55" fill="#fff" opacity=".8" rx="12" ry="8"/><ellipse cx="60" cy="50" fill="#fff" opacity=".8" rx="15" ry="10"/><ellipse cx="70" cy="55" fill="#fff" opacity=".8" rx="12" ry="8"/><path fill="#fff" d="M38 55h44v8H38z" opacity=".8"/><circle cx="85" cy="60" r="5" fill="#fff" opacity=".6"/><text x="110" y="45" fill="#fff" font-family="Arial, sans-serif" font-size="11">• Hybrid sky-løsninger</text><text x="110" y="60" fill="#fff" font-family="Arial, sans-serif" font-size="11">• Edge computing</text><text x="110" y="75" fill="#fff" font-family="Arial, sans-serif" font-size="11">• Serverless arkitektur</text><text x="110" y="90" fill="#fff" font-family="Arial, sans-serif" font-size="11">• Multi-cloud strategier</text></g><g transform="translate(370 190)"><rect width="280" height="100" fill="#f39c12" stroke="#e67e22" stroke-width="2" rx="10"/><text x="140" y="25" fill="#fff" font-family="Arial, sans-serif" font-size="16" font-weight="bold" text-anchor="middle">
      Regulatoriske Endringer
    </text><rect width="25" height="30" x="45" y="40" fill="#fff" opacity=".8" rx="2"/><path fill="#e67e22" d="M50 45h15v2H50zM50 50h15v2H50zM50 55h15v2H50zM50 60h15v2H50z"/><circle cx="75" cy="52" r="8" fill="#fff" opacity=".8"/><text x="75" y="57" fill="#e67e22" font-family="Arial, sans-serif" font-size="8" text-anchor="middle">§</text><text x="100" y="45" fill="#fff" font-family="Arial, sans-serif" font-size="11">• Økt digitalisering</text><text x="100" y="60" fill="#fff" font-family="Arial, sans-serif" font-size="11">• Strengere sikkerhetskrav</text><text x="100" y="75" fill="#fff" font-family="Arial, sans-serif" font-size="11">• Miljøhensyn</text><text x="100" y="90" fill="#fff" font-family="Arial, sans-serif" font-size="11">• Internasjonale standarder</text></g><g transform="translate(100 310)"><text x="250" y="20" fill="#2c3e50" font-family="Arial, sans-serif" font-size="16" font-weight="bold" text-anchor="middle">
      Implementeringstidslinje
    </text><path stroke="#bdc3c7" stroke-width="3" d="M0 35h500"/><circle cx="50" cy="35" r="8" fill="#3498db"/><text x="50" y="55" fill="#2c3e50" font-family="Arial, sans-serif" font-size="10" font-weight="bold" text-anchor="middle">2024-2025</text><text x="50" y="68" fill="#7f8c8d" font-family="Arial, sans-serif" font-size="9" text-anchor="middle">AI-klassifisering</text><circle cx="200" cy="35" r="8" fill="#e74c3c"/><text x="200" y="55" fill="#2c3e50" font-family="Arial, sans-serif" font-size="10" font-weight="bold" text-anchor="middle">2026-2027</text><text x="200" y="68" fill="#7f8c8d" font-family="Arial, sans-serif" font-size="9" text-anchor="middle">Blockchain-arkiv</text><circle cx="350" cy="35" r="8" fill="#27ae60"/><text x="350" y="55" fill="#2c3e50" font-family="Arial, sans-serif" font-size="10" font-weight="bold" text-anchor="middle">2028-2030</text><text x="350" y="68" fill="#7f8c8d" font-family="Arial, sans-serif" font-size="9" text-anchor="middle">Full automatisering</text><circle cx="450" cy="35" r="8" fill="#f39c12"/><text x="450" y="55" fill="#2c3e50" font-family="Arial, sans-serif" font-size="10" font-weight="bold" text-anchor="middle">2030+</text><text x="450" y="68" fill="#7f8c8d" font-family="Arial, sans-serif" font-size="9" text-anchor="middle">Nye standarder</text></g></svg>