<svg xmlns="http://www.w3.org/2000/svg" width="800" height="600" viewBox="0 0 800 600"><path fill="#f8f9fa" d="M0 0h800v600H0z"/><text x="400" y="40" fill="#2c3e50" font-family="Arial, sans-serif" font-size="24" font-weight="bold" text-anchor="middle">
    Cloud-basert Kassasystem Arkitektur
  </text><g transform="translate(300 80)"><ellipse cx="100" cy="60" fill="#3498db" opacity=".8" rx="80" ry="50"/><ellipse cx="60" cy="50" fill="#3498db" opacity=".8" rx="50" ry="35"/><ellipse cx="140" cy="50" fill="#3498db" opacity=".8" rx="50" ry="35"/><text x="100" y="50" fill="#fff" font-family="Arial, sans-serif" font-size="16" font-weight="bold" text-anchor="middle">
      CLOUD
    </text><text x="100" y="70" fill="#fff" font-family="Arial, sans-serif" font-size="14" text-anchor="middle">
      KASSASYSTEM
    </text><g transform="translate(20 120)"><rect width="50" height="30" fill="#2980b9" rx="5"/><text x="25" y="20" fill="#fff" font-family="Arial, sans-serif" font-size="10" text-anchor="middle">Database</text><rect width="50" height="30" x="60" fill="#2980b9" rx="5"/><text x="85" y="20" fill="#fff" font-family="Arial, sans-serif" font-size="10" text-anchor="middle">API</text><rect width="50" height="30" x="120" fill="#2980b9" rx="5"/><text x="145" y="20" fill="#fff" font-family="Arial, sans-serif" font-size="10" text-anchor="middle">Backup</text></g></g><g transform="translate(50 250)"><rect width="100" height="80" fill="#34495e" rx="10"/><path fill="#3498db" d="M10 10h80v50H10z"/><text x="50" y="30" fill="#fff" font-family="Arial, sans-serif" font-size="10" text-anchor="middle">KASSE 1</text><text x="50" y="45" fill="#fff" font-family="Arial, sans-serif" font-size="8" text-anchor="middle">Butikk</text><rect width="70" height="20" x="15" y="70" fill="#95a5a6" rx="3"/><g fill="none" stroke="#27ae60" stroke-width="3" marker-end="url(#a)"><defs><marker id="a" markerHeight="7" markerWidth="10" orient="auto" refX="9" refY="3.5"><path fill="#27ae60" d="m0 0 10 3.5L0 7z"/></marker></defs><path d="M100 290q100-40 200-110"/></g><text x="50" y="110" fill="#2c3e50" font-family="Arial, sans-serif" font-size="10" text-anchor="middle">WiFi/4G</text></g><g transform="translate(200 350)"><rect width="100" height="80" fill="#34495e" rx="10"/><path fill="#3498db" d="M10 10h80v50H10z"/><text x="50" y="30" fill="#fff" font-family="Arial, sans-serif" font-size="10" text-anchor="middle">KASSE 2</text><text x="50" y="45" fill="#fff" font-family="Arial, sans-serif" font-size="8" text-anchor="middle">Lager</text><rect width="70" height="20" x="15" y="70" fill="#95a5a6" rx="3"/><path fill="none" stroke="#27ae60" stroke-width="3" marker-end="url(#a)" d="M250 350q70-70 130-170"/><text x="50" y="110" fill="#2c3e50" font-family="Arial, sans-serif" font-size="10" text-anchor="middle">WiFi/4G</text></g><g transform="translate(550 280)"><rect width="60" height="100" fill="#2c3e50" rx="15"/><path fill="#3498db" d="M5 15h50v70H5z"/><text x="30" y="40" fill="#fff" font-family="Arial, sans-serif" font-size="8" text-anchor="middle">MOBIL</text><text x="30" y="55" fill="#fff" font-family="Arial, sans-serif" font-size="8" text-anchor="middle">KASSE</text><text x="30" y="70" fill="#fff" font-family="Arial, sans-serif" font-size="8" text-anchor="middle">Marked</text><circle cx="30" cy="90" r="5" fill="#95a5a6"/><path fill="none" stroke="#27ae60" stroke-width="3" marker-end="url(#a)" d="M550 320q-50-70-70-140"/><text x="30" y="125" fill="#2c3e50" font-family="Arial, sans-serif" font-size="10" text-anchor="middle">4G/5G</text></g><g transform="translate(650 350)"><rect width="80" height="60" fill="#2c3e50" rx="10"/><path fill="#3498db" d="M5 5h70v50H5z"/><text x="40" y="25" fill="#fff" font-family="Arial, sans-serif" font-size="8" text-anchor="middle">TABLET</text><text x="40" y="40" fill="#fff" font-family="Arial, sans-serif" font-size="8" text-anchor="middle">Restaurant</text><path fill="none" stroke="#27ae60" stroke-width="3" marker-end="url(#a)" d="M650 370q-70-70-130-190"/><text x="40" y="80" fill="#2c3e50" font-family="Arial, sans-serif" font-size="10" text-anchor="middle">WiFi</text></g><text fill="#2c3e50" font-family="Arial, sans-serif" font-size="16" font-weight="bold" transform="translate(50 450)">Integrerte Systemer:</text><g transform="translate(50 480)"><rect width="120" height="40" fill="#e74c3c" rx="5"/><text x="60" y="25" fill="#fff" font-family="Arial, sans-serif" font-size="12" text-anchor="middle">Regnskapssystem</text><g fill="none" stroke="#e74c3c" stroke-width="2" marker-end="url(#b)"><defs><marker id="b" markerHeight="6" markerWidth="8" orient="auto" refX="7" refY="3"><path fill="#e74c3c" d="m0 0 8 3-8 3z"/></marker></defs><path d="M120 500q80-100 180-300"/></g></g><g transform="translate(200 480)"><rect width="120" height="40" fill="#f39c12" rx="5"/><text x="60" y="25" fill="#fff" font-family="Arial, sans-serif" font-size="12" text-anchor="middle">Lagersystem</text><g fill="none" stroke="#f39c12" stroke-width="2" marker-end="url(#c)"><defs><marker id="c" markerHeight="6" markerWidth="8" orient="auto" refX="7" refY="3"><path fill="#f39c12" d="m0 0 8 3-8 3z"/></marker></defs><path d="M270 500q50-100 110-300"/></g></g><g transform="translate(350 480)"><rect width="120" height="40" fill="#9b59b6" rx="5"/><text x="60" y="25" fill="#fff" font-family="Arial, sans-serif" font-size="12" text-anchor="middle">Nettbutikk</text><g fill="none" stroke="#9b59b6" stroke-width="2" marker-end="url(#d)"><defs><marker id="d" markerHeight="6" markerWidth="8" orient="auto" refX="7" refY="3"><path fill="#9b59b6" d="m0 0 8 3-8 3z"/></marker></defs><path d="M420 500q20-100 40-300"/></g></g><g transform="translate(500 480)"><rect width="120" height="40" fill="#27ae60" rx="5"/><text x="60" y="25" fill="#fff" font-family="Arial, sans-serif" font-size="12" text-anchor="middle">Betalingsterminal</text><g fill="none" stroke="#27ae60" stroke-width="2" marker-end="url(#e)"><defs><marker id="e" markerHeight="6" markerWidth="8" orient="auto" refX="7" refY="3"><path fill="#27ae60" d="m0 0 8 3-8 3z"/></marker></defs><path d="M570 500q-30-100-50-300"/></g></g><g transform="translate(600 450)"><rect width="180" height="120" fill="#ecf0f1" stroke="#bdc3c7" stroke-width="2" rx="10"/><text x="90" y="20" fill="#2c3e50" font-family="Arial, sans-serif" font-size="14" font-weight="bold" text-anchor="middle">
      Cloud Fordeler
    </text><text x="10" y="40" fill="#27ae60" font-family="Arial, sans-serif" font-size="11">✓ Tilgang overalt</text><text x="10" y="55" fill="#27ae60" font-family="Arial, sans-serif" font-size="11">✓ Automatisk backup</text><text x="10" y="70" fill="#27ae60" font-family="Arial, sans-serif" font-size="11">✓ Sanntids synkronisering</text><text x="10" y="85" fill="#27ae60" font-family="Arial, sans-serif" font-size="11">✓ Automatiske oppdateringer</text><text x="10" y="100" fill="#27ae60" font-family="Arial, sans-serif" font-size="11">✓ Skalerbar løsning</text></g><g font-family="Arial, sans-serif"><text fill="#27ae60" font-size="12" transform="translate(100 200)">Sanntids dataflyt</text><text y="15" fill="#7f8c8d" font-size="10" transform="translate(100 200)">• Salgsdata</text><text y="28" fill="#7f8c8d" font-size="10" transform="translate(100 200)">• Lageroppdateringer</text><text y="41" fill="#7f8c8d" font-size="10" transform="translate(100 200)">• Rapporter</text></g></svg>