<svg xmlns="http://www.w3.org/2000/svg" width="800" height="500"><path fill="#f8fafc" d="M0 0h800v500H0z"/><text x="400" y="30" fill="#1f2937" font-size="24" font-weight="bold" text-anchor="middle">Feriepenger under Sykdom</text><rect width="700" height="40" x="50" y="60" fill="#1e40af" rx="8"/><text x="400" y="85" fill="#fff" font-size="16" font-weight="bold" text-anchor="middle">Sammenligning: Normal m친ned vs. Sykepengem친ned</text><rect width="330" height="200" x="50" y="120" fill="#ecfdf5" stroke="#10b981" stroke-width="2" rx="8"/><text x="215" y="145" fill="#065f46" font-size="18" font-weight="bold" text-anchor="middle">Normal m친ned</text><text x="70" y="170" fill="#065f46" font-size="14" font-weight="bold">M친nedsl칮nn: 50.000 kr</text><text x="70" y="190" fill="#065f46" font-size="12">Grunnlag for feriepenger: 50.000 kr</text><text x="70" y="210" fill="#065f46" font-size="12">Feriepengeoppbokking (12%): 6.000 kr</text><rect width="290" height="80" x="70" y="230" fill="#fff" stroke="#d1d5db" rx="4"/><text x="80" y="250" fill="#1f2937" font-size="12" font-weight="bold">Regnskapsf칮ring:</text><text x="80" y="270" fill="#374151" font-size="11">Debet: L칮nnskostnad 50.000</text><text x="80" y="285" fill="#374151" font-size="11">Kredit: Utbetalt l칮nn 50.000</text><text x="80" y="300" fill="#10b981" font-size="11" font-weight="bold">Debet: Feriepengekostand 6.000</text><text x="80" y="300" fill="#10b981" font-size="11" font-weight="bold">Kredit: Feriepengegjeld 6.000</text><rect width="330" height="200" x="420" y="120" fill="#fee2e2" stroke="#ef4444" stroke-width="2" rx="8"/><text x="585" y="145" fill="#dc2626" font-size="18" font-weight="bold" text-anchor="middle">Sykepengem친ned (NAV)</text><text x="440" y="170" fill="#dc2626" font-size="14" font-weight="bold">L칮nn fra arbeidsgiver: 0 kr</text><text x="440" y="190" fill="#dc2626" font-size="12">Sykepenger fra NAV: 50.000 kr</text><text x="440" y="210" fill="#dc2626" font-size="12">Feriepengeoppbokking: 0 kr</text><rect width="290" height="80" x="440" y="230" fill="#fff" stroke="#d1d5db" rx="4"/><text x="450" y="250" fill="#1f2937" font-size="12" font-weight="bold">Regnskapsf칮ring:</text><text x="450" y="270" fill="#374151" font-size="11">Debet: L칮nnskostnad 50.000</text><text x="450" y="285" fill="#374151" font-size="11">Kredit: Utbetalt l칮nn 50.000</text><text x="450" y="300" fill="#ef4444" font-size="11">Ingen feriepengeoppbokking</text><rect width="700" height="120" x="50" y="340" fill="#fff" stroke="#d1d5db" rx="8"/><text x="400" y="365" fill="#1f2937" font-size="16" font-weight="bold" text-anchor="middle">Feriepengeoppbokking sammenligning</text><path fill="#f3f4f6" d="M50 375h700v25H50z"/><text x="80" y="392" fill="#1f2937" font-size="12" font-weight="bold">Periode</text><text x="200" y="392" fill="#1f2937" font-size="12" font-weight="bold">L칮nnsgrunnlag</text><text x="350" y="392" fill="#1f2937" font-size="12" font-weight="bold">Feriepengegrunnlag</text><text x="520" y="392" fill="#1f2937" font-size="12" font-weight="bold">Feriepengeoppbokking</text><text x="680" y="392" fill="#1f2937" font-size="12" font-weight="bold">Effekt</text><path stroke="#e5e7eb" d="M50 400h700"/><text x="80" y="418" fill="#374151" font-size="11">Normal m친ned</text><text x="200" y="418" fill="#374151" font-size="11">50.000 kr</text><text x="350" y="418" fill="#374151" font-size="11">50.000 kr</text><text x="520" y="418" fill="#374151" font-size="11">6.000 kr</text><text x="680" y="418" fill="#10b981" font-size="11">+6.000</text><path stroke="#e5e7eb" d="M50 425h700"/><text x="80" y="443" fill="#374151" font-size="11">Sykepengem친ned</text><text x="200" y="443" fill="#374151" font-size="11">0 kr (arbeidsgiver)</text><text x="350" y="443" fill="#374151" font-size="11">0 kr</text><text x="520" y="443" fill="#374151" font-size="11">0 kr</text><text x="680" y="443" fill="#ef4444" font-size="11">-6.000</text><rect width="700" height="25" x="50" y="470" fill="#fef9e7" stroke="#f59e0b" rx="4"/><text x="60" y="487" fill="#92400e" font-size="12">游눠 Redusert feriepengeforpliktelse gir positiv effekt p친 arbeidsgivers kontantstr칮m og resultat</text><path stroke="#d1d5db" d="M190 375v75M340 375v75M510 375v75M670 375v75"/></svg>