<svg width="800" height="500" xmlns="http://www.w3.org/2000/svg">
  <!-- Background -->
  <rect width="800" height="500" fill="#f8fafc"/>
  
  <!-- Title -->
  <text x="400" y="30" text-anchor="middle" font-size="24" font-weight="bold" fill="#1f2937">Gradert Sykemelding - Beregning og Utbetaling</text>
  
  <!-- Example scenario -->
  <rect x="50" y="60" width="700" height="60" fill="#dbeafe" stroke="#3b82f6" stroke-width="2" rx="8"/>
  <text x="400" y="85" text-anchor="middle" font-size="16" font-weight="bold" fill="#1d4ed8">Eksempel: Ansatt med 60% sykemelding</text>
  <text x="400" y="105" text-anchor="middle" font-size="14" fill="#1d4ed8">Månedslønn: 50.000 kr | Arbeidsgrad: 40% | Sykemeldingsgrad: 60%</text>
  
  <!-- Visual representation -->
  <rect x="100" y="150" width="600" height="80" fill="white" stroke="#d1d5db" stroke-width="2" rx="8"/>
  
  <!-- Work portion -->
  <rect x="120" y="170" width="240" height="40" fill="#10b981" rx="4"/>
  <text x="240" y="195" text-anchor="middle" font-size="14" font-weight="bold" fill="white">40% Arbeid</text>
  <text x="240" y="225" text-anchor="middle" font-size="12" fill="#065f46">20.000 kr fra arbeidsgiver</text>
  
  <!-- Sick leave portion -->
  <rect x="360" y="170" width="320" height="40" fill="#f59e0b" rx="4"/>
  <text x="520" y="195" text-anchor="middle" font-size="14" font-weight="bold" fill="white">60% Sykmeldt</text>
  <text x="520" y="225" text-anchor="middle" font-size="12" fill="#92400e">30.000 kr fra NAV</text>
  
  <!-- Calculation breakdown -->
  <rect x="50" y="260" width="350" height="200" fill="#ecfdf5" stroke="#10b981" stroke-width="2" rx="8"/>
  <text x="225" y="285" text-anchor="middle" font-size="18" font-weight="bold" fill="#065f46">Beregning</text>
  
  <text x="70" y="310" font-size="14" fill="#065f46" font-weight="bold">Arbeidsandel (40%):</text>
  <text x="70" y="330" font-size="12" fill="#065f46">50.000 kr × 40% = 20.000 kr</text>
  <text x="70" y="345" font-size="12" fill="#065f46">Utbetales av: Arbeidsgiver</text>
  <text x="70" y="360" font-size="12" fill="#065f46">Regnskapsføring: Ordinær lønn</text>
  
  <text x="70" y="385" font-size="14" fill="#065f46" font-weight="bold">Sykepengeandel (60%):</text>
  <text x="70" y="405" font-size="12" fill="#065f46">50.000 kr × 60% = 30.000 kr</text>
  <text x="70" y="420" font-size="12" fill="#065f46">Utbetales av: NAV (refusjon)</text>
  <text x="70" y="435" font-size="12" fill="#065f46">Regnskapsføring: Fordring NAV</text>
  
  <!-- Accounting entries -->
  <rect x="420" y="260" width="330" height="200" fill="#fef3c7" stroke="#f59e0b" stroke-width="2" rx="8"/>
  <text x="585" y="285" text-anchor="middle" font-size="18" font-weight="bold" fill="#92400e">Regnskapsføring</text>
  
  <!-- Entry 1 -->
  <rect x="440" y="300" width="290" height="50" fill="white" stroke="#d1d5db" stroke-width="1" rx="4"/>
  <text x="450" y="320" font-size="12" font-weight="bold" fill="#1f2937">Arbeidsandel (20.000 kr):</text>
  <text x="450" y="335" font-size="11" fill="#374151">Debet: Lønnskostnad 20.000</text>
  <text x="450" y="345" font-size="11" fill="#374151">Kredit: Utbetalt lønn 20.000</text>
  
  <!-- Entry 2 -->
  <rect x="440" y="360" width="290" height="60" fill="white" stroke="#d1d5db" stroke-width="1" rx="4"/>
  <text x="450" y="380" font-size="12" font-weight="bold" fill="#1f2937">Sykepengeandel (30.000 kr):</text>
  <text x="450" y="395" font-size="11" fill="#374151">Debet: Lønnskostnad 30.000</text>
  <text x="450" y="405" font-size="11" fill="#374151">Kredit: Utbetalt lønn 30.000</text>
  <text x="450" y="415" font-size="11" fill="#6b7280">(Ved utbetaling)</text>
  
  <!-- Entry 3 -->
  <rect x="440" y="430" width="290" height="25" fill="white" stroke="#d1d5db" stroke-width="1" rx="4"/>
  <text x="450" y="445" font-size="11" fill="#374151">Debet: Fordring NAV 30.000 | Kredit: Lønnskostnad 30.000</text>
  
  <!-- Key benefits -->
  <rect x="50" y="480" width="700" height="15" fill="#e0f2fe" stroke="#0284c7" stroke-width="1" rx="4"/>
  <text x="60" y="492" font-size="12" fill="#0c4a6e">💡 Gradert sykemelding gir ansatte mulighet til gradvis tilbakekomst og opprettholder kompetanse</text>
</svg>