<svg xmlns="http://www.w3.org/2000/svg" width="800" height="500"><path fill="#f8fafc" d="M0 0h800v500H0z"/><text x="400" y="30" fill="#1f2937" font-size="24" font-weight="bold" text-anchor="middle">Sykepengeperioder og Ansvar</text><path stroke="#374151" stroke-width="3" d="M100 100h600"/><rect width="40" height="60" x="100" y="70" fill="#fee2e2" stroke="#ef4444" stroke-width="2" rx="4"/><text x="120" y="105" fill="#dc2626" font-size="14" font-weight="bold" text-anchor="middle">Dag 1</text><text x="120" y="50" fill="#374151" font-size="12" text-anchor="middle">Egenandel</text><text x="120" y="160" fill="#dc2626" font-size="12" text-anchor="middle">Ikke dekket</text><text x="120" y="175" fill="#dc2626" font-size="12" text-anchor="middle">Arbeidstaker</text><rect width="200" height="60" x="150" y="70" fill="#fef3c7" stroke="#f59e0b" stroke-width="2" rx="4"/><text x="250" y="105" fill="#92400e" font-size="14" font-weight="bold" text-anchor="middle">Dag 2-16</text><text x="250" y="50" fill="#374151" font-size="12" text-anchor="middle">Arbeidsgiverperiode</text><text x="250" y="160" fill="#92400e" font-size="12" text-anchor="middle">100% av lønn</text><text x="250" y="175" fill="#92400e" font-size="12" text-anchor="middle">Arbeidsgiver betaler</text><rect width="300" height="60" x="360" y="70" fill="#d1fae5" stroke="#10b981" stroke-width="2" rx="4"/><text x="510" y="105" fill="#065f46" font-size="14" font-weight="bold" text-anchor="middle">Dag 17-364</text><text x="510" y="50" fill="#374151" font-size="12" text-anchor="middle">NAV-periode</text><text x="510" y="160" fill="#065f46" font-size="12" text-anchor="middle">100% av lønn (maks 6G)</text><text x="510" y="175" fill="#065f46" font-size="12" text-anchor="middle">NAV betaler/refunderer</text><rect width="700" height="200" x="50" y="220" fill="#fff" stroke="#d1d5db" rx="8"/><rect width="700" height="30" x="50" y="220" fill="#f3f4f6" rx="8 8 0 0"/><text x="80" y="240" fill="#1f2937" font-size="14" font-weight="bold">Periode</text><text x="200" y="240" fill="#1f2937" font-size="14" font-weight="bold">Ansvarlig</text><text x="320" y="240" fill="#1f2937" font-size="14" font-weight="bold">Dekning</text><text x="480" y="240" fill="#1f2937" font-size="14" font-weight="bold">Finansiering</text><text x="620" y="240" fill="#1f2937" font-size="14" font-weight="bold">Dokumentasjon</text><path stroke="#e5e7eb" d="M50 250h700"/><text x="80" y="270" fill="#374151" font-size="12">Dag 1</text><text x="200" y="270" fill="#374151" font-size="12">Arbeidstaker</text><text x="320" y="270" fill="#374151" font-size="12">Ingen</text><text x="480" y="270" fill="#374151" font-size="12">Egenandel</text><text x="620" y="270" fill="#374151" font-size="12">-</text><path stroke="#e5e7eb" d="M50 280h700"/><text x="80" y="300" fill="#374151" font-size="12">Dag 2-16</text><text x="200" y="300" fill="#374151" font-size="12">Arbeidsgiver</text><text x="320" y="300" fill="#374151" font-size="12">100% av lønn</text><text x="480" y="300" fill="#374151" font-size="12">Arbeidsgiver</text><text x="620" y="300" fill="#374151" font-size="12">Egenmelding/sykemelding</text><path stroke="#e5e7eb" d="M50 310h700"/><text x="80" y="330" fill="#374151" font-size="12">Dag 17-364</text><text x="200" y="330" fill="#374151" font-size="12">NAV</text><text x="320" y="330" fill="#374151" font-size="12">100% (maks 6G)</text><text x="480" y="330" fill="#374151" font-size="12">Folketrygden</text><text x="620" y="330" fill="#374151" font-size="12">Sykemelding fra lege</text><rect width="600" height="40" x="100" y="450" fill="#fef9e7" stroke="#f59e0b" rx="4"/><text x="120" y="470" fill="#92400e" font-size="12" font-weight="bold">Viktig:</text><text x="170" y="470" fill="#92400e" font-size="12">Inntektsmelding må sendes til NAV innen 17 dager for refusjon fra dag 17</text><path stroke="#d1d5db" d="M190 220v200M310 220v200M470 220v200M610 220v200"/></svg>