<svg xmlns="http://www.w3.org/2000/svg" width="800" height="400" viewBox="0 0 800 400"><defs><linearGradient id="a" x1="0%" x2="100%" y1="0%" y2="100%"><stop offset="0%" style="stop-color:#1e3a8a;stop-opacity:1"/><stop offset="100%" style="stop-color:#3b82f6;stop-opacity:1"/></linearGradient><linearGradient id="b" x1="0%" x2="0%" y1="0%" y2="100%"><stop offset="0%" style="stop-color:#fff;stop-opacity:1"/><stop offset="100%" style="stop-color:#f8fafc;stop-opacity:1"/></linearGradient></defs><path fill="#f1f5f9" d="M0 0h800v400H0z"/><path fill="url(#a)" d="M0 0h800v80H0z"/><text x="400" y="35" fill="#fff" font-family="Arial, sans-serif" font-size="24" font-weight="bold" text-anchor="middle">Hva er purring og purregebyr?</text><text x="400" y="60" fill="#e2e8f0" font-family="Arial, sans-serif" font-size="14" text-anchor="middle">Guide til oppfølging av forfalte fakturaer</text><rect width="700" height="260" x="50" y="110" fill="url(#b)" stroke="#e2e8f0" stroke-width="2" rx="10"/><rect width="120" height="160" x="80" y="140" fill="#fff" stroke="#64748b" stroke-width="2" rx="5"/><rect width="100" height="8" x="90" y="150" fill="#ef4444" rx="2"/><rect width="80" height="6" x="90" y="170" fill="#64748b" rx="1"/><rect width="90" height="6" x="90" y="185" fill="#64748b" rx="1"/><rect width="70" height="6" x="90" y="200" fill="#64748b" rx="1"/><path fill="#f59e0b" stroke="#d97706" d="m150 220-10 20h20z"/><text x="150" y="235" fill="#fff" font-family="Arial, sans-serif" font-size="12" font-weight="bold" text-anchor="middle">!</text><circle cx="280" cy="170" r="25" fill="#10b981" stroke="#059669" stroke-width="2"/><text x="280" y="175" fill="#fff" font-family="Arial, sans-serif" font-size="12" font-weight="bold" text-anchor="middle">1</text><text x="280" y="205" fill="#374151" font-family="Arial, sans-serif" font-size="11" text-anchor="middle">Forfall</text><path stroke="#64748b" stroke-width="2" marker-end="url(#c)" d="M305 170h30"/><circle cx="360" cy="170" r="25" fill="#f59e0b" stroke="#d97706" stroke-width="2"/><text x="360" y="175" fill="#fff" font-family="Arial, sans-serif" font-size="12" font-weight="bold" text-anchor="middle">2</text><text x="360" y="205" fill="#374151" font-family="Arial, sans-serif" font-size="11" text-anchor="middle">Purring</text><path stroke="#64748b" stroke-width="2" marker-end="url(#c)" d="M385 170h30"/><circle cx="440" cy="170" r="25" fill="#ef4444" stroke="#dc2626" stroke-width="2"/><text x="440" y="175" fill="#fff" font-family="Arial, sans-serif" font-size="12" font-weight="bold" text-anchor="middle">₹</text><text x="440" y="205" fill="#374151" font-family="Arial, sans-serif" font-size="11" text-anchor="middle">Gebyr</text><text x="520" y="150" fill="#1e293b" font-family="Arial, sans-serif" font-size="16" font-weight="bold">Purregebyr 2024:</text><text x="520" y="175" fill="#374151" font-family="Arial, sans-serif" font-size="14">• 1. purring: 70 kr</text><text x="520" y="195" fill="#374151" font-family="Arial, sans-serif" font-size="14">• 2. purring: 140 kr</text><text x="520" y="215" fill="#374151" font-family="Arial, sans-serif" font-size="14">• 3. purring: 210 kr</text><text x="520" y="250" fill="#1e293b" font-family="Arial, sans-serif" font-size="14" font-weight="bold">Regnskapsføring:</text><text x="520" y="270" fill="#374151" font-family="Arial, sans-serif" font-size="12">Andre inntekter (uten mva)</text><text x="520" y="285" fill="#374151" font-family="Arial, sans-serif" font-size="12">Tillegg til kundefordring</text><circle cx="650" cy="250" r="30" fill="#16a34a" stroke="#15803d" stroke-width="2"/><text x="650" y="260" fill="#fff" font-family="Arial, sans-serif" font-size="24" font-weight="bold" text-anchor="middle">kr</text><defs><marker id="c" markerHeight="7" markerWidth="10" orient="auto" refX="9" refY="3.5"><path fill="#64748b" d="m0 0 10 3.5L0 7z"/></marker></defs></svg>