<svg xmlns="http://www.w3.org/2000/svg" width="800" height="600" viewBox="0 0 800 600"><defs><linearGradient id="b" x1="0%" x2="100%" y1="0%" y2="0%"><stop offset="0%" style="stop-color:#10b981;stop-opacity:1"/><stop offset="100%" style="stop-color:#059669;stop-opacity:1"/></linearGradient><linearGradient id="c" x1="0%" x2="100%" y1="0%" y2="0%"><stop offset="0%" style="stop-color:#3b82f6;stop-opacity:1"/><stop offset="100%" style="stop-color:#1d4ed8;stop-opacity:1"/></linearGradient><linearGradient id="d" x1="0%" x2="100%" y1="0%" y2="0%"><stop offset="0%" style="stop-color:#f59e0b;stop-opacity:1"/><stop offset="100%" style="stop-color:#d97706;stop-opacity:1"/></linearGradient><linearGradient id="e" x1="0%" x2="100%" y1="0%" y2="0%"><stop offset="0%" style="stop-color:#ef4444;stop-opacity:1"/><stop offset="100%" style="stop-color:#dc2626;stop-opacity:1"/></linearGradient><filter id="a" width="200%" height="200%" x="-50%" y="-50%"><feDropShadow dx="2" dy="2" flood-color="#000" flood-opacity=".1" stdDeviation="3"/></filter></defs><path fill="#f1f5f9" d="M0 0h800v600H0z"/><path fill="#1e293b" d="M0 0h800v80H0z"/><text x="50" y="35" fill="#fff" font-family="Arial, sans-serif" font-size="24" font-weight="bold">Purreoppfølging Dashboard</text><text x="50" y="55" fill="#94a3b8" font-family="Arial, sans-serif" font-size="14">Nøkkeltall for måned: Oktober 2024</text><text x="650" y="35" fill="#94a3b8" font-family="Arial, sans-serif" font-size="12">Sist oppdatert:</text><text x="650" y="55" fill="#e2e8f0" font-family="Arial, sans-serif" font-size="12">15. oktober 2024</text><rect width="160" height="120" x="50" y="110" fill="#fff" stroke="#e2e8f0" stroke-width="2" filter="url(#a)" rx="10"/><rect width="160" height="40" x="50" y="110" fill="url(#b)" rx="10 10 0 0"/><text x="130" y="135" fill="#fff" font-family="Arial, sans-serif" font-size="12" font-weight="bold" text-anchor="middle">Innbetalingstid</text><text x="130" y="175" fill="#059669" font-family="Arial, sans-serif" font-size="32" font-weight="bold" text-anchor="middle">24</text><text x="130" y="195" fill="#059669" font-family="Arial, sans-serif" font-size="14" text-anchor="middle">dager</text><text x="130" y="210" fill="#64748b" font-family="Arial, sans-serif" font-size="10" text-anchor="middle">Mål: &lt; 30 dager</text><circle cx="190" cy="215" r="6" fill="#10b981"/><text x="190" y="220" fill="#fff" font-family="Arial, sans-serif" font-size="8" font-weight="bold" text-anchor="middle">✓</text><rect width="160" height="120" x="230" y="110" fill="#fff" stroke="#e2e8f0" stroke-width="2" filter="url(#a)" rx="10"/><rect width="160" height="40" x="230" y="110" fill="url(#c)" rx="10 10 0 0"/><text x="310" y="135" fill="#fff" font-family="Arial, sans-serif" font-size="12" font-weight="bold" text-anchor="middle">Forfalte fakturaer</text><text x="310" y="175" fill="#1d4ed8" font-family="Arial, sans-serif" font-size="32" font-weight="bold" text-anchor="middle">3.2</text><text x="310" y="195" fill="#1d4ed8" font-family="Arial, sans-serif" font-size="14" text-anchor="middle">%</text><text x="310" y="210" fill="#64748b" font-family="Arial, sans-serif" font-size="10" text-anchor="middle">Mål: &lt; 5%</text><circle cx="370" cy="215" r="6" fill="#3b82f6"/><text x="370" y="220" fill="#fff" font-family="Arial, sans-serif" font-size="8" font-weight="bold" text-anchor="middle">✓</text><rect width="160" height="120" x="410" y="110" fill="#fff" stroke="#e2e8f0" stroke-width="2" filter="url(#a)" rx="10"/><rect width="160" height="40" x="410" y="110" fill="url(#d)" rx="10 10 0 0"/><text x="490" y="135" fill="#fff" font-family="Arial, sans-serif" font-size="12" font-weight="bold" text-anchor="middle">Purreeffektivitet</text><text x="490" y="175" fill="#d97706" font-family="Arial, sans-serif" font-size="32" font-weight="bold" text-anchor="middle">73</text><text x="490" y="195" fill="#d97706" font-family="Arial, sans-serif" font-size="14" text-anchor="middle">%</text><text x="490" y="210" fill="#64748b" font-family="Arial, sans-serif" font-size="10" text-anchor="middle">Mål: &gt; 70%</text><circle cx="550" cy="215" r="6" fill="#f59e0b"/><text x="550" y="220" fill="#fff" font-family="Arial, sans-serif" font-size="8" font-weight="bold" text-anchor="middle">✓</text><rect width="160" height="120" x="590" y="110" fill="#fff" stroke="#e2e8f0" stroke-width="2" filter="url(#a)" rx="10"/><rect width="160" height="40" x="590" y="110" fill="url(#e)" rx="10 10 0 0"/><text x="670" y="135" fill="#fff" font-family="Arial, sans-serif" font-size="12" font-weight="bold" text-anchor="middle">Tap på fordringer</text><text x="670" y="175" fill="#dc2626" font-family="Arial, sans-serif" font-size="32" font-weight="bold" text-anchor="middle">1.8</text><text x="670" y="195" fill="#dc2626" font-family="Arial, sans-serif" font-size="14" text-anchor="middle">%</text><text x="670" y="210" fill="#64748b" font-family="Arial, sans-serif" font-size="10" text-anchor="middle">Mål: &lt; 2%</text><circle cx="730" cy="215" r="6" fill="#ef4444"/><text x="730" y="220" fill="#fff" font-family="Arial, sans-serif" font-size="8" font-weight="bold" text-anchor="middle">✓</text><rect width="700" height="200" x="50" y="260" fill="#fff" stroke="#e2e8f0" stroke-width="2" filter="url(#a)" rx="10"/><rect width="700" height="40" x="50" y="260" fill="#f8fafc" rx="10 10 0 0"/><text x="70" y="285" fill="#1e293b" font-family="Arial, sans-serif" font-size="14" font-weight="bold">Detaljerte Nøkkeltall</text><text x="70" y="310" fill="#64748b" font-family="Arial, sans-serif" font-size="11" font-weight="bold">Nøkkeltall</text><text x="300" y="310" fill="#64748b" font-family="Arial, sans-serif" font-size="11" font-weight="bold">Aktuell verdi</text><text x="450" y="310" fill="#64748b" font-family="Arial, sans-serif" font-size="11" font-weight="bold">Målsetting</text><text x="550" y="310" fill="#64748b" font-family="Arial, sans-serif" font-size="11" font-weight="bold">Forrige måned</text><text x="680" y="310" fill="#64748b" font-family="Arial, sans-serif" font-size="11" font-weight="bold">Trend</text><path stroke="#e2e8f0" d="M70 320h660"/><text x="70" y="340" fill="#1e293b" font-family="Arial, sans-serif" font-size="10">Gjennomsnittlig innbetalingstid</text><text x="300" y="340" fill="#1e293b" font-family="Arial, sans-serif" font-size="10">24 dager</text><text x="450" y="340" fill="#64748b" font-family="Arial, sans-serif" font-size="10">&lt; 30 dager</text><text x="550" y="340" fill="#64748b" font-family="Arial, sans-serif" font-size="10">27 dager</text><path fill="#10b981" d="m680 335 10 5-10 5z"/><text x="700" y="342" fill="#10b981" font-family="Arial, sans-serif" font-size="9">-11%</text><text x="70" y="360" fill="#1e293b" font-family="Arial, sans-serif" font-size="10">Andel forfalte fakturaer</text><text x="300" y="360" fill="#1e293b" font-family="Arial, sans-serif" font-size="10">3.2%</text><text x="450" y="360" fill="#64748b" font-family="Arial, sans-serif" font-size="10">&lt; 5%</text><text x="550" y="360" fill="#64748b" font-family="Arial, sans-serif" font-size="10">4.1%</text><path fill="#10b981" d="m680 355 10 5-10 5z"/><text x="700" y="362" fill="#10b981" font-family="Arial, sans-serif" font-size="9">-22%</text><text x="70" y="380" fill="#1e293b" font-family="Arial, sans-serif" font-size="10">Purreeffektivitet (1. purring)</text><text x="300" y="380" fill="#1e293b" font-family="Arial, sans-serif" font-size="10">73%</text><text x="450" y="380" fill="#64748b" font-family="Arial, sans-serif" font-size="10">&gt; 70%</text><text x="550" y="380" fill="#64748b" font-family="Arial, sans-serif" font-size="10">69%</text><path fill="#10b981" d="m680 375 10 5-10 5z"/><text x="700" y="382" fill="#10b981" font-family="Arial, sans-serif" font-size="9">+6%</text><text x="70" y="400" fill="#1e293b" font-family="Arial, sans-serif" font-size="10">Tap på fordringer</text><text x="300" y="400" fill="#1e293b" font-family="Arial, sans-serif" font-size="10">1.8%</text><text x="450" y="400" fill="#64748b" font-family="Arial, sans-serif" font-size="10">&lt; 2%</text><text x="550" y="400" fill="#64748b" font-family="Arial, sans-serif" font-size="10">2.1%</text><path fill="#10b981" d="m680 395 10 5-10 5z"/><text x="700" y="402" fill="#10b981" font-family="Arial, sans-serif" font-size="9">-14%</text><text x="70" y="420" fill="#1e293b" font-family="Arial, sans-serif" font-size="10">Antall purringer sendt</text><text x="300" y="420" fill="#1e293b" font-family="Arial, sans-serif" font-size="10">247 stk</text><text x="450" y="420" fill="#64748b" font-family="Arial, sans-serif" font-size="10">-</text><text x="550" y="420" fill="#64748b" font-family="Arial, sans-serif" font-size="10">289 stk</text><path fill="#10b981" d="m680 415 10 5-10 5z"/><text x="700" y="422" fill="#10b981" font-family="Arial, sans-serif" font-size="9">-15%</text><text x="70" y="440" fill="#1e293b" font-family="Arial, sans-serif" font-size="10">Purregebyrer innkrevd</text><text x="300" y="440" fill="#1e293b" font-family="Arial, sans-serif" font-size="10">28.450 kr</text><text x="450" y="440" fill="#64748b" font-family="Arial, sans-serif" font-size="10">-</text><text x="550" y="440" fill="#64748b" font-family="Arial, sans-serif" font-size="10">31.230 kr</text><path fill="#ef4444" d="m690 435-10 5 10 5z"/><text x="700" y="442" fill="#ef4444" font-family="Arial, sans-serif" font-size="9">-9%</text><rect width="340" height="100" x="50" y="480" fill="#fef3c7" stroke="#f59e0b" stroke-width="2" rx="10"/><text x="70" y="505" fill="#92400e" font-family="Arial, sans-serif" font-size="12" font-weight="bold">Anbefalte tiltak:</text><text x="70" y="525" fill="#92400e" font-family="Arial, sans-serif" font-size="10">• Fortsett forbedret purreprosess</text><text x="70" y="540" fill="#92400e" font-family="Arial, sans-serif" font-size="10">• Implementer automatisk 1. purring</text><text x="70" y="555" fill="#92400e" font-family="Arial, sans-serif" font-size="10">• Vurder rabatt for tidlig betaling</text><text x="70" y="570" fill="#92400e" font-family="Arial, sans-serif" font-size="10">• Styrk kredittvurdering av nye kunder</text><rect width="340" height="100" x="410" y="480" fill="#ecfdf5" stroke="#10b981" stroke-width="2" rx="10"/><text x="430" y="505" fill="#059669" font-family="Arial, sans-serif" font-size="12" font-weight="bold">Månedsstatus:</text><text x="430" y="525" fill="#059669" font-family="Arial, sans-serif" font-size="10">✓ Alle nøkkeltall innenfor målsetting</text><text x="430" y="540" fill="#059669" font-family="Arial, sans-serif" font-size="10">✓ Forbedring fra forrige måned</text><text x="430" y="555" fill="#059669" font-family="Arial, sans-serif" font-size="10">✓ Redusert antall purringer nødvendig</text><text x="430" y="570" fill="#059669" font-family="Arial, sans-serif" font-size="10">→ Likviditeten er stabil og positiv</text></svg>