<svg xmlns="http://www.w3.org/2000/svg" width="800" height="500"><defs><linearGradient id="a" x1="0%" x2="0%" y1="0%" y2="100%"><stop offset="0%" style="stop-color:#f8fafc;stop-opacity:1"/><stop offset="100%" style="stop-color:#e2e8f0;stop-opacity:1"/></linearGradient><linearGradient id="c" x1="0%" x2="0%" y1="0%" y2="100%"><stop offset="0%" style="stop-color:#fff;stop-opacity:1"/><stop offset="100%" style="stop-color:#f1f5f9;stop-opacity:1"/></linearGradient><linearGradient id="b" x1="0%" x2="0%" y1="0%" y2="100%"><stop offset="0%" style="stop-color:#3b82f6;stop-opacity:1"/><stop offset="100%" style="stop-color:#1d4ed8;stop-opacity:1"/></linearGradient></defs><path fill="url(#a)" d="M0 0h800v500H0z"/><text x="400" y="30" fill="#1f2937" font-family="Arial, sans-serif" font-size="24" font-weight="bold" text-anchor="middle">Kundekartotek Integrasjon</text><g transform="translate(300 180)"><rect width="200" height="140" fill="url(#b)" stroke="#1e40af" stroke-width="3" rx="15"/><text x="100" y="25" fill="#fff" font-family="Arial, sans-serif" font-size="16" font-weight="bold" text-anchor="middle">KUNDEKARTOTEK</text><text x="100" y="45" fill="#fff" font-family="Arial, sans-serif" font-size="12" text-anchor="middle">Sentral Database</text><g transform="translate(70 55)"><ellipse cx="30" cy="10" fill="#fff" fill-opacity=".9" rx="25" ry="8"/><path fill="#fff" fill-opacity=".9" d="M5 10h50v40H5z"/><ellipse cx="30" cy="50" fill="#fff" fill-opacity=".7" rx="25" ry="8"/><path stroke="#3b82f6" d="M15 20h30M15 28h30M15 36h30M15 44h30"/></g><text x="100" y="125" fill="#fff" font-family="Arial, sans-serif" font-size="11" text-anchor="middle">API &amp; Datasynkronisering</text></g><g transform="translate(50 60)"><rect width="160" height="100" fill="url(#c)" stroke="#10b981" stroke-width="2" rx="10"/><text x="80" y="20" fill="#1f2937" font-family="Arial, sans-serif" font-size="14" font-weight="bold" text-anchor="middle">REGNSKAPSSYSTEM</text><g transform="translate(60 30)"><rect width="40" height="30" fill="#10b981" rx="5"/><path stroke="#fff" d="M8 8h24M8 15h24M8 22h24"/></g><text x="80" y="80" fill="#374151" font-family="Arial, sans-serif" font-size="10" text-anchor="middle">• Debitorkonti</text><text x="80" y="92" fill="#374151" font-family="Arial, sans-serif" font-size="10" text-anchor="middle">• Automatisk kontering</text></g><g transform="translate(590 60)"><rect width="160" height="100" fill="url(#c)" stroke="#f59e0b" stroke-width="2" rx="10"/><text x="80" y="20" fill="#1f2937" font-family="Arial, sans-serif" font-size="14" font-weight="bold" text-anchor="middle">CRM SYSTEM</text><g transform="translate(60 30)"><circle cx="20" cy="15" r="15" fill="#f59e0b"/><circle cx="12" cy="10" r="3" fill="#fff"/><circle cx="28" cy="10" r="3" fill="#fff"/><path fill="none" stroke="#fff" stroke-width="2" d="M8 20q12 5 24 0"/></g><text x="80" y="80" fill="#374151" font-family="Arial, sans-serif" font-size="10" text-anchor="middle">• Salgsdata</text><text x="80" y="92" fill="#374151" font-family="Arial, sans-serif" font-size="10" text-anchor="middle">• Kundeoppfølging</text></g><g transform="translate(50 340)"><rect width="160" height="100" fill="url(#c)" stroke="#8b5cf6" stroke-width="2" rx="10"/><text x="80" y="20" fill="#1f2937" font-family="Arial, sans-serif" font-size="14" font-weight="bold" text-anchor="middle">E-HANDEL</text><g transform="translate(60 30)"><rect width="40" height="30" fill="#8b5cf6" rx="3"/><circle cx="12" cy="15" r="4" fill="#fff"/><circle cx="28" cy="15" r="4" fill="#fff"/><rect width="8" height="8" x="16" y="5" fill="#fff" rx="1"/></g><text x="80" y="80" fill="#374151" font-family="Arial, sans-serif" font-size="10" text-anchor="middle">• Nettbutikk</text><text x="80" y="92" fill="#374151" font-family="Arial, sans-serif" font-size="10" text-anchor="middle">• Automatisk registrering</text></g><g transform="translate(590 340)"><rect width="160" height="100" fill="url(#c)" stroke="#ef4444" stroke-width="2" rx="10"/><text x="80" y="20" fill="#1f2937" font-family="Arial, sans-serif" font-size="14" font-weight="bold" text-anchor="middle">BETALINGSSYSTEM</text><g transform="translate(60 30)"><rect width="40" height="25" fill="#ef4444" rx="5"/><path fill="#fff" d="M5 5h30v4H5zM5 15h15v3H5z"/></g><text x="80" y="80" fill="#374151" font-family="Arial, sans-serif" font-size="10" text-anchor="middle">• Banktransaksjoner</text><text x="80" y="92" fill="#374151" font-family="Arial, sans-serif" font-size="10" text-anchor="middle">• Automatisk avstemming</text></g><defs><marker id="d" markerHeight="7" markerWidth="10" orient="auto" refX="9" refY="3.5"><path fill="#3b82f6" d="m0 0 10 3.5L0 7z"/></marker></defs><path stroke="#3b82f6" stroke-width="3" marker-end="url(#d)" d="m210 110 90 90"/><path stroke="#3b82f6" stroke-width="3" marker-end="url(#d)" d="m300 220-90-90"/><path stroke="#3b82f6" stroke-width="3" marker-end="url(#d)" d="m590 110-90 90"/><path stroke="#3b82f6" stroke-width="3" marker-end="url(#d)" d="m500 220 90-90"/><path stroke="#3b82f6" stroke-width="3" marker-end="url(#d)" d="m210 390 90-90"/><path stroke="#3b82f6" stroke-width="3" marker-end="url(#d)" d="m300 280-90 90"/><path stroke="#3b82f6" stroke-width="3" marker-end="url(#d)" d="m590 390-90-90"/><path stroke="#3b82f6" stroke-width="3" marker-end="url(#d)" d="m500 280 90 90"/><g transform="translate(230 140)"><rect width="80" height="30" fill="#fff" stroke="#6b7280" rx="5"/><text x="40" y="12" fill="#374151" font-family="Arial, sans-serif" font-size="9" text-anchor="middle">Debitordata</text><text x="40" y="22" fill="#374151" font-family="Arial, sans-serif" font-size="9" text-anchor="middle">Fakturaer</text></g><g transform="translate(490 140)"><rect width="80" height="30" fill="#fff" stroke="#6b7280" rx="5"/><text x="40" y="12" fill="#374151" font-family="Arial, sans-serif" font-size="9" text-anchor="middle">Salgsdata</text><text x="40" y="22" fill="#374151" font-family="Arial, sans-serif" font-size="9" text-anchor="middle">Kontakter</text></g><g transform="translate(230 330)"><rect width="80" height="30" fill="#fff" stroke="#6b7280" rx="5"/><text x="40" y="12" fill="#374151" font-family="Arial, sans-serif" font-size="9" text-anchor="middle">Bestillinger</text><text x="40" y="22" fill="#374151" font-family="Arial, sans-serif" font-size="9" text-anchor="middle">Nye kunder</text></g><g transform="translate(490 330)"><rect width="80" height="30" fill="#fff" stroke="#6b7280" rx="5"/><text x="40" y="12" fill="#374151" font-family="Arial, sans-serif" font-size="9" text-anchor="middle">Betalinger</text><text x="40" y="22" fill="#374151" font-family="Arial, sans-serif" font-size="9" text-anchor="middle">Saldoer</text></g><g transform="translate(250 450)"><rect width="300" height="40" fill="#fff" stroke="#64748b" rx="8"/><text x="150" y="15" fill="#1f2937" font-family="Arial, sans-serif" font-size="12" font-weight="bold" text-anchor="middle">Fordeler med Integrasjon</text><text x="150" y="30" fill="#374151" font-family="Arial, sans-serif" font-size="10" text-anchor="middle">Sanntidsoppdateringer • Redusert manuelt arbeid • Færre feil • Bedre oversikt</text></g></svg>