<svg xmlns="http://www.w3.org/2000/svg" width="800" height="600"><defs><linearGradient id="a" x1="0%" x2="0%" y1="0%" y2="100%"><stop offset="0%" style="stop-color:#f8fafc;stop-opacity:1"/><stop offset="100%" style="stop-color:#e2e8f0;stop-opacity:1"/></linearGradient><linearGradient id="b" x1="0%" x2="0%" y1="0%" y2="100%"><stop offset="0%" style="stop-color:#3b82f6;stop-opacity:1"/><stop offset="100%" style="stop-color:#1d4ed8;stop-opacity:1"/></linearGradient><linearGradient id="c" x1="0%" x2="0%" y1="0%" y2="100%"><stop offset="0%" style="stop-color:#fff;stop-opacity:1"/><stop offset="100%" style="stop-color:#f1f5f9;stop-opacity:1"/></linearGradient><linearGradient id="d" x1="0%" x2="0%" y1="0%" y2="100%"><stop offset="0%" style="stop-color:#8b5cf6;stop-opacity:1"/><stop offset="100%" style="stop-color:#7c3aed;stop-opacity:1"/></linearGradient></defs><path fill="url(#a)" d="M0 0h800v600H0z"/><text x="400" y="30" fill="#1f2937" font-family="Arial, sans-serif" font-size="24" font-weight="bold" text-anchor="middle">Digitale Kundekartotek Løsninger</text><g transform="translate(50 60)"><rect width="700" height="120" fill="url(#b)" rx="15"/><text x="350" y="25" fill="#fff" font-family="Arial, sans-serif" font-size="18" font-weight="bold" text-anchor="middle">SKYBASERTE LØSNINGER</text><g fill="#fff"><g transform="translate(100 40)"><ellipse cx="25" cy="20" fill-opacity=".9" rx="20" ry="12"/><ellipse cx="15" cy="15" fill-opacity=".9" rx="12" ry="8"/><ellipse cx="35" cy="15" fill-opacity=".9" rx="12" ry="8"/><text x="25" y="45" font-family="Arial, sans-serif" font-size="10" text-anchor="middle">24/7 Tilgang</text></g><g transform="translate(250 40)"><ellipse cx="25" cy="20" fill-opacity=".9" rx="20" ry="12"/><ellipse cx="15" cy="15" fill-opacity=".9" rx="12" ry="8"/><ellipse cx="35" cy="15" fill-opacity=".9" rx="12" ry="8"/><text x="25" y="45" font-family="Arial, sans-serif" font-size="10" text-anchor="middle">Skalerbarhet</text></g><g transform="translate(400 40)"><ellipse cx="25" cy="20" fill-opacity=".9" rx="20" ry="12"/><ellipse cx="15" cy="15" fill-opacity=".9" rx="12" ry="8"/><ellipse cx="35" cy="15" fill-opacity=".9" rx="12" ry="8"/><text x="25" y="45" font-family="Arial, sans-serif" font-size="10" text-anchor="middle">Auto Backup</text></g><g transform="translate(550 40)"><ellipse cx="25" cy="20" fill-opacity=".9" rx="20" ry="12"/><ellipse cx="15" cy="15" fill-opacity=".9" rx="12" ry="8"/><ellipse cx="35" cy="15" fill-opacity=".9" rx="12" ry="8"/><text x="25" y="45" font-family="Arial, sans-serif" font-size="10" text-anchor="middle">Kostnadseffektivt</text></g></g></g><g transform="translate(50 200)"><rect width="220" height="160" fill="url(#c)" stroke="#10b981" stroke-width="2" rx="10"/><rect width="220" height="30" fill="#10b981" rx="10"/><text x="110" y="20" fill="#fff" font-family="Arial, sans-serif" font-size="14" font-weight="bold" text-anchor="middle">KUNDEREGISTRERING</text><g transform="translate(80 40)"><circle cx="30" cy="30" r="25" fill="#10b981" fill-opacity=".2"/><circle cx="30" cy="30" r="15" fill="#10b981"/><text x="30" y="35" fill="#fff" font-family="Arial, sans-serif" font-size="12" font-weight="bold" text-anchor="middle">AUTO</text></g><text x="110" y="90" fill="#374151" font-family="Arial, sans-serif" font-size="11" text-anchor="middle">• Automatisk opprettelse</text><text x="110" y="105" fill="#374151" font-family="Arial, sans-serif" font-size="11" text-anchor="middle">• Org.nr validering</text><text x="110" y="120" fill="#374151" font-family="Arial, sans-serif" font-size="11" text-anchor="middle">• Kategorisering</text><text x="110" y="135" fill="#374151" font-family="Arial, sans-serif" font-size="11" text-anchor="middle">• Duplikatkontroll</text></g><g transform="translate(290 200)"><rect width="220" height="160" fill="url(#c)" stroke="#f59e0b" stroke-width="2" rx="10"/><rect width="220" height="30" fill="#f59e0b" rx="10"/><text x="110" y="20" fill="#fff" font-family="Arial, sans-serif" font-size="14" font-weight="bold" text-anchor="middle">FAKTURABEHANDLING</text><g transform="translate(80 40)"><rect width="40" height="50" x="10" y="10" fill="#f59e0b" fill-opacity=".2" rx="5"/><rect width="30" height="40" x="15" y="15" fill="#f59e0b" rx="3"/><path stroke="#fff" stroke-width="2" d="M20 25h20M20 35h20M20 45h20"/></g><text x="110" y="90" fill="#374151" font-family="Arial, sans-serif" font-size="11" text-anchor="middle">• Auto generering</text><text x="110" y="105" fill="#374151" font-family="Arial, sans-serif" font-size="11" text-anchor="middle">• Intelligent tolking</text><text x="110" y="120" fill="#374151" font-family="Arial, sans-serif" font-size="11" text-anchor="middle">• Påminnelser</text><text x="110" y="135" fill="#374151" font-family="Arial, sans-serif" font-size="11" text-anchor="middle">• E-post utsendelse</text></g><g transform="translate(530 200)"><rect width="220" height="160" fill="url(#c)" stroke="#8b5cf6" stroke-width="2" rx="10"/><rect width="220" height="30" fill="#8b5cf6" rx="10"/><text x="110" y="20" fill="#fff" font-family="Arial, sans-serif" font-size="14" font-weight="bold" text-anchor="middle">AI &amp; MASKINLÆRING</text><g transform="translate(80 40)"><circle cx="30" cy="30" r="20" fill="url(#d)"/><circle cx="25" cy="25" r="3" fill="#fff"/><circle cx="35" cy="25" r="3" fill="#fff"/><circle cx="20" cy="35" r="2" fill="#fff"/><circle cx="30" cy="38" r="2" fill="#fff"/><circle cx="40" cy="35" r="2" fill="#fff"/><path fill="none" stroke="#fff" stroke-width="2" d="M15 30q15 15 30 0"/></g><text x="110" y="90" fill="#374151" font-family="Arial, sans-serif" font-size="11" text-anchor="middle">• Prediktiv analyse</text><text x="110" y="105" fill="#374151" font-family="Arial, sans-serif" font-size="11" text-anchor="middle">• Risikoprofilering</text><text x="110" y="120" fill="#374151" font-family="Arial, sans-serif" font-size="11" text-anchor="middle">• Smart kategorisering</text><text x="110" y="135" fill="#374151" font-family="Arial, sans-serif" font-size="11" text-anchor="middle">• Betalingsprediksjon</text></g><g transform="translate(50 380)"><rect width="700" height="100" fill="url(#c)" stroke="#ef4444" stroke-width="2" rx="10"/><rect width="700" height="30" fill="#ef4444" rx="10"/><text x="350" y="20" fill="#fff" font-family="Arial, sans-serif" font-size="16" font-weight="bold" text-anchor="middle">SIKKERHET &amp; BACKUP</text><g transform="translate(50 40)"><rect width="80" height="50" fill="#fff" stroke="#ef4444" rx="5"/><circle cx="40" cy="15" r="8" fill="#ef4444"/><path fill="#ef4444" d="M35 20h10v8H35z"/><text x="40" y="40" fill="#374151" font-family="Arial, sans-serif" font-size="9" text-anchor="middle">Kryptering</text></g><g transform="translate(150 40)"><rect width="80" height="50" fill="#fff" stroke="#ef4444" rx="5"/><rect width="30" height="20" x="25" y="8" fill="#ef4444" rx="3"/><circle cx="40" cy="18" r="3" fill="#fff"/><text x="40" y="40" fill="#374151" font-family="Arial, sans-serif" font-size="9" text-anchor="middle">2-Faktor Auth</text></g><g transform="translate(250 40)"><rect width="80" height="50" fill="#fff" stroke="#ef4444" rx="5"/><ellipse cx="40" cy="15" fill="#ef4444" rx="15" ry="8"/><path fill="#ef4444" d="M25 15h30v8H25z"/><text x="40" y="40" fill="#374151" font-family="Arial, sans-serif" font-size="9" text-anchor="middle">Auto Backup</text></g><g transform="translate(350 40)"><rect width="80" height="50" fill="#fff" stroke="#ef4444" rx="5"/><circle cx="40" cy="15" r="8" fill="#ef4444"/><rect width="16" height="8" x="32" y="20" fill="#ef4444" rx="2"/><text x="40" y="40" fill="#374151" font-family="Arial, sans-serif" font-size="9" text-anchor="middle">Tilgangskontroll</text></g><g transform="translate(450 40)"><rect width="80" height="50" fill="#fff" stroke="#ef4444" rx="5"/><rect width="30" height="20" x="25" y="8" fill="#ef4444" rx="3"/><text x="40" y="18" fill="#fff" font-family="Arial, sans-serif" font-size="8" font-weight="bold" text-anchor="middle">GDPR</text><text x="40" y="40" fill="#374151" font-family="Arial, sans-serif" font-size="9" text-anchor="middle">Personvern</text></g><g transform="translate(550 40)"><rect width="80" height="50" fill="#fff" stroke="#ef4444" rx="5"/><rect width="30" height="20" x="25" y="8" fill="#ef4444" rx="3"/><path stroke="#fff" d="M30 13h20M30 18h20M30 23h20"/><text x="40" y="40" fill="#374151" font-family="Arial, sans-serif" font-size="9" text-anchor="middle">Aktivitetslogg</text></g></g><g transform="translate(50 500)"><rect width="700" height="80" fill="#fff" stroke="#64748b" stroke-width="2" rx="10"/><text x="350" y="25" fill="#1f2937" font-family="Arial, sans-serif" font-size="16" font-weight="bold" text-anchor="middle">Fordeler med Digitale Løsninger</text><g transform="translate(50 35)"><circle cx="10" cy="10" r="5" fill="#10b981"/><text x="25" y="15" fill="#374151" font-family="Arial, sans-serif" font-size="12">80-90% reduksjon i manuelt arbeid</text><circle cx="250" cy="10" r="5" fill="#10b981"/><text x="265" y="15" fill="#374151" font-family="Arial, sans-serif" font-size="12">Sanntids dataoppdateringer</text><circle cx="450" cy="10" r="5" fill="#10b981"/><text x="465" y="15" fill="#374151" font-family="Arial, sans-serif" font-size="12">Forbedret datakvalitet</text><circle cx="10" cy="30" r="5" fill="#10b981"/><text x="25" y="35" fill="#374151" font-family="Arial, sans-serif" font-size="12">Automatisk compliance</text><circle cx="250" cy="30" r="5" fill="#10b981"/><text x="265" y="35" fill="#374151" font-family="Arial, sans-serif" font-size="12">Skalerbar arkitektur</text><circle cx="450" cy="30" r="5" fill="#10b981"/><text x="465" y="35" fill="#374151" font-family="Arial, sans-serif" font-size="12">Bedre kundeservice</text></g></g></svg>