<svg width="800" height="600" xmlns="http://www.w3.org/2000/svg">
  <defs>
    <linearGradient id="bgGradient" x1="0%" y1="0%" x2="0%" y2="100%">
      <stop offset="0%" style="stop-color:#f8fafc;stop-opacity:1" />
      <stop offset="100%" style="stop-color:#e2e8f0;stop-opacity:1" />
    </linearGradient>
    <linearGradient id="cloudGradient" x1="0%" y1="0%" x2="0%" y2="100%">
      <stop offset="0%" style="stop-color:#3b82f6;stop-opacity:1" />
      <stop offset="100%" style="stop-color:#1d4ed8;stop-opacity:1" />
    </linearGradient>
    <linearGradient id="cardGradient" x1="0%" y1="0%" x2="0%" y2="100%">
      <stop offset="0%" style="stop-color:#ffffff;stop-opacity:1" />
      <stop offset="100%" style="stop-color:#f1f5f9;stop-opacity:1" />
    </linearGradient>
    <linearGradient id="aiGradient" x1="0%" y1="0%" x2="0%" y2="100%">
      <stop offset="0%" style="stop-color:#8b5cf6;stop-opacity:1" />
      <stop offset="100%" style="stop-color:#7c3aed;stop-opacity:1" />
    </linearGradient>
  </defs>
  

  <rect width="800" height="600" fill="url(#bgGradient)"/>
  

  <text x="400" y="30" text-anchor="middle" fill="#1f2937" font-family="Arial, sans-serif" font-size="24" font-weight="bold">Digitale Kundekartotek Løsninger</text>
  

  <g transform="translate(50, 60)">
    <rect x="0" y="0" width="700" height="120" fill="url(#cloudGradient)" rx="15"/>
    <text x="350" y="25" text-anchor="middle" fill="white" font-family="Arial, sans-serif" font-size="18" font-weight="bold">SKYBASERTE LØSNINGER</text>
    

    <g transform="translate(100, 40)">

      <g transform="translate(0, 0)">
        <ellipse cx="25" cy="20" rx="20" ry="12" fill="white" fill-opacity="0.9"/>
        <ellipse cx="15" cy="15" rx="12" ry="8" fill="white" fill-opacity="0.9"/>
        <ellipse cx="35" cy="15" rx="12" ry="8" fill="white" fill-opacity="0.9"/>
        <text x="25" y="45" text-anchor="middle" fill="white" font-family="Arial, sans-serif" font-size="10">24/7 Tilgang</text>
      </g>
      

      <g transform="translate(150, 0)">
        <ellipse cx="25" cy="20" rx="20" ry="12" fill="white" fill-opacity="0.9"/>
        <ellipse cx="15" cy="15" rx="12" ry="8" fill="white" fill-opacity="0.9"/>
        <ellipse cx="35" cy="15" rx="12" ry="8" fill="white" fill-opacity="0.9"/>
        <text x="25" y="45" text-anchor="middle" fill="white" font-family="Arial, sans-serif" font-size="10">Skalerbarhet</text>
      </g>
      

      <g transform="translate(300, 0)">
        <ellipse cx="25" cy="20" rx="20" ry="12" fill="white" fill-opacity="0.9"/>
        <ellipse cx="15" cy="15" rx="12" ry="8" fill="white" fill-opacity="0.9"/>
        <ellipse cx="35" cy="15" rx="12" ry="8" fill="white" fill-opacity="0.9"/>
        <text x="25" y="45" text-anchor="middle" fill="white" font-family="Arial, sans-serif" font-size="10">Auto Backup</text>
      </g>
      

      <g transform="translate(450, 0)">
        <ellipse cx="25" cy="20" rx="20" ry="12" fill="white" fill-opacity="0.9"/>
        <ellipse cx="15" cy="15" rx="12" ry="8" fill="white" fill-opacity="0.9"/>
        <ellipse cx="35" cy="15" rx="12" ry="8" fill="white" fill-opacity="0.9"/>
        <text x="25" y="45" text-anchor="middle" fill="white" font-family="Arial, sans-serif" font-size="10">Kostnadseffektivt</text>
      </g>
    </g>
  </g>
  

  <g transform="translate(50, 200)">

    <g transform="translate(0, 0)">
      <rect x="0" y="0" width="220" height="160" fill="url(#cardGradient)" stroke="#10b981" stroke-width="2" rx="10"/>
      <rect x="0" y="0" width="220" height="30" fill="#10b981" rx="10"/>
      <text x="110" y="20" text-anchor="middle" fill="white" font-family="Arial, sans-serif" font-size="14" font-weight="bold">KUNDEREGISTRERING</text>
      

      <g transform="translate(80, 40)">
        <circle cx="30" cy="30" r="25" fill="#10b981" fill-opacity="0.2"/>
        <circle cx="30" cy="30" r="15" fill="#10b981"/>
        <text x="30" y="35" text-anchor="middle" fill="white" font-family="Arial, sans-serif" font-size="12" font-weight="bold">AUTO</text>
      </g>
      
      <text x="110" y="90" text-anchor="middle" fill="#374151" font-family="Arial, sans-serif" font-size="11">• Automatisk opprettelse</text>
      <text x="110" y="105" text-anchor="middle" fill="#374151" font-family="Arial, sans-serif" font-size="11">• Org.nr validering</text>
      <text x="110" y="120" text-anchor="middle" fill="#374151" font-family="Arial, sans-serif" font-size="11">• Kategorisering</text>
      <text x="110" y="135" text-anchor="middle" fill="#374151" font-family="Arial, sans-serif" font-size="11">• Duplikatkontroll</text>
    </g>
    

    <g transform="translate(240, 0)">
      <rect x="0" y="0" width="220" height="160" fill="url(#cardGradient)" stroke="#f59e0b" stroke-width="2" rx="10"/>
      <rect x="0" y="0" width="220" height="30" fill="#f59e0b" rx="10"/>
      <text x="110" y="20" text-anchor="middle" fill="white" font-family="Arial, sans-serif" font-size="14" font-weight="bold">FAKTURABEHANDLING</text>
      

      <g transform="translate(80, 40)">
        <rect x="10" y="10" width="40" height="50" fill="#f59e0b" fill-opacity="0.2" rx="5"/>
        <rect x="15" y="15" width="30" height="40" fill="#f59e0b" rx="3"/>
        <line x1="20" y1="25" x2="40" y2="25" stroke="white" stroke-width="2"/>
        <line x1="20" y1="35" x2="40" y2="35" stroke="white" stroke-width="2"/>
        <line x1="20" y1="45" x2="40" y2="45" stroke="white" stroke-width="2"/>
      </g>
      
      <text x="110" y="90" text-anchor="middle" fill="#374151" font-family="Arial, sans-serif" font-size="11">• Auto generering</text>
      <text x="110" y="105" text-anchor="middle" fill="#374151" font-family="Arial, sans-serif" font-size="11">• Intelligent tolking</text>
      <text x="110" y="120" text-anchor="middle" fill="#374151" font-family="Arial, sans-serif" font-size="11">• Påminnelser</text>
      <text x="110" y="135" text-anchor="middle" fill="#374151" font-family="Arial, sans-serif" font-size="11">• E-post utsendelse</text>
    </g>
    

    <g transform="translate(480, 0)">
      <rect x="0" y="0" width="220" height="160" fill="url(#cardGradient)" stroke="#8b5cf6" stroke-width="2" rx="10"/>
      <rect x="0" y="0" width="220" height="30" fill="#8b5cf6" rx="10"/>
      <text x="110" y="20" text-anchor="middle" fill="white" font-family="Arial, sans-serif" font-size="14" font-weight="bold">AI &amp; MASKINLÆRING</text>
      

      <g transform="translate(80, 40)">
        <circle cx="30" cy="30" r="20" fill="url(#aiGradient)"/>
        <circle cx="25" cy="25" r="3" fill="white"/>
        <circle cx="35" cy="25" r="3" fill="white"/>
        <circle cx="20" cy="35" r="2" fill="white"/>
        <circle cx="30" cy="38" r="2" fill="white"/>
        <circle cx="40" cy="35" r="2" fill="white"/>
        <path d="M 15 30 Q 30 45 45 30" stroke="white" stroke-width="2" fill="none"/>
      </g>
      
      <text x="110" y="90" text-anchor="middle" fill="#374151" font-family="Arial, sans-serif" font-size="11">• Prediktiv analyse</text>
      <text x="110" y="105" text-anchor="middle" fill="#374151" font-family="Arial, sans-serif" font-size="11">• Risikoprofilering</text>
      <text x="110" y="120" text-anchor="middle" fill="#374151" font-family="Arial, sans-serif" font-size="11">• Smart kategorisering</text>
      <text x="110" y="135" text-anchor="middle" fill="#374151" font-family="Arial, sans-serif" font-size="11">• Betalingsprediksjon</text>
    </g>
  </g>
  

  <g transform="translate(50, 380)">
    <rect x="0" y="0" width="700" height="100" fill="url(#cardGradient)" stroke="#ef4444" stroke-width="2" rx="10"/>
    <rect x="0" y="0" width="700" height="30" fill="#ef4444" rx="10"/>
    <text x="350" y="20" text-anchor="middle" fill="white" font-family="Arial, sans-serif" font-size="16" font-weight="bold">SIKKERHET &amp; BACKUP</text>
    

    <g transform="translate(50, 40)">

      <g transform="translate(0, 0)">
        <rect x="0" y="0" width="80" height="50" fill="white" stroke="#ef4444" stroke-width="1" rx="5"/>
        <circle cx="40" cy="15" r="8" fill="#ef4444"/>
        <rect x="35" y="20" width="10" height="8" fill="#ef4444"/>
        <text x="40" y="40" text-anchor="middle" fill="#374151" font-family="Arial, sans-serif" font-size="9">Kryptering</text>
      </g>
      

      <g transform="translate(100, 0)">
        <rect x="0" y="0" width="80" height="50" fill="white" stroke="#ef4444" stroke-width="1" rx="5"/>
        <rect x="25" y="8" width="30" height="20" fill="#ef4444" rx="3"/>
        <circle cx="40" cy="18" r="3" fill="white"/>
        <text x="40" y="40" text-anchor="middle" fill="#374151" font-family="Arial, sans-serif" font-size="9">2-Faktor Auth</text>
      </g>
      

      <g transform="translate(200, 0)">
        <rect x="0" y="0" width="80" height="50" fill="white" stroke="#ef4444" stroke-width="1" rx="5"/>
        <ellipse cx="40" cy="15" rx="15" ry="8" fill="#ef4444"/>
        <rect x="25" y="15" width="30" height="8" fill="#ef4444"/>
        <text x="40" y="40" text-anchor="middle" fill="#374151" font-family="Arial, sans-serif" font-size="9">Auto Backup</text>
      </g>
      

      <g transform="translate(300, 0)">
        <rect x="0" y="0" width="80" height="50" fill="white" stroke="#ef4444" stroke-width="1" rx="5"/>
        <circle cx="40" cy="15" r="8" fill="#ef4444"/>
        <rect x="32" y="20" width="16" height="8" fill="#ef4444" rx="2"/>
        <text x="40" y="40" text-anchor="middle" fill="#374151" font-family="Arial, sans-serif" font-size="9">Tilgangskontroll</text>
      </g>
      

      <g transform="translate(400, 0)">
        <rect x="0" y="0" width="80" height="50" fill="white" stroke="#ef4444" stroke-width="1" rx="5"/>
        <rect x="25" y="8" width="30" height="20" fill="#ef4444" rx="3"/>
        <text x="40" y="18" text-anchor="middle" fill="white" font-family="Arial, sans-serif" font-size="8" font-weight="bold">GDPR</text>
        <text x="40" y="40" text-anchor="middle" fill="#374151" font-family="Arial, sans-serif" font-size="9">Personvern</text>
      </g>
      

      <g transform="translate(500, 0)">
        <rect x="0" y="0" width="80" height="50" fill="white" stroke="#ef4444" stroke-width="1" rx="5"/>
        <rect x="25" y="8" width="30" height="20" fill="#ef4444" rx="3"/>
        <line x1="30" y1="13" x2="50" y2="13" stroke="white" stroke-width="1"/>
        <line x1="30" y1="18" x2="50" y2="18" stroke="white" stroke-width="1"/>
        <line x1="30" y1="23" x2="50" y2="23" stroke="white" stroke-width="1"/>
        <text x="40" y="40" text-anchor="middle" fill="#374151" font-family="Arial, sans-serif" font-size="9">Aktivitetslogg</text>
      </g>
    </g>
  </g>
  

  <g transform="translate(50, 500)">
    <rect x="0" y="0" width="700" height="80" fill="white" stroke="#64748b" stroke-width="2" rx="10"/>
    <text x="350" y="25" text-anchor="middle" fill="#1f2937" font-family="Arial, sans-serif" font-size="16" font-weight="bold">Fordeler med Digitale Løsninger</text>
    
    <g transform="translate(50, 35)">
      <circle cx="10" cy="10" r="5" fill="#10b981"/>
      <text x="25" y="15" fill="#374151" font-family="Arial, sans-serif" font-size="12">80-90% reduksjon i manuelt arbeid</text>
      
      <circle cx="250" cy="10" r="5" fill="#10b981"/>
      <text x="265" y="15" fill="#374151" font-family="Arial, sans-serif" font-size="12">Sanntids dataoppdateringer</text>
      
      <circle cx="450" cy="10" r="5" fill="#10b981"/>
      <text x="465" y="15" fill="#374151" font-family="Arial, sans-serif" font-size="12">Forbedret datakvalitet</text>
      
      <circle cx="10" cy="30" r="5" fill="#10b981"/>
      <text x="25" y="35" fill="#374151" font-family="Arial, sans-serif" font-size="12">Automatisk compliance</text>
      
      <circle cx="250" cy="30" r="5" fill="#10b981"/>
      <text x="265" y="35" fill="#374151" font-family="Arial, sans-serif" font-size="12">Skalerbar arkitektur</text>
      
      <circle cx="450" cy="30" r="5" fill="#10b981"/>
      <text x="465" y="35" fill="#374151" font-family="Arial, sans-serif" font-size="12">Bedre kundeservice</text>
    </g>
  </g>
</svg>