<svg xmlns="http://www.w3.org/2000/svg" width="800" height="600"><defs><linearGradient id="b" x1="0%" x2="100%" y1="0%" y2="100%"><stop offset="0%" style="stop-color:#3498db;stop-opacity:.9"/><stop offset="100%" style="stop-color:#2980b9;stop-opacity:.9"/></linearGradient><linearGradient id="c" x1="0%" x2="100%" y1="0%" y2="100%"><stop offset="0%" style="stop-color:#e74c3c;stop-opacity:.9"/><stop offset="100%" style="stop-color:#c0392b;stop-opacity:.9"/></linearGradient><linearGradient id="a" x1="0%" x2="100%" y1="0%" y2="100%"><stop offset="0%" style="stop-color:#f39c12;stop-opacity:.9"/><stop offset="100%" style="stop-color:#e67e22;stop-opacity:.9"/></linearGradient></defs><path fill="#f8f9fa" d="M0 0h800v600H0z"/><text x="400" y="40" fill="#333" font-family="Arial, sans-serif" font-size="24" font-weight="bold" text-anchor="middle">Direkte vs. Indirekte Kostnader</text><rect width="100" height="80" x="350" y="250" fill="url(#a)" stroke="#d68910" stroke-width="3" rx="10"/><text x="400" y="280" fill="#fff" font-family="Arial, sans-serif" font-size="16" font-weight="bold" text-anchor="middle">PRODUKT</text><text x="400" y="300" fill="#fff" font-family="Arial, sans-serif" font-size="12" text-anchor="middle">eller</text><text x="400" y="315" fill="#fff" font-family="Arial, sans-serif" font-size="12" text-anchor="middle">TJENESTE</text><rect width="280" height="400" x="50" y="100" fill="#ebf3fd" stroke="#3498db" stroke-width="2" rx="10"/><text x="190" y="130" fill="#2980b9" font-family="Arial, sans-serif" font-size="20" font-weight="bold" text-anchor="middle">DIREKTE KOSTNADER</text><text x="190" y="155" fill="#333" font-family="Arial, sans-serif" font-size="12" text-anchor="middle">Kan spores direkte til produktet</text><rect width="240" height="40" x="70" y="180" fill="url(#b)" stroke="#2980b9" rx="5"/><text x="190" y="205" fill="#fff" font-family="Arial, sans-serif" font-size="14" font-weight="bold" text-anchor="middle">Råmaterialer</text><rect width="240" height="40" x="70" y="240" fill="url(#b)" stroke="#2980b9" rx="5"/><text x="190" y="265" fill="#fff" font-family="Arial, sans-serif" font-size="14" font-weight="bold" text-anchor="middle">Direkte arbeidskraft</text><rect width="240" height="40" x="70" y="300" fill="url(#b)" stroke="#2980b9" rx="5"/><text x="190" y="325" fill="#fff" font-family="Arial, sans-serif" font-size="14" font-weight="bold" text-anchor="middle">Spesifikke maskiner</text><rect width="240" height="40" x="70" y="360" fill="url(#b)" stroke="#2980b9" rx="5"/><text x="190" y="385" fill="#fff" font-family="Arial, sans-serif" font-size="14" font-weight="bold" text-anchor="middle">Frakt av råvarer</text><text x="190" y="440" fill="#666" font-family="Arial, sans-serif" font-size="12" font-style="italic" text-anchor="middle">Ville ikke oppstå uten produktet</text><rect width="280" height="400" x="470" y="100" fill="#fdf2f2" stroke="#e74c3c" stroke-width="2" rx="10"/><text x="610" y="130" fill="#c0392b" font-family="Arial, sans-serif" font-size="20" font-weight="bold" text-anchor="middle">INDIREKTE KOSTNADER</text><text x="610" y="155" fill="#333" font-family="Arial, sans-serif" font-size="12" text-anchor="middle">Støtter generell drift</text><rect width="240" height="40" x="490" y="180" fill="url(#c)" stroke="#c0392b" rx="5"/><text x="610" y="205" fill="#fff" font-family="Arial, sans-serif" font-size="14" font-weight="bold" text-anchor="middle">Administrasjonslønninger</text><rect width="240" height="40" x="490" y="240" fill="url(#c)" stroke="#c0392b" rx="5"/><text x="610" y="265" fill="#fff" font-family="Arial, sans-serif" font-size="14" font-weight="bold" text-anchor="middle">Husleie fabrikklokaler</text><rect width="240" height="40" x="490" y="300" fill="url(#c)" stroke="#c0392b" rx="5"/><text x="610" y="325" fill="#fff" font-family="Arial, sans-serif" font-size="14" font-weight="bold" text-anchor="middle">Strøm &amp; oppvarming</text><rect width="240" height="40" x="490" y="360" fill="url(#c)" stroke="#c0392b" rx="5"/><text x="610" y="385" fill="#fff" font-family="Arial, sans-serif" font-size="14" font-weight="bold" text-anchor="middle">Forsikringer</text><text x="610" y="440" fill="#666" font-family="Arial, sans-serif" font-size="12" font-style="italic" text-anchor="middle">Må fordeles på produkter</text><path fill="none" stroke="#3498db" stroke-width="4" marker-end="url(#d)" d="M330 290h30"/><path fill="none" stroke="#e74c3c" stroke-width="4" marker-end="url(#e)" d="M470 290h-30"/><defs><marker id="d" markerHeight="8" markerWidth="10" orient="auto" refX="9" refY="4"><path fill="#3498db" d="m0 0 10 4L0 8z"/></marker><marker id="e" markerHeight="8" markerWidth="10" orient="auto" refX="9" refY="4"><path fill="#e74c3c" d="m0 0 10 4L0 8z"/></marker></defs><rect width="400" height="50" x="200" y="530" fill="#fff3cd" stroke="#ffc107" stroke-width="2" rx="8"/><text x="400" y="550" fill="#856404" font-family="Arial, sans-serif" font-size="14" font-weight="bold" text-anchor="middle">Nøkkelforskjell:</text><text x="400" y="570" fill="#856404" font-family="Arial, sans-serif" font-size="12" text-anchor="middle">Direkte kostnader kan spores, indirekte må fordeles</text></svg>