<svg xmlns="http://www.w3.org/2000/svg" width="800" height="500"><defs><linearGradient id="a" x1="0%" x2="100%" y1="0%" y2="100%"><stop offset="0%" style="stop-color:#f8f9fa;stop-opacity:1"/><stop offset="100%" style="stop-color:#e9ecef;stop-opacity:1"/></linearGradient><linearGradient id="b" x1="0%" x2="100%" y1="0%" y2="0%"><stop offset="0%" style="stop-color:#06c;stop-opacity:1"/><stop offset="100%" style="stop-color:#049;stop-opacity:1"/></linearGradient></defs><path fill="url(#a)" stroke="#dee2e6" stroke-width="2" d="M0 0h800v500H0z"/><path fill="url(#b)" d="M0 0h800v60H0z"/><text x="400" y="35" fill="#fff" font-family="Arial, sans-serif" font-size="24" font-weight="bold" text-anchor="middle">
    Kompetansekrav for Forretningsførere
  </text><g transform="translate(50 100)"><rect width="160" height="120" fill="#e3f2fd" stroke="#1976d2" stroke-width="2" rx="10"/><circle cx="80" cy="35" r="15" fill="#1976d2"/><path fill="#1976d2" d="M70 50h20v25H70z"/><text x="80" y="85" fill="#1976d2" font-family="Arial, sans-serif" font-size="14" font-weight="bold" text-anchor="middle">
      Myndighet
    </text><text x="80" y="100" fill="#1976d2" font-family="Arial, sans-serif" font-size="11" text-anchor="middle">
      Over 18 år
    </text><text x="80" y="113" fill="#1976d2" font-family="Arial, sans-serif" font-size="11" text-anchor="middle">
      Juridisk myndig
    </text></g><g transform="translate(240 100)"><rect width="160" height="120" fill="#f3e5f5" stroke="#7b1fa2" stroke-width="2" rx="10"/><path fill="#7b1fa2" d="m80 25 10 5v20c0 10-10 15-10 15s-10-5-10-15V30Z"/><text x="80" y="85" fill="#7b1fa2" font-family="Arial, sans-serif" font-size="14" font-weight="bold" text-anchor="middle">
      Vandel
    </text><text x="80" y="100" fill="#7b1fa2" font-family="Arial, sans-serif" font-size="11" text-anchor="middle">
      Ikke konkurs
    </text><text x="80" y="113" fill="#7b1fa2" font-family="Arial, sans-serif" font-size="11" text-anchor="middle">
      Ingen straffbare forhold
    </text></g><g transform="translate(430 100)"><rect width="160" height="120" fill="#fff3e0" stroke="#f57c00" stroke-width="2" rx="10"/><path fill="#f57c00" d="m65 45 15-15 15 15v15H85V50H75v10H65Z"/><text x="80" y="85" fill="#f57c00" font-family="Arial, sans-serif" font-size="14" font-weight="bold" text-anchor="middle">
      Bopel
    </text><text x="80" y="100" fill="#f57c00" font-family="Arial, sans-serif" font-size="11" text-anchor="middle">
      Min. 50% i Norge
    </text><text x="80" y="113" fill="#f57c00" font-family="Arial, sans-serif" font-size="11" text-anchor="middle">
      (for AS/ASA)
    </text></g><g transform="translate(620 100)"><rect width="160" height="120" fill="#e8f5e8" stroke="#388e3c" stroke-width="2" rx="10"/><path fill="#388e3c" d="M70 30h20v25H70z"/><path stroke="#fff" d="M72 35h16M72 40h16M72 45h16"/><text x="80" y="85" fill="#388e3c" font-family="Arial, sans-serif" font-size="14" font-weight="bold" text-anchor="middle">
      Faglig Kompetanse
    </text><text x="80" y="100" fill="#388e3c" font-family="Arial, sans-serif" font-size="11" text-anchor="middle">
      Regnskap &amp; Bokføring
    </text><text x="80" y="113" fill="#388e3c" font-family="Arial, sans-serif" font-size="11" text-anchor="middle">
      Relevant lovgivning
    </text></g><text x="300" fill="#212529" font-family="Arial, sans-serif" font-size="18" font-weight="bold" text-anchor="middle" transform="translate(100 280)">
      Detaljerte Kompetanseområder
    </text><g transform="translate(100 310)"><rect width="180" height="140" fill="#fce4ec" stroke="#c2185b" stroke-width="2" rx="8"/><text x="90" y="20" fill="#c2185b" font-family="Arial, sans-serif" font-size="14" font-weight="bold" text-anchor="middle">
        Regnskap
      </text><text x="10" y="40" fill="#c2185b" font-family="Arial, sans-serif" font-size="11">
        • Regnskapsføring
      </text><text x="10" y="55" fill="#c2185b" font-family="Arial, sans-serif" font-size="11">
        • Årsregnskap
      </text><text x="10" y="70" fill="#c2185b" font-family="Arial, sans-serif" font-size="11">
        • Finansiell analyse
      </text><text x="10" y="85" fill="#c2185b" font-family="Arial, sans-serif" font-size="11">
        • Budsjettering
      </text><text x="10" y="100" fill="#c2185b" font-family="Arial, sans-serif" font-size="11">
        • Internkontroll
      </text><text x="10" y="115" fill="#c2185b" font-family="Arial, sans-serif" font-size="11">
        • Revisjonssamarbeid
      </text><text x="10" y="130" fill="#c2185b" font-family="Arial, sans-serif" font-size="11">
        • Risikohåndtering
      </text></g><g transform="translate(310 310)"><rect width="180" height="140" fill="#f1f8e9" stroke="#689f38" stroke-width="2" rx="8"/><text x="90" y="20" fill="#689f38" font-family="Arial, sans-serif" font-size="14" font-weight="bold" text-anchor="middle">
        Juridisk
      </text><text x="10" y="40" fill="#689f38" font-family="Arial, sans-serif" font-size="11">
        • Aksjeloven
      </text><text x="10" y="55" fill="#689f38" font-family="Arial, sans-serif" font-size="11">
        • Bokføringsloven
      </text><text x="10" y="70" fill="#689f38" font-family="Arial, sans-serif" font-size="11">
        • Regnskapsloven
      </text><text x="10" y="85" fill="#689f38" font-family="Arial, sans-serif" font-size="11">
        • Arbeidsrett
      </text><text x="10" y="100" fill="#689f38" font-family="Arial, sans-serif" font-size="11">
        • Skattelovgivning
      </text><text x="10" y="115" fill="#689f38" font-family="Arial, sans-serif" font-size="11">
        • Kontraktsrett
      </text><text x="10" y="130" fill="#689f38" font-family="Arial, sans-serif" font-size="11">
        • Personvern (GDPR)
      </text></g><g transform="translate(520 310)"><rect width="180" height="140" fill="#e1f5fe" stroke="#0288d1" stroke-width="2" rx="8"/><text x="90" y="20" fill="#0288d1" font-family="Arial, sans-serif" font-size="14" font-weight="bold" text-anchor="middle">
        Operasjonell
      </text><text x="10" y="40" fill="#0288d1" font-family="Arial, sans-serif" font-size="11">
        • Ledelse
      </text><text x="10" y="55" fill="#0288d1" font-family="Arial, sans-serif" font-size="11">
        • Strategisk planlegging
      </text><text x="10" y="70" fill="#0288d1" font-family="Arial, sans-serif" font-size="11">
        • Prosjektledelse
      </text><text x="10" y="85" fill="#0288d1" font-family="Arial, sans-serif" font-size="11">
        • Personalledelse
      </text><text x="10" y="100" fill="#0288d1" font-family="Arial, sans-serif" font-size="11">
        • Forretningsutvikling
      </text><text x="10" y="115" fill="#0288d1" font-family="Arial, sans-serif" font-size="11">
        • Digitalisering
      </text><text x="10" y="130" fill="#0288d1" font-family="Arial, sans-serif" font-size="11">
        • Kvalitetssikring
      </text></g><text x="400" y="480" fill="#6c757d" font-family="Arial, sans-serif" font-size="12" font-style="italic" text-anchor="middle">
    Kompetansekravene varierer avhengig av virksomhetens størrelse og kompleksitet
  </text></svg>