<svg xmlns="http://www.w3.org/2000/svg" width="800" height="400"><defs><linearGradient id="a" x1="0%" x2="100%" y1="0%" y2="0%"><stop offset="0%" style="stop-color:#2563eb;stop-opacity:1"/><stop offset="100%" style="stop-color:#1d4ed8;stop-opacity:1"/></linearGradient><linearGradient id="b" x1="0%" x2="0%" y1="0%" y2="100%"><stop offset="0%" style="stop-color:#f8fafc;stop-opacity:1"/><stop offset="100%" style="stop-color:#e2e8f0;stop-opacity:1"/></linearGradient></defs><path fill="#fff" d="M0 0h800v400H0z"/><path fill="url(#a)" d="M0 0h800v80H0z"/><text x="400" y="50" fill="#fff" font-family="Arial, sans-serif" font-size="28" font-weight="bold" text-anchor="middle">Inngangsverdi</text><rect width="700" height="280" x="50" y="100" fill="url(#b)" stroke="#cbd5e1" stroke-width="2" rx="10"/><rect width="640" height="60" x="80" y="130" fill="#dbeafe" stroke="#3b82f6" stroke-width="2" rx="8"/><text x="400" y="155" fill="#1e40af" font-family="Arial, sans-serif" font-size="16" font-weight="bold" text-anchor="middle">Den samlede kostprisen for en eiendel ved anskaffelsestidspunktet</text><text x="400" y="175" fill="#1e40af" font-family="Arial, sans-serif" font-size="14" text-anchor="middle">Inngangsverdi = Kjøpesum + Anskaffelseskostnader + Avgifter og gebyrer</text><g transform="translate(140 210)"><rect width="120" height="40" fill="#10b981" rx="5"/><text x="60" y="25" fill="#fff" font-family="Arial, sans-serif" font-size="12" font-weight="bold" text-anchor="middle">Kjøpesum</text><text x="140" y="25" fill="#374151" font-family="Arial, sans-serif" font-size="20" font-weight="bold" text-anchor="middle">+</text><rect width="180" height="40" x="160" fill="#f59e0b" rx="5"/><text x="250" y="25" fill="#fff" font-family="Arial, sans-serif" font-size="12" font-weight="bold" text-anchor="middle">Anskaffelseskostnader</text><text x="360" y="25" fill="#374151" font-family="Arial, sans-serif" font-size="20" font-weight="bold" text-anchor="middle">+</text><rect width="180" height="40" x="380" fill="#8b5cf6" rx="5"/><text x="470" y="25" fill="#fff" font-family="Arial, sans-serif" font-size="12" font-weight="bold" text-anchor="middle">Avgifter og gebyrer</text></g><path fill="none" stroke="#374151" stroke-width="3" d="M400 270v20m-10-10 10 10 10-10"/><rect width="460" height="80" x="170" y="300" fill="#1f2937" rx="8"/><text x="400" y="325" fill="#fff" font-family="Arial, sans-serif" font-size="14" font-weight="bold" text-anchor="middle">INNGANGSVERDI</text><text x="400" y="345" fill="#9ca3af" font-family="Arial, sans-serif" font-size="12" text-anchor="middle">Grunnlag for avskrivninger, gevinst- og tapsberegninger,</text><text x="400" y="365" fill="#9ca3af" font-family="Arial, sans-serif" font-size="12" text-anchor="middle">samt skattemessig behandling</text></svg>