<svg xmlns="http://www.w3.org/2000/svg" width="800" height="600" viewBox="0 0 800 600"><path fill="#f8f9fa" d="M0 0h800v600H0z"/><text x="400" y="40" fill="#2c3e50" font-family="Arial, sans-serif" font-size="24" font-weight="bold" text-anchor="middle">
    Vanlige Bilagsføring Utfordringer og Løsninger
  </text><g transform="translate(50 80)"><rect width="220" height="140" fill="#fff" stroke="#e74c3c" stroke-width="2" rx="8"/><rect width="220" height="30" fill="#e74c3c" rx="8"/><path fill="#e74c3c" d="M0 15h220v15H0z"/><text x="110" y="22" fill="#fff" font-family="Arial, sans-serif" font-size="14" font-weight="bold" text-anchor="middle">
      Utfordring 1: Manglende Bilag
    </text><g transform="translate(20 40)"><rect width="80" height="80" fill="#ecf0f1" stroke="#95a5a6" rx="4"/><text x="40" y="20" fill="#e74c3c" font-family="Arial, sans-serif" font-size="10" font-weight="bold" text-anchor="middle">
        PROBLEM
      </text><rect width="25" height="35" x="15" y="30" fill="#fff" stroke="#e74c3c" rx="2"/><path fill="#e74c3c" d="M18 33h19v3H18z"/><path fill="#95a5a6" d="M18 38h15v2H18zM18 46h12v2H18z"/><text x="50" y="45" fill="#e74c3c" font-family="Arial, sans-serif" font-size="16" font-weight="bold">?</text><text x="60" y="55" fill="#e74c3c" font-family="Arial, sans-serif" font-size="12" font-weight="bold">?</text></g><g transform="translate(120 40)"><rect width="80" height="80" fill="#ecf0f1" stroke="#95a5a6" rx="4"/><text x="40" y="20" fill="#2ecc71" font-family="Arial, sans-serif" font-size="10" font-weight="bold" text-anchor="middle">
        LØSNING
      </text><rect width="50" height="35" x="15" y="25" fill="#2c3e50" rx="3"/><path fill="#ecf0f1" d="M20 30h40v25H20z"/><path fill="#2ecc71" d="M25 35h30v2H25z"/><path fill="#95a5a6" d="M25 40h25v1.5H25zM25 44h28v1.5H25zM25 48h22v1.5H25z"/><circle cx="55" cy="70" r="6" fill="#2ecc71"/><path fill="none" stroke="#fff" stroke-width="1.5" d="m52 70 2 2 4-4"/></g></g><g transform="translate(300 80)"><rect width="220" height="140" fill="#fff" stroke="#f39c12" stroke-width="2" rx="8"/><rect width="220" height="30" fill="#f39c12" rx="8"/><path fill="#f39c12" d="M0 15h220v15H0z"/><text x="110" y="22" fill="#fff" font-family="Arial, sans-serif" font-size="14" font-weight="bold" text-anchor="middle">
      Utfordring 2: Ineffektiv Arkivering
    </text><g transform="translate(20 40)"><rect width="80" height="80" fill="#ecf0f1" stroke="#95a5a6" rx="4"/><text x="40" y="20" fill="#f39c12" font-family="Arial, sans-serif" font-size="10" font-weight="bold" text-anchor="middle">
        PROBLEM
      </text><rect width="15" height="20" x="10" y="25" fill="#e74c3c" rx="1"/><rect width="15" height="15" x="30" y="30" fill="#3498db" rx="1"/><rect width="15" height="17" x="50" y="28" fill="#9b59b6" rx="1"/><rect width="15" height="18" x="20" y="50" fill="#2ecc71" rx="1"/><rect width="15" height="13" x="40" y="55" fill="#f39c12" rx="1"/><circle cx="60" cy="35" r="6" fill="none" stroke="#e74c3c" stroke-width="1.5"/><path stroke="#e74c3c" stroke-width="1.5" d="m65 40 3 3M57 32l6 6M63 32l-6 6"/></g><g transform="translate(120 40)"><rect width="80" height="80" fill="#ecf0f1" stroke="#95a5a6" rx="4"/><text x="40" y="20" fill="#2ecc71" font-family="Arial, sans-serif" font-size="10" font-weight="bold" text-anchor="middle">
        LØSNING
      </text><rect width="50" height="40" x="15" y="25" fill="#2c3e50" rx="3"/><path fill="#ecf0f1" d="M20 30h40v30H20z"/><path fill="#3498db" d="M25 35h8v6h-8z"/><path fill="#2ecc71" d="M35 35h8v6h-8z"/><path fill="#e74c3c" d="M45 35h8v6h-8z"/><path fill="#f39c12" d="M25 43h8v6h-8z"/><path fill="#9b59b6" d="M35 43h8v6h-8z"/><path fill="#1abc9c" d="M45 43h8v6h-8z"/><circle cx="55" cy="70" r="6" fill="#2ecc71"/><path fill="none" stroke="#fff" stroke-width="1.5" d="m52 70 2 2 4-4"/></g></g><g transform="translate(550 80)"><rect width="220" height="140" fill="#fff" stroke="#9b59b6" stroke-width="2" rx="8"/><rect width="220" height="30" fill="#9b59b6" rx="8"/><path fill="#9b59b6" d="M0 15h220v15H0z"/><text x="110" y="22" fill="#fff" font-family="Arial, sans-serif" font-size="14" font-weight="bold" text-anchor="middle">
      Utfordring 3: Manglende Integrasjon
    </text><g transform="translate(20 40)"><rect width="80" height="80" fill="#ecf0f1" stroke="#95a5a6" rx="4"/><text x="40" y="20" fill="#9b59b6" font-family="Arial, sans-serif" font-size="10" font-weight="bold" text-anchor="middle">
        PROBLEM
      </text><rect width="20" height="15" x="10" y="25" fill="#e74c3c" rx="2"/><rect width="20" height="15" x="50" y="25" fill="#3498db" rx="2"/><rect width="20" height="15" x="30" y="50" fill="#2ecc71" rx="2"/><path stroke="#e74c3c" stroke-dasharray="3,3" stroke-width="2" d="M30 32h10M50 32H40M40 40v10"/><text x="40" y="37" fill="#e74c3c" font-family="Arial, sans-serif" font-size="8" font-weight="bold" text-anchor="middle">✗</text><text x="40" y="47" fill="#e74c3c" font-family="Arial, sans-serif" font-size="8" font-weight="bold" text-anchor="middle">✗</text></g><g transform="translate(120 40)"><rect width="80" height="80" fill="#ecf0f1" stroke="#95a5a6" rx="4"/><text x="40" y="20" fill="#2ecc71" font-family="Arial, sans-serif" font-size="10" font-weight="bold" text-anchor="middle">
        LØSNING
      </text><rect width="20" height="15" x="10" y="25" fill="#2ecc71" rx="2"/><rect width="20" height="15" x="50" y="25" fill="#2ecc71" rx="2"/><rect width="20" height="15" x="30" y="50" fill="#2ecc71" rx="2"/><path stroke="#2ecc71" stroke-width="2" d="M30 32h20M40 40v10"/><circle cx="40" cy="40" r="4" fill="#2ecc71"/></g></g><g transform="translate(100 260)"><rect width="600" height="280" fill="#fff" stroke="#34495e" stroke-width="2" rx="12"/><rect width="600" height="40" fill="#34495e" rx="12"/><path fill="#34495e" d="M0 20h600v20H0z"/><text x="300" y="28" fill="#fff" font-family="Arial, sans-serif" font-size="18" font-weight="bold" text-anchor="middle">
      Anbefalte Løsningsstrategier
    </text><g transform="translate(30 60)"><circle cx="20" cy="20" r="15" fill="#e74c3c"/><text x="20" y="25" fill="#fff" font-family="Arial, sans-serif" font-size="12" font-weight="bold" text-anchor="middle">1</text><text x="50" y="15" fill="#2c3e50" font-family="Arial, sans-serif" font-size="14" font-weight="bold">
        Standardiserte Prosedyrer
      </text><text x="50" y="30" fill="#7f8c8d" font-family="Arial, sans-serif" font-size="11">
        • Implementer klare mottaksprosedyrer
      </text><text x="50" y="43" fill="#7f8c8d" font-family="Arial, sans-serif" font-size="11">
        • Bruk digitale systemer med validering
      </text><text x="50" y="56" fill="#7f8c8d" font-family="Arial, sans-serif" font-size="11">
        • Etabler rutiner for oppfølging
      </text></g><g transform="translate(320 60)"><circle cx="20" cy="20" r="15" fill="#f39c12"/><text x="20" y="25" fill="#fff" font-family="Arial, sans-serif" font-size="12" font-weight="bold" text-anchor="middle">2</text><text x="50" y="15" fill="#2c3e50" font-family="Arial, sans-serif" font-size="14" font-weight="bold">
        Digital Arkivering
      </text><text x="50" y="30" fill="#7f8c8d" font-family="Arial, sans-serif" font-size="11">
        • Konsistent navngivning og indeksering
      </text><text x="50" y="43" fill="#7f8c8d" font-family="Arial, sans-serif" font-size="11">
        • Kraftige søkefunksjoner
      </text><text x="50" y="56" fill="#7f8c8d" font-family="Arial, sans-serif" font-size="11">
        • Automatiske backup-systemer
      </text></g><g transform="translate(30 140)"><circle cx="20" cy="20" r="15" fill="#9b59b6"/><text x="20" y="25" fill="#fff" font-family="Arial, sans-serif" font-size="12" font-weight="bold" text-anchor="middle">3</text><text x="50" y="15" fill="#2c3e50" font-family="Arial, sans-serif" font-size="14" font-weight="bold">
        Systemintegrasjon
      </text><text x="50" y="30" fill="#7f8c8d" font-family="Arial, sans-serif" font-size="11">
        • Velg integrerte regnskapssystemer
      </text><text x="50" y="43" fill="#7f8c8d" font-family="Arial, sans-serif" font-size="11">
        • Automatiser dataoverføring
      </text><text x="50" y="56" fill="#7f8c8d" font-family="Arial, sans-serif" font-size="11">
        • Standardiserte arbeidsflyter
      </text></g><g transform="translate(320 140)"><circle cx="20" cy="20" r="15" fill="#2ecc71"/><text x="20" y="25" fill="#fff" font-family="Arial, sans-serif" font-size="12" font-weight="bold" text-anchor="middle">4</text><text x="50" y="15" fill="#2c3e50" font-family="Arial, sans-serif" font-size="14" font-weight="bold">
        Kontinuerlig Forbedring
      </text><text x="50" y="30" fill="#7f8c8d" font-family="Arial, sans-serif" font-size="11">
        • Regelmessig evaluering av prosesser
      </text><text x="50" y="43" fill="#7f8c8d" font-family="Arial, sans-serif" font-size="11">
        • Opplæring og kompetanseutvikling
      </text><text x="50" y="56" fill="#7f8c8d" font-family="Arial, sans-serif" font-size="11">
        • Implementering av ny teknologi
      </text></g><g transform="translate(50 220)"><rect width="500" height="40" fill="#ecf0f1" rx="6"/><text x="250" y="15" fill="#2c3e50" font-family="Arial, sans-serif" font-size="12" font-weight="bold" text-anchor="middle">
        Suksessmåling
      </text><text x="250" y="30" fill="#7f8c8d" font-family="Arial, sans-serif" font-size="10" text-anchor="middle">
        Redusert behandlingstid • Færre feil • Bedre compliance • Økt effektivitet
      </text></g></g></svg>