<svg xmlns="http://www.w3.org/2000/svg" width="800" height="600" viewBox="0 0 800 600"><path fill="#f8f9fa" d="M0 0h800v600H0z"/><text x="400" y="40" fill="#2c3e50" font-family="Arial, sans-serif" font-size="24" font-weight="bold" text-anchor="middle">
    Bilagstyper og Klassifisering
  </text><g transform="translate(50 80)"><rect width="320" height="450" fill="#fff" stroke="#3498db" stroke-width="3" rx="12"/><rect width="320" height="50" fill="#3498db" rx="12"/><path fill="#3498db" d="M0 25h320v25H0z"/><text x="160" y="30" fill="#fff" font-family="Arial, sans-serif" font-size="18" font-weight="bold" text-anchor="middle">
      PRIMÆRBILAG
    </text><text x="160" y="70" fill="#7f8c8d" font-family="Arial, sans-serif" font-size="12" text-anchor="middle">
      Originaldokumenter som direkte dokumenterer transaksjoner
    </text><g transform="translate(20 100)"><rect width="120" height="80" fill="#ecf0f1" stroke="#3498db" rx="6"/><path fill="#2ecc71" d="M10 10h100v8H10z"/><path fill="#95a5a6" d="M10 25h80v4H10zM10 32h90v4H10zM10 39h70v4H10z"/><text x="60" y="60" fill="#2c3e50" font-family="Arial, sans-serif" font-size="10" font-weight="bold" text-anchor="middle">
        Salgsfaktura
      </text><text x="60" y="72" fill="#7f8c8d" font-family="Arial, sans-serif" font-size="8" text-anchor="middle">
        Inntekter
      </text></g><g transform="translate(160 100)"><rect width="120" height="80" fill="#ecf0f1" stroke="#3498db" rx="6"/><path fill="#e74c3c" d="M10 10h100v8H10z"/><path fill="#95a5a6" d="M10 25h80v4H10zM10 32h90v4H10zM10 39h70v4H10z"/><text x="60" y="60" fill="#2c3e50" font-family="Arial, sans-serif" font-size="10" font-weight="bold" text-anchor="middle">
        Innkjøpsfaktura
      </text><text x="60" y="72" fill="#7f8c8d" font-family="Arial, sans-serif" font-size="8" text-anchor="middle">
        Kostnader
      </text></g><g transform="translate(20 200)"><rect width="120" height="80" fill="#ecf0f1" stroke="#3498db" rx="6"/><path fill="#f39c12" d="M10 10h100v6H10z"/><path fill="#95a5a6" d="M10 22h60v4H10zM10 29h80v4H10zM10 36h50v4H10z"/><path fill="#2ecc71" d="M10 50h40v8H10z"/><text x="60" y="68" fill="#2c3e50" font-family="Arial, sans-serif" font-size="10" font-weight="bold" text-anchor="middle">
        Kvittering
      </text><text x="60" y="78" fill="#7f8c8d" font-family="Arial, sans-serif" font-size="8" text-anchor="middle">
        Kontant
      </text></g><g transform="translate(160 200)"><rect width="120" height="80" fill="#ecf0f1" stroke="#3498db" rx="6"/><path fill="#9b59b6" d="M10 10h100v6H10z"/><path fill="#95a5a6" d="M10 22h70v4H10zM10 29h85v4H10zM10 36h60v4H10zM10 43h75v4H10z"/><text x="60" y="62" fill="#2c3e50" font-family="Arial, sans-serif" font-size="10" font-weight="bold" text-anchor="middle">
        Banktransaksjon
      </text><text x="60" y="74" fill="#7f8c8d" font-family="Arial, sans-serif" font-size="8" text-anchor="middle">
        Pengestrøm
      </text></g><g transform="translate(90 300)"><rect width="120" height="80" fill="#ecf0f1" stroke="#3498db" rx="6"/><path fill="#1abc9c" d="M10 10h100v6H10z"/><path fill="#95a5a6" d="M10 22h80v4H10zM10 29h90v4H10zM10 36h70v4H10zM10 43h85v4H10zM10 50h60v4H10z"/><text x="60" y="68" fill="#2c3e50" font-family="Arial, sans-serif" font-size="10" font-weight="bold" text-anchor="middle">
        Lønnsslipp
      </text><text x="60" y="78" fill="#7f8c8d" font-family="Arial, sans-serif" font-size="8" text-anchor="middle">
        Lønnskostnader
      </text></g></g><g transform="translate(430 80)"><rect width="320" height="450" fill="#fff" stroke="#e74c3c" stroke-width="3" rx="12"/><rect width="320" height="50" fill="#e74c3c" rx="12"/><path fill="#e74c3c" d="M0 25h320v25H0z"/><text x="160" y="30" fill="#fff" font-family="Arial, sans-serif" font-size="18" font-weight="bold" text-anchor="middle">
      SEKUNDÆRBILAG
    </text><text x="160" y="70" fill="#7f8c8d" font-family="Arial, sans-serif" font-size="12" text-anchor="middle">
      Interne dokumenter som støtter og forklarer primærbilagene
    </text><g transform="translate(20 100)"><rect width="120" height="80" fill="#ecf0f1" stroke="#e74c3c" rx="6"/><path fill="#e67e22" d="M10 10h100v6H10z"/><path fill="#95a5a6" d="M10 20h80v3H10zM10 26h90v3H10zM10 32h70v3H10zM10 38h85v3H10zM10 44h75v3H10zM10 50h95v3H10z"/><text x="60" y="65" fill="#2c3e50" font-family="Arial, sans-serif" font-size="10" font-weight="bold" text-anchor="middle">
        Bilagsjournal
      </text><text x="60" y="75" fill="#7f8c8d" font-family="Arial, sans-serif" font-size="8" text-anchor="middle">
        Oversikt
      </text></g><g transform="translate(160 100)"><rect width="120" height="80" fill="#ecf0f1" stroke="#e74c3c" rx="6"/><path fill="#8e44ad" d="M10 10h100v6H10z"/><path fill="#95a5a6" d="M10 22h30v4H10zM45 22h30v4H45zM80 22h30v4H80zM10 30h30v4H10zM45 30h30v4H45zM80 30h30v4H80z"/><text x="60" y="52" fill="#2c3e50" font-family="Arial, sans-serif" font-size="10" font-weight="bold" text-anchor="middle">
        Konteringsbilag
      </text><text x="60" y="62" fill="#7f8c8d" font-family="Arial, sans-serif" font-size="8" text-anchor="middle">
        Bokføring
      </text></g><g transform="translate(20 200)"><rect width="120" height="80" fill="#ecf0f1" stroke="#e74c3c" rx="6"/><path fill="#27ae60" d="M10 10h100v6H10z"/><path fill="#95a5a6" d="M10 22h80v4H10zM10 29h90v4H10zM10 36h70v4H10z"/><circle cx="85" cy="50" r="8" fill="none" stroke="#27ae60" stroke-width="2"/><path fill="none" stroke="#27ae60" stroke-width="2" d="m80 50 3 3 7-7"/><text x="60" y="68" fill="#2c3e50" font-family="Arial, sans-serif" font-size="10" font-weight="bold" text-anchor="middle">
        Attestasjonsbilag
      </text><text x="60" y="78" fill="#7f8c8d" font-family="Arial, sans-serif" font-size="8" text-anchor="middle">
        Godkjenning
      </text></g><g transform="translate(160 200)"><rect width="120" height="80" fill="#ecf0f1" stroke="#e74c3c" rx="6"/><path fill="#c0392b" d="M10 10h100v6H10z"/><path fill="#95a5a6" d="M10 22h80v4H10zM10 29h90v4H10z"/><path stroke="#c0392b" stroke-width="2" d="M10 36h100"/><path fill="#2ecc71" d="M10 40h85v4H10z"/><text x="60" y="60" fill="#2c3e50" font-family="Arial, sans-serif" font-size="10" font-weight="bold" text-anchor="middle">
        Korreksjonsbilag
      </text><text x="60" y="72" fill="#7f8c8d" font-family="Arial, sans-serif" font-size="8" text-anchor="middle">
        Rettelser
      </text></g></g><path fill="none" stroke="#34495e" stroke-width="3" marker-end="url(#a)" d="M200 550q200 30 400 0"/><text x="400" y="575" fill="#34495e" font-family="Arial, sans-serif" font-size="12" font-weight="bold" text-anchor="middle">
    Støtter og dokumenterer
  </text><defs><marker id="a" markerHeight="7" markerWidth="10" orient="auto" refX="9" refY="3.5"><path fill="#34495e" d="m0 0 10 3.5L0 7z"/></marker></defs></svg>