<svg xmlns="http://www.w3.org/2000/svg" width="800" height="500" viewBox="0 0 800 500"><path fill="#f8f9fa" d="M0 0h800v500H0z"/><text x="400" y="40" fill="#2c3e50" font-family="Arial, sans-serif" font-size="24" font-weight="bold" text-anchor="middle">
    Digital Bilagsføring Prosess
  </text><g transform="translate(50 80)"><rect width="120" height="120" fill="#fff" stroke="#3498db" stroke-width="2" rx="8"/><text x="60" y="20" fill="#3498db" font-family="Arial, sans-serif" font-size="12" font-weight="bold" text-anchor="middle">
      Steg 1: Inndata
    </text><rect width="30" height="40" x="20" y="30" fill="#ecf0f1" stroke="#95a5a6" rx="2"/><path fill="#3498db" d="M25 35h20v3H25z"/><path fill="#95a5a6" d="M25 40h15v2H25zM25 44h18v2H25zM25 48h12v2H25z"/><rect width="30" height="40" x="70" y="30" fill="#2c3e50" rx="3"/><path fill="#ecf0f1" d="M75 35h20v15H75z"/><path fill="#3498db" d="M78 38h14v2H78z"/><path fill="#95a5a6" d="M78 42h10v1H78zM78 45h12v1H78z"/><text x="60" y="85" fill="#7f8c8d" font-family="Arial, sans-serif" font-size="10" text-anchor="middle">
      Papir eller
    </text><text x="60" y="97" fill="#7f8c8d" font-family="Arial, sans-serif" font-size="10" text-anchor="middle">
      Digital mottak
    </text></g><path fill="none" stroke="#34495e" stroke-width="2" marker-end="url(#a)" d="M190 140h40"/><g transform="translate(250 80)"><rect width="120" height="120" fill="#fff" stroke="#e74c3c" stroke-width="2" rx="8"/><text x="60" y="20" fill="#e74c3c" font-family="Arial, sans-serif" font-size="12" font-weight="bold" text-anchor="middle">
      Steg 2: OCR/Scan
    </text><rect width="60" height="40" x="30" y="30" fill="#34495e" rx="4"/><path fill="#ecf0f1" d="M35 35h50v30H35z"/><path fill="#3498db" d="M40 40h40v3H40z"/><path fill="#95a5a6" d="M40 45h30v2H40zM40 49h35v2H40zM40 53h25v2H40z"/><path fill="#e74c3c" d="M30 75h60v3H30z" opacity=".7"/><text x="60" y="90" fill="#7f8c8d" font-family="Arial, sans-serif" font-size="10" text-anchor="middle">
      Automatisk
    </text><text x="60" y="102" fill="#7f8c8d" font-family="Arial, sans-serif" font-size="10" text-anchor="middle">
      tekstgjenkjenning
    </text></g><path fill="none" stroke="#34495e" stroke-width="2" marker-end="url(#a)" d="M390 140h40"/><g transform="translate(450 80)"><rect width="120" height="120" fill="#fff" stroke="#9b59b6" stroke-width="2" rx="8"/><text x="60" y="20" fill="#9b59b6" font-family="Arial, sans-serif" font-size="12" font-weight="bold" text-anchor="middle">
      Steg 3: AI Analyse
    </text><circle cx="60" cy="55" r="20" fill="none" stroke="#9b59b6" stroke-width="2"/><circle cx="55" cy="50" r="2" fill="#9b59b6"/><circle cx="65" cy="50" r="2" fill="#9b59b6"/><circle cx="50" cy="60" r="1.5" fill="#9b59b6"/><circle cx="60" cy="65" r="1.5" fill="#9b59b6"/><circle cx="70" cy="60" r="1.5" fill="#9b59b6"/><path stroke="#9b59b6" d="m55 50-5 10M65 50l5 10M60 65l-10-5M60 65l10-5"/><text x="60" y="90" fill="#7f8c8d" font-family="Arial, sans-serif" font-size="10" text-anchor="middle">
      Klassifisering og
    </text><text x="60" y="102" fill="#7f8c8d" font-family="Arial, sans-serif" font-size="10" text-anchor="middle">
      konteringsforslag
    </text></g><path fill="none" stroke="#34495e" stroke-width="2" marker-end="url(#a)" d="M590 140h40"/><g transform="translate(650 80)"><rect width="120" height="120" fill="#fff" stroke="#2ecc71" stroke-width="2" rx="8"/><text x="60" y="20" fill="#2ecc71" font-family="Arial, sans-serif" font-size="12" font-weight="bold" text-anchor="middle">
      Steg 4: Arkivering
    </text><ellipse cx="45" cy="45" fill="#2ecc71" rx="15" ry="8"/><ellipse cx="60" cy="40" fill="#2ecc71" rx="18" ry="10"/><ellipse cx="75" cy="45" fill="#2ecc71" rx="15" ry="8"/><path fill="#2ecc71" d="M30 45h60v15H30z"/><path fill="#fff" d="M50 50h4v6h-4zM56 50h4v6h-4zM62 50h4v6h-4z"/><text x="60" y="80" fill="#7f8c8d" font-family="Arial, sans-serif" font-size="10" text-anchor="middle">
      Sikker digital
    </text><text x="60" y="92" fill="#7f8c8d" font-family="Arial, sans-serif" font-size="10" text-anchor="middle">
      lagring
    </text></g><g transform="translate(100 250)"><rect width="600" height="200" fill="#fff" stroke="#34495e" stroke-width="2" rx="12"/><rect width="600" height="40" fill="#34495e" rx="12"/><path fill="#34495e" d="M0 20h600v20H0z"/><text x="300" y="28" fill="#fff" font-family="Arial, sans-serif" font-size="16" font-weight="bold" text-anchor="middle">
      Fordeler med Digital Bilagsføring
    </text><g transform="translate(30 60)"><circle cx="25" cy="25" r="20" fill="#3498db"/><path fill="none" stroke="#fff" stroke-linecap="round" stroke-width="3" d="m15 25 5 5 15-15"/><text x="60" y="20" fill="#2c3e50" font-family="Arial, sans-serif" font-size="14" font-weight="bold">
        Økt Effektivitet
      </text><text x="60" y="35" fill="#7f8c8d" font-family="Arial, sans-serif" font-size="11">
        Raskere registrering og søk
      </text></g><g transform="translate(320 60)"><circle cx="25" cy="25" r="20" fill="#e74c3c"/><rect width="14" height="12" x="18" y="15" fill="none" stroke="#fff" stroke-width="2" rx="2"/><path fill="none" stroke="#fff" stroke-width="2" d="M20 20h10v8H20z"/><circle cx="25" cy="24" r="1.5" fill="#fff"/><text x="60" y="20" fill="#2c3e50" font-family="Arial, sans-serif" font-size="14" font-weight="bold">
        Bedre Sikkerhet
      </text><text x="60" y="35" fill="#7f8c8d" font-family="Arial, sans-serif" font-size="11">
        Backup og tilgangskontroll
      </text></g><g transform="translate(30 120)"><circle cx="25" cy="25" r="20" fill="#2ecc71"/><text x="25" y="30" fill="#fff" font-family="Arial, sans-serif" font-size="12" font-weight="bold" text-anchor="middle">
        kr
      </text><text x="60" y="20" fill="#2c3e50" font-family="Arial, sans-serif" font-size="14" font-weight="bold">
        Kostnadsbesparelser
      </text><text x="60" y="35" fill="#7f8c8d" font-family="Arial, sans-serif" font-size="11">
        Mindre papir og lagring
      </text></g><g transform="translate(320 120)"><circle cx="25" cy="25" r="20" fill="#f39c12"/><path fill="none" stroke="#fff" stroke-width="2" d="M15 20h8v8h-8zM27 20h8v8h-8z"/><path stroke="#fff" stroke-width="2" d="M23 24h4"/><text x="60" y="20" fill="#2c3e50" font-family="Arial, sans-serif" font-size="14" font-weight="bold">
        Integrerte Arbeidsflyter
      </text><text x="60" y="35" fill="#7f8c8d" font-family="Arial, sans-serif" font-size="11">
        Automatisk kobling til bokføring
      </text></g></g><defs><marker id="a" markerHeight="7" markerWidth="10" orient="auto" refX="9" refY="3.5"><path fill="#34495e" d="m0 0 10 3.5L0 7z"/></marker></defs></svg>