<svg xmlns="http://www.w3.org/2000/svg" width="700" height="350" viewBox="0 0 700 350"><path fill="#f8f9fa" d="M0 0h700v350H0z"/><text x="350" y="30" fill="#2c3e50" font-family="Arial, sans-serif" font-size="18" font-weight="bold" text-anchor="middle">Big Mac-priser og inflasjon i Norge (2020-2024)</text><g transform="translate(80 60)"><path stroke="#6c757d" stroke-width="2" d="M0 0v200M0 200h500"/><text x="-10" y="205" fill="#6c757d" font-family="Arial, sans-serif" font-size="10" text-anchor="end">60</text><text x="-10" y="165" fill="#6c757d" font-family="Arial, sans-serif" font-size="10" text-anchor="end">65</text><text x="-10" y="125" fill="#6c757d" font-family="Arial, sans-serif" font-size="10" text-anchor="end">70</text><text x="-10" y="85" fill="#6c757d" font-family="Arial, sans-serif" font-size="10" text-anchor="end">75</text><text x="-10" y="45" fill="#6c757d" font-family="Arial, sans-serif" font-size="10" text-anchor="end">80</text><path stroke="#dee2e6" d="M0 160h500M0 120h500M0 80h500M0 40h500"/><circle cx="100" cy="160" r="5" fill="#007bff"/><text x="100" y="180" fill="#495057" font-family="Arial, sans-serif" font-size="10" text-anchor="middle">2020</text><text x="100" y="145" fill="#495057" font-family="Arial, sans-serif" font-size="10" text-anchor="middle">65 NOK</text><circle cx="200" cy="144" r="5" fill="#007bff"/><text x="200" y="180" fill="#495057" font-family="Arial, sans-serif" font-size="10" text-anchor="middle">2021</text><text x="200" y="129" fill="#495057" font-family="Arial, sans-serif" font-size="10" text-anchor="middle">67 NOK</text><text x="200" y="195" fill="#28a745" font-family="Arial, sans-serif" font-size="9" text-anchor="middle">+3.1%</text><circle cx="300" cy="128" r="5" fill="#007bff"/><text x="300" y="180" fill="#495057" font-family="Arial, sans-serif" font-size="10" text-anchor="middle">2022</text><text x="300" y="113" fill="#495057" font-family="Arial, sans-serif" font-size="10" text-anchor="middle">69 NOK</text><text x="300" y="195" fill="#28a745" font-family="Arial, sans-serif" font-size="9" text-anchor="middle">+3.0%</text><circle cx="400" cy="104" r="5" fill="#007bff"/><text x="400" y="180" fill="#495057" font-family="Arial, sans-serif" font-size="10" text-anchor="middle">2023</text><text x="400" y="89" fill="#495057" font-family="Arial, sans-serif" font-size="10" text-anchor="middle">72 NOK</text><text x="400" y="195" fill="#ffc107" font-family="Arial, sans-serif" font-size="9" text-anchor="middle">+4.3%</text><circle cx="500" cy="80" r="5" fill="#007bff"/><text x="500" y="180" fill="#495057" font-family="Arial, sans-serif" font-size="10" text-anchor="middle">2024</text><text x="500" y="65" fill="#495057" font-family="Arial, sans-serif" font-size="10" text-anchor="middle">75 NOK</text><text x="500" y="195" fill="#dc3545" font-family="Arial, sans-serif" font-size="9" text-anchor="middle">+4.2%</text><path fill="none" stroke="#007bff" stroke-width="3" d="m100 160 100-16 100-16 100-24 100-24"/><text x="-50" y="100" fill="#6c757d" font-family="Arial, sans-serif" font-size="12" text-anchor="middle" transform="rotate(-90 -50 100)">Big Mac-pris (NOK)</text></g><text y="20" fill="#2c3e50" font-family="Arial, sans-serif" font-size="14" font-weight="bold" transform="translate(100 280)">Inflasjonsindikatorer:</text><path fill="#28a745" d="M100 305h15v10h-15z"/><text x="25" y="35" fill="#495057" font-family="Arial, sans-serif" font-size="11" transform="translate(100 280)">Normal inflasjon (&lt;3.5%)</text><path fill="#ffc107" d="M300 305h15v10h-15z"/><text x="225" y="35" fill="#495057" font-family="Arial, sans-serif" font-size="11" transform="translate(100 280)">Moderat inflasjon (3.5-4.5%)</text><path fill="#dc3545" d="M500 305h15v10h-15z"/><text x="425" y="35" fill="#495057" font-family="Arial, sans-serif" font-size="11" transform="translate(100 280)">Høy inflasjon (&gt;4.5%)</text></svg>