<svg width="600" height="450" xmlns="http://www.w3.org/2000/svg">
  <defs>
    <linearGradient id="scannerGradient" x1="0%" y1="0%" x2="100%" y2="100%">
      <stop offset="0%" style="stop-color:#e74c3c;stop-opacity:1" />
      <stop offset="100%" style="stop-color:#c0392b;stop-opacity:1" />
    </linearGradient>
    <linearGradient id="systemGradient" x1="0%" y1="0%" x2="100%" y2="100%">
      <stop offset="0%" style="stop-color:#3498db;stop-opacity:1" />
      <stop offset="100%" style="stop-color:#2980b9;stop-opacity:1" />
    </linearGradient>
    <linearGradient id="dataGradient" x1="0%" y1="0%" x2="100%" y2="100%">
      <stop offset="0%" style="stop-color:#27ae60;stop-opacity:1" />
      <stop offset="100%" style="stop-color:#229954;stop-opacity:1" />
    </linearGradient>
  </defs>
  

  <rect width="600" height="450" fill="#f8f9fa" stroke="#dee2e6" stroke-width="2"/>
  

  <text x="300" y="30" text-anchor="middle" font-family="Arial, sans-serif" font-size="18" font-weight="bold" fill="#2c3e50">
    Kassasystem GTIN Integrasjon
  </text>
  

  <g transform="translate(50, 60)">
    <rect x="0" y="0" width="120" height="80" fill="#ecf0f1" stroke="#bdc3c7" stroke-width="2" rx="5"/>
    <text x="60" y="20" text-anchor="middle" font-family="Arial, sans-serif" font-size="12" font-weight="bold" fill="#2c3e50">
      Produkt
    </text>
    

    <g transform="translate(20, 30)">
      <rect x="0" y="0" width="1" height="20" fill="#000"/>
      <rect x="2" y="0" width="2" height="20" fill="#000"/>
      <rect x="5" y="0" width="1" height="20" fill="#000"/>
      <rect x="7" y="0" width="3" height="20" fill="#000"/>
      <rect x="11" y="0" width="1" height="20" fill="#000"/>
      <rect x="13" y="0" width="2" height="20" fill="#000"/>
      <rect x="16" y="0" width="1" height="20" fill="#000"/>
      <rect x="18" y="0" width="3" height="20" fill="#000"/>
      <rect x="22" y="0" width="1" height="20" fill="#000"/>
      <rect x="24" y="0" width="2" height="20" fill="#000"/>
      <rect x="27" y="0" width="1" height="20" fill="#000"/>
      <rect x="29" y="0" width="3" height="20" fill="#000"/>
      <rect x="33" y="0" width="2" height="20" fill="#000"/>
      <rect x="36" y="0" width="1" height="20" fill="#000"/>
      <rect x="38" y="0" width="2" height="20" fill="#000"/>
      <rect x="41" y="0" width="3" height="20" fill="#000"/>
      <rect x="45" y="0" width="1" height="20" fill="#000"/>
      <rect x="47" y="0" width="2" height="20" fill="#000"/>
      <rect x="50" y="0" width="1" height="20" fill="#000"/>
      <rect x="52" y="0" width="3" height="20" fill="#000"/>
      <rect x="56" y="0" width="2" height="20" fill="#000"/>
      <rect x="59" y="0" width="1" height="20" fill="#000"/>
      <rect x="61" y="0" width="2" height="20" fill="#000"/>
      <rect x="64" y="0" width="3" height="20" fill="#000"/>
      <rect x="68" y="0" width="1" height="20" fill="#000"/>
      <rect x="70" y="0" width="2" height="20" fill="#000"/>
      <rect x="73" y="0" width="1" height="20" fill="#000"/>
      <rect x="75" y="0" width="3" height="20" fill="#000"/>
      <rect x="79" y="0" width="2" height="20" fill="#000"/>
      
      <text x="40" y="35" text-anchor="middle" font-family="Arial, sans-serif" font-size="8" fill="#2c3e50">
        7035620012345
      </text>
    </g>
  </g>
  

  <g transform="translate(180, 95)">
    <line x1="0" y1="0" x2="40" y2="0" stroke="#34495e" stroke-width="3" marker-end="url(#arrowhead)"/>
    <text x="20" y="-10" text-anchor="middle" font-family="Arial, sans-serif" font-size="10" fill="#7f8c8d">
      Scanning
    </text>
  </g>
  

  <g transform="translate(240, 60)">
    <rect x="0" y="0" width="80" height="80" fill="url(#scannerGradient)" stroke="#c0392b" stroke-width="2" rx="5"/>
    <text x="40" y="20" text-anchor="middle" font-family="Arial, sans-serif" font-size="12" font-weight="bold" fill="white">
      Scanner
    </text>
    

    <g transform="translate(10, 30)">
      <line x1="0" y1="15" x2="60" y2="15" stroke="#fff" stroke-width="2" opacity="0.8"/>
      <line x1="0" y1="12" x2="60" y2="12" stroke="#fff" stroke-width="1" opacity="0.6"/>
      <line x1="0" y1="18" x2="60" y2="18" stroke="#fff" stroke-width="1" opacity="0.6"/>
    </g>
    
    <text x="40" y="65" text-anchor="middle" font-family="Arial, sans-serif" font-size="10" fill="white">
      Leser GTIN
    </text>
  </g>
  

  <g transform="translate(330, 95)">
    <line x1="0" y1="0" x2="40" y2="0" stroke="#34495e" stroke-width="3" marker-end="url(#arrowhead)"/>
    <text x="20" y="-10" text-anchor="middle" font-family="Arial, sans-serif" font-size="10" fill="#7f8c8d">
      Oppslag
    </text>
  </g>
  

  <g transform="translate(390, 60)">
    <rect x="0" y="0" width="120" height="80" fill="url(#systemGradient)" stroke="#2980b9" stroke-width="2" rx="5"/>
    <text x="60" y="20" text-anchor="middle" font-family="Arial, sans-serif" font-size="12" font-weight="bold" fill="white">
      Kassasystem
    </text>
    

    <rect x="20" y="30" width="80" height="35" fill="#ecf0f1" stroke="#bdc3c7" stroke-width="1" rx="2"/>
    <text x="60" y="45" text-anchor="middle" font-family="Arial, sans-serif" font-size="8" fill="#2c3e50">
      Produktdata
    </text>
    <text x="60" y="55" text-anchor="middle" font-family="Arial, sans-serif" font-size="8" fill="#2c3e50">
      Pris: 49,90 kr
    </text>
  </g>
  

  <g transform="translate(50, 180)">
    <text x="250" y="0" text-anchor="middle" font-family="Arial, sans-serif" font-size="16" font-weight="bold" fill="#2c3e50">
      Automatisk Dataflyt
    </text>
    

    <g transform="translate(0, 30)">
      <rect x="0" y="0" width="150" height="100" fill="url(#dataGradient)" stroke="#229954" stroke-width="2" rx="5"/>
      <text x="75" y="25" text-anchor="middle" font-family="Arial, sans-serif" font-size="14" font-weight="bold" fill="white">
        Produktdatabase
      </text>
      
      <text x="75" y="45" text-anchor="middle" font-family="Arial, sans-serif" font-size="10" fill="white">
        GTIN: 7035620012345
      </text>
      <text x="75" y="58" text-anchor="middle" font-family="Arial, sans-serif" font-size="10" fill="white">
        Navn: Kaffe 500g
      </text>
      <text x="75" y="71" text-anchor="middle" font-family="Arial, sans-serif" font-size="10" fill="white">
        Pris: 49,90 kr
      </text>
      <text x="75" y="84" text-anchor="middle" font-family="Arial, sans-serif" font-size="10" fill="white">
        MVA: 15%
      </text>
    </g>
    

    <g transform="translate(160, 75)">
      <line x1="0" y1="0" x2="40" y2="0" stroke="#34495e" stroke-width="3" marker-end="url(#arrowhead)"/>
    </g>
    

    <g transform="translate(220, 30)">
      <rect x="0" y="0" width="150" height="100" fill="#f39c12" stroke="#e67e22" stroke-width="2" rx="5"/>
      <text x="75" y="25" text-anchor="middle" font-family="Arial, sans-serif" font-size="14" font-weight="bold" fill="white">
        Automatisk Prosess
      </text>
      
      <text x="75" y="45" text-anchor="middle" font-family="Arial, sans-serif" font-size="10" fill="white">
        ✓ Prisberegning
      </text>
      <text x="75" y="58" text-anchor="middle" font-family="Arial, sans-serif" font-size="10" fill="white">
        ✓ MVA-beregning
      </text>
      <text x="75" y="71" text-anchor="middle" font-family="Arial, sans-serif" font-size="10" fill="white">
        ✓ Lageroppdatering
      </text>
      <text x="75" y="84" text-anchor="middle" font-family="Arial, sans-serif" font-size="10" fill="white">
        ✓ Regnskapsføring
      </text>
    </g>
    

    <g transform="translate(380, 75)">
      <line x1="0" y1="0" x2="40" y2="0" stroke="#34495e" stroke-width="3" marker-end="url(#arrowhead)"/>
    </g>
    

    <g transform="translate(440, 30)">
      <rect x="0" y="0" width="120" height="100" fill="#9b59b6" stroke="#8e44ad" stroke-width="2" rx="5"/>
      <text x="60" y="25" text-anchor="middle" font-family="Arial, sans-serif" font-size="14" font-weight="bold" fill="white">
        Resultat
      </text>
      
      <text x="60" y="45" text-anchor="middle" font-family="Arial, sans-serif" font-size="10" fill="white">
        Kvittering
      </text>
      <text x="60" y="58" text-anchor="middle" font-family="Arial, sans-serif" font-size="10" fill="white">
        Regnskapsbilag
      </text>
      <text x="60" y="71" text-anchor="middle" font-family="Arial, sans-serif" font-size="10" fill="white">
        Lageroppdatering
      </text>
      <text x="60" y="84" text-anchor="middle" font-family="Arial, sans-serif" font-size="10" fill="white">
        Salgsrapport
      </text>
    </g>
  </g>
  

  <g transform="translate(50, 320)">
    <text x="250" y="0" text-anchor="middle" font-family="Arial, sans-serif" font-size="16" font-weight="bold" fill="#2c3e50">
      Fordeler med GTIN-integrasjon
    </text>
    

    <g transform="translate(0, 30)">
      <circle cx="10" cy="10" r="8" fill="#27ae60"/>
      <text x="10" y="15" text-anchor="middle" font-family="Arial, sans-serif" font-size="12" font-weight="bold" fill="white">✓</text>
      <text x="25" y="15" font-family="Arial, sans-serif" font-size="12" fill="#2c3e50">
        <tspan font-weight="bold">Hastighet:</tspan> Øyeblikkelig produktgjenkjenning og prisoppslag
      </text>
    </g>
    

    <g transform="translate(0, 55)">
      <circle cx="10" cy="10" r="8" fill="#3498db"/>
      <text x="10" y="15" text-anchor="middle" font-family="Arial, sans-serif" font-size="12" font-weight="bold" fill="white">✓</text>
      <text x="25" y="15" font-family="Arial, sans-serif" font-size="12" fill="#2c3e50">
        <tspan font-weight="bold">Nøyaktighet:</tspan> Eliminerer manuelle feil i prisregistrering
      </text>
    </g>
    

    <g transform="translate(0, 80)">
      <circle cx="10" cy="10" r="8" fill="#f39c12"/>
      <text x="10" y="15" text-anchor="middle" font-family="Arial, sans-serif" font-size="12" font-weight="bold" fill="white">✓</text>
      <text x="25" y="15" font-family="Arial, sans-serif" font-size="12" fill="#2c3e50">
        <tspan font-weight="bold">Automatisering:</tspan> Direkte integrasjon med regnskap og lager
      </text>
    </g>
    

    <g transform="translate(300, 30)">
      <circle cx="10" cy="10" r="8" fill="#e74c3c"/>
      <text x="10" y="15" text-anchor="middle" font-family="Arial, sans-serif" font-size="12" font-weight="bold" fill="white">✓</text>
      <text x="25" y="15" font-family="Arial, sans-serif" font-size="12" fill="#2c3e50">
        <tspan font-weight="bold">Sporbarhet:</tspan> Komplett oversikt over produktbevegelser
      </text>
    </g>
    

    <g transform="translate(300, 55)">
      <circle cx="10" cy="10" r="8" fill="#9b59b6"/>
      <text x="10" y="15" text-anchor="middle" font-family="Arial, sans-serif" font-size="12" font-weight="bold" fill="white">✓</text>
      <text x="25" y="15" font-family="Arial, sans-serif" font-size="12" fill="#2c3e50">
        <tspan font-weight="bold">Rapportering:</tspan> Automatisk generering av salgsdata
      </text>
    </g>
    

    <g transform="translate(300, 80)">
      <circle cx="10" cy="10" r="8" fill="#1abc9c"/>
      <text x="10" y="15" text-anchor="middle" font-family="Arial, sans-serif" font-size="12" font-weight="bold" fill="white">✓</text>
      <text x="25" y="15" font-family="Arial, sans-serif" font-size="12" fill="#2c3e50">
        <tspan font-weight="bold">Compliance:</tspan> Sikrer korrekt MVA-behandling
      </text>
    </g>
  </g>
  

  <defs>
    <marker id="arrowhead" markerWidth="10" markerHeight="7" refX="9" refY="3.5" orient="auto">
      <polygon points="0 0, 10 3.5, 0 7" fill="#34495e"/>
    </marker>
  </defs>
</svg>