<svg xmlns="http://www.w3.org/2000/svg" width="700" height="500"><defs><linearGradient id="a" x1="0%" x2="100%" y1="0%" y2="0%"><stop offset="0%" style="stop-color:#27ae60;stop-opacity:1"/><stop offset="100%" style="stop-color:#229954;stop-opacity:1"/></linearGradient><linearGradient id="b" x1="0%" x2="100%" y1="0%" y2="0%"><stop offset="0%" style="stop-color:#e74c3c;stop-opacity:1"/><stop offset="100%" style="stop-color:#c0392b;stop-opacity:1"/></linearGradient><linearGradient id="c" x1="0%" x2="100%" y1="0%" y2="0%"><stop offset="0%" style="stop-color:#3498db;stop-opacity:1"/><stop offset="100%" style="stop-color:#2980b9;stop-opacity:1"/></linearGradient></defs><path fill="#f8f9fa" stroke="#dee2e6" stroke-width="2" d="M0 0h700v500H0z"/><text x="350" y="30" fill="#2c3e50" font-family="Arial, sans-serif" font-size="18" font-weight="bold" text-anchor="middle">
    Produktlønnsomhetsanalyse med GTIN
  </text><text x="300" fill="#2c3e50" font-family="Arial, sans-serif" font-size="16" font-weight="bold" text-anchor="middle" transform="translate(50 60)">
      Produktsammenligning
    </text><g transform="translate(50 90)"><rect width="180" height="120" fill="#ecf0f1" stroke="#bdc3c7" stroke-width="2" rx="5"/><text x="90" y="20" fill="#2c3e50" font-family="Arial, sans-serif" font-size="14" font-weight="bold" text-anchor="middle">
        Produkt A
      </text><text x="90" y="35" fill="#7f8c8d" font-family="Arial, sans-serif" font-size="10" text-anchor="middle">
        GTIN: 7035620012345
      </text><rect width="140" height="15" x="20" y="50" fill="url(#a)" rx="2"/><text x="25" y="62" fill="#fff" font-family="Arial, sans-serif" font-size="10" font-weight="bold">
        Inntekt: 150,000 kr
      </text><rect width="100" height="15" x="20" y="70" fill="url(#b)" rx="2"/><text x="25" y="82" fill="#fff" font-family="Arial, sans-serif" font-size="10" font-weight="bold">
        Kostnad: 100,000 kr
      </text><rect width="40" height="15" x="20" y="90" fill="url(#c)" rx="2"/><text x="25" y="102" fill="#fff" font-family="Arial, sans-serif" font-size="10" font-weight="bold">
        Fortjeneste: 50,000 kr
      </text></g><g transform="translate(250 90)"><rect width="180" height="120" fill="#ecf0f1" stroke="#bdc3c7" stroke-width="2" rx="5"/><text x="90" y="20" fill="#2c3e50" font-family="Arial, sans-serif" font-size="14" font-weight="bold" text-anchor="middle">
        Produkt B
      </text><text x="90" y="35" fill="#7f8c8d" font-family="Arial, sans-serif" font-size="10" text-anchor="middle">
        GTIN: 7035620054321
      </text><rect width="120" height="15" x="20" y="50" fill="url(#a)" rx="2"/><text x="25" y="62" fill="#fff" font-family="Arial, sans-serif" font-size="10" font-weight="bold">
        Inntekt: 120,000 kr
      </text><rect width="70" height="15" x="20" y="70" fill="url(#b)" rx="2"/><text x="25" y="82" fill="#fff" font-family="Arial, sans-serif" font-size="10" font-weight="bold">
        Kostnad: 70,000 kr
      </text><rect width="50" height="15" x="20" y="90" fill="url(#c)" rx="2"/><text x="25" y="102" fill="#fff" font-family="Arial, sans-serif" font-size="10" font-weight="bold">
        Fortjeneste: 50,000 kr
      </text></g><g transform="translate(450 90)"><rect width="180" height="120" fill="#ecf0f1" stroke="#bdc3c7" stroke-width="2" rx="5"/><text x="90" y="20" fill="#2c3e50" font-family="Arial, sans-serif" font-size="14" font-weight="bold" text-anchor="middle">
        Produkt C
      </text><text x="90" y="35" fill="#7f8c8d" font-family="Arial, sans-serif" font-size="10" text-anchor="middle">
        GTIN: 7035620098765
      </text><rect width="80" height="15" x="20" y="50" fill="url(#a)" rx="2"/><text x="25" y="62" fill="#fff" font-family="Arial, sans-serif" font-size="10" font-weight="bold">
        Inntekt: 80,000 kr
      </text><rect width="60" height="15" x="20" y="70" fill="url(#b)" rx="2"/><text x="25" y="82" fill="#fff" font-family="Arial, sans-serif" font-size="10" font-weight="bold">
        Kostnad: 60,000 kr
      </text><rect width="20" height="15" x="20" y="90" fill="url(#c)" rx="2"/><text x="25" y="102" fill="#fff" font-family="Arial, sans-serif" font-size="10" font-weight="bold">
        Fortjeneste: 20,000 kr
      </text></g><g transform="translate(50 240)"><text x="300" fill="#2c3e50" font-family="Arial, sans-serif" font-size="16" font-weight="bold" text-anchor="middle">
      ABC-analyse basert på GTIN-data
    </text><path fill="#fff" stroke="#dee2e6" d="M0 20h600v150H0z"/><path stroke="#2c3e50" stroke-width="2" d="M50 30v130M50 160h500"/><text x="45" y="35" fill="#7f8c8d" font-family="Arial, sans-serif" font-size="10" text-anchor="end">100%</text><text x="45" y="65" fill="#7f8c8d" font-family="Arial, sans-serif" font-size="10" text-anchor="end">75%</text><text x="45" y="95" fill="#7f8c8d" font-family="Arial, sans-serif" font-size="10" text-anchor="end">50%</text><text x="45" y="125" fill="#7f8c8d" font-family="Arial, sans-serif" font-size="10" text-anchor="end">25%</text><text x="45" y="155" fill="#7f8c8d" font-family="Arial, sans-serif" font-size="10" text-anchor="end">0%</text><text x="150" y="175" fill="#7f8c8d" font-family="Arial, sans-serif" font-size="10" text-anchor="middle">A-produkter</text><text x="300" y="175" fill="#7f8c8d" font-family="Arial, sans-serif" font-size="10" text-anchor="middle">B-produkter</text><text x="450" y="175" fill="#7f8c8d" font-family="Arial, sans-serif" font-size="10" text-anchor="middle">C-produkter</text><rect width="140" height="104" x="60" y="56" fill="#27ae60" opacity=".8" rx="3"/><text x="130" y="110" fill="#fff" font-family="Arial, sans-serif" font-size="12" font-weight="bold" text-anchor="middle">
      80% fortjeneste
    </text><text x="130" y="125" fill="#fff" font-family="Arial, sans-serif" font-size="10" text-anchor="middle">
      20% av produkter
    </text><rect width="140" height="26" x="210" y="134" fill="#f39c12" opacity=".8" rx="3"/><text x="280" y="150" fill="#fff" font-family="Arial, sans-serif" font-size="10" font-weight="bold" text-anchor="middle">
      15% fortjeneste - 30% produkter
    </text><rect width="140" height="8" x="360" y="152" fill="#e74c3c" opacity=".8" rx="3"/><text x="430" y="145" fill="#2c3e50" font-family="Arial, sans-serif" font-size="9" text-anchor="middle">
      5% fortjeneste - 50% produkter
    </text></g><text x="300" fill="#2c3e50" font-family="Arial, sans-serif" font-size="16" font-weight="bold" text-anchor="middle" transform="translate(50 420)">
      Nøkkeltall per GTIN
    </text><g transform="translate(50 445)"><circle cx="10" cy="10" r="8" fill="#27ae60"/><text x="25" y="15" fill="#2c3e50" font-family="Arial, sans-serif" font-size="12">
        <tspan font-weight="bold">Dekningsbidrag:</tspan> Automatisk beregning per produktenhet
      </text></g><g transform="translate(350 445)"><circle cx="10" cy="10" r="8" fill="#3498db"/><text x="25" y="15" fill="#2c3e50" font-family="Arial, sans-serif" font-size="12">
        <tspan font-weight="bold">Omløpshastighet:</tspan> Hvor raskt produkter selges
      </text></g><g transform="translate(50 470)"><circle cx="10" cy="10" r="8" fill="#f39c12"/><text x="25" y="15" fill="#2c3e50" font-family="Arial, sans-serif" font-size="12">
        <tspan font-weight="bold">Sesongvariasjoner:</tspan> Salgsutvikling over tid
      </text></g><g transform="translate(350 470)"><circle cx="10" cy="10" r="8" fill="#9b59b6"/><text x="25" y="15" fill="#2c3e50" font-family="Arial, sans-serif" font-size="12">
        <tspan font-weight="bold">Kostnadsdrivere:</tspan> Identifikasjon av skjulte kostnader
      </text></g></svg>