<svg xmlns="http://www.w3.org/2000/svg" width="800" height="400"><defs><linearGradient id="a" x1="0%" x2="100%" y1="0%" y2="100%"><stop offset="0%" style="stop-color:#f8f9fa;stop-opacity:1"/><stop offset="100%" style="stop-color:#e9ecef;stop-opacity:1"/></linearGradient><linearGradient id="b" x1="0%" x2="100%" y1="0%" y2="0%"><stop offset="0%" style="stop-color:#06c;stop-opacity:1"/><stop offset="100%" style="stop-color:#049;stop-opacity:1"/></linearGradient></defs><path fill="url(#a)" stroke="#dee2e6" stroke-width="2" d="M0 0h800v400H0z"/><path fill="url(#b)" d="M0 0h800v80H0z"/><text x="400" y="45" fill="#fff" font-family="Arial, sans-serif" font-size="28" font-weight="bold" text-anchor="middle">
    Kontantstrømanalyse
  </text><rect width="700" height="250" x="50" y="100" fill="#fff" stroke="#ced4da" rx="8"/><path fill="none" stroke="#28a745" stroke-width="4" d="M150 150h100l-10-10m10 10-10 10"/><text x="200" y="140" fill="#28a745" font-family="Arial, sans-serif" font-size="14" font-weight="bold" text-anchor="middle">
    Kontantinnstrøm
  </text><rect width="240" height="80" x="280" y="130" fill="#f8f9fa" stroke="#06c" stroke-width="2" rx="8"/><text x="400" y="155" fill="#06c" font-family="Arial, sans-serif" font-size="16" font-weight="bold" text-anchor="middle">
    Kontantstrømanalyse
  </text><text x="400" y="175" fill="#495057" font-family="Arial, sans-serif" font-size="12" text-anchor="middle">
    Operasjonell • Investering
  </text><text x="400" y="195" fill="#495057" font-family="Arial, sans-serif" font-size="12" text-anchor="middle">
    Finansiering
  </text><path fill="none" stroke="#dc3545" stroke-width="4" d="M550 150h100l-10-10m10 10-10 10"/><text x="600" y="140" fill="#dc3545" font-family="Arial, sans-serif" font-size="14" font-weight="bold" text-anchor="middle">
    Kontantutstrøm
  </text><rect width="160" height="60" x="80" y="250" fill="#e3f2fd" stroke="#1976d2" rx="4"/><text x="160" y="270" fill="#1976d2" font-family="Arial, sans-serif" font-size="12" font-weight="bold" text-anchor="middle">
    Likviditet
  </text><text x="160" y="290" fill="#424242" font-family="Arial, sans-serif" font-size="11" text-anchor="middle">
    Kortsiktig betalingsevne
  </text><rect width="160" height="60" x="320" y="250" fill="#f3e5f5" stroke="#7b1fa2" rx="4"/><text x="400" y="270" fill="#7b1fa2" font-family="Arial, sans-serif" font-size="12" font-weight="bold" text-anchor="middle">
    Lønnsomhet
  </text><text x="400" y="290" fill="#424242" font-family="Arial, sans-serif" font-size="11" text-anchor="middle">
    Kontantgenerering
  </text><rect width="160" height="60" x="560" y="250" fill="#e8f5e8" stroke="#388e3c" rx="4"/><text x="640" y="270" fill="#388e3c" font-family="Arial, sans-serif" font-size="12" font-weight="bold" text-anchor="middle">
    Investering
  </text><text x="640" y="290" fill="#424242" font-family="Arial, sans-serif" font-size="11" text-anchor="middle">
    Kapitalallokering
  </text><text x="400" y="380" fill="#6c757d" font-family="Arial, sans-serif" font-size="14" font-style="italic" text-anchor="middle">
    Analyse av kontantbevegelser for bedre finansielle beslutninger
  </text></svg>