<svg xmlns="http://www.w3.org/2000/svg" viewBox="0 0 800 600"><defs><linearGradient id="a" x1="0%" x2="100%" y1="0%" y2="100%"><stop offset="0%" style="stop-color:#f8f9fa;stop-opacity:1"/><stop offset="100%" style="stop-color:#e9ecef;stop-opacity:1"/></linearGradient><linearGradient id="b" x1="0%" x2="100%" y1="0%" y2="100%"><stop offset="0%" style="stop-color:#06c;stop-opacity:1"/><stop offset="100%" style="stop-color:#049;stop-opacity:1"/></linearGradient><linearGradient id="d" x1="0%" x2="100%" y1="0%" y2="100%"><stop offset="0%" style="stop-color:#039;stop-opacity:1"/><stop offset="100%" style="stop-color:#016;stop-opacity:1"/></linearGradient><linearGradient id="e" x1="0%" x2="100%" y1="0%" y2="100%"><stop offset="0%" style="stop-color:#c41e3a;stop-opacity:1"/><stop offset="100%" style="stop-color:#8b1428;stop-opacity:1"/></linearGradient><filter id="c"><feDropShadow dx="2" dy="2" flood-opacity=".3" stdDeviation="3"/></filter></defs><path fill="url(#a)" d="M0 0h800v600H0z"/><text x="400" y="40" fill="#2c3e50" font-family="Arial, sans-serif" font-size="24" font-weight="bold" text-anchor="middle">
    Fremtidige Harmoniseringsinitiativ
  </text><rect width="300" height="200" x="50" y="80" fill="url(#b)" filter="url(#c)" rx="15"/><text x="200" y="110" fill="#fff" font-family="Arial, sans-serif" font-size="18" font-weight="bold" text-anchor="middle">
      OECD-Initiativer
    </text><circle cx="100" cy="140" r="25" fill="rgba(255,255,255,0.2)" stroke="#fff" stroke-width="2"/><text x="100" y="145" fill="#fff" font-family="Arial, sans-serif" font-size="12" font-weight="bold" text-anchor="middle">
      BEPS
    </text><rect width="80" height="40" x="160" y="120" fill="rgba(255,255,255,0.2)" stroke="#fff" stroke-width="2" rx="5"/><text x="200" y="145" fill="#fff" font-family="Arial, sans-serif" font-size="12" font-weight="bold" text-anchor="middle">
      Pillar 1&amp;2
    </text><ellipse cx="200" cy="200" fill="rgba(255,255,255,0.2)" stroke="#fff" stroke-width="2" rx="70" ry="25"/><text x="200" y="195" fill="#fff" font-family="Arial, sans-serif" font-size="10" text-anchor="middle">
      Automatisk
    </text><text x="200" y="208" fill="#fff" font-family="Arial, sans-serif" font-size="10" text-anchor="middle">
      Informasjonsutveksling
    </text><text x="200" y="260" fill="#fff" font-family="Arial, sans-serif" font-size="12" text-anchor="middle">
      Tidshorisont: 2024-2030
    </text><rect width="300" height="200" x="450" y="80" fill="url(#d)" filter="url(#c)" rx="15"/><text x="600" y="110" fill="#fff" font-family="Arial, sans-serif" font-size="18" font-weight="bold" text-anchor="middle">
      EU-Harmonisering
    </text><rect width="60" height="40" x="480" y="125" fill="rgba(255,255,255,0.2)" stroke="#fff" stroke-width="2" rx="5"/><text x="510" y="145" fill="#fff" font-family="Arial, sans-serif" font-size="11" font-weight="bold" text-anchor="middle">
      CCCTB
    </text><text x="510" y="155" fill="#fff" font-family="Arial, sans-serif" font-size="8" text-anchor="middle">
      2025-2030
    </text><rect width="60" height="40" x="570" y="125" fill="rgba(255,255,255,0.2)" stroke="#fff" stroke-width="2" rx="5"/><text x="600" y="145" fill="#fff" font-family="Arial, sans-serif" font-size="11" font-weight="bold" text-anchor="middle">
      DEBRA
    </text><text x="600" y="155" fill="#fff" font-family="Arial, sans-serif" font-size="8" text-anchor="middle">
      2024-2026
    </text><rect width="60" height="40" x="660" y="125" fill="rgba(255,255,255,0.2)" stroke="#fff" stroke-width="2" rx="5"/><text x="690" y="145" fill="#fff" font-family="Arial, sans-serif" font-size="11" font-weight="bold" text-anchor="middle">
      ATAD III
    </text><text x="690" y="155" fill="#fff" font-family="Arial, sans-serif" font-size="8" text-anchor="middle">
      2024-2025
    </text><ellipse cx="600" cy="210" fill="rgba(255,255,255,0.2)" stroke="#fff" stroke-width="2" rx="80" ry="20"/><text x="600" y="210" fill="#fff" font-family="Arial, sans-serif" font-size="10" text-anchor="middle">
      Fri Bevegelighet av Kapital
    </text><ellipse cx="600" cy="245" fill="rgba(255,255,255,0.2)" stroke="#fff" stroke-width="2" rx="70" ry="15"/><text x="600" y="248" fill="#fff" font-family="Arial, sans-serif" font-size="9" text-anchor="middle">
      Statsstøtteregler
    </text><rect width="300" height="120" x="250" y="320" fill="url(#e)" filter="url(#c)" rx="15"/><text x="400" y="350" fill="#fff" font-family="Arial, sans-serif" font-size="18" font-weight="bold" text-anchor="middle">
      Norsk Tilpasning
    </text><rect width="100" height="30" x="280" y="365" fill="rgba(255,255,255,0.2)" stroke="#fff" stroke-width="2" rx="5"/><text x="330" y="385" fill="#fff" font-family="Arial, sans-serif" font-size="11" text-anchor="middle">
      Skjermingsfradrag
    </text><rect width="100" height="30" x="420" y="365" fill="rgba(255,255,255,0.2)" stroke="#fff" stroke-width="2" rx="5"/><text x="470" y="380" fill="#fff" font-family="Arial, sans-serif" font-size="10" text-anchor="middle">
      Internasjonal
    </text><text x="470" y="390" fill="#fff" font-family="Arial, sans-serif" font-size="10" text-anchor="middle">
      Koordinering
    </text><ellipse cx="400" cy="420" fill="rgba(255,255,255,0.2)" stroke="#fff" stroke-width="2" rx="60" ry="15"/><text x="400" y="423" fill="#fff" font-family="Arial, sans-serif" font-size="10" text-anchor="middle">
      Compliance-tilpasning
    </text><defs><marker id="f" markerHeight="7" markerWidth="10" orient="auto" refX="9" refY="3.5"><path fill="#6c757d" d="m0 0 10 3.5L0 7z"/></marker></defs><path fill="none" stroke="#6c757d" stroke-width="2" marker-end="url(#f)" d="M300 200q50 60 0 140"/><path fill="none" stroke="#6c757d" stroke-width="2" marker-end="url(#f)" d="M500 200q-50 60 0 140"/><rect width="700" height="80" x="50" y="480" fill="rgba(108,117,125,0.1)" stroke="#6c757d" rx="10"/><text x="400" y="505" fill="#2c3e50" font-family="Arial, sans-serif" font-size="16" font-weight="bold" text-anchor="middle">
      Implementeringstidslinje
    </text><path fill="#28a745" d="M80 520h120v15H80z" opacity=".7"/><text x="140" y="532" fill="#fff" font-family="Arial, sans-serif" font-size="10" text-anchor="middle">2024-2025</text><path fill="#ffc107" d="M220 520h160v15H220z" opacity=".7"/><text x="300" y="532" font-family="Arial, sans-serif" font-size="10" text-anchor="middle">2024-2026</text><path fill="#17a2b8" d="M400 520h240v15H400z" opacity=".7"/><text x="520" y="532" fill="#fff" font-family="Arial, sans-serif" font-size="10" text-anchor="middle">2025-2030</text><circle cx="90" cy="550" r="5" fill="#28a745"/><text x="105" y="555" fill="#2c3e50" font-family="Arial, sans-serif" font-size="10">Kort sikt</text><circle cx="200" cy="550" r="5" fill="#ffc107"/><text x="215" y="555" fill="#2c3e50" font-family="Arial, sans-serif" font-size="10">Mellomlang sikt</text><circle cx="320" cy="550" r="5" fill="#17a2b8"/><text x="335" y="555" fill="#2c3e50" font-family="Arial, sans-serif" font-size="10">Lang sikt</text><circle cx="650" cy="520" r="8" fill="#dc3545"/><text x="665" y="525" fill="#2c3e50" font-family="Arial, sans-serif" font-size="10">Høy påvirkning</text><circle cx="650" cy="540" r="6" fill="#fd7e14"/><text x="665" y="545" fill="#2c3e50" font-family="Arial, sans-serif" font-size="10">Moderat påvirkning</text><circle cx="650" cy="560" r="4" fill="#28a745"/><text x="665" y="565" fill="#2c3e50" font-family="Arial, sans-serif" font-size="10">Lav påvirkning</text></svg>