<svg xmlns="http://www.w3.org/2000/svg" width="800" height="500" viewBox="0 0 800 500"><defs><linearGradient id="a" x1="0%" x2="100%" y1="0%" y2="100%"><stop offset="0%" style="stop-color:#f8f9fa;stop-opacity:1"/><stop offset="100%" style="stop-color:#e9ecef;stop-opacity:1"/></linearGradient><linearGradient id="b" x1="0%" x2="100%" y1="0%" y2="100%"><stop offset="0%" style="stop-color:#007bff;stop-opacity:1"/><stop offset="100%" style="stop-color:#0056b3;stop-opacity:1"/></linearGradient></defs><path fill="url(#a)" d="M0 0h800v500H0z"/><text x="400" y="30" fill="#212529" font-family="Arial, sans-serif" font-size="24" font-weight="bold" text-anchor="middle">
    Utrangeringsverdi for Firmabil - Eksempel
  </text><g transform="translate(50 80)"><rect width="120" height="40" x="20" y="40" fill="url(#b)" rx="15"/><rect width="100" height="25" x="30" y="25" fill="url(#b)" rx="10"/><rect width="20" height="15" x="35" y="30" fill="#e9ecef" rx="3"/><rect width="25" height="15" x="65" y="30" fill="#e9ecef" rx="3"/><rect width="25" height="15" x="100" y="30" fill="#e9ecef" rx="3"/><circle cx="45" cy="85" r="8" fill="#212529"/><circle cx="115" cy="85" r="8" fill="#212529"/><circle cx="45" cy="85" r="4" fill="#6c757d"/><circle cx="115" cy="85" r="4" fill="#6c757d"/><rect width="8" height="5" x="15" y="55" fill="#ffc107" rx="2"/><rect width="8" height="5" x="137" y="55" fill="#dc3545" rx="2"/></g><g transform="translate(200 100)"><path stroke="#6c757d" stroke-width="3" d="M0 200h500"/><g fill="#495057" font-family="Arial, sans-serif" font-size="12"><path stroke="#6c757d" stroke-width="2" d="M0 195v10"/><text y="220" text-anchor="middle">År 0</text><path stroke="#6c757d" stroke-width="2" d="M100 195v10"/><text x="100" y="220" text-anchor="middle">År 1</text><path stroke="#6c757d" stroke-width="2" d="M200 195v10"/><text x="200" y="220" text-anchor="middle">År 2</text><path stroke="#6c757d" stroke-width="2" d="M300 195v10"/><text x="300" y="220" text-anchor="middle">År 3</text><path stroke="#6c757d" stroke-width="2" d="M400 195v10"/><text x="400" y="220" text-anchor="middle">År 4</text><path stroke="#6c757d" stroke-width="2" d="M500 195v10"/><text x="500" y="220" text-anchor="middle">År 5</text></g><rect width="30" height="150" x="-15" y="50" fill="#28a745" rx="5"/><text y="40" fill="#28a745" font-family="Arial, sans-serif" font-size="14" font-weight="bold" text-anchor="middle">
      400.000 kr
    </text><text y="25" fill="#495057" font-family="Arial, sans-serif" font-size="12" text-anchor="middle">
      Anskaffelse
    </text><rect width="30" height="45" x="485" y="155" fill="#17a2b8" rx="5"/><text x="500" y="145" fill="#17a2b8" font-family="Arial, sans-serif" font-size="14" font-weight="bold" text-anchor="middle">
      112.000 kr
    </text><text x="500" y="130" fill="#495057" font-family="Arial, sans-serif" font-size="12" text-anchor="middle">
      Utrangeringsverdi
    </text><text x="500" y="115" fill="#495057" font-family="Arial, sans-serif" font-size="12" text-anchor="middle">
      (28% av nypris)
    </text><path fill="none" stroke="#fd7e14" stroke-width="4" d="M0 50q125 25 250 75 125 20 250 30"/><path fill="#fd7e14" fill-opacity=".2" d="M0 50q125 25 250 75 125 20 250 30v45H0Z"/><path stroke="#fd7e14" stroke-width="2" marker-end="url(#c)" d="m250 100 20 20"/><text x="275" y="115" fill="#fd7e14" font-family="Arial, sans-serif" font-size="12" font-weight="bold">
      Verdifall
    </text></g><g transform="translate(50 320)"><rect width="700" height="120" fill="#fff" stroke="#dee2e6" stroke-width="2" rx="10"/><text x="350" y="25" fill="#212529" font-family="Arial, sans-serif" font-size="18" font-weight="bold" text-anchor="middle">
      Avskrivningsberegning
    </text><text x="30" y="50" fill="#495057" font-family="Arial, sans-serif" font-size="14">
      <tspan font-weight="bold">Anskaffelseskost:</tspan> 400.000 kr
    </text><text x="30" y="70" fill="#495057" font-family="Arial, sans-serif" font-size="14">
      <tspan font-weight="bold">Utrangeringsverdi:</tspan> 112.000 kr (28% av nypris)
    </text><text x="30" y="90" fill="#495057" font-family="Arial, sans-serif" font-size="14">
      <tspan font-weight="bold">Avskrivningsgrunnlag:</tspan> 400.000 - 112.000 = 288.000 kr
    </text><text x="30" y="110" fill="#495057" font-family="Arial, sans-serif" font-size="14">
      <tspan font-weight="bold">Årlig avskrivning:</tspan> 288.000 ÷ 5 = 57.600 kr
    </text><rect width="300" height="65" x="370" y="40" fill="#f8f9fa" stroke="#dee2e6" rx="5"/><text x="520" y="60" fill="#6c757d" font-family="Arial, sans-serif" font-size="12" font-weight="bold" text-anchor="middle">
      Faktorer som påvirker bilens
    </text><text x="520" y="75" fill="#6c757d" font-family="Arial, sans-serif" font-size="12" font-weight="bold" text-anchor="middle">
      utrangeringsverdi:
    </text><text x="385" y="92" fill="#6c757d" font-family="Arial, sans-serif" font-size="11">
      • Kjørelengde og vedlikehold • Merke/modell
    </text><text x="385" y="105" fill="#6c757d" font-family="Arial, sans-serif" font-size="11">
      • Markedstrender • Miljøkrav/utslipp
    </text></g><defs><marker id="c" markerHeight="7" markerWidth="10" orient="auto" refX="9" refY="3.5"><path fill="#fd7e14" d="m0 0 10 3.5L0 7z"/></marker></defs><text x="400" y="480" fill="#6c757d" font-family="Arial, sans-serif" font-size="12" text-anchor="middle">
    Uten utrangeringsverdi ville årlig avskrivning vært 80.000 kr (400.000 ÷ 5)
  </text></svg>