<svg xmlns="http://www.w3.org/2000/svg" width="700" height="500"><path fill="#f8f9fa" d="M0 0h700v500H0z"/><text x="350" y="30" fill="#2c3e50" font-family="Arial, sans-serif" font-size="24" font-weight="bold" text-anchor="middle">
    Balansens Oppbygging
  </text><rect width="60" height="20" x="320" y="450" fill="#34495e" rx="5"/><path fill="#34495e" d="M345 400h10v50h-10z"/><rect width="300" height="10" x="200" y="395" fill="#34495e" rx="5"/><g transform="translate(50 80)"><rect width="250" height="320" fill="#3498db" stroke="#2980b9" stroke-width="3" rx="10"/><rect width="250" height="50" fill="#2980b9" rx="10"/><path fill="#2980b9" d="M0 40h250v10H0z"/><text x="125" y="30" fill="#fff" font-family="Arial, sans-serif" font-size="20" font-weight="bold" text-anchor="middle">
      AKTIVA (EIENDELER)
    </text><text x="20" y="80" fill="#fff" font-family="Arial, sans-serif" font-size="16" font-weight="bold">
      Anleggsmidler:
    </text><text x="30" y="105" fill="#fff" font-family="Arial, sans-serif" font-size="14">• Bygninger</text><text x="30" y="125" fill="#fff" font-family="Arial, sans-serif" font-size="14">• Maskiner</text><text x="30" y="145" fill="#fff" font-family="Arial, sans-serif" font-size="14">• Inventar</text><text x="180" y="125" fill="#fff" font-family="Arial, sans-serif" font-size="14" font-weight="bold">300 000</text><text x="20" y="180" fill="#fff" font-family="Arial, sans-serif" font-size="16" font-weight="bold">
      Omløpsmidler:
    </text><text x="30" y="205" fill="#fff" font-family="Arial, sans-serif" font-size="14">• Varelager</text><text x="30" y="225" fill="#fff" font-family="Arial, sans-serif" font-size="14">• Kundefordringer</text><text x="30" y="245" fill="#fff" font-family="Arial, sans-serif" font-size="14">• Bank/Kasse</text><text x="180" y="225" fill="#fff" font-family="Arial, sans-serif" font-size="14" font-weight="bold">450 000</text><path stroke="#fff" stroke-width="2" d="M20 270h210"/><text x="20" y="295" fill="#fff" font-family="Arial, sans-serif" font-size="18" font-weight="bold">
      SUM AKTIVA:
    </text><text x="180" y="295" fill="#fff" font-family="Arial, sans-serif" font-size="18" font-weight="bold">750 000</text></g><g transform="translate(400 80)"><rect width="250" height="320" fill="#e8f5e8" stroke="#27ae60" stroke-width="3" rx="10"/><rect width="250" height="50" fill="#27ae60" rx="10"/><path fill="#27ae60" d="M0 40h250v10H0z"/><text x="125" y="30" fill="#fff" font-family="Arial, sans-serif" font-size="20" font-weight="bold" text-anchor="middle">
      PASSIVA (GJELD + EGENKAPITAL)
    </text><rect width="230" height="120" x="10" y="60" fill="#e74c3c" stroke="#c0392b" stroke-width="2" rx="5"/><text x="125" y="80" fill="#fff" font-family="Arial, sans-serif" font-size="16" font-weight="bold" text-anchor="middle">
      GJELD
    </text><text x="20" y="105" fill="#fff" font-family="Arial, sans-serif" font-size="14">• Banklån</text><text x="20" y="125" fill="#fff" font-family="Arial, sans-serif" font-size="14">• Leverandørgjeld</text><text x="20" y="145" fill="#fff" font-family="Arial, sans-serif" font-size="14">• Annen gjeld</text><text x="180" y="165" fill="#fff" font-family="Arial, sans-serif" font-size="14" font-weight="bold">350 000</text><rect width="230" height="120" x="10" y="190" fill="#27ae60" stroke="#229954" stroke-width="2" rx="5"/><text x="125" y="210" fill="#fff" font-family="Arial, sans-serif" font-size="16" font-weight="bold" text-anchor="middle">
      EGENKAPITAL
    </text><text x="20" y="235" fill="#fff" font-family="Arial, sans-serif" font-size="14">• Aksjekapital</text><text x="20" y="255" fill="#fff" font-family="Arial, sans-serif" font-size="14">• Opptjent egenkapital</text><text x="20" y="275" fill="#fff" font-family="Arial, sans-serif" font-size="14">• Overkurs</text><text x="180" y="295" fill="#fff" font-family="Arial, sans-serif" font-size="14" font-weight="bold">400 000</text></g><text x="350" y="250" fill="#2c3e50" font-family="Arial, sans-serif" font-size="36" font-weight="bold" text-anchor="middle">
    =
  </text><text x="350" y="470" fill="#2c3e50" font-family="Arial, sans-serif" font-size="16" font-weight="bold" text-anchor="middle">
    AKTIVA = GJELD + EGENKAPITAL
  </text><path fill="none" stroke="#34495e" stroke-width="2" marker-end="url(#a)" d="M300 240h100"/><defs><marker id="a" markerHeight="7" markerWidth="10" orient="auto" refX="9" refY="3.5"><path fill="#34495e" d="m0 0 10 3.5L0 7z"/></marker></defs></svg>