<svg xmlns="http://www.w3.org/2000/svg" width="700" height="500" viewBox="0 0 700 500"><path fill="#f8f9fa" d="M0 0h700v500H0z"/><text x="350" y="40" fill="#2c3e50" font-family="Arial, sans-serif" font-size="28" font-weight="bold" text-anchor="middle">
    Balansens T-konto Struktur
  </text><path stroke="#2c3e50" stroke-width="4" d="M100 100h500M350 100v300M100 400h500M100 100v300M600 100v300"/><path fill="#e8f5e8" stroke="#27ae60" stroke-width="2" d="M110 110h230v40H110z"/><text x="225" y="135" fill="#27ae60" font-family="Arial, sans-serif" font-size="20" font-weight="bold" text-anchor="middle">
    DEBET - AKTIVA
  </text><path fill="#ffe8e8" stroke="#e74c3c" stroke-width="2" d="M360 110h230v40H360z"/><text x="475" y="135" fill="#e74c3c" font-family="Arial, sans-serif" font-size="20" font-weight="bold" text-anchor="middle">
    KREDIT - PASSIVA
  </text><text x="120" y="180" fill="#2c3e50" font-family="Arial, sans-serif" font-size="16" font-weight="bold">Eiendeler:</text><text x="130" y="205" fill="#2c3e50" font-family="Arial, sans-serif" font-size="14">• Anleggsmidler</text><text x="140" y="225" fill="#555" font-family="Arial, sans-serif" font-size="12">- Varige driftsmidler</text><text x="140" y="240" fill="#555" font-family="Arial, sans-serif" font-size="12">- Immaterielle eiendeler</text><text x="140" y="255" fill="#555" font-family="Arial, sans-serif" font-size="12">- Finansielle anleggsmidler</text><text x="130" y="285" fill="#2c3e50" font-family="Arial, sans-serif" font-size="14">• Omløpsmidler</text><text x="140" y="305" fill="#555" font-family="Arial, sans-serif" font-size="12">- Varer</text><text x="140" y="320" fill="#555" font-family="Arial, sans-serif" font-size="12">- Kundefordringer</text><text x="140" y="335" fill="#555" font-family="Arial, sans-serif" font-size="12">- Andre fordringer</text><text x="140" y="350" fill="#555" font-family="Arial, sans-serif" font-size="12">- Bankinnskudd</text><text x="370" y="180" fill="#2c3e50" font-family="Arial, sans-serif" font-size="16" font-weight="bold">Egenkapital:</text><text x="380" y="205" fill="#2c3e50" font-family="Arial, sans-serif" font-size="14">• Innskutt egenkapital</text><text x="380" y="225" fill="#2c3e50" font-family="Arial, sans-serif" font-size="14">• Opptjent egenkapital</text><text x="370" y="265" fill="#2c3e50" font-family="Arial, sans-serif" font-size="16" font-weight="bold">Gjeld:</text><text x="380" y="290" fill="#2c3e50" font-family="Arial, sans-serif" font-size="14">• Langsiktig gjeld</text><text x="380" y="310" fill="#2c3e50" font-family="Arial, sans-serif" font-size="14">• Kortsiktig gjeld</text><text x="390" y="330" fill="#555" font-family="Arial, sans-serif" font-size="12">- Leverandørgjeld</text><text x="390" y="345" fill="#555" font-family="Arial, sans-serif" font-size="12">- Skyldig lønn</text><text x="390" y="360" fill="#555" font-family="Arial, sans-serif" font-size="12">- Skyldig skatt</text><rect width="400" height="40" x="150" y="430" fill="#ecf0f1" stroke="#95a5a6" stroke-width="2" rx="5"/><text x="350" y="455" fill="#2c3e50" font-family="Arial, sans-serif" font-size="18" font-weight="bold" text-anchor="middle">
    AKTIVA = EGENKAPITAL + GJELD
  </text><path fill="none" stroke="#3498db" stroke-width="3" marker-end="url(#a)" d="M225 380q125 40 250 0"/><defs><marker id="a" markerHeight="7" markerWidth="10" orient="auto" refX="9" refY="3.5"><path fill="#3498db" d="m0 0 10 3.5L0 7z"/></marker></defs><circle cx="350" cy="390" r="15" fill="#3498db"/><text x="350" y="397" fill="#fff" font-family="Arial, sans-serif" font-size="14" font-weight="bold" text-anchor="middle">
    =
  </text></svg>