<svg xmlns="http://www.w3.org/2000/svg" width="800" height="600"><style>.category-text,.section-title{font-family:Arial,sans-serif;font-weight:700;fill:#2d3748}.section-title{font-size:18px;text-anchor:middle}.category-text{font-size:16px}.highlight-text,.item-text,.value-text{font-family:Arial,sans-serif;font-size:14px}.item-text{fill:#4a5568}.highlight-text,.value-text{font-weight:700}.value-text{fill:#2d3748;text-anchor:end}.highlight-text{fill:#1e88e5}.highlight-bg{fill:#ebf8ff;stroke:#1e88e5;stroke-width:2}</style><path fill="#fff" d="M0 0h800v600H0z"/><text x="400" y="30" style="font-family:Arial,sans-serif;font-size:24px;font-weight:700;fill:#2d3748;text-anchor:middle">Arbeidskapital i Balansen</text><rect width="700" height="450" x="50" y="60" rx="10" style="fill:#f7fafc;stroke:#2d3748;stroke-width:2"/><text x="400" y="85" class="section-title">BALANSE - Norsk Bedrift AS</text><text x="200" y="115" class="category-text">EIENDELER (AKTIVA)</text><rect width="280" height="80" x="70" y="130" rx="5" style="fill:#e6fffa;stroke:#38b2ac;stroke-width:1"/><text x="90" y="150" class="item-text">ANLEGGSMIDLER</text><text x="90" y="170" class="item-text">Bygninger og maskiner</text><text x="90" y="190" class="item-text">Immaterielle eiendeler</text><text x="330" y="170" class="value-text">2.400.000</text><rect width="280" height="120" x="70" y="220" class="highlight-bg" rx="5"/><text x="90" y="240" class="highlight-text">OMLØPSMIDLER ←</text><text x="90" y="260" class="item-text">Varelager</text><text x="320" y="260" class="value-text">800.000</text><text x="90" y="280" class="item-text">Kundefordringer</text><text x="320" y="280" class="value-text">1.200.000</text><text x="90" y="300" class="item-text">Kontanter og bank</text><text x="320" y="300" class="value-text">500.000</text><text x="90" y="320" class="item-text">Forskuddsbetalt</text><text x="320" y="320" class="value-text">100.000</text><path stroke="#2d3748" stroke-width="2" d="M70 350h280"/><text x="90" y="370" class="category-text">SUM EIENDELER</text><text x="330" y="370" class="value-text" font-weight="bold">5.000.000</text><text x="600" y="115" class="category-text">GJELD OG EGENKAPITAL</text><rect width="280" height="60" x="450" y="130" rx="5" style="fill:#fef5e7;stroke:#d69e2e;stroke-width:1"/><text x="470" y="150" class="item-text">EGENKAPITAL</text><text x="470" y="170" class="item-text">Aksjekapital og opptjent kapital</text><text x="710" y="160" class="value-text">1.800.000</text><rect width="280" height="60" x="450" y="200" rx="5" style="fill:#fed7d7;stroke:#e53e3e;stroke-width:1"/><text x="470" y="220" class="item-text">LANGSIKTIG GJELD</text><text x="470" y="240" class="item-text">Banklån og obligasjoner</text><text x="710" y="230" class="value-text">1.500.000</text><rect width="280" height="100" x="450" y="270" class="highlight-bg" rx="5"/><text x="470" y="290" class="highlight-text">KORTSIKTIG GJELD ←</text><text x="470" y="310" class="item-text">Leverandørgjeld</text><text x="700" y="310" class="value-text">800.000</text><text x="470" y="330" class="item-text">Påløpte kostnader</text><text x="700" y="330" class="value-text">300.000</text><text x="470" y="350" class="item-text">Kortsiktige lån og skatt</text><text x="700" y="350" class="value-text">600.000</text><path stroke="#2d3748" stroke-width="2" d="M450 380h280"/><text x="470" y="400" class="category-text">SUM GJELD OG EGENKAPITAL</text><text x="710" y="400" class="value-text" font-weight="bold">5.000.000</text><rect width="400" height="50" x="200" y="530" class="highlight-bg" rx="8"/><text x="400" y="550" class="section-title">ARBEIDSKAPITAL BEREGNING</text><text x="400" y="570" style="font-family:Arial,sans-serif;font-size:18px;font-weight:700;fill:#38b2ac;text-anchor:middle">2.600.000 - 1.700.000 = 900.000 NOK</text><path fill="none" stroke="#1e88e5" stroke-width="3" marker-end="url(#arrowhead)" d="M250 430q0 50 50 90"/><path fill="none" stroke="#1e88e5" stroke-width="3" marker-end="url(#arrowhead)" d="M550 430q0 50-50 90"/><defs><marker id="arrowhead" markerHeight="7" markerWidth="10" orient="auto" refX="9" refY="3.5"><path fill="#1e88e5" d="m0 0 10 3.5L0 7z"/></marker></defs></svg>