<svg xmlns="http://www.w3.org/2000/svg" width="800" height="700"><defs><linearGradient id="a" x1="0%" x2="100%" y1="0%" y2="100%"><stop offset="0%" style="stop-color:#f8f9fa;stop-opacity:1"/><stop offset="100%" style="stop-color:#e9ecef;stop-opacity:1"/></linearGradient><linearGradient id="b" x1="0%" x2="100%" y1="0%" y2="0%"><stop offset="0%" style="stop-color:#007bff;stop-opacity:1"/><stop offset="100%" style="stop-color:#0056b3;stop-opacity:1"/></linearGradient><linearGradient id="c" x1="0%" x2="100%" y1="0%" y2="0%"><stop offset="0%" style="stop-color:#28a745;stop-opacity:1"/><stop offset="100%" style="stop-color:#1e7e34;stop-opacity:1"/></linearGradient></defs><path fill="url(#a)" d="M0 0h800v700H0z"/><text x="400" y="40" fill="#495057" font-family="Arial, sans-serif" font-size="24" font-weight="bold" text-anchor="middle">
    Beregning av Forsinkelsesgebyr
  </text><rect width="700" height="80" x="50" y="70" fill="url(#b)" stroke="#0056b3" stroke-width="2" rx="15"/><text x="400" y="100" fill="#fff" font-family="Arial, sans-serif" font-size="18" font-weight="bold" text-anchor="middle">
    Grunnleggende Formel
  </text><text x="400" y="130" fill="#fff" font-family="Arial, sans-serif" font-size="16" font-weight="bold" text-anchor="middle">
    Forsinkelsesrenter = Hovedstol × Rentesats × (Antall dager ÷ 365)
  </text><rect width="100" height="120" x="100" y="180" fill="#6c757d" stroke="#495057" stroke-width="2" rx="10"/><rect width="80" height="25" x="110" y="190" fill="#343a40" rx="5"/><text x="150" y="208" fill="#fff" font-family="Arial, sans-serif" font-size="12" font-weight="bold" text-anchor="middle">
    KALKULATOR
  </text><rect width="15" height="15" x="115" y="225" fill="#28a745" rx="3"/><rect width="15" height="15" x="135" y="225" fill="#28a745" rx="3"/><rect width="15" height="15" x="155" y="225" fill="#28a745" rx="3"/><rect width="15" height="30" x="175" y="225" fill="#dc3545" rx="3"/><rect width="15" height="15" x="115" y="245" fill="#28a745" rx="3"/><rect width="15" height="15" x="135" y="245" fill="#28a745" rx="3"/><rect width="15" height="15" x="155" y="245" fill="#28a745" rx="3"/><rect width="15" height="15" x="115" y="265" fill="#28a745" rx="3"/><rect width="15" height="15" x="135" y="265" fill="#28a745" rx="3"/><rect width="35" height="15" x="155" y="265" fill="#ffc107" rx="3"/><rect width="35" height="10" x="115" y="285" fill="#6c757d" rx="3"/><rect width="15" height="10" x="155" y="285" fill="#28a745" rx="3"/><rect width="15" height="10" x="175" y="285" fill="#28a745" rx="3"/><rect width="500" height="200" x="250" y="180" fill="#fff" stroke="#28a745" stroke-width="3" rx="15"/><rect width="500" height="50" x="250" y="180" fill="url(#c)" rx="15"/><text x="500" y="210" fill="#fff" font-family="Arial, sans-serif" font-size="18" font-weight="bold" text-anchor="middle">
    Detaljert Beregningseksempel
  </text><text x="270" y="250" fill="#495057" font-family="Arial, sans-serif" font-size="14" font-weight="bold">
    Fakturadetaljer:
  </text><text x="270" y="270" fill="#6c757d" font-family="Arial, sans-serif" font-size="12">
    • Fakturabeløp: 25 000 kr (eks. mva)
  </text><text x="270" y="285" fill="#6c757d" font-family="Arial, sans-serif" font-size="12">
    • Forfallsdato: 1. mars 2024
  </text><text x="270" y="300" fill="#6c757d" font-family="Arial, sans-serif" font-size="12">
    • Betalingsdato: 15. april 2024
  </text><text x="270" y="315" fill="#6c757d" font-family="Arial, sans-serif" font-size="12">
    • Forsinkelse: 45 dager
  </text><text x="270" y="330" fill="#6c757d" font-family="Arial, sans-serif" font-size="12">
    • Forsinkelsesrente: 12,50% p.a.
  </text><text x="500" y="250" fill="#495057" font-family="Arial, sans-serif" font-size="14" font-weight="bold">
    Beregning:
  </text><text x="500" y="270" fill="#6c757d" font-family="Arial, sans-serif" font-size="12">
    1. Hovedstol: 25 000 kr
  </text><text x="500" y="285" fill="#6c757d" font-family="Arial, sans-serif" font-size="12">
    2. Daglig rente: 12,50% ÷ 365 = 0,0342%
  </text><text x="500" y="300" fill="#6c757d" font-family="Arial, sans-serif" font-size="12">
    3. Beregning: 25 000 × 0,125 × (45/365)
  </text><text x="500" y="315" fill="#6c757d" font-family="Arial, sans-serif" font-size="12">
    4. Resultat: 385 kr
  </text><rect width="200" height="35" x="500" y="330" fill="#28a745" stroke="#1e7e34" stroke-width="2" rx="8"/><text x="600" y="352" fill="#fff" font-family="Arial, sans-serif" font-size="16" font-weight="bold" text-anchor="middle">
    Forsinkelsesrenter: 385 kr
  </text><rect width="700" height="180" x="50" y="400" fill="#fff" stroke="#ffc107" stroke-width="3" rx="15"/><rect width="700" height="50" x="50" y="400" fill="#ffc107" rx="15"/><text x="400" y="430" fill="#495057" font-family="Arial, sans-serif" font-size="18" font-weight="bold" text-anchor="middle">
    Total Kostnad ved Forsinket Betaling
  </text><path fill="#e9ecef" d="M80 470h150v25H80z"/><text x="155" y="487" fill="#495057" font-family="Arial, sans-serif" font-size="12" font-weight="bold" text-anchor="middle">
    Kostnadstype
  </text><path fill="#e9ecef" d="M230 470h100v25H230z"/><text x="280" y="487" fill="#495057" font-family="Arial, sans-serif" font-size="12" font-weight="bold" text-anchor="middle">
    Beløp
  </text><path fill="#e9ecef" d="M330 470h150v25H330z"/><text x="405" y="487" fill="#495057" font-family="Arial, sans-serif" font-size="12" font-weight="bold" text-anchor="middle">
    Grunnlag
  </text><path fill="#e9ecef" d="M480 470h100v25H480z"/><text x="530" y="487" fill="#495057" font-family="Arial, sans-serif" font-size="12" font-weight="bold" text-anchor="middle">
    Akkumulert
  </text><text x="155" y="512" fill="#495057" font-family="Arial, sans-serif" font-size="11" text-anchor="middle">
    Hovedkrav
  </text><text x="280" y="512" fill="#495057" font-family="Arial, sans-serif" font-size="11" text-anchor="middle">
    25 000 kr
  </text><text x="405" y="512" fill="#495057" font-family="Arial, sans-serif" font-size="11" text-anchor="middle">
    Opprinnelig faktura
  </text><text x="530" y="512" fill="#495057" font-family="Arial, sans-serif" font-size="11" text-anchor="middle">
    25 000 kr
  </text><text x="155" y="527" fill="#495057" font-family="Arial, sans-serif" font-size="11" text-anchor="middle">
    Merverdiavgift
  </text><text x="280" y="527" fill="#495057" font-family="Arial, sans-serif" font-size="11" text-anchor="middle">
    6 250 kr
  </text><text x="405" y="527" fill="#495057" font-family="Arial, sans-serif" font-size="11" text-anchor="middle">
    25% av hovedkrav
  </text><text x="530" y="527" fill="#495057" font-family="Arial, sans-serif" font-size="11" text-anchor="middle">
    31 250 kr
  </text><text x="155" y="542" fill="#28a745" font-family="Arial, sans-serif" font-size="11" text-anchor="middle">
    Forsinkelsesrenter
  </text><text x="280" y="542" fill="#28a745" font-family="Arial, sans-serif" font-size="11" text-anchor="middle">
    385 kr
  </text><text x="405" y="542" fill="#28a745" font-family="Arial, sans-serif" font-size="11" text-anchor="middle">
    45 dagers forsinkelse
  </text><text x="530" y="542" fill="#28a745" font-family="Arial, sans-serif" font-size="11" text-anchor="middle">
    31 635 kr
  </text><text x="155" y="557" fill="#ffc107" font-family="Arial, sans-serif" font-size="11" text-anchor="middle">
    Purregebyrer
  </text><text x="280" y="557" fill="#ffc107" font-family="Arial, sans-serif" font-size="11" text-anchor="middle">
    300 kr
  </text><text x="405" y="557" fill="#ffc107" font-family="Arial, sans-serif" font-size="11" text-anchor="middle">
    1. + 2. purring
  </text><text x="530" y="557" fill="#ffc107" font-family="Arial, sans-serif" font-size="11" text-anchor="middle">
    31 935 kr
  </text><path stroke="#495057" stroke-width="2" d="M80 565h500"/><path fill="#dc3545" d="M480 567h100v20H480z"/><text x="530" y="580" fill="#fff" font-family="Arial, sans-serif" font-size="12" font-weight="bold" text-anchor="middle">
    31 935 kr
  </text><text x="620" y="540" fill="#dc3545" font-family="Arial, sans-serif" font-size="14" font-weight="bold">
    Økning:
  </text><text x="620" y="560" fill="#dc3545" font-family="Arial, sans-serif" font-size="20" font-weight="bold">
    27,7%
  </text><rect width="700" height="80" x="50" y="600" fill="#fff" stroke="#17a2b8" stroke-width="2" rx="15"/><text x="400" y="625" fill="#495057" font-family="Arial, sans-serif" font-size="16" font-weight="bold" text-anchor="middle">
    Forsinkelsesrenter over tid (25 000 kr hovedstol)
  </text><path fill="#28a745" d="M80 640h30v25H80z"/><text x="95" y="655" fill="#fff" font-family="Arial, sans-serif" font-size="10" font-weight="bold" text-anchor="middle">
    14d
  </text><text x="95" y="675" fill="#495057" font-family="Arial, sans-serif" font-size="9" text-anchor="middle">
    120 kr
  </text><path fill="#ffc107" d="M130 635h30v30h-30z"/><text x="145" y="652" fill="#fff" font-family="Arial, sans-serif" font-size="10" font-weight="bold" text-anchor="middle">
    30d
  </text><text x="145" y="675" fill="#495057" font-family="Arial, sans-serif" font-size="9" text-anchor="middle">
    257 kr
  </text><path fill="#fd7e14" d="M180 625h30v40h-30z"/><text x="195" y="647" fill="#fff" font-family="Arial, sans-serif" font-size="10" font-weight="bold" text-anchor="middle">
    60d
  </text><text x="195" y="675" fill="#495057" font-family="Arial, sans-serif" font-size="9" text-anchor="middle">
    514 kr
  </text><path fill="#dc3545" d="M230 615h30v50h-30z"/><text x="245" y="642" fill="#fff" font-family="Arial, sans-serif" font-size="10" font-weight="bold" text-anchor="middle">
    90d
  </text><text x="245" y="675" fill="#495057" font-family="Arial, sans-serif" font-size="9" text-anchor="middle">
    771 kr
  </text><path fill="#6f42c1" d="M280 605h30v60h-30z"/><text x="295" y="637" fill="#fff" font-family="Arial, sans-serif" font-size="10" font-weight="bold" text-anchor="middle">
    180d
  </text><text x="295" y="675" fill="#495057" font-family="Arial, sans-serif" font-size="9" text-anchor="middle">
    1 542 kr
  </text><path fill="#495057" d="M330 595h30v70h-30z"/><text x="345" y="632" fill="#fff" font-family="Arial, sans-serif" font-size="10" font-weight="bold" text-anchor="middle">
    365d
  </text><text x="345" y="675" fill="#495057" font-family="Arial, sans-serif" font-size="9" text-anchor="middle">
    3 125 kr
  </text><text x="500" y="645" fill="#dc3545" font-family="Arial, sans-serif" font-size="12" font-weight="bold">
    ⚠️ Forsinkelsesrenter øker raskt over tid!
  </text><text x="500" y="665" fill="#6c757d" font-family="Arial, sans-serif" font-size="11">
    Betal fakturaer i tide for å unngå unødvendige kostnader
  </text></svg>