<svg xmlns="http://www.w3.org/2000/svg" width="800" height="650"><defs><linearGradient id="a" x1="0%" x2="100%" y1="0%" y2="100%"><stop offset="0%" style="stop-color:#f8f9fa;stop-opacity:1"/><stop offset="100%" style="stop-color:#e9ecef;stop-opacity:1"/></linearGradient><linearGradient id="b" x1="0%" x2="100%" y1="0%" y2="0%"><stop offset="0%" style="stop-color:#28a745;stop-opacity:1"/><stop offset="100%" style="stop-color:#1e7e34;stop-opacity:1"/></linearGradient><linearGradient id="c" x1="0%" x2="100%" y1="0%" y2="0%"><stop offset="0%" style="stop-color:#007bff;stop-opacity:1"/><stop offset="100%" style="stop-color:#0056b3;stop-opacity:1"/></linearGradient><linearGradient id="d" x1="0%" x2="100%" y1="0%" y2="0%"><stop offset="0%" style="stop-color:#6f42c1;stop-opacity:1"/><stop offset="100%" style="stop-color:#5a32a3;stop-opacity:1"/></linearGradient><linearGradient id="e" x1="0%" x2="100%" y1="0%" y2="0%"><stop offset="0%" style="stop-color:#dc3545;stop-opacity:1"/><stop offset="100%" style="stop-color:#c82333;stop-opacity:1"/></linearGradient></defs><path fill="url(#a)" d="M0 0h800v650H0z"/><text x="400" y="40" fill="#495057" font-family="Arial, sans-serif" font-size="24" font-weight="bold" text-anchor="middle">
    Særlige Forhold og Unntak
  </text><rect width="320" height="140" x="50" y="80" fill="#fff" stroke="#28a745" stroke-width="3" rx="15"/><rect width="320" height="50" x="50" y="80" fill="url(#b)" rx="15"/><text x="210" y="110" fill="#fff" font-family="Arial, sans-serif" font-size="16" font-weight="bold" text-anchor="middle">
    Forbrukerforhold
  </text><circle cx="100" cy="150" r="20" fill="#28a745"/><path fill="none" stroke="#fff" stroke-width="3" d="m90 150 5 5 15-15"/><text x="130" y="145" fill="#495057" font-family="Arial, sans-serif" font-size="12" font-weight="bold">
    Strengere regler for forbrukere:
  </text><circle cx="70" cy="165" r="2" fill="#28a745"/><text x="80" y="170" fill="#495057" font-family="Arial, sans-serif" font-size="10">
    Lavere maksimalbeløp for purregebyrer
  </text><circle cx="70" cy="180" r="2" fill="#28a745"/><text x="80" y="185" fill="#495057" font-family="Arial, sans-serif" font-size="10">
    Strengere krav til proporsjonalitet
  </text><circle cx="70" cy="195" r="2" fill="#28a745"/><text x="80" y="200" fill="#495057" font-family="Arial, sans-serif" font-size="10">
    Økt informasjonsplikt om konsekvenser
  </text><circle cx="70" cy="210" r="2" fill="#28a745"/><text x="80" y="215" fill="#495057" font-family="Arial, sans-serif" font-size="10">
    Spesielle regler ved angrerett
  </text><rect width="320" height="140" x="430" y="80" fill="#fff" stroke="#007bff" stroke-width="3" rx="15"/><rect width="320" height="50" x="430" y="80" fill="url(#c)" rx="15"/><text x="590" y="110" fill="#fff" font-family="Arial, sans-serif" font-size="16" font-weight="bold" text-anchor="middle">
    Offentlige Anskaffelser
  </text><rect width="40" height="30" x="470" y="140" fill="#007bff" rx="2"/><path fill="#0056b3" d="m465 140 10-10h30l10 10z"/><path fill="#fff" d="M480 150h6v15h-6zM490 150h6v15h-6zM500 150h6v15h-6z"/><text x="520" y="145" fill="#495057" font-family="Arial, sans-serif" font-size="12" font-weight="bold">
    Spesielle regler for offentlig sektor:
  </text><circle cx="450" cy="165" r="2" fill="#007bff"/><text x="460" y="170" fill="#495057" font-family="Arial, sans-serif" font-size="10">
    Maksimalt 30 dagers betalingsfrist
  </text><circle cx="450" cy="180" r="2" fill="#007bff"/><text x="460" y="185" fill="#495057" font-family="Arial, sans-serif" font-size="10">
    Automatisk forsinkelsesrente fra dag 31
  </text><circle cx="450" cy="195" r="2" fill="#007bff"/><text x="460" y="200" fill="#495057" font-family="Arial, sans-serif" font-size="10">
    Ofte høyere enn standard rentesats
  </text><circle cx="450" cy="210" r="2" fill="#007bff"/><text x="460" y="215" fill="#495057" font-family="Arial, sans-serif" font-size="10">
    Rett til kompensasjon for inkassokostnader
  </text><rect width="320" height="140" x="50" y="240" fill="#fff" stroke="#6f42c1" stroke-width="3" rx="15"/><rect width="320" height="50" x="50" y="240" fill="url(#d)" rx="15"/><text x="210" y="270" fill="#fff" font-family="Arial, sans-serif" font-size="16" font-weight="bold" text-anchor="middle">
    Internasjonale Transaksjoner
  </text><circle cx="100" cy="310" r="18" fill="#6f42c1"/><path fill="none" stroke="#fff" stroke-width="2" d="M85 310q15-15 30 0-15 15-30 0"/><path fill="none" stroke="#fff" stroke-width="2" d="M85 310q15 15 30 0-15-15-30 0"/><path stroke="#fff" stroke-width="2" d="M82 310h36"/><text x="130" y="305" fill="#495057" font-family="Arial, sans-serif" font-size="12" font-weight="bold">
    EU-direktiv om bekjempelse av sen betaling:
  </text><circle cx="70" cy="325" r="2" fill="#6f42c1"/><text x="80" y="330" fill="#495057" font-family="Arial, sans-serif" font-size="10">
    Maksimal betalingsfrist: 60 dager (B2B)
  </text><circle cx="70" cy="340" r="2" fill="#6f42c1"/><text x="80" y="345" fill="#495057" font-family="Arial, sans-serif" font-size="10">
    Automatisk forsinkelsesrente fra forfallsdato
  </text><circle cx="70" cy="355" r="2" fill="#6f42c1"/><text x="80" y="360" fill="#495057" font-family="Arial, sans-serif" font-size="10">
    Rett til kompensasjon for inkassokostnader
  </text><circle cx="70" cy="370" r="2" fill="#6f42c1"/><text x="80" y="375" fill="#495057" font-family="Arial, sans-serif" font-size="10">
    Minimumskompensasjon: 40 euro
  </text><rect width="320" height="140" x="430" y="240" fill="#fff" stroke="#dc3545" stroke-width="3" rx="15"/><rect width="320" height="50" x="430" y="240" fill="url(#e)" rx="15"/><text x="590" y="270" fill="#fff" font-family="Arial, sans-serif" font-size="16" font-weight="bold" text-anchor="middle">
    Force Majeure og Unntak
  </text><path fill="none" stroke="#dc3545" stroke-width="3" d="M480 300q-10 10 0 20 10-5 5 5 10-5 5 5 10-5 5 5l10-5q5 10-5 15l10-5"/><circle cx="475" cy="305" r="3" fill="#ffc107"/><circle cx="485" cy="315" r="2" fill="#ffc107"/><circle cx="495" cy="325" r="2" fill="#ffc107"/><text x="520" y="305" fill="#495057" font-family="Arial, sans-serif" font-size="12" font-weight="bold">
    Situasjoner som kan påvirke gebyrer:
  </text><circle cx="450" cy="325" r="2" fill="#dc3545"/><text x="460" y="330" fill="#495057" font-family="Arial, sans-serif" font-size="10">
    Naturkatastrofer og force majeure
  </text><circle cx="450" cy="340" r="2" fill="#dc3545"/><text x="460" y="345" fill="#495057" font-family="Arial, sans-serif" font-size="10">
    Systemfeil hos bank eller betalingsleverandør
  </text><circle cx="450" cy="355" r="2" fill="#dc3545"/><text x="460" y="360" fill="#495057" font-family="Arial, sans-serif" font-size="10">
    Legitim tvist om kravet
  </text><circle cx="450" cy="370" r="2" fill="#dc3545"/><text x="460" y="375" fill="#495057" font-family="Arial, sans-serif" font-size="10">
    Konkurs og akkordforhandlinger
  </text><rect width="700" height="180" x="50" y="400" fill="#fff" stroke="#17a2b8" stroke-width="3" rx="15"/><rect width="700" height="50" x="50" y="400" fill="#17a2b8" rx="15"/><text x="400" y="430" fill="#fff" font-family="Arial, sans-serif" font-size="18" font-weight="bold" text-anchor="middle">
    Sammenligning av Regler
  </text><path fill="#e9ecef" d="M70 460h120v25H70z"/><text x="130" y="477" fill="#495057" font-family="Arial, sans-serif" font-size="11" font-weight="bold" text-anchor="middle">
    Forhold
  </text><path fill="#e9ecef" d="M190 460h100v25H190z"/><text x="240" y="477" fill="#495057" font-family="Arial, sans-serif" font-size="11" font-weight="bold" text-anchor="middle">
    Betalingsfrist
  </text><path fill="#e9ecef" d="M290 460h120v25H290z"/><text x="350" y="477" fill="#495057" font-family="Arial, sans-serif" font-size="11" font-weight="bold" text-anchor="middle">
    Forsinkelsesrente
  </text><path fill="#e9ecef" d="M410 460h100v25H410z"/><text x="460" y="477" fill="#495057" font-family="Arial, sans-serif" font-size="11" font-weight="bold" text-anchor="middle">
    Purregebyr
  </text><path fill="#e9ecef" d="M510 460h120v25H510z"/><text x="570" y="477" fill="#495057" font-family="Arial, sans-serif" font-size="11" font-weight="bold" text-anchor="middle">
    Særlige regler
  </text><path fill="#e9ecef" d="M630 460h100v25H630z"/><text x="680" y="477" fill="#495057" font-family="Arial, sans-serif" font-size="11" font-weight="bold" text-anchor="middle">
    Beskyttelse
  </text><text x="130" y="502" fill="#495057" font-family="Arial, sans-serif" font-size="10" text-anchor="middle">
    Normal B2B
  </text><text x="240" y="502" fill="#495057" font-family="Arial, sans-serif" font-size="10" text-anchor="middle">
    Avtalt
  </text><text x="350" y="502" fill="#495057" font-family="Arial, sans-serif" font-size="10" text-anchor="middle">
    12,50% (2024)
  </text><text x="460" y="502" fill="#495057" font-family="Arial, sans-serif" font-size="10" text-anchor="middle">
    100-300 kr
  </text><text x="570" y="502" fill="#495057" font-family="Arial, sans-serif" font-size="10" text-anchor="middle">
    Standard
  </text><text x="680" y="502" fill="#495057" font-family="Arial, sans-serif" font-size="10" text-anchor="middle">
    Begrenset
  </text><text x="130" y="517" fill="#28a745" font-family="Arial, sans-serif" font-size="10" text-anchor="middle">
    Forbruker
  </text><text x="240" y="517" fill="#28a745" font-family="Arial, sans-serif" font-size="10" text-anchor="middle">
    Avtalt
  </text><text x="350" y="517" fill="#28a745" font-family="Arial, sans-serif" font-size="10" text-anchor="middle">
    12,50% (2024)
  </text><text x="460" y="517" fill="#28a745" font-family="Arial, sans-serif" font-size="10" text-anchor="middle">
    Lavere maks
  </text><text x="570" y="517" fill="#28a745" font-family="Arial, sans-serif" font-size="10" text-anchor="middle">
    Strengere krav
  </text><text x="680" y="517" fill="#28a745" font-family="Arial, sans-serif" font-size="10" text-anchor="middle">
    Høy
  </text><text x="130" y="532" fill="#007bff" font-family="Arial, sans-serif" font-size="10" text-anchor="middle">
    Offentlig
  </text><text x="240" y="532" fill="#007bff" font-family="Arial, sans-serif" font-size="10" text-anchor="middle">
    Maks 30 dager
  </text><text x="350" y="532" fill="#007bff" font-family="Arial, sans-serif" font-size="10" text-anchor="middle">
    Ofte høyere
  </text><text x="460" y="532" fill="#007bff" font-family="Arial, sans-serif" font-size="10" text-anchor="middle">
    Standard
  </text><text x="570" y="532" fill="#007bff" font-family="Arial, sans-serif" font-size="10" text-anchor="middle">
    Automatisk
  </text><text x="680" y="532" fill="#007bff" font-family="Arial, sans-serif" font-size="10" text-anchor="middle">
    Middels
  </text><text x="130" y="547" fill="#6f42c1" font-family="Arial, sans-serif" font-size="10" text-anchor="middle">
    Internasjonal
  </text><text x="240" y="547" fill="#6f42c1" font-family="Arial, sans-serif" font-size="10" text-anchor="middle">
    Maks 60 dager
  </text><text x="350" y="547" fill="#6f42c1" font-family="Arial, sans-serif" font-size="10" text-anchor="middle">
    EU-direktiv
  </text><text x="460" y="547" fill="#6f42c1" font-family="Arial, sans-serif" font-size="10" text-anchor="middle">
    Min 40 euro
  </text><text x="570" y="547" fill="#6f42c1" font-family="Arial, sans-serif" font-size="10" text-anchor="middle">
    EU-regler
  </text><text x="680" y="547" fill="#6f42c1" font-family="Arial, sans-serif" font-size="10" text-anchor="middle">
    Variabel
  </text><rect width="660" height="15" x="70" y="560" fill="#fff3cd" stroke="#ffc107" rx="5"/><text x="400" y="572" fill="#495057" font-family="Arial, sans-serif" font-size="11" font-weight="bold" text-anchor="middle">
    ⚠️ Alltid sjekk gjeldende lovverk og få juridisk rådgivning ved tvil om komplekse saker
  </text></svg>