<svg xmlns="http://www.w3.org/2000/svg" width="800" height="400" viewBox="0 0 800 400"><path fill="#f8f9fa" d="M0 0h800v400H0z"/><path fill="#2c3e50" d="M0 0h800v80H0z"/><text x="400" y="45" fill="#fff" font-size="32" font-weight="bold" text-anchor="middle">Konto 1030 - Patenter</text><g transform="translate(150 120)"><path fill="#fff" stroke="#2c3e50" stroke-width="2" d="M0 0h120v150H0z"/><path fill="#3498db" d="M10 10h100v20H10z"/><path fill="#ecf0f1" d="M10 40h80v8H10zM10 55h70v8H10zM10 70h90v8H10zM10 85h60v8H10z"/><circle cx="85" cy="120" r="15" fill="#e74c3c"/><text x="85" y="125" fill="#fff" font-size="10" font-weight="bold" text-anchor="middle">®</text><text x="60" y="180" fill="#2c3e50" font-size="14" font-weight="bold" text-anchor="middle">Patent</text></g><g transform="translate(350 120)"><circle cx="30" cy="40" r="25" fill="#f39c12"/><path fill="#34495e" d="M20 60h20v30H20z"/><path fill="#2c3e50" d="M18 85h24v8H18z"/><path stroke="#f39c12" stroke-width="3" d="m10 20-5-5M50 20l5-5M5 40H0M55 40h5M10 60l-5 5M50 60l5 5"/><text x="30" y="115" fill="#2c3e50" font-size="14" font-weight="bold" text-anchor="middle">Innovasjon</text></g><path fill="#27ae60" d="m560 130 20 10v50l-20 20-20-20v-50Z"/><text x="30" y="55" fill="#fff" font-size="20" font-weight="bold" text-anchor="middle" transform="translate(530 120)">©</text><text x="30" y="115" fill="#2c3e50" font-size="14" font-weight="bold" text-anchor="middle" transform="translate(530 120)">Beskyttelse</text><text fill="#2c3e50" font-size="16" font-weight="bold" transform="translate(50 320)">Nøkkelfunksjoner:</text><text y="25" fill="#555" font-size="14" transform="translate(50 320)">• Registrering av patentrettigheter</text><text y="45" fill="#555" font-size="14" transform="translate(50 320)">• Aktivering av patentkostnader</text><text y="65" fill="#555" font-size="14" transform="translate(50 320)">• Amortisering over økonomisk levetid</text><text fill="#2c3e50" font-size="16" font-weight="bold" transform="translate(450 320)">Regnskapsføring:</text><text y="25" fill="#555" font-size="14" transform="translate(450 320)">• Immaterielle anleggsmidler</text><text y="45" fill="#555" font-size="14" transform="translate(450 320)">• Typisk 10-20 års amortisering</text><text y="65" fill="#555" font-size="14" transform="translate(450 320)">• Verditesting ved indikasjoner</text></svg>