<svg xmlns="http://www.w3.org/2000/svg" width="800" height="600"><path fill="#f8f9fa" d="M0 0h800v600H0z"/><text x="400" y="30" fill="#2c3e50" font-family="Arial, sans-serif" font-size="24" font-weight="bold" text-anchor="middle">Lønnsbudsjett Komponenter</text><text x="400" y="55" fill="#7f8c8d" font-family="Arial, sans-serif" font-size="16" text-anchor="middle">Planlegging av fastlønn kostnader</text><g transform="translate(50 90)"><rect width="140" height="80" fill="#3498db" rx="10"/><text x="70" y="20" fill="#fff" font-family="Arial, sans-serif" font-size="12" font-weight="bold" text-anchor="middle">ANTALL ANSATTE</text><text x="70" y="40" fill="#fff" font-family="Arial, sans-serif" font-size="18" font-weight="bold" text-anchor="middle">10</text><text x="70" y="60" fill="#fff" font-family="Arial, sans-serif" font-size="10" text-anchor="middle">heltidsansatte</text></g><text x="160" y="45" fill="#2c3e50" font-family="Arial, sans-serif" font-size="20" font-weight="bold" text-anchor="middle" transform="translate(50 90)">×</text><g transform="translate(230 90)"><rect width="140" height="80" fill="#27ae60" rx="10"/><text x="70" y="20" fill="#fff" font-family="Arial, sans-serif" font-size="12" font-weight="bold" text-anchor="middle">GJENNOMSNITTS-</text><text x="70" y="35" fill="#fff" font-family="Arial, sans-serif" font-size="12" font-weight="bold" text-anchor="middle">LØNN</text><text x="70" y="55" fill="#fff" font-family="Arial, sans-serif" font-size="16" font-weight="bold" text-anchor="middle">500.000 kr</text><text x="70" y="70" fill="#fff" font-family="Arial, sans-serif" font-size="10" text-anchor="middle">per år</text></g><text x="340" y="45" fill="#2c3e50" font-family="Arial, sans-serif" font-size="20" font-weight="bold" text-anchor="middle" transform="translate(50 90)">×</text><g transform="translate(410 90)"><rect width="140" height="80" fill="#f39c12" rx="10"/><text x="70" y="20" fill="#fff" font-family="Arial, sans-serif" font-size="12" font-weight="bold" text-anchor="middle">SOSIALE</text><text x="70" y="35" fill="#fff" font-family="Arial, sans-serif" font-size="12" font-weight="bold" text-anchor="middle">KOSTNADER</text><text x="70" y="55" fill="#fff" font-family="Arial, sans-serif" font-size="16" font-weight="bold" text-anchor="middle">117%</text><text x="70" y="70" fill="#fff" font-family="Arial, sans-serif" font-size="10" text-anchor="middle">av grunnlønn</text></g><text x="520" y="45" fill="#2c3e50" font-family="Arial, sans-serif" font-size="20" font-weight="bold" text-anchor="middle" transform="translate(50 90)">=</text><g transform="translate(590 90)"><rect width="160" height="80" fill="#e74c3c" rx="10"/><text x="80" y="20" fill="#fff" font-family="Arial, sans-serif" font-size="12" font-weight="bold" text-anchor="middle">TOTAL</text><text x="80" y="35" fill="#fff" font-family="Arial, sans-serif" font-size="12" font-weight="bold" text-anchor="middle">LØNNSKOSTNAD</text><text x="80" y="55" fill="#fff" font-family="Arial, sans-serif" font-size="16" font-weight="bold" text-anchor="middle">5.855.000 kr</text><text x="80" y="70" fill="#fff" font-family="Arial, sans-serif" font-size="10" text-anchor="middle">per år</text></g><text x="400" y="220" fill="#2c3e50" font-family="Arial, sans-serif" font-size="20" font-weight="bold" text-anchor="middle">Detaljert Kostnadsfordeling</text><path fill="#3498db" d="M250 400V300a100 100 0 0 1 100 100Z"/><text x="190" y="100" fill="#fff" font-family="Arial, sans-serif" font-size="12" font-weight="bold" text-anchor="middle" transform="translate(100 250)">Grunnlønn</text><text x="190" y="115" fill="#fff" font-family="Arial, sans-serif" font-size="12" font-weight="bold" text-anchor="middle" transform="translate(100 250)">85.5%</text><path fill="#f39c12" d="M250 400h100a100 100 0 0 1-30 80Z"/><text x="210" y="190" fill="#fff" font-family="Arial, sans-serif" font-size="10" font-weight="bold" text-anchor="middle" transform="translate(100 250)">Arb.avg</text><text x="210" y="205" fill="#fff" font-family="Arial, sans-serif" font-size="10" font-weight="bold" text-anchor="middle" transform="translate(100 250)">12.0%</text><path fill="#9b59b6" d="m250 400 70 80a100 100 0 0 1-140 0Z"/><text x="130" y="210" fill="#fff" font-family="Arial, sans-serif" font-size="10" font-weight="bold" text-anchor="middle" transform="translate(100 250)">Pensjon</text><text x="130" y="225" fill="#fff" font-family="Arial, sans-serif" font-size="10" font-weight="bold" text-anchor="middle" transform="translate(100 250)">1.7%</text><path fill="#1abc9c" d="m250 400-70 80a100 100 0 0 1 70-180Z"/><text x="100" y="120" fill="#fff" font-family="Arial, sans-serif" font-size="10" font-weight="bold" text-anchor="middle" transform="translate(100 250)">Forsikring</text><text x="100" y="135" fill="#fff" font-family="Arial, sans-serif" font-size="10" font-weight="bold" text-anchor="middle" transform="translate(100 250)">0.8%</text><text fill="#2c3e50" font-family="Arial, sans-serif" font-size="16" font-weight="bold" transform="translate(450 280)">Kostnadskomponenter:</text><path fill="#3498db" d="M450 305h15v15h-15z"/><text x="25" y="12" fill="#2c3e50" font-family="Arial, sans-serif" font-size="12" transform="translate(450 305)">Grunnlønn: 5.000.000 kr (85,5%)</text><path fill="#f39c12" d="M450 330h15v15h-15z"/><text x="25" y="12" fill="#2c3e50" font-family="Arial, sans-serif" font-size="12" transform="translate(450 330)">Arbeidsgiveravgift: 705.000 kr (12,0%)</text><path fill="#9b59b6" d="M450 355h15v15h-15z"/><text x="25" y="12" fill="#2c3e50" font-family="Arial, sans-serif" font-size="12" transform="translate(450 355)">Pensjon: 100.000 kr (1,7%)</text><path fill="#1abc9c" d="M450 380h15v15h-15z"/><text x="25" y="12" fill="#2c3e50" font-family="Arial, sans-serif" font-size="12" transform="translate(450 380)">Forsikringer: 50.000 kr (0,8%)</text><path stroke="#2c3e50" d="M450 410h250"/><text y="20" fill="#2c3e50" font-family="Arial, sans-serif" font-size="14" font-weight="bold" transform="translate(450 410)">Total: 5.855.000 kr (100%)</text><text x="350" fill="#2c3e50" font-family="Arial, sans-serif" font-size="18" font-weight="bold" text-anchor="middle" transform="translate(50 480)">Månedlig Fordeling</text><g transform="translate(50 500)"><rect width="55" height="40" fill="#3498db" rx="5"/><text x="27.5" y="15" fill="#fff" font-family="Arial, sans-serif" font-size="8" text-anchor="middle">JAN</text><text x="27.5" y="30" fill="#fff" font-family="Arial, sans-serif" font-size="10" font-weight="bold" text-anchor="middle">488k</text><rect width="55" height="40" x="60" fill="#3498db" rx="5"/><text x="87.5" y="15" fill="#fff" font-family="Arial, sans-serif" font-size="8" text-anchor="middle">FEB</text><text x="87.5" y="30" fill="#fff" font-family="Arial, sans-serif" font-size="10" font-weight="bold" text-anchor="middle">488k</text><rect width="55" height="40" x="120" fill="#3498db" rx="5"/><text x="147.5" y="15" fill="#fff" font-family="Arial, sans-serif" font-size="8" text-anchor="middle">MAR</text><text x="147.5" y="30" fill="#fff" font-family="Arial, sans-serif" font-size="10" font-weight="bold" text-anchor="middle">488k</text><rect width="55" height="40" x="180" fill="#3498db" rx="5"/><text x="207.5" y="15" fill="#fff" font-family="Arial, sans-serif" font-size="8" text-anchor="middle">APR</text><text x="207.5" y="30" fill="#fff" font-family="Arial, sans-serif" font-size="10" font-weight="bold" text-anchor="middle">488k</text><rect width="55" height="40" x="240" fill="#3498db" rx="5"/><text x="267.5" y="15" fill="#fff" font-family="Arial, sans-serif" font-size="8" text-anchor="middle">MAI</text><text x="267.5" y="30" fill="#fff" font-family="Arial, sans-serif" font-size="10" font-weight="bold" text-anchor="middle">488k</text><rect width="55" height="40" x="300" fill="#27ae60" rx="5"/><text x="327.5" y="15" fill="#fff" font-family="Arial, sans-serif" font-size="8" text-anchor="middle">JUN</text><text x="327.5" y="30" fill="#fff" font-family="Arial, sans-serif" font-size="10" font-weight="bold" text-anchor="middle">988k</text><rect width="55" height="40" x="360" fill="#3498db" rx="5"/><text x="387.5" y="15" fill="#fff" font-family="Arial, sans-serif" font-size="8" text-anchor="middle">JUL</text><text x="387.5" y="30" fill="#fff" font-family="Arial, sans-serif" font-size="10" font-weight="bold" text-anchor="middle">488k</text><rect width="55" height="40" x="420" fill="#3498db" rx="5"/><text x="447.5" y="15" fill="#fff" font-family="Arial, sans-serif" font-size="8" text-anchor="middle">AUG</text><text x="447.5" y="30" fill="#fff" font-family="Arial, sans-serif" font-size="10" font-weight="bold" text-anchor="middle">488k</text><rect width="55" height="40" x="480" fill="#3498db" rx="5"/><text x="507.5" y="15" fill="#fff" font-family="Arial, sans-serif" font-size="8" text-anchor="middle">SEP</text><text x="507.5" y="30" fill="#fff" font-family="Arial, sans-serif" font-size="10" font-weight="bold" text-anchor="middle">488k</text><rect width="55" height="40" x="540" fill="#3498db" rx="5"/><text x="567.5" y="15" fill="#fff" font-family="Arial, sans-serif" font-size="8" text-anchor="middle">OKT</text><text x="567.5" y="30" fill="#fff" font-family="Arial, sans-serif" font-size="10" font-weight="bold" text-anchor="middle">488k</text><rect width="55" height="40" x="600" fill="#3498db" rx="5"/><text x="627.5" y="15" fill="#fff" font-family="Arial, sans-serif" font-size="8" text-anchor="middle">NOV</text><text x="627.5" y="30" fill="#fff" font-family="Arial, sans-serif" font-size="10" font-weight="bold" text-anchor="middle">488k</text><rect width="55" height="40" x="660" fill="#e74c3c" rx="5"/><text x="687.5" y="15" fill="#fff" font-family="Arial, sans-serif" font-size="8" text-anchor="middle">DES</text><text x="687.5" y="30" fill="#fff" font-family="Arial, sans-serif" font-size="10" font-weight="bold" text-anchor="middle">488k</text></g><path fill="#3498db" d="M250 550h15v15h-15z"/><text x="20" y="12" fill="#2c3e50" font-family="Arial, sans-serif" font-size="12" transform="translate(250 550)">Normal måned: 488.000 kr</text><path fill="#27ae60" d="M250 575h15v15h-15z"/><text x="20" y="37" fill="#2c3e50" font-family="Arial, sans-serif" font-size="12" transform="translate(250 550)">Juni (med feriepenger): 988.000 kr</text></svg>