<svg xmlns="http://www.w3.org/2000/svg" width="800" height="500"><path fill="#f8f9fa" d="M0 0h800v500H0z"/><text x="400" y="30" fill="#2c3e50" font-family="Arial, sans-serif" font-size="24" font-weight="bold" text-anchor="middle">Sammenligning av Lønnsformer</text><g transform="translate(50 80)"><rect width="150" height="120" fill="#3498db" rx="10"/><text x="75" y="25" fill="#fff" font-family="Arial, sans-serif" font-size="16" font-weight="bold" text-anchor="middle">FASTLØNN</text><rect width="110" height="60" x="20" y="40" fill="#2980b9" rx="5"/><text x="75" y="60" fill="#fff" font-family="Arial, sans-serif" font-size="12" text-anchor="middle">50.000 kr</text><text x="75" y="80" fill="#fff" font-family="Arial, sans-serif" font-size="10" text-anchor="middle">hver måned</text><text x="75" y="140" fill="#2c3e50" font-family="Arial, sans-serif" font-size="12" text-anchor="middle">Forutsigbarhet: HØY</text><text x="75" y="155" fill="#2c3e50" font-family="Arial, sans-serif" font-size="12" text-anchor="middle">Fleksibilitet: LAV</text></g><g transform="translate(250 80)"><rect width="150" height="120" fill="#f39c12" rx="10"/><text x="75" y="25" fill="#fff" font-family="Arial, sans-serif" font-size="16" font-weight="bold" text-anchor="middle">TIMELØNN</text><circle cx="75" cy="70" r="25" fill="#e67e22" stroke="#fff" stroke-width="2"/><path stroke="#fff" stroke-width="2" d="M75 70V55M75 70h10"/><text x="75" y="100" fill="#fff" font-family="Arial, sans-serif" font-size="10" text-anchor="middle">Timer × Sats</text><text x="75" y="140" fill="#2c3e50" font-family="Arial, sans-serif" font-size="12" text-anchor="middle">Forutsigbarhet: MIDDELS</text><text x="75" y="155" fill="#2c3e50" font-family="Arial, sans-serif" font-size="12" text-anchor="middle">Fleksibilitet: HØY</text></g><g transform="translate(450 80)"><rect width="150" height="120" fill="#e74c3c" rx="10"/><text x="75" y="25" fill="#fff" font-family="Arial, sans-serif" font-size="16" font-weight="bold" text-anchor="middle">AKKORDLØNN</text><path fill="#fff" d="M40 45h15v15H40zM60 45h15v15H60zM80 45h15v15H80zM100 45h15v15h-15z"/><text x="75" y="80" fill="#fff" font-family="Arial, sans-serif" font-size="10" text-anchor="middle">Enheter × Sats</text><text x="75" y="140" fill="#2c3e50" font-family="Arial, sans-serif" font-size="12" text-anchor="middle">Forutsigbarhet: LAV</text><text x="75" y="155" fill="#2c3e50" font-family="Arial, sans-serif" font-size="12" text-anchor="middle">Fleksibilitet: HØY</text></g><g transform="translate(650 80)"><rect width="150" height="120" fill="#9b59b6" rx="10"/><text x="75" y="25" fill="#fff" font-family="Arial, sans-serif" font-size="16" font-weight="bold" text-anchor="middle">PROVISJON</text><path fill="none" stroke="#fff" stroke-width="3" d="m30 85 20-20 20 10 20-20 20-10"/><circle cx="30" cy="85" r="3" fill="#fff"/><circle cx="50" cy="65" r="3" fill="#fff"/><circle cx="70" cy="75" r="3" fill="#fff"/><circle cx="90" cy="55" r="3" fill="#fff"/><circle cx="110" cy="45" r="3" fill="#fff"/><text x="75" y="100" fill="#fff" font-family="Arial, sans-serif" font-size="10" text-anchor="middle">Salg × %</text><text x="75" y="140" fill="#2c3e50" font-family="Arial, sans-serif" font-size="12" text-anchor="middle">Forutsigbarhet: LAV</text><text x="75" y="155" fill="#2c3e50" font-family="Arial, sans-serif" font-size="12" text-anchor="middle">Fleksibilitet: HØY</text></g><g transform="translate(0 250)"><text x="100" y="30" fill="#2c3e50" font-family="Arial, sans-serif" font-size="18" font-weight="bold">Forutsigbarhet</text><path stroke="#34495e" stroke-width="2" d="M100 50h600M100 45v10"/><text x="100" y="75" fill="#2c3e50" font-family="Arial, sans-serif" font-size="12" text-anchor="middle">LAV</text><path stroke="#34495e" stroke-width="2" d="M400 45v10"/><text x="400" y="75" fill="#2c3e50" font-family="Arial, sans-serif" font-size="12" text-anchor="middle">MIDDELS</text><path stroke="#34495e" stroke-width="2" d="M700 45v10"/><text x="700" y="75" fill="#2c3e50" font-family="Arial, sans-serif" font-size="12" text-anchor="middle">HØY</text><circle cx="650" cy="50" r="8" fill="#3498db"/><text x="650" y="95" fill="#3498db" font-family="Arial, sans-serif" font-size="10" text-anchor="middle">Fastlønn</text><circle cx="400" cy="50" r="8" fill="#f39c12"/><text x="400" y="95" fill="#f39c12" font-family="Arial, sans-serif" font-size="10" text-anchor="middle">Timelønn</text><circle cx="200" cy="50" r="8" fill="#e74c3c"/><text x="200" y="95" fill="#e74c3c" font-family="Arial, sans-serif" font-size="10" text-anchor="middle">Akkordlønn</text><circle cx="150" cy="50" r="8" fill="#9b59b6"/><text x="150" y="95" fill="#9b59b6" font-family="Arial, sans-serif" font-size="10" text-anchor="middle">Provisjon</text></g><g transform="translate(0 380)"><text x="100" y="30" fill="#2c3e50" font-family="Arial, sans-serif" font-size="18" font-weight="bold">Fleksibilitet</text><path stroke="#34495e" stroke-width="2" d="M100 50h600M100 45v10"/><text x="100" y="75" fill="#2c3e50" font-family="Arial, sans-serif" font-size="12" text-anchor="middle">LAV</text><path stroke="#34495e" stroke-width="2" d="M400 45v10"/><text x="400" y="75" fill="#2c3e50" font-family="Arial, sans-serif" font-size="12" text-anchor="middle">MIDDELS</text><path stroke="#34495e" stroke-width="2" d="M700 45v10"/><text x="700" y="75" fill="#2c3e50" font-family="Arial, sans-serif" font-size="12" text-anchor="middle">HØY</text><circle cx="200" cy="50" r="8" fill="#3498db"/><text x="200" y="95" fill="#3498db" font-family="Arial, sans-serif" font-size="10" text-anchor="middle">Fastlønn</text><circle cx="600" cy="50" r="8" fill="#f39c12"/><text x="600" y="95" fill="#f39c12" font-family="Arial, sans-serif" font-size="10" text-anchor="middle">Timelønn</text><circle cx="650" cy="50" r="8" fill="#e74c3c"/><text x="650" y="95" fill="#e74c3c" font-family="Arial, sans-serif" font-size="10" text-anchor="middle">Akkordlønn</text><circle cx="680" cy="50" r="8" fill="#9b59b6"/><text x="680" y="95" fill="#9b59b6" font-family="Arial, sans-serif" font-size="10" text-anchor="middle">Provisjon</text></g></svg>