<svg width="800" height="600" xmlns="http://www.w3.org/2000/svg">

  <rect width="800" height="600" fill="#f8f9fa"/>
  

  <text x="400" y="30" text-anchor="middle" font-family="Arial, sans-serif" font-size="24" font-weight="bold" fill="#2c3e50">Lønnsbudsjett Komponenter</text>
  <text x="400" y="55" text-anchor="middle" font-family="Arial, sans-serif" font-size="16" fill="#7f8c8d">Planlegging av fastlønn kostnader</text>
  

  <g transform="translate(50, 90)">

    <g transform="translate(0, 0)">
      <rect x="0" y="0" width="140" height="80" fill="#3498db" rx="10"/>
      <text x="70" y="20" text-anchor="middle" font-family="Arial, sans-serif" font-size="12" font-weight="bold" fill="white">ANTALL ANSATTE</text>
      <text x="70" y="40" text-anchor="middle" font-family="Arial, sans-serif" font-size="18" font-weight="bold" fill="white">10</text>
      <text x="70" y="60" text-anchor="middle" font-family="Arial, sans-serif" font-size="10" fill="white">heltidsansatte</text>
    </g>
    

    <text x="160" y="45" text-anchor="middle" font-family="Arial, sans-serif" font-size="20" font-weight="bold" fill="#2c3e50">×</text>
    

    <g transform="translate(180, 0)">
      <rect x="0" y="0" width="140" height="80" fill="#27ae60" rx="10"/>
      <text x="70" y="20" text-anchor="middle" font-family="Arial, sans-serif" font-size="12" font-weight="bold" fill="white">GJENNOMSNITTS-</text>
      <text x="70" y="35" text-anchor="middle" font-family="Arial, sans-serif" font-size="12" font-weight="bold" fill="white">LØNN</text>
      <text x="70" y="55" text-anchor="middle" font-family="Arial, sans-serif" font-size="16" font-weight="bold" fill="white">500.000 kr</text>
      <text x="70" y="70" text-anchor="middle" font-family="Arial, sans-serif" font-size="10" fill="white">per år</text>
    </g>
    

    <text x="340" y="45" text-anchor="middle" font-family="Arial, sans-serif" font-size="20" font-weight="bold" fill="#2c3e50">×</text>
    

    <g transform="translate(360, 0)">
      <rect x="0" y="0" width="140" height="80" fill="#f39c12" rx="10"/>
      <text x="70" y="20" text-anchor="middle" font-family="Arial, sans-serif" font-size="12" font-weight="bold" fill="white">SOSIALE</text>
      <text x="70" y="35" text-anchor="middle" font-family="Arial, sans-serif" font-size="12" font-weight="bold" fill="white">KOSTNADER</text>
      <text x="70" y="55" text-anchor="middle" font-family="Arial, sans-serif" font-size="16" font-weight="bold" fill="white">117%</text>
      <text x="70" y="70" text-anchor="middle" font-family="Arial, sans-serif" font-size="10" fill="white">av grunnlønn</text>
    </g>
    

    <text x="520" y="45" text-anchor="middle" font-family="Arial, sans-serif" font-size="20" font-weight="bold" fill="#2c3e50">=</text>
    

    <g transform="translate(540, 0)">
      <rect x="0" y="0" width="160" height="80" fill="#e74c3c" rx="10"/>
      <text x="80" y="20" text-anchor="middle" font-family="Arial, sans-serif" font-size="12" font-weight="bold" fill="white">TOTAL</text>
      <text x="80" y="35" text-anchor="middle" font-family="Arial, sans-serif" font-size="12" font-weight="bold" fill="white">LØNNSKOSTNAD</text>
      <text x="80" y="55" text-anchor="middle" font-family="Arial, sans-serif" font-size="16" font-weight="bold" fill="white">5.855.000 kr</text>
      <text x="80" y="70" text-anchor="middle" font-family="Arial, sans-serif" font-size="10" fill="white">per år</text>
    </g>
  </g>
  

  <text x="400" y="220" text-anchor="middle" font-family="Arial, sans-serif" font-size="20" font-weight="bold" fill="#2c3e50">Detaljert Kostnadsfordeling</text>
  

  <g transform="translate(100, 250)">

    <path d="M 150 150 L 150 50 A 100 100 0 0 1 250 150 Z" fill="#3498db"/>
    <text x="190" y="100" text-anchor="middle" font-family="Arial, sans-serif" font-size="12" font-weight="bold" fill="white">Grunnlønn</text>
    <text x="190" y="115" text-anchor="middle" font-family="Arial, sans-serif" font-size="12" font-weight="bold" fill="white">85.5%</text>
    

    <path d="M 150 150 L 250 150 A 100 100 0 0 1 220 230 Z" fill="#f39c12"/>
    <text x="210" y="190" text-anchor="middle" font-family="Arial, sans-serif" font-size="10" font-weight="bold" fill="white">Arb.avg</text>
    <text x="210" y="205" text-anchor="middle" font-family="Arial, sans-serif" font-size="10" font-weight="bold" fill="white">12.0%</text>
    

    <path d="M 150 150 L 220 230 A 100 100 0 0 1 80 230 Z" fill="#9b59b6"/>
    <text x="130" y="210" text-anchor="middle" font-family="Arial, sans-serif" font-size="10" font-weight="bold" fill="white">Pensjon</text>
    <text x="130" y="225" text-anchor="middle" font-family="Arial, sans-serif" font-size="10" font-weight="bold" fill="white">1.7%</text>
    

    <path d="M 150 150 L 80 230 A 100 100 0 0 1 150 50 Z" fill="#1abc9c"/>
    <text x="100" y="120" text-anchor="middle" font-family="Arial, sans-serif" font-size="10" font-weight="bold" fill="white">Forsikring</text>
    <text x="100" y="135" text-anchor="middle" font-family="Arial, sans-serif" font-size="10" font-weight="bold" fill="white">0.8%</text>
  </g>
  

  <g transform="translate(450, 280)">
    <text x="0" y="0" font-family="Arial, sans-serif" font-size="16" font-weight="bold" fill="#2c3e50">Kostnadskomponenter:</text>
    
    <g transform="translate(0, 25)">
      <rect x="0" y="0" width="15" height="15" fill="#3498db"/>
      <text x="25" y="12" font-family="Arial, sans-serif" font-size="12" fill="#2c3e50">Grunnlønn: 5.000.000 kr (85,5%)</text>
    </g>
    
    <g transform="translate(0, 50)">
      <rect x="0" y="0" width="15" height="15" fill="#f39c12"/>
      <text x="25" y="12" font-family="Arial, sans-serif" font-size="12" fill="#2c3e50">Arbeidsgiveravgift: 705.000 kr (12,0%)</text>
    </g>
    
    <g transform="translate(0, 75)">
      <rect x="0" y="0" width="15" height="15" fill="#9b59b6"/>
      <text x="25" y="12" font-family="Arial, sans-serif" font-size="12" fill="#2c3e50">Pensjon: 100.000 kr (1,7%)</text>
    </g>
    
    <g transform="translate(0, 100)">
      <rect x="0" y="0" width="15" height="15" fill="#1abc9c"/>
      <text x="25" y="12" font-family="Arial, sans-serif" font-size="12" fill="#2c3e50">Forsikringer: 50.000 kr (0,8%)</text>
    </g>
    
    <g transform="translate(0, 130)">
      <line x1="0" y1="0" x2="250" y2="0" stroke="#2c3e50" stroke-width="1"/>
      <text x="0" y="20" font-family="Arial, sans-serif" font-size="14" font-weight="bold" fill="#2c3e50">Total: 5.855.000 kr (100%)</text>
    </g>
  </g>
  

  <g transform="translate(50, 480)">
    <text x="350" y="0" text-anchor="middle" font-family="Arial, sans-serif" font-size="18" font-weight="bold" fill="#2c3e50">Månedlig Fordeling</text>
    

    <g transform="translate(0, 20)">

      <rect x="0" y="0" width="55" height="40" fill="#3498db" rx="5"/>
      <text x="27.5" y="15" text-anchor="middle" font-family="Arial, sans-serif" font-size="8" fill="white">JAN</text>
      <text x="27.5" y="30" text-anchor="middle" font-family="Arial, sans-serif" font-size="10" font-weight="bold" fill="white">488k</text>
      

      <rect x="60" y="0" width="55" height="40" fill="#3498db" rx="5"/>
      <text x="87.5" y="15" text-anchor="middle" font-family="Arial, sans-serif" font-size="8" fill="white">FEB</text>
      <text x="87.5" y="30" text-anchor="middle" font-family="Arial, sans-serif" font-size="10" font-weight="bold" fill="white">488k</text>
      

      <rect x="120" y="0" width="55" height="40" fill="#3498db" rx="5"/>
      <text x="147.5" y="15" text-anchor="middle" font-family="Arial, sans-serif" font-size="8" fill="white">MAR</text>
      <text x="147.5" y="30" text-anchor="middle" font-family="Arial, sans-serif" font-size="10" font-weight="bold" fill="white">488k</text>
      

      <rect x="180" y="0" width="55" height="40" fill="#3498db" rx="5"/>
      <text x="207.5" y="15" text-anchor="middle" font-family="Arial, sans-serif" font-size="8" fill="white">APR</text>
      <text x="207.5" y="30" text-anchor="middle" font-family="Arial, sans-serif" font-size="10" font-weight="bold" fill="white">488k</text>
      

      <rect x="240" y="0" width="55" height="40" fill="#3498db" rx="5"/>
      <text x="267.5" y="15" text-anchor="middle" font-family="Arial, sans-serif" font-size="8" fill="white">MAI</text>
      <text x="267.5" y="30" text-anchor="middle" font-family="Arial, sans-serif" font-size="10" font-weight="bold" fill="white">488k</text>
      

      <rect x="300" y="0" width="55" height="40" fill="#27ae60" rx="5"/>
      <text x="327.5" y="15" text-anchor="middle" font-family="Arial, sans-serif" font-size="8" fill="white">JUN</text>
      <text x="327.5" y="30" text-anchor="middle" font-family="Arial, sans-serif" font-size="10" font-weight="bold" fill="white">988k</text>
      

      <rect x="360" y="0" width="55" height="40" fill="#3498db" rx="5"/>
      <text x="387.5" y="15" text-anchor="middle" font-family="Arial, sans-serif" font-size="8" fill="white">JUL</text>
      <text x="387.5" y="30" text-anchor="middle" font-family="Arial, sans-serif" font-size="10" font-weight="bold" fill="white">488k</text>
      

      <rect x="420" y="0" width="55" height="40" fill="#3498db" rx="5"/>
      <text x="447.5" y="15" text-anchor="middle" font-family="Arial, sans-serif" font-size="8" fill="white">AUG</text>
      <text x="447.5" y="30" text-anchor="middle" font-family="Arial, sans-serif" font-size="10" font-weight="bold" fill="white">488k</text>
      

      <rect x="480" y="0" width="55" height="40" fill="#3498db" rx="5"/>
      <text x="507.5" y="15" text-anchor="middle" font-family="Arial, sans-serif" font-size="8" fill="white">SEP</text>
      <text x="507.5" y="30" text-anchor="middle" font-family="Arial, sans-serif" font-size="10" font-weight="bold" fill="white">488k</text>
      

      <rect x="540" y="0" width="55" height="40" fill="#3498db" rx="5"/>
      <text x="567.5" y="15" text-anchor="middle" font-family="Arial, sans-serif" font-size="8" fill="white">OKT</text>
      <text x="567.5" y="30" text-anchor="middle" font-family="Arial, sans-serif" font-size="10" font-weight="bold" fill="white">488k</text>
      

      <rect x="600" y="0" width="55" height="40" fill="#3498db" rx="5"/>
      <text x="627.5" y="15" text-anchor="middle" font-family="Arial, sans-serif" font-size="8" fill="white">NOV</text>
      <text x="627.5" y="30" text-anchor="middle" font-family="Arial, sans-serif" font-size="10" font-weight="bold" fill="white">488k</text>
      

      <rect x="660" y="0" width="55" height="40" fill="#e74c3c" rx="5"/>
      <text x="687.5" y="15" text-anchor="middle" font-family="Arial, sans-serif" font-size="8" fill="white">DES</text>
      <text x="687.5" y="30" text-anchor="middle" font-family="Arial, sans-serif" font-size="10" font-weight="bold" fill="white">488k</text>
    </g>
    

    <g transform="translate(200, 70)">
      <rect x="0" y="0" width="15" height="15" fill="#3498db"/>
      <text x="20" y="12" font-family="Arial, sans-serif" font-size="12" fill="#2c3e50">Normal måned: 488.000 kr</text>
      
      <rect x="0" y="25" width="15" height="15" fill="#27ae60"/>
      <text x="20" y="37" font-family="Arial, sans-serif" font-size="12" fill="#2c3e50">Juni (med feriepenger): 988.000 kr</text>
    </g>
  </g>
</svg>