<svg xmlns="http://www.w3.org/2000/svg" width="800" height="600"><defs><linearGradient id="a" x1="0%" x2="100%" y1="0%" y2="100%"><stop offset="0%" style="stop-color:#f8f9fa;stop-opacity:1"/><stop offset="100%" style="stop-color:#e9ecef;stop-opacity:1"/></linearGradient></defs><path fill="url(#a)" stroke="#dee2e6" stroke-width="2" d="M0 0h800v600H0z"/><text x="400" y="30" fill="#212529" font-family="Arial, sans-serif" font-size="24" font-weight="bold" text-anchor="middle">
    Beste Praksis for Kundefordringer
  </text><circle cx="400" cy="300" r="80" fill="#28a745" stroke="#1e7e34" stroke-width="4"/><text x="400" y="290" fill="#fff" font-family="Arial, sans-serif" font-size="16" font-weight="bold" text-anchor="middle">Effektiv</text><text x="400" y="310" fill="#fff" font-family="Arial, sans-serif" font-size="16" font-weight="bold" text-anchor="middle">Fordringshåndtering</text><rect width="200" height="120" x="50" y="80" fill="#fff" stroke="#06c" stroke-width="3" rx="15"/><circle cx="150" cy="110" r="20" fill="#06c"/><text x="150" y="118" fill="#fff" font-family="Arial, sans-serif" font-size="18" font-weight="bold" text-anchor="middle">1</text><text x="150" y="140" fill="#06c" font-family="Arial, sans-serif" font-size="14" font-weight="bold" text-anchor="middle">Kredittvurdering</text><text x="150" y="160" fill="#212529" font-family="Arial, sans-serif" font-size="11" text-anchor="middle">• Systematisk vurdering</text><text x="150" y="175" fill="#212529" font-family="Arial, sans-serif" font-size="11" text-anchor="middle">• Kredittrapporter</text><text x="150" y="190" fill="#212529" font-family="Arial, sans-serif" font-size="11" text-anchor="middle">• Fastsett kredittramme</text><path stroke="#6c757d" stroke-width="2" marker-end="url(#b)" d="m250 140 70 80"/><defs><marker id="b" markerHeight="6" markerWidth="8" orient="auto" refX="7" refY="3"><path fill="#6c757d" d="m0 0 8 3-8 3z"/></marker></defs><rect width="200" height="120" x="550" y="80" fill="#fff" stroke="#ffc107" stroke-width="3" rx="15"/><circle cx="650" cy="110" r="20" fill="#ffc107"/><text x="650" y="118" fill="#212529" font-family="Arial, sans-serif" font-size="18" font-weight="bold" text-anchor="middle">2</text><text x="650" y="140" fill="#856404" font-family="Arial, sans-serif" font-size="14" font-weight="bold" text-anchor="middle">Tydelige Betingelser</text><text x="650" y="160" fill="#212529" font-family="Arial, sans-serif" font-size="11" text-anchor="middle">• Klare forfallsdatoer</text><text x="650" y="175" fill="#212529" font-family="Arial, sans-serif" font-size="11" text-anchor="middle">• Spesifiser renter</text><text x="650" y="190" fill="#212529" font-family="Arial, sans-serif" font-size="11" text-anchor="middle">• Gebyrer ved forfall</text><path stroke="#6c757d" stroke-width="2" marker-end="url(#c)" d="m550 140-70 80"/><defs><marker id="c" markerHeight="6" markerWidth="8" orient="auto" refX="7" refY="3"><path fill="#6c757d" d="m0 0 8 3-8 3z"/></marker></defs><rect width="200" height="120" x="50" y="250" fill="#fff" stroke="#17a2b8" stroke-width="3" rx="15"/><circle cx="150" cy="280" r="20" fill="#17a2b8"/><text x="150" y="288" fill="#fff" font-family="Arial, sans-serif" font-size="18" font-weight="bold" text-anchor="middle">3</text><text x="150" y="310" fill="#0c5460" font-family="Arial, sans-serif" font-size="14" font-weight="bold" text-anchor="middle">Rask Fakturering</text><text x="150" y="330" fill="#212529" font-family="Arial, sans-serif" font-size="11" text-anchor="middle">• Send umiddelbart</text><text x="150" y="345" fill="#212529" font-family="Arial, sans-serif" font-size="11" text-anchor="middle">• Elektronisk levering</text><text x="150" y="360" fill="#212529" font-family="Arial, sans-serif" font-size="11" text-anchor="middle">• Korrekte opplysninger</text><path stroke="#6c757d" stroke-width="2" marker-end="url(#d)" d="m250 310 70-10"/><defs><marker id="d" markerHeight="6" markerWidth="8" orient="auto" refX="7" refY="3"><path fill="#6c757d" d="m0 0 8 3-8 3z"/></marker></defs><rect width="200" height="120" x="550" y="250" fill="#fff" stroke="#dc3545" stroke-width="3" rx="15"/><circle cx="650" cy="280" r="20" fill="#dc3545"/><text x="650" y="288" fill="#fff" font-family="Arial, sans-serif" font-size="18" font-weight="bold" text-anchor="middle">4</text><text x="650" y="310" fill="#721c24" font-family="Arial, sans-serif" font-size="14" font-weight="bold" text-anchor="middle">Systematisk Oppfølging</text><text x="650" y="330" fill="#212529" font-family="Arial, sans-serif" font-size="11" text-anchor="middle">• Automatiserte purringer</text><text x="650" y="345" fill="#212529" font-family="Arial, sans-serif" font-size="11" text-anchor="middle">• Regelmessig kontakt</text><text x="650" y="360" fill="#212529" font-family="Arial, sans-serif" font-size="11" text-anchor="middle">• Eskalering ved behov</text><path stroke="#6c757d" stroke-width="2" marker-end="url(#e)" d="m550 310-70-10"/><defs><marker id="e" markerHeight="6" markerWidth="8" orient="auto" refX="7" refY="3"><path fill="#6c757d" d="m0 0 8 3-8 3z"/></marker></defs><rect width="200" height="120" x="50" y="420" fill="#fff" stroke="#6f42c1" stroke-width="3" rx="15"/><circle cx="150" cy="450" r="20" fill="#6f42c1"/><text x="150" y="458" fill="#fff" font-family="Arial, sans-serif" font-size="18" font-weight="bold" text-anchor="middle">5</text><text x="150" y="480" fill="#59359a" font-family="Arial, sans-serif" font-size="14" font-weight="bold" text-anchor="middle">Regelmessig Analyse</text><text x="150" y="500" fill="#212529" font-family="Arial, sans-serif" font-size="11" text-anchor="middle">• Månedlig aldersanalyse</text><text x="150" y="515" fill="#212529" font-family="Arial, sans-serif" font-size="11" text-anchor="middle">• Nøkkeltall oppfølging</text><text x="150" y="530" fill="#212529" font-family="Arial, sans-serif" font-size="11" text-anchor="middle">• Trendanalyse</text><path stroke="#6c757d" stroke-width="2" marker-end="url(#f)" d="m250 480 70-100"/><defs><marker id="f" markerHeight="6" markerWidth="8" orient="auto" refX="7" refY="3"><path fill="#6c757d" d="m0 0 8 3-8 3z"/></marker></defs><rect width="200" height="120" x="550" y="420" fill="#fff" stroke="#fd7e14" stroke-width="3" rx="15"/><circle cx="650" cy="450" r="20" fill="#fd7e14"/><text x="650" y="458" fill="#fff" font-family="Arial, sans-serif" font-size="18" font-weight="bold" text-anchor="middle">6</text><text x="650" y="480" fill="#e8590c" font-family="Arial, sans-serif" font-size="14" font-weight="bold" text-anchor="middle">Profesjonell Hjelp</text><text x="650" y="500" fill="#212529" font-family="Arial, sans-serif" font-size="11" text-anchor="middle">• Inkassoselskaper</text><text x="650" y="515" fill="#212529" font-family="Arial, sans-serif" font-size="11" text-anchor="middle">• Juridisk bistand</text><text x="650" y="530" fill="#212529" font-family="Arial, sans-serif" font-size="11" text-anchor="middle">• Regnskapseksperter</text><path stroke="#6c757d" stroke-width="2" marker-end="url(#g)" d="m550 480-70-100"/><defs><marker id="g" markerHeight="6" markerWidth="8" orient="auto" refX="7" refY="3"><path fill="#6c757d" d="m0 0 8 3-8 3z"/></marker></defs><rect width="200" height="120" x="300" y="450" fill="#d4edda" stroke="#28a745" stroke-width="2" rx="10"/><text x="400" y="475" fill="#155724" font-family="Arial, sans-serif" font-size="16" font-weight="bold" text-anchor="middle">
    Nøkkelfordeler
  </text><text x="400" y="495" fill="#155724" font-family="Arial, sans-serif" font-size="12" text-anchor="middle">✓ Redusert tapsrisiko</text><text x="400" y="510" fill="#155724" font-family="Arial, sans-serif" font-size="12" text-anchor="middle">✓ Forbedret kontantstrøm</text><text x="400" y="525" fill="#155724" font-family="Arial, sans-serif" font-size="12" text-anchor="middle">✓ Lavere administrasjon</text><text x="400" y="540" fill="#155724" font-family="Arial, sans-serif" font-size="12" text-anchor="middle">✓ Bedre kundeforhold</text><text x="400" y="555" fill="#155724" font-family="Arial, sans-serif" font-size="12" text-anchor="middle">✓ Økt lønnsomhet</text><rect width="300" height="40" x="250" y="50" fill="#fff3cd" stroke="#ffc107" rx="5"/><text x="400" y="75" fill="#856404" font-family="Arial, sans-serif" font-size="14" font-weight="bold" text-anchor="middle">
    Målsetting: &lt; 5% tap • &lt; 45 dager innkrevingstid • &gt; 95% innkrevingsrate
  </text></svg>