<svg xmlns="http://www.w3.org/2000/svg" width="800" height="400" viewBox="0 0 800 400"><path fill="#f8f9fa" d="M0 0h800v400H0z"/><text x="400" y="40" fill="#2c3e50" font-family="Arial, sans-serif" font-size="28" font-weight="bold" text-anchor="middle">
    Bokføringsloven
  </text><rect width="160" height="200" x="320" y="70" fill="#34495e" stroke="#2c3e50" stroke-width="3" rx="8"/><rect width="140" height="180" x="330" y="80" fill="#ecf0f1" rx="4"/><path fill="#2c3e50" d="M315 70h10v200h-10z"/><text x="400" y="120" fill="#2c3e50" font-family="Arial, sans-serif" font-size="16" font-weight="bold" text-anchor="middle">
    Bokføringsloven
  </text><text x="400" y="140" fill="#7f8c8d" font-family="Arial, sans-serif" font-size="12" text-anchor="middle">
    Lov av 19. november 2004
  </text><text x="400" y="155" fill="#7f8c8d" font-family="Arial, sans-serif" font-size="12" text-anchor="middle">
    nr. 73
  </text><circle cx="150" cy="120" r="60" fill="#3498db" opacity=".1"/><text x="150" y="115" fill="#3498db" font-family="Arial, sans-serif" font-size="12" font-weight="bold" text-anchor="middle">
    Dokumentasjon
  </text><text x="150" y="130" fill="#3498db" font-family="Arial, sans-serif" font-size="10" text-anchor="middle">
    og Sporbarhet
  </text><circle cx="150" cy="250" r="60" fill="#e74c3c" opacity=".1"/><text x="150" y="245" fill="#e74c3c" font-family="Arial, sans-serif" font-size="12" font-weight="bold" text-anchor="middle">
    Oppbevaring
  </text><text x="150" y="260" fill="#e74c3c" font-family="Arial, sans-serif" font-size="10" text-anchor="middle">
    5-10 år
  </text><circle cx="650" cy="120" r="60" fill="#27ae60" opacity=".1"/><text x="650" y="115" fill="#27ae60" font-family="Arial, sans-serif" font-size="12" font-weight="bold" text-anchor="middle">
    Tilsyn og
  </text><text x="650" y="130" fill="#27ae60" font-family="Arial, sans-serif" font-size="10" text-anchor="middle">
    Kontroll
  </text><circle cx="650" cy="250" r="60" fill="#f39c12" opacity=".1"/><text x="650" y="245" fill="#f39c12" font-family="Arial, sans-serif" font-size="12" font-weight="bold" text-anchor="middle">
    Sanksjoner
  </text><text x="650" y="260" fill="#f39c12" font-family="Arial, sans-serif" font-size="10" text-anchor="middle">
    ved Brudd
  </text><path stroke="#3498db" stroke-width="2" d="m210 120 110 20" opacity=".6"/><path stroke="#e74c3c" stroke-width="2" d="m210 250 110-20" opacity=".6"/><path stroke="#27ae60" stroke-width="2" d="m480 140 110-20" opacity=".6"/><path stroke="#f39c12" stroke-width="2" d="m480 230 110 20" opacity=".6"/><rect width="700" height="60" x="50" y="320" fill="#ecf0f1" stroke="#bdc3c7" rx="8"/><text x="400" y="340" fill="#2c3e50" font-family="Arial, sans-serif" font-size="14" font-weight="bold" text-anchor="middle">
    Hovedkrav: Systematisk registrering • Korrekt dokumentasjon • Sikker oppbevaring
  </text><text x="400" y="360" fill="#7f8c8d" font-family="Arial, sans-serif" font-size="12" text-anchor="middle">
    Gjelder alle ervervsdrivende i Norge
  </text></svg>