<svg xmlns="http://www.w3.org/2000/svg" width="800" height="600"><defs><linearGradient id="b" x1="0%" x2="100%" y1="0%" y2="100%"><stop offset="0%" style="stop-color:#795548;stop-opacity:1"/><stop offset="100%" style="stop-color:#5d4037;stop-opacity:1"/></linearGradient><filter id="a" width="140%" height="140%" x="-20%" y="-20%"/></defs><path fill="#f8f9fa" d="M0 0h800v600H0z"/><text x="400" y="40" fill="#2c3e50" font-family="Arial, sans-serif" font-size="24" font-weight="bold" text-anchor="middle">
    Kvartalsvise Skattemessige Forhold
  </text><text x="400" y="80" fill="#2c3e50" font-family="Arial, sans-serif" font-size="18" font-weight="bold" text-anchor="middle">
    MVA-rapportering og Planlegging
  </text><rect width="600" height="80" x="100" y="100" fill="#fff" stroke="#795548" stroke-width="2" filter="url(#a)" rx="8"/><rect width="600" height="25" x="100" y="100" fill="url(#b)" rx="8"/><text x="400" y="118" fill="#fff" font-family="Arial, sans-serif" font-size="14" font-weight="bold" text-anchor="middle">
    MVA-rapporteringsfrekvens
  </text><rect width="160" height="30" x="120" y="140" fill="#e3f2fd" stroke="#2196f3" rx="5"/><text x="200" y="158" fill="#2196f3" font-family="Arial, sans-serif" font-size="12" text-anchor="middle">Månedlig MVA</text><rect width="160" height="30" x="300" y="140" fill="#e8f5e8" stroke="#4caf50" rx="5"/><text x="380" y="158" fill="#4caf50" font-family="Arial, sans-serif" font-size="12" text-anchor="middle">Torvmånedlig MVA</text><rect width="160" height="30" x="480" y="140" fill="#fff3e0" stroke="#ff9800" rx="5"/><text x="560" y="158" fill="#ff9800" font-family="Arial, sans-serif" font-size="12" text-anchor="middle">Årlig MVA</text><text x="400" y="210" fill="#2c3e50" font-family="Arial, sans-serif" font-size="16" font-weight="bold" text-anchor="middle">
    Kvartalsvis MVA-planlegging
  </text><rect width="700" height="120" x="50" y="230" fill="#fff" stroke="#ddd" rx="5"/><path fill="#f5f5f5" stroke="#ddd" d="M50 230h100v25H50z"/><text x="100" y="247" fill="#333" font-family="Arial, sans-serif" font-size="11" font-weight="bold" text-anchor="middle">Kvartal</text><path fill="#f5f5f5" stroke="#ddd" d="M150 230h150v25H150z"/><text x="225" y="247" fill="#333" font-family="Arial, sans-serif" font-size="11" font-weight="bold" text-anchor="middle">Inngående MVA</text><path fill="#f5f5f5" stroke="#ddd" d="M300 230h150v25H300z"/><text x="375" y="247" fill="#333" font-family="Arial, sans-serif" font-size="11" font-weight="bold" text-anchor="middle">Utgående MVA</text><path fill="#f5f5f5" stroke="#ddd" d="M450 230h150v25H450z"/><text x="525" y="247" fill="#333" font-family="Arial, sans-serif" font-size="11" font-weight="bold" text-anchor="middle">Netto MVA</text><path fill="#f5f5f5" stroke="#ddd" d="M600 230h150v25H600z"/><text x="675" y="247" fill="#333" font-family="Arial, sans-serif" font-size="11" font-weight="bold" text-anchor="middle">Likviditetspåvirkning</text><text x="100" y="270" fill="#1976d2" font-family="Arial, sans-serif" font-size="11" text-anchor="middle">Q1</text><text x="225" y="270" fill="#333" font-family="Arial, sans-serif" font-size="10" text-anchor="middle">NOK 2.5M</text><text x="375" y="270" fill="#333" font-family="Arial, sans-serif" font-size="10" text-anchor="middle">NOK 8.2M</text><text x="525" y="270" fill="#f44336" font-family="Arial, sans-serif" font-size="10" text-anchor="middle">NOK -5.7M</text><text x="675" y="270" fill="#f44336" font-family="Arial, sans-serif" font-size="10" text-anchor="middle">Utbetaling</text><path fill="#f9f9f9" d="M50 275h700v20H50z"/><text x="100" y="288" fill="#4caf50" font-family="Arial, sans-serif" font-size="11" text-anchor="middle">Q2</text><text x="225" y="288" fill="#333" font-family="Arial, sans-serif" font-size="10" text-anchor="middle">NOK 3.1M</text><text x="375" y="288" fill="#333" font-family="Arial, sans-serif" font-size="10" text-anchor="middle">NOK 9.8M</text><text x="525" y="288" fill="#f44336" font-family="Arial, sans-serif" font-size="10" text-anchor="middle">NOK -6.7M</text><text x="675" y="288" fill="#f44336" font-family="Arial, sans-serif" font-size="10" text-anchor="middle">Utbetaling</text><text x="100" y="308" fill="#ff9800" font-family="Arial, sans-serif" font-size="11" text-anchor="middle">Q3</text><text x="225" y="308" fill="#333" font-family="Arial, sans-serif" font-size="10" text-anchor="middle">NOK 2.8M</text><text x="375" y="308" fill="#333" font-family="Arial, sans-serif" font-size="10" text-anchor="middle">NOK 7.5M</text><text x="525" y="308" fill="#f44336" font-family="Arial, sans-serif" font-size="10" text-anchor="middle">NOK -4.7M</text><text x="675" y="308" fill="#f44336" font-family="Arial, sans-serif" font-size="10" text-anchor="middle">Utbetaling</text><path fill="#f9f9f9" d="M50 315h700v20H50z"/><text x="100" y="328" fill="#e91e63" font-family="Arial, sans-serif" font-size="11" text-anchor="middle">Q4</text><text x="225" y="328" fill="#333" font-family="Arial, sans-serif" font-size="10" text-anchor="middle">NOK 4.2M</text><text x="375" y="328" fill="#333" font-family="Arial, sans-serif" font-size="10" text-anchor="middle">NOK 12.1M</text><text x="525" y="328" fill="#f44336" font-family="Arial, sans-serif" font-size="10" text-anchor="middle">NOK -7.9M</text><text x="675" y="328" fill="#f44336" font-family="Arial, sans-serif" font-size="10" text-anchor="middle">Utbetaling</text><text x="400" y="380" fill="#2c3e50" font-family="Arial, sans-serif" font-size="16" font-weight="bold" text-anchor="middle">
    Forskuddsskatt og Skattekort (ENK/Personlig Næringsdrivende)
  </text><rect width="600" height="100" x="100" y="400" fill="#fff" stroke="#795548" stroke-width="2" filter="url(#a)" rx="8"/><rect width="120" height="60" x="120" y="420" fill="#e3f2fd" stroke="#1976d2" rx="5"/><text x="180" y="440" fill="#1976d2" font-family="Arial, sans-serif" font-size="12" font-weight="bold" text-anchor="middle">1. Termin</text><text x="180" y="455" fill="#333" font-family="Arial, sans-serif" font-size="10" text-anchor="middle">15. mars</text><text x="180" y="470" fill="#666" font-family="Arial, sans-serif" font-size="9" text-anchor="middle">Basert på fjorårets skatt</text><rect width="120" height="60" x="260" y="420" fill="#e8f5e8" stroke="#4caf50" rx="5"/><text x="320" y="440" fill="#4caf50" font-family="Arial, sans-serif" font-size="12" font-weight="bold" text-anchor="middle">2. Termin</text><text x="320" y="455" fill="#333" font-family="Arial, sans-serif" font-size="10" text-anchor="middle">15. mai</text><text x="320" y="470" fill="#666" font-family="Arial, sans-serif" font-size="9" text-anchor="middle">Justering basert på Q1</text><rect width="120" height="60" x="400" y="420" fill="#fff3e0" stroke="#ff9800" rx="5"/><text x="460" y="440" fill="#ff9800" font-family="Arial, sans-serif" font-size="12" font-weight="bold" text-anchor="middle">3. Termin</text><text x="460" y="455" fill="#333" font-family="Arial, sans-serif" font-size="10" text-anchor="middle">15. september</text><text x="460" y="470" fill="#666" font-family="Arial, sans-serif" font-size="9" text-anchor="middle">Midjustering av prognoser</text><rect width="120" height="60" x="540" y="420" fill="#fce4ec" stroke="#e91e63" rx="5"/><text x="600" y="440" fill="#e91e63" font-family="Arial, sans-serif" font-size="12" font-weight="bold" text-anchor="middle">Oppgjør</text><text x="600" y="455" fill="#333" font-family="Arial, sans-serif" font-size="10" text-anchor="middle">31. mars</text><text x="600" y="470" fill="#666" font-family="Arial, sans-serif" font-size="9" text-anchor="middle">Final skatteavregning</text><text x="400" y="530" fill="#2c3e50" font-family="Arial, sans-serif" font-size="16" font-weight="bold" text-anchor="middle">
    Skatteplanlegging - Beste Praksis
  </text><rect width="160" height="40" x="50" y="550" fill="#e8f5e8" stroke="#4caf50" rx="5"/><text x="130" y="568" fill="#4caf50" font-family="Arial, sans-serif" font-size="11" font-weight="bold" text-anchor="middle">Kvartalsvis</text><text x="130" y="580" fill="#333" font-family="Arial, sans-serif" font-size="9" text-anchor="middle">Skatteposisjon vurdering</text><rect width="160" height="40" x="230" y="550" fill="#e3f2fd" stroke="#2196f3" rx="5"/><text x="310" y="568" fill="#2196f3" font-family="Arial, sans-serif" font-size="11" font-weight="bold" text-anchor="middle">Månedlig</text><text x="310" y="580" fill="#333" font-family="Arial, sans-serif" font-size="9" text-anchor="middle">MVA-avregning og oppfølging</text><rect width="160" height="40" x="410" y="550" fill="#fff3e0" stroke="#ff9800" rx="5"/><text x="490" y="568" fill="#ff9800" font-family="Arial, sans-serif" font-size="11" font-weight="bold" text-anchor="middle">Årlig</text><text x="490" y="580" fill="#333" font-family="Arial, sans-serif" font-size="9" text-anchor="middle">Skattestrategi og optimalisering</text><rect width="160" height="40" x="590" y="550" fill="#fce4ec" stroke="#e91e63" rx="5"/><text x="670" y="568" fill="#e91e63" font-family="Arial, sans-serif" font-size="11" font-weight="bold" text-anchor="middle">Løpende</text><text x="670" y="580" fill="#333" font-family="Arial, sans-serif" font-size="9" text-anchor="middle">Dokumentasjon og sporing</text></svg>