<svg xmlns="http://www.w3.org/2000/svg" width="800" height="600"><defs><linearGradient id="b" x1="0%" x2="100%" y1="0%" y2="100%"><stop offset="0%" style="stop-color:#f44336;stop-opacity:1"/><stop offset="100%" style="stop-color:#d32f2f;stop-opacity:1"/></linearGradient><filter id="a" width="140%" height="140%" x="-20%" y="-20%"><feDropShadow dx="2" dy="2" flood-color="#000" flood-opacity=".3" stdDeviation="3"/></filter></defs><path fill="#f8f9fa" d="M0 0h800v600H0z"/><text x="400" y="40" fill="#2c3e50" font-family="Arial, sans-serif" font-size="24" font-weight="bold" text-anchor="middle">
    Utfordringer og Fallgruver i Kvartalsstyring
  </text><text x="400" y="80" fill="#2c3e50" font-family="Arial, sans-serif" font-size="16" font-weight="bold" text-anchor="middle">
    Hovedutfordringer
  </text><rect width="340" height="160" x="50" y="100" fill="#fff" stroke="#f44336" stroke-width="2" filter="url(#a)" rx="8"/><rect width="340" height="30" x="50" y="100" fill="url(#b)" rx="8"/><text x="220" y="120" fill="#fff" font-family="Arial, sans-serif" font-size="14" font-weight="bold" text-anchor="middle">
    Kortsiktig Fokus (Quarterly Capitalism)
  </text><text x="70" y="145" fill="#333" font-family="Arial, sans-serif" font-size="12" font-weight="bold">Problemer:</text><text x="70" y="160" fill="#333" font-family="Arial, sans-serif" font-size="10">• Earnings management og regnskapsmanipulasjon</text><text x="70" y="175" fill="#333" font-family="Arial, sans-serif" font-size="10">• Underinvestering i FoU og langsiktige prosjekter</text><text x="70" y="190" fill="#333" font-family="Arial, sans-serif" font-size="10">• Bærekraftsmål blir nedprioritert</text><text x="70" y="205" fill="#333" font-family="Arial, sans-serif" font-size="10">• Kostnadskutt som svekker konkurranseevne</text><text x="70" y="225" fill="#4caf50" font-family="Arial, sans-serif" font-size="12" font-weight="bold">Løsninger:</text><text x="70" y="240" fill="#333" font-family="Arial, sans-serif" font-size="10">✓ Balanserte scorecards med langsiktige mål</text><text x="70" y="255" fill="#333" font-family="Arial, sans-serif" font-size="10">✓ ESG-integrasjon i rapportering</text><rect width="340" height="160" x="410" y="100" fill="#fff" stroke="#ff9800" stroke-width="2" filter="url(#a)" rx="8"/><rect width="340" height="30" x="410" y="100" fill="#ff9800" rx="8"/><text x="580" y="120" fill="#fff" font-family="Arial, sans-serif" font-size="14" font-weight="bold" text-anchor="middle">
    Operasjonelle Problemer
  </text><text x="430" y="145" fill="#333" font-family="Arial, sans-serif" font-size="12" font-weight="bold">Problemer:</text><text x="430" y="160" fill="#333" font-family="Arial, sans-serif" font-size="10">• Ressurskrevende rapporteringsprosesser</text><text x="430" y="175" fill="#333" font-family="Arial, sans-serif" font-size="10">• Seasonality skaper unaturlige sammenligninger</text><text x="430" y="190" fill="#333" font-family="Arial, sans-serif" font-size="10">• Volatilitet i kortsikte målinger</text><text x="430" y="205" fill="#333" font-family="Arial, sans-serif" font-size="10">• Gaming av systemer og prosesser</text><text x="430" y="225" fill="#4caf50" font-family="Arial, sans-serif" font-size="12" font-weight="bold">Løsninger:</text><text x="430" y="240" fill="#333" font-family="Arial, sans-serif" font-size="10">✓ Automatiserte kontroller og validering</text><text x="430" y="255" fill="#333" font-family="Arial, sans-serif" font-size="10">✓ Robuste KPIer og seasonal adjustment</text><text x="400" y="290" fill="#2c3e50" font-family="Arial, sans-serif" font-size="16" font-weight="bold" text-anchor="middle">
    Risikostyring og Mitigerende Tiltak
  </text><rect width="600" height="150" x="100" y="310" fill="#fff" stroke="#ddd" rx="5"/><path fill="#f5f5f5" stroke="#ddd" d="M100 310h120v25H100z"/><text x="160" y="327" fill="#333" font-family="Arial, sans-serif" font-size="11" font-weight="bold" text-anchor="middle">Risiko</text><path fill="#f5f5f5" stroke="#ddd" d="M220 310h160v25H220z"/><text x="300" y="327" fill="#333" font-family="Arial, sans-serif" font-size="11" font-weight="bold" text-anchor="middle">Mitigerende Tiltak</text><path fill="#f5f5f5" stroke="#ddd" d="M380 310h120v25H380z"/><text x="440" y="327" fill="#333" font-family="Arial, sans-serif" font-size="11" font-weight="bold" text-anchor="middle">Ansvarlig</text><path fill="#f5f5f5" stroke="#ddd" d="M500 310h100v25H500z"/><text x="550" y="327" fill="#333" font-family="Arial, sans-serif" font-size="11" font-weight="bold" text-anchor="middle">Sannsynlighet</text><path fill="#f5f5f5" stroke="#ddd" d="M600 310h100v25H600z"/><text x="650" y="327" fill="#333" font-family="Arial, sans-serif" font-size="11" font-weight="bold" text-anchor="middle">Påvirkning</text><text x="160" y="350" fill="#333" font-family="Arial, sans-serif" font-size="9" text-anchor="middle">Kortsiktig fokus</text><text x="300" y="350" fill="#333" font-family="Arial, sans-serif" font-size="9" text-anchor="middle">Balanserte scorecards</text><text x="440" y="350" fill="#333" font-family="Arial, sans-serif" font-size="9" text-anchor="middle">Styre/Ledelse</text><circle cx="550" cy="347" r="6" fill="#ff9800"/><text x="550" y="351" fill="#fff" font-family="Arial, sans-serif" font-size="8" text-anchor="middle">M</text><circle cx="650" cy="347" r="6" fill="#f44336"/><text x="650" y="351" fill="#fff" font-family="Arial, sans-serif" font-size="8" text-anchor="middle">H</text><path fill="#f9f9f9" d="M100 355h600v20H100z"/><text x="160" y="368" fill="#333" font-family="Arial, sans-serif" font-size="9" text-anchor="middle">Data kvalitet</text><text x="300" y="368" fill="#333" font-family="Arial, sans-serif" font-size="9" text-anchor="middle">Automatiserte kontroller</text><text x="440" y="368" fill="#333" font-family="Arial, sans-serif" font-size="9" text-anchor="middle">CFO/Controller</text><circle cx="550" cy="365" r="6" fill="#ff9800"/><text x="550" y="369" fill="#fff" font-family="Arial, sans-serif" font-size="8" text-anchor="middle">M</text><circle cx="650" cy="365" r="6" fill="#ff9800"/><text x="650" y="369" fill="#fff" font-family="Arial, sans-serif" font-size="8" text-anchor="middle">M</text><text x="160" y="388" fill="#333" font-family="Arial, sans-serif" font-size="9" text-anchor="middle">Seasonality</text><text x="300" y="388" fill="#333" font-family="Arial, sans-serif" font-size="9" text-anchor="middle">Seasonal adjustment</text><text x="440" y="388" fill="#333" font-family="Arial, sans-serif" font-size="9" text-anchor="middle">Analysts</text><circle cx="550" cy="385" r="6" fill="#4caf50"/><text x="550" y="389" fill="#fff" font-family="Arial, sans-serif" font-size="8" text-anchor="middle">L</text><circle cx="650" cy="385" r="6" fill="#4caf50"/><text x="650" y="389" fill="#fff" font-family="Arial, sans-serif" font-size="8" text-anchor="middle">L</text><path fill="#f9f9f9" d="M100 395h600v20H100z"/><text x="160" y="408" fill="#333" font-family="Arial, sans-serif" font-size="9" text-anchor="middle">Gaming</text><text x="300" y="408" fill="#333" font-family="Arial, sans-serif" font-size="9" text-anchor="middle">Robuste KPIer</text><text x="440" y="408" fill="#333" font-family="Arial, sans-serif" font-size="9" text-anchor="middle">Audit/Risk</text><circle cx="550" cy="405" r="6" fill="#ff9800"/><text x="550" y="409" fill="#fff" font-family="Arial, sans-serif" font-size="8" text-anchor="middle">M</text><circle cx="650" cy="405" r="6" fill="#ff9800"/><text x="650" y="409" fill="#fff" font-family="Arial, sans-serif" font-size="8" text-anchor="middle">M</text><text x="160" y="428" fill="#333" font-family="Arial, sans-serif" font-size="9" text-anchor="middle">Timing pressures</text><text x="300" y="428" fill="#333" font-family="Arial, sans-serif" font-size="9" text-anchor="middle">Kontinuerlig planlegging</text><text x="440" y="428" fill="#333" font-family="Arial, sans-serif" font-size="9" text-anchor="middle">Operations</text><circle cx="550" cy="425" r="6" fill="#f44336"/><text x="550" y="429" fill="#fff" font-family="Arial, sans-serif" font-size="8" text-anchor="middle">H</text><circle cx="650" cy="425" r="6" fill="#4caf50"/><text x="650" y="429" fill="#fff" font-family="Arial, sans-serif" font-size="8" text-anchor="middle">L</text><path fill="#f9f9f9" d="M100 435h600v20H100z"/><text x="160" y="448" fill="#333" font-family="Arial, sans-serif" font-size="9" text-anchor="middle">Konsentrasjonsrisiko</text><text x="300" y="448" fill="#333" font-family="Arial, sans-serif" font-size="9" text-anchor="middle">Diversifisering</text><text x="440" y="448" fill="#333" font-family="Arial, sans-serif" font-size="9" text-anchor="middle">Portfolio Mgmt</text><circle cx="550" cy="445" r="6" fill="#4caf50"/><text x="550" y="449" fill="#fff" font-family="Arial, sans-serif" font-size="8" text-anchor="middle">L</text><circle cx="650" cy="445" r="6" fill="#f44336"/><text x="650" y="449" fill="#fff" font-family="Arial, sans-serif" font-size="8" text-anchor="middle">H</text><text x="400" y="480" fill="#2c3e50" font-family="Arial, sans-serif" font-size="14" font-weight="bold" text-anchor="middle">
    Risikomatrise - Påvirkning og Sannsynlighet
  </text><rect width="400" height="60" x="200" y="500" fill="#fff" stroke="#ddd" rx="5"/><circle cx="250" cy="520" r="8" fill="#4caf50"/><text x="270" y="525" fill="#333" font-family="Arial, sans-serif" font-size="12">Lav risiko (L)</text><circle cx="380" cy="520" r="8" fill="#ff9800"/><text x="400" y="525" fill="#333" font-family="Arial, sans-serif" font-size="12">Moderat risiko (M)</text><circle cx="530" cy="520" r="8" fill="#f44336"/><text x="550" y="525" fill="#333" font-family="Arial, sans-serif" font-size="12">Høy risiko (H)</text><text x="400" y="545" fill="#666" font-family="Arial, sans-serif" font-size="10" text-anchor="middle">
    Kombinasjon av sannsynlighet og påvirkning bestemmer total risikoscore
  </text><text x="400" y="580" fill="#f44336" font-family="Arial, sans-serif" font-size="12" font-weight="bold" text-anchor="middle">
    Kontinuerlig overvåking og oppdatering av risikorammeverk anbefales
  </text></svg>