<svg xmlns="http://www.w3.org/2000/svg" width="800" height="400"><defs><linearGradient id="a" x1="0%" x2="100%" y1="0%" y2="100%"><stop offset="0%" style="stop-color:#f8f9fa;stop-opacity:1"/><stop offset="100%" style="stop-color:#e9ecef;stop-opacity:1"/></linearGradient><linearGradient id="b" x1="0%" x2="100%" y1="0%" y2="0%"><stop offset="0%" style="stop-color:#06c;stop-opacity:1"/><stop offset="100%" style="stop-color:#049;stop-opacity:1"/></linearGradient></defs><path fill="url(#a)" d="M0 0h800v400H0z"/><path fill="url(#b)" d="M0 0h800v80H0z"/><text x="400" y="45" fill="#fff" font-family="Arial, sans-serif" font-size="32" font-weight="bold" text-anchor="middle">
    Hva er Forretningsplan?
  </text><rect width="700" height="280" x="50" y="100" fill="#fff" stroke="#dee2e6" stroke-width="2" rx="10"/><g transform="translate(100 130)"><rect width="120" height="160" fill="#f8f9fa" stroke="#6c757d" stroke-width="2" rx="5"/><rect width="100" height="8" x="10" y="10" fill="#06c" rx="2"/><rect width="80" height="4" x="10" y="25" fill="#6c757d" rx="1"/><rect width="90" height="4" x="10" y="35" fill="#6c757d" rx="1"/><rect width="70" height="4" x="10" y="45" fill="#6c757d" rx="1"/><rect width="100" height="60" x="10" y="60" fill="#e3f2fd" stroke="#2196f3" rx="3"/><path fill="none" stroke="#2196f3" stroke-width="2" d="m20 110 15-15 15 5 15-15 15 5 15-15"/><circle cx="20" cy="110" r="2" fill="#2196f3"/><circle cx="35" cy="95" r="2" fill="#2196f3"/><circle cx="50" cy="100" r="2" fill="#2196f3"/><circle cx="65" cy="85" r="2" fill="#2196f3"/><circle cx="80" cy="90" r="2" fill="#2196f3"/><circle cx="95" cy="75" r="2" fill="#2196f3"/><rect width="85" height="4" x="10" y="130" fill="#6c757d" rx="1"/><rect width="75" height="4" x="10" y="140" fill="#6c757d" rx="1"/><rect width="90" height="4" x="10" y="150" fill="#6c757d" rx="1"/></g><path fill="none" stroke="#06c" stroke-width="3" d="M280 200h40l-5-8m5 8-5 8"/><g transform="translate(350 130)"><rect width="100" height="40" fill="#e8f5e8" stroke="#28a745" stroke-width="2" rx="5"/><text x="50" y="15" fill="#155724" font-family="Arial, sans-serif" font-size="10" font-weight="bold" text-anchor="middle">
      Finansiell
    </text><text x="50" y="28" fill="#155724" font-family="Arial, sans-serif" font-size="10" font-weight="bold" text-anchor="middle">
      Planlegging
    </text><rect width="100" height="40" y="50" fill="#fff3cd" stroke="#ffc107" stroke-width="2" rx="5"/><text x="50" y="65" fill="#856404" font-family="Arial, sans-serif" font-size="10" font-weight="bold" text-anchor="middle">
      Strategi og
    </text><text x="50" y="78" fill="#856404" font-family="Arial, sans-serif" font-size="10" font-weight="bold" text-anchor="middle">
      Mål
    </text><rect width="100" height="40" y="100" fill="#f8d7da" stroke="#dc3545" stroke-width="2" rx="5"/><text x="50" y="115" fill="#721c24" font-family="Arial, sans-serif" font-size="10" font-weight="bold" text-anchor="middle">
      Risiko-
    </text><text x="50" y="128" fill="#721c24" font-family="Arial, sans-serif" font-size="10" font-weight="bold" text-anchor="middle">
      analyse
    </text></g><path fill="none" stroke="#06c" stroke-width="3" d="M480 200h40l-5-8m5 8-5 8"/><g transform="translate(550 130)"><rect width="120" height="140" fill="#d1ecf1" stroke="#17a2b8" stroke-width="2" rx="5"/><text x="60" y="20" fill="#0c5460" font-family="Arial, sans-serif" font-size="12" font-weight="bold" text-anchor="middle">
      Regnskapsmessig
    </text><text x="60" y="35" fill="#0c5460" font-family="Arial, sans-serif" font-size="12" font-weight="bold" text-anchor="middle">
      Oppfølging
    </text><g transform="translate(10 50)"><circle cx="8" cy="8" r="6" fill="#28a745"/><path fill="none" stroke="#fff" stroke-width="2" d="m5 8 2 2 4-4"/><text x="20" y="12" fill="#0c5460" font-family="Arial, sans-serif" font-size="9">Budsjettoppfølging</text></g><g transform="translate(10 70)"><circle cx="8" cy="8" r="6" fill="#28a745"/><path fill="none" stroke="#fff" stroke-width="2" d="m5 8 2 2 4-4"/><text x="20" y="12" fill="#0c5460" font-family="Arial, sans-serif" font-size="9">Likviditetsstyring</text></g><g transform="translate(10 90)"><circle cx="8" cy="8" r="6" fill="#28a745"/><path fill="none" stroke="#fff" stroke-width="2" d="m5 8 2 2 4-4"/><text x="20" y="12" fill="#0c5460" font-family="Arial, sans-serif" font-size="9">Resultatanalyse</text></g><g transform="translate(10 110)"><circle cx="8" cy="8" r="6" fill="#28a745"/><path fill="none" stroke="#fff" stroke-width="2" d="m5 8 2 2 4-4"/><text x="20" y="12" fill="#0c5460" font-family="Arial, sans-serif" font-size="9">Compliance</text></g></g></svg>