<svg xmlns="http://www.w3.org/2000/svg" width="800" height="400"><defs><linearGradient id="a" x1="0%" x2="100%" y1="0%" y2="100%"><stop offset="0%" style="stop-color:#f8f9fa;stop-opacity:1"/><stop offset="100%" style="stop-color:#e9ecef;stop-opacity:1"/></linearGradient></defs><path fill="url(#a)" d="M0 0h800v400H0z"/><text x="400" y="30" fill="#212529" font-family="Arial, sans-serif" font-size="24" font-weight="bold" text-anchor="middle">
    Implementering og Oppfølging
  </text><g transform="translate(50 80)"><rect width="200" height="120" fill="#e8f5e8" stroke="#28a745" stroke-width="3" rx="10"/><text x="100" y="25" fill="#155724" font-family="Arial, sans-serif" font-size="16" font-weight="bold" text-anchor="middle">
      Budsjettoppfølging
    </text><g transform="translate(15 45)"><circle cx="6" cy="6" r="4" fill="#28a745"/><text x="15" y="10" fill="#155724" font-family="Arial, sans-serif" font-size="10">Månedlig rapportering</text></g><g transform="translate(15 65)"><circle cx="6" cy="6" r="4" fill="#28a745"/><text x="15" y="10" fill="#155724" font-family="Arial, sans-serif" font-size="10">Avviksanalyse</text></g><g transform="translate(15 85)"><circle cx="6" cy="6" r="4" fill="#28a745"/><text x="15" y="10" fill="#155724" font-family="Arial, sans-serif" font-size="10">Prognosejustering</text></g><g transform="translate(15 105)"><circle cx="6" cy="6" r="4" fill="#28a745"/><text x="15" y="10" fill="#155724" font-family="Arial, sans-serif" font-size="10">KPI-overvåking</text></g></g><g transform="translate(300 80)"><rect width="200" height="120" fill="#d1ecf1" stroke="#17a2b8" stroke-width="3" rx="10"/><text x="100" y="25" fill="#0c5460" font-family="Arial, sans-serif" font-size="16" font-weight="bold" text-anchor="middle">
      Regnskapsmessig
    </text><text x="100" y="40" fill="#0c5460" font-family="Arial, sans-serif" font-size="16" font-weight="bold" text-anchor="middle">
      Dokumentasjon
    </text><g transform="translate(15 55)"><circle cx="6" cy="6" r="4" fill="#17a2b8"/><text x="15" y="10" fill="#0c5460" font-family="Arial, sans-serif" font-size="10">Bilagshåndtering</text></g><g transform="translate(15 75)"><circle cx="6" cy="6" r="4" fill="#17a2b8"/><text x="15" y="10" fill="#0c5460" font-family="Arial, sans-serif" font-size="10">Intern kontroll</text></g><g transform="translate(15 95)"><circle cx="6" cy="6" r="4" fill="#17a2b8"/><text x="15" y="10" fill="#0c5460" font-family="Arial, sans-serif" font-size="10">Avstemming</text></g></g><g transform="translate(550 80)"><rect width="200" height="120" fill="#fff3cd" stroke="#ffc107" stroke-width="3" rx="10"/><text x="100" y="25" fill="#856404" font-family="Arial, sans-serif" font-size="16" font-weight="bold" text-anchor="middle">
      Revidering og
    </text><text x="100" y="40" fill="#856404" font-family="Arial, sans-serif" font-size="16" font-weight="bold" text-anchor="middle">
      Oppdatering
    </text><g transform="translate(15 55)"><circle cx="6" cy="6" r="4" fill="#ffc107"/><text x="15" y="10" fill="#856404" font-family="Arial, sans-serif" font-size="10">Årlig gjennomgang</text></g><g transform="translate(15 75)"><circle cx="6" cy="6" r="4" fill="#ffc107"/><text x="15" y="10" fill="#856404" font-family="Arial, sans-serif" font-size="10">Markedstilpasning</text></g><g transform="translate(15 95)"><circle cx="6" cy="6" r="4" fill="#ffc107"/><text x="15" y="10" fill="#856404" font-family="Arial, sans-serif" font-size="10">Kontinuerlig forbedring</text></g></g><g transform="translate(50 240)"><rect width="700" height="140" fill="#fff" stroke="#dee2e6" stroke-width="2" rx="10"/><text x="350" y="25" fill="#212529" font-family="Arial, sans-serif" font-size="18" font-weight="bold" text-anchor="middle">
      Implementeringssyklus
    </text><g transform="translate(50 50)"><circle cx="50" cy="40" r="30" fill="#e8f5e8" stroke="#28a745" stroke-width="3"/><text x="50" y="35" fill="#155724" font-family="Arial, sans-serif" font-size="10" font-weight="bold" text-anchor="middle">1. PLAN</text><text x="50" y="48" fill="#155724" font-family="Arial, sans-serif" font-size="8" text-anchor="middle">Utarbeid plan</text></g><path fill="none" stroke="#28a745" stroke-width="2" d="M100 65h40l-5-5m5 5-5 5"/><g transform="translate(170 50)"><circle cx="50" cy="40" r="30" fill="#d1ecf1" stroke="#17a2b8" stroke-width="3"/><text x="50" y="35" fill="#0c5460" font-family="Arial, sans-serif" font-size="10" font-weight="bold" text-anchor="middle">2. DO</text><text x="50" y="48" fill="#0c5460" font-family="Arial, sans-serif" font-size="8" text-anchor="middle">Implementer</text></g><path fill="none" stroke="#17a2b8" stroke-width="2" d="M250 65h40l-5-5m5 5-5 5"/><g transform="translate(320 50)"><circle cx="50" cy="40" r="30" fill="#fff3cd" stroke="#ffc107" stroke-width="3"/><text x="50" y="35" fill="#856404" font-family="Arial, sans-serif" font-size="10" font-weight="bold" text-anchor="middle">3. CHECK</text><text x="50" y="48" fill="#856404" font-family="Arial, sans-serif" font-size="8" text-anchor="middle">Kontroller</text></g><path fill="none" stroke="#ffc107" stroke-width="2" d="M400 65h40l-5-5m5 5-5 5"/><g transform="translate(470 50)"><circle cx="50" cy="40" r="30" fill="#f8d7da" stroke="#dc3545" stroke-width="3"/><text x="50" y="35" fill="#721c24" font-family="Arial, sans-serif" font-size="10" font-weight="bold" text-anchor="middle">4. ACT</text><text x="50" y="48" fill="#721c24" font-family="Arial, sans-serif" font-size="8" text-anchor="middle">Juster</text></g><g fill="none" stroke="#dc3545" stroke-width="2"><path stroke-dasharray="5,5" d="M520 80q50-40 100 0-50 40-100 0"/><path d="m525 75-5 5 5 5"/></g></g></svg>