<svg xmlns="http://www.w3.org/2000/svg" width="800" height="500"><defs><linearGradient id="a" x1="0%" x2="100%" y1="0%" y2="100%"><stop offset="0%" style="stop-color:#f8f9fa;stop-opacity:1"/><stop offset="100%" style="stop-color:#e9ecef;stop-opacity:1"/></linearGradient></defs><path fill="url(#a)" d="M0 0h800v500H0z"/><text x="400" y="30" fill="#212529" font-family="Arial, sans-serif" font-size="24" font-weight="bold" text-anchor="middle">
    Risikoanalyse i Forretningsplan
  </text><g transform="translate(50 80)"><rect width="200" height="140" fill="#f8d7da" stroke="#dc3545" stroke-width="3" rx="10"/><text x="100" y="25" fill="#721c24" font-family="Arial, sans-serif" font-size="16" font-weight="bold" text-anchor="middle">
      Finansielle Risikoer
    </text><g transform="translate(15 45)"><rect width="170" height="20" fill="rgba(220,53,69,0.1)" rx="3"/><text x="5" y="13" fill="#721c24" font-family="Arial, sans-serif" font-size="10" font-weight="bold">Likviditetsrisiko</text></g><text x="20" y="75" fill="#721c24" font-family="Arial, sans-serif" font-size="9">• Kontantstrømproblemer</text><text x="20" y="87" fill="#721c24" font-family="Arial, sans-serif" font-size="9">• Arbeidskapitalmangel</text><g transform="translate(15 95)"><rect width="170" height="20" fill="rgba(220,53,69,0.1)" rx="3"/><text x="5" y="13" fill="#721c24" font-family="Arial, sans-serif" font-size="10" font-weight="bold">Kredittrisiko</text></g><text x="20" y="125" fill="#721c24" font-family="Arial, sans-serif" font-size="9">• Tap på kundefordringer</text></g><g transform="translate(300 80)"><rect width="200" height="140" fill="#fff3cd" stroke="#ffc107" stroke-width="3" rx="10"/><text x="100" y="25" fill="#856404" font-family="Arial, sans-serif" font-size="16" font-weight="bold" text-anchor="middle">
      Operasjonelle Risikoer
    </text><g transform="translate(15 45)"><rect width="170" height="20" fill="rgba(255,193,7,0.2)" rx="3"/><text x="5" y="13" fill="#856404" font-family="Arial, sans-serif" font-size="10" font-weight="bold">Markedsrisiko</text></g><text x="20" y="75" fill="#856404" font-family="Arial, sans-serif" font-size="9">• Endret etterspørsel</text><text x="20" y="87" fill="#856404" font-family="Arial, sans-serif" font-size="9">• Økt konkurranse</text><g transform="translate(15 95)"><rect width="170" height="20" fill="rgba(255,193,7,0.2)" rx="3"/><text x="5" y="13" fill="#856404" font-family="Arial, sans-serif" font-size="10" font-weight="bold">Leverandørrisiko</text></g><text x="20" y="125" fill="#856404" font-family="Arial, sans-serif" font-size="9">• Avhengighet av nøkkelleverandører</text></g><g transform="translate(550 80)"><rect width="200" height="140" fill="#e2e3e5" stroke="#6c757d" stroke-width="3" rx="10"/><text x="100" y="25" fill="#495057" font-family="Arial, sans-serif" font-size="16" font-weight="bold" text-anchor="middle">
      Regulatoriske Risikoer
    </text><g transform="translate(15 45)"><rect width="170" height="20" fill="rgba(108,117,125,0.2)" rx="3"/><text x="5" y="13" fill="#495057" font-family="Arial, sans-serif" font-size="10" font-weight="bold">Lovgivningsendringer</text></g><text x="20" y="75" fill="#495057" font-family="Arial, sans-serif" font-size="9">• Nye regnskapsstandarder</text><text x="20" y="87" fill="#495057" font-family="Arial, sans-serif" font-size="9">• Endrede skatteregler</text><g transform="translate(15 95)"><rect width="170" height="20" fill="rgba(108,117,125,0.2)" rx="3"/><text x="5" y="13" fill="#495057" font-family="Arial, sans-serif" font-size="10" font-weight="bold">Compliance-risiko</text></g><text x="20" y="125" fill="#495057" font-family="Arial, sans-serif" font-size="9">• Rapporteringsfeil</text></g><g transform="translate(50 260)"><rect width="700" height="200" fill="#fff" stroke="#dee2e6" stroke-width="2" rx="10"/><text x="350" y="25" fill="#212529" font-family="Arial, sans-serif" font-size="18" font-weight="bold" text-anchor="middle">
      Scenarioplanlegging
    </text><path fill="#6c757d" d="M50 50h600v25H50z"/><text x="60" y="17" fill="#fff" font-family="Arial, sans-serif" font-size="12" font-weight="bold" transform="translate(50 50)">Scenario</text><text x="150" y="17" fill="#fff" font-family="Arial, sans-serif" font-size="12" font-weight="bold" transform="translate(50 50)">Sannsynlighet</text><text x="270" y="17" fill="#fff" font-family="Arial, sans-serif" font-size="12" font-weight="bold" transform="translate(50 50)">Omsetning År 1</text><text x="400" y="17" fill="#fff" font-family="Arial, sans-serif" font-size="12" font-weight="bold" transform="translate(50 50)">Resultat År 1</text><text x="520" y="17" fill="#fff" font-family="Arial, sans-serif" font-size="12" font-weight="bold" transform="translate(50 50)">Likviditetsbehov</text><path fill="#e8f5e8" d="M50 75h600v25H50z"/><text x="20" y="42" fill="#155724" font-family="Arial, sans-serif" font-size="11" transform="translate(50 50)">Optimistisk</text><text x="170" y="42" fill="#155724" font-family="Arial, sans-serif" font-size="11" transform="translate(50 50)">20%</text><text x="290" y="42" fill="#155724" font-family="Arial, sans-serif" font-size="11" transform="translate(50 50)">5 000 000</text><text x="420" y="42" fill="#155724" font-family="Arial, sans-serif" font-size="11" transform="translate(50 50)">800 000</text><text x="540" y="42" fill="#155724" font-family="Arial, sans-serif" font-size="11" transform="translate(50 50)">500 000</text><path fill="#fff3cd" d="M50 100h600v25H50z"/><text x="20" y="67" fill="#856404" font-family="Arial, sans-serif" font-size="11" transform="translate(50 50)">Realistisk</text><text x="170" y="67" fill="#856404" font-family="Arial, sans-serif" font-size="11" transform="translate(50 50)">60%</text><text x="290" y="67" fill="#856404" font-family="Arial, sans-serif" font-size="11" transform="translate(50 50)">3 500 000</text><text x="420" y="67" fill="#856404" font-family="Arial, sans-serif" font-size="11" transform="translate(50 50)">400 000</text><text x="540" y="67" fill="#856404" font-family="Arial, sans-serif" font-size="11" transform="translate(50 50)">750 000</text><path fill="#f8d7da" d="M50 125h600v25H50z"/><text x="20" y="92" fill="#721c24" font-family="Arial, sans-serif" font-size="11" transform="translate(50 50)">Pessimistisk</text><text x="170" y="92" fill="#721c24" font-family="Arial, sans-serif" font-size="11" transform="translate(50 50)">20%</text><text x="290" y="92" fill="#721c24" font-family="Arial, sans-serif" font-size="11" transform="translate(50 50)">2 000 000</text><text x="420" y="92" fill="#721c24" font-family="Arial, sans-serif" font-size="11" transform="translate(50 50)">-200 000</text><text x="540" y="92" fill="#721c24" font-family="Arial, sans-serif" font-size="11" transform="translate(50 50)">1 200 000</text><text x="300" fill="#495057" font-family="Arial, sans-serif" font-size="14" font-weight="bold" text-anchor="middle" transform="translate(50 160)">
        Risikohåndteringsstrategier
      </text><g transform="translate(50 180)"><circle cx="8" cy="8" r="6" fill="#28a745"/><path fill="none" stroke="#fff" stroke-width="1.5" d="m5 8 2 2 4-4"/><text x="20" y="12" fill="#495057" font-family="Arial, sans-serif" font-size="10">Diversifisering av inntektskilder</text></g><g transform="translate(250 180)"><circle cx="8" cy="8" r="6" fill="#28a745"/><path fill="none" stroke="#fff" stroke-width="1.5" d="m5 8 2 2 4-4"/><text x="20" y="12" fill="#495057" font-family="Arial, sans-serif" font-size="10">Forsikringsdekning</text></g><g transform="translate(400 180)"><circle cx="8" cy="8" r="6" fill="#28a745"/><path fill="none" stroke="#fff" stroke-width="1.5" d="m5 8 2 2 4-4"/><text x="20" y="12" fill="#495057" font-family="Arial, sans-serif" font-size="10">Kontingentplanlegging</text></g></g></svg>