<svg xmlns="http://www.w3.org/2000/svg" width="800" height="500"><defs><linearGradient id="a" x1="0%" x2="100%" y1="0%" y2="0%"><stop offset="0%" style="stop-color:#2563eb;stop-opacity:1"/><stop offset="100%" style="stop-color:#1d4ed8;stop-opacity:1"/></linearGradient><linearGradient id="b" x1="0%" x2="100%" y1="0%" y2="0%"><stop offset="0%" style="stop-color:#dc2626;stop-opacity:1"/><stop offset="100%" style="stop-color:#b91c1c;stop-opacity:1"/></linearGradient><linearGradient id="d" x1="0%" x2="100%" y1="0%" y2="0%"><stop offset="0%" style="stop-color:#059669;stop-opacity:1"/><stop offset="100%" style="stop-color:#047857;stop-opacity:1"/></linearGradient><linearGradient id="c" x1="0%" x2="100%" y1="0%" y2="0%"><stop offset="0%" style="stop-color:#7c3aed;stop-opacity:1"/><stop offset="100%" style="stop-color:#6d28d9;stop-opacity:1"/></linearGradient></defs><path fill="#f8fafc" d="M0 0h800v500H0z"/><path fill="url(#a)" d="M0 0h800v60H0z"/><text x="400" y="35" fill="#fff" font-family="Arial, sans-serif" font-size="22" font-weight="bold" text-anchor="middle">Kontering av Innkjøpsfaktura</text><g transform="translate(50 80)"><rect width="300" height="200" fill="#fff" stroke="#e2e8f0" stroke-width="2" rx="8"/><rect width="300" height="40" fill="#f1f5f9" rx="8"/><text x="150" y="25" fill="#1f2937" font-family="Arial, sans-serif" font-size="16" font-weight="bold" text-anchor="middle">FAKTURA</text><text x="20" y="65" fill="#374151" font-family="Arial, sans-serif" font-size="14" font-weight="bold">Leverandør AS</text><text x="20" y="85" fill="#6b7280" font-family="Arial, sans-serif" font-size="12">Fakturanr: 2024-001</text><path stroke="#e2e8f0" d="M20 100h260"/><text x="20" y="120" fill="#374151" font-family="Arial, sans-serif" font-size="12">Varekjøp</text><text x="220" y="120" fill="#374151" font-family="Arial, sans-serif" font-size="12">20 000 kr</text><text x="20" y="140" fill="#374151" font-family="Arial, sans-serif" font-size="12">MVA 25%</text><text x="220" y="140" fill="#374151" font-family="Arial, sans-serif" font-size="12">5 000 kr</text><path stroke="#374151" stroke-width="2" d="M20 155h260"/><text x="20" y="175" fill="#1f2937" font-family="Arial, sans-serif" font-size="14" font-weight="bold">TOTALT</text><text x="220" y="175" fill="#1f2937" font-family="Arial, sans-serif" font-size="14" font-weight="bold">25 000 kr</text></g><path fill="none" stroke="#2563eb" stroke-width="4" d="M375 180h50l-5-8m5 8-5 8"/><text x="25" y="-15" fill="#2563eb" font-family="Arial, sans-serif" font-size="12" font-weight="bold" text-anchor="middle" transform="translate(375 180)">KONTERING</text><g transform="translate(450 80)"><rect width="320" height="200" fill="#fff" stroke="#e2e8f0" stroke-width="2" rx="8"/><rect width="320" height="40" fill="#f1f5f9" rx="8"/><text x="160" y="25" fill="#1f2937" font-family="Arial, sans-serif" font-size="16" font-weight="bold" text-anchor="middle">Konteringspost</text><path fill="#f8fafc" stroke="#e2e8f0" d="M10 50h300v30H10z"/><text x="20" y="70" fill="#1f2937" font-family="Arial, sans-serif" font-size="12" font-weight="bold">Beskrivelse</text><text x="120" y="70" fill="#1f2937" font-family="Arial, sans-serif" font-size="12" font-weight="bold">Konto</text><text x="180" y="70" fill="#1f2937" font-family="Arial, sans-serif" font-size="12" font-weight="bold">Debet</text><text x="240" y="70" fill="#1f2937" font-family="Arial, sans-serif" font-size="12" font-weight="bold">Kredit</text><path fill="#fef2f2" stroke="#dc2626" d="M10 80h300v25H10z"/><text x="20" y="97" fill="#374151" font-family="Arial, sans-serif" font-size="11">Varekjøp</text><text x="120" y="97" fill="#374151" font-family="Arial, sans-serif" font-size="11">4005</text><rect width="50" height="15" x="170" y="85" fill="url(#b)" rx="3"/><text x="195" y="95" fill="#fff" font-family="Arial, sans-serif" font-size="10" font-weight="bold" text-anchor="middle">20 000</text><text x="260" y="97" fill="#6b7280" font-family="Arial, sans-serif" font-size="11">-</text><path fill="#faf5ff" stroke="#7c3aed" d="M10 105h300v25H10z"/><text x="20" y="122" fill="#374151" font-family="Arial, sans-serif" font-size="11">Inngående MVA</text><text x="120" y="122" fill="#374151" font-family="Arial, sans-serif" font-size="11">2701</text><rect width="50" height="15" x="170" y="110" fill="url(#c)" rx="3"/><text x="195" y="120" fill="#fff" font-family="Arial, sans-serif" font-size="10" font-weight="bold" text-anchor="middle">5 000</text><text x="260" y="122" fill="#6b7280" font-family="Arial, sans-serif" font-size="11">-</text><path fill="#f0fdf4" stroke="#059669" d="M10 130h300v25H10z"/><text x="20" y="147" fill="#374151" font-family="Arial, sans-serif" font-size="11">Leverandørgjeld</text><text x="120" y="147" fill="#374151" font-family="Arial, sans-serif" font-size="11">2400</text><text x="195" y="147" fill="#6b7280" font-family="Arial, sans-serif" font-size="11">-</text><rect width="50" height="15" x="230" y="135" fill="url(#d)" rx="3"/><text x="255" y="145" fill="#fff" font-family="Arial, sans-serif" font-size="10" font-weight="bold" text-anchor="middle">25 000</text><path fill="#f8fafc" stroke="#374151" stroke-width="2" d="M10 155h300v25H10z"/><text x="120" y="172" fill="#1f2937" font-family="Arial, sans-serif" font-size="12" font-weight="bold">TOTALT:</text><text x="195" y="172" fill="#1f2937" font-family="Arial, sans-serif" font-size="12" font-weight="bold" text-anchor="middle">25 000</text><text x="255" y="172" fill="#1f2937" font-family="Arial, sans-serif" font-size="12" font-weight="bold" text-anchor="middle">25 000</text></g><g transform="translate(50 300)"><rect width="700" height="120" fill="#fff" stroke="#e2e8f0" stroke-width="2" rx="10"/><text x="350" y="25" fill="#1f2937" font-family="Arial, sans-serif" font-size="18" font-weight="bold" text-anchor="middle">Krediteringsprinsipper ved Innkjøp</text><g font-family="Arial, sans-serif"><text y="20" fill="#1f2937" font-size="14" font-weight="bold" transform="translate(30 40)">Debet (Øker):</text><text y="40" fill="#374151" font-size="12" transform="translate(30 40)">• Varekjøp (kostnad)</text><text y="55" fill="#374151" font-size="12" transform="translate(30 40)">• Inngående MVA (eiendel)</text><text y="70" fill="#374151" font-size="12" transform="translate(30 40)">• Øker selskapets kostnader</text></g><g font-family="Arial, sans-serif"><text y="20" fill="#1f2937" font-size="14" font-weight="bold" transform="translate(370 40)">Kredit (Øker):</text><text y="40" fill="#374151" font-size="12" transform="translate(370 40)">• Leverandørgjeld (forpliktelse)</text><text y="55" fill="#374151" font-size="12" transform="translate(370 40)">• Øker selskapets gjeld</text><text y="70" fill="#374151" font-size="12" transform="translate(370 40)">• Balanserer transaksjonen</text></g></g><g transform="translate(50 440)"><text x="350" fill="#1f2937" font-family="Arial, sans-serif" font-size="16" font-weight="bold" text-anchor="middle">Konteringsprosess</text><rect width="120" height="30" y="10" fill="#dbeafe" stroke="#2563eb" rx="5"/><text x="60" y="30" fill="#1e40af" font-family="Arial, sans-serif" font-size="11" font-weight="bold" text-anchor="middle">1. Motta faktura</text><path fill="none" stroke="#6b7280" stroke-width="2" d="M130 25h30l-5-5m5 5-5 5"/><rect width="120" height="30" x="170" y="10" fill="#dcfce7" stroke="#059669" rx="5"/><text x="230" y="30" fill="#047857" font-family="Arial, sans-serif" font-size="11" font-weight="bold" text-anchor="middle">2. Identifiser kontoer</text><path fill="none" stroke="#6b7280" stroke-width="2" d="M300 25h30l-5-5m5 5-5 5"/><rect width="120" height="30" x="340" y="10" fill="#fef3c7" stroke="#d97706" rx="5"/><text x="400" y="30" fill="#92400e" font-family="Arial, sans-serif" font-size="11" font-weight="bold" text-anchor="middle">3. Registrer poster</text><path fill="none" stroke="#6b7280" stroke-width="2" d="M470 25h30l-5-5m5 5-5 5"/><rect width="120" height="30" x="510" y="10" fill="#f3e8ff" stroke="#7c3aed" rx="5"/><text x="570" y="30" fill="#6d28d9" font-family="Arial, sans-serif" font-size="11" font-weight="bold" text-anchor="middle">4. Kontroller balanse</text></g></svg>