<svg xmlns="http://www.w3.org/2000/svg" width="800" height="600"><defs><linearGradient id="a" x1="0%" x2="100%" y1="0%" y2="0%"><stop offset="0%" style="stop-color:#2563eb;stop-opacity:1"/><stop offset="100%" style="stop-color:#1d4ed8;stop-opacity:1"/></linearGradient><linearGradient id="b" x1="0%" x2="100%" y1="0%" y2="0%"><stop offset="0%" style="stop-color:#dc2626;stop-opacity:1"/><stop offset="100%" style="stop-color:#b91c1c;stop-opacity:1"/></linearGradient><linearGradient id="c" x1="0%" x2="100%" y1="0%" y2="0%"><stop offset="0%" style="stop-color:#059669;stop-opacity:1"/><stop offset="100%" style="stop-color:#047857;stop-opacity:1"/></linearGradient><linearGradient id="d" x1="0%" x2="100%" y1="0%" y2="0%"><stop offset="0%" style="stop-color:#7c3aed;stop-opacity:1"/><stop offset="100%" style="stop-color:#6d28d9;stop-opacity:1"/></linearGradient></defs><path fill="#f8fafc" d="M0 0h800v600H0z"/><path fill="url(#a)" d="M0 0h800v60H0z"/><text x="400" y="35" fill="#fff" font-family="Arial, sans-serif" font-size="22" font-weight="bold" text-anchor="middle">Salgstransaksjon med MVA</text><g transform="translate(400 90)"><rect width="700" height="80" x="-350" fill="#fff" stroke="#e2e8f0" stroke-width="2" rx="10"/><text y="25" fill="#1f2937" font-family="Arial, sans-serif" font-size="18" font-weight="bold" text-anchor="middle">Salg av varer for 50 000 kr + 25% MVA</text><text y="45" fill="#6b7280" font-family="Arial, sans-serif" font-size="14" text-anchor="middle">Total fakturabeløp: 62 500 kr</text><text y="65" fill="#6b7280" font-family="Arial, sans-serif" font-size="14" text-anchor="middle">MVA-beløp: 12 500 kr</text></g><g transform="translate(100 200)"><path fill="#f1f5f9" stroke="#cbd5e1" d="M0 0h600v40H0z"/><text x="20" y="25" fill="#1f2937" font-family="Arial, sans-serif" font-size="16" font-weight="bold">Journalpost</text><text x="200" y="25" fill="#1f2937" font-family="Arial, sans-serif" font-size="14" font-weight="bold">Konto</text><text x="350" y="25" fill="#1f2937" font-family="Arial, sans-serif" font-size="14" font-weight="bold">Debet</text><text x="480" y="25" fill="#1f2937" font-family="Arial, sans-serif" font-size="14" font-weight="bold">Kredit</text><path fill="#fef2f2" stroke="#dc2626" d="M0 40h600v50H0z"/><text x="20" y="65" fill="#374151" font-family="Arial, sans-serif" font-size="14">Kundefordringer</text><text x="200" y="65" fill="#374151" font-family="Arial, sans-serif" font-size="14">1500</text><rect width="100" height="30" x="330" y="50" fill="url(#b)" rx="5"/><text x="380" y="70" fill="#fff" font-family="Arial, sans-serif" font-size="14" font-weight="bold" text-anchor="middle">62 500</text><text x="530" y="65" fill="#6b7280" font-family="Arial, sans-serif" font-size="14">-</text><path fill="#f0fdf4" stroke="#059669" d="M0 90h600v50H0z"/><text x="20" y="115" fill="#374151" font-family="Arial, sans-serif" font-size="14">Salgsinntekter</text><text x="200" y="115" fill="#374151" font-family="Arial, sans-serif" font-size="14">3000</text><text x="380" y="115" fill="#6b7280" font-family="Arial, sans-serif" font-size="14">-</text><rect width="100" height="30" x="460" y="100" fill="url(#c)" rx="5"/><text x="510" y="120" fill="#fff" font-family="Arial, sans-serif" font-size="14" font-weight="bold" text-anchor="middle">50 000</text><path fill="#faf5ff" stroke="#7c3aed" d="M0 140h600v50H0z"/><text x="20" y="165" fill="#374151" font-family="Arial, sans-serif" font-size="14">Utgående MVA</text><text x="200" y="165" fill="#374151" font-family="Arial, sans-serif" font-size="14">2700</text><text x="380" y="165" fill="#6b7280" font-family="Arial, sans-serif" font-size="14">-</text><rect width="100" height="30" x="460" y="150" fill="url(#d)" rx="5"/><text x="510" y="170" fill="#fff" font-family="Arial, sans-serif" font-size="14" font-weight="bold" text-anchor="middle">12 500</text><path fill="#f8fafc" stroke="#374151" stroke-width="2" d="M0 190h600v40H0z"/><text x="200" y="215" fill="#1f2937" font-family="Arial, sans-serif" font-size="16" font-weight="bold">TOTALT:</text><text x="380" y="215" fill="#1f2937" font-family="Arial, sans-serif" font-size="16" font-weight="bold" text-anchor="middle">62 500</text><text x="510" y="215" fill="#1f2937" font-family="Arial, sans-serif" font-size="16" font-weight="bold" text-anchor="middle">62 500</text></g><text x="250" fill="#1f2937" font-family="Arial, sans-serif" font-size="16" font-weight="bold" text-anchor="middle" transform="translate(100 470)">T-Konto Visualisering</text><text x="75" fill="#1f2937" font-family="Arial, sans-serif" font-size="14" font-weight="bold" text-anchor="middle" transform="translate(100 490)">Kundefordringer</text><path stroke="#374151" stroke-width="2" d="M100 500h150M175 500v50"/><text x="37" y="30" fill="#dc2626" font-family="Arial, sans-serif" font-size="12" font-weight="bold" text-anchor="middle" transform="translate(100 490)">DEBET</text><text x="37" y="45" fill="#374151" font-family="Arial, sans-serif" font-size="11" text-anchor="middle" transform="translate(100 490)">62 500</text><text x="112" y="30" fill="#6b7280" font-family="Arial, sans-serif" font-size="12" text-anchor="middle" transform="translate(100 490)">KREDIT</text><text x="75" fill="#1f2937" font-family="Arial, sans-serif" font-size="14" font-weight="bold" text-anchor="middle" transform="translate(300 490)">Salgsinntekter</text><path stroke="#374151" stroke-width="2" d="M300 500h150M375 500v50"/><text x="37" y="30" fill="#6b7280" font-family="Arial, sans-serif" font-size="12" text-anchor="middle" transform="translate(300 490)">DEBET</text><text x="112" y="30" fill="#059669" font-family="Arial, sans-serif" font-size="12" font-weight="bold" text-anchor="middle" transform="translate(300 490)">KREDIT</text><text x="112" y="45" fill="#374151" font-family="Arial, sans-serif" font-size="11" text-anchor="middle" transform="translate(300 490)">50 000</text><text x="75" fill="#1f2937" font-family="Arial, sans-serif" font-size="14" font-weight="bold" text-anchor="middle" transform="translate(500 490)">Utgående MVA</text><path stroke="#374151" stroke-width="2" d="M500 500h150M575 500v50"/><text x="37" y="30" fill="#6b7280" font-family="Arial, sans-serif" font-size="12" text-anchor="middle" transform="translate(500 490)">DEBET</text><text x="112" y="30" fill="#7c3aed" font-family="Arial, sans-serif" font-size="12" font-weight="bold" text-anchor="middle" transform="translate(500 490)">KREDIT</text><text x="112" y="45" fill="#374151" font-family="Arial, sans-serif" font-size="11" text-anchor="middle" transform="translate(500 490)">12 500</text><g transform="translate(50 80)"><rect width="200" height="100" fill="#fff" stroke="#e2e8f0" stroke-width="2" rx="8"/><text x="100" y="20" fill="#1f2937" font-family="Arial, sans-serif" font-size="14" font-weight="bold" text-anchor="middle">Krediteringsprinsipper</text><text x="10" y="40" fill="#374151" font-family="Arial, sans-serif" font-size="11">• Inntekter krediteres</text><text x="10" y="55" fill="#374151" font-family="Arial, sans-serif" font-size="11">• MVA krediteres</text><text x="10" y="70" fill="#374151" font-family="Arial, sans-serif" font-size="11">• Fordringer debiteres</text><text x="10" y="85" fill="#374151" font-family="Arial, sans-serif" font-size="11">• Balanse opprettholdes</text></g></svg>