<?xml version="1.0" encoding="UTF-8"?>
<svg width="800" height="400" viewBox="0 0 800 400" xmlns="http://www.w3.org/2000/svg">
  <rect x="0" y="0" width="800" height="400" fill="#F8FAFC"/>
  <g>
    <rect x="60" y="60" width="300" height="220" rx="12" fill="#E2E8F0"/>
    <rect x="80" y="90" width="260" height="16" fill="#64748B"/>
    <rect x="80" y="120" width="200" height="12" fill="#94A3B8"/>
    <rect x="80" y="144" width="220" height="12" fill="#CBD5E1"/>
    <rect x="80" y="168" width="180" height="12" fill="#CBD5E1"/>
    <rect x="80" y="192" width="240" height="12" fill="#CBD5E1"/>
    <rect x="80" y="216" width="200" height="12" fill="#CBD5E1"/>
    <text x="80" y="260" font-family="Inter, Arial" font-size="14" fill="#334155">Resultat, balanse, noter</text>
  </g>
  <g>
    <rect x="420" y="80" width="320" height="60" rx="10" fill="#D1FAE5"/>
    <text x="440" y="115" font-family="Inter, Arial" font-size="18" fill="#065F46">Årsoppgjør</text>
  </g>
  <g>
    <circle cx="460" cy="200" r="24" fill="#BFDBFE"/>
    <text x="452" y="206" font-family="Inter, Arial" font-size="16" fill="#1E3A8A">1</text>
    <text x="490" y="206" font-family="Inter, Arial" font-size="14" fill="#1F2937">Forberedelser</text>
  </g>
  <g>
    <circle cx="460" cy="250" r="24" fill="#FDE68A"/>
    <text x="452" y="256" font-family="Inter, Arial" font-size="16" fill="#92400E">2</text>
    <text x="490" y="256" font-family="Inter, Arial" font-size="14" fill="#1F2937">Avstemming</text>
  </g>
  <g>
    <circle cx="460" cy="300" r="24" fill="#FCA5A5"/>
    <text x="452" y="306" font-family="Inter, Arial" font-size="16" fill="#7F1D1D">3</text>
    <text x="490" y="306" font-family="Inter, Arial" font-size="14" fill="#1F2937">Skatt og innsending</text>
  </g>
</svg>