<svg xmlns="http://www.w3.org/2000/svg" width="900" height="600"><defs><linearGradient id="a" x1="0%" x2="100%" y1="0%" y2="100%"><stop offset="0%" style="stop-color:#3498db;stop-opacity:1"/><stop offset="100%" style="stop-color:#2980b9;stop-opacity:1"/></linearGradient><marker id="b" markerHeight="8" markerWidth="12" orient="auto" refX="10" refY="4"><path fill="#34495e" d="m0 0 12 4L0 8z"/></marker></defs><path fill="#f8f9fa" d="M0 0h900v600H0z"/><text x="450" y="40" fill="#2c3e50" font-family="Arial, sans-serif" font-size="26" font-weight="bold" text-anchor="middle">Leverandørkreditt Prosess</text><rect width="150" height="100" x="50" y="100" fill="url(#a)" stroke="#2980b9" stroke-width="2" rx="10"/><circle cx="75" cy="125" r="15" fill="#e74c3c"/><text x="75" y="132" fill="#fff" font-family="Arial, sans-serif" font-size="14" font-weight="bold" text-anchor="middle">1</text><text x="125" y="140" fill="#fff" font-family="Arial, sans-serif" font-size="16" font-weight="bold" text-anchor="middle">LEVERANSE</text><text x="125" y="165" fill="#fff" font-family="Arial, sans-serif" font-size="12" text-anchor="middle">Varer/tjenester</text><text x="125" y="180" fill="#fff" font-family="Arial, sans-serif" font-size="12" text-anchor="middle">leveres til kunde</text><path stroke="#34495e" stroke-width="3" marker-end="url(#b)" d="M200 150h50"/><rect width="150" height="100" x="270" y="100" fill="url(#a)" stroke="#2980b9" stroke-width="2" rx="10"/><circle cx="295" cy="125" r="15" fill="#e74c3c"/><text x="295" y="132" fill="#fff" font-family="Arial, sans-serif" font-size="14" font-weight="bold" text-anchor="middle">2</text><text x="345" y="140" fill="#fff" font-family="Arial, sans-serif" font-size="16" font-weight="bold" text-anchor="middle">FAKTURERING</text><text x="345" y="165" fill="#fff" font-family="Arial, sans-serif" font-size="12" text-anchor="middle">Faktura sendes</text><text x="345" y="180" fill="#fff" font-family="Arial, sans-serif" font-size="12" text-anchor="middle">med betalingsfrist</text><path stroke="#34495e" stroke-width="3" marker-end="url(#b)" d="M420 150h50"/><rect width="150" height="100" x="490" y="100" fill="#f39c12" stroke="#e67e22" stroke-width="2" rx="10"/><circle cx="515" cy="125" r="15" fill="#e74c3c"/><text x="515" y="132" fill="#fff" font-family="Arial, sans-serif" font-size="14" font-weight="bold" text-anchor="middle">3</text><text x="565" y="135" fill="#fff" font-family="Arial, sans-serif" font-size="16" font-weight="bold" text-anchor="middle">KREDITTPERIODE</text><text x="565" y="160" fill="#fff" font-family="Arial, sans-serif" font-size="12" text-anchor="middle">14-60 dager</text><text x="565" y="175" fill="#fff" font-family="Arial, sans-serif" font-size="12" text-anchor="middle">ventetid</text><path stroke="#34495e" stroke-width="3" marker-end="url(#b)" d="M640 150h50"/><rect width="150" height="100" x="710" y="100" fill="#27ae60" stroke="#229954" stroke-width="2" rx="10"/><circle cx="735" cy="125" r="15" fill="#e74c3c"/><text x="735" y="132" fill="#fff" font-family="Arial, sans-serif" font-size="14" font-weight="bold" text-anchor="middle">4</text><text x="785" y="140" fill="#fff" font-family="Arial, sans-serif" font-size="16" font-weight="bold" text-anchor="middle">BETALING</text><text x="785" y="165" fill="#fff" font-family="Arial, sans-serif" font-size="12" text-anchor="middle">Kunde betaler</text><text x="785" y="180" fill="#fff" font-family="Arial, sans-serif" font-size="12" text-anchor="middle">innen forfallsdato</text><rect width="150" height="100" x="490" y="280" fill="#e74c3c" stroke="#c0392b" stroke-width="2" rx="10"/><circle cx="515" cy="305" r="15" fill="#fff"/><text x="515" y="312" fill="#e74c3c" font-family="Arial, sans-serif" font-size="14" font-weight="bold" text-anchor="middle">5</text><text x="565" y="320" fill="#fff" font-family="Arial, sans-serif" font-size="16" font-weight="bold" text-anchor="middle">OPPFØLGING</text><text x="565" y="345" fill="#fff" font-family="Arial, sans-serif" font-size="12" text-anchor="middle">Purring &amp;</text><text x="565" y="360" fill="#fff" font-family="Arial, sans-serif" font-size="12" text-anchor="middle">inkassoprosess</text><path stroke="#e74c3c" stroke-width="3" marker-end="url(#b)" d="M565 200v80"/><text x="580" y="240" fill="#e74c3c" font-family="Arial, sans-serif" font-size="12">Ved forsinket</text><text x="580" y="255" fill="#e74c3c" font-family="Arial, sans-serif" font-size="12">betaling</text><rect width="810" height="60" x="50" y="450" fill="#ecf0f1" stroke="#bdc3c7" rx="5"/><text x="455" y="470" fill="#2c3e50" font-family="Arial, sans-serif" font-size="14" font-weight="bold" text-anchor="middle">TIDSLINJE</text><circle cx="125" cy="490" r="5" fill="#3498db"/><text x="125" y="505" fill="#2c3e50" font-family="Arial, sans-serif" font-size="10" text-anchor="middle">Dag 0</text><circle cx="345" cy="490" r="5" fill="#3498db"/><text x="345" y="505" fill="#2c3e50" font-family="Arial, sans-serif" font-size="10" text-anchor="middle">Dag 1</text><circle cx="565" cy="490" r="5" fill="#f39c12"/><text x="565" y="505" fill="#2c3e50" font-family="Arial, sans-serif" font-size="10" text-anchor="middle">Dag 2-60</text><circle cx="785" cy="490" r="5" fill="#27ae60"/><text x="785" y="505" fill="#2c3e50" font-family="Arial, sans-serif" font-size="10" text-anchor="middle">Forfallsdato</text><path stroke="#95a5a6" stroke-width="2" d="M125 490h660"/><rect width="200" height="50" x="50" y="540" fill="#d5dbdb" stroke="#aeb6bf" rx="5"/><text x="150" y="560" fill="#2c3e50" font-family="Arial, sans-serif" font-size="12" font-weight="bold" text-anchor="middle">NØKKELFORDELER</text><text x="150" y="575" fill="#2c3e50" font-family="Arial, sans-serif" font-size="10" text-anchor="middle">Forbedret kontantstrøm for kunde</text><rect width="200" height="50" x="650" y="540" fill="#fadbd8" stroke="#f1948a" rx="5"/><text x="750" y="560" fill="#e74c3c" font-family="Arial, sans-serif" font-size="12" font-weight="bold" text-anchor="middle">NØKKELRISIKO</text><text x="750" y="575" fill="#e74c3c" font-family="Arial, sans-serif" font-size="10" text-anchor="middle">Kredittrisiko for leverandør</text></svg>