<svg xmlns="http://www.w3.org/2000/svg" width="800" height="600" viewBox="0 0 800 600"><path fill="#f8f9fa" d="M0 0h800v600H0z"/><text x="400" y="30" fill="#2c3e50" font-family="Arial, sans-serif" font-size="24" font-weight="bold" text-anchor="middle">Risikostyring i Transport</text><path fill="none" stroke="#34495e" stroke-dasharray="10,5" stroke-width="4" d="M100 300q300-100 600 0"/><circle cx="100" cy="300" r="20" fill="#27ae60"/><text x="100" y="340" fill="#2c3e50" font-family="Arial, sans-serif" font-size="12" font-weight="bold" text-anchor="middle">AVSENDER</text><circle cx="700" cy="300" r="20" fill="#3498db"/><text x="700" y="340" fill="#2c3e50" font-family="Arial, sans-serif" font-size="12" font-weight="bold" text-anchor="middle">MOTTAKER</text><rect width="120" height="80" x="150" y="80" fill="#e74c3c" stroke="#2c3e50" stroke-width="2" rx="10"/><text x="210" y="105" fill="#fff" font-family="Arial, sans-serif" font-size="14" font-weight="bold" text-anchor="middle">VÆRRISIKO</text><text x="210" y="125" fill="#fff" font-family="Arial, sans-serif" font-size="10" text-anchor="middle">• Storm og uvær</text><text x="210" y="140" fill="#fff" font-family="Arial, sans-serif" font-size="10" text-anchor="middle">• Ekstremtemperatur</text><text x="210" y="155" fill="#fff" font-family="Arial, sans-serif" font-size="10" text-anchor="middle">• Sesongvariasjoner</text><rect width="120" height="80" x="530" y="80" fill="#f39c12" stroke="#2c3e50" stroke-width="2" rx="10"/><text x="590" y="105" fill="#fff" font-family="Arial, sans-serif" font-size="14" font-weight="bold" text-anchor="middle">TRANSPORT-</text><text x="590" y="120" fill="#fff" font-family="Arial, sans-serif" font-size="14" font-weight="bold" text-anchor="middle">RISIKO</text><text x="590" y="140" fill="#fff" font-family="Arial, sans-serif" font-size="10" text-anchor="middle">• Sjø: Høy risiko</text><text x="590" y="155" fill="#fff" font-family="Arial, sans-serif" font-size="10" text-anchor="middle">• Luft: Lav risiko</text><rect width="120" height="80" x="150" y="450" fill="#9b59b6" stroke="#2c3e50" stroke-width="2" rx="10"/><text x="210" y="475" fill="#fff" font-family="Arial, sans-serif" font-size="14" font-weight="bold" text-anchor="middle">VARERISIKO</text><text x="210" y="495" fill="#fff" font-family="Arial, sans-serif" font-size="10" text-anchor="middle">• Skjøre varer</text><text x="210" y="510" fill="#fff" font-family="Arial, sans-serif" font-size="10" text-anchor="middle">• Farlig gods</text><text x="210" y="525" fill="#fff" font-family="Arial, sans-serif" font-size="10" text-anchor="middle">• Høy verdi</text><rect width="120" height="80" x="530" y="450" fill="#e67e22" stroke="#2c3e50" stroke-width="2" rx="10"/><text x="590" y="475" fill="#fff" font-family="Arial, sans-serif" font-size="14" font-weight="bold" text-anchor="middle">RUTERISIKO</text><text x="590" y="495" fill="#fff" font-family="Arial, sans-serif" font-size="10" text-anchor="middle">• Politisk ustabilitet</text><text x="590" y="510" fill="#fff" font-family="Arial, sans-serif" font-size="10" text-anchor="middle">• Dårlig infrastruktur</text><text x="590" y="525" fill="#fff" font-family="Arial, sans-serif" font-size="10" text-anchor="middle">• Piratvirksomhet</text><rect width="160" height="120" x="320" y="220" fill="#2c3e50" stroke="#34495e" stroke-width="3" rx="15"/><text x="400" y="250" fill="#fff" font-family="Arial, sans-serif" font-size="16" font-weight="bold" text-anchor="middle">RISIKOSTYRING</text><text x="400" y="275" fill="#fff" font-family="Arial, sans-serif" font-size="12" text-anchor="middle">Fraktbrev som grunnlag</text><text x="340" y="295" fill="#fff" font-family="Arial, sans-serif" font-size="10">• Transportforsikring</text><text x="340" y="310" fill="#fff" font-family="Arial, sans-serif" font-size="10">• Ansvarsdekning</text><text x="340" y="325" fill="#fff" font-family="Arial, sans-serif" font-size="10">• Forsinkelsesdekning</text><rect width="100" height="60" x="50" y="200" fill="#1abc9c" stroke="#2c3e50" rx="5"/><text x="100" y="220" fill="#fff" font-family="Arial, sans-serif" font-size="12" font-weight="bold" text-anchor="middle">FORSIKRING</text><text x="100" y="240" fill="#fff" font-family="Arial, sans-serif" font-size="9" text-anchor="middle">Transportforsikring</text><text x="100" y="255" fill="#fff" font-family="Arial, sans-serif" font-size="9" text-anchor="middle">Dekker skader</text><rect width="100" height="60" x="650" y="200" fill="#16a085" stroke="#2c3e50" rx="5"/><text x="700" y="220" fill="#fff" font-family="Arial, sans-serif" font-size="12" font-weight="bold" text-anchor="middle">ANSVAR</text><text x="700" y="240" fill="#fff" font-family="Arial, sans-serif" font-size="9" text-anchor="middle">Ansvarsdekning</text><text x="700" y="255" fill="#fff" font-family="Arial, sans-serif" font-size="9" text-anchor="middle">Transportørens ansvar</text><defs><marker id="a" markerHeight="7" markerWidth="10" orient="auto" refX="9" refY="3.5"><path fill="#2c3e50" d="m0 0 10 3.5L0 7z"/></marker></defs><path fill="none" stroke="#2c3e50" stroke-width="2" marker-end="url(#a)" d="m270 140 80 80"/><path fill="none" stroke="#2c3e50" stroke-width="2" marker-end="url(#a)" d="m530 140-80 80"/><path fill="none" stroke="#2c3e50" stroke-width="2" marker-end="url(#a)" d="m270 470 80-130"/><path fill="none" stroke="#2c3e50" stroke-width="2" marker-end="url(#a)" d="m530 470-80-130"/><path fill="none" stroke="#2c3e50" stroke-width="2" marker-end="url(#a)" d="m320 250-170-10"/><path fill="none" stroke="#2c3e50" stroke-width="2" marker-end="url(#a)" d="m480 250 170-10"/><rect width="200" height="40" x="300" y="380" fill="#fff" stroke="#2c3e50" rx="5"/><text x="400" y="395" fill="#2c3e50" font-family="Arial, sans-serif" font-size="12" font-weight="bold" text-anchor="middle">RISIKONIVÅ ETTER TRANSPORTMÅTE</text><path fill="#e74c3c" d="M320 405h40v10h-40z"/><text x="365" y="415" fill="#2c3e50" font-family="Arial, sans-serif" font-size="9">Sjø: Høy</text><path fill="#f39c12" d="M420 405h20v10h-20z"/><text x="445" y="415" fill="#2c3e50" font-family="Arial, sans-serif" font-size="9">Land: Middels</text><path fill="#27ae60" d="M320 420h10v10h-10z"/><text x="335" y="430" fill="#2c3e50" font-family="Arial, sans-serif" font-size="9">Luft: Lav</text><text x="400" y="570" fill="#7f8c8d" font-family="Arial, sans-serif" font-size="12" text-anchor="middle">Fraktbrev dokumenterer alle risikoforhold og danner grunnlag for forsikring</text></svg>