<svg xmlns="http://www.w3.org/2000/svg" width="800" height="500"><defs><linearGradient id="a" x1="0%" x2="100%" y1="0%" y2="0%"><stop offset="0%" style="stop-color:#059669;stop-opacity:1"/><stop offset="100%" style="stop-color:#047857;stop-opacity:1"/></linearGradient></defs><path fill="#f0fdf4" stroke="#d1fae5" stroke-width="2" d="M0 0h800v500H0z"/><text x="400" y="35" fill="url(#a)" font-family="Arial, sans-serif" font-size="24" font-weight="bold" text-anchor="middle">
    Sammenligning av Avskrivningsmetoder
  </text><path fill="#10b981" stroke="#047857" d="M50 60h700v40H50z"/><text x="150" y="85" fill="#fff" font-family="Arial, sans-serif" font-size="16" font-weight="bold" text-anchor="middle">Metode</text><text x="300" y="85" fill="#fff" font-family="Arial, sans-serif" font-size="16" font-weight="bold" text-anchor="middle">Karakteristikk</text><text x="500" y="85" fill="#fff" font-family="Arial, sans-serif" font-size="16" font-weight="bold" text-anchor="middle">Avskrivning År 1</text><text x="650" y="85" fill="#fff" font-family="Arial, sans-serif" font-size="16" font-weight="bold" text-anchor="middle">Avskrivning År 5</text><path fill="#fff" stroke="#d1fae5" d="M50 100h700v35H50z"/><text x="150" y="122" fill="#065f46" font-family="Arial, sans-serif" font-size="14" font-weight="bold" text-anchor="middle">Saldoavskrivning</text><text x="300" y="122" fill="#374151" font-family="Arial, sans-serif" font-size="12" text-anchor="middle">Degressiv, høy i starten</text><text x="500" y="122" fill="#dc2626" font-family="Arial, sans-serif" font-size="12" font-weight="bold" text-anchor="middle">100.000 kr</text><text x="650" y="122" fill="#16a34a" font-family="Arial, sans-serif" font-size="12" text-anchor="middle">41.000 kr</text><path fill="#f0fdf4" stroke="#d1fae5" d="M50 135h700v35H50z"/><text x="150" y="157" fill="#065f46" font-family="Arial, sans-serif" font-size="14" font-weight="bold" text-anchor="middle">Lineær avskrivning</text><text x="300" y="157" fill="#374151" font-family="Arial, sans-serif" font-size="12" text-anchor="middle">Konstant over tid</text><text x="500" y="157" fill="#6b7280" font-family="Arial, sans-serif" font-size="12" text-anchor="middle">83.333 kr</text><text x="650" y="157" fill="#6b7280" font-family="Arial, sans-serif" font-size="12" text-anchor="middle">83.333 kr</text><path fill="#fff" stroke="#d1fae5" d="M50 170h700v35H50z"/><text x="150" y="192" fill="#065f46" font-family="Arial, sans-serif" font-size="14" font-weight="bold" text-anchor="middle">Produksjonsavskrivning</text><text x="300" y="192" fill="#374151" font-family="Arial, sans-serif" font-size="12" text-anchor="middle">Basert på bruk</text><text x="500" y="192" fill="#f59e0b" font-family="Arial, sans-serif" font-size="12" text-anchor="middle">Variabel</text><text x="650" y="192" fill="#f59e0b" font-family="Arial, sans-serif" font-size="12" text-anchor="middle">Variabel</text><path fill="#fff" stroke="#d1fae5" stroke-width="2" d="M80 230h640v220H80z"/><text x="400" y="255" fill="#065f46" font-family="Arial, sans-serif" font-size="18" font-weight="bold" text-anchor="middle">
    Avskrivningsutvikling over 6 år (500.000 kr kostpris)
  </text><path stroke="#6b7280" stroke-width="2" d="M120 280v140M120 420h560"/><text x="110" y="290" fill="#6b7280" font-family="Arial, sans-serif" font-size="11" text-anchor="end">120k</text><text x="110" y="320" fill="#6b7280" font-family="Arial, sans-serif" font-size="11" text-anchor="end">100k</text><text x="110" y="350" fill="#6b7280" font-family="Arial, sans-serif" font-size="11" text-anchor="end">80k</text><text x="110" y="380" fill="#6b7280" font-family="Arial, sans-serif" font-size="11" text-anchor="end">60k</text><text x="110" y="410" fill="#6b7280" font-family="Arial, sans-serif" font-size="11" text-anchor="end">40k</text><text x="110" y="425" fill="#6b7280" font-family="Arial, sans-serif" font-size="11" text-anchor="end">0</text><text x="170" y="440" fill="#6b7280" font-family="Arial, sans-serif" font-size="11" text-anchor="middle">År 1</text><text x="260" y="440" fill="#6b7280" font-family="Arial, sans-serif" font-size="11" text-anchor="middle">År 2</text><text x="350" y="440" fill="#6b7280" font-family="Arial, sans-serif" font-size="11" text-anchor="middle">År 3</text><text x="440" y="440" fill="#6b7280" font-family="Arial, sans-serif" font-size="11" text-anchor="middle">År 4</text><text x="530" y="440" fill="#6b7280" font-family="Arial, sans-serif" font-size="11" text-anchor="middle">År 5</text><text x="620" y="440" fill="#6b7280" font-family="Arial, sans-serif" font-size="11" text-anchor="middle">År 6</text><path fill="none" stroke="#dc2626" stroke-width="3" d="m170 285 90 30 90 25 90 20 90 15 90 10"/><path stroke="#3b82f6" stroke-dasharray="5,5" stroke-width="3" d="M170 350h450"/><circle cx="170" cy="285" r="4" fill="#dc2626"/><circle cx="260" cy="315" r="4" fill="#dc2626"/><circle cx="350" cy="340" r="4" fill="#dc2626"/><circle cx="440" cy="360" r="4" fill="#dc2626"/><circle cx="530" cy="375" r="4" fill="#dc2626"/><circle cx="620" cy="385" r="4" fill="#dc2626"/><text x="170" y="275" fill="#dc2626" font-family="Arial, sans-serif" font-size="10" font-weight="bold" text-anchor="middle">100k</text><text x="260" y="305" fill="#dc2626" font-family="Arial, sans-serif" font-size="10" font-weight="bold" text-anchor="middle">80k</text><text x="350" y="330" fill="#dc2626" font-family="Arial, sans-serif" font-size="10" font-weight="bold" text-anchor="middle">64k</text><text x="440" y="350" fill="#dc2626" font-family="Arial, sans-serif" font-size="10" font-weight="bold" text-anchor="middle">51k</text><text x="530" y="365" fill="#dc2626" font-family="Arial, sans-serif" font-size="10" font-weight="bold" text-anchor="middle">41k</text><text x="620" y="375" fill="#dc2626" font-family="Arial, sans-serif" font-size="10" font-weight="bold" text-anchor="middle">33k</text><path fill="#dc2626" d="M150 465h15v3h-15z"/><text x="175" y="475" fill="#374151" font-family="Arial, sans-serif" font-size="12">
    Saldoavskrivning (20%)
  </text><path fill="#3b82f6" d="M350 465h15v3h-15z"/><text x="375" y="475" fill="#374151" font-family="Arial, sans-serif" font-size="12">
    Lineær avskrivning (83.333 kr/år)
  </text></svg>