<svg xmlns="http://www.w3.org/2000/svg" width="800" height="500" viewBox="0 0 800 500"><defs><linearGradient id="a" x1="0%" x2="100%" y1="0%" y2="100%"><stop offset="0%" style="stop-color:#3498db;stop-opacity:1"/><stop offset="100%" style="stop-color:#2980b9;stop-opacity:1"/></linearGradient><linearGradient id="b" x1="0%" x2="100%" y1="0%" y2="100%"><stop offset="0%" style="stop-color:#e67e22;stop-opacity:1"/><stop offset="100%" style="stop-color:#d35400;stop-opacity:1"/></linearGradient><linearGradient id="d" x1="0%" x2="100%" y1="0%" y2="100%"><stop offset="0%" style="stop-color:#27ae60;stop-opacity:1"/><stop offset="100%" style="stop-color:#229954;stop-opacity:1"/></linearGradient></defs><path fill="#f8f9fa" d="M0 0h800v500H0z"/><text x="400" y="40" fill="#2c3e50" font-family="Arial, sans-serif" font-size="28" font-weight="bold" text-anchor="middle">Aksjonærlån fra AS</text><text x="400" y="70" fill="#7f8c8d" font-family="Arial, sans-serif" font-size="16" text-anchor="middle">Lån fra aksjeselskap til aksjonær</text><rect width="120" height="100" x="100" y="120" fill="url(#a)" stroke="#2c3e50" stroke-width="2" rx="10"/><text x="160" y="145" fill="#fff" font-family="Arial, sans-serif" font-size="14" font-weight="bold" text-anchor="middle">Aksjeselskap</text><text x="160" y="165" fill="#fff" font-family="Arial, sans-serif" font-size="12" text-anchor="middle">(AS)</text><rect width="12" height="12" x="115" y="135" fill="#fff" rx="2"/><rect width="12" height="12" x="135" y="135" fill="#fff" rx="2"/><rect width="12" height="12" x="155" y="135" fill="#fff" rx="2"/><rect width="12" height="12" x="175" y="135" fill="#fff" rx="2"/><rect width="12" height="12" x="115" y="155" fill="#fff" rx="2"/><rect width="12" height="12" x="135" y="155" fill="#fff" rx="2"/><rect width="12" height="12" x="155" y="155" fill="#fff" rx="2"/><rect width="12" height="12" x="175" y="155" fill="#fff" rx="2"/><text x="160" y="245" fill="#2c3e50" font-family="Arial, sans-serif" font-size="12" font-weight="bold" text-anchor="middle">Långiver</text><circle cx="580" cy="170" r="50" fill="url(#b)" stroke="#2c3e50" stroke-width="2"/><circle cx="570" cy="155" r="15" fill="#fff"/><path fill="none" stroke="#fff" stroke-width="4" d="M540 200q40-15 80 0"/><text x="580" y="245" fill="#2c3e50" font-family="Arial, sans-serif" font-size="12" font-weight="bold" text-anchor="middle">Aksjonær</text><text x="580" y="260" fill="#2c3e50" font-family="Arial, sans-serif" font-size="12" text-anchor="middle">Låntaker</text><path fill="none" stroke="#27ae60" stroke-width="4" marker-end="url(#c)" d="M230 170h290"/><circle cx="300" cy="170" r="15" fill="url(#d)"/><text x="300" y="177" fill="#fff" font-family="Arial, sans-serif" font-size="12" font-weight="bold" text-anchor="middle">kr</text><circle cx="375" cy="170" r="15" fill="url(#d)"/><text x="375" y="177" fill="#fff" font-family="Arial, sans-serif" font-size="12" font-weight="bold" text-anchor="middle">kr</text><circle cx="450" cy="170" r="15" fill="url(#d)"/><text x="450" y="177" fill="#fff" font-family="Arial, sans-serif" font-size="12" font-weight="bold" text-anchor="middle">kr</text><text x="375" y="150" fill="#27ae60" font-family="Arial, sans-serif" font-size="14" font-weight="bold" text-anchor="middle">LÅN</text><path fill="none" stroke="#e74c3c" stroke-dasharray="5,5" stroke-width="3" marker-end="url(#e)" d="M520 200H230"/><text x="375" y="220" fill="#e74c3c" font-family="Arial, sans-serif" font-size="12" font-weight="bold" text-anchor="middle">Renter + Avdrag</text><rect width="700" height="150" x="50" y="300" fill="#ecf0f1" stroke="#bdc3c7" stroke-width="2" rx="10"/><text x="400" y="330" fill="#2c3e50" font-family="Arial, sans-serif" font-size="18" font-weight="bold" text-anchor="middle">Viktige Krav</text><g transform="translate(100 350)"><circle cx="10" cy="10" r="5" fill="#e74c3c"/><text x="25" y="15" fill="#2c3e50" font-family="Arial, sans-serif" font-size="14" font-weight="bold">Markedsmessig rente (normrente)</text><circle cx="10" cy="35" r="5" fill="#e74c3c"/><text x="25" y="40" fill="#2c3e50" font-family="Arial, sans-serif" font-size="14" font-weight="bold">Skriftlig låneavtale</text><circle cx="10" cy="60" r="5" fill="#e74c3c"/><text x="25" y="65" fill="#2c3e50" font-family="Arial, sans-serif" font-size="14" font-weight="bold">Korrekt regnskapsføring</text><circle cx="350" cy="10" r="5" fill="#e74c3c"/><text x="365" y="15" fill="#2c3e50" font-family="Arial, sans-serif" font-size="14" font-weight="bold">Skattemessige konsekvenser</text><circle cx="350" cy="35" r="5" fill="#e74c3c"/><text x="365" y="40" fill="#2c3e50" font-family="Arial, sans-serif" font-size="14" font-weight="bold">Dokumentasjon og oppfølging</text><circle cx="350" cy="60" r="5" fill="#e74c3c"/><text x="365" y="65" fill="#2c3e50" font-family="Arial, sans-serif" font-size="14" font-weight="bold">Følge aksjelovens regler</text></g><defs><marker id="c" markerHeight="7" markerWidth="10" orient="auto" refX="9" refY="3.5"><path fill="#27ae60" d="m0 0 10 3.5L0 7z"/></marker><marker id="e" markerHeight="7" markerWidth="10" orient="auto" refX="9" refY="3.5"><path fill="#e74c3c" d="m0 0 10 3.5L0 7z"/></marker></defs><text x="400" y="480" fill="#e74c3c" font-family="Arial, sans-serif" font-size="12" font-weight="bold" text-anchor="middle">⚠️ Feil kan føre til skattemessige problemer og tilleggsskatt</text></svg>