<?xml version="1.0" encoding="UTF-8"?>
<svg width="800" height="400" viewBox="0 0 800 400" xmlns="http://www.w3.org/2000/svg">
  <rect x="0" y="0" width="800" height="400" fill="#F8FAFC"/>
  <g>
    <rect x="60" y="50" width="300" height="260" rx="12" fill="#EEF2FF"/>
    <text x="80" y="90" font-family="Inter, Arial" font-size="16" fill="#3730A3">Bilag</text>
    <rect x="80" y="110" width="240" height="12" fill="#C7D2FE"/>
    <rect x="80" y="132" width="200" height="12" fill="#C7D2FE"/>
    <text x="80" y="168" font-family="Inter, Arial" font-size="16" fill="#3730A3">Bokføring</text>
    <rect x="80" y="188" width="240" height="12" fill="#A5B4FC"/>
    <rect x="80" y="210" width="180" height="12" fill="#A5B4FC"/>
    <text x="80" y="246" font-family="Inter, Arial" font-size="16" fill="#3730A3">Rapportering</text>
    <rect x="80" y="266" width="220" height="12" fill="#818CF8"/>
  </g>
  <g>
    <circle cx="440" cy="120" r="36" fill="#FDE68A"/>
    <text x="428" y="127" font-family="Inter, Arial" font-size="20" fill="#92400E">MVA</text>
  </g>
  <g>
    <rect x="520" y="200" width="220" height="100" rx="10" fill="#DCFCE7"/>
    <text x="540" y="230" font-family="Inter, Arial" font-size="16" fill="#065F46">Debet</text>
    <text x="620" y="230" font-family="Inter, Arial" font-size="16" fill="#065F46">Kredit</text>
    <rect x="540" y="244" width="70" height="10" fill="#86EFAC"/>
    <rect x="620" y="244" width="70" height="10" fill="#86EFAC"/>
    <rect x="540" y="260" width="70" height="10" fill="#86EFAC"/>
    <rect x="620" y="260" width="70" height="10" fill="#86EFAC"/>
  </g>
</svg>