<svg xmlns="http://www.w3.org/2000/svg" width="800" height="600" viewBox="0 0 800 600"><path fill="#f8f9fa" d="M0 0h800v600H0z"/><text x="400" y="40" fill="#2c3e50" font-family="Arial, sans-serif" font-size="24" font-weight="bold" text-anchor="middle">
    Hovedkomponenter i en Aksjonæravtale
  </text><circle cx="400" cy="300" r="80" fill="#3498db" stroke="#2c3e50" stroke-width="3"/><text x="400" y="290" fill="#fff" font-family="Arial, sans-serif" font-size="16" font-weight="bold" text-anchor="middle">
    Aksjonær-
  </text><text x="400" y="310" fill="#fff" font-family="Arial, sans-serif" font-size="16" font-weight="bold" text-anchor="middle">
    avtale
  </text><rect width="160" height="100" x="50" y="100" fill="#e74c3c" stroke="#c0392b" stroke-width="2" rx="10"/><text x="130" y="135" fill="#fff" font-family="Arial, sans-serif" font-size="14" font-weight="bold" text-anchor="middle">
    Eierstyring
  </text><text x="130" y="155" fill="#fff" font-family="Arial, sans-serif" font-size="11" text-anchor="middle">
    • Stemmerettigheter
  </text><text x="130" y="175" fill="#fff" font-family="Arial, sans-serif" font-size="11" text-anchor="middle">
    • Beslutningsprosesser
  </text><rect width="160" height="100" x="590" y="100" fill="#9b59b6" stroke="#8e44ad" stroke-width="2" rx="10"/><text x="670" y="135" fill="#fff" font-family="Arial, sans-serif" font-size="14" font-weight="bold" text-anchor="middle">
    Aksjetransfer
  </text><text x="670" y="155" fill="#fff" font-family="Arial, sans-serif" font-size="11" text-anchor="middle">
    • Forkjøpsrett
  </text><text x="670" y="175" fill="#fff" font-family="Arial, sans-serif" font-size="11" text-anchor="middle">
    • Medsalgsrett
  </text><rect width="160" height="100" x="50" y="450" fill="#f39c12" stroke="#e67e22" stroke-width="2" rx="10"/><text x="130" y="485" fill="#fff" font-family="Arial, sans-serif" font-size="14" font-weight="bold" text-anchor="middle">
    Exit-strategier
  </text><text x="130" y="505" fill="#fff" font-family="Arial, sans-serif" font-size="11" text-anchor="middle">
    • Drag-along
  </text><text x="130" y="525" fill="#fff" font-family="Arial, sans-serif" font-size="11" text-anchor="middle">
    • Tag-along
  </text><rect width="160" height="100" x="590" y="450" fill="#27ae60" stroke="#229954" stroke-width="2" rx="10"/><text x="670" y="485" fill="#fff" font-family="Arial, sans-serif" font-size="14" font-weight="bold" text-anchor="middle">
    Konfliktløsning
  </text><text x="670" y="505" fill="#fff" font-family="Arial, sans-serif" font-size="11" text-anchor="middle">
    • Voldgift
  </text><text x="670" y="525" fill="#fff" font-family="Arial, sans-serif" font-size="11" text-anchor="middle">
    • Mekling
  </text><rect width="160" height="80" x="320" y="80" fill="#34495e" stroke="#2c3e50" stroke-width="2" rx="10"/><text x="400" y="115" fill="#fff" font-family="Arial, sans-serif" font-size="14" font-weight="bold" text-anchor="middle">
    Verdsettelse
  </text><text x="400" y="135" fill="#fff" font-family="Arial, sans-serif" font-size="11" text-anchor="middle">
    • Markedsverdi
  </text><text x="400" y="150" fill="#fff" font-family="Arial, sans-serif" font-size="11" text-anchor="middle">
    • Revisjonsvurdering
  </text><rect width="160" height="80" x="320" y="480" fill="#16a085" stroke="#138d75" stroke-width="2" rx="10"/><text x="400" y="515" fill="#fff" font-family="Arial, sans-serif" font-size="14" font-weight="bold" text-anchor="middle">
    Finansiering
  </text><text x="400" y="535" fill="#fff" font-family="Arial, sans-serif" font-size="11" text-anchor="middle">
    • Kapitaltilskudd
  </text><text x="400" y="550" fill="#fff" font-family="Arial, sans-serif" font-size="11" text-anchor="middle">
    • Emisjoner
  </text><path stroke="#7f8c8d" stroke-width="2" d="m210 150 110 100M590 150 480 250M210 500l110-150M590 500 480 350M400 160v60M400 380v100"/></svg>