<svg xmlns="http://www.w3.org/2000/svg" width="800" height="400"><path fill="#f8f9fa" d="M0 0h800v400H0z"/><text x="400" y="30" fill="#2c3e50" font-family="Arial, sans-serif" font-size="24" font-weight="bold" text-anchor="middle">
    Fysisk Person vs. Juridisk Person
  </text><g transform="translate(50 70)"><rect width="300" height="280" fill="#e74c3c" stroke="#c0392b" stroke-width="2" rx="10"/><rect width="300" height="50" fill="#c0392b" rx="10"/><text x="150" y="30" fill="#fff" font-family="Arial, sans-serif" font-size="18" font-weight="bold" text-anchor="middle">
      FYSISK PERSON
    </text><circle cx="150" cy="90" r="25" fill="#fff" stroke="#c0392b" stroke-width="2"/><circle cx="145" cy="85" r="8" fill="#c0392b"/><circle cx="155" cy="85" r="8" fill="#c0392b"/><path fill="none" stroke="#c0392b" stroke-width="2" d="M135 95q15 10 30 0"/><g fill="#fff"><text font-family="Arial, sans-serif" font-size="14" font-weight="bold" transform="translate(20 130)">
        Kjennetegn:
      </text><g transform="translate(20 155)"><circle cx="5" r="3"/><text x="15" y="5" font-family="Arial, sans-serif" font-size="12">
          Menneske av kjøtt og blod
        </text></g><g transform="translate(20 175)"><circle cx="5" r="3"/><text x="15" y="5" font-family="Arial, sans-serif" font-size="12">
          Naturlige rettigheter
        </text></g><g transform="translate(20 195)"><circle cx="5" r="3"/><text x="15" y="5" font-family="Arial, sans-serif" font-size="12">
          Personlig ansvar
        </text></g><g transform="translate(20 215)"><circle cx="5" r="3"/><text x="15" y="5" font-family="Arial, sans-serif" font-size="12">
          Begrenset levetid
        </text></g><g transform="translate(20 235)"><circle cx="5" r="3"/><text x="15" y="5" font-family="Arial, sans-serif" font-size="12">
          Personinntektsskatt
        </text></g></g></g><g transform="translate(450 70)"><rect width="300" height="280" fill="#3498db" stroke="#2980b9" stroke-width="2" rx="10"/><rect width="300" height="50" fill="#2980b9" rx="10"/><text x="150" y="30" fill="#fff" font-family="Arial, sans-serif" font-size="18" font-weight="bold" text-anchor="middle">
      JURIDISK PERSON
    </text><rect width="50" height="40" x="125" y="70" fill="#fff" stroke="#2980b9" stroke-width="2" rx="5"/><text x="150" y="95" fill="#2980b9" font-family="Arial, sans-serif" font-size="12" font-weight="bold" text-anchor="middle">
      AS
    </text><g fill="#fff"><text font-family="Arial, sans-serif" font-size="14" font-weight="bold" transform="translate(20 130)">
        Kjennetegn:
      </text><g transform="translate(20 155)"><circle cx="5" r="3"/><text x="15" y="5" font-family="Arial, sans-serif" font-size="12">
          Juridisk konstruksjon
        </text></g><g transform="translate(20 175)"><circle cx="5" r="3"/><text x="15" y="5" font-family="Arial, sans-serif" font-size="12">
          Tildelte rettigheter
        </text></g><g transform="translate(20 195)"><circle cx="5" r="3"/><text x="15" y="5" font-family="Arial, sans-serif" font-size="12">
          Begrenset ansvar
        </text></g><g transform="translate(20 215)"><circle cx="5" r="3"/><text x="15" y="5" font-family="Arial, sans-serif" font-size="12">
          Kontinuitet
        </text></g><g transform="translate(20 235)"><circle cx="5" r="3"/><text x="15" y="5" font-family="Arial, sans-serif" font-size="12">
          Selskapsskatt
        </text></g></g></g><g transform="translate(375 200)"><circle cx="25" r="20" fill="#e67e22" stroke="#d35400" stroke-width="2"/><text x="25" y="7" fill="#fff" font-family="Arial, sans-serif" font-size="16" font-weight="bold" text-anchor="middle">
      VS
    </text></g></svg>