<svg xmlns="http://www.w3.org/2000/svg" width="800" height="600"><path fill="#f8f9fa" d="M0 0h800v600H0z"/><text x="400" y="30" fill="#2c3e50" font-family="Arial, sans-serif" font-size="24" font-weight="bold" text-anchor="middle">
    Praktiske Tips for Regnskapsførere
  </text><text x="400" y="55" fill="#7f8c8d" font-family="Arial, sans-serif" font-size="16" text-anchor="middle">
    Arbeid med Juridiske Personer
  </text><g transform="translate(50 90)"><rect width="320" height="180" fill="#3498db" stroke="#2980b9" stroke-width="2" rx="10"/><rect width="320" height="40" fill="#2980b9" rx="10"/><text x="160" y="25" fill="#fff" font-family="Arial, sans-serif" font-size="16" font-weight="bold" text-anchor="middle">
      1. IDENTIFIKASJON
    </text><g fill="#fff"><text font-family="Arial, sans-serif" font-size="14" font-weight="bold" transform="translate(15 55)">
        Verifiser juridisk person-status:
      </text><path d="M15 80h12v12H15z"/><text x="20" y="10" font-family="Arial, sans-serif" font-size="11" transform="translate(15 80)">
          Sjekk organisasjonsnummer i Brønnøysundregistrene
        </text><path d="M15 100h12v12H15z"/><text x="20" y="10" font-family="Arial, sans-serif" font-size="11" transform="translate(15 100)">
          Kontroller registrering i Foretaksregisteret
        </text><path d="M15 120h12v12H15z"/><text x="20" y="10" font-family="Arial, sans-serif" font-size="11" transform="translate(15 120)">
          Bekreft selskapsform og vedtekter
        </text><path d="M15 140h12v12H15z"/><text x="20" y="10" font-family="Arial, sans-serif" font-size="11" transform="translate(15 140)">
          Dokumenter eierstruktur og signaturrett
        </text><path d="M15 160h12v12H15z"/><text x="20" y="10" font-family="Arial, sans-serif" font-size="11" transform="translate(15 160)">
          Skille mellom eiers og selskapets transaksjoner
        </text></g></g><g transform="translate(430 90)"><rect width="320" height="180" fill="#27ae60" stroke="#229954" stroke-width="2" rx="10"/><rect width="320" height="40" fill="#229954" rx="10"/><text x="160" y="25" fill="#fff" font-family="Arial, sans-serif" font-size="16" font-weight="bold" text-anchor="middle">
      2. REGNSKAPSMESSIG BEHANDLING
    </text><g fill="#fff"><text font-family="Arial, sans-serif" font-size="14" font-weight="bold" transform="translate(15 55)">
        Korrekt bokføring:
      </text><path d="M15 80h12v12H15z"/><text x="20" y="10" font-family="Arial, sans-serif" font-size="11" transform="translate(15 80)">
          Separate kontoer for alle transaksjoner
        </text><path d="M15 100h12v12H15z"/><text x="20" y="10" font-family="Arial, sans-serif" font-size="11" transform="translate(15 100)">
          Korrekt klassifisering av eiendeler og gjeld
        </text><path d="M15 120h12v12H15z"/><text x="20" y="10" font-family="Arial, sans-serif" font-size="11" transform="translate(15 120)">
          Dokumenter alle beslutninger og vedtak
        </text><path d="M15 140h12v12H15z"/><text x="20" y="10" font-family="Arial, sans-serif" font-size="11" transform="translate(15 140)">
          Følg regnskapslovens krav til juridiske personer
        </text><path d="M15 160h12v12H15z"/><text x="20" y="10" font-family="Arial, sans-serif" font-size="11" transform="translate(15 160)">
          Håndter mellomværende med eiere korrekt
        </text></g></g><g transform="translate(50 300)"><rect width="320" height="180" fill="#e67e22" stroke="#d35400" stroke-width="2" rx="10"/><rect width="320" height="40" fill="#d35400" rx="10"/><text x="160" y="25" fill="#fff" font-family="Arial, sans-serif" font-size="16" font-weight="bold" text-anchor="middle">
      3. SKATTEMESSIGE HENSYN
    </text><g fill="#fff"><text font-family="Arial, sans-serif" font-size="14" font-weight="bold" transform="translate(15 55)">
        Viktige skatteforhold:
      </text><path d="M15 80h12v12H15z"/><text x="20" y="10" font-family="Arial, sans-serif" font-size="11" transform="translate(15 80)">
          Beregn 22% selskapsskatt på overskudd
        </text><path d="M15 100h12v12H15z"/><text x="20" y="10" font-family="Arial, sans-serif" font-size="11" transform="translate(15 100)">
          Håndter utbytteutdelinger og utbytteskatt
        </text><path d="M15 120h12v12H15z"/><text x="20" y="10" font-family="Arial, sans-serif" font-size="11" transform="translate(15 120)">
          Dokumenter fradragsberettigede kostnader
        </text><path d="M15 140h12v12H15z"/><text x="20" y="10" font-family="Arial, sans-serif" font-size="11" transform="translate(15 140)">
          Overhold frister for selvangivelse og MVA
        </text><path d="M15 160h12v12H15z"/><text x="20" y="10" font-family="Arial, sans-serif" font-size="11" transform="translate(15 160)">
          Vurder skattemessige avskrivninger
        </text></g></g><g transform="translate(430 300)"><rect width="320" height="180" fill="#9b59b6" stroke="#8e44ad" stroke-width="2" rx="10"/><rect width="320" height="40" fill="#8e44ad" rx="10"/><text x="160" y="25" fill="#fff" font-family="Arial, sans-serif" font-size="16" font-weight="bold" text-anchor="middle">
      4. DOKUMENTASJON &amp; COMPLIANCE
    </text><g fill="#fff"><text font-family="Arial, sans-serif" font-size="14" font-weight="bold" transform="translate(15 55)">
        Viktig dokumentasjon:
      </text><path d="M15 80h12v12H15z"/><text x="20" y="10" font-family="Arial, sans-serif" font-size="11" transform="translate(15 80)">
          Oppbevar stiftelsesdokumenter og vedtekter
        </text><path d="M15 100h12v12H15z"/><text x="20" y="10" font-family="Arial, sans-serif" font-size="11" transform="translate(15 100)">
          Dokumenter styremøter og generalforsamlinger
        </text><path d="M15 120h12v12H15z"/><text x="20" y="10" font-family="Arial, sans-serif" font-size="11" transform="translate(15 120)">
          Følg rapporteringsfrister til myndigheter
        </text><path d="M15 140h12v12H15z"/><text x="20" y="10" font-family="Arial, sans-serif" font-size="11" transform="translate(15 140)">
          Oppretthold korrekt arkivering i 10 år
        </text><path d="M15 160h12v12H15z"/><text x="20" y="10" font-family="Arial, sans-serif" font-size="11" transform="translate(15 160)">
          Vurder revisjonsplikt og revisorvalg
        </text></g></g><g transform="translate(100 510)"><rect width="600" height="60" fill="#e74c3c" stroke="#c0392b" stroke-width="2" rx="8"/><circle cx="30" cy="30" r="15" fill="#fff"/><text x="30" y="37" fill="#e74c3c" font-family="Arial, sans-serif" font-size="18" font-weight="bold" text-anchor="middle">
      !
    </text><text x="60" y="25" fill="#fff" font-family="Arial, sans-serif" font-size="14" font-weight="bold">
      VIKTIG: Juridiske personer har strengere krav enn ikke-juridiske personer
    </text><text x="60" y="45" fill="#fff" font-family="Arial, sans-serif" font-size="12">
      Feil kan få alvorlige konsekvenser for både selskap og regnskapsfører
    </text></g></svg>