<svg xmlns="http://www.w3.org/2000/svg" width="800" height="600"><path fill="#f8f9fa" d="M0 0h800v600H0z"/><text x="400" y="30" fill="#2c3e50" font-family="Arial, sans-serif" font-size="24" font-weight="bold" text-anchor="middle">
    Regnskapsmessige Konsekvenser av Juridisk Person-Status
  </text><g transform="translate(300 80)"><rect width="200" height="80" fill="#3498db" stroke="#2980b9" stroke-width="3" rx="10"/><text x="100" y="30" fill="#fff" font-family="Arial, sans-serif" font-size="16" font-weight="bold" text-anchor="middle">
      JURIDISK PERSON
    </text><text x="100" y="50" fill="#fff" font-family="Arial, sans-serif" font-size="14" text-anchor="middle">
      (AS, ASA, Stiftelse, etc.)
    </text></g><g transform="translate(50 200)"><rect width="180" height="120" fill="#27ae60" stroke="#229954" stroke-width="2" rx="8"/><rect width="180" height="30" fill="#229954" rx="8"/><text x="90" y="20" fill="#fff" font-family="Arial, sans-serif" font-size="14" font-weight="bold" text-anchor="middle">
      Separate Regnskaper
    </text><g fill="#fff" transform="translate(10 40)"><circle cx="5" cy="5" r="3"/><text x="15" y="10" font-family="Arial, sans-serif" font-size="11">
        Egen resultatregnskap
      </text></g><g fill="#fff" transform="translate(10 60)"><circle cx="5" cy="5" r="3"/><text x="15" y="10" font-family="Arial, sans-serif" font-size="11">
        Egen balanse
      </text></g><g fill="#fff" transform="translate(10 80)"><circle cx="5" cy="5" r="3"/><text x="15" y="10" font-family="Arial, sans-serif" font-size="11">
        Adskilt fra eiers økonomi
      </text></g><g fill="#fff" transform="translate(10 100)"><circle cx="5" cy="5" r="3"/><text x="15" y="10" font-family="Arial, sans-serif" font-size="11">
        Dokumenterte transaksjoner
      </text></g></g><g transform="translate(280 200)"><rect width="180" height="120" fill="#e67e22" stroke="#d35400" stroke-width="2" rx="8"/><rect width="180" height="30" fill="#d35400" rx="8"/><text x="90" y="20" fill="#fff" font-family="Arial, sans-serif" font-size="14" font-weight="bold" text-anchor="middle">
      Skattemessige Forhold
    </text><g fill="#fff" transform="translate(10 40)"><circle cx="5" cy="5" r="3"/><text x="15" y="10" font-family="Arial, sans-serif" font-size="11">
        22% selskapsskatt
      </text></g><g fill="#fff" transform="translate(10 60)"><circle cx="5" cy="5" r="3"/><text x="15" y="10" font-family="Arial, sans-serif" font-size="11">
        Egen skattesubjekt
      </text></g><g fill="#fff" transform="translate(10 80)"><circle cx="5" cy="5" r="3"/><text x="15" y="10" font-family="Arial, sans-serif" font-size="11">
        MVA-registrering
      </text></g><g fill="#fff" transform="translate(10 100)"><circle cx="5" cy="5" r="3"/><text x="15" y="10" font-family="Arial, sans-serif" font-size="11">
        Utbytteskatt ved utdeling
      </text></g></g><g transform="translate(510 200)"><rect width="180" height="120" fill="#9b59b6" stroke="#8e44ad" stroke-width="2" rx="8"/><rect width="180" height="30" fill="#8e44ad" rx="8"/><text x="90" y="20" fill="#fff" font-family="Arial, sans-serif" font-size="14" font-weight="bold" text-anchor="middle">
      Konsolidering
    </text><g fill="#fff" transform="translate(10 40)"><circle cx="5" cy="5" r="3"/><text x="15" y="10" font-family="Arial, sans-serif" font-size="11">
        Konsernregnskap
      </text></g><g fill="#fff" transform="translate(10 60)"><circle cx="5" cy="5" r="3"/><text x="15" y="10" font-family="Arial, sans-serif" font-size="11">
        Eliminering av interne
      </text></g><g fill="#fff" transform="translate(10 80)"><circle cx="5" cy="5" r="3"/><text x="15" y="10" font-family="Arial, sans-serif" font-size="11">
        Minoritetsinteresser
      </text></g><g fill="#fff" transform="translate(10 100)"><circle cx="5" cy="5" r="3"/><text x="15" y="10" font-family="Arial, sans-serif" font-size="11">
        Morselskap/datterselskap
      </text></g></g><path stroke="#34495e" stroke-width="2" marker-end="url(#a)" d="m350 160-210 40"/><path stroke="#34495e" stroke-width="2" marker-end="url(#a)" d="m400 160-30 40"/><path stroke="#34495e" stroke-width="2" marker-end="url(#a)" d="m450 160 150 40"/><g transform="translate(150 380)"><rect width="500" height="150" fill="#34495e" stroke="#2c3e50" stroke-width="2" rx="10"/><rect width="500" height="35" fill="#2c3e50" rx="10"/><text x="250" y="22" fill="#fff" font-family="Arial, sans-serif" font-size="16" font-weight="bold" text-anchor="middle">
      Registrerings- og Rapporteringskrav
    </text><text fill="#fff" font-family="Arial, sans-serif" font-size="14" font-weight="bold" transform="translate(20 50)">
        Obligatoriske registreringer:
      </text><g transform="translate(20 75)"><circle cx="5" r="3" fill="#3498db"/><text x="15" y="5" fill="#fff" font-family="Arial, sans-serif" font-size="12">
          Enhetsregisteret
        </text></g><g transform="translate(20 95)"><circle cx="5" r="3" fill="#3498db"/><text x="15" y="5" fill="#fff" font-family="Arial, sans-serif" font-size="12">
          Foretaksregisteret
        </text></g><g transform="translate(20 115)"><circle cx="5" r="3" fill="#3498db"/><text x="15" y="5" fill="#fff" font-family="Arial, sans-serif" font-size="12">
          MVA-registeret (ved behov)
        </text></g><g transform="translate(20 135)"><circle cx="5" r="3" fill="#3498db"/><text x="15" y="5" fill="#fff" font-family="Arial, sans-serif" font-size="12">
          Arbeidsgiver-/arbeidstakerregisteret
        </text></g><text fill="#fff" font-family="Arial, sans-serif" font-size="14" font-weight="bold" transform="translate(270 50)">
        Rapporteringskrav:
      </text><g transform="translate(270 75)"><circle cx="5" r="3" fill="#e74c3c"/><text x="15" y="5" fill="#fff" font-family="Arial, sans-serif" font-size="12">
          Årsregnskap til Regnskapsregisteret
        </text></g><g transform="translate(270 95)"><circle cx="5" r="3" fill="#e74c3c"/><text x="15" y="5" fill="#fff" font-family="Arial, sans-serif" font-size="12">
          Selvangivelse til Skatteetaten
        </text></g><g transform="translate(270 115)"><circle cx="5" r="3" fill="#e74c3c"/><text x="15" y="5" fill="#fff" font-family="Arial, sans-serif" font-size="12">
          MVA-oppgaver (ved registrering)
        </text></g><g transform="translate(270 135)"><circle cx="5" r="3" fill="#e74c3c"/><text x="15" y="5" fill="#fff" font-family="Arial, sans-serif" font-size="12">
          A-melding (ved ansatte)
        </text></g></g><text x="400" y="570" fill="#7f8c8d" font-family="Arial, sans-serif" font-size="12" text-anchor="middle">
    Juridiske personer har omfattende regnskapsmessige og administrative forpliktelser
  </text><defs><marker id="a" markerHeight="7" markerWidth="10" orient="auto" refX="9" refY="3.5"><path fill="#34495e" d="m0 0 10 3.5L0 7z"/></marker></defs></svg>