<svg xmlns="http://www.w3.org/2000/svg" width="800" height="600" viewBox="0 0 800 600"><path fill="#f8f9fa" d="M0 0h800v600H0z"/><text x="400" y="40" fill="#2c3e50" font-family="Arial, sans-serif" font-size="26" font-weight="bold" text-anchor="middle">
    Bilagtyper i Regnskapsdokumentasjon
  </text><g transform="translate(50 80)"><rect width="320" height="220" fill="#3498db" stroke="#2980b9" stroke-width="3" rx="10"/><text x="160" y="30" fill="#fff" font-family="Arial, sans-serif" font-size="20" font-weight="bold" text-anchor="middle">
      Innkommende Bilag
    </text><g transform="translate(30 50)"><rect width="60" height="80" fill="#fff" stroke="#2980b9" stroke-width="2" rx="3"/><path stroke="#2980b9" stroke-width="2" d="M10 15h40"/><path stroke="#bdc3c7" d="M10 25h40M10 35h40M10 45h40"/><text x="30" y="65" fill="#2980b9" font-family="Arial, sans-serif" font-size="10" text-anchor="middle">Faktura</text></g><g transform="translate(120 50)"><rect width="60" height="80" fill="#fff" stroke="#2980b9" stroke-width="2" rx="3"/><path fill="#3498db" d="M5 10h50v15H5z"/><path stroke="#bdc3c7" d="M10 35h40M10 45h40M10 55h40"/><text x="30" y="65" fill="#2980b9" font-family="Arial, sans-serif" font-size="10" text-anchor="middle">Bank</text></g><g transform="translate(210 50)"><rect width="60" height="80" fill="#fff" stroke="#2980b9" stroke-width="2" rx="3"/><circle cx="30" cy="20" r="8" fill="#3498db"/><path stroke="#bdc3c7" d="M10 35h40M10 45h40"/><text x="30" y="65" fill="#2980b9" font-family="Arial, sans-serif" font-size="10" text-anchor="middle">Kvittering</text></g><text x="20" y="160" fill="#fff" font-family="Arial, sans-serif" font-size="14">• Leverandørfakturaer</text><text x="20" y="180" fill="#fff" font-family="Arial, sans-serif" font-size="14">• Bankutskrifter</text><text x="20" y="200" fill="#fff" font-family="Arial, sans-serif" font-size="14">• Lønnslipper og personalrelaterte dokumenter</text></g><g transform="translate(430 80)"><rect width="320" height="220" fill="#e67e22" stroke="#d35400" stroke-width="3" rx="10"/><text x="160" y="30" fill="#fff" font-family="Arial, sans-serif" font-size="20" font-weight="bold" text-anchor="middle">
      Utgående Bilag
    </text><g transform="translate(30 50)"><rect width="60" height="80" fill="#fff" stroke="#d35400" stroke-width="2" rx="3"/><path stroke="#e67e22" stroke-width="2" d="M10 15h40"/><path stroke="#bdc3c7" d="M10 25h40M10 35h40"/><circle cx="45" cy="45" r="5" fill="#27ae60"/><text x="30" y="65" fill="#d35400" font-family="Arial, sans-serif" font-size="10" text-anchor="middle">Salg</text></g><g transform="translate(120 50)"><rect width="60" height="80" fill="#fff" stroke="#d35400" stroke-width="2" rx="3"/><rect width="40" height="25" x="10" y="15" fill="#e67e22" rx="3"/><text x="30" y="30" fill="#fff" font-family="Arial, sans-serif" font-size="8" text-anchor="middle">PAY</text><path stroke="#bdc3c7" d="M10 50h40"/><text x="30" y="65" fill="#d35400" font-family="Arial, sans-serif" font-size="10" text-anchor="middle">Betaling</text></g><g transform="translate(210 50)"><rect width="60" height="80" fill="#fff" stroke="#d35400" stroke-width="2" rx="3"/><path stroke="#e74c3c" stroke-width="2" d="M10 15h40"/><path stroke="#bdc3c7" d="M10 25h40"/><text x="30" y="40" fill="#e74c3c" font-family="Arial, sans-serif" font-size="12" text-anchor="middle">-</text><text x="30" y="65" fill="#d35400" font-family="Arial, sans-serif" font-size="10" text-anchor="middle">Kredit</text></g><text x="20" y="160" fill="#fff" font-family="Arial, sans-serif" font-size="14">• Salgsfakturaer til kunder</text><text x="20" y="180" fill="#fff" font-family="Arial, sans-serif" font-size="14">• Lønnsutbetalinger</text><text x="20" y="200" fill="#fff" font-family="Arial, sans-serif" font-size="14">• Skatteinnbetalinger og avgiftsoppgjør</text></g><g transform="translate(50 340)"><rect width="320" height="220" fill="#9b59b6" stroke="#8e44ad" stroke-width="3" rx="10"/><text x="160" y="30" fill="#fff" font-family="Arial, sans-serif" font-size="20" font-weight="bold" text-anchor="middle">
      Interne Bilag
    </text><g transform="translate(30 50)"><rect width="60" height="80" fill="#fff" stroke="#8e44ad" stroke-width="2" rx="3"/><text x="30" y="25" fill="#9b59b6" font-family="Arial, sans-serif" font-size="16" text-anchor="middle">∑</text><path stroke="#bdc3c7" d="M10 35h40M10 45h40"/><text x="30" y="65" fill="#8e44ad" font-family="Arial, sans-serif" font-size="10" text-anchor="middle">Beregning</text></g><g transform="translate(120 50)"><rect width="60" height="80" fill="#fff" stroke="#8e44ad" stroke-width="2" rx="3"/><path fill="none" stroke="#9b59b6" stroke-width="2" d="m10 50 10-10 10 5 10-15 10 5"/><circle cx="20" cy="40" r="2" fill="#9b59b6"/><circle cx="40" cy="30" r="2" fill="#9b59b6"/><text x="30" y="65" fill="#8e44ad" font-family="Arial, sans-serif" font-size="10" text-anchor="middle">Analyse</text></g><g transform="translate(210 50)"><rect width="60" height="80" fill="#fff" stroke="#8e44ad" stroke-width="2" rx="3"/><path stroke="#9b59b6" d="M10 20h40"/><path stroke="#bdc3c7" d="M10 30h40M10 40h30"/><text x="30" y="65" fill="#8e44ad" font-family="Arial, sans-serif" font-size="10" text-anchor="middle">Notat</text></g><text x="20" y="160" fill="#fff" font-family="Arial, sans-serif" font-size="14">• Avskrivningsberegninger</text><text x="20" y="180" fill="#fff" font-family="Arial, sans-serif" font-size="14">• Periodiseringer og avsetninger</text><text x="20" y="200" fill="#fff" font-family="Arial, sans-serif" font-size="14">• Interne notater og forklaringer</text></g><g transform="translate(430 340)"><rect width="320" height="220" fill="#27ae60" stroke="#229954" stroke-width="3" rx="10"/><text x="160" y="30" fill="#fff" font-family="Arial, sans-serif" font-size="20" font-weight="bold" text-anchor="middle">
      Støttedokumentasjon
    </text><g transform="translate(30 50)"><rect width="60" height="80" fill="#fff" stroke="#229954" stroke-width="2" rx="3"/><path stroke="#27ae60" stroke-width="2" d="M10 15h40"/><path stroke="#bdc3c7" d="M10 25h40M10 35h40"/><circle cx="15" cy="55" r="3" fill="#27ae60"/><circle cx="45" cy="55" r="3" fill="#27ae60"/><text x="30" y="65" fill="#229954" font-family="Arial, sans-serif" font-size="10" text-anchor="middle">Kontrakt</text></g><g transform="translate(120 50)"><rect width="60" height="80" fill="#fff" stroke="#229954" stroke-width="2" rx="3"/><path fill="#27ae60" d="M10 15h40v8H10zM10 28h40v8H10zM10 41h40v8H10z"/><text x="30" y="65" fill="#229954" font-family="Arial, sans-serif" font-size="10" text-anchor="middle">Arkiv</text></g><g transform="translate(210 50)"><rect width="60" height="80" fill="#fff" stroke="#229954" stroke-width="2" rx="3"/><circle cx="30" cy="30" r="12" fill="none" stroke="#27ae60" stroke-width="2"/><path fill="none" stroke="#27ae60" stroke-width="2" d="m25 30 3 3 7-7"/><text x="30" y="65" fill="#229954" font-family="Arial, sans-serif" font-size="10" text-anchor="middle">Revisjon</text></g><text x="20" y="160" fill="#fff" font-family="Arial, sans-serif" font-size="14">• Kontrakter og avtaler</text><text x="20" y="180" fill="#fff" font-family="Arial, sans-serif" font-size="14">• Revisjonsnotater</text><text x="20" y="200" fill="#fff" font-family="Arial, sans-serif" font-size="14">• Kontrollrapporter og avstemminger</text></g></svg>