<svg xmlns="http://www.w3.org/2000/svg" width="800" height="250"><path fill="#f8f9fa" stroke="#e9ecef" stroke-width="2" d="M0 0h800v250H0z"/><text x="400" y="30" fill="#1a1a1a" font-size="24" font-weight="bold" text-anchor="middle">
    B2B - Business-to-Business i Norsk Regnskap
  </text><rect width="120" height="120" x="50" y="70" fill="#e3f2fd" stroke="#2196f3" stroke-width="2" rx="10"/><text x="110" y="95" fill="#1976d2" font-size="14" font-weight="bold" text-anchor="middle">BEDRIFT A</text><text x="110" y="115" fill="#424242" font-size="12" text-anchor="middle">(Selger)</text><text x="110" y="135" fill="#666" font-size="10" text-anchor="middle">• Fakturerer MVA</text><text x="110" y="150" fill="#666" font-size="10" text-anchor="middle">• Setter kredittgrenser</text><text x="110" y="165" fill="#666" font-size="10" text-anchor="middle">• Følger opp betaling</text><rect width="120" height="120" x="630" y="70" fill="#e8f5e8" stroke="#4caf50" stroke-width="2" rx="10"/><text x="690" y="95" fill="#2e7d32" font-size="14" font-weight="bold" text-anchor="middle">BEDRIFT B</text><text x="690" y="115" fill="#424242" font-size="12" text-anchor="middle">(Kjøper)</text><text x="690" y="135" fill="#666" font-size="10" text-anchor="middle">• Mottar fakturaer</text><text x="690" y="150" fill="#666" font-size="10" text-anchor="middle">• Betaler innen avtalt tid</text><text x="690" y="165" fill="#666" font-size="10" text-anchor="middle">• Registrerer innkjøp</text><path fill="none" stroke="#ff9800" stroke-width="3" marker-end="url(#a)" d="M180 110q220-20 440 0"/><text x="400" y="85" fill="#ff9800" font-size="12" font-weight="bold" text-anchor="middle">FAKTURAER &amp; VARER</text><path fill="none" stroke="#4caf50" stroke-width="3" marker-end="url(#b)" d="M620 150q-220 20-440 0"/><text x="400" y="185" fill="#4caf50" font-size="12" font-weight="bold" text-anchor="middle">BETALINGER</text><rect width="400" height="30" x="200" y="210" fill="#fff3e0" stroke="#ff9800" rx="5"/><text x="400" y="230" fill="#e65100" font-size="11" font-weight="bold" text-anchor="middle">
    Netto 30-90 dager • Høye ordreverdier • MVA-registrering • Internkontroll
  </text><defs><marker id="a" markerHeight="7" markerWidth="10" orient="auto" refX="9" refY="3.5"><path fill="#ff9800" d="m0 0 10 3.5L0 7z"/></marker><marker id="b" markerHeight="7" markerWidth="10" orient="auto" refX="9" refY="3.5"><path fill="#4caf50" d="m0 0 10 3.5L0 7z"/></marker></defs></svg>