<svg xmlns="http://www.w3.org/2000/svg" width="800" height="350"><path fill="#f8f9fa" stroke="#e9ecef" stroke-width="2" d="M0 0h800v350H0z"/><text x="400" y="25" fill="#1a1a1a" font-size="20" font-weight="bold" text-anchor="middle">
    MVA-behandling i B2B-transaksjoner
  </text><rect width="170" height="120" x="50" y="50" fill="#e3f2fd" stroke="#2196f3" stroke-width="2" rx="5"/><text x="135" y="70" fill="#1976d2" font-size="14" font-weight="bold" text-anchor="middle">INNENLANDS B2B</text><text x="135" y="90" fill="#424242" font-size="12" text-anchor="middle">Ordinær MVA (25%)</text><text x="135" y="110" fill="#666" font-size="10" text-anchor="middle">Selger:</text><text x="135" y="125" fill="#666" font-size="10" text-anchor="middle">• Fakturerer MVA</text><text x="135" y="140" fill="#666" font-size="10" text-anchor="middle">• Konto 2700</text><text x="135" y="160" fill="#666" font-size="10" text-anchor="middle">Kjøper:</text><text x="135" y="175" fill="#666" font-size="10" text-anchor="middle">• Fradrag konto 2710</text><rect width="170" height="120" x="240" y="50" fill="#fff3e0" stroke="#ff9800" stroke-width="2" rx="5"/><text x="325" y="70" fill="#e65100" font-size="14" font-weight="bold" text-anchor="middle">EU B2B</text><text x="325" y="90" fill="#424242" font-size="12" text-anchor="middle">Omvendt avgiftsplikt</text><text x="325" y="110" fill="#666" font-size="10" text-anchor="middle">Selger:</text><text x="325" y="125" fill="#666" font-size="10" text-anchor="middle">• Ingen MVA på faktura</text><text x="325" y="140" fill="#666" font-size="10" text-anchor="middle">• Eksport nullsats</text><text x="325" y="160" fill="#666" font-size="10" text-anchor="middle">Kjøper:</text><text x="325" y="175" fill="#666" font-size="10" text-anchor="middle">• Beregner egen MVA</text><rect width="170" height="120" x="430" y="50" fill="#e8f5e8" stroke="#4caf50" stroke-width="2" rx="5"/><text x="515" y="70" fill="#2e7d32" font-size="14" font-weight="bold" text-anchor="middle">TREDJELAND B2B</text><text x="515" y="90" fill="#424242" font-size="12" text-anchor="middle">Eksport 0% MVA</text><text x="515" y="110" fill="#666" font-size="10" text-anchor="middle">Selger:</text><text x="515" y="125" fill="#666" font-size="10" text-anchor="middle">• Nullsats eksport</text><text x="515" y="140" fill="#666" font-size="10" text-anchor="middle">• Eksportdokument</text><text x="515" y="160" fill="#666" font-size="10" text-anchor="middle">Kjøper:</text><text x="515" y="175" fill="#666" font-size="10" text-anchor="middle">• Ingen norsk MVA</text><rect width="170" height="120" x="620" y="50" fill="#fce4ec" stroke="#e91e63" stroke-width="2" rx="5"/><text x="705" y="70" fill="#c2185b" font-size="14" font-weight="bold" text-anchor="middle">TJENESTER TIL EU</text><text x="705" y="90" fill="#424242" font-size="12" text-anchor="middle">Kjøpers land</text><text x="705" y="110" fill="#666" font-size="10" text-anchor="middle">Selger:</text><text x="705" y="125" fill="#666" font-size="10" text-anchor="middle">• Ingen MVA</text><text x="705" y="140" fill="#666" font-size="10" text-anchor="middle">• EU-validering</text><text x="705" y="160" fill="#666" font-size="10" text-anchor="middle">Kjøper:</text><text x="705" y="175" fill="#666" font-size="10" text-anchor="middle">• Egen lands MVA</text><path fill="#f5f5f5" stroke="#bdbdbd" d="M50 190h700v25H50z"/><text x="400" y="207" fill="#424242" font-size="14" font-weight="bold" text-anchor="middle">
    MVA-meldingsbehandling
  </text><path fill="#fff" stroke="#ddd" d="M50 230h340v90H50z"/><text x="220" y="245" fill="#333" font-size="12" font-weight="bold" text-anchor="middle">Innenlands B2B</text><text x="70" y="265" fill="#666" font-size="10">Salg NOK 10.000 + 25% MVA = NOK 12.500</text><text x="70" y="280" fill="#666" font-size="10">Debet: Kundefordring 12.500</text><text x="70" y="295" fill="#666" font-size="10">Kredit: Salgsinntekt 10.000</text><text x="70" y="310" fill="#666" font-size="10">Kredit: Utgående MVA 2.500</text><path fill="#fff" stroke="#ddd" d="M410 230h340v90H410z"/><text x="580" y="245" fill="#333" font-size="12" font-weight="bold" text-anchor="middle">EU B2B (Omvendt avgiftsplikt)</text><text x="430" y="265" fill="#666" font-size="10">Salg NOK 10.000 (uten MVA)</text><text x="430" y="280" fill="#666" font-size="10">Debet: Kundefordring 10.000</text><text x="430" y="295" fill="#666" font-size="10">Kredit: Salgsinntekt 10.000</text><text x="430" y="310" fill="#666" font-size="10">Rapporteres med kode i MVA-melding</text></svg>