<svg xmlns="http://www.w3.org/2000/svg" width="800" height="500"><defs><linearGradient id="a" x1="0%" x2="100%" y1="0%" y2="100%"><stop offset="0%" style="stop-color:#6c757d;stop-opacity:1"/><stop offset="100%" style="stop-color:#495057;stop-opacity:1"/></linearGradient><linearGradient id="b" x1="0%" x2="100%" y1="0%" y2="100%"><stop offset="0%" style="stop-color:#28a745;stop-opacity:1"/><stop offset="100%" style="stop-color:#20c997;stop-opacity:1"/></linearGradient><linearGradient id="d" x1="0%" x2="100%" y1="0%" y2="100%"><stop offset="0%" style="stop-color:#007bff;stop-opacity:1"/><stop offset="100%" style="stop-color:#6f42c1;stop-opacity:1"/></linearGradient></defs><path fill="#f8f9fa" d="M0 0h800v500H0z"/><text x="400" y="40" fill="#212529" font-family="Arial, sans-serif" font-size="24" font-weight="bold" text-anchor="middle">
    ESG Integrasjon i Regnskap
  </text><rect width="200" height="300" x="50" y="80" fill="url(#a)" stroke="url(#a)" stroke-width="2" opacity=".1" rx="10"/><rect width="200" height="40" x="50" y="80" fill="url(#a)" rx="10"/><text x="150" y="105" fill="#fff" font-family="Arial, sans-serif" font-size="16" font-weight="bold" text-anchor="middle">
    Tradisjonelt Regnskap
  </text><text x="70" y="140" fill="#212529" font-family="Arial, sans-serif" font-size="12">• Finansiell prestasjon</text><text x="70" y="160" fill="#212529" font-family="Arial, sans-serif" font-size="12">• Kortsiktig fokus</text><text x="70" y="180" fill="#212529" font-family="Arial, sans-serif" font-size="12">• Monetære måleenheter</text><text x="70" y="200" fill="#212529" font-family="Arial, sans-serif" font-size="12">• IFRS/GAAP</text><text x="70" y="220" fill="#212529" font-family="Arial, sans-serif" font-size="12">• Investorfokus</text><text x="70" y="240" fill="#212529" font-family="Arial, sans-serif" font-size="12">• Historiske data</text><text x="70" y="260" fill="#212529" font-family="Arial, sans-serif" font-size="12">• Kvartalsrapporter</text><text x="70" y="280" fill="#212529" font-family="Arial, sans-serif" font-size="12">• Compliance-drevet</text><rect width="200" height="300" x="300" y="80" fill="url(#b)" stroke="url(#b)" stroke-width="2" opacity=".1" rx="10"/><rect width="200" height="40" x="300" y="80" fill="url(#b)" rx="10"/><text x="400" y="105" fill="#fff" font-family="Arial, sans-serif" font-size="16" font-weight="bold" text-anchor="middle">
    ESG Rapportering
  </text><text x="320" y="140" fill="#212529" font-family="Arial, sans-serif" font-size="12">• Bærekraftsprestasjon</text><text x="320" y="160" fill="#212529" font-family="Arial, sans-serif" font-size="12">• Langsiktig perspektiv</text><text x="320" y="180" fill="#212529" font-family="Arial, sans-serif" font-size="12">• Ikke-monetære KPI-er</text><text x="320" y="200" fill="#212529" font-family="Arial, sans-serif" font-size="12">• GRI/SASB/TCFD</text><text x="320" y="220" fill="#212529" font-family="Arial, sans-serif" font-size="12">• Alle interessenter</text><text x="320" y="240" fill="#212529" font-family="Arial, sans-serif" font-size="12">• Fremtidsrettede data</text><text x="320" y="260" fill="#212529" font-family="Arial, sans-serif" font-size="12">• Årlige rapporter</text><text x="320" y="280" fill="#212529" font-family="Arial, sans-serif" font-size="12">• Verdidrevet</text><path fill="none" stroke="#fd7e14" stroke-width="3" marker-end="url(#c)" d="M260 230q40-30 80 0"/><path fill="none" stroke="#fd7e14" stroke-width="3" d="M340 230q-40 30-80 0"/><defs><marker id="c" markerHeight="7" markerWidth="10" orient="auto" refX="9" refY="3.5"><path fill="#fd7e14" d="m0 0 10 3.5L0 7z"/></marker></defs><rect width="200" height="300" x="550" y="80" fill="url(#d)" stroke="url(#d)" stroke-width="2" opacity=".1" rx="10"/><rect width="200" height="40" x="550" y="80" fill="url(#d)" rx="10"/><text x="650" y="105" fill="#fff" font-family="Arial, sans-serif" font-size="16" font-weight="bold" text-anchor="middle">
    Integrert Rapportering
  </text><text x="570" y="140" fill="#212529" font-family="Arial, sans-serif" font-size="12">• Helhetlig verdiskaping</text><text x="570" y="160" fill="#212529" font-family="Arial, sans-serif" font-size="12">• Balansert tidshorisont</text><text x="570" y="180" fill="#212529" font-family="Arial, sans-serif" font-size="12">• Blandet målesystem</text><text x="570" y="200" fill="#212529" font-family="Arial, sans-serif" font-size="12">• Harmoniserte standarder</text><text x="570" y="220" fill="#212529" font-family="Arial, sans-serif" font-size="12">• Bred interessentgruppe</text><text x="570" y="240" fill="#212529" font-family="Arial, sans-serif" font-size="12">• Prediktive analyser</text><text x="570" y="260" fill="#212529" font-family="Arial, sans-serif" font-size="12">• Kontinuerlig rapportering</text><text x="570" y="280" fill="#212529" font-family="Arial, sans-serif" font-size="12">• Strategidrevet</text><path fill="none" stroke="#fd7e14" stroke-width="3" marker-end="url(#c)" d="M510 230q20-30 40 0"/><text x="400" y="420" fill="#495057" font-family="Arial, sans-serif" font-size="14" font-weight="bold" text-anchor="middle">
    Integrasjonsprosess
  </text><circle cx="150" cy="450" r="20" fill="#28a745"/><text x="150" y="455" fill="#fff" font-family="Arial, sans-serif" font-size="12" font-weight="bold" text-anchor="middle">1</text><text x="150" y="475" fill="#212529" font-family="Arial, sans-serif" font-size="10" text-anchor="middle">Kartlegging</text><circle cx="300" cy="450" r="20" fill="#007bff"/><text x="300" y="455" fill="#fff" font-family="Arial, sans-serif" font-size="12" font-weight="bold" text-anchor="middle">2</text><text x="300" y="475" fill="#212529" font-family="Arial, sans-serif" font-size="10" text-anchor="middle">Harmonisering</text><circle cx="450" cy="450" r="20" fill="#6f42c1"/><text x="450" y="455" fill="#fff" font-family="Arial, sans-serif" font-size="12" font-weight="bold" text-anchor="middle">3</text><text x="450" y="475" fill="#212529" font-family="Arial, sans-serif" font-size="10" text-anchor="middle">Implementering</text><circle cx="600" cy="450" r="20" fill="#fd7e14"/><text x="600" y="455" fill="#fff" font-family="Arial, sans-serif" font-size="12" font-weight="bold" text-anchor="middle">4</text><text x="600" y="475" fill="#212529" font-family="Arial, sans-serif" font-size="10" text-anchor="middle">Rapportering</text><path stroke="#dee2e6" stroke-width="2" marker-end="url(#e)" d="M170 450h110"/><path stroke="#dee2e6" stroke-width="2" marker-end="url(#e)" d="M320 450h110"/><path stroke="#dee2e6" stroke-width="2" marker-end="url(#e)" d="M470 450h110"/><defs><marker id="e" markerHeight="6" markerWidth="8" orient="auto" refX="7" refY="3"><path fill="#dee2e6" d="m0 0 8 3-8 3z"/></marker></defs></svg>