<svg xmlns="http://www.w3.org/2000/svg" width="900" height="600"><defs><linearGradient id="a" x1="0%" x2="100%" y1="0%" y2="100%"><stop offset="0%" style="stop-color:#28a745;stop-opacity:1"/><stop offset="100%" style="stop-color:#20c997;stop-opacity:1"/></linearGradient><linearGradient id="b" x1="0%" x2="100%" y1="0%" y2="100%"><stop offset="0%" style="stop-color:#007bff;stop-opacity:1"/><stop offset="100%" style="stop-color:#6f42c1;stop-opacity:1"/></linearGradient><linearGradient id="c" x1="0%" x2="100%" y1="0%" y2="100%"><stop offset="0%" style="stop-color:#fd7e14;stop-opacity:1"/><stop offset="100%" style="stop-color:#dc3545;stop-opacity:1"/></linearGradient></defs><path fill="#f8f9fa" d="M0 0h900v600H0z"/><text x="450" y="40" fill="#212529" font-family="Arial, sans-serif" font-size="28" font-weight="bold" text-anchor="middle">
    ESG Hovedkomponenter
  </text><rect width="250" height="480" x="50" y="80" fill="url(#a)" opacity=".1" rx="15"/><rect width="250" height="60" x="50" y="80" fill="url(#a)" rx="15"/><text x="175" y="105" fill="#fff" font-family="Arial, sans-serif" font-size="20" font-weight="bold" text-anchor="middle">
    Environmental
  </text><text x="175" y="125" fill="#fff" font-family="Arial, sans-serif" font-size="14" text-anchor="middle">
    Miljø
  </text><circle cx="80" cy="180" r="5" fill="#28a745"/><text x="100" y="185" fill="#212529" font-family="Arial, sans-serif" font-size="12">Klimaendringer</text><circle cx="80" cy="210" r="5" fill="#28a745"/><text x="100" y="215" fill="#212529" font-family="Arial, sans-serif" font-size="12">Karbonutslipp</text><circle cx="80" cy="240" r="5" fill="#28a745"/><text x="100" y="245" fill="#212529" font-family="Arial, sans-serif" font-size="12">Energiforbruk</text><circle cx="80" cy="270" r="5" fill="#28a745"/><text x="100" y="275" fill="#212529" font-family="Arial, sans-serif" font-size="12">Vannforvaltning</text><circle cx="80" cy="300" r="5" fill="#28a745"/><text x="100" y="305" fill="#212529" font-family="Arial, sans-serif" font-size="12">Avfallshåndtering</text><circle cx="80" cy="330" r="5" fill="#28a745"/><text x="100" y="335" fill="#212529" font-family="Arial, sans-serif" font-size="12">Biologisk mangfold</text><circle cx="80" cy="360" r="5" fill="#28a745"/><text x="100" y="365" fill="#212529" font-family="Arial, sans-serif" font-size="12">Fornybar energi</text><circle cx="80" cy="390" r="5" fill="#28a745"/><text x="100" y="395" fill="#212529" font-family="Arial, sans-serif" font-size="12">Sirkulær økonomi</text><rect width="250" height="480" x="325" y="80" fill="url(#b)" opacity=".1" rx="15"/><rect width="250" height="60" x="325" y="80" fill="url(#b)" rx="15"/><text x="450" y="105" fill="#fff" font-family="Arial, sans-serif" font-size="20" font-weight="bold" text-anchor="middle">
    Social
  </text><text x="450" y="125" fill="#fff" font-family="Arial, sans-serif" font-size="14" text-anchor="middle">
    Sosial
  </text><circle cx="355" cy="180" r="5" fill="#007bff"/><text x="375" y="185" fill="#212529" font-family="Arial, sans-serif" font-size="12">Arbeidsforhold</text><circle cx="355" cy="210" r="5" fill="#007bff"/><text x="375" y="215" fill="#212529" font-family="Arial, sans-serif" font-size="12">Helse &amp; sikkerhet</text><circle cx="355" cy="240" r="5" fill="#007bff"/><text x="375" y="245" fill="#212529" font-family="Arial, sans-serif" font-size="12">Mangfold &amp; inkludering</text><circle cx="355" cy="270" r="5" fill="#007bff"/><text x="375" y="275" fill="#212529" font-family="Arial, sans-serif" font-size="12">Samfunnsengasjement</text><circle cx="355" cy="300" r="5" fill="#007bff"/><text x="375" y="305" fill="#212529" font-family="Arial, sans-serif" font-size="12">Produktsikkerhet</text><circle cx="355" cy="330" r="5" fill="#007bff"/><text x="375" y="335" fill="#212529" font-family="Arial, sans-serif" font-size="12">Leverandørkjede</text><circle cx="355" cy="360" r="5" fill="#007bff"/><text x="375" y="365" fill="#212529" font-family="Arial, sans-serif" font-size="12">Menneskerettigheter</text><circle cx="355" cy="390" r="5" fill="#007bff"/><text x="375" y="395" fill="#212529" font-family="Arial, sans-serif" font-size="12">Kompetanseutvikling</text><rect width="250" height="480" x="600" y="80" fill="url(#c)" opacity=".1" rx="15"/><rect width="250" height="60" x="600" y="80" fill="url(#c)" rx="15"/><text x="725" y="105" fill="#fff" font-family="Arial, sans-serif" font-size="20" font-weight="bold" text-anchor="middle">
    Governance
  </text><text x="725" y="125" fill="#fff" font-family="Arial, sans-serif" font-size="14" text-anchor="middle">
    Styring
  </text><circle cx="630" cy="180" r="5" fill="#fd7e14"/><text x="650" y="185" fill="#212529" font-family="Arial, sans-serif" font-size="12">Styresammensetning</text><circle cx="630" cy="210" r="5" fill="#fd7e14"/><text x="650" y="215" fill="#212529" font-family="Arial, sans-serif" font-size="12">Etikk &amp; compliance</text><circle cx="630" cy="240" r="5" fill="#fd7e14"/><text x="650" y="245" fill="#212529" font-family="Arial, sans-serif" font-size="12">Risikostyring</text><circle cx="630" cy="270" r="5" fill="#fd7e14"/><text x="650" y="275" fill="#212529" font-family="Arial, sans-serif" font-size="12">Transparens</text><circle cx="630" cy="300" r="5" fill="#fd7e14"/><text x="650" y="305" fill="#212529" font-family="Arial, sans-serif" font-size="12">Interessenthåndtering</text><circle cx="630" cy="330" r="5" fill="#fd7e14"/><text x="650" y="335" fill="#212529" font-family="Arial, sans-serif" font-size="12">Korrupsjonsbekjempelse</text><circle cx="630" cy="360" r="5" fill="#fd7e14"/><text x="650" y="365" fill="#212529" font-family="Arial, sans-serif" font-size="12">Cybersikkerhet</text><circle cx="630" cy="390" r="5" fill="#fd7e14"/><text x="650" y="395" fill="#212529" font-family="Arial, sans-serif" font-size="12">Rapporteringskvalitet</text></svg>