<svg xmlns="http://www.w3.org/2000/svg" width="800" height="700"><defs><linearGradient id="a" x1="0%" x2="100%" y1="0%" y2="100%"><stop offset="0%" style="stop-color:#007bff;stop-opacity:1"/><stop offset="100%" style="stop-color:#0056b3;stop-opacity:1"/></linearGradient><linearGradient id="b" x1="0%" x2="100%" y1="0%" y2="100%"><stop offset="0%" style="stop-color:#28a745;stop-opacity:1"/><stop offset="100%" style="stop-color:#1e7e34;stop-opacity:1"/></linearGradient><linearGradient id="d" x1="0%" x2="100%" y1="0%" y2="100%"><stop offset="0%" style="stop-color:#fd7e14;stop-opacity:1"/><stop offset="100%" style="stop-color:#e55a00;stop-opacity:1"/></linearGradient><linearGradient id="e" x1="0%" x2="100%" y1="0%" y2="100%"><stop offset="0%" style="stop-color:#6f42c1;stop-opacity:1"/><stop offset="100%" style="stop-color:#5a2d91;stop-opacity:1"/></linearGradient><linearGradient id="f" x1="0%" x2="100%" y1="0%" y2="100%"><stop offset="0%" style="stop-color:#dc3545;stop-opacity:1"/><stop offset="100%" style="stop-color:#c82333;stop-opacity:1"/></linearGradient></defs><path fill="#f8f9fa" d="M0 0h800v700H0z"/><text x="400" y="40" fill="#212529" font-family="Arial, sans-serif" font-size="28" font-weight="bold" text-anchor="middle">
    ESG Implementeringsprosess
  </text><rect width="300" height="100" x="50" y="80" fill="url(#a)" stroke="url(#a)" stroke-width="2" opacity=".1" rx="15"/><circle cx="100" cy="130" r="25" fill="url(#a)"/><text x="100" y="138" fill="#fff" font-family="Arial, sans-serif" font-size="18" font-weight="bold" text-anchor="middle">1</text><text x="140" y="115" fill="#007bff" font-family="Arial, sans-serif" font-size="16" font-weight="bold">ESG-Strategi &amp; Governance</text><text x="140" y="135" fill="#212529" font-family="Arial, sans-serif" font-size="12">• Etabler ESG-komité</text><text x="140" y="150" fill="#212529" font-family="Arial, sans-serif" font-size="12">• Utnevn ESG-ansvarlig</text><text x="140" y="165" fill="#212529" font-family="Arial, sans-serif" font-size="12">• Definer ESG-policy</text><rect width="300" height="100" x="450" y="80" fill="url(#b)" stroke="url(#b)" stroke-width="2" opacity=".1" rx="15"/><circle cx="500" cy="130" r="25" fill="url(#b)"/><text x="500" y="138" fill="#fff" font-family="Arial, sans-serif" font-size="18" font-weight="bold" text-anchor="middle">2</text><text x="540" y="115" fill="#28a745" font-family="Arial, sans-serif" font-size="16" font-weight="bold">Vesentlighetsanalyse</text><text x="540" y="135" fill="#212529" font-family="Arial, sans-serif" font-size="12">• Identifiser ESG-temaer</text><text x="540" y="150" fill="#212529" font-family="Arial, sans-serif" font-size="12">• Vurder påvirkning</text><text x="540" y="165" fill="#212529" font-family="Arial, sans-serif" font-size="12">• Prioriter fokusområder</text><path stroke="#6c757d" stroke-width="2" marker-end="url(#c)" d="M360 130h80"/><rect width="300" height="100" x="50" y="220" fill="url(#d)" stroke="url(#d)" stroke-width="2" opacity=".1" rx="15"/><circle cx="100" cy="270" r="25" fill="url(#d)"/><text x="100" y="278" fill="#fff" font-family="Arial, sans-serif" font-size="18" font-weight="bold" text-anchor="middle">3</text><text x="140" y="255" fill="#fd7e14" font-family="Arial, sans-serif" font-size="16" font-weight="bold">Datasystemer &amp; Prosesser</text><text x="140" y="275" fill="#212529" font-family="Arial, sans-serif" font-size="12">• Etabler datainnsamling</text><text x="140" y="290" fill="#212529" font-family="Arial, sans-serif" font-size="12">• Implementer kontroller</text><text x="140" y="305" fill="#212529" font-family="Arial, sans-serif" font-size="12">• Automatiser prosesser</text><rect width="300" height="100" x="450" y="220" fill="url(#e)" stroke="url(#e)" stroke-width="2" opacity=".1" rx="15"/><circle cx="500" cy="270" r="25" fill="url(#e)"/><text x="500" y="278" fill="#fff" font-family="Arial, sans-serif" font-size="18" font-weight="bold" text-anchor="middle">4</text><text x="540" y="255" fill="#6f42c1" font-family="Arial, sans-serif" font-size="16" font-weight="bold">Måling &amp; KPI-er</text><text x="540" y="275" fill="#212529" font-family="Arial, sans-serif" font-size="12">• Definer nøkkelindikatorer</text><text x="540" y="290" fill="#212529" font-family="Arial, sans-serif" font-size="12">• Etabler målsettinger</text><text x="540" y="305" fill="#212529" font-family="Arial, sans-serif" font-size="12">• Overvåk fremgang</text><path stroke="#6c757d" stroke-width="2" marker-end="url(#c)" d="M500 190v20"/><path stroke="#6c757d" stroke-width="2" marker-end="url(#c)" d="M360 270h80"/><rect width="300" height="100" x="250" y="360" fill="url(#f)" stroke="url(#f)" stroke-width="2" opacity=".1" rx="15"/><circle cx="300" cy="410" r="25" fill="url(#f)"/><text x="300" y="418" fill="#fff" font-family="Arial, sans-serif" font-size="18" font-weight="bold" text-anchor="middle">5</text><text x="340" y="395" fill="#dc3545" font-family="Arial, sans-serif" font-size="16" font-weight="bold">Rapportering &amp; Kommunikasjon</text><text x="340" y="415" fill="#212529" font-family="Arial, sans-serif" font-size="12">• Utarbeid ESG-rapport</text><text x="340" y="430" fill="#212529" font-family="Arial, sans-serif" font-size="12">• Ekstern verifikasjon</text><text x="340" y="445" fill="#212529" font-family="Arial, sans-serif" font-size="12">• Interessentkommunikasjon</text><path stroke="#6c757d" stroke-width="2" marker-end="url(#c)" d="m200 330 80 20"/><path stroke="#6c757d" stroke-width="2" marker-end="url(#c)" d="m520 330-80 20"/><text x="400" y="520" fill="#212529" font-family="Arial, sans-serif" font-size="20" font-weight="bold" text-anchor="middle">
    Implementeringstidslinje
  </text><rect width="600" height="40" x="100" y="540" fill="#e9ecef" stroke="#dee2e6" rx="20"/><rect width="120" height="40" x="100" y="540" fill="#007bff" opacity=".8" rx="20"/><text x="160" y="565" fill="#fff" font-family="Arial, sans-serif" font-size="12" font-weight="bold" text-anchor="middle">Måned 1-3</text><rect width="120" height="40" x="220" y="540" fill="#28a745" opacity=".8" rx="20"/><text x="280" y="565" fill="#fff" font-family="Arial, sans-serif" font-size="12" font-weight="bold" text-anchor="middle">Måned 4-6</text><rect width="120" height="40" x="340" y="540" fill="#fd7e14" opacity=".8" rx="20"/><text x="400" y="565" fill="#fff" font-family="Arial, sans-serif" font-size="12" font-weight="bold" text-anchor="middle">Måned 7-9</text><rect width="120" height="40" x="460" y="540" fill="#6f42c1" opacity=".8" rx="20"/><text x="520" y="565" fill="#fff" font-family="Arial, sans-serif" font-size="12" font-weight="bold" text-anchor="middle">Måned 10-12</text><rect width="120" height="40" x="580" y="540" fill="#dc3545" opacity=".8" rx="20"/><text x="640" y="565" fill="#fff" font-family="Arial, sans-serif" font-size="12" font-weight="bold" text-anchor="middle">Løpende</text><text x="400" y="620" fill="#212529" font-family="Arial, sans-serif" font-size="18" font-weight="bold" text-anchor="middle">
    Kritiske Suksessfaktorer
  </text><rect width="140" height="40" x="50" y="640" fill="#e3f2fd" stroke="#1976d2" rx="5"/><text x="120" y="665" fill="#1976d2" font-family="Arial, sans-serif" font-size="11" font-weight="bold" text-anchor="middle">Lederforankring</text><rect width="140" height="40" x="210" y="640" fill="#e8f5e8" stroke="#2e7d32" rx="5"/><text x="280" y="665" fill="#2e7d32" font-family="Arial, sans-serif" font-size="11" font-weight="bold" text-anchor="middle">Tverrfaglig team</text><rect width="140" height="40" x="370" y="640" fill="#fff3e0" stroke="#f57c00" rx="5"/><text x="440" y="665" fill="#f57c00" font-family="Arial, sans-serif" font-size="11" font-weight="bold" text-anchor="middle">Datakvalitet</text><rect width="140" height="40" x="530" y="640" fill="#f3e5f5" stroke="#7b1fa2" rx="5"/><text x="600" y="665" fill="#7b1fa2" font-family="Arial, sans-serif" font-size="11" font-weight="bold" text-anchor="middle">Kontinuerlig forbedring</text><defs><marker id="c" markerHeight="7" markerWidth="10" orient="auto" refX="9" refY="3.5"><path fill="#6c757d" d="m0 0 10 3.5L0 7z"/></marker></defs></svg>