<svg xmlns="http://www.w3.org/2000/svg" width="900" height="600"><defs><linearGradient id="a" x1="0%" x2="100%" y1="0%" y2="100%"><stop offset="0%" style="stop-color:#007bff;stop-opacity:1"/><stop offset="100%" style="stop-color:#0056b3;stop-opacity:1"/></linearGradient><linearGradient id="b" x1="0%" x2="100%" y1="0%" y2="100%"><stop offset="0%" style="stop-color:#28a745;stop-opacity:1"/><stop offset="100%" style="stop-color:#1e7e34;stop-opacity:1"/></linearGradient><linearGradient id="c" x1="0%" x2="100%" y1="0%" y2="100%"><stop offset="0%" style="stop-color:#dc3545;stop-opacity:1"/><stop offset="100%" style="stop-color:#c82333;stop-opacity:1"/></linearGradient></defs><path fill="#f8f9fa" d="M0 0h900v600H0z"/><text x="450" y="40" fill="#212529" font-family="Arial, sans-serif" font-size="28" font-weight="bold" text-anchor="middle">
    ESG Regulatorisk Landskap
  </text><rect width="250" height="200" x="50" y="80" fill="url(#a)" stroke="url(#a)" stroke-width="2" opacity=".1" rx="15"/><rect width="250" height="40" x="50" y="80" fill="url(#a)" rx="15"/><text x="175" y="105" fill="#fff" font-family="Arial, sans-serif" font-size="18" font-weight="bold" text-anchor="middle">
    EU Regelverk
  </text><rect width="210" height="25" x="70" y="140" fill="#e3f2fd" rx="5"/><text x="80" y="157" fill="#1976d2" font-family="Arial, sans-serif" font-size="12" font-weight="bold">CSRD</text><text x="80" y="170" fill="#424242" font-family="Arial, sans-serif" font-size="10">Corporate Sustainability Reporting Directive</text><rect width="210" height="25" x="70" y="180" fill="#e8f5e8" rx="5"/><text x="80" y="197" fill="#2e7d32" font-family="Arial, sans-serif" font-size="12" font-weight="bold">ESRS</text><text x="80" y="210" fill="#424242" font-family="Arial, sans-serif" font-size="10">European Sustainability Reporting Standards</text><rect width="210" height="25" x="70" y="220" fill="#fff3e0" rx="5"/><text x="80" y="237" fill="#f57c00" font-family="Arial, sans-serif" font-size="12" font-weight="bold">EU Taksonomi</text><text x="80" y="250" fill="#424242" font-family="Arial, sans-serif" font-size="10">Klassifisering av bærekraftige aktiviteter</text><rect width="250" height="200" x="325" y="80" fill="url(#b)" stroke="url(#b)" stroke-width="2" opacity=".1" rx="15"/><rect width="250" height="40" x="325" y="80" fill="url(#b)" rx="15"/><text x="450" y="105" fill="#fff" font-family="Arial, sans-serif" font-size="18" font-weight="bold" text-anchor="middle">
    Globale Standarder
  </text><rect width="210" height="25" x="345" y="140" fill="#e8f5e8" rx="5"/><text x="355" y="157" fill="#2e7d32" font-family="Arial, sans-serif" font-size="12" font-weight="bold">GRI</text><text x="355" y="170" fill="#424242" font-family="Arial, sans-serif" font-size="10">Global Reporting Initiative</text><rect width="210" height="25" x="345" y="180" fill="#e3f2fd" rx="5"/><text x="355" y="197" fill="#1976d2" font-family="Arial, sans-serif" font-size="12" font-weight="bold">SASB</text><text x="355" y="210" fill="#424242" font-family="Arial, sans-serif" font-size="10">Sustainability Accounting Standards Board</text><rect width="210" height="25" x="345" y="220" fill="#fff3e0" rx="5"/><text x="355" y="237" fill="#f57c00" font-family="Arial, sans-serif" font-size="12" font-weight="bold">TCFD</text><text x="355" y="250" fill="#424242" font-family="Arial, sans-serif" font-size="10">Task Force on Climate-related Disclosures</text><rect width="250" height="200" x="600" y="80" fill="url(#c)" stroke="url(#c)" stroke-width="2" opacity=".1" rx="15"/><rect width="250" height="40" x="600" y="80" fill="url(#c)" rx="15"/><text x="725" y="105" fill="#fff" font-family="Arial, sans-serif" font-size="18" font-weight="bold" text-anchor="middle">
    Norske Krav
  </text><rect width="210" height="25" x="620" y="140" fill="#ffebee" rx="5"/><text x="630" y="157" fill="#c62828" font-family="Arial, sans-serif" font-size="12" font-weight="bold">Åpenhetsloven</text><text x="630" y="170" fill="#424242" font-family="Arial, sans-serif" font-size="10">Due diligence for menneskerettigheter</text><rect width="210" height="25" x="620" y="180" fill="#e8f5e8" rx="5"/><text x="630" y="197" fill="#2e7d32" font-family="Arial, sans-serif" font-size="12" font-weight="bold">Regnskapsloven § 3-3c</text><text x="630" y="210" fill="#424242" font-family="Arial, sans-serif" font-size="10">Redegjørelse for samfunnsansvar</text><rect width="210" height="25" x="620" y="220" fill="#e3f2fd" rx="5"/><text x="630" y="237" fill="#1976d2" font-family="Arial, sans-serif" font-size="12" font-weight="bold">SPU ESG-krav</text><text x="630" y="250" fill="#424242" font-family="Arial, sans-serif" font-size="10">Statens pensjonsfond utland</text><text x="450" y="320" fill="#212529" font-family="Arial, sans-serif" font-size="20" font-weight="bold" text-anchor="middle">
    Implementeringstidslinje
  </text><path stroke="#dee2e6" stroke-width="3" d="M100 380h700"/><circle cx="200" cy="380" r="8" fill="#007bff"/><text x="200" y="360" fill="#007bff" font-family="Arial, sans-serif" font-size="12" font-weight="bold" text-anchor="middle">2024</text><text x="200" y="405" fill="#212529" font-family="Arial, sans-serif" font-size="10" text-anchor="middle">CSRD for store PIE</text><circle cx="350" cy="380" r="8" fill="#28a745"/><text x="350" y="360" fill="#28a745" font-family="Arial, sans-serif" font-size="12" font-weight="bold" text-anchor="middle">2025</text><text x="350" y="405" fill="#212529" font-family="Arial, sans-serif" font-size="10" text-anchor="middle">Store bedrifter</text><circle cx="500" cy="380" r="8" fill="#fd7e14"/><text x="500" y="360" fill="#fd7e14" font-family="Arial, sans-serif" font-size="12" font-weight="bold" text-anchor="middle">2026</text><text x="500" y="405" fill="#212529" font-family="Arial, sans-serif" font-size="10" text-anchor="middle">Børsnoterte SMB</text><circle cx="650" cy="380" r="8" fill="#dc3545"/><text x="650" y="360" fill="#dc3545" font-family="Arial, sans-serif" font-size="12" font-weight="bold" text-anchor="middle">2028</text><text x="650" y="405" fill="#212529" font-family="Arial, sans-serif" font-size="10" text-anchor="middle">Tredjelandsselskap</text><text x="450" y="460" fill="#212529" font-family="Arial, sans-serif" font-size="18" font-weight="bold" text-anchor="middle">
    Compliance-krav
  </text><rect width="150" height="80" x="100" y="480" fill="#e3f2fd" stroke="#1976d2" rx="10"/><text x="175" y="500" fill="#1976d2" font-family="Arial, sans-serif" font-size="12" font-weight="bold" text-anchor="middle">Rapportering</text><text x="120" y="520" fill="#424242" font-family="Arial, sans-serif" font-size="10">• Årlig bærekraftsrapport</text><text x="120" y="535" fill="#424242" font-family="Arial, sans-serif" font-size="10">• Digitalt format</text><text x="120" y="550" fill="#424242" font-family="Arial, sans-serif" font-size="10">• Standardiserte maler</text><rect width="150" height="80" x="275" y="480" fill="#e8f5e8" stroke="#2e7d32" rx="10"/><text x="350" y="500" fill="#2e7d32" font-family="Arial, sans-serif" font-size="12" font-weight="bold" text-anchor="middle">Revisjon</text><text x="295" y="520" fill="#424242" font-family="Arial, sans-serif" font-size="10">• Ekstern verifikasjon</text><text x="295" y="535" fill="#424242" font-family="Arial, sans-serif" font-size="10">• Limited assurance</text><text x="295" y="550" fill="#424242" font-family="Arial, sans-serif" font-size="10">• Gradvis økning</text><rect width="150" height="80" x="450" y="480" fill="#fff3e0" stroke="#f57c00" rx="10"/><text x="525" y="500" fill="#f57c00" font-family="Arial, sans-serif" font-size="12" font-weight="bold" text-anchor="middle">Datainnsamling</text><text x="470" y="520" fill="#424242" font-family="Arial, sans-serif" font-size="10">• Robuste systemer</text><text x="470" y="535" fill="#424242" font-family="Arial, sans-serif" font-size="10">• Kvalitetskontroll</text><text x="470" y="550" fill="#424242" font-family="Arial, sans-serif" font-size="10">• Sporbarhet</text><rect width="150" height="80" x="625" y="480" fill="#ffebee" stroke="#c62828" rx="10"/><text x="700" y="500" fill="#c62828" font-family="Arial, sans-serif" font-size="12" font-weight="bold" text-anchor="middle">Governance</text><text x="645" y="520" fill="#424242" font-family="Arial, sans-serif" font-size="10">• Styreansvar</text><text x="645" y="535" fill="#424242" font-family="Arial, sans-serif" font-size="10">• ESG-komité</text><text x="645" y="550" fill="#424242" font-family="Arial, sans-serif" font-size="10">• Risikovurdering</text></svg>