<svg xmlns="http://www.w3.org/2000/svg" width="600" height="500" viewBox="0 0 600 500"><path fill="#f8f9fa" d="M0 0h600v500H0z"/><text x="300" y="30" fill="#2c3e50" font-family="Arial, sans-serif" font-size="20" font-weight="bold" text-anchor="middle">
    Avdelingsregnskapets Hovedkomponenter
  </text><circle cx="300" cy="250" r="80" fill="#3498db" opacity=".8"/><text x="300" y="245" fill="#fff" font-family="Arial, sans-serif" font-size="14" font-weight="bold" text-anchor="middle">
    AVDELINGS-
  </text><text x="300" y="260" fill="#fff" font-family="Arial, sans-serif" font-size="14" font-weight="bold" text-anchor="middle">
    REGNSKAP
  </text><rect width="140" height="80" x="80" y="80" fill="#e74c3c" opacity=".8" rx="10"/><text x="150" y="110" fill="#fff" font-family="Arial, sans-serif" font-size="12" font-weight="bold" text-anchor="middle">
    LØNNSOMHET
  </text><text x="150" y="130" fill="#fff" font-family="Arial, sans-serif" font-size="10" text-anchor="middle">
    • Resultat per avdeling
  </text><text x="150" y="145" fill="#fff" font-family="Arial, sans-serif" font-size="10" text-anchor="middle">
    • Marginanalyse
  </text><rect width="140" height="80" x="380" y="80" fill="#27ae60" opacity=".8" rx="10"/><text x="450" y="105" fill="#fff" font-family="Arial, sans-serif" font-size="12" font-weight="bold" text-anchor="middle">
    KOSTNADS-
  </text><text x="450" y="120" fill="#fff" font-family="Arial, sans-serif" font-size="12" font-weight="bold" text-anchor="middle">
    EFFEKTIVITET
  </text><text x="450" y="140" fill="#fff" font-family="Arial, sans-serif" font-size="10" text-anchor="middle">
    • Kostnad per enhet
  </text><text x="450" y="155" fill="#fff" font-family="Arial, sans-serif" font-size="10" text-anchor="middle">
    • Ressursbruk
  </text><rect width="140" height="80" x="80" y="340" fill="#f39c12" opacity=".8" rx="10"/><text x="150" y="370" fill="#fff" font-family="Arial, sans-serif" font-size="12" font-weight="bold" text-anchor="middle">
    RESSURS-
  </text><text x="150" y="385" fill="#fff" font-family="Arial, sans-serif" font-size="12" font-weight="bold" text-anchor="middle">
    ALLOKERING
  </text><text x="150" y="405" fill="#fff" font-family="Arial, sans-serif" font-size="10" text-anchor="middle">
    • Budsjettfordeling
  </text><rect width="140" height="80" x="380" y="340" fill="#9b59b6" opacity=".8" rx="10"/><text x="450" y="370" fill="#fff" font-family="Arial, sans-serif" font-size="12" font-weight="bold" text-anchor="middle">
    PRESTASJONS-
  </text><text x="450" y="385" fill="#fff" font-family="Arial, sans-serif" font-size="12" font-weight="bold" text-anchor="middle">
    MÅLING
  </text><text x="450" y="405" fill="#fff" font-family="Arial, sans-serif" font-size="10" text-anchor="middle">
    • KPI-oppfølging
  </text><path stroke="#2c3e50" stroke-width="2" d="m220 120 40 80M380 120l-40 80M220 380l40-80M380 380l-40-80"/><path fill="none" stroke="#34495e" stroke-width="2" marker-end="url(#a)" d="M150 160q150 20 300 0"/><path fill="none" stroke="#34495e" stroke-width="2" marker-end="url(#a)" d="M450 340q-150-20-300 0"/><rect width="200" height="40" x="200" y="450" fill="#34495e" rx="5"/><text x="300" y="475" fill="#fff" font-family="Arial, sans-serif" font-size="12" font-weight="bold" text-anchor="middle">
    Bedre styring og kontroll
  </text><defs><marker id="a" markerHeight="7" markerWidth="10" orient="auto" refX="9" refY="3.5"><path fill="#34495e" d="m0 0 10 3.5L0 7z"/></marker></defs><text x="50" y="480" fill="#7f8c8d" font-family="Arial, sans-serif" font-size="10">
    Fire hovedområder som avdelingsregnskap gir innsikt i
  </text></svg>