<svg xmlns="http://www.w3.org/2000/svg" width="700" height="500" viewBox="0 0 700 500"><path fill="#f8f9fa" d="M0 0h700v500H0z"/><text x="350" y="30" fill="#2c3e50" font-family="Arial, sans-serif" font-size="18" font-weight="bold" text-anchor="middle">
    Avdelingsregnskap Dashboard
  </text><rect width="600" height="40" x="50" y="50" fill="#34495e" rx="5"/><text x="350" y="75" fill="#fff" font-family="Arial, sans-serif" font-size="14" font-weight="bold" text-anchor="middle">
    MÅNEDLIG OPPFØLGING - MARS 2024
  </text><rect width="140" height="80" x="60" y="110" fill="#27ae60" opacity=".8" rx="8"/><text x="130" y="130" fill="#fff" font-family="Arial, sans-serif" font-size="10" font-weight="bold" text-anchor="middle">
    TOTAL OMSETNING
  </text><text x="130" y="155" fill="#fff" font-family="Arial, sans-serif" font-size="20" font-weight="bold" text-anchor="middle">
    9.2M
  </text><text x="130" y="175" fill="#fff" font-family="Arial, sans-serif" font-size="10" text-anchor="middle">
    +2.3% vs i fjor
  </text><rect width="140" height="80" x="220" y="110" fill="#3498db" opacity=".8" rx="8"/><text x="290" y="130" fill="#fff" font-family="Arial, sans-serif" font-size="10" font-weight="bold" text-anchor="middle">
    TOTAL MARGIN
  </text><text x="290" y="155" fill="#fff" font-family="Arial, sans-serif" font-size="20" font-weight="bold" text-anchor="middle">
    16.2%
  </text><text x="290" y="175" fill="#fff" font-family="Arial, sans-serif" font-size="10" text-anchor="middle">
    +0.5% vs budsjett
  </text><rect width="140" height="80" x="380" y="110" fill="#f39c12" opacity=".8" rx="8"/><text x="450" y="130" fill="#fff" font-family="Arial, sans-serif" font-size="10" font-weight="bold" text-anchor="middle">
    BESTE AVDELING
  </text><text x="450" y="155" fill="#fff" font-family="Arial, sans-serif" font-size="16" font-weight="bold" text-anchor="middle">
    SKATT
  </text><text x="450" y="175" fill="#fff" font-family="Arial, sans-serif" font-size="10" text-anchor="middle">
    18.5% margin
  </text><rect width="140" height="80" x="540" y="110" fill="#e74c3c" opacity=".8" rx="8"/><text x="610" y="130" fill="#fff" font-family="Arial, sans-serif" font-size="10" font-weight="bold" text-anchor="middle">
    VARSEL
  </text><text x="610" y="155" fill="#fff" font-family="Arial, sans-serif" font-size="12" font-weight="bold" text-anchor="middle">
    REVISJON
  </text><text x="610" y="175" fill="#fff" font-family="Arial, sans-serif" font-size="10" text-anchor="middle">
    Under budsjett
  </text><rect width="300" height="200" x="60" y="210" fill="#fff" stroke="#bdc3c7" rx="5"/><text x="210" y="230" fill="#2c3e50" font-family="Arial, sans-serif" font-size="12" font-weight="bold" text-anchor="middle">
    Avdelingsresultat (Millioner NOK)
  </text><path fill="#3498db" d="M80 320h60v60H80z" opacity=".8"/><text x="110" y="390" fill="#2c3e50" font-family="Arial, sans-serif" font-size="9" text-anchor="middle">
    Rådgivning
  </text><text x="110" y="315" fill="#2c3e50" font-family="Arial, sans-serif" font-size="10" font-weight="bold" text-anchor="middle">
    0.65M
  </text><path fill="#e74c3c" d="M160 340h60v40h-60z" opacity=".8"/><text x="190" y="390" fill="#2c3e50" font-family="Arial, sans-serif" font-size="9" text-anchor="middle">
    Revisjon
  </text><text x="190" y="335" fill="#2c3e50" font-family="Arial, sans-serif" font-size="10" font-weight="bold" text-anchor="middle">
    0.45M
  </text><path fill="#27ae60" d="M240 300h60v80h-60z" opacity=".8"/><text x="270" y="390" fill="#2c3e50" font-family="Arial, sans-serif" font-size="9" text-anchor="middle">
    Skatt
  </text><text x="270" y="295" fill="#2c3e50" font-family="Arial, sans-serif" font-size="10" font-weight="bold" text-anchor="middle">
    0.37M
  </text><text x="75" y="385" fill="#7f8c8d" font-family="Arial, sans-serif" font-size="8" text-anchor="end">0</text><text x="75" y="365" fill="#7f8c8d" font-family="Arial, sans-serif" font-size="8" text-anchor="end">0.2</text><text x="75" y="345" fill="#7f8c8d" font-family="Arial, sans-serif" font-size="8" text-anchor="end">0.4</text><text x="75" y="325" fill="#7f8c8d" font-family="Arial, sans-serif" font-size="8" text-anchor="end">0.6</text><text x="75" y="305" fill="#7f8c8d" font-family="Arial, sans-serif" font-size="8" text-anchor="end">0.8</text><rect width="300" height="200" x="380" y="210" fill="#fff" stroke="#bdc3c7" rx="5"/><text x="530" y="230" fill="#2c3e50" font-family="Arial, sans-serif" font-size="12" font-weight="bold" text-anchor="middle">
    Marginutvikling (%)
  </text><path fill="none" stroke="#27ae60" stroke-width="3" d="m400 350 30-10 30 5 30-10 30-5 30-5 30-5 30-5"/><path fill="none" stroke="#3498db" stroke-width="3" d="m400 360 30-5 30 5 30-10 30 5 30-5 30-5 30-5"/><path fill="none" stroke="#e74c3c" stroke-width="3" d="m400 370 30 5 30-5 30-5 30 5 30-5 30-5 30-5"/><circle cx="400" cy="250" r="4" fill="#27ae60"/><text x="410" y="255" fill="#2c3e50" font-family="Arial, sans-serif" font-size="9">Skatt</text><circle cx="450" cy="250" r="4" fill="#3498db"/><text x="460" y="255" fill="#2c3e50" font-family="Arial, sans-serif" font-size="9">Rådgivning</text><circle cx="520" cy="250" r="4" fill="#e74c3c"/><text x="530" y="255" fill="#2c3e50" font-family="Arial, sans-serif" font-size="9">Revisjon</text><text x="400" y="395" fill="#7f8c8d" font-family="Arial, sans-serif" font-size="8" text-anchor="middle">Sep</text><text x="430" y="395" fill="#7f8c8d" font-family="Arial, sans-serif" font-size="8" text-anchor="middle">Okt</text><text x="460" y="395" fill="#7f8c8d" font-family="Arial, sans-serif" font-size="8" text-anchor="middle">Nov</text><text x="490" y="395" fill="#7f8c8d" font-family="Arial, sans-serif" font-size="8" text-anchor="middle">Des</text><text x="520" y="395" fill="#7f8c8d" font-family="Arial, sans-serif" font-size="8" text-anchor="middle">Jan</text><text x="550" y="395" fill="#7f8c8d" font-family="Arial, sans-serif" font-size="8" text-anchor="middle">Feb</text><text x="580" y="395" fill="#7f8c8d" font-family="Arial, sans-serif" font-size="8" text-anchor="middle">Mar</text><rect width="620" height="50" x="60" y="430" fill="#ecf0f1" stroke="#bdc3c7" rx="5"/><text x="70" y="450" fill="#2c3e50" font-family="Arial, sans-serif" font-size="11" font-weight="bold">
    HANDLINGSPLANER:
  </text><text x="70" y="465" fill="#2c3e50" font-family="Arial, sans-serif" font-size="10">
    • Revisjon: Gjennomgå kostnadsstruktur og fordelingsnøkler
  </text><text x="400" y="465" fill="#2c3e50" font-family="Arial, sans-serif" font-size="10">
    • Skatt: Vurdere kapasitetsutvidelse
  </text></svg>