<svg xmlns="http://www.w3.org/2000/svg" width="700" height="500" viewBox="0 0 700 500"><path fill="#f8f9fa" d="M0 0h700v500H0z"/><text x="350" y="30" fill="#2c3e50" font-family="Arial, sans-serif" font-size="18" font-weight="bold" text-anchor="middle">
    Praktisk Eksempel: Konsulentselskap
  </text><rect width="600" height="40" x="50" y="50" fill="#34495e" rx="5"/><text x="350" y="75" fill="#fff" font-family="Arial, sans-serif" font-size="16" font-weight="bold" text-anchor="middle">
    KONSULENT AS - AVDELINGSREGNSKAP
  </text><path fill="#3498db" d="M50 100h150v30H50z" opacity=".8"/><path fill="#e74c3c" d="M200 100h120v30H200z" opacity=".8"/><path fill="#27ae60" d="M320 100h120v30H320z" opacity=".8"/><path fill="#f39c12" d="M440 100h120v30H440z" opacity=".8"/><path fill="#9b59b6" d="M560 100h90v30h-90z" opacity=".8"/><text x="125" y="120" fill="#fff" font-family="Arial, sans-serif" font-size="11" font-weight="bold" text-anchor="middle">
    KATEGORI
  </text><text x="260" y="120" fill="#fff" font-family="Arial, sans-serif" font-size="11" font-weight="bold" text-anchor="middle">
    RÅDGIVNING
  </text><text x="380" y="120" fill="#fff" font-family="Arial, sans-serif" font-size="11" font-weight="bold" text-anchor="middle">
    REVISJON
  </text><text x="500" y="120" fill="#fff" font-family="Arial, sans-serif" font-size="11" font-weight="bold" text-anchor="middle">
    SKATT
  </text><text x="605" y="120" fill="#fff" font-family="Arial, sans-serif" font-size="11" font-weight="bold" text-anchor="middle">
    TOTALT
  </text><path fill="#27ae60" d="M50 130h150v25H50zM200 130h120v25H200zM320 130h120v25H320zM440 130h120v25H440zM560 130h90v25h-90z" opacity=".3"/><text x="60" y="147" fill="#2c3e50" font-family="Arial, sans-serif" font-size="10" font-weight="bold">
    INNTEKTER
  </text><text x="310" y="147" fill="#2c3e50" font-family="Arial, sans-serif" font-size="10" text-anchor="end">
    4.000.000
  </text><text x="430" y="147" fill="#2c3e50" font-family="Arial, sans-serif" font-size="10" text-anchor="end">
    3.000.000
  </text><text x="550" y="147" fill="#2c3e50" font-family="Arial, sans-serif" font-size="10" text-anchor="end">
    2.000.000
  </text><text x="640" y="147" fill="#2c3e50" font-family="Arial, sans-serif" font-size="10" font-weight="bold" text-anchor="end">
    9.000.000
  </text><text x="60" y="170" fill="#2c3e50" font-family="Arial, sans-serif" font-size="9" font-weight="bold">
    DIREKTE KOSTNADER:
  </text><path fill="#e74c3c" d="M50 175h150v20H50zM200 175h120v20H200zM320 175h120v20H320zM440 175h120v20H440zM560 175h90v20h-90z" opacity=".2"/><text x="60" y="188" fill="#2c3e50" font-family="Arial, sans-serif" font-size="9">
    Lønn direkte
  </text><text x="310" y="188" fill="#2c3e50" font-family="Arial, sans-serif" font-size="9" text-anchor="end">
    2.400.000
  </text><text x="430" y="188" fill="#2c3e50" font-family="Arial, sans-serif" font-size="9" text-anchor="end">
    1.800.000
  </text><text x="550" y="188" fill="#2c3e50" font-family="Arial, sans-serif" font-size="9" text-anchor="end">
    1.200.000
  </text><text x="640" y="188" fill="#2c3e50" font-family="Arial, sans-serif" font-size="9" text-anchor="end">
    5.400.000
  </text><text x="60" y="208" fill="#2c3e50" font-family="Arial, sans-serif" font-size="9">
    Materialer
  </text><text x="310" y="208" fill="#2c3e50" font-family="Arial, sans-serif" font-size="9" text-anchor="end">
    80.000
  </text><text x="430" y="208" fill="#2c3e50" font-family="Arial, sans-serif" font-size="9" text-anchor="end">
    60.000
  </text><text x="550" y="208" fill="#2c3e50" font-family="Arial, sans-serif" font-size="9" text-anchor="end">
    40.000
  </text><text x="640" y="208" fill="#2c3e50" font-family="Arial, sans-serif" font-size="9" text-anchor="end">
    180.000
  </text><text x="60" y="228" fill="#2c3e50" font-family="Arial, sans-serif" font-size="9">
    Reiser
  </text><text x="310" y="228" fill="#2c3e50" font-family="Arial, sans-serif" font-size="9" text-anchor="end">
    120.000
  </text><text x="430" y="228" fill="#2c3e50" font-family="Arial, sans-serif" font-size="9" text-anchor="end">
    90.000
  </text><text x="550" y="228" fill="#2c3e50" font-family="Arial, sans-serif" font-size="9" text-anchor="end">
    60.000
  </text><text x="640" y="228" fill="#2c3e50" font-family="Arial, sans-serif" font-size="9" text-anchor="end">
    270.000
  </text><text x="60" y="250" fill="#2c3e50" font-family="Arial, sans-serif" font-size="9" font-weight="bold">
    INDIREKTE KOSTNADER:
  </text><path fill="#9b59b6" d="M50 255h150v20H50zM200 255h120v20H200zM320 255h120v20H320zM440 255h120v20H440zM560 255h90v20h-90z" opacity=".2"/><text x="60" y="268" fill="#2c3e50" font-family="Arial, sans-serif" font-size="9">
    Husleie (areal)
  </text><text x="310" y="268" fill="#2c3e50" font-family="Arial, sans-serif" font-size="9" text-anchor="end">
    240.000
  </text><text x="430" y="268" fill="#2c3e50" font-family="Arial, sans-serif" font-size="9" text-anchor="end">
    180.000
  </text><text x="550" y="268" fill="#2c3e50" font-family="Arial, sans-serif" font-size="9" text-anchor="end">
    120.000
  </text><text x="640" y="268" fill="#2c3e50" font-family="Arial, sans-serif" font-size="9" text-anchor="end">
    540.000
  </text><text x="60" y="288" fill="#2c3e50" font-family="Arial, sans-serif" font-size="9">
    Admin (ansatte)
  </text><text x="310" y="288" fill="#2c3e50" font-family="Arial, sans-serif" font-size="9" text-anchor="end">
    320.000
  </text><text x="430" y="288" fill="#2c3e50" font-family="Arial, sans-serif" font-size="9" text-anchor="end">
    240.000
  </text><text x="550" y="288" fill="#2c3e50" font-family="Arial, sans-serif" font-size="9" text-anchor="end">
    160.000
  </text><text x="640" y="288" fill="#2c3e50" font-family="Arial, sans-serif" font-size="9" text-anchor="end">
    720.000
  </text><text x="60" y="308" fill="#2c3e50" font-family="Arial, sans-serif" font-size="9">
    IT (PC-er)
  </text><text x="310" y="308" fill="#2c3e50" font-family="Arial, sans-serif" font-size="9" text-anchor="end">
    80.000
  </text><text x="430" y="308" fill="#2c3e50" font-family="Arial, sans-serif" font-size="9" text-anchor="end">
    60.000
  </text><text x="550" y="308" fill="#2c3e50" font-family="Arial, sans-serif" font-size="9" text-anchor="end">
    40.000
  </text><text x="640" y="308" fill="#2c3e50" font-family="Arial, sans-serif" font-size="9" text-anchor="end">
    180.000
  </text><text x="60" y="328" fill="#2c3e50" font-family="Arial, sans-serif" font-size="9">
    Markedsføring (omsetning)
  </text><text x="310" y="328" fill="#2c3e50" font-family="Arial, sans-serif" font-size="9" text-anchor="end">
    133.333
  </text><text x="430" y="328" fill="#2c3e50" font-family="Arial, sans-serif" font-size="9" text-anchor="end">
    100.000
  </text><text x="550" y="328" fill="#2c3e50" font-family="Arial, sans-serif" font-size="9" text-anchor="end">
    66.667
  </text><text x="640" y="328" fill="#2c3e50" font-family="Arial, sans-serif" font-size="9" text-anchor="end">
    300.000
  </text><path stroke="#2c3e50" d="M200 345h450"/><path fill="#e74c3c" d="M50 350h150v25H50zM200 350h120v25H200zM320 350h120v25H320zM440 350h120v25H440zM560 350h90v25h-90z" opacity=".3"/><text x="60" y="367" fill="#2c3e50" font-family="Arial, sans-serif" font-size="10" font-weight="bold">
    TOTALE KOSTNADER
  </text><text x="310" y="367" fill="#2c3e50" font-family="Arial, sans-serif" font-size="10" font-weight="bold" text-anchor="end">
    3.373.333
  </text><text x="430" y="367" fill="#2c3e50" font-family="Arial, sans-serif" font-size="10" font-weight="bold" text-anchor="end">
    2.530.000
  </text><text x="550" y="367" fill="#2c3e50" font-family="Arial, sans-serif" font-size="10" font-weight="bold" text-anchor="end">
    1.686.667
  </text><text x="640" y="367" fill="#2c3e50" font-family="Arial, sans-serif" font-size="10" font-weight="bold" text-anchor="end">
    7.590.000
  </text><path stroke="#2c3e50" stroke-width="2" d="M200 380h450"/><path fill="#27ae60" d="M50 385h150v30H50zM200 385h120v30H200zM320 385h120v30H320zM440 385h120v30H440zM560 385h90v30h-90z" opacity=".4"/><text x="60" y="405" fill="#2c3e50" font-family="Arial, sans-serif" font-size="11" font-weight="bold">
    NETTORESULTAT
  </text><text x="310" y="405" fill="#27ae60" font-family="Arial, sans-serif" font-size="11" font-weight="bold" text-anchor="end">
    626.667
  </text><text x="430" y="405" fill="#27ae60" font-family="Arial, sans-serif" font-size="11" font-weight="bold" text-anchor="end">
    470.000
  </text><text x="550" y="405" fill="#27ae60" font-family="Arial, sans-serif" font-size="11" font-weight="bold" text-anchor="end">
    313.333
  </text><text x="640" y="405" fill="#27ae60" font-family="Arial, sans-serif" font-size="11" font-weight="bold" text-anchor="end">
    1.410.000
  </text><text x="60" y="430" fill="#2c3e50" font-family="Arial, sans-serif" font-size="10" font-weight="bold">
    RESULTATMARGIN
  </text><text x="310" y="430" fill="#f39c12" font-family="Arial, sans-serif" font-size="10" font-weight="bold" text-anchor="end">
    15,7%
  </text><text x="430" y="430" fill="#f39c12" font-family="Arial, sans-serif" font-size="10" font-weight="bold" text-anchor="end">
    15,7%
  </text><text x="550" y="430" fill="#f39c12" font-family="Arial, sans-serif" font-size="10" font-weight="bold" text-anchor="end">
    15,7%
  </text><text x="640" y="430" fill="#f39c12" font-family="Arial, sans-serif" font-size="10" font-weight="bold" text-anchor="end">
    15,7%
  </text><text x="350" y="470" fill="#7f8c8d" font-family="Arial, sans-serif" font-size="10" text-anchor="middle">
    Fullkostnadsmetoden med fordelingsnøkler basert på areal, ansatte, PC-er og omsetning
  </text></svg>