<svg xmlns="http://www.w3.org/2000/svg" width="800" height="400"><defs><linearGradient id="a" x1="0%" x2="100%" y1="0%" y2="100%"><stop offset="0%" style="stop-color:#f8f9fa;stop-opacity:1"/><stop offset="100%" style="stop-color:#e9ecef;stop-opacity:1"/></linearGradient><linearGradient id="b" x1="0%" x2="100%" y1="0%" y2="0%"><stop offset="0%" style="stop-color:#06c;stop-opacity:1"/><stop offset="100%" style="stop-color:#049;stop-opacity:1"/></linearGradient></defs><path fill="url(#a)" stroke="#dee2e6" stroke-width="2" d="M0 0h800v400H0z"/><path fill="url(#b)" d="M0 0h800v80H0z"/><text x="400" y="35" fill="#fff" font-family="Arial, sans-serif" font-size="28" font-weight="bold" text-anchor="middle">
    IBAN-nummer
  </text><text x="400" y="60" fill="#e6f3ff" font-family="Arial, sans-serif" font-size="16" text-anchor="middle">
    International Bank Account Number
  </text><rect width="700" height="80" x="50" y="120" fill="#fff" stroke="#06c" stroke-width="2" rx="8"/><text x="400" y="145" fill="#333" font-family="Arial, sans-serif" font-size="18" font-weight="bold" text-anchor="middle">
    Norsk IBAN-eksempel:
  </text><text x="400" y="175" fill="#06c" font-family="Courier, monospace" font-size="32" font-weight="bold" text-anchor="middle">
    NO93 8601 1117 947
  </text><g transform="translate(50 230)"><rect width="80" height="50" fill="#ff6b6b" stroke="#e55353" rx="4"/><text x="40" y="20" fill="#fff" font-family="Arial, sans-serif" font-size="12" font-weight="bold" text-anchor="middle">NO</text><text x="40" y="35" fill="#fff" font-family="Arial, sans-serif" font-size="10" text-anchor="middle">Landkode</text><rect width="80" height="50" x="100" fill="#4ecdc4" stroke="#45b7aa" rx="4"/><text x="140" y="20" fill="#fff" font-family="Arial, sans-serif" font-size="12" font-weight="bold" text-anchor="middle">93</text><text x="140" y="35" fill="#fff" font-family="Arial, sans-serif" font-size="10" text-anchor="middle">Kontroll</text><rect width="120" height="50" x="200" fill="#45b7d1" stroke="#3a9bc1" rx="4"/><text x="260" y="20" fill="#fff" font-family="Arial, sans-serif" font-size="12" font-weight="bold" text-anchor="middle">8601</text><text x="260" y="35" fill="#fff" font-family="Arial, sans-serif" font-size="10" text-anchor="middle">Bankkode</text><rect width="160" height="50" x="340" fill="#96ceb4" stroke="#85b8a3" rx="4"/><text x="420" y="20" fill="#fff" font-family="Arial, sans-serif" font-size="12" font-weight="bold" text-anchor="middle">1117947</text><text x="420" y="35" fill="#fff" font-family="Arial, sans-serif" font-size="10" text-anchor="middle">Kontonummer</text><text x="550" y="20" fill="#333" font-family="Arial, sans-serif" font-size="14" font-weight="bold">Fordeler:</text><text x="550" y="40" fill="#666" font-family="Arial, sans-serif" font-size="12">• Standardisert format</text><text x="550" y="55" fill="#666" font-family="Arial, sans-serif" font-size="12">• Innebygd validering</text></g><text x="400" y="320" fill="#333" font-family="Arial, sans-serif" font-size="14" font-weight="bold" text-anchor="middle">
    Brukes i 77 land for internasjonale betalinger
  </text><text x="400" y="340" fill="#666" font-family="Arial, sans-serif" font-size="12" text-anchor="middle">
    Sikrer korrekt identifikasjon av mottakers bankkonto
  </text><circle cx="100" cy="350" r="25" fill="none" stroke="#06c" stroke-width="2"/><path fill="none" stroke="#06c" stroke-width="1.5" d="M85 350q15-20 30 0-15 20-30 0"/><path fill="none" stroke="#06c" stroke-width="1.5" d="M85 350q15 20 30 0-15-20-30 0"/><path stroke="#06c" stroke-width="1.5" d="M75 350h50"/><path fill="#06c" d="M650 340h50v25h-50z"/><path fill="#049" d="m650 340 25-15 25 15z"/><path fill="#fff" d="M658 345h6v15h-6zM668 345h6v15h-6zM678 345h6v15h-6zM688 345h6v15h-6z"/></svg>