<svg xmlns="http://www.w3.org/2000/svg" width="800" height="400" viewBox="0 0 800 400"><path fill="#f8f9fa" d="M0 0h800v400H0z"/><text x="400" y="40" fill="#2c3e50" font-family="Arial, sans-serif" font-size="28" font-weight="bold" text-anchor="middle">Hva er Skatt?</text><g transform="translate(50 70)"><path fill="#3498db" stroke="#2980b9" stroke-width="2" d="M350 80h100v120H350z"/><path fill="#e74c3c" d="m350 80 50-50 50 50z"/><path fill="#f1c40f" d="M370 100h15v20h-15zM405 100h15v20h-15zM370 140h15v20h-15zM405 140h15v20h-15z"/><path fill="#8b4513" d="M385 170h20v30h-20z"/><text x="400" y="220" fill="#2c3e50" font-family="Arial, sans-serif" font-size="12" font-weight="bold" text-anchor="middle">Staten</text><path fill="#95a5a6" stroke="#7f8c8d" stroke-width="2" d="M50 100h80v100H50z"/><path fill="#f1c40f" d="M60 120h12v12H60zM80 120h12v12H80zM100 120h12v12h-12zM60 140h12v12H60zM80 140h12v12H80zM100 140h12v12h-12zM60 160h12v12H60zM80 160h12v12H80zM100 160h12v12h-12z"/><path fill="#8b4513" d="M80 180h20v20H80z"/><text x="40" y="120" fill="#2c3e50" font-family="Arial, sans-serif" font-size="10" text-anchor="middle" transform="translate(50 100)">Bedrift</text><g transform="translate(150 120)"><path fill="#95a5a6" stroke="#7f8c8d" stroke-width="2" d="M0 0h70v80H0z"/><path fill="#34495e" d="M30-20h10V0H30z"/><circle cx="35" cy="-25" r="3" fill="#ecf0f1"/><circle cx="32" cy="-30" r="2" fill="#ecf0f1"/><circle cx="38" cy="-32" r="2" fill="#ecf0f1"/><path fill="#f1c40f" d="M10 20h15v15H10zM45 20h15v15H45z"/><path fill="#8b4513" d="M25 60h20v20H25z"/><text x="35" y="105" fill="#2c3e50" font-family="Arial, sans-serif" font-size="10" text-anchor="middle">Industri</text></g><path fill="#9b59b6" stroke="#8e44ad" stroke-width="2" d="M550 110h70v90h-70z"/><path fill="#f1c40f" d="M565 130h12v12h-12zM590 130h12v12h-12zM565 150h12v12h-12zM590 150h12v12h-12z"/><path fill="#8b4513" d="M575 180h20v20h-20z"/><text x="35" y="110" fill="#2c3e50" font-family="Arial, sans-serif" font-size="10" text-anchor="middle" transform="translate(550 110)">Service</text><defs><marker id="a" markerHeight="7" markerWidth="10" orient="auto" refX="9" refY="3.5"><path fill="#e74c3c" d="m0 0 10 3.5L0 7z"/></marker></defs><path fill="none" stroke="#e74c3c" stroke-width="3" marker-end="url(#a)" d="M150 150q100-30 190-20"/><text x="220" y="110" fill="#e74c3c" font-family="Arial, sans-serif" font-size="11" font-weight="bold" text-anchor="middle">Selskapsskatt</text><path fill="none" stroke="#e74c3c" stroke-width="3" marker-end="url(#a)" d="M240 160q60-20 100-20"/><text x="290" y="130" fill="#e74c3c" font-family="Arial, sans-serif" font-size="11" font-weight="bold" text-anchor="middle">MVA</text><path fill="none" stroke="#e74c3c" stroke-width="3" marker-end="url(#a)" d="M550 155q-50-30-90-20"/><text x="510" y="115" fill="#e74c3c" font-family="Arial, sans-serif" font-size="11" font-weight="bold" text-anchor="middle">Arbeidsgiveravgift</text><g transform="translate(0 250)"><rect width="120" height="50" x="50" fill="#3498db" rx="5"/><text x="110" y="20" fill="#fff" font-family="Arial, sans-serif" font-size="11" font-weight="bold" text-anchor="middle">Selskapsskatt</text><text x="110" y="35" fill="#fff" font-family="Arial, sans-serif" font-size="10" text-anchor="middle">22% på overskudd</text><rect width="120" height="50" x="200" fill="#e74c3c" rx="5"/><text x="260" y="20" fill="#fff" font-family="Arial, sans-serif" font-size="11" font-weight="bold" text-anchor="middle">Merverdiavgift</text><text x="260" y="35" fill="#fff" font-family="Arial, sans-serif" font-size="10" text-anchor="middle">25% standard</text><rect width="120" height="50" x="350" fill="#9b59b6" rx="5"/><text x="410" y="15" fill="#fff" font-family="Arial, sans-serif" font-size="11" font-weight="bold" text-anchor="middle">Arbeidsgiver-</text><text x="410" y="30" fill="#fff" font-family="Arial, sans-serif" font-size="11" font-weight="bold" text-anchor="middle">avgift</text><text x="410" y="42" fill="#fff" font-family="Arial, sans-serif" font-size="10" text-anchor="middle">14,1% av lønn</text><rect width="120" height="50" x="500" fill="#f39c12" rx="5"/><text x="560" y="20" fill="#fff" font-family="Arial, sans-serif" font-size="11" font-weight="bold" text-anchor="middle">Andre skatter</text><text x="560" y="35" fill="#fff" font-family="Arial, sans-serif" font-size="10" text-anchor="middle">Eiendomsskatt, avgifter</text></g></g></svg>