<svg xmlns="http://www.w3.org/2000/svg" width="800" height="600" viewBox="0 0 800 600"><path fill="#f8f9fa" d="M0 0h800v600H0z"/><text x="400" y="30" fill="#2c3e50" font-family="Arial, sans-serif" font-size="24" font-weight="bold" text-anchor="middle">Skatteoptimalisering Strategier</text><g transform="translate(50 80)"><rect width="180" height="150" fill="#3498db" stroke="#2980b9" stroke-width="2" rx="10"/><text x="90" y="25" fill="#fff" font-family="Arial, sans-serif" font-size="16" font-weight="bold" text-anchor="middle">Timing Strategier</text><g transform="translate(15 40)"><circle cx="5" cy="5" r="3" fill="#ecf0f1"/><text x="15" y="10" fill="#fff" font-family="Arial, sans-serif" font-size="11">Inntektsforskyvning</text><circle cx="5" cy="25" r="3" fill="#ecf0f1"/><text x="15" y="30" fill="#fff" font-family="Arial, sans-serif" font-size="11">Kostnadsfremskynding</text><circle cx="5" cy="45" r="3" fill="#ecf0f1"/><text x="15" y="50" fill="#fff" font-family="Arial, sans-serif" font-size="11">Investering før årsskifte</text><circle cx="5" cy="65" r="3" fill="#ecf0f1"/><text x="15" y="70" fill="#fff" font-family="Arial, sans-serif" font-size="11">Periodisering vs kontant</text><circle cx="5" cy="85" r="3" fill="#ecf0f1"/><text x="15" y="90" fill="#fff" font-family="Arial, sans-serif" font-size="11">Utbytteutdeling timing</text><rect width="150" height="25" y="105" fill="#2980b9" rx="5"/><text x="75" y="122" fill="#fff" font-family="Arial, sans-serif" font-size="10" font-weight="bold" text-anchor="middle">Potensial: 5-15% besparelse</text></g></g><g transform="translate(250 80)"><rect width="180" height="150" fill="#e74c3c" stroke="#c0392b" stroke-width="2" rx="10"/><text x="90" y="25" fill="#fff" font-family="Arial, sans-serif" font-size="16" font-weight="bold" text-anchor="middle">Strukturelle Strategier</text><g transform="translate(15 40)"><circle cx="5" cy="5" r="3" fill="#ecf0f1"/><text x="15" y="10" fill="#fff" font-family="Arial, sans-serif" font-size="11">Holdingselskap struktur</text><circle cx="5" cy="25" r="3" fill="#ecf0f1"/><text x="15" y="30" fill="#fff" font-family="Arial, sans-serif" font-size="11">Organisasjonsform valg</text><circle cx="5" cy="45" r="3" fill="#ecf0f1"/><text x="15" y="50" fill="#fff" font-family="Arial, sans-serif" font-size="11">Geografisk plassering</text><circle cx="5" cy="65" r="3" fill="#ecf0f1"/><text x="15" y="70" fill="#fff" font-family="Arial, sans-serif" font-size="11">Joint venture strukturer</text><circle cx="5" cy="85" r="3" fill="#ecf0f1"/><text x="15" y="90" fill="#fff" font-family="Arial, sans-serif" font-size="11">Fusjon/fisjon</text><rect width="150" height="25" y="105" fill="#c0392b" rx="5"/><text x="75" y="122" fill="#fff" font-family="Arial, sans-serif" font-size="10" font-weight="bold" text-anchor="middle">Potensial: 10-25% besparelse</text></g></g><g transform="translate(450 80)"><rect width="180" height="150" fill="#27ae60" stroke="#229954" stroke-width="2" rx="10"/><text x="90" y="25" fill="#fff" font-family="Arial, sans-serif" font-size="16" font-weight="bold" text-anchor="middle">Investeringsincentiver</text><g transform="translate(15 40)"><circle cx="5" cy="5" r="3" fill="#ecf0f1"/><text x="15" y="10" fill="#fff" font-family="Arial, sans-serif" font-size="11">SkatteFUNN ordningen</text><circle cx="5" cy="25" r="3" fill="#ecf0f1"/><text x="15" y="30" fill="#fff" font-family="Arial, sans-serif" font-size="11">Saldoavskrivning</text><circle cx="5" cy="45" r="3" fill="#ecf0f1"/><text x="15" y="50" fill="#fff" font-family="Arial, sans-serif" font-size="11">Særavskrivninger</text><circle cx="5" cy="65" r="3" fill="#ecf0f1"/><text x="15" y="70" fill="#fff" font-family="Arial, sans-serif" font-size="11">Miljøinvesteringer</text><circle cx="5" cy="85" r="3" fill="#ecf0f1"/><text x="15" y="90" fill="#fff" font-family="Arial, sans-serif" font-size="11">Regionale ordninger</text><rect width="150" height="25" y="105" fill="#229954" rx="5"/><text x="75" y="122" fill="#fff" font-family="Arial, sans-serif" font-size="10" font-weight="bold" text-anchor="middle">Potensial: 15-30% besparelse</text></g></g><g transform="translate(650 80)"><rect width="100" height="150" fill="#f39c12" stroke="#e67e22" stroke-width="2" rx="10"/><text x="50" y="20" fill="#fff" font-family="Arial, sans-serif" font-size="14" font-weight="bold" text-anchor="middle">Risiko-</text><text x="50" y="35" fill="#fff" font-family="Arial, sans-serif" font-size="14" font-weight="bold" text-anchor="middle">styring</text><g transform="translate(10 50)"><circle cx="3" cy="5" r="2" fill="#ecf0f1"/><text x="10" y="10" fill="#fff" font-family="Arial, sans-serif" font-size="9">Compliance</text><circle cx="3" cy="20" r="2" fill="#ecf0f1"/><text x="10" y="25" fill="#fff" font-family="Arial, sans-serif" font-size="9">Dokumentasjon</text><circle cx="3" cy="35" r="2" fill="#ecf0f1"/><text x="10" y="40" fill="#fff" font-family="Arial, sans-serif" font-size="9">Juridisk review</text><circle cx="3" cy="50" r="2" fill="#ecf0f1"/><text x="10" y="55" fill="#fff" font-family="Arial, sans-serif" font-size="9">Benchmarking</text><circle cx="3" cy="65" r="2" fill="#ecf0f1"/><text x="10" y="70" fill="#fff" font-family="Arial, sans-serif" font-size="9">Internkontroll</text><rect width="80" height="20" y="85" fill="#e67e22" rx="3"/><text x="40" y="98" fill="#fff" font-family="Arial, sans-serif" font-size="8" font-weight="bold" text-anchor="middle">Beskyttelse</text></g></g><g transform="translate(50 260)"><rect width="700" height="100" fill="#34495e" stroke="#2c3e50" stroke-width="2" rx="10"/><text x="350" y="25" fill="#fff" font-family="Arial, sans-serif" font-size="18" font-weight="bold" text-anchor="middle">Implementeringsprosess</text><g transform="translate(50 40)"><rect width="100" height="50" fill="#3498db" rx="5"/><text x="50" y="20" fill="#fff" font-family="Arial, sans-serif" font-size="11" font-weight="bold" text-anchor="middle">1. Analyse</text><text x="50" y="35" fill="#fff" font-family="Arial, sans-serif" font-size="9" text-anchor="middle">Nåværende situasjon</text><path fill="none" stroke="#ecf0f1" stroke-width="2" marker-end="url(#a)" d="M110 25h30"/><rect width="100" height="50" x="150" fill="#e74c3c" rx="5"/><text x="200" y="20" fill="#fff" font-family="Arial, sans-serif" font-size="11" font-weight="bold" text-anchor="middle">2. Strategi</text><text x="200" y="35" fill="#fff" font-family="Arial, sans-serif" font-size="9" text-anchor="middle">Valg av metoder</text><path fill="none" stroke="#ecf0f1" stroke-width="2" marker-end="url(#a)" d="M260 25h30"/><rect width="100" height="50" x="300" fill="#27ae60" rx="5"/><text x="350" y="20" fill="#fff" font-family="Arial, sans-serif" font-size="11" font-weight="bold" text-anchor="middle">3. Implementering</text><text x="350" y="35" fill="#fff" font-family="Arial, sans-serif" font-size="9" text-anchor="middle">Gjennomføring</text><path fill="none" stroke="#ecf0f1" stroke-width="2" marker-end="url(#a)" d="M410 25h30"/><rect width="100" height="50" x="450" fill="#9b59b6" rx="5"/><text x="500" y="20" fill="#fff" font-family="Arial, sans-serif" font-size="11" font-weight="bold" text-anchor="middle">4. Overvåking</text><text x="500" y="35" fill="#fff" font-family="Arial, sans-serif" font-size="9" text-anchor="middle">Kontinuerlig review</text></g></g><g transform="translate(50 390)"><rect width="340" height="180" fill="#2c3e50" stroke="#34495e" stroke-width="2" rx="10"/><text x="170" y="25" fill="#fff" font-family="Arial, sans-serif" font-size="16" font-weight="bold" text-anchor="middle">Kritiske suksessfaktorer</text><path fill="#e74c3c" d="M20 45h15v15H20z"/><text x="25" y="12" fill="#fff" font-family="Arial, sans-serif" font-size="12" transform="translate(20 45)">Juridisk forankring i alle beslutninger</text><path fill="#f39c12" d="M20 70h15v15H20z"/><text x="25" y="37" fill="#fff" font-family="Arial, sans-serif" font-size="12" transform="translate(20 45)">Forretningsmessig begrunnelse for tiltak</text><path fill="#27ae60" d="M20 95h15v15H20z"/><text x="25" y="62" fill="#fff" font-family="Arial, sans-serif" font-size="12" transform="translate(20 45)">Komplett dokumentasjon og sporing</text><path fill="#3498db" d="M20 120h15v15H20z"/><text x="25" y="87" fill="#fff" font-family="Arial, sans-serif" font-size="12" transform="translate(20 45)">Kontinuerlig monitoring og justering</text><path fill="#9b59b6" d="M20 145h15v15H20z"/><text x="25" y="112" fill="#fff" font-family="Arial, sans-serif" font-size="12" transform="translate(20 45)">Ekspert rådgivning ved komplekse saker</text><path fill="#34495e" d="M20 170h15v15H20z"/><text x="25" y="137" fill="#fff" font-family="Arial, sans-serif" font-size="12" transform="translate(20 45)">Balanse mellom gevinst og risiko</text></g><g transform="translate(410 390)"><rect width="340" height="180" fill="#ecf0f1" stroke="#bdc3c7" stroke-width="2" rx="10"/><text x="170" y="25" fill="#2c3e50" font-family="Arial, sans-serif" font-size="16" font-weight="bold" text-anchor="middle">Kostnad-Nytte Analyse</text><g transform="translate(50 50)"><path stroke="#2c3e50" stroke-width="2" d="M0 0v100"/><text x="-10" y="5" fill="#2c3e50" font-family="Arial, sans-serif" font-size="10" text-anchor="end">Høy</text><text x="-10" y="55" fill="#2c3e50" font-family="Arial, sans-serif" font-size="10" text-anchor="end">Medium</text><text x="-10" y="105" fill="#2c3e50" font-family="Arial, sans-serif" font-size="10" text-anchor="end">Lav</text><path stroke="#2c3e50" stroke-width="2" d="M0 100h240"/><text x="60" y="115" fill="#2c3e50" font-family="Arial, sans-serif" font-size="10" text-anchor="middle">Lav</text><text x="120" y="115" fill="#2c3e50" font-family="Arial, sans-serif" font-size="10" text-anchor="middle">Medium</text><text x="180" y="115" fill="#2c3e50" font-family="Arial, sans-serif" font-size="10" text-anchor="middle">Høy</text><text x="120" y="130" fill="#2c3e50" font-family="Arial, sans-serif" font-size="10" text-anchor="middle">Implementeringskompleksitet</text><text x="-30" y="50" fill="#2c3e50" font-family="Arial, sans-serif" font-size="10" text-anchor="middle" transform="rotate(-90 -30 50)">Skattebesparelse</text><circle cx="40" cy="30" r="8" fill="#27ae60"/><text x="40" y="15" fill="#2c3e50" font-family="Arial, sans-serif" font-size="8" text-anchor="middle">Timing</text><circle cx="120" cy="50" r="8" fill="#f39c12"/><text x="120" y="35" fill="#2c3e50" font-family="Arial, sans-serif" font-size="8" text-anchor="middle">Incentiver</text><circle cx="200" cy="20" r="8" fill="#e74c3c"/><text x="200" y="5" fill="#2c3e50" font-family="Arial, sans-serif" font-size="8" text-anchor="middle">Strukturer</text></g></g><defs><marker id="a" markerHeight="6" markerWidth="8" orient="auto" refX="7" refY="3"><path fill="#ecf0f1" d="M0 0v6l8-3z"/></marker></defs></svg>