<svg xmlns="http://www.w3.org/2000/svg" width="900" height="650" fill="none" viewBox="0 0 900 650"><path fill="#fff" d="M0 0h900v650H0z"/><text x="450" y="40" fill="#1a202c" font-family="Arial, sans-serif" font-size="24" font-weight="bold" text-anchor="middle">
    Bokføring av kreditnotaer
</text><rect width="380" height="250" x="50" y="80" fill="#e8f5e8" stroke="#4caf50" stroke-width="2" rx="8"/><text x="240" y="110" fill="#4caf50" font-family="Arial, sans-serif" font-size="18" font-weight="bold" text-anchor="middle">
    Hos selger (utsteder kreditnota)
</text><path fill="#4caf50" d="M70 130h340v30H70z"/><text x="90" y="150" fill="#fff" font-family="Arial, sans-serif" font-size="12" font-weight="bold">
    Konto
</text><text x="180" y="150" fill="#fff" font-family="Arial, sans-serif" font-size="12" font-weight="bold">
    Beskrivelse
</text><text x="290" y="150" fill="#fff" font-family="Arial, sans-serif" font-size="12" font-weight="bold">
    Debet
</text><text x="350" y="150" fill="#fff" font-family="Arial, sans-serif" font-size="12" font-weight="bold">
    Kredit
</text><path fill="#f8f8f8" d="M70 160h340v25H70z"/><text x="90" y="177" fill="#333" font-family="Arial, sans-serif" font-size="11">
    3000
</text><text x="180" y="177" fill="#333" font-family="Arial, sans-serif" font-size="11">
    Salgsinntekt
</text><text x="290" y="177" fill="#333" font-family="Arial, sans-serif" font-size="11">
    9.600
</text><path fill="#fff" d="M70 185h340v25H70z"/><text x="90" y="202" fill="#333" font-family="Arial, sans-serif" font-size="11">
    2700
</text><text x="180" y="202" fill="#333" font-family="Arial, sans-serif" font-size="11">
    Utgående MVA
</text><text x="290" y="202" fill="#333" font-family="Arial, sans-serif" font-size="11">
    2.400
</text><path fill="#f8f8f8" d="M70 210h340v25H70z"/><text x="90" y="227" fill="#333" font-family="Arial, sans-serif" font-size="11">
    1500
</text><text x="180" y="227" fill="#333" font-family="Arial, sans-serif" font-size="11">
    Kundefordringer
</text><text x="350" y="227" fill="#333" font-family="Arial, sans-serif" font-size="11">
    12.000
</text><text x="240" y="260" fill="#333" font-family="Arial, sans-serif" font-size="12" font-weight="bold" text-anchor="middle">
    Eksempel: Kreditnota kr 12.000 (inkl. 25% MVA)
</text><text x="240" y="280" fill="#666" font-family="Arial, sans-serif" font-size="11" text-anchor="middle">
    Reduserer inntekt og kundefordring
</text><rect width="380" height="250" x="470" y="80" fill="#e3f2fd" stroke="#1976d2" stroke-width="2" rx="8"/><text x="660" y="110" fill="#1976d2" font-family="Arial, sans-serif" font-size="18" font-weight="bold" text-anchor="middle">
    Hos kjøper (mottar kreditnota)
</text><path fill="#1976d2" d="M490 130h340v30H490z"/><text x="510" y="150" fill="#fff" font-family="Arial, sans-serif" font-size="12" font-weight="bold">
    Konto
</text><text x="600" y="150" fill="#fff" font-family="Arial, sans-serif" font-size="12" font-weight="bold">
    Beskrivelse
</text><text x="710" y="150" fill="#fff" font-family="Arial, sans-serif" font-size="12" font-weight="bold">
    Debet
</text><text x="770" y="150" fill="#fff" font-family="Arial, sans-serif" font-size="12" font-weight="bold">
    Kredit
</text><path fill="#f8f8f8" d="M490 160h340v25H490z"/><text x="510" y="177" fill="#333" font-family="Arial, sans-serif" font-size="11">
    2400
</text><text x="600" y="177" fill="#333" font-family="Arial, sans-serif" font-size="11">
    Leverandørgjeld
</text><text x="710" y="177" fill="#333" font-family="Arial, sans-serif" font-size="11">
    12.000
</text><path fill="#fff" d="M490 185h340v25H490z"/><text x="510" y="202" fill="#333" font-family="Arial, sans-serif" font-size="11">
    4000
</text><text x="600" y="202" fill="#333" font-family="Arial, sans-serif" font-size="11">
    Varekostnad
</text><text x="770" y="202" fill="#333" font-family="Arial, sans-serif" font-size="11">
    9.600
</text><path fill="#f8f8f8" d="M490 210h340v25H490z"/><text x="510" y="227" fill="#333" font-family="Arial, sans-serif" font-size="11">
    2600
</text><text x="600" y="227" fill="#333" font-family="Arial, sans-serif" font-size="11">
    Inngående MVA
</text><text x="770" y="227" fill="#333" font-family="Arial, sans-serif" font-size="11">
    2.400
</text><text x="660" y="260" fill="#333" font-family="Arial, sans-serif" font-size="12" font-weight="bold" text-anchor="middle">
    Eksempel: Mottatt kreditnota kr 12.000
</text><text x="660" y="280" fill="#666" font-family="Arial, sans-serif" font-size="11" text-anchor="middle">
    Reduserer kostnad og leverandørgjeld
</text><text x="450" y="380" fill="#1a202c" font-family="Arial, sans-serif" font-size="18" font-weight="bold" text-anchor="middle">
    Bokføringsprosess
</text><rect width="150" height="60" x="100" y="410" fill="#fff3e0" stroke="#ff9800" rx="6"/><text x="175" y="430" fill="#ff9800" font-family="Arial, sans-serif" font-size="12" font-weight="bold" text-anchor="middle">
    1. Identifiser
</text><text x="175" y="450" fill="#333" font-family="Arial, sans-serif" font-size="11" text-anchor="middle">
    opprinnelig faktura
</text><path fill="#666" d="m260 440 20-10v20z"/><rect width="150" height="60" x="300" y="410" fill="#f3e5f5" stroke="#9c27b0" rx="6"/><text x="375" y="430" fill="#9c27b0" font-family="Arial, sans-serif" font-size="12" font-weight="bold" text-anchor="middle">
    2. Reverser
</text><text x="375" y="450" fill="#333" font-family="Arial, sans-serif" font-size="11" text-anchor="middle">
    opprinnelige poster
</text><path fill="#666" d="m460 440 20-10v20z"/><rect width="150" height="60" x="500" y="410" fill="#e0f2f1" stroke="#009688" rx="6"/><text x="575" y="430" fill="#009688" font-family="Arial, sans-serif" font-size="12" font-weight="bold" text-anchor="middle">
    3. Juster
</text><text x="575" y="450" fill="#333" font-family="Arial, sans-serif" font-size="11" text-anchor="middle">
    MVA-oppgave
</text><rect width="600" height="120" x="150" y="500" fill="#fffbf0" stroke="#ffc107" stroke-width="2" rx="8"/><text x="450" y="530" fill="#f57c00" font-family="Arial, sans-serif" font-size="16" font-weight="bold" text-anchor="middle">
    Viktige punkter
</text><text x="170" y="555" fill="#333" font-family="Arial, sans-serif" font-size="12">
    • Kreditnotaer må bokføres i samme periode som de utstedes
</text><text x="170" y="575" fill="#333" font-family="Arial, sans-serif" font-size="12">
    • MVA må justeres korrekt i MVA-oppgaven for riktig periode
</text><text x="170" y="595" fill="#333" font-family="Arial, sans-serif" font-size="12">
    • Koble alltid kreditnota til opprinnelig faktura for sporbarhet
</text><path fill="#666" d="m440 205 20-10v20z"/><text x="450" y="190" fill="#666" font-family="Arial, sans-serif" font-size="10" text-anchor="middle">
    Samme beløp,
</text><text x="450" y="225" fill="#666" font-family="Arial, sans-serif" font-size="10" text-anchor="middle">
    motsatt effekt
</text></svg>