<svg xmlns="http://www.w3.org/2000/svg" width="800" height="600"><defs><linearGradient id="a" x1="0%" x2="100%" y1="0%" y2="100%"><stop offset="0%" style="stop-color:#f8f9fa;stop-opacity:1"/><stop offset="100%" style="stop-color:#e9ecef;stop-opacity:1"/></linearGradient><linearGradient id="b" x1="0%" x2="100%" y1="0%" y2="100%"><stop offset="0%" style="stop-color:#007bff;stop-opacity:1"/><stop offset="100%" style="stop-color:#0056b3;stop-opacity:1"/></linearGradient><linearGradient id="c" x1="0%" x2="100%" y1="0%" y2="100%"><stop offset="0%" style="stop-color:#28a745;stop-opacity:1"/><stop offset="100%" style="stop-color:#1e7e34;stop-opacity:1"/></linearGradient><linearGradient id="d" x1="0%" x2="100%" y1="0%" y2="100%"><stop offset="0%" style="stop-color:#dc3545;stop-opacity:1"/><stop offset="100%" style="stop-color:#c82333;stop-opacity:1"/></linearGradient></defs><path fill="url(#a)" d="M0 0h800v600H0z"/><text x="400" y="30" fill="#212529" font-family="Arial, sans-serif" font-size="24" font-weight="bold" text-anchor="middle">Sammenligning av Finansieringsinstrumenter</text><rect width="220" height="200" x="50" y="70" fill="url(#b)" stroke="#0056b3" stroke-width="2" rx="10"/><text x="160" y="95" fill="#fff" font-family="Arial, sans-serif" font-size="16" font-weight="bold" text-anchor="middle">OBLIGASJONER</text><text x="70" y="120" fill="#fff" font-family="Arial, sans-serif" font-size="11" font-weight="bold">Fordeler:</text><text x="70" y="135" fill="#fff" font-family="Arial, sans-serif" font-size="10">• Ofte lavere rente</text><text x="70" y="150" fill="#fff" font-family="Arial, sans-serif" font-size="10">• Omsettbart</text><text x="70" y="165" fill="#fff" font-family="Arial, sans-serif" font-size="10">• Fleksibel struktur</text><text x="70" y="180" fill="#fff" font-family="Arial, sans-serif" font-size="10">• Markedsfinansiering</text><text x="70" y="200" fill="#fff" font-family="Arial, sans-serif" font-size="11" font-weight="bold">Ulemper:</text><text x="70" y="215" fill="#fff" font-family="Arial, sans-serif" font-size="10">• Omfattende dokumentasjon</text><text x="70" y="230" fill="#fff" font-family="Arial, sans-serif" font-size="10">• Mindre fleksibel</text><text x="70" y="245" fill="#fff" font-family="Arial, sans-serif" font-size="10">• Offentlig informasjon</text><text x="70" y="260" fill="#fff" font-family="Arial, sans-serif" font-size="10">• Markedsrisiko</text><rect width="220" height="200" x="290" y="70" fill="url(#c)" stroke="#1e7e34" stroke-width="2" rx="10"/><text x="400" y="95" fill="#fff" font-family="Arial, sans-serif" font-size="16" font-weight="bold" text-anchor="middle">BANKLÅN</text><text x="310" y="120" fill="#fff" font-family="Arial, sans-serif" font-size="11" font-weight="bold">Fordeler:</text><text x="310" y="135" fill="#fff" font-family="Arial, sans-serif" font-size="10">• Mer fleksibel</text><text x="310" y="150" fill="#fff" font-family="Arial, sans-serif" font-size="10">• Enklere dokumentasjon</text><text x="310" y="165" fill="#fff" font-family="Arial, sans-serif" font-size="10">• Privat forhold</text><text x="310" y="180" fill="#fff" font-family="Arial, sans-serif" font-size="10">• Rask prosess</text><text x="310" y="200" fill="#fff" font-family="Arial, sans-serif" font-size="11" font-weight="bold">Ulemper:</text><text x="310" y="215" fill="#fff" font-family="Arial, sans-serif" font-size="10">• Høyere rente</text><text x="310" y="230" fill="#fff" font-family="Arial, sans-serif" font-size="10">• Ikke omsettbart</text><text x="310" y="245" fill="#fff" font-family="Arial, sans-serif" font-size="10">• Ofte sikkerhet kreves</text><text x="310" y="260" fill="#fff" font-family="Arial, sans-serif" font-size="10">• Gebyrer</text><rect width="220" height="200" x="530" y="70" fill="url(#d)" stroke="#c82333" stroke-width="2" rx="10"/><text x="640" y="95" fill="#fff" font-family="Arial, sans-serif" font-size="16" font-weight="bold" text-anchor="middle">AKSJER</text><text x="550" y="120" fill="#fff" font-family="Arial, sans-serif" font-size="11" font-weight="bold">Fordeler:</text><text x="550" y="135" fill="#fff" font-family="Arial, sans-serif" font-size="10">• Ingen tilbakebetalingsplikt</text><text x="550" y="150" fill="#fff" font-family="Arial, sans-serif" font-size="10">• Deler risiko</text><text x="550" y="165" fill="#fff" font-family="Arial, sans-serif" font-size="10">• Potensial for vekst</text><text x="550" y="180" fill="#fff" font-family="Arial, sans-serif" font-size="10">• Ingen rentekostnad</text><text x="550" y="200" fill="#fff" font-family="Arial, sans-serif" font-size="11" font-weight="bold">Ulemper:</text><text x="550" y="215" fill="#fff" font-family="Arial, sans-serif" font-size="10">• Deler eierskap</text><text x="550" y="230" fill="#fff" font-family="Arial, sans-serif" font-size="10">• Utbyttekrav</text><text x="550" y="245" fill="#fff" font-family="Arial, sans-serif" font-size="10">• Kontrollrisiko</text><text x="550" y="260" fill="#fff" font-family="Arial, sans-serif" font-size="10">• Høyere avkastningskrav</text><rect width="700" height="280" x="50" y="290" fill="#fff" stroke="#dee2e6" stroke-width="2" rx="10"/><text x="400" y="315" fill="#495057" font-family="Arial, sans-serif" font-size="18" font-weight="bold" text-anchor="middle">Detaljert Sammenligning</text><path fill="#f8f9fa" stroke="#dee2e6" d="M70 330h120v30H70z"/><text x="130" y="350" fill="#495057" font-family="Arial, sans-serif" font-size="12" font-weight="bold" text-anchor="middle">Aspekt</text><path fill="#cce5ff" stroke="#007bff" d="M190 330h150v30H190z"/><text x="265" y="350" fill="#004085" font-family="Arial, sans-serif" font-size="12" font-weight="bold" text-anchor="middle">Obligasjoner</text><path fill="#d4edda" stroke="#28a745" d="M340 330h150v30H340z"/><text x="415" y="350" fill="#155724" font-family="Arial, sans-serif" font-size="12" font-weight="bold" text-anchor="middle">Banklån</text><path fill="#f8d7da" stroke="#dc3545" d="M490 330h150v30H490z"/><text x="565" y="350" fill="#721c24" font-family="Arial, sans-serif" font-size="12" font-weight="bold" text-anchor="middle">Aksjer</text><path fill="#fff3cd" stroke="#ffc107" d="M640 330h80v30h-80z"/><text x="680" y="350" fill="#856404" font-family="Arial, sans-serif" font-size="12" font-weight="bold" text-anchor="middle">Vurdering</text><path fill="#f8f9fa" stroke="#dee2e6" d="M70 360h120v25H70z"/><text x="80" y="377" fill="#495057" font-family="Arial, sans-serif" font-size="10">Kostnad</text><path stroke="#dee2e6" d="M190 360h150v25H190z"/><text x="265" y="377" fill="#495057" font-family="Arial, sans-serif" font-size="10" text-anchor="middle">Lav-middels</text><path stroke="#dee2e6" d="M340 360h150v25H340z"/><text x="415" y="377" fill="#495057" font-family="Arial, sans-serif" font-size="10" text-anchor="middle">Middels-høy</text><path stroke="#dee2e6" d="M490 360h150v25H490z"/><text x="565" y="377" fill="#495057" font-family="Arial, sans-serif" font-size="10" text-anchor="middle">Høy (utbytte)</text><path stroke="#dee2e6" d="M640 360h80v25h-80z"/><text x="680" y="377" fill="#28a745" font-family="Arial, sans-serif" font-size="10" text-anchor="middle">Obligasjon</text><path fill="#f8f9fa" stroke="#dee2e6" d="M70 385h120v25H70z"/><text x="80" y="402" fill="#495057" font-family="Arial, sans-serif" font-size="10">Fleksibilitet</text><path stroke="#dee2e6" d="M190 385h150v25H190z"/><text x="265" y="402" fill="#495057" font-family="Arial, sans-serif" font-size="10" text-anchor="middle">Lav</text><path stroke="#dee2e6" d="M340 385h150v25H340z"/><text x="415" y="402" fill="#495057" font-family="Arial, sans-serif" font-size="10" text-anchor="middle">Høy</text><path stroke="#dee2e6" d="M490 385h150v25H490z"/><text x="565" y="402" fill="#495057" font-family="Arial, sans-serif" font-size="10" text-anchor="middle">Middels</text><path stroke="#dee2e6" d="M640 385h80v25h-80z"/><text x="680" y="402" fill="#28a745" font-family="Arial, sans-serif" font-size="10" text-anchor="middle">Banklån</text><path fill="#f8f9fa" stroke="#dee2e6" d="M70 410h120v25H70z"/><text x="80" y="427" fill="#495057" font-family="Arial, sans-serif" font-size="10">Likviditet</text><path stroke="#dee2e6" d="M190 410h150v25H190z"/><text x="265" y="427" fill="#495057" font-family="Arial, sans-serif" font-size="10" text-anchor="middle">Høy</text><path stroke="#dee2e6" d="M340 410h150v25H340z"/><text x="415" y="427" fill="#495057" font-family="Arial, sans-serif" font-size="10" text-anchor="middle">Ingen</text><path stroke="#dee2e6" d="M490 410h150v25H490z"/><text x="565" y="427" fill="#495057" font-family="Arial, sans-serif" font-size="10" text-anchor="middle">Høy</text><path stroke="#dee2e6" d="M640 410h80v25h-80z"/><text x="680" y="427" fill="#007bff" font-family="Arial, sans-serif" font-size="10" text-anchor="middle">Obligasjon</text><path fill="#f8f9fa" stroke="#dee2e6" d="M70 435h120v25H70z"/><text x="80" y="452" fill="#495057" font-family="Arial, sans-serif" font-size="10">Risiko</text><path stroke="#dee2e6" d="M190 435h150v25H190z"/><text x="265" y="452" fill="#495057" font-family="Arial, sans-serif" font-size="10" text-anchor="middle">Lav-middels</text><path stroke="#dee2e6" d="M340 435h150v25H340z"/><text x="415" y="452" fill="#495057" font-family="Arial, sans-serif" font-size="10" text-anchor="middle">Lav</text><path stroke="#dee2e6" d="M490 435h150v25H490z"/><text x="565" y="452" fill="#495057" font-family="Arial, sans-serif" font-size="10" text-anchor="middle">Høy</text><path stroke="#dee2e6" d="M640 435h80v25h-80z"/><text x="680" y="452" fill="#28a745" font-family="Arial, sans-serif" font-size="10" text-anchor="middle">Banklån</text><path fill="#f8f9fa" stroke="#dee2e6" d="M70 460h120v25H70z"/><text x="80" y="477" fill="#495057" font-family="Arial, sans-serif" font-size="10">Dokumentasjon</text><path stroke="#dee2e6" d="M190 460h150v25H190z"/><text x="265" y="477" fill="#495057" font-family="Arial, sans-serif" font-size="10" text-anchor="middle">Omfattende</text><path stroke="#dee2e6" d="M340 460h150v25H340z"/><text x="415" y="477" fill="#495057" font-family="Arial, sans-serif" font-size="10" text-anchor="middle">Enkel</text><path stroke="#dee2e6" d="M490 460h150v25H490z"/><text x="565" y="477" fill="#495057" font-family="Arial, sans-serif" font-size="10" text-anchor="middle">Omfattende</text><path stroke="#dee2e6" d="M640 460h80v25h-80z"/><text x="680" y="477" fill="#28a745" font-family="Arial, sans-serif" font-size="10" text-anchor="middle">Banklån</text><path fill="#f8f9fa" stroke="#dee2e6" d="M70 485h120v25H70z"/><text x="80" y="502" fill="#495057" font-family="Arial, sans-serif" font-size="10">Kontroll</text><path stroke="#dee2e6" d="M190 485h150v25H190z"/><text x="265" y="502" fill="#495057" font-family="Arial, sans-serif" font-size="10" text-anchor="middle">Beholdes</text><path stroke="#dee2e6" d="M340 485h150v25H340z"/><text x="415" y="502" fill="#495057" font-family="Arial, sans-serif" font-size="10" text-anchor="middle">Beholdes</text><path stroke="#dee2e6" d="M490 485h150v25H490z"/><text x="565" y="502" fill="#495057" font-family="Arial, sans-serif" font-size="10" text-anchor="middle">Deles</text><path stroke="#dee2e6" d="M640 485h80v25h-80z"/><text x="680" y="502" fill="#007bff" font-family="Arial, sans-serif" font-size="10" text-anchor="middle">Obligasjon</text><rect width="660" height="40" x="70" y="520" fill="#f8f9fa" stroke="#6c757d" rx="5"/><text x="400" y="535" fill="#495057" font-family="Arial, sans-serif" font-size="12" font-weight="bold" text-anchor="middle">Anbefaling</text><text x="400" y="550" fill="#6c757d" font-family="Arial, sans-serif" font-size="11" text-anchor="middle">Obligasjoner egner seg best for store, etablerte selskaper med stabil kontantstrøm</text><text x="400" y="562" fill="#6c757d" font-family="Arial, sans-serif" font-size="11" text-anchor="middle">som ønsker lavere finansieringskostnader og markedstilgang</text></svg>