<svg xmlns="http://www.w3.org/2000/svg" width="800" height="500" viewBox="0 0 800 500"><path fill="#f8fafc" d="M0 0h800v500H0z"/><text x="400" y="30" fill="#1e40af" font-family="Arial, sans-serif" font-size="22" font-weight="bold" text-anchor="middle">
    Lineær Avskrivning - Prosess og Beregning
  </text><rect width="600" height="320" x="100" y="80" fill="#fff" stroke="#cbd5e1" stroke-width="2" rx="8"/><path stroke="#374151" stroke-width="2" d="M150 100v260"/><text x="140" y="105" fill="#64748b" font-family="Arial, sans-serif" font-size="12" text-anchor="end">800.000</text><text x="140" y="145" fill="#64748b" font-family="Arial, sans-serif" font-size="12" text-anchor="end">700.000</text><text x="140" y="185" fill="#64748b" font-family="Arial, sans-serif" font-size="12" text-anchor="end">600.000</text><text x="140" y="225" fill="#64748b" font-family="Arial, sans-serif" font-size="12" text-anchor="end">500.000</text><text x="140" y="265" fill="#64748b" font-family="Arial, sans-serif" font-size="12" text-anchor="end">400.000</text><text x="140" y="305" fill="#64748b" font-family="Arial, sans-serif" font-size="12" text-anchor="end">300.000</text><text x="140" y="345" fill="#64748b" font-family="Arial, sans-serif" font-size="12" text-anchor="end">200.000</text><text x="120" y="230" fill="#1e40af" font-family="Arial, sans-serif" font-size="14" text-anchor="middle" transform="rotate(-90 120 230)">
    Bokført verdi (NOK)
  </text><path stroke="#374151" stroke-width="2" d="M150 360h530"/><text x="150" y="380" fill="#64748b" font-family="Arial, sans-serif" font-size="12" text-anchor="middle">0</text><text x="220" y="380" fill="#64748b" font-family="Arial, sans-serif" font-size="12" text-anchor="middle">1</text><text x="290" y="380" fill="#64748b" font-family="Arial, sans-serif" font-size="12" text-anchor="middle">2</text><text x="360" y="380" fill="#64748b" font-family="Arial, sans-serif" font-size="12" text-anchor="middle">3</text><text x="430" y="380" fill="#64748b" font-family="Arial, sans-serif" font-size="12" text-anchor="middle">4</text><text x="500" y="380" fill="#64748b" font-family="Arial, sans-serif" font-size="12" text-anchor="middle">5</text><text x="570" y="380" fill="#64748b" font-family="Arial, sans-serif" font-size="12" text-anchor="middle">6</text><text x="640" y="380" fill="#64748b" font-family="Arial, sans-serif" font-size="12" text-anchor="middle">7</text><text x="415" y="420" fill="#1e40af" font-family="Arial, sans-serif" font-size="14" text-anchor="middle">
    År
  </text><path stroke="#e2e8f0" stroke-dasharray="3,3" d="M150 140h530M150 180h530M150 220h530M150 260h530M150 300h530"/><path stroke="#dc2626" stroke-width="3" d="m150 100 490 240"/><circle cx="150" cy="100" r="4" fill="#dc2626"/><circle cx="220" cy="129" r="4" fill="#dc2626"/><circle cx="290" cy="158" r="4" fill="#dc2626"/><circle cx="360" cy="187" r="4" fill="#dc2626"/><circle cx="430" cy="216" r="4" fill="#dc2626"/><circle cx="500" cy="245" r="4" fill="#dc2626"/><circle cx="570" cy="274" r="4" fill="#dc2626"/><circle cx="640" cy="303" r="4" fill="#dc2626"/><path stroke="#16a34a" stroke-dasharray="5,5" stroke-width="3" d="M640 340h40"/><g transform="translate(160 85)"><rect width="120" height="35" fill="#dbeafe" stroke="#3b82f6" rx="4"/><text x="60" y="15" fill="#1e40af" font-family="Arial, sans-serif" font-size="11" font-weight="bold" text-anchor="middle">
      Anskaffelseskost
    </text><text x="60" y="28" fill="#1e40af" font-family="Arial, sans-serif" font-size="10" text-anchor="middle">
      800.000 kr
    </text></g><g transform="translate(550 320)"><rect width="100" height="35" fill="#dcfce7" stroke="#16a34a" rx="4"/><text x="50" y="15" fill="#15803d" font-family="Arial, sans-serif" font-size="11" font-weight="bold" text-anchor="middle">
      Restverdi
    </text><text x="50" y="28" fill="#15803d" font-family="Arial, sans-serif" font-size="10" text-anchor="middle">
      80.000 kr
    </text></g><path stroke="#f59e0b" stroke-width="2" marker-end="url(#a)" d="M0 0h70" transform="translate(300 180)"/><text x="35" y="-8" fill="#f59e0b" font-family="Arial, sans-serif" font-size="10" text-anchor="middle" transform="translate(300 180)">
      Årlig avskrivning: 90.000 kr
    </text><g transform="translate(50 440)"><rect width="700" height="50" fill="#fef3c7" stroke="#f59e0b" stroke-width="2" rx="8"/><text x="350" y="20" fill="#92400e" font-family="Arial, sans-serif" font-size="14" font-weight="bold" text-anchor="middle">
      Formel: Årlig avskrivning = (Anskaffelseskost - Restverdi) ÷ Brukstid
    </text><text x="350" y="38" fill="#92400e" font-family="Arial, sans-serif" font-size="12" text-anchor="middle">
      (800.000 - 80.000) ÷ 8 år = 90.000 kr per år
    </text></g><g transform="translate(720 100)"><rect width="70" height="180" fill="#fff" stroke="#cbd5e1" rx="4"/><text x="35" y="15" fill="#1e40af" font-family="Arial, sans-serif" font-size="10" font-weight="bold" text-anchor="middle">
      Bokført verdi
    </text><path stroke="#cbd5e1" d="M5 20h60"/><text x="35" y="35" fill="#64748b" font-family="Arial, sans-serif" font-size="9" text-anchor="middle">800.000</text><text x="35" y="50" fill="#64748b" font-family="Arial, sans-serif" font-size="9" text-anchor="middle">710.000</text><text x="35" y="65" fill="#64748b" font-family="Arial, sans-serif" font-size="9" text-anchor="middle">620.000</text><text x="35" y="80" fill="#64748b" font-family="Arial, sans-serif" font-size="9" text-anchor="middle">530.000</text><text x="35" y="95" fill="#64748b" font-family="Arial, sans-serif" font-size="9" text-anchor="middle">440.000</text><text x="35" y="110" fill="#64748b" font-family="Arial, sans-serif" font-size="9" text-anchor="middle">350.000</text><text x="35" y="125" fill="#64748b" font-family="Arial, sans-serif" font-size="9" text-anchor="middle">260.000</text><text x="35" y="140" fill="#64748b" font-family="Arial, sans-serif" font-size="9" text-anchor="middle">170.000</text><text x="35" y="155" fill="#64748b" font-family="Arial, sans-serif" font-size="9" text-anchor="middle">80.000</text></g><defs><marker id="a" markerHeight="7" markerWidth="10" orient="auto" refX="9" refY="3.5"><path fill="#f59e0b" d="m0 0 10 3.5L0 7z"/></marker></defs></svg>