<svg width="800" height="500" viewBox="0 0 800 500" xmlns="http://www.w3.org/2000/svg">
  <defs>
    <linearGradient id="truckGrad" x1="0%" y1="0%" x2="100%" y2="100%">
      <stop offset="0%" style="stop-color:#dc2626;stop-opacity:1" />
      <stop offset="100%" style="stop-color:#b91c1c;stop-opacity:1" />
    </linearGradient>
  </defs>
  

  <rect width="800" height="500" fill="#f1f5f9"/>
  

  <text x="400" y="30" text-anchor="middle" font-family="Arial, sans-serif" font-size="22" font-weight="bold" fill="#1e40af">
    LogiCorp AS - Transportselskap Driftsmidler
  </text>
  

  <g transform="translate(50, 50)">
    <rect x="0" y="0" width="700" height="40" fill="#dbeafe" stroke="#3b82f6" stroke-width="1" rx="6"/>
    <text x="350" y="20" text-anchor="middle" font-family="Arial, sans-serif" font-size="14" font-weight="bold" fill="#1e40af">
      Varetransport og logistikk - Total verdi: 18.500.000 kr
    </text>
    <text x="350" y="35" text-anchor="middle" font-family="Arial, sans-serif" font-size="11" fill="#1e40af">
      Spesialisert på langtransport og distribusjon i Norge og Skandinavia
    </text>
  </g>
  

  <rect x="50" y="100" width="700" height="350" fill="white" stroke="#cbd5e1" stroke-width="2" rx="8"/>
  

  <rect x="80" y="130" width="300" height="160" fill="#fee2e2" stroke="#ef4444" stroke-width="2" rx="6"/>
  <text x="230" y="150" text-anchor="middle" font-family="Arial, sans-serif" font-size="16" font-weight="bold" fill="#dc2626">
    Lastebilflåte (15 stk)
  </text>
  

  <g transform="translate(100, 170)">

    <rect x="0" y="8" width="60" height="20" fill="url(#truckGrad)" rx="2"/>
    <rect x="50" y="3" width="20" height="15" fill="#b91c1c" rx="2"/>
    <circle cx="15" cy="33" r="3" fill="#374151"/>
    <circle cx="30" cy="33" r="3" fill="#374151"/>
    <circle cx="55" cy="33" r="3" fill="#374151"/>
    <text x="35" y="50" text-anchor="middle" font-family="Arial, sans-serif" font-size="10" fill="#dc2626">Scania R-series</text>
  </g>
  
  <g transform="translate(200, 170)">
    <rect x="0" y="8" width="60" height="20" fill="url(#truckGrad)" rx="2"/>
    <rect x="50" y="3" width="20" height="15" fill="#b91c1c" rx="2"/>
    <circle cx="15" cy="33" r="3" fill="#374151"/>
    <circle cx="30" cy="33" r="3" fill="#374151"/>
    <circle cx="55" cy="33" r="3" fill="#374151"/>
    <text x="35" y="50" text-anchor="middle" font-family="Arial, sans-serif" font-size="10" fill="#dc2626">Volvo FH</text>
  </g>
  
  <g transform="translate(100, 220)">
    <rect x="0" y="8" width="50" height="18" fill="#dc2626" rx="2"/>
    <rect x="40" y="4" width="15" height="12" fill="#b91c1c" rx="2"/>
    <circle cx="12" cy="30" r="3" fill="#374151"/>
    <circle cx="38" cy="30" r="3" fill="#374151"/>
    <text x="27" y="45" text-anchor="middle" font-family="Arial, sans-serif" font-size="10" fill="#dc2626">Mercedes Actros</text>
  </g>
  
  <g transform="translate(200, 220)">
    <rect x="0" y="8" width="50" height="18" fill="#dc2626" rx="2"/>
    <rect x="40" y="4" width="15" height="12" fill="#b91c1c" rx="2"/>
    <circle cx="12" cy="30" r="3" fill="#374151"/>
    <circle cx="38" cy="30" r="3" fill="#374151"/>
    <text x="27" y="45" text-anchor="middle" font-family="Arial, sans-serif" font-size="10" fill="#dc2626">MAN TGX</text>
  </g>
  

  <g transform="translate(85, 265)">
    <rect x="0" y="0" width="290" height="20" fill="#fca5a5" stroke="#ef4444" rx="2"/>
    <text x="145" y="13" text-anchor="middle" font-family="Arial, sans-serif" font-size="12" font-weight="bold" fill="#7f1d1d">
      Gjennomsnittlig verdi: 800.000 kr | Total: 12.000.000 kr (65%)
    </text>
  </g>
  

  <rect x="400" y="130" width="200" height="160" fill="#dcfce7" stroke="#16a34a" stroke-width="2" rx="6"/>
  <text x="500" y="150" text-anchor="middle" font-family="Arial, sans-serif" font-size="16" font-weight="bold" fill="#15803d">
    Tilhengere (20 stk)
  </text>
  

  <g transform="translate(420, 170)">
    <rect x="0" y="10" width="50" height="20" fill="#10b981" rx="2"/>
    <rect x="5" y="15" width="40" height="10" fill="#059669"/>
    <circle cx="10" cy="35" r="2" fill="#374151"/>
    <circle cx="20" cy="35" r="2" fill="#374151"/>
    <circle cx="30" cy="35" r="2" fill="#374151"/>
    <circle cx="40" cy="35" r="2" fill="#374151"/>
    <text x="25" y="50" text-anchor="middle" font-family="Arial, sans-serif" font-size="9" fill="#15803d">Kasse tilhenger</text>
  </g>
  
  <g transform="translate(480, 170)">
    <rect x="0" y="10" width="50" height="20" fill="#10b981" rx="2"/>
    <rect x="5" y="15" width="40" height="10" fill="#059669"/>
    <circle cx="10" cy="35" r="2" fill="#374151"/>
    <circle cx="20" cy="35" r="2" fill="#374151"/>
    <circle cx="30" cy="35" r="2" fill="#374151"/>
    <circle cx="40" cy="35" r="2" fill="#374151"/>
    <text x="25" y="50" text-anchor="middle" font-family="Arial, sans-serif" font-size="9" fill="#15803d">Flatbed</text>
  </g>
  
  <g transform="translate(420, 220)">
    <rect x="0" y="10" width="50" height="20" fill="#10b981" rx="2"/>
    <rect x="5" y="12" width="40" height="6" fill="#047857"/>
    <rect x="5" y="20" width="40" height="6" fill="#047857"/>
    <circle cx="10" cy="35" r="2" fill="#374151"/>
    <circle cx="40" cy="35" r="2" fill="#374151"/>
    <text x="25" y="50" text-anchor="middle" font-family="Arial, sans-serif" font-size="9" fill="#15803d">Kjøl tilhenger</text>
  </g>
  
  <g transform="translate(480, 220)">
    <rect x="0" y="10" width="50" height="20" fill="#10b981" rx="2"/>
    <circle cx="25" cy="20" r="8" fill="#047857"/>
    <circle cx="10" cy="35" r="2" fill="#374151"/>
    <circle cx="40" cy="35" r="2" fill="#374151"/>
    <text x="25" y="50" text-anchor="middle" font-family="Arial, sans-serif" font-size="9" fill="#15803d">Tank tilhenger</text>
  </g>
  

  <g transform="translate(405, 265)">
    <rect x="0" y="0" width="190" height="20" fill="#a7f3d0" stroke="#16a34a" rx="2"/>
    <text x="95" y="13" text-anchor="middle" font-family="Arial, sans-serif" font-size="12" font-weight="bold" fill="#14532d">
      Gjennomsnitt: 200.000 kr | Total: 4.000.000 kr (22%)
    </text>
  </g>
  

  <rect x="620" y="130" width="110" height="160" fill="#fef3c7" stroke="#f59e0b" stroke-width="2" rx="6"/>
  <text x="675" y="150" text-anchor="middle" font-family="Arial, sans-serif" font-size="14" font-weight="bold" fill="#92400e">
    Lasteutstyr
  </text>
  

  <g transform="translate(635, 170)">
    <rect x="10" y="12" width="25" height="12" fill="#eab308" rx="2"/>
    <rect x="0" y="10" width="12" height="6" fill="#ca8a04" rx="2"/>
    <rect x="6" y="0" width="2" height="12" fill="#a16207"/>
    <circle cx="12" cy="26" r="2" fill="#374151"/>
    <circle cx="28" cy="26" r="2" fill="#374151"/>
    <text x="18" y="40" text-anchor="middle" font-family="Arial, sans-serif" font-size="8" fill="#92400e">Gaffeltruck</text>
  </g>
  

  <g transform="translate(650, 210)">
    <line x1="6" y1="0" x2="6" y2="15" stroke="#64748b" stroke-width="2"/>
    <line x1="6" y1="2" x2="20" y2="2" stroke="#64748b" stroke-width="1"/>
    <rect x="18" y="0" width="3" height="3" fill="#ef4444"/>
    <circle cx="6" cy="18" r="3" fill="#374151"/>
    <text x="12" y="30" text-anchor="middle" font-family="Arial, sans-serif" font-size="8" fill="#92400e">Mobil kran</text>
  </g>
  

  <g transform="translate(635, 240)">
    <rect x="0" y="5" width="20" height="8" fill="#8b5cf6" rx="1"/>
    <rect x="3" y="0" width="14" height="6" fill="#7c3aed" rx="1"/>
    <text x="10" y="25" text-anchor="middle" font-family="Arial, sans-serif" font-size="8" fill="#92400e">Lasterampe</text>
  </g>
  

  <g transform="translate(625, 265)">
    <rect x="0" y="0" width="100" height="20" fill="#fde68a" stroke="#f59e0b" rx="2"/>
    <text x="50" y="13" text-anchor="middle" font-family="Arial, sans-serif" font-size="10" font-weight="bold" fill="#78350f">
      1.200.000 kr (6%)
    </text>
  </g>
  

  <rect x="80" y="310" width="300" height="120" fill="#f3e8ff" stroke="#8b5cf6" stroke-width="2" rx="6"/>
  <text x="230" y="330" text-anchor="middle" font-family="Arial, sans-serif" font-size="16" font-weight="bold" fill="#7c3aed">
    Terminalutstyr
  </text>
  

  <g transform="translate(100, 350)">
    <rect x="0" y="0" width="40" height="25" fill="#8b5cf6" rx="2"/>
    <rect x="5" y="5" width="30" height="15" fill="#7c3aed"/>
    <rect x="10" y="8" width="20" height="9" fill="#a855f7"/>
    <text x="20" y="40" text-anchor="middle" font-family="Arial, sans-serif" font-size="9" fill="#7c3aed">Vektbru</text>
  </g>
  
  <g transform="translate(160, 350)">
    <rect x="0" y="5" width="30" height="15" fill="#6b7280" rx="2"/>
    <rect x="5" y="8" width="20" height="9" fill="#374151"/>
    <circle cx="25" cy="10" r="1" fill="#10b981"/>
    <circle cx="25" cy="13" r="1" fill="#f59e0b"/>
    <circle cx="25" cy="16" r="1" fill="#ef4444"/>
    <text x="15" y="40" text-anchor="middle" font-family="Arial, sans-serif" font-size="9" fill="#7c3aed">Kontrollanlegg</text>
  </g>
  
  <g transform="translate(220, 350)">
    <rect x="0" y="5" width="25" height="15" fill="#059669" rx="2"/>
    <rect x="3" y="8" width="19" height="9" fill="#047857"/>
    <rect x="5" y="10" width="15" height="5" fill="#10b981"/>
    <text x="12" y="40" text-anchor="middle" font-family="Arial, sans-serif" font-size="9" fill="#7c3aed">Sortering</text>
  </g>
  
  <g transform="translate(270, 350)">
    <rect x="0" y="0" width="20" height="20" fill="#f59e0b" rx="2"/>
    <rect x="3" y="3" width="14" height="14" fill="#d97706"/>
    <rect x="6" y="6" width="8" height="8" fill="#fbbf24"/>
    <text x="10" y="35" text-anchor="middle" font-family="Arial, sans-serif" font-size="9" fill="#7c3aed">Lager</text>
  </g>
  

  <g transform="translate(85, 395)">
    <rect x="0" y="0" width="290" height="20" fill="#ddd6fe" stroke="#8b5cf6" rx="2"/>
    <text x="145" y="13" text-anchor="middle" font-family="Arial, sans-serif" font-size="12" font-weight="bold" fill="#581c87">
      Terminal og lagerfasiliteter: 800.000 kr (4%)
    </text>
  </g>
  

  <rect x="400" y="310" width="330" height="120" fill="#dcfce7" stroke="#16a34a" stroke-width="2" rx="6"/>
  <text x="565" y="330" text-anchor="middle" font-family="Arial, sans-serif" font-size="16" font-weight="bold" fill="#15803d">
    IT og Administrasjon
  </text>
  

  <g transform="translate(420, 350)">
    <rect x="0" y="3" width="25" height="15" fill="#6b7280" rx="2"/>
    <rect x="3" y="6" width="19" height="9" fill="#374151"/>
    <rect x="5" y="8" width="15" height="5" fill="#10b981"/>
    <text x="12" y="30" text-anchor="middle" font-family="Arial, sans-serif" font-size="9" fill="#15803d">Server</text>
  </g>
  
  <g transform="translate(460, 350)">
    <rect x="5" y="5" width="15" height="10" fill="#374151" rx="1"/>
    <rect x="7" y="7" width="11" height="6" fill="#10b981"/>
    <rect x="10" y="17" width="8" height="2" fill="#6b7280"/>
    <text x="12" y="30" text-anchor="middle" font-family="Arial, sans-serif" font-size="9" fill="#15803d">PC</text>
  </g>
  
  <g transform="translate(500, 350)">
    <rect x="0" y="8" width="20" height="12" fill="#8b5cf6" rx="2"/>
    <rect x="3" y="11" width="14" height="6" fill="#7c3aed"/>
    <text x="10" y="30" text-anchor="middle" font-family="Arial, sans-serif" font-size="9" fill="#15803d">GPS system</text>
  </g>
  
  <g transform="translate(540, 350)">
    <rect x="0" y="5" width="18" height="10" fill="#f59e0b" rx="1"/>
    <rect x="2" y="7" width="14" height="6" fill="#d97706"/>
    <text x="9" y="30" text-anchor="middle" font-family="Arial, sans-serif" font-size="9" fill="#15803d">Ruteplan</text>
  </g>
  
  <g transform="translate(580, 350)">
    <rect x="0" y="5" width="15" height="10" fill="#ef4444" rx="1"/>
    <rect x="2" y="7" width="11" height="6" fill="#dc2626"/>
    <text x="7" y="30" text-anchor="middle" font-family="Arial, sans-serif" font-size="9" fill="#15803d">Kommunikasjon</text>
  </g>
  
  <g transform="translate(620, 350)">
    <rect x="0" y="3" width="20" height="12" fill="#059669" rx="2"/>
    <rect x="3" y="6" width="14" height="6" fill="#047857"/>
    <text x="10" y="30" text-anchor="middle" font-family="Arial, sans-serif" font-size="9" fill="#15803d">Kontormøbler</text>
  </g>
  
  <g transform="translate(660, 350)">
    <rect x="0" y="5" width="15" height="10" fill="#64748b" rx="1"/>
    <rect x="2" y="7" width="11" height="6" fill="#475569"/>
    <text x="7" y="30" text-anchor="middle" font-family="Arial, sans-serif" font-size="9" fill="#15803d">Sikkerhet</text>
  </g>
  

  <g transform="translate(405, 395)">
    <rect x="0" y="0" width="320" height="20" fill="#a7f3d0" stroke="#16a34a" rx="2"/>
    <text x="160" y="13" text-anchor="middle" font-family="Arial, sans-serif" font-size="12" font-weight="bold" fill="#14532d">
      IT-systemer og administrasjon: 500.000 kr (3%)
    </text>
  </g>
  

  <g transform="translate(50, 470)">
    <rect x="0" y="0" width="700" height="25" fill="#f0f9ff" stroke="#0ea5e9" stroke-width="1" rx="4"/>
    <text x="350" y="17" text-anchor="middle" font-family="Arial, sans-serif" font-size="14" font-weight="bold" fill="#0c4a6e">
      Flåteutnyttelse: 85% | Km per år: 2.1M | Drivstofforbruk: 28 l/100km | Vedlikehold: 3.5% av verdi
    </text>
  </g>
</svg>