<svg xmlns="http://www.w3.org/2000/svg" width="800" height="400" viewBox="0 0 800 400"><path fill="#f8fafc" d="M0 0h800v400H0z"/><text x="400" y="30" fill="#1e40af" font-family="Arial, sans-serif" font-size="20" font-weight="bold" text-anchor="middle">
    Verdsettelse av Varige Driftsmidler Over Tid
  </text><rect width="600" height="250" x="100" y="70" fill="#fff" stroke="#cbd5e1" stroke-width="2" rx="8"/><path stroke="#374151" stroke-width="2" d="M150 90v200"/><text x="140" y="95" fill="#64748b" font-family="Arial, sans-serif" font-size="11" text-anchor="end">1000k</text><text x="140" y="125" fill="#64748b" font-family="Arial, sans-serif" font-size="11" text-anchor="end">800k</text><text x="140" y="155" fill="#64748b" font-family="Arial, sans-serif" font-size="11" text-anchor="end">600k</text><text x="140" y="185" fill="#64748b" font-family="Arial, sans-serif" font-size="11" text-anchor="end">400k</text><text x="140" y="215" fill="#64748b" font-family="Arial, sans-serif" font-size="11" text-anchor="end">200k</text><text x="140" y="245" fill="#64748b" font-family="Arial, sans-serif" font-size="11" text-anchor="end">0k</text><text x="120" y="190" fill="#1e40af" font-family="Arial, sans-serif" font-size="12" text-anchor="middle" transform="rotate(-90 120 190)">
    Verdi (NOK)
  </text><path stroke="#374151" stroke-width="2" d="M150 290h500"/><text x="200" y="310" fill="#64748b" font-family="Arial, sans-serif" font-size="11" text-anchor="middle">År 1</text><text x="300" y="310" fill="#64748b" font-family="Arial, sans-serif" font-size="11" text-anchor="middle">År 2</text><text x="400" y="310" fill="#64748b" font-family="Arial, sans-serif" font-size="11" text-anchor="middle">År 3</text><text x="500" y="310" fill="#64748b" font-family="Arial, sans-serif" font-size="11" text-anchor="middle">År 4</text><text x="600" y="310" fill="#64748b" font-family="Arial, sans-serif" font-size="11" text-anchor="middle">År 5</text><text x="400" y="340" fill="#1e40af" font-family="Arial, sans-serif" font-size="12" text-anchor="middle">
    Tid
  </text><path stroke="#e2e8f0" stroke-dasharray="3,3" d="M150 120h500M150 150h500M150 180h500M150 210h500M150 240h500"/><path stroke="#f59e0b" stroke-dasharray="5,5" stroke-width="2" d="M150 90h500"/><text x="660" y="95" fill="#f59e0b" font-family="Arial, sans-serif" font-size="10">Anskaffelseskost</text><path stroke="#3b82f6" stroke-width="3" d="m150 90 450 180"/><circle cx="150" cy="90" r="4" fill="#3b82f6"/><circle cx="200" cy="120" r="4" fill="#3b82f6"/><circle cx="300" cy="150" r="4" fill="#3b82f6"/><circle cx="400" cy="180" r="4" fill="#3b82f6"/><circle cx="500" cy="210" r="4" fill="#3b82f6"/><circle cx="600" cy="240" r="4" fill="#3b82f6"/><g transform="translate(160 85)"><rect width="80" height="25" fill="#fef3c7" stroke="#f59e0b" rx="3"/><text x="40" y="12" fill="#92400e" font-family="Arial, sans-serif" font-size="9" font-weight="bold" text-anchor="middle">
      Anskaffelse
    </text><text x="40" y="22" fill="#92400e" font-family="Arial, sans-serif" font-size="9" text-anchor="middle">
      1.000.000 kr
    </text></g><g transform="translate(520 245)"><rect width="80" height="25" fill="#dcfce7" stroke="#16a34a" rx="3"/><text x="40" y="12" fill="#15803d" font-family="Arial, sans-serif" font-size="9" font-weight="bold" text-anchor="middle">
      Restverdi
    </text><text x="40" y="22" fill="#15803d" font-family="Arial, sans-serif" font-size="9" text-anchor="middle">
      200.000 kr
    </text></g><g transform="translate(720 100)"><rect width="70" height="180" fill="#f8fafc" stroke="#cbd5e1" rx="4"/><text x="35" y="15" fill="#1e40af" font-family="Arial, sans-serif" font-size="11" font-weight="bold" text-anchor="middle">
      Formel
    </text><text x="35" y="35" fill="#64748b" font-family="Arial, sans-serif" font-size="9" text-anchor="middle">
      Bokført verdi =
    </text><text x="35" y="55" fill="#f59e0b" font-family="Arial, sans-serif" font-size="9" text-anchor="middle">
      Anskaffelseskost
    </text><text x="35" y="67" fill="#64748b" font-family="Arial, sans-serif" font-size="8" text-anchor="middle">
      minus
    </text><text x="35" y="80" fill="#3b82f6" font-family="Arial, sans-serif" font-size="9" text-anchor="middle">
      Akkumulerte
    </text><text x="35" y="92" fill="#3b82f6" font-family="Arial, sans-serif" font-size="9" text-anchor="middle">
      avskrivninger
    </text><text x="35" y="104" fill="#64748b" font-family="Arial, sans-serif" font-size="8" text-anchor="middle">
      minus
    </text><text x="35" y="117" fill="#ef4444" font-family="Arial, sans-serif" font-size="9" text-anchor="middle">
      Nedskrivninger
    </text><path stroke="#cbd5e1" d="M5 130h60"/><text x="35" y="145" fill="#1e40af" font-family="Arial, sans-serif" font-size="8" font-weight="bold" text-anchor="middle">
      År 3 eksempel:
    </text><text x="35" y="157" fill="#64748b" font-family="Arial, sans-serif" font-size="8" text-anchor="middle">
      1.000.000
    </text><text x="35" y="167" fill="#64748b" font-family="Arial, sans-serif" font-size="8" text-anchor="middle">
      - 400.000
    </text><text x="35" y="177" fill="#64748b" font-family="Arial, sans-serif" font-size="8" text-anchor="middle">
      = 600.000
    </text></g><g transform="translate(200 350)"><rect width="400" height="40" fill="#f1f5f9" stroke="#94a3b8" rx="4"/><text x="200" y="15" fill="#1e40af" font-family="Arial, sans-serif" font-size="12" font-weight="bold" text-anchor="middle">
      Avskrivningskomponenter
    </text><g transform="translate(20 20)"><rect width="80" height="15" fill="#fef3c7" stroke="#f59e0b" rx="2"/><text x="40" y="11" fill="#92400e" font-family="Arial, sans-serif" font-size="9" text-anchor="middle">Anskaffelseskost</text></g><g transform="translate(110 20)"><rect width="80" height="15" fill="#dbeafe" stroke="#3b82f6" rx="2"/><text x="40" y="11" fill="#1e40af" font-family="Arial, sans-serif" font-size="9" text-anchor="middle">Akk. avskrivninger</text></g><g transform="translate(200 20)"><rect width="80" height="15" fill="#fee2e2" stroke="#ef4444" rx="2"/><text x="40" y="11" fill="#dc2626" font-family="Arial, sans-serif" font-size="9" text-anchor="middle">Nedskrivninger</text></g><g transform="translate(290 20)"><rect width="80" height="15" fill="#dcfce7" stroke="#16a34a" rx="2"/><text x="40" y="11" fill="#15803d" font-family="Arial, sans-serif" font-size="9" text-anchor="middle">Bokført verdi</text></g></g></svg>