<svg xmlns="http://www.w3.org/2000/svg" width="800" height="500"><defs><linearGradient id="a" x1="0%" x2="100%" y1="0%" y2="100%"><stop offset="0%" style="stop-color:#f8f9fa;stop-opacity:1"/><stop offset="100%" style="stop-color:#e9ecef;stop-opacity:1"/></linearGradient><linearGradient id="b" x1="0%" x2="100%" y1="0%" y2="100%"><stop offset="0%" style="stop-color:#4dabf7;stop-opacity:1"/><stop offset="100%" style="stop-color:#1c7ed6;stop-opacity:1"/></linearGradient><linearGradient id="c" x1="0%" x2="100%" y1="0%" y2="100%"><stop offset="0%" style="stop-color:#51cf66;stop-opacity:1"/><stop offset="100%" style="stop-color:#37b24d;stop-opacity:1"/></linearGradient><linearGradient id="d" x1="0%" x2="100%" y1="0%" y2="100%"><stop offset="0%" style="stop-color:#9775fa;stop-opacity:1"/><stop offset="100%" style="stop-color:#7048e8;stop-opacity:1"/></linearGradient></defs><path fill="url(#a)" d="M0 0h800v500H0z"/><text x="400" y="40" fill="#212529" font-family="Arial, sans-serif" font-size="24" font-weight="bold" text-anchor="middle">
    Digitale Verktøy for Likviditetsanalyse
  </text><g transform="translate(300 80)"><rect width="200" height="120" fill="url(#b)" stroke="#1c7ed6" stroke-width="3" rx="8"/><rect width="180" height="90" x="10" y="10" fill="#fff" opacity=".9" rx="4"/><rect width="60" height="30" x="20" y="20" fill="#51cf66" rx="2"/><text x="50" y="32" fill="#fff" font-family="Arial, sans-serif" font-size="8" text-anchor="middle">Likviditet</text><text x="50" y="42" fill="#fff" font-family="Arial, sans-serif" font-size="10" font-weight="bold" text-anchor="middle">1.67</text><rect width="60" height="30" x="90" y="20" fill="#fd7e14" rx="2"/><text x="120" y="32" fill="#fff" font-family="Arial, sans-serif" font-size="8" text-anchor="middle">Kontant</text><text x="120" y="42" fill="#fff" font-family="Arial, sans-serif" font-size="10" font-weight="bold" text-anchor="middle">0.33</text><rect width="20" height="30" x="160" y="20" fill="#e03131" rx="2"/><text x="170" y="38" fill="#fff" font-family="Arial, sans-serif" font-size="12" font-weight="bold" text-anchor="middle">⚠</text><rect width="160" height="30" x="20" y="60" fill="#e9ecef" rx="2"/><path fill="none" stroke="#4dabf7" stroke-width="2" d="m30 85 20-10 20 5 20-10 20 5 20-10 20 5 20-10"/><text x="100" y="115" fill="#fff" font-family="Arial, sans-serif" font-size="14" font-weight="bold" text-anchor="middle">
      DASHBOARD
    </text></g><g transform="translate(50 240)"><rect width="200" height="180" fill="url(#c)" stroke="#37b24d" stroke-width="2" rx="10"/><text x="100" y="25" fill="#fff" font-family="Arial, sans-serif" font-size="16" font-weight="bold" text-anchor="middle">
      REGNSKAPSSYSTEMER
    </text><rect width="50" height="30" x="75" y="35" fill="#fff" opacity=".3" rx="4"/><rect width="40" height="20" x="80" y="40" fill="#fff" opacity=".5" rx="2"/><text x="20" y="90" fill="#fff" font-family="Arial, sans-serif" font-size="12" font-weight="bold">
      Funksjoner:
    </text><text x="20" y="110" fill="#fff" font-family="Arial, sans-serif" font-size="11">
      • Automatisk rapportering
    </text><text x="20" y="125" fill="#fff" font-family="Arial, sans-serif" font-size="11">
      • Sanntids nøkkeltall
    </text><text x="20" y="140" fill="#fff" font-family="Arial, sans-serif" font-size="11">
      • Integrerte dashboards
    </text><text x="20" y="155" fill="#fff" font-family="Arial, sans-serif" font-size="11">
      • Prognosefunksjonalitet
    </text><text x="20" y="170" fill="#fff" font-family="Arial, sans-serif" font-size="11">
      • Historisk analyse
    </text></g><g transform="translate(300 240)"><rect width="200" height="180" fill="url(#d)" stroke="#7048e8" stroke-width="2" rx="10"/><text x="100" y="25" fill="#fff" font-family="Arial, sans-serif" font-size="16" font-weight="bold" text-anchor="middle">
      SPESIALISERTE VERKTØY
    </text><circle cx="100" cy="55" r="20" fill="#fff" opacity=".3"/><text x="100" y="62" fill="#fff" font-family="Arial, sans-serif" font-size="16" font-weight="bold" text-anchor="middle">
      ⚙️
    </text><text x="20" y="90" fill="#fff" font-family="Arial, sans-serif" font-size="12" font-weight="bold">
      Funksjoner:
    </text><text x="20" y="110" fill="#fff" font-family="Arial, sans-serif" font-size="11">
      • Kontantstrømplanlegging
    </text><text x="20" y="125" fill="#fff" font-family="Arial, sans-serif" font-size="11">
      • Kredittovervåking
    </text><text x="20" y="140" fill="#fff" font-family="Arial, sans-serif" font-size="11">
      • Scenarioanalyse
    </text><text x="20" y="155" fill="#fff" font-family="Arial, sans-serif" font-size="11">
      • Risikostyring
    </text><text x="20" y="170" fill="#fff" font-family="Arial, sans-serif" font-size="11">
      • Benchmarking
    </text></g><g transform="translate(550 240)"><rect width="200" height="180" fill="#fd7e14" stroke="#e8590c" stroke-width="2" rx="10"/><text x="100" y="25" fill="#fff" font-family="Arial, sans-serif" font-size="16" font-weight="bold" text-anchor="middle">
      BANKINTEGRASJON
    </text><rect width="50" height="30" x="75" y="35" fill="#fff" opacity=".3" rx="4"/><rect width="30" height="5" x="85" y="40" fill="#fff" opacity=".5" rx="1"/><rect width="30" height="5" x="85" y="50" fill="#fff" opacity=".5" rx="1"/><rect width="30" height="5" x="85" y="60" fill="#fff" opacity=".5" rx="1"/><text x="20" y="90" fill="#fff" font-family="Arial, sans-serif" font-size="12" font-weight="bold">
      Funksjoner:
    </text><text x="20" y="110" fill="#fff" font-family="Arial, sans-serif" font-size="11">
      • Sanntids kontosaldo
    </text><text x="20" y="125" fill="#fff" font-family="Arial, sans-serif" font-size="11">
      • Automatisk avstemming
    </text><text x="20" y="140" fill="#fff" font-family="Arial, sans-serif" font-size="11">
      • Transaksjonsovervåking
    </text><text x="20" y="155" fill="#fff" font-family="Arial, sans-serif" font-size="11">
      • Betalingsautomatisering
    </text><text x="20" y="170" fill="#fff" font-family="Arial, sans-serif" font-size="11">
      • Likviditetsprognoser
    </text></g><path stroke="#495057" stroke-width="2" d="M250 140h50M500 140h50M400 200v40"/><path fill="none" stroke="#495057" stroke-width="2" d="m270 130 10 10-10 10M520 130l10 10-10 10M390 220l10 10 10-10"/><g font-family="Arial, sans-serif" text-anchor="middle"><text x="200" y="20" fill="#212529" font-size="16" font-weight="bold" transform="translate(200 450)">
      Fordeler med Digitale Verktøy
    </text><text x="200" y="40" fill="#495057" font-size="12" transform="translate(200 450)">
      Sanntidsdata • Automatisering • Bedre prognoser • Redusert risiko • Effektiv rapportering
    </text></g></svg>