<svg xmlns="http://www.w3.org/2000/svg" width="800" height="600"><defs><linearGradient id="a" x1="0%" x2="100%" y1="0%" y2="100%"><stop offset="0%" style="stop-color:#f8f9fa;stop-opacity:1"/><stop offset="100%" style="stop-color:#e9ecef;stop-opacity:1"/></linearGradient><linearGradient id="b" x1="0%" x2="0%" y1="0%" y2="100%"><stop offset="0%" style="stop-color:#06c;stop-opacity:.8"/><stop offset="100%" style="stop-color:#049;stop-opacity:.8"/></linearGradient></defs><path fill="url(#a)" stroke="#dee2e6" stroke-width="2" d="M0 0h800v600H0z"/><text x="400" y="40" fill="#333" font-family="Arial, sans-serif" font-size="24" font-weight="bold" text-anchor="middle">
    Analyse og Nøkkeltall for Inntekter
  </text><rect width="700" height="120" x="50" y="80" fill="url(#b)" stroke="#06c" stroke-width="2" rx="10"/><text x="400" y="110" fill="#fff" font-family="Arial, sans-serif" font-size="18" font-weight="bold" text-anchor="middle">
    VIKTIGE NØKKELTALL
  </text><rect width="150" height="60" x="70" y="130" fill="#fff" fill-opacity=".9" rx="5"/><text x="145" y="150" fill="#06c" font-family="Arial, sans-serif" font-size="12" font-weight="bold" text-anchor="middle">
    Inntektsvekst
  </text><text x="145" y="170" fill="#666" font-family="Arial, sans-serif" font-size="10" text-anchor="middle">
    (Årets - Fjorårets) ÷
  </text><text x="145" y="185" fill="#666" font-family="Arial, sans-serif" font-size="10" text-anchor="middle">
    Fjorårets × 100
  </text><rect width="150" height="60" x="240" y="130" fill="#fff" fill-opacity=".9" rx="5"/><text x="315" y="150" fill="#06c" font-family="Arial, sans-serif" font-size="12" font-weight="bold" text-anchor="middle">
    Inntekt per ansatt
  </text><text x="315" y="170" fill="#666" font-family="Arial, sans-serif" font-size="10" text-anchor="middle">
    Totale inntekter ÷
  </text><text x="315" y="185" fill="#666" font-family="Arial, sans-serif" font-size="10" text-anchor="middle">
    Antall ansatte
  </text><rect width="150" height="60" x="410" y="130" fill="#fff" fill-opacity=".9" rx="5"/><text x="485" y="150" fill="#06c" font-family="Arial, sans-serif" font-size="12" font-weight="bold" text-anchor="middle">
    Inntektsmargin
  </text><text x="485" y="170" fill="#666" font-family="Arial, sans-serif" font-size="10" text-anchor="middle">
    Resultat ÷ Totale
  </text><text x="485" y="185" fill="#666" font-family="Arial, sans-serif" font-size="10" text-anchor="middle">
    inntekter × 100
  </text><rect width="150" height="60" x="580" y="130" fill="#fff" fill-opacity=".9" rx="5"/><text x="655" y="150" fill="#06c" font-family="Arial, sans-serif" font-size="12" font-weight="bold" text-anchor="middle">
    Inntektssammensetning
  </text><text x="655" y="170" fill="#666" font-family="Arial, sans-serif" font-size="10" text-anchor="middle">
    Andel av ulike
  </text><text x="655" y="185" fill="#666" font-family="Arial, sans-serif" font-size="10" text-anchor="middle">
    inntektstyper
  </text><rect width="340" height="200" x="50" y="230" fill="#fff" stroke="#28a745" stroke-width="2" rx="10"/><text x="220" y="260" fill="#28a745" font-family="Arial, sans-serif" font-size="16" font-weight="bold" text-anchor="middle">
    TRENDANALYSE
  </text><rect width="300" height="120" x="70" y="280" fill="#f8f9fa" stroke="#dee2e6" rx="5"/><path stroke="#666" d="M90 380h260M90 380v-80"/><circle cx="110" cy="360" r="3" fill="#28a745"/><circle cx="150" cy="340" r="3" fill="#28a745"/><circle cx="190" cy="330" r="3" fill="#28a745"/><circle cx="230" cy="320" r="3" fill="#28a745"/><circle cx="270" cy="310" r="3" fill="#28a745"/><circle cx="310" cy="305" r="3" fill="#28a745"/><path stroke="#28a745" stroke-width="2" d="m110 360 200-55"/><text x="90" y="395" fill="#666" font-family="Arial, sans-serif" font-size="8" text-anchor="middle">2019</text><text x="150" y="395" fill="#666" font-family="Arial, sans-serif" font-size="8" text-anchor="middle">2020</text><text x="190" y="395" fill="#666" font-family="Arial, sans-serif" font-size="8" text-anchor="middle">2021</text><text x="230" y="395" fill="#666" font-family="Arial, sans-serif" font-size="8" text-anchor="middle">2022</text><text x="270" y="395" fill="#666" font-family="Arial, sans-serif" font-size="8" text-anchor="middle">2023</text><text x="310" y="395" fill="#666" font-family="Arial, sans-serif" font-size="8" text-anchor="middle">2024</text><text x="220" y="415" fill="#28a745" font-family="Arial, sans-serif" font-size="10" font-weight="bold" text-anchor="middle">
    Stabil vekst: 10,7% årlig gjennomsnitt
  </text><rect width="340" height="200" x="410" y="230" fill="#fff" stroke="#ffc107" stroke-width="2" rx="10"/><text x="580" y="260" fill="#ffc107" font-family="Arial, sans-serif" font-size="16" font-weight="bold" text-anchor="middle">
    INNTEKTSSAMMENSETNING
  </text><circle cx="580" cy="340" r="60" fill="none" stroke="#dee2e6" stroke-width="2"/><path fill="#28a745" d="M580 280a60 60 0 1 1 40 120l-40-60Z" opacity=".8"/><path fill="#06c" d="M620 400a60 60 0 0 1-80 0l40-60Z" opacity=".8"/><path fill="#ffc107" d="M540 400a60 60 0 0 1 40-120v60Z" opacity=".8"/><path fill="#28a745" d="M430 360h12v12h-12z"/><text x="450" y="371" fill="#333" font-family="Arial, sans-serif" font-size="10">Driftsinntekter (85%)</text><path fill="#06c" d="M430 380h12v12h-12z"/><text x="450" y="391" fill="#333" font-family="Arial, sans-serif" font-size="10">Finansinntekter (10%)</text><path fill="#ffc107" d="M430 400h12v12h-12z"/><text x="450" y="411" fill="#333" font-family="Arial, sans-serif" font-size="10">Andre inntekter (5%)</text><rect width="700" height="120" x="50" y="450" fill="#f8f9fa" stroke="#17a2b8" stroke-width="2" rx="10"/><text x="400" y="480" fill="#17a2b8" font-family="Arial, sans-serif" font-size="16" font-weight="bold" text-anchor="middle">
    ANALYSEINNSIKTER
  </text><rect width="200" height="60" x="70" y="500" fill="#fff" stroke="#28a745" rx="5"/><text x="170" y="520" fill="#28a745" font-family="Arial, sans-serif" font-size="12" font-weight="bold" text-anchor="middle">
    Positiv utvikling
  </text><text x="80" y="540" fill="#666" font-family="Arial, sans-serif" font-size="10">
    • Stabil vekst over tid
  </text><text x="80" y="555" fill="#666" font-family="Arial, sans-serif" font-size="10">
    • Diversifiserte inntektskilder
  </text><rect width="200" height="60" x="300" y="500" fill="#fff" stroke="#ffc107" rx="5"/><text x="400" y="520" fill="#ffc107" font-family="Arial, sans-serif" font-size="12" font-weight="bold" text-anchor="middle">
    Overvåkingsområder
  </text><text x="310" y="540" fill="#666" font-family="Arial, sans-serif" font-size="10">
    • Sesongvariasjoner
  </text><text x="310" y="555" fill="#666" font-family="Arial, sans-serif" font-size="10">
    • Kundekonsentrasjon
  </text><rect width="200" height="60" x="530" y="500" fill="#fff" stroke="#dc3545" rx="5"/><text x="630" y="520" fill="#dc3545" font-family="Arial, sans-serif" font-size="12" font-weight="bold" text-anchor="middle">
    Risikoområder
  </text><text x="540" y="540" fill="#666" font-family="Arial, sans-serif" font-size="10">
    • Avhengighet av få kunder
  </text><text x="540" y="555" fill="#666" font-family="Arial, sans-serif" font-size="10">
    • Markedsendringer
  </text><circle cx="100" cy="60" r="15" fill="#06c" opacity=".1"/><text x="100" y="67" fill="#06c" font-family="Arial, sans-serif" font-size="12" font-weight="bold" text-anchor="middle">
    📊
  </text><circle cx="700" cy="60" r="15" fill="#28a745" opacity=".1"/><text x="700" y="67" fill="#28a745" font-family="Arial, sans-serif" font-size="12" font-weight="bold" text-anchor="middle">
    📈
  </text></svg>