<svg xmlns="http://www.w3.org/2000/svg" width="800" height="600"><defs><linearGradient id="a" x1="0%" x2="100%" y1="0%" y2="0%"><stop offset="0%" style="stop-color:#2563eb;stop-opacity:1"/><stop offset="100%" style="stop-color:#1d4ed8;stop-opacity:1"/></linearGradient></defs><path fill="#fff" d="M0 0h800v600H0z"/><path fill="url(#a)" d="M0 0h800v60H0z"/><text x="400" y="38" fill="#fff" font-family="Arial, sans-serif" font-size="24" font-weight="bold" text-anchor="middle">Arbeidsgiveravgift Soner i Norge</text><g transform="translate(50 100)"><path fill="#f1f5f9" stroke="#64748b" stroke-width="2" d="m150 50 50-10 50 20 30 40 20 50 20 50-10 50-20 50-20 50-20 50-30 50-40 30-40-10-40-20-20-50-10-50-10-50-10-50-10-50 10-50 30-50Z"/><ellipse cx="200" cy="80" fill="#10b981" fill-opacity=".7" stroke="#059669" stroke-width="2" rx="60" ry="30"/><text x="200" y="85" fill="#fff" font-family="Arial, sans-serif" font-size="14" font-weight="bold" text-anchor="middle">Sone V</text><text x="200" y="100" fill="#fff" font-family="Arial, sans-serif" font-size="12" text-anchor="middle">0%</text><ellipse cx="180" cy="140" fill="#22c55e" fill-opacity=".7" stroke="#16a34a" stroke-width="2" rx="70" ry="35"/><text x="180" y="145" fill="#fff" font-family="Arial, sans-serif" font-size="14" font-weight="bold" text-anchor="middle">Sone IV</text><text x="180" y="160" fill="#fff" font-family="Arial, sans-serif" font-size="12" text-anchor="middle">5,1%</text><ellipse cx="160" cy="220" fill="#84cc16" fill-opacity=".7" stroke="#65a30d" stroke-width="2" rx="80" ry="40"/><text x="160" y="225" fill="#fff" font-family="Arial, sans-serif" font-size="14" font-weight="bold" text-anchor="middle">Sone III</text><text x="160" y="240" fill="#fff" font-family="Arial, sans-serif" font-size="12" text-anchor="middle">6,4%</text><ellipse cx="150" cy="320" fill="#eab308" fill-opacity=".7" stroke="#ca8a04" stroke-width="2" rx="70" ry="35"/><text x="150" y="325" fill="#fff" font-family="Arial, sans-serif" font-size="14" font-weight="bold" text-anchor="middle">Sone II</text><text x="150" y="340" fill="#fff" font-family="Arial, sans-serif" font-size="12" text-anchor="middle">10,6%</text><ellipse cx="140" cy="400" fill="#dc2626" fill-opacity=".7" stroke="#b91c1c" stroke-width="2" rx="60" ry="30"/><text x="140" y="405" fill="#fff" font-family="Arial, sans-serif" font-size="14" font-weight="bold" text-anchor="middle">Sone I</text><text x="140" y="420" fill="#fff" font-family="Arial, sans-serif" font-size="12" text-anchor="middle">14,1%</text></g><rect width="320" height="400" x="450" y="120" fill="#f8fafc" stroke="#cbd5e1" stroke-width="2" rx="8"/><text x="610" y="145" fill="#1e293b" font-family="Arial, sans-serif" font-size="18" font-weight="bold" text-anchor="middle">Sonefordeling</text><path fill="#dc2626" d="M470 170h20v20h-20z"/><text x="500" y="185" fill="#1e293b" font-family="Arial, sans-serif" font-size="14" font-weight="bold">Sone I - 14,1%</text><text x="500" y="200" fill="#6b7280" font-family="Arial, sans-serif" font-size="12">Oslo, Akershus, Stavanger, Bergen,</text><text x="500" y="215" fill="#6b7280" font-family="Arial, sans-serif" font-size="12">Trondheim og andre store byer</text><path fill="#eab308" d="M470 235h20v20h-20z"/><text x="500" y="250" fill="#1e293b" font-family="Arial, sans-serif" font-size="14" font-weight="bold">Sone II - 10,6%</text><text x="500" y="265" fill="#6b7280" font-family="Arial, sans-serif" font-size="12">Mellomstore byer og tettsteder</text><text x="500" y="280" fill="#6b7280" font-family="Arial, sans-serif" font-size="12">som Kristiansand, Tromsø</text><path fill="#84cc16" d="M470 300h20v20h-20z"/><text x="500" y="315" fill="#1e293b" font-family="Arial, sans-serif" font-size="14" font-weight="bold">Sone III - 6,4%</text><text x="500" y="330" fill="#6b7280" font-family="Arial, sans-serif" font-size="12">Mindre tettsteder og</text><text x="500" y="345" fill="#6b7280" font-family="Arial, sans-serif" font-size="12">landbruksområder</text><path fill="#22c55e" d="M470 365h20v20h-20z"/><text x="500" y="380" fill="#1e293b" font-family="Arial, sans-serif" font-size="14" font-weight="bold">Sone IV - 5,1%</text><text x="500" y="395" fill="#6b7280" font-family="Arial, sans-serif" font-size="12">Distriktskommuner i</text><text x="500" y="410" fill="#6b7280" font-family="Arial, sans-serif" font-size="12">Nord-Norge og Vestlandet</text><path fill="#10b981" d="M470 430h20v20h-20z"/><text x="500" y="445" fill="#1e293b" font-family="Arial, sans-serif" font-size="14" font-weight="bold">Sone V - 0%</text><text x="500" y="460" fill="#6b7280" font-family="Arial, sans-serif" font-size="12">Nord-Troms og Finnmark</text><text x="500" y="475" fill="#6b7280" font-family="Arial, sans-serif" font-size="12">(spesielle støtteområder)</text><rect width="700" height="50" x="50" y="540" fill="#f0f9ff" stroke="#0ea5e9" rx="4"/><text x="60" y="560" fill="#0c4a6e" font-family="Arial, sans-serif" font-size="14" font-weight="bold">Eksempel beregning:</text><text x="60" y="580" fill="#374151" font-family="Arial, sans-serif" font-size="12">Lønn 500.000 kr i Sone I: 500.000 × 14,1% = 70.500 kr i arbeidsgiveravgift</text><text x="450" y="580" fill="#374151" font-family="Arial, sans-serif" font-size="12">Samme lønn i Sone V: 500.000 × 0% = 0 kr i arbeidsgiveravgift</text></svg>