<svg xmlns="http://www.w3.org/2000/svg" width="800" height="600"><defs><linearGradient id="a" x1="0%" x2="100%" y1="0%" y2="0%"><stop offset="0%" style="stop-color:#2563eb;stop-opacity:1"/><stop offset="100%" style="stop-color:#1d4ed8;stop-opacity:1"/></linearGradient></defs><path fill="#fff" d="M0 0h800v600H0z"/><path fill="url(#a)" d="M0 0h800v60H0z"/><text x="400" y="38" fill="#fff" font-family="Arial, sans-serif" font-size="24" font-weight="bold" text-anchor="middle">Komponenter i Total Lønnskostnad</text><path fill="#059669" stroke="#fff" stroke-width="2" d="M400 320V200a120 120 0 1 1-37.08 6.84Z"/><text x="-30" y="-60" fill="#fff" font-family="Arial, sans-serif" font-size="14" font-weight="bold" transform="translate(400 320)">Grunnlønn</text><text x="-30" y="-45" fill="#fff" font-family="Arial, sans-serif" font-size="12" transform="translate(400 320)">77.4%</text><path fill="#f59e0b" stroke="#fff" stroke-width="2" d="m400 320-37.08-113.16a120 120 0 0 1-30 18.05Z"/><text x="-65" y="-85" fill="#fff" font-family="Arial, sans-serif" font-size="12" font-weight="bold" transform="translate(400 320)">Feriepenger</text><text x="-65" y="-72" fill="#fff" font-family="Arial, sans-serif" font-size="11" transform="translate(400 320)">9.3%</text><path fill="#dc2626" stroke="#fff" stroke-width="2" d="m400 320-67.08-95.11a120 120 0 0 1-37.57 28.18Z"/><text x="-95" y="-55" fill="#fff" font-family="Arial, sans-serif" font-size="12" font-weight="bold" transform="translate(400 320)">Arbeidsgiver-</text><text x="-95" y="-42" fill="#fff" font-family="Arial, sans-serif" font-size="12" font-weight="bold" transform="translate(400 320)">avgift 10.9%</text><path fill="#8b5cf6" stroke="#fff" stroke-width="2" d="m400 320-104.65-66.93A120 120 0 0 1 280 320Z"/><text x="-110" y="-25" fill="#fff" font-family="Arial, sans-serif" font-size="11" font-weight="bold" transform="translate(400 320)">Pensjon &amp;</text><text x="-110" y="-12" fill="#fff" font-family="Arial, sans-serif" font-size="11" font-weight="bold" transform="translate(400 320)">forsikring</text><text x="-110" y="2" fill="#fff" font-family="Arial, sans-serif" font-size="11" transform="translate(400 320)">2.3%</text><path fill="#e5e7eb" stroke="#fff" stroke-width="2" d="M400 320H280a120 120 0 0 1 120-120Z"/><text x="50" y="120" fill="#1e293b" font-family="Arial, sans-serif" font-size="18" font-weight="bold">Kostnadsfordeling (500.000 kr grunnlønn):</text><path fill="#059669" d="M50 140h20v20H50z"/><text x="80" y="155" fill="#374151" font-family="Arial, sans-serif" font-size="14" font-weight="bold">Grunnlønn: 500.000 kr (77,4%)</text><text x="80" y="170" fill="#6b7280" font-family="Arial, sans-serif" font-size="12">Bruttolønn som utbetales til ansatt</text><path fill="#f59e0b" d="M50 190h20v20H50z"/><text x="80" y="205" fill="#374151" font-family="Arial, sans-serif" font-size="14" font-weight="bold">Feriepenger: 60.000 kr (9,3%)</text><text x="80" y="220" fill="#6b7280" font-family="Arial, sans-serif" font-size="12">12% av opptjent lønn, utbetales ved ferie</text><path fill="#dc2626" d="M50 240h20v20H50z"/><text x="80" y="255" fill="#374151" font-family="Arial, sans-serif" font-size="14" font-weight="bold">Arbeidsgiveravgift: 70.500 kr (10,9%)</text><text x="80" y="270" fill="#6b7280" font-family="Arial, sans-serif" font-size="12">14,1% avgift til staten (varierer etter sone)</text><path fill="#8b5cf6" d="M50 290h20v20H50z"/><text x="80" y="305" fill="#374151" font-family="Arial, sans-serif" font-size="14" font-weight="bold">Pensjon &amp; forsikring: 15.000 kr (2,3%)</text><text x="80" y="320" fill="#6b7280" font-family="Arial, sans-serif" font-size="12">Obligatorisk tjenestepensjon og forsikringer</text><rect width="300" height="120" x="450" y="140" fill="#f8fafc" stroke="#cbd5e1" stroke-width="2" rx="8"/><text x="600" y="165" fill="#1e293b" font-family="Arial, sans-serif" font-size="18" font-weight="bold" text-anchor="middle">Total Årlig Lønnskostnad</text><text x="600" y="195" fill="#dc2626" font-family="Arial, sans-serif" font-size="32" font-weight="bold" text-anchor="middle">645.500 kr</text><text x="600" y="220" fill="#6b7280" font-family="Arial, sans-serif" font-size="14" text-anchor="middle">Månedlig kostnad:</text><text x="600" y="240" fill="#374151" font-family="Arial, sans-serif" font-size="18" font-weight="bold" text-anchor="middle">53.792 kr</text><text x="450" y="300" fill="#1e293b" font-family="Arial, sans-serif" font-size="16" font-weight="bold">Beregning:</text><text x="450" y="325" fill="#374151" font-family="Arial, sans-serif" font-size="14">Grunnlønn:</text><text x="650" y="325" fill="#374151" font-family="Arial, sans-serif" font-size="14">500.000 kr</text><text x="450" y="345" fill="#374151" font-family="Arial, sans-serif" font-size="14">+ Arbeidsgiveravgift (14,1%):</text><text x="650" y="345" fill="#374151" font-family="Arial, sans-serif" font-size="14">70.500 kr</text><text x="450" y="365" fill="#374151" font-family="Arial, sans-serif" font-size="14">+ Feriepenger (12%):</text><text x="650" y="365" fill="#374151" font-family="Arial, sans-serif" font-size="14">60.000 kr</text><text x="450" y="385" fill="#374151" font-family="Arial, sans-serif" font-size="14">+ Pensjon &amp; forsikring:</text><text x="650" y="385" fill="#374151" font-family="Arial, sans-serif" font-size="14">15.000 kr</text><path stroke="#cbd5e1" d="M450 395h300"/><text x="450" y="415" fill="#1e293b" font-family="Arial, sans-serif" font-size="16" font-weight="bold">Total:</text><text x="650" y="415" fill="#dc2626" font-family="Arial, sans-serif" font-size="16" font-weight="bold">645.500 kr</text><text x="50" y="480" fill="#6b7280" font-family="Arial, sans-serif" font-size="12" font-style="italic">Merk: Prosentsatsene kan variere avhengig av geografisk sone (arbeidsgiveravgift)</text><text x="50" y="500" fill="#6b7280" font-family="Arial, sans-serif" font-size="12" font-style="italic">og bedriftens pensjonsordning. Eksemplet viser typiske satser for sone I.</text></svg>