<svg xmlns="http://www.w3.org/2000/svg" width="800" height="600" viewBox="0 0 800 600"><defs><linearGradient id="a" x1="0%" x2="100%" y1="0%" y2="100%"><stop offset="0%" style="stop-color:#2196f3;stop-opacity:1"/><stop offset="100%" style="stop-color:#0d47a1;stop-opacity:1"/></linearGradient><linearGradient id="b" x1="0%" x2="100%" y1="0%" y2="100%"><stop offset="0%" style="stop-color:#4caf50;stop-opacity:1"/><stop offset="100%" style="stop-color:#1b5e20;stop-opacity:1"/></linearGradient><linearGradient id="c" x1="0%" x2="100%" y1="0%" y2="100%"><stop offset="0%" style="stop-color:#ff9800;stop-opacity:1"/><stop offset="100%" style="stop-color:#e65100;stop-opacity:1"/></linearGradient><linearGradient id="d" x1="0%" x2="100%" y1="0%" y2="100%"><stop offset="0%" style="stop-color:#9c27b0;stop-opacity:1"/><stop offset="100%" style="stop-color:#4a148c;stop-opacity:1"/></linearGradient></defs><path fill="#f8f9fa" d="M0 0h800v600H0z"/><path fill="url(#a)" d="M0 0h800v60H0z"/><text x="400" y="35" fill="#fff" font-family="Arial, sans-serif" font-size="24" font-weight="bold" text-anchor="middle">
    Differanse Kontroll og Oppfølging
  </text><g transform="translate(50 80)"><rect width="220" height="160" fill="url(#b)" opacity=".9" rx="10"/><text x="110" y="25" fill="#fff" font-family="Arial, sans-serif" font-size="16" font-weight="bold" text-anchor="middle">
        Månedlig Oppfølging
      </text><g transform="translate(85 35)"><rect width="50" height="40" fill="#fff" opacity=".8" rx="3"/><rect width="50" height="8" fill="#fff" rx="3"/><path fill="url(#b)" d="M10 12h6v4h-6z"/><path fill="url(#b)" d="M20 12h6v4h-6z"/><path fill="url(#b)" d="M30 12h6v4h-6z"/><path fill="url(#b)" d="M10 20h6v4h-6z"/><path fill="url(#b)" d="M20 20h6v4h-6z"/><path fill="url(#b)" d="M30 20h6v4h-6z"/><text x="25" y="50" fill="#fff" font-family="Arial, sans-serif" font-size="8" text-anchor="middle">
          30 dager
        </text></g><g fill="#fff" transform="translate(15 85)"><circle cx="8" cy="8" r="4"/><text x="20" y="12" font-family="Arial, sans-serif" font-size="11">
          Budsjettrapporter med avviksanalyse
        </text><circle cx="8" cy="28" r="4"/><text x="20" y="32" font-family="Arial, sans-serif" font-size="11">
          Trendanalyse av gjentakende avvik
        </text><circle cx="8" cy="48" r="4"/><text x="20" y="52" font-family="Arial, sans-serif" font-size="11">
          Korrigerende tiltak ved vesentlige avvik
        </text></g></g><g transform="translate(290 80)"><rect width="220" height="160" fill="url(#c)" opacity=".9" rx="10"/><text x="110" y="25" fill="#fff" font-family="Arial, sans-serif" font-size="16" font-weight="bold" text-anchor="middle">
        Kvartalsvise Analyser
      </text><g fill="#fff"><path d="M85 75h50v2H85zM85 75h2V40h-2z"/><path d="M93 75h6V60h-6zM103 75h6V50h-6zM113 75h6V55h-6zM123 75h6V45h-6z" opacity=".7"/><text x="25" y="55" font-family="Arial, sans-serif" font-size="8" text-anchor="middle" transform="translate(85 35)">
          Q1-Q4
        </text></g><g fill="#fff" transform="translate(15 85)"><circle cx="8" cy="8" r="4"/><text x="20" y="12" font-family="Arial, sans-serif" font-size="11">
          Rullende prognoser basert på avvik
        </text><circle cx="8" cy="28" r="4"/><text x="20" y="32" font-family="Arial, sans-serif" font-size="11">
          Analyse av sesongvariasjoner
        </text><circle cx="8" cy="48" r="4"/><text x="20" y="52" font-family="Arial, sans-serif" font-size="11">
          Benchmarking mot bransje
        </text></g></g><g transform="translate(530 80)"><rect width="220" height="160" fill="url(#d)" opacity=".9" rx="10"/><text x="110" y="25" fill="#fff" font-family="Arial, sans-serif" font-size="16" font-weight="bold" text-anchor="middle">
        Årlige Evalueringer
      </text><g fill="#fff" transform="translate(95 35)"><circle cx="20" cy="20" r="18" opacity=".3"/><circle cx="20" cy="20" r="12" opacity=".5"/><circle cx="20" cy="20" r="6" opacity=".7"/><circle cx="20" cy="20" r="2"/><text x="20" y="50" font-family="Arial, sans-serif" font-size="8" text-anchor="middle">
          Mål
        </text></g><g fill="#fff" transform="translate(15 85)"><circle cx="8" cy="8" r="4"/><text x="20" y="12" font-family="Arial, sans-serif" font-size="11">
          Evaluering av budsjettprocess
        </text><circle cx="8" cy="28" r="4"/><text x="20" y="32" font-family="Arial, sans-serif" font-size="11">
          Analyse av systematiske avvik
        </text><circle cx="8" cy="48" r="4"/><text x="20" y="52" font-family="Arial, sans-serif" font-size="11">
          Forbedring av prognosemetoder
        </text></g></g><g transform="translate(50 260)"><rect width="700" height="200" fill="#6c757d" opacity=".9" rx="10"/><text x="350" y="25" fill="#fff" font-family="Arial, sans-serif" font-size="18" font-weight="bold" text-anchor="middle">
        Kontrollprosess for Differansehåndtering
      </text><g fill="#fff" transform="translate(50 50)"><rect width="120" height="120" opacity=".1" rx="5"/><text x="60" y="20" font-family="Arial, sans-serif" font-size="14" font-weight="bold" text-anchor="middle">
          1. Identifiser
        </text><circle cx="60" cy="45" r="15" opacity=".3"/><text x="60" y="50" font-family="Arial, sans-serif" font-size="16" text-anchor="middle">🔍</text><text x="10" y="75" font-family="Arial, sans-serif" font-size="10">
          • Automatisk rapportering
        </text><text x="10" y="90" font-family="Arial, sans-serif" font-size="10">
          • Varslingssystemer
        </text><text x="10" y="105" font-family="Arial, sans-serif" font-size="10">
          • Regelmessige kontroller
        </text></g><path fill="none" stroke="#fff" stroke-width="2" d="M180 110h30"/><path fill="#fff" d="m205 105 10 5-10 5z"/><g fill="#fff" transform="translate(220 50)"><rect width="120" height="120" opacity=".1" rx="5"/><text x="60" y="20" font-family="Arial, sans-serif" font-size="14" font-weight="bold" text-anchor="middle">
          2. Analyser
        </text><circle cx="60" cy="45" r="15" opacity=".3"/><text x="60" y="50" font-family="Arial, sans-serif" font-size="16" text-anchor="middle">📊</text><text x="10" y="75" font-family="Arial, sans-serif" font-size="10">
          • Årsaksanalyse
        </text><text x="10" y="90" font-family="Arial, sans-serif" font-size="10">
          • Trendvurdering
        </text><text x="10" y="105" font-family="Arial, sans-serif" font-size="10">
          • Risikovurdering
        </text></g><path fill="none" stroke="#fff" stroke-width="2" d="M350 110h30"/><path fill="#fff" d="m375 105 10 5-10 5z"/><g fill="#fff" transform="translate(390 50)"><rect width="120" height="120" opacity=".1" rx="5"/><text x="60" y="20" font-family="Arial, sans-serif" font-size="14" font-weight="bold" text-anchor="middle">
          3. Handle
        </text><circle cx="60" cy="45" r="15" opacity=".3"/><text x="60" y="50" font-family="Arial, sans-serif" font-size="16" text-anchor="middle">⚡</text><text x="10" y="75" font-family="Arial, sans-serif" font-size="10">
          • Korrigerende tiltak
        </text><text x="10" y="90" font-family="Arial, sans-serif" font-size="10">
          • Prosessforbedring
        </text><text x="10" y="105" font-family="Arial, sans-serif" font-size="10">
          • Forebyggende tiltak
        </text></g><path fill="none" stroke="#fff" stroke-width="2" d="M520 110h30"/><path fill="#fff" d="m545 105 10 5-10 5z"/><g fill="#fff" transform="translate(560 50)"><rect width="120" height="120" opacity=".1" rx="5"/><text x="60" y="20" font-family="Arial, sans-serif" font-size="14" font-weight="bold" text-anchor="middle">
          4. Overvåk
        </text><circle cx="60" cy="45" r="15" opacity=".3"/><text x="60" y="50" font-family="Arial, sans-serif" font-size="16" text-anchor="middle">👁</text><text x="10" y="75" font-family="Arial, sans-serif" font-size="10">
          • Effektmåling
        </text><text x="10" y="90" font-family="Arial, sans-serif" font-size="10">
          • Kontinuerlig oppfølging
        </text><text x="10" y="105" font-family="Arial, sans-serif" font-size="10">
          • Rapportering til ledelse
        </text></g><path fill="none" stroke="#fff" stroke-dasharray="5,5" stroke-width="2" d="M620 180q-270 20-540 0"/><path fill="#fff" d="m85 175-10 5 10 5z"/><text x="350" y="195" fill="#fff" font-family="Arial, sans-serif" font-size="10" text-anchor="middle">
        Kontinuerlig forbedring
      </text></g><g transform="translate(50 400)"><rect width="700" height="150" fill="#e9ecef" stroke="#6c757d" stroke-width="2" rx="10"/><text x="350" y="25" fill="#495057" font-family="Arial, sans-serif" font-size="16" font-weight="bold" text-anchor="middle">
      Nøkkelindikatorer for Differansekontroll
    </text><g transform="translate(50 40)"><rect width="150" height="80" fill="#fff" stroke="#6c757d" rx="5"/><text x="75" y="20" fill="#495057" font-family="Arial, sans-serif" font-size="12" font-weight="bold" text-anchor="middle">
          Avviksfrekvens
        </text><text x="75" y="40" fill="#28a745" font-family="Arial, sans-serif" font-size="20" font-weight="bold" text-anchor="middle">
          &lt; 5%
        </text><text x="75" y="55" fill="#6c757d" font-family="Arial, sans-serif" font-size="10" text-anchor="middle">
          av budsjetterte poster
        </text><text x="75" y="70" fill="#6c757d" font-family="Arial, sans-serif" font-size="10" text-anchor="middle">
          med vesentlige avvik
        </text></g><g transform="translate(225 40)"><rect width="150" height="80" fill="#fff" stroke="#6c757d" rx="5"/><text x="75" y="20" fill="#495057" font-family="Arial, sans-serif" font-size="12" font-weight="bold" text-anchor="middle">
          Oppfølgingstid
        </text><text x="75" y="40" fill="#ffc107" font-family="Arial, sans-serif" font-size="20" font-weight="bold" text-anchor="middle">
          &lt; 5 dager
        </text><text x="75" y="55" fill="#6c757d" font-family="Arial, sans-serif" font-size="10" text-anchor="middle">
          fra identifikasjon til
        </text><text x="75" y="70" fill="#6c757d" font-family="Arial, sans-serif" font-size="10" text-anchor="middle">
          korrigerende tiltak
        </text></g><g transform="translate(400 40)"><rect width="150" height="80" fill="#fff" stroke="#6c757d" rx="5"/><text x="75" y="20" fill="#495057" font-family="Arial, sans-serif" font-size="12" font-weight="bold" text-anchor="middle">
          Prognosepresisjion
        </text><text x="75" y="40" fill="#17a2b8" font-family="Arial, sans-serif" font-size="20" font-weight="bold" text-anchor="middle">
          &gt; 95%
        </text><text x="75" y="55" fill="#6c757d" font-family="Arial, sans-serif" font-size="10" text-anchor="middle">
          nøyaktighet i
        </text><text x="75" y="70" fill="#6c757d" font-family="Arial, sans-serif" font-size="10" text-anchor="middle">
          kvartalsprognoser
        </text></g><g transform="translate(575 40)"><rect width="150" height="80" fill="#fff" stroke="#6c757d" rx="5"/><text x="75" y="20" fill="#495057" font-family="Arial, sans-serif" font-size="12" font-weight="bold" text-anchor="middle">
          Automatiseringsgrad
        </text><text x="75" y="40" fill="#6f42c1" font-family="Arial, sans-serif" font-size="20" font-weight="bold" text-anchor="middle">
          &gt; 80%
        </text><text x="75" y="55" fill="#6c757d" font-family="Arial, sans-serif" font-size="10" text-anchor="middle">
          av rutinekontroller
        </text><text x="75" y="70" fill="#6c757d" font-family="Arial, sans-serif" font-size="10" text-anchor="middle">
          automatisert
        </text></g></g></svg>