<svg xmlns="http://www.w3.org/2000/svg" width="800" height="400"><defs><linearGradient id="a" x1="0%" x2="100%" y1="0%" y2="100%"><stop offset="0%" style="stop-color:#f8f9fa;stop-opacity:1"/><stop offset="100%" style="stop-color:#e9ecef;stop-opacity:1"/></linearGradient><linearGradient id="b" x1="0%" x2="100%" y1="0%" y2="0%"><stop offset="0%" style="stop-color:#06c;stop-opacity:1"/><stop offset="100%" style="stop-color:#049;stop-opacity:1"/></linearGradient></defs><path fill="url(#a)" stroke="#dee2e6" stroke-width="2" d="M0 0h800v400H0z"/><path fill="url(#b)" d="M0 0h800v80H0z"/><text x="400" y="45" fill="#fff" font-family="Arial, sans-serif" font-size="28" font-weight="bold" text-anchor="middle">
    Hva er Differanse i Regnskap?
  </text><rect width="700" height="240" x="50" y="120" fill="#fff" stroke="#dee2e6" rx="10"/><text x="150" y="150" fill="#495057" font-family="Arial, sans-serif" font-size="14" font-weight="bold" text-anchor="middle">Budsjett</text><rect width="100" height="40" x="100" y="160" fill="#28a745" stroke="#1e7e34" stroke-width="2" rx="5"/><text x="150" y="185" fill="#fff" font-family="Arial, sans-serif" font-size="16" font-weight="bold" text-anchor="middle">500 000</text><text x="300" y="150" fill="#495057" font-family="Arial, sans-serif" font-size="14" font-weight="bold" text-anchor="middle">Faktisk</text><rect width="100" height="40" x="250" y="160" fill="#007bff" stroke="#0056b3" stroke-width="2" rx="5"/><text x="300" y="185" fill="#fff" font-family="Arial, sans-serif" font-size="16" font-weight="bold" text-anchor="middle">576 000</text><path fill="none" stroke="#dc3545" stroke-width="3" marker-end="url(#c)" d="M210 180h30"/><text x="225" y="175" fill="#dc3545" font-family="Arial, sans-serif" font-size="12" font-weight="bold" text-anchor="middle">+76 000</text><defs><marker id="c" markerHeight="7" markerWidth="10" orient="auto" refX="9" refY="3.5"><path fill="#dc3545" d="m0 0 10 3.5L0 7z"/></marker></defs><text x="500" y="150" fill="#495057" font-family="Arial, sans-serif" font-size="14" font-weight="bold" text-anchor="middle">Typer Differanser</text><circle cx="450" cy="170" r="8" fill="#28a745"/><text x="470" y="175" fill="#495057" font-family="Arial, sans-serif" font-size="12">Budsjettavvik</text><circle cx="450" cy="190" r="8" fill="#ffc107"/><text x="470" y="195" fill="#495057" font-family="Arial, sans-serif" font-size="12">Skattemessige</text><circle cx="450" cy="210" r="8" fill="#dc3545"/><text x="470" y="215" fill="#495057" font-family="Arial, sans-serif" font-size="12">Avstemminger</text><text x="400" y="250" fill="#495057" font-family="Arial, sans-serif" font-size="14" font-weight="bold" text-anchor="middle">Analyse → Årsak → Handling</text><text x="400" y="340" fill="#495057" font-family="Arial, sans-serif" font-size="14" font-style="italic" text-anchor="middle">
    Systematisk identifikasjon og oppfølging av regnskapsmessige forskjeller
  </text></svg>