<svg xmlns="http://www.w3.org/2000/svg" width="800" height="500" viewBox="0 0 800 500"><path fill="#f8f9fa" d="M0 0h800v500H0z"/><text x="400" y="40" fill="#2c3e50" font-family="Arial, sans-serif" font-size="24" font-weight="bold" text-anchor="middle">
    Amortiseringsmetoder for Imaterielle Eiendeler
  </text><rect width="220" height="160" x="50" y="80" fill="#e8f5e8" stroke="#27ae60" stroke-width="3" rx="10"/><text x="160" y="110" fill="#27ae60" font-family="Arial, sans-serif" font-size="18" font-weight="bold" text-anchor="middle">
    Lineær Metode
  </text><text x="160" y="130" fill="#2c3e50" font-family="Arial, sans-serif" font-size="12" text-anchor="middle">
    Lik kostnad hvert år
  </text><path fill="#fff" stroke="#27ae60" d="M70 145h180v60H70z"/><path stroke="#2c3e50" d="M80 195h160M80 195v-40"/><path fill="#27ae60" d="M90 175h20v20H90zM120 175h20v20h-20zM150 175h20v20h-20zM180 175h20v20h-20zM210 175h20v20h-20z"/><text x="160" y="215" fill="#7f8c8d" font-family="Arial, sans-serif" font-size="10" text-anchor="middle">
    År 1-5: Lik amortisering
  </text><text x="160" y="230" fill="#7f8c8d" font-family="Arial, sans-serif" font-size="10" text-anchor="middle">
    Mest brukt for immaterielle eiendeler
  </text><rect width="220" height="160" x="290" y="80" fill="#e8f4fd" stroke="#3498db" stroke-width="3" rx="10"/><text x="400" y="110" fill="#3498db" font-family="Arial, sans-serif" font-size="18" font-weight="bold" text-anchor="middle">
    Degressiv Metode
  </text><text x="400" y="130" fill="#2c3e50" font-family="Arial, sans-serif" font-size="12" text-anchor="middle">
    Høyere kostnad i begynnelsen
  </text><path fill="#fff" stroke="#3498db" d="M310 145h180v60H310z"/><path stroke="#2c3e50" d="M320 195h160M320 195v-40"/><path fill="#3498db" d="M330 160h20v35h-20zM360 170h20v25h-20zM390 175h20v20h-20zM420 180h20v15h-20zM450 185h20v10h-20z"/><text x="400" y="215" fill="#7f8c8d" font-family="Arial, sans-serif" font-size="10" text-anchor="middle">
    År 1-5: Fallende amortisering
  </text><text x="400" y="230" fill="#7f8c8d" font-family="Arial, sans-serif" font-size="10" text-anchor="middle">
    For teknologi med rask foreldelse
  </text><rect width="220" height="160" x="530" y="80" fill="#fef9e7" stroke="#f39c12" stroke-width="3" rx="10"/><text x="640" y="110" fill="#f39c12" font-family="Arial, sans-serif" font-size="18" font-weight="bold" text-anchor="middle">
    Produksjonsbasert
  </text><text x="640" y="130" fill="#2c3e50" font-family="Arial, sans-serif" font-size="12" text-anchor="middle">
    Basert på faktisk bruk
  </text><path fill="#fff" stroke="#f39c12" d="M550 145h180v60H550z"/><path stroke="#2c3e50" d="M560 195h160M560 195v-40"/><path fill="#f39c12" d="M570 180h20v15h-20zM600 165h20v30h-20zM630 175h20v20h-20zM660 170h20v25h-20zM690 185h20v10h-20z"/><text x="640" y="215" fill="#7f8c8d" font-family="Arial, sans-serif" font-size="10" text-anchor="middle">
    År 1-5: Variabel amortisering
  </text><text x="640" y="230" fill="#7f8c8d" font-family="Arial, sans-serif" font-size="10" text-anchor="middle">
    For patenter med variabel bruk
  </text><rect width="700" height="180" x="50" y="270" fill="#fff" stroke="#2c3e50" stroke-width="3" rx="10"/><text x="400" y="300" fill="#2c3e50" font-family="Arial, sans-serif" font-size="20" font-weight="bold" text-anchor="middle">
    Typiske Amortiseringsperioder
  </text><path fill="#ecf0f1" stroke="#95a5a6" d="M70 320h150v30H70z"/><text x="145" y="340" fill="#2c3e50" font-family="Arial, sans-serif" font-size="12" font-weight="bold" text-anchor="middle">
    Eiendeltype
  </text><path fill="#ecf0f1" stroke="#95a5a6" d="M220 320h120v30H220z"/><text x="280" y="340" fill="#2c3e50" font-family="Arial, sans-serif" font-size="12" font-weight="bold" text-anchor="middle">
    Periode
  </text><path fill="#ecf0f1" stroke="#95a5a6" d="M340 320h200v30H340z"/><text x="440" y="340" fill="#2c3e50" font-family="Arial, sans-serif" font-size="12" font-weight="bold" text-anchor="middle">
    Begrunnelse
  </text><path fill="#ecf0f1" stroke="#95a5a6" d="M540 320h180v30H540z"/><text x="630" y="340" fill="#2c3e50" font-family="Arial, sans-serif" font-size="12" font-weight="bold" text-anchor="middle">
    Metode
  </text><path fill="#e8f5e8" stroke="#95a5a6" d="M70 350h150v25H70z"/><text x="80" y="367" fill="#2c3e50" font-family="Arial, sans-serif" font-size="11">Patenter</text><path fill="#fff" stroke="#95a5a6" d="M220 350h120v25H220z"/><text x="280" y="367" fill="#2c3e50" font-family="Arial, sans-serif" font-size="11" text-anchor="middle">20 år eller kortere</text><path fill="#fff" stroke="#95a5a6" d="M340 350h200v25H340z"/><text x="350" y="367" fill="#2c3e50" font-family="Arial, sans-serif" font-size="10">Juridisk beskyttelsesperiode</text><path fill="#fff" stroke="#95a5a6" d="M540 350h180v25H540z"/><text x="630" y="367" fill="#2c3e50" font-family="Arial, sans-serif" font-size="10" text-anchor="middle">Lineær/Produksjonsbasert</text><path fill="#e8f4fd" stroke="#95a5a6" d="M70 375h150v25H70z"/><text x="80" y="392" fill="#2c3e50" font-family="Arial, sans-serif" font-size="11">Varemerker</text><path fill="#fff" stroke="#95a5a6" d="M220 375h120v25H220z"/><text x="280" y="392" fill="#2c3e50" font-family="Arial, sans-serif" font-size="11" text-anchor="middle">10-20 år/Ubestemt</text><path fill="#fff" stroke="#95a5a6" d="M340 375h200v25H340z"/><text x="350" y="392" fill="#2c3e50" font-family="Arial, sans-serif" font-size="10">Fornyelsesmulighet</text><path fill="#fff" stroke="#95a5a6" d="M540 375h180v25H540z"/><text x="630" y="392" fill="#2c3e50" font-family="Arial, sans-serif" font-size="10" text-anchor="middle">Lineær</text><path fill="#fef9e7" stroke="#95a5a6" d="M70 400h150v25H70z"/><text x="80" y="417" fill="#2c3e50" font-family="Arial, sans-serif" font-size="11">Programvare</text><path fill="#fff" stroke="#95a5a6" d="M220 400h120v25H220z"/><text x="280" y="417" fill="#2c3e50" font-family="Arial, sans-serif" font-size="11" text-anchor="middle">3-10 år</text><path fill="#fff" stroke="#95a5a6" d="M340 400h200v25H340z"/><text x="350" y="417" fill="#2c3e50" font-family="Arial, sans-serif" font-size="10">Teknologisk utvikling</text><path fill="#fff" stroke="#95a5a6" d="M540 400h180v25H540z"/><text x="630" y="417" fill="#2c3e50" font-family="Arial, sans-serif" font-size="10" text-anchor="middle">Degressiv/Lineær</text><path fill="#fdedec" stroke="#95a5a6" d="M70 425h150v25H70z"/><text x="80" y="442" fill="#2c3e50" font-family="Arial, sans-serif" font-size="11">Kundelister</text><path fill="#fff" stroke="#95a5a6" d="M220 425h120v25H220z"/><text x="280" y="442" fill="#2c3e50" font-family="Arial, sans-serif" font-size="11" text-anchor="middle">5-15 år</text><path fill="#fff" stroke="#95a5a6" d="M340 425h200v25H340z"/><text x="350" y="442" fill="#2c3e50" font-family="Arial, sans-serif" font-size="10">Kunderelasjoners varighet</text><path fill="#fff" stroke="#95a5a6" d="M540 425h180v25H540z"/><text x="630" y="442" fill="#2c3e50" font-family="Arial, sans-serif" font-size="10" text-anchor="middle">Lineær</text><text x="400" y="480" fill="#7f8c8d" font-family="Arial, sans-serif" font-size="12" text-anchor="middle">
    Valg av amortiseringsmetode skal reflektere hvordan den økonomiske fordelen konsumeres
  </text></svg>