<svg xmlns="http://www.w3.org/2000/svg" width="800" height="600" viewBox="0 0 800 600"><defs><linearGradient id="a" x1="0%" x2="100%" y1="0%" y2="0%"><stop offset="0%" style="stop-color:#2563eb;stop-opacity:1"/><stop offset="100%" style="stop-color:#1d4ed8;stop-opacity:1"/></linearGradient><linearGradient id="b" x1="0%" x2="0%" y1="0%" y2="100%"><stop offset="0%" style="stop-color:#f8fafc;stop-opacity:1"/><stop offset="100%" style="stop-color:#e2e8f0;stop-opacity:1"/></linearGradient></defs><path fill="#fff" d="M0 0h800v600H0z"/><path fill="url(#a)" d="M0 0h800v80H0z"/><text x="400" y="45" fill="#fff" font-family="Arial, sans-serif" font-size="24" font-weight="bold" text-anchor="middle">
    Kundelister og Kunderelasjoner
  </text><g transform="translate(50 100)"><rect width="160" height="180" fill="url(#b)" stroke="#cbd5e1" stroke-width="2" rx="10"/><rect width="140" height="40" x="10" y="10" fill="#10b981" rx="5"/><text x="80" y="35" fill="#fff" font-family="Arial, sans-serif" font-size="14" font-weight="bold" text-anchor="middle">
      Aktive Kundelister
    </text><g transform="translate(20 60)"><circle cx="20" cy="20" r="15" fill="#059669" stroke="#fff" stroke-width="2"/><text x="20" y="25" fill="#fff" font-family="Arial, sans-serif" font-size="10" text-anchor="middle">游녻</text><circle cx="60" cy="20" r="15" fill="#059669" stroke="#fff" stroke-width="2"/><text x="60" y="25" fill="#fff" font-family="Arial, sans-serif" font-size="10" text-anchor="middle">游녻</text><circle cx="100" cy="20" r="15" fill="#059669" stroke="#fff" stroke-width="2"/><text x="100" y="25" fill="#fff" font-family="Arial, sans-serif" font-size="10" text-anchor="middle">游녻</text><circle cx="20" cy="60" r="15" fill="#059669" stroke="#fff" stroke-width="2"/><text x="20" y="65" fill="#fff" font-family="Arial, sans-serif" font-size="10" text-anchor="middle">游녻</text><circle cx="60" cy="60" r="15" fill="#059669" stroke="#fff" stroke-width="2"/><text x="60" y="65" fill="#fff" font-family="Arial, sans-serif" font-size="10" text-anchor="middle">游녻</text><circle cx="100" cy="60" r="15" fill="#059669" stroke="#fff" stroke-width="2"/><text x="100" y="65" fill="#fff" font-family="Arial, sans-serif" font-size="10" text-anchor="middle">游녻</text></g><text x="80" y="150" fill="#374151" font-family="Arial, sans-serif" font-size="12" text-anchor="middle">
      P친g친ende
    </text><text x="80" y="165" fill="#374151" font-family="Arial, sans-serif" font-size="12" text-anchor="middle">
      handelsforhold
    </text><rect width="160" height="180" x="190" fill="url(#b)" stroke="#cbd5e1" stroke-width="2" rx="10"/><rect width="140" height="40" x="200" y="10" fill="#f59e0b" rx="5"/><text x="270" y="35" fill="#fff" font-family="Arial, sans-serif" font-size="14" font-weight="bold" text-anchor="middle">
      Historiske Lister
    </text><g transform="translate(210 60)"><circle cx="20" cy="20" r="15" fill="#d97706" stroke="#fff" stroke-width="2"/><text x="20" y="25" fill="#fff" font-family="Arial, sans-serif" font-size="10" text-anchor="middle">游녻</text><circle cx="60" cy="20" r="15" fill="#d97706" stroke="#fff" stroke-width="2"/><text x="60" y="25" fill="#fff" font-family="Arial, sans-serif" font-size="10" text-anchor="middle">游녻</text><circle cx="100" cy="20" r="15" fill="#d97706" stroke="#fff" stroke-width="2"/><text x="100" y="25" fill="#fff" font-family="Arial, sans-serif" font-size="10" text-anchor="middle">游녻</text><circle cx="20" cy="60" r="15" fill="#d97706" stroke="#fff" stroke-width="2"/><text x="20" y="65" fill="#fff" font-family="Arial, sans-serif" font-size="10" text-anchor="middle">游녻</text><circle cx="60" cy="60" r="15" fill="#d97706" stroke="#fff" stroke-width="2"/><text x="60" y="65" fill="#fff" font-family="Arial, sans-serif" font-size="10" text-anchor="middle">游녻</text></g><text x="270" y="150" fill="#374151" font-family="Arial, sans-serif" font-size="12" text-anchor="middle">
      Potensial for
    </text><text x="270" y="165" fill="#374151" font-family="Arial, sans-serif" font-size="12" text-anchor="middle">
      reaktivering
    </text><rect width="160" height="180" x="380" fill="url(#b)" stroke="#cbd5e1" stroke-width="2" rx="10"/><rect width="140" height="40" x="390" y="10" fill="#8b5cf6" rx="5"/><text x="460" y="35" fill="#fff" font-family="Arial, sans-serif" font-size="14" font-weight="bold" text-anchor="middle">
      Segmenterte Lister
    </text><g transform="translate(390 60)"><rect width="40" height="30" x="10" y="10" fill="#7c3aed" rx="5"/><text x="30" y="30" fill="#fff" font-family="Arial, sans-serif" font-size="10" text-anchor="middle">VIP</text><rect width="40" height="30" x="60" y="10" fill="#a855f7" rx="5"/><text x="80" y="30" fill="#fff" font-family="Arial, sans-serif" font-size="10" text-anchor="middle">MID</text><rect width="40" height="30" x="110" y="10" fill="#c084fc" rx="5"/><text x="130" y="30" fill="#fff" font-family="Arial, sans-serif" font-size="10" text-anchor="middle">LOW</text></g><text x="460" y="150" fill="#374151" font-family="Arial, sans-serif" font-size="12" text-anchor="middle">
      Kategorisert etter
    </text><text x="460" y="165" fill="#374151" font-family="Arial, sans-serif" font-size="12" text-anchor="middle">
      verdi og potensial
    </text><rect width="160" height="180" x="570" fill="url(#b)" stroke="#cbd5e1" stroke-width="2" rx="10"/><rect width="140" height="40" x="580" y="10" fill="#dc2626" rx="5"/><text x="650" y="30" fill="#fff" font-family="Arial, sans-serif" font-size="12" font-weight="bold" text-anchor="middle">
      Kontraktsfestede
    </text><text x="650" y="45" fill="#fff" font-family="Arial, sans-serif" font-size="12" font-weight="bold" text-anchor="middle">
      Relasjoner
    </text><g transform="translate(590 60)"><rect width="30" height="40" x="10" y="10" fill="#b91c1c" stroke="#fff" stroke-width="2" rx="3"/><text x="25" y="35" fill="#fff" font-family="Arial, sans-serif" font-size="8" text-anchor="middle">游늯</text><rect width="30" height="40" x="50" y="10" fill="#b91c1c" stroke="#fff" stroke-width="2" rx="3"/><text x="65" y="35" fill="#fff" font-family="Arial, sans-serif" font-size="8" text-anchor="middle">游늯</text><rect width="30" height="40" x="90" y="10" fill="#b91c1c" stroke="#fff" stroke-width="2" rx="3"/><text x="105" y="35" fill="#fff" font-family="Arial, sans-serif" font-size="8" text-anchor="middle">游늯</text></g><text x="650" y="150" fill="#374151" font-family="Arial, sans-serif" font-size="12" text-anchor="middle">
      Langsiktige
    </text><text x="650" y="165" fill="#374151" font-family="Arial, sans-serif" font-size="12" text-anchor="middle">
      avtaler
    </text><text x="365" y="20" fill="#1f2937" font-family="Arial, sans-serif" font-size="18" font-weight="bold" text-anchor="middle" transform="translate(0 220)">
        Verdiskapning fra Kunderelasjoner
      </text><path stroke="#10b981" stroke-width="3" marker-end="url(#c)" d="M0 20h150" transform="translate(100 260)"/><text x="75" y="15" fill="#059669" font-family="Arial, sans-serif" font-size="12" text-anchor="middle" transform="translate(100 260)">
          Gjentagende salg
        </text><path stroke="#f59e0b" stroke-width="3" marker-end="url(#d)" d="M0 20h150" transform="translate(300 260)"/><text x="75" y="15" fill="#d97706" font-family="Arial, sans-serif" font-size="12" text-anchor="middle" transform="translate(300 260)">
          Krysssalg muligheter
        </text><path stroke="#8b5cf6" stroke-width="3" marker-end="url(#e)" d="M0 20h150" transform="translate(500 260)"/><text x="75" y="15" fill="#7c3aed" font-family="Arial, sans-serif" font-size="12" text-anchor="middle" transform="translate(500 260)">
          M친lrettet markedsf칮ring
        </text><g transform="translate(50 350)"><rect width="650" height="120" fill="#f1f5f9" stroke="#cbd5e1" rx="10"/><text x="325" y="25" fill="#1f2937" font-family="Arial, sans-serif" font-size="16" font-weight="bold" text-anchor="middle">
        N칮kkelindikatorer for Kunderelasjoner
      </text><g transform="translate(20 40)"><rect width="120" height="60" fill="#fff" stroke="#e2e8f0" rx="5"/><text x="60" y="20" fill="#374151" font-family="Arial, sans-serif" font-size="12" font-weight="bold" text-anchor="middle">
          Kundelojalitet
        </text><text x="60" y="40" fill="#10b981" font-family="Arial, sans-serif" font-size="18" font-weight="bold" text-anchor="middle">
          85%
        </text></g><g transform="translate(160 40)"><rect width="120" height="60" fill="#fff" stroke="#e2e8f0" rx="5"/><text x="60" y="20" fill="#374151" font-family="Arial, sans-serif" font-size="12" font-weight="bold" text-anchor="middle">
          Gjennomsnittlig
        </text><text x="60" y="35" fill="#374151" font-family="Arial, sans-serif" font-size="12" font-weight="bold" text-anchor="middle">
          kundevarighet
        </text><text x="60" y="55" fill="#f59e0b" font-family="Arial, sans-serif" font-size="16" font-weight="bold" text-anchor="middle">
          4.2 친r
        </text></g><g transform="translate(300 40)"><rect width="120" height="60" fill="#fff" stroke="#e2e8f0" rx="5"/><text x="60" y="20" fill="#374151" font-family="Arial, sans-serif" font-size="12" font-weight="bold" text-anchor="middle">
          Kundelivstidsverdi
        </text><text x="60" y="40" fill="#8b5cf6" font-family="Arial, sans-serif" font-size="16" font-weight="bold" text-anchor="middle">
          125,000 kr
        </text></g><g transform="translate(440 40)"><rect width="120" height="60" fill="#fff" stroke="#e2e8f0" rx="5"/><text x="60" y="20" fill="#374151" font-family="Arial, sans-serif" font-size="12" font-weight="bold" text-anchor="middle">
          Reaktiveringsrate
        </text><text x="60" y="40" fill="#dc2626" font-family="Arial, sans-serif" font-size="18" font-weight="bold" text-anchor="middle">
          23%
        </text></g></g></g><defs><marker id="c" markerHeight="10" markerUnits="strokeWidth" markerWidth="10" orient="auto" refX="9" refY="3"><path fill="#10b981" d="M0 0v6l9-3z"/></marker><marker id="d" markerHeight="10" markerUnits="strokeWidth" markerWidth="10" orient="auto" refX="9" refY="3"><path fill="#f59e0b" d="M0 0v6l9-3z"/></marker><marker id="e" markerHeight="10" markerUnits="strokeWidth" markerWidth="10" orient="auto" refX="9" refY="3"><path fill="#8b5cf6" d="M0 0v6l9-3z"/></marker></defs></svg>