<svg width="800" height="500" xmlns="http://www.w3.org/2000/svg">
  <defs>
    <style>
      .title { font-family: Arial, sans-serif; font-size: 24px; font-weight: bold; fill: #2c3e50; }
      .category-title { font-family: Arial, sans-serif; font-size: 18px; font-weight: bold; fill: white; }
      .feature-title { font-family: Arial, sans-serif; font-size: 14px; font-weight: bold; fill: #2c3e50; }
      .feature-text { font-family: Arial, sans-serif; font-size: 12px; fill: #2c3e50; }
      .erp-box { fill: #3498db; stroke: #2980b9; stroke-width: 2; rx: 10; }
      .bi-box { fill: #e74c3c; stroke: #c0392b; stroke-width: 2; rx: 10; }
      .ai-box { fill: #2ecc71; stroke: #27ae60; stroke-width: 2; rx: 10; }
      .cloud-box { fill: #f39c12; stroke: #e67e22; stroke-width: 2; rx: 10; }
      .feature-box { fill: #ecf0f1; stroke: #bdc3c7; stroke-width: 1; rx: 5; }
      .connection { stroke: #7f8c8d; stroke-width: 2; fill: none; stroke-dasharray: 3,3; }
    </style>
  </defs>
  

  <rect width="800" height="500" fill="#ffffff"/>
  

  <text x="400" y="30" text-anchor="middle" class="title">Digitale Verktøy for Nøkkeltallanalyse</text>
  

  <rect x="50" y="70" width="300" height="150" class="erp-box"/>
  <text x="200" y="95" text-anchor="middle" class="category-title">ERP-SYSTEMER</text>
  <text x="200" y="115" text-anchor="middle" class="feature-text" fill="white">Moderne regnskapssystemer med automatisk beregning</text>
  
  <rect x="70" y="130" width="120" height="40" class="feature-box"/>
  <text x="130" y="145" text-anchor="middle" class="feature-title">Sanntidsrapportering</text>
  <text x="130" y="160" text-anchor="middle" class="feature-text">Kontinuerlig oppdatering</text>
  
  <rect x="210" y="130" width="120" height="40" class="feature-box"/>
  <text x="270" y="145" text-anchor="middle" class="feature-title">Dashboard</text>
  <text x="270" y="160" text-anchor="middle" class="feature-text">Visuell presentasjon</text>
  
  <rect x="70" y="180" width="120" height="30" class="feature-box"/>
  <text x="130" y="195" text-anchor="middle" class="feature-title">Trendanalyse</text>
  
  <rect x="210" y="180" width="120" height="30" class="feature-box"/>
  <text x="270" y="195" text-anchor="middle" class="feature-title">Varslingssystem</text>
  

  <rect x="450" y="70" width="300" height="150" class="bi-box"/>
  <text x="600" y="95" text-anchor="middle" class="category-title">BUSINESS INTELLIGENCE</text>
  <text x="600" y="115" text-anchor="middle" class="feature-text" fill="white">Avanserte analyseverktøy og rapportering</text>
  
  <rect x="470" y="130" width="120" height="40" class="feature-box"/>
  <text x="530" y="145" text-anchor="middle" class="feature-title">Benchmarking</text>
  <text x="530" y="160" text-anchor="middle" class="feature-text">Sammenligning</text>
  
  <rect x="610" y="130" width="120" height="40" class="feature-box"/>
  <text x="670" y="145" text-anchor="middle" class="feature-title">Prognoser</text>
  <text x="670" y="160" text-anchor="middle" class="feature-text">Fremskrivning</text>
  
  <rect x="470" y="180" width="120" height="30" class="feature-box"/>
  <text x="530" y="195" text-anchor="middle" class="feature-title">Scenarioanalyse</text>
  
  <rect x="610" y="180" width="120" height="30" class="feature-box"/>
  <text x="670" y="195" text-anchor="middle" class="feature-title">Automatiske rapporter</text>
  

  <rect x="50" y="270" width="300" height="150" class="ai-box"/>
  <text x="200" y="295" text-anchor="middle" class="category-title">KUNSTIG INTELLIGENS</text>
  <text x="200" y="315" text-anchor="middle" class="feature-text" fill="white">AI-drevet analyse og prediktive modeller</text>
  
  <rect x="70" y="330" width="120" height="40" class="feature-box"/>
  <text x="130" y="345" text-anchor="middle" class="feature-title">Prediktive modeller</text>
  <text x="130" y="360" text-anchor="middle" class="feature-text">Fremtidig prestasjon</text>
  
  <rect x="210" y="330" width="120" height="40" class="feature-box"/>
  <text x="270" y="345" text-anchor="middle" class="feature-title">Mønstergjenkjenning</text>
  <text x="270" y="360" text-anchor="middle" class="feature-text">Identifiserer sammenhenger</text>
  
  <rect x="70" y="380" width="120" height="30" class="feature-box"/>
  <text x="130" y="395" text-anchor="middle" class="feature-title">Automatisering</text>
  
  <rect x="210" y="380" width="120" height="30" class="feature-box"/>
  <text x="270" y="395" text-anchor="middle" class="feature-title">Sanntidsanalyse</text>
  

  <rect x="450" y="270" width="300" height="150" class="cloud-box"/>
  <text x="600" y="295" text-anchor="middle" class="category-title">SKYLØSNINGER</text>
  <text x="600" y="315" text-anchor="middle" class="feature-text" fill="white">Tilgjengelig overalt med skalerbar kapasitet</text>
  
  <rect x="470" y="330" width="120" height="40" class="feature-box"/>
  <text x="530" y="345" text-anchor="middle" class="feature-title">Tilgjengelighet 24/7</text>
  <text x="530" y="360" text-anchor="middle" class="feature-text">Overalt, når som helst</text>
  
  <rect x="610" y="330" width="120" height="40" class="feature-box"/>
  <text x="670" y="345" text-anchor="middle" class="feature-title">Skalerbarhet</text>
  <text x="670" y="360" text-anchor="middle" class="feature-text">Vokser med bedriften</text>
  
  <rect x="470" y="380" width="120" height="30" class="feature-box"/>
  <text x="530" y="395" text-anchor="middle" class="feature-title">Samarbeid</text>
  
  <rect x="610" y="380" width="120" height="30" class="feature-box"/>
  <text x="670" y="395" text-anchor="middle" class="feature-title">Sikkerhet</text>
  

  <line x1="350" y1="145" x2="450" y2="145" class="connection"/>
  <line x1="200" y1="220" x2="200" y2="270" class="connection"/>
  <line x1="600" y1="220" x2="600" y2="270" class="connection"/>
  <line x1="350" y1="345" x2="450" y2="345" class="connection"/>
  

  <ellipse cx="400" cy="235" rx="60" ry="30" fill="#9b59b6" stroke="#8e44ad" stroke-width="2"/>
  <text x="400" y="230" text-anchor="middle" class="category-title" fill="white">INTEGRERT</text>
  <text x="400" y="245" text-anchor="middle" class="feature-text" fill="white">ANALYSE</text>
  

  <rect x="150" y="450" width="500" height="40" fill="#f8f9fa" stroke="#dee2e6" stroke-width="2" rx="5"/>
  <text x="400" y="470" text-anchor="middle" class="feature-title">FORDELER: Økt nøyaktighet • Raskere beslutninger • Redusert manuelt arbeid • Bedre innsikt</text>
</svg>