<svg xmlns="http://www.w3.org/2000/svg" width="800" height="600"><defs><style>.trend-title{font-family:Arial,sans-serif;font-size:18px;font-weight:700;fill:#fff}.feature-text,.feature-title{font-family:Arial,sans-serif;fill:#2c3e50}.feature-title{font-size:14px;font-weight:700}.feature-text{font-size:12px}.feature-box{fill:#ecf0f1;stroke:#bdc3c7;stroke-width:1;rx:5}.timeline-point{fill:#2c3e50}</style></defs><path fill="#fff" d="M0 0h800v600H0z"/><text x="400" y="30" style="font-family:Arial,sans-serif;font-size:24px;font-weight:700;fill:#2c3e50" text-anchor="middle">Fremtidige Trender innen Nøkkeltallanalyse</text><path d="M100 80h600" style="stroke:#7f8c8d;stroke-width:3;fill:none"/><circle cx="200" cy="80" r="8" class="timeline-point"/><circle cx="350" cy="80" r="8" class="timeline-point"/><circle cx="500" cy="80" r="8" class="timeline-point"/><circle cx="650" cy="80" r="8" class="timeline-point"/><text x="200" y="105" class="feature-text" text-anchor="middle">I dag</text><text x="350" y="105" class="feature-text" text-anchor="middle">2025</text><text x="500" y="105" class="feature-text" text-anchor="middle">2030</text><text x="650" y="105" class="feature-text" text-anchor="middle">2035+</text><path d="M50 130h300v180H50z" style="fill:#27ae60;stroke:#229954;stroke-width:2;rx:10"/><text x="200" y="155" class="trend-title" text-anchor="middle">ESG &amp; BÆREKRAFT</text><text x="200" y="175" fill="#fff" class="feature-text" text-anchor="middle">Miljø, sosiale forhold og styring blir sentrale</text><path d="M70 190h120v35H70z" class="feature-box"/><text x="130" y="205" class="feature-title" text-anchor="middle">CO2-fotavtrykk</text><text x="130" y="218" class="feature-text" text-anchor="middle">Miljøpåvirkning</text><path d="M210 190h120v35H210z" class="feature-box"/><text x="270" y="205" class="feature-title" text-anchor="middle">Sosial påvirkning</text><text x="270" y="218" class="feature-text" text-anchor="middle">Medarbeidervelferd</text><path d="M70 235h120v35H70z" class="feature-box"/><text x="130" y="250" class="feature-title" text-anchor="middle">Etisk styring</text><text x="130" y="263" class="feature-text" text-anchor="middle">Transparens</text><path d="M210 235h120v35H210z" class="feature-box"/><text x="270" y="250" class="feature-title" text-anchor="middle">Bærekraftsrapport</text><text x="270" y="263" class="feature-text" text-anchor="middle">Integrert rapportering</text><path d="M140 280h120v20H140z" class="feature-box"/><text x="200" y="292" class="feature-text" text-anchor="middle">Regulatoriske krav øker</text><path d="M450 130h300v180H450z" style="fill:#3498db;stroke:#2980b9;stroke-width:2;rx:10"/><text x="600" y="155" class="trend-title" text-anchor="middle">AI &amp; AUTOMATISERING</text><text x="600" y="175" fill="#fff" class="feature-text" text-anchor="middle">Kunstig intelligens revolusjonerer analyse</text><path d="M470 190h120v35H470z" class="feature-box"/><text x="530" y="205" class="feature-title" text-anchor="middle">Prediktiv analyse</text><text x="530" y="218" class="feature-text" text-anchor="middle">Fremskriver resultater</text><path d="M610 190h120v35H610z" class="feature-box"/><text x="670" y="205" class="feature-title" text-anchor="middle">Mønstergjenkjenning</text><text x="670" y="218" class="feature-text" text-anchor="middle">Identifiserer anomalier</text><path d="M470 235h120v35H470z" class="feature-box"/><text x="530" y="250" class="feature-title" text-anchor="middle">Automatisk tolkning</text><text x="530" y="263" class="feature-text" text-anchor="middle">AI-genererte innsikter</text><path d="M610 235h120v35H610z" class="feature-box"/><text x="670" y="250" class="feature-title" text-anchor="middle">Sanntidsoptimering</text><text x="670" y="263" class="feature-text" text-anchor="middle">Kontinuerlig forbedring</text><path d="M540 280h120v20H540z" class="feature-box"/><text x="600" y="292" class="feature-text" text-anchor="middle">Reduserer manuelt arbeid</text><path d="M50 330h300v180H50z" style="fill:#e74c3c;stroke:#c0392b;stroke-width:2;rx:10"/><text x="200" y="355" class="trend-title" text-anchor="middle">DIGITALE FORRETNINGSMODELLER</text><text x="200" y="375" fill="#fff" class="feature-text" text-anchor="middle">Nye måter å måle verdi på</text><path d="M70 390h120v35H70z" class="feature-box"/><text x="130" y="405" class="feature-title" text-anchor="middle">Kundelivstidsverdi</text><text x="130" y="418" class="feature-text" text-anchor="middle">Langsiktig perspektiv</text><path d="M210 390h120v35H210z" class="feature-box"/><text x="270" y="405" class="feature-title" text-anchor="middle">Brukerengasjement</text><text x="270" y="418" class="feature-text" text-anchor="middle">Aktivitet og lojalitet</text><path d="M70 435h120v35H70z" class="feature-box"/><text x="130" y="450" class="feature-title" text-anchor="middle">Skalerbarhet</text><text x="130" y="463" class="feature-text" text-anchor="middle">Vekstpotensial</text><path d="M210 435h120v35H210z" class="feature-box"/><text x="270" y="450" class="feature-title" text-anchor="middle">Nettverkseffekter</text><text x="270" y="463" class="feature-text" text-anchor="middle">Plattformverdi</text><path d="M140 480h120v20H140z" class="feature-box"/><text x="200" y="492" class="feature-text" text-anchor="middle">Nye verdimålinger</text><path d="M450 330h300v180H450z" style="fill:#9b59b6;stroke:#8e44ad;stroke-width:2;rx:10"/><text x="600" y="355" class="trend-title" text-anchor="middle">INTEGRERT FREMTID</text><text x="600" y="375" fill="#fff" class="feature-text" text-anchor="middle">Helhetlig og sammenkoblet analyse</text><path d="M470 390h120v35H470z" class="feature-box"/><text x="530" y="405" class="feature-title" text-anchor="middle">Blockchain</text><text x="530" y="418" class="feature-text" text-anchor="middle">Transparent data</text><path d="M610 390h120v35H610z" class="feature-box"/><text x="670" y="405" class="feature-title" text-anchor="middle">IoT-integrasjon</text><text x="670" y="418" class="feature-text" text-anchor="middle">Sanntidsdata</text><path d="M470 435h120v35H470z" class="feature-box"/><text x="530" y="450" class="feature-title" text-anchor="middle">Kvantedatabehandling</text><text x="530" y="463" class="feature-text" text-anchor="middle">Komplekse beregninger</text><path d="M610 435h120v35H610z" class="feature-box"/><text x="670" y="450" class="feature-title" text-anchor="middle">Augmented Reality</text><text x="670" y="463" class="feature-text" text-anchor="middle">Visuell analyse</text><path d="M540 480h120v20H540z" class="feature-box"/><text x="600" y="492" class="feature-text" text-anchor="middle">Sømløs integrasjon</text><rect width="600" height="50" x="100" y="530" fill="#f8f9fa" stroke="#dee2e6" stroke-width="2" rx="10"/><text x="400" y="550" class="feature-title" text-anchor="middle">KONSEKVENSER FOR NØKKELTALLANALYSE</text><text x="400" y="570" class="feature-text" text-anchor="middle">Mer omfattende • Sanntids • Prediktiv • Bærekraftig • Automatisert • Integrert</text></svg>