<svg xmlns="http://www.w3.org/2000/svg" width="800" height="600"><defs><style>.category-title{font-family:Arial,sans-serif;font-size:18px;font-weight:700;fill:#fff}.description,.item-text{font-family:Arial,sans-serif;font-size:14px;fill:#2c3e50}.description{font-size:12px;fill:#7f8c8d}.item-box{fill:#ecf0f1;stroke:#bdc3c7;stroke-width:1;rx:5}</style></defs><path fill="#fff" d="M0 0h800v600H0z"/><text x="400" y="30" style="font-family:Arial,sans-serif;font-size:24px;font-weight:700;fill:#2c3e50" text-anchor="middle">Kategorier av Nøkkeltall</text><rect width="300" height="200" x="50" y="60" rx="10" style="fill:#e74c3c;stroke:#c0392b;stroke-width:2"/><text x="200" y="85" class="category-title" text-anchor="middle">LØNNSOMHETSNØKKELTALL</text><text x="200" y="105" fill="#fff" class="item-text" text-anchor="middle">Måler hvor effektivt selskapet genererer overskudd</text><path d="M70 120h120v50H70z" class="item-box"/><text x="130" y="135" class="item-text" text-anchor="middle">Bruttomargin</text><text x="130" y="150" class="description" text-anchor="middle">Bruttofortjeneste/</text><text x="130" y="162" class="description" text-anchor="middle">Omsetning</text><path d="M210 120h120v50H210z" class="item-box"/><text x="270" y="135" class="item-text" text-anchor="middle">Driftsmargin</text><text x="270" y="150" class="description" text-anchor="middle">Driftsresultat/</text><text x="270" y="162" class="description" text-anchor="middle">Omsetning</text><path d="M140 185h120v50H140z" class="item-box"/><text x="200" y="200" class="item-text" text-anchor="middle">Nettoresultatmargin</text><text x="200" y="215" class="description" text-anchor="middle">Nettoresultat/</text><text x="200" y="227" class="description" text-anchor="middle">Omsetning</text><rect width="300" height="200" x="450" y="60" rx="10" style="fill:#2ecc71;stroke:#27ae60;stroke-width:2"/><text x="600" y="85" class="category-title" text-anchor="middle">LIKVIDITETSNØKKELTALL</text><text x="600" y="105" fill="#fff" class="item-text" text-anchor="middle">Måler evne til å møte kortsiktige forpliktelser</text><path d="M470 120h120v50H470z" class="item-box"/><text x="530" y="135" class="item-text" text-anchor="middle">Likviditetsgrad 1</text><text x="530" y="150" class="description" text-anchor="middle">Omløpsmidler/</text><text x="530" y="162" class="description" text-anchor="middle">Kortsiktig gjeld</text><path d="M610 120h120v50H610z" class="item-box"/><text x="670" y="135" class="item-text" text-anchor="middle">Likviditetsgrad 2</text><text x="670" y="150" class="description" text-anchor="middle">(Omløpsmidler-Lager)/</text><text x="670" y="162" class="description" text-anchor="middle">Kortsiktig gjeld</text><path d="M540 185h120v50H540z" class="item-box"/><text x="600" y="200" class="item-text" text-anchor="middle">Kontantlikviditet</text><text x="600" y="215" class="description" text-anchor="middle">Kontanter/</text><text x="600" y="227" class="description" text-anchor="middle">Kortsiktig gjeld</text><rect width="300" height="150" x="50" y="280" rx="10" style="fill:#f39c12;stroke:#e67e22;stroke-width:2"/><text x="200" y="305" class="category-title" text-anchor="middle">SOLIDITETSNØKKELTALL</text><text x="200" y="325" fill="#fff" class="item-text" text-anchor="middle">Måler finansiell stabilitet og langsiktig bærekraft</text><path d="M70 340h120v50H70z" class="item-box"/><text x="130" y="355" class="item-text" text-anchor="middle">Egenkapitalandel</text><text x="130" y="370" class="description" text-anchor="middle">Egenkapital/</text><text x="130" y="382" class="description" text-anchor="middle">Totalkapital</text><path d="M210 340h120v50H210z" class="item-box"/><text x="270" y="355" class="item-text" text-anchor="middle">Gjeldsgrad</text><text x="270" y="370" class="description" text-anchor="middle">Total gjeld/</text><text x="270" y="382" class="description" text-anchor="middle">Egenkapital</text><rect width="300" height="150" x="450" y="280" rx="10" style="fill:#9b59b6;stroke:#8e44ad;stroke-width:2"/><text x="600" y="305" class="category-title" text-anchor="middle">AKTIVITETSNØKKELTALL</text><text x="600" y="325" fill="#fff" class="item-text" text-anchor="middle">Måler hvor effektivt ressurser brukes</text><path d="M470 340h120v50H470z" class="item-box"/><text x="530" y="355" class="item-text" text-anchor="middle">Omløpshastighet</text><text x="530" y="370" class="description" text-anchor="middle">Omsetning/Gjsn.</text><text x="530" y="382" class="description" text-anchor="middle">kundefordringer</text><path d="M610 340h120v50H610z" class="item-box"/><text x="670" y="355" class="item-text" text-anchor="middle">Lageromløp</text><text x="670" y="370" class="description" text-anchor="middle">Kostpris/Gjsn.</text><text x="670" y="382" class="description" text-anchor="middle">lagerbeholdning</text><rect width="400" height="120" x="200" y="450" rx="10" style="fill:#3498db;stroke:#2980b9;stroke-width:2"/><text x="400" y="475" class="category-title" text-anchor="middle">RENTABILITETSNØKKELTALL</text><text x="400" y="495" fill="#fff" class="item-text" text-anchor="middle">Måler avkastning på investert kapital</text><path d="M220 510h100v45H220z" class="item-box"/><text x="270" y="525" class="item-text" text-anchor="middle">ROE</text><text x="270" y="540" class="description" text-anchor="middle">Nettoresultat/</text><text x="270" y="550" class="description" text-anchor="middle">Egenkapital</text><path d="M350 510h100v45H350z" class="item-box"/><text x="400" y="525" class="item-text" text-anchor="middle">ROA</text><text x="400" y="540" class="description" text-anchor="middle">Nettoresultat/</text><text x="400" y="550" class="description" text-anchor="middle">Totale eiendeler</text><path d="M480 510h100v45H480z" class="item-box"/><text x="530" y="525" class="item-text" text-anchor="middle">ROCE</text><text x="530" y="540" class="description" text-anchor="middle">Driftsresultat/</text><text x="530" y="550" class="description" text-anchor="middle">Sysselsatt kapital</text></svg>