<svg xmlns="http://www.w3.org/2000/svg" width="800" height="400"><defs><linearGradient id="a" x1="0%" x2="100%" y1="0%" y2="100%"><stop offset="0%" style="stop-color:#f8f9fa;stop-opacity:1"/><stop offset="100%" style="stop-color:#e9ecef;stop-opacity:1"/></linearGradient><linearGradient id="b" x1="0%" x2="100%" y1="0%" y2="0%"><stop offset="0%" style="stop-color:#06c;stop-opacity:1"/><stop offset="100%" style="stop-color:#049;stop-opacity:1"/></linearGradient></defs><path fill="url(#a)" stroke="#dee2e6" stroke-width="2" d="M0 0h800v400H0z"/><path fill="url(#b)" d="M0 0h800v80H0z"/><text x="400" y="45" fill="#fff" font-family="Arial, sans-serif" font-size="28" font-weight="bold" text-anchor="middle">
    Arbeidsgiveravgift i Norge
  </text><g transform="translate(50 120)"><rect width="80" height="60" fill="#06c" rx="5"/><path fill="#fff" d="M10 10h15v15H10zM30 10h15v15H30zM55 10h15v15H55zM10 30h15v15H10zM30 30h15v15H30zM55 30h15v15H55zM25 45h30v15H25z"/><text x="40" y="85" fill="#333" font-family="Arial, sans-serif" font-size="14" font-weight="bold" text-anchor="middle">
        Arbeidsgiver
      </text></g><path stroke="#666" stroke-width="3" d="M170 160h80"/><path fill="#666" d="m245 155 10 5-10 5z"/><text x="40" y="35" fill="#666" font-family="Arial, sans-serif" font-size="12" text-anchor="middle" transform="translate(170 145)">
        Betaler avgift
      </text><g transform="translate(270 120)"><rect width="160" height="80" fill="#fff" stroke="#06c" stroke-width="2" rx="10"/><text x="80" y="25" fill="#06c" font-family="Arial, sans-serif" font-size="16" font-weight="bold" text-anchor="middle">
        Avgiftssatser
      </text><text x="80" y="45" fill="#333" font-family="Arial, sans-serif" font-size="14" text-anchor="middle">
        0% - 14,1%
      </text><text x="80" y="65" fill="#666" font-family="Arial, sans-serif" font-size="12" text-anchor="middle">
        Avhenger av geografi
      </text></g><path stroke="#666" stroke-width="3" d="M450 160h80"/><path fill="#666" d="m525 155 10 5-10 5z"/><text x="40" y="35" fill="#666" font-family="Arial, sans-serif" font-size="12" text-anchor="middle" transform="translate(450 145)">
        Til staten
      </text><g transform="translate(550 120)"><rect width="100" height="40" y="20" fill="#28a745" rx="3"/><path fill="#28a745" d="M0 20 50 0l50 20z"/><path fill="#fff" d="M20 30h8v20h-8zM35 30h8v20h-8zM50 30h8v20h-8zM65 30h8v20h-8z"/><path fill="#fff" d="M42 40h16v10H42z"/><text x="50" y="85" fill="#333" font-family="Arial, sans-serif" font-size="14" font-weight="bold" text-anchor="middle">
        Staten/Folketrygden
      </text></g><text y="20" fill="#333" font-family="Arial, sans-serif" font-size="16" font-weight="bold" transform="translate(50 250)">
      Viktige punkter:
    </text><g transform="translate(50 285)"><circle cx="8" cy="8" r="3" fill="#06c"/><text x="20" y="12" fill="#333" font-family="Arial, sans-serif" font-size="14">
        Beregnes av bruttolønn og andre avgiftspliktige ytelser
      </text></g><g transform="translate(50 305)"><circle cx="8" cy="8" r="3" fill="#06c"/><text x="20" y="12" fill="#333" font-family="Arial, sans-serif" font-size="14">
        Geografisk differensiert - 5 soner med ulike satser
      </text></g><g transform="translate(50 325)"><circle cx="8" cy="8" r="3" fill="#06c"/><text x="20" y="12" fill="#333" font-family="Arial, sans-serif" font-size="14">
        Rapporteres månedlig gjennom A-meldingen
      </text></g><g transform="translate(50 345)"><circle cx="8" cy="8" r="3" fill="#06c"/><text x="20" y="12" fill="#333" font-family="Arial, sans-serif" font-size="14">
        Fritak for ansatte over 67 år og andre spesielle grupper
      </text></g></svg>