<svg xmlns="http://www.w3.org/2000/svg" width="800" height="500" viewBox="0 0 800 500"><defs><linearGradient id="a" x1="0%" x2="100%" y1="0%" y2="100%"><stop offset="0%" style="stop-color:#f8fafc;stop-opacity:1"/><stop offset="100%" style="stop-color:#e2e8f0;stop-opacity:1"/></linearGradient></defs><path fill="url(#a)" d="M0 0h800v500H0z"/><text x="400" y="30" fill="#1e293b" font-family="Arial, sans-serif" font-size="22" font-weight="bold" text-anchor="middle">
    Bransjespesifikke Strekkodeløsninger
  </text><g transform="translate(50 70)"><rect width="320" height="180" fill="#f0fdf4" stroke="#10b981" stroke-width="3" rx="12"/><rect width="300" height="40" x="10" y="10" fill="#10b981" rx="8"/><text x="160" y="35" fill="#fff" font-family="Arial, sans-serif" font-size="16" font-weight="bold" text-anchor="middle">
      Detaljhandel &amp; E-handel
    </text><g transform="translate(20 60)"><rect width="30" height="20" y="10" fill="#dcfce7" stroke="#10b981" rx="3"/><circle cx="8" cy="35" r="3" fill="#10b981"/><circle cx="22" cy="35" r="3" fill="#10b981"/><path fill="none" stroke="#10b981" stroke-width="2" d="M-5 0h5l5 10h25"/></g><text x="60" y="75" fill="#14532d" font-family="Arial, sans-serif" font-size="13" font-weight="bold">
      Nøkkelfunksjoner:
    </text><text x="60" y="95" fill="#059669" font-family="Arial, sans-serif" font-size="11">
      • Point-of-Sale integrasjon
    </text><text x="60" y="110" fill="#059669" font-family="Arial, sans-serif" font-size="11">
      • Lagerrotasjon og FIFO-håndtering
    </text><text x="60" y="125" fill="#059669" font-family="Arial, sans-serif" font-size="11">
      • Kundelojalitetsprogrammer
    </text><text x="60" y="140" fill="#059669" font-family="Arial, sans-serif" font-size="11">
      • Retursporingen og refusjoner
    </text><text x="60" y="155" fill="#059669" font-family="Arial, sans-serif" font-size="11">
      • Omnikanalintegrasjon
    </text></g><g transform="translate(430 70)"><rect width="320" height="180" fill="#eff6ff" stroke="#3b82f6" stroke-width="3" rx="12"/><rect width="300" height="40" x="10" y="10" fill="#3b82f6" rx="8"/><text x="160" y="35" fill="#fff" font-family="Arial, sans-serif" font-size="16" font-weight="bold" text-anchor="middle">
      Produksjonsbedrifter
    </text><path fill="#dbeafe" stroke="#3b82f6" d="M20 75h25v15H20z"/><path fill="#3b82f6" d="M25 70h4v5h-4zM35 65h4v10h-4z"/><path fill="#60a5fa" d="M30 80h6v6h-6z"/><text x="60" y="75" fill="#1e40af" font-family="Arial, sans-serif" font-size="13" font-weight="bold">
      Nøkkelfunksjoner:
    </text><text x="60" y="95" fill="#2563eb" font-family="Arial, sans-serif" font-size="11">
      • Work-in-Progress tracking
    </text><text x="60" y="110" fill="#2563eb" font-family="Arial, sans-serif" font-size="11">
      • Kvalitetskontroll ved produksjonsstadier
    </text><text x="60" y="125" fill="#2563eb" font-family="Arial, sans-serif" font-size="11">
      • Råvaresporingen og batch-logging
    </text><text x="60" y="140" fill="#2563eb" font-family="Arial, sans-serif" font-size="11">
      • Maskinvedlikehold og driftsmålinger
    </text><text x="60" y="155" fill="#2563eb" font-family="Arial, sans-serif" font-size="11">
      • Compliance-dokumentasjon
    </text></g><g transform="translate(50 270)"><rect width="220" height="180" fill="#fef2f2" stroke="#ef4444" stroke-width="3" rx="12"/><rect width="200" height="40" x="10" y="10" fill="#ef4444" rx="8"/><text x="110" y="35" fill="#fff" font-family="Arial, sans-serif" font-size="16" font-weight="bold" text-anchor="middle">
      Helsevesen
    </text><g transform="translate(20 60)"><path fill="#ef4444" d="M10 5h4v20h-4z"/><path fill="#ef4444" d="M2 13h20v4H2z"/><circle cx="12" cy="15" r="12" fill="none" stroke="#ef4444" stroke-width="2"/></g><text x="50" y="75" fill="#991b1b" font-family="Arial, sans-serif" font-size="13" font-weight="bold">
      Spesielle krav:
    </text><text x="20" y="95" fill="#dc2626" font-family="Arial, sans-serif" font-size="11">
      • Pasientidentifikasjon og sikkerhet
    </text><text x="20" y="110" fill="#dc2626" font-family="Arial, sans-serif" font-size="11">
      • Medikamentsporing og dosering
    </text><text x="20" y="125" fill="#dc2626" font-family="Arial, sans-serif" font-size="11">
      • Medisinsk utstyr og vedlikehold
    </text><text x="20" y="140" fill="#dc2626" font-family="Arial, sans-serif" font-size="11">
      • FDA/EMA compliance
    </text><text x="20" y="155" fill="#dc2626" font-family="Arial, sans-serif" font-size="11">
      • Utløpsdato-overvåking
    </text></g><g transform="translate(290 270)"><rect width="220" height="180" fill="#fefce8" stroke="#eab308" stroke-width="3" rx="12"/><rect width="200" height="40" x="10" y="10" fill="#eab308" rx="8"/><text x="110" y="35" fill="#fff" font-family="Arial, sans-serif" font-size="16" font-weight="bold" text-anchor="middle">
      Logistikk &amp; Transport
    </text><g transform="translate(20 60)"><path fill="#fef3c7" stroke="#eab308" d="M0 10h20v10H0zM20 5h8v15h-8z"/><circle cx="6" cy="25" r="4" fill="#eab308"/><circle cx="22" cy="25" r="4" fill="#eab308"/></g><text x="50" y="75" fill="#a16207" font-family="Arial, sans-serif" font-size="13" font-weight="bold">
      Transport-spesifikt:
    </text><text x="20" y="95" fill="#ca8a04" font-family="Arial, sans-serif" font-size="11">
      • SSCC frakt- og containerkoding
    </text><text x="20" y="110" fill="#ca8a04" font-family="Arial, sans-serif" font-size="11">
      • GPS-integrasjon og rutesporing
    </text><text x="20" y="125" fill="#ca8a04" font-family="Arial, sans-serif" font-size="11">
      • Temperatur- og miljøovervåking
    </text><text x="20" y="140" fill="#ca8a04" font-family="Arial, sans-serif" font-size="11">
      • Tollklearering og dokumentasjon
    </text><text x="20" y="155" fill="#ca8a04" font-family="Arial, sans-serif" font-size="11">
      • Cross-docking optimalisering
    </text></g><g transform="translate(530 270)"><rect width="220" height="180" fill="#fdf4ff" stroke="#a855f7" stroke-width="3" rx="12"/><rect width="200" height="40" x="10" y="10" fill="#a855f7" rx="8"/><text x="110" y="35" fill="#fff" font-family="Arial, sans-serif" font-size="16" font-weight="bold" text-anchor="middle">
      Mat &amp; Drikke
    </text><g transform="translate(20 60)"><circle cx="12" cy="15" r="10" fill="#f3e8ff" stroke="#a855f7" stroke-width="2"/><circle cx="8" cy="12" r="2" fill="#a855f7"/><circle cx="12" cy="18" r="2" fill="#a855f7"/><circle cx="16" cy="12" r="2" fill="#a855f7"/></g><text x="50" y="75" fill="#7c2d12" font-family="Arial, sans-serif" font-size="13" font-weight="bold">
      Matvaresikkerhet:
    </text><text x="20" y="95" fill="#9333ea" font-family="Arial, sans-serif" font-size="11">
      • HACCP og sporbarhetskrav
    </text><text x="20" y="110" fill="#9333ea" font-family="Arial, sans-serif" font-size="11">
      • Best før-dato administrasjon
    </text><text x="20" y="125" fill="#9333ea" font-family="Arial, sans-serif" font-size="11">
      • Allergen og ingrediensmerking
    </text><text x="20" y="140" fill="#9333ea" font-family="Arial, sans-serif" font-size="11">
      • Tilbakekalling og batch-sporing
    </text><text x="20" y="155" fill="#9333ea" font-family="Arial, sans-serif" font-size="11">
      • Temperatur og lagerbetingelser
    </text></g></svg>