<svg xmlns="http://www.w3.org/2000/svg" width="800" height="400" viewBox="0 0 800 400"><defs><linearGradient id="a" x1="0%" x2="100%" y1="0%" y2="100%"><stop offset="0%" style="stop-color:#f8fafc;stop-opacity:1"/><stop offset="100%" style="stop-color:#e2e8f0;stop-opacity:1"/></linearGradient><linearGradient id="b" x1="0%" x2="0%" y1="0%" y2="100%"><stop offset="0%" style="stop-color:#1e293b;stop-opacity:1"/><stop offset="100%" style="stop-color:#334155;stop-opacity:1"/></linearGradient></defs><path fill="url(#a)" d="M0 0h800v400H0z"/><text x="400" y="50" fill="#1e293b" font-family="Arial, sans-serif" font-size="32" font-weight="bold" text-anchor="middle">
    Strekkode i Regnskap
  </text><path fill="url(#b)" d="M0 0h4v80H0z" transform="translate(50 100)"/><path fill="url(#b)" d="M8 0h2v80H8z" transform="translate(50 100)"/><path fill="url(#b)" d="M14 0h6v80h-6z" transform="translate(50 100)"/><path fill="url(#b)" d="M24 0h2v80h-2z" transform="translate(50 100)"/><path fill="url(#b)" d="M30 0h4v80h-4z" transform="translate(50 100)"/><path fill="url(#b)" d="M38 0h2v80h-2z" transform="translate(50 100)"/><path fill="url(#b)" d="M44 0h8v80h-8z" transform="translate(50 100)"/><path fill="url(#b)" d="M56 0h2v80h-2z" transform="translate(50 100)"/><path fill="url(#b)" d="M62 0h4v80h-4z" transform="translate(50 100)"/><path fill="url(#b)" d="M70 0h6v80h-6z" transform="translate(50 100)"/><path fill="url(#b)" d="M80 0h2v80h-2z" transform="translate(50 100)"/><path fill="url(#b)" d="M86 0h4v80h-4z" transform="translate(50 100)"/><path fill="url(#b)" d="M94 0h2v80h-2z" transform="translate(50 100)"/><path fill="url(#b)" d="M100 0h6v80h-6z" transform="translate(50 100)"/><path fill="url(#b)" d="M110 0h4v80h-4z" transform="translate(50 100)"/><path fill="url(#b)" d="M118 0h2v80h-2z" transform="translate(50 100)"/><text x="60" y="100" fill="#64748b" font-family="Arial, sans-serif" font-size="14" text-anchor="middle" transform="translate(50 100)">
      123456789012
    </text><path fill="none" stroke="#3b82f6" stroke-width="3" marker-end="url(#c)" d="M200 140q80-20 160 0"/><defs><marker id="c" markerHeight="7" markerWidth="10" orient="auto" refX="9" refY="3.5"><path fill="#3b82f6" d="m0 0 10 3.5L0 7z"/></marker></defs><g transform="translate(380 110)"><rect width="120" height="80" fill="#f1f5f9" stroke="#cbd5e1" stroke-width="2" rx="8"/><rect width="100" height="50" x="10" y="10" fill="#334155" rx="4"/><text x="60" y="35" fill="#f8fafc" font-family="Arial, sans-serif" font-size="12" text-anchor="middle">
      REGNSKAP
    </text><text x="60" y="50" fill="#f8fafc" font-family="Arial, sans-serif" font-size="12" text-anchor="middle">
      SYSTEM
    </text><rect width="100" height="8" x="10" y="65" fill="#94a3b8" rx="2"/></g><path fill="none" stroke="#10b981" stroke-width="3" marker-end="url(#d)" d="M520 140q80-20 160 0"/><defs><marker id="d" markerHeight="7" markerWidth="10" orient="auto" refX="9" refY="3.5"><path fill="#10b981" d="m0 0 10 3.5L0 7z"/></marker></defs><g transform="translate(680 110)"><ellipse cx="30" cy="15" fill="#e5e7eb" stroke="#9ca3af" stroke-width="2" rx="30" ry="15"/><path fill="#f3f4f6" stroke="#9ca3af" stroke-width="2" d="M0 15h60v50H0z"/><ellipse cx="30" cy="65" fill="#e5e7eb" stroke="#9ca3af" stroke-width="2" rx="30" ry="15"/><text x="30" y="45" fill="#374151" font-family="Arial, sans-serif" font-size="10" text-anchor="middle">
      Database
    </text></g><g transform="translate(100 250)"><text fill="#1e293b" font-family="Arial, sans-serif" font-size="18" font-weight="bold">
      Fordeler med Strekkoder:
    </text><circle cx="10" cy="30" r="4" fill="#3b82f6"/><text x="25" y="35" fill="#475569" font-family="Arial, sans-serif" font-size="14">
      99.9% nøyaktighet vs. manuell registrering
    </text><circle cx="10" cy="55" r="4" fill="#10b981"/><text x="25" y="60" fill="#475569" font-family="Arial, sans-serif" font-size="14">
      80-90% reduksjon i registreringstid
    </text><circle cx="10" cy="80" r="4" fill="#f59e0b"/><text x="25" y="85" fill="#475569" font-family="Arial, sans-serif" font-size="14">
      Sanntidsoppdatering av regnskapsdata
    </text><circle cx="10" cy="105" r="4" fill="#8b5cf6"/><text x="25" y="110" fill="#475569" font-family="Arial, sans-serif" font-size="14">
      Automatisk integrasjon med regnskapssystemer
    </text></g><g transform="translate(550 250)"><rect width="40" height="80" fill="#374151" stroke="#1f2937" stroke-width="2" rx="8"/><rect width="24" height="16" x="8" y="8" fill="#4b5563" rx="2"/><rect width="24" height="12" x="8" y="60" fill="#4b5563" rx="2"/><path stroke="#ef4444" stroke-width="2" d="M45 40h75" opacity=".7"/><text x="20" y="100" fill="#64748b" font-family="Arial, sans-serif" font-size="12" text-anchor="middle">
      Scanner
    </text></g></svg>