<svg xmlns="http://www.w3.org/2000/svg" width="800" height="500" viewBox="0 0 800 500"><defs><linearGradient id="a" x1="0%" x2="100%" y1="0%" y2="100%"><stop offset="0%" style="stop-color:#f8fafc;stop-opacity:1"/><stop offset="100%" style="stop-color:#e2e8f0;stop-opacity:1"/></linearGradient><pattern id="d" width="4" height="4" patternUnits="userSpaceOnUse"><path stroke="#94a3b8" d="m-1 1 2-2M0 4l4-4M3 5l2-2"/></pattern></defs><path fill="url(#a)" d="M0 0h800v500H0z"/><text x="400" y="30" fill="#1e293b" font-family="Arial, sans-serif" font-size="22" font-weight="bold" text-anchor="middle">
    Strekkode Gevinster - Analyse
  </text><g transform="translate(50 60)"><text y="20" fill="#1e293b" font-family="Arial, sans-serif" font-size="16" font-weight="bold">
      Før vs. Etter Implementering
    </text><path stroke="#374151" stroke-width="2" d="M50 50v200M50 250h300"/><text x="45" y="55" fill="#64748b" font-family="Arial, sans-serif" font-size="10" text-anchor="end">100%</text><text x="45" y="95" fill="#64748b" font-family="Arial, sans-serif" font-size="10" text-anchor="end">80%</text><text x="45" y="135" fill="#64748b" font-family="Arial, sans-serif" font-size="10" text-anchor="end">60%</text><text x="45" y="175" fill="#64748b" font-family="Arial, sans-serif" font-size="10" text-anchor="end">40%</text><text x="45" y="215" fill="#64748b" font-family="Arial, sans-serif" font-size="10" text-anchor="end">20%</text><text x="45" y="255" fill="#64748b" font-family="Arial, sans-serif" font-size="10" text-anchor="end">0%</text><path stroke="#e2e8f0" d="M50 90h300M50 130h300M50 170h300M50 210h300"/><text y="275" fill="#374151" font-family="Arial, sans-serif" font-size="11" text-anchor="middle" transform="translate(70)">Registreringstid</text><path fill="#ef4444" d="M55 50h20v200H55z" opacity=".8"/><text x="-5" y="40" fill="#ef4444" font-family="Arial, sans-serif" font-size="9" text-anchor="middle" transform="translate(70)">Før</text><path fill="#10b981" d="M75 210h20v40H75z" opacity=".8"/><text x="15" y="40" fill="#10b981" font-family="Arial, sans-serif" font-size="9" text-anchor="middle" transform="translate(70)">Etter</text><path fill="none" stroke="#3b82f6" stroke-width="2" marker-end="url(#b)" d="M0 155q-20-20-10-40" transform="translate(70)"/><text x="-25" y="125" fill="#3b82f6" font-family="Arial, sans-serif" font-size="8" transform="translate(70)">-80%</text><text y="275" fill="#374151" font-family="Arial, sans-serif" font-size="11" text-anchor="middle" transform="translate(140)">Feilrate</text><path fill="#ef4444" d="M125 210h20v40h-20z" opacity=".8"/><text x="-5" y="40" fill="#ef4444" font-family="Arial, sans-serif" font-size="9" text-anchor="middle" transform="translate(140)">Før</text><path fill="#10b981" d="M145 248h20v2h-20z" opacity=".8"/><text x="15" y="40" fill="#10b981" font-family="Arial, sans-serif" font-size="9" text-anchor="middle" transform="translate(140)">Etter</text><path fill="none" stroke="#3b82f6" stroke-width="2" marker-end="url(#b)" d="M0 200q-20-20-10-40" transform="translate(140)"/><text x="-25" y="170" fill="#3b82f6" font-family="Arial, sans-serif" font-size="8" transform="translate(140)">-99%</text><text y="275" fill="#374151" font-family="Arial, sans-serif" font-size="11" text-anchor="middle" transform="translate(210)">Arbeidskost</text><path fill="#ef4444" d="M195 90h20v160h-20z" opacity=".8"/><text x="-5" y="40" fill="#ef4444" font-family="Arial, sans-serif" font-size="9" text-anchor="middle" transform="translate(210)">Før</text><path fill="#10b981" d="M215 170h20v80h-20z" opacity=".8"/><text x="15" y="40" fill="#10b981" font-family="Arial, sans-serif" font-size="9" text-anchor="middle" transform="translate(210)">Etter</text><path fill="none" stroke="#3b82f6" stroke-width="2" marker-end="url(#b)" d="M0 155q-20-20-10-40" transform="translate(210)"/><text x="-25" y="125" fill="#3b82f6" font-family="Arial, sans-serif" font-size="8" transform="translate(210)">-50%</text><text y="275" fill="#374151" font-family="Arial, sans-serif" font-size="11" text-anchor="middle" transform="translate(280)">Lagernøyaktighet</text><path fill="#ef4444" d="M265 130h20v120h-20z" opacity=".8"/><text x="-5" y="40" fill="#ef4444" font-family="Arial, sans-serif" font-size="9" text-anchor="middle" transform="translate(280)">Før</text><path fill="#10b981" d="M285 54h20v196h-20z" opacity=".8"/><text x="15" y="40" fill="#10b981" font-family="Arial, sans-serif" font-size="9" text-anchor="middle" transform="translate(280)">Etter</text><path fill="none" stroke="#3b82f6" stroke-width="2" marker-end="url(#c)" d="M0 155q20-20 10-40" transform="translate(280)"/><text x="25" y="125" fill="#3b82f6" font-family="Arial, sans-serif" font-size="8" transform="translate(280)">+40%</text><defs><marker id="b" markerHeight="6" markerWidth="8" orient="auto" refX="7" refY="3"><path fill="#3b82f6" d="m0 0 8 3-8 3z"/></marker><marker id="c" markerHeight="6" markerWidth="8" orient="auto" refX="7" refY="3"><path fill="#3b82f6" d="m0 0 8 3-8 3z"/></marker></defs></g><g transform="translate(450 60)"><text y="20" fill="#1e293b" font-family="Arial, sans-serif" font-size="16" font-weight="bold">
      ROI Utvikling Over Tid
    </text><path stroke="#374151" stroke-width="2" d="M30 50v150M30 200h250"/><text x="25" y="55" fill="#64748b" font-family="Arial, sans-serif" font-size="10" text-anchor="end">300%</text><text x="25" y="85" fill="#64748b" font-family="Arial, sans-serif" font-size="10" text-anchor="end">200%</text><text x="25" y="115" fill="#64748b" font-family="Arial, sans-serif" font-size="10" text-anchor="end">100%</text><text x="25" y="145" fill="#64748b" font-family="Arial, sans-serif" font-size="10" text-anchor="end">0%</text><text x="25" y="175" fill="#64748b" font-family="Arial, sans-serif" font-size="10" text-anchor="end">-100%</text><text x="25" y="205" fill="#64748b" font-family="Arial, sans-serif" font-size="10" text-anchor="end">-200%</text><text x="60" y="215" fill="#64748b" font-family="Arial, sans-serif" font-size="10" text-anchor="middle">Mnd 3</text><text x="110" y="215" fill="#64748b" font-family="Arial, sans-serif" font-size="10" text-anchor="middle">Mnd 6</text><text x="160" y="215" fill="#64748b" font-family="Arial, sans-serif" font-size="10" text-anchor="middle">Mnd 12</text><text x="210" y="215" fill="#64748b" font-family="Arial, sans-serif" font-size="10" text-anchor="middle">Mnd 18</text><text x="260" y="215" fill="#64748b" font-family="Arial, sans-serif" font-size="10" text-anchor="middle">Mnd 24</text><path stroke="#9ca3af" stroke-dasharray="5,5" d="M30 145h250"/><text x="285" y="149" fill="#9ca3af" font-family="Arial, sans-serif" font-size="9">Break-even</text><path fill="none" stroke="#10b981" stroke-width="3" d="M50 185q30-25 60-60 30-30 60-50 30-15 60-20 20-3 40-5"/><circle cx="110" cy="125" r="4" fill="#3b82f6"/><text x="110" y="140" fill="#3b82f6" font-family="Arial, sans-serif" font-size="8" text-anchor="middle">Payback</text><circle cx="170" cy="75" r="4" fill="#f59e0b"/><text x="170" y="90" fill="#f59e0b" font-family="Arial, sans-serif" font-size="8" text-anchor="middle">200% ROI</text><path fill="url(#d)" d="M50 145h60v40H50z" opacity=".3"/><text x="80" y="220" fill="#ef4444" font-family="Arial, sans-serif" font-size="9" text-anchor="middle">Investeringsperiode</text></g><text y="20" fill="#1e293b" font-family="Arial, sans-serif" font-size="16" font-weight="bold" transform="translate(50 320)">
      Nøkkelgevinster - Økonomisk Oversikt
    </text><g transform="translate(50 360)"><rect width="170" height="80" fill="#f0fdf4" stroke="#16a34a" stroke-width="2" rx="8"/><text x="85" y="20" fill="#14532d" font-family="Arial, sans-serif" font-size="14" font-weight="bold" text-anchor="middle">
        Kostnadsbesparelser
      </text><text x="10" y="40" fill="#14532d" font-family="Arial, sans-serif" font-size="11">• 50-70% reduksjon i arbeidskost</text><text x="10" y="55" fill="#14532d" font-family="Arial, sans-serif" font-size="11">• 90% færre registreringsfeil</text><text x="10" y="70" fill="#14532d" font-family="Arial, sans-serif" font-size="11">• Eliminerte mangkostnader</text><rect width="170" height="80" x="190" fill="#eff6ff" stroke="#3b82f6" stroke-width="2" rx="8"/><text x="275" y="20" fill="#1e40af" font-family="Arial, sans-serif" font-size="14" font-weight="bold" text-anchor="middle">
        Effektivitetsgevinster
      </text><text x="200" y="40" fill="#1e40af" font-family="Arial, sans-serif" font-size="11">• 80% raskere registrering</text><text x="200" y="55" fill="#1e40af" font-family="Arial, sans-serif" font-size="11">• Sanntidsoppdateringer</text><text x="200" y="70" fill="#1e40af" font-family="Arial, sans-serif" font-size="11">• Automatiserte arbeidsflyter</text><rect width="170" height="80" x="380" fill="#fefce8" stroke="#eab308" stroke-width="2" rx="8"/><text x="465" y="20" fill="#a16207" font-family="Arial, sans-serif" font-size="14" font-weight="bold" text-anchor="middle">
        Kvalitetsforbedringer
      </text><text x="390" y="40" fill="#a16207" font-family="Arial, sans-serif" font-size="11">• 99.9% datanøyaktighet</text><text x="390" y="55" fill="#a16207" font-family="Arial, sans-serif" font-size="11">• Bedre compliance</text><text x="390" y="70" fill="#a16207" font-family="Arial, sans-serif" font-size="11">• Fullstendig sporbarhet</text><rect width="170" height="80" x="570" fill="#fdf4ff" stroke="#a855f7" stroke-width="2" rx="8"/><text x="655" y="20" fill="#7c2d12" font-family="Arial, sans-serif" font-size="14" font-weight="bold" text-anchor="middle">
        Strategiske Fordeler
      </text><text x="580" y="40" fill="#7c2d12" font-family="Arial, sans-serif" font-size="11">• Skalerbar løsning</text><text x="580" y="55" fill="#7c2d12" font-family="Arial, sans-serif" font-size="11">• Konkurransefortrinn</text><text x="580" y="70" fill="#7c2d12" font-family="Arial, sans-serif" font-size="11">• Fremtidssikret teknologi</text></g><text y="15" fill="#1e293b" font-family="Arial, sans-serif" font-size="12" font-weight="bold" transform="translate(50 450)">
      Typiske ROI-tall: Payback 6-18 måneder | 3-års ROI: 200-400% | Årlige besparelser: 15-30% av totalkostnader
    </text></svg>