<svg width="800" height="600" viewBox="0 0 800 600" xmlns="http://www.w3.org/2000/svg">
  <defs>
    <linearGradient id="bgGradient" x1="0%" y1="0%" x2="100%" y2="100%">
      <stop offset="0%" style="stop-color:#f8fafc;stop-opacity:1" />
      <stop offset="100%" style="stop-color:#e2e8f0;stop-opacity:1" />
    </linearGradient>
    <marker id="arrow" markerWidth="10" markerHeight="7" refX="9" refY="3.5" orient="auto">
      <polygon points="0 0, 10 3.5, 0 7" fill="#3b82f6"/>
    </marker>
  </defs>
  

  <rect width="800" height="600" fill="url(#bgGradient)"/>
  

  <text x="400" y="40" text-anchor="middle" font-family="Arial, sans-serif" font-size="24" font-weight="bold" fill="#1e293b">
    Strekkode Systemintegrasjon
  </text>
  

  <g transform="translate(50, 80)">
    <text x="0" y="20" font-family="Arial, sans-serif" font-size="16" font-weight="bold" fill="#1e293b">
      1. Skanning og Dataregistrering
    </text>
    

    <g transform="translate(20, 40)">
      <rect x="0" y="0" width="30" height="60" rx="6" fill="#374151" stroke="#1f2937" stroke-width="2"/>
      <rect x="6" y="6" width="18" height="12" rx="2" fill="#4b5563"/>
      <rect x="6" y="45" width="18" height="9" rx="2" fill="#4b5563"/>
      <line x1="35" y1="30" x2="90" y2="30" stroke="#ef4444" stroke-width="2" opacity="0.8"/>
      <text x="15" y="75" text-anchor="middle" font-family="Arial, sans-serif" font-size="10" fill="#64748b">
        Håndholdt
      </text>
    </g>
    

    <g transform="translate(120, 40)">
      <rect x="0" y="0" width="50" height="20" rx="4" fill="#374151"/>
      <rect x="5" y="5" width="40" height="10" rx="2" fill="#4b5563"/>
      <rect x="20" y="20" width="10" height="30" fill="#6b7280"/>
      <text x="25" y="75" text-anchor="middle" font-family="Arial, sans-serif" font-size="10" fill="#64748b">
        Fast montert
      </text>
    </g>
    

    <g transform="translate(220, 40)">
      <rect x="0" y="0" width="25" height="45" rx="8" fill="#374151"/>
      <rect x="3" y="8" width="19" height="25" rx="2" fill="#4b5563"/>
      <circle cx="12.5" cy="40" r="3" fill="#6b7280"/>
      <text x="12.5" y="70" text-anchor="middle" font-family="Arial, sans-serif" font-size="10" fill="#64748b">
        Mobil
      </text>
    </g>
  </g>
  

  <path d="M 400 150 L 400 200" stroke="#3b82f6" stroke-width="3" fill="none" marker-end="url(#arrow)"/>
  

  <g transform="translate(50, 220)">
    <text x="0" y="20" font-family="Arial, sans-serif" font-size="16" font-weight="bold" fill="#1e293b">
      2. Databehandling og Validering
    </text>
    

    <rect x="20" y="40" width="300" height="80" rx="8" fill="#f1f5f9" stroke="#cbd5e1" stroke-width="2"/>
    <text x="170" y="65" text-anchor="middle" font-family="Arial, sans-serif" font-size="14" font-weight="bold" fill="#374151">
      Middleware / API Gateway
    </text>
    

    <circle cx="50" cy="85" r="8" fill="#3b82f6"/>
    <text x="65" y="90" font-family="Arial, sans-serif" font-size="11" fill="#374151">Dekoding</text>
    
    <circle cx="130" cy="85" r="8" fill="#10b981"/>
    <text x="145" y="90" font-family="Arial, sans-serif" font-size="11" fill="#374151">Validering</text>
    
    <circle cx="210" cy="85" r="8" fill="#f59e0b"/>
    <text x="225" y="90" font-family="Arial, sans-serif" font-size="11" fill="#374151">Mapping</text>
    
    <circle cx="290" cy="85" r="8" fill="#8b5cf6"/>
    <text x="270" y="105" font-family="Arial, sans-serif" font-size="11" fill="#374151">Formatering</text>
  </g>
  

  <path d="M 400 320 L 400 370" stroke="#3b82f6" stroke-width="3" fill="none" marker-end="url(#arrow)"/>
  

  <g transform="translate(50, 390)">
    <text x="0" y="20" font-family="Arial, sans-serif" font-size="16" font-weight="bold" fill="#1e293b">
      3. Systemintegrasjon
    </text>
    

    <g transform="translate(20, 40)">
      <rect x="0" y="0" width="120" height="80" rx="8" fill="#e0f2fe" stroke="#0369a1" stroke-width="2"/>
      <text x="60" y="25" text-anchor="middle" font-family="Arial, sans-serif" font-size="14" font-weight="bold" fill="#0c4a6e">
        ERP System
      </text>
      <text x="60" y="45" text-anchor="middle" font-family="Arial, sans-serif" font-size="11" fill="#0c4a6e">
        • Lager
      </text>
      <text x="60" y="60" text-anchor="middle" font-family="Arial, sans-serif" font-size="11" fill="#0c4a6e">
        • Innkjøp
      </text>
      <text x="60" y="75" text-anchor="middle" font-family="Arial, sans-serif" font-size="11" fill="#0c4a6e">
        • Salg
      </text>
    </g>
    

    <g transform="translate(180, 40)">
      <rect x="0" y="0" width="120" height="80" rx="8" fill="#f0fdf4" stroke="#16a34a" stroke-width="2"/>
      <text x="60" y="25" text-anchor="middle" font-family="Arial, sans-serif" font-size="14" font-weight="bold" fill="#14532d">
        Regnskapssystem
      </text>
      <text x="60" y="45" text-anchor="middle" font-family="Arial, sans-serif" font-size="11" fill="#14532d">
        • Hovedbok
      </text>
      <text x="60" y="60" text-anchor="middle" font-family="Arial, sans-serif" font-size="11" fill="#14532d">
        • Fakturaer
      </text>
      <text x="60" y="75" text-anchor="middle" font-family="Arial, sans-serif" font-size="11" fill="#14532d">
        • Rapporter
      </text>
    </g>
    

    <g transform="translate(340, 40)">
      <rect x="0" y="0" width="120" height="80" rx="8" fill="#fef7cd" stroke="#ca8a04" stroke-width="2"/>
      <text x="60" y="25" text-anchor="middle" font-family="Arial, sans-serif" font-size="14" font-weight="bold" fill="#713f12">
        WMS
      </text>
      <text x="60" y="45" text-anchor="middle" font-family="Arial, sans-serif" font-size="11" fill="#713f12">
        • Lokasjon
      </text>
      <text x="60" y="60" text-anchor="middle" font-family="Arial, sans-serif" font-size="11" fill="#713f12">
        • Sporing
      </text>
      <text x="60" y="75" text-anchor="middle" font-family="Arial, sans-serif" font-size="11" fill="#713f12">
        • Picking
      </text>
    </g>
    

    <g transform="translate(500, 40)">
      <rect x="0" y="0" width="120" height="80" rx="8" fill="#faf5ff" stroke="#9333ea" stroke-width="2"/>
      <text x="60" y="25" text-anchor="middle" font-family="Arial, sans-serif" font-size="14" font-weight="bold" fill="#581c87">
        BI/Analytics
      </text>
      <text x="60" y="45" text-anchor="middle" font-family="Arial, sans-serif" font-size="11" fill="#581c87">
        • KPI-er
      </text>
      <text x="60" y="60" text-anchor="middle" font-family="Arial, sans-serif" font-size="11" fill="#581c87">
        • Trender
      </text>
      <text x="60" y="75" text-anchor="middle" font-family="Arial, sans-serif" font-size="11" fill="#581c87">
        • Prognoser
      </text>
    </g>
  </g>
  

  <path d="M 200 350 Q 120 360 80 390" stroke="#0369a1" stroke-width="2" fill="none" marker-end="url(#arrow)"/>
  <path d="M 200 350 L 240 390" stroke="#16a34a" stroke-width="2" fill="none" marker-end="url(#arrow)"/>
  <path d="M 200 350 Q 320 360 400 390" stroke="#ca8a04" stroke-width="2" fill="none" marker-end="url(#arrow)"/>
  <path d="M 200 350 Q 450 360 560 390" stroke="#9333ea" stroke-width="2" fill="none" marker-end="url(#arrow)"/>
  

  <g transform="translate(650, 150)">
    <text x="0" y="20" font-family="Arial, sans-serif" font-size="14" font-weight="bold" fill="#1e293b">
      Database
    </text>
    

    <ellipse cx="40" cy="50" rx="35" ry="15" fill="#e5e7eb" stroke="#9ca3af" stroke-width="2"/>
    <rect x="5" y="50" width="70" height="80" fill="#f3f4f6" stroke="#9ca3af" stroke-width="2"/>
    <ellipse cx="40" cy="130" rx="35" ry="15" fill="#e5e7eb" stroke="#9ca3af" stroke-width="2"/>
    
    <text x="40" y="95" text-anchor="middle" font-family="Arial, sans-serif" font-size="11" fill="#374151">
      Transaksjon
    </text>
    <text x="40" y="110" text-anchor="middle" font-family="Arial, sans-serif" font-size="11" fill="#374151">
      Historie
    </text>
  </g>
  

  <path d="M 320 280 Q 500 250 650 200" stroke="#6b7280" stroke-width="2" fill="none" marker-end="url(#arrow)"/>
  

  <g transform="translate(450, 260)">
    <rect x="0" y="0" width="200" height="100" rx="8" fill="#f0f9ff" stroke="#0284c7" stroke-width="2"/>
    <text x="100" y="20" text-anchor="middle" font-family="Arial, sans-serif" font-size="14" font-weight="bold" fill="#0c4a6e">
      Integrasjonsfordeler
    </text>
    
    <text x="10" y="40" font-family="Arial, sans-serif" font-size="11" fill="#0c4a6e">
      ✓ Sanntidsoppdatering
    </text>
    <text x="10" y="55" font-family="Arial, sans-serif" font-size="11" fill="#0c4a6e">
      ✓ Reduserte feil
    </text>
    <text x="10" y="70" font-family="Arial, sans-serif" font-size="11" fill="#0c4a6e">
      ✓ Automatisk avstemming
    </text>
    <text x="10" y="85" font-family="Arial, sans-serif" font-size="11" fill="#0c4a6e">
      ✓ Komplett auditspor
    </text>
  </g>
</svg>