<svg xmlns="http://www.w3.org/2000/svg" width="800" height="500" viewBox="0 0 800 500"><defs><linearGradient id="a" x1="0%" x2="100%" y1="0%" y2="100%"><stop offset="0%" style="stop-color:#f8fafc;stop-opacity:1"/><stop offset="100%" style="stop-color:#e2e8f0;stop-opacity:1"/></linearGradient></defs><path fill="url(#a)" d="M0 0h800v500H0z"/><text x="400" y="40" fill="#1e293b" font-family="Arial, sans-serif" font-size="24" font-weight="bold" text-anchor="middle">
    Typer Strekkoder i Regnskapsarbeid
  </text><text x="50" y="80" fill="#1e293b" font-family="Arial, sans-serif" font-size="18" font-weight="bold">
    1D (Endimensjonale) Strekkoder
  </text><text y="15" fill="#374151" font-family="Arial, sans-serif" font-size="14" font-weight="bold" transform="translate(50 100)">EAN-13</text><path fill="#1e293b" d="M50 125h2v40h-2zM54 125h1v40h-1zM57 125h3v40h-3zM62 125h1v40h-1zM65 125h2v40h-2zM69 125h1v40h-1zM72 125h4v40h-4zM78 125h1v40h-1zM81 125h2v40h-2zM85 125h3v40h-3zM90 125h1v40h-1zM93 125h2v40h-2zM97 125h1v40h-1zM100 125h3v40h-3zM105 125h2v40h-2zM109 125h1v40h-1z"/><text x="30" y="80" fill="#64748b" font-family="Arial, sans-serif" font-size="10" text-anchor="middle" transform="translate(50 100)">
      Detaljhandel, Global Standard
    </text><text y="15" fill="#374151" font-family="Arial, sans-serif" font-size="14" font-weight="bold" transform="translate(250 100)">Code 128</text><path fill="#1e293b" d="M250 125h3v40h-3zM255 125h1v40h-1zM258 125h2v40h-2zM262 125h1v40h-1zM265 125h4v40h-4zM271 125h1v40h-1zM274 125h2v40h-2zM278 125h3v40h-3zM283 125h1v40h-1zM286 125h2v40h-2zM290 125h1v40h-1zM293 125h3v40h-3zM298 125h2v40h-2zM302 125h1v40h-1zM305 125h4v40h-4z"/><text x="30" y="80" fill="#64748b" font-family="Arial, sans-serif" font-size="10" text-anchor="middle" transform="translate(250 100)">
      Logistikk, Høy datadensitet
    </text><text y="15" fill="#374151" font-family="Arial, sans-serif" font-size="14" font-weight="bold" transform="translate(450 100)">Code 39</text><path fill="#1e293b" d="M450 125h2v40h-2zM454 125h1v40h-1zM457 125h3v40h-3zM462 125h1v40h-1zM465 125h2v40h-2zM470 125h1v40h-1zM473 125h4v40h-4zM479 125h1v40h-1zM482 125h2v40h-2zM486 125h3v40h-3zM491 125h1v40h-1zM494 125h2v40h-2z"/><text x="25" y="80" fill="#64748b" font-family="Arial, sans-serif" font-size="10" text-anchor="middle" transform="translate(450 100)">
      Industri, Enkel implementering
    </text><text x="50" y="200" fill="#1e293b" font-family="Arial, sans-serif" font-size="18" font-weight="bold">
    2D (Todimensjonale) Strekkoder
  </text><text y="15" fill="#374151" font-family="Arial, sans-serif" font-size="14" font-weight="bold" transform="translate(50 220)">QR-kode</text><path fill="#fff" stroke="#1e293b" d="M50 245h60v60H50z"/><path fill="#1e293b" d="M55 250h15v15H55zM90 250h15v15H90zM55 285h15v15H55z"/><path fill="#fff" d="M58 253h9v9h-9zM93 253h9v9h-9zM58 288h9v9h-9z"/><path fill="#1e293b" d="M61 256h3v3h-3zM96 256h3v3h-3zM61 291h3v3h-3zM75 250h2v2h-2zM79 250h2v2h-2zM83 250h2v2h-2zM75 255h2v2h-2zM81 255h2v2h-2zM77 260h2v2h-2zM83 260h2v2h-2z"/><text x="30" y="100" fill="#64748b" font-family="Arial, sans-serif" font-size="10" text-anchor="middle" transform="translate(50 220)">
      Høy kapasitet, Mobile løsninger
    </text><text y="15" fill="#374151" font-family="Arial, sans-serif" font-size="14" font-weight="bold" transform="translate(200 220)">Data Matrix</text><path fill="#fff" stroke="#1e293b" d="M200 245h40v40h-40z"/><path fill="#1e293b" d="M202 247h2v2h-2zM206 247h2v2h-2zM210 247h2v2h-2zM214 247h2v2h-2zM218 247h2v2h-2zM222 247h2v2h-2zM226 247h2v2h-2zM230 247h2v2h-2zM234 247h2v2h-2zM236 247h2v36h-2zM202 281h34v2h-34zM204 251h2v2h-2zM208 251h2v2h-2zM212 255h2v2h-2zM216 259h2v2h-2zM220 263h2v2h-2zM224 267h2v2h-2z"/><text x="20" y="80" fill="#64748b" font-family="Arial, sans-serif" font-size="10" text-anchor="middle" transform="translate(200 220)">
      Kompakt, Små overflater
    </text><text y="15" fill="#374151" font-family="Arial, sans-serif" font-size="14" font-weight="bold" transform="translate(320 220)">PDF417</text><path fill="#fff" stroke="#1e293b" d="M320 245h80v40h-80z"/><path fill="#1e293b" d="M325 247h2v3h-2zM329 247h4v3h-4zM335 247h2v3h-2zM339 247h6v3h-6zM347 247h2v3h-2zM351 247h4v3h-4zM325 252h4v3h-4zM331 252h2v3h-2zM335 252h6v3h-6zM343 252h2v3h-2zM347 252h4v3h-4zM325 257h2v3h-2zM329 257h6v3h-6zM337 257h2v3h-2zM341 257h4v3h-4zM347 257h2v3h-2zM325 262h6v3h-6zM333 262h2v3h-2zM337 262h4v3h-4zM343 262h2v3h-2z"/><text x="40" y="80" fill="#64748b" font-family="Arial, sans-serif" font-size="10" text-anchor="middle" transform="translate(320 220)">
      Dokumenter, Høy kapasitet
    </text><text y="20" fill="#1e293b" font-family="Arial, sans-serif" font-size="16" font-weight="bold" transform="translate(50 320)">
      Sammenligning av Egenskaper
    </text><path fill="#f1f5f9" stroke="#cbd5e1" d="M50 350h700v25H50z"/><text x="10" y="47" fill="#374151" font-family="Arial, sans-serif" font-size="12" font-weight="bold" transform="translate(50 320)">Type</text><text x="120" y="47" fill="#374151" font-family="Arial, sans-serif" font-size="12" font-weight="bold" transform="translate(50 320)">Datakapasitet</text><text x="250" y="47" fill="#374151" font-family="Arial, sans-serif" font-size="12" font-weight="bold" transform="translate(50 320)">Anvendelse</text><text x="400" y="47" fill="#374151" font-family="Arial, sans-serif" font-size="12" font-weight="bold" transform="translate(50 320)">Fordeler</text><text x="580" y="47" fill="#374151" font-family="Arial, sans-serif" font-size="12" font-weight="bold" transform="translate(50 320)">Ulemper</text><path fill="#fff" stroke="#cbd5e1" d="M50 375h700v25H50z"/><text x="10" y="72" fill="#374151" font-family="Arial, sans-serif" font-size="11" transform="translate(50 320)">EAN-13</text><text x="120" y="72" fill="#374151" font-family="Arial, sans-serif" font-size="11" transform="translate(50 320)">13 siffer</text><text x="250" y="72" fill="#374151" font-family="Arial, sans-serif" font-size="11" transform="translate(50 320)">Detaljhandel</text><text x="400" y="72" fill="#374151" font-family="Arial, sans-serif" font-size="11" transform="translate(50 320)">Global standard</text><text x="580" y="72" fill="#374151" font-family="Arial, sans-serif" font-size="11" transform="translate(50 320)">Begrenset data</text><path fill="#f8fafc" stroke="#cbd5e1" d="M50 400h700v25H50z"/><text x="10" y="97" fill="#374151" font-family="Arial, sans-serif" font-size="11" transform="translate(50 320)">Code 128</text><text x="120" y="97" fill="#374151" font-family="Arial, sans-serif" font-size="11" transform="translate(50 320)">Alfanumerisk</text><text x="250" y="97" fill="#374151" font-family="Arial, sans-serif" font-size="11" transform="translate(50 320)">Logistikk</text><text x="400" y="97" fill="#374151" font-family="Arial, sans-serif" font-size="11" transform="translate(50 320)">Høy densitet</text><text x="580" y="97" fill="#374151" font-family="Arial, sans-serif" font-size="11" transform="translate(50 320)">Kompleksitet</text><path fill="#fff" stroke="#cbd5e1" d="M50 425h700v25H50z"/><text x="10" y="122" fill="#374151" font-family="Arial, sans-serif" font-size="11" transform="translate(50 320)">QR-kode</text><text x="120" y="122" fill="#374151" font-family="Arial, sans-serif" font-size="11" transform="translate(50 320)">4000+ tegn</text><text x="250" y="122" fill="#374151" font-family="Arial, sans-serif" font-size="11" transform="translate(50 320)">Mobile løsninger</text><text x="400" y="122" fill="#374151" font-family="Arial, sans-serif" font-size="11" transform="translate(50 320)">Feilkorreksjon</text><text x="580" y="122" fill="#374151" font-family="Arial, sans-serif" font-size="11" transform="translate(50 320)">Krever 2D-skanner</text><path fill="#f8fafc" stroke="#cbd5e1" d="M50 450h700v25H50z"/><text x="10" y="147" fill="#374151" font-family="Arial, sans-serif" font-size="11" transform="translate(50 320)">Data Matrix</text><text x="120" y="147" fill="#374151" font-family="Arial, sans-serif" font-size="11" transform="translate(50 320)">2000+ tegn</text><text x="250" y="147" fill="#374151" font-family="Arial, sans-serif" font-size="11" transform="translate(50 320)">Små komponenter</text><text x="400" y="147" fill="#374151" font-family="Arial, sans-serif" font-size="11" transform="translate(50 320)">Kompakt størrelse</text><text x="580" y="147" fill="#374151" font-family="Arial, sans-serif" font-size="11" transform="translate(50 320)">Spesiell leseteknologi</text></svg>