<svg xmlns="http://www.w3.org/2000/svg" width="800" height="400"><defs><linearGradient id="a" x1="0%" x2="100%" y1="0%" y2="0%"><stop offset="0%" style="stop-color:#1e40af;stop-opacity:1"/><stop offset="100%" style="stop-color:#3b82f6;stop-opacity:1"/></linearGradient></defs><path fill="#fff" d="M0 0h800v400H0z"/><path fill="url(#a)" d="M0 0h800v60H0z"/><text x="400" y="35" fill="#fff" font-family="Arial, sans-serif" font-size="22" font-weight="bold" text-anchor="middle">Regnskapsstandarder i Norge</text><g transform="translate(300 80)"><rect width="200" height="60" fill="#e0e7ff" stroke="#6366f1" stroke-width="2" rx="8"/><text x="100" y="25" fill="#6366f1" font-family="Arial, sans-serif" font-size="14" font-weight="bold" text-anchor="middle">Internasjonale standarder</text><text x="100" y="45" fill="#374151" font-family="Arial, sans-serif" font-size="12" text-anchor="middle">IFRS / IAS</text></g><g transform="translate(100 180)"><rect width="180" height="80" fill="#dcfce7" stroke="#16a34a" stroke-width="2" rx="8"/><text x="90" y="20" fill="#16a34a" font-family="Arial, sans-serif" font-size="14" font-weight="bold" text-anchor="middle">Store foretak</text><text x="10" y="40" fill="#374151" font-family="Arial, sans-serif" font-size="11">• IFRS (obligatorisk)</text><text x="10" y="55" fill="#374151" font-family="Arial, sans-serif" font-size="11">• NRS som alternativ</text><text x="10" y="70" fill="#374151" font-family="Arial, sans-serif" font-size="11">• Konsernregnskap</text></g><g transform="translate(520 180)"><rect width="180" height="80" fill="#fef3c7" stroke="#f59e0b" stroke-width="2" rx="8"/><text x="90" y="20" fill="#f59e0b" font-family="Arial, sans-serif" font-size="14" font-weight="bold" text-anchor="middle">Små foretak</text><text x="10" y="40" fill="#374151" font-family="Arial, sans-serif" font-size="11">• Forenklet IFRS</text><text x="10" y="55" fill="#374151" font-family="Arial, sans-serif" font-size="11">• God regnskapsskikk</text><text x="10" y="70" fill="#374151" font-family="Arial, sans-serif" font-size="11">• Forenklede krav</text></g><g transform="translate(50 300)"><rect width="150" height="70" fill="#f0f9ff" stroke="#0ea5e9" stroke-width="2" rx="8"/><text x="75" y="20" fill="#0ea5e9" font-family="Arial, sans-serif" font-size="12" font-weight="bold" text-anchor="middle">NRS</text><text x="10" y="40" fill="#374151" font-family="Arial, sans-serif" font-size="10">• Norsk RegnskapsStandard</text><text x="10" y="55" fill="#374151" font-family="Arial, sans-serif" font-size="10">• Tilpasset norske forhold</text></g><g transform="translate(220 300)"><rect width="150" height="70" fill="#fce7f3" stroke="#ec4899" stroke-width="2" rx="8"/><text x="75" y="20" fill="#ec4899" font-family="Arial, sans-serif" font-size="12" font-weight="bold" text-anchor="middle">God regnskapsskikk</text><text x="10" y="40" fill="#374151" font-family="Arial, sans-serif" font-size="10">• Etablert praksis</text><text x="10" y="55" fill="#374151" font-family="Arial, sans-serif" font-size="10">• Norske prinsipper</text></g><g transform="translate(390 300)"><rect width="150" height="70" fill="#f0fdf4" stroke="#22c55e" stroke-width="2" rx="8"/><text x="75" y="20" fill="#22c55e" font-family="Arial, sans-serif" font-size="12" font-weight="bold" text-anchor="middle">Forenklet IFRS</text><text x="10" y="40" fill="#374151" font-family="Arial, sans-serif" font-size="10">• IFRS for SME</text><text x="10" y="55" fill="#374151" font-family="Arial, sans-serif" font-size="10">• Redusert kompleksitet</text></g><g transform="translate(560 300)"><rect width="150" height="70" fill="#fefce8" stroke="#eab308" stroke-width="2" rx="8"/><text x="75" y="20" fill="#eab308" font-family="Arial, sans-serif" font-size="12" font-weight="bold" text-anchor="middle">Særregler</text><text x="10" y="40" fill="#374151" font-family="Arial, sans-serif" font-size="10">• Spesielle bransjer</text><text x="10" y="55" fill="#374151" font-family="Arial, sans-serif" font-size="10">• Offentlig sektor</text></g><path stroke="#cbd5e1" stroke-width="2" d="m380 140-180 40M420 140l180 40M150 260l-25 40M200 260l95 40M600 260l-135 40M650 260l-15 40"/></svg>