<svg xmlns="http://www.w3.org/2000/svg" width="800" height="450" viewBox="0 0 800 450"><defs><linearGradient id="a" x1="0%" x2="100%" y1="0%" y2="0%"><stop offset="0%" style="stop-color:#ec4899;stop-opacity:1"/><stop offset="100%" style="stop-color:#db2777;stop-opacity:1"/></linearGradient></defs><path fill="#f8fafc" d="M0 0h800v450H0z"/><path fill="url(#a)" d="M0 0h800v60H0z"/><text x="400" y="35" fill="#fff" font-family="Arial, sans-serif" font-size="20" font-weight="bold" text-anchor="middle">Fremtidens Pensjonsteknologi</text><rect width="700" height="350" x="50" y="80" fill="#fff" stroke="#e2e8f0" stroke-width="2" rx="10"/><rect width="320" height="150" x="70" y="100" fill="#fdf2f8" stroke="#ec4899" stroke-width="2" rx="8"/><text x="230" y="125" fill="#be185d" font-family="Arial, sans-serif" font-size="16" font-weight="bold" text-anchor="middle">AI og Automatisering</text><rect width="280" height="100" x="90" y="140" fill="#fff" stroke="#f9a8d4" rx="5"/><text x="100" y="160" fill="#be185d" font-family="Arial, sans-serif" font-size="14" font-weight="bold">Kunstig intelligens:</text><text x="100" y="180" fill="#374151" font-family="Arial, sans-serif" font-size="12">• Personaliserte pensjonsråd</text><text x="100" y="200" fill="#374151" font-family="Arial, sans-serif" font-size="12">• Prediktiv analyse</text><text x="100" y="220" fill="#be185d" font-family="Arial, sans-serif" font-size="14" font-weight="bold">Robo-advisors:</text><text x="100" y="235" fill="#374151" font-family="Arial, sans-serif" font-size="12">• Automatisert investeringsrådgivning</text><rect width="320" height="150" x="410" y="100" fill="#f0f9ff" stroke="#0ea5e9" stroke-width="2" rx="8"/><text x="570" y="125" fill="#0284c7" font-family="Arial, sans-serif" font-size="16" font-weight="bold" text-anchor="middle">Blockchain og Sikkerhet</text><rect width="280" height="100" x="430" y="140" fill="#fff" stroke="#7dd3fc" rx="5"/><text x="440" y="160" fill="#0284c7" font-family="Arial, sans-serif" font-size="14" font-weight="bold">Blockchain:</text><text x="440" y="180" fill="#374151" font-family="Arial, sans-serif" font-size="12">• Sikker datalagring</text><text x="440" y="200" fill="#374151" font-family="Arial, sans-serif" font-size="12">• Transparent transaksjoner</text><text x="440" y="220" fill="#0284c7" font-family="Arial, sans-serif" font-size="14" font-weight="bold">Smart contracts:</text><text x="440" y="235" fill="#374151" font-family="Arial, sans-serif" font-size="12">• Automatiske utbetalinger</text><rect width="660" height="150" x="70" y="270" fill="#f0fdf4" stroke="#22c55e" stroke-width="2" rx="8"/><text x="400" y="295" fill="#16a34a" font-family="Arial, sans-serif" font-size="16" font-weight="bold" text-anchor="middle">Teknologisk Utviklingsløp</text><path stroke="#6b7280" stroke-width="3" d="M120 320h560"/><circle cx="180" cy="320" r="10" fill="#f59e0b"/><text x="180" y="310" fill="#d97706" font-family="Arial, sans-serif" font-size="12" font-weight="bold" text-anchor="middle">2024-25</text><rect width="100" height="70" x="130" y="330" fill="#fff" stroke="#fcd34d" rx="3"/><text x="135" y="345" fill="#92400e" font-family="Arial, sans-serif" font-size="10" font-weight="bold">Nåtid:</text><text x="135" y="360" fill="#374151" font-family="Arial, sans-serif" font-size="9">• API-integrasjoner</text><text x="135" y="375" fill="#374151" font-family="Arial, sans-serif" font-size="9">• Skyløsninger</text><text x="135" y="390" fill="#374151" font-family="Arial, sans-serif" font-size="9">• Mobilapper</text><circle cx="320" cy="320" r="10" fill="#3b82f6"/><text x="320" y="310" fill="#1d4ed8" font-family="Arial, sans-serif" font-size="12" font-weight="bold" text-anchor="middle">2026-28</text><rect width="100" height="70" x="270" y="330" fill="#fff" stroke="#93c5fd" rx="3"/><text x="275" y="345" fill="#1e40af" font-family="Arial, sans-serif" font-size="10" font-weight="bold">Nær fremtid:</text><text x="275" y="360" fill="#374151" font-family="Arial, sans-serif" font-size="9">• AI-basert rådgivning</text><text x="275" y="375" fill="#374151" font-family="Arial, sans-serif" font-size="9">• Prediktiv analyse</text><text x="275" y="390" fill="#374151" font-family="Arial, sans-serif" font-size="9">• Voice interfaces</text><circle cx="480" cy="320" r="10" fill="#10b981"/><text x="480" y="310" fill="#059669" font-family="Arial, sans-serif" font-size="12" font-weight="bold" text-anchor="middle">2029-32</text><rect width="100" height="70" x="430" y="330" fill="#fff" stroke="#6ee7b7" rx="3"/><text x="435" y="345" fill="#047857" font-family="Arial, sans-serif" font-size="10" font-weight="bold">Mellomfremtid:</text><text x="435" y="360" fill="#374151" font-family="Arial, sans-serif" font-size="9">• Blockchain-pensjon</text><text x="435" y="375" fill="#374151" font-family="Arial, sans-serif" font-size="9">• Smart contracts</text><text x="435" y="390" fill="#374151" font-family="Arial, sans-serif" font-size="9">• IoT-integrasjon</text><circle cx="620" cy="320" r="10" fill="#8b5cf6"/><text x="620" y="310" fill="#7c3aed" font-family="Arial, sans-serif" font-size="12" font-weight="bold" text-anchor="middle">2033+</text><rect width="100" height="70" x="570" y="330" fill="#fff" stroke="#c4b5fd" rx="3"/><text x="575" y="345" fill="#6d28d9" font-family="Arial, sans-serif" font-size="10" font-weight="bold">Fjern fremtid:</text><text x="575" y="360" fill="#374151" font-family="Arial, sans-serif" font-size="9">• Quantum computing</text><text x="575" y="375" fill="#374151" font-family="Arial, sans-serif" font-size="9">• Neural interfaces</text><text x="575" y="390" fill="#374151" font-family="Arial, sans-serif" font-size="9">• Autonom forvaltning</text><path fill="none" stroke="#6b7280" stroke-width="2" marker-end="url(#b)" d="M390 190h20"/><path fill="none" stroke="#6b7280" stroke-width="2" marker-end="url(#b)" d="M400 250v20"/><defs><marker id="b" fill="#6b7280" markerHeight="7" markerWidth="10" orient="auto" refX="10" refY="3.5"><path d="m0 0 10 3.5L0 7z"/></marker></defs></svg>