<svg xmlns="http://www.w3.org/2000/svg" width="800" height="450" viewBox="0 0 800 450"><defs><linearGradient id="a" x1="0%" x2="100%" y1="0%" y2="0%"><stop offset="0%" style="stop-color:#0f766e;stop-opacity:1"/><stop offset="100%" style="stop-color:#0d9488;stop-opacity:1"/></linearGradient></defs><path fill="#f8fafc" d="M0 0h800v450H0z"/><path fill="url(#a)" d="M0 0h800v60H0z"/><text x="400" y="35" fill="#fff" font-family="Arial, sans-serif" font-size="20" font-weight="bold" text-anchor="middle">Likviditetseffekt av Tjenestepensjon</text><rect width="700" height="350" x="50" y="80" fill="#fff" stroke="#e2e8f0" stroke-width="2" rx="10"/><rect width="660" height="120" x="70" y="100" fill="#f0fdfa" stroke="#14b8a6" stroke-width="2" rx="8"/><text x="400" y="125" fill="#0f766e" font-family="Arial, sans-serif" font-size="16" font-weight="bold" text-anchor="middle">Månedlig Kontantstrøm</text><path stroke="#6b7280" stroke-width="2" d="M120 150h560"/><circle cx="200" cy="150" r="8" fill="#14b8a6"/><text x="200" y="140" fill="#0f766e" font-family="Arial, sans-serif" font-size="10" text-anchor="middle">Jan</text><text x="200" y="175" fill="#374151" font-family="Arial, sans-serif" font-size="9" text-anchor="middle">-41.667</text><circle cx="300" cy="150" r="8" fill="#14b8a6"/><text x="300" y="140" fill="#0f766e" font-family="Arial, sans-serif" font-size="10" text-anchor="middle">Feb</text><text x="300" y="175" fill="#374151" font-family="Arial, sans-serif" font-size="9" text-anchor="middle">-41.667</text><circle cx="400" cy="150" r="8" fill="#14b8a6"/><text x="400" y="140" fill="#0f766e" font-family="Arial, sans-serif" font-size="10" text-anchor="middle">Mar</text><text x="400" y="175" fill="#374151" font-family="Arial, sans-serif" font-size="9" text-anchor="middle">-41.667</text><circle cx="500" cy="150" r="8" fill="#14b8a6"/><text x="500" y="140" fill="#0f766e" font-family="Arial, sans-serif" font-size="10" text-anchor="middle">Apr</text><text x="500" y="175" fill="#374151" font-family="Arial, sans-serif" font-size="9" text-anchor="middle">-41.667</text><circle cx="600" cy="150" r="8" fill="#f59e0b"/><text x="600" y="140" fill="#d97706" font-family="Arial, sans-serif" font-size="10" text-anchor="middle">Mai</text><text x="600" y="175" fill="#374151" font-family="Arial, sans-serif" font-size="9" text-anchor="middle">-208.333</text><text x="120" y="195" fill="#6b7280" font-family="Arial, sans-serif" font-size="11">Årlig pensjon 500.000 kr → Månedlig 41.667 kr + kvartalsjusteringer</text><rect width="320" height="180" x="70" y="240" fill="#eff6ff" stroke="#3b82f6" stroke-width="2" rx="8"/><text x="230" y="265" fill="#1e40af" font-family="Arial, sans-serif" font-size="16" font-weight="bold" text-anchor="middle">Påvirkning Nøkkeltall</text><rect width="280" height="130" x="90" y="280" fill="#fff" stroke="#93c5fd" rx="5"/><text x="100" y="300" fill="#1e40af" font-family="Arial, sans-serif" font-size="14" font-weight="bold">Arbeidskapital:</text><text x="100" y="320" fill="#374151" font-family="Arial, sans-serif" font-size="12">• Månedlige utbetalinger reduserer</text><text x="100" y="340" fill="#374151" font-family="Arial, sans-serif" font-size="12">• Pensjon 5% = 5% lavere arbeidskapital</text><text x="100" y="360" fill="#1e40af" font-family="Arial, sans-serif" font-size="14" font-weight="bold">Kontantstrøm:</text><text x="100" y="380" fill="#374151" font-family="Arial, sans-serif" font-size="12">• Direkte kostnad fra drift</text><text x="100" y="400" fill="#374151" font-family="Arial, sans-serif" font-size="12">• Påvirker operasjonell kontantstrøm</text><rect width="320" height="180" x="410" y="240" fill="#fef7cd" stroke="#f59e0b" stroke-width="2" rx="8"/><text x="570" y="265" fill="#d97706" font-family="Arial, sans-serif" font-size="16" font-weight="bold" text-anchor="middle">Planlegging &amp; Optimalisering</text><rect width="280" height="130" x="430" y="280" fill="#fff" stroke="#fcd34d" rx="5"/><text x="440" y="300" fill="#d97706" font-family="Arial, sans-serif" font-size="14" font-weight="bold">Betalingsfrekvens:</text><text x="440" y="320" fill="#374151" font-family="Arial, sans-serif" font-size="12">• Månedlig: Jevn belastning</text><text x="440" y="340" fill="#374151" font-family="Arial, sans-serif" font-size="12">• Kvartalsvis: Større utbetalinger</text><text x="440" y="360" fill="#d97706" font-family="Arial, sans-serif" font-size="14" font-weight="bold">Likviditetsreserve:</text><text x="440" y="380" fill="#374151" font-family="Arial, sans-serif" font-size="12">• Buffer for pensjonsutbetalinger</text><text x="440" y="400" fill="#374151" font-family="Arial, sans-serif" font-size="12">• Sesongvariasjoner i lønn</text><path fill="none" stroke="#6b7280" stroke-width="2" marker-end="url(#b)" d="M400 220v20"/><path fill="none" stroke="#6b7280" stroke-width="2" marker-end="url(#b)" d="M390 340h20"/><defs><marker id="b" fill="#6b7280" markerHeight="7" markerWidth="10" orient="auto" refX="10" refY="3.5"><path d="m0 0 10 3.5L0 7z"/></marker></defs></svg>