<svg xmlns="http://www.w3.org/2000/svg" width="800" height="600" viewBox="0 0 800 600"><path fill="#f8f9fa" d="M0 0h800v600H0z"/><text x="400" y="40" fill="#2c3e50" font-family="Arial, sans-serif" font-size="22" font-weight="bold" text-anchor="middle">
    Beslutningstre for MVA-registrering
  </text><rect width="160" height="50" x="320" y="70" fill="#3498db" rx="25"/><text x="400" y="100" fill="#fff" font-family="Arial, sans-serif" font-size="14" font-weight="bold" text-anchor="middle">
    Start virksomhet
  </text><path fill="#f39c12" d="m400 150 80 50-80 50-80-50z"/><text x="400" y="195" fill="#fff" font-family="Arial, sans-serif" font-size="11" font-weight="bold" text-anchor="middle">
    Omsetning over
  </text><text x="400" y="210" fill="#fff" font-family="Arial, sans-serif" font-size="11" font-weight="bold" text-anchor="middle">
    grensen?
  </text><rect width="160" height="50" x="120" y="300" fill="#e74c3c" rx="10"/><text x="200" y="320" fill="#fff" font-family="Arial, sans-serif" font-size="12" font-weight="bold" text-anchor="middle">
    Under grensen
  </text><text x="200" y="335" fill="#fff" font-family="Arial, sans-serif" font-size="12" text-anchor="middle">
    (50k/70k/140k kr)
  </text><rect width="160" height="50" x="520" y="300" fill="#27ae60" rx="10"/><text x="600" y="320" fill="#fff" font-family="Arial, sans-serif" font-size="12" font-weight="bold" text-anchor="middle">
    Over grensen
  </text><text x="600" y="335" fill="#fff" font-family="Arial, sans-serif" font-size="12" text-anchor="middle">
    Obligatorisk registrering
  </text><path fill="#9b59b6" d="m200 380 60 40-60 40-60-40z"/><text x="200" y="415" fill="#fff" font-family="Arial, sans-serif" font-size="10" font-weight="bold" text-anchor="middle">
    Fradragsrett
  </text><text x="200" y="430" fill="#fff" font-family="Arial, sans-serif" font-size="10" font-weight="bold" text-anchor="middle">
    ønskelig?
  </text><rect width="120" height="60" x="50" y="500" fill="#95a5a6" rx="10"/><text x="110" y="520" fill="#fff" font-family="Arial, sans-serif" font-size="11" font-weight="bold" text-anchor="middle">
    Ikke registrer
  </text><text x="110" y="535" fill="#fff" font-family="Arial, sans-serif" font-size="10" text-anchor="middle">
    Ingen MVA-plikt
  </text><text x="110" y="550" fill="#fff" font-family="Arial, sans-serif" font-size="10" text-anchor="middle">
    Ingen fradrag
  </text><rect width="120" height="60" x="230" y="500" fill="#3498db" rx="10"/><text x="290" y="520" fill="#fff" font-family="Arial, sans-serif" font-size="11" font-weight="bold" text-anchor="middle">
    Frivillig registrer
  </text><text x="290" y="535" fill="#fff" font-family="Arial, sans-serif" font-size="10" text-anchor="middle">
    MVA-plikt
  </text><text x="290" y="550" fill="#fff" font-family="Arial, sans-serif" font-size="10" text-anchor="middle">
    Fradragsrett
  </text><rect width="160" height="80" x="520" y="400" fill="#27ae60" rx="10"/><text x="600" y="425" fill="#fff" font-family="Arial, sans-serif" font-size="12" font-weight="bold" text-anchor="middle">
    OBLIGATORISK
  </text><text x="600" y="440" fill="#fff" font-family="Arial, sans-serif" font-size="12" font-weight="bold" text-anchor="middle">
    REGISTRERING
  </text><text x="600" y="460" fill="#fff" font-family="Arial, sans-serif" font-size="10" text-anchor="middle">
    Innen 1 måned
  </text><text x="600" y="475" fill="#fff" font-family="Arial, sans-serif" font-size="10" text-anchor="middle">
    Sanksjoner ved forsinkelse
  </text><defs><marker id="a" markerHeight="7" markerWidth="10" orient="auto" refX="9" refY="3.5"><path fill="#2c3e50" d="m0 0 10 3.5L0 7z"/></marker></defs><path stroke="#2c3e50" stroke-width="2" marker-end="url(#a)" d="M400 120v30"/><path stroke="#2c3e50" stroke-width="2" marker-end="url(#a)" d="m320 200-40 100"/><path stroke="#2c3e50" stroke-width="2" marker-end="url(#a)" d="m480 200 40 100"/><path stroke="#2c3e50" stroke-width="2" marker-end="url(#a)" d="M200 350v30"/><path stroke="#2c3e50" stroke-width="2" marker-end="url(#a)" d="m140 420-30 80"/><path stroke="#2c3e50" stroke-width="2" marker-end="url(#a)" d="m260 420 30 80"/><path stroke="#2c3e50" stroke-width="2" marker-end="url(#a)" d="M600 350v50"/><text x="250" y="240" fill="#e74c3c" font-family="Arial, sans-serif" font-size="12" font-weight="bold">
    NEI
  </text><text x="550" y="240" fill="#27ae60" font-family="Arial, sans-serif" font-size="12" font-weight="bold">
    JA
  </text><text x="120" y="450" fill="#95a5a6" font-family="Arial, sans-serif" font-size="11" font-weight="bold">
    NEI
  </text><text x="280" y="450" fill="#3498db" font-family="Arial, sans-serif" font-size="11" font-weight="bold">
    JA
  </text><text x="400" y="580" fill="#7f8c8d" font-family="Arial, sans-serif" font-size="12" text-anchor="middle">
    Vurder nøye før du velger frivillig registrering - det medfører administrative forpliktelser
  </text></svg>