<svg xmlns="http://www.w3.org/2000/svg" width="800" height="600" viewBox="0 0 800 600"><path fill="#f8f9fa" d="M0 0h800v600H0z"/><text x="400" y="30" fill="#212529" font-family="Arial, sans-serif" font-size="24" font-weight="bold" text-anchor="middle">Importdokumentasjon og Tollprosess</text><rect width="700" height="520" x="50" y="60" fill="#fff" stroke="#dee2e6" stroke-width="2" rx="10"/><g transform="translate(80 100)"><rect width="120" height="80" fill="#28a745" stroke="#1e7e34" stroke-width="2" rx="8"/><path fill="#fff" stroke="#28a745" d="M10 15h100v50H10z"/><text x="60" y="35" fill="#28a745" font-family="Arial, sans-serif" font-size="12" font-weight="bold" text-anchor="middle">FAKTURA</text><text x="60" y="50" fill="#28a745" font-family="Arial, sans-serif" font-size="10" text-anchor="middle">Fra leverandør</text></g><g transform="translate(230 100)"><rect width="120" height="80" fill="#0d6efd" stroke="#0339a8" stroke-width="2" rx="8"/><path fill="#fff" stroke="#0d6efd" d="M10 15h100v50H10z"/><text x="60" y="35" fill="#0d6efd" font-family="Arial, sans-serif" font-size="12" font-weight="bold" text-anchor="middle">PAKKSEDDEL</text><text x="60" y="50" fill="#0d6efd" font-family="Arial, sans-serif" font-size="10" text-anchor="middle">Vareinnhold</text></g><g transform="translate(380 100)"><rect width="120" height="80" fill="#dc3545" stroke="#b02a37" stroke-width="2" rx="8"/><path fill="#fff" stroke="#dc3545" d="M10 15h100v50H10z"/><text x="60" y="32" fill="#dc3545" font-family="Arial, sans-serif" font-size="11" font-weight="bold" text-anchor="middle">TRANSPORT</text><text x="60" y="45" fill="#dc3545" font-family="Arial, sans-serif" font-size="11" font-weight="bold" text-anchor="middle">DOKUMENT</text><text x="60" y="57" fill="#dc3545" font-family="Arial, sans-serif" font-size="10" text-anchor="middle">Konnossement</text></g><g transform="translate(530 100)"><rect width="120" height="80" fill="#6f42c1" stroke="#59359a" stroke-width="2" rx="8"/><path fill="#fff" stroke="#6f42c1" d="M10 15h100v50H10z"/><text x="60" y="32" fill="#6f42c1" font-family="Arial, sans-serif" font-size="11" font-weight="bold" text-anchor="middle">OPPRINNELSE</text><text x="60" y="45" fill="#6f42c1" font-family="Arial, sans-serif" font-size="11" font-weight="bold" text-anchor="middle">BEVIS</text><text x="60" y="57" fill="#6f42c1" font-family="Arial, sans-serif" font-size="10" text-anchor="middle">Preferansetoll</text></g><path fill="none" stroke="#495057" stroke-width="2" marker-end="url(#a)" d="M140 180v40"/><path fill="none" stroke="#495057" stroke-width="2" marker-end="url(#a)" d="M290 180v40"/><path fill="none" stroke="#495057" stroke-width="2" marker-end="url(#a)" d="M440 180v40"/><path fill="none" stroke="#495057" stroke-width="2" marker-end="url(#a)" d="M590 180v40"/><rect width="400" height="60" x="200" y="230" fill="#ffc107" stroke="#d39e00" stroke-width="3" rx="8"/><text x="400" y="255" fill="#212529" font-family="Arial, sans-serif" font-size="16" font-weight="bold" text-anchor="middle">TOLLDEKLARASJON (SAD)</text><text x="400" y="275" fill="#212529" font-family="Arial, sans-serif" font-size="14" text-anchor="middle">Elektronisk gjennom TVINN</text><path fill="none" stroke="#495057" stroke-width="3" marker-end="url(#a)" d="M400 290v30"/><g transform="translate(100 330)"><rect width="150" height="50" fill="#17a2b8" stroke="#138496" stroke-width="2" rx="8"/><text x="75" y="20" fill="#fff" font-family="Arial, sans-serif" font-size="12" font-weight="bold" text-anchor="middle">1. Risikoanalyse</text><text x="75" y="35" fill="#fff" font-family="Arial, sans-serif" font-size="10" text-anchor="middle">Automatisk kontroll</text></g><g transform="translate(275 330)"><rect width="150" height="50" fill="#17a2b8" stroke="#138496" stroke-width="2" rx="8"/><text x="75" y="20" fill="#fff" font-family="Arial, sans-serif" font-size="12" font-weight="bold" text-anchor="middle">2. Verifikasjon</text><text x="75" y="35" fill="#fff" font-family="Arial, sans-serif" font-size="10" text-anchor="middle">Dokument/fysisk</text></g><g transform="translate(450 330)"><rect width="150" height="50" fill="#17a2b8" stroke="#138496" stroke-width="2" rx="8"/><text x="75" y="20" fill="#fff" font-family="Arial, sans-serif" font-size="12" font-weight="bold" text-anchor="middle">3. Frigivelse</text><text x="75" y="35" fill="#fff" font-family="Arial, sans-serif" font-size="10" text-anchor="middle">Etter betaling</text></g><path fill="none" stroke="#495057" stroke-width="2" marker-end="url(#a)" d="M250 355h25"/><path fill="none" stroke="#495057" stroke-width="2" marker-end="url(#a)" d="M425 355h25"/><g transform="translate(150 420)"><rect width="150" height="60" fill="#28a745" stroke="#1e7e34" stroke-width="2" rx="8"/><text x="75" y="25" fill="#fff" font-family="Arial, sans-serif" font-size="14" font-weight="bold" text-anchor="middle">GRØNN KANAL</text><text x="75" y="40" fill="#fff" font-family="Arial, sans-serif" font-size="11" text-anchor="middle">Automatisk frigivelse</text><text x="75" y="55" fill="#fff" font-family="Arial, sans-serif" font-size="11" text-anchor="middle">(~95% av forsendelser)</text></g><g transform="translate(450 420)"><rect width="150" height="60" fill="#dc3545" stroke="#b02a37" stroke-width="2" rx="8"/><text x="75" y="25" fill="#fff" font-family="Arial, sans-serif" font-size="14" font-weight="bold" text-anchor="middle">RØD KANAL</text><text x="75" y="40" fill="#fff" font-family="Arial, sans-serif" font-size="11" text-anchor="middle">Manuell kontroll</text><text x="75" y="55" fill="#fff" font-family="Arial, sans-serif" font-size="11" text-anchor="middle">(~5% av forsendelser)</text></g><path fill="none" stroke="#28a745" stroke-width="2" marker-end="url(#b)" d="m175 380 50 40"/><path fill="none" stroke="#dc3545" stroke-width="2" marker-end="url(#c)" d="M525 380v40"/><rect width="300" height="40" x="250" y="520" fill="#e9ecef" stroke="#adb5bd" rx="8"/><text x="400" y="540" fill="#495057" font-family="Arial, sans-serif" font-size="14" text-anchor="middle">Gjennomsnittlig behandlingstid: 2-24 timer</text><text x="400" y="555" fill="#6c757d" font-family="Arial, sans-serif" font-size="12" text-anchor="middle">Avhenger av kompleksitet og kontrollbehov</text><defs><marker id="a" markerHeight="7" markerWidth="10" orient="auto" refX="9" refY="3.5"><path fill="#495057" d="m0 0 10 3.5L0 7z"/></marker><marker id="b" markerHeight="7" markerWidth="10" orient="auto" refX="9" refY="3.5"><path fill="#28a745" d="m0 0 10 3.5L0 7z"/></marker><marker id="c" markerHeight="7" markerWidth="10" orient="auto" refX="9" refY="3.5"><path fill="#dc3545" d="m0 0 10 3.5L0 7z"/></marker></defs></svg>