<svg xmlns="http://www.w3.org/2000/svg" width="800" height="500" viewBox="0 0 800 500"><path fill="#f8f9fa" d="M0 0h800v500H0z"/><text x="400" y="30" fill="#212529" font-family="Arial, sans-serif" font-size="24" font-weight="bold" text-anchor="middle">Tollsatser etter Varegruppe</text><rect width="700" height="420" x="50" y="60" fill="#fff" stroke="#dee2e6" stroke-width="2" rx="10"/><path fill="#dc3545" stroke="#b02a37" stroke-width="2" d="M80 150h80v200H80z"/><text x="120" y="140" fill="#212529" font-family="Arial, sans-serif" font-size="12" font-weight="bold" text-anchor="middle">Landbruk</text><text x="120" y="370" fill="#dc3545" font-family="Arial, sans-serif" font-size="14" font-weight="bold" text-anchor="middle">0-40%</text><text x="120" y="385" fill="#6c757d" font-family="Arial, sans-serif" font-size="10" text-anchor="middle">Høy beskyttelse</text><path fill="#28a745" stroke="#1e7e34" stroke-width="2" d="M190 280h80v70h-80z"/><text x="230" y="140" fill="#212529" font-family="Arial, sans-serif" font-size="12" font-weight="bold" text-anchor="middle">Industrivarer</text><text x="230" y="370" fill="#28a745" font-family="Arial, sans-serif" font-size="14" font-weight="bold" text-anchor="middle">0-12%</text><text x="230" y="385" fill="#6c757d" font-family="Arial, sans-serif" font-size="10" text-anchor="middle">Snitt: 4%</text><path fill="#ffc107" stroke="#d39e00" stroke-width="2" d="M300 250h80v100h-80z"/><text x="340" y="140" fill="#212529" font-family="Arial, sans-serif" font-size="12" font-weight="bold" text-anchor="middle">Tekstiler</text><text x="340" y="370" fill="#d39e00" font-family="Arial, sans-serif" font-size="14" font-weight="bold" text-anchor="middle">8-12%</text><text x="340" y="385" fill="#6c757d" font-family="Arial, sans-serif" font-size="10" text-anchor="middle">Varierer</text><path fill="#0d6efd" stroke="#0339a8" stroke-width="2" d="M410 310h80v40h-80z"/><text x="450" y="140" fill="#212529" font-family="Arial, sans-serif" font-size="12" font-weight="bold" text-anchor="middle">Elektronikk</text><text x="450" y="370" fill="#0d6efd" font-family="Arial, sans-serif" font-size="14" font-weight="bold" text-anchor="middle">0-4%</text><text x="450" y="385" fill="#6c757d" font-family="Arial, sans-serif" font-size="10" text-anchor="middle">Ofte preferanse</text><path fill="#6f42c1" stroke="#59359a" stroke-width="2" d="M520 230h80v120h-80z"/><text x="560" y="140" fill="#212529" font-family="Arial, sans-serif" font-size="12" font-weight="bold" text-anchor="middle">Kjøretøy</text><text x="560" y="370" fill="#6f42c1" font-family="Arial, sans-serif" font-size="14" font-weight="bold" text-anchor="middle">8-15%</text><text x="560" y="385" fill="#6c757d" font-family="Arial, sans-serif" font-size="10" text-anchor="middle">Elbil: 0%</text><path fill="#fd7e14" stroke="#e8590c" stroke-width="2" d="M630 290h80v60h-80z"/><text x="670" y="140" fill="#212529" font-family="Arial, sans-serif" font-size="12" font-weight="bold" text-anchor="middle">Andre varer</text><text x="670" y="370" fill="#fd7e14" font-family="Arial, sans-serif" font-size="14" font-weight="bold" text-anchor="middle">0-25%</text><text x="670" y="385" fill="#6c757d" font-family="Arial, sans-serif" font-size="10" text-anchor="middle">Varierende</text><path stroke="#495057" stroke-width="2" d="M75 100v250"/><text x="70" y="105" fill="#495057" font-family="Arial, sans-serif" font-size="12" text-anchor="end">40%</text><text x="70" y="155" fill="#495057" font-family="Arial, sans-serif" font-size="12" text-anchor="end">30%</text><text x="70" y="205" fill="#495057" font-family="Arial, sans-serif" font-size="12" text-anchor="end">20%</text><text x="70" y="255" fill="#495057" font-family="Arial, sans-serif" font-size="12" text-anchor="end">10%</text><text x="70" y="305" fill="#495057" font-family="Arial, sans-serif" font-size="12" text-anchor="end">5%</text><text x="70" y="355" fill="#495057" font-family="Arial, sans-serif" font-size="12" text-anchor="end">0%</text><path stroke="#e9ecef" stroke-dasharray="2,2" d="M75 150h645M75 200h645M75 250h645M75 300h645"/><path stroke="#495057" stroke-width="2" d="M75 350h645"/><text x="400" y="110" fill="#495057" font-family="Arial, sans-serif" font-size="14" font-weight="bold" text-anchor="middle">Maksimal tollsats per varegruppe</text><rect width="600" height="40" x="100" y="420" fill="#e9ecef" stroke="#adb5bd" rx="8"/><text x="400" y="440" fill="#495057" font-family="Arial, sans-serif" font-size="12" text-anchor="middle">Faktiske satser avhenger av opprinnelsesland, frihandelsavtaler og spesifikke vareklassifikasjoner</text><text x="400" y="455" fill="#6c757d" font-family="Arial, sans-serif" font-size="11" text-anchor="middle">KN-koder (Kombinert Nomenklatur) bestemmer eksakt tollsats</text></svg>