<svg xmlns="http://www.w3.org/2000/svg" width="800" height="400"><defs><linearGradient id="a" x1="0%" x2="100%" y1="0%" y2="0%"><stop offset="0%" style="stop-color:#2563eb;stop-opacity:1"/><stop offset="100%" style="stop-color:#1d4ed8;stop-opacity:1"/></linearGradient><linearGradient id="b" x1="0%" x2="0%" y1="0%" y2="100%"><stop offset="0%" style="stop-color:#f8fafc;stop-opacity:1"/><stop offset="100%" style="stop-color:#e2e8f0;stop-opacity:1"/></linearGradient></defs><path fill="#fff" d="M0 0h800v400H0z"/><path fill="url(#a)" d="M0 0h800v80H0z"/><text x="400" y="45" fill="#fff" font-family="Arial, sans-serif" font-size="28" font-weight="bold" text-anchor="middle">Kortsiktig Gjeld</text><rect width="700" height="280" x="50" y="100" fill="url(#b)" stroke="#cbd5e1" stroke-width="2" rx="10"/><rect width="320" height="240" x="70" y="120" fill="#fff" stroke="#e2e8f0" rx="8"/><text x="230" y="145" fill="#1e293b" font-family="Arial, sans-serif" font-size="16" font-weight="bold" text-anchor="middle">Definisjon</text><text x="80" y="170" fill="#475569" font-family="Arial, sans-serif" font-size="12">Forpliktelser som forfaller</text><text x="80" y="185" fill="#475569" font-family="Arial, sans-serif" font-size="12">til betaling innen ett år</text><text x="80" y="200" fill="#475569" font-family="Arial, sans-serif" font-size="12">fra balansedagen</text><circle cx="230" cy="240" r="25" fill="#ef4444" stroke="#fff" stroke-width="3"/><path stroke="#fff" stroke-width="2" d="M230 225v15M230 240l10 10"/><text x="230" y="285" fill="#dc2626" font-family="Arial, sans-serif" font-size="14" font-weight="bold" text-anchor="middle">&lt; 12 måneder</text><rect width="320" height="240" x="410" y="120" fill="#fff" stroke="#e2e8f0" rx="8"/><text x="570" y="145" fill="#1e293b" font-family="Arial, sans-serif" font-size="16" font-weight="bold" text-anchor="middle">Hovedkomponenter</text><rect width="140" height="30" x="420" y="160" fill="#dbeafe" stroke="#3b82f6" rx="4"/><text x="490" y="178" fill="#1e40af" font-family="Arial, sans-serif" font-size="11" text-anchor="middle">Leverandørgjeld</text><rect width="140" height="30" x="580" y="160" fill="#dcfce7" stroke="#22c55e" rx="4"/><text x="650" y="178" fill="#15803d" font-family="Arial, sans-serif" font-size="11" text-anchor="middle">Kortsiktige banklån</text><rect width="140" height="30" x="420" y="200" fill="#fef3c7" stroke="#f59e0b" rx="4"/><text x="490" y="218" fill="#d97706" font-family="Arial, sans-serif" font-size="11" text-anchor="middle">Skattegjeld</text><rect width="140" height="30" x="580" y="200" fill="#fce7f3" stroke="#ec4899" rx="4"/><text x="650" y="218" fill="#be185d" font-family="Arial, sans-serif" font-size="11" text-anchor="middle">Påløpte kostnader</text><rect width="140" height="30" x="420" y="240" fill="#e0e7ff" stroke="#6366f1" rx="4"/><text x="490" y="258" fill="#4338ca" font-family="Arial, sans-serif" font-size="11" text-anchor="middle">Kortsiktig del av</text><text x="490" y="268" fill="#4338ca" font-family="Arial, sans-serif" font-size="9" text-anchor="middle">langsiktig gjeld</text><rect width="140" height="30" x="580" y="240" fill="#f3e8ff" stroke="#8b5cf6" rx="4"/><text x="650" y="258" fill="#7c3aed" font-family="Arial, sans-serif" font-size="11" text-anchor="middle">Annen kortsiktig gjeld</text><path stroke="#64748b" stroke-width="2" marker-end="url(#c)" d="M390 240h20"/><defs><marker id="c" markerHeight="7" markerWidth="10" orient="auto" refX="9" refY="3.5"><path fill="#64748b" d="m0 0 10 3.5L0 7z"/></marker></defs></svg>