<svg xmlns="http://www.w3.org/2000/svg" width="700" height="500" viewBox="0 0 700 500"><path fill="#f8f9fa" d="M0 0h700v500H0z"/><text x="350" y="30" fill="#2c3e50" font-family="Arial, sans-serif" font-size="20" font-weight="bold" text-anchor="middle">
    Sammenligning av Avskrivningsmetoder
  </text><rect width="280" height="200" x="50" y="60" fill="#fff" stroke="#3498db" stroke-width="2" rx="10"/><rect width="280" height="40" x="50" y="60" fill="#3498db" rx="10 10 0 0"/><text x="190" y="85" fill="#fff" font-family="Arial, sans-serif" font-size="16" font-weight="bold" text-anchor="middle">
    LINEÆR AVSKRIVNING
  </text><path stroke="#2c3e50" d="M80 230h220M80 120v120"/><path fill="#3498db" d="M90 130h30v100H90zM130 130h30v100h-30zM170 130h30v100h-30zM210 130h30v100h-30zM250 130h30v100h-30z" opacity=".8"/><text x="105" y="245" fill="#2c3e50" font-family="Arial, sans-serif" font-size="10" text-anchor="middle">År 1</text><text x="145" y="245" fill="#2c3e50" font-family="Arial, sans-serif" font-size="10" text-anchor="middle">År 2</text><text x="185" y="245" fill="#2c3e50" font-family="Arial, sans-serif" font-size="10" text-anchor="middle">År 3</text><text x="225" y="245" fill="#2c3e50" font-family="Arial, sans-serif" font-size="10" text-anchor="middle">År 4</text><text x="265" y="245" fill="#2c3e50" font-family="Arial, sans-serif" font-size="10" text-anchor="middle">År 5</text><text x="190" y="120" fill="#2c3e50" font-family="Arial, sans-serif" font-size="12" text-anchor="middle">
    Lik avskrivning hvert år
  </text><rect width="280" height="200" x="370" y="60" fill="#fff" stroke="#e74c3c" stroke-width="2" rx="10"/><rect width="280" height="40" x="370" y="60" fill="#e74c3c" rx="10 10 0 0"/><text x="510" y="85" fill="#fff" font-family="Arial, sans-serif" font-size="16" font-weight="bold" text-anchor="middle">
    DEGRESSIV AVSKRIVNING
  </text><path stroke="#2c3e50" d="M400 230h220M400 120v120"/><path fill="#e74c3c" d="M410 130h30v100h-30z" opacity=".9"/><path fill="#e74c3c" d="M450 150h30v80h-30z" opacity=".8"/><path fill="#e74c3c" d="M490 170h30v60h-30z" opacity=".7"/><path fill="#e74c3c" d="M530 185h30v45h-30z" opacity=".6"/><path fill="#e74c3c" d="M570 195h30v35h-30z" opacity=".5"/><text x="425" y="245" fill="#2c3e50" font-family="Arial, sans-serif" font-size="10" text-anchor="middle">År 1</text><text x="465" y="245" fill="#2c3e50" font-family="Arial, sans-serif" font-size="10" text-anchor="middle">År 2</text><text x="505" y="245" fill="#2c3e50" font-family="Arial, sans-serif" font-size="10" text-anchor="middle">År 3</text><text x="545" y="245" fill="#2c3e50" font-family="Arial, sans-serif" font-size="10" text-anchor="middle">År 4</text><text x="585" y="245" fill="#2c3e50" font-family="Arial, sans-serif" font-size="10" text-anchor="middle">År 5</text><text x="510" y="120" fill="#2c3e50" font-family="Arial, sans-serif" font-size="12" text-anchor="middle">
    Høyere avskrivning først
  </text><rect width="600" height="180" x="50" y="290" fill="#fff" stroke="#2c3e50" stroke-width="2" rx="10"/><text x="350" y="315" fill="#2c3e50" font-family="Arial, sans-serif" font-size="16" font-weight="bold" text-anchor="middle">
    SAMMENLIGNING - EKSEMPEL: 500.000 KR OVER 5 ÅR
  </text><path fill="#34495e" d="M70 330h80v30H70z"/><text x="110" y="350" fill="#fff" font-family="Arial, sans-serif" font-size="12" font-weight="bold" text-anchor="middle">År</text><path fill="#3498db" d="M150 330h120v30H150z"/><text x="210" y="350" fill="#fff" font-family="Arial, sans-serif" font-size="12" font-weight="bold" text-anchor="middle">Lineær</text><path fill="#e74c3c" d="M270 330h120v30H270z"/><text x="330" y="350" fill="#fff" font-family="Arial, sans-serif" font-size="12" font-weight="bold" text-anchor="middle">Degressiv (30%)</text><path fill="#27ae60" d="M390 330h120v30H390z"/><text x="450" y="350" fill="#fff" font-family="Arial, sans-serif" font-size="12" font-weight="bold" text-anchor="middle">Bokført verdi (L)</text><path fill="#f39c12" d="M510 330h120v30H510z"/><text x="570" y="350" fill="#fff" font-family="Arial, sans-serif" font-size="12" font-weight="bold" text-anchor="middle">Bokført verdi (D)</text><g fill="#2c3e50" font-family="Arial, sans-serif" font-size="11" text-anchor="middle"><text x="110" y="380">1</text><text x="210" y="380">100.000</text><text x="330" y="380">150.000</text><text x="450" y="380">400.000</text><text x="570" y="380">350.000</text><text x="110" y="400">2</text><text x="210" y="400">100.000</text><text x="330" y="400">105.000</text><text x="450" y="400">300.000</text><text x="570" y="400">245.000</text><text x="110" y="420">3</text><text x="210" y="420">100.000</text><text x="330" y="420">73.500</text><text x="450" y="420">200.000</text><text x="570" y="420">171.500</text><text x="110" y="440">4</text><text x="210" y="440">100.000</text><text x="330" y="440">51.450</text><text x="450" y="440">100.000</text><text x="570" y="440">120.050</text><text x="110" y="460">5</text><text x="210" y="460">100.000</text><text x="330" y="460">36.015</text><text x="450" y="460">0</text><text x="570" y="460">84.035</text></g><path stroke="#bdc3c7" d="M70 360h560M70 390h560M70 410h560M70 430h560M70 450h560M150 330v140M270 330v140M390 330v140M510 330v140"/></svg>