<svg xmlns="http://www.w3.org/2000/svg" viewBox="0 0 800 600"><path fill="#f8f9fa" d="M0 0h800v600H0z"/><text x="400" y="30" fill="#2c3e50" font-size="24" font-weight="bold" text-anchor="middle">
    Rentefølsomhetsanalyse - Skjermingsrente
  </text><path fill="#fff" stroke="#e9ecef" stroke-width="2" d="M80 60h640v380H80z"/><g stroke="#e9ecef"><path d="M80 140h640M80 220h640M80 300h640M80 380h640M200 60v380M320 60v380M480 60v380M600 60v380"/></g><text x="70" y="85" fill="#6c757d" font-size="12" text-anchor="end">+25%</text><text x="70" y="145" fill="#6c757d" font-size="12" text-anchor="end">+12%</text><text x="70" y="225" fill="#6c757d" font-size="12" text-anchor="end">0%</text><text x="70" y="305" fill="#6c757d" font-size="12" text-anchor="end">-12%</text><text x="70" y="385" fill="#6c757d" font-size="12" text-anchor="end">-25%</text><text x="140" y="460" fill="#6c757d" font-size="12" text-anchor="middle">-2,0pp</text><text x="260" y="460" fill="#6c757d" font-size="12" text-anchor="middle">-1,0pp</text><text x="400" y="460" fill="#6c757d" font-size="12" text-anchor="middle">Base</text><text x="540" y="460" fill="#6c757d" font-size="12" text-anchor="middle">+1,0pp</text><text x="660" y="460" fill="#6c757d" font-size="12" text-anchor="middle">+2,0pp</text><path fill="none" stroke="#dc3545" stroke-width="3" d="m140 100 120 60 140 90 140 90 120 40"/><path fill="none" stroke="#28a745" stroke-width="3" d="m140 380 120-40 140-90 140-90 120-60"/><circle cx="140" cy="100" r="4" fill="#dc3545"/><circle cx="260" cy="160" r="4" fill="#dc3545"/><circle cx="400" cy="250" r="4" fill="#dc3545"/><circle cx="540" cy="340" r="4" fill="#dc3545"/><circle cx="660" cy="380" r="4" fill="#dc3545"/><circle cx="140" cy="380" r="4" fill="#28a745"/><circle cx="260" cy="340" r="4" fill="#28a745"/><circle cx="400" cy="250" r="4" fill="#28a745"/><circle cx="540" cy="160" r="4" fill="#28a745"/><circle cx="660" cy="100" r="4" fill="#28a745"/><path fill="#fff" stroke="#e9ecef" d="M500 80h180v80H500z"/><text x="510" y="100" fill="#2c3e50" font-size="14" font-weight="bold">Følsomhet</text><path stroke="#dc3545" stroke-width="3" d="M510 115h20"/><text x="535" y="120" fill="#6c757d" font-size="12">NPV-påvirkning</text><path stroke="#28a745" stroke-width="3" d="M510 135h20"/><text x="535" y="140" fill="#6c757d" font-size="12">Aksjepris-sensitivitet</text><text x="400" y="490" fill="#2c3e50" font-size="14" font-weight="bold" text-anchor="middle">
    Skjermingsrente-endring (prosentpoeng)
  </text><text x="30" y="250" fill="#2c3e50" font-size="14" font-weight="bold" text-anchor="middle" transform="rotate(-90 30 250)">
    Prosentvis påvirkning
  </text><path fill="#e3f2fd" stroke="#1976d2" d="M80 500h640v80H80z"/><text x="90" y="520" fill="#1976d2" font-size="12" font-weight="bold">Nøkkelinsikter:</text><text x="90" y="540" fill="#1976d2" font-size="11">• Historisk standardavvik: 1,2 prosentpoeng (95% konfidensintervall: ±2,4pp)</text><text x="90" y="555" fill="#1976d2" font-size="11">• Invers forhold mellom skjermingsrente og aksjeverdi</text><text x="90" y="570" fill="#1976d2" font-size="11">• Høy volatilitet i rentemarkeder krever aktiv risikostyring</text></svg>