<svg xmlns="http://www.w3.org/2000/svg" width="800" height="500"><defs><linearGradient id="a" x1="0%" x2="100%" y1="0%" y2="100%"><stop offset="0%" style="stop-color:#2980b9;stop-opacity:1"/><stop offset="100%" style="stop-color:#1b4f72;stop-opacity:1"/></linearGradient></defs><path fill="#f8f9fa" d="M0 0h800v500H0z"/><path fill="url(#a)" d="M0 0h800v50H0z"/><text x="400" y="30" fill="#fff" font-family="Arial, sans-serif" font-size="22" font-weight="bold" text-anchor="middle">Historisk Utvikling av Skjermingsrente 2006-2024</text><path fill="#fff" stroke="#bdc3c7" stroke-width="2" d="M80 70h640v350H80z"/><path stroke="#2c3e50" stroke-width="2" d="M80 70v350M80 420h640"/><text x="70" y="425" fill="#2c3e50" font-family="Arial, sans-serif" font-size="10" text-anchor="end">0%</text><text x="70" y="365" fill="#2c3e50" font-family="Arial, sans-serif" font-size="10" text-anchor="end">1%</text><text x="70" y="305" fill="#2c3e50" font-family="Arial, sans-serif" font-size="10" text-anchor="end">2%</text><text x="70" y="245" fill="#2c3e50" font-family="Arial, sans-serif" font-size="10" text-anchor="end">3%</text><text x="70" y="185" fill="#2c3e50" font-family="Arial, sans-serif" font-size="10" text-anchor="end">4%</text><text x="70" y="125" fill="#2c3e50" font-family="Arial, sans-serif" font-size="10" text-anchor="end">5%</text><text x="70" y="75" fill="#2c3e50" font-family="Arial, sans-serif" font-size="10" text-anchor="end">6%</text><path stroke="#ecf0f1" d="M80 360h640M80 300h640M80 240h640M80 180h640M80 120h640"/><text x="120" y="440" fill="#2c3e50" font-family="Arial, sans-serif" font-size="10" text-anchor="middle">2006</text><text x="200" y="440" fill="#2c3e50" font-family="Arial, sans-serif" font-size="10" text-anchor="middle">2008</text><text x="280" y="440" fill="#2c3e50" font-family="Arial, sans-serif" font-size="10" text-anchor="middle">2010</text><text x="360" y="440" fill="#2c3e50" font-family="Arial, sans-serif" font-size="10" text-anchor="middle">2012</text><text x="440" y="440" fill="#2c3e50" font-family="Arial, sans-serif" font-size="10" text-anchor="middle">2014</text><text x="520" y="440" fill="#2c3e50" font-family="Arial, sans-serif" font-size="10" text-anchor="middle">2016</text><text x="600" y="440" fill="#2c3e50" font-family="Arial, sans-serif" font-size="10" text-anchor="middle">2018</text><text x="680" y="440" fill="#2c3e50" font-family="Arial, sans-serif" font-size="10" text-anchor="middle">2020</text><text x="720" y="440" fill="#2c3e50" font-family="Arial, sans-serif" font-size="10" text-anchor="middle">2024</text><circle cx="120" cy="180" r="4" fill="#e74c3c"/><circle cx="140" cy="150" r="4" fill="#e74c3c"/><circle cx="160" cy="90" r="4" fill="#e74c3c"/><circle cx="180" cy="240" r="4" fill="#e74c3c"/><circle cx="200" cy="270" r="4" fill="#f39c12"/><circle cx="240" cy="255" r="4" fill="#f39c12"/><circle cx="280" cy="240" r="4" fill="#f39c12"/><circle cx="320" cy="225" r="4" fill="#f39c12"/><circle cx="360" cy="315" r="4" fill="#f39c12"/><circle cx="400" cy="330" r="4" fill="#f39c12"/><circle cx="440" cy="345" r="4" fill="#f39c12"/><circle cx="480" cy="340" r="4" fill="#f39c12"/><circle cx="520" cy="345" r="4" fill="#f39c12"/><circle cx="560" cy="350" r="4" fill="#f39c12"/><circle cx="600" cy="360" r="4" fill="#27ae60"/><circle cx="620" cy="360" r="4" fill="#27ae60"/><circle cx="640" cy="300" r="4" fill="#3498db"/><circle cx="660" cy="225" r="4" fill="#3498db"/><circle cx="680" cy="180" r="4" fill="#3498db"/><circle cx="700" cy="180" r="4" fill="#3498db"/><circle cx="720" cy="180" r="4" fill="#3498db"/><path fill="none" stroke="#2980b9" stroke-width="3" d="m120 180 20-30 20-60 20 150 20 30 40-15 40-15 40-15 40 90 40 15 40 15 40-5 40 5 40 5 40 10h20l20-60 20-75 20-45h40"/><rect width="120" height="40" x="100" y="90" fill="#fadbd8" stroke="#e74c3c" opacity=".9" rx="5"/><text x="160" y="105" fill="#c0392b" font-family="Arial, sans-serif" font-size="9" font-weight="bold" text-anchor="middle">2006-2008</text><text x="160" y="118" fill="#2c3e50" font-family="Arial, sans-serif" font-size="8" text-anchor="middle">Pre-finanskrise</text><text x="160" y="127" fill="#2c3e50" font-family="Arial, sans-serif" font-size="8" text-anchor="middle">Høy rente</text><rect width="120" height="40" x="180" y="260" fill="#fef9e7" stroke="#f39c12" opacity=".9" rx="5"/><text x="240" y="275" fill="#b7950b" font-family="Arial, sans-serif" font-size="9" font-weight="bold" text-anchor="middle">2009-2015</text><text x="240" y="288" fill="#2c3e50" font-family="Arial, sans-serif" font-size="8" text-anchor="middle">Finanskrise &amp;</text><text x="240" y="297" fill="#2c3e50" font-family="Arial, sans-serif" font-size="8" text-anchor="middle">Normalisering</text><rect width="120" height="40" x="440" y="370" fill="#e8f6f3" stroke="#27ae60" opacity=".9" rx="5"/><text x="500" y="385" fill="#1e8449" font-family="Arial, sans-serif" font-size="9" font-weight="bold" text-anchor="middle">2016-2021</text><text x="500" y="398" fill="#2c3e50" font-family="Arial, sans-serif" font-size="8" text-anchor="middle">Lav inflasjon &amp;</text><text x="500" y="407" fill="#2c3e50" font-family="Arial, sans-serif" font-size="8" text-anchor="middle">COVID-19</text><rect width="120" height="40" x="620" y="140" fill="#ebf5fb" stroke="#3498db" opacity=".9" rx="5"/><text x="680" y="155" fill="#2e86c1" font-family="Arial, sans-serif" font-size="9" font-weight="bold" text-anchor="middle">2022-2024</text><text x="680" y="168" fill="#2c3e50" font-family="Arial, sans-serif" font-size="8" text-anchor="middle">Inflasjon &amp;</text><text x="680" y="177" fill="#2c3e50" font-family="Arial, sans-serif" font-size="8" text-anchor="middle">Renteøkninger</text><rect width="600" height="30" x="100" y="460" fill="#f8f9fa" stroke="#95a5a6" rx="3"/><text x="400" y="478" fill="#2c3e50" font-family="Arial, sans-serif" font-size="11" font-weight="bold" text-anchor="middle">Nøkkelrenter:</text><text x="200" y="478" fill="#e74c3c" font-family="Arial, sans-serif" font-size="9" text-anchor="middle">2008: 5,5% (høyeste)</text><text x="320" y="478" fill="#27ae60" font-family="Arial, sans-serif" font-size="9" text-anchor="middle">2020-21: 1,0% (laveste)</text><text x="500" y="478" fill="#3498db" font-family="Arial, sans-serif" font-size="9" text-anchor="middle">2024: 4,0% (normalisert)</text><text x="620" y="478" fill="#7f8c8d" font-family="Arial, sans-serif" font-size="9" text-anchor="middle">Volatilitet: 1,2 pp</text><text x="30" y="245" fill="#2c3e50" font-family="Arial, sans-serif" font-size="12" font-weight="bold" text-anchor="middle" transform="rotate(-90 30 245)">Skjermingsrente (%)</text><text x="400" y="490" fill="#2c3e50" font-family="Arial, sans-serif" font-size="12" font-weight="bold" text-anchor="middle">År</text></svg>