<svg xmlns="http://www.w3.org/2000/svg" viewBox="0 0 800 600"><path fill="#f8fafc" d="M0 0h800v600H0z"/><text x="400" y="30" fill="#1e293b" font-size="24" font-weight="bold" text-anchor="middle">
    Teknologi for Skjermingsberegning
  </text><g transform="translate(50 80)"><rect width="120" height="280" fill="#e0f2fe" stroke="#0369a1" stroke-width="2" rx="8"/><text x="60" y="25" fill="#0369a1" font-size="14" font-weight="bold" text-anchor="middle">
      Data Sources
    </text><rect width="100" height="50" x="10" y="40" fill="#fff" stroke="#0369a1" rx="4"/><text x="60" y="60" fill="#0369a1" font-size="12" font-weight="bold" text-anchor="middle">
      Norges Bank
    </text><text x="60" y="75" fill="#0369a1" font-size="10" text-anchor="middle">
      Rentekurver
    </text><rect width="100" height="50" x="10" y="100" fill="#fff" stroke="#0369a1" rx="4"/><text x="60" y="120" fill="#0369a1" font-size="12" font-weight="bold" text-anchor="middle">
      Oslo Børs
    </text><text x="60" y="135" fill="#0369a1" font-size="10" text-anchor="middle">
      Børsdata
    </text><rect width="100" height="50" x="10" y="160" fill="#fff" stroke="#0369a1" rx="4"/><text x="60" y="180" fill="#0369a1" font-size="12" font-weight="bold" text-anchor="middle">
      Skatteetaten
    </text><text x="60" y="195" fill="#0369a1" font-size="10" text-anchor="middle">
      Regulatory
    </text><rect width="100" height="50" x="10" y="220" fill="#fff" stroke="#0369a1" rx="4"/><text x="60" y="240" fill="#0369a1" font-size="12" font-weight="bold" text-anchor="middle">
      Transaksjoner
    </text><text x="60" y="255" fill="#0369a1" font-size="10" text-anchor="middle">
      Portefølje
    </text></g><g transform="translate(250 80)"><rect width="120" height="280" fill="#f0fdf4" stroke="#16a34a" stroke-width="2" rx="8"/><text x="60" y="25" fill="#16a34a" font-size="14" font-weight="bold" text-anchor="middle">
      Processing Engine
    </text><rect width="100" height="50" x="10" y="40" fill="#fff" stroke="#16a34a" rx="4"/><text x="60" y="60" fill="#16a34a" font-size="12" font-weight="bold" text-anchor="middle">
      Real-time
    </text><text x="60" y="75" fill="#16a34a" font-size="10" text-anchor="middle">
      Oppdatering
    </text><rect width="100" height="50" x="10" y="100" fill="#fff" stroke="#16a34a" rx="4"/><text x="60" y="120" fill="#16a34a" font-size="12" font-weight="bold" text-anchor="middle">
      Validering
    </text><text x="60" y="135" fill="#16a34a" font-size="10" text-anchor="middle">
      Kvalitetskontroll
    </text><rect width="100" height="50" x="10" y="160" fill="#fff" stroke="#16a34a" rx="4"/><text x="60" y="180" fill="#16a34a" font-size="12" font-weight="bold" text-anchor="middle">
      AI/ML
    </text><text x="60" y="195" fill="#16a34a" font-size="10" text-anchor="middle">
      Optimalisering
    </text><rect width="100" height="50" x="10" y="220" fill="#fff" stroke="#16a34a" rx="4"/><text x="60" y="240" fill="#16a34a" font-size="12" font-weight="bold" text-anchor="middle">
      Sikkerhet
    </text><text x="60" y="255" fill="#16a34a" font-size="10" text-anchor="middle">
      Kryptering
    </text></g><g transform="translate(450 80)"><rect width="120" height="280" fill="#fef3c7" stroke="#d97706" stroke-width="2" rx="8"/><text x="60" y="25" fill="#d97706" font-size="14" font-weight="bold" text-anchor="middle">
      Calculation Module
    </text><rect width="100" height="50" x="10" y="40" fill="#fff" stroke="#d97706" rx="4"/><text x="60" y="60" fill="#d97706" font-size="12" font-weight="bold" text-anchor="middle">
      Skjermings-
    </text><text x="60" y="75" fill="#d97706" font-size="10" text-anchor="middle">
      beregning
    </text><rect width="100" height="50" x="10" y="100" fill="#fff" stroke="#d97706" rx="4"/><text x="60" y="120" fill="#d97706" font-size="12" font-weight="bold" text-anchor="middle">
      Scenario
    </text><text x="60" y="135" fill="#d97706" font-size="10" text-anchor="middle">
      Modellering
    </text><rect width="100" height="50" x="10" y="160" fill="#fff" stroke="#d97706" rx="4"/><text x="60" y="180" fill="#d97706" font-size="12" font-weight="bold" text-anchor="middle">
      Optimalisering
    </text><text x="60" y="195" fill="#d97706" font-size="10" text-anchor="middle">
      Algoritmer
    </text><rect width="100" height="50" x="10" y="220" fill="#fff" stroke="#d97706" rx="4"/><text x="60" y="240" fill="#d97706" font-size="12" font-weight="bold" text-anchor="middle">
      Risiko
    </text><text x="60" y="255" fill="#d97706" font-size="10" text-anchor="middle">
      Analyse
    </text></g><g transform="translate(650 80)"><rect width="120" height="280" fill="#fce7f3" stroke="#be185d" stroke-width="2" rx="8"/><text x="60" y="25" fill="#be185d" font-size="14" font-weight="bold" text-anchor="middle">
      Reporting Interface
    </text><rect width="100" height="50" x="10" y="40" fill="#fff" stroke="#be185d" rx="4"/><text x="60" y="60" fill="#be185d" font-size="12" font-weight="bold" text-anchor="middle">
      Dashboard
    </text><text x="60" y="75" fill="#be185d" font-size="10" text-anchor="middle">
      Visualisering
    </text><rect width="100" height="50" x="10" y="100" fill="#fff" stroke="#be185d" rx="4"/><text x="60" y="120" fill="#be185d" font-size="12" font-weight="bold" text-anchor="middle">
      Rapporter
    </text><text x="60" y="135" fill="#be185d" font-size="10" text-anchor="middle">
      Dokumentasjon
    </text><rect width="100" height="50" x="10" y="160" fill="#fff" stroke="#be185d" rx="4"/><text x="60" y="180" fill="#be185d" font-size="12" font-weight="bold" text-anchor="middle">
      Compliance
    </text><text x="60" y="195" fill="#be185d" font-size="10" text-anchor="middle">
      Altinn
    </text><rect width="100" height="50" x="10" y="220" fill="#fff" stroke="#be185d" rx="4"/><text x="60" y="240" fill="#be185d" font-size="12" font-weight="bold" text-anchor="middle">
      Varslinger
    </text><text x="60" y="255" fill="#be185d" font-size="10" text-anchor="middle">
      Overvåkning
    </text></g><path fill="none" stroke="#374151" stroke-width="3" marker-end="url(#a)" d="M170 220h60"/><path fill="none" stroke="#374151" stroke-width="3" marker-end="url(#a)" d="M370 220h60"/><path fill="none" stroke="#374151" stroke-width="3" marker-end="url(#a)" d="M570 220h60"/><g transform="translate(200 400)"><text fill="#1e293b" font-size="16" font-weight="bold">
      API Integrasjoner
    </text><rect width="100" height="40" y="20" fill="#dbeafe" stroke="#3b82f6" rx="4"/><text x="50" y="35" fill="#3b82f6" font-size="12" font-weight="bold" text-anchor="middle">REST</text><text x="50" y="50" fill="#3b82f6" font-size="10" text-anchor="middle">Daglig</text><rect width="100" height="40" x="120" y="20" fill="#dcfce7" stroke="#16a34a" rx="4"/><text x="170" y="35" fill="#16a34a" font-size="12" font-weight="bold" text-anchor="middle">WebSocket</text><text x="170" y="50" fill="#16a34a" font-size="10" text-anchor="middle">Real-time</text><rect width="100" height="40" x="240" y="20" fill="#fef3c7" stroke="#d97706" rx="4"/><text x="290" y="35" fill="#d97706" font-size="12" font-weight="bold" text-anchor="middle">SOAP</text><text x="290" y="50" fill="#d97706" font-size="10" text-anchor="middle">Årlig</text></g><g transform="translate(50 500)"><text fill="#1e293b" font-size="16" font-weight="bold">
      Nøkkelfunksjoner
    </text><circle cx="10" cy="25" r="4" fill="#16a34a"/><text x="20" y="30" fill="#1e293b" font-size="12">Automatisk oppdatering av skjermingsrenter</text><circle cx="10" cy="45" r="4" fill="#16a34a"/><text x="20" y="50" fill="#1e293b" font-size="12">Kontinuerlig overvåkning av eierperioder</text><circle cx="10" cy="65" r="4" fill="#16a34a"/><text x="20" y="70" fill="#1e293b" font-size="12">Scenario-modellering for optimalisering</text><circle cx="400" cy="25" r="4" fill="#16a34a"/><text x="410" y="30" fill="#1e293b" font-size="12">Direkte rapportering til Altinn</text><circle cx="400" cy="45" r="4" fill="#16a34a"/><text x="410" y="50" fill="#1e293b" font-size="12">AI-drevne beregningsoptimaliseringer</text><circle cx="400" cy="65" r="4" fill="#16a34a"/><text x="410" y="70" fill="#1e293b" font-size="12">Blockchain-basert audittrail</text></g><defs><marker id="a" markerHeight="7" markerWidth="10" orient="auto" refX="9" refY="3.5"><path fill="#374151" d="m0 0 10 3.5L0 7z"/></marker></defs><text fill="#1e293b" font-size="14" font-weight="bold" transform="translate(50 380)">
      Teknisk Arkitektur: Data Sources → Processing Engine → Calculation Module → Reporting Interface
    </text></svg>