<svg xmlns="http://www.w3.org/2000/svg" width="800" height="500" viewBox="0 0 800 500"><path fill="#f8f9fa" d="M0 0h800v500H0z"/><text x="400" y="30" fill="#2c3e50" font-family="Arial, sans-serif" font-size="24" font-weight="bold" text-anchor="middle">
    Oversikt over Banktransaksjoner
  </text><rect width="100" height="60" x="350" y="80" fill="#3498db" stroke="#2980b9" stroke-width="3" rx="10"/><text x="400" y="105" fill="#fff" font-family="Arial, sans-serif" font-size="14" font-weight="bold" text-anchor="middle">
    BANKKONTO
  </text><text x="400" y="125" fill="#fff" font-family="Arial, sans-serif" font-size="12" text-anchor="middle">
    Bedriftens konto
  </text><rect width="300" height="250" x="50" y="200" fill="#d5f4e6" stroke="#27ae60" stroke-width="2" rx="15"/><text x="200" y="225" fill="#27ae60" font-family="Arial, sans-serif" font-size="18" font-weight="bold" text-anchor="middle">
    INNGÅENDE TRANSAKSJONER
  </text><text x="200" y="245" fill="#2c3e50" font-family="Arial, sans-serif" font-size="12" text-anchor="middle">
    (Øker banksaldo)
  </text><circle cx="80" cy="280" r="8" fill="#27ae60"/><text x="100" y="285" fill="#2c3e50" font-family="Arial, sans-serif" font-size="12">Kundebetalinger</text><circle cx="80" cy="305" r="8" fill="#27ae60"/><text x="100" y="310" fill="#2c3e50" font-family="Arial, sans-serif" font-size="12">Låneopptak</text><circle cx="80" cy="330" r="8" fill="#27ae60"/><text x="100" y="335" fill="#2c3e50" font-family="Arial, sans-serif" font-size="12">Kapitalinnskudd</text><circle cx="80" cy="355" r="8" fill="#27ae60"/><text x="100" y="360" fill="#2c3e50" font-family="Arial, sans-serif" font-size="12">Renteinntekter</text><circle cx="80" cy="380" r="8" fill="#27ae60"/><text x="100" y="385" fill="#2c3e50" font-family="Arial, sans-serif" font-size="12">Tilskudd</text><circle cx="80" cy="405" r="8" fill="#27ae60"/><text x="100" y="410" fill="#2c3e50" font-family="Arial, sans-serif" font-size="12">Forsikringsutbetalinger</text><rect width="300" height="250" x="450" y="200" fill="#fdeaea" stroke="#e74c3c" stroke-width="2" rx="15"/><text x="600" y="225" fill="#e74c3c" font-family="Arial, sans-serif" font-size="18" font-weight="bold" text-anchor="middle">
    UTGÅENDE TRANSAKSJONER
  </text><text x="600" y="245" fill="#2c3e50" font-family="Arial, sans-serif" font-size="12" text-anchor="middle">
    (Reduserer banksaldo)
  </text><circle cx="480" cy="280" r="8" fill="#e74c3c"/><text x="500" y="285" fill="#2c3e50" font-family="Arial, sans-serif" font-size="12">Leverandørbetalinger</text><circle cx="480" cy="305" r="8" fill="#e74c3c"/><text x="500" y="310" fill="#2c3e50" font-family="Arial, sans-serif" font-size="12">Lønnsutbetalinger</text><circle cx="480" cy="330" r="8" fill="#e74c3c"/><text x="500" y="335" fill="#2c3e50" font-family="Arial, sans-serif" font-size="12">Skatter og avgifter</text><circle cx="480" cy="355" r="8" fill="#e74c3c"/><text x="500" y="360" fill="#2c3e50" font-family="Arial, sans-serif" font-size="12">Låneavdrag</text><circle cx="480" cy="380" r="8" fill="#e74c3c"/><text x="500" y="385" fill="#2c3e50" font-family="Arial, sans-serif" font-size="12">Driftsutgifter</text><circle cx="480" cy="405" r="8" fill="#e74c3c"/><text x="500" y="410" fill="#2c3e50" font-family="Arial, sans-serif" font-size="12">Bankgebyrer</text><path fill="none" stroke="#27ae60" stroke-width="3" marker-end="url(#a)" d="m360 140-160 50"/><path fill="none" stroke="#e74c3c" stroke-width="3" marker-end="url(#b)" d="m440 140 160 50"/><circle cx="280" cy="165" r="20" fill="#27ae60"/><text x="280" y="175" fill="#fff" font-family="Arial, sans-serif" font-size="24" font-weight="bold" text-anchor="middle">+</text><circle cx="520" cy="165" r="20" fill="#e74c3c"/><text x="520" y="175" fill="#fff" font-family="Arial, sans-serif" font-size="24" font-weight="bold" text-anchor="middle">-</text><defs><marker id="a" markerHeight="7" markerWidth="10" orient="auto" refX="9" refY="3.5"><path fill="#27ae60" d="m0 0 10 3.5L0 7z"/></marker><marker id="b" markerHeight="7" markerWidth="10" orient="auto" refX="9" refY="3.5"><path fill="#e74c3c" d="m0 0 10 3.5L0 7z"/></marker></defs></svg>