<svg xmlns="http://www.w3.org/2000/svg" width="800" height="700" viewBox="0 0 800 700"><path fill="#f8f9fa" d="M0 0h800v700H0z"/><text x="400" y="40" fill="#2c3e50" font-family="Arial, sans-serif" font-size="28" font-weight="bold" text-anchor="middle">
    KPI Dashboard - Driftskostnader
  </text><g transform="translate(40 70)"><rect width="170" height="120" fill="#fff" stroke="#3498db" stroke-width="3" rx="10"/><rect width="170" height="40" fill="#3498db" rx="10"/><text x="85" y="25" fill="#fff" font-family="Arial, sans-serif" font-size="14" font-weight="bold" text-anchor="middle">
          Driftskostnadsratio
        </text><g transform="translate(85 80)"><circle r="25" fill="none" stroke="#ecf0f1" stroke-width="8"/><circle r="25" fill="none" stroke="#e74c3c" stroke-dasharray="110" stroke-dashoffset="32" stroke-width="8" transform="rotate(-90)"/><text y="5" fill="#e74c3c" font-family="Arial, sans-serif" font-size="16" font-weight="bold" text-anchor="middle">
            68%
          </text></g><text x="85" y="110" fill="#7f8c8d" font-family="Arial, sans-serif" font-size="10" text-anchor="middle">
          av omsetning
        </text></g><g transform="translate(230 70)"><rect width="170" height="120" fill="#fff" stroke="#f39c12" stroke-width="3" rx="10"/><rect width="170" height="40" fill="#f39c12" rx="10"/><text x="85" y="25" fill="#fff" font-family="Arial, sans-serif" font-size="14" font-weight="bold" text-anchor="middle">
          Break-even Point
        </text><text x="85" y="70" fill="#f39c12" font-family="Arial, sans-serif" font-size="32" font-weight="bold" text-anchor="middle">
          1,667
        </text><text x="85" y="90" fill="#7f8c8d" font-family="Arial, sans-serif" font-size="12" text-anchor="middle">
          enheter/måned
        </text><text x="85" y="110" fill="#27ae60" font-family="Arial, sans-serif" font-size="10" text-anchor="middle">
          ↗ +5% fra forrige måned
        </text></g><g transform="translate(420 70)"><rect width="170" height="120" fill="#fff" stroke="#9b59b6" stroke-width="3" rx="10"/><rect width="170" height="40" fill="#9b59b6" rx="10"/><text x="85" y="25" fill="#fff" font-family="Arial, sans-serif" font-size="14" font-weight="bold" text-anchor="middle">
          Kostnad per Ansatt
        </text><text x="85" y="70" fill="#9b59b6" font-family="Arial, sans-serif" font-size="28" font-weight="bold" text-anchor="middle">
          45,000
        </text><text x="85" y="90" fill="#7f8c8d" font-family="Arial, sans-serif" font-size="12" text-anchor="middle">
          kr/måned
        </text><text x="85" y="110" fill="#e74c3c" font-family="Arial, sans-serif" font-size="10" text-anchor="middle">
          ↗ +2% fra budsjett
        </text></g><g transform="translate(610 70)"><rect width="170" height="120" fill="#fff" stroke="#27ae60" stroke-width="3" rx="10"/><rect width="170" height="40" fill="#27ae60" rx="10"/><text x="85" y="25" fill="#fff" font-family="Arial, sans-serif" font-size="14" font-weight="bold" text-anchor="middle">
          Dekningsbidrag
        </text><g transform="translate(20 60)"><rect width="130" height="20" fill="#ecf0f1" rx="10"/><rect width="42" height="20" fill="#27ae60" rx="10"/><text x="65" y="15" fill="#2c3e50" font-family="Arial, sans-serif" font-size="12" font-weight="bold" text-anchor="middle">
            32%
          </text></g><text x="85" y="110" fill="#27ae60" font-family="Arial, sans-serif" font-size="10" text-anchor="middle">
          ↗ Forbedret med 3%
        </text></g><g transform="translate(40 210)"><rect width="360" height="180" fill="#fff" stroke="#bdc3c7" stroke-width="2" rx="10"/><text x="180" y="25" fill="#2c3e50" font-family="Arial, sans-serif" font-size="16" font-weight="bold" text-anchor="middle">
          Månedlig Kostnadstrend
        </text><g transform="translate(30 50)"><g stroke="#ecf0f1"><path d="M0 0h300M0 30h300M0 60h300M0 90h300"/></g><path fill="none" stroke="#3498db" stroke-width="3" d="m0 70 50-5 50 3 50 4 50-2 50 5 50 3"/><circle cy="70" r="4" fill="#3498db"/><circle cx="50" cy="65" r="4" fill="#3498db"/><circle cx="100" cy="68" r="4" fill="#3498db"/><circle cx="150" cy="72" r="4" fill="#3498db"/><circle cx="200" cy="70" r="4" fill="#3498db"/><circle cx="250" cy="75" r="4" fill="#3498db"/><circle cx="300" cy="78" r="4" fill="#e74c3c"/><g fill="#7f8c8d" font-family="Arial, sans-serif" font-size="10"><text transform="translate(0 110)">Jan</text><text x="50" transform="translate(0 110)">Feb</text><text x="100" transform="translate(0 110)">Mar</text><text x="150" transform="translate(0 110)">Apr</text><text x="200" transform="translate(0 110)">Mai</text><text x="250" transform="translate(0 110)">Jun</text><text x="300" transform="translate(0 110)">Jul</text></g></g><text fill="#e74c3c" font-family="Arial, sans-serif" font-size="12" transform="translate(280 160)">↗ +4.2%</text></g><g transform="translate(420 210)"><rect width="360" height="180" fill="#fff" stroke="#bdc3c7" stroke-width="2" rx="10"/><text x="180" y="25" fill="#2c3e50" font-family="Arial, sans-serif" font-size="16" font-weight="bold" text-anchor="middle">
          Kostnadsfordeling
        </text><path fill="#3498db" d="M180 60a50 50 0 1 1 30 90l-12-16a30 30 0 1 0-18-54Z"/><path fill="#e74c3c" d="M210 150a50 50 0 0 1-75-60l18 8a30 30 0 0 0 45 36Z"/><path fill="#f39c12" d="M135 90a50 50 0 0 1 45-30v20a30 30 0 0 0-27 18Z"/><text y="-5" fill="#2c3e50" font-family="Arial, sans-serif" font-size="14" font-weight="bold" text-anchor="middle" transform="translate(180 110)">
            Total
          </text><text y="10" fill="#7f8c8d" font-family="Arial, sans-serif" font-size="12" text-anchor="middle" transform="translate(180 110)">
            2.4M kr
          </text><path fill="#3498db" d="M50 150h10v10H50z"/><text x="15" y="8" fill="#2c3e50" font-family="Arial, sans-serif" font-size="10" transform="translate(50 150)">Faste 60%</text><path fill="#e74c3c" d="M130 150h10v10h-10z"/><text x="95" y="8" fill="#2c3e50" font-family="Arial, sans-serif" font-size="10" transform="translate(50 150)">Variable 30%</text><path fill="#f39c12" d="M230 150h10v10h-10z"/><text x="195" y="8" fill="#2c3e50" font-family="Arial, sans-serif" font-size="10" transform="translate(50 150)">Semi-var 10%</text></g><g transform="translate(40 410)"><rect width="240" height="140" fill="#fff" stroke="#bdc3c7" stroke-width="2" rx="10"/><text x="120" y="25" fill="#2c3e50" font-family="Arial, sans-serif" font-size="16" font-weight="bold" text-anchor="middle">
          Budsjettytelse
        </text><path fill="#95a5a6" d="M40 70h30v40H40z"/><path fill="#e74c3c" d="M45 68h30v42H45z" opacity=".8"/><text x="20" y="75" fill="#2c3e50" font-family="Arial, sans-serif" font-size="10" text-anchor="middle" transform="translate(40 50)">Q1</text><path fill="#95a5a6" d="M90 65h30v45H90z"/><path fill="#27ae60" d="M95 62h30v48H95z" opacity=".8"/><text x="70" y="75" fill="#2c3e50" font-family="Arial, sans-serif" font-size="10" text-anchor="middle" transform="translate(40 50)">Q2</text><path fill="#95a5a6" d="M140 75h30v35h-30z"/><path fill="#e74c3c" d="M145 72h30v38h-30z" opacity=".8"/><text x="120" y="75" fill="#2c3e50" font-family="Arial, sans-serif" font-size="10" text-anchor="middle" transform="translate(40 50)">Q3</text><path fill="#95a5a6" d="M190 70h30v40h-30z"/><path fill="#f39c12" d="M195 68h30v42h-30z" opacity=".8"/><text x="170" y="75" fill="#2c3e50" font-family="Arial, sans-serif" font-size="10" text-anchor="middle" transform="translate(40 50)">Q4*</text><path fill="#95a5a6" d="M20 110h10v10H20z"/><text x="15" y="8" fill="#2c3e50" font-family="Arial, sans-serif" font-size="10" transform="translate(20 110)">Budsjett</text><path fill="#e74c3c" d="M100 110h10v10h-10z" opacity=".8"/><text x="95" y="8" fill="#2c3e50" font-family="Arial, sans-serif" font-size="10" transform="translate(20 110)">Over budsjett</text><path fill="#27ae60" d="M200 110h10v10h-10z" opacity=".8"/><text x="195" y="8" fill="#2c3e50" font-family="Arial, sans-serif" font-size="10" transform="translate(20 110)">Under budsjett</text></g><g transform="translate(300 410)"><rect width="240" height="140" fill="#fff" stroke="#bdc3c7" stroke-width="2" rx="10"/><text x="120" y="25" fill="#2c3e50" font-family="Arial, sans-serif" font-size="16" font-weight="bold" text-anchor="middle">
          Effektivitetsmål
        </text><g transform="translate(30 45)"><circle cx="15" cy="15" r="12" fill="#27ae60"/><text x="15" y="20" fill="#fff" font-family="Arial, sans-serif" font-size="16" font-weight="bold" text-anchor="middle">✓</text><text x="35" y="12" fill="#2c3e50" font-family="Arial, sans-serif" font-size="12">Produktivitet</text><text x="35" y="25" fill="#27ae60" font-family="Arial, sans-serif" font-size="10">105% av mål</text></g><g transform="translate(30 85)"><circle cx="15" cy="15" r="12" fill="#f39c12"/><text x="15" y="20" fill="#fff" font-family="Arial, sans-serif" font-size="16" font-weight="bold" text-anchor="middle">!</text><text x="35" y="12" fill="#2c3e50" font-family="Arial, sans-serif" font-size="12">Kostnadskontroll</text><text x="35" y="25" fill="#f39c12" font-family="Arial, sans-serif" font-size="10">98% av mål</text></g></g><g transform="translate(560 410)"><rect width="220" height="140" fill="#fff" stroke="#e74c3c" stroke-width="2" rx="10"/><text x="110" y="25" fill="#e74c3c" font-family="Arial, sans-serif" font-size="16" font-weight="bold" text-anchor="middle">
          Varsler
        </text><g transform="translate(20 45)"><circle cx="10" cy="10" r="8" fill="#e74c3c"/><text x="10" y="15" fill="#fff" font-family="Arial, sans-serif" font-size="12" font-weight="bold" text-anchor="middle">!</text><text x="25" y="8" fill="#2c3e50" font-family="Arial, sans-serif" font-size="11">Overtidslønn over budsjett</text><text x="25" y="20" fill="#7f8c8d" font-family="Arial, sans-serif" font-size="9">+15% i juli</text></g><g transform="translate(20 80)"><circle cx="10" cy="10" r="8" fill="#f39c12"/><text x="10" y="15" fill="#fff" font-family="Arial, sans-serif" font-size="12" font-weight="bold" text-anchor="middle">⚠</text><text x="25" y="8" fill="#2c3e50" font-family="Arial, sans-serif" font-size="11">Energikostnader øker</text><text x="25" y="20" fill="#7f8c8d" font-family="Arial, sans-serif" font-size="9">Trend siste 3 mnd</text></g><g transform="translate(20 115)"><circle cx="10" cy="10" r="8" fill="#27ae60"/><text x="10" y="15" fill="#fff" font-family="Arial, sans-serif" font-size="12" font-weight="bold" text-anchor="middle">✓</text><text x="25" y="8" fill="#2c3e50" font-family="Arial, sans-serif" font-size="11">Markedsføring under budsjett</text><text x="25" y="20" fill="#7f8c8d" font-family="Arial, sans-serif" font-size="9">-8% YTD</text></g></g><g transform="translate(40 570)"><rect width="740" height="80" fill="#ecf0f1" stroke="#bdc3c7" stroke-width="2" rx="10"/><text x="370" y="25" fill="#2c3e50" font-family="Arial, sans-serif" font-size="18" font-weight="bold" text-anchor="middle">
        Sammendrag - Juli 2024
      </text><g font-family="Arial, sans-serif" font-size="12"><text fill="#2c3e50" transform="translate(50 40)">
          <tspan font-weight="bold">Totale driftskostnader:</tspan> 2.4M kr (+4.2% fra juni) |
          <tspan fill="#e74c3c" font-weight="bold"> Budsjettavvik:</tspan> +120k kr |
          <tspan fill="#27ae60" font-weight="bold"> Besparelser:</tspan> 85k kr fra markedsføring
        </text><text y="20" fill="#7f8c8d" transform="translate(50 40)">
          Neste gjennomgang: 15. august | Ansvarlig: CFO | Status: Krever oppfølging på overtidskostnader
        </text></g></g></svg>