<svg width="800" height="700" viewBox="0 0 800 700" xmlns="http://www.w3.org/2000/svg">

  <rect width="800" height="700" fill="#f8f9fa"/>
  

  <text x="400" y="40" text-anchor="middle" font-family="Arial, sans-serif" font-size="28" font-weight="bold" fill="#2c3e50">
    KPI Dashboard - Driftskostnader
  </text>
  

  <g transform="translate(40, 70)">
    

    <g transform="translate(0, 0)">
      

      <g transform="translate(0, 0)">
        <rect x="0" y="0" width="170" height="120" fill="#ffffff" stroke="#3498db" stroke-width="3" rx="10"/>
        <rect x="0" y="0" width="170" height="40" fill="#3498db" rx="10"/>
        <text x="85" y="25" text-anchor="middle" font-family="Arial, sans-serif" font-size="14" font-weight="bold" fill="#ffffff">
          Driftskostnadsratio
        </text>
        

        <g transform="translate(85, 80)">
          <circle cx="0" cy="0" r="25" fill="none" stroke="#ecf0f1" stroke-width="8"/>
          <circle cx="0" cy="0" r="25" fill="none" stroke="#e74c3c" stroke-width="8" 
                  stroke-dasharray="110" stroke-dashoffset="32" transform="rotate(-90)"/>
          <text x="0" y="5" text-anchor="middle" font-family="Arial, sans-serif" font-size="16" font-weight="bold" fill="#e74c3c">
            68%
          </text>
        </g>
        <text x="85" y="110" text-anchor="middle" font-family="Arial, sans-serif" font-size="10" fill="#7f8c8d">
          av omsetning
        </text>
      </g>
      

      <g transform="translate(190, 0)">
        <rect x="0" y="0" width="170" height="120" fill="#ffffff" stroke="#f39c12" stroke-width="3" rx="10"/>
        <rect x="0" y="0" width="170" height="40" fill="#f39c12" rx="10"/>
        <text x="85" y="25" text-anchor="middle" font-family="Arial, sans-serif" font-size="14" font-weight="bold" fill="#ffffff">
          Break-even Point
        </text>
        
        <text x="85" y="70" text-anchor="middle" font-family="Arial, sans-serif" font-size="32" font-weight="bold" fill="#f39c12">
          1,667
        </text>
        <text x="85" y="90" text-anchor="middle" font-family="Arial, sans-serif" font-size="12" fill="#7f8c8d">
          enheter/måned
        </text>
        <text x="85" y="110" text-anchor="middle" font-family="Arial, sans-serif" font-size="10" fill="#27ae60">
          ↗ +5% fra forrige måned
        </text>
      </g>
      

      <g transform="translate(380, 0)">
        <rect x="0" y="0" width="170" height="120" fill="#ffffff" stroke="#9b59b6" stroke-width="3" rx="10"/>
        <rect x="0" y="0" width="170" height="40" fill="#9b59b6" rx="10"/>
        <text x="85" y="25" text-anchor="middle" font-family="Arial, sans-serif" font-size="14" font-weight="bold" fill="#ffffff">
          Kostnad per Ansatt
        </text>
        
        <text x="85" y="70" text-anchor="middle" font-family="Arial, sans-serif" font-size="28" font-weight="bold" fill="#9b59b6">
          45,000
        </text>
        <text x="85" y="90" text-anchor="middle" font-family="Arial, sans-serif" font-size="12" fill="#7f8c8d">
          kr/måned
        </text>
        <text x="85" y="110" text-anchor="middle" font-family="Arial, sans-serif" font-size="10" fill="#e74c3c">
          ↗ +2% fra budsjett
        </text>
      </g>
      

      <g transform="translate(570, 0)">
        <rect x="0" y="0" width="170" height="120" fill="#ffffff" stroke="#27ae60" stroke-width="3" rx="10"/>
        <rect x="0" y="0" width="170" height="40" fill="#27ae60" rx="10"/>
        <text x="85" y="25" text-anchor="middle" font-family="Arial, sans-serif" font-size="14" font-weight="bold" fill="#ffffff">
          Dekningsbidrag
        </text>
        

        <g transform="translate(20, 60)">
          <rect x="0" y="0" width="130" height="20" fill="#ecf0f1" rx="10"/>
          <rect x="0" y="0" width="42" height="20" fill="#27ae60" rx="10"/>
          <text x="65" y="15" text-anchor="middle" font-family="Arial, sans-serif" font-size="12" font-weight="bold" fill="#2c3e50">
            32%
          </text>
        </g>
        <text x="85" y="110" text-anchor="middle" font-family="Arial, sans-serif" font-size="10" fill="#27ae60">
          ↗ Forbedret med 3%
        </text>
      </g>
    </g>
    

    <g transform="translate(0, 140)">
      

      <g transform="translate(0, 0)">
        <rect x="0" y="0" width="360" height="180" fill="#ffffff" stroke="#bdc3c7" stroke-width="2" rx="10"/>
        <text x="180" y="25" text-anchor="middle" font-family="Arial, sans-serif" font-size="16" font-weight="bold" fill="#2c3e50">
          Månedlig Kostnadstrend
        </text>
        

        <g transform="translate(30, 50)">

          <g stroke="#ecf0f1" stroke-width="1">
            <line x1="0" y1="0" x2="300" y2="0"/>
            <line x1="0" y1="30" x2="300" y2="30"/>
            <line x1="0" y1="60" x2="300" y2="60"/>
            <line x1="0" y1="90" x2="300" y2="90"/>
          </g>
          

          <polyline points="0,70 50,65 100,68 150,72 200,70 250,75 300,78" 
                    fill="none" stroke="#3498db" stroke-width="3"/>
          

          <circle cx="0" cy="70" r="4" fill="#3498db"/>
          <circle cx="50" cy="65" r="4" fill="#3498db"/>
          <circle cx="100" cy="68" r="4" fill="#3498db"/>
          <circle cx="150" cy="72" r="4" fill="#3498db"/>
          <circle cx="200" cy="70" r="4" fill="#3498db"/>
          <circle cx="250" cy="75" r="4" fill="#3498db"/>
          <circle cx="300" cy="78" r="4" fill="#e74c3c"/>
          

          <g transform="translate(0, 110)" font-family="Arial, sans-serif" font-size="10" fill="#7f8c8d">
            <text x="0" y="0">Jan</text>
            <text x="50" y="0">Feb</text>
            <text x="100" y="0">Mar</text>
            <text x="150" y="0">Apr</text>
            <text x="200" y="0">Mai</text>
            <text x="250" y="0">Jun</text>
            <text x="300" y="0">Jul</text>
          </g>
        </g>
        

        <g transform="translate(280, 160)">
          <text x="0" y="0" font-family="Arial, sans-serif" font-size="12" fill="#e74c3c">↗ +4.2%</text>
        </g>
      </g>
      

      <g transform="translate(380, 0)">
        <rect x="0" y="0" width="360" height="180" fill="#ffffff" stroke="#bdc3c7" stroke-width="2" rx="10"/>
        <text x="180" y="25" text-anchor="middle" font-family="Arial, sans-serif" font-size="16" font-weight="bold" fill="#2c3e50">
          Kostnadsfordeling
        </text>
        

        <g transform="translate(180, 110)">

          <path d="M 0,-50 A 50,50 0 1,1 30,40 L 18,24 A 30,30 0 1,0 0,-30 Z" fill="#3498db"/>

          <path d="M 30,40 A 50,50 0 0,1 -45,-20 L -27,-12 A 30,30 0 0,0 18,24 Z" fill="#e74c3c"/>

          <path d="M -45,-20 A 50,50 0 0,1 0,-50 L 0,-30 A 30,30 0 0,0 -27,-12 Z" fill="#f39c12"/>
          

          <text x="0" y="-5" text-anchor="middle" font-family="Arial, sans-serif" font-size="14" font-weight="bold" fill="#2c3e50">
            Total
          </text>
          <text x="0" y="10" text-anchor="middle" font-family="Arial, sans-serif" font-size="12" fill="#7f8c8d">
            2.4M kr
          </text>
        </g>
        

        <g transform="translate(50, 150)">
          <rect x="0" y="0" width="10" height="10" fill="#3498db"/>
          <text x="15" y="8" font-family="Arial, sans-serif" font-size="10" fill="#2c3e50">Faste 60%</text>
          
          <rect x="80" y="0" width="10" height="10" fill="#e74c3c"/>
          <text x="95" y="8" font-family="Arial, sans-serif" font-size="10" fill="#2c3e50">Variable 30%</text>
          
          <rect x="180" y="0" width="10" height="10" fill="#f39c12"/>
          <text x="195" y="8" font-family="Arial, sans-serif" font-size="10" fill="#2c3e50">Semi-var 10%</text>
        </g>
      </g>
    </g>
    

    <g transform="translate(0, 340)">
      

      <g transform="translate(0, 0)">
        <rect x="0" y="0" width="240" height="140" fill="#ffffff" stroke="#bdc3c7" stroke-width="2" rx="10"/>
        <text x="120" y="25" text-anchor="middle" font-family="Arial, sans-serif" font-size="16" font-weight="bold" fill="#2c3e50">
          Budsjettytelse
        </text>
        

        <g transform="translate(40, 50)">

          <rect x="0" y="20" width="30" height="40" fill="#95a5a6"/>
          <rect x="5" y="18" width="30" height="42" fill="#e74c3c" opacity="0.8"/>
          <text x="20" y="75" text-anchor="middle" font-family="Arial, sans-serif" font-size="10" fill="#2c3e50">Q1</text>
          

          <rect x="50" y="15" width="30" height="45" fill="#95a5a6"/>
          <rect x="55" y="12" width="30" height="48" fill="#27ae60" opacity="0.8"/>
          <text x="70" y="75" text-anchor="middle" font-family="Arial, sans-serif" font-size="10" fill="#2c3e50">Q2</text>
          

          <rect x="100" y="25" width="30" height="35" fill="#95a5a6"/>
          <rect x="105" y="22" width="30" height="38" fill="#e74c3c" opacity="0.8"/>
          <text x="120" y="75" text-anchor="middle" font-family="Arial, sans-serif" font-size="10" fill="#2c3e50">Q3</text>
          

          <rect x="150" y="20" width="30" height="40" fill="#95a5a6"/>
          <rect x="155" y="18" width="30" height="42" fill="#f39c12" opacity="0.8"/>
          <text x="170" y="75" text-anchor="middle" font-family="Arial, sans-serif" font-size="10" fill="#2c3e50">Q4*</text>
        </g>
        

        <g transform="translate(20, 110)">
          <rect x="0" y="0" width="10" height="10" fill="#95a5a6"/>
          <text x="15" y="8" font-family="Arial, sans-serif" font-size="10" fill="#2c3e50">Budsjett</text>
          
          <rect x="80" y="0" width="10" height="10" fill="#e74c3c" opacity="0.8"/>
          <text x="95" y="8" font-family="Arial, sans-serif" font-size="10" fill="#2c3e50">Over budsjett</text>
          
          <rect x="180" y="0" width="10" height="10" fill="#27ae60" opacity="0.8"/>
          <text x="195" y="8" font-family="Arial, sans-serif" font-size="10" fill="#2c3e50">Under budsjett</text>
        </g>
      </g>
      

      <g transform="translate(260, 0)">
        <rect x="0" y="0" width="240" height="140" fill="#ffffff" stroke="#bdc3c7" stroke-width="2" rx="10"/>
        <text x="120" y="25" text-anchor="middle" font-family="Arial, sans-serif" font-size="16" font-weight="bold" fill="#2c3e50">
          Effektivitetsmål
        </text>
        

        <g transform="translate(30, 45)">

          <g transform="translate(0, 0)">
            <circle cx="15" cy="15" r="12" fill="#27ae60"/>
            <text x="15" y="20" text-anchor="middle" font-family="Arial, sans-serif" font-size="16" font-weight="bold" fill="#ffffff">✓</text>
            <text x="35" y="12" font-family="Arial, sans-serif" font-size="12" fill="#2c3e50">Produktivitet</text>
            <text x="35" y="25" font-family="Arial, sans-serif" font-size="10" fill="#27ae60">105% av mål</text>
          </g>
          

          <g transform="translate(0, 40)">
            <circle cx="15" cy="15" r="12" fill="#f39c12"/>
            <text x="15" y="20" text-anchor="middle" font-family="Arial, sans-serif" font-size="16" font-weight="bold" fill="#ffffff">!</text>
            <text x="35" y="12" font-family="Arial, sans-serif" font-size="12" fill="#2c3e50">Kostnadskontroll</text>
            <text x="35" y="25" font-family="Arial, sans-serif" font-size="10" fill="#f39c12">98% av mål</text>
          </g>
        </g>
      </g>
      

      <g transform="translate(520, 0)">
        <rect x="0" y="0" width="220" height="140" fill="#ffffff" stroke="#e74c3c" stroke-width="2" rx="10"/>
        <text x="110" y="25" text-anchor="middle" font-family="Arial, sans-serif" font-size="16" font-weight="bold" fill="#e74c3c">
          Varsler
        </text>
        

        <g transform="translate(20, 45)">
          <g transform="translate(0, 0)">
            <circle cx="10" cy="10" r="8" fill="#e74c3c"/>
            <text x="10" y="15" text-anchor="middle" font-family="Arial, sans-serif" font-size="12" font-weight="bold" fill="#ffffff">!</text>
            <text x="25" y="8" font-family="Arial, sans-serif" font-size="11" fill="#2c3e50">Overtidslønn over budsjett</text>
            <text x="25" y="20" font-family="Arial, sans-serif" font-size="9" fill="#7f8c8d">+15% i juli</text>
          </g>
          
          <g transform="translate(0, 35)">
            <circle cx="10" cy="10" r="8" fill="#f39c12"/>
            <text x="10" y="15" text-anchor="middle" font-family="Arial, sans-serif" font-size="12" font-weight="bold" fill="#ffffff">⚠</text>
            <text x="25" y="8" font-family="Arial, sans-serif" font-size="11" fill="#2c3e50">Energikostnader øker</text>
            <text x="25" y="20" font-family="Arial, sans-serif" font-size="9" fill="#7f8c8d">Trend siste 3 mnd</text>
          </g>
          
          <g transform="translate(0, 70)">
            <circle cx="10" cy="10" r="8" fill="#27ae60"/>
            <text x="10" y="15" text-anchor="middle" font-family="Arial, sans-serif" font-size="12" font-weight="bold" fill="#ffffff">✓</text>
            <text x="25" y="8" font-family="Arial, sans-serif" font-size="11" fill="#2c3e50">Markedsføring under budsjett</text>
            <text x="25" y="20" font-family="Arial, sans-serif" font-size="9" fill="#7f8c8d">-8% YTD</text>
          </g>
        </g>
      </g>
    </g>
    

    <g transform="translate(0, 500)">
      <rect x="0" y="0" width="740" height="80" fill="#ecf0f1" stroke="#bdc3c7" stroke-width="2" rx="10"/>
      <text x="370" y="25" text-anchor="middle" font-family="Arial, sans-serif" font-size="18" font-weight="bold" fill="#2c3e50">
        Sammendrag - Juli 2024
      </text>
      
      <g transform="translate(50, 40)">
        <text x="0" y="0" font-family="Arial, sans-serif" font-size="12" fill="#2c3e50">
          <tspan font-weight="bold">Totale driftskostnader:</tspan> 2.4M kr (+4.2% fra juni) |
          <tspan font-weight="bold" fill="#e74c3c"> Budsjettavvik:</tspan> +120k kr |
          <tspan font-weight="bold" fill="#27ae60"> Besparelser:</tspan> 85k kr fra markedsføring
        </text>
        <text x="0" y="20" font-family="Arial, sans-serif" font-size="12" fill="#7f8c8d">
          Neste gjennomgang: 15. august | Ansvarlig: CFO | Status: Krever oppfølging på overtidskostnader
        </text>
      </g>
    </g>
  </g>
</svg>