<svg xmlns="http://www.w3.org/2000/svg" width="800" height="400" viewBox="0 0 800 400"><path fill="#f8f9fa" d="M0 0h800v400H0z"/><text x="400" y="50" fill="#2c3e50" font-family="Arial, sans-serif" font-size="32" font-weight="bold" text-anchor="middle">
    Driftskostnader
  </text><text x="400" y="80" fill="#7f8c8d" font-family="Arial, sans-serif" font-size="18" text-anchor="middle">
    Kostnader i den daglige driften
  </text><g transform="translate(100 120)"><path fill="#3498db" stroke="#2980b9" stroke-width="2" d="M0 80h200v120H0z"/><path fill="#ecf0f1" stroke="#bdc3c7" d="M20 100h30v40H20zM70 100h30v40H70zM120 100h30v40h-30z"/><path fill="#e74c3c" stroke="#c0392b" d="M170 100h20v60h-20z"/><path fill="#e74c3c" stroke="#c0392b" stroke-width="2" d="m0 80 100-40 100 40z"/><circle cx="180" cy="30" r="8" fill="#95a5a6" opacity=".7"/><circle cx="185" cy="20" r="6" fill="#95a5a6" opacity=".5"/><circle cx="190" cy="12" r="4" fill="#95a5a6" opacity=".3"/></g><g transform="translate(350 140)"><rect width="180" height="80" fill="#e8f5e8" stroke="#27ae60" stroke-width="2" rx="5"/><text x="90" y="25" fill="#27ae60" font-family="Arial, sans-serif" font-size="16" font-weight="bold" text-anchor="middle">
      Faste Kostnader
    </text><text x="10" y="45" fill="#2c3e50" font-family="Arial, sans-serif" font-size="12">
      • Husleie
    </text><text x="10" y="60" fill="#2c3e50" font-family="Arial, sans-serif" font-size="12">
      • Forsikring
    </text><text x="10" y="75" fill="#2c3e50" font-family="Arial, sans-serif" font-size="12">
      • Grunnlønn
    </text><rect width="180" height="80" x="200" fill="#fef9e7" stroke="#f39c12" stroke-width="2" rx="5"/><text x="290" y="25" fill="#f39c12" font-family="Arial, sans-serif" font-size="16" font-weight="bold" text-anchor="middle">
      Variable Kostnader
    </text><text x="210" y="45" fill="#2c3e50" font-family="Arial, sans-serif" font-size="12">
      • Råvarer
    </text><text x="210" y="60" fill="#2c3e50" font-family="Arial, sans-serif" font-size="12">
      • Provisjon
    </text><text x="210" y="75" fill="#2c3e50" font-family="Arial, sans-serif" font-size="12">
      • Transport
    </text></g><path stroke="#34495e" stroke-width="3" marker-end="url(#a)" d="M0 0h20" transform="translate(320 180)"/><defs><marker id="a" markerHeight="7" markerWidth="10" orient="auto" refX="9" refY="3.5"><path fill="#34495e" d="m0 0 10 3.5L0 7z"/></marker></defs><g transform="translate(100 280)"><rect width="600" height="60" fill="#ecf0f1" stroke="#bdc3c7" rx="5"/><text x="300" y="25" fill="#2c3e50" font-family="Arial, sans-serif" font-size="16" font-weight="bold" text-anchor="middle">
      Nøkkeltall for Driftskostnader
    </text><text x="50" y="45" fill="#7f8c8d" font-family="Arial, sans-serif" font-size="12">
      Kostnadsratio • Break-even • Dekningsbidrag • Budsjettoppfølging
    </text></g><circle cx="50" cy="350" r="15" fill="#3498db" opacity=".3"/><circle cx="750" cy="350" r="15" fill="#e74c3c" opacity=".3"/><circle cx="50" cy="50" r="10" fill="#27ae60" opacity=".3"/><circle cx="750" cy="50" r="10" fill="#f39c12" opacity=".3"/></svg>