<svg xmlns="http://www.w3.org/2000/svg" width="800" height="500" viewBox="0 0 800 500"><path fill="#f8f9fa" d="M0 0h800v500H0z"/><text x="400" y="30" fill="#2c3e50" font-family="Arial, sans-serif" font-size="24" font-weight="bold" text-anchor="middle">
    Arkiveringssystem for Bilag
  </text><text fill="#e74c3c" font-family="Arial, sans-serif" font-size="18" font-weight="bold" text-anchor="middle" transform="translate(200 100)">
      FYSISK ARKIVERING
    </text><g transform="translate(200 150)"><rect width="40" height="80" x="-60" fill="#95a5a6" stroke="#7f8c8d" stroke-width="2" rx="3"/><path fill="#7f8c8d" d="M-55 10h30v3h-30zM-55 20h30v3h-30zM-55 30h30v3h-30zM-55 40h30v3h-30zM-55 50h30v3h-30zM-55 60h30v3h-30z"/><circle cx="-45" cy="70" r="2" fill="#34495e"/><rect width="40" height="80" x="-10" fill="#95a5a6" stroke="#7f8c8d" stroke-width="2" rx="3"/><path fill="#7f8c8d" d="M-5 10h30v3H-5zM-5 20h30v3H-5zM-5 30h30v3H-5zM-5 40h30v3H-5zM-5 50h30v3H-5zM-5 60h30v3H-5z"/><circle cx="5" cy="70" r="2" fill="#34495e"/><rect width="40" height="80" x="40" fill="#95a5a6" stroke="#7f8c8d" stroke-width="2" rx="3"/><path fill="#7f8c8d" d="M45 10h30v3H45zM45 20h30v3H45zM45 30h30v3H45zM45 40h30v3H45zM45 50h30v3H45zM45 60h30v3H45z"/><circle cx="55" cy="70" r="2" fill="#34495e"/></g><g transform="translate(200 260)"><rect width="160" height="100" x="-80" fill="#fdf2f2" stroke="#e74c3c" rx="5"/><text y="20" fill="#e74c3c" font-family="Arial, sans-serif" font-size="12" font-weight="bold" text-anchor="middle">
        Karakteristika:
      </text><text y="35" fill="#2c3e50" font-family="Arial, sans-serif" font-size="10" text-anchor="middle">
        ✓ Enkel implementering
      </text><text y="48" fill="#2c3e50" font-family="Arial, sans-serif" font-size="10" text-anchor="middle">
        ✗ Krever fysisk plass
      </text><text y="61" fill="#2c3e50" font-family="Arial, sans-serif" font-size="10" text-anchor="middle">
        ✗ Vanskelig søking
      </text><text y="74" fill="#2c3e50" font-family="Arial, sans-serif" font-size="10" text-anchor="middle">
        ✗ Risiko for skade/tap
      </text><text y="87" fill="#2c3e50" font-family="Arial, sans-serif" font-size="10" text-anchor="middle">
        ✗ Høye kostnader
      </text></g><text fill="#27ae60" font-family="Arial, sans-serif" font-size="18" font-weight="bold" text-anchor="middle" transform="translate(600 100)">
      DIGITAL ARKIVERING
    </text><g transform="translate(600 170)"><ellipse fill="#3498db" stroke="#3498db" stroke-width="2" opacity=".2" rx="50" ry="25"/><ellipse cx="-20" cy="15" fill="#3498db" stroke="#3498db" stroke-width="2" opacity=".2" rx="30" ry="15"/><ellipse cx="20" cy="15" fill="#3498db" stroke="#3498db" stroke-width="2" opacity=".2" rx="30" ry="15"/><path fill="#3498db" d="M-15-10h30v2h-30zM-10-5h20v2h-20zM-12 0h24v2h-24zM-8 5H8v2H-8z"/><path stroke="#3498db" d="m-40 40 20-15M0 40V25M40 40 20 25"/><rect width="10" height="8" x="-45" y="40" fill="#34495e" rx="1"/><rect width="10" height="8" x="-5" y="40" fill="#34495e" rx="1"/><rect width="10" height="8" x="35" y="40" fill="#34495e" rx="1"/></g><g transform="translate(600 260)"><rect width="160" height="100" x="-80" fill="#e8f5e8" stroke="#27ae60" rx="5"/><text y="20" fill="#27ae60" font-family="Arial, sans-serif" font-size="12" font-weight="bold" text-anchor="middle">
        Karakteristika:
      </text><text y="35" fill="#2c3e50" font-family="Arial, sans-serif" font-size="10" text-anchor="middle">
        ✓ Plassbesparende
      </text><text y="48" fill="#2c3e50" font-family="Arial, sans-serif" font-size="10" text-anchor="middle">
        ✓ Enkel søking
      </text><text y="61" fill="#2c3e50" font-family="Arial, sans-serif" font-size="10" text-anchor="middle">
        ✓ Backup og sikkerhet
      </text><text y="74" fill="#2c3e50" font-family="Arial, sans-serif" font-size="10" text-anchor="middle">
        ✓ Lavere kostnader
      </text><text y="87" fill="#2c3e50" font-family="Arial, sans-serif" font-size="10" text-anchor="middle">
        ✗ Teknisk kompleksitet
      </text></g><text fill="#2c3e50" font-family="Arial, sans-serif" font-size="18" font-weight="bold" text-anchor="middle" transform="translate(400 320)">
      Arkiveringsmetoder
    </text><g transform="translate(150 380)"><rect width="120" height="40" x="-60" y="-20" fill="#f39c12" stroke="#f39c12" stroke-width="2" opacity=".1" rx="5"/><text y="-5" fill="#f39c12" font-family="Arial, sans-serif" font-size="12" font-weight="bold" text-anchor="middle">
      Kronologisk
    </text><text y="8" fill="#2c3e50" font-family="Arial, sans-serif" font-size="10" text-anchor="middle">
      Sortert etter dato
    </text><text y="35" fill="#7f8c8d" font-family="Arial, sans-serif" font-size="9" text-anchor="middle">
      Jan | Feb | Mar | Apr
    </text></g><g transform="translate(350 380)"><rect width="120" height="40" x="-60" y="-20" fill="#9b59b6" stroke="#9b59b6" stroke-width="2" opacity=".1" rx="5"/><text y="-5" fill="#9b59b6" font-family="Arial, sans-serif" font-size="12" font-weight="bold" text-anchor="middle">
      Numerisk
    </text><text y="8" fill="#2c3e50" font-family="Arial, sans-serif" font-size="10" text-anchor="middle">
      Sortert etter nummer
    </text><text y="35" fill="#7f8c8d" font-family="Arial, sans-serif" font-size="9" text-anchor="middle">
      001 | 002 | 003 | 004
    </text></g><g transform="translate(550 380)"><rect width="120" height="40" x="-60" y="-20" fill="#1abc9c" stroke="#1abc9c" stroke-width="2" opacity=".1" rx="5"/><text y="-5" fill="#1abc9c" font-family="Arial, sans-serif" font-size="12" font-weight="bold" text-anchor="middle">
      Tematisk
    </text><text y="8" fill="#2c3e50" font-family="Arial, sans-serif" font-size="10" text-anchor="middle">
      Gruppert etter type
    </text><text y="35" fill="#7f8c8d" font-family="Arial, sans-serif" font-size="9" text-anchor="middle">
      Lønn | Kjøp | Salg | Bank
    </text></g><g transform="translate(650 380)"><rect width="120" height="40" x="-60" y="-20" fill="#e74c3c" stroke="#e74c3c" stroke-width="2" opacity=".1" rx="5"/><text y="-5" fill="#e74c3c" font-family="Arial, sans-serif" font-size="12" font-weight="bold" text-anchor="middle">
      Kombinert
    </text><text y="8" fill="#2c3e50" font-family="Arial, sans-serif" font-size="10" text-anchor="middle">
      Blanding av metoder
    </text><text y="35" fill="#7f8c8d" font-family="Arial, sans-serif" font-size="9" text-anchor="middle">
      Type → Dato → Nr
    </text></g><g transform="translate(100 380)"><rect width="160" height="120" x="-80" y="-60" fill="#fff3cd" stroke="#ffc107" stroke-width="2" rx="5"/><text y="-40" fill="#856404" font-family="Arial, sans-serif" font-size="14" font-weight="bold" text-anchor="middle">
      Lovkrav
    </text><text y="-25" fill="#2c3e50" font-family="Arial, sans-serif" font-size="10" text-anchor="middle">
      Oppbevaringsfrister:
    </text><text y="-10" fill="#2c3e50" font-family="Arial, sans-serif" font-size="10" text-anchor="middle">
      • Regnskapsbilag: 5 år
    </text><text y="3" fill="#2c3e50" font-family="Arial, sans-serif" font-size="10" text-anchor="middle">
      • Lønnsbilag: 5 år
    </text><text y="16" fill="#2c3e50" font-family="Arial, sans-serif" font-size="10" text-anchor="middle">
      • MVA-bilag: 5 år
    </text><text y="29" fill="#2c3e50" font-family="Arial, sans-serif" font-size="10" text-anchor="middle">
      • Årsregnskap: 10 år
    </text><text y="42" fill="#2c3e50" font-family="Arial, sans-serif" font-size="10" text-anchor="middle">
      • Styreprotokoller: 10 år
    </text></g><g transform="translate(400 180)"><defs><marker id="a" markerHeight="10" markerWidth="15" orient="auto" refX="14" refY="5"><path fill="#3498db" d="m0 0 15 5-15 5z"/></marker></defs><path fill="none" stroke="#3498db" stroke-width="3" marker-end="url(#a)" d="M-150 0h300"/><text y="-15" fill="#3498db" font-family="Arial, sans-serif" font-size="14" font-weight="bold" text-anchor="middle">
      MODERNISERING
    </text></g><text x="400" y="480" fill="#7f8c8d" font-family="Arial, sans-serif" font-size="12" text-anchor="middle">
    Uavhengig av metode må alle bilag være tilgjengelige for kontroll av myndigheter
  </text></svg>