<svg xmlns="http://www.w3.org/2000/svg" width="800" height="400" viewBox="0 0 800 400"><path fill="#f8f9fa" d="M0 0h800v400H0z"/><text x="400" y="50" fill="#2c3e50" font-family="Arial, sans-serif" font-size="32" font-weight="bold" text-anchor="middle">
    Hva er Bilag i Regnskap?
  </text><g transform="translate(100 120)"><rect width="120" height="150" fill="#fff" stroke="#3498db" stroke-width="2" rx="5"/><path fill="#3498db" d="M10 15h100v8H10z"/><path fill="#bdc3c7" d="M10 35h80v6H10zM10 50h90v6H10zM10 65h70v6H10z"/><path fill="#e74c3c" d="M10 90h100v8H10z"/><text x="60" y="130" fill="#2c3e50" font-family="Arial, sans-serif" font-size="12" text-anchor="middle">Faktura</text></g><g transform="translate(280 120)"><rect width="120" height="150" fill="#fff" stroke="#27ae60" stroke-width="2" rx="5"/><path fill="#27ae60" d="M10 15h100v6H10z"/><path fill="#bdc3c7" d="M10 30h60v5H10zM10 45h80v5H10zM10 60h50v5H10z"/><path fill="#f39c12" d="M10 85h100v6H10z"/><text x="60" y="130" fill="#2c3e50" font-family="Arial, sans-serif" font-size="12" text-anchor="middle">Kvittering</text></g><g transform="translate(460 120)"><rect width="120" height="150" fill="#fff" stroke="#9b59b6" stroke-width="2" rx="5"/><path fill="#9b59b6" d="M10 15h100v6H10z"/><path fill="#bdc3c7" d="M10 30h90v5H10zM10 45h70v5H10zM10 60h85v5H10zM10 75h60v5H10z"/><path fill="#e67e22" d="M10 100h100v6H10z"/><text x="60" y="130" fill="#2c3e50" font-family="Arial, sans-serif" font-size="12" text-anchor="middle">Internt Bilag</text></g><g transform="translate(640 120)"><rect width="120" height="150" fill="#fff" stroke="#34495e" stroke-width="2" rx="5"/><path fill="#34495e" d="M10 15h100v6H10z"/><path fill="#bdc3c7" d="M10 30h40v4H10zM60 30h50v4H60zM10 45h40v4H10zM60 45h50v4H60zM10 60h40v4H10zM60 60h50v4H60z"/><path fill="#1abc9c" d="M10 85h100v6H10z"/><text x="60" y="130" fill="#2c3e50" font-family="Arial, sans-serif" font-size="12" text-anchor="middle">Kontoutskrift</text></g><g transform="translate(400 300)"><circle r="40" fill="#3498db" opacity=".1"/><text y="5" fill="#2c3e50" font-family="Arial, sans-serif" font-size="14" font-weight="bold" text-anchor="middle">
      Dokumentasjon
    </text></g><path fill="none" stroke="#3498db" stroke-width="2" marker-end="url(#a)" d="M160 270q120 50 200 50"/><path fill="none" stroke="#27ae60" stroke-width="2" marker-end="url(#a)" d="m340 270 30 30"/><path fill="none" stroke="#9b59b6" stroke-width="2" marker-end="url(#a)" d="M520 270q-70 30-90 30"/><path fill="none" stroke="#34495e" stroke-width="2" marker-end="url(#a)" d="M700 270q-180 50-260 50"/><defs><marker id="a" markerHeight="7" markerWidth="10" orient="auto" refX="9" refY="3.5"><path fill="#2c3e50" d="m0 0 10 3.5L0 7z"/></marker></defs><text x="400" y="370" fill="#7f8c8d" font-family="Arial, sans-serif" font-size="16" text-anchor="middle">
    Alle forretningshendelser må dokumenteres med bilag
  </text></svg>