<svg xmlns="http://www.w3.org/2000/svg" width="900" height="600" viewBox="0 0 900 600"><path fill="#f8f9fa" d="M0 0h900v600H0z"/><text x="450" y="40" fill="#2c3e50" font-family="Arial, sans-serif" font-size="24" font-weight="bold" text-anchor="middle">
    Oversikt over Betalingsmidler i Norge
  </text><g transform="translate(50 80)"><rect width="250" height="200" fill="#e8f5e8" stroke="#27ae60" stroke-width="2" rx="10"/><text x="125" y="30" fill="#27ae60" font-family="Arial, sans-serif" font-size="18" font-weight="bold" text-anchor="middle">
      Tvungne Betalingsmidler
    </text><text x="125" y="50" fill="#7f8c8d" font-family="Arial, sans-serif" font-size="12" text-anchor="middle">
      (Legal Tender)
    </text><rect width="80" height="50" x="20" y="70" fill="#27ae60" rx="5"/><text x="60" y="90" fill="#fff" font-family="Arial, sans-serif" font-size="10" font-weight="bold" text-anchor="middle">1000</text><text x="60" y="105" fill="#fff" font-family="Arial, sans-serif" font-size="8" text-anchor="middle">KRONER</text><text x="60" y="140" fill="#2c3e50" font-family="Arial, sans-serif" font-size="12" font-weight="bold" text-anchor="middle">Sedler</text><circle cx="170" cy="95" r="25" fill="#f39c12" stroke="#e67e22" stroke-width="2"/><text x="170" y="100" fill="#fff" font-family="Arial, sans-serif" font-size="12" font-weight="bold" text-anchor="middle">20</text><text x="170" y="140" fill="#2c3e50" font-family="Arial, sans-serif" font-size="12" font-weight="bold" text-anchor="middle">Mynter</text><text x="125" y="170" fill="#7f8c8d" font-family="Arial, sans-serif" font-size="11" text-anchor="middle">
      Utstedt av Norges Bank
    </text></g><g transform="translate(325 80)"><rect width="250" height="200" fill="#e8f4fd" stroke="#3498db" stroke-width="2" rx="10"/><text x="125" y="30" fill="#3498db" font-family="Arial, sans-serif" font-size="18" font-weight="bold" text-anchor="middle">
      Elektroniske Betalingsmidler
    </text><rect width="60" height="35" x="20" y="50" fill="#3498db" rx="5"/><path fill="#ecf0f1" d="M25 60h50v5H25z"/><text x="50" y="100" fill="#2c3e50" font-family="Arial, sans-serif" font-size="10" text-anchor="middle">Kort</text><rect width="35" height="60" x="100" y="45" fill="#34495e" rx="8"/><path fill="#ecf0f1" d="M105 52h25v40h-25z"/><text x="117" y="75" fill="#e74c3c" font-family="Arial, sans-serif" font-size="8" text-anchor="middle">V</text><text x="117" y="120" fill="#2c3e50" font-family="Arial, sans-serif" font-size="10" text-anchor="middle">Mobil</text><rect width="70" height="40" x="155" y="55" fill="#95a5a6" rx="5"/><text x="190" y="75" fill="#fff" font-family="Arial, sans-serif" font-size="10" text-anchor="middle">Nettbank</text><text x="190" y="120" fill="#2c3e50" font-family="Arial, sans-serif" font-size="10" text-anchor="middle">Online</text><text x="125" y="145" fill="#7f8c8d" font-family="Arial, sans-serif" font-size="11" text-anchor="middle">
      BankAxept • Vipps • AvtaleGiro
    </text><text x="125" y="165" fill="#7f8c8d" font-family="Arial, sans-serif" font-size="11" text-anchor="middle">
      Bankgiro • eFaktura
    </text></g><g transform="translate(600 80)"><rect width="250" height="200" fill="#fdf2e9" stroke="#e67e22" stroke-width="2" rx="10"/><text x="125" y="30" fill="#e67e22" font-family="Arial, sans-serif" font-size="18" font-weight="bold" text-anchor="middle">
      Tradisjonelle Metoder
    </text><rect width="80" height="50" x="30" y="60" fill="#ecf0f1" stroke="#bdc3c7" rx="3"/><path stroke="#7f8c8d" d="M40 75h60M40 85h50M40 95h30"/><text x="70" y="135" fill="#2c3e50" font-family="Arial, sans-serif" font-size="12" text-anchor="middle">Sjekk</text><rect width="80" height="50" x="140" y="60" fill="#f8f9fa" stroke="#95a5a6" rx="3"/><text x="180" y="80" fill="#7f8c8d" font-family="Arial, sans-serif" font-size="10" text-anchor="middle">POST</text><text x="180" y="95" fill="#7f8c8d" font-family="Arial, sans-serif" font-size="10" text-anchor="middle">ANVISNING</text><text x="180" y="135" fill="#2c3e50" font-family="Arial, sans-serif" font-size="12" text-anchor="middle">Postanvisning</text><text x="125" y="165" fill="#7f8c8d" font-family="Arial, sans-serif" font-size="11" text-anchor="middle">
      Sjelden brukt i dag
    </text></g><text x="400" y="20" fill="#2c3e50" font-family="Arial, sans-serif" font-size="20" font-weight="bold" text-anchor="middle" transform="translate(50 320)">
      Sammenligning av Egenskaper
    </text><path fill="#34495e" d="M50 360h800v40H50z"/><text x="100" y="65" fill="#fff" font-family="Arial, sans-serif" font-size="14" font-weight="bold" text-anchor="middle" transform="translate(50 320)">Betalingsmiddel</text><text x="250" y="65" fill="#fff" font-family="Arial, sans-serif" font-size="14" font-weight="bold" text-anchor="middle" transform="translate(50 320)">Oppgjørstid</text><text x="400" y="65" fill="#fff" font-family="Arial, sans-serif" font-size="14" font-weight="bold" text-anchor="middle" transform="translate(50 320)">Sikkerhet</text><text x="550" y="65" fill="#fff" font-family="Arial, sans-serif" font-size="14" font-weight="bold" text-anchor="middle" transform="translate(50 320)">Kostnad</text><text x="700" y="65" fill="#fff" font-family="Arial, sans-serif" font-size="14" font-weight="bold" text-anchor="middle" transform="translate(50 320)">Sporbarhet</text><path fill="#ecf0f1" d="M50 400h800v35H50z"/><text x="100" y="102" fill="#2c3e50" font-family="Arial, sans-serif" font-size="12" text-anchor="middle" transform="translate(50 320)">Kontanter</text><text x="250" y="102" fill="#27ae60" font-family="Arial, sans-serif" font-size="12" text-anchor="middle" transform="translate(50 320)">Umiddelbart</text><text x="400" y="102" fill="#e74c3c" font-family="Arial, sans-serif" font-size="12" text-anchor="middle" transform="translate(50 320)">Lav</text><text x="550" y="102" fill="#27ae60" font-family="Arial, sans-serif" font-size="12" text-anchor="middle" transform="translate(50 320)">Ingen</text><text x="700" y="102" fill="#e74c3c" font-family="Arial, sans-serif" font-size="12" text-anchor="middle" transform="translate(50 320)">Begrenset</text><path fill="#f8f9fa" d="M50 435h800v35H50z"/><text x="100" y="137" fill="#2c3e50" font-family="Arial, sans-serif" font-size="12" text-anchor="middle" transform="translate(50 320)">Betalingskort</text><text x="250" y="137" fill="#f39c12" font-family="Arial, sans-serif" font-size="12" text-anchor="middle" transform="translate(50 320)">1-3 dager</text><text x="400" y="137" fill="#27ae60" font-family="Arial, sans-serif" font-size="12" text-anchor="middle" transform="translate(50 320)">Høy</text><text x="550" y="137" fill="#f39c12" font-family="Arial, sans-serif" font-size="12" text-anchor="middle" transform="translate(50 320)">Gebyr</text><text x="700" y="137" fill="#27ae60" font-family="Arial, sans-serif" font-size="12" text-anchor="middle" transform="translate(50 320)">Komplett</text><path fill="#ecf0f1" d="M50 470h800v35H50z"/><text x="100" y="172" fill="#2c3e50" font-family="Arial, sans-serif" font-size="12" text-anchor="middle" transform="translate(50 320)">Vipps/Mobil</text><text x="250" y="172" fill="#27ae60" font-family="Arial, sans-serif" font-size="12" text-anchor="middle" transform="translate(50 320)">Umiddelbart</text><text x="400" y="172" fill="#27ae60" font-family="Arial, sans-serif" font-size="12" text-anchor="middle" transform="translate(50 320)">Høy</text><text x="550" y="172" fill="#f39c12" font-family="Arial, sans-serif" font-size="12" text-anchor="middle" transform="translate(50 320)">Lavt gebyr</text><text x="700" y="172" fill="#27ae60" font-family="Arial, sans-serif" font-size="12" text-anchor="middle" transform="translate(50 320)">Komplett</text><path fill="#f8f9fa" d="M50 505h800v35H50z"/><text x="100" y="207" fill="#2c3e50" font-family="Arial, sans-serif" font-size="12" text-anchor="middle" transform="translate(50 320)">Bankoverføring</text><text x="250" y="207" fill="#f39c12" font-family="Arial, sans-serif" font-size="12" text-anchor="middle" transform="translate(50 320)">1-3 dager</text><text x="400" y="207" fill="#27ae60" font-family="Arial, sans-serif" font-size="12" text-anchor="middle" transform="translate(50 320)">Høy</text><text x="550" y="207" fill="#27ae60" font-family="Arial, sans-serif" font-size="12" text-anchor="middle" transform="translate(50 320)">Lav/Ingen</text><text x="700" y="207" fill="#27ae60" font-family="Arial, sans-serif" font-size="12" text-anchor="middle" transform="translate(50 320)">Komplett</text></svg>