<svg xmlns="http://www.w3.org/2000/svg" width="800" height="600"><path fill="#f8f9fa" d="M0 0h800v600H0z"/><text x="400" y="40" fill="#2c3e50" font-family="Arial, sans-serif" font-size="24" font-weight="bold" text-anchor="middle">
    Digitale Kontantfaktura Løsninger
  </text><g transform="translate(350 150)"><rect width="100" height="80" fill="#3498db" stroke="#2980b9" stroke-width="3" rx="10"/><text x="50" y="30" fill="#fff" font-family="Arial, sans-serif" font-size="14" font-weight="bold" text-anchor="middle">DATAKASSE</text><text x="50" y="45" fill="#fff" font-family="Arial, sans-serif" font-size="12" text-anchor="middle">POS System</text><text x="50" y="60" fill="#fff" font-family="Arial, sans-serif" font-size="10" text-anchor="middle">Sentral Hub</text></g><g transform="translate(100 100)"><rect width="80" height="60" fill="#27ae60" stroke="#229954" stroke-width="2" rx="8"/><text x="40" y="25" fill="#fff" font-family="Arial, sans-serif" font-size="12" font-weight="bold" text-anchor="middle">KONTANT</text><text x="40" y="40" fill="#fff" font-family="Arial, sans-serif" font-size="10" text-anchor="middle">Tradisjonell</text><text x="40" y="80" fill="#2c3e50" font-family="Arial, sans-serif" font-size="11" text-anchor="middle">Fysiske sedler</text><text x="40" y="95" fill="#2c3e50" font-family="Arial, sans-serif" font-size="11" text-anchor="middle">og mynter</text></g><g transform="translate(100 250)"><rect width="80" height="50" fill="#3498db" stroke="#2980b9" stroke-width="2" rx="8"/><rect width="60" height="8" x="10" y="10" fill="#f39c12" rx="2"/><text x="40" y="35" fill="#fff" font-family="Arial, sans-serif" font-size="12" font-weight="bold" text-anchor="middle">KORT</text><text x="40" y="320" fill="#2c3e50" font-family="Arial, sans-serif" font-size="11" text-anchor="middle">Debet/Kredit</text><text x="40" y="335" fill="#2c3e50" font-family="Arial, sans-serif" font-size="11" text-anchor="middle">Terminal</text></g><g transform="translate(600 100)"><rect width="50" height="80" fill="#2c3e50" stroke="#34495e" stroke-width="2" rx="10"/><rect width="40" height="50" x="5" y="15" fill="#ecf0f1" rx="3"/><circle cx="25" cy="75" r="4" fill="#ecf0f1"/><text x="25" y="100" fill="#2c3e50" font-family="Arial, sans-serif" font-size="11" text-anchor="middle">Vipps</text><text x="25" y="115" fill="#2c3e50" font-family="Arial, sans-serif" font-size="11" text-anchor="middle">Apple/Google Pay</text></g><g transform="translate(600 250)"><rect width="60" height="60" fill="#fff" stroke="#2c3e50" stroke-width="2" rx="5"/><path fill="#2c3e50" d="M5 5h8v8H5zM5 17h8v8H5zM17 5h8v8h-8zM47 5h8v8h-8zM47 17h8v8h-8zM35 17h8v8h-8zM5 47h8v8H5zM17 47h8v8h-8zM47 47h8v8h-8z"/><text x="30" y="80" fill="#2c3e50" font-family="Arial, sans-serif" font-size="11" text-anchor="middle">QR-kode</text><text x="30" y="95" fill="#2c3e50" font-family="Arial, sans-serif" font-size="11" text-anchor="middle">Betaling</text></g><g transform="translate(250 50)"><ellipse cx="30" cy="30" fill="#9b59b6" stroke="#8e44ad" stroke-width="2" rx="25" ry="20"/><path fill="none" stroke="#fff" stroke-width="2" d="M15 25q15-10 30 0"/><path fill="none" stroke="#fff" stroke-width="2" d="M15 30q15-10 30 0"/><path fill="none" stroke="#fff" stroke-width="2" d="M15 35q15-10 30 0"/><text x="30" y="70" fill="#2c3e50" font-family="Arial, sans-serif" font-size="11" text-anchor="middle">Kontaktløs</text><text x="30" y="85" fill="#2c3e50" font-family="Arial, sans-serif" font-size="11" text-anchor="middle">NFC</text></g><g transform="translate(550 50)"><rect width="70" height="40" fill="#e67e22" stroke="#d35400" stroke-width="2" rx="5"/><text x="35" y="20" fill="#fff" font-family="Arial, sans-serif" font-size="10" font-weight="bold" text-anchor="middle">BANK</text><text x="35" y="32" fill="#fff" font-family="Arial, sans-serif" font-size="8" text-anchor="middle">OVERFØRING</text><text x="35" y="60" fill="#2c3e50" font-family="Arial, sans-serif" font-size="11" text-anchor="middle">Umiddelbar</text><text x="35" y="75" fill="#2c3e50" font-family="Arial, sans-serif" font-size="11" text-anchor="middle">BankGiro</text></g><path stroke="#95a5a6" stroke-dasharray="5,5" stroke-width="2" d="m200 130 140 50M200 275l140-75M290 80l50 80M580 70l-120 90M600 140l-140 40M600 280l-140-70"/><rect width="700" height="180" x="50" y="380" fill="#fff" stroke="#3498db" stroke-width="2" rx="10"/><text x="400" y="410" fill="#3498db" font-family="Arial, sans-serif" font-size="18" font-weight="bold" text-anchor="middle">
    Automatiserte Funksjoner
  </text><g transform="translate(80 430)"><rect width="150" height="100" fill="#ecf0f1" stroke="#bdc3c7" rx="5"/><text x="75" y="20" fill="#2c3e50" font-family="Arial, sans-serif" font-size="12" font-weight="bold" text-anchor="middle">Fakturagenerering</text><text x="10" y="40" fill="#34495e" font-family="Arial, sans-serif" font-size="10">• Automatisk nummerering</text><text x="10" y="55" fill="#34495e" font-family="Arial, sans-serif" font-size="10">• MVA-beregning</text><text x="10" y="70" fill="#34495e" font-family="Arial, sans-serif" font-size="10">• Kundedata</text><text x="10" y="85" fill="#34495e" font-family="Arial, sans-serif" font-size="10">• Produktkatalog</text><rect width="150" height="100" x="170" fill="#ecf0f1" stroke="#bdc3c7" rx="5"/><text x="245" y="20" fill="#2c3e50" font-family="Arial, sans-serif" font-size="12" font-weight="bold" text-anchor="middle">Betalingsbehandling</text><text x="180" y="40" fill="#34495e" font-family="Arial, sans-serif" font-size="10">• Multi-betalingsmetoder</text><text x="180" y="55" fill="#34495e" font-family="Arial, sans-serif" font-size="10">• Umiddelbar validering</text><text x="180" y="70" fill="#34495e" font-family="Arial, sans-serif" font-size="10">• Kvitteringsgenerering</text><text x="180" y="85" fill="#34495e" font-family="Arial, sans-serif" font-size="10">• Feilhåndtering</text><rect width="150" height="100" x="340" fill="#ecf0f1" stroke="#bdc3c7" rx="5"/><text x="415" y="20" fill="#2c3e50" font-family="Arial, sans-serif" font-size="12" font-weight="bold" text-anchor="middle">Regnskapsintegrasjon</text><text x="350" y="40" fill="#34495e" font-family="Arial, sans-serif" font-size="10">• Automatisk bokføring</text><text x="350" y="55" fill="#34495e" font-family="Arial, sans-serif" font-size="10">• Bilagsarkivering</text><text x="350" y="70" fill="#34495e" font-family="Arial, sans-serif" font-size="10">• MVA-rapportering</text><text x="350" y="85" fill="#34495e" font-family="Arial, sans-serif" font-size="10">• Dagsoppgjør</text><rect width="150" height="100" x="510" fill="#ecf0f1" stroke="#bdc3c7" rx="5"/><text x="585" y="20" fill="#2c3e50" font-family="Arial, sans-serif" font-size="12" font-weight="bold" text-anchor="middle">Rapportering</text><text x="520" y="40" fill="#34495e" font-family="Arial, sans-serif" font-size="10">• Salgsstatistikk</text><text x="520" y="55" fill="#34495e" font-family="Arial, sans-serif" font-size="10">• Kontantstrømanalyse</text><text x="520" y="70" fill="#34495e" font-family="Arial, sans-serif" font-size="10">• Produktrapporter</text><text x="520" y="85" fill="#34495e" font-family="Arial, sans-serif" font-size="10">• Compliance-sporing</text></g><g fill="#27ae60" font-family="Arial, sans-serif"><text x="150" font-size="14" font-weight="bold" text-anchor="middle" transform="translate(250 350)">Fordeler med Digitale Løsninger:</text><text y="20" font-size="12" transform="translate(250 350)">✓ Redusert behandlingstid (80-90%)</text><text x="150" y="20" font-size="12" transform="translate(250 350)">✓ Færre menneskelige feil</text><text x="300" y="20" font-size="12" transform="translate(250 350)">✓ Bedre kundeopplevelse</text></g></svg>