<svg xmlns="http://www.w3.org/2000/svg" width="800" height="400"><path fill="#f8f9fa" d="M0 0h800v400H0z"/><text x="400" y="50" fill="#2c3e50" font-family="Arial, sans-serif" font-size="32" font-weight="bold" text-anchor="middle">
    Hva er kontantfaktura?
  </text><rect width="200" height="250" x="100" y="100" fill="#fff" stroke="#3498db" stroke-width="2" rx="5"/><text x="200" y="130" fill="#2c3e50" font-family="Arial, sans-serif" font-size="16" font-weight="bold" text-anchor="middle">KONTANTFAKTURA</text><path stroke="#bdc3c7" d="M120 150h160"/><text x="120" y="170" fill="#34495e" font-family="Arial, sans-serif" font-size="12">Fakturanr: 2024-001</text><text x="120" y="190" fill="#34495e" font-family="Arial, sans-serif" font-size="12">Dato: 15.01.2024</text><text x="120" y="210" fill="#34495e" font-family="Arial, sans-serif" font-size="12">Vare: Kaffe</text><text x="120" y="230" fill="#34495e" font-family="Arial, sans-serif" font-size="12">Pris: 45,00 kr</text><text x="120" y="250" fill="#34495e" font-family="Arial, sans-serif" font-size="12">MVA: 11,25 kr</text><path stroke="#34495e" stroke-width="2" d="M120 260h160"/><text x="120" y="280" fill="#27ae60" font-family="Arial, sans-serif" font-size="14" font-weight="bold">Total: 56,25 kr</text><rect width="140" height="30" x="130" y="300" fill="#e74c3c" rx="5"/><text x="200" y="320" fill="#fff" font-family="Arial, sans-serif" font-size="12" font-weight="bold" text-anchor="middle">BETALT KONTANT</text><path fill="none" stroke="#e74c3c" stroke-width="4" marker-end="url(#a)" d="M320 225h60"/><g transform="translate(400 150)"><rect width="80" height="40" fill="#27ae60" rx="5"/><text x="40" y="25" fill="#fff" font-family="Arial, sans-serif" font-size="12" font-weight="bold" text-anchor="middle">KONTANT</text><rect width="80" height="50" y="60" fill="#3498db" rx="8"/><rect width="60" height="8" x="10" y="70" fill="#f39c12" rx="2"/><text x="40" y="95" fill="#fff" font-family="Arial, sans-serif" font-size="10" text-anchor="middle">KORT</text><rect width="40" height="70" x="100" y="20" fill="#2c3e50" rx="8"/><rect width="30" height="40" x="105" y="30" fill="#ecf0f1" rx="2"/><circle cx="120" cy="80" r="3" fill="#ecf0f1"/><text x="120" y="100" fill="#2c3e50" font-family="Arial, sans-serif" font-size="8" text-anchor="middle">MOBIL</text></g><text x="500" y="280" fill="#2c3e50" font-family="Arial, sans-serif" font-size="16" font-weight="bold">Fordeler:</text><text x="500" y="300" fill="#27ae60" font-family="Arial, sans-serif" font-size="14">✓ Umiddelbar betaling</text><text x="500" y="320" fill="#27ae60" font-family="Arial, sans-serif" font-size="14">✓ Ingen kredittrisiko</text><text x="500" y="340" fill="#27ae60" font-family="Arial, sans-serif" font-size="14">✓ Bedre kontantstrøm</text><defs><marker id="a" markerHeight="7" markerWidth="10" orient="auto" refX="9" refY="3.5"><path fill="#e74c3c" d="m0 0 10 3.5L0 7z"/></marker></defs></svg>