<svg xmlns="http://www.w3.org/2000/svg" width="800" height="600" viewBox="0 0 800 600"><path fill="#f8f9fa" d="M0 0h800v600H0z"/><text x="400" y="30" fill="#2c3e50" font-family="Arial, sans-serif" font-size="24" font-weight="bold" text-anchor="middle">
    Beregning av Fakturagebyr
  </text><rect width="700" height="200" x="50" y="60" fill="#fff" stroke="#3498db" stroke-width="3" rx="10"/><text x="400" y="85" fill="#3498db" font-family="Arial, sans-serif" font-size="18" font-weight="bold" text-anchor="middle">
    Kostnadskomponenter
  </text><rect width="320" height="140" x="70" y="100" fill="#e8f5e8" stroke="#27ae60" stroke-width="2" rx="8"/><text x="230" y="120" fill="#27ae60" font-family="Arial, sans-serif" font-size="14" font-weight="bold" text-anchor="middle">
    Direkte Kostnader
  </text><text x="90" y="140" fill="#2c3e50" font-family="Arial, sans-serif" font-size="12">
    • Porto: 25 kr per faktura
  </text><text x="90" y="160" fill="#2c3e50" font-family="Arial, sans-serif" font-size="12">
    • Papir og printing: 3 kr per faktura
  </text><text x="90" y="180" fill="#2c3e50" font-family="Arial, sans-serif" font-size="12">
    • Konvolutter: 2 kr per faktura
  </text><text x="90" y="200" fill="#2c3e50" font-family="Arial, sans-serif" font-size="12">
    • Etiketter og frankering: 1 kr per faktura
  </text><rect width="280" height="20" x="90" y="210" fill="#d5f4e6" stroke="#27ae60" rx="3"/><text x="230" y="223" fill="#1e8449" font-family="Arial, sans-serif" font-size="11" font-weight="bold" text-anchor="middle">
    Sum direkte: 31 kr per faktura
  </text><rect width="320" height="140" x="410" y="100" fill="#fff5f5" stroke="#e74c3c" stroke-width="2" rx="8"/><text x="570" y="120" fill="#e74c3c" font-family="Arial, sans-serif" font-size="14" font-weight="bold" text-anchor="middle">
    Indirekte Kostnader
  </text><text x="430" y="140" fill="#2c3e50" font-family="Arial, sans-serif" font-size="12">
    • Personaltime: 20 kr per faktura
  </text><text x="430" y="160" fill="#2c3e50" font-family="Arial, sans-serif" font-size="12">
    • Systemkostnader: 5 kr per faktura
  </text><text x="430" y="180" fill="#2c3e50" font-family="Arial, sans-serif" font-size="12">
    • Lokalkostnader: 3 kr per faktura
  </text><text x="430" y="200" fill="#2c3e50" font-family="Arial, sans-serif" font-size="12">
    • Kapitalkostnader: 2 kr per faktura
  </text><rect width="280" height="20" x="430" y="210" fill="#fdeaea" stroke="#e74c3c" rx="3"/><text x="570" y="223" fill="#c0392b" font-family="Arial, sans-serif" font-size="11" font-weight="bold" text-anchor="middle">
    Sum indirekte: 30 kr per faktura
  </text><rect width="600" height="250" x="100" y="290" fill="#f8f9fa" stroke="#9b59b6" stroke-width="3" rx="10"/><text x="400" y="315" fill="#9b59b6" font-family="Arial, sans-serif" font-size="18" font-weight="bold" text-anchor="middle">
    Praktisk Beregningseksempel
  </text><rect width="560" height="180" x="120" y="330" fill="#fff" stroke="#95a5a6" stroke-width="2" rx="5"/><path fill="#ecf0f1" stroke="#95a5a6" d="M120 330h560v30H120z"/><text x="400" y="350" fill="#2c3e50" font-family="Arial, sans-serif" font-size="14" font-weight="bold" text-anchor="middle">
    Månedlige Kostnader for Papirfakturering (1000 fakturaer)
  </text><path stroke="#95a5a6" d="M120 360h560"/><text x="140" y="380" fill="#2c3e50" font-family="Arial, sans-serif" font-size="12">
    Porto (1000 × 25 kr):
  </text><text x="600" y="380" fill="#2c3e50" font-family="Arial, sans-serif" font-size="12" font-weight="bold" text-anchor="end">
    25 000 kr
  </text><text x="140" y="400" fill="#2c3e50" font-family="Arial, sans-serif" font-size="12">
    Papir og printing (1000 × 3 kr):
  </text><text x="600" y="400" fill="#2c3e50" font-family="Arial, sans-serif" font-size="12" font-weight="bold" text-anchor="end">
    3 000 kr
  </text><text x="140" y="420" fill="#2c3e50" font-family="Arial, sans-serif" font-size="12">
    Personaltime (50 timer × 400 kr):
  </text><text x="600" y="420" fill="#2c3e50" font-family="Arial, sans-serif" font-size="12" font-weight="bold" text-anchor="end">
    20 000 kr
  </text><text x="140" y="440" fill="#2c3e50" font-family="Arial, sans-serif" font-size="12">
    Systemkostnader (fast):
  </text><text x="600" y="440" fill="#2c3e50" font-family="Arial, sans-serif" font-size="12" font-weight="bold" text-anchor="end">
    5 000 kr
  </text><path stroke="#2c3e50" stroke-width="2" d="M140 450h520"/><text x="140" y="470" fill="#2c3e50" font-family="Arial, sans-serif" font-size="14" font-weight="bold">
    Total månedskostnad:
  </text><text x="600" y="470" fill="#e74c3c" font-family="Arial, sans-serif" font-size="14" font-weight="bold" text-anchor="end">
    53 000 kr
  </text><text x="140" y="490" fill="#2c3e50" font-family="Arial, sans-serif" font-size="14" font-weight="bold">
    Kostnad per faktura (53 000 ÷ 1000):
  </text><text x="600" y="490" fill="#27ae60" font-family="Arial, sans-serif" font-size="14" font-weight="bold" text-anchor="end">
    53 kr
  </text><rect width="500" height="40" x="150" y="520" fill="#d5f4e6" stroke="#27ae60" stroke-width="3" rx="8"/><text x="400" y="540" fill="#1e8449" font-family="Arial, sans-serif" font-size="16" font-weight="bold" text-anchor="middle">
    Anbefalt fakturagebyr: 50 kr (innenfor lovlige rammer)
  </text><text x="400" y="555" fill="#27ae60" font-family="Arial, sans-serif" font-size="11" text-anchor="middle">
    Basert på faktiske kostnader og forholdsmessighetsprinsippet
  </text><g transform="translate(720 350)"><rect width="60" height="80" fill="#3498db" stroke="#2980b9" stroke-width="3" rx="8"/><rect width="50" height="20" x="5" y="5" fill="#ecf0f1" stroke="#95a5a6" rx="3"/><circle cx="15" cy="40" r="5" fill="#fff"/><circle cx="30" cy="40" r="5" fill="#fff"/><circle cx="45" cy="40" r="5" fill="#fff"/><circle cx="15" cy="55" r="5" fill="#fff"/><circle cx="30" cy="55" r="5" fill="#fff"/><circle cx="45" cy="55" r="5" fill="#fff"/><circle cx="15" cy="70" r="5" fill="#fff"/><circle cx="30" cy="70" r="5" fill="#fff"/><circle cx="45" cy="70" r="5" fill="#27ae60"/><text x="30" y="18" fill="#2c3e50" font-family="Arial, sans-serif" font-size="8" text-anchor="middle">
      53
    </text></g><path fill="none" stroke="#27ae60" stroke-width="3" marker-end="url(#a)" d="m680 480-30 60"/><defs><marker id="a" markerHeight="7" markerWidth="10" orient="auto" refX="9" refY="3.5"><path fill="#27ae60" d="m0 0 10 3.5L0 7z"/></marker></defs></svg>