<svg xmlns="http://www.w3.org/2000/svg" width="800" height="600" viewBox="0 0 800 600"><path fill="#f8f9fa" d="M0 0h800v600H0z"/><text x="400" y="40" fill="#2c3e50" font-family="Arial, sans-serif" font-size="24" font-weight="bold" text-anchor="middle">
    ERP-systemer og Kostnadsstyring
  </text><circle cx="400" cy="200" r="80" fill="#1976d2" stroke="#0d47a1" stroke-width="3"/><text x="400" y="190" fill="#fff" font-family="Arial, sans-serif" font-size="16" font-weight="bold" text-anchor="middle">
    ERP
  </text><text x="400" y="210" fill="#fff" font-family="Arial, sans-serif" font-size="16" font-weight="bold" text-anchor="middle">
    SYSTEM
  </text><text x="400" y="225" fill="#fff" font-family="Arial, sans-serif" font-size="12" text-anchor="middle">
    Integrert styring
  </text><rect width="120" height="80" x="80" y="80" fill="#e3f2fd" stroke="#1976d2" stroke-width="2" rx="10"/><text x="140" y="110" fill="#1976d2" font-family="Arial, sans-serif" font-size="14" font-weight="bold" text-anchor="middle">
    INNKJØP
  </text><text x="140" y="130" fill="#1976d2" font-family="Arial, sans-serif" font-size="11" text-anchor="middle">
    • Bestillinger
  </text><text x="140" y="145" fill="#1976d2" font-family="Arial, sans-serif" font-size="11" text-anchor="middle">
    • Leverandører
  </text><rect width="120" height="80" x="600" y="80" fill="#e8f5e8" stroke="#4caf50" stroke-width="2" rx="10"/><text x="660" y="110" fill="#2e7d32" font-family="Arial, sans-serif" font-size="14" font-weight="bold" text-anchor="middle">
    LAGER
  </text><text x="660" y="130" fill="#2e7d32" font-family="Arial, sans-serif" font-size="11" text-anchor="middle">
    • Varemottak
  </text><text x="660" y="145" fill="#2e7d32" font-family="Arial, sans-serif" font-size="11" text-anchor="middle">
    • Lagerstyring
  </text><rect width="120" height="80" x="80" y="320" fill="#fff3e0" stroke="#ff9800" stroke-width="2" rx="10"/><text x="140" y="350" fill="#f57c00" font-family="Arial, sans-serif" font-size="14" font-weight="bold" text-anchor="middle">
    PRODUKSJON
  </text><text x="140" y="370" fill="#f57c00" font-family="Arial, sans-serif" font-size="11" text-anchor="middle">
    • Kostpris
  </text><text x="140" y="385" fill="#f57c00" font-family="Arial, sans-serif" font-size="11" text-anchor="middle">
    • Ressursbruk
  </text><rect width="120" height="80" x="600" y="320" fill="#fce4ec" stroke="#e91e63" stroke-width="2" rx="10"/><text x="660" y="350" fill="#c2185b" font-family="Arial, sans-serif" font-size="14" font-weight="bold" text-anchor="middle">
    REGNSKAP
  </text><text x="660" y="370" fill="#c2185b" font-family="Arial, sans-serif" font-size="11" text-anchor="middle">
    • Automatisk
  </text><text x="660" y="385" fill="#c2185b" font-family="Arial, sans-serif" font-size="11" text-anchor="middle">
    • Journalføring
  </text><path stroke="#666" stroke-width="2" d="m200 120 120 40M600 120l-120 40M200 360l120-120M600 360 480 240"/><rect width="700" height="130" x="50" y="450" fill="#f5f5f5" stroke="#757575" rx="10"/><text x="400" y="480" fill="#424242" font-family="Arial, sans-serif" font-size="18" font-weight="bold" text-anchor="middle">
    Fordeler med ERP for Kostnadsstyring
  </text><rect width="150" height="60" x="80" y="500" fill="#e1f5fe" stroke="#0277bd" rx="5"/><text x="155" y="520" fill="#0277bd" font-family="Arial, sans-serif" font-size="12" font-weight="bold" text-anchor="middle">
    SANNTIDSDATA
  </text><text x="155" y="535" fill="#0277bd" font-family="Arial, sans-serif" font-size="10" text-anchor="middle">
    Oppdaterte kostnader
  </text><text x="155" y="548" fill="#0277bd" font-family="Arial, sans-serif" font-size="10" text-anchor="middle">
    og lagerinformasjon
  </text><rect width="150" height="60" x="250" y="500" fill="#e8f5e8" stroke="#388e3c" rx="5"/><text x="325" y="520" fill="#388e3c" font-family="Arial, sans-serif" font-size="12" font-weight="bold" text-anchor="middle">
    AUTOMATISERING
  </text><text x="325" y="535" fill="#388e3c" font-family="Arial, sans-serif" font-size="10" text-anchor="middle">
    Reduserer manuelle
  </text><text x="325" y="548" fill="#388e3c" font-family="Arial, sans-serif" font-size="10" text-anchor="middle">
    feil og tidsbruk
  </text><rect width="150" height="60" x="420" y="500" fill="#fff3e0" stroke="#f57c00" rx="5"/><text x="495" y="520" fill="#f57c00" font-family="Arial, sans-serif" font-size="12" font-weight="bold" text-anchor="middle">
    INTEGRERING
  </text><text x="495" y="535" fill="#f57c00" font-family="Arial, sans-serif" font-size="10" text-anchor="middle">
    Kobler alle
  </text><text x="495" y="548" fill="#f57c00" font-family="Arial, sans-serif" font-size="10" text-anchor="middle">
    forretningsprosesser
  </text><rect width="150" height="60" x="590" y="500" fill="#fce4ec" stroke="#c2185b" rx="5"/><text x="665" y="520" fill="#c2185b" font-family="Arial, sans-serif" font-size="12" font-weight="bold" text-anchor="middle">
    RAPPORTERING
  </text><text x="665" y="535" fill="#c2185b" font-family="Arial, sans-serif" font-size="10" text-anchor="middle">
    Avanserte analyser
  </text><text x="665" y="548" fill="#c2185b" font-family="Arial, sans-serif" font-size="10" text-anchor="middle">
    og dashboards
  </text><path fill="none" stroke="#4caf50" stroke-width="2" marker-end="url(#a)" d="M320 180q40-20 80 0"/><path fill="none" stroke="#4caf50" stroke-width="2" marker-end="url(#b)" d="M480 180q-40-20-80 0"/><path fill="none" stroke="#4caf50" stroke-width="2" marker-end="url(#c)" d="M320 220q40 20 80 0"/><path fill="none" stroke="#4caf50" stroke-width="2" marker-end="url(#d)" d="M480 220q-40 20-80 0"/><text x="360" y="150" fill="#4caf50" font-family="Arial, sans-serif" font-size="9" font-weight="bold" text-anchor="middle">
    Innkjøpsdata
  </text><text x="440" y="150" fill="#4caf50" font-family="Arial, sans-serif" font-size="9" font-weight="bold" text-anchor="middle">
    Lagerdata
  </text><text x="360" y="250" fill="#4caf50" font-family="Arial, sans-serif" font-size="9" font-weight="bold" text-anchor="middle">
    Produksjonsdata
  </text><text x="440" y="250" fill="#4caf50" font-family="Arial, sans-serif" font-size="9" font-weight="bold" text-anchor="middle">
    Regnskapsdata
  </text><defs><marker id="a" markerHeight="6" markerWidth="8" orient="auto" refX="7" refY="3"><path fill="#4caf50" d="m0 0 8 3-8 3z"/></marker><marker id="b" markerHeight="6" markerWidth="8" orient="auto" refX="7" refY="3"><path fill="#4caf50" d="m0 0 8 3-8 3z"/></marker><marker id="c" markerHeight="6" markerWidth="8" orient="auto" refX="7" refY="3"><path fill="#4caf50" d="m0 0 8 3-8 3z"/></marker><marker id="d" markerHeight="6" markerWidth="8" orient="auto" refX="7" refY="3"><path fill="#4caf50" d="m0 0 8 3-8 3z"/></marker></defs></svg>