<svg width="800" height="500" viewBox="0 0 800 500" xmlns="http://www.w3.org/2000/svg">

  <rect width="800" height="500" fill="#f8f9fa"/>
  

  <text x="400" y="30" text-anchor="middle" fill="#2c3e50" font-family="Arial, sans-serif" font-size="24" font-weight="bold">Vedtektenes Hovedkomponenter</text>
  

  <rect x="300" y="60" width="200" height="280" fill="white" stroke="#3498db" stroke-width="3" rx="10"/>
  <rect x="300" y="60" width="200" height="40" fill="#3498db" rx="10 10 0 0"/>
  <text x="400" y="85" text-anchor="middle" fill="white" font-family="Arial, sans-serif" font-size="16" font-weight="bold">VEDTEKTER</text>
  

  <text x="50" y="120" fill="#e74c3c" font-family="Arial, sans-serif" font-size="18" font-weight="bold">Obligatoriske</text>
  

  <rect x="20" y="140" width="180" height="40" fill="#e74c3c" rx="5"/>
  <text x="110" y="165" text-anchor="middle" fill="white" font-family="Arial, sans-serif" font-size="14" font-weight="bold">Selskapets navn</text>
  <line x1="200" y1="160" x2="300" y2="160" stroke="#e74c3c" stroke-width="2"/>
  

  <rect x="20" y="190" width="180" height="40" fill="#e74c3c" rx="5"/>
  <text x="110" y="215" text-anchor="middle" fill="white" font-family="Arial, sans-serif" font-size="14" font-weight="bold">Forretningsadresse</text>
  <line x1="200" y1="210" x2="300" y2="200" stroke="#e74c3c" stroke-width="2"/>
  

  <rect x="20" y="240" width="180" height="40" fill="#e74c3c" rx="5"/>
  <text x="110" y="265" text-anchor="middle" fill="white" font-family="Arial, sans-serif" font-size="14" font-weight="bold">Virksomhetens art</text>
  <line x1="200" y1="260" x2="300" y2="240" stroke="#e74c3c" stroke-width="2"/>
  

  <rect x="20" y="290" width="180" height="40" fill="#e74c3c" rx="5"/>
  <text x="110" y="315" text-anchor="middle" fill="white" font-family="Arial, sans-serif" font-size="14" font-weight="bold">Aksjekapital</text>
  <line x1="200" y1="310" x2="300" y2="280" stroke="#e74c3c" stroke-width="2"/>
  

  <text x="650" y="120" fill="#27ae60" font-family="Arial, sans-serif" font-size="18" font-weight="bold">Fakultative</text>
  

  <rect x="600" y="140" width="180" height="40" fill="#27ae60" rx="5"/>
  <text x="690" y="165" text-anchor="middle" fill="white" font-family="Arial, sans-serif" font-size="14" font-weight="bold">Styrets sammensetning</text>
  <line x1="600" y1="160" x2="500" y2="160" stroke="#27ae60" stroke-width="2"/>
  

  <rect x="600" y="190" width="180" height="40" fill="#27ae60" rx="5"/>
  <text x="690" y="215" text-anchor="middle" fill="white" font-family="Arial, sans-serif" font-size="14" font-weight="bold">Generalforsamling</text>
  <line x1="600" y1="210" x2="500" y2="200" stroke="#27ae60" stroke-width="2"/>
  

  <rect x="600" y="240" width="180" height="40" fill="#27ae60" rx="5"/>
  <text x="690" y="265" text-anchor="middle" fill="white" font-family="Arial, sans-serif" font-size="14" font-weight="bold">Aksjeomsettbarhet</text>
  <line x1="600" y1="260" x2="500" y2="240" stroke="#27ae60" stroke-width="2"/>
  

  <rect x="600" y="290" width="180" height="40" fill="#27ae60" rx="5"/>
  <text x="690" y="315" text-anchor="middle" fill="white" font-family="Arial, sans-serif" font-size="14" font-weight="bold">Utbyttepolitikk</text>
  <line x1="600" y1="310" x2="500" y2="280" stroke="#27ae60" stroke-width="2"/>
  

  <rect x="50" y="370" width="200" height="80" fill="#f39c12" stroke="#e67e22" stroke-width="2" rx="8"/>
  <text x="150" y="395" text-anchor="middle" fill="white" font-family="Arial, sans-serif" font-size="14" font-weight="bold">Aksjeloven § 2-2</text>
  <text x="150" y="415" text-anchor="middle" fill="white" font-family="Arial, sans-serif" font-size="12">Lovpålagte</text>
  <text x="150" y="430" text-anchor="middle" fill="white" font-family="Arial, sans-serif" font-size="12">minimumskrav</text>
  

  <rect x="550" y="370" width="200" height="80" fill="#9b59b6" stroke="#8e44ad" stroke-width="2" rx="8"/>
  <text x="650" y="395" text-anchor="middle" fill="white" font-family="Arial, sans-serif" font-size="14" font-weight="bold">Foretaksregisteret</text>
  <text x="650" y="415" text-anchor="middle" fill="white" font-family="Arial, sans-serif" font-size="12">Offentlig</text>
  <text x="650" y="430" text-anchor="middle" fill="white" font-family="Arial, sans-serif" font-size="12">tilgjengelig</text>
  

  <path d="M 250 410 Q 300 380 350 360" fill="none" stroke="#f39c12" stroke-width="2" marker-end="url(#arrowhead1)"/>
  <path d="M 550 410 Q 500 380 450 360" fill="none" stroke="#9b59b6" stroke-width="2" marker-end="url(#arrowhead2)"/>
  

  <defs>
    <marker id="arrowhead1" markerWidth="10" markerHeight="7" refX="10" refY="3.5" orient="auto">
      <polygon points="0 0, 10 3.5, 0 7" fill="#f39c12"/>
    </marker>
    <marker id="arrowhead2" markerWidth="10" markerHeight="7" refX="10" refY="3.5" orient="auto">
      <polygon points="0 0, 10 3.5, 0 7" fill="#9b59b6"/>
    </marker>
  </defs>
</svg>