<svg xmlns="http://www.w3.org/2000/svg" width="800" height="500" viewBox="0 0 800 500"><path fill="#f8f9fa" d="M0 0h800v500H0z"/><text x="400" y="30" fill="#2c3e50" font-family="Arial, sans-serif" font-size="24" font-weight="bold" text-anchor="middle">Vedtektenes Påvirkning på Kapitalstruktur</text><rect width="200" height="150" x="300" y="80" fill="#fff" stroke="#3498db" stroke-width="3" rx="8"/><rect width="200" height="30" x="300" y="80" fill="#3498db" rx="8 8 0 0"/><text x="400" y="100" fill="#fff" font-family="Arial, sans-serif" font-size="14" font-weight="bold" text-anchor="middle">VEDTEKTER</text><text x="400" y="130" fill="#2c3e50" font-family="Arial, sans-serif" font-size="12" text-anchor="middle">Kapitalbestemmelser</text><path stroke="#bdc3c7" d="M320 145h160"/><text x="320" y="165" fill="#34495e" font-family="Arial, sans-serif" font-size="10">• Aksjekapital: 100.000 kr</text><text x="320" y="180" fill="#34495e" font-family="Arial, sans-serif" font-size="10">• 1000 aksjer à 100 kr</text><text x="320" y="195" fill="#34495e" font-family="Arial, sans-serif" font-size="10">• Pålydende verdi</text><text x="320" y="210" fill="#34495e" font-family="Arial, sans-serif" font-size="10">• Forkjøpsretter</text><rect width="150" height="80" x="80" y="120" fill="#e74c3c" stroke="#c0392b" stroke-width="2" rx="5"/><text x="155" y="145" fill="#fff" font-family="Arial, sans-serif" font-size="14" font-weight="bold" text-anchor="middle">AKSJEKAPITAL</text><text x="155" y="165" fill="#fff" font-family="Arial, sans-serif" font-size="12" text-anchor="middle">100.000 kr</text><text x="155" y="185" fill="#fff" font-family="Arial, sans-serif" font-size="10" text-anchor="middle">Bunden egenkapital</text><rect width="150" height="80" x="570" y="120" fill="#27ae60" stroke="#229954" stroke-width="2" rx="5"/><text x="645" y="145" fill="#fff" font-family="Arial, sans-serif" font-size="14" font-weight="bold" text-anchor="middle">AKSJEPREMIE</text><text x="645" y="165" fill="#fff" font-family="Arial, sans-serif" font-size="12" text-anchor="middle">50.000 kr</text><text x="645" y="185" fill="#fff" font-family="Arial, sans-serif" font-size="10" text-anchor="middle">Fri egenkapital</text><rect width="500" height="160" x="150" y="280" fill="#fff" stroke="#34495e" stroke-width="2" rx="8"/><text x="400" y="305" fill="#2c3e50" font-family="Arial, sans-serif" font-size="16" font-weight="bold" text-anchor="middle">BALANSE - EGENKAPITAL</text><path fill="#e74c3c" d="M170 320h200v40H170z"/><text x="270" y="345" fill="#fff" font-family="Arial, sans-serif" font-size="12" font-weight="bold" text-anchor="middle">Aksjekapital: 100.000</text><path fill="#27ae60" d="M170 360h200v40H170z"/><text x="270" y="385" fill="#fff" font-family="Arial, sans-serif" font-size="12" font-weight="bold" text-anchor="middle">Aksjepremie: 50.000</text><path fill="#f39c12" d="M170 400h200v30H170z"/><text x="270" y="420" fill="#fff" font-family="Arial, sans-serif" font-size="12" font-weight="bold" text-anchor="middle">Opptjent egenkapital</text><path fill="#9b59b6" d="M430 320h200v110H430z"/><text x="530" y="345" fill="#fff" font-family="Arial, sans-serif" font-size="14" font-weight="bold" text-anchor="middle">TOTAL EGENKAPITAL</text><text x="530" y="375" fill="#fff" font-family="Arial, sans-serif" font-size="20" font-weight="bold" text-anchor="middle">150.000 + X</text><text x="530" y="400" fill="#fff" font-family="Arial, sans-serif" font-size="10" text-anchor="middle">X = Opptjent kapital</text><text x="530" y="415" fill="#fff" font-family="Arial, sans-serif" font-size="10" text-anchor="middle">(Resultat og annen kapital)</text><path fill="none" stroke="#e74c3c" stroke-width="2" marker-end="url(#a)" d="M230 160h70"/><path fill="none" stroke="#27ae60" stroke-width="2" marker-end="url(#b)" d="M500 160h70"/><path fill="none" stroke="#e74c3c" stroke-width="2" marker-end="url(#a)" d="M270 200v80"/><path fill="none" stroke="#27ae60" stroke-width="2" marker-end="url(#b)" d="M530 200v80"/><rect width="100" height="100" x="50" y="350" fill="#f39c12" stroke="#e67e22" stroke-width="2" rx="5"/><text x="100" y="375" fill="#fff" font-family="Arial, sans-serif" font-size="12" font-weight="bold" text-anchor="middle">Begrensninger</text><text x="100" y="395" fill="#fff" font-family="Arial, sans-serif" font-size="10" text-anchor="middle">Utbytte kan ikke</text><text x="100" y="410" fill="#fff" font-family="Arial, sans-serif" font-size="10" text-anchor="middle">redusere bunden</text><text x="100" y="425" fill="#fff" font-family="Arial, sans-serif" font-size="10" text-anchor="middle">egenkapital</text><text x="100" y="440" fill="#fff" font-family="Arial, sans-serif" font-size="10" text-anchor="middle">under 100.000 kr</text><rect width="100" height="100" x="650" y="350" fill="#9b59b6" stroke="#8e44ad" stroke-width="2" rx="5"/><text x="700" y="375" fill="#fff" font-family="Arial, sans-serif" font-size="12" font-weight="bold" text-anchor="middle">Rettigheter</text><text x="700" y="395" fill="#fff" font-family="Arial, sans-serif" font-size="10" text-anchor="middle">Stemmerett</text><text x="700" y="410" fill="#fff" font-family="Arial, sans-serif" font-size="10" text-anchor="middle">Utbytterett</text><text x="700" y="425" fill="#fff" font-family="Arial, sans-serif" font-size="10" text-anchor="middle">Likvidasjonsrett</text><text x="700" y="440" fill="#fff" font-family="Arial, sans-serif" font-size="10" text-anchor="middle">som definert i vedtekter</text><defs><marker id="a" markerHeight="7" markerWidth="10" orient="auto" refX="10" refY="3.5"><path fill="#e74c3c" d="m0 0 10 3.5L0 7z"/></marker><marker id="b" markerHeight="7" markerWidth="10" orient="auto" refX="10" refY="3.5"><path fill="#27ae60" d="m0 0 10 3.5L0 7z"/></marker></defs></svg>