<svg xmlns="http://www.w3.org/2000/svg" width="800" height="500"><defs><linearGradient id="a" x1="0%" x2="100%" y1="0%" y2="100%"><stop offset="0%" style="stop-color:#3b82f6;stop-opacity:1"/><stop offset="100%" style="stop-color:#1d4ed8;stop-opacity:1"/></linearGradient><linearGradient id="b" x1="0%" x2="0%" y1="0%" y2="100%"><stop offset="0%" style="stop-color:#10b981;stop-opacity:1"/><stop offset="100%" style="stop-color:#059669;stop-opacity:1"/></linearGradient></defs><path fill="#f8fafc" d="M0 0h800v500H0z"/><text x="400" y="30" fill="#1e293b" font-family="Arial, sans-serif" font-size="24" font-weight="bold" text-anchor="middle">Formål og Funksjoner ved Kontoplan</text><circle cx="400" cy="250" r="80" fill="url(#a)" stroke="#1e40af" stroke-width="3"/><text x="400" y="245" fill="#fff" font-family="Arial, sans-serif" font-size="16" font-weight="bold" text-anchor="middle">KONTOPLAN</text><text x="400" y="265" fill="#fff" font-family="Arial, sans-serif" font-size="12" text-anchor="middle">Systematisk</text><text x="400" y="280" fill="#fff" font-family="Arial, sans-serif" font-size="12" text-anchor="middle">Register</text><rect width="160" height="60" x="320" y="80" fill="url(#b)" stroke="#047857" stroke-width="2" rx="8"/><text x="400" y="105" fill="#fff" font-family="Arial, sans-serif" font-size="14" font-weight="bold" text-anchor="middle">Systematisering</text><text x="400" y="125" fill="#fff" font-family="Arial, sans-serif" font-size="11" text-anchor="middle">Organiserer alle</text><text x="400" y="138" fill="#fff" font-family="Arial, sans-serif" font-size="11" text-anchor="middle">transaksjoner</text><rect width="160" height="60" x="550" y="120" fill="url(#b)" stroke="#047857" stroke-width="2" rx="8"/><text x="630" y="145" fill="#fff" font-family="Arial, sans-serif" font-size="14" font-weight="bold" text-anchor="middle">Standardisering</text><text x="630" y="165" fill="#fff" font-family="Arial, sans-serif" font-size="11" text-anchor="middle">Ensartet</text><text x="630" y="178" fill="#fff" font-family="Arial, sans-serif" font-size="11" text-anchor="middle">regnskapsføring</text><rect width="160" height="60" x="550" y="320" fill="url(#b)" stroke="#047857" stroke-width="2" rx="8"/><text x="630" y="345" fill="#fff" font-family="Arial, sans-serif" font-size="14" font-weight="bold" text-anchor="middle">Sammenlignbarhet</text><text x="630" y="365" fill="#fff" font-family="Arial, sans-serif" font-size="11" text-anchor="middle">Mellom perioder</text><text x="630" y="378" fill="#fff" font-family="Arial, sans-serif" font-size="11" text-anchor="middle">og selskaper</text><rect width="160" height="60" x="320" y="400" fill="url(#b)" stroke="#047857" stroke-width="2" rx="8"/><text x="400" y="425" fill="#fff" font-family="Arial, sans-serif" font-size="14" font-weight="bold" text-anchor="middle">Rapportering</text><text x="400" y="445" fill="#fff" font-family="Arial, sans-serif" font-size="11" text-anchor="middle">Til offentlige</text><text x="400" y="458" fill="#fff" font-family="Arial, sans-serif" font-size="11" text-anchor="middle">myndigheter</text><rect width="160" height="60" x="90" y="320" fill="url(#b)" stroke="#047857" stroke-width="2" rx="8"/><text x="170" y="345" fill="#fff" font-family="Arial, sans-serif" font-size="14" font-weight="bold" text-anchor="middle">Intern Styring</text><text x="170" y="365" fill="#fff" font-family="Arial, sans-serif" font-size="11" text-anchor="middle">Kontroll av</text><text x="170" y="378" fill="#fff" font-family="Arial, sans-serif" font-size="11" text-anchor="middle">virksomheten</text><path stroke="#64748b" stroke-width="2" marker-end="url(#c)" d="M400 170v-30"/><path stroke="#64748b" stroke-width="2" marker-end="url(#c)" d="m460 200 110-40"/><path stroke="#64748b" stroke-width="2" marker-end="url(#c)" d="m460 300 110 40"/><path stroke="#64748b" stroke-width="2" marker-end="url(#c)" d="M400 330v70"/><path stroke="#64748b" stroke-width="2" marker-end="url(#c)" d="m340 300-110 40"/><defs><marker id="c" markerHeight="7" markerWidth="10" orient="auto" refX="9" refY="3.5"><path fill="#64748b" d="m0 0 10 3.5L0 7z"/></marker></defs></svg>