<svg xmlns="http://www.w3.org/2000/svg" width="800" height="700"><defs><linearGradient id="a" x1="0%" x2="100%" y1="0%" y2="100%"><stop offset="0%" style="stop-color:#f8f9fa;stop-opacity:1"/><stop offset="100%" style="stop-color:#e9ecef;stop-opacity:1"/></linearGradient><linearGradient id="b" x1="0%" x2="100%" y1="0%" y2="0%"><stop offset="0%" style="stop-color:#06c;stop-opacity:1"/><stop offset="100%" style="stop-color:#049;stop-opacity:1"/></linearGradient></defs><path fill="url(#a)" stroke="#dee2e6" stroke-width="2" d="M0 0h800v700H0z"/><path fill="url(#b)" d="M0 0h800v60H0z"/><text x="400" y="40" fill="#fff" font-family="Arial, sans-serif" font-size="28" font-weight="bold" text-anchor="middle">
    Praktiske Eksempler på Godtgjørelser
  </text><rect width="700" height="180" x="50" y="90" fill="#fff" stroke="#28a745" stroke-width="2" rx="10"/><rect width="700" height="40" x="50" y="90" fill="#28a745" rx="10"/><path fill="#28a745" d="M50 120h700v10H50z"/><text x="400" y="115" fill="#fff" font-family="Arial, sans-serif" font-size="18" font-weight="bold" text-anchor="middle">
    Eksempel 1: Tjenestereise til Bergen
  </text><circle cx="100" cy="170" r="25" fill="#28a745" stroke="#1e7e34" stroke-width="2"/><path stroke="#fff" stroke-width="2" d="M85 165h30m-25-5h20m-20 15h20M100 180v10"/><text x="150" y="155" fill="#495057" font-family="Arial, sans-serif" font-size="14" font-weight="bold">Utgifter:</text><text x="150" y="175" fill="#6c757d" font-family="Arial, sans-serif" font-size="12">• Fly Oslo-Bergen t/r: kr 2,400</text><text x="150" y="190" fill="#6c757d" font-family="Arial, sans-serif" font-size="12">• Hotell (2 netter): kr 1,800</text><text x="150" y="205" fill="#6c757d" font-family="Arial, sans-serif" font-size="12">• Måltider: kr 800</text><text x="150" y="220" fill="#6c757d" font-family="Arial, sans-serif" font-size="12">• Taxi til/fra flyplass: kr 600</text><rect width="280" height="110" x="450" y="145" fill="#f8f9fa" stroke="#dee2e6" rx="5"/><text x="590" y="165" fill="#495057" font-family="Arial, sans-serif" font-size="14" font-weight="bold" text-anchor="middle">Bokføring:</text><text x="470" y="185" fill="#495057" font-family="Arial, sans-serif" font-size="12">Debet: Reisekostnader</text><text x="650" y="185" fill="#495057" font-family="Arial, sans-serif" font-size="12">kr 5,600</text><text x="470" y="200" fill="#495057" font-family="Arial, sans-serif" font-size="12">Kredit: Bank/Kasse</text><text x="650" y="200" fill="#495057" font-family="Arial, sans-serif" font-size="12">kr 5,600</text><path stroke="#dee2e6" d="M470 210h240"/><text x="470" y="230" fill="#28a745" font-family="Arial, sans-serif" font-size="12" font-weight="bold">Status: Skattefri (dokumentert)</text><text x="470" y="245" fill="#6c757d" font-family="Arial, sans-serif" font-size="11">Alle kvitteringer vedlagt</text><rect width="700" height="180" x="50" y="290" fill="#fff" stroke="#17a2b8" stroke-width="2" rx="10"/><rect width="700" height="40" x="50" y="290" fill="#17a2b8" rx="10"/><path fill="#17a2b8" d="M50 320h700v10H50z"/><text x="400" y="315" fill="#fff" font-family="Arial, sans-serif" font-size="18" font-weight="bold" text-anchor="middle">
    Eksempel 2: Kjøregodtgjørelse
  </text><rect width="50" height="25" x="75" y="355" fill="#17a2b8" stroke="#138496" stroke-width="2" rx="8"/><circle cx="90" cy="385" r="10" fill="#495057"/><circle cx="110" cy="385" r="10" fill="#495057"/><text x="100" y="370" fill="#fff" font-family="Arial, sans-serif" font-size="10" font-weight="bold" text-anchor="middle">KM</text><text x="150" y="355" fill="#495057" font-family="Arial, sans-serif" font-size="14" font-weight="bold">Månedlig kjøring:</text><text x="150" y="375" fill="#6c757d" font-family="Arial, sans-serif" font-size="12">• Totalt: 1,200 km</text><text x="150" y="390" fill="#6c757d" font-family="Arial, sans-serif" font-size="12">• Standardsats: kr 4,35/km</text><text x="150" y="405" fill="#6c757d" font-family="Arial, sans-serif" font-size="12">• Beregning: 1,200 × 4,35</text><text x="150" y="420" fill="#17a2b8" font-family="Arial, sans-serif" font-size="12" font-weight="bold">• Total godtgjørelse: kr 5,220</text><rect width="280" height="110" x="450" y="345" fill="#f8f9fa" stroke="#dee2e6" rx="5"/><text x="590" y="365" fill="#495057" font-family="Arial, sans-serif" font-size="14" font-weight="bold" text-anchor="middle">Bokføring:</text><text x="470" y="385" fill="#495057" font-family="Arial, sans-serif" font-size="12">Debet: Transportkostnader</text><text x="650" y="385" fill="#495057" font-family="Arial, sans-serif" font-size="12">kr 5,220</text><text x="470" y="400" fill="#495057" font-family="Arial, sans-serif" font-size="12">Kredit: Lønn til utbetaling</text><text x="650" y="400" fill="#495057" font-family="Arial, sans-serif" font-size="12">kr 5,220</text><path stroke="#dee2e6" d="M470 410h240"/><text x="470" y="430" fill="#28a745" font-family="Arial, sans-serif" font-size="12" font-weight="bold">Status: Skattefri (standardsats)</text><text x="470" y="445" fill="#6c757d" font-family="Arial, sans-serif" font-size="11">Kjørebok som dokumentasjon</text><rect width="700" height="180" x="50" y="490" fill="#fff" stroke="#6f42c1" stroke-width="2" rx="10"/><rect width="700" height="40" x="50" y="490" fill="#6f42c1" rx="10"/><path fill="#6f42c1" d="M50 520h700v10H50z"/><text x="400" y="515" fill="#fff" font-family="Arial, sans-serif" font-size="18" font-weight="bold" text-anchor="middle">
    Eksempel 3: Hjemmekontor-godtgjørelse
  </text><rect width="50" height="35" x="75" y="555" fill="#6f42c1" stroke="#5a2d91" stroke-width="2" rx="5"/><path fill="#fff" d="M80 560h15v10H80zM100 560h15v10h-15zM80 575h35v10H80z"/><circle cx="100" cy="600" r="8" fill="#6f42c1" stroke="#5a2d91" stroke-width="2"/><text x="100" y="605" fill="#fff" font-family="Arial, sans-serif" font-size="8" font-weight="bold" text-anchor="middle">PC</text><text x="150" y="555" fill="#495057" font-family="Arial, sans-serif" font-size="14" font-weight="bold">Månedlige merkostnader:</text><text x="150" y="575" fill="#6c757d" font-family="Arial, sans-serif" font-size="12">• Økt strømforbruk: kr 300</text><text x="150" y="590" fill="#6c757d" font-family="Arial, sans-serif" font-size="12">• Internett (50% forretning): kr 200</text><text x="150" y="605" fill="#6c757d" font-family="Arial, sans-serif" font-size="12">• Kontorrekvisita: kr 150</text><text x="150" y="620" fill="#6f42c1" font-family="Arial, sans-serif" font-size="12" font-weight="bold">• Total per måned: kr 650</text><rect width="280" height="110" x="450" y="545" fill="#f8f9fa" stroke="#dee2e6" rx="5"/><text x="590" y="565" fill="#495057" font-family="Arial, sans-serif" font-size="14" font-weight="bold" text-anchor="middle">Bokføring:</text><text x="470" y="585" fill="#495057" font-family="Arial, sans-serif" font-size="12">Debet: Kontorkostnader</text><text x="650" y="585" fill="#495057" font-family="Arial, sans-serif" font-size="12">kr 650</text><text x="470" y="600" fill="#495057" font-family="Arial, sans-serif" font-size="12">Kredit: Lønn til utbetaling</text><text x="650" y="600" fill="#495057" font-family="Arial, sans-serif" font-size="12">kr 650</text><path stroke="#dee2e6" d="M470 610h240"/><text x="470" y="630" fill="#ffc107" font-family="Arial, sans-serif" font-size="12" font-weight="bold">Status: Krever dokumentasjon</text><text x="470" y="645" fill="#6c757d" font-family="Arial, sans-serif" font-size="11">Strømregning og internettfaktura</text></svg>