<svg xmlns="http://www.w3.org/2000/svg" width="800" height="500"><defs><linearGradient id="a" x1="0%" x2="100%" y1="0%" y2="100%"><stop offset="0%" style="stop-color:#f8f9fa;stop-opacity:1"/><stop offset="100%" style="stop-color:#e9ecef;stop-opacity:1"/></linearGradient><linearGradient id="b" x1="0%" x2="100%" y1="0%" y2="0%"><stop offset="0%" style="stop-color:#06c;stop-opacity:1"/><stop offset="100%" style="stop-color:#049;stop-opacity:1"/></linearGradient></defs><path fill="url(#a)" stroke="#dee2e6" stroke-width="2" d="M0 0h800v500H0z"/><path fill="url(#b)" d="M0 0h800v60H0z"/><text x="400" y="40" fill="#fff" font-family="Arial, sans-serif" font-size="28" font-weight="bold" text-anchor="middle">
    Oversikt over Godtgjørelsestyper
  </text><rect width="320" height="160" x="50" y="100" fill="#fff" stroke="#28a745" stroke-width="2" rx="10"/><rect width="320" height="40" x="50" y="100" fill="#28a745" rx="10"/><path fill="#28a745" d="M50 130h320v10H50z"/><text x="210" y="125" fill="#fff" font-family="Arial, sans-serif" font-size="18" font-weight="bold" text-anchor="middle">
    Reisegodtgjørelse
  </text><circle cx="100" cy="180" r="20" fill="#28a745" stroke="#1e7e34" stroke-width="2"/><path stroke="#fff" stroke-width="2" d="M90 175h20m-15-5h10m-10 15h10"/><text x="140" y="165" fill="#495057" font-family="Arial, sans-serif" font-size="14" font-weight="bold">Inkluderer:</text><text x="140" y="185" fill="#6c757d" font-family="Arial, sans-serif" font-size="12">• Transport (fly, tog, bil)</text><text x="140" y="200" fill="#6c757d" font-family="Arial, sans-serif" font-size="12">• Overnatting</text><text x="140" y="215" fill="#6c757d" font-family="Arial, sans-serif" font-size="12">• Måltider</text><text x="140" y="230" fill="#6c757d" font-family="Arial, sans-serif" font-size="12">• Diverse utgifter</text><rect width="320" height="160" x="430" y="100" fill="#fff" stroke="#17a2b8" stroke-width="2" rx="10"/><rect width="320" height="40" x="430" y="100" fill="#17a2b8" rx="10"/><path fill="#17a2b8" d="M430 130h320v10H430z"/><text x="590" y="125" fill="#fff" font-family="Arial, sans-serif" font-size="18" font-weight="bold" text-anchor="middle">
    Kjøregodtgjørelse
  </text><rect width="40" height="20" x="470" y="165" fill="#17a2b8" stroke="#138496" stroke-width="2" rx="5"/><circle cx="480" cy="190" r="8" fill="#495057"/><circle cx="500" cy="190" r="8" fill="#495057"/><text x="520" y="165" fill="#495057" font-family="Arial, sans-serif" font-size="14" font-weight="bold">Basert på:</text><text x="520" y="185" fill="#6c757d" font-family="Arial, sans-serif" font-size="12">• Antall kilometer</text><text x="520" y="200" fill="#6c757d" font-family="Arial, sans-serif" font-size="12">• Standardsats: kr 4,35/km</text><text x="520" y="215" fill="#6c757d" font-family="Arial, sans-serif" font-size="12">• Dekker alle bilkostnader</text><text x="520" y="230" fill="#6c757d" font-family="Arial, sans-serif" font-size="12">• Egen bil i tjenesten</text><rect width="320" height="160" x="50" y="300" fill="#fff" stroke="#ffc107" stroke-width="2" rx="10"/><rect width="320" height="40" x="50" y="300" fill="#ffc107" rx="10"/><path fill="#ffc107" d="M50 330h320v10H50z"/><text x="210" y="325" fill="#495057" font-family="Arial, sans-serif" font-size="18" font-weight="bold" text-anchor="middle">
    Telefon/Internet
  </text><rect width="30" height="40" x="85" y="365" fill="#ffc107" stroke="#e0a800" stroke-width="2" rx="8"/><rect width="20" height="15" x="90" y="370" fill="#fff" rx="2"/><circle cx="100" cy="395" r="3" fill="#fff"/><text x="140" y="365" fill="#495057" font-family="Arial, sans-serif" font-size="14" font-weight="bold">Dekker:</text><text x="140" y="385" fill="#6c757d" font-family="Arial, sans-serif" font-size="12">• Forretningssamtaler</text><text x="140" y="400" fill="#6c757d" font-family="Arial, sans-serif" font-size="12">• Internett til hjemmekontor</text><text x="140" y="415" fill="#6c757d" font-family="Arial, sans-serif" font-size="12">• Dokumentert bruk</text><text x="140" y="430" fill="#6c757d" font-family="Arial, sans-serif" font-size="12">• Rimelige anslag</text><rect width="320" height="160" x="430" y="300" fill="#fff" stroke="#6f42c1" stroke-width="2" rx="10"/><rect width="320" height="40" x="430" y="300" fill="#6f42c1" rx="10"/><path fill="#6f42c1" d="M430 330h320v10H430z"/><text x="590" y="325" fill="#fff" font-family="Arial, sans-serif" font-size="18" font-weight="bold" text-anchor="middle">
    Hjemmekontor
  </text><rect width="40" height="30" x="470" y="365" fill="#6f42c1" stroke="#5a2d91" stroke-width="2" rx="3"/><path fill="#fff" d="M475 370h12v8h-12zM493 370h12v8h-12zM475 382h30v8h-30z"/><text x="520" y="365" fill="#495057" font-family="Arial, sans-serif" font-size="14" font-weight="bold">Omfatter:</text><text x="520" y="385" fill="#6c757d" font-family="Arial, sans-serif" font-size="12">• Økte strømkostnader</text><text x="520" y="400" fill="#6c757d" font-family="Arial, sans-serif" font-size="12">• Kontorrekvisita</text><text x="520" y="415" fill="#6c757d" font-family="Arial, sans-serif" font-size="12">• Ergonomisk utstyr</text><text x="520" y="430" fill="#6c757d" font-family="Arial, sans-serif" font-size="12">• IT-utstyr</text></svg>