<svg xmlns="http://www.w3.org/2000/svg" width="800" height="400"><defs><linearGradient id="a" x1="0%" x2="100%" y1="0%" y2="100%"><stop offset="0%" style="stop-color:#f8f9fa;stop-opacity:1"/><stop offset="100%" style="stop-color:#e9ecef;stop-opacity:1"/></linearGradient><linearGradient id="b" x1="0%" x2="100%" y1="0%" y2="0%"><stop offset="0%" style="stop-color:#06c;stop-opacity:1"/><stop offset="100%" style="stop-color:#049;stop-opacity:1"/></linearGradient></defs><path fill="url(#a)" stroke="#dee2e6" stroke-width="2" d="M0 0h800v400H0z"/><path fill="url(#b)" d="M0 0h800v80H0z"/><text x="400" y="50" fill="#fff" font-family="Arial, sans-serif" font-size="32" font-weight="bold" text-anchor="middle">
    Hva er godtgjørelse (regnskap)?
  </text><rect width="700" height="240" x="50" y="120" fill="#fff" stroke="#dee2e6" rx="10"/><circle cx="150" cy="180" r="25" fill="#28a745" stroke="#1e7e34" stroke-width="2"/><text x="150" y="188" fill="#fff" font-family="Arial, sans-serif" font-size="24" font-weight="bold" text-anchor="middle">kr</text><rect width="30" height="40" x="225" y="155" fill="#6c757d" stroke="#495057" rx="3"/><path fill="#fff" d="M230 160h20v2h-20zM230 165h15v2h-15zM230 170h18v2h-18zM230 175h12v2h-12z"/><path fill="none" stroke="#06c" stroke-width="3" marker-end="url(#c)" d="M280 175h40"/><defs><marker id="c" markerHeight="7" markerWidth="10" orient="auto" refX="9" refY="3.5"><path fill="#06c" d="m0 0 10 3.5L0 7z"/></marker></defs><circle cx="375" cy="180" r="25" fill="#17a2b8" stroke="#138496" stroke-width="2"/><text x="375" y="188" fill="#fff" font-family="Arial, sans-serif" font-size="16" font-weight="bold" text-anchor="middle">REF</text><text x="100" y="240" fill="#495057" font-family="Arial, sans-serif" font-size="16" font-weight="bold">
    Refusjon av utgifter
  </text><text x="100" y="260" fill="#6c757d" font-family="Arial, sans-serif" font-size="14">
    • Reisekostnader
  </text><text x="100" y="280" fill="#6c757d" font-family="Arial, sans-serif" font-size="14">
    • Kjøregodtgjørelse
  </text><text x="100" y="300" fill="#6c757d" font-family="Arial, sans-serif" font-size="14">
    • Hjemmekontor
  </text><text x="300" y="240" fill="#495057" font-family="Arial, sans-serif" font-size="16" font-weight="bold">
    Dokumentasjon
  </text><text x="300" y="260" fill="#6c757d" font-family="Arial, sans-serif" font-size="14">
    • Kvitteringer
  </text><text x="300" y="280" fill="#6c757d" font-family="Arial, sans-serif" font-size="14">
    • Utleggsrapport
  </text><text x="300" y="300" fill="#6c757d" font-family="Arial, sans-serif" font-size="14">
    • Godkjenning
  </text><text x="500" y="240" fill="#495057" font-family="Arial, sans-serif" font-size="16" font-weight="bold">
    Skattemessig
  </text><text x="500" y="260" fill="#6c757d" font-family="Arial, sans-serif" font-size="14">
    • Skattefri ved dokumentasjon
  </text><text x="500" y="280" fill="#6c757d" font-family="Arial, sans-serif" font-size="14">
    • Standardsatser
  </text><text x="500" y="300" fill="#6c757d" font-family="Arial, sans-serif" font-size="14">
    • Rimelighetsprinsipp
  </text></svg>