<svg xmlns="http://www.w3.org/2000/svg" width="800" height="450"><defs><linearGradient id="a" x1="0%" x2="100%" y1="0%" y2="100%"><stop offset="0%" style="stop-color:#f8f9fa;stop-opacity:1"/><stop offset="100%" style="stop-color:#e9ecef;stop-opacity:1"/></linearGradient><linearGradient id="b" x1="0%" x2="100%" y1="0%" y2="0%"><stop offset="0%" style="stop-color:#28a745;stop-opacity:1"/><stop offset="100%" style="stop-color:#20c997;stop-opacity:1"/></linearGradient><linearGradient id="f" x1="0%" x2="100%" y1="0%" y2="0%"><stop offset="0%" style="stop-color:#007bff;stop-opacity:1"/><stop offset="100%" style="stop-color:#6610f2;stop-opacity:1"/></linearGradient><linearGradient id="d" x1="0%" x2="100%" y1="0%" y2="0%"><stop offset="0%" style="stop-color:#dc3545;stop-opacity:.8"/><stop offset="100%" style="stop-color:#fd7e14;stop-opacity:.8"/></linearGradient></defs><path fill="url(#a)" d="M0 0h800v450H0z"/><text x="400" y="30" fill="#212529" font-family="Arial, sans-serif" font-size="24" font-weight="bold" text-anchor="middle">
    Sammenheng mellom Bruttolønn og Nettolønn
  </text><rect width="600" height="60" x="100" y="80" fill="url(#b)" rx="10"/><text x="400" y="105" fill="#fff" font-family="Arial, sans-serif" font-size="18" font-weight="bold" text-anchor="middle">
    BRUTTOLØNN: 50.000 kr
  </text><text x="400" y="125" fill="#fff" font-family="Arial, sans-serif" font-size="14" text-anchor="middle">
    Grunnlønn + Tillegg + Naturalytelser + Feriepenger
  </text><path fill="none" stroke="#6c757d" stroke-width="3" marker-end="url(#c)" d="M400 150v30"/><defs><marker id="c" markerHeight="7" markerWidth="10" orient="auto" refX="5" refY="3.5"><path fill="#6c757d" d="m0 0 10 3.5L0 7z"/></marker></defs><rect width="600" height="120" x="100" y="190" fill="#fff" stroke="#dee2e6" stroke-width="2" rx="10"/><text x="400" y="215" fill="#495057" font-family="Arial, sans-serif" font-size="18" font-weight="bold" text-anchor="middle">
    FRADRAG
  </text><rect width="130" height="60" x="120" y="230" fill="url(#d)" rx="5"/><text x="185" y="250" fill="#fff" font-family="Arial, sans-serif" font-size="12" font-weight="bold" text-anchor="middle">
    Skattetrekk
  </text><text x="185" y="270" fill="#fff" font-family="Arial, sans-serif" font-size="14" font-weight="bold" text-anchor="middle">
    8.500 kr
  </text><rect width="130" height="60" x="270" y="230" fill="url(#d)" rx="5"/><text x="335" y="250" fill="#fff" font-family="Arial, sans-serif" font-size="12" font-weight="bold" text-anchor="middle">
    Trygdeavgift
  </text><text x="335" y="270" fill="#fff" font-family="Arial, sans-serif" font-size="14" font-weight="bold" text-anchor="middle">
    1.375 kr
  </text><rect width="130" height="60" x="420" y="230" fill="url(#d)" rx="5"/><text x="485" y="250" fill="#fff" font-family="Arial, sans-serif" font-size="12" font-weight="bold" text-anchor="middle">
    Pensjon
  </text><text x="485" y="270" fill="#fff" font-family="Arial, sans-serif" font-size="14" font-weight="bold" text-anchor="middle">
    1.000 kr
  </text><rect width="110" height="60" x="570" y="230" fill="url(#d)" rx="5"/><text x="625" y="250" fill="#fff" font-family="Arial, sans-serif" font-size="12" font-weight="bold" text-anchor="middle">
    Fagforening
  </text><text x="625" y="270" fill="#fff" font-family="Arial, sans-serif" font-size="14" font-weight="bold" text-anchor="middle">
    500 kr
  </text><text x="400" y="305" fill="#dc3545" font-family="Arial, sans-serif" font-size="14" font-weight="bold" text-anchor="middle">
    Totalt fradrag: 11.375 kr
  </text><path fill="none" stroke="#6c757d" stroke-width="3" marker-end="url(#e)" d="M400 320v30"/><defs><marker id="e" markerHeight="7" markerWidth="10" orient="auto" refX="5" refY="3.5"><path fill="#6c757d" d="m0 0 10 3.5L0 7z"/></marker></defs><rect width="500" height="60" x="150" y="360" fill="url(#f)" rx="10"/><text x="400" y="385" fill="#fff" font-family="Arial, sans-serif" font-size="18" font-weight="bold" text-anchor="middle">
    NETTOLØNN: 38.625 kr
  </text><text x="400" y="405" fill="#fff" font-family="Arial, sans-serif" font-size="14" text-anchor="middle">
    Utbetalt til bankkonto
  </text><path fill="#fff" stroke="#dee2e6" d="M50 430h700v15H50z"/><text x="400" y="440" fill="#495057" font-family="Arial, sans-serif" font-size="12" text-anchor="middle">
    Beregning: 50.000 kr (brutto) - 11.375 kr (fradrag) = 38.625 kr (netto)
  </text></svg>