<svg xmlns="http://www.w3.org/2000/svg" viewBox="0 0 800 600">
  <defs>
    <linearGradient id="bgGradient" x1="0%" y1="0%" x2="100%" y2="100%">
      <stop offset="0%" style="stop-color:#f8fafc;stop-opacity:1" />
      <stop offset="100%" style="stop-color:#e2e8f0;stop-opacity:1" />
    </linearGradient>
    <linearGradient id="techGradient" x1="0%" y1="0%" x2="100%" y2="100%">
      <stop offset="0%" style="stop-color:#3b82f6;stop-opacity:1" />
      <stop offset="100%" style="stop-color:#1d4ed8;stop-opacity:1" />
    </linearGradient>
    <linearGradient id="greenGradient" x1="0%" y1="0%" x2="100%" y2="100%">
      <stop offset="0%" style="stop-color:#10b981;stop-opacity:1" />
      <stop offset="100%" style="stop-color:#059669;stop-opacity:1" />
    </linearGradient>
  </defs>
  

  <rect width="800" height="600" fill="url(#bgGradient)"/>
  

  <text x="400" y="40" text-anchor="middle" font-family="Arial, sans-serif" font-size="24" font-weight="bold" fill="#1e293b">
    Fremtidens Bokføringsregler
  </text>
  

  <circle cx="400" cy="300" r="80" fill="url(#techGradient)" stroke="#1e40af" stroke-width="3"/>
  <text x="400" y="295" text-anchor="middle" font-family="Arial, sans-serif" font-size="14" font-weight="bold" fill="white">
    Fremtidens
  </text>
  <text x="400" y="315" text-anchor="middle" font-family="Arial, sans-serif" font-size="14" font-weight="bold" fill="white">
    Bokføring
  </text>
  

  <g transform="translate(150, 150)">
    <rect x="0" y="0" width="120" height="80" rx="10" fill="#8b5cf6" stroke="#7c3aed" stroke-width="2"/>
    <text x="60" y="25" text-anchor="middle" font-family="Arial, sans-serif" font-size="12" font-weight="bold" fill="white">
      Blockchain
    </text>
    <text x="60" y="40" text-anchor="middle" font-family="Arial, sans-serif" font-size="10" fill="white">
      Distribuert
    </text>
    <text x="60" y="55" text-anchor="middle" font-family="Arial, sans-serif" font-size="10" fill="white">
      Regnskapsføring
    </text>
    <text x="60" y="70" text-anchor="middle" font-family="Arial, sans-serif" font-size="10" fill="white">
      &amp; Sporbarhet
    </text>

    <line x1="120" y1="40" x2="320" y2="260" stroke="#64748b" stroke-width="2" stroke-dasharray="5,5"/>
  </g>
  

  <g transform="translate(530, 150)">
    <rect x="0" y="0" width="120" height="80" rx="10" fill="#f59e0b" stroke="#d97706" stroke-width="2"/>
    <text x="60" y="25" text-anchor="middle" font-family="Arial, sans-serif" font-size="12" font-weight="bold" fill="white">
      Kunstig
    </text>
    <text x="60" y="40" text-anchor="middle" font-family="Arial, sans-serif" font-size="12" font-weight="bold" fill="white">
      Intelligens
    </text>
    <text x="60" y="55" text-anchor="middle" font-family="Arial, sans-serif" font-size="10" fill="white">
      Avansert Analyse
    </text>
    <text x="60" y="70" text-anchor="middle" font-family="Arial, sans-serif" font-size="10" fill="white">
      &amp; Prediksjon
    </text>

    <line x1="0" y1="40" x2="480" y2="260" stroke="#64748b" stroke-width="2" stroke-dasharray="5,5"/>
  </g>
  

  <g transform="translate(150, 370)">
    <rect x="0" y="0" width="120" height="80" rx="10" fill="#06b6d4" stroke="#0891b2" stroke-width="2"/>
    <text x="60" y="25" text-anchor="middle" font-family="Arial, sans-serif" font-size="12" font-weight="bold" fill="white">
      Skytjenester
    </text>
    <text x="60" y="40" text-anchor="middle" font-family="Arial, sans-serif" font-size="10" fill="white">
      Skalerbare &amp;
    </text>
    <text x="60" y="55" text-anchor="middle" font-family="Arial, sans-serif" font-size="10" fill="white">
      Sikre Bokførings-
    </text>
    <text x="60" y="70" text-anchor="middle" font-family="Arial, sans-serif" font-size="10" fill="white">
      løsninger
    </text>

    <line x1="120" y1="40" x2="320" y2="340" stroke="#64748b" stroke-width="2" stroke-dasharray="5,5"/>
  </g>
  

  <g transform="translate(530, 370)">
    <rect x="0" y="0" width="120" height="80" rx="10" fill="url(#greenGradient)" stroke="#059669" stroke-width="2"/>
    <text x="60" y="20" text-anchor="middle" font-family="Arial, sans-serif" font-size="12" font-weight="bold" fill="white">
      ESG-rapportering
    </text>
    <text x="60" y="35" text-anchor="middle" font-family="Arial, sans-serif" font-size="10" fill="white">
      Miljø-, Sosial- &amp;
    </text>
    <text x="60" y="50" text-anchor="middle" font-family="Arial, sans-serif" font-size="10" fill="white">
      Styringsrapportering
    </text>
    <text x="60" y="65" text-anchor="middle" font-family="Arial, sans-serif" font-size="10" fill="white">
      Bærekraftsregnskap
    </text>

    <line x1="0" y1="40" x2="480" y2="340" stroke="#64748b" stroke-width="2" stroke-dasharray="5,5"/>
  </g>
  

  <g transform="translate(340, 100)">
    <rect x="0" y="0" width="120" height="60" rx="10" fill="#ef4444" stroke="#dc2626" stroke-width="2"/>
    <text x="60" y="20" text-anchor="middle" font-family="Arial, sans-serif" font-size="12" font-weight="bold" fill="white">
      Digitale Valutaer
    </text>
    <text x="60" y="35" text-anchor="middle" font-family="Arial, sans-serif" font-size="10" fill="white">
      Kryptovaluta &amp;
    </text>
    <text x="60" y="50" text-anchor="middle" font-family="Arial, sans-serif" font-size="10" fill="white">
      Digitale Betalingsmidler
    </text>

    <line x1="60" y1="60" x2="400" y2="220" stroke="#64748b" stroke-width="2" stroke-dasharray="5,5"/>
  </g>
  

  <g transform="translate(340, 480)">
    <rect x="0" y="0" width="120" height="60" rx="10" fill="#6366f1" stroke="#4f46e5" stroke-width="2"/>
    <text x="60" y="20" text-anchor="middle" font-family="Arial, sans-serif" font-size="12" font-weight="bold" fill="white">
      Regulatoriske
    </text>
    <text x="60" y="35" text-anchor="middle" font-family="Arial, sans-serif" font-size="12" font-weight="bold" fill="white">
      Endringer
    </text>
    <text x="60" y="50" text-anchor="middle" font-family="Arial, sans-serif" font-size="10" fill="white">
      Nye Lover &amp; Regler
    </text>

    <line x1="60" y1="0" x2="400" y2="380" stroke="#64748b" stroke-width="2" stroke-dasharray="5,5"/>
  </g>
  


  <g transform="translate(190, 170)">
    <rect x="0" y="0" width="12" height="12" fill="white" opacity="0.8"/>
    <rect x="15" y="0" width="12" height="12" fill="white" opacity="0.6"/>
    <rect x="30" y="0" width="12" height="12" fill="white" opacity="0.8"/>
    <line x1="12" y1="6" x2="15" y2="6" stroke="white" stroke-width="2"/>
    <line x1="27" y1="6" x2="30" y2="6" stroke="white" stroke-width="2"/>
  </g>
  

  <g transform="translate(580, 170)">
    <circle cx="15" cy="15" r="12" fill="none" stroke="white" stroke-width="2"/>
    <circle cx="10" cy="12" r="2" fill="white"/>
    <circle cx="20" cy="12" r="2" fill="white"/>
    <path d="M 8 18 Q 15 22 22 18" stroke="white" stroke-width="2" fill="none"/>
  </g>
  

  <g transform="translate(190, 390)">
    <ellipse cx="15" cy="15" rx="12" ry="8" fill="white" opacity="0.8"/>
    <ellipse cx="25" cy="12" rx="8" ry="6" fill="white" opacity="0.8"/>
    <ellipse cx="35" cy="15" rx="10" ry="7" fill="white" opacity="0.8"/>
  </g>
  

  <g transform="translate(580, 390)">
    <path d="M 15 5 Q 25 10 20 20 Q 15 25 10 20 Q 5 10 15 5" fill="white" opacity="0.8"/>
    <line x1="15" y1="15" x2="20" y2="20" stroke="white" stroke-width="1"/>
  </g>
  

  <text x="400" y="570" text-anchor="middle" font-family="Arial, sans-serif" font-size="12" fill="#64748b">
    Integrerte teknologier former fremtidens regnskapsføring og rapportering
  </text>
</svg>