<svg xmlns="http://www.w3.org/2000/svg" width="800" height="600" viewBox="0 0 800 600"><path fill="#f8f9fa" d="M0 0h800v600H0z"/><text x="400" y="30" fill="#2c3e50" font-family="Arial, sans-serif" font-size="24" font-weight="bold" text-anchor="middle">
    Grunnleggende Bokføringsprinsipper
  </text><rect width="200" height="60" x="300" y="80" fill="#34495e" stroke="#2c3e50" stroke-width="3" rx="5"/><text x="400" y="105" fill="#fff" font-family="Arial, sans-serif" font-size="16" font-weight="bold" text-anchor="middle">
    BOKFØRINGS-
  </text><text x="400" y="125" fill="#fff" font-family="Arial, sans-serif" font-size="16" font-weight="bold" text-anchor="middle">
    PRINSIPPER
  </text><rect width="300" height="120" x="50" y="180" fill="#e74c3c" stroke="#c0392b" stroke-width="2" rx="8"/><text x="200" y="210" fill="#fff" font-family="Arial, sans-serif" font-size="18" font-weight="bold" text-anchor="middle">
    1. Transaksjonsprinsippet
  </text><text x="200" y="235" fill="#fff" font-family="Arial, sans-serif" font-size="12" text-anchor="middle">
    • Registrering på transaksjonstidspunktet
  </text><text x="200" y="255" fill="#fff" font-family="Arial, sans-serif" font-size="12" text-anchor="middle">
    • Dokumentasjon gjennom bilag
  </text><text x="200" y="275" fill="#fff" font-family="Arial, sans-serif" font-size="12" text-anchor="middle">
    • Sporbarhet fra bilag til regnskap
  </text><rect width="300" height="120" x="450" y="180" fill="#f39c12" stroke="#e67e22" stroke-width="2" rx="8"/><text x="600" y="210" fill="#fff" font-family="Arial, sans-serif" font-size="18" font-weight="bold" text-anchor="middle">
    2. Opptjeningsprinsippet
  </text><text x="600" y="235" fill="#fff" font-family="Arial, sans-serif" font-size="12" text-anchor="middle">
    • Inntekter når opptjent
  </text><text x="600" y="255" fill="#fff" font-family="Arial, sans-serif" font-size="12" text-anchor="middle">
    • Kostnader når pådratt
  </text><text x="600" y="275" fill="#fff" font-family="Arial, sans-serif" font-size="12" text-anchor="middle">
    • Periodisering av poster
  </text><rect width="300" height="120" x="50" y="330" fill="#27ae60" stroke="#229954" stroke-width="2" rx="8"/><text x="200" y="360" fill="#fff" font-family="Arial, sans-serif" font-size="18" font-weight="bold" text-anchor="middle">
    3. Sammenstillingsprinsippet
  </text><text x="200" y="385" fill="#fff" font-family="Arial, sans-serif" font-size="12" text-anchor="middle">
    • Inntekter og kostnader i samme periode
  </text><text x="200" y="405" fill="#fff" font-family="Arial, sans-serif" font-size="12" text-anchor="middle">
    • Riktig periodisering
  </text><text x="200" y="425" fill="#fff" font-family="Arial, sans-serif" font-size="12" text-anchor="middle">
    • Korrekt resultatberegning
  </text><rect width="300" height="120" x="450" y="330" fill="#9b59b6" stroke="#8e44ad" stroke-width="2" rx="8"/><text x="600" y="360" fill="#fff" font-family="Arial, sans-serif" font-size="18" font-weight="bold" text-anchor="middle">
    4. Forsiktighetsprinsippet
  </text><text x="600" y="385" fill="#fff" font-family="Arial, sans-serif" font-size="12" text-anchor="middle">
    • Konservativ verdivurdering
  </text><text x="600" y="405" fill="#fff" font-family="Arial, sans-serif" font-size="12" text-anchor="middle">
    • Tap når sannsynlige
  </text><text x="600" y="425" fill="#fff" font-family="Arial, sans-serif" font-size="12" text-anchor="middle">
    • Gevinster når realiserte
  </text><path stroke="#34495e" stroke-width="3" d="m350 140-150 40M450 140l150 40M350 140 200 330M450 140l150 190"/><rect width="300" height="80" x="250" y="480" fill="#ecf0f1" stroke="#bdc3c7" stroke-width="2" rx="5"/><text x="400" y="505" fill="#2c3e50" font-family="Arial, sans-serif" font-size="14" font-weight="bold" text-anchor="middle">
    Resultat
  </text><text x="400" y="525" fill="#7f8c8d" font-family="Arial, sans-serif" font-size="12" text-anchor="middle">
    Pålitelig og sammenlignbar
  </text><text x="400" y="545" fill="#7f8c8d" font-family="Arial, sans-serif" font-size="12" text-anchor="middle">
    regnskapsinformasjon
  </text><path fill="#34495e" d="M380 460h40l-20 20z"/><rect width="20" height="25" x="70" y="200" fill="#fff" stroke="#c0392b" rx="2"/><path stroke="#c0392b" d="M75 210h10M75 215h10"/><circle cx="480" cy="210" r="12" fill="#fff" stroke="#e67e22" stroke-width="2"/><path stroke="#e67e22" stroke-width="2" d="M480 210v-8M480 210h6"/><path stroke="#fff" stroke-width="3" d="M70 360h20"/><path stroke="#fff" stroke-width="2" d="M80 360v-10"/><circle cx="75" cy="365" r="3" fill="#fff"/><circle cx="85" cy="365" r="3" fill="#fff"/><path fill="#fff" stroke="#8e44ad" stroke-width="2" d="m480 350-10 10v10l10 10 10-10v-10Z"/></svg>