<svg xmlns="http://www.w3.org/2000/svg" width="800" height="600"><path fill="#f8f9fa" d="M0 0h800v600H0z"/><text x="400" y="50" fill="#2c3e50" font-family="Arial, sans-serif" font-size="28" font-weight="bold" text-anchor="middle">
    Hva er et Foretak?
  </text><text x="400" y="80" fill="#7f8c8d" font-family="Arial, sans-serif" font-size="16" text-anchor="middle">
    Ulike foretaksformer og deres karakteristikker
  </text><circle cx="400" cy="300" r="80" fill="#3498db" stroke="#2980b9" stroke-width="3"/><text x="400" y="295" fill="#fff" font-family="Arial, sans-serif" font-size="18" font-weight="bold" text-anchor="middle">
    FORETAK
  </text><text x="400" y="315" fill="#fff" font-family="Arial, sans-serif" font-size="14" text-anchor="middle">
    Organisert virksomhet
  </text><rect width="140" height="80" x="50" y="150" fill="#e74c3c" stroke="#c0392b" stroke-width="2" rx="10"/><text x="120" y="175" fill="#fff" font-family="Arial, sans-serif" font-size="14" font-weight="bold" text-anchor="middle">
    Enkeltperson-
  </text><text x="120" y="195" fill="#fff" font-family="Arial, sans-serif" font-size="14" font-weight="bold" text-anchor="middle">
    foretak (ENK)
  </text><text x="120" y="215" fill="#fff" font-family="Arial, sans-serif" font-size="11" text-anchor="middle">
    Ubegrenset ansvar
  </text><rect width="140" height="80" x="610" y="150" fill="#27ae60" stroke="#229954" stroke-width="2" rx="10"/><text x="680" y="175" fill="#fff" font-family="Arial, sans-serif" font-size="14" font-weight="bold" text-anchor="middle">
    Aksjeselskap
  </text><text x="680" y="195" fill="#fff" font-family="Arial, sans-serif" font-size="14" font-weight="bold" text-anchor="middle">
    (AS)
  </text><text x="680" y="215" fill="#fff" font-family="Arial, sans-serif" font-size="11" text-anchor="middle">
    Begrenset ansvar
  </text><rect width="140" height="80" x="50" y="420" fill="#f39c12" stroke="#e67e22" stroke-width="2" rx="10"/><text x="120" y="445" fill="#fff" font-family="Arial, sans-serif" font-size="14" font-weight="bold" text-anchor="middle">
    Ansvarlig
  </text><text x="120" y="465" fill="#fff" font-family="Arial, sans-serif" font-size="14" font-weight="bold" text-anchor="middle">
    Selskap (ANS)
  </text><text x="120" y="485" fill="#fff" font-family="Arial, sans-serif" font-size="11" text-anchor="middle">
    Solidarisk ansvar
  </text><rect width="140" height="80" x="610" y="420" fill="#9b59b6" stroke="#8e44ad" stroke-width="2" rx="10"/><text x="680" y="445" fill="#fff" font-family="Arial, sans-serif" font-size="14" font-weight="bold" text-anchor="middle">
    Samvirke-
  </text><text x="680" y="465" fill="#fff" font-family="Arial, sans-serif" font-size="14" font-weight="bold" text-anchor="middle">
    foretak
  </text><text x="680" y="485" fill="#fff" font-family="Arial, sans-serif" font-size="11" text-anchor="middle">
    Demokratisk styring
  </text><rect width="140" height="80" x="330" y="450" fill="#34495e" stroke="#2c3e50" stroke-width="2" rx="10"/><text x="400" y="475" fill="#fff" font-family="Arial, sans-serif" font-size="14" font-weight="bold" text-anchor="middle">
    Kommanditt-
  </text><text x="400" y="495" fill="#fff" font-family="Arial, sans-serif" font-size="14" font-weight="bold" text-anchor="middle">
    selskap (KS)
  </text><text x="400" y="515" fill="#fff" font-family="Arial, sans-serif" font-size="11" text-anchor="middle">
    Blandet ansvar
  </text><rect width="140" height="80" x="330" y="120" fill="#16a085" stroke="#138d75" stroke-width="2" rx="10"/><text x="400" y="145" fill="#fff" font-family="Arial, sans-serif" font-size="14" font-weight="bold" text-anchor="middle">
    Allmenn-
  </text><text x="400" y="165" fill="#fff" font-family="Arial, sans-serif" font-size="14" font-weight="bold" text-anchor="middle">
    aksjeselskap (ASA)
  </text><text x="400" y="185" fill="#fff" font-family="Arial, sans-serif" font-size="11" text-anchor="middle">
    Børsnotert
  </text><path stroke="#95a5a6" stroke-width="2" d="m190 190 130 70M610 190l-130 70M190 460l130-120M610 460 480 340M400 220v60M400 380v70"/><rect width="300" height="40" x="250" y="550" fill="#ecf0f1" stroke="#bdc3c7" rx="5"/><text x="400" y="570" fill="#2c3e50" font-family="Arial, sans-serif" font-size="14" font-weight="bold" text-anchor="middle">
    Organisert økonomisk aktivitet
  </text><text x="400" y="585" fill="#7f8c8d" font-family="Arial, sans-serif" font-size="12" text-anchor="middle">
    Juridiske og regnskapsmessige krav
  </text></svg>