<svg width="800" height="500" viewBox="0 0 800 500" xmlns="http://www.w3.org/2000/svg">
  <defs>
    <linearGradient id="blueGradient" x1="0%" y1="0%" x2="100%" y2="100%">
      <stop offset="0%" style="stop-color:#4A90E2;stop-opacity:1" />
      <stop offset="100%" style="stop-color:#357ABD;stop-opacity:1" />
    </linearGradient>
    <linearGradient id="greenGradient" x1="0%" y1="0%" x2="100%" y2="100%">
      <stop offset="0%" style="stop-color:#7ED321;stop-opacity:1" />
      <stop offset="100%" style="stop-color:#5BA517;stop-opacity:1" />
    </linearGradient>
    <linearGradient id="orangeGradient" x1="0%" y1="0%" x2="100%" y2="100%">
      <stop offset="0%" style="stop-color:#F5A623;stop-opacity:1" />
      <stop offset="100%" style="stop-color:#D1851A;stop-opacity:1" />
    </linearGradient>
  </defs>
  

  <rect width="800" height="500" fill="#F8F9FA"/>
  

  <text x="400" y="40" text-anchor="middle" font-family="Arial, sans-serif" font-size="28" font-weight="bold" fill="#2C3E50">Aksjeklasser</text>
  <text x="400" y="70" text-anchor="middle" font-family="Arial, sans-serif" font-size="16" fill="#7F8C8D">Ulike sett av aksjer med ulike rettigheter</text>
  

  <rect x="350" y="100" width="100" height="80" fill="url(#blueGradient)" stroke="#2C3E50" stroke-width="2"/>
  <rect x="360" y="110" width="15" height="15" fill="#FFF"/>
  <rect x="380" y="110" width="15" height="15" fill="#FFF"/>
  <rect x="405" y="110" width="15" height="15" fill="#FFF"/>
  <rect x="425" y="110" width="15" height="15" fill="#FFF"/>
  <rect x="360" y="130" width="15" height="15" fill="#FFF"/>
  <rect x="380" y="130" width="15" height="15" fill="#FFF"/>
  <rect x="405" y="130" width="15" height="15" fill="#FFF"/>
  <rect x="425" y="130" width="15" height="15" fill="#FFF"/>
  <rect x="360" y="150" width="15" height="15" fill="#FFF"/>
  <rect x="380" y="150" width="15" height="15" fill="#FFF"/>
  <rect x="405" y="150" width="15" height="15" fill="#FFF"/>
  <rect x="425" y="150" width="15" height="15" fill="#FFF"/>
  

  <text x="400" y="200" text-anchor="middle" font-family="Arial, sans-serif" font-size="14" font-weight="bold" fill="#2C3E50">Aksjeselskap</text>
  

  <rect x="100" y="250" width="250" height="180" fill="url(#greenGradient)" stroke="#2C3E50" stroke-width="2" rx="10"/>
  <text x="225" y="280" text-anchor="middle" font-family="Arial, sans-serif" font-size="20" font-weight="bold" fill="#FFF">A-aksjer</text>
  

  <circle cx="130" cy="310" r="5" fill="#FFF"/>
  <text x="145" y="315" font-family="Arial, sans-serif" font-size="12" fill="#FFF">Full stemmerett</text>
  
  <circle cx="130" cy="335" r="5" fill="#FFF"/>
  <text x="145" y="340" font-family="Arial, sans-serif" font-size="12" fill="#FFF">Utbytterett</text>
  
  <circle cx="130" cy="360" r="5" fill="#FFF"/>
  <text x="145" y="365" font-family="Arial, sans-serif" font-size="12" fill="#FFF">Alle opprinnelige rettigheter</text>
  
  <circle cx="130" cy="385" r="5" fill="#FFF"/>
  <text x="145" y="390" font-family="Arial, sans-serif" font-size="12" fill="#FFF">Kontroll over selskapet</text>
  

  <rect x="450" y="250" width="250" height="180" fill="url(#orangeGradient)" stroke="#2C3E50" stroke-width="2" rx="10"/>
  <text x="575" y="280" text-anchor="middle" font-family="Arial, sans-serif" font-size="20" font-weight="bold" fill="#FFF">B-aksjer</text>
  

  <circle cx="480" cy="310" r="5" fill="#FFF"/>
  <text x="495" y="315" font-family="Arial, sans-serif" font-size="12" fill="#FFF">Begrenset/ingen stemmerett</text>
  
  <circle cx="480" cy="335" r="5" fill="#FFF"/>
  <text x="495" y="340" font-family="Arial, sans-serif" font-size="12" fill="#FFF">Utbytterett</text>
  
  <circle cx="480" cy="360" r="5" fill="#FFF"/>
  <text x="495" y="365" font-family="Arial, sans-serif" font-size="12" fill="#FFF">Økonomiske fordeler</text>
  
  <circle cx="480" cy="385" r="5" fill="#FFF"/>
  <text x="495" y="390" font-family="Arial, sans-serif" font-size="12" fill="#FFF">Mindre kontroll</text>
  

  <path d="M 350 160 L 225 240" stroke="#2C3E50" stroke-width="2" fill="none" marker-end="url(#arrowhead)"/>
  <path d="M 450 160 L 575 240" stroke="#2C3E50" stroke-width="2" fill="none" marker-end="url(#arrowhead)"/>
  

  <defs>
    <marker id="arrowhead" markerWidth="10" markerHeight="7" refX="9" refY="3.5" orient="auto">
      <polygon points="0 0, 10 3.5, 0 7" fill="#2C3E50"/>
    </marker>
  </defs>
  

  <text x="400" y="470" text-anchor="middle" font-family="Arial, sans-serif" font-size="14" fill="#7F8C8D">Vedtektene bestemmer hvilke aksjeklasser selskapet har</text>
</svg>