<svg xmlns="http://www.w3.org/2000/svg" viewBox="0 0 800 600"><defs><linearGradient id="a" x1="0%" x2="100%" y1="0%" y2="100%"><stop offset="0%" style="stop-color:#f8fafc;stop-opacity:1"/><stop offset="100%" style="stop-color:#e2e8f0;stop-opacity:1"/></linearGradient><linearGradient id="b" x1="0%" x2="100%" y1="0%" y2="0%"><stop offset="0%" style="stop-color:#1e40af;stop-opacity:1"/><stop offset="100%" style="stop-color:#3b82f6;stop-opacity:1"/></linearGradient><filter id="c"><feDropShadow dx="0" dy="2" flood-color="#000" flood-opacity=".1" stdDeviation="4"/></filter></defs><path fill="url(#a)" d="M0 0h800v600H0z"/><path fill="url(#b)" d="M0 0h800v70H0z"/><text x="400" y="40" fill="#fff" font-family="Arial, sans-serif" font-size="24" font-weight="bold" text-anchor="middle">Beste Praksis for Tollverdi</text><rect width="720" height="480" x="40" y="90" fill="#fff" stroke="#e2e8f0" stroke-width="2" filter="url(#c)" rx="8"/><rect width="340" height="220" x="60" y="110" fill="#f1f5f9" stroke="#cbd5e1" rx="6"/><text x="230" y="135" fill="#1e40af" font-family="Arial, sans-serif" font-size="16" font-weight="bold" text-anchor="middle">Organisatoriske Tiltak</text><circle cx="90" cy="160" r="15" fill="#3b82f6"/><text x="90" y="166" fill="#fff" font-family="Arial, sans-serif" font-size="12" font-weight="bold" text-anchor="middle">1</text><text x="115" y="166" fill="#475569" font-family="Arial, sans-serif" font-size="12">Sentralisert ansvar for tollverdi-vurderinger</text><circle cx="90" cy="185" r="15" fill="#3b82f6"/><text x="90" y="191" fill="#fff" font-family="Arial, sans-serif" font-size="12" font-weight="bold" text-anchor="middle">2</text><text x="115" y="191" fill="#475569" font-family="Arial, sans-serif" font-size="12">Klar rollefordeling mellom innkjøp og toll</text><circle cx="90" cy="210" r="15" fill="#3b82f6"/><text x="90" y="216" fill="#fff" font-family="Arial, sans-serif" font-size="12" font-weight="bold" text-anchor="middle">3</text><text x="115" y="216" fill="#475569" font-family="Arial, sans-serif" font-size="12">Systematisk opplæring av medarbeidere</text><circle cx="90" cy="235" r="15" fill="#3b82f6"/><text x="90" y="241" fill="#fff" font-family="Arial, sans-serif" font-size="12" font-weight="bold" text-anchor="middle">4</text><text x="115" y="241" fill="#475569" font-family="Arial, sans-serif" font-size="12">Dokumenterte prosedyrer og rutiner</text><rect width="60" height="25" x="80" y="255" fill="#60a5fa" rx="4"/><text x="110" y="271" fill="#fff" font-family="Arial, sans-serif" font-size="10" text-anchor="middle">Tollsjef</text><rect width="50" height="25" x="60" y="290" fill="#93c5fd" rx="4"/><text x="85" y="306" fill="#fff" font-family="Arial, sans-serif" font-size="9" text-anchor="middle">Innkjøp</text><rect width="50" height="25" x="120" y="290" fill="#93c5fd" rx="4"/><text x="145" y="306" fill="#fff" font-family="Arial, sans-serif" font-size="9" text-anchor="middle">Regnskap</text><rect width="50" height="25" x="180" y="290" fill="#93c5fd" rx="4"/><text x="205" y="306" fill="#fff" font-family="Arial, sans-serif" font-size="9" text-anchor="middle">Lager</text><path stroke="#1e40af" stroke-width="2" d="m110 280-25 10M110 280l35 10M110 280l95 10"/><rect width="320" height="220" x="420" y="110" fill="#f0f9ff" stroke="#bae6fd" rx="6"/><text x="580" y="135" fill="#0369a1" font-family="Arial, sans-serif" font-size="16" font-weight="bold" text-anchor="middle">Teknologiske Løsninger</text><rect width="280" height="30" x="440" y="150" fill="#0284c7" rx="4"/><text x="580" y="168" fill="#fff" font-family="Arial, sans-serif" font-size="12" font-weight="bold" text-anchor="middle">Integrerte ERP-moduler</text><rect width="280" height="30" x="440" y="190" fill="#0ea5e9" rx="4"/><text x="580" y="208" fill="#fff" font-family="Arial, sans-serif" font-size="12" font-weight="bold" text-anchor="middle">Automatisk dokumentgenerering</text><rect width="280" height="30" x="440" y="230" fill="#38bdf8" rx="4"/><text x="580" y="248" fill="#fff" font-family="Arial, sans-serif" font-size="12" font-weight="bold" text-anchor="middle">Real-time kobling til tollsystemer</text><rect width="280" height="30" x="440" y="270" fill="#7dd3fc" rx="4"/><text x="580" y="288" fill="#fff" font-family="Arial, sans-serif" font-size="12" font-weight="bold" text-anchor="middle">Historisk database for sammenligninger</text><rect width="680" height="200" x="60" y="350" fill="#fefce8" stroke="#fde047" rx="6"/><text x="400" y="375" fill="#a16207" font-family="Arial, sans-serif" font-size="16" font-weight="bold" text-anchor="middle">Nøkkeltall og Måling (KPIer)</text><rect width="640" height="140" x="80" y="390" fill="#fff" stroke="#e5e7eb" rx="4"/><path fill="#f3f4f6" stroke="#d1d5db" d="M80 390h200v30H80z"/><text x="180" y="408" fill="#374151" font-family="Arial, sans-serif" font-size="11" font-weight="bold" text-anchor="middle">Måleparameter</text><path fill="#f3f4f6" stroke="#d1d5db" d="M280 390h120v30H280z"/><text x="340" y="408" fill="#374151" font-family="Arial, sans-serif" font-size="11" font-weight="bold" text-anchor="middle">Målsetting</text><path fill="#f3f4f6" stroke="#d1d5db" d="M400 390h120v30H400z"/><text x="460" y="408" fill="#374151" font-family="Arial, sans-serif" font-size="11" font-weight="bold" text-anchor="middle">Målefrekvens</text><path fill="#f3f4f6" stroke="#d1d5db" d="M520 390h200v30H520z"/><text x="620" y="408" fill="#374151" font-family="Arial, sans-serif" font-size="11" font-weight="bold" text-anchor="middle">Status</text><path fill="#fff" stroke="#e5e7eb" d="M80 420h200v25H80z"/><text x="85" y="435" fill="#374151" font-family="Arial, sans-serif" font-size="10">Korrekt tollverdi første gang</text><path fill="#fff" stroke="#e5e7eb" d="M280 420h120v25H280z"/><text x="340" y="435" fill="#16a34a" font-family="Arial, sans-serif" font-size="10" font-weight="bold" text-anchor="middle">≥95%</text><path fill="#fff" stroke="#e5e7eb" d="M400 420h120v25H400z"/><text x="460" y="435" fill="#374151" font-family="Arial, sans-serif" font-size="10" text-anchor="middle">Månedlig</text><path fill="#dcfce7" stroke="#16a34a" d="M520 420h200v25H520z"/><text x="620" y="435" fill="#16a34a" font-family="Arial, sans-serif" font-size="10" font-weight="bold" text-anchor="middle">97.2% ✓</text><path fill="#fff" stroke="#e5e7eb" d="M80 445h200v25H80z"/><text x="85" y="460" fill="#374151" font-family="Arial, sans-serif" font-size="10">Gjennomsnittlig behandlingstid</text><path fill="#fff" stroke="#e5e7eb" d="M280 445h120v25H280z"/><text x="340" y="460" fill="#16a34a" font-family="Arial, sans-serif" font-size="10" font-weight="bold" text-anchor="middle">≤4 timer</text><path fill="#fff" stroke="#e5e7eb" d="M400 445h120v25H400z"/><text x="460" y="460" fill="#374151" font-family="Arial, sans-serif" font-size="10" text-anchor="middle">Ukentlig</text><path fill="#dcfce7" stroke="#16a34a" d="M520 445h200v25H520z"/><text x="620" y="460" fill="#16a34a" font-family="Arial, sans-serif" font-size="10" font-weight="bold" text-anchor="middle">3.2 timer ✓</text><path fill="#fff" stroke="#e5e7eb" d="M80 470h200v25H80z"/><text x="85" y="485" fill="#374151" font-family="Arial, sans-serif" font-size="10">Antall korreksjoner</text><path fill="#fff" stroke="#e5e7eb" d="M280 470h120v25H280z"/><text x="340" y="485" fill="#16a34a" font-family="Arial, sans-serif" font-size="10" font-weight="bold" text-anchor="middle">≤2%</text><path fill="#fff" stroke="#e5e7eb" d="M400 470h120v25H400z"/><text x="460" y="485" fill="#374151" font-family="Arial, sans-serif" font-size="10" text-anchor="middle">Kvartalsvis</text><path fill="#fef3c7" stroke="#f59e0b" d="M520 470h200v25H520z"/><text x="620" y="485" fill="#f59e0b" font-family="Arial, sans-serif" font-size="10" font-weight="bold" text-anchor="middle">2.8% ⚠</text><path fill="#fff" stroke="#e5e7eb" d="M80 495h200v25H80z"/><text x="85" y="510" fill="#374151" font-family="Arial, sans-serif" font-size="10">Medarbeidertilfredshet</text><path fill="#fff" stroke="#e5e7eb" d="M280 495h120v25H280z"/><text x="340" y="510" fill="#16a34a" font-family="Arial, sans-serif" font-size="10" font-weight="bold" text-anchor="middle">≥80%</text><path fill="#fff" stroke="#e5e7eb" d="M400 495h120v25H400z"/><text x="460" y="510" fill="#374151" font-family="Arial, sans-serif" font-size="10" text-anchor="middle">Halvårlig</text><path fill="#dcfce7" stroke="#16a34a" d="M520 495h200v25H520z"/><text x="620" y="510" fill="#16a34a" font-family="Arial, sans-serif" font-size="10" font-weight="bold" text-anchor="middle">85% ✓</text><path fill="none" stroke="#1e40af" stroke-width="3" marker-end="url(#d)" d="M350 260q50 0 50 50"/><defs><marker id="d" markerHeight="7" markerWidth="10" orient="auto" refX="9" refY="3.5"><path fill="#1e40af" d="m0 0 10 3.5L0 7z"/></marker></defs><circle cx="400" cy="180" r="25" fill="#059669" stroke="#10b981" stroke-width="2"/><path fill="#fff" d="m390 180 20-10v20Z"/><text x="400" y="155" fill="#059669" font-family="Arial, sans-serif" font-size="11" font-weight="bold" text-anchor="middle">Kontinuerlig</text><text x="400" y="205" fill="#059669" font-family="Arial, sans-serif" font-size="11" font-weight="bold" text-anchor="middle">Forbedring</text></svg>