<svg xmlns="http://www.w3.org/2000/svg" viewBox="0 0 800 600"><path fill="#f8f9fa" d="M0 0h800v600H0z"/><text x="400" y="40" fill="#2c3e50" font-family="Arial, sans-serif" font-size="24" font-weight="bold" text-anchor="middle">
    CIF-verdi Beregningseksempel
  </text><text x="400" y="70" fill="#7f8c8d" font-family="Arial, sans-serif" font-size="16" text-anchor="middle">
    Import av maskiner fra Tyskland
  </text><rect width="500" height="400" x="150" y="100" fill="#fff" stroke="#e1e8ed" stroke-width="2" rx="10"/><rect width="440" height="60" x="180" y="130" fill="#3498db" rx="5"/><text x="200" y="150" fill="#fff" font-family="Arial, sans-serif" font-size="14" font-weight="bold">
    Varepris (FOB Hamburg)
  </text><text x="580" y="150" fill="#fff" font-family="Arial, sans-serif" font-size="14" font-weight="bold" text-anchor="end">
    500 000 NOK
  </text><text x="200" y="170" fill="#ecf0f1" font-family="Arial, sans-serif" font-size="12">
    Grunnpris for maskiner levert Hamburg havn
  </text><rect width="440" height="60" x="180" y="210" fill="#e74c3c" rx="5"/><text x="200" y="230" fill="#fff" font-family="Arial, sans-serif" font-size="14" font-weight="bold">
    Transport til Oslo
  </text><text x="580" y="230" fill="#fff" font-family="Arial, sans-serif" font-size="14" font-weight="bold" text-anchor="end">
    25 000 NOK
  </text><text x="200" y="250" fill="#ecf0f1" font-family="Arial, sans-serif" font-size="12">
    Frakt fra Hamburg til Oslo havn
  </text><rect width="440" height="60" x="180" y="290" fill="#f39c12" rx="5"/><text x="200" y="310" fill="#fff" font-family="Arial, sans-serif" font-size="14" font-weight="bold">
    Forsikring
  </text><text x="580" y="310" fill="#fff" font-family="Arial, sans-serif" font-size="14" font-weight="bold" text-anchor="end">
    5 000 NOK
  </text><text x="200" y="330" fill="#ecf0f1" font-family="Arial, sans-serif" font-size="12">
    Vareforsikring under transport
  </text><rect width="440" height="60" x="180" y="370" fill="#9b59b6" rx="5"/><text x="200" y="390" fill="#fff" font-family="Arial, sans-serif" font-size="14" font-weight="bold">
    Lastehåndtering
  </text><text x="580" y="390" fill="#fff" font-family="Arial, sans-serif" font-size="14" font-weight="bold" text-anchor="end">
    3 000 NOK
  </text><text x="200" y="410" fill="#ecf0f1" font-family="Arial, sans-serif" font-size="12">
    Lasting, lossing og håndtering
  </text><path stroke="#34495e" stroke-width="2" d="M200 450h400"/><rect width="440" height="80" x="180" y="460" fill="#27ae60" rx="5"/><text x="200" y="485" fill="#fff" font-family="Arial, sans-serif" font-size="18" font-weight="bold">
    Tollverdi (CIF)
  </text><text x="580" y="485" fill="#fff" font-family="Arial, sans-serif" font-size="18" font-weight="bold" text-anchor="end">
    533 000 NOK
  </text><text x="200" y="505" fill="#ecf0f1" font-family="Arial, sans-serif" font-size="12">
    Cost, Insurance, Freight - grunnlag for tollberegning
  </text><text x="200" y="525" fill="#ecf0f1" font-family="Arial, sans-serif" font-size="12">
    500 000 + 25 000 + 5 000 + 3 000 = 533 000 NOK
  </text><text x="400" y="570" fill="#2c3e50" font-family="Arial, sans-serif" font-size="14" font-weight="bold" text-anchor="middle">
    CIF = Cost + Insurance + Freight
  </text><path stroke="#34495e" stroke-width="2" marker-end="url(#a)" d="M400 190v10"/><path stroke="#34495e" stroke-width="2" marker-end="url(#a)" d="M400 270v10"/><path stroke="#34495e" stroke-width="2" marker-end="url(#a)" d="M400 350v10"/><path stroke="#34495e" stroke-width="2" marker-end="url(#a)" d="M400 430v20"/><defs><marker id="a" markerHeight="7" markerWidth="10" orient="auto" refX="9" refY="3.5"><path fill="#34495e" d="m0 0 10 3.5L0 7z"/></marker></defs><circle cx="420" cy="200" r="12" fill="#34495e"/><text x="420" y="206" fill="#fff" font-family="Arial, sans-serif" font-size="16" font-weight="bold" text-anchor="middle">+</text><circle cx="420" cy="280" r="12" fill="#34495e"/><text x="420" y="286" fill="#fff" font-family="Arial, sans-serif" font-size="16" font-weight="bold" text-anchor="middle">+</text><circle cx="420" cy="360" r="12" fill="#34495e"/><text x="420" y="366" fill="#fff" font-family="Arial, sans-serif" font-size="16" font-weight="bold" text-anchor="middle">+</text><circle cx="420" cy="440" r="12" fill="#34495e"/><text x="420" y="446" fill="#fff" font-family="Arial, sans-serif" font-size="16" font-weight="bold" text-anchor="middle">=</text></svg>