<svg xmlns="http://www.w3.org/2000/svg" viewBox="0 0 800 600"><path fill="#f8f9fa" d="M0 0h800v600H0z"/><text x="400" y="30" fill="#2c3e50" font-family="Arial, sans-serif" font-size="24" font-weight="bold" text-anchor="middle">
    Spesielle Tollverdisituasjoner
  </text><g transform="translate(50 70)"><rect width="320" height="200" fill="#e8f4f8" stroke="#3498db" stroke-width="2" rx="10"/><text x="160" y="25" fill="#2c3e50" font-family="Arial, sans-serif" font-size="16" font-weight="bold" text-anchor="middle">
      Konserninternt Salg
    </text><rect width="80" height="60" x="20" y="40" fill="#3498db" rx="5"/><text x="60" y="65" fill="#fff" font-family="Arial, sans-serif" font-size="12" text-anchor="middle">
      Selskap A
    </text><text x="60" y="80" fill="#fff" font-family="Arial, sans-serif" font-size="10" text-anchor="middle">
      (Konsern)
    </text><rect width="80" height="60" x="220" y="40" fill="#3498db" rx="5"/><text x="260" y="65" fill="#fff" font-family="Arial, sans-serif" font-size="12" text-anchor="middle">
      Selskap B
    </text><text x="260" y="80" fill="#fff" font-family="Arial, sans-serif" font-size="10" text-anchor="middle">
      (Konsern)
    </text><path fill="none" stroke="#e74c3c" stroke-width="3" marker-end="url(#a)" d="M110 70h100"/><text x="160" y="65" fill="#e74c3c" font-family="Arial, sans-serif" font-size="10" text-anchor="middle">
      Internpris
    </text><path fill="none" stroke="#f39c12" stroke-width="3" marker-end="url(#b)" d="M160 110v30"/><text x="160" y="155" fill="#2c3e50" font-family="Arial, sans-serif" font-size="11" text-anchor="middle">
      Armslengdes justering
    </text><rect width="80" height="25" x="120" y="165" fill="#f39c12" rx="3"/><text x="160" y="182" fill="#fff" font-family="Arial, sans-serif" font-size="11" text-anchor="middle">
      Markedspris
    </text></g><g transform="translate(430 70)"><rect width="320" height="200" fill="#fff3e0" stroke="#ff9800" stroke-width="2" rx="10"/><text x="160" y="25" fill="#2c3e50" font-family="Arial, sans-serif" font-size="16" font-weight="bold" text-anchor="middle">
      Leasingavtaler og Leie
    </text><rect width="280" height="30" x="20" y="40" fill="#ff9800" rx="5"/><text x="160" y="60" fill="#fff" font-family="Arial, sans-serif" font-size="12" text-anchor="middle">
      Leasingperiode (36 måneder)
    </text><rect width="60" height="20" x="20" y="80" fill="#ffcc80" rx="3"/><text x="50" y="95" fill="#333" font-family="Arial, sans-serif" font-size="10" text-anchor="middle">
      Mnd 1-12
    </text><rect width="60" height="20" x="90" y="80" fill="#ffcc80" rx="3"/><text x="120" y="95" fill="#333" font-family="Arial, sans-serif" font-size="10" text-anchor="middle">
      Mnd 13-24
    </text><rect width="60" height="20" x="160" y="80" fill="#ffcc80" rx="3"/><text x="190" y="95" fill="#333" font-family="Arial, sans-serif" font-size="10" text-anchor="middle">
      Mnd 25-36
    </text><rect width="60" height="20" x="240" y="80" fill="#4caf50" rx="3"/><text x="270" y="95" fill="#fff" font-family="Arial, sans-serif" font-size="10" text-anchor="middle">
      Kjøpsopsjon
    </text><text x="20" y="125" fill="#2c3e50" font-family="Arial, sans-serif" font-size="11">
      Tollverdi = Sum av:
    </text><text x="25" y="140" fill="#666" font-family="Arial, sans-serif" font-size="10">
      • Total leasingsum
    </text><text x="25" y="155" fill="#666" font-family="Arial, sans-serif" font-size="10">
      • Kjøpsopsjonens verdi
    </text><text x="25" y="170" fill="#666" font-family="Arial, sans-serif" font-size="10">
      • Markedsverdi ved start
    </text></g><g transform="translate(50 320)"><rect width="320" height="200" fill="#f3e5f5" stroke="#9c27b0" stroke-width="2" rx="10"/><text x="160" y="25" fill="#2c3e50" font-family="Arial, sans-serif" font-size="16" font-weight="bold" text-anchor="middle">
      Returvarer og Reklamasjoner
    </text><rect width="80" height="40" x="20" y="40" fill="#9c27b0" rx="5"/><text x="60" y="60" fill="#fff" font-family="Arial, sans-serif" font-size="11" text-anchor="middle">
      Opprinnelig
    </text><text x="60" y="75" fill="#fff" font-family="Arial, sans-serif" font-size="11" text-anchor="middle">
      eksport
    </text><path fill="none" stroke="#e91e63" stroke-width="3" marker-end="url(#c)" d="M110 60q50-20 100 0"/><text x="160" y="35" fill="#e91e63" font-family="Arial, sans-serif" font-size="10" text-anchor="middle">
      Retur
    </text><rect width="80" height="40" x="220" y="40" fill="#e91e63" rx="5"/><text x="260" y="60" fill="#fff" font-family="Arial, sans-serif" font-size="11" text-anchor="middle">
      Returvarer
    </text><text x="260" y="75" fill="#fff" font-family="Arial, sans-serif" font-size="11" text-anchor="middle">
      (reimport)
    </text><rect width="200" height="80" x="60" y="100" fill="#f8bbd9" rx="5"/><text x="160" y="120" fill="#2c3e50" font-family="Arial, sans-serif" font-size="12" font-weight="bold" text-anchor="middle">
      Verdijusteringer
    </text><text x="70" y="140" fill="#333" font-family="Arial, sans-serif" font-size="10">
      + Opprinnelig tollverdi
    </text><text x="70" y="155" fill="#333" font-family="Arial, sans-serif" font-size="10">
      - Verdiforringelse
    </text><text x="70" y="170" fill="#333" font-family="Arial, sans-serif" font-size="10">
      + Forbedringer/reparasjoner
    </text></g><g transform="translate(430 320)"><rect width="320" height="200" fill="#e8f5e8" stroke="#4caf50" stroke-width="2" rx="10"/><text x="160" y="25" fill="#2c3e50" font-family="Arial, sans-serif" font-size="16" font-weight="bold" text-anchor="middle">
      Deler og Tilbehør
    </text><rect width="80" height="60" x="120" y="40" fill="#4caf50" rx="5"/><text x="160" y="65" fill="#fff" font-family="Arial, sans-serif" font-size="12" text-anchor="middle">
      Hovedprodukt
    </text><text x="160" y="80" fill="#fff" font-family="Arial, sans-serif" font-size="10" text-anchor="middle">
      (Maskin)
    </text><rect width="60" height="40" x="20" y="120" fill="#81c784" rx="5"/><text x="50" y="140" fill="#fff" font-family="Arial, sans-serif" font-size="10" text-anchor="middle">
      Reservedeler
    </text><rect width="60" height="40" x="90" y="120" fill="#81c784" rx="5"/><text x="120" y="140" fill="#fff" font-family="Arial, sans-serif" font-size="10" text-anchor="middle">
      Verktøy
    </text><rect width="60" height="40" x="160" y="120" fill="#81c784" rx="5"/><text x="190" y="140" fill="#fff" font-family="Arial, sans-serif" font-size="10" text-anchor="middle">
      Tilbehør
    </text><rect width="60" height="40" x="230" y="120" fill="#81c784" rx="5"/><text x="260" y="140" fill="#fff" font-family="Arial, sans-serif" font-size="10" text-anchor="middle">
      Programvare
    </text><path stroke="#4caf50" stroke-width="2" d="m140 100-90 20M150 100l-30 20M170 100l20 20M180 100l80 20"/><text x="160" y="185" fill="#2c3e50" font-family="Arial, sans-serif" font-size="11" text-anchor="middle">
      Samlet eller separat verdsettelse
    </text></g><defs><marker id="a" markerHeight="7" markerWidth="10" orient="auto" refX="9" refY="3.5"><path fill="#e74c3c" d="m0 0 10 3.5L0 7z"/></marker><marker id="b" markerHeight="7" markerWidth="10" orient="auto" refX="9" refY="3.5"><path fill="#f39c12" d="m0 0 10 3.5L0 7z"/></marker><marker id="c" markerHeight="7" markerWidth="10" orient="auto" refX="9" refY="3.5"><path fill="#e91e63" d="m0 0 10 3.5L0 7z"/></marker></defs><text x="400" y="570" fill="#7f8c8d" font-family="Arial, sans-serif" font-size="12" text-anchor="middle">
    Alle situasjoner krever grundig dokumentasjon og kan påvirke tollverdiberegningen betydelig
  </text></svg>