<svg xmlns="http://www.w3.org/2000/svg" viewBox="0 0 800 600"><defs><marker id="arrowhead" markerHeight="7" markerWidth="10" orient="auto" refX="9" refY="3.5"><path fill="#3498db" d="m0 0 10 3.5L0 7z"/></marker><style>.subtitle,.text{font-family:Arial,sans-serif}.subtitle{font-size:14px;font-weight:700;fill:#34495e}.text{font-size:12px;fill:#2c3e50}.highlight{fill:#e74c3c}.process{fill:#3498db}.verification{fill:#2ecc71}.border,.flow-arrow{stroke:#bdc3c7;stroke-width:2;fill:none}.flow-arrow{stroke:#3498db;marker-end:url(#arrowhead)}</style></defs><text x="400" y="30" style="font-family:Arial,sans-serif;font-size:18px;font-weight:700;fill:#2c3e50" text-anchor="middle">Tollvesenets Kontrollsystem</text><text x="400" y="50" class="subtitle" text-anchor="middle">Risikobasert Kontroll og Verifikasjon</text><rect width="160" height="120" x="50" y="80" fill="#ecf0f1" class="border" rx="8"/><text x="130" y="100" class="subtitle" text-anchor="middle">Risikodeteksjon</text><circle cx="90" cy="120" r="8" class="highlight"/><text x="105" y="125" class="text">Prisavvik</text><circle cx="90" cy="140" r="8" class="highlight"/><text x="105" y="145" class="text">Uvanlige mønstre</text><circle cx="90" cy="160" r="8" class="highlight"/><text x="105" y="165" class="text">Konsernstrukturer</text><circle cx="90" cy="180" r="8" class="highlight"/><text x="105" y="185" class="text">Høyrisiko-land</text><rect width="160" height="120" x="270" y="80" fill="#ecf0f1" class="border" rx="8"/><text x="350" y="100" class="subtitle" text-anchor="middle">Kontrollprosess</text><rect width="130" height="20" x="285" y="115" class="process" rx="4"/><text x="350" y="128" fill="#fff" class="text" text-anchor="middle">Automatisk screening</text><rect width="130" height="20" x="285" y="140" class="process" rx="4"/><text x="350" y="153" fill="#fff" class="text" text-anchor="middle">Manuell vurdering</text><rect width="130" height="20" x="285" y="165" class="process" rx="4"/><text x="350" y="178" fill="#fff" class="text" text-anchor="middle">Dokumentkontroll</text><rect width="160" height="120" x="490" y="80" fill="#ecf0f1" class="border" rx="8"/><text x="570" y="100" class="subtitle" text-anchor="middle">Verifikasjon</text><circle cx="530" cy="120" r="8" class="verification"/><text x="545" y="125" class="text">Dokumentanalyse</text><circle cx="530" cy="140" r="8" class="verification"/><text x="545" y="145" class="text">Sammenligning</text><circle cx="530" cy="160" r="8" class="verification"/><text x="545" y="165" class="text">Ekstern kontakt</text><circle cx="530" cy="180" r="8" class="verification"/><text x="545" y="185" class="text">Markedsvalidering</text><rect width="200" height="100" x="50" y="240" fill="#f8f9fa" class="border" rx="8"/><text x="150" y="260" class="subtitle" text-anchor="middle">Datakilder</text><text x="70" y="280" class="text">• Historiske importdata</text><text x="70" y="295" class="text">• Markedspriser</text><text x="70" y="310" class="text">• Handelsstatistikk</text><text x="70" y="325" class="text">• Internasjonale databaser</text><rect width="200" height="100" x="300" y="240" fill="#f8f9fa" class="border" rx="8"/><text x="400" y="260" class="subtitle" text-anchor="middle">Teknologisystemer</text><text x="320" y="280" class="text">• AI-mønstergjenkjenning</text><text x="320" y="295" class="text">• Automatisk flagging</text><text x="320" y="310" class="text">• Prediktive modeller</text><text x="320" y="325" class="text">• Maskinlæring</text><rect width="200" height="100" x="550" y="240" fill="#f8f9fa" class="border" rx="8"/><text x="650" y="260" class="subtitle" text-anchor="middle">Konsekvenser</text><text x="570" y="280" class="text">• Etterberegning</text><text x="570" y="295" class="text">• Renter</text><text x="570" y="310" class="text">• Overtredelsesgebyr</text><text x="570" y="325" class="text">• Inndraging av fordeler</text><rect width="600" height="80" x="100" y="380" fill="#ecf0f1" class="border" rx="8"/><text x="400" y="400" class="subtitle" text-anchor="middle">Kontrollflyt</text><rect width="80" height="25" x="120" y="415" class="process" rx="4"/><text x="160" y="430" fill="#fff" class="text" text-anchor="middle">Import</text><rect width="80" height="25" x="220" y="415" class="highlight" rx="4"/><text x="260" y="430" fill="#fff" class="text" text-anchor="middle">Screening</text><rect width="80" height="25" x="320" y="415" class="verification" rx="4"/><text x="360" y="430" fill="#fff" class="text" text-anchor="middle">Kontroll</text><rect width="80" height="25" x="420" y="415" class="process" rx="4"/><text x="460" y="430" fill="#fff" class="text" text-anchor="middle">Vurdering</text><rect width="80" height="25" x="520" y="415" rx="4" style="fill:#f39c12"/><text x="560" y="430" fill="#fff" class="text" text-anchor="middle">Resultat</text><path d="M200 427h15" class="flow-arrow"/><path d="M300 427h15" class="flow-arrow"/><path d="M400 427h15" class="flow-arrow"/><path d="M500 427h15" class="flow-arrow"/><rect width="300" height="80" x="50" y="490" fill="#fff5f5" class="border" rx="8"/><text x="200" y="510" class="subtitle" text-anchor="middle">Risikoindikatorer</text><text x="70" y="530" class="text">• Priser under markedsverdi</text><text x="70" y="545" class="text">• Komplekse transaksjoner</text><text x="70" y="560" class="text">• Manglende dokumentasjon</text><rect width="300" height="80" x="400" y="490" fill="#f5fff5" class="border" rx="8"/><text x="550" y="510" class="subtitle" text-anchor="middle">Responstiltak</text><text x="420" y="530" class="text">• Detaljert dokumentkontroll</text><text x="420" y="545" class="text">• Ekspertrapporter</text><text x="420" y="560" class="text">• Oppfølging og overvåkning</text><path d="M210 140h55" class="flow-arrow"/><path d="M430 140h55" class="flow-arrow"/><path d="M350 200v35" class="flow-arrow"/><path d="M150 340v35" class="flow-arrow"/><path d="M400 340v35" class="flow-arrow"/><path d="M650 340v35" class="flow-arrow"/></svg>