<svg xmlns="http://www.w3.org/2000/svg" viewBox="0 0 800 600"><path fill="#f8f9fa" d="M0 0h800v600H0z"/><text x="400" y="30" fill="#2c3e50" font-size="24" font-weight="bold" text-anchor="middle">
    Tollverdi Dokumentasjonskrav
  </text><g transform="translate(50 80)"><rect width="300" height="200" fill="#e8f4f8" stroke="#3498db" stroke-width="2" rx="10"/><text x="150" y="25" fill="#2c3e50" font-size="18" font-weight="bold" text-anchor="middle">
      Primære Dokumenter
    </text><g transform="translate(20 40)"><rect width="25" height="20" fill="#3498db" rx="2"/><text x="35" y="15" fill="#2c3e50" font-size="12">Salgsfaktura med prisspecifikasjon</text><rect width="25" height="20" y="30" fill="#2ecc71" rx="2"/><text x="35" y="45" fill="#2c3e50" font-size="12">Kjøpekontrakt med vilkår</text><rect width="25" height="20" y="60" fill="#f39c12" rx="2"/><text x="35" y="75" fill="#2c3e50" font-size="12">Fraktdokumenter med kostnader</text><rect width="25" height="20" y="90" fill="#e74c3c" rx="2"/><text x="35" y="105" fill="#2c3e50" font-size="12">Forsikringsdokumenter</text><rect width="25" height="20" y="120" fill="#9b59b6" rx="2"/><text x="35" y="135" fill="#2c3e50" font-size="12">Kreditnotaer og justeringer</text></g></g><g transform="translate(450 80)"><rect width="300" height="200" fill="#fdf2e9" stroke="#e67e22" stroke-width="2" rx="10"/><text x="150" y="25" fill="#2c3e50" font-size="18" font-weight="bold" text-anchor="middle">
      Støttedokumenter
    </text><g transform="translate(20 40)"><rect width="25" height="20" fill="#e67e22" rx="2"/><text x="35" y="15" fill="#2c3e50" font-size="12">Royalty-avtaler og beregninger</text><rect width="25" height="20" y="30" fill="#1abc9c" rx="2"/><text x="35" y="45" fill="#2c3e50" font-size="12">Verdikjede-analyser</text><rect width="25" height="20" y="60" fill="#34495e" rx="2"/><text x="35" y="75" fill="#2c3e50" font-size="12">Markedsanalyser og prissammenligninger</text><rect width="25" height="20" y="90" fill="#e74c3c" rx="2"/><text x="35" y="105" fill="#2c3e50" font-size="12">Tekniske spesifikasjoner</text><rect width="25" height="20" y="120" fill="#f39c12" rx="2"/><text x="35" y="135" fill="#2c3e50" font-size="12">Valutakursberegninger</text></g></g><g transform="translate(50 320)"><rect width="700" height="160" fill="#eef7ff" stroke="#2980b9" stroke-width="2" rx="10"/><text x="350" y="25" fill="#2c3e50" font-size="18" font-weight="bold" text-anchor="middle">
      Digital Dokumenthåndtering
    </text><g transform="translate(50 40)"><rect width="140" height="80" fill="#3498db" rx="5"/><text x="70" y="20" fill="#fff" font-size="14" font-weight="bold" text-anchor="middle">TVINN-systemet</text><text x="70" y="40" fill="#fff" font-size="11" text-anchor="middle">Strukturerte data</text><text x="70" y="55" fill="#fff" font-size="11" text-anchor="middle">Elektroniske vedlegg</text><rect width="140" height="80" x="160" fill="#2ecc71" rx="5"/><text x="230" y="20" fill="#fff" font-size="14" font-weight="bold" text-anchor="middle">Digitale signaturer</text><text x="230" y="40" fill="#fff" font-size="11" text-anchor="middle">Validering</text><text x="230" y="55" fill="#fff" font-size="11" text-anchor="middle">Autentisering</text><rect width="140" height="80" x="320" fill="#e74c3c" rx="5"/><text x="390" y="20" fill="#fff" font-size="14" font-weight="bold" text-anchor="middle">Backup-systemer</text><text x="390" y="40" fill="#fff" font-size="11" text-anchor="middle">Dokumentbevaring</text><text x="390" y="55" fill="#fff" font-size="11" text-anchor="middle">Sikkerhetskopi</text><rect width="140" height="80" x="480" fill="#9b59b6" rx="5"/><text x="550" y="20" fill="#fff" font-size="14" font-weight="bold" text-anchor="middle">Integrasjon</text><text x="550" y="40" fill="#fff" font-size="11" text-anchor="middle">Tolldeklarasjoner</text><text x="550" y="55" fill="#fff" font-size="11" text-anchor="middle">Automatisering</text></g></g><text fill="#2c3e50" font-size="16" font-weight="bold" transform="translate(50 500)">Dokumentasjonsprosess:</text><g transform="translate(50 520)"><circle cx="50" cy="25" r="20" fill="#3498db"/><text x="50" y="30" fill="#fff" font-size="12" font-weight="bold" text-anchor="middle">1</text><text x="50" y="55" fill="#2c3e50" font-size="11" text-anchor="middle">Samle primære</text><text x="50" y="70" fill="#2c3e50" font-size="11" text-anchor="middle">dokumenter</text><path fill="#7f8c8d" d="m80 25 20-5v10z"/><circle cx="130" cy="25" r="20" fill="#2ecc71"/><text x="130" y="30" fill="#fff" font-size="12" font-weight="bold" text-anchor="middle">2</text><text x="130" y="55" fill="#2c3e50" font-size="11" text-anchor="middle">Verifiser</text><text x="130" y="70" fill="#2c3e50" font-size="11" text-anchor="middle">støttedokumenter</text><path fill="#7f8c8d" d="m160 25 20-5v10z"/><circle cx="210" cy="25" r="20" fill="#e67e22"/><text x="210" y="30" fill="#fff" font-size="12" font-weight="bold" text-anchor="middle">3</text><text x="210" y="55" fill="#2c3e50" font-size="11" text-anchor="middle">Digital</text><text x="210" y="70" fill="#2c3e50" font-size="11" text-anchor="middle">behandling</text><path fill="#7f8c8d" d="m240 25 20-5v10z"/><circle cx="290" cy="25" r="20" fill="#e74c3c"/><text x="290" y="30" fill="#fff" font-size="12" font-weight="bold" text-anchor="middle">4</text><text x="290" y="55" fill="#2c3e50" font-size="11" text-anchor="middle">Innlevering til</text><text x="290" y="70" fill="#2c3e50" font-size="11" text-anchor="middle">tollvesen</text></g><g transform="translate(450 500)"><rect width="280" height="80" fill="#fff3cd" stroke="#ffc107" stroke-width="2" rx="5"/><text x="10" y="20" fill="#856404" font-size="14" font-weight="bold">Viktige krav:</text><text x="10" y="35" fill="#856404" font-size="12">• Komplett prisspecifikasjon</text><text x="10" y="50" fill="#856404" font-size="12">• Korrekt valutaomregning</text><text x="10" y="65" fill="#856404" font-size="12">• Bevaringspliktig i 10 år</text></g></svg>