<svg xmlns="http://www.w3.org/2000/svg" viewBox="0 0 800 600"><defs><linearGradient id="a" x1="0%" x2="100%" y1="0%" y2="0%"><stop offset="0%" style="stop-color:#2563eb;stop-opacity:1"/><stop offset="100%" style="stop-color:#1e40af;stop-opacity:1"/></linearGradient><linearGradient id="b" x1="0%" x2="100%" y1="0%" y2="0%"><stop offset="0%" style="stop-color:#059669;stop-opacity:1"/><stop offset="100%" style="stop-color:#047857;stop-opacity:1"/></linearGradient><linearGradient id="c" x1="0%" x2="100%" y1="0%" y2="0%"><stop offset="0%" style="stop-color:#dc2626;stop-opacity:1"/><stop offset="100%" style="stop-color:#b91c1c;stop-opacity:1"/></linearGradient><linearGradient id="f" x1="0%" x2="100%" y1="0%" y2="0%"><stop offset="0%" style="stop-color:#7c3aed;stop-opacity:1"/><stop offset="100%" style="stop-color:#6d28d9;stop-opacity:1"/></linearGradient></defs><path fill="#f8fafc" d="M0 0h800v600H0z"/><path fill="url(#a)" d="M0 0h800v60H0z"/><text x="400" y="35" fill="#fff" font-family="Arial, sans-serif" font-size="22" font-weight="bold" text-anchor="middle">
    Transfer Pricing og Tollverdi Sammenheng
  </text><g transform="translate(50 80)"><rect width="300" height="180" fill="url(#b)" rx="10"/><text x="150" y="25" fill="#fff" font-family="Arial, sans-serif" font-size="16" font-weight="bold" text-anchor="middle">
      Transfer Pricing
    </text><text x="150" y="45" fill="#fff" font-family="Arial, sans-serif" font-size="12" text-anchor="middle">
      (Skattemessig prissetting)
    </text><rect width="260" height="25" x="20" y="55" fill="rgba(255,255,255,0.2)" rx="5"/><text x="30" y="72" fill="#fff" font-family="Arial, sans-serif" font-size="11">
      ✓ OECD-retningslinjer
    </text><rect width="260" height="25" x="20" y="85" fill="rgba(255,255,255,0.2)" rx="5"/><text x="30" y="102" fill="#fff" font-family="Arial, sans-serif" font-size="11">
      ✓ Armslengdes prinsipp
    </text><rect width="260" height="25" x="20" y="115" fill="rgba(255,255,255,0.2)" rx="5"/><text x="30" y="132" fill="#fff" font-family="Arial, sans-serif" font-size="11">
      ✓ Konserninternt salg
    </text><rect width="260" height="25" x="20" y="145" fill="rgba(255,255,255,0.2)" rx="5"/><text x="30" y="162" fill="#fff" font-family="Arial, sans-serif" font-size="11">
      ✓ Dokumentasjonskrav
    </text></g><g transform="translate(450 80)"><rect width="300" height="180" fill="url(#c)" rx="10"/><text x="150" y="25" fill="#fff" font-family="Arial, sans-serif" font-size="16" font-weight="bold" text-anchor="middle">
      Tollverdi
    </text><text x="150" y="45" fill="#fff" font-family="Arial, sans-serif" font-size="12" text-anchor="middle">
      (Tollmessig verdsettelse)
    </text><rect width="260" height="25" x="20" y="55" fill="rgba(255,255,255,0.2)" rx="5"/><text x="30" y="72" fill="#fff" font-family="Arial, sans-serif" font-size="11">
      ✓ WTO-avtale om tollverdi
    </text><rect width="260" height="25" x="20" y="85" fill="rgba(255,255,255,0.2)" rx="5"/><text x="30" y="102" fill="#fff" font-family="Arial, sans-serif" font-size="11">
      ✓ Transaksjonsverdien
    </text><rect width="260" height="25" x="20" y="115" fill="rgba(255,255,255,0.2)" rx="5"/><text x="30" y="132" fill="#fff" font-family="Arial, sans-serif" font-size="11">
      ✓ CIF-verdi beregning
    </text><rect width="260" height="25" x="20" y="145" fill="rgba(255,255,255,0.2)" rx="5"/><text x="30" y="162" fill="#fff" font-family="Arial, sans-serif" font-size="11">
      ✓ Markedsverdi kontroll
    </text></g><path fill="none" stroke="#374151" stroke-width="3" marker-end="url(#d)" d="M350 170h100"/><path fill="none" stroke="#374151" stroke-width="3" marker-end="url(#e)" d="M450 170H350"/><defs><marker id="d" markerHeight="7" markerWidth="10" orient="auto" refX="9" refY="3.5"><path fill="#374151" d="m0 0 10 3.5L0 7z"/></marker><marker id="e" markerHeight="7" markerWidth="10" orient="auto" refX="1" refY="3.5"><path fill="#374151" d="M10 0 0 3.5 10 7z"/></marker></defs><g transform="translate(200 300)"><rect width="400" height="220" fill="url(#f)" rx="10"/><text x="200" y="25" fill="#fff" font-family="Arial, sans-serif" font-size="16" font-weight="bold" text-anchor="middle">
      Harmoniseringskrav
    </text><rect width="360" height="35" x="20" y="40" fill="rgba(255,255,255,0.2)" rx="5"/><text x="30" y="55" fill="#fff" font-family="Arial, sans-serif" font-size="12" font-weight="bold">
      Samtidig koordinering av skatte- og tollposition
    </text><text x="30" y="68" fill="#fff" font-family="Arial, sans-serif" font-size="10">
      Konsernpriser må være akseptable for både skattemyndighetene og tollvesenet
    </text><rect width="360" height="35" x="20" y="85" fill="rgba(255,255,255,0.2)" rx="5"/><text x="30" y="100" fill="#fff" font-family="Arial, sans-serif" font-size="12" font-weight="bold">
      Felles dokumentasjonskrav
    </text><text x="30" y="113" fill="#fff" font-family="Arial, sans-serif" font-size="10">
      Prisfastsettelse må dokumenteres og forsvares overfor begge regimer
    </text><rect width="360" height="35" x="20" y="130" fill="rgba(255,255,255,0.2)" rx="5"/><text x="30" y="145" fill="#fff" font-family="Arial, sans-serif" font-size="12" font-weight="bold">
      Risikohåndtering
    </text><text x="30" y="158" fill="#fff" font-family="Arial, sans-serif" font-size="10">
      Koordinert tilnærming reduserer risiko for dobbelt justering
    </text><rect width="360" height="35" x="20" y="175" fill="rgba(255,255,255,0.2)" rx="5"/><text x="30" y="190" fill="#fff" font-family="Arial, sans-serif" font-size="12" font-weight="bold">
      Systemintegrasjon
    </text><text x="30" y="203" fill="#fff" font-family="Arial, sans-serif" font-size="10">
      Integrerte systemer for konsistent prisbehandling
    </text></g><g transform="translate(50 540)"><rect width="700" height="45" fill="#f3f4f6" stroke="#d1d5db" rx="8"/><text x="20" y="20" fill="#374151" font-family="Arial, sans-serif" font-size="12" font-weight="bold">
      Hovedfordeler med koordinert tilnærming:
    </text><text x="20" y="35" fill="#374151" font-family="Arial, sans-serif" font-size="11">
      • Redusert kompliansekostnad • Konsistent prissetting • Lavere risiko for justeringer • Bedre myndighetsdialog
    </text></g></svg>