<svg width="800" height="600" viewBox="0 0 800 600" xmlns="http://www.w3.org/2000/svg">

  <rect width="800" height="600" fill="#f8f9fa"/>
  

  <text x="400" y="40" text-anchor="middle" font-family="Arial, sans-serif" font-size="24" font-weight="bold" fill="#1e40af">
    Sosiale Kostnader ved Timelønn
  </text>
  

  <rect x="50" y="70" width="700" height="60" rx="10" fill="#dbeafe" stroke="#2563eb" stroke-width="2"/>
  <text x="70" y="95" font-family="Arial, sans-serif" font-size="16" font-weight="bold" fill="#1e40af">
    Eksempel: Månedlig bruttolønn 35 000 kr
  </text>
  <text x="70" y="115" font-family="Arial, sans-serif" font-size="14" fill="#1e40af">
    Oslo-ansatt, standardsatser for 2024
  </text>
  

  <rect x="50" y="160" width="500" height="350" rx="10" fill="white" stroke="#d1d5db" stroke-width="2"/>
  

  <rect x="60" y="175" width="480" height="35" fill="#f3f4f6"/>
  <text x="80" y="195" font-family="Arial, sans-serif" font-size="14" font-weight="bold" fill="#374151">
    Kostnadstype
  </text>
  <text x="250" y="195" font-family="Arial, sans-serif" font-size="14" font-weight="bold" fill="#374151">
    Sats
  </text>
  <text x="350" y="195" font-family="Arial, sans-serif" font-size="14" font-weight="bold" fill="#374151">
    Grunnlag
  </text>
  <text x="480" y="195" font-family="Arial, sans-serif" font-size="14" font-weight="bold" fill="#374151">
    Belop
  </text>
  

  <line x1="60" y1="210" x2="540" y2="210" stroke="#d1d5db" stroke-width="1"/>
  <line x1="60" y1="240" x2="540" y2="240" stroke="#d1d5db" stroke-width="1"/>
  <line x1="60" y1="270" x2="540" y2="270" stroke="#d1d5db" stroke-width="1"/>
  <line x1="60" y1="300" x2="540" y2="300" stroke="#d1d5db" stroke-width="1"/>
  <line x1="60" y1="330" x2="540" y2="330" stroke="#d1d5db" stroke-width="1"/>
  <line x1="60" y1="360" x2="540" y2="360" stroke="#d1d5db" stroke-width="1"/>
  <line x1="60" y1="390" x2="540" y2="390" stroke="#d1d5db" stroke-width="1"/>
  <line x1="60" y1="420" x2="540" y2="420" stroke="#d1d5db" stroke-width="1"/>
  <line x1="60" y1="450" x2="540" y2="450" stroke="#d1d5db" stroke-width="1"/>
  

  <line x1="220" y1="175" x2="220" y2="450" stroke="#d1d5db" stroke-width="1"/>
  <line x1="320" y1="175" x2="320" y2="450" stroke="#d1d5db" stroke-width="1"/>
  <line x1="430" y1="175" x2="430" y2="450" stroke="#d1d5db" stroke-width="1"/>
  


  <rect x="60" y="210" width="480" height="30" fill="#e5f7ff"/>
  <text x="80" y="230" font-family="Arial, sans-serif" font-size="13" font-weight="bold" fill="#0369a1">
    Bruttolønn
  </text>
  <text x="240" y="230" font-family="Arial, sans-serif" font-size="13" fill="#0369a1">-</text>
  <text x="340" y="230" font-family="Arial, sans-serif" font-size="13" fill="#0369a1">-</text>
  <text x="450" y="230" font-family="Arial, sans-serif" font-size="13" font-weight="bold" fill="#0369a1">
    35 000 kr
  </text>
  

  <text x="80" y="260" font-family="Arial, sans-serif" font-size="13" fill="#374151">
    Arbeidsgiveravgift
  </text>
  <text x="240" y="260" font-family="Arial, sans-serif" font-size="13" fill="#374151">10,6%</text>
  <text x="340" y="260" font-family="Arial, sans-serif" font-size="13" fill="#374151">35 000</text>
  <text x="450" y="260" font-family="Arial, sans-serif" font-size="13" fill="#374151">3 710 kr</text>
  

  <text x="80" y="290" font-family="Arial, sans-serif" font-size="13" fill="#374151">
    Feriepenger (avsetning)
  </text>
  <text x="240" y="290" font-family="Arial, sans-serif" font-size="13" fill="#374151">12%</text>
  <text x="340" y="290" font-family="Arial, sans-serif" font-size="13" fill="#374151">35 000</text>
  <text x="450" y="290" font-family="Arial, sans-serif" font-size="13" fill="#374151">4 200 kr</text>
  

  <text x="80" y="320" font-family="Arial, sans-serif" font-size="13" fill="#374151">
    Pensjon (obligatorisk)
  </text>
  <text x="240" y="320" font-family="Arial, sans-serif" font-size="13" fill="#374151">2%</text>
  <text x="340" y="320" font-family="Arial, sans-serif" font-size="13" fill="#374151">35 000</text>
  <text x="450" y="320" font-family="Arial, sans-serif" font-size="13" fill="#374151">700 kr</text>
  

  <text x="80" y="350" font-family="Arial, sans-serif" font-size="13" fill="#374151">
    Yrkesskadeforsikring
  </text>
  <text x="240" y="350" font-family="Arial, sans-serif" font-size="13" fill="#374151">0,5%</text>
  <text x="340" y="350" font-family="Arial, sans-serif" font-size="13" fill="#374151">35 000</text>
  <text x="450" y="350" font-family="Arial, sans-serif" font-size="13" fill="#374151">175 kr</text>
  

  <text x="80" y="380" font-family="Arial, sans-serif" font-size="13" fill="#374151">
    Gruppelivsforsikring
  </text>
  <text x="240" y="380" font-family="Arial, sans-serif" font-size="13" fill="#374151">0,1%</text>
  <text x="340" y="380" font-family="Arial, sans-serif" font-size="13" fill="#374151">35 000</text>
  <text x="450" y="380" font-family="Arial, sans-serif" font-size="13" fill="#374151">35 kr</text>
  

  <rect x="60" y="390" width="480" height="30" fill="#f3f4f6"/>
  <text x="80" y="410" font-family="Arial, sans-serif" font-size="13" font-weight="bold" fill="#374151">
    Sum sosiale kostnader
  </text>
  <text x="240" y="410" font-family="Arial, sans-serif" font-size="13" fill="#374151">25,2%</text>
  <text x="340" y="410" font-family="Arial, sans-serif" font-size="13" fill="#374151">-</text>
  <text x="450" y="410" font-family="Arial, sans-serif" font-size="13" font-weight="bold" fill="#374151">
    8 820 kr
  </text>
  

  <rect x="60" y="420" width="480" height="30" fill="#dcfce7"/>
  <text x="80" y="440" font-family="Arial, sans-serif" font-size="14" font-weight="bold" fill="#065f46">
    Total personalkostnad
  </text>
  <text x="240" y="440" font-family="Arial, sans-serif" font-size="13" fill="#065f46">-</text>
  <text x="340" y="440" font-family="Arial, sans-serif" font-size="13" fill="#065f46">-</text>
  <text x="450" y="440" font-family="Arial, sans-serif" font-size="14" font-weight="bold" fill="#065f46">
    43 820 kr
  </text>
  

  <circle cx="650" cy="300" r="100" fill="none" stroke="#d1d5db" stroke-width="2"/>
  


  <path d="M 650 200 A 100 100 0 1 1 550 300 Z" fill="#3b82f6" opacity="0.7"/>

  <path d="M 650 200 A 100 100 0 0 1 550 300 Z" fill="#f59e0b" opacity="0.7"/>
  

  <text x="600" y="260" font-family="Arial, sans-serif" font-size="12" fill="#1e40af" font-weight="bold">
    Bruttolønn
  </text>
  <text x="600" y="275" font-family="Arial, sans-serif" font-size="12" fill="#1e40af">
    79,9%
  </text>
  
  <text x="680" y="340" font-family="Arial, sans-serif" font-size="12" fill="#d97706" font-weight="bold">
    Sosiale
  </text>
  <text x="680" y="355" font-family="Arial, sans-serif" font-size="12" fill="#d97706" font-weight="bold">
    kostnader
  </text>
  <text x="680" y="370" font-family="Arial, sans-serif" font-size="12" fill="#d97706">
    20,1%
  </text>
  

  <rect x="570" y="420" width="180" height="120" rx="8" fill="#fef3c7" stroke="#f59e0b" stroke-width="2"/>
  <text x="580" y="440" font-family="Arial, sans-serif" font-size="14" font-weight="bold" fill="#92400e">
    Regionale Forskjeller
  </text>
  <text x="580" y="460" font-family="Arial, sans-serif" font-size="11" fill="#92400e">
    Arbeidsgiveravgift:
  </text>
  <text x="580" y="475" font-family="Arial, sans-serif" font-size="11" fill="#92400e">
    • Sone I (Oslo): 10,6%
  </text>
  <text x="580" y="490" font-family="Arial, sans-serif" font-size="11" fill="#92400e">
    • Sone II: 7,8%
  </text>
  <text x="580" y="505" font-family="Arial, sans-serif" font-size="11" fill="#92400e">
    • Sone III: 7,8%
  </text>
  <text x="580" y="520" font-family="Arial, sans-serif" font-size="11" fill="#92400e">
    • Sone IV (Nord): 0%
  </text>
  

  <text x="400" y="580" text-anchor="middle" font-family="Arial, sans-serif" font-size="12" fill="#6b7280">
    * Satser kan variere basert på tariffavtaler og bedriftens pensjonsordning
  </text>
</svg>