<svg xmlns="http://www.w3.org/2000/svg" width="800" height="600" viewBox="0 0 800 600"><path fill="#f8f9fa" d="M0 0h800v600H0z"/><text x="400" y="40" fill="#1e40af" font-family="Arial, sans-serif" font-size="24" font-weight="bold" text-anchor="middle">
    Lønnsomhetsanalyse for Timelønn
  </text><rect width="350" height="250" x="50" y="80" fill="#fff" stroke="#d1d5db" stroke-width="2" rx="10"/><text x="225" y="105" fill="#374151" font-family="Arial, sans-serif" font-size="16" font-weight="bold" text-anchor="middle">
    Kostnadssstruktur per Time
  </text><path fill="#3b82f6" d="M80 130h40v100H80z" opacity=".7"/><text x="100" y="250" fill="#1e40af" font-family="Arial, sans-serif" font-size="10" text-anchor="middle">
    Grunnlønn
  </text><text x="100" y="265" fill="#1e40af" font-family="Arial, sans-serif" font-size="10" text-anchor="middle">
    200 kr
  </text><path fill="#10b981" d="M140 180h40v50h-40z" opacity=".7"/><text x="160" y="250" fill="#059669" font-family="Arial, sans-serif" font-size="10" text-anchor="middle">
    Sosiale
  </text><text x="160" y="265" fill="#059669" font-family="Arial, sans-serif" font-size="10" text-anchor="middle">
    50 kr
  </text><path fill="#f59e0b" d="M200 200h40v30h-40z" opacity=".7"/><text x="220" y="250" fill="#d97706" font-family="Arial, sans-serif" font-size="10" text-anchor="middle">
    Overhead
  </text><text x="220" y="265" fill="#d97706" font-family="Arial, sans-serif" font-size="10" text-anchor="middle">
    30 kr
  </text><path fill="#ef4444" d="M260 210h40v20h-40z" opacity=".7"/><text x="280" y="250" fill="#dc2626" font-family="Arial, sans-serif" font-size="10" text-anchor="middle">
    Utstyr
  </text><text x="280" y="265" fill="#dc2626" font-family="Arial, sans-serif" font-size="10" text-anchor="middle">
    20 kr
  </text><path fill="#8b5cf6" d="M320 220h40v10h-40z" opacity=".7"/><text x="340" y="250" fill="#7c3aed" font-family="Arial, sans-serif" font-size="10" text-anchor="middle">
    Opplæring
  </text><text x="340" y="265" fill="#7c3aed" font-family="Arial, sans-serif" font-size="10" text-anchor="middle">
    10 kr
  </text><path stroke="#374151" stroke-width="2" d="M80 290h280"/><text x="220" y="310" fill="#374151" font-family="Arial, sans-serif" font-size="14" font-weight="bold" text-anchor="middle">
    Total kostnad per time: 310 kr
  </text><rect width="330" height="250" x="420" y="80" fill="#fff" stroke="#d1d5db" stroke-width="2" rx="10"/><text x="585" y="105" fill="#374151" font-family="Arial, sans-serif" font-size="16" font-weight="bold" text-anchor="middle">
    Inntektsanalyse
  </text><path fill="#dcfce7" stroke="#10b981" stroke-width="2" d="M440 130h80v60h-80z"/><text x="480" y="150" fill="#059669" font-family="Arial, sans-serif" font-size="12" font-weight="bold" text-anchor="middle">
    Intern Prosjekt
  </text><text x="480" y="170" fill="#065f46" font-family="Arial, sans-serif" font-size="11" text-anchor="middle">
    Kostpris: 310 kr
  </text><text x="480" y="185" fill="#065f46" font-family="Arial, sans-serif" font-size="11" text-anchor="middle">
    Margin: 0%
  </text><path fill="#fef3c7" stroke="#f59e0b" stroke-width="2" d="M540 130h80v60h-80z"/><text x="580" y="150" fill="#d97706" font-family="Arial, sans-serif" font-size="12" font-weight="bold" text-anchor="middle">
    Klientarbeid
  </text><text x="580" y="170" fill="#92400e" font-family="Arial, sans-serif" font-size="11" text-anchor="middle">
    Salgspris: 450 kr
  </text><text x="580" y="185" fill="#92400e" font-family="Arial, sans-serif" font-size="11" text-anchor="middle">
    Margin: 31%
  </text><path fill="#dbeafe" stroke="#3b82f6" stroke-width="2" d="M640 130h80v60h-80z"/><text x="680" y="150" fill="#1d4ed8" font-family="Arial, sans-serif" font-size="12" font-weight="bold" text-anchor="middle">
    Spesialkompetanse
  </text><text x="680" y="170" fill="#1e3a8a" font-family="Arial, sans-serif" font-size="11" text-anchor="middle">
    Salgspris: 650 kr
  </text><text x="680" y="185" fill="#1e3a8a" font-family="Arial, sans-serif" font-size="11" text-anchor="middle">
    Margin: 52%
  </text><path fill="#f3f4f6" d="M440 210h280v100H440z"/><text x="580" y="230" fill="#374151" font-family="Arial, sans-serif" font-size="14" font-weight="bold" text-anchor="middle">
    Månedlig Lønnsomhet (160 timer)
  </text><path fill="#ef4444" d="M460 250h60v15h-60z" opacity=".6"/><text x="490" y="275" fill="#991b1b" font-family="Arial, sans-serif" font-size="10" text-anchor="middle">
    Kostnad: 49 600 kr
  </text><path fill="#f59e0b" d="M540 250h60v22h-60z" opacity=".6"/><text x="570" y="285" fill="#92400e" font-family="Arial, sans-serif" font-size="10" text-anchor="middle">
    Klient: 72 000 kr
  </text><path fill="#10b981" d="M620 250h60v35h-60z" opacity=".6"/><text x="650" y="295" fill="#065f46" font-family="Arial, sans-serif" font-size="10" text-anchor="middle">
    Spesial: 104 000 kr
  </text><rect width="700" height="180" x="50" y="360" fill="#fff" stroke="#d1d5db" stroke-width="2" rx="10"/><text x="400" y="385" fill="#374151" font-family="Arial, sans-serif" font-size="18" font-weight="bold" text-anchor="middle">
    Nøkkeltall for Timelønn (KPIer)
  </text><path fill="#e5f7ff" stroke="#0ea5e9" d="M80 410h150v60H80z"/><text x="155" y="430" fill="#0369a1" font-family="Arial, sans-serif" font-size="12" font-weight="bold" text-anchor="middle">
    Produktivitetsrate
  </text><text x="155" y="450" fill="#0ea5e9" font-family="Arial, sans-serif" font-size="20" font-weight="bold" text-anchor="middle">
    75%
  </text><text x="155" y="465" fill="#075985" font-family="Arial, sans-serif" font-size="10" text-anchor="middle">
    Fakturerbare/totale timer
  </text><path fill="#f0fdf4" stroke="#22c55e" d="M250 410h150v60H250z"/><text x="325" y="430" fill="#15803d" font-family="Arial, sans-serif" font-size="12" font-weight="bold" text-anchor="middle">
    Kapasitetsutnyttelse
  </text><text x="325" y="450" fill="#22c55e" font-family="Arial, sans-serif" font-size="20" font-weight="bold" text-anchor="middle">
    92%
  </text><text x="325" y="465" fill="#14532d" font-family="Arial, sans-serif" font-size="10" text-anchor="middle">
    Planlagte/maks timer
  </text><path fill="#fef3c7" stroke="#f59e0b" d="M420 410h150v60H420z"/><text x="495" y="430" fill="#d97706" font-family="Arial, sans-serif" font-size="12" font-weight="bold" text-anchor="middle">
    Overtidsandel
  </text><text x="495" y="450" fill="#f59e0b" font-family="Arial, sans-serif" font-size="20" font-weight="bold" text-anchor="middle">
    12%
  </text><text x="495" y="465" fill="#92400e" font-family="Arial, sans-serif" font-size="10" text-anchor="middle">
    Overtidstimer/totalt
  </text><path fill="#fce7f3" stroke="#ec4899" d="M590 410h150v60H590z"/><text x="665" y="430" fill="#be185d" font-family="Arial, sans-serif" font-size="12" font-weight="bold" text-anchor="middle">
    Effektiv timesats
  </text><text x="665" y="450" fill="#ec4899" font-family="Arial, sans-serif" font-size="20" font-weight="bold" text-anchor="middle">
    385 kr
  </text><text x="665" y="465" fill="#9d174d" font-family="Arial, sans-serif" font-size="10" text-anchor="middle">
    Snitt salg minus kostnad
  </text><path fill="#f3e8ff" stroke="#a855f7" d="M140 490h150v40H140z"/><text x="215" y="510" fill="#7e22ce" font-family="Arial, sans-serif" font-size="12" font-weight="bold" text-anchor="middle">
    ROI per ansatt: 24%
  </text><text x="215" y="525" fill="#6b21a8" font-family="Arial, sans-serif" font-size="10" text-anchor="middle">
    Avkastning investering
  </text><path fill="#dcfce7" stroke="#16a34a" d="M310 490h180v40H310z"/><text x="400" y="510" fill="#15803d" font-family="Arial, sans-serif" font-size="12" font-weight="bold" text-anchor="middle">
    Personalkost./omsetning: 42%
  </text><text x="400" y="525" fill="#14532d" font-family="Arial, sans-serif" font-size="10" text-anchor="middle">
    Bransjegjennomsnitt: 35-55%
  </text><path fill="#fef2f2" stroke="#ef4444" d="M510 490h150v40H510z"/><text x="585" y="510" fill="#dc2626" font-family="Arial, sans-serif" font-size="12" font-weight="bold" text-anchor="middle">
    Sykefravær: 6,2%
  </text><text x="585" y="525" fill="#991b1b" font-family="Arial, sans-serif" font-size="10" text-anchor="middle">
    Nasjonalt gjennomsnitt: 5,8%
  </text><text x="400" y="570" fill="#6b7280" font-family="Arial, sans-serif" font-size="12" text-anchor="middle">
    Optimal lønnsomhet krever balanse mellom kostnadskontroll og salgsoptimalisering
  </text></svg>