<svg xmlns="http://www.w3.org/2000/svg" width="800" height="500"><defs><linearGradient id="a" x1="0%" x2="100%" y1="0%" y2="100%"><stop offset="0%" style="stop-color:#f8f9fa;stop-opacity:1"/><stop offset="100%" style="stop-color:#e9ecef;stop-opacity:1"/></linearGradient><linearGradient id="b" x1="0%" x2="100%" y1="0%" y2="100%"><stop offset="0%" style="stop-color:#3498db;stop-opacity:1"/><stop offset="100%" style="stop-color:#2980b9;stop-opacity:1"/></linearGradient></defs><path fill="url(#a)" stroke="#dee2e6" stroke-width="2" d="M0 0h800v500H0z"/><text x="400" y="30" fill="#2c3e50" font-family="Arial, sans-serif" font-size="24" font-weight="bold" text-anchor="middle">
    Kasseoppgjør Prosess Oversikt
  </text><rect width="140" height="80" x="50" y="80" fill="url(#b)" stroke="#2980b9" stroke-width="2" rx="10"/><text x="120" y="110" fill="#fff" font-family="Arial, sans-serif" font-size="14" font-weight="bold" text-anchor="middle">
    1. Start av Dag
  </text><text x="120" y="130" fill="#fff" font-family="Arial, sans-serif" font-size="11" text-anchor="middle">
    Kontroll av
  </text><text x="120" y="145" fill="#fff" font-family="Arial, sans-serif" font-size="11" text-anchor="middle">
    startkasse
  </text><path fill="none" stroke="#e74c3c" stroke-width="3" d="M200 120h40l-10-10m10 10-10 10"/><rect width="140" height="80" x="250" y="80" fill="url(#b)" stroke="#2980b9" stroke-width="2" rx="10"/><text x="320" y="110" fill="#fff" font-family="Arial, sans-serif" font-size="14" font-weight="bold" text-anchor="middle">
    2. Daglig Salg
  </text><text x="320" y="130" fill="#fff" font-family="Arial, sans-serif" font-size="11" text-anchor="middle">
    Registrering av
  </text><text x="320" y="145" fill="#fff" font-family="Arial, sans-serif" font-size="11" text-anchor="middle">
    transaksjoner
  </text><path fill="none" stroke="#e74c3c" stroke-width="3" d="M400 120h40l-10-10m10 10-10 10"/><rect width="140" height="80" x="450" y="80" fill="url(#b)" stroke="#2980b9" stroke-width="2" rx="10"/><text x="520" y="110" fill="#fff" font-family="Arial, sans-serif" font-size="14" font-weight="bold" text-anchor="middle">
    3. Slutt av Dag
  </text><text x="520" y="130" fill="#fff" font-family="Arial, sans-serif" font-size="11" text-anchor="middle">
    Kasseoppgjør
  </text><text x="520" y="145" fill="#fff" font-family="Arial, sans-serif" font-size="11" text-anchor="middle">
    prosess
  </text><path fill="none" stroke="#e74c3c" stroke-width="3" d="M520 170v40l-10-10m10 10 10-10"/><rect width="400" height="200" x="200" y="220" fill="#ecf0f1" stroke="#bdc3c7" stroke-width="2" rx="10"/><text x="400" y="245" fill="#2c3e50" font-family="Arial, sans-serif" font-size="16" font-weight="bold" text-anchor="middle">
    Detaljert Kasseoppgjør Prosess
  </text><circle cx="230" cy="280" r="15" fill="#27ae60" stroke="#229954" stroke-width="2"/><text x="230" y="285" fill="#fff" font-family="Arial, sans-serif" font-size="12" font-weight="bold" text-anchor="middle">A</text><text x="260" y="285" fill="#2c3e50" font-family="Arial, sans-serif" font-size="12">Tell fysiske kontanter</text><circle cx="230" cy="310" r="15" fill="#f39c12" stroke="#e67e22" stroke-width="2"/><text x="230" y="315" fill="#fff" font-family="Arial, sans-serif" font-size="12" font-weight="bold" text-anchor="middle">B</text><text x="260" y="315" fill="#2c3e50" font-family="Arial, sans-serif" font-size="12">Generer kasserapport</text><circle cx="230" cy="340" r="15" fill="#9b59b6" stroke="#8e44ad" stroke-width="2"/><text x="230" y="345" fill="#fff" font-family="Arial, sans-serif" font-size="12" font-weight="bold" text-anchor="middle">C</text><text x="260" y="345" fill="#2c3e50" font-family="Arial, sans-serif" font-size="12">Sammenlign og avstem</text><circle cx="230" cy="370" r="15" fill="#e74c3c" stroke="#c0392b" stroke-width="2"/><text x="230" y="375" fill="#fff" font-family="Arial, sans-serif" font-size="12" font-weight="bold" text-anchor="middle">D</text><text x="260" y="375" fill="#2c3e50" font-family="Arial, sans-serif" font-size="12">Håndter eventuelle avvik</text><circle cx="230" cy="400" r="15" fill="#34495e" stroke="#2c3e50" stroke-width="2"/><text x="230" y="405" fill="#fff" font-family="Arial, sans-serif" font-size="12" font-weight="bold" text-anchor="middle">E</text><text x="260" y="405" fill="#2c3e50" font-family="Arial, sans-serif" font-size="12">Dokumenter og arkiver</text><rect width="100" height="60" x="650" y="80" fill="#27ae60" stroke="#229954" stroke-width="2" rx="5"/><text x="700" y="105" fill="#fff" font-family="Arial, sans-serif" font-size="12" font-weight="bold" text-anchor="middle">
    STEMMER
  </text><text x="700" y="125" fill="#fff" font-family="Arial, sans-serif" font-size="10" text-anchor="middle">
    Ingen avvik
  </text><rect width="100" height="60" x="650" y="160" fill="#e74c3c" stroke="#c0392b" stroke-width="2" rx="5"/><text x="700" y="185" fill="#fff" font-family="Arial, sans-serif" font-size="12" font-weight="bold" text-anchor="middle">
    AVVIK
  </text><text x="700" y="205" fill="#fff" font-family="Arial, sans-serif" font-size="10" text-anchor="middle">
    Krever handling
  </text><path fill="none" stroke="#e74c3c" stroke-width="3" d="M600 120h40l-10-10m10 10-10 10"/><text x="400" y="470" fill="#7f8c8d" font-family="Arial, sans-serif" font-size="12" font-style="italic" text-anchor="middle">
    Kasseoppgjør utføres daglig for å sikre nøyaktig regnskapsføring og internkontroll
  </text></svg>