<svg xmlns="http://www.w3.org/2000/svg" width="800" height="500" viewBox="0 0 800 500"><path fill="#f8fafc" d="M0 0h800v500H0z"/><text x="400" y="30" fill="#1f2937" font-family="Arial, sans-serif" font-size="20" font-weight="bold" text-anchor="middle">Cafeteria-ordninger - Implementering og Struktur</text><circle cx="100" cy="100" r="30" fill="#3b82f6"/><text x="100" y="105" fill="#fff" font-family="Arial, sans-serif" font-size="12" font-weight="bold" text-anchor="middle">Ansatt</text><rect width="120" height="60" x="200" y="70" fill="#16a34a" rx="8"/><text x="260" y="95" fill="#fff" font-family="Arial, sans-serif" font-size="12" font-weight="bold" text-anchor="middle">Fordelspott</text><text x="260" y="110" fill="#fff" font-family="Arial, sans-serif" font-size="11" text-anchor="middle">50.000 kr/år</text><rect width="370" height="340" x="380" y="60" fill="#f9fafb" stroke="#d1d5db" stroke-width="2" rx="8"/><text x="565" y="85" fill="#1f2937" font-family="Arial, sans-serif" font-size="14" font-weight="bold" text-anchor="middle">Valgmeny for Ansatt</text><rect width="330" height="40" x="400" y="100" fill="#dbeafe" stroke="#3b82f6" rx="4"/><text x="415" y="118" fill="#1e40af" font-family="Arial, sans-serif" font-size="11" font-weight="bold">Ekstra ferieuker (15.000 kr/uke)</text><text x="415" y="130" fill="#6b7280" font-family="Arial, sans-serif" font-size="10">Skattefri fordel - opptil 5 ekstra dager</text><rect width="40" height="25" x="680" y="105" fill="#3b82f6" rx="4"/><text x="700" y="120" fill="#fff" font-family="Arial, sans-serif" font-size="10" text-anchor="middle">Velg</text><rect width="330" height="40" x="400" y="150" fill="#fed7d7" stroke="#dc2626" rx="4"/><text x="415" y="168" fill="#dc2626" font-family="Arial, sans-serif" font-size="11" font-weight="bold">Utvidet helseforsikring (25.000 kr)</text><text x="415" y="180" fill="#6b7280" font-family="Arial, sans-serif" font-size="10">Skattepliktig fordel - full dekning familie</text><rect width="40" height="25" x="680" y="155" fill="#dc2626" rx="4"/><text x="700" y="170" fill="#fff" font-family="Arial, sans-serif" font-size="10" text-anchor="middle">Velg</text><rect width="330" height="40" x="400" y="200" fill="#dcfce7" stroke="#16a34a" rx="4"/><text x="415" y="218" fill="#16a34a" font-family="Arial, sans-serif" font-size="11" font-weight="bold">Ekstra pensjonsinnskudd (1:1 matching)</text><text x="415" y="230" fill="#6b7280" font-family="Arial, sans-serif" font-size="10">Skattefri - arbeidsgiver matcher ansattes bidrag</text><rect width="40" height="25" x="680" y="205" fill="#16a34a" rx="4"/><text x="700" y="220" fill="#fff" font-family="Arial, sans-serif" font-size="10" text-anchor="middle">Velg</text><rect width="330" height="40" x="400" y="250" fill="#fef3c7" stroke="#d97706" rx="4"/><text x="415" y="268" fill="#d97706" font-family="Arial, sans-serif" font-size="11" font-weight="bold">Kursvirksomhet (30.000 kr)</text><text x="415" y="280" fill="#6b7280" font-family="Arial, sans-serif" font-size="10">Skattefri hvis arbeidsrelatert - MBA, sertifiseringer</text><rect width="40" height="25" x="680" y="255" fill="#d97706" rx="4"/><text x="700" y="270" fill="#fff" font-family="Arial, sans-serif" font-size="10" text-anchor="middle">Velg</text><rect width="330" height="40" x="400" y="300" fill="#f3f4f6" stroke="#6b7280" rx="4"/><text x="415" y="318" fill="#374151" font-family="Arial, sans-serif" font-size="11" font-weight="bold">Kontantutbetaling (rest av pott)</text><text x="415" y="330" fill="#6b7280" font-family="Arial, sans-serif" font-size="10">Skattepliktig som ordinær lønn - siste prioritet</text><rect width="40" height="25" x="680" y="305" fill="#6b7280" rx="4"/><text x="700" y="320" fill="#fff" font-family="Arial, sans-serif" font-size="10" text-anchor="middle">Velg</text><rect width="330" height="40" x="400" y="350" fill="#e0e7ff" stroke="#6366f1" rx="4"/><text x="415" y="368" fill="#4338ca" font-family="Arial, sans-serif" font-size="11" font-weight="bold">IT-utstyr/Hjemmekontor (20.000 kr)</text><text x="415" y="380" fill="#6b7280" font-family="Arial, sans-serif" font-size="10">Delvis skattepliktig - avhenger av privat bruk</text><rect width="40" height="25" x="680" y="355" fill="#6366f1" rx="4"/><text x="700" y="370" fill="#fff" font-family="Arial, sans-serif" font-size="10" text-anchor="middle">Velg</text><rect width="700" height="60" x="50" y="420" fill="#eff6ff" stroke="#3b82f6" rx="8"/><text x="70" y="440" fill="#1f2937" font-family="Arial, sans-serif" font-size="12" font-weight="bold">Implementering:</text><text x="70" y="455" fill="#1f2937" font-family="Arial, sans-serif" font-size="11">1. Digital platform for valg  2. Integrasjon med lønnssystem  3. Automatisk regnskapsføring  4. Årlig rapportering til skattemyndighetene</text><text x="70" y="470" fill="#1f2937" font-family="Arial, sans-serif" font-size="11">5. Fleksibilitet for endringer  6. Compliance-overvåking  7. Ansattopplæring og support</text><path fill="none" stroke="#374151" stroke-width="2" marker-end="url(#a)" d="M130 100h70"/><path fill="none" stroke="#374151" stroke-width="2" marker-end="url(#a)" d="M320 100h60"/><defs><marker id="a" markerHeight="7" markerWidth="10" orient="auto" refX="10" refY="3.5"><path fill="#374151" d="m0 0 10 3.5L0 7z"/></marker></defs></svg>