<svg viewBox="0 0 800 600" xmlns="http://www.w3.org/2000/svg">
  <defs>
    <linearGradient id="bgGradient" x1="0%" y1="0%" x2="100%" y2="100%">
      <stop offset="0%" style="stop-color:#f8fafc;stop-opacity:1" />
      <stop offset="100%" style="stop-color:#e2e8f0;stop-opacity:1" />
    </linearGradient>
    <linearGradient id="aiGradient" x1="0%" y1="0%" x2="100%" y2="100%">
      <stop offset="0%" style="stop-color:#3b82f6;stop-opacity:1" />
      <stop offset="100%" style="stop-color:#1e40af;stop-opacity:1" />
    </linearGradient>
    <linearGradient id="blockchainGradient" x1="0%" y1="0%" x2="100%" y2="100%">
      <stop offset="0%" style="stop-color:#10b981;stop-opacity:1" />
      <stop offset="100%" style="stop-color:#047857;stop-opacity:1" />
    </linearGradient>
    <linearGradient id="iotGradient" x1="0%" y1="0%" x2="100%" y2="100%">
      <stop offset="0%" style="stop-color:#f59e0b;stop-opacity:1" />
      <stop offset="100%" style="stop-color:#d97706;stop-opacity:1" />
    </linearGradient>
    <filter id="shadow">
      <feDropShadow dx="2" dy="2" stdDeviation="3" flood-color="#000" flood-opacity="0.1"/>
    </filter>
  </defs>
  

  <rect width="800" height="600" fill="url(#bgGradient)"/>
  

  <text x="400" y="40" text-anchor="middle" font-family="Arial, sans-serif" font-size="24" font-weight="bold" fill="#1e293b">
    Fremtidige Teknologier for Velferdstiltak
  </text>
  

  <g transform="translate(50, 80)">
    <rect x="0" y="0" width="200" height="140" rx="10" fill="url(#aiGradient)" filter="url(#shadow)"/>
    <text x="100" y="25" text-anchor="middle" font-family="Arial, sans-serif" font-size="16" font-weight="bold" fill="white">
      Kunstig Intelligens
    </text>
    

    <g transform="translate(75, 40)">
      <circle cx="25" cy="25" r="20" fill="none" stroke="white" stroke-width="2"/>
      <path d="M15 20 Q25 15 35 20 Q30 25 25 30 Q20 25 15 20" fill="white"/>
      <circle cx="20" cy="22" r="2" fill="#3b82f6"/>
      <circle cx="30" cy="22" r="2" fill="#3b82f6"/>
    </g>
    
    <text x="10" y="85" font-family="Arial, sans-serif" font-size="12" fill="white">
      • Personalisering
    </text>
    <text x="10" y="100" font-family="Arial, sans-serif" font-size="12" fill="white">
      • Prediksjonsmodeller
    </text>
    <text x="10" y="115" font-family="Arial, sans-serif" font-size="12" fill="white">
      • Automatisering
    </text>
    <text x="10" y="130" font-family="Arial, sans-serif" font-size="12" fill="white">
      • Dataanalyse
    </text>
  </g>
  

  <g transform="translate(300, 80)">
    <rect x="0" y="0" width="200" height="140" rx="10" fill="url(#blockchainGradient)" filter="url(#shadow)"/>
    <text x="100" y="25" text-anchor="middle" font-family="Arial, sans-serif" font-size="16" font-weight="bold" fill="white">
      Blockchain
    </text>
    

    <g transform="translate(75, 40)">
      <rect x="10" y="15" width="15" height="15" rx="2" fill="none" stroke="white" stroke-width="2"/>
      <rect x="25" y="15" width="15" height="15" rx="2" fill="none" stroke="white" stroke-width="2"/>
      <rect x="17" y="25" width="15" height="15" rx="2" fill="none" stroke="white" stroke-width="2"/>
      <line x1="25" y1="22" x2="25" y2="25" stroke="white" stroke-width="2"/>
      <line x1="25" y1="30" x2="25" y2="32" stroke="white" stroke-width="2"/>
    </g>
    
    <text x="10" y="85" font-family="Arial, sans-serif" font-size="12" fill="white">
      • Sikkerhet
    </text>
    <text x="10" y="100" font-family="Arial, sans-serif" font-size="12" fill="white">
      • Interoperabilitet
    </text>
    <text x="10" y="115" font-family="Arial, sans-serif" font-size="12" fill="white">
      • Smart contracts
    </text>
    <text x="10" y="130" font-family="Arial, sans-serif" font-size="12" fill="white">
      • Transparens
    </text>
  </g>
  

  <g transform="translate(550, 80)">
    <rect x="0" y="0" width="200" height="140" rx="10" fill="url(#iotGradient)" filter="url(#shadow)"/>
    <text x="100" y="25" text-anchor="middle" font-family="Arial, sans-serif" font-size="16" font-weight="bold" fill="white">
      Internet of Things
    </text>
    

    <g transform="translate(75, 40)">
      <circle cx="25" cy="15" r="4" fill="white"/>
      <circle cx="15" cy="35" r="4" fill="white"/>
      <circle cx="35" cy="35" r="4" fill="white"/>
      <circle cx="25" cy="45" r="4" fill="white"/>
      <line x1="25" y1="19" x2="19" y2="31" stroke="white" stroke-width="1"/>
      <line x1="25" y1="19" x2="31" y2="31" stroke="white" stroke-width="1"/>
      <line x1="19" y1="35" x2="31" y2="35" stroke="white" stroke-width="1"/>
      <line x1="25" y1="41" x2="19" y2="39" stroke="white" stroke-width="1"/>
      <line x1="25" y1="41" x2="31" y2="39" stroke="white" stroke-width="1"/>
    </g>
    
    <text x="10" y="85" font-family="Arial, sans-serif" font-size="12" fill="white">
      • Helsemonitoring
    </text>
    <text x="10" y="100" font-family="Arial, sans-serif" font-size="12" fill="white">
      • Smart workplaces
    </text>
    <text x="10" y="115" font-family="Arial, sans-serif" font-size="12" fill="white">
      • Automatisering
    </text>
    <text x="10" y="130" font-family="Arial, sans-serif" font-size="12" fill="white">
      • Data-drevet innsikt
    </text>
  </g>
  

  <g transform="translate(100, 270)">
    <rect x="0" y="0" width="600" height="280" rx="15" fill="white" stroke="#e2e8f0" stroke-width="2" filter="url(#shadow)"/>
    <text x="300" y="30" text-anchor="middle" font-family="Arial, sans-serif" font-size="18" font-weight="bold" fill="#1e293b">
      Praktiske Anvendelser
    </text>
    

    <g transform="translate(30, 50)">
      <circle cx="15" cy="15" r="10" fill="#3b82f6"/>
      <text x="15" y="20" text-anchor="middle" font-family="Arial, sans-serif" font-size="12" font-weight="bold" fill="white">AI</text>
      <text x="35" y="12" font-family="Arial, sans-serif" font-size="14" font-weight="bold" fill="#1e293b">Personaliserte anbefalinger</text>
      <text x="35" y="28" font-family="Arial, sans-serif" font-size="12" fill="#64748b">AI-drevne forslag basert på ansattes bruksmønstre</text>
    </g>
    

    <g transform="translate(30, 90)">
      <circle cx="15" cy="15" r="10" fill="#10b981"/>
      <text x="15" y="20" text-anchor="middle" font-family="Arial, sans-serif" font-size="10" font-weight="bold" fill="white">BC</text>
      <text x="35" y="12" font-family="Arial, sans-serif" font-size="14" font-weight="bold" fill="#1e293b">Sikre pensjonsregistre</text>
      <text x="35" y="28" font-family="Arial, sans-serif" font-size="12" fill="#64748b">Manipulasjonssikre registre for pensjon og forsikring</text>
    </g>
    

    <g transform="translate(30, 130)">
      <circle cx="15" cy="15" r="10" fill="#f59e0b"/>
      <text x="15" y="20" text-anchor="middle" font-family="Arial, sans-serif" font-size="10" font-weight="bold" fill="white">IoT</text>
      <text x="35" y="12" font-family="Arial, sans-serif" font-size="14" font-weight="bold" fill="#1e293b">Wearables for helsemonitoring</text>
      <text x="35" y="28" font-family="Arial, sans-serif" font-size="12" fill="#64748b">Real-time helse- og trivselsdata fra ansatte</text>
    </g>
    

    <g transform="translate(320, 50)">
      <circle cx="15" cy="15" r="10" fill="#10b981"/>
      <text x="15" y="20" text-anchor="middle" font-family="Arial, sans-serif" font-size="10" font-weight="bold" fill="white">BC</text>
      <text x="35" y="12" font-family="Arial, sans-serif" font-size="14" font-weight="bold" fill="#1e293b">Automatiserte utbetalinger</text>
      <text x="35" y="28" font-family="Arial, sans-serif" font-size="12" fill="#64748b">Smart contracts for pensjon og forsikringsutbetalinger</text>
    </g>
    

    <g transform="translate(320, 90)">
      <circle cx="15" cy="15" r="10" fill="#3b82f6"/>
      <text x="15" y="20" text-anchor="middle" font-family="Arial, sans-serif" font-size="12" font-weight="bold" fill="white">AI</text>
      <text x="35" y="12" font-family="Arial, sans-serif" font-size="14" font-weight="bold" fill="#1e293b">Prediktiv analyse</text>
      <text x="35" y="28" font-family="Arial, sans-serif" font-size="12" fill="#64748b">Forutsi ansattes behov og preferanser</text>
    </g>
    

    <g transform="translate(320, 130)">
      <circle cx="15" cy="15" r="10" fill="#f59e0b"/>
      <text x="15" y="20" text-anchor="middle" font-family="Arial, sans-serif" font-size="10" font-weight="bold" fill="white">IoT</text>
      <text x="35" y="12" font-family="Arial, sans-serif" font-size="14" font-weight="bold" fill="#1e293b">Intelligente arbeidsplasser</text>
      <text x="35" y="28" font-family="Arial, sans-serif" font-size="12" fill="#64748b">Sensorer for miljø, trivsel og ressursoptimalisering</text>
    </g>
    

    <g transform="translate(50, 180)">
      <rect x="0" y="0" width="500" height="80" rx="10" fill="#f1f5f9" stroke="#cbd5e1" stroke-width="1"/>
      <text x="250" y="25" text-anchor="middle" font-family="Arial, sans-serif" font-size="16" font-weight="bold" fill="#1e293b">
        Integrerte Fordeler
      </text>
      
      <g transform="translate(30, 35)">
        <rect x="0" y="0" width="100" height="35" rx="5" fill="#dbeafe" stroke="#3b82f6" stroke-width="1"/>
        <text x="50" y="15" text-anchor="middle" font-family="Arial, sans-serif" font-size="11" fill="#1e40af">Redusert</text>
        <text x="50" y="27" text-anchor="middle" font-family="Arial, sans-serif" font-size="11" fill="#1e40af">administrasjon</text>
      </g>
      
      <g transform="translate(150, 35)">
        <rect x="0" y="0" width="100" height="35" rx="5" fill="#d1fae5" stroke="#10b981" stroke-width="1"/>
        <text x="50" y="15" text-anchor="middle" font-family="Arial, sans-serif" font-size="11" fill="#047857">Økt</text>
        <text x="50" y="27" text-anchor="middle" font-family="Arial, sans-serif" font-size="11" fill="#047857">sikkerhet</text>
      </g>
      
      <g transform="translate(270, 35)">
        <rect x="0" y="0" width="100" height="35" rx="5" fill="#fef3c7" stroke="#f59e0b" stroke-width="1"/>
        <text x="50" y="15" text-anchor="middle" font-family="Arial, sans-serif" font-size="11" fill="#d97706">Personalisert</text>
        <text x="50" y="27" text-anchor="middle" font-family="Arial, sans-serif" font-size="11" fill="#d97706">opplevelse</text>
      </g>
      
      <g transform="translate(390, 35)">
        <rect x="0" y="0" width="100" height="35" rx="5" fill="#e0e7ff" stroke="#6366f1" stroke-width="1"/>
        <text x="50" y="15" text-anchor="middle" font-family="Arial, sans-serif" font-size="11" fill="#4338ca">Data-drevet</text>
        <text x="50" y="27" text-anchor="middle" font-family="Arial, sans-serif" font-size="11" fill="#4338ca">optimalisering</text>
      </g>
    </g>
  </g>
  

  <text x="400" y="580" text-anchor="middle" font-family="Arial, sans-serif" font-size="12" fill="#64748b">
    Teknologisk transformasjon av velferdstiltak for fremtidens arbeidsplass
  </text>
</svg>