<svg xmlns="http://www.w3.org/2000/svg" width="800" height="600" viewBox="0 0 800 600"><path fill="#f8fafc" d="M0 0h800v600H0z"/><text x="400" y="30" fill="#1f2937" font-family="Arial, sans-serif" font-size="20" font-weight="bold" text-anchor="middle">KPI Dashboard - Velferdstiltak</text><rect width="340" height="180" x="50" y="60" fill="#fff" stroke="#e5e7eb" rx="8"/><text x="220" y="85" fill="#1f2937" font-family="Arial, sans-serif" font-size="14" font-weight="bold" text-anchor="middle">Kostnadsindikatorer</text><rect width="140" height="60" x="70" y="100" fill="#dbeafe" rx="4"/><text x="140" y="120" fill="#1e40af" font-family="Arial, sans-serif" font-size="11" font-weight="bold" text-anchor="middle">Kostnad per ansatt</text><text x="140" y="135" fill="#1e40af" font-family="Arial, sans-serif" font-size="16" font-weight="bold" text-anchor="middle">45.000 kr</text><text x="140" y="148" fill="#6b7280" font-family="Arial, sans-serif" font-size="10" text-anchor="middle">+8% vs i fjor</text><rect width="140" height="60" x="230" y="100" fill="#dcfce7" rx="4"/><text x="300" y="120" fill="#16a34a" font-family="Arial, sans-serif" font-size="11" font-weight="bold" text-anchor="middle">Total velferdskostnad</text><text x="300" y="135" fill="#16a34a" font-family="Arial, sans-serif" font-size="16" font-weight="bold" text-anchor="middle">4.5M kr</text><text x="300" y="148" fill="#6b7280" font-family="Arial, sans-serif" font-size="10" text-anchor="middle">12% av lønnssum</text><rect width="140" height="60" x="70" y="170" fill="#fef3c7" rx="4"/><text x="140" y="190" fill="#d97706" font-family="Arial, sans-serif" font-size="11" font-weight="bold" text-anchor="middle">ROI velferdstiltak</text><text x="140" y="205" fill="#d97706" font-family="Arial, sans-serif" font-size="16" font-weight="bold" text-anchor="middle">2.3x</text><text x="140" y="218" fill="#6b7280" font-family="Arial, sans-serif" font-size="10" text-anchor="middle">Produktivitetsgevinst</text><rect width="140" height="60" x="230" y="170" fill="#fed7d7" rx="4"/><text x="300" y="190" fill="#dc2626" font-family="Arial, sans-serif" font-size="11" font-weight="bold" text-anchor="middle">Benchmark bransje</text><text x="300" y="205" fill="#dc2626" font-family="Arial, sans-serif" font-size="16" font-weight="bold" text-anchor="middle">10% av lønn</text><text x="300" y="218" fill="#6b7280" font-family="Arial, sans-serif" font-size="10" text-anchor="middle">Over bransjesnitt</text><rect width="340" height="180" x="410" y="60" fill="#fff" stroke="#e5e7eb" rx="8"/><text x="580" y="85" fill="#1f2937" font-family="Arial, sans-serif" font-size="14" font-weight="bold" text-anchor="middle">Utnyttelsesgrad</text><rect width="140" height="60" x="430" y="100" fill="#e0e7ff" rx="4"/><text x="500" y="120" fill="#4338ca" font-family="Arial, sans-serif" font-size="11" font-weight="bold" text-anchor="middle">Pensjon deltagelse</text><text x="500" y="135" fill="#4338ca" font-family="Arial, sans-serif" font-size="16" font-weight="bold" text-anchor="middle">98%</text><text x="500" y="148" fill="#6b7280" font-family="Arial, sans-serif" font-size="10" text-anchor="middle">OTP + utvidet</text><rect width="140" height="60" x="590" y="100" fill="#f0fdf4" rx="4"/><text x="660" y="120" fill="#15803d" font-family="Arial, sans-serif" font-size="11" font-weight="bold" text-anchor="middle">Helseforsikring</text><text x="660" y="135" fill="#15803d" font-family="Arial, sans-serif" font-size="16" font-weight="bold" text-anchor="middle">76%</text><text x="660" y="148" fill="#6b7280" font-family="Arial, sans-serif" font-size="10" text-anchor="middle">Utvidet dekning</text><rect width="140" height="60" x="430" y="170" fill="#fefce8" rx="4"/><text x="500" y="190" fill="#ca8a04" font-family="Arial, sans-serif" font-size="11" font-weight="bold" text-anchor="middle">Bedriftsidrett</text><text x="500" y="205" fill="#ca8a04" font-family="Arial, sans-serif" font-size="16" font-weight="bold" text-anchor="middle">52%</text><text x="500" y="218" fill="#6b7280" font-family="Arial, sans-serif" font-size="10" text-anchor="middle">Aktiv medlemskap</text><rect width="140" height="60" x="590" y="170" fill="#f5f3ff" rx="4"/><text x="660" y="190" fill="#7c3aed" font-family="Arial, sans-serif" font-size="11" font-weight="bold" text-anchor="middle">Kompetanseutvikling</text><text x="660" y="205" fill="#7c3aed" font-family="Arial, sans-serif" font-size="16" font-weight="bold" text-anchor="middle">34%</text><text x="660" y="218" fill="#6b7280" font-family="Arial, sans-serif" font-size="10" text-anchor="middle">Deltok siste år</text><rect width="340" height="200" x="50" y="260" fill="#fff" stroke="#e5e7eb" rx="8"/><text x="220" y="285" fill="#1f2937" font-family="Arial, sans-serif" font-size="14" font-weight="bold" text-anchor="middle">Ansattilfredshet Fordeler</text><text x="80" y="310" fill="#1f2937" font-family="Arial, sans-serif" font-size="11">Pensjon</text><rect width="150" height="15" x="130" y="300" fill="#e5e7eb" rx="2"/><rect width="135" height="15" x="130" y="300" fill="#22c55e" rx="2"/><text x="290" y="312" fill="#1f2937" font-family="Arial, sans-serif" font-size="10">90%</text><text x="80" y="335" fill="#1f2937" font-family="Arial, sans-serif" font-size="11">Helseforsikring</text><rect width="150" height="15" x="130" y="325" fill="#e5e7eb" rx="2"/><rect width="128" height="15" x="130" y="325" fill="#3b82f6" rx="2"/><text x="290" y="337" fill="#1f2937" font-family="Arial, sans-serif" font-size="10">85%</text><text x="80" y="360" fill="#1f2937" font-family="Arial, sans-serif" font-size="11">Firmabil</text><rect width="150" height="15" x="130" y="350" fill="#e5e7eb" rx="2"/><rect width="120" height="15" x="130" y="350" fill="#f59e0b" rx="2"/><text x="290" y="362" fill="#1f2937" font-family="Arial, sans-serif" font-size="10">80%</text><text x="80" y="385" fill="#1f2937" font-family="Arial, sans-serif" font-size="11">Bedriftsidrett</text><rect width="150" height="15" x="130" y="375" fill="#e5e7eb" rx="2"/><rect width="110" height="15" x="130" y="375" fill="#8b5cf6" rx="2"/><text x="290" y="387" fill="#1f2937" font-family="Arial, sans-serif" font-size="10">73%</text><text x="80" y="410" fill="#1f2937" font-family="Arial, sans-serif" font-size="11">Cafeteria-ordning</text><rect width="150" height="15" x="130" y="400" fill="#e5e7eb" rx="2"/><rect width="105" height="15" x="130" y="400" fill="#ef4444" rx="2"/><text x="290" y="412" fill="#1f2937" font-family="Arial, sans-serif" font-size="10">70%</text><text x="80" y="435" fill="#1f2937" font-family="Arial, sans-serif" font-size="11">Kursvirksomhet</text><rect width="150" height="15" x="130" y="425" fill="#e5e7eb" rx="2"/><rect width="95" height="15" x="130" y="425" fill="#06b6d4" rx="2"/><text x="290" y="437" fill="#1f2937" font-family="Arial, sans-serif" font-size="10">63%</text><rect width="340" height="200" x="410" y="260" fill="#fff" stroke="#e5e7eb" rx="8"/><text x="580" y="285" fill="#1f2937" font-family="Arial, sans-serif" font-size="14" font-weight="bold" text-anchor="middle">Retensjon &amp; Rekruttering</text><rect width="140" height="70" x="430" y="300" fill="#fef2f2" rx="4"/><text x="500" y="320" fill="#dc2626" font-family="Arial, sans-serif" font-size="11" font-weight="bold" text-anchor="middle">Turnover rate</text><text x="500" y="340" fill="#dc2626" font-family="Arial, sans-serif" font-size="20" font-weight="bold" text-anchor="middle">8.5%</text><text x="500" y="355" fill="#6b7280" font-family="Arial, sans-serif" font-size="10" text-anchor="middle">-2.1% vs i fjor</text><text x="500" y="365" fill="#16a34a" font-family="Arial, sans-serif" font-size="10" text-anchor="middle">Forbedring</text><rect width="140" height="70" x="590" y="300" fill="#f0f9ff" rx="4"/><text x="660" y="320" fill="#0284c7" font-family="Arial, sans-serif" font-size="11" font-weight="bold" text-anchor="middle">Tid til besetting</text><text x="660" y="340" fill="#0284c7" font-family="Arial, sans-serif" font-size="20" font-weight="bold" text-anchor="middle">42 dager</text><text x="660" y="355" fill="#6b7280" font-family="Arial, sans-serif" font-size="10" text-anchor="middle">-8 dager vs i fjor</text><text x="660" y="365" fill="#16a34a" font-family="Arial, sans-serif" font-size="10" text-anchor="middle">Forbedring</text><rect width="140" height="70" x="430" y="380" fill="#f0fdf4" rx="4"/><text x="500" y="400" fill="#16a34a" font-family="Arial, sans-serif" font-size="11" font-weight="bold" text-anchor="middle">eNPS Score</text><text x="500" y="420" fill="#16a34a" font-family="Arial, sans-serif" font-size="20" font-weight="bold" text-anchor="middle">+47</text><text x="500" y="435" fill="#6b7280" font-family="Arial, sans-serif" font-size="10" text-anchor="middle">Høy anbefaling</text><text x="500" y="445" fill="#16a34a" font-family="Arial, sans-serif" font-size="10" text-anchor="middle">Topp 10% bransje</text><rect width="140" height="70" x="590" y="380" fill="#fefce8" rx="4"/><text x="660" y="400" fill="#ca8a04" font-family="Arial, sans-serif" font-size="11" font-weight="bold" text-anchor="middle">Rekrutteringsrate</text><text x="660" y="420" fill="#ca8a04" font-family="Arial, sans-serif" font-size="20" font-weight="bold" text-anchor="middle">94%</text><text x="660" y="435" fill="#6b7280" font-family="Arial, sans-serif" font-size="10" text-anchor="middle">Ønsket kandidat</text><text x="660" y="445" fill="#16a34a" font-family="Arial, sans-serif" font-size="10" text-anchor="middle">aksepterer tilbud</text><rect width="700" height="100" x="50" y="480" fill="#f9fafb" stroke="#d1d5db" rx="8"/><text x="400" y="505" fill="#1f2937" font-family="Arial, sans-serif" font-size="14" font-weight="bold" text-anchor="middle">Nøkkelinnsikter og Handlingsområder</text><text x="70" y="525" fill="#1f2937" font-family="Arial, sans-serif" font-size="11">• Velferdstiltak bidrar sterkt til ansattretensjon og rekruttering</text><text x="70" y="540" fill="#1f2937" font-family="Arial, sans-serif" font-size="11">• Pensjon og helseforsikring har høyest verdsettelse blandt ansatte</text><text x="70" y="555" fill="#1f2937" font-family="Arial, sans-serif" font-size="11">• Cafeteria-ordninger og kompetanseutvikling har forbedringspotensial</text><text x="70" y="570" fill="#1f2937" font-family="Arial, sans-serif" font-size="11">• ROI på velferdsinvesteringer viser positiv utvikling med 2.3x avkastning</text></svg>