<svg width="800" height="600" viewBox="0 0 800 600" xmlns="http://www.w3.org/2000/svg">

  <rect width="800" height="600" fill="#f8fafc"/>
  

  <text x="400" y="30" text-anchor="middle" font-family="Arial, sans-serif" font-size="20" font-weight="bold" fill="#1f2937">KPI Dashboard - Velferdstiltak</text>
  

  <rect x="50" y="60" width="340" height="180" fill="#ffffff" stroke="#e5e7eb" stroke-width="1" rx="8"/>
  <text x="220" y="85" text-anchor="middle" font-family="Arial, sans-serif" font-size="14" font-weight="bold" fill="#1f2937">Kostnadsindikatorer</text>
  

  <rect x="70" y="100" width="140" height="60" fill="#dbeafe" rx="4"/>
  <text x="140" y="120" text-anchor="middle" font-family="Arial, sans-serif" font-size="11" font-weight="bold" fill="#1e40af">Kostnad per ansatt</text>
  <text x="140" y="135" text-anchor="middle" font-family="Arial, sans-serif" font-size="16" font-weight="bold" fill="#1e40af">45.000 kr</text>
  <text x="140" y="148" text-anchor="middle" font-family="Arial, sans-serif" font-size="10" fill="#6b7280">+8% vs i fjor</text>
  

  <rect x="230" y="100" width="140" height="60" fill="#dcfce7" rx="4"/>
  <text x="300" y="120" text-anchor="middle" font-family="Arial, sans-serif" font-size="11" font-weight="bold" fill="#16a34a">Total velferdskostnad</text>
  <text x="300" y="135" text-anchor="middle" font-family="Arial, sans-serif" font-size="16" font-weight="bold" fill="#16a34a">4.5M kr</text>
  <text x="300" y="148" text-anchor="middle" font-family="Arial, sans-serif" font-size="10" fill="#6b7280">12% av lønnssum</text>
  

  <rect x="70" y="170" width="140" height="60" fill="#fef3c7" rx="4"/>
  <text x="140" y="190" text-anchor="middle" font-family="Arial, sans-serif" font-size="11" font-weight="bold" fill="#d97706">ROI velferdstiltak</text>
  <text x="140" y="205" text-anchor="middle" font-family="Arial, sans-serif" font-size="16" font-weight="bold" fill="#d97706">2.3x</text>
  <text x="140" y="218" text-anchor="middle" font-family="Arial, sans-serif" font-size="10" fill="#6b7280">Produktivitetsgevinst</text>
  

  <rect x="230" y="170" width="140" height="60" fill="#fed7d7" rx="4"/>
  <text x="300" y="190" text-anchor="middle" font-family="Arial, sans-serif" font-size="11" font-weight="bold" fill="#dc2626">Benchmark bransje</text>
  <text x="300" y="205" text-anchor="middle" font-family="Arial, sans-serif" font-size="16" font-weight="bold" fill="#dc2626">10% av lønn</text>
  <text x="300" y="218" text-anchor="middle" font-family="Arial, sans-serif" font-size="10" fill="#6b7280">Over bransjesnitt</text>
  

  <rect x="410" y="60" width="340" height="180" fill="#ffffff" stroke="#e5e7eb" stroke-width="1" rx="8"/>
  <text x="580" y="85" text-anchor="middle" font-family="Arial, sans-serif" font-size="14" font-weight="bold" fill="#1f2937">Utnyttelsesgrad</text>
  

  <rect x="430" y="100" width="140" height="60" fill="#e0e7ff" rx="4"/>
  <text x="500" y="120" text-anchor="middle" font-family="Arial, sans-serif" font-size="11" font-weight="bold" fill="#4338ca">Pensjon deltagelse</text>
  <text x="500" y="135" text-anchor="middle" font-family="Arial, sans-serif" font-size="16" font-weight="bold" fill="#4338ca">98%</text>
  <text x="500" y="148" text-anchor="middle" font-family="Arial, sans-serif" font-size="10" fill="#6b7280">OTP + utvidet</text>
  

  <rect x="590" y="100" width="140" height="60" fill="#f0fdf4" rx="4"/>
  <text x="660" y="120" text-anchor="middle" font-family="Arial, sans-serif" font-size="11" font-weight="bold" fill="#15803d">Helseforsikring</text>
  <text x="660" y="135" text-anchor="middle" font-family="Arial, sans-serif" font-size="16" font-weight="bold" fill="#15803d">76%</text>
  <text x="660" y="148" text-anchor="middle" font-family="Arial, sans-serif" font-size="10" fill="#6b7280">Utvidet dekning</text>
  

  <rect x="430" y="170" width="140" height="60" fill="#fefce8" rx="4"/>
  <text x="500" y="190" text-anchor="middle" font-family="Arial, sans-serif" font-size="11" font-weight="bold" fill="#ca8a04">Bedriftsidrett</text>
  <text x="500" y="205" text-anchor="middle" font-family="Arial, sans-serif" font-size="16" font-weight="bold" fill="#ca8a04">52%</text>
  <text x="500" y="218" text-anchor="middle" font-family="Arial, sans-serif" font-size="10" fill="#6b7280">Aktiv medlemskap</text>
  

  <rect x="590" y="170" width="140" height="60" fill="#f5f3ff" rx="4"/>
  <text x="660" y="190" text-anchor="middle" font-family="Arial, sans-serif" font-size="11" font-weight="bold" fill="#7c3aed">Kompetanseutvikling</text>
  <text x="660" y="205" text-anchor="middle" font-family="Arial, sans-serif" font-size="16" font-weight="bold" fill="#7c3aed">34%</text>
  <text x="660" y="218" text-anchor="middle" font-family="Arial, sans-serif" font-size="10" fill="#6b7280">Deltok siste år</text>
  

  <rect x="50" y="260" width="340" height="200" fill="#ffffff" stroke="#e5e7eb" stroke-width="1" rx="8"/>
  <text x="220" y="285" text-anchor="middle" font-family="Arial, sans-serif" font-size="14" font-weight="bold" fill="#1f2937">Ansattilfredshet Fordeler</text>
  

  <text x="80" y="310" font-family="Arial, sans-serif" font-size="11" fill="#1f2937">Pensjon</text>
  <rect x="130" y="300" width="150" height="15" fill="#e5e7eb" rx="2"/>
  <rect x="130" y="300" width="135" height="15" fill="#22c55e" rx="2"/>
  <text x="290" y="312" font-family="Arial, sans-serif" font-size="10" fill="#1f2937">90%</text>
  
  <text x="80" y="335" font-family="Arial, sans-serif" font-size="11" fill="#1f2937">Helseforsikring</text>
  <rect x="130" y="325" width="150" height="15" fill="#e5e7eb" rx="2"/>
  <rect x="130" y="325" width="128" height="15" fill="#3b82f6" rx="2"/>
  <text x="290" y="337" font-family="Arial, sans-serif" font-size="10" fill="#1f2937">85%</text>
  
  <text x="80" y="360" font-family="Arial, sans-serif" font-size="11" fill="#1f2937">Firmabil</text>
  <rect x="130" y="350" width="150" height="15" fill="#e5e7eb" rx="2"/>
  <rect x="130" y="350" width="120" height="15" fill="#f59e0b" rx="2"/>
  <text x="290" y="362" font-family="Arial, sans-serif" font-size="10" fill="#1f2937">80%</text>
  
  <text x="80" y="385" font-family="Arial, sans-serif" font-size="11" fill="#1f2937">Bedriftsidrett</text>
  <rect x="130" y="375" width="150" height="15" fill="#e5e7eb" rx="2"/>
  <rect x="130" y="375" width="110" height="15" fill="#8b5cf6" rx="2"/>
  <text x="290" y="387" font-family="Arial, sans-serif" font-size="10" fill="#1f2937">73%</text>
  
  <text x="80" y="410" font-family="Arial, sans-serif" font-size="11" fill="#1f2937">Cafeteria-ordning</text>
  <rect x="130" y="400" width="150" height="15" fill="#e5e7eb" rx="2"/>
  <rect x="130" y="400" width="105" height="15" fill="#ef4444" rx="2"/>
  <text x="290" y="412" font-family="Arial, sans-serif" font-size="10" fill="#1f2937">70%</text>
  
  <text x="80" y="435" font-family="Arial, sans-serif" font-size="11" fill="#1f2937">Kursvirksomhet</text>
  <rect x="130" y="425" width="150" height="15" fill="#e5e7eb" rx="2"/>
  <rect x="130" y="425" width="95" height="15" fill="#06b6d4" rx="2"/>
  <text x="290" y="437" font-family="Arial, sans-serif" font-size="10" fill="#1f2937">63%</text>
  

  <rect x="410" y="260" width="340" height="200" fill="#ffffff" stroke="#e5e7eb" stroke-width="1" rx="8"/>
  <text x="580" y="285" text-anchor="middle" font-family="Arial, sans-serif" font-size="14" font-weight="bold" fill="#1f2937">Retensjon &amp; Rekruttering</text>
  

  <rect x="430" y="300" width="140" height="70" fill="#fef2f2" rx="4"/>
  <text x="500" y="320" text-anchor="middle" font-family="Arial, sans-serif" font-size="11" font-weight="bold" fill="#dc2626">Turnover rate</text>
  <text x="500" y="340" text-anchor="middle" font-family="Arial, sans-serif" font-size="20" font-weight="bold" fill="#dc2626">8.5%</text>
  <text x="500" y="355" text-anchor="middle" font-family="Arial, sans-serif" font-size="10" fill="#6b7280">-2.1% vs i fjor</text>
  <text x="500" y="365" text-anchor="middle" font-family="Arial, sans-serif" font-size="10" fill="#16a34a">Forbedring</text>
  

  <rect x="590" y="300" width="140" height="70" fill="#f0f9ff" rx="4"/>
  <text x="660" y="320" text-anchor="middle" font-family="Arial, sans-serif" font-size="11" font-weight="bold" fill="#0284c7">Tid til besetting</text>
  <text x="660" y="340" text-anchor="middle" font-family="Arial, sans-serif" font-size="20" font-weight="bold" fill="#0284c7">42 dager</text>
  <text x="660" y="355" text-anchor="middle" font-family="Arial, sans-serif" font-size="10" fill="#6b7280">-8 dager vs i fjor</text>
  <text x="660" y="365" text-anchor="middle" font-family="Arial, sans-serif" font-size="10" fill="#16a34a">Forbedring</text>
  

  <rect x="430" y="380" width="140" height="70" fill="#f0fdf4" rx="4"/>
  <text x="500" y="400" text-anchor="middle" font-family="Arial, sans-serif" font-size="11" font-weight="bold" fill="#16a34a">eNPS Score</text>
  <text x="500" y="420" text-anchor="middle" font-family="Arial, sans-serif" font-size="20" font-weight="bold" fill="#16a34a">+47</text>
  <text x="500" y="435" text-anchor="middle" font-family="Arial, sans-serif" font-size="10" fill="#6b7280">Høy anbefaling</text>
  <text x="500" y="445" text-anchor="middle" font-family="Arial, sans-serif" font-size="10" fill="#16a34a">Topp 10% bransje</text>
  

  <rect x="590" y="380" width="140" height="70" fill="#fefce8" rx="4"/>
  <text x="660" y="400" text-anchor="middle" font-family="Arial, sans-serif" font-size="11" font-weight="bold" fill="#ca8a04">Rekrutteringsrate</text>
  <text x="660" y="420" text-anchor="middle" font-family="Arial, sans-serif" font-size="20" font-weight="bold" fill="#ca8a04">94%</text>
  <text x="660" y="435" text-anchor="middle" font-family="Arial, sans-serif" font-size="10" fill="#6b7280">Ønsket kandidat</text>
  <text x="660" y="445" text-anchor="middle" font-family="Arial, sans-serif" font-size="10" fill="#16a34a">aksepterer tilbud</text>
  

  <rect x="50" y="480" width="700" height="100" fill="#f9fafb" stroke="#d1d5db" stroke-width="1" rx="8"/>
  <text x="400" y="505" text-anchor="middle" font-family="Arial, sans-serif" font-size="14" font-weight="bold" fill="#1f2937">Nøkkelinnsikter og Handlingsområder</text>
  
  <text x="70" y="525" font-family="Arial, sans-serif" font-size="11" fill="#1f2937">• Velferdstiltak bidrar sterkt til ansattretensjon og rekruttering</text>
  <text x="70" y="540" font-family="Arial, sans-serif" font-size="11" fill="#1f2937">• Pensjon og helseforsikring har høyest verdsettelse blandt ansatte</text>
  <text x="70" y="555" font-family="Arial, sans-serif" font-size="11" fill="#1f2937">• Cafeteria-ordninger og kompetanseutvikling har forbedringspotensial</text>
  <text x="70" y="570" font-family="Arial, sans-serif" font-size="11" fill="#1f2937">• ROI på velferdsinvesteringer viser positiv utvikling med 2.3x avkastning</text>
</svg>