<svg xmlns="http://www.w3.org/2000/svg" width="800" height="500"><defs><linearGradient id="a" x1="0%" x2="100%" y1="0%" y2="100%"><stop offset="0%" style="stop-color:#f8f9fa;stop-opacity:1"/><stop offset="100%" style="stop-color:#e9ecef;stop-opacity:1"/></linearGradient><linearGradient id="b" x1="0%" x2="100%" y1="0%" y2="100%"><stop offset="0%" style="stop-color:#28a745;stop-opacity:1"/><stop offset="100%" style="stop-color:#1e7e34;stop-opacity:1"/></linearGradient><linearGradient id="c" x1="0%" x2="100%" y1="0%" y2="100%"><stop offset="0%" style="stop-color:#dc3545;stop-opacity:1"/><stop offset="100%" style="stop-color:#c82333;stop-opacity:1"/></linearGradient></defs><path fill="url(#a)" stroke="#dee2e6" stroke-width="2" d="M0 0h800v500H0z"/><text x="400" y="30" fill="#212529" font-family="Arial, sans-serif" font-size="24" font-weight="bold" text-anchor="middle">
    Praktiske Tips for Fritaksmetoden
  </text><rect width="320" height="200" x="50" y="60" fill="url(#b)" stroke="#1e7e34" stroke-width="2" rx="15"/><text x="210" y="85" fill="#fff" font-family="Arial, sans-serif" font-size="18" font-weight="bold" text-anchor="middle">
    ✓ Beste Praksis
  </text><circle cx="80" cy="110" r="8" fill="#fff"/><text x="100" y="115" fill="#fff" font-family="Arial, sans-serif" font-size="12" font-weight="bold">
    Planlegg timing nøye
  </text><text x="100" y="128" fill="#fff" font-family="Arial, sans-serif" font-size="10">
    Sikre 2-års eiertid før utbytte
  </text><circle cx="80" cy="145" r="8" fill="#fff"/><text x="100" y="150" fill="#fff" font-family="Arial, sans-serif" font-size="12" font-weight="bold">
    Dokumenter forretningsmessighet
  </text><text x="100" y="163" fill="#fff" font-family="Arial, sans-serif" font-size="10">
    Etabler klar begrunnelse tidlig
  </text><circle cx="80" cy="180" r="8" fill="#fff"/><text x="100" y="185" fill="#fff" font-family="Arial, sans-serif" font-size="12" font-weight="bold">
    Overvåk eierandel kontinuerlig
  </text><text x="100" y="198" fill="#fff" font-family="Arial, sans-serif" font-size="10">
    Hold deg over 10% grensen
  </text><circle cx="80" cy="215" r="8" fill="#fff"/><text x="100" y="220" fill="#fff" font-family="Arial, sans-serif" font-size="12" font-weight="bold">
    Følg regelverksendringer
  </text><text x="100" y="233" fill="#fff" font-family="Arial, sans-serif" font-size="10">
    Hold deg oppdatert på nye regler
  </text><circle cx="80" cy="245" r="8" fill="#fff"/><text x="100" y="250" fill="#fff" font-family="Arial, sans-serif" font-size="12" font-weight="bold">
    Bruk profesjonell rådgivning
  </text><rect width="320" height="200" x="430" y="60" fill="url(#c)" stroke="#c82333" stroke-width="2" rx="15"/><text x="590" y="85" fill="#fff" font-family="Arial, sans-serif" font-size="18" font-weight="bold" text-anchor="middle">
    ❌ Vanlige Feil
  </text><circle cx="460" cy="110" r="8" fill="#fff"/><text x="480" y="115" fill="#fff" font-family="Arial, sans-serif" font-size="12" font-weight="bold">
    Manglende dokumentasjon
  </text><text x="480" y="128" fill="#fff" font-family="Arial, sans-serif" font-size="10">
    Ikke dokumentert begrunnelse
  </text><circle cx="460" cy="145" r="8" fill="#fff"/><text x="480" y="150" fill="#fff" font-family="Arial, sans-serif" font-size="12" font-weight="bold">
    Feil beregning av eiertid
  </text><text x="480" y="163" fill="#fff" font-family="Arial, sans-serif" font-size="10">
    Ikke sammenhengende eierskap
  </text><circle cx="460" cy="180" r="8" fill="#fff"/><text x="480" y="185" fill="#fff" font-family="Arial, sans-serif" font-size="12" font-weight="bold">
    Utilstrekkelig rapportering
  </text><text x="480" y="198" fill="#fff" font-family="Arial, sans-serif" font-size="10">
    Mangler i selvangivelsen
  </text><circle cx="460" cy="215" r="8" fill="#fff"/><text x="480" y="220" fill="#fff" font-family="Arial, sans-serif" font-size="12" font-weight="bold">
    Ignorerer regelendringer
  </text><text x="480" y="233" fill="#fff" font-family="Arial, sans-serif" font-size="10">
    Bruker utdaterte regler
  </text><circle cx="460" cy="245" r="8" fill="#fff"/><text x="480" y="250" fill="#fff" font-family="Arial, sans-serif" font-size="12" font-weight="bold">
    Skattemotivert investering
  </text><rect width="700" height="180" x="50" y="290" fill="#fff3cd" stroke="#ffc107" stroke-width="2" rx="10"/><text x="400" y="315" fill="#856404" font-family="Arial, sans-serif" font-size="18" font-weight="bold" text-anchor="middle">
    Sjekkliste før Anvendelse av Fritaksmetoden
  </text><path fill="#fff" stroke="#856404" d="M70 330h15v15H70z"/><text x="95" y="342" fill="#856404" font-family="Arial, sans-serif" font-size="12">
    Eierandel ≥ 10% av aksjekapitalen
  </text><path fill="#fff" stroke="#856404" d="M70 350h15v15H70z"/><text x="95" y="362" fill="#856404" font-family="Arial, sans-serif" font-size="12">
    Eiertid ≥ 2 år sammenhengende
  </text><path fill="#fff" stroke="#856404" d="M70 370h15v15H70z"/><text x="95" y="382" fill="#856404" font-family="Arial, sans-serif" font-size="12">
    Forretningsmessig begrunnelse dokumentert
  </text><path fill="#fff" stroke="#856404" d="M70 390h15v15H70z"/><text x="95" y="402" fill="#856404" font-family="Arial, sans-serif" font-size="12">
    Aksjeeierbok oppdatert og korrekt
  </text><path fill="#fff" stroke="#856404" d="M70 410h15v15H70z"/><text x="95" y="422" fill="#856404" font-family="Arial, sans-serif" font-size="12">
    Beregninger av 97%/3% fordeling
  </text><path fill="#fff" stroke="#856404" d="M70 430h15v15H70z"/><text x="95" y="442" fill="#856404" font-family="Arial, sans-serif" font-size="12">
    Selvangivelse korrekt utfylt
  </text><path fill="#fff" stroke="#856404" d="M420 330h15v15h-15z"/><text x="445" y="342" fill="#856404" font-family="Arial, sans-serif" font-size="12">
    Utenlandske selskap: skattesats ≥ 10%
  </text><path fill="#fff" stroke="#856404" d="M420 350h15v15h-15z"/><text x="445" y="362" fill="#856404" font-family="Arial, sans-serif" font-size="12">
    Ikke lavskatteland-selskap
  </text><path fill="#fff" stroke="#856404" d="M420 370h15v15h-15z"/><text x="445" y="382" fill="#856404" font-family="Arial, sans-serif" font-size="12">
    Skatteavtaler vurdert hvis relevant
  </text><path fill="#fff" stroke="#856404" d="M420 390h15v15h-15z"/><text x="445" y="402" fill="#856404" font-family="Arial, sans-serif" font-size="12">
    Bokføring i henhold til reglene
  </text><path fill="#fff" stroke="#856404" d="M420 410h15v15h-15z"/><text x="445" y="422" fill="#856404" font-family="Arial, sans-serif" font-size="12">
    Oppbevaring av dokumentasjon
  </text><path fill="#fff" stroke="#856404" d="M420 430h15v15h-15z"/><text x="445" y="442" fill="#856404" font-family="Arial, sans-serif" font-size="12">
    Rådgiver konsultert ved tvil
  </text></svg>