<svg width="800" height="600" xmlns="http://www.w3.org/2000/svg">

  <rect width="800" height="600" fill="#f8f9fa"/>
  

  <text x="400" y="30" font-size="24" font-weight="bold" text-anchor="middle" fill="#2c3e50">B2C-bransjer i Norge</text>
  


  <circle cx="200" cy="120" r="60" fill="#3498db" stroke="#2c3e50" stroke-width="2"/>
  <text x="200" y="110" font-size="12" font-weight="bold" text-anchor="middle" fill="white">Detaljhandel</text>
  <text x="200" y="125" font-size="16" font-weight="bold" text-anchor="middle" fill="white">40%</text>
  <text x="200" y="140" font-size="10" text-anchor="middle" fill="white">av B2C-markedet</text>
  

  <circle cx="600" cy="120" r="55" fill="#e74c3c" stroke="#2c3e50" stroke-width="2"/>
  <text x="600" y="110" font-size="12" font-weight="bold" text-anchor="middle" fill="white">Tjenester</text>
  <text x="600" y="125" font-size="16" font-weight="bold" text-anchor="middle" fill="white">35%</text>
  <text x="600" y="140" font-size="10" text-anchor="middle" fill="white">av B2C-markedet</text>
  

  <circle cx="400" cy="180" r="45" fill="#9b59b6" stroke="#2c3e50" stroke-width="2"/>
  <text x="400" y="170" font-size="12" font-weight="bold" text-anchor="middle" fill="white">Netthandel</text>
  <text x="400" y="185" font-size="16" font-weight="bold" text-anchor="middle" fill="white">25%</text>
  <text x="400" y="200" font-size="10" text-anchor="middle" fill="white">av B2C-markedet</text>
  

  <text x="200" y="220" font-size="16" font-weight="bold" text-anchor="middle" fill="#2c3e50">Detaljhandel - Underkategorier</text>
  
  <rect x="50" y="240" width="120" height="70" fill="#3498db" rx="5"/>
  <text x="110" y="260" font-size="11" font-weight="bold" text-anchor="middle" fill="white">Dagligvarer</text>
  <text x="110" y="275" font-size="10" text-anchor="middle" fill="white">Rema 1000</text>
  <text x="110" y="290" font-size="10" text-anchor="middle" fill="white">Kiwi, Coop</text>
  <text x="110" y="305" font-size="10" text-anchor="middle" fill="white">45% av detaljhandel</text>
  
  <rect x="180" y="240" width="120" height="70" fill="#52c41a" rx="5"/>
  <text x="240" y="260" font-size="11" font-weight="bold" text-anchor="middle" fill="white">Klær &amp; Mote</text>
  <text x="240" y="275" font-size="10" text-anchor="middle" fill="white">H&amp;M, Zara</text>
  <text x="240" y="290" font-size="10" text-anchor="middle" fill="white">KappAhl, Cubus</text>
  <text x="240" y="305" font-size="10" text-anchor="middle" fill="white">25% av detaljhandel</text>
  
  <rect x="310" y="240" width="120" height="70" fill="#fa8c16" rx="5"/>
  <text x="370" y="260" font-size="11" font-weight="bold" text-anchor="middle" fill="white">Elektronikk</text>
  <text x="370" y="275" font-size="10" text-anchor="middle" fill="white">Elkjøp, Power</text>
  <text x="370" y="290" font-size="10" text-anchor="middle" fill="white">Lefdal, Komplett</text>
  <text x="370" y="305" font-size="10" text-anchor="middle" fill="white">15% av detaljhandel</text>
  

  <text x="600" y="220" font-size="16" font-weight="bold" text-anchor="middle" fill="#2c3e50">Tjenester - Underkategorier</text>
  
  <rect x="480" y="240" width="120" height="70" fill="#e74c3c" rx="5"/>
  <text x="540" y="260" font-size="11" font-weight="bold" text-anchor="middle" fill="white">Finans</text>
  <text x="540" y="275" font-size="10" text-anchor="middle" fill="white">DNB, Nordea</text>
  <text x="540" y="290" font-size="10" text-anchor="middle" fill="white">Sparebank 1</text>
  <text x="540" y="305" font-size="10" text-anchor="middle" fill="white">30% av tjenester</text>
  
  <rect x="610" y="240" width="120" height="70" fill="#722ed1" rx="5"/>
  <text x="670" y="260" font-size="11" font-weight="bold" text-anchor="middle" fill="white">Telekom</text>
  <text x="670" y="275" font-size="10" text-anchor="middle" fill="white">Telenor, Telia</text>
  <text x="670" y="290" font-size="10" text-anchor="middle" fill="white">Ice, OneCall</text>
  <text x="670" y="305" font-size="10" text-anchor="middle" fill="white">25% av tjenester</text>
  

  <text x="400" y="350" font-size="16" font-weight="bold" text-anchor="middle" fill="#2c3e50">Netthandel - Vekstområder</text>
  
  <rect x="250" y="370" width="120" height="70" fill="#9b59b6" rx="5"/>
  <text x="310" y="390" font-size="11" font-weight="bold" text-anchor="middle" fill="white">Markedsplasser</text>
  <text x="310" y="405" font-size="10" text-anchor="middle" fill="white">Finn.no, Tise</text>
  <text x="310" y="420" font-size="10" text-anchor="middle" fill="white">Facebook Market</text>
  <text x="310" y="435" font-size="10" text-anchor="middle" fill="white">Vekst: 15% årlig</text>
  
  <rect x="380" y="370" width="120" height="70" fill="#13c2c2" rx="5"/>
  <text x="440" y="390" font-size="11" font-weight="bold" text-anchor="middle" fill="white">Abonnementer</text>
  <text x="440" y="405" font-size="10" text-anchor="middle" fill="white">Netflix, Spotify</text>
  <text x="440" y="420" font-size="10" text-anchor="middle" fill="white">NRK, TV2 Play</text>
  <text x="440" y="435" font-size="10" text-anchor="middle" fill="white">Vekst: 20% årlig</text>
  
  <rect x="510" y="370" width="120" height="70" fill="#f5222d" rx="5"/>
  <text x="570" y="390" font-size="11" font-weight="bold" text-anchor="middle" fill="white">Matlevering</text>
  <text x="570" y="405" font-size="10" text-anchor="middle" fill="white">Foodora, Wolt</text>
  <text x="570" y="420" font-size="10" text-anchor="middle" fill="white">Uber Eats</text>
  <text x="570" y="435" font-size="10" text-anchor="middle" fill="white">Vekst: 35% årlig</text>
  

  <text x="400" y="480" font-size="16" font-weight="bold" text-anchor="middle" fill="#2c3e50">Regnskapsmessig Påvirkning per Bransje</text>
  
  <rect x="50" y="500" width="220" height="80" fill="#ecf0f1" rx="5" stroke="#bdc3c7"/>
  <text x="160" y="520" font-size="12" font-weight="bold" text-anchor="middle" fill="#2c3e50">Detaljhandel</text>
  <text x="160" y="535" font-size="10" text-anchor="middle" fill="#2c3e50">• Høyt transaksjonvolum</text>
  <text x="160" y="550" font-size="10" text-anchor="middle" fill="#2c3e50">• Lagerstyring kritisk</text>
  <text x="160" y="565" font-size="10" text-anchor="middle" fill="#2c3e50">• Sesongvariasjoner</text>
  
  <rect x="290" y="500" width="220" height="80" fill="#ecf0f1" rx="5" stroke="#bdc3c7"/>
  <text x="400" y="520" font-size="12" font-weight="bold" text-anchor="middle" fill="#2c3e50">Tjenester</text>
  <text x="400" y="535" font-size="10" text-anchor="middle" fill="#2c3e50">• Periodisering av inntekter</text>
  <text x="400" y="550" font-size="10" text-anchor="middle" fill="#2c3e50">• Immaterielle eiendeler</text>
  <text x="400" y="565" font-size="10" text-anchor="middle" fill="#2c3e50">• Regulatorisk compliance</text>
  
  <rect x="530" y="500" width="220" height="80" fill="#ecf0f1" rx="5" stroke="#bdc3c7"/>
  <text x="640" y="520" font-size="12" font-weight="bold" text-anchor="middle" fill="#2c3e50">Netthandel</text>
  <text x="640" y="535" font-size="10" text-anchor="middle" fill="#2c3e50">• Automatisert regnskapsføring</text>
  <text x="640" y="550" font-size="10" text-anchor="middle" fill="#2c3e50">• Internasjonal MVA</text>
  <text x="640" y="565" font-size="10" text-anchor="middle" fill="#2c3e50">• Datahåndtering</text>
</svg>