<svg xmlns="http://www.w3.org/2000/svg" width="800" height="600"><path fill="#f8f9fa" d="M0 0h800v600H0z"/><text x="400" y="30" fill="#2c3e50" font-size="24" font-weight="bold" text-anchor="middle">B2C Fakturering og Betalingsprosess</text><text x="400" y="65" fill="#2c3e50" font-size="18" font-weight="bold" text-anchor="middle">Fakturakrav basert på beløp</text><rect width="300" height="140" x="50" y="80" fill="#2ecc71" rx="10"/><text x="200" y="105" fill="#fff" font-size="14" font-weight="bold" text-anchor="middle">Forenklet Faktura</text><text x="200" y="125" fill="#fff" font-size="12" text-anchor="middle">Under 5.000 NOK</text><text x="200" y="150" fill="#fff" font-size="10" text-anchor="middle">Obligatoriske felter:</text><text x="200" y="165" fill="#fff" font-size="10" text-anchor="middle">• Utstedelsesdato</text><text x="200" y="180" fill="#fff" font-size="10" text-anchor="middle">• Selgers navn og org.nr</text><text x="200" y="195" fill="#fff" font-size="10" text-anchor="middle">• Beskrivelse av vare/tjeneste</text><text x="200" y="210" fill="#fff" font-size="10" text-anchor="middle">• Totalt vederlag inkl. MVA</text><rect width="300" height="140" x="370" y="80" fill="#3498db" rx="10"/><text x="520" y="105" fill="#fff" font-size="14" font-weight="bold" text-anchor="middle">Vanlig Faktura</text><text x="520" y="125" fill="#fff" font-size="12" text-anchor="middle">Over 5.000 NOK</text><text x="520" y="150" fill="#fff" font-size="10" text-anchor="middle">Tilleggskrav:</text><text x="520" y="165" fill="#fff" font-size="10" text-anchor="middle">• Løpende fakturanummer</text><text x="520" y="180" fill="#fff" font-size="10" text-anchor="middle">• Kundens navn og adresse</text><text x="520" y="195" fill="#fff" font-size="10" text-anchor="middle">• Leveringsdato</text><text x="520" y="210" fill="#fff" font-size="10" text-anchor="middle">• Detaljert varespecifikasjon</text><text x="400" y="260" fill="#2c3e50" font-size="18" font-weight="bold" text-anchor="middle">Betalingsmetoder - Sammenligning</text><rect width="700" height="200" x="50" y="280" fill="#ecf0f1" rx="10"/><path fill="#34495e" d="M60 290h100v30H60z"/><text x="110" y="310" fill="#fff" font-size="10" font-weight="bold" text-anchor="middle">Betalingsmetode</text><path fill="#34495e" d="M160 290h100v30H160z"/><text x="210" y="310" fill="#fff" font-size="10" font-weight="bold" text-anchor="middle">Markedsandel</text><path fill="#34495e" d="M260 290h120v30H260z"/><text x="320" y="310" fill="#fff" font-size="10" font-weight="bold" text-anchor="middle">Gebyr/Kostnad</text><path fill="#34495e" d="M380 290h120v30H380z"/><text x="440" y="310" fill="#fff" font-size="10" font-weight="bold" text-anchor="middle">Oppgjørstid</text><path fill="#34495e" d="M500 290h120v30H500z"/><text x="560" y="310" fill="#fff" font-size="10" font-weight="bold" text-anchor="middle">Risiko</text><path fill="#34495e" d="M620 290h120v30H620z"/><text x="680" y="310" fill="#fff" font-size="10" font-weight="bold" text-anchor="middle">Regnskapsmessig</text><path fill="#3498db" d="M60 320h100v25H60z"/><text x="110" y="337" fill="#fff" font-size="9" font-weight="bold" text-anchor="middle">Kortbetaling</text><text x="210" y="337" fill="#2c3e50" font-size="9" text-anchor="middle">60-70%</text><text x="320" y="337" fill="#2c3e50" font-size="9" text-anchor="middle">1-3% + fast gebyr</text><text x="440" y="337" fill="#2c3e50" font-size="9" text-anchor="middle">T+2 dager</text><text x="560" y="337" fill="#2c3e50" font-size="9" text-anchor="middle">Chargeback</text><text x="680" y="337" fill="#2c3e50" font-size="9" text-anchor="middle">Automatisk</text><path fill="#ff6b35" d="M60 345h100v25H60z"/><text x="110" y="362" fill="#fff" font-size="9" font-weight="bold" text-anchor="middle">Vipps</text><text x="210" y="362" fill="#2c3e50" font-size="9" text-anchor="middle">20-25%</text><text x="320" y="362" fill="#2c3e50" font-size="9" text-anchor="middle">1-2% + fast gebyr</text><text x="440" y="362" fill="#2c3e50" font-size="9" text-anchor="middle">Umiddelbart</text><text x="560" y="362" fill="#2c3e50" font-size="9" text-anchor="middle">Svært lav</text><text x="680" y="362" fill="#2c3e50" font-size="9" text-anchor="middle">Automatisk</text><path fill="#ffb142" d="M60 370h100v25H60z"/><text x="110" y="387" fill="#fff" font-size="9" font-weight="bold" text-anchor="middle">Klarna</text><text x="210" y="387" fill="#2c3e50" font-size="9" text-anchor="middle">10-15%</text><text x="320" y="387" fill="#2c3e50" font-size="9" text-anchor="middle">2-5% + fast gebyr</text><text x="440" y="387" fill="#2c3e50" font-size="9" text-anchor="middle">T+1 dag</text><text x="560" y="387" fill="#2c3e50" font-size="9" text-anchor="middle">Kredittrisiko</text><text x="680" y="387" fill="#2c3e50" font-size="9" text-anchor="middle">Garantert</text><path fill="#2ecc71" d="M60 395h100v25H60z"/><text x="110" y="412" fill="#fff" font-size="9" font-weight="bold" text-anchor="middle">Faktura</text><text x="210" y="412" fill="#2c3e50" font-size="9" text-anchor="middle">5-10%</text><text x="320" y="412" fill="#2c3e50" font-size="9" text-anchor="middle">Admin + inkasso</text><text x="440" y="412" fill="#2c3e50" font-size="9" text-anchor="middle">14-30 dager</text><text x="560" y="412" fill="#2c3e50" font-size="9" text-anchor="middle">Høy kredittrisiko</text><text x="680" y="412" fill="#2c3e50" font-size="9" text-anchor="middle">Fordringshåndtering</text><path fill="#0070ba" d="M60 420h100v25H60z"/><text x="110" y="437" fill="#fff" font-size="9" font-weight="bold" text-anchor="middle">PayPal</text><text x="210" y="437" fill="#2c3e50" font-size="9" text-anchor="middle">2-3%</text><text x="320" y="437" fill="#2c3e50" font-size="9" text-anchor="middle">2.9% + fast gebyr</text><text x="440" y="437" fill="#2c3e50" font-size="9" text-anchor="middle">Umiddelbart</text><text x="560" y="437" fill="#2c3e50" font-size="9" text-anchor="middle">Kjøperbeskyttelse</text><text x="680" y="437" fill="#2c3e50" font-size="9" text-anchor="middle">Valutarisiko</text><path fill="#95a5a6" d="M60 445h100v25H60z"/><text x="110" y="462" fill="#fff" font-size="9" font-weight="bold" text-anchor="middle">Kontant</text><text x="210" y="462" fill="#2c3e50" font-size="9" text-anchor="middle">1-2%</text><text x="320" y="462" fill="#2c3e50" font-size="9" text-anchor="middle">Ingen gebyr</text><text x="440" y="462" fill="#2c3e50" font-size="9" text-anchor="middle">Umiddelbart</text><text x="560" y="462" fill="#2c3e50" font-size="9" text-anchor="middle">Tyveri, feil</text><text x="680" y="462" fill="#2c3e50" font-size="9" text-anchor="middle">Manuell håndtering</text><text x="400" y="520" fill="#2c3e50" font-size="18" font-weight="bold" text-anchor="middle">Elektronisk Fakturering (EHF/eFaktura)</text><rect width="150" height="50" x="50" y="540" fill="#9b59b6" rx="5"/><text x="125" y="560" fill="#fff" font-size="10" font-weight="bold" text-anchor="middle">1. Faktura sendes</text><text x="125" y="575" fill="#fff" font-size="9" text-anchor="middle">EHF-format til PEPPOL</text><rect width="150" height="50" x="220" y="540" fill="#9b59b6" rx="5"/><text x="295" y="560" fill="#fff" font-size="10" font-weight="bold" text-anchor="middle">2. Mottak i nettbank</text><text x="295" y="575" fill="#fff" font-size="9" text-anchor="middle">Kunde ser faktura digitalt</text><rect width="150" height="50" x="390" y="540" fill="#9b59b6" rx="5"/><text x="465" y="560" fill="#fff" font-size="10" font-weight="bold" text-anchor="middle">3. Automatisk betaling</text><text x="465" y="575" fill="#fff" font-size="9" text-anchor="middle">Kan settes opp eFaktura</text><rect width="150" height="50" x="560" y="540" fill="#9b59b6" rx="5"/><text x="635" y="560" fill="#fff" font-size="10" font-weight="bold" text-anchor="middle">4. Avstemming</text><text x="635" y="575" fill="#fff" font-size="9" text-anchor="middle">Automatisk registrering</text><path fill="#2c3e50" d="m205 565 10-5v10zM375 565l10-5v10zM545 565l10-5v10z"/></svg>