<svg width="800" height="500" xmlns="http://www.w3.org/2000/svg">

  <rect width="800" height="500" fill="#f8f9fa"/>
  

  <text x="400" y="30" font-size="24" font-weight="bold" text-anchor="middle" fill="#2c3e50">MVA-behandling i B2C-handel</text>
  

  <text x="400" y="65" font-size="18" font-weight="bold" text-anchor="middle" fill="#2c3e50">Standard MVA-satser</text>
  

  <rect x="50" y="90" width="150" height="80" fill="#e74c3c" rx="10"/>
  <text x="125" y="115" font-size="20" font-weight="bold" text-anchor="middle" fill="white">25%</text>
  <text x="125" y="135" font-size="12" text-anchor="middle" fill="white">Alminnelige varer</text>
  <text x="125" y="150" font-size="10" text-anchor="middle" fill="white">Klær, elektronikk</text>
  <text x="125" y="160" font-size="10" text-anchor="middle" fill="white">tjenester</text>
  

  <rect x="220" y="90" width="150" height="80" fill="#f39c12" rx="10"/>
  <text x="295" y="115" font-size="20" font-weight="bold" text-anchor="middle" fill="white">15%</text>
  <text x="295" y="135" font-size="12" text-anchor="middle" fill="white">Næringsmidler</text>
  <text x="295" y="150" font-size="10" text-anchor="middle" fill="white">Dagligvarer</text>
  <text x="295" y="160" font-size="10" text-anchor="middle" fill="white">drikkevarer</text>
  

  <rect x="390" y="90" width="150" height="80" fill="#3498db" rx="10"/>
  <text x="465" y="115" font-size="20" font-weight="bold" text-anchor="middle" fill="white">12%</text>
  <text x="465" y="135" font-size="12" text-anchor="middle" fill="white">Transport</text>
  <text x="465" y="150" font-size="10" text-anchor="middle" fill="white">Hotell, fly</text>
  <text x="465" y="160" font-size="10" text-anchor="middle" fill="white">kollektivtransport</text>
  

  <rect x="560" y="90" width="150" height="80" fill="#27ae60" rx="10"/>
  <text x="635" y="115" font-size="20" font-weight="bold" text-anchor="middle" fill="white">0%</text>
  <text x="635" y="135" font-size="12" text-anchor="middle" fill="white">Fritatte varer</text>
  <text x="635" y="150" font-size="10" text-anchor="middle" fill="white">Bøker, aviser</text>
  <text x="635" y="160" font-size="10" text-anchor="middle" fill="white">legemidler</text>
  

  <text x="400" y="210" font-size="18" font-weight="bold" text-anchor="middle" fill="#2c3e50">Netthandel og Grenseløs Handel</text>
  

  <rect x="50" y="230" width="200" height="120" fill="#9b59b6" rx="10"/>
  <text x="150" y="250" font-size="14" font-weight="bold" text-anchor="middle" fill="white">VOEC-ordningen</text>
  <text x="150" y="270" font-size="12" text-anchor="middle" fill="white">VAT One-Stop-Shop</text>
  <text x="150" y="290" font-size="10" text-anchor="middle" fill="white">• Forenklet EU-handel</text>
  <text x="150" y="305" font-size="10" text-anchor="middle" fill="white">• Registrering i ett land</text>
  <text x="150" y="320" font-size="10" text-anchor="middle" fill="white">• Kvartalsrapportering</text>
  <text x="150" y="335" font-size="10" text-anchor="middle" fill="white">• Automatisk fordeling</text>
  

  <rect x="270" y="230" width="200" height="120" fill="#e67e22" rx="10"/>
  <text x="370" y="250" font-size="14" font-weight="bold" text-anchor="middle" fill="white">Terskelverdier</text>
  <text x="370" y="270" font-size="12" text-anchor="middle" fill="white">Registrering i andre land</text>
  <text x="370" y="290" font-size="10" text-anchor="middle" fill="white">• Tyskland: 10.000 EUR</text>
  <text x="370" y="305" font-size="10" text-anchor="middle" fill="white">• Sverige: 320.000 SEK</text>
  <text x="370" y="320" font-size="10" text-anchor="middle" fill="white">• Danmark: 280.000 DKK</text>
  <text x="370" y="335" font-size="10" text-anchor="middle" fill="white">• Overvåking nødvendig</text>
  

  <rect x="490" y="230" width="200" height="120" fill="#1abc9c" rx="10"/>
  <text x="590" y="250" font-size="14" font-weight="bold" text-anchor="middle" fill="white">Digitale Tjenester</text>
  <text x="590" y="270" font-size="12" text-anchor="middle" fill="white">Mottakerlands MVA</text>
  <text x="590" y="290" font-size="10" text-anchor="middle" fill="white">• Netflix, Spotify</text>
  <text x="590" y="305" font-size="10" text-anchor="middle" fill="white">• Programvare (SaaS)</text>
  <text x="590" y="320" font-size="10" text-anchor="middle" fill="white">• Online-kurs</text>
  <text x="590" y="335" font-size="10" text-anchor="middle" fill="white">• Konsultasjon</text>
  

  <text x="400" y="385" font-size="18" font-weight="bold" text-anchor="middle" fill="#2c3e50">MVA-rapportering i B2C</text>
  

  <rect x="50" y="400" width="120" height="60" fill="#34495e" rx="5"/>
  <text x="110" y="420" font-size="10" font-weight="bold" text-anchor="middle" fill="white">1. Registrering</text>
  <text x="110" y="435" font-size="9" text-anchor="middle" fill="white">MVA-register</text>
  <text x="110" y="450" font-size="9" text-anchor="middle" fill="white">Skatteetaten</text>
  
  <rect x="190" y="400" width="120" height="60" fill="#34495e" rx="5"/>
  <text x="250" y="420" font-size="10" font-weight="bold" text-anchor="middle" fill="white">2. Beregning</text>
  <text x="250" y="435" font-size="9" text-anchor="middle" fill="white">Korrekt sats</text>
  <text x="250" y="450" font-size="9" text-anchor="middle" fill="white">per produktgruppe</text>
  
  <rect x="330" y="400" width="120" height="60" fill="#34495e" rx="5"/>
  <text x="390" y="420" font-size="10" font-weight="bold" text-anchor="middle" fill="white">3. Fakturering</text>
  <text x="390" y="435" font-size="9" text-anchor="middle" fill="white">MVA inkludert</text>
  <text x="390" y="450" font-size="9" text-anchor="middle" fill="white">i salgspris</text>
  
  <rect x="470" y="400" width="120" height="60" fill="#34495e" rx="5"/>
  <text x="530" y="420" font-size="10" font-weight="bold" text-anchor="middle" fill="white">4. Innkreving</text>
  <text x="530" y="435" font-size="9" text-anchor="middle" fill="white">Fra kunde</text>
  <text x="530" y="450" font-size="9" text-anchor="middle" fill="white">ved salg</text>
  
  <rect x="610" y="400" width="120" height="60" fill="#34495e" rx="5"/>
  <text x="670" y="420" font-size="10" font-weight="bold" text-anchor="middle" fill="white">5. Rapportering</text>
  <text x="670" y="435" font-size="9" text-anchor="middle" fill="white">MVA-melding</text>
  <text x="670" y="450" font-size="9" text-anchor="middle" fill="white">månedlig/årlig</text>
  

  <polygon points="175,430 185,425 185,435" fill="#2c3e50"/>
  <polygon points="315,430 325,425 325,435" fill="#2c3e50"/>
  <polygon points="455,430 465,425 465,435" fill="#2c3e50"/>
  <polygon points="595,430 605,425 605,435" fill="#2c3e50"/>
  

  <text x="400" y="485" font-size="12" font-weight="bold" text-anchor="middle" fill="#e74c3c">Best Practice: Automatiser MVA-beregning og rapportering for å sikre compliance</text>
</svg>