<svg xmlns="http://www.w3.org/2000/svg" width="800" height="500"><path fill="#f8f9fa" d="M0 0h800v500H0z"/><text x="400" y="30" fill="#2c3e50" font-size="24" font-weight="bold" text-anchor="middle">MVA-behandling i B2C-handel</text><text x="400" y="65" fill="#2c3e50" font-size="18" font-weight="bold" text-anchor="middle">Standard MVA-satser</text><rect width="150" height="80" x="50" y="90" fill="#e74c3c" rx="10"/><text x="125" y="115" fill="#fff" font-size="20" font-weight="bold" text-anchor="middle">25%</text><text x="125" y="135" fill="#fff" font-size="12" text-anchor="middle">Alminnelige varer</text><text x="125" y="150" fill="#fff" font-size="10" text-anchor="middle">Klær, elektronikk</text><text x="125" y="160" fill="#fff" font-size="10" text-anchor="middle">tjenester</text><rect width="150" height="80" x="220" y="90" fill="#f39c12" rx="10"/><text x="295" y="115" fill="#fff" font-size="20" font-weight="bold" text-anchor="middle">15%</text><text x="295" y="135" fill="#fff" font-size="12" text-anchor="middle">Næringsmidler</text><text x="295" y="150" fill="#fff" font-size="10" text-anchor="middle">Dagligvarer</text><text x="295" y="160" fill="#fff" font-size="10" text-anchor="middle">drikkevarer</text><rect width="150" height="80" x="390" y="90" fill="#3498db" rx="10"/><text x="465" y="115" fill="#fff" font-size="20" font-weight="bold" text-anchor="middle">12%</text><text x="465" y="135" fill="#fff" font-size="12" text-anchor="middle">Transport</text><text x="465" y="150" fill="#fff" font-size="10" text-anchor="middle">Hotell, fly</text><text x="465" y="160" fill="#fff" font-size="10" text-anchor="middle">kollektivtransport</text><rect width="150" height="80" x="560" y="90" fill="#27ae60" rx="10"/><text x="635" y="115" fill="#fff" font-size="20" font-weight="bold" text-anchor="middle">0%</text><text x="635" y="135" fill="#fff" font-size="12" text-anchor="middle">Fritatte varer</text><text x="635" y="150" fill="#fff" font-size="10" text-anchor="middle">Bøker, aviser</text><text x="635" y="160" fill="#fff" font-size="10" text-anchor="middle">legemidler</text><text x="400" y="210" fill="#2c3e50" font-size="18" font-weight="bold" text-anchor="middle">Netthandel og Grenseløs Handel</text><rect width="200" height="120" x="50" y="230" fill="#9b59b6" rx="10"/><text x="150" y="250" fill="#fff" font-size="14" font-weight="bold" text-anchor="middle">VOEC-ordningen</text><text x="150" y="270" fill="#fff" font-size="12" text-anchor="middle">VAT One-Stop-Shop</text><text x="150" y="290" fill="#fff" font-size="10" text-anchor="middle">• Forenklet EU-handel</text><text x="150" y="305" fill="#fff" font-size="10" text-anchor="middle">• Registrering i ett land</text><text x="150" y="320" fill="#fff" font-size="10" text-anchor="middle">• Kvartalsrapportering</text><text x="150" y="335" fill="#fff" font-size="10" text-anchor="middle">• Automatisk fordeling</text><rect width="200" height="120" x="270" y="230" fill="#e67e22" rx="10"/><text x="370" y="250" fill="#fff" font-size="14" font-weight="bold" text-anchor="middle">Terskelverdier</text><text x="370" y="270" fill="#fff" font-size="12" text-anchor="middle">Registrering i andre land</text><text x="370" y="290" fill="#fff" font-size="10" text-anchor="middle">• Tyskland: 10.000 EUR</text><text x="370" y="305" fill="#fff" font-size="10" text-anchor="middle">• Sverige: 320.000 SEK</text><text x="370" y="320" fill="#fff" font-size="10" text-anchor="middle">• Danmark: 280.000 DKK</text><text x="370" y="335" fill="#fff" font-size="10" text-anchor="middle">• Overvåking nødvendig</text><rect width="200" height="120" x="490" y="230" fill="#1abc9c" rx="10"/><text x="590" y="250" fill="#fff" font-size="14" font-weight="bold" text-anchor="middle">Digitale Tjenester</text><text x="590" y="270" fill="#fff" font-size="12" text-anchor="middle">Mottakerlands MVA</text><text x="590" y="290" fill="#fff" font-size="10" text-anchor="middle">• Netflix, Spotify</text><text x="590" y="305" fill="#fff" font-size="10" text-anchor="middle">• Programvare (SaaS)</text><text x="590" y="320" fill="#fff" font-size="10" text-anchor="middle">• Online-kurs</text><text x="590" y="335" fill="#fff" font-size="10" text-anchor="middle">• Konsultasjon</text><text x="400" y="385" fill="#2c3e50" font-size="18" font-weight="bold" text-anchor="middle">MVA-rapportering i B2C</text><rect width="120" height="60" x="50" y="400" fill="#34495e" rx="5"/><text x="110" y="420" fill="#fff" font-size="10" font-weight="bold" text-anchor="middle">1. Registrering</text><text x="110" y="435" fill="#fff" font-size="9" text-anchor="middle">MVA-register</text><text x="110" y="450" fill="#fff" font-size="9" text-anchor="middle">Skatteetaten</text><rect width="120" height="60" x="190" y="400" fill="#34495e" rx="5"/><text x="250" y="420" fill="#fff" font-size="10" font-weight="bold" text-anchor="middle">2. Beregning</text><text x="250" y="435" fill="#fff" font-size="9" text-anchor="middle">Korrekt sats</text><text x="250" y="450" fill="#fff" font-size="9" text-anchor="middle">per produktgruppe</text><rect width="120" height="60" x="330" y="400" fill="#34495e" rx="5"/><text x="390" y="420" fill="#fff" font-size="10" font-weight="bold" text-anchor="middle">3. Fakturering</text><text x="390" y="435" fill="#fff" font-size="9" text-anchor="middle">MVA inkludert</text><text x="390" y="450" fill="#fff" font-size="9" text-anchor="middle">i salgspris</text><rect width="120" height="60" x="470" y="400" fill="#34495e" rx="5"/><text x="530" y="420" fill="#fff" font-size="10" font-weight="bold" text-anchor="middle">4. Innkreving</text><text x="530" y="435" fill="#fff" font-size="9" text-anchor="middle">Fra kunde</text><text x="530" y="450" fill="#fff" font-size="9" text-anchor="middle">ved salg</text><rect width="120" height="60" x="610" y="400" fill="#34495e" rx="5"/><text x="670" y="420" fill="#fff" font-size="10" font-weight="bold" text-anchor="middle">5. Rapportering</text><text x="670" y="435" fill="#fff" font-size="9" text-anchor="middle">MVA-melding</text><text x="670" y="450" fill="#fff" font-size="9" text-anchor="middle">månedlig/årlig</text><path fill="#2c3e50" d="m175 430 10-5v10zM315 430l10-5v10zM455 430l10-5v10zM595 430l10-5v10z"/><text x="400" y="485" fill="#e74c3c" font-size="12" font-weight="bold" text-anchor="middle">Best Practice: Automatiser MVA-beregning og rapportering for å sikre compliance</text></svg>