<svg xmlns="http://www.w3.org/2000/svg" viewBox="0 0 800 600"><path fill="#f8f9fa" d="M0 0h800v600H0z"/><text x="400" y="30" fill="#2c3e50" font-family="Arial, sans-serif" font-size="24" font-weight="bold" text-anchor="middle">SFDR Risikostyring</text><rect width="700" height="480" x="50" y="60" fill="#fff" stroke="#3498db" stroke-width="2" rx="10"/><rect width="320" height="420" x="80" y="90" fill="#ecf0f1" stroke="#7f8c8d" rx="5"/><text x="240" y="115" fill="#2c3e50" font-family="Arial, sans-serif" font-size="16" font-weight="bold" text-anchor="middle">Tradisjonell Risikostyring</text><rect width="280" height="60" x="100" y="140" fill="#3498db" stroke="#2980b9" rx="5"/><text x="240" y="160" fill="#fff" font-family="Arial, sans-serif" font-size="12" font-weight="bold" text-anchor="middle">Markedsrisiko</text><text x="240" y="180" fill="#fff" font-family="Arial, sans-serif" font-size="10" text-anchor="middle">Prisvolatilitet og markedsendringer</text><rect width="280" height="60" x="100" y="220" fill="#e74c3c" stroke="#c0392b" rx="5"/><text x="240" y="240" fill="#fff" font-family="Arial, sans-serif" font-size="12" font-weight="bold" text-anchor="middle">Kredittrisiko</text><text x="240" y="260" fill="#fff" font-family="Arial, sans-serif" font-size="10" text-anchor="middle">Misligholdelse og kreditttap</text><rect width="280" height="60" x="100" y="300" fill="#f39c12" stroke="#d68910" rx="5"/><text x="240" y="320" fill="#fff" font-family="Arial, sans-serif" font-size="12" font-weight="bold" text-anchor="middle">Operasjonell Risiko</text><text x="240" y="340" fill="#fff" font-family="Arial, sans-serif" font-size="10" text-anchor="middle">Prosessfeil og systemsvikt</text><rect width="280" height="60" x="100" y="380" fill="#9b59b6" stroke="#8e44ad" rx="5"/><text x="240" y="400" fill="#fff" font-family="Arial, sans-serif" font-size="12" font-weight="bold" text-anchor="middle">Likviditetsrisiko</text><text x="240" y="420" fill="#fff" font-family="Arial, sans-serif" font-size="10" text-anchor="middle">Finansieringsutfordringer</text><rect width="320" height="420" x="420" y="90" fill="#e8f5e8" stroke="#27ae60" rx="5"/><text x="580" y="115" fill="#2c3e50" font-family="Arial, sans-serif" font-size="16" font-weight="bold" text-anchor="middle">SFDR Risikostyring</text><rect width="280" height="60" x="440" y="140" fill="#27ae60" stroke="#229954" rx="5"/><text x="580" y="160" fill="#fff" font-family="Arial, sans-serif" font-size="12" font-weight="bold" text-anchor="middle">Fysisk Klimarisiko</text><text x="580" y="180" fill="#fff" font-family="Arial, sans-serif" font-size="10" text-anchor="middle">Ekstremvær og naturkatastrofer</text><rect width="280" height="60" x="440" y="220" fill="#16a085" stroke="#138d75" rx="5"/><text x="580" y="240" fill="#fff" font-family="Arial, sans-serif" font-size="12" font-weight="bold" text-anchor="middle">Overgangsrisiko</text><text x="580" y="260" fill="#fff" font-family="Arial, sans-serif" font-size="10" text-anchor="middle">Regulatorisk og teknologisk skifte</text><rect width="280" height="60" x="440" y="300" fill="#2ecc71" stroke="#27ae60" rx="5"/><text x="580" y="320" fill="#fff" font-family="Arial, sans-serif" font-size="12" font-weight="bold" text-anchor="middle">Sosial Risiko</text><text x="580" y="340" fill="#fff" font-family="Arial, sans-serif" font-size="10" text-anchor="middle">Arbeidskonflikter og sosiale forhold</text><rect width="280" height="60" x="440" y="380" fill="#58d68d" stroke="#52c370" rx="5"/><text x="580" y="400" fill="#fff" font-family="Arial, sans-serif" font-size="12" font-weight="bold" text-anchor="middle">Governance-risiko</text><text x="580" y="420" fill="#fff" font-family="Arial, sans-serif" font-size="10" text-anchor="middle">Styringsfeil og omdømmerisiko</text><path fill="none" stroke="#34495e" stroke-width="2" marker-end="url(#a)" d="M400 170h40"/><path fill="none" stroke="#34495e" stroke-width="2" marker-end="url(#a)" d="M400 250h40"/><path fill="none" stroke="#34495e" stroke-width="2" marker-end="url(#a)" d="M400 330h40"/><path fill="none" stroke="#34495e" stroke-width="2" marker-end="url(#a)" d="M400 410h40"/><defs><marker id="a" markerHeight="7" markerWidth="10" orient="auto" refX="9" refY="3.5"><path fill="#34495e" d="m0 0 10 3.5L0 7z"/></marker></defs><text x="400" y="480" fill="#27ae60" font-family="Arial, sans-serif" font-size="12" font-weight="bold" text-anchor="middle">ESG-integrering</text><rect width="700" height="40" x="50" y="550" fill="#fff" stroke="#bdc3c7" rx="5"/><text x="70" y="565" fill="#2c3e50" font-family="Arial, sans-serif" font-size="10" font-weight="bold">Nøkkelkomponenter:</text><text x="70" y="578" fill="#2c3e50" font-family="Arial, sans-serif" font-size="9">• PAI-rapportering • Bærekraftsintegrasjon • Due diligence • Risikoscenarier • Kapitallokering</text><rect width="150" height="70" x="580" y="465" fill="#fff" stroke="#bdc3c7" rx="3"/><text x="590" y="480" fill="#2c3e50" font-family="Arial, sans-serif" font-size="10" font-weight="bold">Forklaring:</text><path fill="#3498db" d="M590 485h12v8h-12z"/><text x="610" y="492" fill="#2c3e50" font-family="Arial, sans-serif" font-size="8">Tradisjonell risiko</text><path fill="#27ae60" d="M590 498h12v8h-12z"/><text x="610" y="505" fill="#2c3e50" font-family="Arial, sans-serif" font-size="8">SFDR-risiko</text><text x="590" y="520" fill="#2c3e50" font-family="Arial, sans-serif" font-size="8">→ Integrering</text></svg>