<svg xmlns="http://www.w3.org/2000/svg" width="800" height="600" viewBox="0 0 800 600"><defs><linearGradient id="a" x1="0%" x2="100%" y1="0%" y2="100%"><stop offset="0%" style="stop-color:#4caf50;stop-opacity:1"/><stop offset="100%" style="stop-color:#2e7d32;stop-opacity:1"/></linearGradient><linearGradient id="c" x1="0%" x2="100%" y1="0%" y2="100%"><stop offset="0%" style="stop-color:#2196f3;stop-opacity:1"/><stop offset="100%" style="stop-color:#1565c0;stop-opacity:1"/></linearGradient><linearGradient id="b" x1="0%" x2="100%" y1="0%" y2="0%"><stop offset="0%" style="stop-color:#607d8b;stop-opacity:1"/><stop offset="100%" style="stop-color:#37474f;stop-opacity:1"/></linearGradient></defs><path fill="#f8f9fa" d="M0 0h800v600H0z"/><text x="400" y="40" fill="#333" font-family="Arial, sans-serif" font-size="24" font-weight="bold" text-anchor="middle">
    Driftsinntekter i Årsregnskapet
  </text><g transform="translate(50 80)"><rect width="350" height="400" fill="url(#a)" opacity=".9" rx="10"/><text x="175" y="25" fill="#fff" font-family="Arial, sans-serif" font-size="18" font-weight="bold" text-anchor="middle">
      Resultatregnskap
    </text><text x="175" y="45" fill="#fff" font-family="Arial, sans-serif" font-size="14" text-anchor="middle">
      Standard oppstilling
    </text><path fill="url(#b)" d="M0 0h310v25H0z" transform="translate(20 65)"/><text x="155" y="18" fill="#fff" font-family="Arial, sans-serif" font-size="14" font-weight="bold" text-anchor="middle" transform="translate(20 65)">
        RESULTATREGNSKAP
      </text><path fill="#fff" d="M20 100h310v25H20z" opacity=".3"/><text x="10" y="52" fill="#fff" font-family="Arial, sans-serif" font-size="12" font-weight="bold" transform="translate(20 65)">
        DRIFTSINNTEKTER
      </text><path fill="#fff" d="M20 125h310v20H20z" opacity=".1"/><text x="20" y="75" fill="#fff" font-family="Arial, sans-serif" font-size="11" transform="translate(20 65)">Salgsinntekter</text><text x="250" y="75" fill="#fff" font-family="Arial, sans-serif" font-size="11" transform="translate(20 65)">X XXX XXX</text><path fill="#fff" d="M20 145h310v20H20z" opacity=".1"/><text x="20" y="95" fill="#fff" font-family="Arial, sans-serif" font-size="11" transform="translate(20 65)">Andre driftsinntekter</text><text x="270" y="95" fill="#fff" font-family="Arial, sans-serif" font-size="11" transform="translate(20 65)">XXX XXX</text><path fill="#fff" d="M20 165h310v20H20z" opacity=".2"/><text x="10" y="115" fill="#fff" font-family="Arial, sans-serif" font-size="11" font-weight="bold" transform="translate(20 65)">Sum driftsinntekter</text><text x="250" y="115" fill="#fff" font-family="Arial, sans-serif" font-size="11" font-weight="bold" transform="translate(20 65)">X XXX XXX</text><path fill="#fff" d="M20 195h310v25H20z" opacity=".3"/><text x="10" y="147" fill="#fff" font-family="Arial, sans-serif" font-size="12" font-weight="bold" transform="translate(20 65)">
        DRIFTSKOSTNADER
      </text><path fill="#fff" d="M20 220h310v20H20z" opacity=".1"/><text x="20" y="170" fill="#fff" font-family="Arial, sans-serif" font-size="11" transform="translate(20 65)">Varekostnad</text><text x="240" y="170" fill="#fff" font-family="Arial, sans-serif" font-size="11" transform="translate(20 65)">-X XXX XXX</text><path fill="#fff" d="M20 240h310v20H20z" opacity=".1"/><text x="20" y="190" fill="#fff" font-family="Arial, sans-serif" font-size="11" transform="translate(20 65)">Lønnskostnad</text><text x="260" y="190" fill="#fff" font-family="Arial, sans-serif" font-size="11" transform="translate(20 65)">-XXX XXX</text><path fill="#fff" d="M20 260h310v20H20z" opacity=".1"/><text x="20" y="210" fill="#fff" font-family="Arial, sans-serif" font-size="11" transform="translate(20 65)">Avskrivninger</text><text x="260" y="210" fill="#fff" font-family="Arial, sans-serif" font-size="11" transform="translate(20 65)">-XXX XXX</text><path fill="#fff" d="M20 280h310v20H20z" opacity=".1"/><text x="20" y="230" fill="#fff" font-family="Arial, sans-serif" font-size="11" transform="translate(20 65)">Andre driftskostnader</text><text x="260" y="230" fill="#fff" font-family="Arial, sans-serif" font-size="11" transform="translate(20 65)">-XXX XXX</text><path fill="#fff" d="M20 300h310v20H20z" opacity=".2"/><text x="10" y="250" fill="#fff" font-family="Arial, sans-serif" font-size="11" font-weight="bold" transform="translate(20 65)">Sum driftskostnader</text><text x="240" y="250" fill="#fff" font-family="Arial, sans-serif" font-size="11" font-weight="bold" transform="translate(20 65)">-X XXX XXX</text><path stroke="#fff" stroke-width="2" d="M30 325h290"/><path fill="#fff" d="M20 335h310v25H20z" opacity=".4"/><text x="10" y="287" fill="#fff" font-family="Arial, sans-serif" font-size="12" font-weight="bold" transform="translate(20 65)">DRIFTSRESULTAT</text><text x="260" y="287" fill="#fff" font-family="Arial, sans-serif" font-size="12" font-weight="bold" transform="translate(20 65)">XXX XXX</text><path fill="gold" d="M25 100h5v85h-5z"/><text x="15" y="310" fill="#fff" font-family="Arial, sans-serif" font-size="10" font-style="italic" transform="translate(20 65)">
        Driftsinntekter er grunnlaget for driftsresultatet
      </text></g><g transform="translate(420 80)"><rect width="330" height="400" fill="url(#c)" opacity=".9" rx="10"/><text x="165" y="25" fill="#fff" font-family="Arial, sans-serif" font-size="18" font-weight="bold" text-anchor="middle">
      Noteopplysninger
    </text><text x="165" y="45" fill="#fff" font-family="Arial, sans-serif" font-size="14" text-anchor="middle">
      Obligatoriske opplysninger
    </text><g fill="#fff" transform="translate(20 65)"><rect width="290" height="60" opacity=".2" rx="5"/><text x="10" y="18" font-family="Arial, sans-serif" font-size="12" font-weight="bold">
        Note 1: Regnskapsmetoder
      </text><text x="10" y="35" font-family="Arial, sans-serif" font-size="11">
        • Inntektsføringsprinsipper
      </text><text x="10" y="50" font-family="Arial, sans-serif" font-size="11">
        • Klassifisering og måling
      </text><rect width="290" height="75" y="70" opacity=".2" rx="5"/><text x="10" y="88" font-family="Arial, sans-serif" font-size="12" font-weight="bold">
        Note 2: Geografisk fordeling
      </text><text x="10" y="105" font-family="Arial, sans-serif" font-size="11">
        Norge: 15 000 000 kr (75%)
      </text><text x="10" y="120" font-family="Arial, sans-serif" font-size="11">
        Europa: 4 000 000 kr (20%)
      </text><text x="10" y="135" font-family="Arial, sans-serif" font-size="11">
        Andre: 1 000 000 kr (5%)
      </text><rect width="290" height="75" y="155" opacity=".2" rx="5"/><text x="10" y="173" font-family="Arial, sans-serif" font-size="12" font-weight="bold">
        Note 3: Produktkategorier
      </text><text x="10" y="190" font-family="Arial, sans-serif" font-size="11">
        Produktsalg: 12 000 000 kr
      </text><text x="10" y="205" font-family="Arial, sans-serif" font-size="11">
        Tjenester: 6 000 000 kr
      </text><text x="10" y="220" font-family="Arial, sans-serif" font-size="11">
        Lisenser: 2 000 000 kr
      </text><rect width="290" height="60" y="240" opacity=".2" rx="5"/><text x="10" y="258" font-family="Arial, sans-serif" font-size="12" font-weight="bold">
        Note 4: Vesentlige kunder
      </text><text x="10" y="275" font-family="Arial, sans-serif" font-size="11">
        • Ingen enkeltkunders andel &gt; 10%
      </text><text x="10" y="290" font-family="Arial, sans-serif" font-size="11">
        • Diversifisert kundebase
      </text><rect width="290" height="45" y="310" opacity=".2" rx="5"/><text x="10" y="328" font-family="Arial, sans-serif" font-size="12" font-weight="bold">
        Note 5: Sesongvariasjoner
      </text><text x="10" y="345" font-family="Arial, sans-serif" font-size="11">
        • Q4: 35% av årsinntektene
      </text></g></g><text y="20" fill="#333" font-family="Arial, sans-serif" font-size="18" font-weight="bold" transform="translate(50 500)">
      Viktige Rapporteringskrav
    </text><g transform="translate(50 535)"><rect width="160" height="50" fill="#e9ecef" stroke="#dee2e6" rx="5"/><text x="80" y="20" fill="#333" font-family="Arial, sans-serif" font-size="12" font-weight="bold" text-anchor="middle">
        Presentasjon
      </text><text x="10" y="40" fill="#555" font-family="Arial, sans-serif" font-size="11">
        Klar struktur i resultatregnskap
      </text><rect width="160" height="50" x="180" fill="#e9ecef" stroke="#dee2e6" rx="5"/><text x="260" y="20" fill="#333" font-family="Arial, sans-serif" font-size="12" font-weight="bold" text-anchor="middle">
        Spesifikasjon
      </text><text x="190" y="40" fill="#555" font-family="Arial, sans-serif" font-size="11">
        Detaljerte noteopplysninger
      </text><rect width="160" height="50" x="360" fill="#e9ecef" stroke="#dee2e6" rx="5"/><text x="440" y="20" fill="#333" font-family="Arial, sans-serif" font-size="12" font-weight="bold" text-anchor="middle">
        Sammenlignbarhet
      </text><text x="370" y="40" fill="#555" font-family="Arial, sans-serif" font-size="11">
        Konsistente prinsipper
      </text><rect width="160" height="50" x="540" fill="#e9ecef" stroke="#dee2e6" rx="5"/><text x="620" y="20" fill="#333" font-family="Arial, sans-serif" font-size="12" font-weight="bold" text-anchor="middle">
        Transparens
      </text><text x="550" y="40" fill="#555" font-family="Arial, sans-serif" font-size="11">
        Tilstrekkelige opplysninger
      </text></g></svg>