<svg xmlns="http://www.w3.org/2000/svg" width="800" height="600" viewBox="0 0 800 600"><defs><linearGradient id="b" x1="0%" x2="100%" y1="0%" y2="100%"><stop offset="0%" style="stop-color:#4caf50;stop-opacity:1"/><stop offset="100%" style="stop-color:#2e7d32;stop-opacity:1"/></linearGradient><linearGradient id="a" x1="0%" x2="100%" y1="0%" y2="100%"><stop offset="0%" style="stop-color:#2196f3;stop-opacity:1"/><stop offset="100%" style="stop-color:#1565c0;stop-opacity:1"/></linearGradient><linearGradient id="c" x1="0%" x2="100%" y1="0%" y2="100%"><stop offset="0%" style="stop-color:#ff9800;stop-opacity:1"/><stop offset="100%" style="stop-color:#e65100;stop-opacity:1"/></linearGradient></defs><path fill="#f8f9fa" d="M0 0h800v600H0z"/><text x="400" y="40" fill="#333" font-family="Arial, sans-serif" font-size="24" font-weight="bold" text-anchor="middle">
    Regnskapsføring av Driftsinntekter
  </text><g transform="translate(50 80)"><rect width="300" height="200" fill="url(#a)" opacity=".9" rx="10"/><text x="150" y="25" fill="#fff" font-family="Arial, sans-serif" font-size="18" font-weight="bold" text-anchor="middle">
      Kriterier for Inntektsføring
    </text><g transform="translate(20 50)"><circle cx="10" cy="10" r="6" fill="#fff"/><text x="8" y="15" fill="#1565c0" font-family="Arial, sans-serif" font-size="10" text-anchor="middle">1</text><text x="25" y="15" fill="#fff" font-family="Arial, sans-serif" font-size="12">Kontroll overført til kunde</text><circle cx="10" cy="35" r="6" fill="#fff"/><text x="8" y="40" fill="#1565c0" font-family="Arial, sans-serif" font-size="10" text-anchor="middle">2</text><text x="25" y="40" fill="#fff" font-family="Arial, sans-serif" font-size="12">Ytelse oppfylt</text><circle cx="10" cy="60" r="6" fill="#fff"/><text x="8" y="65" fill="#1565c0" font-family="Arial, sans-serif" font-size="10" text-anchor="middle">3</text><text x="25" y="65" fill="#fff" font-family="Arial, sans-serif" font-size="12">Pris fastsatt</text><circle cx="10" cy="85" r="6" fill="#fff"/><text x="8" y="90" fill="#1565c0" font-family="Arial, sans-serif" font-size="10" text-anchor="middle">4</text><text x="25" y="90" fill="#fff" font-family="Arial, sans-serif" font-size="12">Betaling sannsynlig</text><circle cx="10" cy="110" r="6" fill="#fff"/><text x="8" y="115" fill="#1565c0" font-family="Arial, sans-serif" font-size="10" text-anchor="middle">5</text><text x="25" y="115" fill="#fff" font-family="Arial, sans-serif" font-size="12">Risiko overført</text></g></g><g transform="translate(400 80)"><rect width="350" height="200" fill="url(#b)" opacity=".9" rx="10"/><text x="175" y="25" fill="#fff" font-family="Arial, sans-serif" font-size="18" font-weight="bold" text-anchor="middle">
      Regnskapsføringsprosess
    </text><g fill="#fff" transform="translate(20 50)"><rect width="100" height="30" opacity=".2" rx="5"/><text x="50" y="20" font-family="Arial, sans-serif" font-size="11" text-anchor="middle">1. Salg/Levering</text><path d="m110 15 15-5v10z"/><rect width="100" height="30" x="135" opacity=".2" rx="5"/><text x="185" y="20" font-family="Arial, sans-serif" font-size="11" text-anchor="middle">2. Vurder kriterier</text><path d="m185 40-5 15h10z"/><rect width="100" height="30" x="135" y="65" opacity=".2" rx="5"/><text x="185" y="85" font-family="Arial, sans-serif" font-size="11" text-anchor="middle">3. Regnskapsføring</text><path d="m125 80-15-5v10z"/><rect width="100" height="30" y="65" opacity=".2" rx="5"/><text x="50" y="85" font-family="Arial, sans-serif" font-size="11" text-anchor="middle">4. Dokumentasjon</text></g></g><g transform="translate(50 320)"><rect width="700" height="220" fill="url(#c)" opacity=".9" rx="10"/><text x="350" y="25" fill="#fff" font-family="Arial, sans-serif" font-size="18" font-weight="bold" text-anchor="middle">
      Bokføringseksempel - Varesalg
    </text><text x="20" y="50" fill="#fff" font-family="Arial, sans-serif" font-size="14" font-weight="bold">
      Scenario: Salg av varer for 100 000 kr (eks. mva)
    </text><g fill="#fff" transform="translate(50 70)"><text y="20" font-family="Arial, sans-serif" font-size="14" font-weight="bold">
        Ved salg:
      </text><rect width="280" height="60" y="30" opacity=".2" rx="5"/><text x="10" y="50" font-family="Arial, sans-serif" font-size="12">Debet: Kundefordringer    125 000</text><text x="10" y="70" font-family="Arial, sans-serif" font-size="12">Kredit: Salgsinntekter    100 000</text><text x="10" y="85" font-family="Arial, sans-serif" font-size="12">Kredit: Utgående mva       25 000</text><text x="320" y="20" font-family="Arial, sans-serif" font-size="14" font-weight="bold">
        Ved betaling:
      </text><rect width="280" height="45" x="320" y="30" opacity=".2" rx="5"/><text x="330" y="50" font-family="Arial, sans-serif" font-size="12">Debet: Bank               125 000</text><text x="330" y="70" font-family="Arial, sans-serif" font-size="12">Kredit: Kundefordringer   125 000</text></g><g fill="#fff" font-family="Arial, sans-serif"><text font-size="14" font-weight="bold" transform="translate(50 160)">
        Viktige punkter:
      </text><text y="20" font-size="12" transform="translate(50 160)">
        • Inntekt føres når varen leveres (ikke ved bestilling eller betaling)
      </text><text y="35" font-size="12" transform="translate(50 160)">
        • MVA beregnes og føres samtidig med salget
      </text><text y="50" font-size="12" transform="translate(50 160)">
        • Kundefordring oppstår ved salg og utlignes ved betaling
      </text></g></g><text x="400" y="580" fill="#666" font-family="Arial, sans-serif" font-size="12" font-style="italic" text-anchor="middle">
    Korrekt regnskapsføring av driftsinntekter sikrer pålitelig finansiell rapportering
  </text></svg>