<svg xmlns="http://www.w3.org/2000/svg" width="800" height="400"><defs><linearGradient id="a" x1="0%" x2="100%" y1="0%" y2="0%"><stop offset="0%" style="stop-color:#e3f2fd;stop-opacity:1"/><stop offset="100%" style="stop-color:#1976d2;stop-opacity:1"/></linearGradient></defs><path fill="#fafafa" d="M0 0h800v400H0z"/><text x="400" y="30" fill="#1976d2" font-family="Arial, sans-serif" font-size="24" font-weight="bold" text-anchor="middle">
    Ansiennitetsberegning
  </text><path stroke="#333" stroke-width="2" d="M80 100h640"/><g font-family="Arial, sans-serif" font-size="12" text-anchor="middle"><path stroke="#333" stroke-width="2" d="M80 95v10"/><text x="80" y="120" fill="#333">2018</text><text x="80" y="135" fill="#666">Ansettelse</text><path stroke="#333" stroke-width="2" d="M240 95v10"/><text x="240" y="120" fill="#333">2020</text><text x="240" y="135" fill="#666">2 år</text><path stroke="#333" stroke-width="2" d="M400 95v10"/><text x="400" y="120" fill="#333">2022</text><text x="400" y="135" fill="#666">4 år</text><path stroke="#333" stroke-width="2" d="M560 95v10"/><text x="560" y="120" fill="#333">2024</text><text x="560" y="135" fill="#666">6 år</text><path stroke="#333" stroke-width="2" d="M720 95v10"/><text x="720" y="120" fill="#333">2026</text><text x="720" y="135" fill="#666">8 år</text></g><rect width="480" height="10" x="80" y="85" fill="url(#a)" rx="5"/><circle cx="560" cy="90" r="8" fill="#ff5722"/><text x="560" y="75" fill="#ff5722" font-family="Arial, sans-serif" font-size="12" font-weight="bold" text-anchor="middle">
    Nå
  </text><rect width="600" height="180" x="100" y="180" fill="#e8f5e8" stroke="#4caf50" stroke-width="2" rx="10"/><text x="400" y="205" fill="#2e7d32" font-family="Arial, sans-serif" font-size="18" font-weight="bold" text-anchor="middle">
    Beregning av Ansiennitet
  </text><g fill="#333" font-family="Arial, sans-serif" font-size="14"><text x="120" y="230">Ansettelsesdato: 15. januar 2018</text><text x="120" y="250">Beregningsdato: 15. januar 2024</text><text x="120" y="270">Totalt antall år: 6 år</text><text x="120" y="300" font-weight="bold">Spesielle forhold:</text><text x="140" y="320">• Svangerskapspermisjon 2020: Regnes med (+10 mnd)</text><text x="140" y="340">• Militærtjeneste 2021: Regnes med (+12 mnd)</text></g><rect width="230" height="120" x="450" y="220" fill="#fff3e0" stroke="#ff9800" stroke-width="2" rx="5"/><text x="565" y="245" fill="#e65100" font-family="Arial, sans-serif" font-size="16" font-weight="bold" text-anchor="middle">
    Beregnet Ansiennitet
  </text><text x="565" y="275" fill="#e65100" font-family="Arial, sans-serif" font-size="24" font-weight="bold" text-anchor="middle">
    6 år
  </text><text x="565" y="295" fill="#666" font-family="Arial, sans-serif" font-size="12" text-anchor="middle">
    (72 måneder)
  </text><text x="565" y="315" fill="#666" font-family="Arial, sans-serif" font-size="12" text-anchor="middle">
    Gir rett til 3 måneders
  </text><text x="565" y="330" fill="#666" font-family="Arial, sans-serif" font-size="12" text-anchor="middle">
    oppsigelse
  </text></svg>