<svg xmlns="http://www.w3.org/2000/svg" width="800" height="500"><defs><linearGradient id="b" x1="0%" x2="100%" y1="0%" y2="100%"><stop offset="0%" style="stop-color:gold;stop-opacity:1"/><stop offset="100%" style="stop-color:#ffa000;stop-opacity:1"/></linearGradient><linearGradient id="a" x1="0%" x2="100%" y1="0%" y2="100%"><stop offset="0%" style="stop-color:silver;stop-opacity:1"/><stop offset="100%" style="stop-color:gray;stop-opacity:1"/></linearGradient></defs><path fill="#f5f5f5" d="M0 0h800v500H0z"/><text x="400" y="30" fill="#1976d2" font-family="Arial, sans-serif" font-size="24" font-weight="bold" text-anchor="middle">
    Jubileumspremier ved Ansiennitet
  </text><path stroke="#333" stroke-width="2" d="M80 80h640"/><g font-family="Arial, sans-serif" font-size="12" text-anchor="middle"><path stroke="#333" stroke-width="2" d="M80 75v10"/><text x="80" y="100" fill="#333">0 år</text><text x="80" y="115" fill="#666">Ansettelse</text><path stroke="#333" stroke-width="2" d="M180 75v10"/><text x="180" y="100" fill="#333">5 år</text><circle cx="180" cy="65" r="6" fill="#4caf50"/><text x="180" y="50" fill="#4caf50" font-size="10">Gave</text><path stroke="#333" stroke-width="2" d="M280 75v10"/><text x="280" y="100" fill="#333">10 år</text><circle cx="280" cy="55" r="12" fill="url(#a)"/><text x="280" y="45" fill="#333" font-size="10" font-weight="bold">10</text><text x="280" y="35" fill="#666" font-size="10">1 mnd lønn</text><path stroke="#333" stroke-width="2" d="M380 75v10"/><text x="380" y="100" fill="#333">15 år</text><circle cx="380" cy="65" r="6" fill="#ff9800"/><text x="380" y="50" fill="#ff9800" font-size="10">Gave</text><path stroke="#333" stroke-width="2" d="M480 75v10"/><text x="480" y="100" fill="#333">20 år</text><circle cx="480" cy="55" r="12" fill="url(#a)"/><text x="480" y="45" fill="#333" font-size="10" font-weight="bold">20</text><text x="480" y="35" fill="#666" font-size="10">2 mnd lønn</text><path stroke="#333" stroke-width="2" d="M580 75v10"/><text x="580" y="100" fill="#333">25 år</text><circle cx="580" cy="55" r="15" fill="url(#b)"/><text x="580" y="45" fill="#333" font-size="10" font-weight="bold">25</text><text x="580" y="30" fill="#666" font-size="10">3 mnd lønn</text><path stroke="#333" stroke-width="2" d="M680 75v10"/><text x="680" y="100" fill="#333">40 år</text><circle cx="680" cy="55" r="15" fill="url(#b)"/><text x="680" y="45" fill="#333" font-size="10" font-weight="bold">40</text><text x="680" y="30" fill="#666" font-size="10">4 mnd lønn</text></g><rect width="700" height="340" x="50" y="140" fill="#fff" stroke="#ddd" rx="10"/><text x="400" y="165" fill="#333" font-family="Arial, sans-serif" font-size="18" font-weight="bold" text-anchor="middle">
    Typiske Jubileumspremier i Norske Virksomheter
  </text><path fill="#e3f2fd" stroke="#1976d2" d="M70 180h660v30H70z"/><g fill="#1976d2" font-family="Arial, sans-serif" font-size="14" font-weight="bold" text-anchor="middle"><text x="100" y="200">Ansiennitet</text><text x="250" y="200">Jubileumspremie</text><text x="400" y="200">Typisk verdi</text><text x="550" y="200">Skattemessig</text><text x="670" y="200">Regnskapsføring</text></g><g fill="#333" font-family="Arial, sans-serif" font-size="12"><path fill="#f9f9f9" stroke="#ddd" stroke-width=".5" d="M70 210h660v25H70z"/><text x="100" y="225" text-anchor="middle">5 år</text><text x="250" y="225" text-anchor="middle">Gave/diplom</text><text x="400" y="225" text-anchor="middle">Kr 500-2000</text><text x="550" y="225" text-anchor="middle">Skattefri</text><text x="670" y="225" text-anchor="middle">Kostnad</text><path fill="#fff" stroke="#ddd" stroke-width=".5" d="M70 235h660v25H70z"/><text x="100" y="250" text-anchor="middle">10 år</text><text x="250" y="250" text-anchor="middle">1 månedslønn</text><text x="400" y="250" text-anchor="middle">Kr 50,000</text><text x="550" y="250" text-anchor="middle">Skattepliktig</text><text x="670" y="250" text-anchor="middle">Avsetning</text><path fill="#f9f9f9" stroke="#ddd" stroke-width=".5" d="M70 260h660v25H70z"/><text x="100" y="275" text-anchor="middle">15 år</text><text x="250" y="275" text-anchor="middle">Gave/bonus</text><text x="400" y="275" text-anchor="middle">Kr 5,000</text><text x="550" y="275" text-anchor="middle">Skattefri</text><text x="670" y="275" text-anchor="middle">Kostnad</text><path fill="#fff" stroke="#ddd" stroke-width=".5" d="M70 285h660v25H70z"/><text x="100" y="300" text-anchor="middle">20 år</text><text x="250" y="300" text-anchor="middle">2 månedslønner</text><text x="400" y="300" text-anchor="middle">Kr 100,000</text><text x="550" y="300" text-anchor="middle">Skattepliktig</text><text x="670" y="300" text-anchor="middle">Avsetning</text><path fill="#f9f9f9" stroke="#ddd" stroke-width=".5" d="M70 310h660v25H70z"/><text x="100" y="325" text-anchor="middle">25 år</text><text x="250" y="325" text-anchor="middle">3 månedslønner</text><text x="400" y="325" text-anchor="middle">Kr 150,000</text><text x="550" y="325" text-anchor="middle">Skattepliktig</text><text x="670" y="325" text-anchor="middle">Avsetning</text><path fill="#fff" stroke="#ddd" stroke-width=".5" d="M70 335h660v25H70z"/><text x="100" y="350" text-anchor="middle">30 år</text><text x="250" y="350" text-anchor="middle">3 månedslønner</text><text x="400" y="350" text-anchor="middle">Kr 180,000</text><text x="550" y="350" text-anchor="middle">Skattepliktig</text><text x="670" y="350" text-anchor="middle">Avsetning</text><path fill="#f9f9f9" stroke="#ddd" stroke-width=".5" d="M70 360h660v25H70z"/><text x="100" y="375" text-anchor="middle">40 år</text><text x="250" y="375" text-anchor="middle">4 månedslønner</text><text x="400" y="375" text-anchor="middle">Kr 240,000</text><text x="550" y="375" text-anchor="middle">Skattepliktig</text><text x="670" y="375" text-anchor="middle">Avsetning</text></g><g fill="#666" font-family="Arial, sans-serif" font-size="10"><text x="80" y="405">Noter:</text><text x="80" y="418">• Verdier er eksempler og varierer mellom virksomheter</text><text x="80" y="431">• Skattefrihet gjelder gaver under kr 5,000 ved jubileum</text><text x="80" y="444">• Regnskapsføring som avsetning anbefales for større beløp</text><text x="80" y="457">• Arbeidsgiveravgift påløper på alle skattepliktige ytelser</text></g></svg>