<svg xmlns="http://www.w3.org/2000/svg" width="800" height="600"><defs><linearGradient id="a" x1="0%" x2="100%" y1="0%" y2="100%"><stop offset="0%" style="stop-color:#f8f9fa;stop-opacity:1"/><stop offset="100%" style="stop-color:#e9ecef;stop-opacity:1"/></linearGradient><linearGradient id="b" x1="0%" x2="100%" y1="0%" y2="100%"><stop offset="0%" style="stop-color:#6f42c1;stop-opacity:1"/><stop offset="100%" style="stop-color:#5a2d91;stop-opacity:1"/></linearGradient><linearGradient id="e" x1="0%" x2="100%" y1="0%" y2="100%"><stop offset="0%" style="stop-color:#06c;stop-opacity:1"/><stop offset="100%" style="stop-color:#049;stop-opacity:1"/></linearGradient><filter id="c" width="140%" height="140%" x="-20%" y="-20%"><feDropShadow dx="2" dy="2" flood-color="#000" flood-opacity=".3" stdDeviation="3"/></filter></defs><path fill="url(#a)" d="M0 0h800v600H0z"/><text x="400" y="30" fill="#06c" font-family="Arial, sans-serif" font-size="24" font-weight="bold" text-anchor="middle">
    Digital Attestering Arbeidsflyt
  </text><g transform="translate(50 80)"><rect width="140" height="80" fill="url(#b)" filter="url(#c)" rx="10"/><text x="70" y="25" fill="#fff" font-family="Arial, sans-serif" font-size="12" font-weight="bold" text-anchor="middle">
      1. DOKUMENT
    </text><text x="70" y="40" fill="#fff" font-family="Arial, sans-serif" font-size="12" font-weight="bold" text-anchor="middle">
      OPPLASTING
    </text><rect width="30" height="20" x="55" y="50" fill="#fff" rx="2"/><path fill="none" stroke="#6f42c1" stroke-width="2" d="m65 55 5-5 5 5m-5-5v15"/></g><path fill="none" stroke="#6f42c1" stroke-width="3" marker-end="url(#d)" d="M200 120h40"/><g transform="translate(250 80)"><rect width="140" height="80" fill="url(#b)" filter="url(#c)" rx="10"/><text x="70" y="20" fill="#fff" font-family="Arial, sans-serif" font-size="12" font-weight="bold" text-anchor="middle">
      2. AI GJENKJENNING
    </text><text x="70" y="35" fill="#fff" font-family="Arial, sans-serif" font-size="12" font-weight="bold" text-anchor="middle">
      &amp; KATEGORISERING
    </text><circle cx="70" cy="55" r="12" fill="#fff"/><path fill="none" stroke="#6f42c1" stroke-width="2" d="M65 50q5-5 10 0t0 10-10 0 0-10"/><circle cx="67" cy="52" r="1" fill="#6f42c1"/><circle cx="73" cy="52" r="1" fill="#6f42c1"/><circle cx="70" cy="58" r="1" fill="#6f42c1"/></g><path fill="none" stroke="#6f42c1" stroke-width="3" marker-end="url(#d)" d="M400 120h40"/><g transform="translate(450 80)"><rect width="140" height="80" fill="url(#b)" filter="url(#c)" rx="10"/><text x="70" y="25" fill="#fff" font-family="Arial, sans-serif" font-size="12" font-weight="bold" text-anchor="middle">
      3. AUTOMATISK
    </text><text x="70" y="40" fill="#fff" font-family="Arial, sans-serif" font-size="12" font-weight="bold" text-anchor="middle">
      ROUTING
    </text><circle cx="55" cy="55" r="4" fill="#fff"/><circle cx="70" cy="55" r="4" fill="#fff"/><circle cx="85" cy="55" r="4" fill="#fff"/><path stroke="#fff" stroke-width="2" d="M55 55h15m0 0h15"/><path fill="none" stroke="#fff" stroke-width="2" d="m80 50 5 5-5 5"/></g><path fill="none" stroke="#6f42c1" stroke-width="3" marker-end="url(#d)" d="M520 170v40"/><g transform="translate(450 220)"><rect width="140" height="80" fill="url(#e)" filter="url(#c)" rx="10"/><text x="70" y="25" fill="#fff" font-family="Arial, sans-serif" font-size="12" font-weight="bold" text-anchor="middle">
      4. DIGITAL
    </text><text x="70" y="40" fill="#fff" font-family="Arial, sans-serif" font-size="12" font-weight="bold" text-anchor="middle">
      GODKJENNING
    </text><rect width="40" height="25" x="50" y="50" fill="#fff" rx="3"/><path fill="none" stroke="#06c" stroke-width="2" d="M55 60q10 10 20 0"/><circle cx="80" cy="55" r="3" fill="#28a745"/><path fill="none" stroke="#fff" d="m78 55 1.5 1.5L82 53"/></g><path fill="none" stroke="#06c" stroke-width="3" marker-end="url(#f)" d="M440 260h-40"/><g transform="translate(250 220)"><rect width="140" height="80" fill="url(#e)" filter="url(#c)" rx="10"/><text x="70" y="25" fill="#fff" font-family="Arial, sans-serif" font-size="12" font-weight="bold" text-anchor="middle">
      5. INTEGRASJON
    </text><text x="70" y="40" fill="#fff" font-family="Arial, sans-serif" font-size="12" font-weight="bold" text-anchor="middle">
      REGNSKAP
    </text><rect width="30" height="20" x="55" y="50" fill="#fff" rx="2"/><path fill="#06c" d="M57 52h26v2H57z"/><path fill="#666" d="M57 56h20v1H57zM57 59h22v1H57zM57 62h18v1H57zM57 65h24v1H57z"/></g><path fill="none" stroke="#06c" stroke-width="3" marker-end="url(#f)" d="M240 260h-40"/><g transform="translate(50 220)"><rect width="140" height="80" fill="url(#e)" filter="url(#c)" rx="10"/><text x="70" y="25" fill="#fff" font-family="Arial, sans-serif" font-size="12" font-weight="bold" text-anchor="middle">
      6. DIGITAL
    </text><text x="70" y="40" fill="#fff" font-family="Arial, sans-serif" font-size="12" font-weight="bold" text-anchor="middle">
      ARKIVERING
    </text><rect width="40" height="25" x="50" y="50" fill="#fff" rx="2"/><path fill="#06c" d="M52 52h36v3H52zM52 57h36v3H52zM52 62h36v3H52zM52 67h36v3H52z"/></g><text x="400" y="350" fill="#06c" font-family="Arial, sans-serif" font-size="18" font-weight="bold" text-anchor="middle">
    Fordeler med Digital Attestering
  </text><g transform="translate(80 380)"><rect width="160" height="100" fill="#fff" stroke="#6f42c1" stroke-width="2" filter="url(#c)" rx="10"/><text x="80" y="20" fill="#6f42c1" font-family="Arial, sans-serif" font-size="14" font-weight="bold" text-anchor="middle">
      HASTIGHET
    </text><circle cx="80" cy="45" r="15" fill="#6f42c1"/><path fill="#fff" d="m75 40 10 5-10 5"/><text x="80" y="70" fill="#333" font-family="Arial, sans-serif" font-size="10" text-anchor="middle">
      Raskere behandling
    </text><text x="80" y="82" fill="#333" font-family="Arial, sans-serif" font-size="10" text-anchor="middle">
      Automatisk routing
    </text><text x="80" y="94" fill="#333" font-family="Arial, sans-serif" font-size="10" text-anchor="middle">
      Redusert ventetid
    </text></g><g transform="translate(260 380)"><rect width="160" height="100" fill="#fff" stroke="#6f42c1" stroke-width="2" filter="url(#c)" rx="10"/><text x="80" y="20" fill="#6f42c1" font-family="Arial, sans-serif" font-size="14" font-weight="bold" text-anchor="middle">
      SPORBARHET
    </text><circle cx="65" cy="40" r="4" fill="#6f42c1"/><circle cx="80" cy="45" r="4" fill="#6f42c1"/><circle cx="95" cy="50" r="4" fill="#6f42c1"/><path stroke="#6f42c1" stroke-dasharray="2,2" stroke-width="2" d="m65 40 15 5 15 5"/><text x="80" y="70" fill="#333" font-family="Arial, sans-serif" font-size="10" text-anchor="middle">
      Komplett revisjonsspor
    </text><text x="80" y="82" fill="#333" font-family="Arial, sans-serif" font-size="10" text-anchor="middle">
      Tidsstempling
    </text><text x="80" y="94" fill="#333" font-family="Arial, sans-serif" font-size="10" text-anchor="middle">
      Digital signatur
    </text></g><g transform="translate(440 380)"><rect width="160" height="100" fill="#fff" stroke="#6f42c1" stroke-width="2" filter="url(#c)" rx="10"/><text x="80" y="20" fill="#6f42c1" font-family="Arial, sans-serif" font-size="14" font-weight="bold" text-anchor="middle">
      INTEGRASJON
    </text><rect width="30" height="20" x="65" y="35" fill="#6f42c1" rx="3"/><circle cx="55" cy="45" r="5" fill="#6f42c1"/><circle cx="105" cy="45" r="5" fill="#6f42c1"/><path stroke="#6f42c1" stroke-width="2" d="M60 45h5m30 0h5"/><text x="80" y="70" fill="#333" font-family="Arial, sans-serif" font-size="10" text-anchor="middle">
      ERP-integrasjon
    </text><text x="80" y="82" fill="#333" font-family="Arial, sans-serif" font-size="10" text-anchor="middle">
      Automatisk bokføring
    </text><text x="80" y="94" fill="#333" font-family="Arial, sans-serif" font-size="10" text-anchor="middle">
      Sømløs dataflyt
    </text></g><text x="400" y="520" fill="#06c" font-family="Arial, sans-serif" font-size="16" font-weight="bold" text-anchor="middle">
    Teknologi: AI • OCR • Blockchain • Cloud • Mobile • API
  </text><text x="400" y="550" fill="#666" font-family="Arial, sans-serif" font-size="12" font-style="italic" text-anchor="middle">
    Digital attestering reduserer behandlingstid med opptil 80% og øker nøyaktigheten betydelig
  </text><defs><marker id="f" markerHeight="7" markerWidth="10" orient="auto" refX="9" refY="3.5"><path fill="#06c" d="m0 0 10 3.5L0 7z"/></marker><marker id="d" markerHeight="7" markerWidth="10" orient="auto" refX="9" refY="3.5"><path fill="#6f42c1" d="m0 0 10 3.5L0 7z"/></marker></defs></svg>