<svg width="800" height="600" xmlns="http://www.w3.org/2000/svg">
  <defs>
    <linearGradient id="bgGradient" x1="0%" y1="0%" x2="100%" y2="100%">
      <stop offset="0%" style="stop-color:#f8f9fa;stop-opacity:1" />
      <stop offset="100%" style="stop-color:#e9ecef;stop-opacity:1" />
    </linearGradient>
    <linearGradient id="digitalGradient" x1="0%" y1="0%" x2="100%" y2="100%">
      <stop offset="0%" style="stop-color:#6f42c1;stop-opacity:1" />
      <stop offset="100%" style="stop-color:#5a2d91;stop-opacity:1" />
    </linearGradient>
    <linearGradient id="systemGradient" x1="0%" y1="0%" x2="100%" y2="100%">
      <stop offset="0%" style="stop-color:#0066cc;stop-opacity:1" />
      <stop offset="100%" style="stop-color:#004499;stop-opacity:1" />
    </linearGradient>
    <filter id="shadow" x="-20%" y="-20%" width="140%" height="140%">
      <feDropShadow dx="2" dy="2" stdDeviation="3" flood-color="#000000" flood-opacity="0.3"/>
    </filter>
  </defs>
  

  <rect width="800" height="600" fill="url(#bgGradient)"/>
  

  <text x="400" y="30" font-family="Arial, sans-serif" font-size="24" font-weight="bold" text-anchor="middle" fill="#0066cc">
    Digital Attestering Arbeidsflyt
  </text>
  

  <g transform="translate(50, 80)">
    <rect x="0" y="0" width="140" height="80" fill="url(#digitalGradient)" rx="10" filter="url(#shadow)"/>
    <text x="70" y="25" font-family="Arial, sans-serif" font-size="12" font-weight="bold" text-anchor="middle" fill="white">
      1. DOKUMENT
    </text>
    <text x="70" y="40" font-family="Arial, sans-serif" font-size="12" font-weight="bold" text-anchor="middle" fill="white">
      OPPLASTING
    </text>
    

    <rect x="55" y="50" width="30" height="20" fill="white" rx="2"/>
    <path d="M65 55 L70 50 L75 55 M70 50 L70 65" stroke="#6f42c1" stroke-width="2" fill="none"/>
  </g>
  

  <path d="M200 120 L240 120" stroke="#6f42c1" stroke-width="3" fill="none" marker-end="url(#arrowheadPurple)"/>
  

  <g transform="translate(250, 80)">
    <rect x="0" y="0" width="140" height="80" fill="url(#digitalGradient)" rx="10" filter="url(#shadow)"/>
    <text x="70" y="20" font-family="Arial, sans-serif" font-size="12" font-weight="bold" text-anchor="middle" fill="white">
      2. AI GJENKJENNING
    </text>
    <text x="70" y="35" font-family="Arial, sans-serif" font-size="12" font-weight="bold" text-anchor="middle" fill="white">
      &amp; KATEGORISERING
    </text>
    

    <circle cx="70" cy="55" r="12" fill="white"/>
    <path d="M65 50 Q70 45 75 50 Q80 55 75 60 Q70 65 65 60 Q60 55 65 50" stroke="#6f42c1" stroke-width="2" fill="none"/>
    <circle cx="67" cy="52" r="1" fill="#6f42c1"/>
    <circle cx="73" cy="52" r="1" fill="#6f42c1"/>
    <circle cx="70" cy="58" r="1" fill="#6f42c1"/>
  </g>
  

  <path d="M400 120 L440 120" stroke="#6f42c1" stroke-width="3" fill="none" marker-end="url(#arrowheadPurple)"/>
  

  <g transform="translate(450, 80)">
    <rect x="0" y="0" width="140" height="80" fill="url(#digitalGradient)" rx="10" filter="url(#shadow)"/>
    <text x="70" y="25" font-family="Arial, sans-serif" font-size="12" font-weight="bold" text-anchor="middle" fill="white">
      3. AUTOMATISK
    </text>
    <text x="70" y="40" font-family="Arial, sans-serif" font-size="12" font-weight="bold" text-anchor="middle" fill="white">
      ROUTING
    </text>
    

    <circle cx="55" cy="55" r="4" fill="white"/>
    <circle cx="70" cy="55" r="4" fill="white"/>
    <circle cx="85" cy="55" r="4" fill="white"/>
    <path d="M55 55 L70 55 M70 55 L85 55" stroke="white" stroke-width="2"/>
    <path d="M80 50 L85 55 L80 60" stroke="white" stroke-width="2" fill="none"/>
  </g>
  

  <path d="M520 170 L520 210" stroke="#6f42c1" stroke-width="3" fill="none" marker-end="url(#arrowheadPurple)"/>
  

  <g transform="translate(450, 220)">
    <rect x="0" y="0" width="140" height="80" fill="url(#systemGradient)" rx="10" filter="url(#shadow)"/>
    <text x="70" y="25" font-family="Arial, sans-serif" font-size="12" font-weight="bold" text-anchor="middle" fill="white">
      4. DIGITAL
    </text>
    <text x="70" y="40" font-family="Arial, sans-serif" font-size="12" font-weight="bold" text-anchor="middle" fill="white">
      GODKJENNING
    </text>
    

    <rect x="50" y="50" width="40" height="25" fill="white" rx="3"/>
    <path d="M55 60 Q65 70 75 60" stroke="#0066cc" stroke-width="2" fill="none"/>
    <circle cx="80" cy="55" r="3" fill="#28a745"/>
    <path d="M78 55 L79.5 56.5 L82 53" stroke="white" stroke-width="1" fill="none"/>
  </g>
  

  <path d="M440 260 L400 260" stroke="#0066cc" stroke-width="3" fill="none" marker-end="url(#arrowhead)"/>
  

  <g transform="translate(250, 220)">
    <rect x="0" y="0" width="140" height="80" fill="url(#systemGradient)" rx="10" filter="url(#shadow)"/>
    <text x="70" y="25" font-family="Arial, sans-serif" font-size="12" font-weight="bold" text-anchor="middle" fill="white">
      5. INTEGRASJON
    </text>
    <text x="70" y="40" font-family="Arial, sans-serif" font-size="12" font-weight="bold" text-anchor="middle" fill="white">
      REGNSKAP
    </text>
    

    <rect x="55" y="50" width="30" height="20" fill="white" rx="2"/>
    <rect x="57" y="52" width="26" height="2" fill="#0066cc"/>
    <rect x="57" y="56" width="20" height="1" fill="#666"/>
    <rect x="57" y="59" width="22" height="1" fill="#666"/>
    <rect x="57" y="62" width="18" height="1" fill="#666"/>
    <rect x="57" y="65" width="24" height="1" fill="#666"/>
  </g>
  

  <path d="M240 260 L200 260" stroke="#0066cc" stroke-width="3" fill="none" marker-end="url(#arrowhead)"/>
  

  <g transform="translate(50, 220)">
    <rect x="0" y="0" width="140" height="80" fill="url(#systemGradient)" rx="10" filter="url(#shadow)"/>
    <text x="70" y="25" font-family="Arial, sans-serif" font-size="12" font-weight="bold" text-anchor="middle" fill="white">
      6. DIGITAL
    </text>
    <text x="70" y="40" font-family="Arial, sans-serif" font-size="12" font-weight="bold" text-anchor="middle" fill="white">
      ARKIVERING
    </text>
    

    <rect x="50" y="50" width="40" height="25" fill="white" rx="2"/>
    <rect x="52" y="52" width="36" height="3" fill="#0066cc"/>
    <rect x="52" y="57" width="36" height="3" fill="#0066cc"/>
    <rect x="52" y="62" width="36" height="3" fill="#0066cc"/>
    <rect x="52" y="67" width="36" height="3" fill="#0066cc"/>
  </g>
  

  <text x="400" y="350" font-family="Arial, sans-serif" font-size="18" font-weight="bold" text-anchor="middle" fill="#0066cc">
    Fordeler med Digital Attestering
  </text>
  

  <g transform="translate(80, 380)">
    <rect x="0" y="0" width="160" height="100" fill="white" stroke="#6f42c1" stroke-width="2" rx="10" filter="url(#shadow)"/>
    <text x="80" y="20" font-family="Arial, sans-serif" font-size="14" font-weight="bold" text-anchor="middle" fill="#6f42c1">
      HASTIGHET
    </text>
    

    <circle cx="80" cy="45" r="15" fill="#6f42c1"/>
    <path d="M75 40 L85 45 L75 50" fill="white"/>
    
    <text x="80" y="70" font-family="Arial, sans-serif" font-size="10" text-anchor="middle" fill="#333">
      Raskere behandling
    </text>
    <text x="80" y="82" font-family="Arial, sans-serif" font-size="10" text-anchor="middle" fill="#333">
      Automatisk routing
    </text>
    <text x="80" y="94" font-family="Arial, sans-serif" font-size="10" text-anchor="middle" fill="#333">
      Redusert ventetid
    </text>
  </g>
  

  <g transform="translate(260, 380)">
    <rect x="0" y="0" width="160" height="100" fill="white" stroke="#6f42c1" stroke-width="2" rx="10" filter="url(#shadow)"/>
    <text x="80" y="20" font-family="Arial, sans-serif" font-size="14" font-weight="bold" text-anchor="middle" fill="#6f42c1">
      SPORBARHET
    </text>
    

    <circle cx="65" cy="40" r="4" fill="#6f42c1"/>
    <circle cx="80" cy="45" r="4" fill="#6f42c1"/>
    <circle cx="95" cy="50" r="4" fill="#6f42c1"/>
    <path d="M65 40 L80 45 L95 50" stroke="#6f42c1" stroke-width="2" stroke-dasharray="2,2"/>
    
    <text x="80" y="70" font-family="Arial, sans-serif" font-size="10" text-anchor="middle" fill="#333">
      Komplett revisjonsspor
    </text>
    <text x="80" y="82" font-family="Arial, sans-serif" font-size="10" text-anchor="middle" fill="#333">
      Tidsstempling
    </text>
    <text x="80" y="94" font-family="Arial, sans-serif" font-size="10" text-anchor="middle" fill="#333">
      Digital signatur
    </text>
  </g>
  

  <g transform="translate(440, 380)">
    <rect x="0" y="0" width="160" height="100" fill="white" stroke="#6f42c1" stroke-width="2" rx="10" filter="url(#shadow)"/>
    <text x="80" y="20" font-family="Arial, sans-serif" font-size="14" font-weight="bold" text-anchor="middle" fill="#6f42c1">
      INTEGRASJON
    </text>
    

    <rect x="65" y="35" width="30" height="20" fill="#6f42c1" rx="3"/>
    <circle cx="55" cy="45" r="5" fill="#6f42c1"/>
    <circle cx="105" cy="45" r="5" fill="#6f42c1"/>
    <path d="M60 45 L65 45 M95 45 L100 45" stroke="#6f42c1" stroke-width="2"/>
    
    <text x="80" y="70" font-family="Arial, sans-serif" font-size="10" text-anchor="middle" fill="#333">
      ERP-integrasjon
    </text>
    <text x="80" y="82" font-family="Arial, sans-serif" font-size="10" text-anchor="middle" fill="#333">
      Automatisk bokføring
    </text>
    <text x="80" y="94" font-family="Arial, sans-serif" font-size="10" text-anchor="middle" fill="#333">
      Sømløs dataflyt
    </text>
  </g>
  

  <text x="400" y="520" font-family="Arial, sans-serif" font-size="16" font-weight="bold" text-anchor="middle" fill="#0066cc">
    Teknologi: AI • OCR • Blockchain • Cloud • Mobile • API
  </text>
  

  <text x="400" y="550" font-family="Arial, sans-serif" font-size="12" text-anchor="middle" fill="#666" font-style="italic">
    Digital attestering reduserer behandlingstid med opptil 80% og øker nøyaktigheten betydelig
  </text>
  

  <defs>
    <marker id="arrowhead" markerWidth="10" markerHeight="7" refX="9" refY="3.5" orient="auto">
      <polygon points="0 0, 10 3.5, 0 7" fill="#0066cc"/>
    </marker>
    <marker id="arrowheadPurple" markerWidth="10" markerHeight="7" refX="9" refY="3.5" orient="auto">
      <polygon points="0 0, 10 3.5, 0 7" fill="#6f42c1"/>
    </marker>
  </defs>
</svg>