<svg xmlns="http://www.w3.org/2000/svg" width="900" height="700" viewBox="0 0 900 700"><path fill="#f8f9fa" d="M0 0h900v700H0z"/><text x="450" y="40" fill="#2c3e50" font-family="Arial, sans-serif" font-size="24" font-weight="bold" text-anchor="middle">
    Dagsoppgjør Prosessflyt
  </text><g transform="translate(50 80)"><rect width="160" height="100" fill="#3498db" stroke="#2980b9" stroke-width="2" rx="10"/><text x="80" y="25" fill="#fff" font-family="Arial, sans-serif" font-size="14" font-weight="bold" text-anchor="middle">
      1. FORBEREDELSE
    </text><text x="80" y="45" fill="#fff" font-family="Arial, sans-serif" font-size="12" text-anchor="middle">
      08:00-09:00
    </text><circle cx="80" cy="70" r="15" fill="#fff" opacity=".9"/><circle cx="80" cy="70" r="12" fill="none" stroke="#3498db" stroke-width="2"/><path stroke="#3498db" stroke-width="2" d="M80 70v-8M80 70h6"/><rect width="160" height="80" y="110" fill="#fff" stroke="#3498db" opacity=".9" rx="5"/><text x="10" y="125" fill="#2c3e50" font-family="Arial, sans-serif" font-size="10">
      • Samle bilag og dokumenter
    </text><text x="10" y="140" fill="#2c3e50" font-family="Arial, sans-serif" font-size="10">
      • Organisere transaksjonsdata
    </text><text x="10" y="155" fill="#2c3e50" font-family="Arial, sans-serif" font-size="10">
      • Forberede kontrollskjemaer
    </text><text x="10" y="170" fill="#2c3e50" font-family="Arial, sans-serif" font-size="10">
      • Sikre systemtilgang
    </text><text x="10" y="185" fill="#2c3e50" font-family="Arial, sans-serif" font-size="10">
      • Sjekklister klare
    </text></g><path stroke="#34495e" stroke-width="3" marker-end="url(#a)" d="M230 130h40"/><g transform="translate(290 80)"><rect width="160" height="100" fill="#2ecc71" stroke="#27ae60" stroke-width="2" rx="10"/><text x="80" y="20" fill="#fff" font-family="Arial, sans-serif" font-size="14" font-weight="bold" text-anchor="middle">
      2. REGISTRERING
    </text><text x="80" y="35" fill="#fff" font-family="Arial, sans-serif" font-size="14" font-weight="bold" text-anchor="middle">
      &amp; KONTROLL
    </text><text x="80" y="55" fill="#fff" font-family="Arial, sans-serif" font-size="12" text-anchor="middle">
      09:00-11:00
    </text><rect width="30" height="20" x="65" y="65" fill="#fff" opacity=".9" rx="2"/><path fill="#2ecc71" d="M70 70h20v2H70zM70 74h15v2H70zM70 78h18v2H70z"/><rect width="160" height="80" y="110" fill="#fff" stroke="#2ecc71" opacity=".9" rx="5"/><text x="10" y="125" fill="#2c3e50" font-family="Arial, sans-serif" font-size="10">
      • Registrere transaksjoner
    </text><text x="10" y="140" fill="#2c3e50" font-family="Arial, sans-serif" font-size="10">
      • Kontrollere kontoer
    </text><text x="10" y="155" fill="#2c3e50" font-family="Arial, sans-serif" font-size="10">
      • Verifisere beløp og datoer
    </text><text x="10" y="170" fill="#2c3e50" font-family="Arial, sans-serif" font-size="10">
      • Sikre korrekt bilagsføring
    </text><text x="10" y="185" fill="#2c3e50" font-family="Arial, sans-serif" font-size="10">
      • Kvalitetskontroll
    </text></g><path stroke="#34495e" stroke-width="3" marker-end="url(#a)" d="M470 130h40"/><g transform="translate(530 80)"><rect width="160" height="100" fill="#e74c3c" stroke="#c0392b" stroke-width="2" rx="10"/><text x="80" y="25" fill="#fff" font-family="Arial, sans-serif" font-size="14" font-weight="bold" text-anchor="middle">
      3. AVSTEMMING
    </text><text x="80" y="45" fill="#fff" font-family="Arial, sans-serif" font-size="12" text-anchor="middle">
      11:00-12:00
    </text><rect width="40" height="25" x="60" y="60" fill="#fff" opacity=".9" rx="3"/><path fill="#e74c3c" d="M65 65h30v3H65zM65 70h25v3H65zM65 75h28v3H65z"/><rect width="160" height="80" y="110" fill="#fff" stroke="#e74c3c" opacity=".9" rx="5"/><text x="10" y="125" fill="#2c3e50" font-family="Arial, sans-serif" font-size="10">
      • Kassaoppgjør utføres
    </text><text x="10" y="140" fill="#2c3e50" font-family="Arial, sans-serif" font-size="10">
      • Bankavstemming
    </text><text x="10" y="155" fill="#2c3e50" font-family="Arial, sans-serif" font-size="10">
      • Sammenligne rapporter
    </text><text x="10" y="170" fill="#2c3e50" font-family="Arial, sans-serif" font-size="10">
      • Identifisere avvik
    </text><text x="10" y="185" fill="#2c3e50" font-family="Arial, sans-serif" font-size="10">
      • Dokumentere differanser
    </text></g><path stroke="#34495e" stroke-width="3" marker-end="url(#a)" d="M610 200v40"/><g transform="translate(530 260)"><rect width="160" height="100" fill="#f39c12" stroke="#e67e22" stroke-width="2" rx="10"/><text x="80" y="20" fill="#fff" font-family="Arial, sans-serif" font-size="14" font-weight="bold" text-anchor="middle">
      4. KORRIGERING
    </text><text x="80" y="35" fill="#fff" font-family="Arial, sans-serif" font-size="14" font-weight="bold" text-anchor="middle">
      &amp; OPPFØLGING
    </text><text x="80" y="55" fill="#fff" font-family="Arial, sans-serif" font-size="12" text-anchor="middle">
      12:00-13:00
    </text><circle cx="80" cy="75" r="10" fill="#fff" opacity=".9"/><text x="80" y="80" fill="#f39c12" font-family="Arial, sans-serif" font-size="12" font-weight="bold" text-anchor="middle">
      ✓
    </text><rect width="160" height="80" y="110" fill="#fff" stroke="#f39c12" opacity=".9" rx="5"/><text x="10" y="125" fill="#2c3e50" font-family="Arial, sans-serif" font-size="10">
      • Korrigere identifiserte feil
    </text><text x="10" y="140" fill="#2c3e50" font-family="Arial, sans-serif" font-size="10">
      • Følge opp uavklarte poster
    </text><text x="10" y="155" fill="#2c3e50" font-family="Arial, sans-serif" font-size="10">
      • Eskalere komplekse saker
    </text><text x="10" y="170" fill="#2c3e50" font-family="Arial, sans-serif" font-size="10">
      • Dokumentere korrigeringer
    </text><text x="10" y="185" fill="#2c3e50" font-family="Arial, sans-serif" font-size="10">
      • Kvalitetssikring
    </text></g><path stroke="#34495e" stroke-width="3" marker-end="url(#a)" d="M510 310h-40"/><g transform="translate(290 260)"><rect width="160" height="100" fill="#9b59b6" stroke="#8e44ad" stroke-width="2" rx="10"/><text x="80" y="20" fill="#fff" font-family="Arial, sans-serif" font-size="14" font-weight="bold" text-anchor="middle">
      5. RAPPORTERING
    </text><text x="80" y="35" fill="#fff" font-family="Arial, sans-serif" font-size="14" font-weight="bold" text-anchor="middle">
      &amp; ARKIVERING
    </text><text x="80" y="55" fill="#fff" font-family="Arial, sans-serif" font-size="12" text-anchor="middle">
      13:00-14:00
    </text><rect width="30" height="20" x="65" y="65" fill="#fff" opacity=".9" rx="2"/><path fill="#9b59b6" d="M70 70h20v3H70zM70 75h20v3H70zM70 80h20v3H70z"/><rect width="160" height="80" y="110" fill="#fff" stroke="#9b59b6" opacity=".9" rx="5"/><text x="10" y="125" fill="#2c3e50" font-family="Arial, sans-serif" font-size="10">
      • Generere dagsrapporter
    </text><text x="10" y="140" fill="#2c3e50" font-family="Arial, sans-serif" font-size="10">
      • Arkivere bilag og dokumenter
    </text><text x="10" y="155" fill="#2c3e50" font-family="Arial, sans-serif" font-size="10">
      • Oppdatere kontrollregistre
    </text><text x="10" y="170" fill="#2c3e50" font-family="Arial, sans-serif" font-size="10">
      • Forberede neste dag
    </text><text x="10" y="185" fill="#2c3e50" font-family="Arial, sans-serif" font-size="10">
      • Kommunisere status
    </text></g><path fill="#e67e22" stroke="#d35400" stroke-width="2" d="m450 420 80 40-80 40-80-40z"/><text x="80" y="35" fill="#fff" font-family="Arial, sans-serif" font-size="12" font-weight="bold" text-anchor="middle" transform="translate(370 420)">
      AVVIK
    </text><text x="80" y="50" fill="#fff" font-family="Arial, sans-serif" font-size="12" font-weight="bold" text-anchor="middle" transform="translate(370 420)">
      FUNNET?
    </text><path fill="none" stroke="#34495e" stroke-width="2" marker-end="url(#a)" d="M610 370v30H450v20"/><path fill="none" stroke="#e74c3c" stroke-width="2" marker-end="url(#a)" d="M530 440h50v-60h30"/><text x="555" y="435" fill="#e74c3c" font-family="Arial, sans-serif" font-size="12" font-weight="bold">JA</text><path fill="none" stroke="#2ecc71" stroke-width="2" marker-end="url(#a)" d="M370 460h-50v40"/><text x="340" y="455" fill="#2ecc71" font-family="Arial, sans-serif" font-size="12" font-weight="bold">NEI</text><g transform="translate(240 520)"><rect width="160" height="80" fill="#27ae60" stroke="#229954" stroke-width="2" rx="10"/><text x="80" y="30" fill="#fff" font-family="Arial, sans-serif" font-size="16" font-weight="bold" text-anchor="middle">
      DAGSOPPGJØR
    </text><text x="80" y="50" fill="#fff" font-family="Arial, sans-serif" font-size="16" font-weight="bold" text-anchor="middle">
      FULLFØRT
    </text><circle cx="80" cy="65" r="10" fill="#fff" opacity=".9"/><text x="80" y="70" fill="#27ae60" font-family="Arial, sans-serif" font-size="14" font-weight="bold" text-anchor="middle">
      ✓
    </text></g><g transform="translate(50 450)"><rect width="200" height="120" fill="#fff" stroke="#95a5a6" opacity=".95" rx="8"/><text x="100" y="20" fill="#2c3e50" font-family="Arial, sans-serif" font-size="14" font-weight="bold" text-anchor="middle">
      Kvalitetskontroller
    </text><text x="10" y="40" fill="#e74c3c" font-family="Arial, sans-serif" font-size="11" font-weight="bold">
      Kritiske kontrollpunkter:
    </text><text x="10" y="55" fill="#2c3e50" font-family="Arial, sans-serif" font-size="10">
      • Alle transaksjoner registrert
    </text><text x="10" y="68" fill="#2c3e50" font-family="Arial, sans-serif" font-size="10">
      • Kassabeholdning avstemt
    </text><text x="10" y="81" fill="#2c3e50" font-family="Arial, sans-serif" font-size="10">
      • Banktransaksjoner kontrollert
    </text><text x="10" y="94" fill="#2c3e50" font-family="Arial, sans-serif" font-size="10">
      • Bilag komplett og arkivert
    </text><text x="10" y="107" fill="#2c3e50" font-family="Arial, sans-serif" font-size="10">
      • Systembackup verifisert
    </text></g><g transform="translate(700 450)"><rect width="150" height="120" fill="#fff" stroke="#95a5a6" opacity=".95" rx="8"/><text x="75" y="20" fill="#2c3e50" font-family="Arial, sans-serif" font-size="14" font-weight="bold" text-anchor="middle">
      Tidsplan
    </text><text x="10" y="40" fill="#3498db" font-family="Arial, sans-serif" font-size="11" font-weight="bold">
      Total tid: 6 timer
    </text><text x="10" y="55" fill="#2c3e50" font-family="Arial, sans-serif" font-size="10">
      Forberedelse: 1 time
    </text><text x="10" y="68" fill="#2c3e50" font-family="Arial, sans-serif" font-size="10">
      Registrering: 2 timer
    </text><text x="10" y="81" fill="#2c3e50" font-family="Arial, sans-serif" font-size="10">
      Avstemming: 1 time
    </text><text x="10" y="94" fill="#2c3e50" font-family="Arial, sans-serif" font-size="10">
      Korrigering: 1 time
    </text><text x="10" y="107" fill="#2c3e50" font-family="Arial, sans-serif" font-size="10">
      Rapportering: 1 time
    </text></g><defs><marker id="a" markerHeight="7" markerWidth="10" orient="auto" refX="9" refY="3.5"><path fill="#34495e" d="m0 0 10 3.5L0 7z"/></marker></defs></svg>