<svg xmlns="http://www.w3.org/2000/svg" width="700" height="450" viewBox="0 0 700 450"><defs><linearGradient id="a" x1="0%" x2="100%" y1="0%" y2="0%"><stop offset="0%" style="stop-color:#1e40af;stop-opacity:1"/><stop offset="100%" style="stop-color:#1e3a8a;stop-opacity:1"/></linearGradient><filter id="b" width="110%" height="110%" x="-5%" y="-5%"><feDropShadow dx="1" dy="1" flood-color="#000" flood-opacity=".15" stdDeviation="1"/></filter></defs><path fill="#f1f5f9" d="M0 0h700v450H0z"/><path fill="url(#a)" d="M0 0h700v50H0z"/><text x="350" y="20" fill="#fff" font-family="Arial, sans-serif" font-size="18" font-weight="bold" text-anchor="middle">
    2FA Security Monitoring Dashboard
  </text><text x="350" y="35" fill="#bfdbfe" font-family="Arial, sans-serif" font-size="11" text-anchor="middle">
    Real-time overvåking av autentiseringsaktivitet
  </text><text x="350" y="45" fill="#93c5fd" font-family="Arial, sans-serif" font-size="9" text-anchor="middle">
    Sist oppdatert: 2024-01-15 14:23:45
  </text><g transform="translate(20 70)"><rect width="150" height="80" fill="#fff" filter="url(#b)" rx="8"/><rect width="150" height="20" fill="#059669" rx="8"/><path fill="#059669" d="M0 0h150v12H0z"/><text x="75" y="14" fill="#fff" font-family="Arial, sans-serif" font-size="10" font-weight="bold" text-anchor="middle">Suksessrate</text><text x="75" y="45" fill="#059669" font-family="Arial, sans-serif" font-size="24" font-weight="bold" text-anchor="middle">98.7%</text><text x="75" y="62" fill="#666" font-family="Arial, sans-serif" font-size="9" text-anchor="middle">Siste 24t</text><text x="75" y="75" fill="#10b981" font-family="Arial, sans-serif" font-size="8" text-anchor="middle">▲ +0.3% fra i går</text></g><g transform="translate(190 70)"><rect width="150" height="80" fill="#fff" filter="url(#b)" rx="8"/><rect width="150" height="20" fill="#0891b2" rx="8"/><path fill="#0891b2" d="M0 0h150v12H0z"/><text x="75" y="14" fill="#fff" font-family="Arial, sans-serif" font-size="10" font-weight="bold" text-anchor="middle">Responstid</text><text x="75" y="45" fill="#0891b2" font-family="Arial, sans-serif" font-size="20" font-weight="bold" text-anchor="middle">1.2s</text><text x="75" y="62" fill="#666" font-family="Arial, sans-serif" font-size="9" text-anchor="middle">Gjennomsnitt</text><text x="75" y="75" fill="#06b6d4" font-family="Arial, sans-serif" font-size="8" text-anchor="middle">▼ -0.1s fra i går</text></g><g transform="translate(360 70)"><rect width="150" height="80" fill="#fff" filter="url(#b)" rx="8"/><rect width="150" height="20" fill="#dc2626" rx="8"/><path fill="#dc2626" d="M0 0h150v12H0z"/><text x="75" y="14" fill="#fff" font-family="Arial, sans-serif" font-size="10" font-weight="bold" text-anchor="middle">Feilede forsøk</text><text x="75" y="45" fill="#dc2626" font-family="Arial, sans-serif" font-size="24" font-weight="bold" text-anchor="middle">23</text><text x="75" y="62" fill="#666" font-family="Arial, sans-serif" font-size="9" text-anchor="middle">Siste 24t</text><text x="75" y="75" fill="#ef4444" font-family="Arial, sans-serif" font-size="8" text-anchor="middle">▲ +5 fra i går</text></g><g transform="translate(530 70)"><rect width="150" height="80" fill="#fff" filter="url(#b)" rx="8"/><rect width="150" height="20" fill="#7c3aed" rx="8"/><path fill="#7c3aed" d="M0 0h150v12H0z"/><text x="75" y="14" fill="#fff" font-family="Arial, sans-serif" font-size="10" font-weight="bold" text-anchor="middle">Aktive brukere</text><text x="75" y="45" fill="#7c3aed" font-family="Arial, sans-serif" font-size="24" font-weight="bold" text-anchor="middle">47/50</text><text x="75" y="62" fill="#666" font-family="Arial, sans-serif" font-size="9" text-anchor="middle">Nå online</text><text x="75" y="75" fill="#8b5cf6" font-family="Arial, sans-serif" font-size="8" text-anchor="middle">94% aktivitet</text></g><g transform="translate(20 170)"><rect width="320" height="180" fill="#fff" filter="url(#b)" rx="8"/><rect width="320" height="25" fill="#4f46e5" rx="8"/><path fill="#4f46e5" d="M0 0h320v15H0z"/><text x="160" y="17" fill="#fff" font-family="Arial, sans-serif" font-size="12" font-weight="bold" text-anchor="middle">
      2FA Metoder - Bruksfordeling
    </text><path fill="#059669" d="M60 50h40v15H60z"/><text x="50" y="12" fill="#333" font-family="Arial, sans-serif" font-size="11" transform="translate(60 50)">Hardware-nøkler: 35% (18 brukere)</text><path fill="#0891b2" d="M60 75h40v15H60z"/><text x="50" y="37" fill="#333" font-family="Arial, sans-serif" font-size="11" transform="translate(60 50)">TOTP-apper: 45% (23 brukere)</text><path fill="#ea580c" d="M60 100h40v15H60z"/><text x="50" y="62" fill="#333" font-family="Arial, sans-serif" font-size="11" transform="translate(60 50)">SMS-backup: 15% (7 brukere)</text><path fill="#7c3aed" d="M60 125h40v15H60z"/><text x="50" y="87" fill="#333" font-family="Arial, sans-serif" font-size="11" transform="translate(60 50)">Biometrisk: 5% (2 brukere)</text><g transform="translate(220 80)"><circle cx="40" cy="40" r="35" fill="#f1f5f9" stroke="#e2e8f0" stroke-width="2"/><path fill="#059669" d="M40 5a35 35 0 0 1 25 20L40 40Z"/><path fill="#0891b2" d="M65 25a35 35 0 0 1-5 40L40 40Z"/><path fill="#ea580c" d="M60 65a35 35 0 0 1-35-5l15-20Z"/><path fill="#7c3aed" d="M25 60A35 35 0 0 1 40 5v35Z"/></g></g><g transform="translate(360 170)"><rect width="320" height="180" fill="#fff" filter="url(#b)" rx="8"/><rect width="320" height="25" fill="#dc2626" rx="8"/><path fill="#dc2626" d="M0 0h320v15H0z"/><text x="160" y="17" fill="#fff" font-family="Arial, sans-serif" font-size="12" font-weight="bold" text-anchor="middle">
      Sikkerhets-hendelser (Siste 24t)
    </text><g transform="translate(15 40)"><path fill="#fef2f2" d="M0 0h290v20H0z"/><circle cx="10" cy="10" r="4" fill="#dc2626"/><text x="20" y="8" fill="#333" font-family="Arial, sans-serif" font-size="9">14:15 - Flere feilede innlogginger: user@example.com</text><text x="20" y="17" fill="#666" font-family="Arial, sans-serif" font-size="8">IP: 192.168.1.101 (Intern)</text></g><g transform="translate(15 70)"><path fill="#fef3c7" d="M0 0h290v20H0z"/><circle cx="10" cy="10" r="4" fill="#f59e0b"/><text x="20" y="8" fill="#333" font-family="Arial, sans-serif" font-size="9">13:42 - Ny enhet registrert: Mobile device</text><text x="20" y="17" fill="#666" font-family="Arial, sans-serif" font-size="8">User: regnskapsfører@firma.no</text></g><g transform="translate(15 100)"><path fill="#ecfdf5" d="M0 0h290v20H0z"/><circle cx="10" cy="10" r="4" fill="#059669"/><text x="20" y="8" fill="#333" font-family="Arial, sans-serif" font-size="9">12:30 - Suksessfullt recovery code bruk</text><text x="20" y="17" fill="#666" font-family="Arial, sans-serif" font-size="8">System: ERP-tilgang gjenopprettet</text></g><g transform="translate(15 130)"><path fill="#f0f9ff" d="M0 0h290v20H0z"/><circle cx="10" cy="10" r="4" fill="#0891b2"/><text x="20" y="8" fill="#333" font-family="Arial, sans-serif" font-size="9">11:15 - Hardware-nøkkel aktivert</text><text x="20" y="17" fill="#666" font-family="Arial, sans-serif" font-size="8">YubiKey 5 Series - Bruker: controller@firma.no</text></g></g><g transform="translate(20 370)"><rect width="660" height="60" fill="#fff" filter="url(#b)" rx="8"/><rect width="660" height="20" fill="#1e40af" rx="8"/><path fill="#1e40af" d="M0 0h660v12H0z"/><text x="330" y="14" fill="#fff" font-family="Arial, sans-serif" font-size="11" font-weight="bold" text-anchor="middle">
      System Status &amp; Compliance
    </text><g transform="translate(30 35)"><circle cx="8" cy="8" r="6" fill="#059669"/><text x="8" y="12" fill="#fff" font-family="Arial, sans-serif" font-size="10" text-anchor="middle">✓</text><text x="25" y="12" fill="#333" font-family="Arial, sans-serif" font-size="10">GDPR Compliance: Aktiv</text></g><g transform="translate(180 35)"><circle cx="8" cy="8" r="6" fill="#059669"/><text x="8" y="12" fill="#fff" font-family="Arial, sans-serif" font-size="10" text-anchor="middle">✓</text><text x="25" y="12" fill="#333" font-family="Arial, sans-serif" font-size="10">Backup-systemer: Operative</text></g><g transform="translate(360 35)"><circle cx="8" cy="8" r="6" fill="#f59e0b"/><text x="8" y="12" fill="#fff" font-family="Arial, sans-serif" font-size="10" text-anchor="middle">!</text><text x="25" y="12" fill="#333" font-family="Arial, sans-serif" font-size="10">3 brukere uten 2FA-aktivering</text></g><g transform="translate(550 35)"><circle cx="8" cy="8" r="6" fill="#059669"/><text x="8" y="12" fill="#fff" font-family="Arial, sans-serif" font-size="10" text-anchor="middle">✓</text><text x="25" y="12" fill="#333" font-family="Arial, sans-serif" font-size="10">Audit logs: Sikret</text></g></g></svg>