<svg xmlns="http://www.w3.org/2000/svg" viewBox="0 0 800 600"><defs><linearGradient id="a" x1="0%" x2="100%" y1="0%" y2="0%"><stop offset="0%" style="stop-color:#2563eb;stop-opacity:1"/><stop offset="100%" style="stop-color:#1d4ed8;stop-opacity:1"/></linearGradient><linearGradient id="b" x1="0%" x2="100%" y1="0%" y2="100%"><stop offset="0%" style="stop-color:#f8fafc;stop-opacity:1"/><stop offset="100%" style="stop-color:#e2e8f0;stop-opacity:1"/></linearGradient><linearGradient id="c" x1="0%" x2="100%" y1="0%" y2="100%"><stop offset="0%" style="stop-color:#fef3c7;stop-opacity:1"/><stop offset="100%" style="stop-color:#f59e0b;stop-opacity:1"/></linearGradient></defs><path fill="#f8fafc" d="M0 0h800v600H0z"/><path fill="url(#a)" d="M0 0h800v80H0z"/><text x="400" y="35" fill="#fff" font-size="24" font-weight="bold" text-anchor="middle">2FA Opplæringsprogram</text><text x="400" y="60" fill="#fff" font-size="14" text-anchor="middle">Effektiv implementering krever omfattende brukeropplæring</text><text x="50" y="120" fill="#1f2937" font-size="20" font-weight="bold">Opplæringsmoduler</text><rect width="340" height="100" x="50" y="140" fill="url(#b)" stroke="#e5e7eb" stroke-width="2" rx="8"/><circle cx="80" cy="170" r="15" fill="#dc2626"/><text x="80" y="175" fill="#fff" font-size="12" font-weight="bold" text-anchor="middle">1</text><text x="110" y="165" fill="#1f2937" font-size="16" font-weight="bold">Trusselbilde</text><text x="110" y="185" fill="#6b7280" font-size="12">Risiko for regnskapsbransjen</text><text x="110" y="200" fill="#6b7280" font-size="12">Cybersikkerhet konsekvenser</text><text x="110" y="215" fill="#6b7280" font-size="12">Regulatoriske krav</text><rect width="340" height="100" x="410" y="140" fill="url(#b)" stroke="#e5e7eb" stroke-width="2" rx="8"/><circle cx="440" cy="170" r="15" fill="#059669"/><text x="440" y="175" fill="#fff" font-size="12" font-weight="bold" text-anchor="middle">2</text><text x="470" y="165" fill="#1f2937" font-size="16" font-weight="bold">Praktisk bruk</text><text x="470" y="185" fill="#6b7280" font-size="12">2FA-verktøy i daglige arbeidsflyt</text><text x="470" y="200" fill="#6b7280" font-size="12">Systemintegrasjon</text><text x="470" y="215" fill="#6b7280" font-size="12">Best practices</text><rect width="340" height="100" x="50" y="260" fill="url(#b)" stroke="#e5e7eb" stroke-width="2" rx="8"/><circle cx="80" cy="290" r="15" fill="#2563eb"/><text x="80" y="295" fill="#fff" font-size="12" font-weight="bold" text-anchor="middle">3</text><text x="110" y="285" fill="#1f2937" font-size="16" font-weight="bold">Troubleshooting</text><text x="110" y="305" fill="#6b7280" font-size="12">Support-prosedyrer</text><text x="110" y="320" fill="#6b7280" font-size="12">Vanlige problemer</text><text x="110" y="335" fill="#6b7280" font-size="12">Eskaleringsrutiner</text><rect width="340" height="100" x="410" y="260" fill="url(#b)" stroke="#e5e7eb" stroke-width="2" rx="8"/><circle cx="440" cy="290" r="15" fill="#7c3aed"/><text x="440" y="295" fill="#fff" font-size="12" font-weight="bold" text-anchor="middle">4</text><text x="470" y="285" fill="#1f2937" font-size="16" font-weight="bold">Phishing recognition</text><text x="470" y="305" fill="#6b7280" font-size="12">Sociale ingenieuring</text><text x="470" y="320" fill="#6b7280" font-size="12">Truslingsidentifikasjon</text><text x="470" y="335" fill="#6b7280" font-size="12">Rapporteringsrutiner</text><text x="50" y="420" fill="#1f2937" font-size="20" font-weight="bold">Awareness-kampanjer</text><rect width="220" height="120" x="50" y="440" fill="url(#c)" stroke="#f59e0b" stroke-width="2" rx="8"/><rect width="40" height="30" x="60" y="450" fill="#dc2626" rx="4"/><text x="80" y="470" fill="#fff" font-size="10" font-weight="bold" text-anchor="middle">!</text><text x="110" y="460" fill="#92400e" font-size="14" font-weight="bold">Månedlige</text><text x="110" y="475" fill="#92400e" font-size="14" font-weight="bold">Phishing-tester</text><text x="60" y="500" fill="#92400e" font-size="11">Regnskapsspesifikke</text><text x="60" y="515" fill="#92400e" font-size="11">scenarios</text><text x="60" y="530" fill="#92400e" font-size="11">Resultatrapporter</text><text x="60" y="545" fill="#92400e" font-size="11">Tilbakemeldinger</text><rect width="220" height="120" x="290" y="440" fill="url(#c)" stroke="#f59e0b" stroke-width="2" rx="8"/><rect width="40" height="30" x="300" y="450" fill="#059669" rx="4"/><text x="320" y="470" fill="#fff" font-size="10" font-weight="bold" text-anchor="middle">W</text><text x="350" y="460" fill="#92400e" font-size="14" font-weight="bold">Cybersikkerhets-</text><text x="350" y="475" fill="#92400e" font-size="14" font-weight="bold">workshops</text><text x="300" y="500" fill="#92400e" font-size="11">Regnskapspersonell</text><text x="300" y="515" fill="#92400e" font-size="11">Interaktive øvelser</text><text x="300" y="530" fill="#92400e" font-size="11">Erfaringsdeling</text><text x="300" y="545" fill="#92400e" font-size="11">Beste praksis</text><rect width="220" height="120" x="530" y="440" fill="url(#c)" stroke="#f59e0b" stroke-width="2" rx="8"/><rect width="40" height="30" x="540" y="450" fill="#2563eb" rx="4"/><text x="560" y="470" fill="#fff" font-size="10" font-weight="bold" text-anchor="middle">IR</text><text x="590" y="460" fill="#92400e" font-size="14" font-weight="bold">Incident response</text><text x="590" y="475" fill="#92400e" font-size="14" font-weight="bold">øvelser</text><text x="540" y="500" fill="#92400e" font-size="11">Tabletop-simuleringer</text><text x="540" y="515" fill="#92400e" font-size="11">Teambaserte øvelser</text><text x="540" y="530" fill="#92400e" font-size="11">Responsplaner</text><text x="540" y="545" fill="#92400e" font-size="11">Rolleavklaring</text><path stroke="#cbd5e1" stroke-dasharray="5,5" stroke-width="2" d="M220 190h70M220 310h70M400 360v80"/><rect width="700" height="15" x="50" y="580" fill="#e5e7eb" rx="7"/><rect width="560" height="15" x="50" y="580" fill="#10b981" rx="7"/><text x="400" y="592" fill="#fff" font-size="12" font-weight="bold" text-anchor="middle">80% suksessrate for opplæring</text></svg>