<svg xmlns="http://www.w3.org/2000/svg" width="700" height="500" viewBox="0 0 700 500"><defs><linearGradient id="a" x1="0%" x2="100%" y1="0%" y2="0%"><stop offset="0%" style="stop-color:#2c5aa0;stop-opacity:1"/><stop offset="100%" style="stop-color:#1e3c72;stop-opacity:1"/></linearGradient><filter id="b" width="120%" height="120%" x="-10%" y="-10%"><feDropShadow dx="2" dy="2" flood-color="#000" flood-opacity=".2" stdDeviation="2"/></filter></defs><path fill="#f8f9fa" d="M0 0h700v500H0z"/><path fill="url(#a)" d="M0 0h700v80H0z"/><text x="350" y="30" fill="#fff" font-family="Arial, sans-serif" font-size="24" font-weight="bold" text-anchor="middle">
    Regulatoriske Krav for 2FA
  </text><text x="350" y="55" fill="#e0e9ff" font-family="Arial, sans-serif" font-size="14" text-anchor="middle">
    Compliance og Juridiske Forpliktelser
  </text><g transform="translate(50 110)"><rect width="180" height="160" fill="#fff" filter="url(#b)" rx="10"/><rect width="180" height="40" fill="#4285f4" rx="10"/><path fill="#4285f4" d="M0 0h180v30H0z"/><text x="90" y="25" fill="#fff" font-family="Arial, sans-serif" font-size="16" font-weight="bold" text-anchor="middle">GDPR</text><text x="20" y="70" fill="#2c5aa0" font-family="Arial, sans-serif" font-size="12" font-weight="bold">Krav:</text><text x="20" y="85" fill="#333" font-family="Arial, sans-serif" font-size="10">• Appropriate technical measures</text><text x="20" y="100" fill="#333" font-family="Arial, sans-serif" font-size="10">• Data protection by design</text><text x="20" y="115" fill="#333" font-family="Arial, sans-serif" font-size="10">• Breach notification (72t)</text><text x="20" y="135" fill="#d32f2f" font-family="Arial, sans-serif" font-size="11" font-weight="bold">Straff:</text><text x="20" y="150" fill="#d32f2f" font-family="Arial, sans-serif" font-size="10">Opptil 4% av årlig omsetning</text></g><g transform="translate(260 110)"><rect width="180" height="160" fill="#fff" filter="url(#b)" rx="10"/><rect width="180" height="40" fill="#ff9800" rx="10"/><path fill="#ff9800" d="M0 0h180v30H0z"/><text x="90" y="25" fill="#fff" font-family="Arial, sans-serif" font-size="14" font-weight="bold" text-anchor="middle">Bokføringsloven</text><text x="20" y="70" fill="#e65100" font-family="Arial, sans-serif" font-size="12" font-weight="bold">Krav:</text><text x="20" y="85" fill="#333" font-family="Arial, sans-serif" font-size="10">• Sikker oppbevaring</text><text x="20" y="100" fill="#333" font-family="Arial, sans-serif" font-size="10">• 5 års lagringsplikt</text><text x="20" y="115" fill="#333" font-family="Arial, sans-serif" font-size="10">• Sporbarhet og integritet</text><text x="20" y="135" fill="#d32f2f" font-family="Arial, sans-serif" font-size="11" font-weight="bold">Straff:</text><text x="20" y="150" fill="#d32f2f" font-family="Arial, sans-serif" font-size="10">Bøter og juridisk ansvar</text></g><g transform="translate(470 110)"><rect width="180" height="160" fill="#fff" filter="url(#b)" rx="10"/><rect width="180" height="40" fill="#4caf50" rx="10"/><path fill="#4caf50" d="M0 0h180v30H0z"/><text x="90" y="25" fill="#fff" font-family="Arial, sans-serif" font-size="14" font-weight="bold" text-anchor="middle">Regnskapsloven</text><text x="20" y="70" fill="#2e7d32" font-family="Arial, sans-serif" font-size="12" font-weight="bold">Krav:</text><text x="20" y="85" fill="#333" font-family="Arial, sans-serif" font-size="10">• Dokumentasjonssikkerhet</text><text x="20" y="100" fill="#333" font-family="Arial, sans-serif" font-size="10">• Internkontroll</text><text x="20" y="115" fill="#333" font-family="Arial, sans-serif" font-size="10">• Revisjonsreadiness</text><text x="20" y="135" fill="#d32f2f" font-family="Arial, sans-serif" font-size="11" font-weight="bold">Straff:</text><text x="20" y="150" fill="#d32f2f" font-family="Arial, sans-serif" font-size="10">Styreansvar og sanksjoner</text></g><g transform="translate(50 300)"><rect width="600" height="120" fill="#fff" filter="url(#b)" rx="10"/><rect width="600" height="35" fill="#6366f1" rx="10"/><path fill="#6366f1" d="M0 0h600v25H0z"/><text x="300" y="22" fill="#fff" font-family="Arial, sans-serif" font-size="16" font-weight="bold" text-anchor="middle">
      2FA Compliance-fordeler
    </text><g transform="translate(30 50)"><circle cx="15" cy="15" r="8" fill="#4caf50"/><text x="15" y="20" fill="#fff" font-family="Arial, sans-serif" font-size="12" text-anchor="middle">✓</text><text x="35" y="20" fill="#333" font-family="Arial, sans-serif" font-size="11">Oppfyller &quot;appropriate technical measures&quot; krav</text></g><g transform="translate(320 50)"><circle cx="15" cy="15" r="8" fill="#4caf50"/><text x="15" y="20" fill="#fff" font-family="Arial, sans-serif" font-size="12" text-anchor="middle">✓</text><text x="35" y="20" fill="#333" font-family="Arial, sans-serif" font-size="11">Reduserer risiko for databrud og bøter</text></g><g transform="translate(30 75)"><circle cx="15" cy="15" r="8" fill="#4caf50"/><text x="15" y="20" fill="#fff" font-family="Arial, sans-serif" font-size="12" text-anchor="middle">✓</text><text x="35" y="20" fill="#333" font-family="Arial, sans-serif" font-size="11">Styrker internkontroll og revisjon</text></g><g transform="translate(320 75)"><circle cx="15" cy="15" r="8" fill="#4caf50"/><text x="15" y="20" fill="#fff" font-family="Arial, sans-serif" font-size="12" text-anchor="middle">✓</text><text x="35" y="20" fill="#333" font-family="Arial, sans-serif" font-size="11">Øker kundetillit og omdømme</text></g></g><g font-family="Arial, sans-serif"><text fill="#2c5aa0" font-size="12" font-weight="bold" transform="translate(50 445)">Kostnad ved brudd:</text><text x="150" fill="#d32f2f" font-size="11" transform="translate(50 445)">Gjennomsnitt 2.5 mill NOK</text><text x="350" fill="#2c5aa0" font-size="12" font-weight="bold" transform="translate(50 445)">2FA investering:</text><text x="470" fill="#4caf50" font-size="11" transform="translate(50 445)">400-800k NOK (første år)</text></g><g font-family="Arial, sans-serif"><text fill="#2c5aa0" font-size="12" font-weight="bold" transform="translate(50 470)">ROI:</text><text x="40" fill="#4caf50" font-size="11" transform="translate(50 470)">166% over 3 år</text><text x="200" fill="#2c5aa0" font-size="12" font-weight="bold" transform="translate(50 470)">Risikoreduktion:</text><text x="330" fill="#4caf50" font-size="11" transform="translate(50 470)">99% færre uautoriserte tilganger</text></g></svg>