<svg xmlns="http://www.w3.org/2000/svg" viewBox="0 0 800 600"><path fill="#f8f9fa" d="M0 0h800v600H0z"/><text x="400" y="30" fill="#2c3e50" font-family="Arial, sans-serif" font-size="24" font-weight="bold" text-anchor="middle">
    Risikohåndtering i 2FA-implementering
  </text><g transform="translate(50 80)"><path fill="#fff" stroke="#dee2e6" stroke-width="2" d="M0 0h300v300H0z"/><path stroke="#e9ecef" d="M0 100h300M0 200h300M100 0v300M200 0v300"/><text x="150" y="320" fill="#495057" font-family="Arial, sans-serif" font-size="14" font-weight="bold" text-anchor="middle">
      Sannsynlighet
    </text><text x="-10" y="150" fill="#495057" font-family="Arial, sans-serif" font-size="14" font-weight="bold" text-anchor="middle" transform="rotate(-90 -10 150)">
      Påvirkning
    </text><circle cx="250" cy="50" r="12" fill="#dc3545" opacity=".8"/><text x="250" y="55" fill="#fff" font-family="Arial, sans-serif" font-size="10" text-anchor="middle">BR</text><circle cx="150" cy="50" r="12" fill="#fd7e14" opacity=".8"/><text x="150" y="55" fill="#fff" font-family="Arial, sans-serif" font-size="10" text-anchor="middle">TP</text><circle cx="250" cy="150" r="12" fill="#ffc107" opacity=".8"/><text x="250" y="155" font-family="Arial, sans-serif" font-size="10" text-anchor="middle">BR</text><circle cx="250" cy="250" r="12" fill="#28a745" opacity=".8"/><text x="250" y="255" fill="#fff" font-family="Arial, sans-serif" font-size="10" text-anchor="middle">RE</text><text x="320" y="20" fill="#495057" font-family="Arial, sans-serif" font-size="12" font-weight="bold">Risikoer:</text><text x="320" y="40" fill="#495057" font-family="Arial, sans-serif" font-size="11">BR = Brukerresistens</text><text x="320" y="55" fill="#495057" font-family="Arial, sans-serif" font-size="11">TP = Tekniske problemer</text><text x="320" y="70" fill="#495057" font-family="Arial, sans-serif" font-size="11">LS = Leverandør-svikt</text><text x="320" y="85" fill="#495057" font-family="Arial, sans-serif" font-size="11">RE = Regulatorisk endring</text></g><path fill="#fff" stroke="#dee2e6" stroke-width="2" d="M450 80h300v300H450z"/><text x="150" y="25" fill="#2c3e50" font-family="Arial, sans-serif" font-size="16" font-weight="bold" text-anchor="middle" transform="translate(450 80)">
      Risikoreduserende tiltak
    </text><g transform="translate(470 130)"><rect width="260" height="45" fill="#e8f5e8" stroke="#28a745" rx="5"/><text x="10" y="15" fill="#155724" font-family="Arial, sans-serif" font-size="12" font-weight="bold">Omfattende opplæring</text><text x="10" y="30" fill="#155724" font-family="Arial, sans-serif" font-size="10">→ Reduserer brukerresistens</text><text x="10" y="40" fill="#155724" font-family="Arial, sans-serif" font-size="10">→ Forbedrer adopsjon</text><rect width="260" height="45" y="55" fill="#e7f3ff" stroke="#007bff" rx="5"/><text x="10" y="70" fill="#004085" font-family="Arial, sans-serif" font-size="12" font-weight="bold">Grundig testing</text><text x="10" y="85" fill="#004085" font-family="Arial, sans-serif" font-size="10">→ Identifiserer tekniske problemer</text><text x="10" y="95" fill="#004085" font-family="Arial, sans-serif" font-size="10">→ Backup-løsninger</text><rect width="260" height="45" y="110" fill="#fff3cd" stroke="#ffc107" rx="5"/><text x="10" y="125" fill="#856404" font-family="Arial, sans-serif" font-size="12" font-weight="bold">Multiple leverandører</text><text x="10" y="140" fill="#856404" font-family="Arial, sans-serif" font-size="10">→ Reduserer leverandøravhengighet</text><text x="10" y="150" fill="#856404" font-family="Arial, sans-serif" font-size="10">→ SLA-avtaler</text><rect width="260" height="45" y="165" fill="#f8d7da" stroke="#dc3545" rx="5"/><text x="10" y="180" fill="#721c24" font-family="Arial, sans-serif" font-size="12" font-weight="bold">Compliance-monitoring</text><text x="10" y="195" fill="#721c24" font-family="Arial, sans-serif" font-size="10">→ Løpende overvåking</text><text x="10" y="205" fill="#721c24" font-family="Arial, sans-serif" font-size="10">→ Proaktiv tilpasning</text></g><path fill="#fff" stroke="#dee2e6" stroke-width="2" d="M50 420h700v140H50z"/><text x="350" y="25" fill="#2c3e50" font-family="Arial, sans-serif" font-size="16" font-weight="bold" text-anchor="middle" transform="translate(50 420)">
      Beredskapsplaner
    </text><g transform="translate(70 460)"><rect width="150" height="80" fill="#d4edda" stroke="#28a745" rx="5"/><text x="75" y="15" fill="#155724" font-family="Arial, sans-serif" font-size="12" font-weight="bold" text-anchor="middle">Plan A</text><text x="5" y="30" fill="#155724" font-family="Arial, sans-serif" font-size="10">Primær 2FA-løsning</text><text x="5" y="45" fill="#155724" font-family="Arial, sans-serif" font-size="10">TOTP-apper</text><text x="5" y="60" fill="#155724" font-family="Arial, sans-serif" font-size="10">Hardware-nøkler</text><text x="5" y="75" fill="#155724" font-family="Arial, sans-serif" font-size="10">Normal drift</text></g><g transform="translate(240 460)"><rect width="150" height="80" fill="#fff3cd" stroke="#ffc107" rx="5"/><text x="75" y="15" fill="#856404" font-family="Arial, sans-serif" font-size="12" font-weight="bold" text-anchor="middle">Plan B</text><text x="5" y="30" fill="#856404" font-family="Arial, sans-serif" font-size="10">Fallback til SMS</text><text x="5" y="45" fill="#856404" font-family="Arial, sans-serif" font-size="10">Primær-system nede</text><text x="5" y="60" fill="#856404" font-family="Arial, sans-serif" font-size="10">Midlertidig løsning</text><text x="5" y="75" fill="#856404" font-family="Arial, sans-serif" font-size="10">Redusert sikkerhet</text></g><g transform="translate(410 460)"><rect width="150" height="80" fill="#ffeaa7" stroke="#fd7e14" rx="5"/><text x="75" y="15" fill="#8b4513" font-family="Arial, sans-serif" font-size="12" font-weight="bold" text-anchor="middle">Plan C</text><text x="5" y="30" fill="#8b4513" font-family="Arial, sans-serif" font-size="10">Administrativ godkjenning</text><text x="5" y="45" fill="#8b4513" font-family="Arial, sans-serif" font-size="10">Manuell prosess</text><text x="5" y="60" fill="#8b4513" font-family="Arial, sans-serif" font-size="10">Nødssituasjon</text><text x="5" y="75" fill="#8b4513" font-family="Arial, sans-serif" font-size="10">Tidsbegrenset</text></g><g transform="translate(580 460)"><rect width="150" height="80" fill="#f8d7da" stroke="#dc3545" rx="5"/><text x="75" y="15" fill="#721c24" font-family="Arial, sans-serif" font-size="12" font-weight="bold" text-anchor="middle">Plan D</text><text x="5" y="30" fill="#721c24" font-family="Arial, sans-serif" font-size="10">Offline-arbeid</text><text x="5" y="45" fill="#721c24" font-family="Arial, sans-serif" font-size="10">Ettersynkronisering</text><text x="5" y="60" fill="#721c24" font-family="Arial, sans-serif" font-size="10">Komplett system-svikt</text><text x="5" y="75" fill="#721c24" font-family="Arial, sans-serif" font-size="10">Siste utvei</text></g><defs><marker id="a" markerHeight="7" markerWidth="10" orient="auto" refX="9" refY="3.5"><path fill="#6c757d" d="m0 0 10 3.5L0 7z"/></marker></defs><path stroke="#6c757d" stroke-width="2" marker-end="url(#a)" d="M350 230h100"/><path stroke="#6c757d" stroke-width="2" marker-end="url(#a)" d="M600 380v40"/></svg>