<svg xmlns="http://www.w3.org/2000/svg" width="700" height="450" viewBox="0 0 700 450"><defs><linearGradient id="a" x1="0%" x2="100%" y1="0%" y2="0%"><stop offset="0%" style="stop-color:#1976d2;stop-opacity:1"/><stop offset="100%" style="stop-color:#1565c0;stop-opacity:1"/></linearGradient><filter id="b" width="120%" height="120%" x="-10%" y="-10%"><feDropShadow dx="2" dy="2" flood-color="#000" flood-opacity=".2" stdDeviation="2"/></filter></defs><path fill="#f5f5f5" d="M0 0h700v450H0z"/><path fill="url(#a)" d="M0 0h700v60H0z"/><text x="350" y="25" fill="#fff" font-family="Arial, sans-serif" font-size="22" font-weight="bold" text-anchor="middle">
    SMS-basert 2FA: Fordeler og Risikoer
  </text><text x="350" y="45" fill="#e3f2fd" font-family="Arial, sans-serif" font-size="12" text-anchor="middle">
    Evaluering av SMS som tofaktorautentisering
  </text><g transform="translate(50 80)"><rect width="100" height="80" fill="#fff" filter="url(#b)" rx="10"/><rect width="100" height="25" fill="#4caf50" rx="10"/><path fill="#4caf50" d="M0 15h100v10H0z"/><text x="50" y="18" fill="#fff" font-family="Arial, sans-serif" font-size="11" font-weight="bold" text-anchor="middle">1. Innlogging</text><text x="50" y="45" fill="#333" font-family="Arial, sans-serif" font-size="10" text-anchor="middle">Bruker logger inn</text><text x="50" y="58" fill="#333" font-family="Arial, sans-serif" font-size="10" text-anchor="middle">med brukernavn</text><text x="50" y="71" fill="#333" font-family="Arial, sans-serif" font-size="10" text-anchor="middle">og passord</text><path stroke="#2196f3" stroke-width="2" marker-end="url(#c)" d="M110 40h30"/><rect width="100" height="80" x="150" fill="#fff" filter="url(#b)" rx="10"/><rect width="100" height="25" x="150" fill="#ff9800" rx="10"/><path fill="#ff9800" d="M150 15h100v10H150z"/><text x="200" y="18" fill="#fff" font-family="Arial, sans-serif" font-size="11" font-weight="bold" text-anchor="middle">2. SMS forespørsel</text><text x="200" y="45" fill="#333" font-family="Arial, sans-serif" font-size="10" text-anchor="middle">System sender</text><text x="200" y="58" fill="#333" font-family="Arial, sans-serif" font-size="10" text-anchor="middle">SMS-kode til</text><text x="200" y="71" fill="#333" font-family="Arial, sans-serif" font-size="10" text-anchor="middle">registrert nummer</text><path stroke="#2196f3" stroke-width="2" marker-end="url(#c)" d="M260 40h30"/><rect width="100" height="80" x="300" fill="#fff" filter="url(#b)" rx="10"/><rect width="100" height="25" x="300" fill="#2196f3" rx="10"/><path fill="#2196f3" d="M300 15h100v10H300z"/><text x="350" y="18" fill="#fff" font-family="Arial, sans-serif" font-size="11" font-weight="bold" text-anchor="middle">3. SMS mottak</text><text x="350" y="45" fill="#333" font-family="Arial, sans-serif" font-size="10" text-anchor="middle">Bruker mottar</text><text x="350" y="58" fill="#333" font-family="Arial, sans-serif" font-size="10" text-anchor="middle">6-siffer kode</text><text x="350" y="71" fill="#333" font-family="Arial, sans-serif" font-size="10" text-anchor="middle">på mobil</text><path stroke="#2196f3" stroke-width="2" marker-end="url(#c)" d="M410 40h30"/><rect width="100" height="80" x="450" fill="#fff" filter="url(#b)" rx="10"/><rect width="100" height="25" x="450" fill="#4caf50" rx="10"/><path fill="#4caf50" d="M450 15h100v10H450z"/><text x="500" y="18" fill="#fff" font-family="Arial, sans-serif" font-size="11" font-weight="bold" text-anchor="middle">4. Verifikasjon</text><text x="500" y="45" fill="#333" font-family="Arial, sans-serif" font-size="10" text-anchor="middle">Kode verifiseres</text><text x="500" y="58" fill="#333" font-family="Arial, sans-serif" font-size="10" text-anchor="middle">og tilgang</text><text x="500" y="71" fill="#333" font-family="Arial, sans-serif" font-size="10" text-anchor="middle">gis</text></g><g transform="translate(50 190)"><rect width="280" height="170" fill="#fff" filter="url(#b)" rx="10"/><rect width="280" height="35" fill="#4caf50" rx="10"/><path fill="#4caf50" d="M0 0h280v25H0z"/><text x="140" y="22" fill="#fff" font-family="Arial, sans-serif" font-size="14" font-weight="bold" text-anchor="middle">
      Fordeler med SMS 2FA
    </text><g transform="translate(20 50)"><circle cx="8" cy="8" r="6" fill="#4caf50"/><text x="8" y="12" fill="#fff" font-family="Arial, sans-serif" font-size="10" text-anchor="middle">✓</text><text x="25" y="12" fill="#333" font-family="Arial, sans-serif" font-size="11">Enkel implementering for brukere</text></g><g transform="translate(20 75)"><circle cx="8" cy="8" r="6" fill="#4caf50"/><text x="8" y="12" fill="#fff" font-family="Arial, sans-serif" font-size="10" text-anchor="middle">✓</text><text x="25" y="12" fill="#333" font-family="Arial, sans-serif" font-size="11">Lav kostnad for organisasjoner</text></g><g transform="translate(20 100)"><circle cx="8" cy="8" r="6" fill="#4caf50"/><text x="8" y="12" fill="#fff" font-family="Arial, sans-serif" font-size="10" text-anchor="middle">✓</text><text x="25" y="12" fill="#333" font-family="Arial, sans-serif" font-size="11">Bred kompatibilitet med alle mobiler</text></g><g transform="translate(20 125)"><circle cx="8" cy="8" r="6" fill="#4caf50"/><text x="8" y="12" fill="#fff" font-family="Arial, sans-serif" font-size="10" text-anchor="middle">✓</text><text x="25" y="12" fill="#333" font-family="Arial, sans-serif" font-size="11">Ingen app-installasjon nødvendig</text></g><g transform="translate(20 150)"><circle cx="8" cy="8" r="6" fill="#4caf50"/><text x="8" y="12" fill="#fff" font-family="Arial, sans-serif" font-size="10" text-anchor="middle">✓</text><text x="25" y="12" fill="#333" font-family="Arial, sans-serif" font-size="11">Rask utrulling til hele organisasjonen</text></g></g><g transform="translate(370 190)"><rect width="280" height="170" fill="#fff" filter="url(#b)" rx="10"/><rect width="280" height="35" fill="#f44336" rx="10"/><path fill="#f44336" d="M0 0h280v25H0z"/><text x="140" y="22" fill="#fff" font-family="Arial, sans-serif" font-size="14" font-weight="bold" text-anchor="middle">
      Risikoer og Sårbarheter
    </text><g transform="translate(20 50)"><circle cx="8" cy="8" r="6" fill="#f44336"/><text x="8" y="12" fill="#fff" font-family="Arial, sans-serif" font-size="10" text-anchor="middle">!</text><text x="25" y="12" fill="#333" font-family="Arial, sans-serif" font-size="11">SIM-swapping angrep</text></g><g transform="translate(20 75)"><circle cx="8" cy="8" r="6" fill="#f44336"/><text x="8" y="12" fill="#fff" font-family="Arial, sans-serif" font-size="10" text-anchor="middle">!</text><text x="25" y="12" fill="#333" font-family="Arial, sans-serif" font-size="11">SMS-intercepting via SS7</text></g><g transform="translate(20 100)"><circle cx="8" cy="8" r="6" fill="#f44336"/><text x="8" y="12" fill="#fff" font-family="Arial, sans-serif" font-size="10" text-anchor="middle">!</text><text x="25" y="12" fill="#333" font-family="Arial, sans-serif" font-size="11">Nettverksavhengighet</text></g><g transform="translate(20 125)"><circle cx="8" cy="8" r="6" fill="#f44336"/><text x="8" y="12" fill="#fff" font-family="Arial, sans-serif" font-size="10" text-anchor="middle">!</text><text x="25" y="12" fill="#333" font-family="Arial, sans-serif" font-size="11">Phishing av SMS-koder</text></g><g transform="translate(20 150)"><circle cx="8" cy="8" r="6" fill="#f44336"/><text x="8" y="12" fill="#fff" font-family="Arial, sans-serif" font-size="10" text-anchor="middle">!</text><text x="25" y="12" fill="#333" font-family="Arial, sans-serif" font-size="11">Forsinkelser i leveranse</text></g></g><g transform="translate(250 380)"><rect width="200" height="50" fill="#fff" filter="url(#b)" rx="10"/><text x="100" y="20" fill="#333" font-family="Arial, sans-serif" font-size="12" font-weight="bold" text-anchor="middle">
      Sikkerhetsvurdering: SMS 2FA
    </text><rect width="160" height="12" x="20" y="28" fill="#e0e0e0" rx="6"/><rect width="96" height="12" x="20" y="28" fill="#ff9800" rx="6"/><text x="100" y="47" fill="#666" font-family="Arial, sans-serif" font-size="10" text-anchor="middle">
      Middels sikkerhet (60%) - Anbefales kun som backup
    </text></g><defs><marker id="c" markerHeight="7" markerWidth="10" orient="auto" refX="10" refY="3.5"><path fill="#2196f3" d="m0 0 10 3.5L0 7z"/></marker></defs></svg>