<svg xmlns="http://www.w3.org/2000/svg" width="800" height="700" viewBox="0 0 800 700"><path fill="#f5f7fa" d="M0 0h800v700H0z"/><text x="400" y="40" fill="#2c3e50" font-family="Arial, sans-serif" font-size="24" font-weight="bold" text-anchor="middle">
    Digital Bilagsbehandling - Moderne Løsninger
  </text><rect width="300" height="150" x="50" y="70" fill="#ffebee" stroke="#f44336" stroke-width="2" rx="10"/><text x="200" y="95" fill="#f44336" font-family="Arial, sans-serif" font-size="18" font-weight="bold" text-anchor="middle">
    Tradisjonell Behandling
  </text><text x="70" y="120" fill="#2c3e50" font-family="Arial, sans-serif" font-size="14">✗ Manuell dataregistrering</text><text x="70" y="140" fill="#2c3e50" font-family="Arial, sans-serif" font-size="14">✗ Fysisk lagring og arkivering</text><text x="70" y="160" fill="#2c3e50" font-family="Arial, sans-serif" font-size="14">✗ Tidkrevende søk og gjenfinning</text><text x="70" y="180" fill="#2c3e50" font-family="Arial, sans-serif" font-size="14">✗ Risiko for tap og skade</text><text x="70" y="200" fill="#2c3e50" font-family="Arial, sans-serif" font-size="14">✗ Høye administrative kostnader</text><rect width="300" height="150" x="450" y="70" fill="#e8f5e8" stroke="#4caf50" stroke-width="2" rx="10"/><text x="600" y="95" fill="#4caf50" font-family="Arial, sans-serif" font-size="18" font-weight="bold" text-anchor="middle">
    Digital Behandling
  </text><text x="470" y="120" fill="#2c3e50" font-family="Arial, sans-serif" font-size="14">✓ OCR og automatisk registrering</text><text x="470" y="140" fill="#2c3e50" font-family="Arial, sans-serif" font-size="14">✓ Skybasert lagring med backup</text><text x="470" y="160" fill="#2c3e50" font-family="Arial, sans-serif" font-size="14">✓ Øyeblikkelig søk og filter</text><text x="470" y="180" fill="#2c3e50" font-family="Arial, sans-serif" font-size="14">✓ Sikker kryptering og tilgang</text><text x="470" y="200" fill="#2c3e50" font-family="Arial, sans-serif" font-size="14">✓ Betydelig kostnadsreduksjon</text><path fill="none" stroke="#2196f3" stroke-width="3" marker-end="url(#a)" d="M360 145q40-20 80 0"/><defs><marker id="a" markerHeight="7" markerWidth="10" orient="auto" refX="10" refY="3.5"><path fill="#2196f3" d="m0 0 10 3.5L0 7z"/></marker></defs><rect width="340" height="180" x="50" y="250" fill="#e3f2fd" stroke="#1976d2" stroke-width="2" rx="10"/><text x="220" y="275" fill="#1976d2" font-family="Arial, sans-serif" font-size="18" font-weight="bold" text-anchor="middle">
    OCR-teknologi
  </text><circle cx="80" cy="300" r="6" fill="#1976d2"/><text x="100" y="305" fill="#2c3e50" font-family="Arial, sans-serif" font-size="14">Automatisk gjenkjenning av tekst</text><circle cx="80" cy="325" r="6" fill="#1976d2"/><text x="100" y="330" fill="#2c3e50" font-family="Arial, sans-serif" font-size="14">Ekstrahering av nøkkeltall</text><circle cx="80" cy="350" r="6" fill="#1976d2"/><text x="100" y="355" fill="#2c3e50" font-family="Arial, sans-serif" font-size="14">Leverandør og datogjenkjenning</text><circle cx="80" cy="375" r="6" fill="#1976d2"/><text x="100" y="380" fill="#2c3e50" font-family="Arial, sans-serif" font-size="14">MVA-beregning og validering</text><circle cx="80" cy="400" r="6" fill="#1976d2"/><text x="100" y="405" fill="#2c3e50" font-family="Arial, sans-serif" font-size="14">Opptil 90% reduksjon i manuelt arbeid</text><rect width="340" height="180" x="410" y="250" fill="#f3e5f5" stroke="#9c27b0" stroke-width="2" rx="10"/><text x="580" y="275" fill="#9c27b0" font-family="Arial, sans-serif" font-size="18" font-weight="bold" text-anchor="middle">
    AI og Maskinlæring
  </text><circle cx="440" cy="300" r="6" fill="#9c27b0"/><text x="460" y="305" fill="#2c3e50" font-family="Arial, sans-serif" font-size="14">Intelligent konteringsforslag</text><circle cx="440" cy="325" r="6" fill="#9c27b0"/><text x="460" y="330" fill="#2c3e50" font-family="Arial, sans-serif" font-size="14">Automatisk kategorisering</text><circle cx="440" cy="350" r="6" fill="#9c27b0"/><text x="460" y="355" fill="#2c3e50" font-family="Arial, sans-serif" font-size="14">Anomalideteksjon og varsler</text><circle cx="440" cy="375" r="6" fill="#9c27b0"/><text x="460" y="380" fill="#2c3e50" font-family="Arial, sans-serif" font-size="14">Læring fra historiske data</text><circle cx="440" cy="400" r="6" fill="#9c27b0"/><text x="460" y="405" fill="#2c3e50" font-family="Arial, sans-serif" font-size="14">Prediktiv analyse og prognoser</text><rect width="340" height="180" x="50" y="460" fill="#fff3e0" stroke="#ff9800" stroke-width="2" rx="10"/><text x="220" y="485" fill="#ff9800" font-family="Arial, sans-serif" font-size="18" font-weight="bold" text-anchor="middle">
    Workflow-automatisering
  </text><circle cx="80" cy="510" r="6" fill="#ff9800"/><text x="100" y="515" fill="#2c3e50" font-family="Arial, sans-serif" font-size="14">Automatisk routing av bilag</text><circle cx="80" cy="535" r="6" fill="#ff9800"/><text x="100" y="540" fill="#2c3e50" font-family="Arial, sans-serif" font-size="14">Godkjenningsprosesser</text><circle cx="80" cy="560" r="6" fill="#ff9800"/><text x="100" y="565" fill="#2c3e50" font-family="Arial, sans-serif" font-size="14">Eskalering ved forsinkelser</text><circle cx="80" cy="585" r="6" fill="#ff9800"/><text x="100" y="590" fill="#2c3e50" font-family="Arial, sans-serif" font-size="14">Mobilgodkjenning</text><circle cx="80" cy="610" r="6" fill="#ff9800"/><text x="100" y="615" fill="#2c3e50" font-family="Arial, sans-serif" font-size="14">Integrerte påminnelser</text><rect width="340" height="180" x="410" y="460" fill="#e0f2f1" stroke="#009688" stroke-width="2" rx="10"/><text x="580" y="485" fill="#009688" font-family="Arial, sans-serif" font-size="18" font-weight="bold" text-anchor="middle">
    Skylagring og Sikkerhet
  </text><circle cx="440" cy="510" r="6" fill="#009688"/><text x="460" y="515" fill="#2c3e50" font-family="Arial, sans-serif" font-size="14">256-bit kryptering</text><circle cx="440" cy="535" r="6" fill="#009688"/><text x="460" y="540" fill="#2c3e50" font-family="Arial, sans-serif" font-size="14">Automatisk backup og redundans</text><circle cx="440" cy="560" r="6" fill="#009688"/><text x="460" y="565" fill="#2c3e50" font-family="Arial, sans-serif" font-size="14">Tilgangskontroll og brukerrettigheter</text><circle cx="440" cy="585" r="6" fill="#009688"/><text x="460" y="590" fill="#2c3e50" font-family="Arial, sans-serif" font-size="14">Audit trail og sporbarhet</text><circle cx="440" cy="610" r="6" fill="#009688"/><text x="460" y="615" fill="#2c3e50" font-family="Arial, sans-serif" font-size="14">Compliance med GDPR og norske krav</text><ellipse cx="400" cy="670" fill="#4caf50" opacity=".8" rx="150" ry="20"/><text x="400" y="675" fill="#fff" font-family="Arial, sans-serif" font-size="16" font-weight="bold" text-anchor="middle">
    ROI: 300-500% innen 2 år
  </text></svg>