<svg xmlns="http://www.w3.org/2000/svg" width="750" height="450"><defs><linearGradient id="a" x1="0%" x2="100%" y1="0%" y2="100%"><stop offset="0%" style="stop-color:#f8f9fa;stop-opacity:1"/><stop offset="100%" style="stop-color:#e9ecef;stop-opacity:1"/></linearGradient><linearGradient id="b" x1="0%" x2="100%" y1="0%" y2="100%"><stop offset="0%" style="stop-color:#dc3545;stop-opacity:.9"/><stop offset="100%" style="stop-color:#721c24;stop-opacity:.9"/></linearGradient><linearGradient id="c" x1="0%" x2="100%" y1="0%" y2="100%"><stop offset="0%" style="stop-color:#28a745;stop-opacity:.9"/><stop offset="100%" style="stop-color:#155724;stop-opacity:.9"/></linearGradient></defs><path fill="url(#a)" d="M0 0h750v450H0z"/><text x="375" y="30" fill="#212529" font-family="Arial, sans-serif" font-size="24" font-weight="bold" text-anchor="middle">
    MVA-behandling av Fjernleverbare Tjenester
  </text><g transform="translate(100 150)"><rect width="100" height="60" x="-50" y="-30" fill="#007bff" opacity=".9" rx="8"/><text y="-10" fill="#fff" font-family="Arial, sans-serif" font-size="12" font-weight="bold" text-anchor="middle">Norsk</text><text y="5" fill="#fff" font-family="Arial, sans-serif" font-size="12" font-weight="bold" text-anchor="middle">Leverandør</text><path fill="#ba0c2f" d="M-40 15h80v8h-80z"/><path fill="#fff" d="M-40 15h80v3h-80z"/><path fill="#00205b" d="M-40 20h80v3h-80z"/></g><g transform="translate(375 100)"><rect width="120" height="70" x="-60" y="-35" fill="url(#b)" rx="10"/><text y="-15" fill="#fff" font-family="Arial, sans-serif" font-size="14" font-weight="bold" text-anchor="middle">B2C Kunde</text><text fill="#fff" font-family="Arial, sans-serif" font-size="12" text-anchor="middle">(Privatperson)</text><g fill="#fff" transform="translate(0 15)"><circle cy="-5" r="6" opacity=".9"/><ellipse cy="8" opacity=".9" rx="8" ry="6"/></g><text y="55" fill="#721c24" font-family="Arial, sans-serif" font-size="10" font-weight="bold" text-anchor="middle">MVA i kundens land</text><text y="68" fill="#721c24" font-family="Arial, sans-serif" font-size="9" text-anchor="middle">MOSS eller registrering</text></g><g transform="translate(375 280)"><rect width="120" height="70" x="-60" y="-35" fill="url(#c)" rx="10"/><text y="-15" fill="#fff" font-family="Arial, sans-serif" font-size="14" font-weight="bold" text-anchor="middle">B2B Kunde</text><text fill="#fff" font-family="Arial, sans-serif" font-size="12" text-anchor="middle">(Næringsdrivende)</text><g transform="translate(0 15)"><rect width="20" height="12" x="-10" y="-5" fill="#fff" opacity=".9" rx="2"/><path fill="#28a745" d="M-6-2h4v6h-4zM2-2h4v6H2z"/></g><text y="55" fill="#155724" font-family="Arial, sans-serif" font-size="10" font-weight="bold" text-anchor="middle">Omvendt avgiftsplikt</text><text y="68" fill="#155724" font-family="Arial, sans-serif" font-size="9" text-anchor="middle">Kunden betaler MVA</text></g><g fill="none" stroke="#6c757d" stroke-width="3" marker-end="url(#d)"><defs><marker id="d" markerHeight="7" markerWidth="10" orient="auto" refX="9" refY="3.5"><path fill="#6c757d" d="m0 0 10 3.5L0 7z"/></marker></defs><path stroke="#dc3545" stroke-width="2" d="M150 130q100-50 165-30"/><path stroke="#28a745" stroke-width="2" d="M150 170q100 50 165 110"/></g><g transform="translate(650 150)"><rect width="140" height="100" x="-70" y="-50" fill="#6c757d" opacity=".1" rx="8"/><text y="-30" fill="#495057" font-family="Arial, sans-serif" font-size="12" font-weight="bold" text-anchor="middle">Tjenester</text><text y="-15" fill="#495057" font-family="Arial, sans-serif" font-size="10" text-anchor="middle">• SaaS-løsninger</text><text y="-2" fill="#495057" font-family="Arial, sans-serif" font-size="10" text-anchor="middle">• Streaming</text><text y="11" fill="#495057" font-family="Arial, sans-serif" font-size="10" text-anchor="middle">• Cloud-lagring</text><text y="24" fill="#495057" font-family="Arial, sans-serif" font-size="10" text-anchor="middle">• API-tjenester</text><text y="37" fill="#495057" font-family="Arial, sans-serif" font-size="10" text-anchor="middle">• E-læring</text></g><g fill="#495057" font-family="Arial, sans-serif" font-size="11"><text x="50" y="380" font-weight="bold">Stedsbestemmelse:</text><text x="50" y="395">Tjenesten anses levert der kunden har sitt sete</text><text x="50" y="410">- ikke der leverandøren befinner seg</text><text x="400" y="380" font-weight="bold">Dokumentasjon kreves:</text><text x="400" y="395">• Kundens identitet og lokalisering</text><text x="400" y="410">• MVA-nummer for B2B-kunder</text><text x="400" y="425">• Tekniske leveringsdetaljer</text></g><g transform="translate(50 50)"><rect width="50" height="30" x="-25" y="-15" fill="#039" rx="3"/><g fill="#fc0"><circle cy="-8" r="1.5"/><circle cx="6" cy="-6" r="1.5"/><circle cx="8" r="1.5"/><circle cx="6" cy="6" r="1.5"/><circle cy="8" r="1.5"/><circle cx="-6" cy="6" r="1.5"/><circle cx="-8" r="1.5"/><circle cx="-6" cy="-6" r="1.5"/></g><text y="25" fill="#495057" font-family="Arial, sans-serif" font-size="9" text-anchor="middle">EU-regler</text></g></svg>