<svg xmlns="http://www.w3.org/2000/svg" width="800" height="450"><defs><linearGradient id="a" x1="0%" x2="100%" y1="0%" y2="100%"><stop offset="0%" style="stop-color:#f8f9fa;stop-opacity:1"/><stop offset="100%" style="stop-color:#e9ecef;stop-opacity:1"/></linearGradient><linearGradient id="c" x1="0%" x2="100%" y1="0%" y2="100%"><stop offset="0%" style="stop-color:#6f42c1;stop-opacity:.9"/><stop offset="100%" style="stop-color:#4c2a85;stop-opacity:.9"/></linearGradient><linearGradient id="d" x1="0%" x2="100%" y1="0%" y2="100%"><stop offset="0%" style="stop-color:#007bff;stop-opacity:.9"/><stop offset="100%" style="stop-color:#0056b3;stop-opacity:.9"/></linearGradient><linearGradient id="e" x1="0%" x2="100%" y1="0%" y2="100%"><stop offset="0%" style="stop-color:#28a745;stop-opacity:.9"/><stop offset="100%" style="stop-color:#155724;stop-opacity:.9"/></linearGradient></defs><path fill="url(#a)" d="M0 0h800v450H0z"/><text x="400" y="30" fill="#212529" font-family="Arial, sans-serif" font-size="24" font-weight="bold" text-anchor="middle">
    Fremtidige Trender for Fjernleverbare Tjenester
  </text><g fill="none" stroke="#6c757d" stroke-width="3" marker-end="url(#b)"><defs><marker id="b" markerHeight="7" markerWidth="10" orient="auto" refX="9" refY="3.5"><path fill="#6c757d" d="m0 0 10 3.5L0 7z"/></marker></defs><path d="M50 80h700"/><text x="400" y="70" fill="#6c757d" font-family="Arial, sans-serif" font-size="12" text-anchor="middle">Tidslinje</text></g><g transform="translate(100 80)"><circle r="8" fill="#6c757d"/><text y="25" fill="#495057" font-family="Arial, sans-serif" font-size="10" font-weight="bold" text-anchor="middle">I dag</text><text y="40" fill="#495057" font-family="Arial, sans-serif" font-size="9" text-anchor="middle">Komplekse</text><text y="52" fill="#495057" font-family="Arial, sans-serif" font-size="9" text-anchor="middle">MVA-regler</text></g><g transform="translate(300 120)"><rect width="140" height="80" x="-70" y="-40" fill="url(#c)" rx="10"/><text y="-20" fill="#fff" font-family="Arial, sans-serif" font-size="12" font-weight="bold" text-anchor="middle">Digitale Tjenester</text><text y="-5" fill="#fff" font-family="Arial, sans-serif" font-size="12" font-weight="bold" text-anchor="middle">Pakke (DSP)</text><g fill="#fc0" transform="translate(0 15)"><circle cx="-15" cy="-5" r="2"/><circle cy="-8" r="2"/><circle cx="15" cy="-5" r="2"/><circle cx="10" cy="5" r="2"/><circle cx="-10" cy="5" r="2"/></g><circle cy="-80" r="6" fill="#6f42c1"/><text y="-90" fill="#495057" font-family="Arial, sans-serif" font-size="9" text-anchor="middle">2025-2027</text><text y="60" fill="#495057" font-family="Arial, sans-serif" font-size="9" text-anchor="middle">• Forenklede regler</text><text y="72" fill="#495057" font-family="Arial, sans-serif" font-size="9" text-anchor="middle">• Harmonisert rapportering</text></g><g transform="translate(500 120)"><rect width="140" height="80" x="-70" y="-40" fill="url(#d)" rx="10"/><text y="-20" fill="#fff" font-family="Arial, sans-serif" font-size="12" font-weight="bold" text-anchor="middle">AI og</text><text y="-5" fill="#fff" font-family="Arial, sans-serif" font-size="12" font-weight="bold" text-anchor="middle">Automatisering</text><g transform="translate(0 15)"><circle r="12" fill="#fff" opacity=".9"/><circle cx="-4" cy="-3" r="2" fill="#007bff"/><circle cx="4" cy="-3" r="2" fill="#007bff"/><path fill="none" stroke="#007bff" stroke-width="2" d="M-6 3Q0 8 6 3"/></g><circle cy="-80" r="6" fill="#007bff"/><text y="-90" fill="#495057" font-family="Arial, sans-serif" font-size="9" text-anchor="middle">2024-2026</text><text y="60" fill="#495057" font-family="Arial, sans-serif" font-size="9" text-anchor="middle">• Automatisk MVA-beregning</text><text y="72" fill="#495057" font-family="Arial, sans-serif" font-size="9" text-anchor="middle">• Prediktiv compliance</text></g><g transform="translate(700 120)"><rect width="140" height="80" x="-70" y="-40" fill="url(#e)" rx="10"/><text y="-20" fill="#fff" font-family="Arial, sans-serif" font-size="12" font-weight="bold" text-anchor="middle">Bærekraft og</text><text y="-5" fill="#fff" font-family="Arial, sans-serif" font-size="12" font-weight="bold" text-anchor="middle">ESG</text><g transform="translate(0 15)"><ellipse fill="#fff" opacity=".9" rx="8" ry="12"/><path fill="#28a745" d="M0-8Q4 0 0 8-4 0 0-8"/></g><circle cy="-80" r="6" fill="#28a745"/><text y="-90" fill="#495057" font-family="Arial, sans-serif" font-size="9" text-anchor="middle">2025-2030</text><text y="60" fill="#495057" font-family="Arial, sans-serif" font-size="9" text-anchor="middle">• Miljørapportering</text><text y="72" fill="#495057" font-family="Arial, sans-serif" font-size="9" text-anchor="middle">• Karbonfotavtrykk</text></g><g fill="none" stroke="#6c757d" opacity=".5"><path d="M300 40v40M500 40v40M700 40v40"/></g><g transform="translate(200 280)"><rect width="300" height="100" x="-150" y="-50" fill="#e9ecef" opacity=".8" rx="10"/><text y="-25" fill="#212529" font-family="Arial, sans-serif" font-size="16" font-weight="bold" text-anchor="middle">
      Teknologiske Drivere
    </text><g fill="#495057" font-family="Arial, sans-serif" font-size="11"><text x="-120" y="-5" font-weight="bold">Blockchain:</text><text x="-120" y="8">• Transparent dokumentasjon</text><text x="-120" y="20">• Automatisk compliance</text><text x="-120" y="32">• Smart contracts</text><text x="20" y="-5" font-weight="bold">Cloud Computing:</text><text x="20" y="8">• Skalerbare løsninger</text><text x="20" y="20">• Global tilgjengelighet</text><text x="20" y="32">• Kostnadseffektivitet</text></g></g><g transform="translate(600 280)"><rect width="300" height="100" x="-150" y="-50" fill="#e9ecef" opacity=".8" rx="10"/><text y="-25" fill="#212529" font-family="Arial, sans-serif" font-size="16" font-weight="bold" text-anchor="middle">
      Regulatoriske Endringer
    </text><g fill="#495057" font-family="Arial, sans-serif" font-size="11"><text x="-120" y="-5" font-weight="bold">OECD BEPS:</text><text x="-120" y="8">• Digital PE-regler</text><text x="-120" y="20">• Pillar One implementering</text><text x="-120" y="32">• Multinasjonale selskaper</text><text x="20" y="-5" font-weight="bold">EU-harmonisering:</text><text x="20" y="8">• Felles rapporteringsformat</text><text x="20" y="20">• Reduserte administrative byrder</text><text x="20" y="32">• Økt grenseoverskridende handel</text></g></g><g fill="#495057" font-family="Arial, sans-serif" font-size="12"><text x="50" y="420" font-weight="bold">Forventet påvirkning:</text><text x="50" y="435">• 40% reduksjon i compliance-kostnader innen 2030</text><text x="450" y="435">• 60% økning i automatiserte prosesser innen 2027</text></g></svg>