<svg xmlns="http://www.w3.org/2000/svg" width="800" height="400"><path fill="#f8f9fa" d="M0 0h800v400H0z"/><text x="400" y="30" fill="#2c3e50" font-family="Arial, sans-serif" font-size="20" font-weight="bold" text-anchor="middle">
    Feriepengeoppgjør Prosess
  </text><rect width="700" height="320" x="50" y="50" fill="#fff" stroke="#e9ecef" stroke-width="2" rx="10"/><rect width="150" height="80" x="80" y="80" fill="#3498db" rx="5"/><text x="155" y="105" fill="#fff" font-family="Arial, sans-serif" font-size="12" font-weight="bold" text-anchor="middle">
    1. Beregn faktiske
  </text><text x="155" y="120" fill="#fff" font-family="Arial, sans-serif" font-size="12" font-weight="bold" text-anchor="middle">
    feriepenger
  </text><text x="155" y="140" fill="#fff" font-family="Arial, sans-serif" font-size="10" text-anchor="middle">
    Basert på årets
  </text><text x="155" y="155" fill="#fff" font-family="Arial, sans-serif" font-size="10" text-anchor="middle">
    feriepengegivende inntekt
  </text><path fill="none" stroke="#34495e" stroke-width="3" marker-end="url(#a)" d="M250 120h40"/><rect width="150" height="80" x="310" y="80" fill="#e74c3c" rx="5"/><text x="385" y="105" fill="#fff" font-family="Arial, sans-serif" font-size="12" font-weight="bold" text-anchor="middle">
    2. Avstem mot
  </text><text x="385" y="120" fill="#fff" font-family="Arial, sans-serif" font-size="12" font-weight="bold" text-anchor="middle">
    avsetninger
  </text><text x="385" y="140" fill="#fff" font-family="Arial, sans-serif" font-size="10" text-anchor="middle">
    Sammenlign faktisk
  </text><text x="385" y="155" fill="#fff" font-family="Arial, sans-serif" font-size="10" text-anchor="middle">
    med løpende avsetning
  </text><path fill="none" stroke="#34495e" stroke-width="3" marker-end="url(#a)" d="M480 120h40"/><rect width="150" height="80" x="540" y="80" fill="#f39c12" rx="5"/><text x="615" y="105" fill="#fff" font-family="Arial, sans-serif" font-size="12" font-weight="bold" text-anchor="middle">
    3. Juster
  </text><text x="615" y="120" fill="#fff" font-family="Arial, sans-serif" font-size="12" font-weight="bold" text-anchor="middle">
    differanser
  </text><text x="615" y="140" fill="#fff" font-family="Arial, sans-serif" font-size="10" text-anchor="middle">
    Over-/underavsetning
  </text><text x="615" y="155" fill="#fff" font-family="Arial, sans-serif" font-size="10" text-anchor="middle">
    korrigeres
  </text><path fill="#9b59b6" d="m385 200 50-20 50 20-50 20z"/><text x="435" y="205" fill="#fff" font-family="Arial, sans-serif" font-size="10" font-weight="bold" text-anchor="middle">
    Differanse?
  </text><path fill="none" stroke="#34495e" stroke-width="2" marker-end="url(#a)" d="M385 170v20h30"/><rect width="150" height="80" x="200" y="250" fill="#27ae60" rx="5"/><text x="275" y="275" fill="#fff" font-family="Arial, sans-serif" font-size="12" font-weight="bold" text-anchor="middle">
    Overavsetning
  </text><text x="275" y="295" fill="#fff" font-family="Arial, sans-serif" font-size="10" text-anchor="middle">
    Debet: Avsetning feriepenger
  </text><text x="275" y="310" fill="#fff" font-family="Arial, sans-serif" font-size="10" text-anchor="middle">
    Kredit: Lønnskostnad
  </text><rect width="150" height="80" x="450" y="250" fill="#e67e22" rx="5"/><text x="525" y="275" fill="#fff" font-family="Arial, sans-serif" font-size="12" font-weight="bold" text-anchor="middle">
    Underavsetning
  </text><text x="525" y="295" fill="#fff" font-family="Arial, sans-serif" font-size="10" text-anchor="middle">
    Debet: Lønnskostnad
  </text><text x="525" y="310" fill="#fff" font-family="Arial, sans-serif" font-size="10" text-anchor="middle">
    Kredit: Avsetning feriepenger
  </text><path fill="none" stroke="#34495e" stroke-width="2" marker-end="url(#a)" d="m415 210-65 30"/><path fill="none" stroke="#34495e" stroke-width="2" marker-end="url(#a)" d="m455 210 65 30"/><text x="350" y="235" fill="#2c3e50" font-family="Arial, sans-serif" font-size="10" text-anchor="middle">
    For mye avsatt
  </text><text x="520" y="235" fill="#2c3e50" font-family="Arial, sans-serif" font-size="10" text-anchor="middle">
    For lite avsatt
  </text><rect width="200" height="40" x="300" y="350" fill="#34495e" rx="5"/><text x="400" y="370" fill="#fff" font-family="Arial, sans-serif" font-size="12" font-weight="bold" text-anchor="middle">
    4. Rapporter til A-ordningen
  </text><text x="400" y="385" fill="#fff" font-family="Arial, sans-serif" font-size="10" text-anchor="middle">
    Oppdater A-melding med korrekte tall
  </text><path fill="none" stroke="#34495e" stroke-width="2" marker-end="url(#a)" d="m275 340 75 20"/><path fill="none" stroke="#34495e" stroke-width="2" marker-end="url(#a)" d="m525 340-75 20"/><defs><marker id="a" markerHeight="7" markerWidth="10" orient="auto" refX="9" refY="3.5"><path fill="#34495e" d="m0 0 10 3.5L0 7z"/></marker></defs></svg>