<svg width="800" height="650" xmlns="http://www.w3.org/2000/svg">
  <defs>
    <style>
      .title { font-family: Arial, sans-serif; font-size: 20px; font-weight: bold; fill: #2c3e50; }
      .header { font-family: Arial, sans-serif; font-size: 16px; font-weight: bold; fill: #34495e; }
      .subheader { font-family: Arial, sans-serif; font-size: 14px; font-weight: bold; fill: #34495e; }
      .text { font-family: Arial, sans-serif; font-size: 12px; fill: #34495e; }
      .price { font-family: Arial, sans-serif; font-size: 12px; font-weight: bold; fill: #e74c3c; }
      .feature { font-family: Arial, sans-serif; font-size: 11px; fill: #27ae60; }
      .premium-box { fill: #e8f4f8; stroke: #3498db; stroke-width: 2; }
      .free-box { fill: #d5f4e6; stroke: #27ae60; stroke-width: 2; }
      .enterprise-box { fill: #fadbd8; stroke: #e74c3c; stroke-width: 2; }
      .integration-box { fill: #fef9e7; stroke: #f39c12; stroke-width: 2; }
    </style>
  </defs>
  
  <!-- Background -->
  <rect width="800" height="650" fill="#ffffff"/>
  
  <!-- Title -->
  <text x="400" y="30" class="title" text-anchor="middle">Digitale Verktøy for Q-ratio Analyse</text>
  <text x="400" y="55" class="text" text-anchor="middle">Moderne plattformer og teknologier for automatisert verdivurdering</text>
  
  <!-- Professional Data Providers -->
  <rect x="50" y="80" width="340" height="160" class="enterprise-box" rx="10"/>
  <text x="220" y="105" class="header" text-anchor="middle">Enterprise Data Plattformer</text>
  
  <!-- Bloomberg -->
  <rect x="70" y="120" width="140" height="100" fill="#ffffff" stroke="#e74c3c" stroke-width="1" rx="5"/>
  <text x="140" y="140" class="subheader" text-anchor="middle">Bloomberg Terminal</text>
  <text x="80" y="160" class="feature">✓ Real-time Q-ratio data</text>
  <text x="80" y="175" class="feature">✓ Historical comparisons</text>
  <text x="80" y="190" class="feature">✓ Sector analysis</text>
  <text x="80" y="205" class="feature">✓ API integration</text>
  <text x="140" y="220" class="price" text-anchor="middle">$2,000+/måned</text>
  
  <!-- FactSet -->
  <rect x="230" y="120" width="140" height="100" fill="#ffffff" stroke="#e74c3c" stroke-width="1" rx="5"/>
  <text x="300" y="140" class="subheader" text-anchor="middle">FactSet</text>
  <text x="240" y="160" class="feature">✓ Advanced analytics</text>
  <text x="240" y="175" class="feature">✓ Custom screening</text>
  <text x="240" y="190" class="feature">✓ Portfolio tools</text>
  <text x="240" y="205" class="feature">✓ Risk management</text>
  <text x="300" y="220" class="price" text-anchor="middle">$1,500+/måned</text>
  
  <!-- Mid-tier Solutions -->
  <rect x="410" y="80" width="340" height="160" class="premium-box" rx="10"/>
  <text x="580" y="105" class="header" text-anchor="middle">Mid-tier Løsninger</text>
  
  <!-- Refinitiv -->
  <rect x="430" y="120" width="140" height="100" fill="#ffffff" stroke="#3498db" stroke-width="1" rx="5"/>
  <text x="500" y="140" class="subheader" text-anchor="middle">Refinitiv Eikon</text>
  <text x="440" y="160" class="feature">✓ Market screening</text>
  <text x="440" y="175" class="feature">✓ Fundamental data</text>
  <text x="440" y="190" class="feature">✓ Excel integration</text>
  <text x="440" y="205" class="feature">✓ Charting tools</text>
  <text x="500" y="220" class="price" text-anchor="middle">$500-800/måned</text>
  
  <!-- S&P Capital IQ -->
  <rect x="590" y="120" width="140" height="100" fill="#ffffff" stroke="#3498db" stroke-width="1" rx="5"/>
  <text x="660" y="140" class="subheader" text-anchor="middle">S&amp;P Capital IQ</text>
  <text x="600" y="160" class="feature">✓ Company analysis</text>
  <text x="600" y="175" class="feature">✓ Comparable analysis</text>
  <text x="600" y="190" class="feature">✓ M&amp;A data</text>
  <text x="600" y="205" class="feature">✓ Credit analysis</text>
  <text x="660" y="220" class="price" text-anchor="middle">$400-600/måned</text>
  
  <!-- Free and Low-cost Options -->
  <rect x="50" y="260" width="700" height="140" class="free-box" rx="10"/>
  <text x="400" y="285" class="header" text-anchor="middle">Gratis og Lavkost Alternativer</text>
  
  <!-- Free tools row 1 -->
  <rect x="80" y="300" width="120" height="80" fill="#ffffff" stroke="#27ae60" stroke-width="1" rx="5"/>
  <text x="140" y="320" class="subheader" text-anchor="middle">Yahoo Finance</text>
  <text x="90" y="340" class="feature">✓ Basic ratios</text>
  <text x="90" y="355" class="feature">✓ Historical data</text>
  <text x="90" y="370" class="feature">✓ API access</text>
  <text x="140" y="385" class="price" text-anchor="middle">Gratis</text>
  
  <rect x="220" y="300" width="120" height="80" fill="#ffffff" stroke="#27ae60" stroke-width="1" rx="5"/>
  <text x="280" y="320" class="subheader" text-anchor="middle">Google Finance</text>
  <text x="230" y="340" class="feature">✓ Market overview</text>
  <text x="230" y="355" class="feature">✓ Basic screening</text>
  <text x="230" y="370" class="feature">✓ Portfolio tracking</text>
  <text x="280" y="385" class="price" text-anchor="middle">Gratis</text>
  
  <rect x="360" y="300" width="120" height="80" fill="#ffffff" stroke="#27ae60" stroke-width="1" rx="5"/>
  <text x="420" y="320" class="subheader" text-anchor="middle">FRED (St. Louis Fed)</text>
  <text x="370" y="340" class="feature">✓ Aggregate Q-ratio</text>
  <text x="370" y="355" class="feature">✓ Economic data</text>
  <text x="370" y="370" class="feature">✓ Research data</text>
  <text x="420" y="385" class="price" text-anchor="middle">Gratis</text>
  
  <rect x="500" y="300" width="120" height="80" fill="#ffffff" stroke="#27ae60" stroke-width="1" rx="5"/>
  <text x="560" y="320" class="subheader" text-anchor="middle">Morningstar</text>
  <text x="510" y="340" class="feature">✓ Fund analysis</text>
  <text x="510" y="355" class="feature">✓ Stock research</text>
  <text x="510" y="370" class="feature">✓ Limited free data</text>
  <text x="560" y="385" class="price" text-anchor="middle">Freemium</text>
  
  <rect x="640" y="300" width="120" height="80" fill="#ffffff" stroke="#27ae60" stroke-width="1" rx="5"/>
  <text x="700" y="320" class="subheader" text-anchor="middle">TradingView</text>
  <text x="650" y="340" class="feature">✓ Charting tools</text>
  <text x="650" y="355" class="feature">✓ Technical analysis</text>
  <text x="650" y="370" class="feature">✓ Community features</text>
  <text x="700" y="385" class="price" text-anchor="middle">$15-60/måned</text>
  
  <!-- Modern Technology Integration -->
  <rect x="50" y="420" width="700" height="140" class="integration-box" rx="10"/>
  <text x="400" y="445" class="header" text-anchor="middle">Moderne Teknologi Integrasjon</text>
  
  <!-- AI/ML -->
  <rect x="80" y="460" width="150" height="80" fill="#ffffff" stroke="#f39c12" stroke-width="1" rx="5"/>
  <text x="155" y="480" class="subheader" text-anchor="middle">AI/ML Platforms</text>
  <text x="90" y="500" class="text">• Automated screening</text>
  <text x="90" y="515" class="text">• Pattern recognition</text>
  <text x="90" y="530" class="text">• Predictive models</text>
  
  <!-- Cloud Computing -->
  <rect x="250" y="460" width="150" height="80" fill="#ffffff" stroke="#f39c12" stroke-width="1" rx="5"/>
  <text x="325" y="480" class="subheader" text-anchor="middle">Cloud Computing</text>
  <text x="260" y="500" class="text">• Scalable processing</text>
  <text x="260" y="515" class="text">• Real-time updates</text>
  <text x="260" y="530" class="text">• Global accessibility</text>
  
  <!-- API Integration -->
  <rect x="420" y="460" width="150" height="80" fill="#ffffff" stroke="#f39c12" stroke-width="1" rx="5"/>
  <text x="495" y="480" class="subheader" text-anchor="middle">API Integration</text>
  <text x="430" y="500" class="text">• Custom applications</text>
  <text x="430" y="515" class="text">• Automated workflows</text>
  <text x="430" y="530" class="text">• Third-party connectors</text>
  
  <!-- RegTech -->
  <rect x="590" y="460" width="150" height="80" fill="#ffffff" stroke="#f39c12" stroke-width="1" rx="5"/>
  <text x="665" y="480" class="subheader" text-anchor="middle">RegTech</text>
  <text x="600" y="500" class="text">• Compliance monitoring</text>
  <text x="600" y="515" class="text">• Risk management</text>
  <text x="600" y="530" class="text">• Regulatory reporting</text>
  
  <!-- Implementation Guide -->
  <rect x="50" y="580" width="700" height="60" fill="#f8f9fa" stroke="#6c757d" stroke-width="1" rx="8"/>
  <text x="400" y="605" class="header" text-anchor="middle">Implementeringsguide for Q-ratio Verktøy</text>
  <text x="100" y="625" class="text">1. Start med gratis verktøy for grunnleggende analyse</text>
  <text x="450" y="625" class="text">2. Oppgrader til premium når volum øker</text>
  <text x="100" y="640" class="text">3. Integrer med eksisterende systemer via API</text>
  <text x="450" y="640" class="text">4. Automatiser rutineoppgaver og rapportering</text>
</svg>