<svg xmlns="http://www.w3.org/2000/svg" width="800" height="600" viewBox="0 0 800 600"><path fill="#f8f9fa" d="M0 0h800v600H0z"/><text x="400" y="40" fill="#2c3e50" font-family="Arial, sans-serif" font-size="26" font-weight="bold" text-anchor="middle">
    Sammensatt Avkastning Over Tid
  </text><rect width="600" height="350" x="100" y="80" fill="#fff" stroke="#34495e" stroke-width="2" rx="10"/><path stroke="#2c3e50" stroke-width="2" d="M120 100v310M120 410h560"/><text x="110" y="115" fill="#2c3e50" font-family="Arial, sans-serif" font-size="12" text-anchor="end">150.000</text><text x="110" y="165" fill="#2c3e50" font-family="Arial, sans-serif" font-size="12" text-anchor="end">140.000</text><text x="110" y="215" fill="#2c3e50" font-family="Arial, sans-serif" font-size="12" text-anchor="end">130.000</text><text x="110" y="265" fill="#2c3e50" font-family="Arial, sans-serif" font-size="12" text-anchor="end">120.000</text><text x="110" y="315" fill="#2c3e50" font-family="Arial, sans-serif" font-size="12" text-anchor="end">110.000</text><text x="110" y="365" fill="#2c3e50" font-family="Arial, sans-serif" font-size="12" text-anchor="end">100.000</text><text x="110" y="415" fill="#2c3e50" font-family="Arial, sans-serif" font-size="12" text-anchor="end">90.000</text><text x="120" y="430" fill="#2c3e50" font-family="Arial, sans-serif" font-size="12" text-anchor="middle">0</text><text x="232" y="430" fill="#2c3e50" font-family="Arial, sans-serif" font-size="12" text-anchor="middle">1</text><text x="344" y="430" fill="#2c3e50" font-family="Arial, sans-serif" font-size="12" text-anchor="middle">2</text><text x="456" y="430" fill="#2c3e50" font-family="Arial, sans-serif" font-size="12" text-anchor="middle">3</text><text x="568" y="430" fill="#2c3e50" font-family="Arial, sans-serif" font-size="12" text-anchor="middle">4</text><text x="680" y="430" fill="#2c3e50" font-family="Arial, sans-serif" font-size="12" text-anchor="middle">5</text><text x="400" y="460" fill="#2c3e50" font-family="Arial, sans-serif" font-size="14" font-weight="bold" text-anchor="middle">År</text><text x="50" y="255" fill="#2c3e50" font-family="Arial, sans-serif" font-size="14" font-weight="bold" text-anchor="middle" transform="rotate(-90 50 255)">Verdi (kr)</text><path fill="none" stroke="#27ae60" stroke-width="4" d="m120 365 112-50 112-50 112-50 112-50 112-50"/><circle cx="120" cy="365" r="6" fill="#27ae60"/><circle cx="232" cy="315" r="6" fill="#27ae60"/><circle cx="344" cy="265" r="6" fill="#27ae60"/><circle cx="456" cy="215" r="6" fill="#27ae60"/><circle cx="568" cy="165" r="6" fill="#27ae60"/><circle cx="680" cy="115" r="6" fill="#27ae60"/><text x="120" y="350" fill="#27ae60" font-family="Arial, sans-serif" font-size="10" font-weight="bold" text-anchor="middle">100.000</text><text x="232" y="300" fill="#27ae60" font-family="Arial, sans-serif" font-size="10" font-weight="bold" text-anchor="middle">107.000</text><text x="344" y="250" fill="#27ae60" font-family="Arial, sans-serif" font-size="10" font-weight="bold" text-anchor="middle">114.490</text><text x="456" y="200" fill="#27ae60" font-family="Arial, sans-serif" font-size="10" font-weight="bold" text-anchor="middle">122.504</text><text x="568" y="150" fill="#27ae60" font-family="Arial, sans-serif" font-size="10" font-weight="bold" text-anchor="middle">131.079</text><text x="680" y="100" fill="#27ae60" font-family="Arial, sans-serif" font-size="10" font-weight="bold" text-anchor="middle">140.255</text><rect width="700" height="100" x="50" y="480" fill="#ecf0f1" stroke="#bdc3c7" rx="10"/><text x="400" y="505" fill="#2c3e50" font-family="Arial, sans-serif" font-size="16" font-weight="bold" text-anchor="middle">
    Sammensatt Avkastning - 7% Årlig
  </text><text x="70" y="530" fill="#2c3e50" font-family="Arial, sans-serif" font-size="12">
    Startinvestering: 100.000 kr
  </text><text x="70" y="545" fill="#2c3e50" font-family="Arial, sans-serif" font-size="12">
    Årlig avkastning: 7%
  </text><text x="70" y="560" fill="#2c3e50" font-family="Arial, sans-serif" font-size="12">
    Total avkastning etter 5 år: 40.255 kr (40,26%)
  </text><text x="450" y="530" fill="#2c3e50" font-family="Arial, sans-serif" font-size="12">
    Nøkkel: Renter på renter skaper eksponentiell vekst
  </text><text x="450" y="545" fill="#2c3e50" font-family="Arial, sans-serif" font-size="12">
    År 1: 7.000 kr i avkastning
  </text><text x="450" y="560" fill="#2c3e50" font-family="Arial, sans-serif" font-size="12">
    År 5: 9.176 kr i avkastning (på større grunnlag)
  </text></svg>