<svg xmlns="http://www.w3.org/2000/svg" width="800" height="500"><path fill="#f8f9fa" d="M0 0h800v500H0z"/><text x="400" y="40" fill="#2c3e50" font-family="Arial, sans-serif" font-size="24" font-weight="bold" text-anchor="middle">
    Langsiktig Gjeld Oversikt
  </text><rect width="700" height="380" x="50" y="80" fill="#fff" stroke="#e1e8ed" stroke-width="2" rx="10"/><path stroke="#3498db" stroke-width="3" d="M100 150h600"/><circle cx="200" cy="150" r="8" fill="#e74c3c"/><circle cx="600" cy="150" r="8" fill="#27ae60"/><text x="200" y="135" fill="#e74c3c" font-family="Arial, sans-serif" font-size="14" font-weight="bold" text-anchor="middle">
    1 år
  </text><text x="600" y="135" fill="#27ae60" font-family="Arial, sans-serif" font-size="14" font-weight="bold" text-anchor="middle">
    &gt; 1 år
  </text><rect width="200" height="120" x="80" y="180" fill="#ffebee" stroke="#e74c3c" stroke-width="2" rx="5"/><text x="180" y="205" fill="#e74c3c" font-family="Arial, sans-serif" font-size="16" font-weight="bold" text-anchor="middle">
    Kortsiktig Gjeld
  </text><text x="90" y="230" fill="#333" font-family="Arial, sans-serif" font-size="12">
    • Leverandørgjeld
  </text><text x="90" y="250" fill="#333" font-family="Arial, sans-serif" font-size="12">
    • Kortsiktige banklån
  </text><text x="90" y="270" fill="#333" font-family="Arial, sans-serif" font-size="12">
    • Skyldig skatt &amp; avgifter
  </text><text x="90" y="290" fill="#333" font-family="Arial, sans-serif" font-size="12">
    • Påløpte kostnader
  </text><rect width="400" height="240" x="320" y="180" fill="#e8f5e8" stroke="#27ae60" stroke-width="2" rx="5"/><text x="520" y="205" fill="#27ae60" font-family="Arial, sans-serif" font-size="18" font-weight="bold" text-anchor="middle">
    Langsiktig Gjeld
  </text><rect width="170" height="80" x="340" y="220" fill="#fff" stroke="#27ae60" rx="3"/><text x="425" y="240" fill="#27ae60" font-family="Arial, sans-serif" font-size="14" font-weight="bold" text-anchor="middle">
    Banklån
  </text><text x="350" y="260" fill="#333" font-family="Arial, sans-serif" font-size="11">
    • Investeringslån
  </text><text x="350" y="275" fill="#333" font-family="Arial, sans-serif" font-size="11">
    • Eiendomslån
  </text><text x="350" y="290" fill="#333" font-family="Arial, sans-serif" font-size="11">
    • Refinansieringslån
  </text><rect width="170" height="80" x="530" y="220" fill="#fff" stroke="#27ae60" rx="3"/><text x="615" y="240" fill="#27ae60" font-family="Arial, sans-serif" font-size="14" font-weight="bold" text-anchor="middle">
    Obligasjoner
  </text><text x="540" y="260" fill="#333" font-family="Arial, sans-serif" font-size="11">
    • Selskapsobligasjoner
  </text><text x="540" y="275" fill="#333" font-family="Arial, sans-serif" font-size="11">
    • Konvertible obligasjoner
  </text><text x="540" y="290" fill="#333" font-family="Arial, sans-serif" font-size="11">
    • Grønne obligasjoner
  </text><rect width="170" height="80" x="340" y="320" fill="#fff" stroke="#27ae60" rx="3"/><text x="425" y="340" fill="#27ae60" font-family="Arial, sans-serif" font-size="14" font-weight="bold" text-anchor="middle">
    Leasing
  </text><text x="350" y="360" fill="#333" font-family="Arial, sans-serif" font-size="11">
    • Eiendomsleasing
  </text><text x="350" y="375" fill="#333" font-family="Arial, sans-serif" font-size="11">
    • Utstyrsleasing
  </text><text x="350" y="390" fill="#333" font-family="Arial, sans-serif" font-size="11">
    • Kjøretøyleasing
  </text><rect width="170" height="80" x="530" y="320" fill="#fff" stroke="#27ae60" rx="3"/><text x="615" y="340" fill="#27ae60" font-family="Arial, sans-serif" font-size="14" font-weight="bold" text-anchor="middle">
    Andre
  </text><text x="540" y="360" fill="#333" font-family="Arial, sans-serif" font-size="11">
    • Pensjonsforpliktelser
  </text><text x="540" y="375" fill="#333" font-family="Arial, sans-serif" font-size="11">
    • Utsatt skatt
  </text><text x="540" y="390" fill="#333" font-family="Arial, sans-serif" font-size="11">
    • Konvertible lån
  </text><path fill="none" stroke="#27ae60" stroke-width="2" marker-end="url(#a)" d="M300 240h15"/><defs><marker id="a" markerHeight="7" markerWidth="10" orient="auto" refX="9" refY="3.5"><path fill="#27ae60" d="m0 0 10 3.5L0 7z"/></marker></defs></svg>