<svg width="800" height="600" xmlns="http://www.w3.org/2000/svg">
  <defs>
    <linearGradient id="tradeGradient" x1="0%" y1="0%" x2="0%" y2="100%">
      <stop offset="0%" style="stop-color:#3b82f6;stop-opacity:1" />
      <stop offset="100%" style="stop-color:#1d4ed8;stop-opacity:1" />
    </linearGradient>
    <linearGradient id="serviceGradient" x1="0%" y1="0%" x2="0%" y2="100%">
      <stop offset="0%" style="stop-color:#10b981;stop-opacity:1" />
      <stop offset="100%" style="stop-color:#059669;stop-opacity:1" />
    </linearGradient>
    <linearGradient id="manufacturingGradient" x1="0%" y1="0%" x2="0%" y2="100%">
      <stop offset="0%" style="stop-color:#f59e0b;stop-opacity:1" />
      <stop offset="100%" style="stop-color:#d97706;stop-opacity:1" />
    </linearGradient>
  </defs>
  
  <!-- Background -->
  <rect width="800" height="600" fill="#f8fafc"/>
  
  <!-- Title -->
  <text x="400" y="30" text-anchor="middle" fill="#1e293b" font-family="Arial, sans-serif" font-size="24" font-weight="bold">Bransjetilpassede Kontoplaner</text>
  
  <!-- Trade/Retail Section -->
  <rect x="50" y="70" width="220" height="480" fill="url(#tradeGradient)" rx="15" stroke="#1e40af" stroke-width="3"/>
  <text x="160" y="100" text-anchor="middle" fill="white" font-family="Arial, sans-serif" font-size="18" font-weight="bold">HANDELSBEDRIFTER</text>
  
  <text x="70" y="130" fill="white" font-family="Arial, sans-serif" font-size="14" font-weight="bold">Spesielle behov:</text>
  <text x="70" y="150" fill="white" font-family="Arial, sans-serif" font-size="12">• Varelager</text>
  <text x="70" y="165" fill="white" font-family="Arial, sans-serif" font-size="12">• Innkjøp</text>
  <text x="70" y="180" fill="white" font-family="Arial, sans-serif" font-size="12">• Salg</text>
  <text x="70" y="195" fill="white" font-family="Arial, sans-serif" font-size="12">• Logistikk</text>
  
  <text x="70" y="220" fill="white" font-family="Arial, sans-serif" font-size="14" font-weight="bold">Eksempel kontoer:</text>
  <rect x="70" y="235" width="180" height="20" fill="rgba(255,255,255,0.2)" rx="3"/>
  <text x="75" y="248" fill="white" font-family="Arial, sans-serif" font-size="10">1400 Varelager</text>
  
  <rect x="70" y="260" width="180" height="20" fill="rgba(255,255,255,0.2)" rx="3"/>
  <text x="75" y="273" fill="white" font-family="Arial, sans-serif" font-size="10">1401 Varelager produktgruppe A</text>
  
  <rect x="70" y="285" width="180" height="20" fill="rgba(255,255,255,0.2)" rx="3"/>
  <text x="75" y="298" fill="white" font-family="Arial, sans-serif" font-size="10">1402 Varelager produktgruppe B</text>
  
  <rect x="70" y="310" width="180" height="20" fill="rgba(255,255,255,0.2)" rx="3"/>
  <text x="75" y="323" fill="white" font-family="Arial, sans-serif" font-size="10">3001 Salg produktgruppe A</text>
  
  <rect x="70" y="335" width="180" height="20" fill="rgba(255,255,255,0.2)" rx="3"/>
  <text x="75" y="348" fill="white" font-family="Arial, sans-serif" font-size="10">3002 Salg produktgruppe B</text>
  
  <rect x="70" y="360" width="180" height="20" fill="rgba(255,255,255,0.2)" rx="3"/>
  <text x="75" y="373" fill="white" font-family="Arial, sans-serif" font-size="10">4001 Varekostnad gruppe A</text>
  
  <rect x="70" y="385" width="180" height="20" fill="rgba(255,255,255,0.2)" rx="3"/>
  <text x="75" y="398" fill="white" font-family="Arial, sans-serif" font-size="10">4002 Varekostnad gruppe B</text>
  
  <rect x="70" y="410" width="180" height="20" fill="rgba(255,255,255,0.2)" rx="3"/>
  <text x="75" y="423" fill="white" font-family="Arial, sans-serif" font-size="10">6300 Fraktkostnader</text>
  
  <rect x="70" y="435" width="180" height="20" fill="rgba(255,255,255,0.2)" rx="3"/>
  <text x="75" y="448" fill="white" font-family="Arial, sans-serif" font-size="10">6310 Lagerkostnader</text>
  
  <rect x="70" y="460" width="180" height="20" fill="rgba(255,255,255,0.2)" rx="3"/>
  <text x="75" y="473" fill="white" font-family="Arial, sans-serif" font-size="10">6320 Emballasjekostnader</text>
  
  <!-- Service Section -->
  <rect x="290" y="70" width="220" height="480" fill="url(#serviceGradient)" rx="15" stroke="#047857" stroke-width="3"/>
  <text x="400" y="100" text-anchor="middle" fill="white" font-family="Arial, sans-serif" font-size="18" font-weight="bold">TJENESTEBEDRIFTER</text>
  
  <text x="310" y="130" fill="white" font-family="Arial, sans-serif" font-size="14" font-weight="bold">Fokusområder:</text>
  <text x="310" y="150" fill="white" font-family="Arial, sans-serif" font-size="12">• Timefakturering</text>
  <text x="310" y="165" fill="white" font-family="Arial, sans-serif" font-size="12">• Prosjekter</text>
  <text x="310" y="180" fill="white" font-family="Arial, sans-serif" font-size="12">• Personalkostnader</text>
  <text x="310" y="195" fill="white" font-family="Arial, sans-serif" font-size="12">• Overhead</text>
  
  <text x="310" y="220" fill="white" font-family="Arial, sans-serif" font-size="14" font-weight="bold">Eksempel kontoer:</text>
  <rect x="310" y="235" width="180" height="20" fill="rgba(255,255,255,0.2)" rx="3"/>
  <text x="315" y="248" fill="white" font-family="Arial, sans-serif" font-size="10">3100 Konsulentinntekter</text>
  
  <rect x="310" y="260" width="180" height="20" fill="rgba(255,255,255,0.2)" rx="3"/>
  <text x="315" y="273" fill="white" font-family="Arial, sans-serif" font-size="10">3101 Prosjekt A inntekter</text>
  
  <rect x="310" y="285" width="180" height="20" fill="rgba(255,255,255,0.2)" rx="3"/>
  <text x="315" y="298" fill="white" font-family="Arial, sans-serif" font-size="10">3102 Prosjekt B inntekter</text>
  
  <rect x="310" y="310" width="180" height="20" fill="rgba(255,255,255,0.2)" rx="3"/>
  <text x="315" y="323" fill="white" font-family="Arial, sans-serif" font-size="10">5001 Lønn konsulenter</text>
  
  <rect x="310" y="335" width="180" height="20" fill="rgba(255,255,255,0.2)" rx="3"/>
  <text x="315" y="348" fill="white" font-family="Arial, sans-serif" font-size="10">5002 Lønn prosjektledere</text>
  
  <rect x="310" y="360" width="180" height="20" fill="rgba(255,255,255,0.2)" rx="3"/>
  <text x="315" y="373" fill="white" font-family="Arial, sans-serif" font-size="10">6100 Reisekostnader</text>
  
  <rect x="310" y="385" width="180" height="20" fill="rgba(255,255,255,0.2)" rx="3"/>
  <text x="315" y="398" fill="white" font-family="Arial, sans-serif" font-size="10">6110 Kurs og opplæring</text>
  
  <rect x="310" y="410" width="180" height="20" fill="rgba(255,255,255,0.2)" rx="3"/>
  <text x="315" y="423" fill="white" font-family="Arial, sans-serif" font-size="10">6120 Kontorrekvisita</text>
  
  <rect x="310" y="435" width="180" height="20" fill="rgba(255,255,255,0.2)" rx="3"/>
  <text x="315" y="448" fill="white" font-family="Arial, sans-serif" font-size="10">6130 IT-kostnader</text>
  
  <rect x="310" y="460" width="180" height="20" fill="rgba(255,255,255,0.2)" rx="3"/>
  <text x="315" y="473" fill="white" font-family="Arial, sans-serif" font-size="10">6140 Markedsføring</text>
  
  <!-- Manufacturing Section -->
  <rect x="530" y="70" width="220" height="480" fill="url(#manufacturingGradient)" rx="15" stroke="#d97706" stroke-width="3"/>
  <text x="640" y="100" text-anchor="middle" fill="white" font-family="Arial, sans-serif" font-size="18" font-weight="bold">PRODUKSJONSBEDRIFTER</text>
  
  <text x="550" y="130" fill="white" font-family="Arial, sans-serif" font-size="14" font-weight="bold">Spesielle krav:</text>
  <text x="550" y="150" fill="white" font-family="Arial, sans-serif" font-size="12">• Råvarer</text>
  <text x="550" y="165" fill="white" font-family="Arial, sans-serif" font-size="12">• Produksjon</text>
  <text x="550" y="180" fill="white" font-family="Arial, sans-serif" font-size="12">• Ferdigvarer</text>
  <text x="550" y="195" fill="white" font-family="Arial, sans-serif" font-size="12">• Produksjonskostnader</text>
  
  <text x="550" y="220" fill="white" font-family="Arial, sans-serif" font-size="14" font-weight="bold">Eksempel kontoer:</text>
  <rect x="550" y="235" width="180" height="20" fill="rgba(255,255,255,0.2)" rx="3"/>
  <text x="555" y="248" fill="white" font-family="Arial, sans-serif" font-size="10">1410 Råvarelager</text>
  
  <rect x="550" y="260" width="180" height="20" fill="rgba(255,255,255,0.2)" rx="3"/>
  <text x="555" y="273" fill="white" font-family="Arial, sans-serif" font-size="10">1420 Varer under tilvirkning</text>
  
  <rect x="550" y="285" width="180" height="20" fill="rgba(255,255,255,0.2)" rx="3"/>
  <text x="555" y="298" fill="white" font-family="Arial, sans-serif" font-size="10">1430 Ferdigvarelager</text>
  
  <rect x="550" y="310" width="180" height="20" fill="rgba(255,255,255,0.2)" rx="3"/>
  <text x="555" y="323" fill="white" font-family="Arial, sans-serif" font-size="10">4100 Råvarekostnad</text>
  
  <rect x="550" y="335" width="180" height="20" fill="rgba(255,255,255,0.2)" rx="3"/>
  <text x="555" y="348" fill="white" font-family="Arial, sans-serif" font-size="10">5100 Produksjonslønn</text>
  
  <rect x="550" y="360" width="180" height="20" fill="rgba(255,255,255,0.2)" rx="3"/>
  <text x="555" y="373" fill="white" font-family="Arial, sans-serif" font-size="10">6200 Maskinkostnader</text>
  
  <rect x="550" y="385" width="180" height="20" fill="rgba(255,255,255,0.2)" rx="3"/>
  <text x="555" y="398" fill="white" font-family="Arial, sans-serif" font-size="10">6210 Vedlikeholdskostnader</text>
  
  <rect x="550" y="410" width="180" height="20" fill="rgba(255,255,255,0.2)" rx="3"/>
  <text x="555" y="423" fill="white" font-family="Arial, sans-serif" font-size="10">6220 Energikostnader</text>
  
  <rect x="550" y="435" width="180" height="20" fill="rgba(255,255,255,0.2)" rx="3"/>
  <text x="555" y="448" fill="white" font-family="Arial, sans-serif" font-size="10">6230 Kvalitetskontroll</text>
  
  <rect x="550" y="460" width="180" height="20" fill="rgba(255,255,255,0.2)" rx="3"/>
  <text x="555" y="473" fill="white" font-family="Arial, sans-serif" font-size="10">6240 Produksjonsoverhead</text>
  
  <!-- Bottom note -->
  <rect x="100" y="570" width="600" height="25" fill="#e2e8f0" rx="12" stroke="#94a3b8" stroke-width="1"/>
  <text x="400" y="587" text-anchor="middle" fill="#475569" font-family="Arial, sans-serif" font-size="14" font-weight="bold">Hver bransje krever tilpassede kontoer for optimal regnskapsføring</text>
</svg>