<svg xmlns="http://www.w3.org/2000/svg" width="800" height="600"><defs><linearGradient id="a" x1="0%" x2="100%" y1="0%" y2="0%"><stop offset="0%" style="stop-color:#1e40af;stop-opacity:1"/><stop offset="100%" style="stop-color:#3b82f6;stop-opacity:1"/></linearGradient></defs><path fill="#f8fafc" d="M0 0h800v600H0z"/><path fill="url(#a)" d="M0 0h800v60H0z"/><text x="400" y="35" fill="#fff" font-family="Arial, sans-serif" font-size="24" font-weight="bold" text-anchor="middle">Produksjonsbedrift - Omløpsmidler Fordeling</text><rect width="300" height="40" x="250" y="80" fill="#e0f2fe" stroke="#0891b2" stroke-width="2" rx="8"/><text x="400" y="105" fill="#0e7490" font-family="Arial, sans-serif" font-size="18" font-weight="bold" text-anchor="middle">Møbelproduksjon AS</text><circle cx="200" cy="280" r="100" fill="#f1f5f9" stroke="#64748b" stroke-width="2"/><path fill="#dcfce7" stroke="#16a34a" stroke-width="2" d="M200 280V180a100 100 0 0 1 31 10Z"/><path fill="#dbeafe" stroke="#2563eb" stroke-width="2" d="m200 280 31-90a100 100 0 0 1 40 30Z"/><path fill="#f0f9ff" stroke="#0ea5e9" stroke-width="2" d="m200 280 71-60a100 100 0 0 1 0 120Z"/><path fill="#fef3c7" stroke="#f59e0b" stroke-width="2" d="m200 280 71 60a100 100 0 0 1-40 30Z"/><path fill="#dcfce7" stroke="#22c55e" stroke-width="2" d="m200 280 31 90a100 100 0 0 1-102-30Z"/><path fill="#fce7f3" stroke="#be185d" stroke-width="2" d="m200 280-71 60a100 100 0 0 1 71-160Z"/><rect width="400" height="300" x="350" y="180" fill="#f8fafc" stroke="#cbd5e1" stroke-width="2" rx="10"/><text x="550" y="205" fill="#374151" font-family="Arial, sans-serif" font-size="18" font-weight="bold" text-anchor="middle">Omløpsmidler Fordeling</text><text x="550" y="225" fill="#6b7280" font-family="Arial, sans-serif" font-size="14" text-anchor="middle">Totalt: 2.000.000 kr</text><path fill="#dcfce7" stroke="#16a34a" d="M370 240h20v15h-20z"/><text x="400" y="252" fill="#374151" font-family="Arial, sans-serif" font-size="12">Kontanter og bank: 100.000 kr (5%)</text><path fill="#dbeafe" stroke="#2563eb" d="M370 265h20v15h-20z"/><text x="400" y="277" fill="#374151" font-family="Arial, sans-serif" font-size="12">Kundefordringer: 400.000 kr (20%)</text><path fill="#f0f9ff" stroke="#0ea5e9" d="M370 290h20v15h-20z"/><text x="400" y="302" fill="#374151" font-family="Arial, sans-serif" font-size="12">Råvarer: 600.000 kr (30%)</text><path fill="#fef3c7" stroke="#f59e0b" d="M370 315h20v15h-20z"/><text x="400" y="327" fill="#374151" font-family="Arial, sans-serif" font-size="12">Varer under arbeid: 300.000 kr (15%)</text><path fill="#dcfce7" stroke="#22c55e" d="M370 340h20v15h-20z"/><text x="400" y="352" fill="#374151" font-family="Arial, sans-serif" font-size="12">Ferdigvarer: 500.000 kr (25%)</text><path fill="#fce7f3" stroke="#be185d" d="M370 365h20v15h-20z"/><text x="400" y="377" fill="#374151" font-family="Arial, sans-serif" font-size="12">Andre fordringer: 100.000 kr (5%)</text><rect width="360" height="70" x="370" y="400" fill="#e0f2fe" stroke="#0891b2" stroke-width="2" rx="8"/><text x="550" y="420" fill="#0e7490" font-family="Arial, sans-serif" font-size="14" font-weight="bold" text-anchor="middle">Analyse:</text><text x="380" y="440" fill="#0e7490" font-family="Arial, sans-serif" font-size="11">• Høy lagerbinding: 70% av omløpsmidler</text><text x="380" y="455" fill="#0e7490" font-family="Arial, sans-serif" font-size="11">• Komplekst varelager: Tre kategorier varer</text><text x="380" y="470" fill="#0e7490" font-family="Arial, sans-serif" font-size="11">• Lang produksjonssyklus: Fra råvare til salg</text><rect width="280" height="120" x="50" y="420" fill="#f1f5f9" stroke="#64748b" stroke-width="2" rx="10"/><text x="190" y="440" fill="#334155" font-family="Arial, sans-serif" font-size="14" font-weight="bold" text-anchor="middle">Produksjonsflyt</text><rect width="60" height="25" x="70" y="460" fill="#f0f9ff" stroke="#0ea5e9" rx="3"/><text x="100" y="475" fill="#0369a1" font-family="Arial, sans-serif" font-size="10" text-anchor="middle">Råvarer</text><path stroke="#64748b" stroke-width="2" marker-end="url(#b)" d="M130 472h20"/><rect width="60" height="25" x="160" y="460" fill="#fef3c7" stroke="#f59e0b" rx="3"/><text x="190" y="475" fill="#d97706" font-family="Arial, sans-serif" font-size="10" text-anchor="middle">Under arbeid</text><path stroke="#64748b" stroke-width="2" marker-end="url(#b)" d="M220 472h20"/><rect width="60" height="25" x="250" y="460" fill="#dcfce7" stroke="#22c55e" rx="3"/><text x="280" y="475" fill="#16a34a" font-family="Arial, sans-serif" font-size="10" text-anchor="middle">Ferdigvarer</text><text x="100" y="505" fill="#6b7280" font-family="Arial, sans-serif" font-size="9" text-anchor="middle">30 dager</text><text x="190" y="505" fill="#6b7280" font-family="Arial, sans-serif" font-size="9" text-anchor="middle">45 dager</text><text x="280" y="505" fill="#6b7280" font-family="Arial, sans-serif" font-size="9" text-anchor="middle">20 dager</text><text x="190" y="525" fill="#dc2626" font-family="Arial, sans-serif" font-size="11" font-weight="bold" text-anchor="middle">Total produksjonstid: 95 dager</text><defs><marker id="b" markerHeight="4" markerWidth="6" orient="auto" refX="5" refY="2"><path fill="#64748b" d="m0 0 6 2-6 2z"/></marker></defs></svg>