<svg xmlns="http://www.w3.org/2000/svg" width="800" height="600" viewBox="0 0 800 600"><defs><linearGradient id="a" x1="0%" x2="100%" y1="0%" y2="0%"><stop offset="0%" style="stop-color:#1e40af;stop-opacity:1"/><stop offset="100%" style="stop-color:#3b82f6;stop-opacity:1"/></linearGradient></defs><path fill="#f8fafc" d="M0 0h800v600H0z"/><path fill="url(#a)" d="M0 0h800v60H0z"/><text x="400" y="40" fill="#fff" font-family="Arial, sans-serif" font-size="24" font-weight="bold" text-anchor="middle">Frister og Innleveringsprosess</text><g transform="translate(90 100)"><path stroke="#cbd5e1" stroke-width="4" d="M0 100h600"/><circle cx="150" cy="100" r="15" fill="#ef4444" stroke="#dc2626" stroke-width="2"/><text x="150" y="80" fill="#dc2626" font-family="Arial, sans-serif" font-size="14" font-weight="bold" text-anchor="middle">31. MAI</text><text x="150" y="65" fill="#dc2626" font-family="Arial, sans-serif" font-size="12" text-anchor="middle">Hovedfrist</text><text x="150" y="135" fill="#374151" font-family="Arial, sans-serif" font-size="11" text-anchor="middle">Ordinær årsoppgave</text><text x="150" y="150" fill="#374151" font-family="Arial, sans-serif" font-size="11" text-anchor="middle">AS/ASA</text><circle cx="300" cy="100" r="12" fill="#f59e0b" stroke="#d97706" stroke-width="2"/><text x="300" y="75" fill="#d97706" font-family="Arial, sans-serif" font-size="12" font-weight="bold" text-anchor="middle">5 MND</text><text x="300" y="125" fill="#374151" font-family="Arial, sans-serif" font-size="11" text-anchor="middle">Forskjøvet</text><text x="300" y="140" fill="#374151" font-family="Arial, sans-serif" font-size="11" text-anchor="middle">regnskapsår</text><circle cx="450" cy="100" r="12" fill="#10b981" stroke="#059669" stroke-width="2"/><text x="450" y="75" fill="#059669" font-family="Arial, sans-serif" font-size="12" font-weight="bold" text-anchor="middle">30. APR</text><text x="450" y="125" fill="#374151" font-family="Arial, sans-serif" font-size="11" text-anchor="middle">Personlige</text><text x="450" y="140" fill="#374151" font-family="Arial, sans-serif" font-size="11" text-anchor="middle">foretak</text></g><text x="400" y="20" fill="#334155" font-family="Arial, sans-serif" font-size="18" font-weight="bold" text-anchor="middle" transform="translate(40 280)">Konsekvenser ved Forsinkelse</text><path fill="#e2e8f0" stroke="#cbd5e1" d="M90 320h600v30H90z"/><text x="120" y="60" fill="#1f2937" font-family="Arial, sans-serif" font-size="12" font-weight="bold" text-anchor="middle" transform="translate(40 280)">Forsinkelse</text><text x="300" y="60" fill="#1f2937" font-family="Arial, sans-serif" font-size="12" font-weight="bold" text-anchor="middle" transform="translate(40 280)">Gebyr</text><text x="500" y="60" fill="#1f2937" font-family="Arial, sans-serif" font-size="12" font-weight="bold" text-anchor="middle" transform="translate(40 280)">Ytterligere Konsekvenser</text><path fill="#f8fafc" stroke="#cbd5e1" d="M90 350h600v25H90z"/><text x="120" y="87" fill="#374151" font-family="Arial, sans-serif" font-size="11" text-anchor="middle" transform="translate(40 280)">1-30 dager</text><text x="300" y="87" fill="#dc2626" font-family="Arial, sans-serif" font-size="11" text-anchor="middle" transform="translate(40 280)">NOK 5.000</text><text x="500" y="87" fill="#374151" font-family="Arial, sans-serif" font-size="11" text-anchor="middle" transform="translate(40 280)">Formell påminnelse</text><path fill="#f1f5f9" stroke="#cbd5e1" d="M90 375h600v25H90z"/><text x="120" y="112" fill="#374151" font-family="Arial, sans-serif" font-size="11" text-anchor="middle" transform="translate(40 280)">31-60 dager</text><text x="300" y="112" fill="#dc2626" font-family="Arial, sans-serif" font-size="11" text-anchor="middle" transform="translate(40 280)">NOK 10.000</text><text x="500" y="112" fill="#374151" font-family="Arial, sans-serif" font-size="11" text-anchor="middle" transform="translate(40 280)">Tvangsmulkt kan ilegges</text><path fill="#f8fafc" stroke="#cbd5e1" d="M90 400h600v25H90z"/><text x="120" y="137" fill="#374151" font-family="Arial, sans-serif" font-size="11" text-anchor="middle" transform="translate(40 280)">Over 60 dager</text><text x="300" y="137" fill="#dc2626" font-family="Arial, sans-serif" font-size="11" text-anchor="middle" transform="translate(40 280)">NOK 20.000+</text><text x="500" y="137" fill="#374151" font-family="Arial, sans-serif" font-size="11" text-anchor="middle" transform="translate(40 280)">Juridiske konsekvenser</text><path fill="#f1f5f9" stroke="#cbd5e1" d="M90 425h600v25H90z"/><text x="120" y="162" fill="#374151" font-family="Arial, sans-serif" font-size="11" text-anchor="middle" transform="translate(40 280)">Gjentagende</text><text x="300" y="162" fill="#dc2626" font-family="Arial, sans-serif" font-size="11" text-anchor="middle" transform="translate(40 280)">Forhøyet</text><text x="500" y="162" fill="#374151" font-family="Arial, sans-serif" font-size="11" text-anchor="middle" transform="translate(40 280)">Straffetiltak</text><g transform="translate(40 460)"><text x="400" y="20" fill="#334155" font-family="Arial, sans-serif" font-size="18" font-weight="bold" text-anchor="middle">Innleveringsprosess</text><rect width="130" height="80" x="50" y="40" fill="#dbeafe" stroke="#3b82f6" stroke-width="2" rx="8"/><text x="115" y="65" fill="#1e40af" font-family="Arial, sans-serif" font-size="12" font-weight="bold" text-anchor="middle">1. Forberedelse</text><text x="115" y="85" fill="#374151" font-family="Arial, sans-serif" font-size="10" text-anchor="middle">Utarbeidelse av</text><text x="115" y="100" fill="#374151" font-family="Arial, sans-serif" font-size="10" text-anchor="middle">årsoppgave</text><text x="115" y="115" fill="#374151" font-family="Arial, sans-serif" font-size="10" text-anchor="middle">Kvalitetskontroll</text><path fill="#64748b" d="m185 80 15-5v10z"/><rect width="130" height="80" x="210" y="40" fill="#dcfce7" stroke="#10b981" stroke-width="2" rx="8"/><text x="275" y="65" fill="#059669" font-family="Arial, sans-serif" font-size="12" font-weight="bold" text-anchor="middle">2. Elektronisk</text><text x="275" y="85" fill="#374151" font-family="Arial, sans-serif" font-size="10" text-anchor="middle">Innlevering via</text><text x="275" y="100" fill="#374151" font-family="Arial, sans-serif" font-size="10" text-anchor="middle">Altinn-portal</text><text x="275" y="115" fill="#374151" font-family="Arial, sans-serif" font-size="10" text-anchor="middle">Signering</text><path fill="#64748b" d="m345 80 15-5v10z"/><rect width="130" height="80" x="370" y="40" fill="#fef3c7" stroke="#f59e0b" stroke-width="2" rx="8"/><text x="435" y="65" fill="#d97706" font-family="Arial, sans-serif" font-size="12" font-weight="bold" text-anchor="middle">3. Mottak</text><text x="435" y="85" fill="#374151" font-family="Arial, sans-serif" font-size="10" text-anchor="middle">Automatisk</text><text x="435" y="100" fill="#374151" font-family="Arial, sans-serif" font-size="10" text-anchor="middle">validering</text><text x="435" y="115" fill="#374151" font-family="Arial, sans-serif" font-size="10" text-anchor="middle">Kvittering</text><path fill="#64748b" d="m505 80 15-5v10z"/><rect width="130" height="80" x="530" y="40" fill="#fce7f3" stroke="#ec4899" stroke-width="2" rx="8"/><text x="595" y="65" fill="#be185d" font-family="Arial, sans-serif" font-size="12" font-weight="bold" text-anchor="middle">4. Behandling</text><text x="595" y="85" fill="#374151" font-family="Arial, sans-serif" font-size="10" text-anchor="middle">Skatteberegning</text><text x="595" y="100" fill="#374151" font-family="Arial, sans-serif" font-size="10" text-anchor="middle">Kontroll</text><text x="595" y="115" fill="#374151" font-family="Arial, sans-serif" font-size="10" text-anchor="middle">Oppfølging</text></g><g transform="translate(40 580)"><rect width="720" height="60" fill="#fef2f2" stroke="#ef4444" stroke-width="2" rx="8"/><text x="360" y="25" fill="#dc2626" font-family="Arial, sans-serif" font-size="14" font-weight="bold" text-anchor="middle">Viktig å Merke Seg</text><text x="20" y="45" fill="#7f1d1d" font-family="Arial, sans-serif" font-size="11">• Utsettelse må søkes på forhånd og kan bare innvilges i særlige tilfeller</text></g></svg>