<svg xmlns="http://www.w3.org/2000/svg" width="800" height="500" viewBox="0 0 800 500"><defs><linearGradient id="a" x1="0%" x2="100%" y1="0%" y2="0%"><stop offset="0%" style="stop-color:#0f766e;stop-opacity:1"/><stop offset="100%" style="stop-color:#0d9488;stop-opacity:1"/></linearGradient></defs><path fill="#fafafa" d="M0 0h800v500H0z"/><path fill="url(#a)" d="M0 0h800v50H0z"/><text x="400" y="32" fill="#fff" font-family="Arial, sans-serif" font-size="20" font-weight="bold" text-anchor="middle">Praktisk Eksempel: Beregning av Sysselsatt Kapital</text><path fill="#374151" d="M50 70h700v30H50z"/><text x="10" y="20" fill="#fff" font-family="Arial, sans-serif" font-size="14" font-weight="bold" transform="translate(50 70)">Balanseposter</text><text x="350" y="20" fill="#fff" font-family="Arial, sans-serif" font-size="14" font-weight="bold" transform="translate(50 70)">Beløp (NOK)</text><text x="500" y="20" fill="#fff" font-family="Arial, sans-serif" font-size="14" font-weight="bold" transform="translate(50 70)">Inkludert i Sysselsatt Kapital</text><path fill="#e5e7eb" d="M50 100h700v25H50z"/><text x="10" y="47" fill="#1f2937" font-family="Arial, sans-serif" font-size="13" font-weight="bold" transform="translate(50 70)">EIENDELER</text><path fill="#f9fafb" d="M50 125h700v20H50z"/><text x="20" y="69" fill="#374151" font-family="Arial, sans-serif" font-size="12" transform="translate(50 70)">Kontanter og bankinnskudd</text><text x="380" y="69" fill="#374151" font-family="Arial, sans-serif" font-size="12" transform="translate(50 70)">500 000</text><text x="540" y="69" fill="#059669" font-family="Arial, sans-serif" font-size="12" font-weight="bold" transform="translate(50 70)">✓ JA</text><path fill="#fff" d="M50 145h700v20H50z"/><text x="20" y="89" fill="#374151" font-family="Arial, sans-serif" font-size="12" transform="translate(50 70)">Kundefordringer</text><text x="380" y="89" fill="#374151" font-family="Arial, sans-serif" font-size="12" transform="translate(50 70)">800 000</text><text x="540" y="89" fill="#059669" font-family="Arial, sans-serif" font-size="12" font-weight="bold" transform="translate(50 70)">✓ JA</text><path fill="#f9fafb" d="M50 165h700v20H50z"/><text x="20" y="109" fill="#374151" font-family="Arial, sans-serif" font-size="12" transform="translate(50 70)">Varelager</text><text x="380" y="109" fill="#374151" font-family="Arial, sans-serif" font-size="12" transform="translate(50 70)">600 000</text><text x="540" y="109" fill="#059669" font-family="Arial, sans-serif" font-size="12" font-weight="bold" transform="translate(50 70)">✓ JA</text><path fill="#fff" d="M50 185h700v20H50z"/><text x="20" y="129" fill="#374151" font-family="Arial, sans-serif" font-size="12" transform="translate(50 70)">Maskiner og utstyr</text><text x="380" y="129" fill="#374151" font-family="Arial, sans-serif" font-size="12" transform="translate(50 70)">2 000 000</text><text x="540" y="129" fill="#059669" font-family="Arial, sans-serif" font-size="12" font-weight="bold" transform="translate(50 70)">✓ JA</text><path fill="#dcfce7" d="M50 205h700v25H50z"/><text x="10" y="152" fill="#166534" font-family="Arial, sans-serif" font-size="13" font-weight="bold" transform="translate(50 70)">Sum eiendeler</text><text x="360" y="152" fill="#166534" font-family="Arial, sans-serif" font-size="13" font-weight="bold" transform="translate(50 70)">3 900 000</text><path fill="#e5e7eb" d="M50 240h700v25H50z"/><text x="10" y="187" fill="#1f2937" font-family="Arial, sans-serif" font-size="13" font-weight="bold" transform="translate(50 70)">GJELD OG EGENKAPITAL</text><path fill="#fef2f2" d="M50 265h700v20H50z"/><text x="20" y="209" fill="#374151" font-family="Arial, sans-serif" font-size="12" transform="translate(50 70)">Leverandørgjeld</text><text x="380" y="209" fill="#374151" font-family="Arial, sans-serif" font-size="12" transform="translate(50 70)">300 000</text><text x="530" y="209" fill="#dc2626" font-family="Arial, sans-serif" font-size="12" font-weight="bold" transform="translate(50 70)">✗ NEI (Rentefri)</text><path fill="#fef2f2" d="M50 285h700v20H50z"/><text x="20" y="229" fill="#374151" font-family="Arial, sans-serif" font-size="12" transform="translate(50 70)">Skyldig offentlige avgifter</text><text x="380" y="229" fill="#374151" font-family="Arial, sans-serif" font-size="12" transform="translate(50 70)">150 000</text><text x="530" y="229" fill="#dc2626" font-family="Arial, sans-serif" font-size="12" font-weight="bold" transform="translate(50 70)">✗ NEI (Rentefri)</text><path fill="#f0fdf4" d="M50 305h700v20H50z"/><text x="20" y="249" fill="#374151" font-family="Arial, sans-serif" font-size="12" transform="translate(50 70)">Banklån</text><text x="380" y="249" fill="#374151" font-family="Arial, sans-serif" font-size="12" transform="translate(50 70)">1 200 000</text><text x="520" y="249" fill="#059669" font-family="Arial, sans-serif" font-size="12" font-weight="bold" transform="translate(50 70)">✓ JA (Rentebærende)</text><path fill="#f0fdf4" d="M50 325h700v20H50z"/><text x="20" y="269" fill="#374151" font-family="Arial, sans-serif" font-size="12" transform="translate(50 70)">Egenkapital</text><text x="380" y="269" fill="#374151" font-family="Arial, sans-serif" font-size="12" transform="translate(50 70)">2 250 000</text><text x="540" y="269" fill="#059669" font-family="Arial, sans-serif" font-size="12" font-weight="bold" transform="translate(50 70)">✓ JA</text><path fill="#dcfce7" d="M50 345h700v25H50z"/><text x="10" y="292" fill="#166534" font-family="Arial, sans-serif" font-size="13" font-weight="bold" transform="translate(50 70)">Sum gjeld og egenkapital</text><text x="360" y="292" fill="#166534" font-family="Arial, sans-serif" font-size="13" font-weight="bold" transform="translate(50 70)">3 900 000</text><g transform="translate(50 380)"><rect width="700" height="80" fill="#1e40af" rx="10"/><text x="350" y="25" fill="#fff" font-family="Arial, sans-serif" font-size="18" font-weight="bold" text-anchor="middle">Beregning av Sysselsatt Kapital</text><text x="350" y="45" fill="#fff" font-family="Arial, sans-serif" font-size="14" text-anchor="middle">Metode 1: 3 900 000 - (300 000 + 150 000) = 3 450 000 NOK</text><text x="350" y="60" fill="#fff" font-family="Arial, sans-serif" font-size="14" text-anchor="middle">Metode 2: 2 250 000 + 1 200 000 = 3 450 000 NOK</text></g></svg>