<svg xmlns="http://www.w3.org/2000/svg" width="800" height="400"><style>.subtitle-text{font-size:18px;fill:#4a5568}.item-text,.section-text,.subtitle-text{font-family:Arial,sans-serif}.section-text{font-size:16px;font-weight:700;fill:#2d3748}.item-text{font-size:14px;fill:#4a5568}.balance-line{stroke:#2d3748;stroke-width:3}</style><text x="400" y="40" style="font-family:Arial,sans-serif;font-size:32px;font-weight:700;fill:#2d3748" text-anchor="middle">Hva er Balanse i Regnskap?</text><text x="400" y="80" class="subtitle-text" text-anchor="middle">Aktiva = Gjeld + Egenkapital</text><rect width="300" height="250" x="50" y="120" rx="10" style="fill:#e6f3ff;stroke:#1e88e5;stroke-width:2"/><text x="200" y="145" class="section-text" text-anchor="middle">AKTIVA</text><text x="200" y="165" class="subtitle-text" text-anchor="middle">(Eiendeler)</text><text x="70" y="190" class="item-text">• Anleggsmidler</text><text x="90" y="210" class="item-text">- Bygninger</text><text x="90" y="225" class="item-text">- Maskiner</text><text x="90" y="240" class="item-text">- Immaterielle eiendeler</text><text x="70" y="270" class="item-text">• Omløpsmidler</text><text x="90" y="290" class="item-text">- Varelager</text><text x="90" y="305" class="item-text">- Kundefordringer</text><text x="90" y="320" class="item-text">- Kontanter</text><path d="M375 200v100M365 210h20M365 290h20" class="balance-line"/><text x="400" y="255" class="section-text" text-anchor="middle">=</text><rect width="300" height="250" x="450" y="120" rx="10" style="fill:#fff2e6;stroke:#ff8c00;stroke-width:2"/><text x="600" y="145" class="section-text" text-anchor="middle">PASSIVA</text><text x="600" y="165" class="subtitle-text" text-anchor="middle">(Finansieringskilder)</text><text x="470" y="190" class="item-text">• Egenkapital</text><text x="490" y="210" class="item-text">- Aksjekapital</text><text x="490" y="225" class="item-text">- Opptjent egenkapital</text><text x="470" y="255" class="item-text">• Gjeld</text><text x="490" y="275" class="item-text">- Langsiktig gjeld</text><text x="490" y="290" class="item-text">- Leverandørgjeld</text><text x="490" y="305" class="item-text">- Kortsiktig gjeld</text></svg>