<svg xmlns="http://www.w3.org/2000/svg" width="800" height="400" viewBox="0 0 800 400"><path fill="#f8f9fa" d="M0 0h800v400H0z"/><text x="400" y="30" fill="#2c3e50" font-family="Arial, sans-serif" font-size="24" font-weight="bold" text-anchor="middle">
    ERP Implementeringsprosess
  </text><path stroke="#7f8c8d" stroke-width="4" d="M100 200h600"/><circle cx="150" cy="200" r="12" fill="#e74c3c"/><rect width="140" height="80" x="80" y="100" fill="#fff5f5" stroke="#e74c3c" stroke-width="2" rx="8"/><text x="150" y="120" fill="#c0392b" font-family="Arial, sans-serif" font-size="14" font-weight="bold" text-anchor="middle">
    Fase 1: Planlegging
  </text><text x="150" y="140" fill="#2c3e50" font-family="Arial, sans-serif" font-size="11" text-anchor="middle">
    • Behovsanalyse
  </text><text x="150" y="155" fill="#2c3e50" font-family="Arial, sans-serif" font-size="11" text-anchor="middle">
    • Leverandørvalg
  </text><text x="150" y="170" fill="#2c3e50" font-family="Arial, sans-serif" font-size="11" text-anchor="middle">
    2-4 måneder
  </text><path stroke="#e74c3c" stroke-width="2" d="M150 188v-8"/><circle cx="300" cy="200" r="12" fill="#f39c12"/><rect width="140" height="80" x="230" y="260" fill="#fffbf0" stroke="#f39c12" stroke-width="2" rx="8"/><text x="300" y="280" fill="#d68910" font-family="Arial, sans-serif" font-size="14" font-weight="bold" text-anchor="middle">
    Fase 2: Design
  </text><text x="300" y="300" fill="#2c3e50" font-family="Arial, sans-serif" font-size="11" text-anchor="middle">
    • Prosessdesign
  </text><text x="300" y="315" fill="#2c3e50" font-family="Arial, sans-serif" font-size="11" text-anchor="middle">
    • Konfigurasjon
  </text><text x="300" y="330" fill="#2c3e50" font-family="Arial, sans-serif" font-size="11" text-anchor="middle">
    3-6 måneder
  </text><path stroke="#f39c12" stroke-width="2" d="M300 212v48"/><circle cx="450" cy="200" r="12" fill="#27ae60"/><rect width="140" height="80" x="380" y="100" fill="#f0fff4" stroke="#27ae60" stroke-width="2" rx="8"/><text x="450" y="120" fill="#1e8449" font-family="Arial, sans-serif" font-size="14" font-weight="bold" text-anchor="middle">
    Fase 3: Testing
  </text><text x="450" y="140" fill="#2c3e50" font-family="Arial, sans-serif" font-size="11" text-anchor="middle">
    • Systemtesting
  </text><text x="450" y="155" fill="#2c3e50" font-family="Arial, sans-serif" font-size="11" text-anchor="middle">
    • Brukeropplæring
  </text><text x="450" y="170" fill="#2c3e50" font-family="Arial, sans-serif" font-size="11" text-anchor="middle">
    2-3 måneder
  </text><path stroke="#27ae60" stroke-width="2" d="M450 188v-8"/><circle cx="600" cy="200" r="12" fill="#9b59b6"/><rect width="140" height="80" x="530" y="260" fill="#faf5ff" stroke="#9b59b6" stroke-width="2" rx="8"/><text x="600" y="280" fill="#7d3c98" font-family="Arial, sans-serif" font-size="14" font-weight="bold" text-anchor="middle">
    Fase 4: Go-Live
  </text><text x="600" y="300" fill="#2c3e50" font-family="Arial, sans-serif" font-size="11" text-anchor="middle">
    • Datamigrering
  </text><text x="600" y="315" fill="#2c3e50" font-family="Arial, sans-serif" font-size="11" text-anchor="middle">
    • Produksjonssetting
  </text><text x="600" y="330" fill="#2c3e50" font-family="Arial, sans-serif" font-size="11" text-anchor="middle">
    1-2 måneder
  </text><path stroke="#9b59b6" stroke-width="2" d="M600 212v48"/><path fill="#7f8c8d" d="m220 195 20 5-20 5zM370 195l20 5-20 5zM520 195l20 5-20 5z"/><rect width="150" height="40" x="50" y="350" fill="#ecf0f1" stroke="#95a5a6" rx="5"/><text x="125" y="365" fill="#2c3e50" font-family="Arial, sans-serif" font-size="10" font-weight="bold" text-anchor="middle">
    Ledelsesforankring
  </text><text x="125" y="380" fill="#7f8c8d" font-family="Arial, sans-serif" font-size="9" text-anchor="middle">
    Tydelig støtte og ressurser
  </text><rect width="150" height="40" x="225" y="350" fill="#ecf0f1" stroke="#95a5a6" rx="5"/><text x="300" y="365" fill="#2c3e50" font-family="Arial, sans-serif" font-size="10" font-weight="bold" text-anchor="middle">
    Brukerengasjement
  </text><text x="300" y="380" fill="#7f8c8d" font-family="Arial, sans-serif" font-size="9" text-anchor="middle">
    Tidlig involvering og opplæring
  </text><rect width="150" height="40" x="400" y="350" fill="#ecf0f1" stroke="#95a5a6" rx="5"/><text x="475" y="365" fill="#2c3e50" font-family="Arial, sans-serif" font-size="10" font-weight="bold" text-anchor="middle">
    Teknisk kvalitet
  </text><text x="475" y="380" fill="#7f8c8d" font-family="Arial, sans-serif" font-size="9" text-anchor="middle">
    Grundig testing og integrasjon
  </text><rect width="150" height="40" x="575" y="350" fill="#ecf0f1" stroke="#95a5a6" rx="5"/><text x="650" y="365" fill="#2c3e50" font-family="Arial, sans-serif" font-size="10" font-weight="bold" text-anchor="middle">
    Endringsledelse
  </text><text x="650" y="380" fill="#7f8c8d" font-family="Arial, sans-serif" font-size="9" text-anchor="middle">
    Kommunikasjon og støtte
  </text><text x="400" y="60" fill="#7f8c8d" font-family="Arial, sans-serif" font-size="16" text-anchor="middle">
    Total implementeringstid: 8-15 måneder
  </text><circle cx="750" cy="120" r="8" fill="#e74c3c"/><text x="750" y="105" fill="#2c3e50" font-family="Arial, sans-serif" font-size="9" text-anchor="middle">
    Høy risiko
  </text><circle cx="750" cy="160" r="8" fill="#f39c12"/><text x="750" y="145" fill="#2c3e50" font-family="Arial, sans-serif" font-size="9" text-anchor="middle">
    Medium risiko
  </text><circle cx="750" cy="200" r="8" fill="#27ae60"/><text x="750" y="185" fill="#2c3e50" font-family="Arial, sans-serif" font-size="9" text-anchor="middle">
    Lav risiko
  </text></svg>