<svg xmlns="http://www.w3.org/2000/svg" viewBox="0 0 800 600"><defs><linearGradient id="a" x1="0%" x2="100%" y1="0%" y2="100%"><stop offset="0%" style="stop-color:#2e7d32;stop-opacity:1"/><stop offset="100%" style="stop-color:#1b5e20;stop-opacity:1"/></linearGradient><linearGradient id="b" x1="0%" x2="100%" y1="0%" y2="100%"><stop offset="0%" style="stop-color:#1565c0;stop-opacity:1"/><stop offset="100%" style="stop-color:#0d47a1;stop-opacity:1"/></linearGradient><linearGradient id="c" x1="0%" x2="100%" y1="0%" y2="100%"><stop offset="0%" style="stop-color:#388e3c;stop-opacity:1"/><stop offset="100%" style="stop-color:#2e7d32;stop-opacity:1"/></linearGradient><linearGradient id="d" x1="0%" x2="100%" y1="0%" y2="100%"><stop offset="0%" style="stop-color:#f57c00;stop-opacity:1"/><stop offset="100%" style="stop-color:#e65100;stop-opacity:1"/></linearGradient></defs><path fill="#f8f9fa" d="M0 0h800v600H0z"/><text x="400" y="40" fill="#2c3e50" font-family="Arial, sans-serif" font-size="24" font-weight="bold" text-anchor="middle">ERP Bankintegrasjon</text><rect width="160" height="100" x="320" y="250" fill="url(#a)" stroke="#1b5e20" stroke-width="3" rx="15"/><text x="400" y="285" fill="#fff" font-family="Arial, sans-serif" font-size="16" font-weight="bold" text-anchor="middle">ERP-SYSTEM</text><text x="400" y="305" fill="#fff" font-family="Arial, sans-serif" font-size="12" text-anchor="middle">Kontantstrømstyring</text><text x="400" y="325" fill="#fff" font-family="Arial, sans-serif" font-size="10" text-anchor="middle">Automatisk bankavstemming</text><rect width="140" height="80" x="100" y="120" fill="url(#b)" stroke="#0d47a1" stroke-width="2" rx="10"/><text x="170" y="145" fill="#fff" font-family="Arial, sans-serif" font-size="14" font-weight="bold" text-anchor="middle">NORSKE BANKER</text><text x="170" y="165" fill="#fff" font-family="Arial, sans-serif" font-size="10" text-anchor="middle">• DNB</text><text x="170" y="180" fill="#fff" font-family="Arial, sans-serif" font-size="10" text-anchor="middle">• Nordea</text><text x="170" y="195" fill="#fff" font-family="Arial, sans-serif" font-size="10" text-anchor="middle">• Sparebank 1</text><rect width="40" height="25" x="150" y="130" fill="#fff" opacity=".9" rx="3"/><path fill="#1565c0" d="M155 135h6v15h-6zM165 135h6v15h-6zM175 135h6v15h-6zM150 150h40v3h-40z"/><rect width="140" height="80" x="560" y="120" fill="url(#c)" stroke="#2e7d32" stroke-width="2" rx="10"/><text x="630" y="145" fill="#fff" font-family="Arial, sans-serif" font-size="14" font-weight="bold" text-anchor="middle">AVTALEGIRO</text><text x="630" y="165" fill="#fff" font-family="Arial, sans-serif" font-size="10" text-anchor="middle">• Automatisk innkreving</text><text x="630" y="180" fill="#fff" font-family="Arial, sans-serif" font-size="10" text-anchor="middle">• Kundefakturaer</text><text x="630" y="195" fill="#fff" font-family="Arial, sans-serif" font-size="10" text-anchor="middle">• Redusert risiko</text><rect width="140" height="80" x="100" y="400" fill="url(#d)" stroke="#e65100" stroke-width="2" rx="10"/><text x="170" y="425" fill="#fff" font-family="Arial, sans-serif" font-size="14" font-weight="bold" text-anchor="middle">BANKGIRO</text><text x="170" y="445" fill="#fff" font-family="Arial, sans-serif" font-size="10" text-anchor="middle">• Fakturainnkreving</text><text x="170" y="460" fill="#fff" font-family="Arial, sans-serif" font-size="10" text-anchor="middle">• OCR-nummer</text><text x="170" y="475" fill="#fff" font-family="Arial, sans-serif" font-size="10" text-anchor="middle">• Automatisk matching</text><rect width="140" height="80" x="560" y="400" fill="#7b1fa2" stroke="#4a148c" stroke-width="2" rx="10"/><text x="630" y="425" fill="#fff" font-family="Arial, sans-serif" font-size="14" font-weight="bold" text-anchor="middle">LIKVIDITET</text><text x="630" y="445" fill="#fff" font-family="Arial, sans-serif" font-size="10" text-anchor="middle">• Sanntidsprognoser</text><text x="630" y="460" fill="#fff" font-family="Arial, sans-serif" font-size="10" text-anchor="middle">• Kontantstrømanalyse</text><text x="630" y="475" fill="#fff" font-family="Arial, sans-serif" font-size="10" text-anchor="middle">• Risikostyring</text><path stroke="#2e7d32" stroke-width="3" marker-end="url(#e)" d="m320 270-80-90"/><text x="270" y="220" fill="#2e7d32" font-family="Arial, sans-serif" font-size="10" font-weight="bold">Banktrans-</text><text x="270" y="235" fill="#2e7d32" font-family="Arial, sans-serif" font-size="10" font-weight="bold">aksjoner</text><path stroke="#2e7d32" stroke-width="3" marker-end="url(#e)" d="m480 270 80-90"/><text x="520" y="220" fill="#2e7d32" font-family="Arial, sans-serif" font-size="10" font-weight="bold">Automatisk</text><text x="520" y="235" fill="#2e7d32" font-family="Arial, sans-serif" font-size="10" font-weight="bold">innkreving</text><path stroke="#2e7d32" stroke-width="3" marker-end="url(#e)" d="m320 330-80 90"/><text x="270" y="380" fill="#2e7d32" font-family="Arial, sans-serif" font-size="10" font-weight="bold">Faktura-</text><text x="270" y="395" fill="#2e7d32" font-family="Arial, sans-serif" font-size="10" font-weight="bold">behandling</text><path stroke="#2e7d32" stroke-width="3" marker-end="url(#e)" d="m480 330 80 90"/><text x="520" y="380" fill="#2e7d32" font-family="Arial, sans-serif" font-size="10" font-weight="bold">Sanntids</text><text x="520" y="395" fill="#2e7d32" font-family="Arial, sans-serif" font-size="10" font-weight="bold">overvåking</text><path stroke="#1565c0" stroke-width="2" marker-end="url(#f)" d="m240 160 80 90"/><text x="270" y="200" fill="#1565c0" font-family="Arial, sans-serif" font-size="9" font-weight="bold">Avstemming</text><defs><marker id="e" markerHeight="7" markerWidth="10" orient="auto" refX="9" refY="3.5"><path fill="#2e7d32" d="m0 0 10 3.5L0 7z"/></marker><marker id="f" markerHeight="7" markerWidth="10" orient="auto" refX="9" refY="3.5"><path fill="#1565c0" d="m0 0 10 3.5L0 7z"/></marker></defs><rect width="700" height="60" x="50" y="520" fill="#fff" stroke="#ddd" rx="5"/><text x="400" y="540" fill="#2c3e50" font-family="Arial, sans-serif" font-size="12" font-weight="bold" text-anchor="middle">Automatisert Prosessflyt:</text><text x="100" y="555" fill="#666" font-family="Arial, sans-serif" font-size="10">1. Banktransaksjoner importeres automatisk</text><text x="100" y="570" fill="#666" font-family="Arial, sans-serif" font-size="10">2. Automatisk matching mot fakturaer og betalinger</text><text x="450" y="555" fill="#666" font-family="Arial, sans-serif" font-size="10">3. Sanntids likviditetsoversikt</text><text x="450" y="570" fill="#666" font-family="Arial, sans-serif" font-size="10">4. Automatisk rapportering og prognoser</text><circle cx="280" cy="200" r="3" fill="#1565c0"/><circle cx="285" cy="205" r="3" fill="#1565c0"/><circle cx="290" cy="210" r="3" fill="#1565c0"/><circle cx="520" cy="200" r="3" fill="#388e3c"/><circle cx="525" cy="205" r="3" fill="#388e3c"/><circle cx="530" cy="210" r="3" fill="#388e3c"/><circle cx="280" cy="400" r="3" fill="#f57c00"/><circle cx="285" cy="395" r="3" fill="#f57c00"/><circle cx="290" cy="390" r="3" fill="#f57c00"/><circle cx="520" cy="400" r="3" fill="#7b1fa2"/><circle cx="525" cy="395" r="3" fill="#7b1fa2"/><circle cx="530" cy="390" r="3" fill="#7b1fa2"/><text x="400" y="80" fill="#2e7d32" font-family="Arial, sans-serif" font-size="36" opacity=".3" text-anchor="middle">kr</text><text x="150" y="90" fill="#1565c0" font-family="Arial, sans-serif" font-size="24" opacity=".4" text-anchor="middle">€</text><text x="650" y="90" fill="#388e3c" font-family="Arial, sans-serif" font-size="24" opacity=".4" text-anchor="middle">$</text></svg>