<svg xmlns="http://www.w3.org/2000/svg" viewBox="0 0 800 600"><defs><linearGradient id="a" x1="0%" x2="100%" y1="0%" y2="100%"><stop offset="0%" style="stop-color:#1565c0;stop-opacity:1"/><stop offset="100%" style="stop-color:#0d47a1;stop-opacity:1"/></linearGradient><linearGradient id="b" x1="0%" x2="100%" y1="0%" y2="100%"><stop offset="0%" style="stop-color:#388e3c;stop-opacity:1"/><stop offset="100%" style="stop-color:#2e7d32;stop-opacity:1"/></linearGradient><linearGradient id="c" x1="0%" x2="100%" y1="0%" y2="100%"><stop offset="0%" style="stop-color:#f57c00;stop-opacity:1"/><stop offset="100%" style="stop-color:#e65100;stop-opacity:1"/></linearGradient><linearGradient id="d" x1="0%" x2="100%" y1="0%" y2="100%"><stop offset="0%" style="stop-color:#7b1fa2;stop-opacity:1"/><stop offset="100%" style="stop-color:#4a148c;stop-opacity:1"/></linearGradient></defs><path fill="#f8f9fa" d="M0 0h800v600H0z"/><text x="400" y="40" fill="#2c3e50" font-family="Arial, sans-serif" font-size="24" font-weight="bold" text-anchor="middle">ERP Compliance Oversikt</text><circle cx="400" cy="300" r="70" fill="url(#a)" stroke="#0d47a1" stroke-width="3"/><text x="400" y="290" fill="#fff" font-family="Arial, sans-serif" font-size="14" font-weight="bold" text-anchor="middle">COMPLIANCE</text><text x="400" y="308" fill="#fff" font-family="Arial, sans-serif" font-size="14" font-weight="bold" text-anchor="middle">OVERSIKT</text><text x="400" y="325" fill="#fff" font-family="Arial, sans-serif" font-size="10" text-anchor="middle">Regelverksetterlevelse</text><path fill="#fff" d="m400 250 10 10-10 20-10-20z" opacity=".8"/><text x="400" y="268" fill="#1565c0" font-family="Arial, sans-serif" font-size="12" font-weight="bold" text-anchor="middle">✓</text><rect width="180" height="120" x="100" y="120" fill="url(#b)" stroke="#2e7d32" stroke-width="2" rx="15"/><text x="190" y="145" fill="#fff" font-family="Arial, sans-serif" font-size="16" font-weight="bold" text-anchor="middle">BOKFØRINGSLOVEN</text><text x="190" y="162" fill="#fff" font-family="Arial, sans-serif" font-size="16" font-weight="bold" text-anchor="middle">&amp; FORSKRIFTER</text><text x="190" y="185" fill="#fff" font-family="Arial, sans-serif" font-size="11" text-anchor="middle">• Fullstendighetsprinsippet</text><text x="190" y="200" fill="#fff" font-family="Arial, sans-serif" font-size="11" text-anchor="middle">• Sporbarhetsprinsippet</text><text x="190" y="215" fill="#fff" font-family="Arial, sans-serif" font-size="11" text-anchor="middle">• Oppbevaringskrav (5 år)</text><text x="190" y="230" fill="#fff" font-family="Arial, sans-serif" font-size="11" text-anchor="middle">• Dokumentasjonskrav</text><rect width="20" height="25" x="140" y="130" fill="#fff" opacity=".9" rx="2"/><path stroke="#388e3c" d="M145 138h10M145 143h10M145 148h10M145 153h10"/><rect width="180" height="120" x="520" y="120" fill="#d32f2f" stroke="#b71c1c" stroke-width="2" rx="15"/><text x="610" y="145" fill="#fff" font-family="Arial, sans-serif" font-size="16" font-weight="bold" text-anchor="middle">NORSKE</text><text x="610" y="162" fill="#fff" font-family="Arial, sans-serif" font-size="16" font-weight="bold" text-anchor="middle">SPESIALKRAV</text><text x="610" y="185" fill="#fff" font-family="Arial, sans-serif" font-size="11" text-anchor="middle">• SAF-T eksport</text><text x="610" y="200" fill="#fff" font-family="Arial, sans-serif" font-size="11" text-anchor="middle">• MVA-håndtering</text><text x="610" y="215" fill="#fff" font-family="Arial, sans-serif" font-size="11" text-anchor="middle">• Valutahåndtering (NOK)</text><text x="610" y="230" fill="#fff" font-family="Arial, sans-serif" font-size="11" text-anchor="middle">• Norsk standard kontoplan</text><path fill="#ba0c2f" d="M640 130h20v15h-20z"/><path fill="#fff" d="M640 137h20v3h-20z"/><path fill="#fff" d="M646 130h3v15h-3z"/><path fill="#00205b" d="M647 131h1v13h-1z"/><path fill="#00205b" d="M640 138h20v1h-20z"/><rect width="180" height="120" x="100" y="360" fill="url(#c)" stroke="#e65100" stroke-width="2" rx="15"/><text x="190" y="385" fill="#fff" font-family="Arial, sans-serif" font-size="16" font-weight="bold" text-anchor="middle">GDPR</text><text x="190" y="402" fill="#fff" font-family="Arial, sans-serif" font-size="16" font-weight="bold" text-anchor="middle">PERSONVERN</text><text x="190" y="425" fill="#fff" font-family="Arial, sans-serif" font-size="11" text-anchor="middle">• Databehandlingsgrunnlag</text><text x="190" y="440" fill="#fff" font-family="Arial, sans-serif" font-size="11" text-anchor="middle">• Rett til innsyn</text><text x="190" y="455" fill="#fff" font-family="Arial, sans-serif" font-size="11" text-anchor="middle">• Rett til sletting</text><text x="190" y="470" fill="#fff" font-family="Arial, sans-serif" font-size="11" text-anchor="middle">• Dataportabilitet</text><rect width="15" height="20" x="145" y="370" fill="#fff" opacity=".9" rx="2"/><circle cx="152" cy="375" r="4" fill="none" stroke="#f57c00" stroke-width="2"/><path fill="#f57c00" d="M148 380h8v8h-8z"/><circle cx="152" cy="384" r="1" fill="#fff"/><rect width="180" height="120" x="520" y="360" fill="url(#d)" stroke="#4a148c" stroke-width="2" rx="15"/><text x="610" y="385" fill="#fff" font-family="Arial, sans-serif" font-size="16" font-weight="bold" text-anchor="middle">BRANSJE-</text><text x="610" y="402" fill="#fff" font-family="Arial, sans-serif" font-size="16" font-weight="bold" text-anchor="middle">SPESIFIKKE KRAV</text><text x="610" y="425" fill="#fff" font-family="Arial, sans-serif" font-size="11" text-anchor="middle">• Finansielle tjenester</text><text x="610" y="440" fill="#fff" font-family="Arial, sans-serif" font-size="11" text-anchor="middle">• Helsesektoren</text><text x="610" y="455" fill="#fff" font-family="Arial, sans-serif" font-size="11" text-anchor="middle">• Offentlig sektor</text><text x="610" y="470" fill="#fff" font-family="Arial, sans-serif" font-size="11" text-anchor="middle">• Produksjon og industri</text><path fill="#fff" d="M640 370h25v20h-25z" opacity=".9"/><path fill="#7b1fa2" d="M645 375h4v10h-4zM651 375h4v10h-4zM657 375h4v10h-4zM640 385h25v3h-25z"/><path stroke="#1565c0" stroke-width="3" marker-end="url(#e)" d="m340 260-60-80"/><path stroke="#1565c0" stroke-width="3" marker-end="url(#e)" d="m460 260 60-80"/><path stroke="#1565c0" stroke-width="3" marker-end="url(#e)" d="m340 340-60 80"/><path stroke="#1565c0" stroke-width="3" marker-end="url(#e)" d="m460 340 60 80"/><text x="300" y="215" fill="#1565c0" font-family="Arial, sans-serif" font-size="9" font-weight="bold">Lovpålagt</text><text x="480" y="215" fill="#1565c0" font-family="Arial, sans-serif" font-size="9" font-weight="bold">Kritisk</text><text x="300" y="385" fill="#1565c0" font-family="Arial, sans-serif" font-size="9" font-weight="bold">EU-krav</text><text x="480" y="385" fill="#1565c0" font-family="Arial, sans-serif" font-size="9" font-weight="bold">Variabel</text><defs><marker id="e" markerHeight="7" markerWidth="10" orient="auto" refX="9" refY="3.5"><path fill="#1565c0" d="m0 0 10 3.5L0 7z"/></marker></defs><rect width="700" height="60" x="50" y="520" fill="#fff" stroke="#ddd" rx="5"/><text x="400" y="540" fill="#2c3e50" font-family="Arial, sans-serif" font-size="12" font-weight="bold" text-anchor="middle">Compliance Sjekkliste for ERP-systemer:</text><text x="100" y="555" fill="#666" font-family="Arial, sans-serif" font-size="10">✓ Støtter alle norske regnskapskrav og rapporteringsformater</text><text x="100" y="570" fill="#666" font-family="Arial, sans-serif" font-size="10">✓ GDPR-kompatibel håndtering av personopplysninger</text><text x="450" y="555" fill="#666" font-family="Arial, sans-serif" font-size="10">✓ Automatisk oppdatering ved regelverksendringer</text><text x="450" y="570" fill="#666" font-family="Arial, sans-serif" font-size="10">✓ Bransjespesifikke compliance-moduler</text><circle cx="320" cy="200" r="4" fill="#388e3c"/><text x="330" y="205" fill="#388e3c" font-family="Arial, sans-serif" font-size="10" font-weight="bold">Høy risiko</text><circle cx="480" cy="200" r="4" fill="#d32f2f"/><text x="490" y="205" fill="#d32f2f" font-family="Arial, sans-serif" font-size="10" font-weight="bold">Kritisk</text><circle cx="320" cy="480" r="4" fill="#f57c00"/><text x="330" y="485" fill="#f57c00" font-family="Arial, sans-serif" font-size="10" font-weight="bold">Persondata</text><circle cx="480" cy="480" r="4" fill="#7b1fa2"/><text x="490" y="485" fill="#7b1fa2" font-family="Arial, sans-serif" font-size="10" font-weight="bold">Variabel</text><text x="50" y="80" fill="#2c3e50" font-family="Arial, sans-serif" font-size="14" font-weight="bold">Implementering:</text><text x="50" y="100" fill="#666" font-family="Arial, sans-serif" font-size="11">1. Gap-analyse</text><text x="50" y="115" fill="#666" font-family="Arial, sans-serif" font-size="11">2. Systemkonfigurasjon</text><text x="50" y="130" fill="#666" font-family="Arial, sans-serif" font-size="11">3. Testing og validering</text><path fill="#1565c0" d="m200 90 20-5v10z"/><text x="650" y="80" fill="#2c3e50" font-family="Arial, sans-serif" font-size="14" font-weight="bold">Vedlikehold:</text><text x="650" y="100" fill="#666" font-family="Arial, sans-serif" font-size="11">• Kontinuerlig overvåking</text><text x="650" y="115" fill="#666" font-family="Arial, sans-serif" font-size="11">• Regelverksoppdateringer</text><text x="650" y="130" fill="#666" font-family="Arial, sans-serif" font-size="11">• Compliance-rapporter</text><rect width="100" height="30" x="350" y="350" fill="#e8f5e8" stroke="#4caf50" rx="5"/><text x="400" y="365" fill="#4caf50" font-family="Arial, sans-serif" font-size="10" font-weight="bold" text-anchor="middle">REVISJONSSTI</text><text x="400" y="375" fill="#4caf50" font-family="Arial, sans-serif" font-size="8" text-anchor="middle">Komplett sporbarhet</text></svg>