<svg width="800" height="400" viewBox="0 0 800 400" xmlns="http://www.w3.org/2000/svg">

  <rect width="800" height="400" fill="#f8f9fa"/>
  

  <text x="400" y="40" text-anchor="middle" font-family="Arial, sans-serif" font-size="28" font-weight="bold" fill="#2c3e50">
    Hva er ERP-system?
  </text>
  

  <text x="400" y="70" text-anchor="middle" font-family="Arial, sans-serif" font-size="16" fill="#7f8c8d">
    Enterprise Resource Planning for Norske Bedrifter
  </text>
  

  <circle cx="400" cy="200" r="80" fill="#3498db" stroke="#2980b9" stroke-width="3"/>
  <text x="400" y="195" text-anchor="middle" font-family="Arial, sans-serif" font-size="20" font-weight="bold" fill="white">
    ERP
  </text>
  <text x="400" y="215" text-anchor="middle" font-family="Arial, sans-serif" font-size="14" fill="white">
    System
  </text>
  

  <circle cx="250" cy="120" r="50" fill="#e74c3c" stroke="#c0392b" stroke-width="2"/>
  <text x="250" y="115" text-anchor="middle" font-family="Arial, sans-serif" font-size="12" font-weight="bold" fill="white">
    Økonomi &amp;
  </text>
  <text x="250" y="130" text-anchor="middle" font-family="Arial, sans-serif" font-size="12" font-weight="bold" fill="white">
    Regnskap
  </text>
  <line x1="290" y1="150" x2="350" y2="180" stroke="#34495e" stroke-width="2"/>
  

  <circle cx="550" cy="120" r="50" fill="#27ae60" stroke="#229954" stroke-width="2"/>
  <text x="550" y="115" text-anchor="middle" font-family="Arial, sans-serif" font-size="12" font-weight="bold" fill="white">
    Salg &amp;
  </text>
  <text x="550" y="130" text-anchor="middle" font-family="Arial, sans-serif" font-size="12" font-weight="bold" fill="white">
    CRM
  </text>
  <line x1="510" y1="150" x2="450" y2="180" stroke="#34495e" stroke-width="2"/>
  

  <circle cx="250" cy="280" r="50" fill="#f39c12" stroke="#e67e22" stroke-width="2"/>
  <text x="250" y="275" text-anchor="middle" font-family="Arial, sans-serif" font-size="12" font-weight="bold" fill="white">
    Produksjon
  </text>
  <text x="250" y="290" text-anchor="middle" font-family="Arial, sans-serif" font-size="12" font-weight="bold" fill="white">
    &amp; Drift
  </text>
  <line x1="290" y1="250" x2="350" y2="220" stroke="#34495e" stroke-width="2"/>
  

  <circle cx="550" cy="280" r="50" fill="#9b59b6" stroke="#8e44ad" stroke-width="2"/>
  <text x="550" y="275" text-anchor="middle" font-family="Arial, sans-serif" font-size="12" font-weight="bold" fill="white">
    Personal
  </text>
  <text x="550" y="290" text-anchor="middle" font-family="Arial, sans-serif" font-size="12" font-weight="bold" fill="white">
    &amp; Lønn
  </text>
  <line x1="510" y1="250" x2="450" y2="220" stroke="#34495e" stroke-width="2"/>
  

  <circle cx="400" cy="320" r="45" fill="#e67e22" stroke="#d35400" stroke-width="2"/>
  <text x="400" y="320" text-anchor="middle" font-family="Arial, sans-serif" font-size="11" font-weight="bold" fill="white">
    Innkjøp
  </text>
  <line x1="400" y1="275" x2="400" y2="280" stroke="#34495e" stroke-width="2"/>
  

  <path d="M 320 200 Q 360 180 400 200" fill="none" stroke="#95a5a6" stroke-width="2" marker-end="url(#arrowhead)"/>
  <path d="M 480 200 Q 440 180 400 200" fill="none" stroke="#95a5a6" stroke-width="2" marker-end="url(#arrowhead)"/>
  <path d="M 400 280 Q 380 240 400 200" fill="none" stroke="#95a5a6" stroke-width="2" marker-end="url(#arrowhead)"/>
  <path d="M 400 120 Q 420 160 400 200" fill="none" stroke="#95a5a6" stroke-width="2" marker-end="url(#arrowhead)"/>
  

  <defs>
    <marker id="arrowhead" markerWidth="10" markerHeight="7" refX="9" refY="3.5" orient="auto">
      <polygon points="0 0, 10 3.5, 0 7" fill="#95a5a6"/>
    </marker>
  </defs>
  

  <text x="400" y="370" text-anchor="middle" font-family="Arial, sans-serif" font-size="14" fill="#7f8c8d">
    Integrert forretningsløsning for moderne bedrifter
  </text>
</svg>