<svg xmlns="http://www.w3.org/2000/svg" width="800" height="400" viewBox="0 0 800 400"><path fill="#f8f9fa" d="M0 0h800v400H0z"/><text x="400" y="40" fill="#2c3e50" font-family="Arial, sans-serif" font-size="28" font-weight="bold" text-anchor="middle">
    Hva er ERP-system?
  </text><text x="400" y="70" fill="#7f8c8d" font-family="Arial, sans-serif" font-size="16" text-anchor="middle">
    Enterprise Resource Planning for Norske Bedrifter
  </text><circle cx="400" cy="200" r="80" fill="#3498db" stroke="#2980b9" stroke-width="3"/><text x="400" y="195" fill="#fff" font-family="Arial, sans-serif" font-size="20" font-weight="bold" text-anchor="middle">
    ERP
  </text><text x="400" y="215" fill="#fff" font-family="Arial, sans-serif" font-size="14" text-anchor="middle">
    System
  </text><circle cx="250" cy="120" r="50" fill="#e74c3c" stroke="#c0392b" stroke-width="2"/><text x="250" y="115" fill="#fff" font-family="Arial, sans-serif" font-size="12" font-weight="bold" text-anchor="middle">
    Økonomi &amp;
  </text><text x="250" y="130" fill="#fff" font-family="Arial, sans-serif" font-size="12" font-weight="bold" text-anchor="middle">
    Regnskap
  </text><path stroke="#34495e" stroke-width="2" d="m290 150 60 30"/><circle cx="550" cy="120" r="50" fill="#27ae60" stroke="#229954" stroke-width="2"/><text x="550" y="115" fill="#fff" font-family="Arial, sans-serif" font-size="12" font-weight="bold" text-anchor="middle">
    Salg &amp;
  </text><text x="550" y="130" fill="#fff" font-family="Arial, sans-serif" font-size="12" font-weight="bold" text-anchor="middle">
    CRM
  </text><path stroke="#34495e" stroke-width="2" d="m510 150-60 30"/><circle cx="250" cy="280" r="50" fill="#f39c12" stroke="#e67e22" stroke-width="2"/><text x="250" y="275" fill="#fff" font-family="Arial, sans-serif" font-size="12" font-weight="bold" text-anchor="middle">
    Produksjon
  </text><text x="250" y="290" fill="#fff" font-family="Arial, sans-serif" font-size="12" font-weight="bold" text-anchor="middle">
    &amp; Drift
  </text><path stroke="#34495e" stroke-width="2" d="m290 250 60-30"/><circle cx="550" cy="280" r="50" fill="#9b59b6" stroke="#8e44ad" stroke-width="2"/><text x="550" y="275" fill="#fff" font-family="Arial, sans-serif" font-size="12" font-weight="bold" text-anchor="middle">
    Personal
  </text><text x="550" y="290" fill="#fff" font-family="Arial, sans-serif" font-size="12" font-weight="bold" text-anchor="middle">
    &amp; Lønn
  </text><path stroke="#34495e" stroke-width="2" d="m510 250-60-30"/><circle cx="400" cy="320" r="45" fill="#e67e22" stroke="#d35400" stroke-width="2"/><text x="400" y="320" fill="#fff" font-family="Arial, sans-serif" font-size="11" font-weight="bold" text-anchor="middle">
    Innkjøp
  </text><path stroke="#34495e" stroke-width="2" d="M400 275v5"/><path fill="none" stroke="#95a5a6" stroke-width="2" marker-end="url(#a)" d="M320 200q40-20 80 0"/><path fill="none" stroke="#95a5a6" stroke-width="2" marker-end="url(#a)" d="M480 200q-40-20-80 0"/><path fill="none" stroke="#95a5a6" stroke-width="2" marker-end="url(#a)" d="M400 280q-20-40 0-80"/><path fill="none" stroke="#95a5a6" stroke-width="2" marker-end="url(#a)" d="M400 120q20 40 0 80"/><defs><marker id="a" markerHeight="7" markerWidth="10" orient="auto" refX="9" refY="3.5"><path fill="#95a5a6" d="m0 0 10 3.5L0 7z"/></marker></defs><text x="400" y="370" fill="#7f8c8d" font-family="Arial, sans-serif" font-size="14" text-anchor="middle">
    Integrert forretningsløsning for moderne bedrifter
  </text></svg>