<svg xmlns="http://www.w3.org/2000/svg" width="800" height="400" viewBox="0 0 800 400"><path fill="#f8f9fa" d="M0 0h800v400H0z"/><text x="400" y="30" fill="#2c3e50" font-family="Arial, sans-serif" font-size="24" font-weight="bold" text-anchor="middle">
    Terminskudd - Løpetid og Renteutvikling
  </text><path fill="#fff" stroke="#bdc3c7" stroke-width="2" d="M80 60h640v280H80z"/><path stroke="#34495e" stroke-width="2" d="M80 60v280"/><text x="30" y="200" fill="#2c3e50" font-family="Arial, sans-serif" font-size="14" font-weight="bold" text-anchor="middle" transform="rotate(-90 30 200)">
    Rentesats (%)
  </text><text x="70" y="340" fill="#2c3e50" font-family="Arial, sans-serif" font-size="12" text-anchor="end">0</text><text x="70" y="290" fill="#2c3e50" font-family="Arial, sans-serif" font-size="12" text-anchor="end">1</text><text x="70" y="240" fill="#2c3e50" font-family="Arial, sans-serif" font-size="12" text-anchor="end">2</text><text x="70" y="190" fill="#2c3e50" font-family="Arial, sans-serif" font-size="12" text-anchor="end">3</text><text x="70" y="140" fill="#2c3e50" font-family="Arial, sans-serif" font-size="12" text-anchor="end">4</text><text x="70" y="90" fill="#2c3e50" font-family="Arial, sans-serif" font-size="12" text-anchor="end">5</text><path stroke="#34495e" stroke-width="2" d="M80 340h640"/><text x="400" y="375" fill="#2c3e50" font-family="Arial, sans-serif" font-size="14" font-weight="bold" text-anchor="middle">
    Løpetid (måneder)
  </text><text x="120" y="355" fill="#2c3e50" font-family="Arial, sans-serif" font-size="12" text-anchor="middle">3</text><text x="200" y="355" fill="#2c3e50" font-family="Arial, sans-serif" font-size="12" text-anchor="middle">6</text><text x="280" y="355" fill="#2c3e50" font-family="Arial, sans-serif" font-size="12" text-anchor="middle">12</text><text x="360" y="355" fill="#2c3e50" font-family="Arial, sans-serif" font-size="12" text-anchor="middle">24</text><text x="440" y="355" fill="#2c3e50" font-family="Arial, sans-serif" font-size="12" text-anchor="middle">36</text><text x="520" y="355" fill="#2c3e50" font-family="Arial, sans-serif" font-size="12" text-anchor="middle">48</text><text x="600" y="355" fill="#2c3e50" font-family="Arial, sans-serif" font-size="12" text-anchor="middle">60</text><path stroke="#ecf0f1" d="M80 290h640M80 240h640M80 190h640M80 140h640M80 90h640M120 60v280M200 60v280M280 60v280M360 60v280M440 60v280M520 60v280M600 60v280"/><path fill="none" stroke="#3498db" stroke-width="4" d="m120 315 80-25 80-50 80-50 80-25 80-25 80-25"/><circle cx="120" cy="315" r="6" fill="#3498db" stroke="#fff" stroke-width="2"/><circle cx="200" cy="290" r="6" fill="#3498db" stroke="#fff" stroke-width="2"/><circle cx="280" cy="240" r="6" fill="#3498db" stroke="#fff" stroke-width="2"/><circle cx="360" cy="190" r="6" fill="#3498db" stroke="#fff" stroke-width="2"/><circle cx="440" cy="165" r="6" fill="#3498db" stroke="#fff" stroke-width="2"/><circle cx="520" cy="140" r="6" fill="#3498db" stroke="#fff" stroke-width="2"/><circle cx="600" cy="115" r="6" fill="#3498db" stroke="#fff" stroke-width="2"/><text x="120" y="305" fill="#3498db" font-family="Arial, sans-serif" font-size="10" font-weight="bold" text-anchor="middle">
    0.5%
  </text><text x="200" y="280" fill="#3498db" font-family="Arial, sans-serif" font-size="10" font-weight="bold" text-anchor="middle">
    1.0%
  </text><text x="280" y="230" fill="#3498db" font-family="Arial, sans-serif" font-size="10" font-weight="bold" text-anchor="middle">
    2.0%
  </text><text x="360" y="180" fill="#3498db" font-family="Arial, sans-serif" font-size="10" font-weight="bold" text-anchor="middle">
    3.0%
  </text><text x="440" y="155" fill="#3498db" font-family="Arial, sans-serif" font-size="10" font-weight="bold" text-anchor="middle">
    3.5%
  </text><text x="520" y="130" fill="#3498db" font-family="Arial, sans-serif" font-size="10" font-weight="bold" text-anchor="middle">
    4.0%
  </text><text x="600" y="105" fill="#3498db" font-family="Arial, sans-serif" font-size="10" font-weight="bold" text-anchor="middle">
    4.5%
  </text><rect width="150" height="80" x="550" y="80" fill="#fff" stroke="#bdc3c7" rx="5"/><text x="625" y="100" fill="#2c3e50" font-family="Arial, sans-serif" font-size="12" font-weight="bold" text-anchor="middle">
    Rentekurve
  </text><path stroke="#3498db" stroke-width="4" d="M570 115h20"/><circle cx="580" cy="115" r="4" fill="#3498db"/><text x="600" y="120" fill="#2c3e50" font-family="Arial, sans-serif" font-size="10">
    Terminskudd rente
  </text><text x="625" y="140" fill="#7f8c8d" font-family="Arial, sans-serif" font-size="9" text-anchor="middle">
    Lengre løpetid = høyere rente
  </text></svg>