<svg xmlns="http://www.w3.org/2000/svg" viewBox="0 0 800 600"><path fill="#f8f9fa" d="M0 0h800v600H0z"/><text x="400" y="40" fill="#2c3e50" font-size="24" font-weight="bold" text-anchor="middle">
    Case: Etterbetaling med Progressionseffekt
  </text><rect width="700" height="40" x="50" y="60" fill="#fff3cd" stroke="#ffc107" rx="8"/><text x="400" y="80" fill="#2c3e50" font-size="14" font-weight="bold" text-anchor="middle">
    Situasjon: Etterbetaling av uføretrygd på 120.000 kr
  </text><rect width="320" height="180" x="50" y="120" fill="#e8f4fd" stroke="#3498db" stroke-width="2" rx="8"/><text x="210" y="145" fill="#2c3e50" font-size="16" font-weight="bold" text-anchor="middle">
    Opprinnelig Situasjon
  </text><rect width="280" height="120" x="70" y="160" fill="#fff" stroke="#5dade2" rx="4"/><text x="80" y="180" fill="#2c3e50" font-size="12" font-weight="bold">
    Årlig før etterbetaling:
  </text><text x="80" y="200" fill="#34495e" font-size="11">
    • Uføretrygd: 200.000 kr
  </text><text x="80" y="220" fill="#34495e" font-size="11">
    • Trygdeavgift (5,1%): 10.200 kr
  </text><text x="80" y="240" fill="#34495e" font-size="11">
    • Ordinær skatt (estimert): 32.000 kr
  </text><text x="80" y="260" fill="#e74c3c" font-size="11" font-weight="bold">
    Total skatt og avgifter: 42.200 kr
  </text><rect width="320" height="180" x="430" y="120" fill="#fdeaea" stroke="#e74c3c" stroke-width="2" rx="8"/><text x="590" y="145" fill="#2c3e50" font-size="16" font-weight="bold" text-anchor="middle">
    Med Etterbetaling
  </text><rect width="280" height="120" x="450" y="160" fill="#fff" stroke="#f1948a" rx="4"/><text x="460" y="180" fill="#2c3e50" font-size="12" font-weight="bold">
    Årlig med etterbetaling:
  </text><text x="460" y="200" fill="#34495e" font-size="11">
    • Total inntekt: 320.000 kr
  </text><text x="460" y="220" fill="#34495e" font-size="11">
    • Trygdeavgift (5,1%): 16.320 kr
  </text><text x="460" y="240" fill="#34495e" font-size="11">
    • Ordinær skatt (høyere): 52.280 kr
  </text><text x="460" y="260" fill="#e74c3c" font-size="11" font-weight="bold">
    Total skatt og avgifter: 68.600 kr
  </text><rect width="600" height="140" x="100" y="320" fill="#f4f6f7" stroke="#7f8c8d" stroke-width="2" rx="8"/><text x="400" y="345" fill="#2c3e50" font-size="16" font-weight="bold" text-anchor="middle">
    Progressionseffekt Analyse
  </text><path fill="#3498db" stroke="#2980b9" d="M150 360h60v80h-60z"/><text x="180" y="380" fill="#fff" font-size="10" font-weight="bold" text-anchor="middle">
    21%
  </text><text x="180" y="455" fill="#2c3e50" font-size="11" text-anchor="middle">
    Normal år
  </text><text x="180" y="470" fill="#7f8c8d" font-size="10" text-anchor="middle">
    Effektiv skatt
  </text><path fill="#e74c3c" stroke="#c0392b" d="M250 360h60v100h-60z"/><text x="280" y="385" fill="#fff" font-size="10" font-weight="bold" text-anchor="middle">
    21,4%
  </text><text x="280" y="475" fill="#2c3e50" font-size="11" text-anchor="middle">
    Etterbetalingsår
  </text><text x="280" y="490" fill="#7f8c8d" font-size="10" text-anchor="middle">
    Effektiv skatt
  </text><path fill="none" stroke="#e74c3c" stroke-width="2" marker-end="url(#a)" d="M210 400h40"/><text x="230" y="395" fill="#e74c3c" font-size="10" font-weight="bold" text-anchor="middle">
    +0,4%
  </text><rect width="320" height="80" x="350" y="360" fill="#fff" stroke="#bdc3c7" rx="4"/><text x="510" y="380" fill="#2c3e50" font-size="12" font-weight="bold" text-anchor="middle">
    Detaljert Beregning
  </text><text x="370" y="400" fill="#34495e" font-size="11">
    • Ekstra skatt: 26.400 kr
  </text><text x="370" y="415" fill="#34495e" font-size="11">
    • Netto etterbetaling: 93.600 kr
  </text><text x="370" y="430" fill="#e74c3c" font-size="11" font-weight="bold">
    • Andel som skatt: 22% av etterbetaling
  </text><rect width="600" height="80" x="100" y="480" fill="#d4edda" stroke="#28a745" stroke-width="2" rx="8"/><text x="400" y="505" fill="#2c3e50" font-size="16" font-weight="bold" text-anchor="middle">
    Mulige Løsninger
  </text><text x="120" y="525" fill="#155724" font-size="12">
    • Søk om lemping ved høy ekstraskatt
  </text><text x="120" y="545" fill="#155724" font-size="12">
    • Vurder fordeling over flere år (hvis mulig)
  </text><text x="450" y="525" fill="#155724" font-size="12">
    • Kontakt skattekontoret for veiledning
  </text><text x="450" y="545" fill="#155724" font-size="12">
    • Planlegg for fremtidige etterbetalinger
  </text><defs><marker id="a" markerHeight="7" markerWidth="10" orient="auto" refX="9" refY="3.5"><path fill="#e74c3c" d="m0 0 10 3.5L0 7z"/></marker></defs><text x="400" y="585" fill="#7f8c8d" font-size="11" text-anchor="middle">
    Etterbetalinger kan skape progressionseffekt som øker den effektive skattesatsen betydelig
  </text></svg>