<svg xmlns="http://www.w3.org/2000/svg" viewBox="0 0 800 600"><path fill="#f8f9fa" d="M0 0h800v600H0z"/><text x="400" y="40" fill="#2c3e50" font-size="24" font-weight="bold" text-anchor="middle">
    Etterbetaling av Uføretrygd - Skattebehandling
  </text><text x="400" y="80" fill="#2c3e50" font-size="16" font-weight="bold" text-anchor="middle">
    Årsaker til Etterbetaling
  </text><rect width="160" height="80" x="50" y="100" fill="#fee2e2" stroke="#ef4444" rx="4"/><text x="130" y="120" fill="#2c3e50" font-size="12" font-weight="bold" text-anchor="middle">
    Forsinket
  </text><text x="130" y="135" fill="#2c3e50" font-size="12" font-weight="bold" text-anchor="middle">
    Saksbehandling
  </text><text x="130" y="155" fill="#7f8c8d" font-size="10" text-anchor="middle">
    NAV-forsinkelse
  </text><text x="130" y="170" fill="#7f8c8d" font-size="10" text-anchor="middle">
    Komplekse saker
  </text><rect width="160" height="80" x="230" y="100" fill="#fef3c7" stroke="#f59e0b" rx="4"/><text x="310" y="120" fill="#2c3e50" font-size="12" font-weight="bold" text-anchor="middle">
    Endret
  </text><text x="310" y="135" fill="#2c3e50" font-size="12" font-weight="bold" text-anchor="middle">
    Uføregrad
  </text><text x="310" y="155" fill="#7f8c8d" font-size="10" text-anchor="middle">
    Tilbakevirkende kraft
  </text><text x="310" y="170" fill="#7f8c8d" font-size="10" text-anchor="middle">
    Medisinsk vurdering
  </text><rect width="160" height="80" x="410" y="100" fill="#dbeafe" stroke="#3b82f6" rx="4"/><text x="490" y="120" fill="#2c3e50" font-size="12" font-weight="bold" text-anchor="middle">
    Feil
  </text><text x="490" y="135" fill="#2c3e50" font-size="12" font-weight="bold" text-anchor="middle">
    Beregninger
  </text><text x="490" y="155" fill="#7f8c8d" font-size="10" text-anchor="middle">
    Systemfeil
  </text><text x="490" y="170" fill="#7f8c8d" font-size="10" text-anchor="middle">
    Korrigering
  </text><rect width="160" height="80" x="590" y="100" fill="#d1fae5" stroke="#10b981" rx="4"/><text x="670" y="120" fill="#2c3e50" font-size="12" font-weight="bold" text-anchor="middle">
    Klagesaker
  </text><text x="670" y="135" fill="#2c3e50" font-size="12" font-weight="bold" text-anchor="middle">
    Medhold
  </text><text x="670" y="155" fill="#7f8c8d" font-size="10" text-anchor="middle">
    Ankeutvalg
  </text><text x="670" y="170" fill="#7f8c8d" font-size="10" text-anchor="middle">
    Domstol
  </text><rect width="600" height="180" x="100" y="220" fill="#f1f5f9" stroke="#64748b" stroke-width="2" rx="8"/><text x="400" y="250" fill="#2c3e50" font-size="16" font-weight="bold" text-anchor="middle">
    Skattemessig Behandling av Etterbetaling
  </text><rect width="180" height="60" x="120" y="270" fill="#fef7ff" stroke="#a855f7" rx="4"/><text x="210" y="290" fill="#2c3e50" font-size="12" font-weight="bold" text-anchor="middle">
    Inntektsår
  </text><text x="210" y="310" fill="#34495e" font-size="11" text-anchor="middle">
    Skattes i utbetalingsåret
  </text><text x="210" y="325" fill="#7f8c8d" font-size="10" text-anchor="middle">
    Ikke opptjeningsåret
  </text><rect width="180" height="60" x="320" y="270" fill="#fef7ff" stroke="#a855f7" rx="4"/><text x="410" y="290" fill="#2c3e50" font-size="12" font-weight="bold" text-anchor="middle">
    Skattetrekk
  </text><text x="410" y="310" fill="#34495e" font-size="11" text-anchor="middle">
    NAV trekker skatt
  </text><text x="410" y="325" fill="#7f8c8d" font-size="10" text-anchor="middle">
    Av hele etterbetalingen
  </text><rect width="180" height="60" x="520" y="270" fill="#fef7ff" stroke="#a855f7" rx="4"/><text x="610" y="290" fill="#2c3e50" font-size="12" font-weight="bold" text-anchor="middle">
    Progressionsvirkning
  </text><text x="610" y="310" fill="#34495e" font-size="11" text-anchor="middle">
    Høy marginalskatt
  </text><text x="610" y="325" fill="#7f8c8d" font-size="10" text-anchor="middle">
    Større skattebyrde
  </text><rect width="180" height="50" x="220" y="340" fill="#ecfdf5" stroke="#10b981" stroke-width="2" rx="4"/><text x="310" y="360" fill="#2c3e50" font-size="12" font-weight="bold" text-anchor="middle">
    Lemping
  </text><text x="310" y="380" fill="#34495e" font-size="11" text-anchor="middle">
    Søknad om skattelettelse
  </text><rect width="180" height="50" x="420" y="340" fill="#ecfdf5" stroke="#10b981" stroke-width="2" rx="4"/><text x="510" y="360" fill="#2c3e50" font-size="12" font-weight="bold" text-anchor="middle">
    Beregningseksempel
  </text><text x="510" y="380" fill="#34495e" font-size="11" text-anchor="middle">
    Se tabellen under
  </text><rect width="700" height="120" x="50" y="430" fill="#fff" stroke="#d1d5db" rx="4"/><text x="400" y="450" fill="#2c3e50" font-size="14" font-weight="bold" text-anchor="middle">
    Eksempel: Etterbetaling 120.000 kr
  </text><path fill="#f3f4f6" stroke="#d1d5db" d="M70 460h160v25H70z"/><text x="150" y="477" fill="#2c3e50" font-size="11" font-weight="bold" text-anchor="middle">
    Opprinnelig
  </text><path fill="#f3f4f6" stroke="#d1d5db" d="M230 460h160v25H230z"/><text x="310" y="477" fill="#2c3e50" font-size="11" font-weight="bold" text-anchor="middle">
    Med Etterbetaling
  </text><path fill="#f3f4f6" stroke="#d1d5db" d="M390 460h160v25H390z"/><text x="470" y="477" fill="#2c3e50" font-size="11" font-weight="bold" text-anchor="middle">
    Ekstra Skatt
  </text><path fill="#f3f4f6" stroke="#d1d5db" d="M550 460h160v25H550z"/><text x="630" y="477" fill="#2c3e50" font-size="11" font-weight="bold" text-anchor="middle">
    Netto Etterbetaling
  </text><path fill="#fff" stroke="#d1d5db" d="M70 485h160v25H70z"/><text x="150" y="502" fill="#2c3e50" font-size="10" text-anchor="middle">
    Uføretrygd: 200.000 kr
  </text><path fill="#fff" stroke="#d1d5db" d="M230 485h160v25H230z"/><text x="310" y="502" fill="#2c3e50" font-size="10" text-anchor="middle">
    Total: 320.000 kr
  </text><path fill="#fff" stroke="#d1d5db" d="M390 485h160v25H390z"/><text x="470" y="502" fill="#e74c3c" font-size="10" text-anchor="middle">
    +26.400 kr
  </text><path fill="#fff" stroke="#d1d5db" d="M550 485h160v25H550z"/><text x="630" y="502" fill="#27ae60" font-size="10" text-anchor="middle">
    93.600 kr
  </text><path fill="#fff" stroke="#d1d5db" d="M70 510h160v25H70z"/><text x="150" y="527" fill="#2c3e50" font-size="10" text-anchor="middle">
    Skatt: 42.200 kr
  </text><path fill="#fff" stroke="#d1d5db" d="M230 510h160v25H230z"/><text x="310" y="527" fill="#2c3e50" font-size="10" text-anchor="middle">
    Skatt: 68.600 kr
  </text><path fill="#fff" stroke="#d1d5db" d="M390 510h160v25H390z"/><text x="470" y="527" fill="#e74c3c" font-size="10" text-anchor="middle">
    Progressionseffekt
  </text><path fill="#fff" stroke="#d1d5db" d="M550 510h160v25H550z"/><text x="630" y="527" fill="#7f8c8d" font-size="10" text-anchor="middle">
    78% av etterbetaling
  </text><text x="400" y="575" fill="#7f8c8d" font-size="11" text-anchor="middle">
    Ved store etterbetalinger bør det vurderes å søke skattelettelse for å unngå urimelig høy skattebyrde
  </text></svg>