<svg xmlns="http://www.w3.org/2000/svg" viewBox="0 0 800 600"><path fill="#f8f9fa" d="M0 0h800v600H0z"/><text x="400" y="40" fill="#2c3e50" font-size="24" font-weight="bold" text-anchor="middle">
    Midlertidig vs Varig Uføretrygd
  </text><path stroke="#bdc3c7" stroke-dasharray="5,5" stroke-width="2" d="M400 70v480"/><rect width="320" height="40" x="50" y="80" fill="#ffeaa7" stroke="#fdcb6e" stroke-width="2" rx="8"/><text x="210" y="105" fill="#2c3e50" font-size="18" font-weight="bold" text-anchor="middle">
    Midlertidig Uføretrygd
  </text><rect width="280" height="60" x="70" y="140" fill="#fff3cd" stroke="#ffc107" rx="4"/><text x="210" y="160" fill="#2c3e50" font-size="14" font-weight="bold" text-anchor="middle">
    Varighet
  </text><text x="210" y="180" fill="#34495e" font-size="12" text-anchor="middle">
    Maksimal varighet: 3-5 år
  </text><text x="210" y="195" fill="#7f8c8d" font-size="11" text-anchor="middle">
    (avhengig av alder)
  </text><rect width="280" height="60" x="70" y="220" fill="#fff3cd" stroke="#ffc107" rx="4"/><text x="210" y="240" fill="#2c3e50" font-size="14" font-weight="bold" text-anchor="middle">
    Revurdering
  </text><text x="210" y="260" fill="#34495e" font-size="12" text-anchor="middle">
    Regelmessig vurdering
  </text><text x="210" y="275" fill="#7f8c8d" font-size="11" text-anchor="middle">
    Mulighet for bedring
  </text><rect width="280" height="60" x="70" y="300" fill="#fff3cd" stroke="#ffc107" rx="4"/><text x="210" y="320" fill="#2c3e50" font-size="14" font-weight="bold" text-anchor="middle">
    Skattebehandling
  </text><text x="210" y="340" fill="#34495e" font-size="12" text-anchor="middle">
    Samme som varig uføretrygd
  </text><text x="210" y="355" fill="#7f8c8d" font-size="11" text-anchor="middle">
    Skattepliktig inntekt
  </text><rect width="280" height="60" x="70" y="380" fill="#fff3cd" stroke="#ffc107" rx="4"/><text x="210" y="400" fill="#2c3e50" font-size="14" font-weight="bold" text-anchor="middle">
    Arbeidsrettede Tiltak
  </text><text x="210" y="420" fill="#34495e" font-size="12" text-anchor="middle">
    Aktiv oppfølging
  </text><text x="210" y="435" fill="#7f8c8d" font-size="11" text-anchor="middle">
    Rehabilitering og trening
  </text><rect width="320" height="40" x="430" y="80" fill="#a8e6cf" stroke="#81c784" stroke-width="2" rx="8"/><text x="590" y="105" fill="#2c3e50" font-size="18" font-weight="bold" text-anchor="middle">
    Varig Uføretrygd
  </text><rect width="280" height="60" x="450" y="140" fill="#d4edda" stroke="#28a745" rx="4"/><text x="590" y="160" fill="#2c3e50" font-size="14" font-weight="bold" text-anchor="middle">
    Varighet
  </text><text x="590" y="180" fill="#34495e" font-size="12" text-anchor="middle">
    Permanent ytelse
  </text><text x="590" y="195" fill="#7f8c8d" font-size="11" text-anchor="middle">
    Frem til alderspensjon (67 år)
  </text><rect width="280" height="60" x="450" y="220" fill="#d4edda" stroke="#28a745" rx="4"/><text x="590" y="240" fill="#2c3e50" font-size="14" font-weight="bold" text-anchor="middle">
    Revurdering
  </text><text x="590" y="260" fill="#34495e" font-size="12" text-anchor="middle">
    Sjelden revurdering
  </text><text x="590" y="275" fill="#7f8c8d" font-size="11" text-anchor="middle">
    Kun ved vesentlige endringer
  </text><rect width="280" height="60" x="450" y="300" fill="#d4edda" stroke="#28a745" rx="4"/><text x="590" y="320" fill="#2c3e50" font-size="14" font-weight="bold" text-anchor="middle">
    Skattebehandling
  </text><text x="590" y="340" fill="#34495e" font-size="12" text-anchor="middle">
    Permanent inntekt
  </text><text x="590" y="355" fill="#7f8c8d" font-size="11" text-anchor="middle">
    Langsiktig skatteplanlegging
  </text><rect width="280" height="60" x="450" y="380" fill="#d4edda" stroke="#28a745" rx="4"/><text x="590" y="400" fill="#2c3e50" font-size="14" font-weight="bold" text-anchor="middle">
    Pensjonsopptjening
  </text><text x="590" y="420" fill="#34495e" font-size="12" text-anchor="middle">
    Fortsetter automatisk
  </text><text x="590" y="435" fill="#7f8c8d" font-size="11" text-anchor="middle">
    Frem til alderspensjon
  </text><rect width="500" height="60" x="150" y="470" fill="#e9ecef" stroke="#6c757d" rx="8"/><text x="400" y="490" fill="#2c3e50" font-size="16" font-weight="bold" text-anchor="middle">
    Felles Egenskaper
  </text><text x="400" y="510" fill="#34495e" font-size="12" text-anchor="middle">
    • Samme skattebehandling • Trygdeavgift 5,1% • Uførefradrag inntil 19.000 kr
  </text><text x="400" y="525" fill="#34495e" font-size="12" text-anchor="middle">
    • Forskuddstrekk av NAV • Rapportering i A-melding • Forhåndsutfylt selvangivelse
  </text><path fill="none" stroke="#e74c3c" stroke-width="3" marker-end="url(#a)" d="M320 250q80-30 160 0"/><text x="400" y="230" fill="#e74c3c" font-size="11" font-weight="bold" text-anchor="middle">
    Overgang mulig
  </text><defs><marker id="a" markerHeight="7" markerWidth="10" orient="auto" refX="9" refY="3.5"><path fill="#e74c3c" d="m0 0 10 3.5L0 7z"/></marker></defs><text x="400" y="570" fill="#7f8c8d" font-size="11" text-anchor="middle">
    Overgangen fra midlertidig til varig uføretrygd krever ny medisinsk vurdering av arbeidsevnen
  </text></svg>