<svg xmlns="http://www.w3.org/2000/svg" width="800" height="400"><path fill="#f8f9fa" d="M0 0h800v400H0z"/><text x="400" y="30" fill="#2c3e50" font-family="Arial, sans-serif" font-size="24" font-weight="bold" text-anchor="middle">
    Kapitaloptimaliseringsstrategier
  </text><g transform="translate(320 160)"><circle cx="80" cy="80" r="60" fill="#f39c12" stroke="#e67e22" stroke-width="4"/><text x="80" y="75" fill="#fff" font-family="Arial, sans-serif" font-size="14" font-weight="bold" text-anchor="middle">
      KAPITAL-
    </text><text x="80" y="90" fill="#fff" font-family="Arial, sans-serif" font-size="14" font-weight="bold" text-anchor="middle">
      OPTIMALISERING
    </text></g><g transform="translate(50 60)"><rect width="180" height="100" fill="#27ae60" stroke="#229954" stroke-width="2" rx="10"/><text x="90" y="20" fill="#fff" font-family="Arial, sans-serif" font-size="14" font-weight="bold" text-anchor="middle">
      EGENKAPITALSTYRKING
    </text><text x="15" y="40" fill="#fff" font-family="Arial, sans-serif" font-size="11">• Egenfinansiering</text><text x="15" y="55" fill="#fff" font-family="Arial, sans-serif" font-size="11">• Kapitalutvidelser</text><text x="15" y="70" fill="#fff" font-family="Arial, sans-serif" font-size="11">• Tilbakeholdt overskudd</text><text x="15" y="85" fill="#fff" font-family="Arial, sans-serif" font-size="11">• Salg av eiendeler</text></g><g transform="translate(570 60)"><rect width="180" height="100" fill="#e74c3c" stroke="#c0392b" stroke-width="2" rx="10"/><text x="90" y="20" fill="#fff" font-family="Arial, sans-serif" font-size="14" font-weight="bold" text-anchor="middle">
      GJELDSOPTIMALISERING
    </text><text x="15" y="40" fill="#fff" font-family="Arial, sans-serif" font-size="11">• Refinansiering</text><text x="15" y="55" fill="#fff" font-family="Arial, sans-serif" font-size="11">• Diversifisering</text><text x="15" y="70" fill="#fff" font-family="Arial, sans-serif" font-size="11">• Bedre betingelser</text><text x="15" y="85" fill="#fff" font-family="Arial, sans-serif" font-size="11">• Løpetidsbalansering</text></g><g transform="translate(50 280)"><rect width="180" height="100" fill="#3498db" stroke="#2980b9" stroke-width="2" rx="10"/><text x="90" y="20" fill="#fff" font-family="Arial, sans-serif" font-size="14" font-weight="bold" text-anchor="middle">
      ARBEIDSKAPITAL-
    </text><text x="90" y="35" fill="#fff" font-family="Arial, sans-serif" font-size="14" font-weight="bold" text-anchor="middle">
      STYRING
    </text><text x="15" y="55" fill="#fff" font-family="Arial, sans-serif" font-size="11">• Kontantstrømstyring</text><text x="15" y="70" fill="#fff" font-family="Arial, sans-serif" font-size="11">• Redusert kapitalbinding</text><text x="15" y="85" fill="#fff" font-family="Arial, sans-serif" font-size="11">• Effektiv fakturering</text></g><g transform="translate(570 280)"><rect width="180" height="100" fill="#9b59b6" stroke="#8e44ad" stroke-width="2" rx="10"/><text x="90" y="20" fill="#fff" font-family="Arial, sans-serif" font-size="14" font-weight="bold" text-anchor="middle">
      RISIKOSTYRING
    </text><text x="15" y="45" fill="#fff" font-family="Arial, sans-serif" font-size="11">• Diversifisering</text><text x="15" y="60" fill="#fff" font-family="Arial, sans-serif" font-size="11">• Reserver</text><text x="15" y="75" fill="#fff" font-family="Arial, sans-serif" font-size="11">• Overvåking</text><text x="15" y="90" fill="#fff" font-family="Arial, sans-serif" font-size="11">• Beredskapsplaner</text></g><path fill="none" stroke="#27ae60" stroke-width="3" marker-end="url(#a)" d="m230 110 90 90"/><path fill="none" stroke="#e74c3c" stroke-width="3" marker-end="url(#b)" d="m570 110-90 90"/><path fill="none" stroke="#3498db" stroke-width="3" marker-end="url(#c)" d="m230 330 90-50"/><path fill="none" stroke="#9b59b6" stroke-width="3" marker-end="url(#d)" d="m570 330-90-50"/><g transform="translate(280 340)"><rect width="240" height="50" fill="#1abc9c" stroke="#16a085" stroke-width="2" rx="8"/><text x="120" y="18" fill="#fff" font-family="Arial, sans-serif" font-size="12" font-weight="bold" text-anchor="middle">
      RESULTATER AV OPTIMALISERING
    </text><text x="120" y="35" fill="#fff" font-family="Arial, sans-serif" font-size="10" text-anchor="middle">
      Bedre lønnsomhet • Lavere risiko • Økt fleksibilitet
    </text></g><defs><marker id="a" markerHeight="6" markerWidth="8" orient="auto" refX="7" refY="3"><path fill="#27ae60" d="m0 0 8 3-8 3z"/></marker><marker id="b" markerHeight="6" markerWidth="8" orient="auto" refX="7" refY="3"><path fill="#e74c3c" d="m0 0 8 3-8 3z"/></marker><marker id="c" markerHeight="6" markerWidth="8" orient="auto" refX="7" refY="3"><path fill="#3498db" d="m0 0 8 3-8 3z"/></marker><marker id="d" markerHeight="6" markerWidth="8" orient="auto" refX="7" refY="3"><path fill="#9b59b6" d="m0 0 8 3-8 3z"/></marker></defs></svg>