<svg xmlns="http://www.w3.org/2000/svg" width="800" height="400" viewBox="0 0 800 400"><path fill="#f8f9fa" d="M0 0h800v400H0z"/><text x="400" y="40" fill="#2c3e50" font-family="Arial, sans-serif" font-size="28" font-weight="bold" text-anchor="middle">
    Ansvarlig Selskap og Delt Ansvar
  </text><circle cx="400" cy="200" r="80" fill="#3498db" stroke="#2980b9" stroke-width="3"/><text x="400" y="195" fill="#fff" font-family="Arial, sans-serif" font-size="16" font-weight="bold" text-anchor="middle">
    Ansvarlig
  </text><text x="400" y="215" fill="#fff" font-family="Arial, sans-serif" font-size="16" font-weight="bold" text-anchor="middle">
    Selskap
  </text><circle cx="250" cy="150" r="50" fill="#e74c3c" stroke="#c0392b" stroke-width="2"/><text x="250" y="145" fill="#fff" font-family="Arial, sans-serif" font-size="12" font-weight="bold" text-anchor="middle">
    Deltaker
  </text><text x="250" y="160" fill="#fff" font-family="Arial, sans-serif" font-size="12" font-weight="bold" text-anchor="middle">
    1
  </text><circle cx="550" cy="150" r="50" fill="#e74c3c" stroke="#c0392b" stroke-width="2"/><text x="550" y="145" fill="#fff" font-family="Arial, sans-serif" font-size="12" font-weight="bold" text-anchor="middle">
    Deltaker
  </text><text x="550" y="160" fill="#fff" font-family="Arial, sans-serif" font-size="12" font-weight="bold" text-anchor="middle">
    2
  </text><circle cx="400" cy="320" r="50" fill="#e74c3c" stroke="#c0392b" stroke-width="2"/><text x="400" y="315" fill="#fff" font-family="Arial, sans-serif" font-size="12" font-weight="bold" text-anchor="middle">
    Deltaker
  </text><text x="400" y="330" fill="#fff" font-family="Arial, sans-serif" font-size="12" font-weight="bold" text-anchor="middle">
    3
  </text><path stroke="#34495e" stroke-dasharray="5,5" stroke-width="3" d="m300 170 50 10M500 170l-50 10M400 270v10"/><path fill="none" stroke="#e67e22" stroke-width="2" d="m200 100 50 20-10-5m10 5-10 5"/><text x="150" y="95" fill="#e67e22" font-family="Arial, sans-serif" font-size="12" font-weight="bold">
    Ubegrenset ansvar
  </text><path fill="none" stroke="#e67e22" stroke-width="2" d="m600 100-50 20 10-5m-10 5 10 5"/><text x="610" y="95" fill="#e67e22" font-family="Arial, sans-serif" font-size="12" font-weight="bold">
    Solidarisk ansvar
  </text><rect width="160" height="30" x="320" y="60" fill="#f39c12" stroke="#e67e22" stroke-width="2" rx="5"/><text x="400" y="80" fill="#fff" font-family="Arial, sans-serif" font-size="14" font-weight="bold" text-anchor="middle">
    Selskapets gjeld
  </text><path fill="#e74c3c" stroke="#c0392b" stroke-width="2" d="m70 350 20-30 20 30z"/><text x="90" y="345" fill="#fff" font-family="Arial, sans-serif" font-size="16" font-weight="bold" text-anchor="middle">!</text><text x="130" y="340" fill="#e74c3c" font-family="Arial, sans-serif" font-size="12" font-weight="bold">
    Hver deltaker kan holdes
  </text><text x="130" y="355" fill="#e74c3c" font-family="Arial, sans-serif" font-size="12" font-weight="bold">
    ansvarlig for hele gjelden
  </text></svg>