<svg xmlns="http://www.w3.org/2000/svg" width="800" height="500" viewBox="0 0 800 500"><path fill="#f8f9fa" d="M0 0h800v500H0z"/><text x="400" y="30" fill="#2c3e50" font-family="Arial, sans-serif" font-size="24" font-weight="bold" text-anchor="middle">
    Sammenligning av Ansvarsformer
  </text><rect width="220" height="180" x="50" y="60" fill="#e74c3c" stroke="#c0392b" stroke-width="2" rx="10"/><text x="160" y="85" fill="#fff" font-family="Arial, sans-serif" font-size="16" font-weight="bold" text-anchor="middle">
    Solidarisk Ansvar
  </text><circle cx="100" cy="120" r="20" fill="#fff" stroke="#c0392b" stroke-width="2"/><text x="100" y="125" fill="#c0392b" font-family="Arial, sans-serif" font-size="10" font-weight="bold" text-anchor="middle">A</text><circle cx="160" cy="120" r="20" fill="#fff" stroke="#c0392b" stroke-width="2"/><text x="160" y="125" fill="#c0392b" font-family="Arial, sans-serif" font-size="10" font-weight="bold" text-anchor="middle">B</text><circle cx="220" cy="120" r="20" fill="#fff" stroke="#c0392b" stroke-width="2"/><text x="220" y="125" fill="#c0392b" font-family="Arial, sans-serif" font-size="10" font-weight="bold" text-anchor="middle">C</text><rect width="160" height="25" x="80" y="160" fill="#f39c12" stroke="#e67e22" rx="3"/><text x="160" y="177" fill="#fff" font-family="Arial, sans-serif" font-size="12" font-weight="bold" text-anchor="middle">
    100% gjeld hver
  </text><text x="160" y="205" fill="#fff" font-family="Arial, sans-serif" font-size="11" text-anchor="middle">
    Hver kan holdes ansvarlig
  </text><text x="160" y="220" fill="#fff" font-family="Arial, sans-serif" font-size="11" text-anchor="middle">
    for hele gjelden
  </text><rect width="220" height="180" x="290" y="60" fill="#3498db" stroke="#2980b9" stroke-width="2" rx="10"/><text x="400" y="85" fill="#fff" font-family="Arial, sans-serif" font-size="16" font-weight="bold" text-anchor="middle">
    Pro Rata Ansvar
  </text><circle cx="340" cy="120" r="20" fill="#fff" stroke="#2980b9" stroke-width="2"/><text x="340" y="125" fill="#2980b9" font-family="Arial, sans-serif" font-size="10" font-weight="bold" text-anchor="middle">A</text><circle cx="400" cy="120" r="20" fill="#fff" stroke="#2980b9" stroke-width="2"/><text x="400" y="125" fill="#2980b9" font-family="Arial, sans-serif" font-size="10" font-weight="bold" text-anchor="middle">B</text><circle cx="460" cy="120" r="20" fill="#fff" stroke="#2980b9" stroke-width="2"/><text x="460" y="125" fill="#2980b9" font-family="Arial, sans-serif" font-size="10" font-weight="bold" text-anchor="middle">C</text><path fill="#f39c12" stroke="#e67e22" d="M320 160h40v15h-40z"/><text x="340" y="185" fill="#fff" font-family="Arial, sans-serif" font-size="9" text-anchor="middle">33%</text><path fill="#f39c12" stroke="#e67e22" d="M380 160h40v15h-40z"/><text x="400" y="185" fill="#fff" font-family="Arial, sans-serif" font-size="9" text-anchor="middle">33%</text><path fill="#f39c12" stroke="#e67e22" d="M440 160h40v15h-40z"/><text x="460" y="185" fill="#fff" font-family="Arial, sans-serif" font-size="9" text-anchor="middle">33%</text><text x="400" y="205" fill="#fff" font-family="Arial, sans-serif" font-size="11" text-anchor="middle">
    Ansvar etter eierandel
  </text><text x="400" y="220" fill="#fff" font-family="Arial, sans-serif" font-size="11" text-anchor="middle">
    eller avtalt fordeling
  </text><rect width="220" height="180" x="530" y="60" fill="#27ae60" stroke="#229954" stroke-width="2" rx="10"/><text x="640" y="85" fill="#fff" font-family="Arial, sans-serif" font-size="16" font-weight="bold" text-anchor="middle">
    Begrenset Ansvar
  </text><circle cx="580" cy="120" r="20" fill="#fff" stroke="#229954" stroke-width="2"/><text x="580" y="125" fill="#229954" font-family="Arial, sans-serif" font-size="10" font-weight="bold" text-anchor="middle">A</text><circle cx="640" cy="120" r="20" fill="#fff" stroke="#229954" stroke-width="2"/><text x="640" y="125" fill="#229954" font-family="Arial, sans-serif" font-size="10" font-weight="bold" text-anchor="middle">B</text><circle cx="700" cy="120" r="20" fill="#fff" stroke="#229954" stroke-width="2"/><text x="700" y="125" fill="#229954" font-family="Arial, sans-serif" font-size="10" font-weight="bold" text-anchor="middle">C</text><path fill="#f39c12" stroke="#e67e22" d="m640 150-10 10v15q0 10 10 15 10-5 10-15v-15Z"/><text x="640" y="170" fill="#fff" font-family="Arial, sans-serif" font-size="10" font-weight="bold" text-anchor="middle">✓</text><text x="640" y="205" fill="#fff" font-family="Arial, sans-serif" font-size="11" text-anchor="middle">
    Kun ansvar til
  </text><text x="640" y="220" fill="#fff" font-family="Arial, sans-serif" font-size="11" text-anchor="middle">
    investert kapital
  </text><text x="400" y="280" fill="#2c3e50" font-family="Arial, sans-serif" font-size="18" font-weight="bold" text-anchor="middle">
    Eksempler på Selskapsformer
  </text><rect width="220" height="80" x="50" y="300" fill="#ecf0f1" stroke="#bdc3c7" rx="5"/><text x="160" y="320" fill="#e74c3c" font-family="Arial, sans-serif" font-size="14" font-weight="bold" text-anchor="middle">
    Ansvarlig Selskap (ANS)
  </text><text x="160" y="340" fill="#2c3e50" font-family="Arial, sans-serif" font-size="12" text-anchor="middle">
    • Ubegrenset solidarisk ansvar
  </text><text x="160" y="355" fill="#2c3e50" font-family="Arial, sans-serif" font-size="12" text-anchor="middle">
    • Advokatfirmaer, konsulenter
  </text><text x="160" y="370" fill="#2c3e50" font-family="Arial, sans-serif" font-size="12" text-anchor="middle">
    • Ingen krav til aksjekapital
  </text><rect width="220" height="80" x="290" y="300" fill="#ecf0f1" stroke="#bdc3c7" rx="5"/><text x="400" y="320" fill="#3498db" font-family="Arial, sans-serif" font-size="14" font-weight="bold" text-anchor="middle">
    Kommandittselskap (KS)
  </text><text x="400" y="340" fill="#2c3e50" font-family="Arial, sans-serif" font-size="12" text-anchor="middle">
    • Blandet ansvar
  </text><text x="400" y="355" fill="#2c3e50" font-family="Arial, sans-serif" font-size="12" text-anchor="middle">
    • Komplementar + kommandittist
  </text><text x="400" y="370" fill="#2c3e50" font-family="Arial, sans-serif" font-size="12" text-anchor="middle">
    • Investorselskaper
  </text><rect width="220" height="80" x="530" y="300" fill="#ecf0f1" stroke="#bdc3c7" rx="5"/><text x="640" y="320" fill="#27ae60" font-family="Arial, sans-serif" font-size="14" font-weight="bold" text-anchor="middle">
    Aksjeselskap (AS)
  </text><text x="640" y="340" fill="#2c3e50" font-family="Arial, sans-serif" font-size="12" text-anchor="middle">
    • Begrenset ansvar
  </text><text x="640" y="355" fill="#2c3e50" font-family="Arial, sans-serif" font-size="12" text-anchor="middle">
    • Min. 30 000 kr aksjekapital
  </text><text x="640" y="370" fill="#2c3e50" font-family="Arial, sans-serif" font-size="12" text-anchor="middle">
    • Vanligste selskapsform
  </text><text x="160" y="420" fill="#e74c3c" font-family="Arial, sans-serif" font-size="12" font-weight="bold" text-anchor="middle">
    HØY RISIKO
  </text><text x="400" y="420" fill="#f39c12" font-family="Arial, sans-serif" font-size="12" font-weight="bold" text-anchor="middle">
    MIDDELS RISIKO
  </text><text x="640" y="420" fill="#27ae60" font-family="Arial, sans-serif" font-size="12" font-weight="bold" text-anchor="middle">
    LAV RISIKO
  </text><path fill="#e74c3c" d="M130 430h60v8h-60z"/><path fill="#f39c12" d="M370 430h60v8h-60z"/><path fill="#27ae60" d="M610 430h60v8h-60z"/><text x="400" y="470" fill="#7f8c8d" font-family="Arial, sans-serif" font-size="11" font-style="italic" text-anchor="middle">
    Risiko refererer til personlig økonomisk eksponering for deltakerne
  </text></svg>